G04 Layer: BottomSolderMaskLayer*
G04 EasyEDA v6.5.29, 2023-07-16 15:11:24*
G04 e993e5008f34484d8f658c3e023484e8,5a6b42c53f6a479593ecc07194224c93,10*
G04 Gerber Generator version 0.2*
G04 Scale: 100 percent, Rotated: No, Reflected: No *
G04 Dimensions in millimeters *
G04 leading zeros omitted , absolute positions ,4 integer and 5 decimal *
%FSLAX45Y45*%
%MOMM*%

%ADD10O,6.6032126X3.4031936000000003*%

%LPD*%
G36*
X465886Y11171174D02*
G01*
X449935Y11170564D01*
X434035Y11169142D01*
X418236Y11166906D01*
X402539Y11163858D01*
X387045Y11159998D01*
X379374Y11157813D01*
X364185Y11152784D01*
X349300Y11146993D01*
X334721Y11140490D01*
X320497Y11133226D01*
X306679Y11125200D01*
X293268Y11116564D01*
X280314Y11107166D01*
X267868Y11097209D01*
X255981Y11086541D01*
X244602Y11075314D01*
X239115Y11069523D01*
X228650Y11057432D01*
X218795Y11044885D01*
X209600Y11031829D01*
X201117Y11018316D01*
X193294Y11004346D01*
X186232Y10990072D01*
X179882Y10975390D01*
X174294Y10960455D01*
X169468Y10945215D01*
X165404Y10929772D01*
X162204Y10914126D01*
X159766Y10898327D01*
X158140Y10882426D01*
X157327Y10866475D01*
X157175Y10858500D01*
X157632Y10842548D01*
X158851Y10826597D01*
X160883Y10810748D01*
X163728Y10795050D01*
X165404Y10787227D01*
X169468Y10771784D01*
X174294Y10756544D01*
X179882Y10741609D01*
X186232Y10726928D01*
X193294Y10712653D01*
X201117Y10698683D01*
X209600Y10685170D01*
X218795Y10672114D01*
X228650Y10659567D01*
X239115Y10647476D01*
X250190Y10635996D01*
X261874Y10625074D01*
X267868Y10619790D01*
X280314Y10609834D01*
X293268Y10600436D01*
X306679Y10591800D01*
X320497Y10583773D01*
X334721Y10576509D01*
X349300Y10570006D01*
X364185Y10564215D01*
X379374Y10559186D01*
X394766Y10554970D01*
X410362Y10551515D01*
X426110Y10548874D01*
X441959Y10547045D01*
X457911Y10546029D01*
X473913Y10545826D01*
X489864Y10546435D01*
X505764Y10547858D01*
X521563Y10550093D01*
X537260Y10553141D01*
X552754Y10557002D01*
X560425Y10559186D01*
X575614Y10564215D01*
X590499Y10570006D01*
X605078Y10576509D01*
X619302Y10583773D01*
X633120Y10591800D01*
X646531Y10600436D01*
X659485Y10609834D01*
X671931Y10619790D01*
X683818Y10630458D01*
X695198Y10641685D01*
X700684Y10647476D01*
X711149Y10659567D01*
X721004Y10672114D01*
X730199Y10685170D01*
X738682Y10698683D01*
X746506Y10712653D01*
X753567Y10726928D01*
X759917Y10741609D01*
X765505Y10756544D01*
X770331Y10771784D01*
X774395Y10787227D01*
X777595Y10802874D01*
X780034Y10818672D01*
X781659Y10834573D01*
X782472Y10850524D01*
X782624Y10858500D01*
X782167Y10874451D01*
X780948Y10890402D01*
X778916Y10906252D01*
X776071Y10921949D01*
X774395Y10929772D01*
X770331Y10945215D01*
X765505Y10960455D01*
X759917Y10975390D01*
X753567Y10990072D01*
X746506Y11004346D01*
X738682Y11018316D01*
X730199Y11031829D01*
X721004Y11044885D01*
X711149Y11057432D01*
X700684Y11069523D01*
X689610Y11081004D01*
X677926Y11091926D01*
X671931Y11097209D01*
X659485Y11107166D01*
X646531Y11116564D01*
X633120Y11125200D01*
X619302Y11133226D01*
X605078Y11140490D01*
X590499Y11146993D01*
X575614Y11152784D01*
X560425Y11157813D01*
X545033Y11162030D01*
X529437Y11165484D01*
X513689Y11168126D01*
X497840Y11169954D01*
X481888Y11170970D01*
G37*
G36*
X8682786Y11171174D02*
G01*
X8666835Y11170564D01*
X8650935Y11169142D01*
X8635136Y11166906D01*
X8619439Y11163858D01*
X8603945Y11159998D01*
X8596274Y11157813D01*
X8581085Y11152784D01*
X8566200Y11146993D01*
X8551621Y11140490D01*
X8537397Y11133226D01*
X8523579Y11125200D01*
X8510168Y11116564D01*
X8497214Y11107166D01*
X8484768Y11097209D01*
X8472881Y11086541D01*
X8461502Y11075314D01*
X8456015Y11069523D01*
X8445550Y11057432D01*
X8435695Y11044885D01*
X8426500Y11031829D01*
X8418017Y11018316D01*
X8410194Y11004346D01*
X8403132Y10990072D01*
X8396782Y10975390D01*
X8391194Y10960455D01*
X8386368Y10945215D01*
X8382304Y10929772D01*
X8379104Y10914126D01*
X8376666Y10898327D01*
X8375040Y10882426D01*
X8374227Y10866475D01*
X8374227Y10850524D01*
X8375040Y10834573D01*
X8376666Y10818672D01*
X8379104Y10802874D01*
X8382304Y10787227D01*
X8386368Y10771784D01*
X8391194Y10756544D01*
X8396782Y10741609D01*
X8403132Y10726928D01*
X8410194Y10712653D01*
X8418017Y10698683D01*
X8426500Y10685170D01*
X8435695Y10672114D01*
X8445550Y10659567D01*
X8456015Y10647476D01*
X8467090Y10635996D01*
X8478774Y10625074D01*
X8484768Y10619790D01*
X8497214Y10609834D01*
X8510168Y10600436D01*
X8523579Y10591800D01*
X8537397Y10583773D01*
X8551621Y10576509D01*
X8566200Y10570006D01*
X8581085Y10564215D01*
X8596274Y10559186D01*
X8611666Y10554970D01*
X8627262Y10551515D01*
X8643010Y10548874D01*
X8658860Y10547045D01*
X8674811Y10546029D01*
X8690813Y10545826D01*
X8706764Y10546435D01*
X8722664Y10547858D01*
X8738463Y10550093D01*
X8754160Y10553141D01*
X8769654Y10557002D01*
X8777325Y10559186D01*
X8792514Y10564215D01*
X8807399Y10570006D01*
X8821978Y10576509D01*
X8836202Y10583773D01*
X8850020Y10591800D01*
X8863431Y10600436D01*
X8876385Y10609834D01*
X8888831Y10619790D01*
X8900718Y10630458D01*
X8912098Y10641685D01*
X8917584Y10647476D01*
X8928049Y10659567D01*
X8937904Y10672114D01*
X8947099Y10685170D01*
X8955582Y10698683D01*
X8963406Y10712653D01*
X8970467Y10726928D01*
X8976817Y10741609D01*
X8982405Y10756544D01*
X8987231Y10771784D01*
X8991295Y10787227D01*
X8994495Y10802874D01*
X8996934Y10818672D01*
X8998559Y10834573D01*
X8999372Y10850524D01*
X8999372Y10866475D01*
X8998559Y10882426D01*
X8996934Y10898327D01*
X8994495Y10914126D01*
X8991295Y10929772D01*
X8987231Y10945215D01*
X8982405Y10960455D01*
X8976817Y10975390D01*
X8970467Y10990072D01*
X8963406Y11004346D01*
X8955582Y11018316D01*
X8947099Y11031829D01*
X8937904Y11044885D01*
X8928049Y11057432D01*
X8917584Y11069523D01*
X8906510Y11081004D01*
X8894826Y11091926D01*
X8888831Y11097209D01*
X8876385Y11107166D01*
X8863431Y11116564D01*
X8850020Y11125200D01*
X8836202Y11133226D01*
X8821978Y11140490D01*
X8807399Y11146993D01*
X8792514Y11152784D01*
X8777325Y11157813D01*
X8761933Y11162030D01*
X8746337Y11165484D01*
X8730589Y11168126D01*
X8714740Y11169954D01*
X8698788Y11170970D01*
G37*
G36*
X8682786Y2852674D02*
G01*
X8666835Y2852064D01*
X8650935Y2850642D01*
X8635136Y2848406D01*
X8619439Y2845358D01*
X8603945Y2841498D01*
X8596274Y2839313D01*
X8581085Y2834284D01*
X8566200Y2828493D01*
X8551621Y2821990D01*
X8537397Y2814726D01*
X8523579Y2806700D01*
X8510168Y2798064D01*
X8497214Y2788666D01*
X8484768Y2778709D01*
X8472881Y2768041D01*
X8461502Y2756814D01*
X8456015Y2751023D01*
X8445550Y2738932D01*
X8435695Y2726385D01*
X8426500Y2713329D01*
X8418017Y2699816D01*
X8410194Y2685846D01*
X8403132Y2671572D01*
X8396782Y2656890D01*
X8391194Y2641955D01*
X8386368Y2626715D01*
X8382304Y2611272D01*
X8379104Y2595626D01*
X8376666Y2579827D01*
X8375040Y2563926D01*
X8374227Y2547975D01*
X8374227Y2532024D01*
X8375040Y2516073D01*
X8376666Y2500172D01*
X8379104Y2484374D01*
X8382304Y2468727D01*
X8386368Y2453284D01*
X8391194Y2438044D01*
X8396782Y2423109D01*
X8403132Y2408428D01*
X8410194Y2394153D01*
X8418017Y2380183D01*
X8426500Y2366670D01*
X8435695Y2353614D01*
X8445550Y2341067D01*
X8456015Y2328976D01*
X8467090Y2317496D01*
X8478774Y2306574D01*
X8484768Y2301290D01*
X8497214Y2291334D01*
X8510168Y2281936D01*
X8523579Y2273300D01*
X8537397Y2265273D01*
X8551621Y2258009D01*
X8566200Y2251506D01*
X8581085Y2245715D01*
X8596274Y2240686D01*
X8611666Y2236470D01*
X8627262Y2233015D01*
X8643010Y2230374D01*
X8658860Y2228545D01*
X8674811Y2227529D01*
X8690813Y2227326D01*
X8706764Y2227935D01*
X8722664Y2229358D01*
X8738463Y2231593D01*
X8754160Y2234641D01*
X8769654Y2238502D01*
X8777325Y2240686D01*
X8792514Y2245715D01*
X8807399Y2251506D01*
X8821978Y2258009D01*
X8836202Y2265273D01*
X8850020Y2273300D01*
X8863431Y2281936D01*
X8876385Y2291334D01*
X8888831Y2301290D01*
X8900718Y2311958D01*
X8912098Y2323185D01*
X8917584Y2328976D01*
X8928049Y2341067D01*
X8937904Y2353614D01*
X8947099Y2366670D01*
X8955582Y2380183D01*
X8963406Y2394153D01*
X8970467Y2408428D01*
X8976817Y2423109D01*
X8982405Y2438044D01*
X8987231Y2453284D01*
X8991295Y2468727D01*
X8994495Y2484374D01*
X8996934Y2500172D01*
X8998559Y2516073D01*
X8999372Y2532024D01*
X8999372Y2547975D01*
X8998559Y2563926D01*
X8996934Y2579827D01*
X8994495Y2595626D01*
X8991295Y2611272D01*
X8987231Y2626715D01*
X8982405Y2641955D01*
X8976817Y2656890D01*
X8970467Y2671572D01*
X8963406Y2685846D01*
X8955582Y2699816D01*
X8947099Y2713329D01*
X8937904Y2726385D01*
X8928049Y2738932D01*
X8917584Y2751023D01*
X8906510Y2762504D01*
X8894826Y2773426D01*
X8888831Y2778709D01*
X8876385Y2788666D01*
X8863431Y2798064D01*
X8850020Y2806700D01*
X8836202Y2814726D01*
X8821978Y2821990D01*
X8807399Y2828493D01*
X8792514Y2834284D01*
X8777325Y2839313D01*
X8761933Y2843530D01*
X8746337Y2846984D01*
X8730589Y2849626D01*
X8714740Y2851454D01*
X8698788Y2852470D01*
G37*
G36*
X465886Y2852674D02*
G01*
X449935Y2852064D01*
X434035Y2850642D01*
X418236Y2848406D01*
X402539Y2845358D01*
X387045Y2841498D01*
X379374Y2839313D01*
X364185Y2834284D01*
X349300Y2828493D01*
X334721Y2821990D01*
X320497Y2814726D01*
X306679Y2806700D01*
X293268Y2798064D01*
X280314Y2788666D01*
X267868Y2778709D01*
X255981Y2768041D01*
X244602Y2756814D01*
X239115Y2751023D01*
X228650Y2738932D01*
X218795Y2726385D01*
X209600Y2713329D01*
X201117Y2699816D01*
X193294Y2685846D01*
X186232Y2671572D01*
X179882Y2656890D01*
X174294Y2641955D01*
X169468Y2626715D01*
X165404Y2611272D01*
X162204Y2595626D01*
X159766Y2579827D01*
X158140Y2563926D01*
X157327Y2547975D01*
X157175Y2540000D01*
X157632Y2524048D01*
X158851Y2508097D01*
X160883Y2492248D01*
X163728Y2476550D01*
X165404Y2468727D01*
X169468Y2453284D01*
X174294Y2438044D01*
X179882Y2423109D01*
X186232Y2408428D01*
X193294Y2394153D01*
X201117Y2380183D01*
X209600Y2366670D01*
X218795Y2353614D01*
X228650Y2341067D01*
X239115Y2328976D01*
X250190Y2317496D01*
X261874Y2306574D01*
X267868Y2301290D01*
X280314Y2291334D01*
X293268Y2281936D01*
X306679Y2273300D01*
X320497Y2265273D01*
X334721Y2258009D01*
X349300Y2251506D01*
X364185Y2245715D01*
X379374Y2240686D01*
X394766Y2236470D01*
X410362Y2233015D01*
X426110Y2230374D01*
X441959Y2228545D01*
X457911Y2227529D01*
X473913Y2227326D01*
X489864Y2227935D01*
X505764Y2229358D01*
X521563Y2231593D01*
X537260Y2234641D01*
X552754Y2238502D01*
X560425Y2240686D01*
X575614Y2245715D01*
X590499Y2251506D01*
X605078Y2258009D01*
X619302Y2265273D01*
X633120Y2273300D01*
X646531Y2281936D01*
X659485Y2291334D01*
X671931Y2301290D01*
X683818Y2311958D01*
X695198Y2323185D01*
X700684Y2328976D01*
X711149Y2341067D01*
X721004Y2353614D01*
X730199Y2366670D01*
X738682Y2380183D01*
X746506Y2394153D01*
X753567Y2408428D01*
X759917Y2423109D01*
X765505Y2438044D01*
X770331Y2453284D01*
X774395Y2468727D01*
X777595Y2484374D01*
X780034Y2500172D01*
X781659Y2516073D01*
X782472Y2532024D01*
X782624Y2540000D01*
X782167Y2555951D01*
X780948Y2571902D01*
X778916Y2587752D01*
X776071Y2603449D01*
X774395Y2611272D01*
X770331Y2626715D01*
X765505Y2641955D01*
X759917Y2656890D01*
X753567Y2671572D01*
X746506Y2685846D01*
X738682Y2699816D01*
X730199Y2713329D01*
X721004Y2726385D01*
X711149Y2738932D01*
X700684Y2751023D01*
X689610Y2762504D01*
X677926Y2773426D01*
X671931Y2778709D01*
X659485Y2788666D01*
X646531Y2798064D01*
X633120Y2806700D01*
X619302Y2814726D01*
X605078Y2821990D01*
X590499Y2828493D01*
X575614Y2834284D01*
X560425Y2839313D01*
X545033Y2843530D01*
X529437Y2846984D01*
X513689Y2849626D01*
X497840Y2851454D01*
X481888Y2852470D01*
G37*
D10*
G01*
X736600Y12573000D03*
G01*
X8382000Y12573000D03*
G01*
X736600Y330200D03*
G01*
X8382000Y330200D03*
G36*
X0Y12852400D02*
G01*
X9131300Y12852400D01*
X9131300Y12152401D01*
X0Y12152401D01*
G37*
G36*
X0Y699998D02*
G01*
X9131300Y699998D01*
X9131300Y0D01*
X0Y0D01*
G37*
M02*
