G04 Layer: TopSilkscreenLayer*
G04 EasyEDA v6.5.29, 2023-07-16 15:11:24*
G04 2c12c0e84ba74d3092461a17c469f48c,5a6b42c53f6a479593ecc07194224c93,10*
G04 Gerber Generator version 0.2*
G04 Scale: 100 percent, Rotated: No, Reflected: No *
G04 Dimensions in millimeters *
G04 leading zeros omitted , absolute positions ,4 integer and 5 decimal *
%FSLAX45Y45*%
%MOMM*%

%ADD10C,0.2540*%
%ADD11C,0.1524*%
%ADD12C,0.3000*%

%LPD*%
G36*
X1760067Y12718745D02*
G01*
X1754682Y12718542D01*
X1748688Y12717830D01*
X1742135Y12716611D01*
X1734972Y12714884D01*
X1722780Y12711277D01*
X1713992Y12708026D01*
X1705203Y12704114D01*
X1696466Y12699593D01*
X1687626Y12694412D01*
X1678787Y12688570D01*
X1669796Y12681966D01*
X1660753Y12674650D01*
X1651507Y12666573D01*
X1642110Y12657683D01*
X1632508Y12647980D01*
X1622653Y12637465D01*
X1612544Y12626035D01*
X1602130Y12613741D01*
X1591360Y12600533D01*
X1545336Y12540792D01*
X1526590Y12517120D01*
X1514398Y12502388D01*
X1510741Y12498730D01*
X1510538Y12499340D01*
X1511350Y12503861D01*
X1513636Y12512294D01*
X1521917Y12538303D01*
X1527505Y12554712D01*
X1533347Y12571018D01*
X1539189Y12586055D01*
X1545285Y12600838D01*
X1551635Y12615164D01*
X1558086Y12628778D01*
X1564487Y12641427D01*
X1570736Y12652959D01*
X1576730Y12663119D01*
X1582318Y12671704D01*
X1587347Y12678460D01*
X1591818Y12683236D01*
X1593748Y12684760D01*
X1595526Y12685725D01*
X1597050Y12686030D01*
X1600352Y12687198D01*
X1605686Y12690195D01*
X1612239Y12694666D01*
X1619402Y12700152D01*
X1628292Y12707772D01*
X1629968Y12710058D01*
X1629664Y12711328D01*
X1627225Y12711785D01*
X1622501Y12711480D01*
X1605686Y12708890D01*
X1597101Y12707112D01*
X1588668Y12704775D01*
X1580286Y12701879D01*
X1572006Y12698323D01*
X1563776Y12694107D01*
X1555546Y12689179D01*
X1547266Y12683540D01*
X1538935Y12677190D01*
X1530553Y12670078D01*
X1522018Y12662154D01*
X1513332Y12653365D01*
X1504442Y12643764D01*
X1495399Y12633299D01*
X1486052Y12621920D01*
X1476451Y12609576D01*
X1466596Y12596317D01*
X1456334Y12582042D01*
X1437182Y12554305D01*
X1415643Y12524028D01*
X1399082Y12501626D01*
X1384096Y12482068D01*
X1371447Y12466472D01*
X1361948Y12455906D01*
X1352804Y12447473D01*
X1346911Y12442494D01*
X1342288Y12439294D01*
X1338630Y12437821D01*
X1335582Y12437922D01*
X1332941Y12439650D01*
X1330350Y12442850D01*
X1324406Y12452299D01*
X1320901Y12456160D01*
X1317193Y12459106D01*
X1313383Y12461138D01*
X1309522Y12462306D01*
X1305864Y12462560D01*
X1302410Y12461951D01*
X1299311Y12460478D01*
X1296670Y12458090D01*
X1294688Y12454839D01*
X1293368Y12450775D01*
X1292910Y12445796D01*
X1293215Y12441478D01*
X1294130Y12437567D01*
X1295501Y12434112D01*
X1297432Y12431064D01*
X1299819Y12428423D01*
X1302664Y12426238D01*
X1305864Y12424511D01*
X1309471Y12423140D01*
X1313383Y12422225D01*
X1317599Y12421666D01*
X1322070Y12421565D01*
X1326743Y12421870D01*
X1331620Y12422530D01*
X1336700Y12423597D01*
X1341831Y12425070D01*
X1347063Y12426950D01*
X1352346Y12429185D01*
X1357680Y12431826D01*
X1362964Y12434824D01*
X1368196Y12438227D01*
X1373327Y12441986D01*
X1378305Y12446101D01*
X1383182Y12450572D01*
X1389532Y12457379D01*
X1399184Y12469672D01*
X1412341Y12487706D01*
X1427886Y12509855D01*
X1444599Y12534493D01*
X1472895Y12577013D01*
X1492808Y12605359D01*
X1501749Y12617500D01*
X1509674Y12627711D01*
X1516227Y12635738D01*
X1521256Y12641173D01*
X1523085Y12642799D01*
X1530756Y12648641D01*
X1534007Y12650419D01*
X1532991Y12648082D01*
X1526946Y12639751D01*
X1524000Y12634112D01*
X1520291Y12625933D01*
X1511300Y12603530D01*
X1501140Y12575387D01*
X1485747Y12528702D01*
X1475232Y12498628D01*
X1465732Y12473025D01*
X1461719Y12462967D01*
X1452829Y12442748D01*
X1450543Y12434112D01*
X1450289Y12427508D01*
X1452168Y12423800D01*
X1453184Y12423495D01*
X1454404Y12423495D01*
X1457553Y12424460D01*
X1461617Y12426797D01*
X1466596Y12430353D01*
X1472387Y12435078D01*
X1478940Y12440970D01*
X1486255Y12447981D01*
X1502816Y12464999D01*
X1521714Y12485776D01*
X1542542Y12509855D01*
X1564894Y12536881D01*
X1588363Y12566294D01*
X1612646Y12597587D01*
X1634693Y12625222D01*
X1651812Y12645694D01*
X1657908Y12652451D01*
X1662023Y12656515D01*
X1663242Y12657429D01*
X1663852Y12657531D01*
X1663903Y12656769D01*
X1662887Y12652806D01*
X1660347Y12645898D01*
X1651406Y12624409D01*
X1638300Y12595199D01*
X1621891Y12560503D01*
X1613001Y12542672D01*
X1604365Y12526213D01*
X1596034Y12511176D01*
X1587906Y12497511D01*
X1580083Y12485268D01*
X1572514Y12474346D01*
X1565148Y12464846D01*
X1558086Y12456718D01*
X1551279Y12449962D01*
X1544675Y12444526D01*
X1541475Y12442342D01*
X1535226Y12438989D01*
X1532178Y12437821D01*
X1529181Y12436957D01*
X1526286Y12436449D01*
X1517142Y12435586D01*
X1512011Y12433655D01*
X1508506Y12430760D01*
X1507236Y12427254D01*
X1507693Y12425832D01*
X1509014Y12424613D01*
X1511249Y12423648D01*
X1514246Y12422936D01*
X1518107Y12422479D01*
X1528064Y12422276D01*
X1540916Y12423038D01*
X1556410Y12424714D01*
X1574393Y12427305D01*
X1605483Y12432944D01*
X1610106Y12434062D01*
X1614932Y12435586D01*
X1619961Y12437465D01*
X1630222Y12442190D01*
X1640839Y12448133D01*
X1651558Y12455042D01*
X1662125Y12462713D01*
X1672386Y12470993D01*
X1682191Y12479680D01*
X1691233Y12488519D01*
X1699412Y12497409D01*
X1706473Y12506096D01*
X1712264Y12514376D01*
X1714601Y12518339D01*
X1716532Y12522098D01*
X1718005Y12525705D01*
X1719072Y12529058D01*
X1719630Y12532156D01*
X1719732Y12535052D01*
X1719275Y12537592D01*
X1718310Y12539827D01*
X1716735Y12541758D01*
X1713839Y12543180D01*
X1710893Y12542672D01*
X1708200Y12540335D01*
X1706067Y12536322D01*
X1704238Y12532055D01*
X1701698Y12527330D01*
X1698498Y12522250D01*
X1690522Y12511328D01*
X1680768Y12499898D01*
X1675485Y12494158D01*
X1664309Y12483033D01*
X1652879Y12472974D01*
X1641805Y12464491D01*
X1636572Y12461087D01*
X1631645Y12458293D01*
X1622806Y12453924D01*
X1615084Y12450521D01*
X1608429Y12447981D01*
X1602892Y12446406D01*
X1598523Y12445695D01*
X1595374Y12445898D01*
X1593443Y12446965D01*
X1592732Y12448946D01*
X1593342Y12451740D01*
X1595323Y12455398D01*
X1598625Y12459919D01*
X1605432Y12467742D01*
X1610512Y12474803D01*
X1616659Y12484404D01*
X1623568Y12496088D01*
X1631035Y12509550D01*
X1638858Y12524282D01*
X1646783Y12539929D01*
X1654606Y12556083D01*
X1673352Y12596215D01*
X1682292Y12614452D01*
X1690420Y12630404D01*
X1697989Y12644221D01*
X1705000Y12656058D01*
X1711553Y12666014D01*
X1717852Y12674193D01*
X1723948Y12680848D01*
X1726946Y12683591D01*
X1732940Y12688062D01*
X1735937Y12689840D01*
X1742084Y12692532D01*
X1745234Y12693497D01*
X1751736Y12694666D01*
X1769973Y12695732D01*
X1777695Y12697866D01*
X1781708Y12701371D01*
X1781810Y12706197D01*
X1780387Y12709499D01*
X1778355Y12712293D01*
X1775815Y12714579D01*
X1772716Y12716357D01*
X1769059Y12717678D01*
X1764842Y12718440D01*
G37*
G36*
X3679850Y12718745D02*
G01*
X3674465Y12718542D01*
X3668522Y12717830D01*
X3661968Y12716611D01*
X3654755Y12714884D01*
X3642563Y12711277D01*
X3633774Y12708026D01*
X3625037Y12704114D01*
X3616248Y12699593D01*
X3607460Y12694412D01*
X3598570Y12688570D01*
X3589629Y12681966D01*
X3580536Y12674650D01*
X3571290Y12666573D01*
X3561892Y12657683D01*
X3552291Y12647980D01*
X3542436Y12637465D01*
X3532327Y12626035D01*
X3521913Y12613741D01*
X3511194Y12600533D01*
X3500069Y12586360D01*
X3476244Y12555169D01*
X3455111Y12527991D01*
X3439363Y12508484D01*
X3434181Y12502388D01*
X3430524Y12498730D01*
X3429965Y12499238D01*
X3429863Y12500660D01*
X3430117Y12502997D01*
X3431743Y12510008D01*
X3434689Y12519761D01*
X3443630Y12545364D01*
X3455314Y12575692D01*
X3468115Y12606578D01*
X3474415Y12620955D01*
X3480358Y12633909D01*
X3485794Y12644882D01*
X3490468Y12653416D01*
X3492449Y12656616D01*
X3496767Y12662560D01*
X3501644Y12668504D01*
X3506978Y12674346D01*
X3512565Y12679883D01*
X3518204Y12684912D01*
X3523792Y12689332D01*
X3529126Y12692989D01*
X3534003Y12695732D01*
X3539185Y12698323D01*
X3543147Y12700762D01*
X3545992Y12702997D01*
X3547719Y12704927D01*
X3548430Y12706654D01*
X3548126Y12708128D01*
X3546906Y12709296D01*
X3544824Y12710160D01*
X3541979Y12710718D01*
X3538321Y12710922D01*
X3534003Y12710769D01*
X3529076Y12710312D01*
X3523538Y12709398D01*
X3517493Y12708128D01*
X3510940Y12706451D01*
X3500577Y12703098D01*
X3493566Y12700254D01*
X3486556Y12696748D01*
X3479444Y12692684D01*
X3472230Y12687960D01*
X3464864Y12682575D01*
X3457397Y12676530D01*
X3449777Y12669824D01*
X3441954Y12662408D01*
X3433978Y12654280D01*
X3425799Y12645390D01*
X3417417Y12635788D01*
X3408781Y12625425D01*
X3399891Y12614249D01*
X3390747Y12602311D01*
X3371646Y12575895D01*
X3352139Y12547498D01*
X3334258Y12522098D01*
X3316630Y12498222D01*
X3300577Y12477546D01*
X3293567Y12468961D01*
X3287369Y12461798D01*
X3282238Y12456261D01*
X3272688Y12447422D01*
X3266795Y12442494D01*
X3262122Y12439294D01*
X3258413Y12437821D01*
X3255416Y12437922D01*
X3252724Y12439650D01*
X3250133Y12442850D01*
X3244189Y12452299D01*
X3240735Y12456160D01*
X3236976Y12459106D01*
X3233166Y12461138D01*
X3229356Y12462306D01*
X3225647Y12462560D01*
X3222193Y12461951D01*
X3219094Y12460478D01*
X3216503Y12458090D01*
X3214471Y12454839D01*
X3213201Y12450775D01*
X3212744Y12445796D01*
X3213049Y12441478D01*
X3213912Y12437567D01*
X3215335Y12434112D01*
X3217265Y12431064D01*
X3219653Y12428423D01*
X3222447Y12426238D01*
X3225698Y12424511D01*
X3229254Y12423140D01*
X3233166Y12422225D01*
X3237382Y12421666D01*
X3241852Y12421565D01*
X3246577Y12421870D01*
X3251453Y12422530D01*
X3256483Y12423597D01*
X3261664Y12425070D01*
X3266897Y12426950D01*
X3272180Y12429185D01*
X3277463Y12431826D01*
X3282746Y12434824D01*
X3287979Y12438227D01*
X3293110Y12441986D01*
X3298139Y12446101D01*
X3302965Y12450572D01*
X3309365Y12457379D01*
X3318967Y12469672D01*
X3332124Y12487706D01*
X3347669Y12509855D01*
X3364433Y12534493D01*
X3392678Y12577013D01*
X3412591Y12605359D01*
X3421532Y12617500D01*
X3429457Y12627711D01*
X3436061Y12635738D01*
X3441039Y12641173D01*
X3442868Y12642799D01*
X3450590Y12648641D01*
X3453790Y12650419D01*
X3452825Y12648082D01*
X3446779Y12639751D01*
X3443782Y12634112D01*
X3440074Y12625933D01*
X3431082Y12603530D01*
X3420973Y12575387D01*
X3408172Y12536576D01*
X3397605Y12505842D01*
X3387750Y12478816D01*
X3379724Y12458801D01*
X3372662Y12442748D01*
X3370376Y12434112D01*
X3370072Y12427508D01*
X3372002Y12423800D01*
X3372967Y12423495D01*
X3374186Y12423495D01*
X3375660Y12423800D01*
X3379266Y12425476D01*
X3383787Y12428423D01*
X3389172Y12432588D01*
X3395370Y12437922D01*
X3402329Y12444374D01*
X3418230Y12460376D01*
X3436620Y12480290D01*
X3456990Y12503556D01*
X3478987Y12529870D01*
X3502202Y12558725D01*
X3526383Y12589814D01*
X3549345Y12618872D01*
X3567887Y12641376D01*
X3574897Y12649403D01*
X3580028Y12654838D01*
X3583025Y12657429D01*
X3583635Y12657531D01*
X3583736Y12656769D01*
X3582670Y12652806D01*
X3580129Y12645898D01*
X3571189Y12624409D01*
X3558082Y12595199D01*
X3541725Y12560503D01*
X3532784Y12542672D01*
X3524199Y12526213D01*
X3515817Y12511176D01*
X3507740Y12497511D01*
X3499865Y12485268D01*
X3492296Y12474346D01*
X3484981Y12464846D01*
X3477869Y12456718D01*
X3471062Y12449962D01*
X3464458Y12444526D01*
X3461258Y12442342D01*
X3455009Y12438989D01*
X3451961Y12437821D01*
X3449015Y12436957D01*
X3446068Y12436449D01*
X3436924Y12435636D01*
X3431794Y12433808D01*
X3428339Y12431115D01*
X3427018Y12427813D01*
X3427476Y12426289D01*
X3428796Y12425070D01*
X3430930Y12424105D01*
X3433826Y12423343D01*
X3437331Y12422784D01*
X3446272Y12422378D01*
X3457194Y12422784D01*
X3469640Y12423952D01*
X3483152Y12425781D01*
X3497173Y12428220D01*
X3511296Y12431166D01*
X3525012Y12434671D01*
X3537813Y12438532D01*
X3549243Y12442799D01*
X3563213Y12449098D01*
X3570528Y12452096D01*
X3576320Y12454077D01*
X3580790Y12455042D01*
X3584041Y12454991D01*
X3586175Y12453924D01*
X3587394Y12451892D01*
X3588156Y12444374D01*
X3589375Y12440259D01*
X3591306Y12436602D01*
X3593896Y12433350D01*
X3597198Y12430556D01*
X3601110Y12428220D01*
X3605580Y12426340D01*
X3610559Y12424918D01*
X3616045Y12423952D01*
X3621989Y12423546D01*
X3628339Y12423597D01*
X3635044Y12424156D01*
X3642055Y12425222D01*
X3649319Y12426848D01*
X3656837Y12429032D01*
X3676548Y12436195D01*
X3686149Y12439396D01*
X3693718Y12441326D01*
X3699764Y12442037D01*
X3704691Y12441529D01*
X3709060Y12439751D01*
X3713276Y12436754D01*
X3722471Y12428169D01*
X3726992Y12424714D01*
X3731412Y12422073D01*
X3735933Y12420346D01*
X3740607Y12419533D01*
X3745534Y12419634D01*
X3750818Y12420650D01*
X3756660Y12422632D01*
X3763060Y12425578D01*
X3770172Y12429490D01*
X3778148Y12434316D01*
X3797147Y12447016D01*
X3804970Y12451943D01*
X3810914Y12455042D01*
X3815232Y12456414D01*
X3818382Y12456007D01*
X3820718Y12453975D01*
X3822598Y12450368D01*
X3826103Y12440818D01*
X3828186Y12436957D01*
X3830675Y12433503D01*
X3833571Y12430556D01*
X3836822Y12428016D01*
X3840530Y12425984D01*
X3844544Y12424359D01*
X3848912Y12423241D01*
X3853637Y12422581D01*
X3858666Y12422327D01*
X3864051Y12422581D01*
X3869690Y12423343D01*
X3875684Y12424511D01*
X3881932Y12426188D01*
X3888435Y12428372D01*
X3901592Y12433503D01*
X3907586Y12435484D01*
X3912971Y12436957D01*
X3917696Y12437922D01*
X3921607Y12438278D01*
X3924554Y12438075D01*
X3926433Y12437262D01*
X3927094Y12435840D01*
X3927500Y12432436D01*
X3928668Y12429845D01*
X3930497Y12427966D01*
X3932936Y12426797D01*
X3935882Y12426289D01*
X3939235Y12426442D01*
X3942994Y12427153D01*
X3947007Y12428524D01*
X3951173Y12430404D01*
X3955491Y12432792D01*
X3959860Y12435687D01*
X3964178Y12439040D01*
X3968343Y12442850D01*
X3972306Y12447016D01*
X3975963Y12451537D01*
X3988257Y12469520D01*
X3995521Y12479070D01*
X4003344Y12488672D01*
X4011269Y12497765D01*
X4018889Y12505893D01*
X4047642Y12533426D01*
X4066997Y12511735D01*
X4073855Y12502845D01*
X4078224Y12494869D01*
X4079798Y12488570D01*
X4078122Y12484912D01*
X4074668Y12482068D01*
X4072128Y12478512D01*
X4070553Y12474397D01*
X4069842Y12469774D01*
X4070045Y12464846D01*
X4070792Y12460833D01*
X4088688Y12460833D01*
X4091787Y12462662D01*
X4100322Y12463068D01*
X4107992Y12464135D01*
X4112310Y12467742D01*
X4113682Y12474498D01*
X4111751Y12490602D01*
X4111802Y12495631D01*
X4112463Y12500102D01*
X4113733Y12503962D01*
X4115460Y12507163D01*
X4117594Y12509550D01*
X4120083Y12511125D01*
X4122826Y12511836D01*
X4125671Y12511532D01*
X4128668Y12510160D01*
X4131665Y12507722D01*
X4134561Y12504115D01*
X4137101Y12498324D01*
X4139234Y12489891D01*
X4140657Y12479883D01*
X4141266Y12469469D01*
X4140809Y12462357D01*
X4139539Y12456007D01*
X4137507Y12450622D01*
X4134764Y12446101D01*
X4131462Y12442545D01*
X4127601Y12440056D01*
X4123334Y12438583D01*
X4118711Y12438176D01*
X4113834Y12438938D01*
X4108805Y12440869D01*
X4103725Y12444018D01*
X4098594Y12448489D01*
X4091025Y12456464D01*
X4088688Y12460833D01*
X4070792Y12460833D01*
X4071010Y12459665D01*
X4072839Y12454382D01*
X4075379Y12449149D01*
X4078681Y12444018D01*
X4082694Y12439192D01*
X4087368Y12434722D01*
X4092651Y12430760D01*
X4101693Y12425324D01*
X4105808Y12423394D01*
X4109821Y12421920D01*
X4113834Y12420955D01*
X4118000Y12420447D01*
X4122420Y12420447D01*
X4127246Y12420854D01*
X4132579Y12421768D01*
X4138574Y12423089D01*
X4152950Y12427102D01*
X4157268Y12428575D01*
X4167022Y12433046D01*
X4172356Y12435890D01*
X4183634Y12442748D01*
X4195521Y12450826D01*
X4207713Y12459817D01*
X4219752Y12469418D01*
X4231436Y12479375D01*
X4242257Y12489281D01*
X4252010Y12498933D01*
X4260291Y12507925D01*
X4266793Y12516053D01*
X4269232Y12519710D01*
X4271060Y12522962D01*
X4272330Y12525857D01*
X4272889Y12528346D01*
X4272737Y12530429D01*
X4271873Y12531953D01*
X4269943Y12532461D01*
X4266844Y12531496D01*
X4262729Y12529210D01*
X4257751Y12525705D01*
X4252061Y12521133D01*
X4245864Y12515545D01*
X4239310Y12509093D01*
X4211980Y12479934D01*
X4201261Y12469114D01*
X4192574Y12461189D01*
X4188968Y12458344D01*
X4185767Y12456160D01*
X4183024Y12454686D01*
X4180636Y12453874D01*
X4178554Y12453772D01*
X4176826Y12454280D01*
X4175404Y12455398D01*
X4174236Y12457176D01*
X4173321Y12459563D01*
X4172610Y12462560D01*
X4171645Y12470282D01*
X4170984Y12481153D01*
X4169562Y12494920D01*
X4167479Y12509195D01*
X4164939Y12522250D01*
X4161129Y12539726D01*
X4161434Y12547244D01*
X4164837Y12551156D01*
X4171594Y12552273D01*
X4177436Y12550952D01*
X4182008Y12547295D01*
X4184954Y12541656D01*
X4186021Y12534442D01*
X4186529Y12527381D01*
X4188053Y12522200D01*
X4190441Y12518847D01*
X4193641Y12517323D01*
X4197553Y12517628D01*
X4202125Y12519863D01*
X4207256Y12523978D01*
X4212844Y12529972D01*
X4217822Y12537186D01*
X4219448Y12543383D01*
X4217822Y12549581D01*
X4212844Y12556744D01*
X4209135Y12560554D01*
X4205071Y12563754D01*
X4200652Y12566243D01*
X4195927Y12568123D01*
X4190898Y12569342D01*
X4185665Y12569952D01*
X4180230Y12569952D01*
X4174591Y12569342D01*
X4168901Y12568123D01*
X4163110Y12566243D01*
X4157268Y12563856D01*
X4151426Y12560808D01*
X4145686Y12557201D01*
X4139996Y12553035D01*
X4134459Y12548311D01*
X4124045Y12537795D01*
X4114698Y12529362D01*
X4110431Y12526060D01*
X4106468Y12523419D01*
X4102811Y12521336D01*
X4099509Y12519914D01*
X4096562Y12519050D01*
X4093921Y12518796D01*
X4091686Y12519152D01*
X4089806Y12520117D01*
X4088333Y12521641D01*
X4087266Y12523774D01*
X4086656Y12526467D01*
X4086453Y12529718D01*
X4086707Y12533528D01*
X4087418Y12537948D01*
X4088637Y12542926D01*
X4090365Y12548463D01*
X4092549Y12554508D01*
X4093870Y12559284D01*
X4093819Y12563195D01*
X4092549Y12566243D01*
X4090212Y12568478D01*
X4087012Y12569799D01*
X4082948Y12570256D01*
X4078274Y12569901D01*
X4073093Y12568682D01*
X4067556Y12566548D01*
X4061815Y12563551D01*
X4055973Y12559741D01*
X4050182Y12555016D01*
X4041089Y12547041D01*
X4036771Y12544348D01*
X4036466Y12547041D01*
X4039260Y12555016D01*
X4040632Y12559538D01*
X4040987Y12563297D01*
X4040479Y12566243D01*
X4039158Y12568428D01*
X4037126Y12569952D01*
X4034485Y12570714D01*
X4031335Y12570764D01*
X4027728Y12570206D01*
X4023868Y12568986D01*
X4019804Y12567158D01*
X4015587Y12564770D01*
X4011371Y12561773D01*
X4007205Y12558268D01*
X4003243Y12554254D01*
X3999585Y12549682D01*
X3992981Y12539319D01*
X3985615Y12528600D01*
X3977335Y12517932D01*
X3968394Y12507468D01*
X3958894Y12497257D01*
X3948988Y12487554D01*
X3938828Y12478410D01*
X3928618Y12469926D01*
X3918559Y12462306D01*
X3908704Y12455601D01*
X3899306Y12449962D01*
X3890518Y12445492D01*
X3882491Y12442342D01*
X3878783Y12441326D01*
X3875379Y12440666D01*
X3872229Y12440361D01*
X3869334Y12440513D01*
X3866794Y12441072D01*
X3864559Y12442088D01*
X3862730Y12443510D01*
X3859580Y12448133D01*
X3857447Y12454280D01*
X3856532Y12461087D01*
X3857040Y12467844D01*
X3857853Y12471603D01*
X3858818Y12474905D01*
X3860190Y12477902D01*
X3862120Y12480696D01*
X3864813Y12483490D01*
X3868521Y12486436D01*
X3873398Y12489586D01*
X3879646Y12493193D01*
X3897172Y12502184D01*
X3929176Y12517882D01*
X3935120Y12521336D01*
X3940403Y12524790D01*
X3945026Y12528245D01*
X3949039Y12531699D01*
X3952341Y12535154D01*
X3955034Y12538557D01*
X3957065Y12541910D01*
X3958437Y12545110D01*
X3959148Y12548260D01*
X3959148Y12551257D01*
X3958539Y12554102D01*
X3957218Y12556744D01*
X3955237Y12559182D01*
X3952595Y12561417D01*
X3949242Y12563398D01*
X3945229Y12565126D01*
X3940556Y12566548D01*
X3935171Y12567666D01*
X3929126Y12568478D01*
X3920134Y12568936D01*
X3916070Y12568732D01*
X3912108Y12568224D01*
X3908196Y12567310D01*
X3904335Y12565989D01*
X3900373Y12564160D01*
X3896309Y12561824D01*
X3891991Y12558979D01*
X3882491Y12551359D01*
X3871264Y12540945D01*
X3857751Y12527432D01*
X3836276Y12505385D01*
X3869029Y12505385D01*
X3890670Y12528854D01*
X3898646Y12537033D01*
X3905808Y12543485D01*
X3912006Y12548158D01*
X3917289Y12550952D01*
X3921455Y12551968D01*
X3924554Y12551105D01*
X3926433Y12548311D01*
X3927094Y12543586D01*
X3926484Y12541554D01*
X3924808Y12539065D01*
X3922115Y12536220D01*
X3918559Y12533122D01*
X3914241Y12529870D01*
X3909314Y12526568D01*
X3903878Y12523266D01*
X3869029Y12505385D01*
X3836276Y12505385D01*
X3815334Y12484912D01*
X3805072Y12475464D01*
X3795522Y12467031D01*
X3786733Y12459614D01*
X3778605Y12453213D01*
X3771239Y12447879D01*
X3764635Y12443561D01*
X3758793Y12440259D01*
X3753764Y12438024D01*
X3749548Y12436805D01*
X3747719Y12436602D01*
X3744772Y12437008D01*
X3743553Y12437567D01*
X3742639Y12438430D01*
X3741877Y12439548D01*
X3741369Y12440920D01*
X3741064Y12442545D01*
X3741165Y12446609D01*
X3742131Y12451740D01*
X3744061Y12457938D01*
X3746957Y12465202D01*
X3750767Y12473533D01*
X3755593Y12482931D01*
X3761384Y12493447D01*
X3768242Y12505029D01*
X3779520Y12522962D01*
X3784346Y12529972D01*
X3788765Y12535814D01*
X3792982Y12540538D01*
X3797046Y12544298D01*
X3801110Y12547142D01*
X3805326Y12549276D01*
X3809847Y12550749D01*
X3814724Y12551664D01*
X3820160Y12552172D01*
X3826256Y12552273D01*
X3837686Y12552984D01*
X3847033Y12554915D01*
X3853332Y12557760D01*
X3855669Y12561214D01*
X3853891Y12564668D01*
X3849014Y12567513D01*
X3841851Y12569444D01*
X3833114Y12570104D01*
X3825900Y12570206D01*
X3820617Y12570561D01*
X3817213Y12571425D01*
X3815587Y12573101D01*
X3815638Y12575794D01*
X3817315Y12579756D01*
X3820566Y12585242D01*
X3829812Y12599517D01*
X3833012Y12604902D01*
X3834790Y12608864D01*
X3835146Y12611608D01*
X3833977Y12613284D01*
X3831285Y12614249D01*
X3827018Y12614656D01*
X3821176Y12614757D01*
X3817112Y12614300D01*
X3812743Y12612979D01*
X3808222Y12610896D01*
X3803650Y12608204D01*
X3799230Y12604902D01*
X3795014Y12601092D01*
X3791153Y12596926D01*
X3781145Y12583769D01*
X3773627Y12576657D01*
X3766210Y12571882D01*
X3759911Y12570104D01*
X3754831Y12569190D01*
X3751630Y12566599D01*
X3750462Y12562535D01*
X3752189Y12554559D01*
X3752240Y12551359D01*
X3751783Y12547854D01*
X3750767Y12543942D01*
X3749243Y12539827D01*
X3747262Y12535408D01*
X3744874Y12530785D01*
X3738879Y12520930D01*
X3731514Y12510668D01*
X3723030Y12500102D01*
X3713683Y12489637D01*
X3703828Y12479426D01*
X3693566Y12469774D01*
X3683254Y12460986D01*
X3673144Y12453264D01*
X3663492Y12446914D01*
X3658920Y12444374D01*
X3654551Y12442240D01*
X3650386Y12440564D01*
X3646525Y12439396D01*
X3642969Y12438786D01*
X3639718Y12438735D01*
X3636873Y12439294D01*
X3633774Y12441123D01*
X3631336Y12444120D01*
X3629609Y12448133D01*
X3628542Y12452858D01*
X3628085Y12458090D01*
X3628288Y12463627D01*
X3629101Y12469266D01*
X3630422Y12474702D01*
X3632352Y12479782D01*
X3634841Y12484201D01*
X3637838Y12487859D01*
X3641344Y12490399D01*
X3661308Y12500356D01*
X3690467Y12514529D01*
X3697782Y12518390D01*
X3704336Y12522352D01*
X3710076Y12526518D01*
X3715004Y12530683D01*
X3719118Y12534900D01*
X3722319Y12539116D01*
X3724706Y12543231D01*
X3726179Y12547244D01*
X3726789Y12551054D01*
X3726484Y12554610D01*
X3725265Y12557963D01*
X3723081Y12560960D01*
X3719982Y12563551D01*
X3715918Y12565735D01*
X3710940Y12567462D01*
X3704894Y12568682D01*
X3700322Y12569088D01*
X3695547Y12569037D01*
X3690569Y12568580D01*
X3685540Y12567716D01*
X3680307Y12566446D01*
X3675075Y12564821D01*
X3669741Y12562840D01*
X3659022Y12557810D01*
X3653688Y12554813D01*
X3648405Y12551511D01*
X3643172Y12547904D01*
X3638042Y12544044D01*
X3628237Y12535611D01*
X3623564Y12531039D01*
X3619093Y12526264D01*
X3614877Y12521285D01*
X3610914Y12516104D01*
X3603387Y12505385D01*
X3636873Y12505385D01*
X3658514Y12528854D01*
X3666490Y12537033D01*
X3673652Y12543485D01*
X3679850Y12548158D01*
X3685082Y12550952D01*
X3689299Y12551968D01*
X3692398Y12551105D01*
X3694277Y12548311D01*
X3694937Y12543586D01*
X3694328Y12541554D01*
X3692651Y12539065D01*
X3689959Y12536220D01*
X3686403Y12533122D01*
X3682085Y12529870D01*
X3677158Y12526568D01*
X3671722Y12523266D01*
X3636873Y12505385D01*
X3603387Y12505385D01*
X3600450Y12501524D01*
X3592322Y12492228D01*
X3583178Y12483134D01*
X3573424Y12474498D01*
X3563264Y12466574D01*
X3553053Y12459512D01*
X3548024Y12456414D01*
X3538321Y12451232D01*
X3533749Y12449149D01*
X3529431Y12447473D01*
X3525316Y12446254D01*
X3521557Y12445542D01*
X3518103Y12445238D01*
X3515868Y12445746D01*
X3514648Y12447168D01*
X3514496Y12449556D01*
X3515309Y12452807D01*
X3517137Y12456972D01*
X3519982Y12461900D01*
X3523792Y12467691D01*
X3530955Y12477546D01*
X3536492Y12485979D01*
X3542842Y12496444D01*
X3549802Y12508585D01*
X3564534Y12536170D01*
X3575456Y12558166D01*
X3599992Y12610642D01*
X3607917Y12626390D01*
X3615232Y12640157D01*
X3622141Y12652146D01*
X3628644Y12662357D01*
X3634943Y12670942D01*
X3640988Y12678003D01*
X3646932Y12683693D01*
X3652926Y12688062D01*
X3658920Y12691262D01*
X3665118Y12693446D01*
X3671620Y12694666D01*
X3689807Y12695732D01*
X3697528Y12697866D01*
X3701491Y12701371D01*
X3701643Y12706197D01*
X3700170Y12709499D01*
X3698189Y12712293D01*
X3695649Y12714579D01*
X3692550Y12716357D01*
X3688892Y12717678D01*
X3684676Y12718440D01*
G37*
G36*
X1826463Y12712852D02*
G01*
X1825548Y12712547D01*
X1823110Y12710007D01*
X1819859Y12705130D01*
X1815795Y12698120D01*
X1811070Y12689027D01*
X1805736Y12678105D01*
X1793595Y12651435D01*
X1779930Y12619329D01*
X1765401Y12583109D01*
X1704898Y12425578D01*
X1704797Y12422378D01*
X1707032Y12420244D01*
X1711147Y12419330D01*
X1716786Y12419838D01*
X1718106Y12420295D01*
X1721205Y12422632D01*
X1724710Y12426696D01*
X1728774Y12432588D01*
X1733296Y12440310D01*
X1738325Y12449911D01*
X1743913Y12461443D01*
X1750060Y12474905D01*
X1756765Y12490297D01*
X1764030Y12507671D01*
X1780336Y12548514D01*
X1808378Y12622123D01*
X1828546Y12677089D01*
X1834692Y12694818D01*
X1837639Y12704978D01*
X1836724Y12708026D01*
X1834337Y12710566D01*
X1830781Y12712242D01*
G37*
G36*
X2005939Y12712852D02*
G01*
X1999335Y12712750D01*
X1993188Y12712344D01*
X1987448Y12711633D01*
X1982114Y12710566D01*
X1977034Y12709194D01*
X1972208Y12707366D01*
X1967534Y12705181D01*
X1962962Y12702489D01*
X1958390Y12699390D01*
X1953768Y12695732D01*
X1948992Y12691516D01*
X1944065Y12686792D01*
X1938274Y12680543D01*
X1933092Y12674092D01*
X1928622Y12667538D01*
X1924862Y12660934D01*
X1921865Y12654381D01*
X1919681Y12647879D01*
X1918309Y12641580D01*
X1917852Y12635484D01*
X1917496Y12624308D01*
X1916988Y12619431D01*
X1916175Y12615011D01*
X1915007Y12610896D01*
X1913483Y12607086D01*
X1911502Y12603429D01*
X1908962Y12599924D01*
X1905863Y12596469D01*
X1902155Y12592964D01*
X1897735Y12589408D01*
X1892604Y12585700D01*
X1879803Y12577470D01*
X1857349Y12564160D01*
X1851660Y12560401D01*
X1846275Y12556540D01*
X1841246Y12552578D01*
X1836521Y12548514D01*
X1832102Y12544348D01*
X1828038Y12540081D01*
X1824329Y12535814D01*
X1820925Y12531445D01*
X1817878Y12526975D01*
X1815185Y12522504D01*
X1812798Y12518034D01*
X1810766Y12513462D01*
X1809089Y12508941D01*
X1807718Y12504369D01*
X1806752Y12499797D01*
X1806092Y12495225D01*
X1805787Y12490653D01*
X1805838Y12486081D01*
X1806244Y12481610D01*
X1807006Y12477140D01*
X1808073Y12472670D01*
X1809546Y12468301D01*
X1811375Y12463983D01*
X1813560Y12459766D01*
X1816100Y12455601D01*
X1818995Y12451537D01*
X1822297Y12447524D01*
X1825904Y12443663D01*
X1829917Y12439904D01*
X1834286Y12436246D01*
X1839061Y12432741D01*
X1843227Y12430048D01*
X1847697Y12427661D01*
X1852371Y12425578D01*
X1857248Y12423749D01*
X1862277Y12422225D01*
X1867509Y12421006D01*
X1872843Y12420041D01*
X1883968Y12418923D01*
X1895449Y12418822D01*
X1907184Y12419685D01*
X1919020Y12421412D01*
X1930755Y12424054D01*
X1936597Y12425629D01*
X1948027Y12429439D01*
X1959051Y12433960D01*
X1969516Y12439142D01*
X1979269Y12444933D01*
X1988210Y12451334D01*
X1992325Y12454686D01*
X1996186Y12458192D01*
X1999742Y12461798D01*
X2002993Y12465507D01*
X2005939Y12469368D01*
X2008581Y12473279D01*
X2010816Y12477242D01*
X2012696Y12481356D01*
X2014220Y12485522D01*
X2015286Y12489738D01*
X2015998Y12494006D01*
X2016201Y12498374D01*
X2015947Y12504064D01*
X2015236Y12509398D01*
X2014016Y12514376D01*
X2012391Y12518999D01*
X2010308Y12523216D01*
X2007870Y12527076D01*
X2005025Y12530582D01*
X2001875Y12533680D01*
X1998370Y12536373D01*
X1994560Y12538659D01*
X1990496Y12540538D01*
X1986178Y12541961D01*
X1981657Y12543028D01*
X1976882Y12543637D01*
X1971954Y12543790D01*
X1966823Y12543485D01*
X1961591Y12542774D01*
X1956257Y12541605D01*
X1950821Y12539929D01*
X1945335Y12537795D01*
X1939798Y12535204D01*
X1934260Y12532156D01*
X1928723Y12528550D01*
X1923186Y12524486D01*
X1916277Y12518847D01*
X1910892Y12513919D01*
X1906930Y12509804D01*
X1904441Y12506502D01*
X1903374Y12504064D01*
X1903730Y12502489D01*
X1905406Y12501829D01*
X1908403Y12502134D01*
X1912721Y12503404D01*
X1918258Y12505639D01*
X1925116Y12508992D01*
X1938832Y12516459D01*
X1944268Y12518948D01*
X1949450Y12520879D01*
X1954377Y12522352D01*
X1959000Y12523317D01*
X1963369Y12523825D01*
X1967382Y12523825D01*
X1971090Y12523470D01*
X1974494Y12522708D01*
X1977593Y12521539D01*
X1980285Y12520015D01*
X1982622Y12518136D01*
X1984603Y12515951D01*
X1986229Y12513462D01*
X1987397Y12510719D01*
X1988210Y12507671D01*
X1988566Y12504470D01*
X1988515Y12500965D01*
X1988057Y12497358D01*
X1987092Y12493498D01*
X1985721Y12489535D01*
X1983841Y12485471D01*
X1981454Y12481255D01*
X1978609Y12476937D01*
X1975205Y12472619D01*
X1971344Y12468199D01*
X1966925Y12463830D01*
X1961946Y12459411D01*
X1957019Y12455499D01*
X1952091Y12451943D01*
X1947062Y12448794D01*
X1942033Y12446000D01*
X1937004Y12443561D01*
X1931974Y12441529D01*
X1926945Y12439802D01*
X1921967Y12438430D01*
X1917039Y12437414D01*
X1912112Y12436754D01*
X1907336Y12436398D01*
X1902561Y12436398D01*
X1897938Y12436703D01*
X1893417Y12437364D01*
X1888998Y12438329D01*
X1884730Y12439599D01*
X1880616Y12441174D01*
X1876704Y12443053D01*
X1872945Y12445187D01*
X1869338Y12447676D01*
X1865985Y12450470D01*
X1862836Y12453518D01*
X1859940Y12456820D01*
X1857248Y12460427D01*
X1854860Y12464288D01*
X1852726Y12468453D01*
X1850898Y12472822D01*
X1849374Y12477496D01*
X1848154Y12482423D01*
X1847291Y12487554D01*
X1846732Y12492990D01*
X1846529Y12498628D01*
X1846935Y12508839D01*
X1847443Y12513564D01*
X1849272Y12522200D01*
X1850643Y12526264D01*
X1852371Y12530124D01*
X1854403Y12533934D01*
X1856841Y12537592D01*
X1859686Y12541199D01*
X1862988Y12544755D01*
X1866747Y12548362D01*
X1871014Y12551968D01*
X1881124Y12559385D01*
X1886966Y12563297D01*
X1900580Y12571526D01*
X1916785Y12580670D01*
X1922932Y12584430D01*
X1928622Y12588697D01*
X1933702Y12593370D01*
X1938223Y12598400D01*
X1942084Y12603683D01*
X1945284Y12609271D01*
X1947672Y12614960D01*
X1949297Y12620802D01*
X1951278Y12629743D01*
X1953412Y12638024D01*
X1955647Y12645644D01*
X1958086Y12652603D01*
X1960727Y12658953D01*
X1963521Y12664744D01*
X1966569Y12669926D01*
X1969770Y12674549D01*
X1973275Y12678613D01*
X1976983Y12682169D01*
X1980996Y12685217D01*
X1985264Y12687757D01*
X1989836Y12689840D01*
X1994712Y12691414D01*
X1999894Y12692634D01*
X2005380Y12693345D01*
X2012238Y12693802D01*
X2018334Y12693751D01*
X2023668Y12693192D01*
X2028240Y12692176D01*
X2032152Y12690602D01*
X2035251Y12688519D01*
X2037638Y12685979D01*
X2039264Y12682931D01*
X2040636Y12677749D01*
X2040940Y12672314D01*
X2040280Y12666675D01*
X2038705Y12661036D01*
X2036318Y12655397D01*
X2033117Y12649962D01*
X2029307Y12644780D01*
X2024837Y12640056D01*
X2019909Y12635788D01*
X2014474Y12632182D01*
X2008682Y12629286D01*
X1995322Y12624866D01*
X1989226Y12621717D01*
X1984451Y12618212D01*
X1981250Y12614605D01*
X1979777Y12611252D01*
X1980285Y12608458D01*
X1982978Y12606528D01*
X1988108Y12605816D01*
X1993849Y12606223D01*
X2000351Y12607493D01*
X2007412Y12609423D01*
X2014778Y12611963D01*
X2022297Y12615011D01*
X2029714Y12618466D01*
X2036825Y12622174D01*
X2043480Y12626136D01*
X2049424Y12630150D01*
X2054453Y12634214D01*
X2058416Y12638125D01*
X2061057Y12641834D01*
X2063953Y12647879D01*
X2066239Y12653721D01*
X2067814Y12659360D01*
X2068779Y12664846D01*
X2069084Y12670078D01*
X2068779Y12675108D01*
X2067864Y12679883D01*
X2066391Y12684404D01*
X2064308Y12688620D01*
X2061616Y12692583D01*
X2058416Y12696240D01*
X2054606Y12699542D01*
X2050288Y12702540D01*
X2045462Y12705181D01*
X2040077Y12707467D01*
X2034235Y12709398D01*
X2027885Y12710871D01*
X2021027Y12711988D01*
X2013712Y12712649D01*
G37*
G36*
X2392426Y12711430D02*
G01*
X2386838Y12711226D01*
X2381199Y12710566D01*
X2375611Y12709601D01*
X2370023Y12708178D01*
X2364587Y12706400D01*
X2359304Y12704216D01*
X2354122Y12701676D01*
X2349195Y12698679D01*
X2344521Y12695326D01*
X2338070Y12689738D01*
X2332228Y12683591D01*
X2329484Y12680289D01*
X2324455Y12673025D01*
X2319883Y12664897D01*
X2315718Y12655804D01*
X2311958Y12645644D01*
X2308606Y12634315D01*
X2305558Y12621666D01*
X2302814Y12607594D01*
X2300274Y12592050D01*
X2297938Y12574879D01*
X2295855Y12557150D01*
X2293721Y12541758D01*
X2291334Y12528194D01*
X2288641Y12516154D01*
X2285441Y12505436D01*
X2283663Y12500457D01*
X2279548Y12491110D01*
X2274722Y12482322D01*
X2269032Y12473787D01*
X2262378Y12465253D01*
X2254605Y12456363D01*
X2250338Y12452146D01*
X2245563Y12448438D01*
X2240432Y12445238D01*
X2234996Y12442545D01*
X2229205Y12440310D01*
X2223211Y12438583D01*
X2217013Y12437414D01*
X2210663Y12436754D01*
X2204212Y12436551D01*
X2197760Y12436906D01*
X2191308Y12437821D01*
X2184908Y12439192D01*
X2178659Y12441174D01*
X2172563Y12443612D01*
X2166670Y12446660D01*
X2161082Y12450165D01*
X2155850Y12454432D01*
X2151380Y12459258D01*
X2147722Y12464389D01*
X2144877Y12469774D01*
X2142896Y12475159D01*
X2141778Y12480340D01*
X2141575Y12485268D01*
X2142236Y12489637D01*
X2143861Y12493396D01*
X2146452Y12496241D01*
X2150059Y12498070D01*
X2158746Y12499289D01*
X2162098Y12500711D01*
X2164638Y12502896D01*
X2166416Y12505740D01*
X2167382Y12508992D01*
X2167636Y12512598D01*
X2167128Y12516307D01*
X2165858Y12520015D01*
X2163826Y12523571D01*
X2161032Y12526822D01*
X2157526Y12529566D01*
X2153310Y12531699D01*
X2148230Y12532868D01*
X2143252Y12532614D01*
X2138426Y12530988D01*
X2133904Y12528245D01*
X2129688Y12524435D01*
X2125980Y12519761D01*
X2122830Y12514326D01*
X2120341Y12508280D01*
X2118614Y12501778D01*
X2117699Y12494971D01*
X2117750Y12487960D01*
X2118817Y12480899D01*
X2120188Y12475870D01*
X2121865Y12470993D01*
X2123846Y12466320D01*
X2126081Y12461849D01*
X2128621Y12457531D01*
X2131415Y12453467D01*
X2134463Y12449606D01*
X2137714Y12445949D01*
X2145030Y12439294D01*
X2148941Y12436297D01*
X2157425Y12431014D01*
X2161946Y12428728D01*
X2166620Y12426696D01*
X2171496Y12424867D01*
X2176475Y12423292D01*
X2181555Y12421971D01*
X2186787Y12420904D01*
X2192121Y12420092D01*
X2203094Y12419279D01*
X2214372Y12419533D01*
X2225903Y12420904D01*
X2231694Y12422022D01*
X2243328Y12425121D01*
X2249170Y12427102D01*
X2255012Y12429388D01*
X2265070Y12434112D01*
X2273096Y12438786D01*
X2280513Y12444120D01*
X2287270Y12450165D01*
X2293518Y12457023D01*
X2299208Y12464796D01*
X2301900Y12469063D01*
X2306878Y12478359D01*
X2311501Y12488722D01*
X2315718Y12500356D01*
X2319629Y12513259D01*
X2323236Y12527534D01*
X2326589Y12543282D01*
X2329789Y12560604D01*
X2336139Y12600025D01*
X2339695Y12618313D01*
X2343505Y12634468D01*
X2347620Y12648488D01*
X2352040Y12660477D01*
X2354376Y12665760D01*
X2356866Y12670536D01*
X2359406Y12674854D01*
X2362047Y12678664D01*
X2364790Y12682067D01*
X2367686Y12684963D01*
X2370632Y12687452D01*
X2373782Y12689535D01*
X2376982Y12691160D01*
X2380335Y12692380D01*
X2383840Y12693192D01*
X2387498Y12693548D01*
X2391257Y12693548D01*
X2395220Y12693192D01*
X2399995Y12692227D01*
X2403856Y12690703D01*
X2406954Y12688620D01*
X2409240Y12685826D01*
X2410866Y12682270D01*
X2411780Y12677851D01*
X2412085Y12672466D01*
X2411628Y12659563D01*
X2411831Y12654127D01*
X2412542Y12649758D01*
X2413660Y12646355D01*
X2415286Y12644018D01*
X2417419Y12642646D01*
X2419959Y12642342D01*
X2423007Y12643002D01*
X2426563Y12644729D01*
X2430576Y12647422D01*
X2435098Y12651181D01*
X2440127Y12655905D01*
X2444242Y12660274D01*
X2447239Y12664135D01*
X2449118Y12667640D01*
X2449880Y12671145D01*
X2449525Y12674803D01*
X2448102Y12678918D01*
X2445562Y12683693D01*
X2441956Y12689382D01*
X2439060Y12693192D01*
X2435758Y12696698D01*
X2432050Y12699796D01*
X2427935Y12702540D01*
X2423566Y12704927D01*
X2418842Y12706959D01*
X2413914Y12708585D01*
X2408783Y12709855D01*
X2403449Y12710769D01*
X2397963Y12711277D01*
G37*
G36*
X2950210Y12570612D02*
G01*
X2941218Y12570053D01*
X2931668Y12568529D01*
X2921762Y12566040D01*
X2911703Y12562535D01*
X2901696Y12558115D01*
X2891993Y12552680D01*
X2882798Y12546279D01*
X2872333Y12537541D01*
X2866542Y12533122D01*
X2861005Y12529362D01*
X2855823Y12526314D01*
X2851099Y12523978D01*
X2846781Y12522301D01*
X2842971Y12521336D01*
X2839669Y12521031D01*
X2836976Y12521387D01*
X2834894Y12522504D01*
X2833471Y12524232D01*
X2832709Y12526670D01*
X2832760Y12529820D01*
X2833522Y12533630D01*
X2835198Y12538151D01*
X2841142Y12550190D01*
X2843987Y12556591D01*
X2845917Y12561824D01*
X2846628Y12565075D01*
X2846019Y12567462D01*
X2844292Y12569088D01*
X2841599Y12570104D01*
X2838094Y12570460D01*
X2833928Y12570256D01*
X2829306Y12569494D01*
X2824327Y12568174D01*
X2819196Y12566396D01*
X2814015Y12564160D01*
X2809036Y12561468D01*
X2804312Y12558420D01*
X2800096Y12555016D01*
X2790952Y12547041D01*
X2786684Y12544348D01*
X2786380Y12547041D01*
X2789174Y12555016D01*
X2790901Y12562128D01*
X2789529Y12566802D01*
X2784703Y12569342D01*
X2776169Y12570104D01*
X2768854Y12569596D01*
X2762859Y12568123D01*
X2758846Y12565989D01*
X2757322Y12563348D01*
X2756916Y12561316D01*
X2755747Y12558522D01*
X2753868Y12555016D01*
X2748127Y12546330D01*
X2740253Y12535763D01*
X2730754Y12523876D01*
X2720035Y12511227D01*
X2708656Y12498324D01*
X2697022Y12485725D01*
X2685643Y12473990D01*
X2675026Y12463678D01*
X2665679Y12455296D01*
X2661564Y12451994D01*
X2657957Y12449403D01*
X2654909Y12447574D01*
X2650286Y12445238D01*
X2642717Y12442139D01*
X2639720Y12441377D01*
X2637332Y12441174D01*
X2635453Y12441478D01*
X2634132Y12442291D01*
X2633319Y12443714D01*
X2633116Y12445695D01*
X2633472Y12448235D01*
X2634386Y12451334D01*
X2635859Y12455042D01*
X2640482Y12464186D01*
X2647391Y12475819D01*
X2656586Y12489942D01*
X2681427Y12525857D01*
X2691333Y12540792D01*
X2697937Y12551968D01*
X2700070Y12556337D01*
X2701442Y12559944D01*
X2702102Y12562890D01*
X2702052Y12565176D01*
X2701239Y12567005D01*
X2699816Y12568275D01*
X2697683Y12569190D01*
X2694990Y12569748D01*
X2691587Y12570053D01*
X2687675Y12570104D01*
X2685034Y12569698D01*
X2681935Y12568377D01*
X2678379Y12566243D01*
X2674416Y12563297D01*
X2670149Y12559639D01*
X2660700Y12550241D01*
X2650337Y12538405D01*
X2644902Y12531648D01*
X2625039Y12504928D01*
X2615539Y12493447D01*
X2605582Y12482423D01*
X2595473Y12472162D01*
X2585516Y12462814D01*
X2575915Y12454686D01*
X2567076Y12447930D01*
X2559151Y12442850D01*
X2555697Y12440970D01*
X2552547Y12439599D01*
X2549753Y12438786D01*
X2547467Y12438481D01*
X2545588Y12438786D01*
X2544165Y12439650D01*
X2543352Y12441224D01*
X2543048Y12443409D01*
X2543403Y12444933D01*
X2546197Y12450876D01*
X2551430Y12460020D01*
X2558643Y12471755D01*
X2567533Y12485471D01*
X2577642Y12500508D01*
X2590749Y12519406D01*
X2602687Y12537389D01*
X2607005Y12544501D01*
X2610307Y12550444D01*
X2612593Y12555372D01*
X2613964Y12559385D01*
X2614422Y12562535D01*
X2613964Y12564973D01*
X2612694Y12566802D01*
X2610662Y12568072D01*
X2607868Y12568936D01*
X2604262Y12569088D01*
X2600045Y12568174D01*
X2595372Y12566294D01*
X2590393Y12563449D01*
X2585212Y12559792D01*
X2579878Y12555321D01*
X2574594Y12550190D01*
X2564079Y12538252D01*
X2558897Y12532918D01*
X2553970Y12528346D01*
X2549296Y12524638D01*
X2544775Y12521742D01*
X2540508Y12519660D01*
X2536444Y12518390D01*
X2532583Y12517882D01*
X2528925Y12518237D01*
X2525420Y12519406D01*
X2522169Y12521336D01*
X2519070Y12524130D01*
X2516225Y12527737D01*
X2513482Y12532106D01*
X2510993Y12537338D01*
X2505710Y12551156D01*
X2502662Y12557353D01*
X2499258Y12562027D01*
X2495194Y12565430D01*
X2490165Y12567767D01*
X2483916Y12569190D01*
X2476093Y12569901D01*
X2466441Y12570104D01*
X2459990Y12569952D01*
X2453944Y12569444D01*
X2448306Y12568529D01*
X2442921Y12567107D01*
X2437638Y12565176D01*
X2432354Y12562586D01*
X2426970Y12559385D01*
X2421382Y12555423D01*
X2415438Y12550698D01*
X2409088Y12545110D01*
X2394508Y12531140D01*
X2383688Y12519609D01*
X2378913Y12513970D01*
X2370582Y12502845D01*
X2367026Y12497409D01*
X2363927Y12492126D01*
X2361234Y12486894D01*
X2358948Y12481814D01*
X2357120Y12476835D01*
X2355697Y12472060D01*
X2354681Y12467386D01*
X2354122Y12462865D01*
X2353970Y12458547D01*
X2354245Y12454737D01*
X2391257Y12454737D01*
X2391511Y12459970D01*
X2392222Y12465354D01*
X2393391Y12470841D01*
X2394915Y12476429D01*
X2396896Y12482068D01*
X2399182Y12487656D01*
X2404719Y12498781D01*
X2411222Y12509550D01*
X2418537Y12519660D01*
X2422398Y12524384D01*
X2430424Y12533020D01*
X2434488Y12536881D01*
X2438552Y12540386D01*
X2442616Y12543485D01*
X2446629Y12546126D01*
X2450541Y12548311D01*
X2454300Y12550038D01*
X2457958Y12551206D01*
X2461412Y12551816D01*
X2464663Y12551816D01*
X2467660Y12551206D01*
X2470404Y12549886D01*
X2472842Y12547904D01*
X2474925Y12545212D01*
X2475738Y12542977D01*
X2475992Y12539980D01*
X2475636Y12536373D01*
X2474823Y12532156D01*
X2473502Y12527432D01*
X2469692Y12516866D01*
X2464460Y12505182D01*
X2458212Y12493142D01*
X2451201Y12481306D01*
X2443835Y12470333D01*
X2440127Y12465354D01*
X2436418Y12460833D01*
X2432812Y12456871D01*
X2429306Y12453518D01*
X2425954Y12450876D01*
X2416556Y12444628D01*
X2408936Y12440259D01*
X2402890Y12437770D01*
X2398318Y12437262D01*
X2394966Y12438684D01*
X2392781Y12442037D01*
X2391613Y12447371D01*
X2391257Y12454737D01*
X2354245Y12454737D01*
X2355037Y12450368D01*
X2356205Y12446558D01*
X2357831Y12443002D01*
X2359863Y12439599D01*
X2362352Y12436449D01*
X2365298Y12433554D01*
X2368651Y12430861D01*
X2372461Y12428423D01*
X2376779Y12426238D01*
X2380589Y12424816D01*
X2384653Y12423800D01*
X2389022Y12423241D01*
X2393594Y12423038D01*
X2398369Y12423292D01*
X2403297Y12423851D01*
X2408377Y12424816D01*
X2413609Y12426137D01*
X2418892Y12427762D01*
X2424226Y12429693D01*
X2429611Y12431928D01*
X2440381Y12437262D01*
X2445715Y12440259D01*
X2456129Y12447016D01*
X2461158Y12450673D01*
X2470708Y12458598D01*
X2475179Y12462764D01*
X2483408Y12471501D01*
X2487066Y12476073D01*
X2490419Y12480696D01*
X2493467Y12485370D01*
X2496108Y12490094D01*
X2498394Y12494920D01*
X2500223Y12499695D01*
X2502560Y12502743D01*
X2506827Y12504318D01*
X2512314Y12504420D01*
X2518511Y12502845D01*
X2525369Y12499238D01*
X2528671Y12494717D01*
X2528468Y12488722D01*
X2525014Y12480594D01*
X2522169Y12474956D01*
X2519934Y12469469D01*
X2518156Y12464288D01*
X2516936Y12459309D01*
X2516174Y12454636D01*
X2515870Y12450216D01*
X2516022Y12446101D01*
X2516632Y12442240D01*
X2517597Y12438684D01*
X2519019Y12435484D01*
X2520797Y12432588D01*
X2522880Y12429998D01*
X2525369Y12427813D01*
X2528112Y12425934D01*
X2531211Y12424460D01*
X2534564Y12423343D01*
X2538171Y12422632D01*
X2542032Y12422327D01*
X2546146Y12422378D01*
X2550414Y12422936D01*
X2554884Y12423851D01*
X2559558Y12425222D01*
X2564333Y12427102D01*
X2569260Y12429388D01*
X2574340Y12432182D01*
X2579471Y12435433D01*
X2584653Y12439243D01*
X2598216Y12450216D01*
X2602941Y12452400D01*
X2605074Y12450013D01*
X2605532Y12443104D01*
X2606598Y12437414D01*
X2609494Y12432284D01*
X2613812Y12427915D01*
X2619197Y12424460D01*
X2625242Y12422225D01*
X2631541Y12421311D01*
X2637790Y12421920D01*
X2645968Y12425426D01*
X2649524Y12426492D01*
X2658922Y12428118D01*
X2670403Y12429032D01*
X2690266Y12429032D01*
X2696921Y12429540D01*
X2702763Y12430658D01*
X2707843Y12432385D01*
X2712212Y12434773D01*
X2716022Y12437872D01*
X2719324Y12441682D01*
X2723794Y12449098D01*
X2728518Y12456160D01*
X2734818Y12464796D01*
X2742285Y12474448D01*
X2750616Y12484608D01*
X2759303Y12494717D01*
X2795320Y12534646D01*
X2815132Y12513259D01*
X2820009Y12507569D01*
X2824022Y12501930D01*
X2827172Y12496241D01*
X2829458Y12490500D01*
X2830931Y12484506D01*
X2831642Y12478258D01*
X2831642Y12471552D01*
X2829915Y12456515D01*
X2829712Y12449962D01*
X2830322Y12444526D01*
X2831896Y12440005D01*
X2834538Y12436144D01*
X2838348Y12432690D01*
X2843479Y12429490D01*
X2849930Y12426289D01*
X2854706Y12424257D01*
X2859176Y12422682D01*
X2863494Y12421666D01*
X2867812Y12421108D01*
X2872232Y12421158D01*
X2876905Y12421717D01*
X2881934Y12422936D01*
X2887472Y12424765D01*
X2893669Y12427204D01*
X2908554Y12434214D01*
X2927248Y12443764D01*
X2942336Y12451181D01*
X2948025Y12453620D01*
X2952597Y12455245D01*
X2956255Y12456058D01*
X2959201Y12456058D01*
X2961436Y12455347D01*
X2963265Y12453823D01*
X2964738Y12451638D01*
X2966008Y12448692D01*
X2968701Y12441224D01*
X2970530Y12437770D01*
X2972714Y12434671D01*
X2975254Y12431979D01*
X2978099Y12429693D01*
X2981248Y12427712D01*
X2984652Y12426086D01*
X2988360Y12424867D01*
X2992323Y12423952D01*
X2996539Y12423394D01*
X3000959Y12423190D01*
X3010408Y12423749D01*
X3015386Y12424562D01*
X3020568Y12425680D01*
X3031286Y12428829D01*
X3042513Y12433198D01*
X3053994Y12438786D01*
X3065729Y12445542D01*
X3071622Y12449302D01*
X3083356Y12457734D01*
X3095040Y12467183D01*
X3100781Y12472314D01*
X3112008Y12483338D01*
X3122828Y12495225D01*
X3131820Y12505994D01*
X3138627Y12514935D01*
X3143250Y12521996D01*
X3144774Y12524790D01*
X3145739Y12527127D01*
X3146247Y12528956D01*
X3146247Y12530277D01*
X3145739Y12531090D01*
X3144774Y12531394D01*
X3143300Y12531191D01*
X3141370Y12530480D01*
X3136087Y12527432D01*
X3129076Y12522200D01*
X3120339Y12514783D01*
X3109925Y12505080D01*
X3097428Y12492786D01*
X3084372Y12480798D01*
X3071825Y12470282D01*
X3059938Y12461341D01*
X3048812Y12453924D01*
X3043580Y12450826D01*
X3033725Y12445847D01*
X3029204Y12443968D01*
X3024886Y12442494D01*
X3020923Y12441478D01*
X3017164Y12440869D01*
X3013760Y12440666D01*
X3010662Y12440920D01*
X3007918Y12441580D01*
X3005480Y12442698D01*
X3003397Y12444222D01*
X3001670Y12446254D01*
X3000349Y12448692D01*
X2999384Y12451588D01*
X2998876Y12454991D01*
X2998774Y12458801D01*
X2999079Y12463068D01*
X3000654Y12471603D01*
X3001619Y12474905D01*
X3002991Y12477902D01*
X3004921Y12480696D01*
X3007614Y12483490D01*
X3011322Y12486436D01*
X3016199Y12489586D01*
X3022447Y12493193D01*
X3039922Y12502184D01*
X3065424Y12514529D01*
X3071926Y12517882D01*
X3077768Y12521234D01*
X3083052Y12524689D01*
X3087624Y12528143D01*
X3091637Y12531598D01*
X3094939Y12535052D01*
X3097631Y12538456D01*
X3099714Y12541758D01*
X3101086Y12545009D01*
X3101848Y12548158D01*
X3101949Y12551156D01*
X3101390Y12554000D01*
X3100171Y12556642D01*
X3098241Y12559131D01*
X3095701Y12561366D01*
X3092500Y12563348D01*
X3088589Y12565075D01*
X3084017Y12566497D01*
X3078734Y12567615D01*
X3072790Y12568428D01*
X3068370Y12568732D01*
X3064154Y12568732D01*
X3060039Y12568428D01*
X3055975Y12567767D01*
X3051860Y12566650D01*
X3047644Y12565075D01*
X3043275Y12563043D01*
X3038652Y12560401D01*
X3033674Y12557150D01*
X3028289Y12553289D01*
X3016046Y12543434D01*
X3001314Y12530429D01*
X2974258Y12505385D01*
X3011830Y12505385D01*
X3033471Y12528854D01*
X3041446Y12537033D01*
X3048609Y12543485D01*
X3054807Y12548158D01*
X3060039Y12550952D01*
X3064256Y12551968D01*
X3067304Y12551105D01*
X3069234Y12548311D01*
X3069844Y12543586D01*
X3069285Y12541554D01*
X3067558Y12539065D01*
X3064916Y12536220D01*
X3061360Y12533122D01*
X3057042Y12529870D01*
X3052114Y12526568D01*
X3046679Y12523266D01*
X3011830Y12505385D01*
X2974258Y12505385D01*
X2951937Y12485420D01*
X2928823Y12465812D01*
X2918866Y12457887D01*
X2910484Y12451588D01*
X2903931Y12447117D01*
X2901492Y12445695D01*
X2896819Y12443460D01*
X2892501Y12441783D01*
X2888488Y12440615D01*
X2884830Y12439954D01*
X2881426Y12439802D01*
X2878429Y12440158D01*
X2875686Y12440920D01*
X2873298Y12442088D01*
X2871266Y12443714D01*
X2869539Y12445695D01*
X2868168Y12448082D01*
X2867101Y12450826D01*
X2866390Y12453823D01*
X2865983Y12457176D01*
X2865932Y12460833D01*
X2866237Y12464745D01*
X2866847Y12468910D01*
X2867812Y12473279D01*
X2870758Y12482576D01*
X2875127Y12492583D01*
X2877820Y12497765D01*
X2884271Y12508433D01*
X2887980Y12513868D01*
X2896514Y12524841D01*
X2902661Y12531648D01*
X2908655Y12537541D01*
X2914497Y12542469D01*
X2920034Y12546380D01*
X2925165Y12549276D01*
X2929940Y12551105D01*
X2934157Y12551867D01*
X2937814Y12551562D01*
X2940761Y12550140D01*
X2942996Y12547549D01*
X2944368Y12543840D01*
X2945434Y12533325D01*
X2947009Y12529312D01*
X2949549Y12526873D01*
X2952851Y12526010D01*
X2956814Y12526772D01*
X2961284Y12529108D01*
X2966161Y12533020D01*
X2971342Y12538506D01*
X2974136Y12542164D01*
X2976270Y12545618D01*
X2977794Y12548870D01*
X2978759Y12551867D01*
X2979166Y12554661D01*
X2979013Y12557201D01*
X2978404Y12559588D01*
X2977235Y12561722D01*
X2975660Y12563602D01*
X2973679Y12565278D01*
X2971292Y12566751D01*
X2968548Y12567970D01*
X2965450Y12568936D01*
X2962046Y12569698D01*
X2958338Y12570256D01*
X2954375Y12570561D01*
G37*
D10*
X7169658Y384047D02*
G01*
X7169658Y390905D01*
X7176515Y404368D01*
X7183374Y411226D01*
X7196836Y418084D01*
X7224268Y418084D01*
X7237729Y411226D01*
X7244588Y404368D01*
X7251445Y390905D01*
X7251445Y377189D01*
X7244588Y363473D01*
X7230872Y343154D01*
X7162800Y274828D01*
X7258304Y274828D01*
X7337297Y418084D02*
G01*
X7316977Y411226D01*
X7310120Y397510D01*
X7310120Y384047D01*
X7316977Y370331D01*
X7330440Y363473D01*
X7357872Y356615D01*
X7378191Y349757D01*
X7391908Y336295D01*
X7398765Y322579D01*
X7398765Y302260D01*
X7391908Y288544D01*
X7385050Y281686D01*
X7364729Y274828D01*
X7337297Y274828D01*
X7316977Y281686D01*
X7310120Y288544D01*
X7303261Y302260D01*
X7303261Y322579D01*
X7310120Y336295D01*
X7323581Y349757D01*
X7344156Y356615D01*
X7371334Y363473D01*
X7385050Y370331D01*
X7391908Y384047D01*
X7391908Y397510D01*
X7385050Y411226D01*
X7364729Y418084D01*
X7337297Y418084D01*
X7525511Y418084D02*
G01*
X7457440Y418084D01*
X7450581Y356615D01*
X7457440Y363473D01*
X7477759Y370331D01*
X7498334Y370331D01*
X7518654Y363473D01*
X7532370Y349757D01*
X7539227Y329437D01*
X7539227Y315721D01*
X7532370Y295402D01*
X7518654Y281686D01*
X7498334Y274828D01*
X7477759Y274828D01*
X7457440Y281686D01*
X7450581Y288544D01*
X7443724Y302260D01*
X7584186Y390905D02*
G01*
X7597902Y397510D01*
X7618222Y418084D01*
X7618222Y274828D01*
X7717790Y418084D02*
G01*
X7663179Y274828D01*
X7717790Y418084D02*
G01*
X7772400Y274828D01*
X7683754Y322579D02*
G01*
X7751825Y322579D01*
D11*
X1422400Y3714495D02*
G01*
X1422400Y3605529D01*
X1422400Y3605529D02*
G01*
X1484629Y3605529D01*
X1662429Y10978895D02*
G01*
X1662429Y10869929D01*
X1662429Y10927079D02*
G01*
X1652270Y10937239D01*
X1641855Y10942574D01*
X1626107Y10942574D01*
X1615694Y10937239D01*
X1605279Y10927079D01*
X1600200Y10911331D01*
X1600200Y10900918D01*
X1605279Y10885424D01*
X1615694Y10875010D01*
X1626107Y10869929D01*
X1641855Y10869929D01*
X1652270Y10875010D01*
X1662429Y10885424D01*
X1696720Y10978895D02*
G01*
X1696720Y10869929D01*
X1696720Y10978895D02*
G01*
X1743710Y10978895D01*
X1759204Y10973815D01*
X1764284Y10968481D01*
X1769618Y10958068D01*
X1769618Y10947654D01*
X1764284Y10937239D01*
X1759204Y10932160D01*
X1743710Y10927079D01*
X1696720Y10927079D02*
G01*
X1743710Y10927079D01*
X1759204Y10921745D01*
X1764284Y10916665D01*
X1769618Y10906252D01*
X1769618Y10890504D01*
X1764284Y10880089D01*
X1759204Y10875010D01*
X1743710Y10869929D01*
X1696720Y10869929D01*
X2336800Y4376165D02*
G01*
X2430272Y4376165D01*
X2464561Y4417568D02*
G01*
X2474975Y4422902D01*
X2490470Y4438395D01*
X2490470Y4329429D01*
X2530093Y4412487D02*
G01*
X2530093Y4417568D01*
X2535174Y4427981D01*
X2540508Y4433315D01*
X2550922Y4438395D01*
X2571750Y4438395D01*
X2581909Y4433315D01*
X2587243Y4427981D01*
X2592324Y4417568D01*
X2592324Y4407154D01*
X2587243Y4396739D01*
X2576829Y4381245D01*
X2524759Y4329429D01*
X2597658Y4329429D01*
X787400Y4376165D02*
G01*
X880871Y4376165D01*
X915162Y4417568D02*
G01*
X925576Y4422902D01*
X941070Y4438395D01*
X941070Y4329429D01*
X980694Y4412487D02*
G01*
X980694Y4417568D01*
X985773Y4427981D01*
X991107Y4433315D01*
X1001521Y4438395D01*
X1022350Y4438395D01*
X1032510Y4433315D01*
X1037844Y4427981D01*
X1042923Y4417568D01*
X1042923Y4407154D01*
X1037844Y4396739D01*
X1027429Y4381245D01*
X975360Y4329429D01*
X1048257Y4329429D01*
X2431541Y7372095D02*
G01*
X2415793Y7367015D01*
X2405379Y7351268D01*
X2400300Y7325360D01*
X2400300Y7309865D01*
X2405379Y7283704D01*
X2415793Y7268210D01*
X2431541Y7263129D01*
X2441956Y7263129D01*
X2457450Y7268210D01*
X2467863Y7283704D01*
X2472943Y7309865D01*
X2472943Y7325360D01*
X2467863Y7351268D01*
X2457450Y7367015D01*
X2441956Y7372095D01*
X2431541Y7372095D01*
X945642Y7372095D02*
G01*
X929894Y7367015D01*
X919479Y7351268D01*
X914400Y7325360D01*
X914400Y7309865D01*
X919479Y7283704D01*
X929894Y7268210D01*
X945642Y7263129D01*
X956055Y7263129D01*
X971550Y7268210D01*
X981963Y7283704D01*
X987044Y7309865D01*
X987044Y7325360D01*
X981963Y7351268D01*
X971550Y7367015D01*
X956055Y7372095D01*
X945642Y7372095D01*
X838200Y5354065D02*
G01*
X931671Y5354065D01*
X991870Y5416295D02*
G01*
X976376Y5411215D01*
X971295Y5400802D01*
X971295Y5390387D01*
X976376Y5379973D01*
X986789Y5374639D01*
X1007618Y5369560D01*
X1023112Y5364479D01*
X1033526Y5354065D01*
X1038860Y5343652D01*
X1038860Y5327904D01*
X1033526Y5317489D01*
X1028445Y5312410D01*
X1012697Y5307329D01*
X991870Y5307329D01*
X976376Y5312410D01*
X971295Y5317489D01*
X965962Y5327904D01*
X965962Y5343652D01*
X971295Y5354065D01*
X981710Y5364479D01*
X997204Y5369560D01*
X1018031Y5374639D01*
X1028445Y5379973D01*
X1033526Y5390387D01*
X1033526Y5400802D01*
X1028445Y5411215D01*
X1012697Y5416295D01*
X991870Y5416295D01*
X2336800Y5354065D02*
G01*
X2430272Y5354065D01*
X2490470Y5416295D02*
G01*
X2474975Y5411215D01*
X2469895Y5400802D01*
X2469895Y5390387D01*
X2474975Y5379973D01*
X2485390Y5374639D01*
X2506218Y5369560D01*
X2521711Y5364479D01*
X2532125Y5354065D01*
X2537459Y5343652D01*
X2537459Y5327904D01*
X2532125Y5317489D01*
X2527045Y5312410D01*
X2511297Y5307329D01*
X2490470Y5307329D01*
X2474975Y5312410D01*
X2469895Y5317489D01*
X2464561Y5327904D01*
X2464561Y5343652D01*
X2469895Y5354065D01*
X2480309Y5364479D01*
X2495804Y5369560D01*
X2516631Y5374639D01*
X2527045Y5379973D01*
X2532125Y5390387D01*
X2532125Y5400802D01*
X2527045Y5411215D01*
X2511297Y5416295D01*
X2490470Y5416295D01*
X838200Y6331965D02*
G01*
X931671Y6331965D01*
X1018031Y6394195D02*
G01*
X965962Y6321552D01*
X1043939Y6321552D01*
X1018031Y6394195D02*
G01*
X1018031Y6285229D01*
X2336800Y6331965D02*
G01*
X2430272Y6331965D01*
X2516631Y6394195D02*
G01*
X2464561Y6321552D01*
X2542540Y6321552D01*
X2516631Y6394195D02*
G01*
X2516631Y6285229D01*
X1004570Y8349995D02*
G01*
X952500Y8277352D01*
X1030478Y8277352D01*
X1004570Y8349995D02*
G01*
X1004570Y8241029D01*
X2414270Y8349995D02*
G01*
X2362200Y8277352D01*
X2440177Y8277352D01*
X2414270Y8349995D02*
G01*
X2414270Y8241029D01*
X978407Y9327895D02*
G01*
X962913Y9322815D01*
X957579Y9312402D01*
X957579Y9301987D01*
X962913Y9291574D01*
X973328Y9286239D01*
X994155Y9281160D01*
X1009650Y9276079D01*
X1020063Y9265665D01*
X1025144Y9255252D01*
X1025144Y9239504D01*
X1020063Y9229089D01*
X1014729Y9224010D01*
X999236Y9218929D01*
X978407Y9218929D01*
X962913Y9224010D01*
X957579Y9229089D01*
X952500Y9239504D01*
X952500Y9255252D01*
X957579Y9265665D01*
X967994Y9276079D01*
X983742Y9281160D01*
X1004570Y9286239D01*
X1014729Y9291574D01*
X1020063Y9301987D01*
X1020063Y9312402D01*
X1014729Y9322815D01*
X999236Y9327895D01*
X978407Y9327895D01*
X2388108Y9327895D02*
G01*
X2372613Y9322815D01*
X2367279Y9312402D01*
X2367279Y9301987D01*
X2372613Y9291574D01*
X2383027Y9286239D01*
X2403856Y9281160D01*
X2419350Y9276079D01*
X2429763Y9265665D01*
X2434843Y9255252D01*
X2434843Y9239504D01*
X2429763Y9229089D01*
X2424429Y9224010D01*
X2408936Y9218929D01*
X2388108Y9218929D01*
X2372613Y9224010D01*
X2367279Y9229089D01*
X2362200Y9239504D01*
X2362200Y9255252D01*
X2367279Y9265665D01*
X2377693Y9276079D01*
X2393441Y9281160D01*
X2414270Y9286239D01*
X2424429Y9291574D01*
X2429763Y9301987D01*
X2429763Y9312402D01*
X2424429Y9322815D01*
X2408936Y9327895D01*
X2388108Y9327895D01*
X889000Y10284968D02*
G01*
X899413Y10290302D01*
X914907Y10305795D01*
X914907Y10196829D01*
X954531Y10279887D02*
G01*
X954531Y10284968D01*
X959612Y10295381D01*
X964945Y10300715D01*
X975360Y10305795D01*
X995934Y10305795D01*
X1006347Y10300715D01*
X1011681Y10295381D01*
X1016762Y10284968D01*
X1016762Y10274554D01*
X1011681Y10264139D01*
X1001268Y10248645D01*
X949197Y10196829D01*
X1022095Y10196829D01*
X2362200Y10284968D02*
G01*
X2372613Y10290302D01*
X2388108Y10305795D01*
X2388108Y10196829D01*
X2427731Y10279887D02*
G01*
X2427731Y10284968D01*
X2432811Y10295381D01*
X2438145Y10300715D01*
X2448559Y10305795D01*
X2469134Y10305795D01*
X2479547Y10300715D01*
X2484881Y10295381D01*
X2489961Y10284968D01*
X2489961Y10274554D01*
X2484881Y10264139D01*
X2474468Y10248645D01*
X2422397Y10196829D01*
X2495295Y10196829D01*
X1567942Y11359895D02*
G01*
X1557528Y11354815D01*
X1547113Y11344402D01*
X1541779Y11333987D01*
X1536700Y11318239D01*
X1536700Y11292331D01*
X1541779Y11276837D01*
X1547113Y11266424D01*
X1557528Y11256010D01*
X1567942Y11250929D01*
X1588770Y11250929D01*
X1598929Y11256010D01*
X1609344Y11266424D01*
X1614678Y11276837D01*
X1619757Y11292331D01*
X1619757Y11318239D01*
X1614678Y11333987D01*
X1609344Y11344402D01*
X1598929Y11354815D01*
X1588770Y11359895D01*
X1567942Y11359895D01*
X1654047Y11359895D02*
G01*
X1695704Y11250929D01*
X1737360Y11359895D02*
G01*
X1695704Y11250929D01*
X1771650Y11359895D02*
G01*
X1771650Y11250929D01*
X1771650Y11359895D02*
G01*
X1818386Y11359895D01*
X1833879Y11354815D01*
X1838960Y11349481D01*
X1844294Y11339068D01*
X1844294Y11328654D01*
X1838960Y11318239D01*
X1833879Y11313160D01*
X1818386Y11308079D01*
X1771650Y11308079D01*
X1807971Y11308079D02*
G01*
X1844294Y11250929D01*
X3485664Y11359895D02*
G01*
X3475250Y11354815D01*
X3464836Y11344402D01*
X3459502Y11333987D01*
X3454422Y11318239D01*
X3454422Y11292331D01*
X3459502Y11276837D01*
X3464836Y11266424D01*
X3475250Y11256010D01*
X3485664Y11250929D01*
X3506492Y11250929D01*
X3516652Y11256010D01*
X3527066Y11266424D01*
X3532400Y11276837D01*
X3537480Y11292331D01*
X3537480Y11318239D01*
X3532400Y11333987D01*
X3527066Y11344402D01*
X3516652Y11354815D01*
X3506492Y11359895D01*
X3485664Y11359895D01*
X3571770Y11359895D02*
G01*
X3613426Y11250929D01*
X3655082Y11359895D02*
G01*
X3613426Y11250929D01*
X3689372Y11359895D02*
G01*
X3689372Y11250929D01*
X3689372Y11359895D02*
G01*
X3736108Y11359895D01*
X3751602Y11354815D01*
X3756682Y11349481D01*
X3762016Y11339068D01*
X3762016Y11328654D01*
X3756682Y11318239D01*
X3751602Y11313160D01*
X3736108Y11308079D01*
X3689372Y11308079D01*
X3725694Y11308079D02*
G01*
X3762016Y11250929D01*
X4279922Y10284968D02*
G01*
X4290336Y10290302D01*
X4305830Y10305795D01*
X4305830Y10196829D01*
X4345454Y10279887D02*
G01*
X4345454Y10284968D01*
X4350534Y10295381D01*
X4355868Y10300715D01*
X4366282Y10305795D01*
X4386856Y10305795D01*
X4397270Y10300715D01*
X4402604Y10295381D01*
X4407684Y10284968D01*
X4407684Y10274554D01*
X4402604Y10264139D01*
X4392190Y10248645D01*
X4340120Y10196829D01*
X4413018Y10196829D01*
X2806722Y10284968D02*
G01*
X2817136Y10290302D01*
X2832630Y10305795D01*
X2832630Y10196829D01*
X2872254Y10279887D02*
G01*
X2872254Y10284968D01*
X2877334Y10295381D01*
X2882668Y10300715D01*
X2893082Y10305795D01*
X2913656Y10305795D01*
X2924070Y10300715D01*
X2929404Y10295381D01*
X2934484Y10284968D01*
X2934484Y10274554D01*
X2929404Y10264139D01*
X2918990Y10248645D01*
X2866920Y10196829D01*
X2939818Y10196829D01*
X4305830Y9327895D02*
G01*
X4290336Y9322815D01*
X4285002Y9312402D01*
X4285002Y9301987D01*
X4290336Y9291574D01*
X4300750Y9286239D01*
X4321578Y9281160D01*
X4337072Y9276079D01*
X4347486Y9265665D01*
X4352566Y9255252D01*
X4352566Y9239504D01*
X4347486Y9229089D01*
X4342152Y9224010D01*
X4326658Y9218929D01*
X4305830Y9218929D01*
X4290336Y9224010D01*
X4285002Y9229089D01*
X4279922Y9239504D01*
X4279922Y9255252D01*
X4285002Y9265665D01*
X4295416Y9276079D01*
X4311164Y9281160D01*
X4331992Y9286239D01*
X4342152Y9291574D01*
X4347486Y9301987D01*
X4347486Y9312402D01*
X4342152Y9322815D01*
X4326658Y9327895D01*
X4305830Y9327895D01*
X2896130Y9327895D02*
G01*
X2880636Y9322815D01*
X2875302Y9312402D01*
X2875302Y9301987D01*
X2880636Y9291574D01*
X2891050Y9286239D01*
X2911878Y9281160D01*
X2927372Y9276079D01*
X2937786Y9265665D01*
X2942866Y9255252D01*
X2942866Y9239504D01*
X2937786Y9229089D01*
X2932452Y9224010D01*
X2916958Y9218929D01*
X2896130Y9218929D01*
X2880636Y9224010D01*
X2875302Y9229089D01*
X2870222Y9239504D01*
X2870222Y9255252D01*
X2875302Y9265665D01*
X2885716Y9276079D01*
X2901464Y9281160D01*
X2922292Y9286239D01*
X2932452Y9291574D01*
X2937786Y9301987D01*
X2937786Y9312402D01*
X2932452Y9322815D01*
X2916958Y9327895D01*
X2896130Y9327895D01*
X4331992Y8349995D02*
G01*
X4279922Y8277352D01*
X4357900Y8277352D01*
X4331992Y8349995D02*
G01*
X4331992Y8241029D01*
X2922292Y8349995D02*
G01*
X2870222Y8277352D01*
X2948200Y8277352D01*
X2922292Y8349995D02*
G01*
X2922292Y8241029D01*
X4254522Y6331965D02*
G01*
X4347994Y6331965D01*
X4434354Y6394195D02*
G01*
X4382284Y6321552D01*
X4460262Y6321552D01*
X4434354Y6394195D02*
G01*
X4434354Y6285229D01*
X2755922Y6331965D02*
G01*
X2849394Y6331965D01*
X2935754Y6394195D02*
G01*
X2883684Y6321552D01*
X2961662Y6321552D01*
X2935754Y6394195D02*
G01*
X2935754Y6285229D01*
X4254522Y5354065D02*
G01*
X4347994Y5354065D01*
X4408192Y5416295D02*
G01*
X4392698Y5411215D01*
X4387618Y5400802D01*
X4387618Y5390387D01*
X4392698Y5379973D01*
X4403112Y5374639D01*
X4423940Y5369560D01*
X4439434Y5364479D01*
X4449848Y5354065D01*
X4455182Y5343652D01*
X4455182Y5327904D01*
X4449848Y5317489D01*
X4444768Y5312410D01*
X4429020Y5307329D01*
X4408192Y5307329D01*
X4392698Y5312410D01*
X4387618Y5317489D01*
X4382284Y5327904D01*
X4382284Y5343652D01*
X4387618Y5354065D01*
X4398032Y5364479D01*
X4413526Y5369560D01*
X4434354Y5374639D01*
X4444768Y5379973D01*
X4449848Y5390387D01*
X4449848Y5400802D01*
X4444768Y5411215D01*
X4429020Y5416295D01*
X4408192Y5416295D01*
X2755922Y5354065D02*
G01*
X2849394Y5354065D01*
X2909592Y5416295D02*
G01*
X2894098Y5411215D01*
X2889018Y5400802D01*
X2889018Y5390387D01*
X2894098Y5379973D01*
X2904512Y5374639D01*
X2925340Y5369560D01*
X2940834Y5364479D01*
X2951248Y5354065D01*
X2956582Y5343652D01*
X2956582Y5327904D01*
X2951248Y5317489D01*
X2946168Y5312410D01*
X2930420Y5307329D01*
X2909592Y5307329D01*
X2894098Y5312410D01*
X2889018Y5317489D01*
X2883684Y5327904D01*
X2883684Y5343652D01*
X2889018Y5354065D01*
X2899432Y5364479D01*
X2914926Y5369560D01*
X2935754Y5374639D01*
X2946168Y5379973D01*
X2951248Y5390387D01*
X2951248Y5400802D01*
X2946168Y5411215D01*
X2930420Y5416295D01*
X2909592Y5416295D01*
X2863364Y7372095D02*
G01*
X2847616Y7367015D01*
X2837202Y7351268D01*
X2832122Y7325360D01*
X2832122Y7309865D01*
X2837202Y7283704D01*
X2847616Y7268210D01*
X2863364Y7263129D01*
X2873778Y7263129D01*
X2889272Y7268210D01*
X2899686Y7283704D01*
X2904766Y7309865D01*
X2904766Y7325360D01*
X2899686Y7351268D01*
X2889272Y7367015D01*
X2873778Y7372095D01*
X2863364Y7372095D01*
X4349264Y7372095D02*
G01*
X4333516Y7367015D01*
X4323102Y7351268D01*
X4318022Y7325360D01*
X4318022Y7309865D01*
X4323102Y7283704D01*
X4333516Y7268210D01*
X4349264Y7263129D01*
X4359678Y7263129D01*
X4375172Y7268210D01*
X4385586Y7283704D01*
X4390666Y7309865D01*
X4390666Y7325360D01*
X4385586Y7351268D01*
X4375172Y7367015D01*
X4359678Y7372095D01*
X4349264Y7372095D01*
X2705122Y4376165D02*
G01*
X2798594Y4376165D01*
X2832884Y4417568D02*
G01*
X2843298Y4422902D01*
X2858792Y4438395D01*
X2858792Y4329429D01*
X2898416Y4412487D02*
G01*
X2898416Y4417568D01*
X2903496Y4427981D01*
X2908830Y4433315D01*
X2919244Y4438395D01*
X2940072Y4438395D01*
X2950232Y4433315D01*
X2955566Y4427981D01*
X2960646Y4417568D01*
X2960646Y4407154D01*
X2955566Y4396739D01*
X2945152Y4381245D01*
X2893082Y4329429D01*
X2965980Y4329429D01*
X4254522Y4376165D02*
G01*
X4347994Y4376165D01*
X4382284Y4417568D02*
G01*
X4392698Y4422902D01*
X4408192Y4438395D01*
X4408192Y4329429D01*
X4447816Y4412487D02*
G01*
X4447816Y4417568D01*
X4452896Y4427981D01*
X4458230Y4433315D01*
X4468644Y4438395D01*
X4489472Y4438395D01*
X4499632Y4433315D01*
X4504966Y4427981D01*
X4510046Y4417568D01*
X4510046Y4407154D01*
X4504966Y4396739D01*
X4494552Y4381245D01*
X4442482Y4329429D01*
X4515380Y4329429D01*
X3580152Y10978895D02*
G01*
X3580152Y10869929D01*
X3580152Y10927079D02*
G01*
X3569992Y10937239D01*
X3559578Y10942574D01*
X3543830Y10942574D01*
X3533416Y10937239D01*
X3523002Y10927079D01*
X3517922Y10911331D01*
X3517922Y10900918D01*
X3523002Y10885424D01*
X3533416Y10875010D01*
X3543830Y10869929D01*
X3559578Y10869929D01*
X3569992Y10875010D01*
X3580152Y10885424D01*
X3614442Y10978895D02*
G01*
X3614442Y10869929D01*
X3614442Y10978895D02*
G01*
X3661432Y10978895D01*
X3676926Y10973815D01*
X3682006Y10968481D01*
X3687340Y10958068D01*
X3687340Y10947654D01*
X3682006Y10937239D01*
X3676926Y10932160D01*
X3661432Y10927079D01*
X3614442Y10927079D02*
G01*
X3661432Y10927079D01*
X3676926Y10921745D01*
X3682006Y10916665D01*
X3687340Y10906252D01*
X3687340Y10890504D01*
X3682006Y10880089D01*
X3676926Y10875010D01*
X3661432Y10869929D01*
X3614442Y10869929D01*
X3340122Y3714495D02*
G01*
X3340122Y3605529D01*
X3340122Y3605529D02*
G01*
X3402352Y3605529D01*
X3835422Y3714495D02*
G01*
X3835422Y3605529D01*
X3835422Y3714495D02*
G01*
X3882158Y3714495D01*
X3897652Y3709415D01*
X3902986Y3704081D01*
X3908066Y3693668D01*
X3908066Y3683254D01*
X3902986Y3672839D01*
X3897652Y3667760D01*
X3882158Y3662679D01*
X3835422Y3662679D01*
X3871744Y3662679D02*
G01*
X3908066Y3605529D01*
X7308357Y11359895D02*
G01*
X7297943Y11354815D01*
X7287529Y11344402D01*
X7282195Y11333987D01*
X7277115Y11318239D01*
X7277115Y11292331D01*
X7282195Y11276837D01*
X7287529Y11266424D01*
X7297943Y11256010D01*
X7308357Y11250929D01*
X7329185Y11250929D01*
X7339345Y11256010D01*
X7349759Y11266424D01*
X7355093Y11276837D01*
X7360173Y11292331D01*
X7360173Y11318239D01*
X7355093Y11333987D01*
X7349759Y11344402D01*
X7339345Y11354815D01*
X7329185Y11359895D01*
X7308357Y11359895D01*
X7394463Y11359895D02*
G01*
X7436119Y11250929D01*
X7477775Y11359895D02*
G01*
X7436119Y11250929D01*
X7512065Y11359895D02*
G01*
X7512065Y11250929D01*
X7512065Y11359895D02*
G01*
X7558801Y11359895D01*
X7574295Y11354815D01*
X7579375Y11349481D01*
X7584709Y11339068D01*
X7584709Y11328654D01*
X7579375Y11318239D01*
X7574295Y11313160D01*
X7558801Y11308079D01*
X7512065Y11308079D01*
X7548387Y11308079D02*
G01*
X7584709Y11250929D01*
X8102615Y10284968D02*
G01*
X8113029Y10290302D01*
X8128523Y10305795D01*
X8128523Y10196829D01*
X8168147Y10279887D02*
G01*
X8168147Y10284968D01*
X8173227Y10295381D01*
X8178561Y10300715D01*
X8188975Y10305795D01*
X8209549Y10305795D01*
X8219963Y10300715D01*
X8225297Y10295381D01*
X8230377Y10284968D01*
X8230377Y10274554D01*
X8225297Y10264139D01*
X8214883Y10248645D01*
X8162813Y10196829D01*
X8235711Y10196829D01*
X6629415Y10284968D02*
G01*
X6639829Y10290302D01*
X6655323Y10305795D01*
X6655323Y10196829D01*
X6694947Y10279887D02*
G01*
X6694947Y10284968D01*
X6700027Y10295381D01*
X6705361Y10300715D01*
X6715775Y10305795D01*
X6736349Y10305795D01*
X6746763Y10300715D01*
X6752097Y10295381D01*
X6757177Y10284968D01*
X6757177Y10274554D01*
X6752097Y10264139D01*
X6741683Y10248645D01*
X6689613Y10196829D01*
X6762511Y10196829D01*
X8128523Y9327895D02*
G01*
X8113029Y9322815D01*
X8107695Y9312402D01*
X8107695Y9301987D01*
X8113029Y9291574D01*
X8123443Y9286239D01*
X8144271Y9281160D01*
X8159765Y9276079D01*
X8170179Y9265665D01*
X8175259Y9255252D01*
X8175259Y9239504D01*
X8170179Y9229089D01*
X8164845Y9224010D01*
X8149351Y9218929D01*
X8128523Y9218929D01*
X8113029Y9224010D01*
X8107695Y9229089D01*
X8102615Y9239504D01*
X8102615Y9255252D01*
X8107695Y9265665D01*
X8118109Y9276079D01*
X8133857Y9281160D01*
X8154685Y9286239D01*
X8164845Y9291574D01*
X8170179Y9301987D01*
X8170179Y9312402D01*
X8164845Y9322815D01*
X8149351Y9327895D01*
X8128523Y9327895D01*
X6718823Y9327895D02*
G01*
X6703329Y9322815D01*
X6697995Y9312402D01*
X6697995Y9301987D01*
X6703329Y9291574D01*
X6713743Y9286239D01*
X6734571Y9281160D01*
X6750065Y9276079D01*
X6760479Y9265665D01*
X6765559Y9255252D01*
X6765559Y9239504D01*
X6760479Y9229089D01*
X6755145Y9224010D01*
X6739651Y9218929D01*
X6718823Y9218929D01*
X6703329Y9224010D01*
X6697995Y9229089D01*
X6692915Y9239504D01*
X6692915Y9255252D01*
X6697995Y9265665D01*
X6708409Y9276079D01*
X6724157Y9281160D01*
X6744985Y9286239D01*
X6755145Y9291574D01*
X6760479Y9301987D01*
X6760479Y9312402D01*
X6755145Y9322815D01*
X6739651Y9327895D01*
X6718823Y9327895D01*
X8154685Y8349995D02*
G01*
X8102615Y8277352D01*
X8180593Y8277352D01*
X8154685Y8349995D02*
G01*
X8154685Y8241029D01*
X6744985Y8349995D02*
G01*
X6692915Y8277352D01*
X6770893Y8277352D01*
X6744985Y8349995D02*
G01*
X6744985Y8241029D01*
X8077215Y6331965D02*
G01*
X8170687Y6331965D01*
X8257047Y6394195D02*
G01*
X8204977Y6321552D01*
X8282955Y6321552D01*
X8257047Y6394195D02*
G01*
X8257047Y6285229D01*
X6578615Y6331965D02*
G01*
X6672087Y6331965D01*
X6758447Y6394195D02*
G01*
X6706377Y6321552D01*
X6784355Y6321552D01*
X6758447Y6394195D02*
G01*
X6758447Y6285229D01*
X8077215Y5354065D02*
G01*
X8170687Y5354065D01*
X8230885Y5416295D02*
G01*
X8215391Y5411215D01*
X8210311Y5400802D01*
X8210311Y5390387D01*
X8215391Y5379973D01*
X8225805Y5374639D01*
X8246633Y5369560D01*
X8262127Y5364479D01*
X8272541Y5354065D01*
X8277875Y5343652D01*
X8277875Y5327904D01*
X8272541Y5317489D01*
X8267461Y5312410D01*
X8251713Y5307329D01*
X8230885Y5307329D01*
X8215391Y5312410D01*
X8210311Y5317489D01*
X8204977Y5327904D01*
X8204977Y5343652D01*
X8210311Y5354065D01*
X8220725Y5364479D01*
X8236219Y5369560D01*
X8257047Y5374639D01*
X8267461Y5379973D01*
X8272541Y5390387D01*
X8272541Y5400802D01*
X8267461Y5411215D01*
X8251713Y5416295D01*
X8230885Y5416295D01*
X6578615Y5354065D02*
G01*
X6672087Y5354065D01*
X6732285Y5416295D02*
G01*
X6716791Y5411215D01*
X6711711Y5400802D01*
X6711711Y5390387D01*
X6716791Y5379973D01*
X6727205Y5374639D01*
X6748033Y5369560D01*
X6763527Y5364479D01*
X6773941Y5354065D01*
X6779275Y5343652D01*
X6779275Y5327904D01*
X6773941Y5317489D01*
X6768861Y5312410D01*
X6753113Y5307329D01*
X6732285Y5307329D01*
X6716791Y5312410D01*
X6711711Y5317489D01*
X6706377Y5327904D01*
X6706377Y5343652D01*
X6711711Y5354065D01*
X6722125Y5364479D01*
X6737619Y5369560D01*
X6758447Y5374639D01*
X6768861Y5379973D01*
X6773941Y5390387D01*
X6773941Y5400802D01*
X6768861Y5411215D01*
X6753113Y5416295D01*
X6732285Y5416295D01*
X6686057Y7372095D02*
G01*
X6670309Y7367015D01*
X6659895Y7351268D01*
X6654815Y7325360D01*
X6654815Y7309865D01*
X6659895Y7283704D01*
X6670309Y7268210D01*
X6686057Y7263129D01*
X6696471Y7263129D01*
X6711965Y7268210D01*
X6722379Y7283704D01*
X6727459Y7309865D01*
X6727459Y7325360D01*
X6722379Y7351268D01*
X6711965Y7367015D01*
X6696471Y7372095D01*
X6686057Y7372095D01*
X8171957Y7372095D02*
G01*
X8156209Y7367015D01*
X8145795Y7351268D01*
X8140715Y7325360D01*
X8140715Y7309865D01*
X8145795Y7283704D01*
X8156209Y7268210D01*
X8171957Y7263129D01*
X8182371Y7263129D01*
X8197865Y7268210D01*
X8208279Y7283704D01*
X8213359Y7309865D01*
X8213359Y7325360D01*
X8208279Y7351268D01*
X8197865Y7367015D01*
X8182371Y7372095D01*
X8171957Y7372095D01*
X6527815Y4376165D02*
G01*
X6621287Y4376165D01*
X6655577Y4417568D02*
G01*
X6665991Y4422902D01*
X6681485Y4438395D01*
X6681485Y4329429D01*
X6721109Y4412487D02*
G01*
X6721109Y4417568D01*
X6726189Y4427981D01*
X6731523Y4433315D01*
X6741937Y4438395D01*
X6762765Y4438395D01*
X6772925Y4433315D01*
X6778259Y4427981D01*
X6783339Y4417568D01*
X6783339Y4407154D01*
X6778259Y4396739D01*
X6767845Y4381245D01*
X6715775Y4329429D01*
X6788673Y4329429D01*
X8077215Y4376165D02*
G01*
X8170687Y4376165D01*
X8204977Y4417568D02*
G01*
X8215391Y4422902D01*
X8230885Y4438395D01*
X8230885Y4329429D01*
X8270509Y4412487D02*
G01*
X8270509Y4417568D01*
X8275589Y4427981D01*
X8280923Y4433315D01*
X8291337Y4438395D01*
X8312165Y4438395D01*
X8322325Y4433315D01*
X8327659Y4427981D01*
X8332739Y4417568D01*
X8332739Y4407154D01*
X8327659Y4396739D01*
X8317245Y4381245D01*
X8265175Y4329429D01*
X8338073Y4329429D01*
X7402845Y10978895D02*
G01*
X7402845Y10869929D01*
X7402845Y10927079D02*
G01*
X7392685Y10937239D01*
X7382271Y10942574D01*
X7366523Y10942574D01*
X7356109Y10937239D01*
X7345695Y10927079D01*
X7340615Y10911331D01*
X7340615Y10900918D01*
X7345695Y10885424D01*
X7356109Y10875010D01*
X7366523Y10869929D01*
X7382271Y10869929D01*
X7392685Y10875010D01*
X7402845Y10885424D01*
X7437135Y10978895D02*
G01*
X7437135Y10869929D01*
X7437135Y10978895D02*
G01*
X7484125Y10978895D01*
X7499619Y10973815D01*
X7504699Y10968481D01*
X7510033Y10958068D01*
X7510033Y10947654D01*
X7504699Y10937239D01*
X7499619Y10932160D01*
X7484125Y10927079D01*
X7437135Y10927079D02*
G01*
X7484125Y10927079D01*
X7499619Y10921745D01*
X7504699Y10916665D01*
X7510033Y10906252D01*
X7510033Y10890504D01*
X7504699Y10880089D01*
X7499619Y10875010D01*
X7484125Y10869929D01*
X7437135Y10869929D01*
X7162815Y3714495D02*
G01*
X7162815Y3605529D01*
X7162815Y3605529D02*
G01*
X7225045Y3605529D01*
X7658115Y3714495D02*
G01*
X7658115Y3605529D01*
X7658115Y3714495D02*
G01*
X7704851Y3714495D01*
X7720345Y3709415D01*
X7725679Y3704081D01*
X7730759Y3693668D01*
X7730759Y3683254D01*
X7725679Y3672839D01*
X7720345Y3667760D01*
X7704851Y3662679D01*
X7658115Y3662679D01*
X7694437Y3662679D02*
G01*
X7730759Y3605529D01*
X1917722Y3714495D02*
G01*
X1917722Y3605529D01*
X1917722Y3714495D02*
G01*
X1964458Y3714495D01*
X1979952Y3709415D01*
X1985286Y3704081D01*
X1990366Y3693668D01*
X1990366Y3683254D01*
X1985286Y3672839D01*
X1979952Y3667760D01*
X1964458Y3662679D01*
X1917722Y3662679D01*
X1954044Y3662679D02*
G01*
X1990366Y3605529D01*
D12*
X7861315Y4373879D02*
G01*
X8026415Y4373879D01*
X6845315Y4373879D02*
G01*
X7010415Y4373879D01*
X7861315Y5351779D02*
G01*
X8026415Y5351779D01*
X6845315Y5351779D02*
G01*
X7010415Y5351779D01*
X7861315Y6329679D02*
G01*
X8026415Y6329679D01*
X6845315Y6329679D02*
G01*
X7010415Y6329679D01*
X7861315Y8285479D02*
G01*
X8026415Y8285479D01*
X7010415Y8285479D02*
G01*
X6845315Y8285479D01*
X7861315Y9263379D02*
G01*
X8026415Y9263379D01*
X7010415Y9263379D02*
G01*
X6845315Y9263379D01*
X7861315Y10241279D02*
G01*
X8026415Y10241279D01*
X7010415Y10241279D02*
G01*
X6845315Y10241279D01*
X7861315Y9491979D02*
G01*
X7962915Y9491979D01*
X7861315Y9758679D02*
G01*
X7962915Y9758679D01*
X6908815Y9491979D02*
G01*
X7010415Y9491979D01*
X6908815Y9758679D02*
G01*
X7010415Y9758679D01*
X7861315Y8780779D02*
G01*
X7962915Y8780779D01*
X6908815Y8780779D02*
G01*
X7010415Y8780779D01*
X7861315Y7802879D02*
G01*
X7962915Y7802879D01*
X6908815Y7802879D02*
G01*
X7010415Y7802879D01*
X7861315Y7307579D02*
G01*
X8064515Y7307579D01*
X7861315Y6824979D02*
G01*
X7962915Y6824979D01*
X6908815Y6824979D02*
G01*
X7010415Y6824979D01*
X7010415Y7307579D02*
G01*
X6807215Y7307579D01*
X7861315Y5847079D02*
G01*
X7962915Y5847079D01*
X6908815Y5847079D02*
G01*
X7010415Y5847079D01*
X7861315Y4869179D02*
G01*
X7962915Y4869179D01*
X6908815Y4869179D02*
G01*
X7010415Y4869179D01*
X4038622Y4373879D02*
G01*
X4203722Y4373879D01*
X3022622Y4373879D02*
G01*
X3187722Y4373879D01*
X4038622Y5351779D02*
G01*
X4203722Y5351779D01*
X3022622Y5351779D02*
G01*
X3187722Y5351779D01*
X4038622Y6329679D02*
G01*
X4203722Y6329679D01*
X3022622Y6329679D02*
G01*
X3187722Y6329679D01*
X4038622Y8285479D02*
G01*
X4203722Y8285479D01*
X3187722Y8285479D02*
G01*
X3022622Y8285479D01*
X4038622Y9263379D02*
G01*
X4203722Y9263379D01*
X3187722Y9263379D02*
G01*
X3022622Y9263379D01*
X4038622Y10241279D02*
G01*
X4203722Y10241279D01*
X3187722Y10241279D02*
G01*
X3022622Y10241279D01*
X4038622Y9491979D02*
G01*
X4140222Y9491979D01*
X4038622Y9758679D02*
G01*
X4140222Y9758679D01*
X3086122Y9491979D02*
G01*
X3187722Y9491979D01*
X3086122Y9758679D02*
G01*
X3187722Y9758679D01*
X4038622Y8780779D02*
G01*
X4140222Y8780779D01*
X3086122Y8780779D02*
G01*
X3187722Y8780779D01*
X4038622Y7802879D02*
G01*
X4140222Y7802879D01*
X3086122Y7802879D02*
G01*
X3187722Y7802879D01*
X4038622Y7307579D02*
G01*
X4241822Y7307579D01*
X4038622Y6824979D02*
G01*
X4140222Y6824979D01*
X3086122Y6824979D02*
G01*
X3187722Y6824979D01*
X3187722Y7307579D02*
G01*
X2984522Y7307579D01*
X4038622Y5847079D02*
G01*
X4140222Y5847079D01*
X3086122Y5847079D02*
G01*
X3187722Y5847079D01*
X4038622Y4869179D02*
G01*
X4140222Y4869179D01*
X3086122Y4869179D02*
G01*
X3187722Y4869179D01*
X2120900Y4373879D02*
G01*
X2286000Y4373879D01*
X1104900Y4373879D02*
G01*
X1270000Y4373879D01*
X2120900Y5351779D02*
G01*
X2286000Y5351779D01*
X1104900Y5351779D02*
G01*
X1270000Y5351779D01*
X2120900Y6329679D02*
G01*
X2286000Y6329679D01*
X1104900Y6329679D02*
G01*
X1270000Y6329679D01*
X2120900Y8285479D02*
G01*
X2286000Y8285479D01*
X1270000Y8285479D02*
G01*
X1104900Y8285479D01*
X2120900Y9263379D02*
G01*
X2286000Y9263379D01*
X1270000Y9263379D02*
G01*
X1104900Y9263379D01*
X2120900Y10241279D02*
G01*
X2286000Y10241279D01*
X1270000Y10241279D02*
G01*
X1104900Y10241279D01*
X2120900Y9491979D02*
G01*
X2222500Y9491979D01*
X2120900Y9758679D02*
G01*
X2222500Y9758679D01*
X1168400Y9491979D02*
G01*
X1270000Y9491979D01*
X1168400Y9758679D02*
G01*
X1270000Y9758679D01*
X2120900Y8780779D02*
G01*
X2222500Y8780779D01*
X1168400Y8780779D02*
G01*
X1270000Y8780779D01*
X2120900Y7802879D02*
G01*
X2222500Y7802879D01*
X1168400Y7802879D02*
G01*
X1270000Y7802879D01*
X2120900Y7307579D02*
G01*
X2324100Y7307579D01*
X2120900Y6824979D02*
G01*
X2222500Y6824979D01*
X1168400Y6824979D02*
G01*
X1270000Y6824979D01*
X1270000Y7307579D02*
G01*
X1066800Y7307579D01*
X2120900Y5847079D02*
G01*
X2222500Y5847079D01*
X1168400Y5847079D02*
G01*
X1270000Y5847079D01*
X2120900Y4869179D02*
G01*
X2222500Y4869179D01*
X1168400Y4869179D02*
G01*
X1270000Y4869179D01*
D10*
X0Y11823700D02*
G01*
X9131300Y11823700D01*
X0Y12179300D02*
G01*
X9131300Y12179300D01*
M02*
