M48
METRIC,LZ,000.000
;FILE_FORMAT=3:3
;TYPE=PLATED
;Layer: PTH_Through
;EasyEDA v6.5.29, 2023-07-16 15:11:24
;69541b314f914e7eb76376b61f0081d1,5a6b42c53f6a479593ecc07194224c93,10
;Gerber Generator version 0.2
;Holesize 1 = 0.305 mm
T01C0.305
;Holesize 2 = 0.901 mm
T02C0.901
;Holesize 3 = 0.915 mm
T03C0.915
;Holesize 4 = 1.100 mm
T04C1.100
;Holesize 5 = 1.301 mm
T05C1.301
%
G05
G90
T01
X018669Y059690
X003556Y054610
X008382Y026797
X008382Y015494
X005080Y051943
X009144Y024638
X009144Y013335
X019939Y049530
X021209Y024602
X021209Y013299
X003429Y113538
X015859Y113538
X003429Y057150
X025400Y064770
X025400Y105537
X009779Y064770
X012319Y074803
X011049Y073660
X013589Y073660
X016129Y074803
X010414Y062230
X011049Y064770
X013589Y079756
X021209Y079756
X019939Y080518
X012319Y080518
X013859Y110109
X005080Y080518
X009779Y080518
X009144Y079756
X011049Y079756
X009779Y073660
X015494Y073660
T02
X011859Y111887
X013859Y111887
X015859Y111887
X017859Y111887
T03
X011049Y108192
X013589Y108192
X016129Y108192
X018669Y108192
X016129Y038192
X011049Y038192
T04
X018285Y022352G85X018291Y022352
X011786Y022352G85X011791Y022352
X018288Y026853G85X018288Y026853
X011786Y026853G85X011791Y026853
X015037Y028202G85X015039Y028202
X018636Y024602G85X018641Y024602
X015239Y021082G85X015241Y021082
X011429Y024638G85X011431Y024638
X018285Y011049G85X018291Y011049
X011786Y011049G85X011791Y011049
X018288Y015550G85X018288Y015550
X011786Y015550G85X011791Y015550
X015037Y016899G85X015039Y016899
X018636Y013299G85X018641Y013299
X015239Y009779G85X015241Y009779
X011429Y013335G85X011431Y013335
T05
X007239Y067310
X007239Y064770
X007239Y062230
X007239Y059690
X007239Y057150
X007239Y054610
X007239Y052070
X007239Y049530
M30
