M48
METRIC,LZ,000.000
;FILE_FORMAT=3:3
;TYPE=PLATED
;Layer: PTH_Through_Via
;EasyEDA v6.5.29, 2023-07-16 15:11:24
;69541b314f914e7eb76376b61f0081d1,5a6b42c53f6a479593ecc07194224c93,10
;Gerber Generator version 0.2
;Holesize 1 = 0.305 mm
T01C0.305
%
G05
G90
T01
X018669Y059690
X003556Y054610
X008382Y026797
X008382Y015494
X005080Y051943
X009144Y024638
X009144Y013335
X019939Y049530
X021209Y024602
X021209Y013299
X003429Y113538
X015859Y113538
X003429Y057150
X025400Y064770
X025400Y105537
X009779Y064770
X012319Y074803
X011049Y073660
X013589Y073660
X016129Y074803
X010414Y062230
X011049Y064770
X013589Y079756
X021209Y079756
X019939Y080518
X012319Y080518
X013859Y110109
X005080Y080518
X009779Y080518
X009144Y079756
X011049Y079756
X009779Y073660
X015494Y073660
M30
