G04 Layer: TopLayer*
G04 EasyEDA v6.5.29, 2023-07-18 11:14:52*
G04 afe15dd53e0047d18e41e40897773fa5,5a6b42c53f6a479593ecc07194224c93,10*
G04 Gerber Generator version 0.2*
G04 Scale: 100 percent, Rotated: No, Reflected: No *
G04 Dimensions in millimeters *
G04 leading zeros omitted , absolute positions ,4 integer and 5 decimal *
%FSLAX45Y45*%
%MOMM*%

%AMMACRO1*21,1,$1,$2,0,0,$3*%
%ADD10C,0.2540*%
%ADD11C,0.5000*%
%ADD12MACRO1,0.54X0.7901X0.0000*%
%ADD13R,0.5400X0.7901*%
%ADD14R,0.5500X0.5500*%
%ADD15C,1.4000*%
%ADD16MACRO1,1.524X1.4X0.0000*%
%ADD17C,0.6096*%
%ADD18C,0.0159*%

%LPD*%
G36*
X251967Y851408D02*
G01*
X248056Y852169D01*
X244805Y854405D01*
X242570Y857656D01*
X241808Y861568D01*
X241808Y11393932D01*
X242570Y11397843D01*
X244805Y11401094D01*
X248056Y11403330D01*
X251967Y11404092D01*
X1331468Y11404092D01*
X1335786Y11403126D01*
X1339240Y11400485D01*
X1341272Y11396573D01*
X1341475Y11392154D01*
X1339799Y11388090D01*
X1335481Y11381994D01*
X1331366Y11373053D01*
X1328826Y11363604D01*
X1327962Y11353800D01*
X1328826Y11343995D01*
X1331366Y11334546D01*
X1335481Y11325606D01*
X1341120Y11317579D01*
X1348079Y11310620D01*
X1356106Y11304981D01*
X1365148Y11300764D01*
X1368450Y11298326D01*
X1370482Y11294821D01*
X1370990Y11290757D01*
X1369822Y11286845D01*
X1367231Y11283696D01*
X1363624Y11281816D01*
X1353769Y11279022D01*
X1341780Y11273840D01*
X1330604Y11267033D01*
X1320444Y11258753D01*
X1311503Y11249202D01*
X1306474Y11242040D01*
X1303324Y11239195D01*
X1299311Y11237823D01*
X1295095Y11238230D01*
X1291386Y11240312D01*
X1288897Y11243767D01*
X1288034Y11247932D01*
X1288034Y11258143D01*
X1287272Y11264442D01*
X1285392Y11269929D01*
X1282293Y11274806D01*
X1278229Y11278920D01*
X1273302Y11281968D01*
X1267866Y11283899D01*
X1261516Y11284610D01*
X1198626Y11284610D01*
X1198626Y11201400D01*
X1280007Y11201400D01*
X1283919Y11200638D01*
X1287170Y11198402D01*
X1289405Y11195151D01*
X1290167Y11191240D01*
X1290167Y11186160D01*
X1289405Y11182248D01*
X1287170Y11178997D01*
X1283919Y11176762D01*
X1280007Y11176000D01*
X1198626Y11176000D01*
X1198626Y11092789D01*
X1261516Y11092789D01*
X1267866Y11093500D01*
X1273302Y11095431D01*
X1278229Y11098479D01*
X1282293Y11102594D01*
X1285392Y11107470D01*
X1287272Y11112957D01*
X1288034Y11119256D01*
X1288034Y11129467D01*
X1288897Y11133632D01*
X1291386Y11137087D01*
X1295095Y11139170D01*
X1299311Y11139576D01*
X1303324Y11138204D01*
X1306474Y11135360D01*
X1311503Y11128197D01*
X1320444Y11118646D01*
X1330604Y11110366D01*
X1341780Y11103559D01*
X1353769Y11098326D01*
X1366367Y11094821D01*
X1379372Y11093043D01*
X1392428Y11093043D01*
X1405432Y11094821D01*
X1418031Y11098326D01*
X1430020Y11103559D01*
X1441196Y11110366D01*
X1451356Y11118646D01*
X1460296Y11128197D01*
X1467815Y11138865D01*
X1473860Y11150498D01*
X1476349Y11157458D01*
X1478483Y11161014D01*
X1481836Y11163401D01*
X1485900Y11164214D01*
X1489964Y11163401D01*
X1493316Y11161014D01*
X1495450Y11157458D01*
X1497939Y11150498D01*
X1503984Y11138865D01*
X1511503Y11128197D01*
X1520444Y11118646D01*
X1530604Y11110366D01*
X1541780Y11103559D01*
X1553768Y11098326D01*
X1566367Y11094821D01*
X1579372Y11093043D01*
X1592427Y11093043D01*
X1605432Y11094821D01*
X1618030Y11098326D01*
X1630019Y11103559D01*
X1641195Y11110366D01*
X1651355Y11118646D01*
X1660296Y11128197D01*
X1667814Y11138865D01*
X1673860Y11150498D01*
X1676349Y11157458D01*
X1678482Y11161014D01*
X1681835Y11163401D01*
X1685899Y11164214D01*
X1689963Y11163401D01*
X1693316Y11161014D01*
X1695450Y11157458D01*
X1697939Y11150498D01*
X1703984Y11138865D01*
X1711502Y11128197D01*
X1720443Y11118646D01*
X1730603Y11110366D01*
X1741779Y11103559D01*
X1753768Y11098326D01*
X1766366Y11094821D01*
X1773174Y11093907D01*
X1773174Y11176000D01*
X1691792Y11176000D01*
X1687880Y11176762D01*
X1684629Y11178997D01*
X1682394Y11182248D01*
X1681632Y11186160D01*
X1681632Y11191240D01*
X1682394Y11195151D01*
X1684629Y11198402D01*
X1687880Y11200638D01*
X1691792Y11201400D01*
X1773174Y11201400D01*
X1773174Y11283492D01*
X1766366Y11282578D01*
X1753768Y11279022D01*
X1741779Y11273840D01*
X1730603Y11267033D01*
X1720443Y11258753D01*
X1711502Y11249202D01*
X1703984Y11238534D01*
X1697939Y11226901D01*
X1695450Y11219942D01*
X1693316Y11216386D01*
X1689963Y11213998D01*
X1685899Y11213185D01*
X1681835Y11213998D01*
X1678482Y11216386D01*
X1676349Y11219942D01*
X1673860Y11226901D01*
X1667814Y11238534D01*
X1660296Y11249202D01*
X1651355Y11258753D01*
X1641195Y11267033D01*
X1630019Y11273840D01*
X1618030Y11279022D01*
X1605432Y11282578D01*
X1592427Y11284356D01*
X1579372Y11284356D01*
X1566367Y11282578D01*
X1553768Y11279022D01*
X1541780Y11273840D01*
X1530604Y11267033D01*
X1520444Y11258753D01*
X1511503Y11249202D01*
X1503984Y11238534D01*
X1497939Y11226901D01*
X1495450Y11219942D01*
X1493316Y11216386D01*
X1489964Y11213998D01*
X1485900Y11213185D01*
X1481836Y11213998D01*
X1478483Y11216386D01*
X1476349Y11219942D01*
X1473860Y11226901D01*
X1467815Y11238534D01*
X1460296Y11249202D01*
X1451356Y11258753D01*
X1441196Y11267033D01*
X1430020Y11273840D01*
X1418031Y11279022D01*
X1406194Y11282375D01*
X1402537Y11284254D01*
X1399946Y11287404D01*
X1398828Y11291316D01*
X1399286Y11295380D01*
X1401368Y11298885D01*
X1404620Y11301323D01*
X1412494Y11304981D01*
X1420520Y11310620D01*
X1422095Y11312194D01*
X1425397Y11314430D01*
X1429308Y11315192D01*
X1986991Y11315192D01*
X1990902Y11314430D01*
X1994204Y11312194D01*
X1995779Y11310620D01*
X2003806Y11304981D01*
X2012746Y11300866D01*
X2022195Y11298326D01*
X2032000Y11297462D01*
X2041804Y11298326D01*
X2051253Y11300866D01*
X2060193Y11304981D01*
X2068220Y11310620D01*
X2075180Y11317579D01*
X2080818Y11325606D01*
X2084933Y11334546D01*
X2087473Y11343995D01*
X2088337Y11353800D01*
X2087473Y11363604D01*
X2084933Y11373053D01*
X2080818Y11381994D01*
X2076500Y11388090D01*
X2074824Y11392154D01*
X2075027Y11396573D01*
X2077059Y11400485D01*
X2080514Y11403126D01*
X2084832Y11404092D01*
X2757932Y11404092D01*
X2761843Y11403330D01*
X2765094Y11401094D01*
X2767330Y11397843D01*
X2768092Y11393932D01*
X2768092Y861568D01*
X2767330Y857656D01*
X2765094Y854405D01*
X2761843Y852169D01*
X2757932Y851408D01*
X2042668Y851408D01*
X2038756Y852169D01*
X2035505Y854405D01*
X2033270Y857656D01*
X2032507Y861568D01*
X2032507Y1832254D01*
X2031796Y1838553D01*
X2029866Y1843989D01*
X2026818Y1848916D01*
X2022703Y1852980D01*
X2017826Y1856079D01*
X2012340Y1858010D01*
X2006041Y1858721D01*
X987145Y1858721D01*
X980846Y1858010D01*
X975410Y1856079D01*
X970483Y1852980D01*
X966419Y1848916D01*
X963320Y1843989D01*
X961390Y1838553D01*
X960678Y1832254D01*
X960678Y861568D01*
X959916Y857656D01*
X957732Y854405D01*
X954430Y852169D01*
X950518Y851408D01*
G37*

%LPC*%
G36*
X1083818Y11201400D02*
G01*
X1173226Y11201400D01*
X1173226Y11284610D01*
X1110284Y11284610D01*
X1103934Y11283899D01*
X1098499Y11281968D01*
X1093571Y11278920D01*
X1089507Y11274806D01*
X1086408Y11269929D01*
X1084529Y11264442D01*
X1083818Y11258143D01*
G37*
G36*
X584200Y1766417D02*
G01*
X599389Y1767332D01*
X614324Y1770075D01*
X628853Y1774596D01*
X642721Y1780844D01*
X655726Y1788718D01*
X667664Y1798066D01*
X678434Y1808835D01*
X687781Y1820773D01*
X695655Y1833778D01*
X701903Y1847646D01*
X706424Y1862175D01*
X709168Y1877110D01*
X710082Y1892300D01*
X709168Y1907489D01*
X706424Y1922424D01*
X701903Y1936953D01*
X695655Y1950821D01*
X687781Y1963826D01*
X678434Y1975764D01*
X667664Y1986534D01*
X655726Y1995881D01*
X642721Y2003755D01*
X628853Y2010003D01*
X614324Y2014524D01*
X599389Y2017268D01*
X584200Y2018182D01*
X569010Y2017268D01*
X554075Y2014524D01*
X539546Y2010003D01*
X525678Y2003755D01*
X512673Y1995881D01*
X500735Y1986534D01*
X489966Y1975764D01*
X480618Y1963826D01*
X472744Y1950821D01*
X466496Y1936953D01*
X461975Y1922424D01*
X459232Y1907489D01*
X458317Y1892300D01*
X459232Y1877110D01*
X461975Y1862175D01*
X466496Y1847646D01*
X472744Y1833778D01*
X480618Y1820773D01*
X489966Y1808835D01*
X500735Y1798066D01*
X512673Y1788718D01*
X525678Y1780844D01*
X539546Y1774596D01*
X554075Y1770075D01*
X569010Y1767332D01*
G37*
G36*
X987145Y1917192D02*
G01*
X2006041Y1917192D01*
X2012340Y1917903D01*
X2017826Y1919833D01*
X2022703Y1922881D01*
X2026818Y1926996D01*
X2029866Y1931873D01*
X2031796Y1937359D01*
X2032507Y1943658D01*
X2032507Y2962554D01*
X2031796Y2968853D01*
X2029866Y2974289D01*
X2026818Y2979216D01*
X2022703Y2983280D01*
X2017826Y2986379D01*
X2012340Y2988310D01*
X2006041Y2989021D01*
X987145Y2989021D01*
X980846Y2988310D01*
X975410Y2986379D01*
X970483Y2983280D01*
X966419Y2979216D01*
X963320Y2974289D01*
X961390Y2968853D01*
X960678Y2962554D01*
X960678Y1943658D01*
X961390Y1937359D01*
X963320Y1931873D01*
X966419Y1926996D01*
X970483Y1922881D01*
X975410Y1919833D01*
X980846Y1917903D01*
G37*
G36*
X1016000Y3753662D02*
G01*
X1025804Y3754526D01*
X1035253Y3757066D01*
X1044194Y3761181D01*
X1052220Y3766820D01*
X1053795Y3768394D01*
X1057097Y3770629D01*
X1061008Y3771392D01*
X1307592Y3771392D01*
X1315618Y3772204D01*
X1322832Y3774389D01*
X1329537Y3777945D01*
X1335735Y3783076D01*
X1357122Y3804462D01*
X1362252Y3810660D01*
X1365808Y3817365D01*
X1367993Y3824579D01*
X1368806Y3832606D01*
X1368806Y3926941D01*
X1369669Y3931107D01*
X1372209Y3934510D01*
X1375867Y3936593D01*
X1380083Y3937050D01*
X1384858Y3936492D01*
X1586941Y3936492D01*
X1593240Y3937203D01*
X1598726Y3939133D01*
X1603603Y3942181D01*
X1607718Y3946296D01*
X1610766Y3951173D01*
X1612595Y3956304D01*
X1614728Y3959860D01*
X1618081Y3962298D01*
X1622145Y3963111D01*
X1628901Y3963111D01*
X1628901Y4003852D01*
X1623568Y4003852D01*
X1619656Y4004614D01*
X1616405Y4006799D01*
X1614170Y4010101D01*
X1613408Y4014012D01*
X1613408Y4019092D01*
X1614170Y4022953D01*
X1616405Y4026255D01*
X1619656Y4028440D01*
X1623568Y4029252D01*
X1628901Y4029252D01*
X1628901Y4047947D01*
X1629664Y4051858D01*
X1631848Y4055160D01*
X1635150Y4057345D01*
X1639062Y4058107D01*
X1644142Y4058107D01*
X1648002Y4057345D01*
X1651304Y4055160D01*
X1653539Y4051858D01*
X1654302Y4047947D01*
X1654302Y4029252D01*
X1672996Y4029252D01*
X1676907Y4028440D01*
X1680210Y4026255D01*
X1682394Y4022953D01*
X1683156Y4019092D01*
X1683156Y4014012D01*
X1682394Y4010101D01*
X1680210Y4006799D01*
X1676907Y4004614D01*
X1672996Y4003852D01*
X1654302Y4003852D01*
X1654302Y3963111D01*
X1668525Y3963111D01*
X1674825Y3963822D01*
X1680311Y3965752D01*
X1683664Y3967886D01*
X1687220Y3969258D01*
X1690979Y3969258D01*
X1694484Y3967886D01*
X1697888Y3965752D01*
X1703324Y3963822D01*
X1709674Y3963111D01*
X1763522Y3963111D01*
X1769821Y3963822D01*
X1775307Y3965752D01*
X1780184Y3968800D01*
X1786686Y3975658D01*
X1789684Y3977335D01*
X1793036Y3977894D01*
X1983689Y3977894D01*
X1987600Y3977132D01*
X1990902Y3974896D01*
X1995779Y3970020D01*
X2003806Y3964381D01*
X2012746Y3960266D01*
X2022195Y3957726D01*
X2032000Y3956862D01*
X2041804Y3957726D01*
X2051253Y3960266D01*
X2060193Y3964381D01*
X2068220Y3970020D01*
X2075180Y3976979D01*
X2080818Y3985006D01*
X2084933Y3993946D01*
X2087473Y4003395D01*
X2088337Y4013200D01*
X2087473Y4023004D01*
X2084933Y4032453D01*
X2080818Y4041394D01*
X2075180Y4049420D01*
X2068220Y4056379D01*
X2060193Y4062018D01*
X2051253Y4066133D01*
X2041804Y4068673D01*
X2032000Y4069537D01*
X2022195Y4068673D01*
X2012746Y4066133D01*
X2003806Y4062018D01*
X1996592Y4056938D01*
X1993849Y4055567D01*
X1990801Y4055110D01*
X1794611Y4055110D01*
X1790446Y4056024D01*
X1786991Y4058564D01*
X1784908Y4062323D01*
X1784553Y4066641D01*
X1786026Y4070654D01*
X1787347Y4072788D01*
X1789277Y4078274D01*
X1789988Y4084574D01*
X1789988Y4138472D01*
X1789277Y4144772D01*
X1787347Y4150258D01*
X1786788Y4153255D01*
X1787143Y4156252D01*
X1788363Y4159046D01*
X1790192Y4161993D01*
X1792173Y4167682D01*
X1794306Y4171238D01*
X1797710Y4173626D01*
X1801774Y4174490D01*
X1860092Y4174490D01*
X1864004Y4173728D01*
X1867306Y4171492D01*
X1868779Y4170019D01*
X1876806Y4164380D01*
X1885746Y4160215D01*
X1895195Y4157675D01*
X1905000Y4156862D01*
X1914804Y4157675D01*
X1924253Y4160215D01*
X1933193Y4164380D01*
X1941220Y4170019D01*
X1948180Y4176979D01*
X1953818Y4185005D01*
X1957933Y4193895D01*
X1960473Y4203395D01*
X1961337Y4213199D01*
X1960473Y4222953D01*
X1957933Y4232452D01*
X1953818Y4241342D01*
X1948180Y4249420D01*
X1941220Y4256328D01*
X1933193Y4261967D01*
X1924253Y4266133D01*
X1914804Y4268673D01*
X1905000Y4269536D01*
X1895195Y4268673D01*
X1885746Y4266133D01*
X1876806Y4261967D01*
X1868779Y4256328D01*
X1867103Y4254652D01*
X1863801Y4252468D01*
X1859889Y4251706D01*
X1801469Y4251706D01*
X1797405Y4252518D01*
X1794052Y4254957D01*
X1791919Y4258513D01*
X1790039Y4263847D01*
X1789480Y4267200D01*
X1790039Y4270552D01*
X1792071Y4276445D01*
X1792782Y4282795D01*
X1792782Y4309008D01*
X1752600Y4309008D01*
X1752600Y4288282D01*
X1751838Y4284370D01*
X1749602Y4281068D01*
X1746351Y4278884D01*
X1742439Y4278122D01*
X1737360Y4278122D01*
X1733448Y4278884D01*
X1730197Y4281068D01*
X1727962Y4284370D01*
X1727200Y4288282D01*
X1727200Y4309008D01*
X1695754Y4309008D01*
X1691843Y4309770D01*
X1688541Y4312005D01*
X1686356Y4315256D01*
X1685594Y4319168D01*
X1686356Y4323029D01*
X1688541Y4326331D01*
X1693621Y4331411D01*
X1696923Y4333646D01*
X1700834Y4334408D01*
X1727200Y4334408D01*
X1727200Y4360773D01*
X1727962Y4364685D01*
X1730197Y4367987D01*
X1735277Y4373067D01*
X1738528Y4375251D01*
X1742439Y4376013D01*
X1746351Y4375251D01*
X1749602Y4373067D01*
X1751838Y4369765D01*
X1752600Y4365853D01*
X1752600Y4334408D01*
X1792782Y4334408D01*
X1792782Y4360621D01*
X1792071Y4366971D01*
X1790192Y4372406D01*
X1787093Y4377334D01*
X1783029Y4381398D01*
X1778101Y4384497D01*
X1767586Y4387900D01*
X1764436Y4390898D01*
X1762810Y4394860D01*
X1762963Y4399229D01*
X1764944Y4403039D01*
X1768652Y4407560D01*
X1772208Y4414266D01*
X1774393Y4421479D01*
X1775206Y4429506D01*
X1775206Y4442663D01*
X1775764Y4446016D01*
X1777441Y4449013D01*
X1780184Y4451400D01*
X1784299Y4455515D01*
X1787347Y4460392D01*
X1789277Y4465878D01*
X1789988Y4472178D01*
X1789988Y4526076D01*
X1789277Y4532376D01*
X1787347Y4537862D01*
X1785264Y4541215D01*
X1783842Y4544720D01*
X1783842Y4548530D01*
X1785264Y4552035D01*
X1787347Y4555388D01*
X1789277Y4560874D01*
X1789988Y4567174D01*
X1789988Y4621072D01*
X1789277Y4627372D01*
X1787347Y4632858D01*
X1786788Y4635855D01*
X1787143Y4638852D01*
X1788363Y4641646D01*
X1790192Y4644593D01*
X1792173Y4650282D01*
X1794306Y4653838D01*
X1797710Y4656226D01*
X1801774Y4657090D01*
X1860092Y4657090D01*
X1864004Y4656328D01*
X1867306Y4654092D01*
X1868779Y4652619D01*
X1876806Y4646980D01*
X1885746Y4642815D01*
X1895195Y4640275D01*
X1905000Y4639462D01*
X1914804Y4640275D01*
X1924253Y4642815D01*
X1933193Y4646980D01*
X1941220Y4652619D01*
X1948180Y4659579D01*
X1953818Y4667605D01*
X1957933Y4676495D01*
X1960473Y4685995D01*
X1961337Y4695799D01*
X1960473Y4705553D01*
X1957933Y4715052D01*
X1953818Y4723942D01*
X1948180Y4732020D01*
X1941220Y4738928D01*
X1933193Y4744567D01*
X1924253Y4748733D01*
X1914804Y4751273D01*
X1905000Y4752136D01*
X1895195Y4751273D01*
X1885746Y4748733D01*
X1876806Y4744567D01*
X1868779Y4738928D01*
X1867103Y4737252D01*
X1863801Y4735068D01*
X1859889Y4734306D01*
X1801469Y4734306D01*
X1797405Y4735118D01*
X1794052Y4737557D01*
X1791919Y4741113D01*
X1790039Y4746447D01*
X1789480Y4749800D01*
X1790039Y4753152D01*
X1792071Y4759045D01*
X1792782Y4765395D01*
X1792782Y4791608D01*
X1752600Y4791608D01*
X1752600Y4770882D01*
X1751838Y4766970D01*
X1749602Y4763668D01*
X1746351Y4761484D01*
X1742439Y4760722D01*
X1737360Y4760722D01*
X1733448Y4761484D01*
X1730197Y4763668D01*
X1727962Y4766970D01*
X1727200Y4770882D01*
X1727200Y4791608D01*
X1695754Y4791608D01*
X1691843Y4792370D01*
X1688541Y4794605D01*
X1686356Y4797856D01*
X1685594Y4801768D01*
X1686356Y4805629D01*
X1688541Y4808931D01*
X1693621Y4814011D01*
X1696923Y4816246D01*
X1700834Y4817008D01*
X1727200Y4817008D01*
X1727200Y4843373D01*
X1727962Y4847285D01*
X1730197Y4850587D01*
X1735277Y4855667D01*
X1738528Y4857851D01*
X1742439Y4858613D01*
X1746351Y4857851D01*
X1749602Y4855667D01*
X1751838Y4852365D01*
X1752600Y4848453D01*
X1752600Y4817008D01*
X1792782Y4817008D01*
X1792782Y4843221D01*
X1792071Y4849571D01*
X1790192Y4855006D01*
X1787093Y4859934D01*
X1783029Y4863998D01*
X1778101Y4867097D01*
X1767586Y4870500D01*
X1764436Y4873498D01*
X1762810Y4877460D01*
X1762963Y4881829D01*
X1764944Y4885639D01*
X1768652Y4890160D01*
X1772208Y4896866D01*
X1774393Y4904079D01*
X1775206Y4912106D01*
X1775206Y4925263D01*
X1775764Y4928616D01*
X1777441Y4931613D01*
X1780184Y4934000D01*
X1784299Y4938115D01*
X1787347Y4942992D01*
X1789277Y4948478D01*
X1789988Y4954778D01*
X1789988Y5008676D01*
X1789277Y5014976D01*
X1787347Y5020462D01*
X1785264Y5023815D01*
X1783842Y5027320D01*
X1783842Y5031130D01*
X1785264Y5034635D01*
X1787347Y5037988D01*
X1789277Y5043474D01*
X1789988Y5049774D01*
X1789988Y5103672D01*
X1789277Y5109972D01*
X1787347Y5115458D01*
X1786788Y5118455D01*
X1787143Y5121452D01*
X1788363Y5124246D01*
X1790192Y5127193D01*
X1792122Y5132781D01*
X1794306Y5136337D01*
X1797659Y5138724D01*
X1801723Y5139588D01*
X1860092Y5139588D01*
X1864004Y5138826D01*
X1867306Y5136591D01*
X1868779Y5135118D01*
X1876806Y5129479D01*
X1885746Y5125313D01*
X1895195Y5122773D01*
X1905000Y5121960D01*
X1914804Y5122773D01*
X1924253Y5125313D01*
X1933193Y5129479D01*
X1941220Y5135118D01*
X1948180Y5142077D01*
X1953818Y5150104D01*
X1957933Y5158994D01*
X1960473Y5168493D01*
X1961337Y5178298D01*
X1960473Y5188051D01*
X1957933Y5197551D01*
X1953818Y5206441D01*
X1948180Y5214518D01*
X1941220Y5221478D01*
X1933193Y5227066D01*
X1924253Y5231231D01*
X1914804Y5233771D01*
X1905000Y5234635D01*
X1895195Y5233771D01*
X1885746Y5231231D01*
X1876806Y5227066D01*
X1868779Y5221478D01*
X1867103Y5219750D01*
X1863801Y5217566D01*
X1859889Y5216804D01*
X1801520Y5216804D01*
X1797456Y5217668D01*
X1794103Y5220055D01*
X1791919Y5223611D01*
X1790039Y5229047D01*
X1789480Y5232400D01*
X1790039Y5235752D01*
X1792071Y5241645D01*
X1792782Y5247995D01*
X1792782Y5274208D01*
X1752600Y5274208D01*
X1752600Y5253482D01*
X1751838Y5249570D01*
X1749602Y5246268D01*
X1746351Y5244084D01*
X1742439Y5243322D01*
X1737360Y5243322D01*
X1733448Y5244084D01*
X1730197Y5246268D01*
X1727962Y5249570D01*
X1727200Y5253482D01*
X1727200Y5274208D01*
X1695754Y5274208D01*
X1691843Y5274970D01*
X1688541Y5277205D01*
X1686356Y5280456D01*
X1685594Y5284368D01*
X1686356Y5288229D01*
X1688541Y5291531D01*
X1693621Y5296611D01*
X1696923Y5298846D01*
X1700834Y5299608D01*
X1727200Y5299608D01*
X1727200Y5325973D01*
X1727962Y5329885D01*
X1730197Y5333187D01*
X1735277Y5338267D01*
X1738528Y5340451D01*
X1742439Y5341213D01*
X1746351Y5340451D01*
X1749602Y5338267D01*
X1751838Y5334965D01*
X1752600Y5331053D01*
X1752600Y5299608D01*
X1792782Y5299608D01*
X1792782Y5325821D01*
X1792071Y5332171D01*
X1790192Y5337606D01*
X1787093Y5342534D01*
X1783029Y5346598D01*
X1778101Y5349697D01*
X1767586Y5353100D01*
X1764436Y5356098D01*
X1762810Y5360060D01*
X1762963Y5364429D01*
X1764944Y5368239D01*
X1768652Y5372760D01*
X1772208Y5379466D01*
X1774393Y5386679D01*
X1775206Y5394706D01*
X1775206Y5407863D01*
X1775764Y5411216D01*
X1777441Y5414213D01*
X1780184Y5416600D01*
X1784299Y5420715D01*
X1787347Y5425592D01*
X1789277Y5431078D01*
X1789988Y5437378D01*
X1789988Y5491276D01*
X1789277Y5497576D01*
X1787347Y5503062D01*
X1785264Y5506415D01*
X1783842Y5509920D01*
X1783842Y5513730D01*
X1785264Y5517235D01*
X1787347Y5520588D01*
X1789277Y5526074D01*
X1789988Y5532374D01*
X1789988Y5586272D01*
X1789277Y5592572D01*
X1787347Y5598058D01*
X1786788Y5601055D01*
X1787143Y5604052D01*
X1788363Y5606846D01*
X1790192Y5609793D01*
X1792122Y5615381D01*
X1794306Y5618937D01*
X1797659Y5621324D01*
X1801723Y5622188D01*
X1860092Y5622188D01*
X1864004Y5621426D01*
X1867306Y5619191D01*
X1868779Y5617718D01*
X1876806Y5612079D01*
X1885746Y5607913D01*
X1895195Y5605373D01*
X1905000Y5604560D01*
X1914804Y5605373D01*
X1924253Y5607913D01*
X1933193Y5612079D01*
X1941220Y5617718D01*
X1948180Y5624677D01*
X1953818Y5632704D01*
X1957933Y5641594D01*
X1960473Y5651093D01*
X1961337Y5660898D01*
X1960473Y5670651D01*
X1957933Y5680151D01*
X1953818Y5689041D01*
X1948180Y5697118D01*
X1941220Y5704078D01*
X1933193Y5709666D01*
X1924253Y5713831D01*
X1914804Y5716371D01*
X1905000Y5717235D01*
X1895195Y5716371D01*
X1885746Y5713831D01*
X1876806Y5709666D01*
X1868779Y5704078D01*
X1867103Y5702350D01*
X1863801Y5700166D01*
X1859889Y5699404D01*
X1801520Y5699404D01*
X1797456Y5700268D01*
X1794103Y5702655D01*
X1791919Y5706211D01*
X1790039Y5711647D01*
X1789480Y5715000D01*
X1790039Y5718352D01*
X1792071Y5724245D01*
X1792782Y5730595D01*
X1792782Y5756808D01*
X1752600Y5756808D01*
X1752600Y5736082D01*
X1751838Y5732170D01*
X1749602Y5728868D01*
X1746351Y5726684D01*
X1742439Y5725922D01*
X1737360Y5725922D01*
X1733448Y5726684D01*
X1730197Y5728868D01*
X1727962Y5732170D01*
X1727200Y5736082D01*
X1727200Y5756808D01*
X1695754Y5756808D01*
X1691843Y5757570D01*
X1688541Y5759805D01*
X1686356Y5763056D01*
X1685594Y5766968D01*
X1686356Y5770829D01*
X1688541Y5774131D01*
X1693621Y5779211D01*
X1696923Y5781446D01*
X1700834Y5782208D01*
X1727200Y5782208D01*
X1727200Y5808573D01*
X1727962Y5812485D01*
X1730197Y5815787D01*
X1735277Y5820867D01*
X1738528Y5823051D01*
X1742439Y5823813D01*
X1746351Y5823051D01*
X1749602Y5820867D01*
X1751838Y5817565D01*
X1752600Y5813653D01*
X1752600Y5782208D01*
X1792782Y5782208D01*
X1792782Y5808421D01*
X1792071Y5814771D01*
X1790192Y5820206D01*
X1787093Y5825134D01*
X1783029Y5829198D01*
X1778101Y5832297D01*
X1767586Y5835700D01*
X1764436Y5838698D01*
X1762810Y5842660D01*
X1762963Y5847029D01*
X1764944Y5850839D01*
X1768652Y5855360D01*
X1772208Y5862066D01*
X1774393Y5869279D01*
X1775206Y5877306D01*
X1775206Y5890463D01*
X1775764Y5893816D01*
X1777441Y5896813D01*
X1780184Y5899200D01*
X1784299Y5903315D01*
X1787347Y5908192D01*
X1789277Y5913678D01*
X1789988Y5919978D01*
X1789988Y5973876D01*
X1789277Y5980176D01*
X1787347Y5985662D01*
X1785264Y5989015D01*
X1783842Y5992520D01*
X1783842Y5996330D01*
X1785264Y5999835D01*
X1787347Y6003188D01*
X1789277Y6008674D01*
X1789988Y6014974D01*
X1789988Y6068872D01*
X1789277Y6075172D01*
X1787347Y6080658D01*
X1786788Y6083655D01*
X1787143Y6086652D01*
X1788363Y6089446D01*
X1790192Y6092393D01*
X1792122Y6097879D01*
X1794256Y6101435D01*
X1797659Y6103823D01*
X1801723Y6104686D01*
X1860092Y6104686D01*
X1864004Y6103924D01*
X1867306Y6101689D01*
X1868779Y6100216D01*
X1876806Y6094577D01*
X1885746Y6090462D01*
X1895195Y6087872D01*
X1905000Y6087059D01*
X1914804Y6087872D01*
X1924253Y6090462D01*
X1933193Y6094577D01*
X1941220Y6100216D01*
X1948180Y6107176D01*
X1953818Y6115202D01*
X1957933Y6124092D01*
X1960473Y6133592D01*
X1961337Y6143396D01*
X1960473Y6153150D01*
X1957933Y6162649D01*
X1953818Y6171539D01*
X1948180Y6179616D01*
X1941220Y6186576D01*
X1933193Y6192164D01*
X1924253Y6196330D01*
X1914804Y6198870D01*
X1905000Y6199733D01*
X1895195Y6198870D01*
X1885746Y6196330D01*
X1876806Y6192164D01*
X1868779Y6186576D01*
X1867103Y6184849D01*
X1863801Y6182664D01*
X1859889Y6181902D01*
X1801571Y6181902D01*
X1797507Y6182766D01*
X1794103Y6185154D01*
X1791970Y6188710D01*
X1790039Y6194247D01*
X1789480Y6197600D01*
X1790039Y6200952D01*
X1792071Y6206845D01*
X1792782Y6213195D01*
X1792782Y6239408D01*
X1752600Y6239408D01*
X1752600Y6218682D01*
X1751838Y6214770D01*
X1749602Y6211468D01*
X1746351Y6209284D01*
X1742439Y6208522D01*
X1737360Y6208522D01*
X1733448Y6209284D01*
X1730197Y6211468D01*
X1727962Y6214770D01*
X1727200Y6218682D01*
X1727200Y6239408D01*
X1695754Y6239408D01*
X1691843Y6240170D01*
X1688541Y6242405D01*
X1686356Y6245656D01*
X1685594Y6249568D01*
X1686356Y6253429D01*
X1688541Y6256731D01*
X1693621Y6261811D01*
X1696923Y6264046D01*
X1700834Y6264808D01*
X1727200Y6264808D01*
X1727200Y6291173D01*
X1727962Y6295085D01*
X1730197Y6298387D01*
X1735277Y6303467D01*
X1738528Y6305651D01*
X1742439Y6306413D01*
X1746351Y6305651D01*
X1749602Y6303467D01*
X1751838Y6300165D01*
X1752600Y6296253D01*
X1752600Y6264808D01*
X1792782Y6264808D01*
X1792782Y6291021D01*
X1792071Y6297371D01*
X1790192Y6302806D01*
X1787093Y6307734D01*
X1783029Y6311798D01*
X1778101Y6314897D01*
X1767586Y6318300D01*
X1764436Y6321298D01*
X1762810Y6325260D01*
X1762963Y6329629D01*
X1764944Y6333439D01*
X1768652Y6337960D01*
X1772208Y6344666D01*
X1774393Y6351879D01*
X1775206Y6359906D01*
X1775206Y6373063D01*
X1775764Y6376416D01*
X1777441Y6379413D01*
X1780184Y6381800D01*
X1784299Y6385915D01*
X1787347Y6390792D01*
X1789277Y6396278D01*
X1789988Y6402578D01*
X1789988Y6456476D01*
X1789277Y6462776D01*
X1787347Y6468262D01*
X1785264Y6471615D01*
X1783842Y6475120D01*
X1783842Y6478930D01*
X1785264Y6482435D01*
X1787347Y6485788D01*
X1789277Y6491274D01*
X1789988Y6497574D01*
X1789988Y6551472D01*
X1789277Y6557772D01*
X1787347Y6563258D01*
X1786788Y6566255D01*
X1787143Y6569252D01*
X1788363Y6572046D01*
X1790192Y6574993D01*
X1792122Y6580479D01*
X1794256Y6584035D01*
X1797659Y6586423D01*
X1801723Y6587286D01*
X1860092Y6587286D01*
X1864004Y6586524D01*
X1867306Y6584289D01*
X1868779Y6582816D01*
X1876806Y6577177D01*
X1885746Y6573062D01*
X1895195Y6570472D01*
X1905000Y6569659D01*
X1914804Y6570472D01*
X1924253Y6573062D01*
X1933193Y6577177D01*
X1941220Y6582816D01*
X1948180Y6589775D01*
X1953818Y6597802D01*
X1957933Y6606692D01*
X1960473Y6616192D01*
X1961337Y6625996D01*
X1960473Y6635750D01*
X1957933Y6645249D01*
X1953818Y6654139D01*
X1948180Y6662216D01*
X1941220Y6669176D01*
X1933193Y6674764D01*
X1924253Y6678930D01*
X1914804Y6681470D01*
X1905000Y6682333D01*
X1895195Y6681470D01*
X1885746Y6678930D01*
X1876806Y6674764D01*
X1868779Y6669176D01*
X1867103Y6667449D01*
X1863801Y6665264D01*
X1859889Y6664502D01*
X1801571Y6664502D01*
X1797507Y6665366D01*
X1794103Y6667753D01*
X1791970Y6671309D01*
X1790039Y6676847D01*
X1789480Y6680200D01*
X1790039Y6683552D01*
X1792071Y6689445D01*
X1792782Y6695795D01*
X1792782Y6722008D01*
X1752600Y6722008D01*
X1752600Y6701281D01*
X1751838Y6697370D01*
X1749602Y6694068D01*
X1746351Y6691884D01*
X1742439Y6691122D01*
X1737360Y6691122D01*
X1733448Y6691884D01*
X1730197Y6694068D01*
X1727962Y6697370D01*
X1727200Y6701281D01*
X1727200Y6722008D01*
X1695754Y6722008D01*
X1691843Y6722770D01*
X1688541Y6725005D01*
X1686356Y6728256D01*
X1685594Y6732168D01*
X1686356Y6736029D01*
X1688541Y6739331D01*
X1693621Y6744411D01*
X1696923Y6746646D01*
X1700834Y6747408D01*
X1727200Y6747408D01*
X1727200Y6773773D01*
X1727962Y6777685D01*
X1730197Y6780987D01*
X1735277Y6786067D01*
X1738528Y6788251D01*
X1742439Y6789013D01*
X1746351Y6788251D01*
X1749602Y6786067D01*
X1751838Y6782765D01*
X1752600Y6778853D01*
X1752600Y6747408D01*
X1792782Y6747408D01*
X1792782Y6773621D01*
X1792071Y6779971D01*
X1790192Y6785406D01*
X1787093Y6790334D01*
X1783029Y6794398D01*
X1778101Y6797497D01*
X1767586Y6800900D01*
X1764436Y6803898D01*
X1762810Y6807860D01*
X1762963Y6812229D01*
X1764944Y6816039D01*
X1768652Y6820560D01*
X1772208Y6827266D01*
X1774393Y6834479D01*
X1775206Y6842506D01*
X1775206Y6855663D01*
X1775764Y6859016D01*
X1777441Y6862013D01*
X1780184Y6864400D01*
X1784299Y6868515D01*
X1787347Y6873392D01*
X1789277Y6878878D01*
X1789988Y6885178D01*
X1789988Y6939076D01*
X1789277Y6945375D01*
X1787347Y6950862D01*
X1785264Y6954215D01*
X1783842Y6957720D01*
X1783842Y6961530D01*
X1785264Y6965035D01*
X1787347Y6968388D01*
X1789277Y6973874D01*
X1789988Y6980174D01*
X1789988Y7034072D01*
X1789277Y7040372D01*
X1787347Y7045858D01*
X1786788Y7048855D01*
X1787143Y7051852D01*
X1788363Y7054646D01*
X1790192Y7057593D01*
X1792071Y7062978D01*
X1794205Y7066534D01*
X1797608Y7068921D01*
X1801672Y7069785D01*
X1860092Y7069785D01*
X1864004Y7069023D01*
X1867306Y7066788D01*
X1868779Y7065314D01*
X1876806Y7059675D01*
X1885746Y7055561D01*
X1895195Y7053021D01*
X1905000Y7052157D01*
X1914804Y7053021D01*
X1924253Y7055561D01*
X1933193Y7059675D01*
X1941220Y7065314D01*
X1948180Y7072274D01*
X1953818Y7080300D01*
X1957933Y7089241D01*
X1960473Y7098690D01*
X1961337Y7108494D01*
X1960473Y7118299D01*
X1957933Y7127748D01*
X1953818Y7136688D01*
X1948180Y7144715D01*
X1941220Y7151674D01*
X1933193Y7157313D01*
X1924253Y7161428D01*
X1914804Y7163968D01*
X1905000Y7164831D01*
X1895195Y7163968D01*
X1885746Y7161428D01*
X1876806Y7157313D01*
X1868779Y7151674D01*
X1867103Y7149998D01*
X1863801Y7147763D01*
X1859889Y7147001D01*
X1801622Y7147001D01*
X1797557Y7147864D01*
X1794154Y7150252D01*
X1792020Y7153808D01*
X1790039Y7159447D01*
X1789480Y7162800D01*
X1790039Y7166152D01*
X1792071Y7172045D01*
X1792782Y7178395D01*
X1792782Y7204608D01*
X1752600Y7204608D01*
X1752600Y7183881D01*
X1751838Y7179970D01*
X1749602Y7176668D01*
X1746351Y7174484D01*
X1742439Y7173722D01*
X1737360Y7173722D01*
X1733448Y7174484D01*
X1730197Y7176668D01*
X1727962Y7179970D01*
X1727200Y7183881D01*
X1727200Y7204608D01*
X1695754Y7204608D01*
X1691843Y7205370D01*
X1688541Y7207605D01*
X1686356Y7210856D01*
X1685594Y7214768D01*
X1686356Y7218629D01*
X1688541Y7221931D01*
X1693621Y7227011D01*
X1696923Y7229246D01*
X1700834Y7230008D01*
X1727200Y7230008D01*
X1727200Y7256373D01*
X1727962Y7260285D01*
X1730197Y7263587D01*
X1735277Y7268667D01*
X1738528Y7270851D01*
X1742439Y7271613D01*
X1746351Y7270851D01*
X1749602Y7268667D01*
X1751838Y7265365D01*
X1752600Y7261453D01*
X1752600Y7230008D01*
X1792782Y7230008D01*
X1792782Y7256221D01*
X1792071Y7262571D01*
X1790192Y7268006D01*
X1787093Y7272934D01*
X1783029Y7276998D01*
X1778101Y7280097D01*
X1767586Y7283500D01*
X1764436Y7286498D01*
X1762810Y7290460D01*
X1762963Y7294829D01*
X1764944Y7298639D01*
X1768652Y7303160D01*
X1772208Y7309866D01*
X1774393Y7317079D01*
X1775206Y7325106D01*
X1775206Y7338263D01*
X1775764Y7341616D01*
X1777441Y7344613D01*
X1780184Y7347000D01*
X1784299Y7351115D01*
X1787347Y7355992D01*
X1789277Y7361478D01*
X1789988Y7367778D01*
X1789988Y7421676D01*
X1789277Y7427975D01*
X1787347Y7433462D01*
X1785264Y7436815D01*
X1783842Y7440320D01*
X1783842Y7444130D01*
X1785264Y7447635D01*
X1787347Y7450988D01*
X1789277Y7456474D01*
X1789988Y7462774D01*
X1789988Y7516672D01*
X1789277Y7522972D01*
X1787347Y7528458D01*
X1786788Y7531455D01*
X1787143Y7534452D01*
X1788363Y7537246D01*
X1790192Y7540193D01*
X1792071Y7545578D01*
X1794205Y7549134D01*
X1797608Y7551521D01*
X1801672Y7552385D01*
X1860092Y7552385D01*
X1864004Y7551623D01*
X1867306Y7549388D01*
X1868779Y7547914D01*
X1876806Y7542275D01*
X1885746Y7538161D01*
X1895195Y7535621D01*
X1905000Y7534757D01*
X1914804Y7535621D01*
X1924253Y7538161D01*
X1933193Y7542275D01*
X1941220Y7547914D01*
X1948180Y7554874D01*
X1953818Y7562900D01*
X1957933Y7571841D01*
X1960473Y7581290D01*
X1961337Y7591094D01*
X1960473Y7600899D01*
X1957933Y7610348D01*
X1953818Y7619288D01*
X1948180Y7627315D01*
X1941220Y7634274D01*
X1933193Y7639913D01*
X1924253Y7644028D01*
X1914804Y7646568D01*
X1905000Y7647431D01*
X1895195Y7646568D01*
X1885746Y7644028D01*
X1876806Y7639913D01*
X1868779Y7634274D01*
X1867103Y7632598D01*
X1863801Y7630363D01*
X1859889Y7629601D01*
X1801622Y7629601D01*
X1797557Y7630464D01*
X1794154Y7632852D01*
X1792020Y7636408D01*
X1790039Y7642047D01*
X1789480Y7645400D01*
X1790039Y7648752D01*
X1792071Y7654645D01*
X1792782Y7660995D01*
X1792782Y7687208D01*
X1752600Y7687208D01*
X1752600Y7666481D01*
X1751838Y7662570D01*
X1749602Y7659268D01*
X1746351Y7657084D01*
X1742439Y7656322D01*
X1737360Y7656322D01*
X1733448Y7657084D01*
X1730197Y7659268D01*
X1727962Y7662570D01*
X1727200Y7666481D01*
X1727200Y7687208D01*
X1695754Y7687208D01*
X1691843Y7687970D01*
X1688541Y7690205D01*
X1686356Y7693456D01*
X1685594Y7697368D01*
X1686356Y7701229D01*
X1688541Y7704531D01*
X1693621Y7709611D01*
X1696923Y7711846D01*
X1700834Y7712608D01*
X1727200Y7712608D01*
X1727200Y7738973D01*
X1727962Y7742885D01*
X1730197Y7746187D01*
X1735277Y7751267D01*
X1738528Y7753451D01*
X1742439Y7754213D01*
X1746351Y7753451D01*
X1749602Y7751267D01*
X1751838Y7747965D01*
X1752600Y7744053D01*
X1752600Y7712608D01*
X1792782Y7712608D01*
X1792782Y7738821D01*
X1792071Y7745171D01*
X1790192Y7750606D01*
X1787093Y7755534D01*
X1783029Y7759598D01*
X1778101Y7762697D01*
X1767586Y7766100D01*
X1764436Y7769098D01*
X1762810Y7773060D01*
X1762963Y7777429D01*
X1764944Y7781239D01*
X1768652Y7785760D01*
X1772208Y7792466D01*
X1774393Y7799679D01*
X1775206Y7807706D01*
X1775206Y7820863D01*
X1775764Y7824216D01*
X1777441Y7827213D01*
X1780184Y7829600D01*
X1784299Y7833715D01*
X1787347Y7838592D01*
X1789277Y7844078D01*
X1789988Y7850378D01*
X1789988Y7904276D01*
X1789277Y7910575D01*
X1787347Y7916062D01*
X1785264Y7919415D01*
X1783842Y7922920D01*
X1783842Y7926730D01*
X1785264Y7930235D01*
X1787347Y7933588D01*
X1789277Y7939074D01*
X1789988Y7945374D01*
X1789988Y7999272D01*
X1789277Y8005572D01*
X1787347Y8011058D01*
X1786788Y8014055D01*
X1787143Y8017052D01*
X1788363Y8019846D01*
X1790192Y8022793D01*
X1792020Y8028076D01*
X1794205Y8031632D01*
X1797557Y8034020D01*
X1801622Y8034883D01*
X1860092Y8034883D01*
X1864004Y8034121D01*
X1867306Y8031886D01*
X1868779Y8030413D01*
X1876806Y8024774D01*
X1885746Y8020659D01*
X1895195Y8018119D01*
X1905000Y8017256D01*
X1914804Y8018119D01*
X1924253Y8020659D01*
X1933193Y8024774D01*
X1941220Y8030413D01*
X1948180Y8037372D01*
X1953818Y8045399D01*
X1957933Y8054340D01*
X1960473Y8063788D01*
X1961337Y8073593D01*
X1960473Y8083397D01*
X1957933Y8092846D01*
X1953818Y8101787D01*
X1948180Y8109813D01*
X1941220Y8116773D01*
X1933193Y8122412D01*
X1924253Y8126526D01*
X1914804Y8129066D01*
X1905000Y8129930D01*
X1895195Y8129066D01*
X1885746Y8126526D01*
X1876806Y8122412D01*
X1868779Y8116773D01*
X1867103Y8115096D01*
X1863801Y8112861D01*
X1859889Y8112099D01*
X1801622Y8112099D01*
X1797557Y8112963D01*
X1794205Y8115350D01*
X1792020Y8118906D01*
X1790039Y8124647D01*
X1789480Y8128000D01*
X1790039Y8131352D01*
X1792071Y8137245D01*
X1792782Y8143595D01*
X1792782Y8169808D01*
X1752600Y8169808D01*
X1752600Y8149081D01*
X1751838Y8145170D01*
X1749602Y8141868D01*
X1746351Y8139684D01*
X1742439Y8138922D01*
X1737360Y8138922D01*
X1733448Y8139684D01*
X1730197Y8141868D01*
X1727962Y8145170D01*
X1727200Y8149081D01*
X1727200Y8169808D01*
X1695754Y8169808D01*
X1691843Y8170570D01*
X1688541Y8172805D01*
X1686356Y8176056D01*
X1685594Y8179968D01*
X1686356Y8183829D01*
X1688541Y8187131D01*
X1693621Y8192211D01*
X1696923Y8194446D01*
X1700834Y8195208D01*
X1727200Y8195208D01*
X1727200Y8221573D01*
X1727962Y8225485D01*
X1730197Y8228787D01*
X1735277Y8233867D01*
X1738528Y8236051D01*
X1742439Y8236813D01*
X1746351Y8236051D01*
X1749602Y8233867D01*
X1751838Y8230565D01*
X1752600Y8226653D01*
X1752600Y8195208D01*
X1792782Y8195208D01*
X1792782Y8221421D01*
X1792071Y8227771D01*
X1790192Y8233206D01*
X1787093Y8238134D01*
X1783029Y8242198D01*
X1778101Y8245297D01*
X1767586Y8248700D01*
X1764436Y8251698D01*
X1762810Y8255660D01*
X1762963Y8260029D01*
X1764944Y8263839D01*
X1768652Y8268360D01*
X1772208Y8275066D01*
X1774393Y8282279D01*
X1775206Y8290306D01*
X1775206Y8303463D01*
X1775764Y8306816D01*
X1777441Y8309813D01*
X1780184Y8312200D01*
X1784299Y8316315D01*
X1787347Y8321192D01*
X1789277Y8326678D01*
X1789988Y8332978D01*
X1789988Y8386876D01*
X1789277Y8393176D01*
X1787347Y8398662D01*
X1785264Y8402015D01*
X1783842Y8405520D01*
X1783842Y8409330D01*
X1785264Y8412835D01*
X1787347Y8416188D01*
X1789277Y8421674D01*
X1789988Y8427974D01*
X1789988Y8481872D01*
X1789277Y8488172D01*
X1787347Y8493658D01*
X1786788Y8496655D01*
X1787143Y8499652D01*
X1788363Y8502446D01*
X1790192Y8505393D01*
X1792020Y8510676D01*
X1794205Y8514232D01*
X1797557Y8516620D01*
X1801622Y8517483D01*
X1860092Y8517483D01*
X1864004Y8516721D01*
X1867306Y8514486D01*
X1868779Y8513013D01*
X1876806Y8507374D01*
X1885746Y8503259D01*
X1895195Y8500719D01*
X1905000Y8499856D01*
X1914804Y8500719D01*
X1924253Y8503259D01*
X1933193Y8507374D01*
X1941220Y8513013D01*
X1948180Y8519972D01*
X1953818Y8527999D01*
X1957933Y8536940D01*
X1960473Y8546388D01*
X1961337Y8556193D01*
X1960473Y8565997D01*
X1957933Y8575446D01*
X1953818Y8584387D01*
X1948180Y8592413D01*
X1941220Y8599373D01*
X1933193Y8605012D01*
X1924253Y8609126D01*
X1914804Y8611666D01*
X1905000Y8612530D01*
X1895195Y8611666D01*
X1885746Y8609126D01*
X1876806Y8605012D01*
X1868779Y8599373D01*
X1867103Y8597696D01*
X1863801Y8595461D01*
X1859889Y8594699D01*
X1801622Y8594699D01*
X1797557Y8595563D01*
X1794205Y8597950D01*
X1792020Y8601506D01*
X1790039Y8607247D01*
X1789480Y8610600D01*
X1790039Y8613952D01*
X1792071Y8619845D01*
X1792782Y8626195D01*
X1792782Y8652408D01*
X1752600Y8652408D01*
X1752600Y8631682D01*
X1751838Y8627770D01*
X1749602Y8624468D01*
X1746351Y8622284D01*
X1742439Y8621522D01*
X1737360Y8621522D01*
X1733448Y8622284D01*
X1730197Y8624468D01*
X1727962Y8627770D01*
X1727200Y8631682D01*
X1727200Y8652408D01*
X1695754Y8652408D01*
X1691843Y8653170D01*
X1688541Y8655405D01*
X1686356Y8658656D01*
X1685594Y8662568D01*
X1686356Y8666429D01*
X1688541Y8669731D01*
X1693621Y8674811D01*
X1696923Y8677046D01*
X1700834Y8677808D01*
X1727200Y8677808D01*
X1727200Y8704173D01*
X1727962Y8708085D01*
X1730197Y8711387D01*
X1735277Y8716467D01*
X1738528Y8718651D01*
X1742439Y8719413D01*
X1746351Y8718651D01*
X1749602Y8716467D01*
X1751838Y8713165D01*
X1752600Y8709253D01*
X1752600Y8677808D01*
X1792782Y8677808D01*
X1792782Y8704021D01*
X1792071Y8710371D01*
X1790192Y8715806D01*
X1787093Y8720734D01*
X1783029Y8724798D01*
X1778101Y8727897D01*
X1767586Y8731300D01*
X1764436Y8734298D01*
X1762810Y8738260D01*
X1762963Y8742629D01*
X1764944Y8746439D01*
X1768652Y8750960D01*
X1772208Y8757666D01*
X1774393Y8764879D01*
X1775206Y8772906D01*
X1775206Y8786063D01*
X1775764Y8789416D01*
X1777441Y8792413D01*
X1780184Y8794800D01*
X1784299Y8798915D01*
X1787347Y8803792D01*
X1789277Y8809278D01*
X1789988Y8815578D01*
X1789988Y8869476D01*
X1789277Y8875776D01*
X1787347Y8881262D01*
X1785264Y8884615D01*
X1783842Y8888120D01*
X1783842Y8891930D01*
X1785264Y8895435D01*
X1787347Y8898788D01*
X1789277Y8904274D01*
X1789988Y8910574D01*
X1789988Y8964472D01*
X1789277Y8970772D01*
X1787347Y8976258D01*
X1786788Y8979255D01*
X1787143Y8982252D01*
X1788363Y8985046D01*
X1790192Y8987993D01*
X1792020Y8993174D01*
X1794154Y8996730D01*
X1797507Y8999118D01*
X1801571Y8999982D01*
X1860092Y8999982D01*
X1864004Y8999220D01*
X1867306Y8996984D01*
X1868779Y8995511D01*
X1876806Y8989872D01*
X1885746Y8985758D01*
X1895195Y8983218D01*
X1905000Y8982354D01*
X1914804Y8983218D01*
X1924253Y8985758D01*
X1933193Y8989872D01*
X1941220Y8995511D01*
X1948180Y9002471D01*
X1953818Y9010497D01*
X1957933Y9019438D01*
X1960473Y9028887D01*
X1961337Y9038691D01*
X1960473Y9048496D01*
X1957933Y9057944D01*
X1953818Y9066885D01*
X1948180Y9074912D01*
X1941220Y9081871D01*
X1933193Y9087510D01*
X1924253Y9091625D01*
X1914804Y9094165D01*
X1905000Y9095028D01*
X1895195Y9094165D01*
X1885746Y9091625D01*
X1876806Y9087510D01*
X1868779Y9081871D01*
X1867103Y9080195D01*
X1863801Y9077960D01*
X1859889Y9077198D01*
X1801672Y9077198D01*
X1797608Y9078061D01*
X1794205Y9080449D01*
X1792071Y9084005D01*
X1790039Y9089847D01*
X1789480Y9093200D01*
X1790039Y9096552D01*
X1792071Y9102445D01*
X1792782Y9108795D01*
X1792782Y9135008D01*
X1752600Y9135008D01*
X1752600Y9114282D01*
X1751838Y9110370D01*
X1749602Y9107068D01*
X1746351Y9104884D01*
X1742439Y9104122D01*
X1737360Y9104122D01*
X1733448Y9104884D01*
X1730197Y9107068D01*
X1727962Y9110370D01*
X1727200Y9114282D01*
X1727200Y9135008D01*
X1695754Y9135008D01*
X1691843Y9135770D01*
X1688541Y9138005D01*
X1686356Y9141256D01*
X1685594Y9145168D01*
X1686356Y9149029D01*
X1688541Y9152331D01*
X1693621Y9157411D01*
X1696923Y9159646D01*
X1700834Y9160408D01*
X1727200Y9160408D01*
X1727200Y9186773D01*
X1727962Y9190685D01*
X1730197Y9193987D01*
X1735277Y9199067D01*
X1738528Y9201251D01*
X1742439Y9202013D01*
X1746351Y9201251D01*
X1749602Y9199067D01*
X1751838Y9195765D01*
X1752600Y9191853D01*
X1752600Y9160408D01*
X1792782Y9160408D01*
X1792782Y9186621D01*
X1792071Y9192971D01*
X1790192Y9198406D01*
X1787093Y9203334D01*
X1783029Y9207398D01*
X1778101Y9210497D01*
X1767586Y9213900D01*
X1764436Y9216898D01*
X1762810Y9220860D01*
X1762963Y9225229D01*
X1764944Y9229039D01*
X1768652Y9233560D01*
X1772208Y9240266D01*
X1774393Y9247479D01*
X1775206Y9255506D01*
X1775206Y9268663D01*
X1775764Y9272016D01*
X1777441Y9275013D01*
X1780184Y9277400D01*
X1784299Y9281515D01*
X1787347Y9286392D01*
X1789277Y9291878D01*
X1789988Y9298178D01*
X1789988Y9352076D01*
X1789277Y9358376D01*
X1787347Y9363862D01*
X1785264Y9367215D01*
X1783842Y9370720D01*
X1783842Y9374530D01*
X1785264Y9378035D01*
X1787347Y9381388D01*
X1789277Y9386874D01*
X1789988Y9393174D01*
X1789988Y9447072D01*
X1789277Y9453372D01*
X1787347Y9458858D01*
X1786788Y9461855D01*
X1787143Y9464852D01*
X1788363Y9467646D01*
X1790192Y9470593D01*
X1792020Y9475774D01*
X1794154Y9479330D01*
X1797507Y9481718D01*
X1801571Y9482582D01*
X1860092Y9482582D01*
X1864004Y9481820D01*
X1867306Y9479584D01*
X1868779Y9478111D01*
X1876806Y9472472D01*
X1885746Y9468358D01*
X1895195Y9465818D01*
X1905000Y9464954D01*
X1914804Y9465818D01*
X1924253Y9468358D01*
X1933193Y9472472D01*
X1941220Y9478111D01*
X1948180Y9485071D01*
X1953818Y9493097D01*
X1957933Y9502038D01*
X1960473Y9511487D01*
X1961337Y9521291D01*
X1960473Y9531096D01*
X1957933Y9540544D01*
X1953818Y9549485D01*
X1948180Y9557512D01*
X1941220Y9564471D01*
X1933193Y9570110D01*
X1924253Y9574225D01*
X1914804Y9576765D01*
X1905000Y9577628D01*
X1895195Y9576765D01*
X1885746Y9574225D01*
X1876806Y9570110D01*
X1868779Y9564471D01*
X1867103Y9562795D01*
X1863801Y9560560D01*
X1859889Y9559798D01*
X1801672Y9559798D01*
X1797608Y9560661D01*
X1794205Y9563049D01*
X1792071Y9566605D01*
X1790039Y9572447D01*
X1789480Y9575800D01*
X1790039Y9579152D01*
X1792071Y9585045D01*
X1792782Y9591395D01*
X1792782Y9617608D01*
X1752600Y9617608D01*
X1752600Y9596882D01*
X1751838Y9592970D01*
X1749602Y9589668D01*
X1746351Y9587484D01*
X1742439Y9586722D01*
X1737360Y9586722D01*
X1733448Y9587484D01*
X1730197Y9589668D01*
X1727962Y9592970D01*
X1727200Y9596882D01*
X1727200Y9617608D01*
X1695754Y9617608D01*
X1691843Y9618370D01*
X1688541Y9620605D01*
X1686356Y9623856D01*
X1685594Y9627768D01*
X1686356Y9631629D01*
X1688541Y9634931D01*
X1693621Y9640011D01*
X1696923Y9642246D01*
X1700834Y9643008D01*
X1727200Y9643008D01*
X1727200Y9669373D01*
X1727962Y9673285D01*
X1730197Y9676587D01*
X1735277Y9681667D01*
X1738528Y9683851D01*
X1742439Y9684613D01*
X1746351Y9683851D01*
X1749602Y9681667D01*
X1751838Y9678365D01*
X1752600Y9674453D01*
X1752600Y9643008D01*
X1792782Y9643008D01*
X1792782Y9669221D01*
X1792071Y9675571D01*
X1790192Y9681006D01*
X1787093Y9685934D01*
X1783029Y9689998D01*
X1778101Y9693097D01*
X1767586Y9696500D01*
X1764436Y9699498D01*
X1762810Y9703460D01*
X1762963Y9707829D01*
X1764944Y9711639D01*
X1768652Y9716160D01*
X1772208Y9722866D01*
X1774393Y9730079D01*
X1775206Y9738106D01*
X1775206Y9751263D01*
X1775764Y9754616D01*
X1777441Y9757613D01*
X1780184Y9760000D01*
X1784299Y9764115D01*
X1787347Y9768992D01*
X1789277Y9774478D01*
X1789988Y9780778D01*
X1789988Y9834676D01*
X1789277Y9840976D01*
X1787347Y9846462D01*
X1785264Y9849815D01*
X1783842Y9853320D01*
X1783842Y9857130D01*
X1785264Y9860635D01*
X1787347Y9863988D01*
X1789277Y9869474D01*
X1789988Y9875774D01*
X1789988Y9929672D01*
X1789277Y9935972D01*
X1787347Y9941458D01*
X1786788Y9944455D01*
X1787143Y9947452D01*
X1788363Y9950246D01*
X1790192Y9953193D01*
X1792020Y9958374D01*
X1794154Y9961930D01*
X1797507Y9964318D01*
X1801571Y9965182D01*
X1859991Y9965182D01*
X1863902Y9964420D01*
X1867204Y9962184D01*
X1868779Y9960610D01*
X1876806Y9954971D01*
X1885746Y9950856D01*
X1895195Y9948316D01*
X1905000Y9947452D01*
X1914804Y9948316D01*
X1924253Y9950856D01*
X1933193Y9954971D01*
X1941220Y9960610D01*
X1948180Y9967569D01*
X1953818Y9975596D01*
X1957933Y9984536D01*
X1960473Y9993985D01*
X1961337Y10003790D01*
X1960473Y10013594D01*
X1957933Y10023043D01*
X1953818Y10031984D01*
X1948180Y10040010D01*
X1941220Y10046970D01*
X1933193Y10052608D01*
X1924253Y10056723D01*
X1914804Y10059263D01*
X1905000Y10060127D01*
X1895195Y10059263D01*
X1885746Y10056723D01*
X1876806Y10052608D01*
X1868779Y10046970D01*
X1867204Y10045395D01*
X1863902Y10043160D01*
X1859991Y10042398D01*
X1801672Y10042398D01*
X1797608Y10043261D01*
X1794205Y10045649D01*
X1792071Y10049205D01*
X1790039Y10055047D01*
X1789480Y10058400D01*
X1790039Y10061752D01*
X1792071Y10067645D01*
X1792782Y10073995D01*
X1792782Y10100208D01*
X1752600Y10100208D01*
X1752600Y10079482D01*
X1751838Y10075570D01*
X1749602Y10072268D01*
X1746351Y10070084D01*
X1742439Y10069322D01*
X1737360Y10069322D01*
X1733448Y10070084D01*
X1730197Y10072268D01*
X1727962Y10075570D01*
X1727200Y10079482D01*
X1727200Y10100208D01*
X1695754Y10100208D01*
X1691843Y10100970D01*
X1688541Y10103205D01*
X1686356Y10106456D01*
X1685594Y10110368D01*
X1686356Y10114229D01*
X1688541Y10117531D01*
X1693621Y10122611D01*
X1696923Y10124846D01*
X1700834Y10125608D01*
X1727200Y10125608D01*
X1727200Y10151973D01*
X1727962Y10155885D01*
X1730197Y10159187D01*
X1735277Y10164267D01*
X1738528Y10166451D01*
X1742439Y10167213D01*
X1746351Y10166451D01*
X1749602Y10164267D01*
X1751838Y10160965D01*
X1752600Y10157053D01*
X1752600Y10125608D01*
X1792782Y10125608D01*
X1792782Y10151821D01*
X1792071Y10158171D01*
X1790192Y10163606D01*
X1787093Y10168534D01*
X1783029Y10172598D01*
X1778101Y10175697D01*
X1767586Y10179100D01*
X1764436Y10182098D01*
X1762810Y10186060D01*
X1762963Y10190429D01*
X1764944Y10194239D01*
X1768652Y10198760D01*
X1772208Y10205466D01*
X1774393Y10212679D01*
X1775206Y10220706D01*
X1775206Y10233863D01*
X1775764Y10237216D01*
X1777441Y10240213D01*
X1780184Y10242600D01*
X1784299Y10246715D01*
X1787347Y10251592D01*
X1789277Y10257078D01*
X1789988Y10263378D01*
X1789988Y10317276D01*
X1789277Y10323576D01*
X1787347Y10329062D01*
X1785264Y10332415D01*
X1783842Y10335920D01*
X1783842Y10339730D01*
X1785264Y10343235D01*
X1787347Y10346588D01*
X1789277Y10352074D01*
X1789988Y10358374D01*
X1789988Y10412272D01*
X1789277Y10418572D01*
X1787347Y10424058D01*
X1786788Y10427055D01*
X1787143Y10430052D01*
X1788363Y10432846D01*
X1790192Y10435793D01*
X1792020Y10440974D01*
X1794154Y10444530D01*
X1797507Y10446918D01*
X1801571Y10447782D01*
X1859991Y10447782D01*
X1863902Y10447020D01*
X1867204Y10444784D01*
X1868779Y10443210D01*
X1876806Y10437571D01*
X1885746Y10433456D01*
X1895195Y10430916D01*
X1905000Y10430052D01*
X1914804Y10430916D01*
X1924253Y10433456D01*
X1933193Y10437571D01*
X1941220Y10443210D01*
X1948180Y10450169D01*
X1953818Y10458196D01*
X1957933Y10467136D01*
X1960473Y10476585D01*
X1961337Y10486390D01*
X1960473Y10496194D01*
X1957933Y10505643D01*
X1953818Y10514584D01*
X1948180Y10522610D01*
X1941220Y10529570D01*
X1933193Y10535208D01*
X1924253Y10539323D01*
X1914804Y10541863D01*
X1905000Y10542727D01*
X1895195Y10541863D01*
X1885746Y10539323D01*
X1876806Y10535208D01*
X1868779Y10529570D01*
X1867204Y10527995D01*
X1863902Y10525760D01*
X1859991Y10524998D01*
X1801672Y10524998D01*
X1797608Y10525861D01*
X1794205Y10528249D01*
X1792071Y10531805D01*
X1790039Y10537647D01*
X1789480Y10541000D01*
X1790039Y10544352D01*
X1792071Y10550245D01*
X1792782Y10556595D01*
X1792782Y10582808D01*
X1752600Y10582808D01*
X1752600Y10562082D01*
X1751838Y10558170D01*
X1749602Y10554868D01*
X1746351Y10552684D01*
X1742439Y10551922D01*
X1737360Y10551922D01*
X1733448Y10552684D01*
X1730197Y10554868D01*
X1727962Y10558170D01*
X1727200Y10562082D01*
X1727200Y10582808D01*
X1690370Y10582808D01*
X1686458Y10583570D01*
X1683207Y10585805D01*
X1680972Y10589056D01*
X1680210Y10592968D01*
X1680210Y10598048D01*
X1680972Y10601909D01*
X1683207Y10605211D01*
X1686458Y10607446D01*
X1690370Y10608208D01*
X1727200Y10608208D01*
X1727200Y10660938D01*
X1713484Y10660938D01*
X1707134Y10660227D01*
X1701698Y10658297D01*
X1695805Y10654588D01*
X1691741Y10653115D01*
X1687474Y10653420D01*
X1683715Y10655503D01*
X1681124Y10658957D01*
X1680210Y10663174D01*
X1680210Y10753090D01*
X1679397Y10761116D01*
X1677212Y10768330D01*
X1673656Y10775035D01*
X1668525Y10781233D01*
X1627835Y10821924D01*
X1621637Y10827054D01*
X1614932Y10830610D01*
X1607718Y10832795D01*
X1599692Y10833608D01*
X1061008Y10833608D01*
X1057097Y10834370D01*
X1053795Y10836605D01*
X1052220Y10838180D01*
X1044194Y10843818D01*
X1035253Y10847933D01*
X1025804Y10850473D01*
X1016000Y10851337D01*
X1006195Y10850473D01*
X996746Y10847933D01*
X987806Y10843818D01*
X979779Y10838180D01*
X972819Y10831220D01*
X967181Y10823194D01*
X963066Y10814253D01*
X960526Y10804804D01*
X959662Y10795000D01*
X960526Y10785195D01*
X963066Y10775746D01*
X967181Y10766806D01*
X972819Y10758779D01*
X979779Y10751820D01*
X987806Y10746181D01*
X996746Y10742066D01*
X1006195Y10739526D01*
X1016000Y10738662D01*
X1025804Y10739526D01*
X1035253Y10742066D01*
X1044194Y10746181D01*
X1052220Y10751820D01*
X1053795Y10753394D01*
X1057097Y10755630D01*
X1061008Y10756392D01*
X1579981Y10756392D01*
X1583893Y10755630D01*
X1587195Y10753394D01*
X1599996Y10740593D01*
X1602232Y10737291D01*
X1602994Y10733379D01*
X1602994Y10707674D01*
X1602130Y10703509D01*
X1599590Y10700105D01*
X1595932Y10697972D01*
X1591716Y10697565D01*
X1586941Y10698073D01*
X1384858Y10698073D01*
X1378559Y10697362D01*
X1373073Y10695482D01*
X1368196Y10692384D01*
X1364081Y10688320D01*
X1361033Y10683392D01*
X1359103Y10677956D01*
X1358392Y10671606D01*
X1358392Y10529468D01*
X1357731Y10525861D01*
X1355801Y10522712D01*
X1352854Y10520426D01*
X1349298Y10519359D01*
X1345590Y10519664D01*
X1343304Y10520273D01*
X1333500Y10521137D01*
X1323695Y10520273D01*
X1314246Y10517733D01*
X1305306Y10513618D01*
X1297279Y10507980D01*
X1290320Y10501020D01*
X1284681Y10492994D01*
X1280566Y10484053D01*
X1278026Y10474604D01*
X1277162Y10464800D01*
X1278026Y10454995D01*
X1280160Y10446969D01*
X1280414Y10443006D01*
X1279194Y10439298D01*
X1276604Y10436352D01*
X1273149Y10434523D01*
X1269238Y10434218D01*
X1262126Y10435031D01*
X1231798Y10435031D01*
X1228140Y10435691D01*
X1224991Y10437622D01*
X1222705Y10440568D01*
X1221689Y10444124D01*
X1221943Y10447832D01*
X1223873Y10454995D01*
X1224737Y10464800D01*
X1223873Y10474604D01*
X1221333Y10484053D01*
X1217218Y10492994D01*
X1211580Y10501020D01*
X1204620Y10507980D01*
X1196594Y10513618D01*
X1187653Y10517733D01*
X1178204Y10520273D01*
X1168400Y10521137D01*
X1158595Y10520273D01*
X1149146Y10517733D01*
X1140206Y10513618D01*
X1132179Y10507980D01*
X1125220Y10501020D01*
X1119581Y10492994D01*
X1115466Y10484053D01*
X1112926Y10474604D01*
X1112062Y10464800D01*
X1112926Y10454995D01*
X1115466Y10445546D01*
X1119581Y10436606D01*
X1125220Y10428579D01*
X1132179Y10421620D01*
X1140206Y10415981D01*
X1149146Y10411866D01*
X1158595Y10409326D01*
X1168400Y10408462D01*
X1170736Y10408666D01*
X1174902Y10408158D01*
X1178509Y10406024D01*
X1180947Y10402620D01*
X1181760Y10398556D01*
X1181760Y10354665D01*
X1182471Y10348366D01*
X1184402Y10342880D01*
X1186535Y10339527D01*
X1187907Y10336022D01*
X1187907Y10332212D01*
X1186535Y10328706D01*
X1184402Y10325354D01*
X1182471Y10319867D01*
X1181760Y10313568D01*
X1181760Y10299344D01*
X1222502Y10299344D01*
X1222502Y10318038D01*
X1223264Y10321950D01*
X1225448Y10325252D01*
X1228750Y10327436D01*
X1232662Y10328198D01*
X1237742Y10328198D01*
X1241602Y10327436D01*
X1244904Y10325252D01*
X1247140Y10321950D01*
X1247902Y10318038D01*
X1247902Y10299344D01*
X1266596Y10299344D01*
X1270508Y10298531D01*
X1273810Y10296347D01*
X1275994Y10293045D01*
X1276756Y10289184D01*
X1276756Y10284104D01*
X1275994Y10280192D01*
X1273810Y10276890D01*
X1270508Y10274706D01*
X1266596Y10273944D01*
X1247902Y10273944D01*
X1247902Y10223042D01*
X1247038Y10218978D01*
X1244600Y10215575D01*
X1244600Y10201808D01*
X1281430Y10201808D01*
X1285341Y10201046D01*
X1288592Y10198811D01*
X1290828Y10195509D01*
X1291590Y10191648D01*
X1291590Y10186568D01*
X1290828Y10182656D01*
X1288592Y10179405D01*
X1285341Y10177170D01*
X1281430Y10176408D01*
X1244600Y10176408D01*
X1244600Y10155682D01*
X1243838Y10151770D01*
X1241602Y10148468D01*
X1238351Y10146284D01*
X1234440Y10145522D01*
X1229360Y10145522D01*
X1225448Y10146284D01*
X1222197Y10148468D01*
X1219962Y10151770D01*
X1219200Y10155682D01*
X1219200Y10176408D01*
X1179017Y10176408D01*
X1179017Y10150195D01*
X1179728Y10143845D01*
X1181760Y10137952D01*
X1182319Y10134600D01*
X1181760Y10131247D01*
X1179728Y10125354D01*
X1179017Y10119004D01*
X1179017Y10051592D01*
X1178204Y10047732D01*
X1176020Y10044430D01*
X1172921Y10041331D01*
X1170025Y10039299D01*
X1166622Y10038384D01*
X1158595Y10037673D01*
X1149146Y10035133D01*
X1140206Y10031018D01*
X1132179Y10025380D01*
X1125220Y10018420D01*
X1119581Y10010394D01*
X1115466Y10001453D01*
X1112926Y9992004D01*
X1112062Y9982200D01*
X1112926Y9972395D01*
X1115466Y9962946D01*
X1119581Y9954006D01*
X1125220Y9945979D01*
X1132179Y9939020D01*
X1140206Y9933381D01*
X1149146Y9929266D01*
X1158595Y9926726D01*
X1168400Y9925862D01*
X1170736Y9926066D01*
X1174902Y9925558D01*
X1178509Y9923424D01*
X1180947Y9920020D01*
X1181760Y9915956D01*
X1181760Y9872065D01*
X1182471Y9865766D01*
X1184402Y9860280D01*
X1186535Y9856927D01*
X1187907Y9853422D01*
X1187907Y9849612D01*
X1186535Y9846106D01*
X1184402Y9842754D01*
X1182471Y9837267D01*
X1181760Y9830968D01*
X1181760Y9816744D01*
X1222502Y9816744D01*
X1222502Y9835438D01*
X1223264Y9839350D01*
X1225448Y9842652D01*
X1228750Y9844836D01*
X1232662Y9845598D01*
X1237742Y9845598D01*
X1241602Y9844836D01*
X1244904Y9842652D01*
X1247140Y9839350D01*
X1247902Y9835438D01*
X1247902Y9816744D01*
X1266596Y9816744D01*
X1270508Y9815931D01*
X1273810Y9813747D01*
X1275994Y9810445D01*
X1276756Y9806584D01*
X1276756Y9801504D01*
X1275994Y9797592D01*
X1273810Y9794290D01*
X1270508Y9792106D01*
X1266596Y9791344D01*
X1247902Y9791344D01*
X1247902Y9740442D01*
X1247038Y9736378D01*
X1244600Y9732975D01*
X1244600Y9719208D01*
X1281430Y9719208D01*
X1285341Y9718446D01*
X1288592Y9716211D01*
X1290828Y9712909D01*
X1291590Y9709048D01*
X1291590Y9703968D01*
X1290828Y9700056D01*
X1288592Y9696805D01*
X1285341Y9694570D01*
X1281430Y9693808D01*
X1244600Y9693808D01*
X1244600Y9673082D01*
X1243838Y9669170D01*
X1241602Y9665868D01*
X1238351Y9663684D01*
X1234440Y9662922D01*
X1229360Y9662922D01*
X1225448Y9663684D01*
X1222197Y9665868D01*
X1219962Y9669170D01*
X1219200Y9673082D01*
X1219200Y9693808D01*
X1179017Y9693808D01*
X1179017Y9667595D01*
X1179728Y9661245D01*
X1181760Y9655352D01*
X1182319Y9652000D01*
X1181760Y9648647D01*
X1179728Y9642754D01*
X1179017Y9636404D01*
X1179017Y9568992D01*
X1178204Y9565132D01*
X1176020Y9561830D01*
X1172921Y9558731D01*
X1170025Y9556699D01*
X1166622Y9555784D01*
X1158595Y9555073D01*
X1149146Y9552533D01*
X1140206Y9548418D01*
X1132179Y9542780D01*
X1125220Y9535820D01*
X1119581Y9527794D01*
X1115466Y9518853D01*
X1112926Y9509404D01*
X1112062Y9499600D01*
X1112926Y9489795D01*
X1115466Y9480346D01*
X1119581Y9471406D01*
X1125220Y9463379D01*
X1132179Y9456420D01*
X1140206Y9450781D01*
X1149146Y9446666D01*
X1158595Y9444126D01*
X1168400Y9443262D01*
X1170736Y9443466D01*
X1174902Y9442958D01*
X1178509Y9440824D01*
X1180947Y9437420D01*
X1181760Y9433356D01*
X1181760Y9389465D01*
X1182471Y9383166D01*
X1184402Y9377680D01*
X1186535Y9374327D01*
X1187907Y9370822D01*
X1187907Y9367012D01*
X1186535Y9363506D01*
X1184402Y9360154D01*
X1182471Y9354667D01*
X1181760Y9348368D01*
X1181760Y9334144D01*
X1222502Y9334144D01*
X1222502Y9352838D01*
X1223264Y9356750D01*
X1225448Y9360052D01*
X1228750Y9362236D01*
X1232662Y9362998D01*
X1237742Y9362998D01*
X1241602Y9362236D01*
X1244904Y9360052D01*
X1247140Y9356750D01*
X1247902Y9352838D01*
X1247902Y9334144D01*
X1266596Y9334144D01*
X1270508Y9333331D01*
X1273810Y9331147D01*
X1275994Y9327845D01*
X1276756Y9323984D01*
X1276756Y9318904D01*
X1275994Y9314992D01*
X1273810Y9311690D01*
X1270508Y9309506D01*
X1266596Y9308744D01*
X1247902Y9308744D01*
X1247902Y9257842D01*
X1247038Y9253778D01*
X1244600Y9250375D01*
X1244600Y9236608D01*
X1281430Y9236608D01*
X1285341Y9235846D01*
X1288592Y9233611D01*
X1290828Y9230309D01*
X1291590Y9226448D01*
X1291590Y9221368D01*
X1290828Y9217456D01*
X1288592Y9214205D01*
X1285341Y9211970D01*
X1281430Y9211208D01*
X1244600Y9211208D01*
X1244600Y9190482D01*
X1243838Y9186570D01*
X1241602Y9183268D01*
X1238351Y9181084D01*
X1234440Y9180322D01*
X1229360Y9180322D01*
X1225448Y9181084D01*
X1222197Y9183268D01*
X1219962Y9186570D01*
X1219200Y9190482D01*
X1219200Y9211208D01*
X1179017Y9211208D01*
X1179017Y9184995D01*
X1179728Y9178645D01*
X1181760Y9172752D01*
X1182319Y9169400D01*
X1181760Y9166047D01*
X1179728Y9160154D01*
X1179017Y9153804D01*
X1179017Y9086392D01*
X1178204Y9082532D01*
X1176020Y9079230D01*
X1172921Y9076131D01*
X1170025Y9074099D01*
X1166622Y9073184D01*
X1158595Y9072473D01*
X1149146Y9069933D01*
X1140206Y9065818D01*
X1132179Y9060180D01*
X1125220Y9053220D01*
X1119581Y9045194D01*
X1115466Y9036253D01*
X1112926Y9026804D01*
X1112062Y9017000D01*
X1112926Y9007195D01*
X1115466Y8997746D01*
X1119581Y8988806D01*
X1125220Y8980779D01*
X1132179Y8973820D01*
X1140206Y8968181D01*
X1149146Y8964066D01*
X1158595Y8961526D01*
X1168400Y8960662D01*
X1170736Y8960866D01*
X1174902Y8960358D01*
X1178509Y8958224D01*
X1180947Y8954820D01*
X1181760Y8950756D01*
X1181760Y8906865D01*
X1182471Y8900566D01*
X1184402Y8895080D01*
X1186535Y8891727D01*
X1187907Y8888222D01*
X1187907Y8884412D01*
X1186535Y8880906D01*
X1184402Y8877554D01*
X1182471Y8872067D01*
X1181760Y8865768D01*
X1181760Y8851544D01*
X1222502Y8851544D01*
X1222502Y8870238D01*
X1223264Y8874150D01*
X1225448Y8877452D01*
X1228750Y8879636D01*
X1232662Y8880398D01*
X1237742Y8880398D01*
X1241602Y8879636D01*
X1244904Y8877452D01*
X1247140Y8874150D01*
X1247902Y8870238D01*
X1247902Y8851544D01*
X1266596Y8851544D01*
X1270508Y8850731D01*
X1273810Y8848547D01*
X1275994Y8845245D01*
X1276756Y8841384D01*
X1276756Y8836304D01*
X1275994Y8832392D01*
X1273810Y8829090D01*
X1270508Y8826906D01*
X1266596Y8826144D01*
X1247902Y8826144D01*
X1247902Y8775242D01*
X1247038Y8771178D01*
X1244600Y8767775D01*
X1244600Y8754008D01*
X1281430Y8754008D01*
X1285341Y8753246D01*
X1288592Y8751011D01*
X1290828Y8747709D01*
X1291590Y8743848D01*
X1291590Y8738768D01*
X1290828Y8734856D01*
X1288592Y8731605D01*
X1285341Y8729370D01*
X1281430Y8728608D01*
X1244600Y8728608D01*
X1244600Y8707882D01*
X1243838Y8703970D01*
X1241602Y8700668D01*
X1238351Y8698484D01*
X1234440Y8697722D01*
X1229360Y8697722D01*
X1225448Y8698484D01*
X1222197Y8700668D01*
X1219962Y8703970D01*
X1219200Y8707882D01*
X1219200Y8728608D01*
X1179017Y8728608D01*
X1179017Y8702395D01*
X1179728Y8696045D01*
X1181760Y8690152D01*
X1182319Y8686800D01*
X1181760Y8683447D01*
X1179728Y8677554D01*
X1179017Y8671204D01*
X1179017Y8603792D01*
X1178204Y8599932D01*
X1176020Y8596630D01*
X1172921Y8593531D01*
X1170025Y8591499D01*
X1166622Y8590584D01*
X1158595Y8589873D01*
X1149146Y8587333D01*
X1140206Y8583218D01*
X1132179Y8577580D01*
X1125220Y8570620D01*
X1119581Y8562594D01*
X1115466Y8553653D01*
X1112926Y8544204D01*
X1112062Y8534400D01*
X1112926Y8524595D01*
X1115466Y8515146D01*
X1119581Y8506206D01*
X1125220Y8498179D01*
X1132179Y8491220D01*
X1140206Y8485581D01*
X1149146Y8481466D01*
X1158595Y8478926D01*
X1168400Y8478062D01*
X1170736Y8478266D01*
X1174902Y8477758D01*
X1178509Y8475624D01*
X1180947Y8472220D01*
X1181760Y8468156D01*
X1181760Y8424265D01*
X1182471Y8417966D01*
X1184402Y8412480D01*
X1186535Y8409127D01*
X1187907Y8405622D01*
X1187907Y8401812D01*
X1186535Y8398306D01*
X1184402Y8394954D01*
X1182471Y8389467D01*
X1181760Y8383168D01*
X1181760Y8368944D01*
X1222502Y8368944D01*
X1222502Y8387638D01*
X1223264Y8391550D01*
X1225448Y8394852D01*
X1228750Y8397036D01*
X1232662Y8397798D01*
X1237742Y8397798D01*
X1241602Y8397036D01*
X1244904Y8394852D01*
X1247140Y8391550D01*
X1247902Y8387638D01*
X1247902Y8368944D01*
X1266596Y8368944D01*
X1270508Y8368131D01*
X1273810Y8365947D01*
X1275994Y8362645D01*
X1276756Y8358784D01*
X1276756Y8353704D01*
X1275994Y8349792D01*
X1273810Y8346490D01*
X1270508Y8344306D01*
X1266596Y8343544D01*
X1247902Y8343544D01*
X1247902Y8292642D01*
X1247038Y8288578D01*
X1244600Y8285175D01*
X1244600Y8271408D01*
X1281430Y8271408D01*
X1285341Y8270646D01*
X1288592Y8268411D01*
X1290828Y8265109D01*
X1291590Y8261248D01*
X1291590Y8256168D01*
X1290828Y8252256D01*
X1288592Y8249005D01*
X1285341Y8246770D01*
X1281430Y8246008D01*
X1244600Y8246008D01*
X1244600Y8225281D01*
X1243838Y8221370D01*
X1241602Y8218068D01*
X1238351Y8215884D01*
X1234440Y8215122D01*
X1229360Y8215122D01*
X1225448Y8215884D01*
X1222197Y8218068D01*
X1219962Y8221370D01*
X1219200Y8225281D01*
X1219200Y8246008D01*
X1179017Y8246008D01*
X1179017Y8219795D01*
X1179728Y8213445D01*
X1181760Y8207552D01*
X1182319Y8204200D01*
X1181760Y8200847D01*
X1179728Y8194954D01*
X1179017Y8188604D01*
X1179017Y8121192D01*
X1178204Y8117331D01*
X1176020Y8114030D01*
X1172921Y8110931D01*
X1170025Y8108899D01*
X1166622Y8107984D01*
X1158595Y8107273D01*
X1149146Y8104733D01*
X1140206Y8100618D01*
X1132179Y8094980D01*
X1125220Y8088020D01*
X1119581Y8079994D01*
X1115466Y8071053D01*
X1112926Y8061604D01*
X1112062Y8051800D01*
X1112926Y8041995D01*
X1115466Y8032546D01*
X1119581Y8023606D01*
X1125220Y8015579D01*
X1132179Y8008620D01*
X1140206Y8002981D01*
X1149146Y7998866D01*
X1158595Y7996326D01*
X1168400Y7995462D01*
X1170736Y7995666D01*
X1174902Y7995158D01*
X1178509Y7993024D01*
X1180947Y7989620D01*
X1181760Y7985556D01*
X1181760Y7941665D01*
X1182471Y7935366D01*
X1184402Y7929880D01*
X1186535Y7926527D01*
X1187907Y7923022D01*
X1187907Y7919212D01*
X1186535Y7915706D01*
X1184402Y7912353D01*
X1182471Y7906867D01*
X1181760Y7900568D01*
X1181760Y7886344D01*
X1222502Y7886344D01*
X1222502Y7905038D01*
X1223264Y7908950D01*
X1225448Y7912252D01*
X1228750Y7914436D01*
X1232662Y7915198D01*
X1237742Y7915198D01*
X1241602Y7914436D01*
X1244904Y7912252D01*
X1247140Y7908950D01*
X1247902Y7905038D01*
X1247902Y7886344D01*
X1266596Y7886344D01*
X1270508Y7885531D01*
X1273810Y7883347D01*
X1275994Y7880045D01*
X1276756Y7876184D01*
X1276756Y7871104D01*
X1275994Y7867192D01*
X1273810Y7863890D01*
X1270508Y7861706D01*
X1266596Y7860944D01*
X1247902Y7860944D01*
X1247902Y7810042D01*
X1247038Y7805978D01*
X1244600Y7802575D01*
X1244600Y7788808D01*
X1281430Y7788808D01*
X1285341Y7788046D01*
X1288592Y7785811D01*
X1290828Y7782509D01*
X1291590Y7778648D01*
X1291590Y7773568D01*
X1290828Y7769656D01*
X1288592Y7766405D01*
X1285341Y7764170D01*
X1281430Y7763408D01*
X1244600Y7763408D01*
X1244600Y7742681D01*
X1243838Y7738770D01*
X1241602Y7735468D01*
X1238351Y7733284D01*
X1234440Y7732522D01*
X1229360Y7732522D01*
X1225448Y7733284D01*
X1222197Y7735468D01*
X1219962Y7738770D01*
X1219200Y7742681D01*
X1219200Y7763408D01*
X1179017Y7763408D01*
X1179017Y7737195D01*
X1179728Y7730845D01*
X1181760Y7724952D01*
X1182319Y7721600D01*
X1181760Y7718247D01*
X1179728Y7712354D01*
X1179017Y7706004D01*
X1179017Y7638592D01*
X1178204Y7634731D01*
X1176020Y7631430D01*
X1172921Y7628331D01*
X1170025Y7626299D01*
X1166622Y7625384D01*
X1158595Y7624673D01*
X1149146Y7622133D01*
X1140206Y7618018D01*
X1132179Y7612380D01*
X1125220Y7605420D01*
X1119581Y7597394D01*
X1115466Y7588453D01*
X1112926Y7579004D01*
X1112062Y7569200D01*
X1112926Y7559395D01*
X1115466Y7549946D01*
X1119581Y7541006D01*
X1125220Y7532979D01*
X1132179Y7526020D01*
X1140206Y7520381D01*
X1149146Y7516266D01*
X1158595Y7513726D01*
X1168400Y7512862D01*
X1170736Y7513066D01*
X1174902Y7512558D01*
X1178509Y7510424D01*
X1180947Y7507020D01*
X1181760Y7502956D01*
X1181760Y7459065D01*
X1182471Y7452766D01*
X1184402Y7447280D01*
X1186535Y7443927D01*
X1187907Y7440422D01*
X1187907Y7436612D01*
X1186535Y7433106D01*
X1184402Y7429753D01*
X1182471Y7424267D01*
X1181760Y7417968D01*
X1181760Y7403744D01*
X1222502Y7403744D01*
X1222502Y7422438D01*
X1223264Y7426350D01*
X1225448Y7429652D01*
X1228750Y7431836D01*
X1232662Y7432598D01*
X1237742Y7432598D01*
X1241602Y7431836D01*
X1244904Y7429652D01*
X1247140Y7426350D01*
X1247902Y7422438D01*
X1247902Y7403744D01*
X1266596Y7403744D01*
X1270508Y7402931D01*
X1273810Y7400747D01*
X1275994Y7397445D01*
X1276756Y7393584D01*
X1276756Y7388504D01*
X1275994Y7384592D01*
X1273810Y7381290D01*
X1270508Y7379106D01*
X1266596Y7378344D01*
X1247902Y7378344D01*
X1247902Y7327442D01*
X1247038Y7323378D01*
X1244600Y7319975D01*
X1244600Y7306208D01*
X1281430Y7306208D01*
X1285341Y7305446D01*
X1288592Y7303211D01*
X1290828Y7299909D01*
X1291590Y7296048D01*
X1291590Y7290968D01*
X1290828Y7287056D01*
X1288592Y7283805D01*
X1285341Y7281570D01*
X1281430Y7280808D01*
X1244600Y7280808D01*
X1244600Y7260081D01*
X1243838Y7256170D01*
X1241602Y7252868D01*
X1238351Y7250684D01*
X1234440Y7249922D01*
X1229360Y7249922D01*
X1225448Y7250684D01*
X1222197Y7252868D01*
X1219962Y7256170D01*
X1219200Y7260081D01*
X1219200Y7280808D01*
X1179017Y7280808D01*
X1179017Y7254595D01*
X1179728Y7248245D01*
X1181760Y7242352D01*
X1182319Y7239000D01*
X1181760Y7235647D01*
X1179728Y7229754D01*
X1179017Y7223404D01*
X1179017Y7155992D01*
X1178204Y7152131D01*
X1176020Y7148830D01*
X1172921Y7145731D01*
X1170025Y7143699D01*
X1166622Y7142784D01*
X1158595Y7142073D01*
X1149146Y7139533D01*
X1140206Y7135418D01*
X1132179Y7129780D01*
X1125220Y7122820D01*
X1119581Y7114794D01*
X1115466Y7105853D01*
X1112926Y7096404D01*
X1112062Y7086600D01*
X1112926Y7076795D01*
X1115466Y7067346D01*
X1119581Y7058406D01*
X1125220Y7050379D01*
X1132179Y7043420D01*
X1140206Y7037781D01*
X1149146Y7033666D01*
X1158595Y7031126D01*
X1168400Y7030262D01*
X1170736Y7030466D01*
X1174902Y7029958D01*
X1178509Y7027824D01*
X1180947Y7024420D01*
X1181760Y7020356D01*
X1181760Y6976465D01*
X1182471Y6970166D01*
X1184402Y6964680D01*
X1186535Y6961327D01*
X1187907Y6957822D01*
X1187907Y6954012D01*
X1186535Y6950506D01*
X1184402Y6947153D01*
X1182471Y6941667D01*
X1181760Y6935368D01*
X1181760Y6921144D01*
X1222502Y6921144D01*
X1222502Y6939838D01*
X1223264Y6943750D01*
X1225448Y6947052D01*
X1228750Y6949236D01*
X1232662Y6949998D01*
X1237742Y6949998D01*
X1241602Y6949236D01*
X1244904Y6947052D01*
X1247140Y6943750D01*
X1247902Y6939838D01*
X1247902Y6921144D01*
X1266596Y6921144D01*
X1270508Y6920331D01*
X1273810Y6918147D01*
X1275994Y6914845D01*
X1276756Y6910984D01*
X1276756Y6905904D01*
X1275994Y6901992D01*
X1273810Y6898690D01*
X1270508Y6896506D01*
X1266596Y6895744D01*
X1247902Y6895744D01*
X1247902Y6844842D01*
X1247038Y6840778D01*
X1244600Y6837375D01*
X1244600Y6823608D01*
X1281430Y6823608D01*
X1285341Y6822846D01*
X1288592Y6820611D01*
X1290828Y6817309D01*
X1291590Y6813448D01*
X1291590Y6808368D01*
X1290828Y6804456D01*
X1288592Y6801205D01*
X1285341Y6798970D01*
X1281430Y6798208D01*
X1244600Y6798208D01*
X1244600Y6777481D01*
X1243838Y6773570D01*
X1241602Y6770268D01*
X1238351Y6768084D01*
X1234440Y6767322D01*
X1229360Y6767322D01*
X1225448Y6768084D01*
X1222197Y6770268D01*
X1219962Y6773570D01*
X1219200Y6777481D01*
X1219200Y6798208D01*
X1179017Y6798208D01*
X1179017Y6771995D01*
X1179728Y6765645D01*
X1181760Y6759752D01*
X1182319Y6756400D01*
X1181760Y6753047D01*
X1179728Y6747154D01*
X1179017Y6740804D01*
X1179017Y6673392D01*
X1178204Y6669531D01*
X1176020Y6666230D01*
X1172921Y6663131D01*
X1170025Y6661099D01*
X1166622Y6660184D01*
X1158595Y6659473D01*
X1149146Y6656933D01*
X1140206Y6652818D01*
X1132179Y6647180D01*
X1125220Y6640220D01*
X1119581Y6632194D01*
X1115466Y6623253D01*
X1112926Y6613804D01*
X1112062Y6604000D01*
X1112926Y6594195D01*
X1115466Y6584746D01*
X1119581Y6575806D01*
X1125220Y6567779D01*
X1132179Y6560820D01*
X1140206Y6555181D01*
X1149146Y6551066D01*
X1158595Y6548526D01*
X1168400Y6547662D01*
X1170736Y6547866D01*
X1174902Y6547357D01*
X1178509Y6545224D01*
X1180947Y6541820D01*
X1181760Y6537756D01*
X1181760Y6493865D01*
X1182471Y6487566D01*
X1184402Y6482080D01*
X1186535Y6478727D01*
X1187907Y6475222D01*
X1187907Y6471412D01*
X1186535Y6467906D01*
X1184402Y6464554D01*
X1182471Y6459067D01*
X1181760Y6452768D01*
X1181760Y6438544D01*
X1222502Y6438544D01*
X1222502Y6457238D01*
X1223264Y6461150D01*
X1225448Y6464452D01*
X1228750Y6466636D01*
X1232662Y6467398D01*
X1237742Y6467398D01*
X1241602Y6466636D01*
X1244904Y6464452D01*
X1247140Y6461150D01*
X1247902Y6457238D01*
X1247902Y6438544D01*
X1266596Y6438544D01*
X1270508Y6437731D01*
X1273810Y6435547D01*
X1275994Y6432245D01*
X1276756Y6428384D01*
X1276756Y6423304D01*
X1275994Y6419392D01*
X1273810Y6416090D01*
X1270508Y6413906D01*
X1266596Y6413144D01*
X1247902Y6413144D01*
X1247902Y6362242D01*
X1247038Y6358178D01*
X1244600Y6354775D01*
X1244600Y6341008D01*
X1281430Y6341008D01*
X1285341Y6340246D01*
X1288592Y6338011D01*
X1290828Y6334709D01*
X1291590Y6330848D01*
X1291590Y6325768D01*
X1290828Y6321856D01*
X1288592Y6318605D01*
X1285341Y6316370D01*
X1281430Y6315608D01*
X1244600Y6315608D01*
X1244600Y6294882D01*
X1243838Y6290970D01*
X1241602Y6287668D01*
X1238351Y6285484D01*
X1234440Y6284722D01*
X1229360Y6284722D01*
X1225448Y6285484D01*
X1222197Y6287668D01*
X1219962Y6290970D01*
X1219200Y6294882D01*
X1219200Y6315608D01*
X1179017Y6315608D01*
X1179017Y6289395D01*
X1179728Y6283045D01*
X1181760Y6277152D01*
X1182319Y6273800D01*
X1181760Y6270447D01*
X1179728Y6264554D01*
X1179017Y6258204D01*
X1179017Y6190792D01*
X1178204Y6186932D01*
X1176020Y6183630D01*
X1172921Y6180531D01*
X1170025Y6178499D01*
X1166622Y6177584D01*
X1158595Y6176873D01*
X1149146Y6174333D01*
X1140206Y6170218D01*
X1132179Y6164580D01*
X1125220Y6157620D01*
X1119581Y6149594D01*
X1115466Y6140653D01*
X1112926Y6131204D01*
X1112062Y6121400D01*
X1112926Y6111595D01*
X1115466Y6102146D01*
X1119581Y6093206D01*
X1125220Y6085179D01*
X1132179Y6078220D01*
X1140206Y6072581D01*
X1149146Y6068466D01*
X1158595Y6065926D01*
X1168400Y6065062D01*
X1170736Y6065266D01*
X1174902Y6064758D01*
X1178509Y6062624D01*
X1180947Y6059220D01*
X1181760Y6055156D01*
X1181760Y6011265D01*
X1182471Y6004966D01*
X1184402Y5999480D01*
X1186535Y5996127D01*
X1187907Y5992622D01*
X1187907Y5988812D01*
X1186535Y5985306D01*
X1184402Y5981954D01*
X1182471Y5976467D01*
X1181760Y5970168D01*
X1181760Y5955944D01*
X1222502Y5955944D01*
X1222502Y5974638D01*
X1223264Y5978550D01*
X1225448Y5981852D01*
X1228750Y5984036D01*
X1232662Y5984798D01*
X1237742Y5984798D01*
X1241602Y5984036D01*
X1244904Y5981852D01*
X1247140Y5978550D01*
X1247902Y5974638D01*
X1247902Y5955944D01*
X1266596Y5955944D01*
X1270508Y5955131D01*
X1273810Y5952947D01*
X1275994Y5949645D01*
X1276756Y5945784D01*
X1276756Y5940704D01*
X1275994Y5936792D01*
X1273810Y5933490D01*
X1270508Y5931306D01*
X1266596Y5930544D01*
X1247902Y5930544D01*
X1247902Y5879642D01*
X1247038Y5875578D01*
X1244600Y5872175D01*
X1244600Y5858408D01*
X1281430Y5858408D01*
X1285341Y5857646D01*
X1288592Y5855411D01*
X1290828Y5852109D01*
X1291590Y5848248D01*
X1291590Y5843168D01*
X1290828Y5839256D01*
X1288592Y5836005D01*
X1285341Y5833770D01*
X1281430Y5833008D01*
X1244600Y5833008D01*
X1244600Y5812282D01*
X1243838Y5808370D01*
X1241602Y5805068D01*
X1238351Y5802884D01*
X1234440Y5802122D01*
X1229360Y5802122D01*
X1225448Y5802884D01*
X1222197Y5805068D01*
X1219962Y5808370D01*
X1219200Y5812282D01*
X1219200Y5833008D01*
X1179017Y5833008D01*
X1179017Y5806795D01*
X1179728Y5800445D01*
X1181760Y5794552D01*
X1182319Y5791200D01*
X1181760Y5787847D01*
X1179728Y5781954D01*
X1179017Y5775604D01*
X1179017Y5708192D01*
X1178204Y5704332D01*
X1176020Y5701030D01*
X1172921Y5697931D01*
X1170025Y5695899D01*
X1166622Y5694984D01*
X1158595Y5694273D01*
X1149146Y5691733D01*
X1140206Y5687618D01*
X1132179Y5681980D01*
X1125220Y5675020D01*
X1119581Y5666994D01*
X1115466Y5658053D01*
X1112926Y5648604D01*
X1112062Y5638800D01*
X1112926Y5628995D01*
X1115466Y5619546D01*
X1119581Y5610606D01*
X1125220Y5602579D01*
X1132179Y5595620D01*
X1140206Y5589981D01*
X1149146Y5585866D01*
X1158595Y5583326D01*
X1168400Y5582462D01*
X1170736Y5582666D01*
X1174902Y5582158D01*
X1178509Y5580024D01*
X1180947Y5576620D01*
X1181760Y5572556D01*
X1181760Y5528665D01*
X1182471Y5522366D01*
X1184402Y5516880D01*
X1186535Y5513527D01*
X1187907Y5510022D01*
X1187907Y5506212D01*
X1186535Y5502706D01*
X1184402Y5499354D01*
X1182471Y5493867D01*
X1181760Y5487568D01*
X1181760Y5473344D01*
X1222502Y5473344D01*
X1222502Y5492038D01*
X1223264Y5495950D01*
X1225448Y5499252D01*
X1228750Y5501436D01*
X1232662Y5502198D01*
X1237742Y5502198D01*
X1241602Y5501436D01*
X1244904Y5499252D01*
X1247140Y5495950D01*
X1247902Y5492038D01*
X1247902Y5473344D01*
X1266596Y5473344D01*
X1270508Y5472531D01*
X1273810Y5470347D01*
X1275994Y5467045D01*
X1276756Y5463184D01*
X1276756Y5458104D01*
X1275994Y5454192D01*
X1273810Y5450890D01*
X1270508Y5448706D01*
X1266596Y5447944D01*
X1247902Y5447944D01*
X1247902Y5397042D01*
X1247038Y5392978D01*
X1244600Y5389575D01*
X1244600Y5375808D01*
X1281430Y5375808D01*
X1285341Y5375046D01*
X1288592Y5372811D01*
X1290828Y5369509D01*
X1291590Y5365648D01*
X1291590Y5360568D01*
X1290828Y5356656D01*
X1288592Y5353405D01*
X1285341Y5351170D01*
X1281430Y5350408D01*
X1244600Y5350408D01*
X1244600Y5329682D01*
X1243838Y5325770D01*
X1241602Y5322468D01*
X1238351Y5320284D01*
X1234440Y5319522D01*
X1229360Y5319522D01*
X1225448Y5320284D01*
X1222197Y5322468D01*
X1219962Y5325770D01*
X1219200Y5329682D01*
X1219200Y5350408D01*
X1179017Y5350408D01*
X1179017Y5324195D01*
X1179728Y5317845D01*
X1181760Y5311952D01*
X1182319Y5308600D01*
X1181760Y5305247D01*
X1179728Y5299354D01*
X1179017Y5293004D01*
X1179017Y5225592D01*
X1178204Y5221732D01*
X1176020Y5218430D01*
X1172921Y5215331D01*
X1170025Y5213299D01*
X1166622Y5212384D01*
X1158595Y5211673D01*
X1149146Y5209133D01*
X1140206Y5205018D01*
X1132179Y5199380D01*
X1125220Y5192420D01*
X1119581Y5184394D01*
X1115466Y5175453D01*
X1112926Y5166004D01*
X1112062Y5156200D01*
X1112926Y5146395D01*
X1115466Y5136946D01*
X1119581Y5128006D01*
X1125220Y5119979D01*
X1132179Y5113020D01*
X1140206Y5107381D01*
X1149146Y5103266D01*
X1158595Y5100726D01*
X1168400Y5099862D01*
X1170736Y5100066D01*
X1174902Y5099558D01*
X1178509Y5097424D01*
X1180947Y5094020D01*
X1181760Y5089956D01*
X1181760Y5046065D01*
X1182471Y5039766D01*
X1184402Y5034280D01*
X1186535Y5030927D01*
X1187907Y5027422D01*
X1187907Y5023612D01*
X1186535Y5020106D01*
X1184402Y5016754D01*
X1182471Y5011267D01*
X1181760Y5004968D01*
X1181760Y4990744D01*
X1222502Y4990744D01*
X1222502Y5009438D01*
X1223264Y5013350D01*
X1225448Y5016652D01*
X1228750Y5018836D01*
X1232662Y5019598D01*
X1237742Y5019598D01*
X1241602Y5018836D01*
X1244904Y5016652D01*
X1247140Y5013350D01*
X1247902Y5009438D01*
X1247902Y4990744D01*
X1266596Y4990744D01*
X1270508Y4989931D01*
X1273810Y4987747D01*
X1275994Y4984445D01*
X1276756Y4980584D01*
X1276756Y4975504D01*
X1275994Y4971592D01*
X1273810Y4968290D01*
X1270508Y4966106D01*
X1266596Y4965344D01*
X1247902Y4965344D01*
X1247902Y4914442D01*
X1247038Y4910378D01*
X1244600Y4906975D01*
X1244600Y4893208D01*
X1281430Y4893208D01*
X1285341Y4892446D01*
X1288592Y4890211D01*
X1290828Y4886909D01*
X1291590Y4883048D01*
X1291590Y4877968D01*
X1290828Y4874056D01*
X1288592Y4870805D01*
X1285341Y4868570D01*
X1281430Y4867808D01*
X1244600Y4867808D01*
X1244600Y4847082D01*
X1243838Y4843170D01*
X1241602Y4839868D01*
X1238351Y4837684D01*
X1234440Y4836922D01*
X1229360Y4836922D01*
X1225448Y4837684D01*
X1222197Y4839868D01*
X1219962Y4843170D01*
X1219200Y4847082D01*
X1219200Y4867808D01*
X1179017Y4867808D01*
X1179017Y4841595D01*
X1179728Y4835245D01*
X1181760Y4829352D01*
X1182319Y4826000D01*
X1181760Y4822647D01*
X1179728Y4816754D01*
X1179017Y4810404D01*
X1179017Y4742992D01*
X1178204Y4739132D01*
X1176020Y4735830D01*
X1172921Y4732731D01*
X1170025Y4730699D01*
X1166622Y4729784D01*
X1158595Y4729073D01*
X1149146Y4726533D01*
X1140206Y4722418D01*
X1132179Y4716780D01*
X1125220Y4709820D01*
X1119581Y4701794D01*
X1115466Y4692853D01*
X1112926Y4683404D01*
X1112062Y4673600D01*
X1112926Y4663795D01*
X1115466Y4654346D01*
X1119581Y4645406D01*
X1125220Y4637379D01*
X1132179Y4630420D01*
X1140206Y4624781D01*
X1149146Y4620666D01*
X1158595Y4618126D01*
X1168400Y4617262D01*
X1170736Y4617466D01*
X1174902Y4616958D01*
X1178509Y4614824D01*
X1180947Y4611420D01*
X1181760Y4607356D01*
X1181760Y4563465D01*
X1182471Y4557166D01*
X1184402Y4551680D01*
X1186535Y4548327D01*
X1187907Y4544822D01*
X1187907Y4541012D01*
X1186535Y4537506D01*
X1184402Y4534154D01*
X1182471Y4528667D01*
X1181760Y4522368D01*
X1181760Y4508144D01*
X1222502Y4508144D01*
X1222502Y4526838D01*
X1223264Y4530750D01*
X1225448Y4534052D01*
X1228750Y4536236D01*
X1232662Y4536998D01*
X1237742Y4536998D01*
X1241602Y4536236D01*
X1244904Y4534052D01*
X1247140Y4530750D01*
X1247902Y4526838D01*
X1247902Y4508144D01*
X1266596Y4508144D01*
X1270508Y4507331D01*
X1273810Y4505147D01*
X1275994Y4501845D01*
X1276756Y4497984D01*
X1276756Y4492904D01*
X1275994Y4488992D01*
X1273810Y4485690D01*
X1270508Y4483506D01*
X1266596Y4482744D01*
X1247902Y4482744D01*
X1247902Y4431842D01*
X1247038Y4427778D01*
X1244600Y4424375D01*
X1244600Y4410608D01*
X1281430Y4410608D01*
X1285341Y4409846D01*
X1288592Y4407611D01*
X1290828Y4404309D01*
X1291590Y4400448D01*
X1291590Y4395368D01*
X1290828Y4391456D01*
X1288592Y4388205D01*
X1285341Y4385970D01*
X1281430Y4385208D01*
X1244600Y4385208D01*
X1244600Y4364482D01*
X1243838Y4360570D01*
X1241602Y4357268D01*
X1238351Y4355084D01*
X1234440Y4354322D01*
X1229360Y4354322D01*
X1225448Y4355084D01*
X1222197Y4357268D01*
X1219962Y4360570D01*
X1219200Y4364482D01*
X1219200Y4385208D01*
X1179017Y4385208D01*
X1179017Y4358995D01*
X1179728Y4352645D01*
X1181760Y4346752D01*
X1182319Y4343400D01*
X1181760Y4340047D01*
X1179728Y4334154D01*
X1179017Y4327804D01*
X1179017Y4260392D01*
X1178204Y4256532D01*
X1176020Y4253230D01*
X1172921Y4250131D01*
X1170025Y4248099D01*
X1166622Y4247184D01*
X1158595Y4246473D01*
X1149146Y4243933D01*
X1140206Y4239818D01*
X1132179Y4234180D01*
X1125220Y4227220D01*
X1119581Y4219194D01*
X1115466Y4210253D01*
X1112926Y4200804D01*
X1112062Y4191000D01*
X1112926Y4181195D01*
X1115466Y4171746D01*
X1119581Y4162806D01*
X1125220Y4154779D01*
X1132179Y4147820D01*
X1140206Y4142181D01*
X1149146Y4138066D01*
X1158595Y4135526D01*
X1168400Y4134662D01*
X1170736Y4134865D01*
X1174902Y4134358D01*
X1178509Y4132224D01*
X1180947Y4128820D01*
X1181760Y4124756D01*
X1181760Y4080865D01*
X1182471Y4074566D01*
X1184402Y4069079D01*
X1186535Y4065727D01*
X1187907Y4062222D01*
X1187907Y4058412D01*
X1186535Y4054906D01*
X1184402Y4051554D01*
X1182471Y4046067D01*
X1181760Y4039768D01*
X1181760Y4025544D01*
X1222502Y4025544D01*
X1222502Y4044238D01*
X1223264Y4048150D01*
X1225448Y4051452D01*
X1228750Y4053636D01*
X1232662Y4054398D01*
X1237742Y4054398D01*
X1241602Y4053636D01*
X1244904Y4051452D01*
X1247140Y4048150D01*
X1247902Y4044238D01*
X1247902Y4025544D01*
X1266596Y4025544D01*
X1270508Y4024731D01*
X1273810Y4022547D01*
X1275994Y4019245D01*
X1276756Y4015384D01*
X1276756Y4010304D01*
X1275994Y4006392D01*
X1273810Y4003090D01*
X1270508Y4000906D01*
X1266596Y4000144D01*
X1247902Y4000144D01*
X1247902Y3959402D01*
X1262126Y3959402D01*
X1268425Y3960114D01*
X1273911Y3962044D01*
X1276045Y3963365D01*
X1280058Y3964838D01*
X1284376Y3964482D01*
X1288135Y3962400D01*
X1290675Y3958945D01*
X1291590Y3954779D01*
X1291590Y3858768D01*
X1290828Y3854856D01*
X1288592Y3851605D01*
X1285341Y3849370D01*
X1281430Y3848608D01*
X1061008Y3848608D01*
X1057097Y3849370D01*
X1053795Y3851605D01*
X1052220Y3853179D01*
X1044194Y3858818D01*
X1035253Y3862933D01*
X1025804Y3865473D01*
X1016000Y3866337D01*
X1006195Y3865473D01*
X996746Y3862933D01*
X987806Y3858818D01*
X979779Y3853179D01*
X972819Y3846220D01*
X967181Y3838194D01*
X963066Y3829253D01*
X960526Y3819804D01*
X959662Y3810000D01*
X960526Y3800195D01*
X963066Y3790746D01*
X967181Y3781806D01*
X972819Y3773779D01*
X979779Y3766820D01*
X987806Y3761181D01*
X996746Y3757066D01*
X1006195Y3754526D01*
G37*
G36*
X1208278Y3959402D02*
G01*
X1222502Y3959402D01*
X1222502Y4000144D01*
X1181760Y4000144D01*
X1181760Y3985869D01*
X1182471Y3979570D01*
X1184402Y3974084D01*
X1187500Y3969207D01*
X1191564Y3965092D01*
X1196492Y3962044D01*
X1201928Y3960114D01*
G37*
G36*
X1798574Y11201400D02*
G01*
X1880920Y11201400D01*
X1878228Y11214557D01*
X1873859Y11226901D01*
X1867814Y11238534D01*
X1860296Y11249202D01*
X1851355Y11258753D01*
X1841195Y11267033D01*
X1830019Y11273840D01*
X1818030Y11279022D01*
X1805432Y11282578D01*
X1798574Y11283492D01*
G37*
G36*
X1179017Y4410608D02*
G01*
X1219200Y4410608D01*
X1219200Y4473498D01*
X1220063Y4477562D01*
X1222502Y4480966D01*
X1222502Y4482744D01*
X1181760Y4482744D01*
X1181760Y4468469D01*
X1182471Y4462170D01*
X1183589Y4458970D01*
X1184148Y4456023D01*
X1183843Y4453026D01*
X1181608Y4448606D01*
X1179728Y4443171D01*
X1179017Y4436821D01*
G37*
G36*
X1798574Y11093907D02*
G01*
X1805432Y11094821D01*
X1818030Y11098326D01*
X1830019Y11103559D01*
X1841195Y11110366D01*
X1851355Y11118646D01*
X1860296Y11128197D01*
X1867814Y11138865D01*
X1873859Y11150498D01*
X1878228Y11162842D01*
X1880920Y11176000D01*
X1798574Y11176000D01*
G37*
G36*
X1179017Y4893208D02*
G01*
X1219200Y4893208D01*
X1219200Y4956098D01*
X1220063Y4960162D01*
X1222502Y4963566D01*
X1222502Y4965344D01*
X1181760Y4965344D01*
X1181760Y4951069D01*
X1182471Y4944770D01*
X1183589Y4941570D01*
X1184148Y4938623D01*
X1183843Y4935626D01*
X1181608Y4931206D01*
X1179728Y4925771D01*
X1179017Y4919421D01*
G37*
G36*
X1110284Y11092789D02*
G01*
X1173226Y11092789D01*
X1173226Y11176000D01*
X1083818Y11176000D01*
X1083818Y11119256D01*
X1084529Y11112957D01*
X1086408Y11107470D01*
X1089507Y11102594D01*
X1093571Y11098479D01*
X1098499Y11095431D01*
X1103934Y11093500D01*
G37*
G36*
X1179017Y5375808D02*
G01*
X1219200Y5375808D01*
X1219200Y5438698D01*
X1220063Y5442762D01*
X1222502Y5446166D01*
X1222502Y5447944D01*
X1181760Y5447944D01*
X1181760Y5433669D01*
X1182471Y5427370D01*
X1183589Y5424170D01*
X1184148Y5421223D01*
X1183843Y5418226D01*
X1181608Y5413806D01*
X1179728Y5408371D01*
X1179017Y5402021D01*
G37*
G36*
X2413000Y10999317D02*
G01*
X2428138Y11000232D01*
X2443124Y11002975D01*
X2457602Y11007496D01*
X2471470Y11013744D01*
X2484475Y11021618D01*
X2496464Y11030966D01*
X2507183Y11041735D01*
X2516581Y11053673D01*
X2524455Y11066678D01*
X2530703Y11080546D01*
X2535224Y11095075D01*
X2537968Y11110010D01*
X2538882Y11125200D01*
X2537968Y11140389D01*
X2535224Y11155324D01*
X2530703Y11169853D01*
X2524455Y11183721D01*
X2516581Y11196726D01*
X2507183Y11208664D01*
X2496464Y11219434D01*
X2484475Y11228781D01*
X2471470Y11236655D01*
X2457602Y11242903D01*
X2443124Y11247424D01*
X2428138Y11250168D01*
X2413000Y11251082D01*
X2397810Y11250168D01*
X2382824Y11247424D01*
X2368346Y11242903D01*
X2354478Y11236655D01*
X2341473Y11228781D01*
X2329484Y11219434D01*
X2318766Y11208664D01*
X2309368Y11196726D01*
X2301494Y11183721D01*
X2295245Y11169853D01*
X2290724Y11155324D01*
X2287981Y11140389D01*
X2287066Y11125200D01*
X2287981Y11110010D01*
X2290724Y11095075D01*
X2295245Y11080546D01*
X2301494Y11066678D01*
X2309368Y11053673D01*
X2318766Y11041735D01*
X2329484Y11030966D01*
X2341473Y11021618D01*
X2354478Y11013744D01*
X2368346Y11007496D01*
X2382824Y11002975D01*
X2397810Y11000232D01*
G37*
G36*
X1179017Y5858408D02*
G01*
X1219200Y5858408D01*
X1219200Y5921298D01*
X1220063Y5925362D01*
X1222502Y5928766D01*
X1222502Y5930544D01*
X1181760Y5930544D01*
X1181760Y5916269D01*
X1182471Y5909970D01*
X1183589Y5906770D01*
X1184148Y5903823D01*
X1183843Y5900826D01*
X1181608Y5896406D01*
X1179728Y5890971D01*
X1179017Y5884621D01*
G37*
G36*
X584200Y10999317D02*
G01*
X599389Y11000232D01*
X614324Y11002975D01*
X628853Y11007496D01*
X642721Y11013744D01*
X655726Y11021618D01*
X667664Y11030966D01*
X678434Y11041735D01*
X687781Y11053673D01*
X695655Y11066678D01*
X701903Y11080546D01*
X706424Y11095075D01*
X709168Y11110010D01*
X710082Y11125200D01*
X709168Y11140389D01*
X706424Y11155324D01*
X701903Y11169853D01*
X695655Y11183721D01*
X687781Y11196726D01*
X678434Y11208664D01*
X667664Y11219434D01*
X655726Y11228781D01*
X642721Y11236655D01*
X628853Y11242903D01*
X614324Y11247424D01*
X599389Y11250168D01*
X584200Y11251082D01*
X569010Y11250168D01*
X554075Y11247424D01*
X539546Y11242903D01*
X525678Y11236655D01*
X512673Y11228781D01*
X500735Y11219434D01*
X489966Y11208664D01*
X480618Y11196726D01*
X472744Y11183721D01*
X466496Y11169853D01*
X461975Y11155324D01*
X459232Y11140389D01*
X458317Y11125200D01*
X459232Y11110010D01*
X461975Y11095075D01*
X466496Y11080546D01*
X472744Y11066678D01*
X480618Y11053673D01*
X489966Y11041735D01*
X500735Y11030966D01*
X512673Y11021618D01*
X525678Y11013744D01*
X539546Y11007496D01*
X554075Y11002975D01*
X569010Y11000232D01*
G37*
G36*
X1179017Y6341008D02*
G01*
X1219200Y6341008D01*
X1219200Y6403898D01*
X1220063Y6407962D01*
X1222502Y6411366D01*
X1222502Y6413144D01*
X1181760Y6413144D01*
X1181760Y6398869D01*
X1182471Y6392570D01*
X1183589Y6389370D01*
X1184148Y6386423D01*
X1183843Y6383426D01*
X1181608Y6379006D01*
X1179728Y6373571D01*
X1179017Y6367221D01*
G37*
G36*
X1168400Y10878362D02*
G01*
X1178204Y10879226D01*
X1187653Y10881766D01*
X1189990Y10882833D01*
X1194308Y10883798D01*
X1561592Y10883798D01*
X1565910Y10882833D01*
X1568246Y10881766D01*
X1577695Y10879226D01*
X1587500Y10878362D01*
X1597304Y10879226D01*
X1606753Y10881766D01*
X1609090Y10882833D01*
X1613408Y10883798D01*
X1879092Y10883798D01*
X1883410Y10882833D01*
X1885746Y10881766D01*
X1895195Y10879226D01*
X1905000Y10878362D01*
X1914804Y10879226D01*
X1924253Y10881766D01*
X1933193Y10885881D01*
X1941220Y10891520D01*
X1948180Y10898479D01*
X1953818Y10906506D01*
X1957933Y10915446D01*
X1960473Y10924895D01*
X1961337Y10934700D01*
X1960473Y10944504D01*
X1957933Y10953953D01*
X1953818Y10962894D01*
X1948180Y10970920D01*
X1941220Y10977880D01*
X1933193Y10983518D01*
X1924253Y10987633D01*
X1914804Y10990173D01*
X1905000Y10991037D01*
X1895195Y10990173D01*
X1885746Y10987633D01*
X1883410Y10986566D01*
X1879092Y10985601D01*
X1613408Y10985601D01*
X1609090Y10986566D01*
X1606753Y10987633D01*
X1597304Y10990173D01*
X1587500Y10991037D01*
X1577695Y10990173D01*
X1568246Y10987633D01*
X1565910Y10986566D01*
X1561592Y10985601D01*
X1194308Y10985601D01*
X1189990Y10986566D01*
X1187653Y10987633D01*
X1178204Y10990173D01*
X1168400Y10991037D01*
X1158595Y10990173D01*
X1149146Y10987633D01*
X1140206Y10983518D01*
X1132179Y10977880D01*
X1125220Y10970920D01*
X1119581Y10962894D01*
X1115466Y10953953D01*
X1112926Y10944504D01*
X1112062Y10934700D01*
X1112926Y10924895D01*
X1115466Y10915446D01*
X1119581Y10906506D01*
X1125220Y10898479D01*
X1132179Y10891520D01*
X1140206Y10885881D01*
X1149146Y10881766D01*
X1158595Y10879226D01*
G37*
G36*
X1179017Y6823608D02*
G01*
X1219200Y6823608D01*
X1219200Y6886498D01*
X1220063Y6890562D01*
X1222502Y6893966D01*
X1222502Y6895744D01*
X1181760Y6895744D01*
X1181760Y6881469D01*
X1182471Y6875170D01*
X1183589Y6871970D01*
X1184148Y6869023D01*
X1183843Y6866026D01*
X1181608Y6861606D01*
X1179728Y6856171D01*
X1179017Y6849821D01*
G37*
G36*
X1752600Y10608208D02*
G01*
X1792782Y10608208D01*
X1792782Y10634421D01*
X1792071Y10640771D01*
X1790192Y10646206D01*
X1787093Y10651134D01*
X1783029Y10655198D01*
X1778101Y10658297D01*
X1772666Y10660227D01*
X1766316Y10660938D01*
X1752600Y10660938D01*
G37*
G36*
X1179017Y7306208D02*
G01*
X1219200Y7306208D01*
X1219200Y7369098D01*
X1220063Y7373162D01*
X1222502Y7376566D01*
X1222502Y7378344D01*
X1181760Y7378344D01*
X1181760Y7364069D01*
X1182471Y7357770D01*
X1183589Y7354570D01*
X1184148Y7351623D01*
X1183843Y7348626D01*
X1181608Y7344206D01*
X1179728Y7338771D01*
X1179017Y7332421D01*
G37*
G36*
X2413000Y1766417D02*
G01*
X2428138Y1767332D01*
X2443124Y1770075D01*
X2457602Y1774596D01*
X2471470Y1780844D01*
X2484475Y1788718D01*
X2496464Y1798066D01*
X2507183Y1808835D01*
X2516581Y1820773D01*
X2524455Y1833778D01*
X2530703Y1847646D01*
X2535224Y1862175D01*
X2537968Y1877110D01*
X2538882Y1892300D01*
X2537968Y1907489D01*
X2535224Y1922424D01*
X2530703Y1936953D01*
X2524455Y1950821D01*
X2516581Y1963826D01*
X2507183Y1975764D01*
X2496464Y1986534D01*
X2484475Y1995881D01*
X2471470Y2003755D01*
X2457602Y2010003D01*
X2443124Y2014524D01*
X2428138Y2017268D01*
X2413000Y2018182D01*
X2397810Y2017268D01*
X2382824Y2014524D01*
X2368346Y2010003D01*
X2354478Y2003755D01*
X2341473Y1995881D01*
X2329484Y1986534D01*
X2318766Y1975764D01*
X2309368Y1963826D01*
X2301494Y1950821D01*
X2295245Y1936953D01*
X2290724Y1922424D01*
X2287981Y1907489D01*
X2287066Y1892300D01*
X2287981Y1877110D01*
X2290724Y1862175D01*
X2295245Y1847646D01*
X2301494Y1833778D01*
X2309368Y1820773D01*
X2318766Y1808835D01*
X2329484Y1798066D01*
X2341473Y1788718D01*
X2354478Y1780844D01*
X2368346Y1774596D01*
X2382824Y1770075D01*
X2397810Y1767332D01*
G37*
G36*
X1179017Y7788808D02*
G01*
X1219200Y7788808D01*
X1219200Y7851698D01*
X1220063Y7855762D01*
X1222502Y7859166D01*
X1222502Y7860944D01*
X1181760Y7860944D01*
X1181760Y7846669D01*
X1182471Y7840370D01*
X1183589Y7837170D01*
X1184148Y7834223D01*
X1183843Y7831226D01*
X1181608Y7826806D01*
X1179728Y7821371D01*
X1179017Y7815021D01*
G37*
G36*
X1179017Y10201808D02*
G01*
X1219200Y10201808D01*
X1219200Y10264698D01*
X1220063Y10268762D01*
X1222502Y10272166D01*
X1222502Y10273944D01*
X1181760Y10273944D01*
X1181760Y10259669D01*
X1182471Y10253370D01*
X1183589Y10250170D01*
X1184148Y10247223D01*
X1183843Y10244226D01*
X1181608Y10239806D01*
X1179728Y10234371D01*
X1179017Y10228021D01*
G37*
G36*
X1179017Y8271408D02*
G01*
X1219200Y8271408D01*
X1219200Y8334298D01*
X1220063Y8338362D01*
X1222502Y8341766D01*
X1222502Y8343544D01*
X1181760Y8343544D01*
X1181760Y8329269D01*
X1182471Y8322970D01*
X1183589Y8319770D01*
X1184148Y8316823D01*
X1183843Y8313826D01*
X1181608Y8309406D01*
X1179728Y8303971D01*
X1179017Y8297621D01*
G37*
G36*
X1179017Y9719208D02*
G01*
X1219200Y9719208D01*
X1219200Y9782098D01*
X1220063Y9786162D01*
X1222502Y9789566D01*
X1222502Y9791344D01*
X1181760Y9791344D01*
X1181760Y9777069D01*
X1182471Y9770770D01*
X1183589Y9767570D01*
X1184148Y9764623D01*
X1183843Y9761626D01*
X1181608Y9757206D01*
X1179728Y9751771D01*
X1179017Y9745421D01*
G37*
G36*
X1179017Y8754008D02*
G01*
X1219200Y8754008D01*
X1219200Y8816898D01*
X1220063Y8820962D01*
X1222502Y8824366D01*
X1222502Y8826144D01*
X1181760Y8826144D01*
X1181760Y8811869D01*
X1182471Y8805570D01*
X1183589Y8802370D01*
X1184148Y8799423D01*
X1183843Y8796426D01*
X1181608Y8792006D01*
X1179728Y8786571D01*
X1179017Y8780221D01*
G37*
G36*
X1179017Y9236608D02*
G01*
X1219200Y9236608D01*
X1219200Y9299498D01*
X1220063Y9303562D01*
X1222502Y9306966D01*
X1222502Y9308744D01*
X1181760Y9308744D01*
X1181760Y9294469D01*
X1182471Y9288170D01*
X1183589Y9284970D01*
X1184148Y9282023D01*
X1183843Y9279026D01*
X1181608Y9274606D01*
X1179728Y9269171D01*
X1179017Y9262821D01*
G37*

%LPD*%
G36*
X1623568Y10165994D02*
G01*
X1619656Y10166756D01*
X1616405Y10168940D01*
X1614170Y10172242D01*
X1613408Y10176154D01*
X1613408Y10226751D01*
X1614170Y10230662D01*
X1616405Y10233964D01*
X1619656Y10236149D01*
X1623568Y10236911D01*
X1628901Y10236911D01*
X1628901Y10277652D01*
X1623568Y10277652D01*
X1619656Y10278414D01*
X1616405Y10280599D01*
X1614170Y10283901D01*
X1613408Y10287812D01*
X1613408Y10292892D01*
X1614170Y10296753D01*
X1616405Y10300055D01*
X1619656Y10302240D01*
X1623568Y10303052D01*
X1628901Y10303052D01*
X1628901Y10321747D01*
X1629664Y10325658D01*
X1631848Y10328960D01*
X1635150Y10331145D01*
X1639062Y10331907D01*
X1644142Y10331907D01*
X1648002Y10331145D01*
X1651304Y10328960D01*
X1653539Y10325658D01*
X1654302Y10321747D01*
X1654302Y10303052D01*
X1672996Y10303052D01*
X1676907Y10302240D01*
X1680210Y10300055D01*
X1682394Y10296753D01*
X1683156Y10292892D01*
X1683156Y10287812D01*
X1682394Y10283901D01*
X1680210Y10280599D01*
X1676907Y10278414D01*
X1672996Y10277652D01*
X1654302Y10277652D01*
X1654302Y10236911D01*
X1668525Y10236911D01*
X1673707Y10237520D01*
X1677822Y10237114D01*
X1681480Y10235133D01*
X1684020Y10231831D01*
X1684985Y10227767D01*
X1684274Y10223703D01*
X1682038Y10220248D01*
X1630730Y10168940D01*
X1627479Y10166756D01*
G37*

%LPD*%
G36*
X1623568Y9683394D02*
G01*
X1619656Y9684156D01*
X1616405Y9686340D01*
X1614170Y9689642D01*
X1613408Y9693554D01*
X1613408Y9744151D01*
X1614170Y9748062D01*
X1616405Y9751364D01*
X1619656Y9753549D01*
X1623568Y9754311D01*
X1628901Y9754311D01*
X1628901Y9795052D01*
X1623568Y9795052D01*
X1619656Y9795814D01*
X1616405Y9797999D01*
X1614170Y9801301D01*
X1613408Y9805212D01*
X1613408Y9810292D01*
X1614170Y9814153D01*
X1616405Y9817455D01*
X1619656Y9819640D01*
X1623568Y9820452D01*
X1628901Y9820452D01*
X1628901Y9839147D01*
X1629664Y9843058D01*
X1631848Y9846360D01*
X1635150Y9848545D01*
X1639062Y9849307D01*
X1644142Y9849307D01*
X1648002Y9848545D01*
X1651304Y9846360D01*
X1653539Y9843058D01*
X1654302Y9839147D01*
X1654302Y9820452D01*
X1672996Y9820452D01*
X1676907Y9819640D01*
X1680210Y9817455D01*
X1682394Y9814153D01*
X1683156Y9810292D01*
X1683156Y9805212D01*
X1682394Y9801301D01*
X1680210Y9797999D01*
X1676907Y9795814D01*
X1672996Y9795052D01*
X1654302Y9795052D01*
X1654302Y9754311D01*
X1668525Y9754311D01*
X1673707Y9754920D01*
X1677822Y9754514D01*
X1681480Y9752533D01*
X1684020Y9749231D01*
X1684985Y9745167D01*
X1684274Y9741103D01*
X1682038Y9737648D01*
X1630730Y9686340D01*
X1627479Y9684156D01*
G37*

%LPD*%
G36*
X1623568Y9200794D02*
G01*
X1619656Y9201556D01*
X1616405Y9203740D01*
X1614170Y9207042D01*
X1613408Y9210954D01*
X1613408Y9261551D01*
X1614170Y9265462D01*
X1616405Y9268764D01*
X1619656Y9270949D01*
X1623568Y9271711D01*
X1628901Y9271711D01*
X1628901Y9312452D01*
X1623568Y9312452D01*
X1619656Y9313214D01*
X1616405Y9315399D01*
X1614170Y9318701D01*
X1613408Y9322612D01*
X1613408Y9327692D01*
X1614170Y9331553D01*
X1616405Y9334855D01*
X1619656Y9337040D01*
X1623568Y9337852D01*
X1628901Y9337852D01*
X1628901Y9356547D01*
X1629664Y9360458D01*
X1631848Y9363760D01*
X1635150Y9365945D01*
X1639062Y9366707D01*
X1644142Y9366707D01*
X1648002Y9365945D01*
X1651304Y9363760D01*
X1653539Y9360458D01*
X1654302Y9356547D01*
X1654302Y9337852D01*
X1672996Y9337852D01*
X1676907Y9337040D01*
X1680210Y9334855D01*
X1682394Y9331553D01*
X1683156Y9327692D01*
X1683156Y9322612D01*
X1682394Y9318701D01*
X1680210Y9315399D01*
X1676907Y9313214D01*
X1672996Y9312452D01*
X1654302Y9312452D01*
X1654302Y9271711D01*
X1668525Y9271711D01*
X1673707Y9272320D01*
X1677822Y9271914D01*
X1681480Y9269933D01*
X1684020Y9266631D01*
X1684985Y9262567D01*
X1684274Y9258503D01*
X1682038Y9255048D01*
X1630730Y9203740D01*
X1627479Y9201556D01*
G37*

%LPD*%
G36*
X1623568Y8718194D02*
G01*
X1619656Y8718956D01*
X1616405Y8721140D01*
X1614170Y8724442D01*
X1613408Y8728354D01*
X1613408Y8778951D01*
X1614170Y8782862D01*
X1616405Y8786164D01*
X1619656Y8788349D01*
X1623568Y8789111D01*
X1628901Y8789111D01*
X1628901Y8829852D01*
X1623568Y8829852D01*
X1619656Y8830614D01*
X1616405Y8832799D01*
X1614170Y8836101D01*
X1613408Y8840012D01*
X1613408Y8845092D01*
X1614170Y8848953D01*
X1616405Y8852255D01*
X1619656Y8854440D01*
X1623568Y8855252D01*
X1628901Y8855252D01*
X1628901Y8873947D01*
X1629664Y8877858D01*
X1631848Y8881160D01*
X1635150Y8883345D01*
X1639062Y8884107D01*
X1644142Y8884107D01*
X1648002Y8883345D01*
X1651304Y8881160D01*
X1653539Y8877858D01*
X1654302Y8873947D01*
X1654302Y8855252D01*
X1672996Y8855252D01*
X1676907Y8854440D01*
X1680210Y8852255D01*
X1682394Y8848953D01*
X1683156Y8845092D01*
X1683156Y8840012D01*
X1682394Y8836101D01*
X1680210Y8832799D01*
X1676907Y8830614D01*
X1672996Y8829852D01*
X1654302Y8829852D01*
X1654302Y8789111D01*
X1668525Y8789111D01*
X1673707Y8789720D01*
X1677822Y8789314D01*
X1681480Y8787333D01*
X1684020Y8784031D01*
X1684985Y8779967D01*
X1684274Y8775903D01*
X1682038Y8772448D01*
X1630730Y8721140D01*
X1627479Y8718956D01*
G37*

%LPD*%
G36*
X1623568Y8235594D02*
G01*
X1619656Y8236356D01*
X1616405Y8238540D01*
X1614170Y8241842D01*
X1613408Y8245754D01*
X1613408Y8296351D01*
X1614170Y8300262D01*
X1616405Y8303564D01*
X1619656Y8305749D01*
X1623568Y8306511D01*
X1628901Y8306511D01*
X1628901Y8347252D01*
X1623568Y8347252D01*
X1619656Y8348014D01*
X1616405Y8350199D01*
X1614170Y8353501D01*
X1613408Y8357412D01*
X1613408Y8362492D01*
X1614170Y8366353D01*
X1616405Y8369655D01*
X1619656Y8371840D01*
X1623568Y8372652D01*
X1628901Y8372652D01*
X1628901Y8391347D01*
X1629664Y8395258D01*
X1631848Y8398560D01*
X1635150Y8400745D01*
X1639062Y8401507D01*
X1644142Y8401507D01*
X1648002Y8400745D01*
X1651304Y8398560D01*
X1653539Y8395258D01*
X1654302Y8391347D01*
X1654302Y8372652D01*
X1672996Y8372652D01*
X1676907Y8371840D01*
X1680210Y8369655D01*
X1682394Y8366353D01*
X1683156Y8362492D01*
X1683156Y8357412D01*
X1682394Y8353501D01*
X1680210Y8350199D01*
X1676907Y8348014D01*
X1672996Y8347252D01*
X1654302Y8347252D01*
X1654302Y8306511D01*
X1668525Y8306511D01*
X1673707Y8307120D01*
X1677822Y8306714D01*
X1681480Y8304733D01*
X1684020Y8301431D01*
X1684985Y8297367D01*
X1684274Y8293303D01*
X1682038Y8289848D01*
X1630730Y8238540D01*
X1627479Y8236356D01*
G37*

%LPD*%
G36*
X1623568Y7752994D02*
G01*
X1619656Y7753756D01*
X1616405Y7755940D01*
X1614170Y7759242D01*
X1613408Y7763154D01*
X1613408Y7813751D01*
X1614170Y7817662D01*
X1616405Y7820964D01*
X1619656Y7823149D01*
X1623568Y7823911D01*
X1628901Y7823911D01*
X1628901Y7864652D01*
X1623568Y7864652D01*
X1619656Y7865414D01*
X1616405Y7867599D01*
X1614170Y7870901D01*
X1613408Y7874812D01*
X1613408Y7879892D01*
X1614170Y7883753D01*
X1616405Y7887055D01*
X1619656Y7889240D01*
X1623568Y7890052D01*
X1628901Y7890052D01*
X1628901Y7908747D01*
X1629664Y7912658D01*
X1631848Y7915960D01*
X1635150Y7918145D01*
X1639062Y7918907D01*
X1644142Y7918907D01*
X1648002Y7918145D01*
X1651304Y7915960D01*
X1653539Y7912658D01*
X1654302Y7908747D01*
X1654302Y7890052D01*
X1672996Y7890052D01*
X1676907Y7889240D01*
X1680210Y7887055D01*
X1682394Y7883753D01*
X1683156Y7879892D01*
X1683156Y7874812D01*
X1682394Y7870901D01*
X1680210Y7867599D01*
X1676907Y7865414D01*
X1672996Y7864652D01*
X1654302Y7864652D01*
X1654302Y7823911D01*
X1668525Y7823911D01*
X1673707Y7824520D01*
X1677822Y7824114D01*
X1681480Y7822133D01*
X1684020Y7818831D01*
X1684985Y7814767D01*
X1684274Y7810703D01*
X1682038Y7807248D01*
X1630730Y7755940D01*
X1627479Y7753756D01*
G37*

%LPD*%
G36*
X1623568Y7270394D02*
G01*
X1619656Y7271156D01*
X1616405Y7273340D01*
X1614170Y7276642D01*
X1613408Y7280554D01*
X1613408Y7331151D01*
X1614170Y7335062D01*
X1616405Y7338364D01*
X1619656Y7340549D01*
X1623568Y7341311D01*
X1628901Y7341311D01*
X1628901Y7382052D01*
X1623568Y7382052D01*
X1619656Y7382814D01*
X1616405Y7384999D01*
X1614170Y7388301D01*
X1613408Y7392212D01*
X1613408Y7397292D01*
X1614170Y7401153D01*
X1616405Y7404455D01*
X1619656Y7406640D01*
X1623568Y7407452D01*
X1628901Y7407452D01*
X1628901Y7426147D01*
X1629664Y7430058D01*
X1631848Y7433360D01*
X1635150Y7435545D01*
X1639062Y7436307D01*
X1644142Y7436307D01*
X1648002Y7435545D01*
X1651304Y7433360D01*
X1653539Y7430058D01*
X1654302Y7426147D01*
X1654302Y7407452D01*
X1672996Y7407452D01*
X1676907Y7406640D01*
X1680210Y7404455D01*
X1682394Y7401153D01*
X1683156Y7397292D01*
X1683156Y7392212D01*
X1682394Y7388301D01*
X1680210Y7384999D01*
X1676907Y7382814D01*
X1672996Y7382052D01*
X1654302Y7382052D01*
X1654302Y7341311D01*
X1668525Y7341311D01*
X1673707Y7341920D01*
X1677822Y7341514D01*
X1681480Y7339533D01*
X1684020Y7336231D01*
X1684985Y7332167D01*
X1684274Y7328103D01*
X1682038Y7324648D01*
X1630730Y7273340D01*
X1627479Y7271156D01*
G37*

%LPD*%
G36*
X1623568Y6787794D02*
G01*
X1619656Y6788556D01*
X1616405Y6790740D01*
X1614170Y6794042D01*
X1613408Y6797954D01*
X1613408Y6848551D01*
X1614170Y6852462D01*
X1616405Y6855764D01*
X1619656Y6857949D01*
X1623568Y6858711D01*
X1628901Y6858711D01*
X1628901Y6899452D01*
X1623568Y6899452D01*
X1619656Y6900214D01*
X1616405Y6902399D01*
X1614170Y6905701D01*
X1613408Y6909612D01*
X1613408Y6914692D01*
X1614170Y6918553D01*
X1616405Y6921855D01*
X1619656Y6924040D01*
X1623568Y6924852D01*
X1628901Y6924852D01*
X1628901Y6943547D01*
X1629664Y6947458D01*
X1631848Y6950760D01*
X1635150Y6952945D01*
X1639062Y6953707D01*
X1644142Y6953707D01*
X1648002Y6952945D01*
X1651304Y6950760D01*
X1653539Y6947458D01*
X1654302Y6943547D01*
X1654302Y6924852D01*
X1672996Y6924852D01*
X1676907Y6924040D01*
X1680210Y6921855D01*
X1682394Y6918553D01*
X1683156Y6914692D01*
X1683156Y6909612D01*
X1682394Y6905701D01*
X1680210Y6902399D01*
X1676907Y6900214D01*
X1672996Y6899452D01*
X1654302Y6899452D01*
X1654302Y6858711D01*
X1668525Y6858711D01*
X1673707Y6859320D01*
X1677822Y6858914D01*
X1681480Y6856933D01*
X1684020Y6853631D01*
X1684985Y6849567D01*
X1684274Y6845503D01*
X1682038Y6842048D01*
X1630730Y6790740D01*
X1627479Y6788556D01*
G37*

%LPD*%
G36*
X1623568Y6305194D02*
G01*
X1619656Y6305956D01*
X1616405Y6308140D01*
X1614170Y6311442D01*
X1613408Y6315354D01*
X1613408Y6365951D01*
X1614170Y6369862D01*
X1616405Y6373164D01*
X1619656Y6375349D01*
X1623568Y6376111D01*
X1628901Y6376111D01*
X1628901Y6416852D01*
X1623568Y6416852D01*
X1619656Y6417614D01*
X1616405Y6419799D01*
X1614170Y6423101D01*
X1613408Y6427012D01*
X1613408Y6432092D01*
X1614170Y6435953D01*
X1616405Y6439255D01*
X1619656Y6441440D01*
X1623568Y6442252D01*
X1628901Y6442252D01*
X1628901Y6460947D01*
X1629664Y6464858D01*
X1631848Y6468160D01*
X1635150Y6470345D01*
X1639062Y6471107D01*
X1644142Y6471107D01*
X1648002Y6470345D01*
X1651304Y6468160D01*
X1653539Y6464858D01*
X1654302Y6460947D01*
X1654302Y6442252D01*
X1672996Y6442252D01*
X1676907Y6441440D01*
X1680210Y6439255D01*
X1682394Y6435953D01*
X1683156Y6432092D01*
X1683156Y6427012D01*
X1682394Y6423101D01*
X1680210Y6419799D01*
X1676907Y6417614D01*
X1672996Y6416852D01*
X1654302Y6416852D01*
X1654302Y6376111D01*
X1668525Y6376111D01*
X1673707Y6376720D01*
X1677822Y6376314D01*
X1681480Y6374333D01*
X1684020Y6371031D01*
X1684985Y6366967D01*
X1684274Y6362903D01*
X1682038Y6359448D01*
X1630730Y6308140D01*
X1627479Y6305956D01*
G37*

%LPD*%
G36*
X1623568Y5822594D02*
G01*
X1619656Y5823356D01*
X1616405Y5825540D01*
X1614170Y5828842D01*
X1613408Y5832754D01*
X1613408Y5883351D01*
X1614170Y5887262D01*
X1616405Y5890564D01*
X1619656Y5892749D01*
X1623568Y5893511D01*
X1628901Y5893511D01*
X1628901Y5934252D01*
X1623568Y5934252D01*
X1619656Y5935014D01*
X1616405Y5937199D01*
X1614170Y5940501D01*
X1613408Y5944412D01*
X1613408Y5949492D01*
X1614170Y5953353D01*
X1616405Y5956655D01*
X1619656Y5958840D01*
X1623568Y5959652D01*
X1628901Y5959652D01*
X1628901Y5978347D01*
X1629664Y5982258D01*
X1631848Y5985560D01*
X1635150Y5987745D01*
X1639062Y5988507D01*
X1644142Y5988507D01*
X1648002Y5987745D01*
X1651304Y5985560D01*
X1653539Y5982258D01*
X1654302Y5978347D01*
X1654302Y5959652D01*
X1672996Y5959652D01*
X1676907Y5958840D01*
X1680210Y5956655D01*
X1682394Y5953353D01*
X1683156Y5949492D01*
X1683156Y5944412D01*
X1682394Y5940501D01*
X1680210Y5937199D01*
X1676907Y5935014D01*
X1672996Y5934252D01*
X1654302Y5934252D01*
X1654302Y5893511D01*
X1668525Y5893511D01*
X1673707Y5894120D01*
X1677822Y5893714D01*
X1681480Y5891733D01*
X1684020Y5888431D01*
X1684985Y5884367D01*
X1684274Y5880303D01*
X1682038Y5876848D01*
X1630730Y5825540D01*
X1627479Y5823356D01*
G37*

%LPD*%
G36*
X1623568Y5339994D02*
G01*
X1619656Y5340756D01*
X1616405Y5342940D01*
X1614170Y5346242D01*
X1613408Y5350154D01*
X1613408Y5400751D01*
X1614170Y5404662D01*
X1616405Y5407964D01*
X1619656Y5410149D01*
X1623568Y5410911D01*
X1628901Y5410911D01*
X1628901Y5451652D01*
X1623568Y5451652D01*
X1619656Y5452414D01*
X1616405Y5454599D01*
X1614170Y5457901D01*
X1613408Y5461812D01*
X1613408Y5466892D01*
X1614170Y5470753D01*
X1616405Y5474055D01*
X1619656Y5476240D01*
X1623568Y5477052D01*
X1628901Y5477052D01*
X1628901Y5495747D01*
X1629664Y5499658D01*
X1631848Y5502960D01*
X1635150Y5505145D01*
X1639062Y5505907D01*
X1644142Y5505907D01*
X1648002Y5505145D01*
X1651304Y5502960D01*
X1653539Y5499658D01*
X1654302Y5495747D01*
X1654302Y5477052D01*
X1672996Y5477052D01*
X1676907Y5476240D01*
X1680210Y5474055D01*
X1682394Y5470753D01*
X1683156Y5466892D01*
X1683156Y5461812D01*
X1682394Y5457901D01*
X1680210Y5454599D01*
X1676907Y5452414D01*
X1672996Y5451652D01*
X1654302Y5451652D01*
X1654302Y5410911D01*
X1668525Y5410911D01*
X1673707Y5411520D01*
X1677822Y5411114D01*
X1681480Y5409133D01*
X1684020Y5405831D01*
X1684985Y5401767D01*
X1684274Y5397703D01*
X1682038Y5394248D01*
X1630730Y5342940D01*
X1627479Y5340756D01*
G37*

%LPD*%
G36*
X1623568Y4857394D02*
G01*
X1619656Y4858156D01*
X1616405Y4860340D01*
X1614170Y4863642D01*
X1613408Y4867554D01*
X1613408Y4918151D01*
X1614170Y4922062D01*
X1616405Y4925364D01*
X1619656Y4927549D01*
X1623568Y4928311D01*
X1628901Y4928311D01*
X1628901Y4969052D01*
X1623568Y4969052D01*
X1619656Y4969814D01*
X1616405Y4971999D01*
X1614170Y4975301D01*
X1613408Y4979212D01*
X1613408Y4984292D01*
X1614170Y4988153D01*
X1616405Y4991455D01*
X1619656Y4993640D01*
X1623568Y4994452D01*
X1628901Y4994452D01*
X1628901Y5013147D01*
X1629664Y5017058D01*
X1631848Y5020360D01*
X1635150Y5022545D01*
X1639062Y5023307D01*
X1644142Y5023307D01*
X1648002Y5022545D01*
X1651304Y5020360D01*
X1653539Y5017058D01*
X1654302Y5013147D01*
X1654302Y4994452D01*
X1672996Y4994452D01*
X1676907Y4993640D01*
X1680210Y4991455D01*
X1682394Y4988153D01*
X1683156Y4984292D01*
X1683156Y4979212D01*
X1682394Y4975301D01*
X1680210Y4971999D01*
X1676907Y4969814D01*
X1672996Y4969052D01*
X1654302Y4969052D01*
X1654302Y4928311D01*
X1668525Y4928311D01*
X1673707Y4928920D01*
X1677822Y4928514D01*
X1681480Y4926533D01*
X1684020Y4923231D01*
X1684985Y4919167D01*
X1684274Y4915103D01*
X1682038Y4911648D01*
X1630730Y4860340D01*
X1627479Y4858156D01*
G37*

%LPD*%
G36*
X1623568Y4374794D02*
G01*
X1619656Y4375556D01*
X1616405Y4377740D01*
X1614170Y4381042D01*
X1613408Y4384954D01*
X1613408Y4435551D01*
X1614170Y4439462D01*
X1616405Y4442764D01*
X1619656Y4444949D01*
X1623568Y4445711D01*
X1628901Y4445711D01*
X1628901Y4486452D01*
X1623568Y4486452D01*
X1619656Y4487214D01*
X1616405Y4489399D01*
X1614170Y4492701D01*
X1613408Y4496612D01*
X1613408Y4501692D01*
X1614170Y4505553D01*
X1616405Y4508855D01*
X1619656Y4511040D01*
X1623568Y4511852D01*
X1628901Y4511852D01*
X1628901Y4530547D01*
X1629664Y4534458D01*
X1631848Y4537760D01*
X1635150Y4539945D01*
X1639062Y4540707D01*
X1644142Y4540707D01*
X1648002Y4539945D01*
X1651304Y4537760D01*
X1653539Y4534458D01*
X1654302Y4530547D01*
X1654302Y4511852D01*
X1672996Y4511852D01*
X1676907Y4511040D01*
X1680210Y4508855D01*
X1682394Y4505553D01*
X1683156Y4501692D01*
X1683156Y4496612D01*
X1682394Y4492701D01*
X1680210Y4489399D01*
X1676907Y4487214D01*
X1672996Y4486452D01*
X1654302Y4486452D01*
X1654302Y4445711D01*
X1668525Y4445711D01*
X1673707Y4446320D01*
X1677822Y4445914D01*
X1681480Y4443933D01*
X1684020Y4440631D01*
X1684985Y4436567D01*
X1684274Y4432503D01*
X1682038Y4429048D01*
X1630730Y4377740D01*
X1627479Y4375556D01*
G37*

%LPD*%
D10*
X1736600Y4111525D02*
G01*
X1739900Y4114825D01*
X1739900Y4212691D01*
X1736597Y4499102D02*
G01*
X1736597Y4428997D01*
X1641574Y4333974D01*
X1641574Y4111525D01*
X1739900Y4695291D02*
G01*
X1736597Y4691989D01*
X1736597Y4594123D01*
X1235202Y4107942D02*
G01*
X1235202Y4181602D01*
X1330197Y4276597D01*
X1330197Y4495292D01*
X1739900Y10486491D02*
G01*
X1736597Y10483189D01*
X1736597Y10385323D01*
X1739900Y10003891D02*
G01*
X1736597Y10000589D01*
X1736597Y9902723D01*
X1739900Y9521291D02*
G01*
X1736597Y9517989D01*
X1736597Y9420123D01*
X1739900Y9038691D02*
G01*
X1736597Y9035389D01*
X1736597Y8937523D01*
X1739900Y8556091D02*
G01*
X1736597Y8552789D01*
X1736597Y8454923D01*
X1739900Y8073491D02*
G01*
X1736597Y8070189D01*
X1736597Y7972323D01*
X1739900Y7590891D02*
G01*
X1736597Y7587589D01*
X1736597Y7489723D01*
X1739900Y7108291D02*
G01*
X1736597Y7104989D01*
X1736597Y7007123D01*
X1739900Y6625691D02*
G01*
X1736597Y6622389D01*
X1736597Y6524523D01*
X1739900Y6143091D02*
G01*
X1736597Y6139789D01*
X1736597Y6041923D01*
X1739900Y5660491D02*
G01*
X1736597Y5657189D01*
X1736597Y5559323D01*
X1739900Y5177891D02*
G01*
X1736597Y5174589D01*
X1736597Y5076723D01*
X1736597Y4981702D02*
G01*
X1736597Y4911597D01*
X1641602Y4816602D01*
X1641602Y4594097D01*
X1736597Y5464302D02*
G01*
X1736597Y5394197D01*
X1641602Y5299202D01*
X1641602Y5076697D01*
X1736597Y5946902D02*
G01*
X1736597Y5876797D01*
X1641602Y5781802D01*
X1641602Y5559297D01*
X1736597Y6429502D02*
G01*
X1736597Y6359397D01*
X1641602Y6264402D01*
X1641602Y6041897D01*
X1736597Y6912102D02*
G01*
X1736597Y6841997D01*
X1641602Y6747002D01*
X1641602Y6524497D01*
X1736597Y7394702D02*
G01*
X1736597Y7324597D01*
X1641602Y7229602D01*
X1641602Y7007097D01*
X1736597Y7877302D02*
G01*
X1736597Y7807197D01*
X1641602Y7712202D01*
X1641602Y7489697D01*
X1736597Y8359902D02*
G01*
X1736597Y8289797D01*
X1641602Y8194802D01*
X1641602Y7972297D01*
X1736597Y8842502D02*
G01*
X1736597Y8772397D01*
X1641602Y8677402D01*
X1641602Y8454897D01*
X1736597Y9325102D02*
G01*
X1736597Y9254997D01*
X1641602Y9160002D01*
X1641602Y8937497D01*
X1736597Y9807702D02*
G01*
X1736597Y9737597D01*
X1641602Y9642602D01*
X1641602Y9420097D01*
X1736597Y10290302D02*
G01*
X1736597Y10220197D01*
X1641602Y10125202D01*
X1641602Y9902697D01*
X1333500Y4191000D02*
G01*
X1330197Y4187697D01*
X1330197Y4107814D01*
X1333500Y4673600D02*
G01*
X1330197Y4670297D01*
X1330197Y4590414D01*
X1330197Y5073014D02*
G01*
X1330197Y5152897D01*
X1333500Y5156200D01*
X1168400Y4191000D02*
G01*
X1231900Y4254500D01*
X1231900Y4288891D01*
X1168400Y4673600D02*
G01*
X1231900Y4737100D01*
X1231900Y4771491D01*
X1168400Y5156200D02*
G01*
X1231900Y5219700D01*
X1231900Y5254091D01*
X1168400Y5638800D02*
G01*
X1231900Y5702300D01*
X1231900Y5736691D01*
X1168400Y6121400D02*
G01*
X1231900Y6184900D01*
X1231900Y6219291D01*
X1333500Y6121400D02*
G01*
X1330197Y6118097D01*
X1330197Y6038214D01*
X1333500Y10464800D02*
G01*
X1330197Y10461497D01*
X1330197Y10381614D01*
X1168400Y9982200D02*
G01*
X1231900Y10045700D01*
X1231900Y10080091D01*
X1333500Y9982200D02*
G01*
X1330197Y9978897D01*
X1330197Y9899014D01*
X1168400Y9499600D02*
G01*
X1231900Y9563100D01*
X1231900Y9597491D01*
X1333500Y9499600D02*
G01*
X1330197Y9496297D01*
X1330197Y9416414D01*
X1168400Y9017000D02*
G01*
X1231900Y9080500D01*
X1231900Y9114891D01*
X1333500Y9017000D02*
G01*
X1330197Y9013697D01*
X1330197Y8933814D01*
X1168400Y8534400D02*
G01*
X1231900Y8597900D01*
X1231900Y8632291D01*
X1333500Y8534400D02*
G01*
X1330197Y8531097D01*
X1330197Y8451214D01*
X1168400Y8051800D02*
G01*
X1231900Y8115300D01*
X1231900Y8149691D01*
X1333500Y8051800D02*
G01*
X1330197Y8048497D01*
X1330197Y7968614D01*
X1231900Y7184491D02*
G01*
X1231900Y7150100D01*
X1168400Y7086600D01*
X1333500Y7086600D02*
G01*
X1330197Y7083297D01*
X1330197Y7003414D01*
X1333500Y7569200D02*
G01*
X1330197Y7565897D01*
X1330197Y7486014D01*
X1168400Y6604000D02*
G01*
X1231900Y6667500D01*
X1231900Y6701891D01*
X1333500Y6604000D02*
G01*
X1330197Y6600697D01*
X1330197Y6520814D01*
X1235202Y4590542D02*
G01*
X1235202Y4664202D01*
X1330197Y4759197D01*
X1330197Y4977892D01*
X1235202Y5073142D02*
G01*
X1235202Y5146802D01*
X1330197Y5241797D01*
X1330197Y5460492D01*
X1235202Y5555742D02*
G01*
X1235202Y5629402D01*
X1330197Y5724397D01*
X1330197Y5943092D01*
X1235202Y6038342D02*
G01*
X1235202Y6112002D01*
X1330197Y6206997D01*
X1330197Y6425692D01*
X1235202Y6520942D02*
G01*
X1235202Y6594602D01*
X1330197Y6689597D01*
X1330197Y6908292D01*
X1235202Y7003542D02*
G01*
X1235202Y7077202D01*
X1330197Y7172197D01*
X1330197Y7390892D01*
X1235202Y7486142D02*
G01*
X1235202Y7559802D01*
X1330197Y7654797D01*
X1330197Y7873492D01*
X1235202Y7968742D02*
G01*
X1235202Y8042402D01*
X1330197Y8137397D01*
X1330197Y8356092D01*
X1235202Y8451342D02*
G01*
X1235202Y8525002D01*
X1330197Y8619997D01*
X1330197Y8838692D01*
X1235202Y8933942D02*
G01*
X1235202Y9007602D01*
X1330197Y9102597D01*
X1330197Y9321292D01*
X1235202Y9416542D02*
G01*
X1235202Y9490202D01*
X1330197Y9585197D01*
X1330197Y9803892D01*
X1235202Y9899142D02*
G01*
X1235202Y9972802D01*
X1330197Y10067797D01*
X1330197Y10286492D01*
X2032000Y4013200D02*
G01*
X2028697Y4016502D01*
X1736597Y4016502D01*
X1384300Y11353800D02*
G01*
X2032000Y11353800D01*
D11*
X1905000Y10934700D02*
G01*
X1587500Y10934700D01*
D10*
X1739900Y10486389D02*
G01*
X1905000Y10486389D01*
X1739900Y10003891D02*
G01*
X1736600Y10000592D01*
X1739900Y10003792D02*
G01*
X1905000Y10003792D01*
X1739900Y9521291D02*
G01*
X1736600Y9517992D01*
X1739900Y9521291D02*
G01*
X1736600Y9517992D01*
X1739900Y9521192D02*
G01*
X1905000Y9521192D01*
X1739900Y9038691D02*
G01*
X1736600Y9035392D01*
X1739900Y9038691D02*
G01*
X1736600Y9035392D01*
X1739900Y9038592D02*
G01*
X1905000Y9038592D01*
X1739900Y8556190D02*
G01*
X1736600Y8552891D01*
X1739900Y8556190D02*
G01*
X1736600Y8552891D01*
X1739900Y8556091D02*
G01*
X1905000Y8556091D01*
X1739900Y8073590D02*
G01*
X1736600Y8070291D01*
X1739900Y8073590D02*
G01*
X1736600Y8070291D01*
X1739900Y8073491D02*
G01*
X1905000Y8073491D01*
X1739900Y7591089D02*
G01*
X1736600Y7587790D01*
X1739900Y7591089D02*
G01*
X1736600Y7587790D01*
X1739900Y7590990D02*
G01*
X1905000Y7590990D01*
X1739900Y7108489D02*
G01*
X1736600Y7105190D01*
X1739900Y7108489D02*
G01*
X1736600Y7105190D01*
X1739900Y7108390D02*
G01*
X1905000Y7108390D01*
X1739900Y6625988D02*
G01*
X1736600Y6622689D01*
X1739900Y6625988D02*
G01*
X1736600Y6622689D01*
X1739900Y6625889D02*
G01*
X1905000Y6625889D01*
X1739900Y6143388D02*
G01*
X1736600Y6140089D01*
X1739900Y6143388D02*
G01*
X1736600Y6140089D01*
X1739900Y6143289D02*
G01*
X1905000Y6143289D01*
X1739900Y5660887D02*
G01*
X1736600Y5657588D01*
X1739900Y5660887D02*
G01*
X1736600Y5657588D01*
X1739900Y5660788D02*
G01*
X1905000Y5660788D01*
X1739900Y5178287D02*
G01*
X1736600Y5174988D01*
X1739900Y5178287D02*
G01*
X1736600Y5174988D01*
X1739900Y5178188D02*
G01*
X1905000Y5178188D01*
X1739900Y4695786D02*
G01*
X1736600Y4692487D01*
X1739900Y4695786D02*
G01*
X1736600Y4692487D01*
X1739900Y4695687D02*
G01*
X1905000Y4695687D01*
X1739900Y4213186D02*
G01*
X1736600Y4209887D01*
X1739900Y4213186D02*
G01*
X1736600Y4209887D01*
X1739900Y4213087D02*
G01*
X1905000Y4213087D01*
D11*
X1587500Y10934700D02*
G01*
X1168400Y10934700D01*
D10*
X1016000Y3810000D02*
G01*
X1308100Y3810000D01*
X1330197Y3832097D01*
X1330197Y4012692D01*
X1333500Y5638800D02*
G01*
X1330197Y5635497D01*
X1330197Y5555614D01*
X1168400Y7569200D02*
G01*
X1231900Y7632700D01*
X1231900Y7667091D01*
X1641602Y10385297D02*
G01*
X1641602Y10753597D01*
X1600200Y10795000D01*
X1016000Y10795000D01*
D12*
G01*
X1739900Y4695294D03*
D13*
G01*
X1739900Y4804308D03*
D14*
G01*
X1641576Y5076723D03*
G01*
X1641576Y4981702D03*
G01*
X1736597Y4981702D03*
G01*
X1736597Y5076723D03*
D12*
G01*
X1739900Y5177894D03*
D13*
G01*
X1739900Y5286908D03*
D12*
G01*
X1739900Y5660494D03*
D13*
G01*
X1739900Y5769508D03*
D14*
G01*
X1641576Y5559323D03*
G01*
X1641576Y5464302D03*
G01*
X1736597Y5464302D03*
G01*
X1736597Y5559323D03*
D12*
G01*
X1739900Y6143094D03*
D13*
G01*
X1739900Y6252108D03*
D14*
G01*
X1641576Y6041923D03*
G01*
X1641576Y5946902D03*
G01*
X1736597Y5946902D03*
G01*
X1736597Y6041923D03*
D12*
G01*
X1739900Y6625694D03*
D13*
G01*
X1739900Y6734708D03*
D14*
G01*
X1641576Y6524523D03*
G01*
X1641576Y6429502D03*
G01*
X1736597Y6429502D03*
G01*
X1736597Y6524523D03*
D12*
G01*
X1739900Y7108294D03*
D13*
G01*
X1739900Y7217308D03*
D14*
G01*
X1641576Y7007123D03*
G01*
X1641576Y6912102D03*
G01*
X1736597Y6912102D03*
G01*
X1736597Y7007123D03*
D12*
G01*
X1739900Y7590894D03*
D13*
G01*
X1739900Y7699908D03*
D14*
G01*
X1641576Y7489723D03*
G01*
X1641576Y7394702D03*
G01*
X1736597Y7394702D03*
G01*
X1736597Y7489723D03*
D12*
G01*
X1739900Y8073494D03*
D13*
G01*
X1739900Y8182508D03*
D14*
G01*
X1641576Y7972323D03*
G01*
X1641576Y7877302D03*
G01*
X1736597Y7877302D03*
G01*
X1736597Y7972323D03*
D12*
G01*
X1739900Y8556094D03*
D13*
G01*
X1739900Y8665108D03*
D14*
G01*
X1641576Y8454923D03*
G01*
X1641576Y8359902D03*
G01*
X1736597Y8359902D03*
G01*
X1736597Y8454923D03*
D12*
G01*
X1739900Y9038694D03*
D13*
G01*
X1739900Y9147708D03*
D14*
G01*
X1641576Y8937523D03*
G01*
X1641576Y8842502D03*
G01*
X1736597Y8842502D03*
G01*
X1736597Y8937523D03*
D12*
G01*
X1739900Y9521294D03*
D13*
G01*
X1739900Y9630308D03*
D14*
G01*
X1641576Y9420123D03*
G01*
X1641576Y9325102D03*
G01*
X1736597Y9325102D03*
G01*
X1736597Y9420123D03*
D12*
G01*
X1739900Y10003894D03*
D13*
G01*
X1739900Y10112908D03*
D14*
G01*
X1641576Y9902723D03*
G01*
X1641576Y9807702D03*
G01*
X1736597Y9807702D03*
G01*
X1736597Y9902723D03*
D12*
G01*
X1739900Y10486494D03*
D13*
G01*
X1739900Y10595508D03*
D14*
G01*
X1641576Y10385323D03*
G01*
X1641576Y10290302D03*
G01*
X1736597Y10290302D03*
G01*
X1736597Y10385323D03*
D12*
G01*
X1231900Y4288894D03*
D13*
G01*
X1231900Y4397908D03*
D14*
G01*
X1235176Y4107814D03*
G01*
X1235176Y4012793D03*
G01*
X1330197Y4012793D03*
G01*
X1330197Y4107814D03*
G01*
X1235176Y4590414D03*
G01*
X1235176Y4495393D03*
G01*
X1330197Y4495393D03*
G01*
X1330197Y4590414D03*
D12*
G01*
X1231900Y4771494D03*
D13*
G01*
X1231900Y4880508D03*
D12*
G01*
X1231900Y5254094D03*
D13*
G01*
X1231900Y5363108D03*
D14*
G01*
X1235176Y5073014D03*
G01*
X1235176Y4977993D03*
G01*
X1330197Y4977993D03*
G01*
X1330197Y5073014D03*
G01*
X1235176Y5555614D03*
G01*
X1235176Y5460593D03*
G01*
X1330197Y5460593D03*
G01*
X1330197Y5555614D03*
D12*
G01*
X1231900Y5736694D03*
D13*
G01*
X1231900Y5845708D03*
D14*
G01*
X1235176Y6038214D03*
G01*
X1235176Y5943193D03*
G01*
X1330197Y5943193D03*
G01*
X1330197Y6038214D03*
D12*
G01*
X1231900Y6219294D03*
D13*
G01*
X1231900Y6328308D03*
D14*
G01*
X1235176Y6520814D03*
G01*
X1235176Y6425793D03*
G01*
X1330197Y6425793D03*
G01*
X1330197Y6520814D03*
D12*
G01*
X1231900Y6701894D03*
D13*
G01*
X1231900Y6810908D03*
D14*
G01*
X1235176Y7003414D03*
G01*
X1235176Y6908393D03*
G01*
X1330197Y6908393D03*
G01*
X1330197Y7003414D03*
D12*
G01*
X1231900Y7184494D03*
D13*
G01*
X1231900Y7293508D03*
D14*
G01*
X1235176Y7486014D03*
G01*
X1235176Y7390993D03*
G01*
X1330197Y7390993D03*
G01*
X1330197Y7486014D03*
D12*
G01*
X1231900Y7667094D03*
D13*
G01*
X1231900Y7776108D03*
D14*
G01*
X1235176Y7968614D03*
G01*
X1235176Y7873593D03*
G01*
X1330197Y7873593D03*
G01*
X1330197Y7968614D03*
D12*
G01*
X1231900Y8149694D03*
D13*
G01*
X1231900Y8258708D03*
D14*
G01*
X1235176Y8451214D03*
G01*
X1235176Y8356193D03*
G01*
X1330197Y8356193D03*
G01*
X1330197Y8451214D03*
D12*
G01*
X1231900Y8632294D03*
D13*
G01*
X1231900Y8741308D03*
D14*
G01*
X1235176Y8933814D03*
G01*
X1235176Y8838793D03*
G01*
X1330197Y8838793D03*
G01*
X1330197Y8933814D03*
D12*
G01*
X1231900Y9114894D03*
D13*
G01*
X1231900Y9223908D03*
D14*
G01*
X1235176Y9416414D03*
G01*
X1235176Y9321393D03*
G01*
X1330197Y9321393D03*
G01*
X1330197Y9416414D03*
D12*
G01*
X1231900Y9597494D03*
D13*
G01*
X1231900Y9706508D03*
D14*
G01*
X1235176Y9899014D03*
G01*
X1235176Y9803993D03*
G01*
X1330197Y9803993D03*
G01*
X1330197Y9899014D03*
D12*
G01*
X1231900Y10080094D03*
D13*
G01*
X1231900Y10189108D03*
D14*
G01*
X1235176Y10381614D03*
G01*
X1235176Y10286593D03*
G01*
X1330197Y10286593D03*
G01*
X1330197Y10381614D03*
G01*
X1641576Y4111523D03*
G01*
X1641576Y4016502D03*
G01*
X1736597Y4016502D03*
G01*
X1736597Y4111523D03*
D12*
G01*
X1739900Y4212694D03*
D13*
G01*
X1739900Y4321708D03*
D14*
G01*
X1641576Y4594123D03*
G01*
X1641576Y4499102D03*
G01*
X1736597Y4499102D03*
G01*
X1736597Y4594123D03*
D15*
G01*
X1785899Y11188700D03*
G01*
X1585899Y11188700D03*
G01*
X1385900Y11188700D03*
D16*
G01*
X1185900Y11188700D03*
D17*
G01*
X1638300Y4419600D03*
G01*
X1638300Y4902200D03*
G01*
X1638300Y5384800D03*
G01*
X1638300Y5867400D03*
G01*
X1638300Y6350000D03*
G01*
X1638300Y6832600D03*
G01*
X1638300Y7315200D03*
G01*
X1638300Y7797800D03*
G01*
X1638300Y8280400D03*
G01*
X1638300Y8763000D03*
G01*
X1638300Y9245600D03*
G01*
X1638300Y9728200D03*
G01*
X1638300Y10210800D03*
G01*
X1333500Y4191000D03*
G01*
X1168400Y4191000D03*
G01*
X1168400Y4673600D03*
G01*
X1333500Y4673600D03*
G01*
X1333500Y5156200D03*
G01*
X1168400Y5156200D03*
G01*
X1168400Y5638800D03*
G01*
X1333500Y5638800D03*
G01*
X1168400Y6121400D03*
G01*
X1333500Y6121400D03*
G01*
X1168400Y6604000D03*
G01*
X1333500Y6604000D03*
G01*
X1168400Y7086600D03*
G01*
X1333500Y7086600D03*
G01*
X1168400Y7569200D03*
G01*
X1333500Y7569200D03*
G01*
X1168400Y8051800D03*
G01*
X1333500Y8051800D03*
G01*
X1168400Y8534400D03*
G01*
X1333500Y8534400D03*
G01*
X1168400Y9017000D03*
G01*
X1333500Y9017000D03*
G01*
X1168400Y9499600D03*
G01*
X1333500Y9499600D03*
G01*
X1168400Y9982200D03*
G01*
X1333500Y9982200D03*
G01*
X1168400Y10464800D03*
G01*
X1333500Y10464800D03*
G01*
X2032000Y11353800D03*
G01*
X2032000Y4013200D03*
G01*
X1384300Y11353800D03*
G01*
X1587500Y10934700D03*
G01*
X1905000Y10486389D03*
G01*
X1905000Y10934700D03*
G01*
X1905000Y10003789D03*
G01*
X1905000Y9521291D03*
G01*
X1905000Y9038691D03*
G01*
X1905000Y8556193D03*
G01*
X1905000Y8073593D03*
G01*
X1905000Y7591094D03*
G01*
X1905000Y7108494D03*
G01*
X1905000Y6625996D03*
G01*
X1905000Y6143396D03*
G01*
X1905000Y5660897D03*
G01*
X1905000Y5178297D03*
G01*
X1905000Y4695774D03*
G01*
X1905000Y4213174D03*
G01*
X1168400Y10934700D03*
G01*
X1016000Y10795000D03*
G01*
X1016000Y3810000D03*
G01*
X2159000Y11188700D03*
M02*
