G04 Layer: TopSilkscreenLayer*
G04 EasyEDA v6.5.29, 2023-07-18 11:14:52*
G04 afe15dd53e0047d18e41e40897773fa5,5a6b42c53f6a479593ecc07194224c93,10*
G04 Gerber Generator version 0.2*
G04 Scale: 100 percent, Rotated: No, Reflected: No *
G04 Dimensions in millimeters *
G04 leading zeros omitted , absolute positions ,4 integer and 5 decimal *
%FSLAX45Y45*%
%MOMM*%

%ADD10C,0.2032*%
%ADD11C,0.1524*%
%ADD12C,0.1270*%
%ADD13C,0.2540*%

%LPD*%
D10*
X482600Y3397757D02*
G01*
X482600Y3283204D01*
X482600Y3397757D02*
G01*
X526287Y3283204D01*
X569976Y3397757D02*
G01*
X526287Y3283204D01*
X569976Y3397757D02*
G01*
X569976Y3283204D01*
X704088Y3419602D02*
G01*
X605789Y3244850D01*
X740156Y3397757D02*
G01*
X740156Y3283204D01*
X740156Y3397757D02*
G01*
X811022Y3397757D01*
X740156Y3343147D02*
G01*
X783590Y3343147D01*
X740156Y3283204D02*
G01*
X811022Y3283204D01*
X1007363Y3381247D02*
G01*
X996441Y3392170D01*
X979931Y3397757D01*
X958341Y3397757D01*
X941831Y3392170D01*
X930909Y3381247D01*
X930909Y3370326D01*
X936497Y3359404D01*
X941831Y3354070D01*
X952754Y3348481D01*
X985520Y3337813D01*
X996441Y3332226D01*
X1001775Y3326892D01*
X1007363Y3315970D01*
X1007363Y3299460D01*
X996441Y3288537D01*
X979931Y3283204D01*
X958341Y3283204D01*
X941831Y3288537D01*
X930909Y3299460D01*
X1043431Y3397757D02*
G01*
X1043431Y3283204D01*
X1043431Y3283204D02*
G01*
X1108709Y3283204D01*
X1144777Y3397757D02*
G01*
X1144777Y3283204D01*
X1180845Y3397757D02*
G01*
X1180845Y3283204D01*
X1180845Y3397757D02*
G01*
X1218945Y3397757D01*
X1235202Y3392170D01*
X1246124Y3381247D01*
X1251711Y3370326D01*
X1257045Y3354070D01*
X1257045Y3326892D01*
X1251711Y3310381D01*
X1246124Y3299460D01*
X1235202Y3288537D01*
X1218945Y3283204D01*
X1180845Y3283204D01*
X1293113Y3397757D02*
G01*
X1293113Y3283204D01*
X1293113Y3397757D02*
G01*
X1363979Y3397757D01*
X1293113Y3343147D02*
G01*
X1336802Y3343147D01*
X1293113Y3283204D02*
G01*
X1363979Y3283204D01*
X1400047Y3397757D02*
G01*
X1400047Y3283204D01*
X1400047Y3397757D02*
G01*
X1449070Y3397757D01*
X1465579Y3392170D01*
X1470913Y3386836D01*
X1476502Y3375913D01*
X1476502Y3364992D01*
X1470913Y3354070D01*
X1465579Y3348481D01*
X1449070Y3343147D01*
X1400047Y3343147D01*
X1438147Y3343147D02*
G01*
X1476502Y3283204D01*
X1596390Y3397757D02*
G01*
X1596390Y3283204D01*
X1596390Y3283204D02*
G01*
X1661922Y3283204D01*
X1697990Y3397757D02*
G01*
X1697990Y3283204D01*
X1697990Y3397757D02*
G01*
X1768856Y3397757D01*
X1697990Y3343147D02*
G01*
X1741424Y3343147D01*
X1697990Y3283204D02*
G01*
X1768856Y3283204D01*
X1804670Y3397757D02*
G01*
X1804670Y3283204D01*
X1804670Y3397757D02*
G01*
X1843024Y3397757D01*
X1859279Y3392170D01*
X1870202Y3381247D01*
X1875790Y3370326D01*
X1881124Y3354070D01*
X1881124Y3326892D01*
X1875790Y3310381D01*
X1870202Y3299460D01*
X1859279Y3288537D01*
X1843024Y3283204D01*
X1804670Y3283204D01*
X2001265Y3332226D02*
G01*
X2099309Y3332226D01*
X2257552Y3397757D02*
G01*
X2257552Y3283204D01*
X2219197Y3397757D02*
G01*
X2295652Y3397757D01*
X2364486Y3397757D02*
G01*
X2353563Y3392170D01*
X2342641Y3381247D01*
X2337054Y3370326D01*
X2331720Y3354070D01*
X2331720Y3326892D01*
X2337054Y3310381D01*
X2342641Y3299460D01*
X2353563Y3288537D01*
X2364486Y3283204D01*
X2386329Y3283204D01*
X2397252Y3288537D01*
X2408174Y3299460D01*
X2413508Y3310381D01*
X2418841Y3326892D01*
X2418841Y3354070D01*
X2413508Y3370326D01*
X2408174Y3381247D01*
X2397252Y3392170D01*
X2386329Y3397757D01*
X2364486Y3397757D01*
X2454909Y3397757D02*
G01*
X2454909Y3283204D01*
X2454909Y3397757D02*
G01*
X2503931Y3397757D01*
X2520441Y3392170D01*
X2525775Y3386836D01*
X2531363Y3375913D01*
X2531363Y3359404D01*
X2525775Y3348481D01*
X2520441Y3343147D01*
X2503931Y3337813D01*
X2454909Y3337813D01*
X342900Y3194557D02*
G01*
X342900Y3080004D01*
X342900Y3194557D02*
G01*
X391921Y3194557D01*
X408431Y3188970D01*
X413765Y3183636D01*
X419354Y3172713D01*
X419354Y3156204D01*
X413765Y3145281D01*
X408431Y3139947D01*
X391921Y3134613D01*
X342900Y3134613D01*
X498855Y3194557D02*
G01*
X455168Y3080004D01*
X498855Y3194557D02*
G01*
X542544Y3080004D01*
X471678Y3118104D02*
G01*
X526287Y3118104D01*
X578612Y3194557D02*
G01*
X578612Y3080004D01*
X578612Y3194557D02*
G01*
X627634Y3194557D01*
X643889Y3188970D01*
X649478Y3183636D01*
X654812Y3172713D01*
X654812Y3161792D01*
X649478Y3150870D01*
X643889Y3145281D01*
X627634Y3139947D01*
X578612Y3139947D01*
X616712Y3139947D02*
G01*
X654812Y3080004D01*
X728979Y3194557D02*
G01*
X728979Y3080004D01*
X690879Y3194557D02*
G01*
X767334Y3194557D01*
X887222Y3194557D02*
G01*
X887222Y3080004D01*
X887222Y3194557D02*
G01*
X963675Y3080004D01*
X963675Y3194557D02*
G01*
X963675Y3080004D01*
X999743Y3194557D02*
G01*
X999743Y3112770D01*
X1005077Y3096260D01*
X1016000Y3085337D01*
X1032256Y3080004D01*
X1043177Y3080004D01*
X1059688Y3085337D01*
X1070609Y3096260D01*
X1075943Y3112770D01*
X1075943Y3194557D01*
X1112011Y3194557D02*
G01*
X1112011Y3080004D01*
X1112011Y3194557D02*
G01*
X1155700Y3080004D01*
X1199388Y3194557D02*
G01*
X1155700Y3080004D01*
X1199388Y3194557D02*
G01*
X1199388Y3080004D01*
X1319275Y3172713D02*
G01*
X1330197Y3178047D01*
X1346454Y3194557D01*
X1346454Y3080004D01*
X1409700Y3194557D02*
G01*
X1393443Y3188970D01*
X1388109Y3178047D01*
X1388109Y3167126D01*
X1393443Y3156204D01*
X1404365Y3150870D01*
X1426209Y3145281D01*
X1442465Y3139947D01*
X1453388Y3129026D01*
X1458975Y3118104D01*
X1458975Y3101847D01*
X1453388Y3090926D01*
X1448054Y3085337D01*
X1431543Y3080004D01*
X1409700Y3080004D01*
X1393443Y3085337D01*
X1388109Y3090926D01*
X1382522Y3101847D01*
X1382522Y3118104D01*
X1388109Y3129026D01*
X1398777Y3139947D01*
X1415288Y3145281D01*
X1437131Y3150870D01*
X1448054Y3156204D01*
X1453388Y3167126D01*
X1453388Y3178047D01*
X1448054Y3188970D01*
X1431543Y3194557D01*
X1409700Y3194557D01*
X1560322Y3178047D02*
G01*
X1554988Y3188970D01*
X1538477Y3194557D01*
X1527556Y3194557D01*
X1511300Y3188970D01*
X1500377Y3172713D01*
X1494790Y3145281D01*
X1494790Y3118104D01*
X1500377Y3096260D01*
X1511300Y3085337D01*
X1527556Y3080004D01*
X1533143Y3080004D01*
X1549400Y3085337D01*
X1560322Y3096260D01*
X1565909Y3112770D01*
X1565909Y3118104D01*
X1560322Y3134613D01*
X1549400Y3145281D01*
X1533143Y3150870D01*
X1527556Y3150870D01*
X1511300Y3145281D01*
X1500377Y3134613D01*
X1494790Y3118104D01*
X1634490Y3194557D02*
G01*
X1618234Y3188970D01*
X1607311Y3172713D01*
X1601724Y3145281D01*
X1601724Y3129026D01*
X1607311Y3101847D01*
X1618234Y3085337D01*
X1634490Y3080004D01*
X1645411Y3080004D01*
X1661922Y3085337D01*
X1672590Y3101847D01*
X1678177Y3129026D01*
X1678177Y3145281D01*
X1672590Y3172713D01*
X1661922Y3188970D01*
X1645411Y3194557D01*
X1634490Y3194557D01*
X1714245Y3129026D02*
G01*
X1812290Y3129026D01*
X1881124Y3194557D02*
G01*
X1864613Y3188970D01*
X1853691Y3172713D01*
X1848358Y3145281D01*
X1848358Y3129026D01*
X1853691Y3101847D01*
X1864613Y3085337D01*
X1881124Y3080004D01*
X1892045Y3080004D01*
X1908302Y3085337D01*
X1919224Y3101847D01*
X1924811Y3129026D01*
X1924811Y3145281D01*
X1919224Y3172713D01*
X1908302Y3188970D01*
X1892045Y3194557D01*
X1881124Y3194557D01*
X1971547Y3194557D02*
G01*
X2031745Y3194557D01*
X1998979Y3150870D01*
X2015236Y3150870D01*
X2026158Y3145281D01*
X2031745Y3139947D01*
X2037079Y3123692D01*
X2037079Y3112770D01*
X2031745Y3096260D01*
X2020824Y3085337D01*
X2004313Y3080004D01*
X1988058Y3080004D01*
X1971547Y3085337D01*
X1966213Y3090926D01*
X1960625Y3101847D01*
X2105913Y3194557D02*
G01*
X2089404Y3188970D01*
X2078481Y3172713D01*
X2073147Y3145281D01*
X2073147Y3129026D01*
X2078481Y3101847D01*
X2089404Y3085337D01*
X2105913Y3080004D01*
X2116836Y3080004D01*
X2133091Y3085337D01*
X2144013Y3101847D01*
X2149347Y3129026D01*
X2149347Y3145281D01*
X2144013Y3172713D01*
X2133091Y3188970D01*
X2116836Y3194557D01*
X2105913Y3194557D01*
X2185415Y3172713D02*
G01*
X2196338Y3178047D01*
X2212593Y3194557D01*
X2212593Y3080004D01*
X2332736Y3194557D02*
G01*
X2376424Y3080004D01*
X2420111Y3194557D02*
G01*
X2376424Y3080004D01*
X2488691Y3194557D02*
G01*
X2472436Y3188970D01*
X2461513Y3172713D01*
X2455925Y3145281D01*
X2455925Y3129026D01*
X2461513Y3101847D01*
X2472436Y3085337D01*
X2488691Y3080004D01*
X2499613Y3080004D01*
X2515870Y3085337D01*
X2526791Y3101847D01*
X2532379Y3129026D01*
X2532379Y3145281D01*
X2526791Y3172713D01*
X2515870Y3188970D01*
X2499613Y3194557D01*
X2488691Y3194557D01*
X2573781Y3107181D02*
G01*
X2568447Y3101847D01*
X2573781Y3096260D01*
X2579370Y3101847D01*
X2573781Y3107181D01*
X2615184Y3172713D02*
G01*
X2626106Y3178047D01*
X2642615Y3194557D01*
X2642615Y3080004D01*
D11*
X1909572Y4777257D02*
G01*
X1905254Y4786147D01*
X1896109Y4795291D01*
X1886965Y4799863D01*
X1868677Y4799863D01*
X1859788Y4795291D01*
X1850643Y4786147D01*
X1846072Y4777257D01*
X1841500Y4763541D01*
X1841500Y4740935D01*
X1846072Y4727219D01*
X1850643Y4718075D01*
X1859788Y4708931D01*
X1868677Y4704359D01*
X1886965Y4704359D01*
X1896109Y4708931D01*
X1905254Y4718075D01*
X1909572Y4727219D01*
X1944115Y4777257D02*
G01*
X1944115Y4781829D01*
X1948688Y4790719D01*
X1953259Y4795291D01*
X1962404Y4799863D01*
X1980691Y4799863D01*
X1989581Y4795291D01*
X1994154Y4790719D01*
X1998725Y4781829D01*
X1998725Y4772685D01*
X1994154Y4763541D01*
X1985009Y4749825D01*
X1939797Y4704359D01*
X2003297Y4704359D01*
X1841500Y5066563D02*
G01*
X1841500Y4971059D01*
X1841500Y5066563D02*
G01*
X1873250Y5066563D01*
X1886965Y5061991D01*
X1896109Y5052847D01*
X1900681Y5043957D01*
X1905254Y5030241D01*
X1905254Y5007635D01*
X1900681Y4993919D01*
X1896109Y4984775D01*
X1886965Y4975631D01*
X1873250Y4971059D01*
X1841500Y4971059D01*
X1944115Y5066563D02*
G01*
X1994154Y5066563D01*
X1966975Y5030241D01*
X1980691Y5030241D01*
X1989581Y5025669D01*
X1994154Y5021097D01*
X1998725Y5007635D01*
X1998725Y4998491D01*
X1994154Y4984775D01*
X1985009Y4975631D01*
X1971547Y4971059D01*
X1957831Y4971059D01*
X1944115Y4975631D01*
X1939797Y4980203D01*
X1935225Y4989347D01*
X1909572Y5259857D02*
G01*
X1905254Y5268747D01*
X1896109Y5277891D01*
X1886965Y5282463D01*
X1868677Y5282463D01*
X1859788Y5277891D01*
X1850643Y5268747D01*
X1846072Y5259857D01*
X1841500Y5246141D01*
X1841500Y5223535D01*
X1846072Y5209819D01*
X1850643Y5200675D01*
X1859788Y5191531D01*
X1868677Y5186959D01*
X1886965Y5186959D01*
X1896109Y5191531D01*
X1905254Y5200675D01*
X1909572Y5209819D01*
X1948688Y5282463D02*
G01*
X1998725Y5282463D01*
X1971547Y5246141D01*
X1985009Y5246141D01*
X1994154Y5241569D01*
X1998725Y5236997D01*
X2003297Y5223535D01*
X2003297Y5214391D01*
X1998725Y5200675D01*
X1989581Y5191531D01*
X1976120Y5186959D01*
X1962404Y5186959D01*
X1948688Y5191531D01*
X1944115Y5196103D01*
X1939797Y5205247D01*
X1909572Y5742330D02*
G01*
X1905254Y5751474D01*
X1896109Y5760618D01*
X1886965Y5765190D01*
X1868677Y5765190D01*
X1859788Y5760618D01*
X1850643Y5751474D01*
X1846072Y5742330D01*
X1841500Y5728868D01*
X1841500Y5706008D01*
X1846072Y5692292D01*
X1850643Y5683402D01*
X1859788Y5674258D01*
X1868677Y5669686D01*
X1886965Y5669686D01*
X1896109Y5674258D01*
X1905254Y5683402D01*
X1909572Y5692292D01*
X1985009Y5765190D02*
G01*
X1939797Y5701436D01*
X2007870Y5701436D01*
X1985009Y5765190D02*
G01*
X1985009Y5669686D01*
X1841500Y5549290D02*
G01*
X1841500Y5453786D01*
X1841500Y5549290D02*
G01*
X1873250Y5549290D01*
X1886965Y5544718D01*
X1896109Y5535574D01*
X1900681Y5526430D01*
X1905254Y5512968D01*
X1905254Y5490108D01*
X1900681Y5476392D01*
X1896109Y5467502D01*
X1886965Y5458358D01*
X1873250Y5453786D01*
X1841500Y5453786D01*
X1980691Y5549290D02*
G01*
X1935225Y5485536D01*
X2003297Y5485536D01*
X1980691Y5549290D02*
G01*
X1980691Y5453786D01*
X1909572Y6224930D02*
G01*
X1905254Y6234074D01*
X1896109Y6243218D01*
X1886965Y6247790D01*
X1868677Y6247790D01*
X1859788Y6243218D01*
X1850643Y6234074D01*
X1846072Y6224930D01*
X1841500Y6211468D01*
X1841500Y6188608D01*
X1846072Y6174892D01*
X1850643Y6166002D01*
X1859788Y6156858D01*
X1868677Y6152286D01*
X1886965Y6152286D01*
X1896109Y6156858D01*
X1905254Y6166002D01*
X1909572Y6174892D01*
X1994154Y6247790D02*
G01*
X1948688Y6247790D01*
X1944115Y6206896D01*
X1948688Y6211468D01*
X1962404Y6215786D01*
X1976120Y6215786D01*
X1989581Y6211468D01*
X1998725Y6202324D01*
X2003297Y6188608D01*
X2003297Y6179464D01*
X1998725Y6166002D01*
X1989581Y6156858D01*
X1976120Y6152286D01*
X1962404Y6152286D01*
X1948688Y6156858D01*
X1944115Y6161430D01*
X1939797Y6170320D01*
X1841500Y6031890D02*
G01*
X1841500Y5936386D01*
X1841500Y6031890D02*
G01*
X1873250Y6031890D01*
X1886965Y6027318D01*
X1896109Y6018174D01*
X1900681Y6009030D01*
X1905254Y5995568D01*
X1905254Y5972708D01*
X1900681Y5958992D01*
X1896109Y5950102D01*
X1886965Y5940958D01*
X1873250Y5936386D01*
X1841500Y5936386D01*
X1989581Y6031890D02*
G01*
X1944115Y6031890D01*
X1939797Y5990996D01*
X1944115Y5995568D01*
X1957831Y5999886D01*
X1971547Y5999886D01*
X1985009Y5995568D01*
X1994154Y5986424D01*
X1998725Y5972708D01*
X1998725Y5963564D01*
X1994154Y5950102D01*
X1985009Y5940958D01*
X1971547Y5936386D01*
X1957831Y5936386D01*
X1944115Y5940958D01*
X1939797Y5945530D01*
X1935225Y5954420D01*
X1909572Y6707530D02*
G01*
X1905254Y6716674D01*
X1896109Y6725818D01*
X1886965Y6730390D01*
X1868677Y6730390D01*
X1859788Y6725818D01*
X1850643Y6716674D01*
X1846072Y6707530D01*
X1841500Y6694068D01*
X1841500Y6671208D01*
X1846072Y6657492D01*
X1850643Y6648602D01*
X1859788Y6639458D01*
X1868677Y6634886D01*
X1886965Y6634886D01*
X1896109Y6639458D01*
X1905254Y6648602D01*
X1909572Y6657492D01*
X1994154Y6716674D02*
G01*
X1989581Y6725818D01*
X1976120Y6730390D01*
X1966975Y6730390D01*
X1953259Y6725818D01*
X1944115Y6712102D01*
X1939797Y6689496D01*
X1939797Y6666636D01*
X1944115Y6648602D01*
X1953259Y6639458D01*
X1966975Y6634886D01*
X1971547Y6634886D01*
X1985009Y6639458D01*
X1994154Y6648602D01*
X1998725Y6662064D01*
X1998725Y6666636D01*
X1994154Y6680352D01*
X1985009Y6689496D01*
X1971547Y6694068D01*
X1966975Y6694068D01*
X1953259Y6689496D01*
X1944115Y6680352D01*
X1939797Y6666636D01*
X1841500Y6514490D02*
G01*
X1841500Y6418986D01*
X1841500Y6514490D02*
G01*
X1873250Y6514490D01*
X1886965Y6509918D01*
X1896109Y6500774D01*
X1900681Y6491630D01*
X1905254Y6478168D01*
X1905254Y6455308D01*
X1900681Y6441592D01*
X1896109Y6432702D01*
X1886965Y6423558D01*
X1873250Y6418986D01*
X1841500Y6418986D01*
X1989581Y6500774D02*
G01*
X1985009Y6509918D01*
X1971547Y6514490D01*
X1962404Y6514490D01*
X1948688Y6509918D01*
X1939797Y6496202D01*
X1935225Y6473596D01*
X1935225Y6450736D01*
X1939797Y6432702D01*
X1948688Y6423558D01*
X1962404Y6418986D01*
X1966975Y6418986D01*
X1980691Y6423558D01*
X1989581Y6432702D01*
X1994154Y6446164D01*
X1994154Y6450736D01*
X1989581Y6464452D01*
X1980691Y6473596D01*
X1966975Y6478168D01*
X1962404Y6478168D01*
X1948688Y6473596D01*
X1939797Y6464452D01*
X1935225Y6450736D01*
X1909572Y7190130D02*
G01*
X1905254Y7199274D01*
X1896109Y7208418D01*
X1886965Y7212990D01*
X1868677Y7212990D01*
X1859788Y7208418D01*
X1850643Y7199274D01*
X1846072Y7190130D01*
X1841500Y7176668D01*
X1841500Y7153808D01*
X1846072Y7140092D01*
X1850643Y7131202D01*
X1859788Y7122058D01*
X1868677Y7117486D01*
X1886965Y7117486D01*
X1896109Y7122058D01*
X1905254Y7131202D01*
X1909572Y7140092D01*
X2003297Y7212990D02*
G01*
X1957831Y7117486D01*
X1939797Y7212990D02*
G01*
X2003297Y7212990D01*
X1841500Y6997090D02*
G01*
X1841500Y6901586D01*
X1841500Y6997090D02*
G01*
X1873250Y6997090D01*
X1886965Y6992518D01*
X1896109Y6983374D01*
X1900681Y6974230D01*
X1905254Y6960768D01*
X1905254Y6937908D01*
X1900681Y6924192D01*
X1896109Y6915302D01*
X1886965Y6906158D01*
X1873250Y6901586D01*
X1841500Y6901586D01*
X1998725Y6997090D02*
G01*
X1953259Y6901586D01*
X1935225Y6997090D02*
G01*
X1998725Y6997090D01*
X1909572Y7672730D02*
G01*
X1905254Y7681874D01*
X1896109Y7691018D01*
X1886965Y7695590D01*
X1868677Y7695590D01*
X1859788Y7691018D01*
X1850643Y7681874D01*
X1846072Y7672730D01*
X1841500Y7659268D01*
X1841500Y7636408D01*
X1846072Y7622692D01*
X1850643Y7613802D01*
X1859788Y7604658D01*
X1868677Y7600086D01*
X1886965Y7600086D01*
X1896109Y7604658D01*
X1905254Y7613802D01*
X1909572Y7622692D01*
X1962404Y7695590D02*
G01*
X1948688Y7691018D01*
X1944115Y7681874D01*
X1944115Y7672730D01*
X1948688Y7663586D01*
X1957831Y7659268D01*
X1976120Y7654696D01*
X1989581Y7650124D01*
X1998725Y7640980D01*
X2003297Y7631836D01*
X2003297Y7618120D01*
X1998725Y7609230D01*
X1994154Y7604658D01*
X1980691Y7600086D01*
X1962404Y7600086D01*
X1948688Y7604658D01*
X1944115Y7609230D01*
X1939797Y7618120D01*
X1939797Y7631836D01*
X1944115Y7640980D01*
X1953259Y7650124D01*
X1966975Y7654696D01*
X1985009Y7659268D01*
X1994154Y7663586D01*
X1998725Y7672730D01*
X1998725Y7681874D01*
X1994154Y7691018D01*
X1980691Y7695590D01*
X1962404Y7695590D01*
X1841500Y7479690D02*
G01*
X1841500Y7384186D01*
X1841500Y7479690D02*
G01*
X1873250Y7479690D01*
X1886965Y7475118D01*
X1896109Y7465974D01*
X1900681Y7456830D01*
X1905254Y7443368D01*
X1905254Y7420508D01*
X1900681Y7406792D01*
X1896109Y7397902D01*
X1886965Y7388758D01*
X1873250Y7384186D01*
X1841500Y7384186D01*
X1957831Y7479690D02*
G01*
X1944115Y7475118D01*
X1939797Y7465974D01*
X1939797Y7456830D01*
X1944115Y7447686D01*
X1953259Y7443368D01*
X1971547Y7438796D01*
X1985009Y7434224D01*
X1994154Y7425080D01*
X1998725Y7415936D01*
X1998725Y7402220D01*
X1994154Y7393330D01*
X1989581Y7388758D01*
X1976120Y7384186D01*
X1957831Y7384186D01*
X1944115Y7388758D01*
X1939797Y7393330D01*
X1935225Y7402220D01*
X1935225Y7415936D01*
X1939797Y7425080D01*
X1948688Y7434224D01*
X1962404Y7438796D01*
X1980691Y7443368D01*
X1989581Y7447686D01*
X1994154Y7456830D01*
X1994154Y7465974D01*
X1989581Y7475118D01*
X1976120Y7479690D01*
X1957831Y7479690D01*
X1909572Y8155330D02*
G01*
X1905254Y8164474D01*
X1896109Y8173618D01*
X1886965Y8178190D01*
X1868677Y8178190D01*
X1859788Y8173618D01*
X1850643Y8164474D01*
X1846072Y8155330D01*
X1841500Y8141868D01*
X1841500Y8119008D01*
X1846072Y8105292D01*
X1850643Y8096402D01*
X1859788Y8087258D01*
X1868677Y8082686D01*
X1886965Y8082686D01*
X1896109Y8087258D01*
X1905254Y8096402D01*
X1909572Y8105292D01*
X1998725Y8146186D02*
G01*
X1994154Y8132724D01*
X1985009Y8123580D01*
X1971547Y8119008D01*
X1966975Y8119008D01*
X1953259Y8123580D01*
X1944115Y8132724D01*
X1939797Y8146186D01*
X1939797Y8150758D01*
X1944115Y8164474D01*
X1953259Y8173618D01*
X1966975Y8178190D01*
X1971547Y8178190D01*
X1985009Y8173618D01*
X1994154Y8164474D01*
X1998725Y8146186D01*
X1998725Y8123580D01*
X1994154Y8100720D01*
X1985009Y8087258D01*
X1971547Y8082686D01*
X1962404Y8082686D01*
X1948688Y8087258D01*
X1944115Y8096402D01*
X1841500Y7962290D02*
G01*
X1841500Y7866786D01*
X1841500Y7962290D02*
G01*
X1873250Y7962290D01*
X1886965Y7957718D01*
X1896109Y7948574D01*
X1900681Y7939430D01*
X1905254Y7925968D01*
X1905254Y7903108D01*
X1900681Y7889392D01*
X1896109Y7880502D01*
X1886965Y7871358D01*
X1873250Y7866786D01*
X1841500Y7866786D01*
X1994154Y7930286D02*
G01*
X1989581Y7916824D01*
X1980691Y7907680D01*
X1966975Y7903108D01*
X1962404Y7903108D01*
X1948688Y7907680D01*
X1939797Y7916824D01*
X1935225Y7930286D01*
X1935225Y7934858D01*
X1939797Y7948574D01*
X1948688Y7957718D01*
X1962404Y7962290D01*
X1966975Y7962290D01*
X1980691Y7957718D01*
X1989581Y7948574D01*
X1994154Y7930286D01*
X1994154Y7907680D01*
X1989581Y7884820D01*
X1980691Y7871358D01*
X1966975Y7866786D01*
X1957831Y7866786D01*
X1944115Y7871358D01*
X1939797Y7880502D01*
X1909572Y8637930D02*
G01*
X1905254Y8647074D01*
X1896109Y8656218D01*
X1886965Y8660790D01*
X1868677Y8660790D01*
X1859788Y8656218D01*
X1850643Y8647074D01*
X1846072Y8637930D01*
X1841500Y8624468D01*
X1841500Y8601608D01*
X1846072Y8587892D01*
X1850643Y8579002D01*
X1859788Y8569858D01*
X1868677Y8565286D01*
X1886965Y8565286D01*
X1896109Y8569858D01*
X1905254Y8579002D01*
X1909572Y8587892D01*
X1939797Y8642502D02*
G01*
X1948688Y8647074D01*
X1962404Y8660790D01*
X1962404Y8565286D01*
X2019808Y8660790D02*
G01*
X2006091Y8656218D01*
X1996947Y8642502D01*
X1992375Y8619896D01*
X1992375Y8606180D01*
X1996947Y8583320D01*
X2006091Y8569858D01*
X2019808Y8565286D01*
X2028697Y8565286D01*
X2042413Y8569858D01*
X2051558Y8583320D01*
X2056129Y8606180D01*
X2056129Y8619896D01*
X2051558Y8642502D01*
X2042413Y8656218D01*
X2028697Y8660790D01*
X2019808Y8660790D01*
X1841500Y8444890D02*
G01*
X1841500Y8349386D01*
X1841500Y8444890D02*
G01*
X1873250Y8444890D01*
X1886965Y8440318D01*
X1896109Y8431174D01*
X1900681Y8422030D01*
X1905254Y8408568D01*
X1905254Y8385708D01*
X1900681Y8371992D01*
X1896109Y8363102D01*
X1886965Y8353958D01*
X1873250Y8349386D01*
X1841500Y8349386D01*
X1935225Y8426602D02*
G01*
X1944115Y8431174D01*
X1957831Y8444890D01*
X1957831Y8349386D01*
X2015236Y8444890D02*
G01*
X2001520Y8440318D01*
X1992375Y8426602D01*
X1987804Y8403996D01*
X1987804Y8390280D01*
X1992375Y8367420D01*
X2001520Y8353958D01*
X2015236Y8349386D01*
X2024125Y8349386D01*
X2037841Y8353958D01*
X2046986Y8367420D01*
X2051558Y8390280D01*
X2051558Y8403996D01*
X2046986Y8426602D01*
X2037841Y8440318D01*
X2024125Y8444890D01*
X2015236Y8444890D01*
X1909572Y9120530D02*
G01*
X1905254Y9129674D01*
X1896109Y9138818D01*
X1886965Y9143390D01*
X1868677Y9143390D01*
X1859788Y9138818D01*
X1850643Y9129674D01*
X1846072Y9120530D01*
X1841500Y9107068D01*
X1841500Y9084208D01*
X1846072Y9070492D01*
X1850643Y9061602D01*
X1859788Y9052458D01*
X1868677Y9047886D01*
X1886965Y9047886D01*
X1896109Y9052458D01*
X1905254Y9061602D01*
X1909572Y9070492D01*
X1939797Y9125102D02*
G01*
X1948688Y9129674D01*
X1962404Y9143390D01*
X1962404Y9047886D01*
X1992375Y9125102D02*
G01*
X2001520Y9129674D01*
X2015236Y9143390D01*
X2015236Y9047886D01*
X1841500Y8927490D02*
G01*
X1841500Y8831986D01*
X1841500Y8927490D02*
G01*
X1873250Y8927490D01*
X1886965Y8922918D01*
X1896109Y8913774D01*
X1900681Y8904630D01*
X1905254Y8891168D01*
X1905254Y8868308D01*
X1900681Y8854592D01*
X1896109Y8845702D01*
X1886965Y8836558D01*
X1873250Y8831986D01*
X1841500Y8831986D01*
X1935225Y8909202D02*
G01*
X1944115Y8913774D01*
X1957831Y8927490D01*
X1957831Y8831986D01*
X1987804Y8909202D02*
G01*
X1996947Y8913774D01*
X2010663Y8927490D01*
X2010663Y8831986D01*
X1909572Y9603130D02*
G01*
X1905254Y9612274D01*
X1896109Y9621418D01*
X1886965Y9625990D01*
X1868677Y9625990D01*
X1859788Y9621418D01*
X1850643Y9612274D01*
X1846072Y9603130D01*
X1841500Y9589668D01*
X1841500Y9566808D01*
X1846072Y9553092D01*
X1850643Y9544202D01*
X1859788Y9535058D01*
X1868677Y9530486D01*
X1886965Y9530486D01*
X1896109Y9535058D01*
X1905254Y9544202D01*
X1909572Y9553092D01*
X1939797Y9607702D02*
G01*
X1948688Y9612274D01*
X1962404Y9625990D01*
X1962404Y9530486D01*
X1996947Y9603130D02*
G01*
X1996947Y9607702D01*
X2001520Y9616846D01*
X2006091Y9621418D01*
X2015236Y9625990D01*
X2033270Y9625990D01*
X2042413Y9621418D01*
X2046986Y9616846D01*
X2051558Y9607702D01*
X2051558Y9598558D01*
X2046986Y9589668D01*
X2037841Y9575952D01*
X1992375Y9530486D01*
X2056129Y9530486D01*
X1841500Y9410090D02*
G01*
X1841500Y9314586D01*
X1841500Y9410090D02*
G01*
X1873250Y9410090D01*
X1886965Y9405518D01*
X1896109Y9396374D01*
X1900681Y9387230D01*
X1905254Y9373768D01*
X1905254Y9350908D01*
X1900681Y9337192D01*
X1896109Y9328302D01*
X1886965Y9319158D01*
X1873250Y9314586D01*
X1841500Y9314586D01*
X1935225Y9391802D02*
G01*
X1944115Y9396374D01*
X1957831Y9410090D01*
X1957831Y9314586D01*
X1992375Y9387230D02*
G01*
X1992375Y9391802D01*
X1996947Y9400946D01*
X2001520Y9405518D01*
X2010663Y9410090D01*
X2028697Y9410090D01*
X2037841Y9405518D01*
X2042413Y9400946D01*
X2046986Y9391802D01*
X2046986Y9382658D01*
X2042413Y9373768D01*
X2033270Y9360052D01*
X1987804Y9314586D01*
X2051558Y9314586D01*
X1909572Y10085730D02*
G01*
X1905254Y10094874D01*
X1896109Y10104018D01*
X1886965Y10108590D01*
X1868677Y10108590D01*
X1859788Y10104018D01*
X1850643Y10094874D01*
X1846072Y10085730D01*
X1841500Y10072268D01*
X1841500Y10049408D01*
X1846072Y10035692D01*
X1850643Y10026802D01*
X1859788Y10017658D01*
X1868677Y10013086D01*
X1886965Y10013086D01*
X1896109Y10017658D01*
X1905254Y10026802D01*
X1909572Y10035692D01*
X1939797Y10090302D02*
G01*
X1948688Y10094874D01*
X1962404Y10108590D01*
X1962404Y10013086D01*
X2001520Y10108590D02*
G01*
X2051558Y10108590D01*
X2024125Y10072268D01*
X2037841Y10072268D01*
X2046986Y10067696D01*
X2051558Y10063124D01*
X2056129Y10049408D01*
X2056129Y10040264D01*
X2051558Y10026802D01*
X2042413Y10017658D01*
X2028697Y10013086D01*
X2015236Y10013086D01*
X2001520Y10017658D01*
X1996947Y10022230D01*
X1992375Y10031120D01*
X1841500Y9892690D02*
G01*
X1841500Y9797186D01*
X1841500Y9892690D02*
G01*
X1873250Y9892690D01*
X1886965Y9888118D01*
X1896109Y9878974D01*
X1900681Y9869830D01*
X1905254Y9856368D01*
X1905254Y9833508D01*
X1900681Y9819792D01*
X1896109Y9810902D01*
X1886965Y9801758D01*
X1873250Y9797186D01*
X1841500Y9797186D01*
X1935225Y9874402D02*
G01*
X1944115Y9878974D01*
X1957831Y9892690D01*
X1957831Y9797186D01*
X1996947Y9892690D02*
G01*
X2046986Y9892690D01*
X2019808Y9856368D01*
X2033270Y9856368D01*
X2042413Y9851796D01*
X2046986Y9847224D01*
X2051558Y9833508D01*
X2051558Y9824364D01*
X2046986Y9810902D01*
X2037841Y9801758D01*
X2024125Y9797186D01*
X2010663Y9797186D01*
X1996947Y9801758D01*
X1992375Y9806330D01*
X1987804Y9815220D01*
X1909572Y10568330D02*
G01*
X1905254Y10577474D01*
X1896109Y10586618D01*
X1886965Y10591190D01*
X1868677Y10591190D01*
X1859788Y10586618D01*
X1850643Y10577474D01*
X1846072Y10568330D01*
X1841500Y10554868D01*
X1841500Y10532008D01*
X1846072Y10518292D01*
X1850643Y10509402D01*
X1859788Y10500258D01*
X1868677Y10495686D01*
X1886965Y10495686D01*
X1896109Y10500258D01*
X1905254Y10509402D01*
X1909572Y10518292D01*
X1939797Y10572902D02*
G01*
X1948688Y10577474D01*
X1962404Y10591190D01*
X1962404Y10495686D01*
X2037841Y10591190D02*
G01*
X1992375Y10527436D01*
X2060702Y10527436D01*
X2037841Y10591190D02*
G01*
X2037841Y10495686D01*
X1841500Y10375290D02*
G01*
X1841500Y10279786D01*
X1841500Y10375290D02*
G01*
X1873250Y10375290D01*
X1886965Y10370718D01*
X1896109Y10361574D01*
X1900681Y10352430D01*
X1905254Y10338968D01*
X1905254Y10316108D01*
X1900681Y10302392D01*
X1896109Y10293502D01*
X1886965Y10284358D01*
X1873250Y10279786D01*
X1841500Y10279786D01*
X1935225Y10357002D02*
G01*
X1944115Y10361574D01*
X1957831Y10375290D01*
X1957831Y10279786D01*
X2033270Y10375290D02*
G01*
X1987804Y10311536D01*
X2056129Y10311536D01*
X2033270Y10375290D02*
G01*
X2033270Y10279786D01*
X982472Y4367021D02*
G01*
X978154Y4376165D01*
X969009Y4385310D01*
X959865Y4389881D01*
X941577Y4389881D01*
X932688Y4385310D01*
X923543Y4376165D01*
X918972Y4367021D01*
X914400Y4353560D01*
X914400Y4330700D01*
X918972Y4316984D01*
X923543Y4308094D01*
X932688Y4298950D01*
X941577Y4294378D01*
X959865Y4294378D01*
X969009Y4298950D01*
X978154Y4308094D01*
X982472Y4316984D01*
X1012697Y4371594D02*
G01*
X1021588Y4376165D01*
X1035304Y4389881D01*
X1035304Y4294378D01*
X1119886Y4389881D02*
G01*
X1074420Y4389881D01*
X1069847Y4348987D01*
X1074420Y4353560D01*
X1088136Y4357878D01*
X1101597Y4357878D01*
X1115313Y4353560D01*
X1124458Y4344415D01*
X1129029Y4330700D01*
X1129029Y4321555D01*
X1124458Y4308094D01*
X1115313Y4298950D01*
X1101597Y4294378D01*
X1088136Y4294378D01*
X1074420Y4298950D01*
X1069847Y4303521D01*
X1065275Y4312412D01*
X914400Y4094073D02*
G01*
X914400Y3998569D01*
X914400Y4094073D02*
G01*
X946150Y4094073D01*
X959865Y4089501D01*
X969009Y4080357D01*
X973581Y4071213D01*
X978154Y4057751D01*
X978154Y4034891D01*
X973581Y4021175D01*
X969009Y4012285D01*
X959865Y4003141D01*
X946150Y3998569D01*
X914400Y3998569D01*
X1008125Y4075785D02*
G01*
X1017015Y4080357D01*
X1030731Y4094073D01*
X1030731Y3998569D01*
X1115313Y4094073D02*
G01*
X1069847Y4094073D01*
X1065275Y4053179D01*
X1069847Y4057751D01*
X1083563Y4062069D01*
X1097025Y4062069D01*
X1110741Y4057751D01*
X1119886Y4048607D01*
X1124458Y4034891D01*
X1124458Y4025747D01*
X1119886Y4012285D01*
X1110741Y4003141D01*
X1097025Y3998569D01*
X1083563Y3998569D01*
X1069847Y4003141D01*
X1065275Y4007713D01*
X1060704Y4016603D01*
X914374Y4576597D02*
G01*
X914374Y4481093D01*
X914374Y4576597D02*
G01*
X946124Y4576597D01*
X959840Y4572025D01*
X968984Y4562881D01*
X973556Y4553991D01*
X978128Y4540275D01*
X978128Y4517415D01*
X973556Y4503953D01*
X968984Y4494809D01*
X959840Y4485665D01*
X946124Y4481093D01*
X914374Y4481093D01*
X1008100Y4558309D02*
G01*
X1017244Y4562881D01*
X1030706Y4576597D01*
X1030706Y4481093D01*
X1115288Y4562881D02*
G01*
X1110716Y4572025D01*
X1097000Y4576597D01*
X1088110Y4576597D01*
X1074394Y4572025D01*
X1065250Y4558309D01*
X1060678Y4535703D01*
X1060678Y4512843D01*
X1065250Y4494809D01*
X1074394Y4485665D01*
X1088110Y4481093D01*
X1092682Y4481093D01*
X1106144Y4485665D01*
X1115288Y4494809D01*
X1119860Y4508525D01*
X1119860Y4512843D01*
X1115288Y4526559D01*
X1106144Y4535703D01*
X1092682Y4540275D01*
X1088110Y4540275D01*
X1074394Y4535703D01*
X1065250Y4526559D01*
X1060678Y4512843D01*
X982700Y4849748D02*
G01*
X978128Y4858638D01*
X968984Y4867782D01*
X959840Y4872354D01*
X941552Y4872354D01*
X932662Y4867782D01*
X923518Y4858638D01*
X918946Y4849748D01*
X914374Y4836032D01*
X914374Y4813427D01*
X918946Y4799711D01*
X923518Y4790567D01*
X932662Y4781422D01*
X941552Y4776851D01*
X959840Y4776851D01*
X968984Y4781422D01*
X978128Y4790567D01*
X982700Y4799711D01*
X1012672Y4854320D02*
G01*
X1021562Y4858638D01*
X1035278Y4872354D01*
X1035278Y4776851D01*
X1119860Y4858638D02*
G01*
X1115288Y4867782D01*
X1101572Y4872354D01*
X1092682Y4872354D01*
X1078966Y4867782D01*
X1069822Y4854320D01*
X1065250Y4831461D01*
X1065250Y4808854D01*
X1069822Y4790567D01*
X1078966Y4781422D01*
X1092682Y4776851D01*
X1097000Y4776851D01*
X1110716Y4781422D01*
X1119860Y4790567D01*
X1124432Y4804282D01*
X1124432Y4808854D01*
X1119860Y4822317D01*
X1110716Y4831461D01*
X1097000Y4836032D01*
X1092682Y4836032D01*
X1078966Y4831461D01*
X1069822Y4822317D01*
X1065250Y4808854D01*
X982700Y5332348D02*
G01*
X978128Y5341238D01*
X968984Y5350382D01*
X959840Y5354954D01*
X941552Y5354954D01*
X932662Y5350382D01*
X923518Y5341238D01*
X918946Y5332348D01*
X914374Y5318632D01*
X914374Y5296027D01*
X918946Y5282311D01*
X923518Y5273167D01*
X932662Y5264022D01*
X941552Y5259451D01*
X959840Y5259451D01*
X968984Y5264022D01*
X978128Y5273167D01*
X982700Y5282311D01*
X1012672Y5336920D02*
G01*
X1021562Y5341238D01*
X1035278Y5354954D01*
X1035278Y5259451D01*
X1129004Y5354954D02*
G01*
X1083538Y5259451D01*
X1065250Y5354954D02*
G01*
X1129004Y5354954D01*
X914374Y5059298D02*
G01*
X914374Y4963795D01*
X914374Y5059298D02*
G01*
X946124Y5059298D01*
X959840Y5054727D01*
X968984Y5045582D01*
X973556Y5036438D01*
X978128Y5022722D01*
X978128Y5000117D01*
X973556Y4986401D01*
X968984Y4977256D01*
X959840Y4968367D01*
X946124Y4963795D01*
X914374Y4963795D01*
X1008100Y5041011D02*
G01*
X1017244Y5045582D01*
X1030706Y5059298D01*
X1030706Y4963795D01*
X1124432Y5059298D02*
G01*
X1078966Y4963795D01*
X1060678Y5059298D02*
G01*
X1124432Y5059298D01*
X914374Y5541898D02*
G01*
X914374Y5446395D01*
X914374Y5541898D02*
G01*
X946124Y5541898D01*
X959840Y5537327D01*
X968984Y5528182D01*
X973556Y5519038D01*
X978128Y5505322D01*
X978128Y5482717D01*
X973556Y5469001D01*
X968984Y5459856D01*
X959840Y5450967D01*
X946124Y5446395D01*
X914374Y5446395D01*
X1008100Y5523611D02*
G01*
X1017244Y5528182D01*
X1030706Y5541898D01*
X1030706Y5446395D01*
X1083538Y5541898D02*
G01*
X1069822Y5537327D01*
X1065250Y5528182D01*
X1065250Y5519038D01*
X1069822Y5509895D01*
X1078966Y5505322D01*
X1097000Y5501004D01*
X1110716Y5496432D01*
X1119860Y5487288D01*
X1124432Y5478145D01*
X1124432Y5464429D01*
X1119860Y5455538D01*
X1115288Y5450967D01*
X1101572Y5446395D01*
X1083538Y5446395D01*
X1069822Y5450967D01*
X1065250Y5455538D01*
X1060678Y5464429D01*
X1060678Y5478145D01*
X1065250Y5487288D01*
X1074394Y5496432D01*
X1088110Y5501004D01*
X1106144Y5505322D01*
X1115288Y5509895D01*
X1119860Y5519038D01*
X1119860Y5528182D01*
X1115288Y5537327D01*
X1101572Y5541898D01*
X1083538Y5541898D01*
X982700Y5814948D02*
G01*
X978128Y5823838D01*
X968984Y5832982D01*
X959840Y5837554D01*
X941552Y5837554D01*
X932662Y5832982D01*
X923518Y5823838D01*
X918946Y5814948D01*
X914374Y5801232D01*
X914374Y5778627D01*
X918946Y5764911D01*
X923518Y5755767D01*
X932662Y5746622D01*
X941552Y5742051D01*
X959840Y5742051D01*
X968984Y5746622D01*
X978128Y5755767D01*
X982700Y5764911D01*
X1012672Y5819520D02*
G01*
X1021562Y5823838D01*
X1035278Y5837554D01*
X1035278Y5742051D01*
X1088110Y5837554D02*
G01*
X1074394Y5832982D01*
X1069822Y5823838D01*
X1069822Y5814948D01*
X1074394Y5805804D01*
X1083538Y5801232D01*
X1101572Y5796661D01*
X1115288Y5792088D01*
X1124432Y5782945D01*
X1129004Y5774054D01*
X1129004Y5760338D01*
X1124432Y5751195D01*
X1119860Y5746622D01*
X1106144Y5742051D01*
X1088110Y5742051D01*
X1074394Y5746622D01*
X1069822Y5751195D01*
X1065250Y5760338D01*
X1065250Y5774054D01*
X1069822Y5782945D01*
X1078966Y5792088D01*
X1092682Y5796661D01*
X1110716Y5801232D01*
X1119860Y5805804D01*
X1124432Y5814948D01*
X1124432Y5823838D01*
X1119860Y5832982D01*
X1106144Y5837554D01*
X1088110Y5837554D01*
X914374Y6024498D02*
G01*
X914374Y5928995D01*
X914374Y6024498D02*
G01*
X946124Y6024498D01*
X959840Y6019927D01*
X968984Y6010782D01*
X973556Y6001638D01*
X978128Y5987922D01*
X978128Y5965317D01*
X973556Y5951601D01*
X968984Y5942456D01*
X959840Y5933567D01*
X946124Y5928995D01*
X914374Y5928995D01*
X1008100Y6006211D02*
G01*
X1017244Y6010782D01*
X1030706Y6024498D01*
X1030706Y5928995D01*
X1119860Y5992495D02*
G01*
X1115288Y5979032D01*
X1106144Y5969888D01*
X1092682Y5965317D01*
X1088110Y5965317D01*
X1074394Y5969888D01*
X1065250Y5979032D01*
X1060678Y5992495D01*
X1060678Y5997067D01*
X1065250Y6010782D01*
X1074394Y6019927D01*
X1088110Y6024498D01*
X1092682Y6024498D01*
X1106144Y6019927D01*
X1115288Y6010782D01*
X1119860Y5992495D01*
X1119860Y5969888D01*
X1115288Y5947029D01*
X1106144Y5933567D01*
X1092682Y5928995D01*
X1083538Y5928995D01*
X1069822Y5933567D01*
X1065250Y5942456D01*
X982700Y6297548D02*
G01*
X978128Y6306438D01*
X968984Y6315582D01*
X959840Y6320154D01*
X941552Y6320154D01*
X932662Y6315582D01*
X923518Y6306438D01*
X918946Y6297548D01*
X914374Y6283832D01*
X914374Y6261227D01*
X918946Y6247511D01*
X923518Y6238367D01*
X932662Y6229222D01*
X941552Y6224651D01*
X959840Y6224651D01*
X968984Y6229222D01*
X978128Y6238367D01*
X982700Y6247511D01*
X1012672Y6302120D02*
G01*
X1021562Y6306438D01*
X1035278Y6320154D01*
X1035278Y6224651D01*
X1124432Y6288404D02*
G01*
X1119860Y6274688D01*
X1110716Y6265545D01*
X1097000Y6261227D01*
X1092682Y6261227D01*
X1078966Y6265545D01*
X1069822Y6274688D01*
X1065250Y6288404D01*
X1065250Y6292977D01*
X1069822Y6306438D01*
X1078966Y6315582D01*
X1092682Y6320154D01*
X1097000Y6320154D01*
X1110716Y6315582D01*
X1119860Y6306438D01*
X1124432Y6288404D01*
X1124432Y6265545D01*
X1119860Y6242938D01*
X1110716Y6229222D01*
X1097000Y6224651D01*
X1088110Y6224651D01*
X1074394Y6229222D01*
X1069822Y6238367D01*
X876274Y6501815D02*
G01*
X876274Y6406311D01*
X876274Y6501815D02*
G01*
X908024Y6501815D01*
X921740Y6497243D01*
X930884Y6488099D01*
X935456Y6478955D01*
X940028Y6465239D01*
X940028Y6442633D01*
X935456Y6428917D01*
X930884Y6419773D01*
X921740Y6410883D01*
X908024Y6406311D01*
X876274Y6406311D01*
X974572Y6478955D02*
G01*
X974572Y6483527D01*
X979144Y6492671D01*
X983462Y6497243D01*
X992606Y6501815D01*
X1010894Y6501815D01*
X1020038Y6497243D01*
X1024356Y6492671D01*
X1028928Y6483527D01*
X1028928Y6474383D01*
X1024356Y6465239D01*
X1015466Y6451777D01*
X970000Y6406311D01*
X1033500Y6406311D01*
X1090904Y6501815D02*
G01*
X1077188Y6497243D01*
X1068044Y6483527D01*
X1063472Y6460921D01*
X1063472Y6447205D01*
X1068044Y6424345D01*
X1077188Y6410883D01*
X1090904Y6406311D01*
X1100048Y6406311D01*
X1113510Y6410883D01*
X1122654Y6424345D01*
X1127226Y6447205D01*
X1127226Y6460921D01*
X1122654Y6483527D01*
X1113510Y6497243D01*
X1100048Y6501815D01*
X1090904Y6501815D01*
X944600Y6783857D02*
G01*
X940028Y6792747D01*
X930884Y6801891D01*
X921740Y6806463D01*
X903452Y6806463D01*
X894562Y6801891D01*
X885418Y6792747D01*
X880846Y6783857D01*
X876274Y6770141D01*
X876274Y6747535D01*
X880846Y6733819D01*
X885418Y6724675D01*
X894562Y6715531D01*
X903452Y6710959D01*
X921740Y6710959D01*
X930884Y6715531D01*
X940028Y6724675D01*
X944600Y6733819D01*
X979144Y6783857D02*
G01*
X979144Y6788429D01*
X983462Y6797319D01*
X988034Y6801891D01*
X997178Y6806463D01*
X1015466Y6806463D01*
X1024356Y6801891D01*
X1028928Y6797319D01*
X1033500Y6788429D01*
X1033500Y6779285D01*
X1028928Y6770141D01*
X1020038Y6756425D01*
X974572Y6710959D01*
X1038072Y6710959D01*
X1095476Y6806463D02*
G01*
X1081760Y6801891D01*
X1072616Y6788429D01*
X1068044Y6765569D01*
X1068044Y6751853D01*
X1072616Y6729247D01*
X1081760Y6715531D01*
X1095476Y6710959D01*
X1104366Y6710959D01*
X1118082Y6715531D01*
X1127226Y6729247D01*
X1131798Y6751853D01*
X1131798Y6765569D01*
X1127226Y6788429D01*
X1118082Y6801891D01*
X1104366Y6806463D01*
X1095476Y6806463D01*
X888974Y6997115D02*
G01*
X888974Y6901611D01*
X888974Y6997115D02*
G01*
X920724Y6997115D01*
X934440Y6992543D01*
X943584Y6983399D01*
X948156Y6974255D01*
X952728Y6960539D01*
X952728Y6937933D01*
X948156Y6924217D01*
X943584Y6915073D01*
X934440Y6906183D01*
X920724Y6901611D01*
X888974Y6901611D01*
X987272Y6974255D02*
G01*
X987272Y6978827D01*
X991844Y6987971D01*
X996162Y6992543D01*
X1005306Y6997115D01*
X1023594Y6997115D01*
X1032738Y6992543D01*
X1037056Y6987971D01*
X1041628Y6978827D01*
X1041628Y6969683D01*
X1037056Y6960539D01*
X1028166Y6947077D01*
X982700Y6901611D01*
X1046200Y6901611D01*
X1076172Y6978827D02*
G01*
X1085316Y6983399D01*
X1099032Y6997115D01*
X1099032Y6901611D01*
X957300Y7266457D02*
G01*
X952728Y7275347D01*
X943584Y7284491D01*
X934440Y7289063D01*
X916152Y7289063D01*
X907262Y7284491D01*
X898118Y7275347D01*
X893546Y7266457D01*
X888974Y7252741D01*
X888974Y7230135D01*
X893546Y7216419D01*
X898118Y7207275D01*
X907262Y7198131D01*
X916152Y7193559D01*
X934440Y7193559D01*
X943584Y7198131D01*
X952728Y7207275D01*
X957300Y7216419D01*
X991844Y7266457D02*
G01*
X991844Y7271029D01*
X996162Y7279919D01*
X1000734Y7284491D01*
X1009878Y7289063D01*
X1028166Y7289063D01*
X1037056Y7284491D01*
X1041628Y7279919D01*
X1046200Y7271029D01*
X1046200Y7261885D01*
X1041628Y7252741D01*
X1032738Y7239025D01*
X987272Y7193559D01*
X1050772Y7193559D01*
X1080744Y7271029D02*
G01*
X1089888Y7275347D01*
X1103604Y7289063D01*
X1103604Y7193559D01*
X863574Y7492415D02*
G01*
X863574Y7396911D01*
X863574Y7492415D02*
G01*
X895324Y7492415D01*
X909040Y7487843D01*
X918184Y7478699D01*
X922756Y7469555D01*
X927328Y7455839D01*
X927328Y7433233D01*
X922756Y7419517D01*
X918184Y7410373D01*
X909040Y7401483D01*
X895324Y7396911D01*
X863574Y7396911D01*
X961872Y7469555D02*
G01*
X961872Y7474127D01*
X966444Y7483271D01*
X970762Y7487843D01*
X979906Y7492415D01*
X998194Y7492415D01*
X1007338Y7487843D01*
X1011656Y7483271D01*
X1016228Y7474127D01*
X1016228Y7464983D01*
X1011656Y7455839D01*
X1002766Y7442377D01*
X957300Y7396911D01*
X1020800Y7396911D01*
X1055344Y7469555D02*
G01*
X1055344Y7474127D01*
X1059916Y7483271D01*
X1064488Y7487843D01*
X1073632Y7492415D01*
X1091666Y7492415D01*
X1100810Y7487843D01*
X1105382Y7483271D01*
X1109954Y7474127D01*
X1109954Y7464983D01*
X1105382Y7455839D01*
X1096238Y7442377D01*
X1050772Y7396911D01*
X1114526Y7396911D01*
X931900Y7749057D02*
G01*
X927328Y7757947D01*
X918184Y7767091D01*
X909040Y7771663D01*
X890752Y7771663D01*
X881862Y7767091D01*
X872718Y7757947D01*
X868146Y7749057D01*
X863574Y7735341D01*
X863574Y7712735D01*
X868146Y7699019D01*
X872718Y7689875D01*
X881862Y7680731D01*
X890752Y7676159D01*
X909040Y7676159D01*
X918184Y7680731D01*
X927328Y7689875D01*
X931900Y7699019D01*
X966444Y7749057D02*
G01*
X966444Y7753629D01*
X970762Y7762519D01*
X975334Y7767091D01*
X984478Y7771663D01*
X1002766Y7771663D01*
X1011656Y7767091D01*
X1016228Y7762519D01*
X1020800Y7753629D01*
X1020800Y7744485D01*
X1016228Y7735341D01*
X1007338Y7721625D01*
X961872Y7676159D01*
X1025372Y7676159D01*
X1059916Y7749057D02*
G01*
X1059916Y7753629D01*
X1064488Y7762519D01*
X1069060Y7767091D01*
X1078204Y7771663D01*
X1096238Y7771663D01*
X1105382Y7767091D01*
X1109954Y7762519D01*
X1114526Y7753629D01*
X1114526Y7744485D01*
X1109954Y7735341D01*
X1100810Y7721625D01*
X1055344Y7676159D01*
X1119098Y7676159D01*
X876274Y7962315D02*
G01*
X876274Y7866811D01*
X876274Y7962315D02*
G01*
X908024Y7962315D01*
X921740Y7957743D01*
X930884Y7948599D01*
X935456Y7939455D01*
X940028Y7925739D01*
X940028Y7903133D01*
X935456Y7889417D01*
X930884Y7880273D01*
X921740Y7871383D01*
X908024Y7866811D01*
X876274Y7866811D01*
X974572Y7939455D02*
G01*
X974572Y7944027D01*
X979144Y7953171D01*
X983462Y7957743D01*
X992606Y7962315D01*
X1010894Y7962315D01*
X1020038Y7957743D01*
X1024356Y7953171D01*
X1028928Y7944027D01*
X1028928Y7934883D01*
X1024356Y7925739D01*
X1015466Y7912277D01*
X970000Y7866811D01*
X1033500Y7866811D01*
X1072616Y7962315D02*
G01*
X1122654Y7962315D01*
X1095476Y7925739D01*
X1108938Y7925739D01*
X1118082Y7921421D01*
X1122654Y7916849D01*
X1127226Y7903133D01*
X1127226Y7893989D01*
X1122654Y7880273D01*
X1113510Y7871383D01*
X1100048Y7866811D01*
X1086332Y7866811D01*
X1072616Y7871383D01*
X1068044Y7875955D01*
X1063472Y7884845D01*
X944600Y8231657D02*
G01*
X940028Y8240547D01*
X930884Y8249691D01*
X921740Y8254263D01*
X903452Y8254263D01*
X894562Y8249691D01*
X885418Y8240547D01*
X880846Y8231657D01*
X876274Y8217941D01*
X876274Y8195335D01*
X880846Y8181619D01*
X885418Y8172475D01*
X894562Y8163331D01*
X903452Y8158759D01*
X921740Y8158759D01*
X930884Y8163331D01*
X940028Y8172475D01*
X944600Y8181619D01*
X979144Y8231657D02*
G01*
X979144Y8236229D01*
X983462Y8245119D01*
X988034Y8249691D01*
X997178Y8254263D01*
X1015466Y8254263D01*
X1024356Y8249691D01*
X1028928Y8245119D01*
X1033500Y8236229D01*
X1033500Y8227085D01*
X1028928Y8217941D01*
X1020038Y8204225D01*
X974572Y8158759D01*
X1038072Y8158759D01*
X1077188Y8254263D02*
G01*
X1127226Y8254263D01*
X1100048Y8217941D01*
X1113510Y8217941D01*
X1122654Y8213369D01*
X1127226Y8208797D01*
X1131798Y8195335D01*
X1131798Y8186191D01*
X1127226Y8172475D01*
X1118082Y8163331D01*
X1104366Y8158759D01*
X1090904Y8158759D01*
X1077188Y8163331D01*
X1072616Y8167903D01*
X1068044Y8177047D01*
X876274Y8444915D02*
G01*
X876274Y8349411D01*
X876274Y8444915D02*
G01*
X908024Y8444915D01*
X921740Y8440343D01*
X930884Y8431199D01*
X935456Y8422055D01*
X940028Y8408339D01*
X940028Y8385733D01*
X935456Y8372017D01*
X930884Y8362873D01*
X921740Y8353983D01*
X908024Y8349411D01*
X876274Y8349411D01*
X974572Y8422055D02*
G01*
X974572Y8426627D01*
X979144Y8435771D01*
X983462Y8440343D01*
X992606Y8444915D01*
X1010894Y8444915D01*
X1020038Y8440343D01*
X1024356Y8435771D01*
X1028928Y8426627D01*
X1028928Y8417483D01*
X1024356Y8408339D01*
X1015466Y8394877D01*
X970000Y8349411D01*
X1033500Y8349411D01*
X1108938Y8444915D02*
G01*
X1063472Y8381161D01*
X1131798Y8381161D01*
X1108938Y8444915D02*
G01*
X1108938Y8349411D01*
X931900Y8714257D02*
G01*
X927328Y8723147D01*
X918184Y8732291D01*
X909040Y8736863D01*
X890752Y8736863D01*
X881862Y8732291D01*
X872718Y8723147D01*
X868146Y8714257D01*
X863574Y8700541D01*
X863574Y8677935D01*
X868146Y8664219D01*
X872718Y8655075D01*
X881862Y8645931D01*
X890752Y8641359D01*
X909040Y8641359D01*
X918184Y8645931D01*
X927328Y8655075D01*
X931900Y8664219D01*
X966444Y8714257D02*
G01*
X966444Y8718829D01*
X970762Y8727719D01*
X975334Y8732291D01*
X984478Y8736863D01*
X1002766Y8736863D01*
X1011656Y8732291D01*
X1016228Y8727719D01*
X1020800Y8718829D01*
X1020800Y8709685D01*
X1016228Y8700541D01*
X1007338Y8686825D01*
X961872Y8641359D01*
X1025372Y8641359D01*
X1100810Y8736863D02*
G01*
X1055344Y8673363D01*
X1123670Y8673363D01*
X1100810Y8736863D02*
G01*
X1100810Y8641359D01*
X876274Y8927515D02*
G01*
X876274Y8832011D01*
X876274Y8927515D02*
G01*
X908024Y8927515D01*
X921740Y8922943D01*
X930884Y8913799D01*
X935456Y8904655D01*
X940028Y8890939D01*
X940028Y8868333D01*
X935456Y8854617D01*
X930884Y8845473D01*
X921740Y8836583D01*
X908024Y8832011D01*
X876274Y8832011D01*
X974572Y8904655D02*
G01*
X974572Y8909227D01*
X979144Y8918371D01*
X983462Y8922943D01*
X992606Y8927515D01*
X1010894Y8927515D01*
X1020038Y8922943D01*
X1024356Y8918371D01*
X1028928Y8909227D01*
X1028928Y8900083D01*
X1024356Y8890939D01*
X1015466Y8877477D01*
X970000Y8832011D01*
X1033500Y8832011D01*
X1118082Y8927515D02*
G01*
X1072616Y8927515D01*
X1068044Y8886621D01*
X1072616Y8890939D01*
X1086332Y8895511D01*
X1100048Y8895511D01*
X1113510Y8890939D01*
X1122654Y8882049D01*
X1127226Y8868333D01*
X1127226Y8859189D01*
X1122654Y8845473D01*
X1113510Y8836583D01*
X1100048Y8832011D01*
X1086332Y8832011D01*
X1072616Y8836583D01*
X1068044Y8841155D01*
X1063472Y8850045D01*
X944600Y9196857D02*
G01*
X940028Y9205747D01*
X930884Y9214891D01*
X921740Y9219463D01*
X903452Y9219463D01*
X894562Y9214891D01*
X885418Y9205747D01*
X880846Y9196857D01*
X876274Y9183141D01*
X876274Y9160535D01*
X880846Y9146819D01*
X885418Y9137675D01*
X894562Y9128531D01*
X903452Y9123959D01*
X921740Y9123959D01*
X930884Y9128531D01*
X940028Y9137675D01*
X944600Y9146819D01*
X979144Y9196857D02*
G01*
X979144Y9201429D01*
X983462Y9210319D01*
X988034Y9214891D01*
X997178Y9219463D01*
X1015466Y9219463D01*
X1024356Y9214891D01*
X1028928Y9210319D01*
X1033500Y9201429D01*
X1033500Y9192285D01*
X1028928Y9183141D01*
X1020038Y9169425D01*
X974572Y9123959D01*
X1038072Y9123959D01*
X1122654Y9219463D02*
G01*
X1077188Y9219463D01*
X1072616Y9178569D01*
X1077188Y9183141D01*
X1090904Y9187713D01*
X1104366Y9187713D01*
X1118082Y9183141D01*
X1127226Y9173997D01*
X1131798Y9160535D01*
X1131798Y9151391D01*
X1127226Y9137675D01*
X1118082Y9128531D01*
X1104366Y9123959D01*
X1090904Y9123959D01*
X1077188Y9128531D01*
X1072616Y9133103D01*
X1068044Y9142247D01*
X888974Y9410115D02*
G01*
X888974Y9314611D01*
X888974Y9410115D02*
G01*
X920724Y9410115D01*
X934440Y9405543D01*
X943584Y9396399D01*
X948156Y9387255D01*
X952728Y9373539D01*
X952728Y9350933D01*
X948156Y9337217D01*
X943584Y9328073D01*
X934440Y9319183D01*
X920724Y9314611D01*
X888974Y9314611D01*
X987272Y9387255D02*
G01*
X987272Y9391827D01*
X991844Y9400971D01*
X996162Y9405543D01*
X1005306Y9410115D01*
X1023594Y9410115D01*
X1032738Y9405543D01*
X1037056Y9400971D01*
X1041628Y9391827D01*
X1041628Y9382683D01*
X1037056Y9373539D01*
X1028166Y9360077D01*
X982700Y9314611D01*
X1046200Y9314611D01*
X1130782Y9396399D02*
G01*
X1126210Y9405543D01*
X1112748Y9410115D01*
X1103604Y9410115D01*
X1089888Y9405543D01*
X1080744Y9391827D01*
X1076172Y9369221D01*
X1076172Y9346361D01*
X1080744Y9328073D01*
X1089888Y9319183D01*
X1103604Y9314611D01*
X1108176Y9314611D01*
X1121638Y9319183D01*
X1130782Y9328073D01*
X1135354Y9341789D01*
X1135354Y9346361D01*
X1130782Y9360077D01*
X1121638Y9369221D01*
X1108176Y9373539D01*
X1103604Y9373539D01*
X1089888Y9369221D01*
X1080744Y9360077D01*
X1076172Y9346361D01*
X944600Y9679457D02*
G01*
X940028Y9688347D01*
X930884Y9697491D01*
X921740Y9702063D01*
X903452Y9702063D01*
X894562Y9697491D01*
X885418Y9688347D01*
X880846Y9679457D01*
X876274Y9665741D01*
X876274Y9643135D01*
X880846Y9629419D01*
X885418Y9620275D01*
X894562Y9611131D01*
X903452Y9606559D01*
X921740Y9606559D01*
X930884Y9611131D01*
X940028Y9620275D01*
X944600Y9629419D01*
X979144Y9679457D02*
G01*
X979144Y9684029D01*
X983462Y9692919D01*
X988034Y9697491D01*
X997178Y9702063D01*
X1015466Y9702063D01*
X1024356Y9697491D01*
X1028928Y9692919D01*
X1033500Y9684029D01*
X1033500Y9674885D01*
X1028928Y9665741D01*
X1020038Y9652025D01*
X974572Y9606559D01*
X1038072Y9606559D01*
X1122654Y9688347D02*
G01*
X1118082Y9697491D01*
X1104366Y9702063D01*
X1095476Y9702063D01*
X1081760Y9697491D01*
X1072616Y9684029D01*
X1068044Y9661169D01*
X1068044Y9638563D01*
X1072616Y9620275D01*
X1081760Y9611131D01*
X1095476Y9606559D01*
X1100048Y9606559D01*
X1113510Y9611131D01*
X1122654Y9620275D01*
X1127226Y9633991D01*
X1127226Y9638563D01*
X1122654Y9652025D01*
X1113510Y9661169D01*
X1100048Y9665741D01*
X1095476Y9665741D01*
X1081760Y9661169D01*
X1072616Y9652025D01*
X1068044Y9638563D01*
X876274Y9892715D02*
G01*
X876274Y9797211D01*
X876274Y9892715D02*
G01*
X908024Y9892715D01*
X921740Y9888143D01*
X930884Y9878999D01*
X935456Y9869855D01*
X940028Y9856139D01*
X940028Y9833533D01*
X935456Y9819817D01*
X930884Y9810673D01*
X921740Y9801783D01*
X908024Y9797211D01*
X876274Y9797211D01*
X974572Y9869855D02*
G01*
X974572Y9874427D01*
X979144Y9883571D01*
X983462Y9888143D01*
X992606Y9892715D01*
X1010894Y9892715D01*
X1020038Y9888143D01*
X1024356Y9883571D01*
X1028928Y9874427D01*
X1028928Y9865283D01*
X1024356Y9856139D01*
X1015466Y9842677D01*
X970000Y9797211D01*
X1033500Y9797211D01*
X1127226Y9892715D02*
G01*
X1081760Y9797211D01*
X1063472Y9892715D02*
G01*
X1127226Y9892715D01*
X944600Y10162057D02*
G01*
X940028Y10170947D01*
X930884Y10180091D01*
X921740Y10184663D01*
X903452Y10184663D01*
X894562Y10180091D01*
X885418Y10170947D01*
X880846Y10162057D01*
X876274Y10148341D01*
X876274Y10125735D01*
X880846Y10112019D01*
X885418Y10102875D01*
X894562Y10093731D01*
X903452Y10089159D01*
X921740Y10089159D01*
X930884Y10093731D01*
X940028Y10102875D01*
X944600Y10112019D01*
X979144Y10162057D02*
G01*
X979144Y10166629D01*
X983462Y10175519D01*
X988034Y10180091D01*
X997178Y10184663D01*
X1015466Y10184663D01*
X1024356Y10180091D01*
X1028928Y10175519D01*
X1033500Y10166629D01*
X1033500Y10157485D01*
X1028928Y10148341D01*
X1020038Y10134625D01*
X974572Y10089159D01*
X1038072Y10089159D01*
X1131798Y10184663D02*
G01*
X1086332Y10089159D01*
X1068044Y10184663D02*
G01*
X1131798Y10184663D01*
X876274Y10375315D02*
G01*
X876274Y10279811D01*
X876274Y10375315D02*
G01*
X908024Y10375315D01*
X921740Y10370743D01*
X930884Y10361599D01*
X935456Y10352455D01*
X940028Y10338739D01*
X940028Y10316133D01*
X935456Y10302417D01*
X930884Y10293273D01*
X921740Y10284383D01*
X908024Y10279811D01*
X876274Y10279811D01*
X974572Y10352455D02*
G01*
X974572Y10357027D01*
X979144Y10366171D01*
X983462Y10370743D01*
X992606Y10375315D01*
X1010894Y10375315D01*
X1020038Y10370743D01*
X1024356Y10366171D01*
X1028928Y10357027D01*
X1028928Y10347883D01*
X1024356Y10338739D01*
X1015466Y10325277D01*
X970000Y10279811D01*
X1033500Y10279811D01*
X1086332Y10375315D02*
G01*
X1072616Y10370743D01*
X1068044Y10361599D01*
X1068044Y10352455D01*
X1072616Y10343311D01*
X1081760Y10338739D01*
X1100048Y10334421D01*
X1113510Y10329849D01*
X1122654Y10320705D01*
X1127226Y10311561D01*
X1127226Y10297845D01*
X1122654Y10288955D01*
X1118082Y10284383D01*
X1104366Y10279811D01*
X1086332Y10279811D01*
X1072616Y10284383D01*
X1068044Y10288955D01*
X1063472Y10297845D01*
X1063472Y10311561D01*
X1068044Y10320705D01*
X1077188Y10329849D01*
X1090904Y10334421D01*
X1108938Y10338739D01*
X1118082Y10343311D01*
X1122654Y10352455D01*
X1122654Y10361599D01*
X1118082Y10370743D01*
X1104366Y10375315D01*
X1086332Y10375315D01*
X1841449Y4101490D02*
G01*
X1841449Y4005986D01*
X1841449Y4101490D02*
G01*
X1873199Y4101490D01*
X1886915Y4096918D01*
X1896059Y4087774D01*
X1900631Y4078630D01*
X1905203Y4065168D01*
X1905203Y4042308D01*
X1900631Y4028592D01*
X1896059Y4019702D01*
X1886915Y4010558D01*
X1873199Y4005986D01*
X1841449Y4005986D01*
X1935175Y4083202D02*
G01*
X1944319Y4087774D01*
X1957781Y4101490D01*
X1957781Y4005986D01*
X1909572Y4294631D02*
G01*
X1905254Y4303776D01*
X1896109Y4312665D01*
X1886965Y4317237D01*
X1868677Y4317237D01*
X1859788Y4312665D01*
X1850643Y4303776D01*
X1846072Y4294631D01*
X1841500Y4280915D01*
X1841500Y4258310D01*
X1846072Y4244594D01*
X1850643Y4235450D01*
X1859788Y4226305D01*
X1868677Y4221734D01*
X1886965Y4221734D01*
X1896109Y4226305D01*
X1905254Y4235450D01*
X1909572Y4244594D01*
X1939797Y4299204D02*
G01*
X1948688Y4303776D01*
X1962404Y4317237D01*
X1962404Y4221734D01*
X1841500Y4583937D02*
G01*
X1841500Y4488434D01*
X1841500Y4583937D02*
G01*
X1873250Y4583937D01*
X1886965Y4579365D01*
X1896109Y4570476D01*
X1900681Y4561331D01*
X1905254Y4547615D01*
X1905254Y4525010D01*
X1900681Y4511294D01*
X1896109Y4502150D01*
X1886965Y4493005D01*
X1873250Y4488434D01*
X1841500Y4488434D01*
X1939797Y4561331D02*
G01*
X1939797Y4565904D01*
X1944115Y4574794D01*
X1948688Y4579365D01*
X1957831Y4583937D01*
X1976120Y4583937D01*
X1985009Y4579365D01*
X1989581Y4574794D01*
X1994154Y4565904D01*
X1994154Y4556760D01*
X1989581Y4547615D01*
X1980691Y4533900D01*
X1935225Y4488434D01*
X1998725Y4488434D01*
G36*
X1676603Y5099202D02*
G01*
X1676603Y5054193D01*
X1699107Y5076698D01*
G37*
G36*
X1676603Y5581802D02*
G01*
X1676603Y5536793D01*
X1699107Y5559298D01*
G37*
G36*
X1676603Y6064402D02*
G01*
X1676603Y6019393D01*
X1699107Y6041898D01*
G37*
G36*
X1676603Y6547002D02*
G01*
X1676603Y6501993D01*
X1699107Y6524498D01*
G37*
G36*
X1676603Y7029602D02*
G01*
X1676603Y6984593D01*
X1699107Y7007098D01*
G37*
G36*
X1676603Y7512202D02*
G01*
X1676603Y7467193D01*
X1699107Y7489698D01*
G37*
G36*
X1676603Y7994802D02*
G01*
X1676603Y7949793D01*
X1699107Y7972298D01*
G37*
G36*
X1676603Y8477402D02*
G01*
X1676603Y8432393D01*
X1699107Y8454898D01*
G37*
G36*
X1676603Y8960002D02*
G01*
X1676603Y8914993D01*
X1699107Y8937498D01*
G37*
G36*
X1676603Y9442602D02*
G01*
X1676603Y9397593D01*
X1699107Y9420098D01*
G37*
G36*
X1676603Y9925202D02*
G01*
X1676603Y9880193D01*
X1699107Y9902698D01*
G37*
G36*
X1676603Y10407802D02*
G01*
X1676603Y10362793D01*
X1699107Y10385298D01*
G37*
G36*
X1270203Y4130294D02*
G01*
X1270203Y4085285D01*
X1292707Y4107789D01*
G37*
G36*
X1270203Y4612894D02*
G01*
X1270203Y4567885D01*
X1292707Y4590389D01*
G37*
G36*
X1270203Y5095494D02*
G01*
X1270203Y5050485D01*
X1292707Y5072989D01*
G37*
G36*
X1270203Y5578094D02*
G01*
X1270203Y5533085D01*
X1292707Y5555589D01*
G37*
G36*
X1270203Y6060694D02*
G01*
X1270203Y6015685D01*
X1292707Y6038189D01*
G37*
G36*
X1270203Y6543294D02*
G01*
X1270203Y6498285D01*
X1292707Y6520789D01*
G37*
G36*
X1270203Y7025894D02*
G01*
X1270203Y6980885D01*
X1292707Y7003389D01*
G37*
G36*
X1270203Y7508494D02*
G01*
X1270203Y7463485D01*
X1292707Y7485989D01*
G37*
G36*
X1270203Y7991094D02*
G01*
X1270203Y7946085D01*
X1292707Y7968589D01*
G37*
G36*
X1270203Y8473694D02*
G01*
X1270203Y8428685D01*
X1292707Y8451189D01*
G37*
G36*
X1270203Y8956294D02*
G01*
X1270203Y8911285D01*
X1292707Y8933789D01*
G37*
G36*
X1270203Y9438894D02*
G01*
X1270203Y9393885D01*
X1292707Y9416389D01*
G37*
G36*
X1270203Y9921494D02*
G01*
X1270203Y9876485D01*
X1292707Y9898989D01*
G37*
G36*
X1270203Y10404094D02*
G01*
X1270203Y10359085D01*
X1292707Y10381589D01*
G37*
G36*
X1676603Y4134002D02*
G01*
X1676603Y4088993D01*
X1699107Y4111498D01*
G37*
G36*
X1676603Y4616602D02*
G01*
X1676603Y4571593D01*
X1699107Y4594098D01*
G37*
X1789760Y4648169D02*
G01*
X1789760Y4727178D01*
X1690039Y4727178D02*
G01*
X1690039Y4648169D01*
X1705279Y4632929D02*
G01*
X1774520Y4632929D01*
X1789760Y4851430D02*
G01*
X1789760Y4772421D01*
X1690039Y4772421D02*
G01*
X1690039Y4851430D01*
X1705279Y4866670D02*
G01*
X1774520Y4866670D01*
D12*
X1739150Y4919205D02*
G01*
X1799094Y4919205D01*
X1799094Y4974323D01*
X1599095Y4939220D02*
G01*
X1599095Y5119230D01*
X1779104Y5119230D01*
X1779104Y4939220D01*
X1599095Y4939220D01*
D11*
X1789760Y5130769D02*
G01*
X1789760Y5209778D01*
X1690039Y5209778D02*
G01*
X1690039Y5130769D01*
X1705279Y5115529D02*
G01*
X1774520Y5115529D01*
X1789760Y5334030D02*
G01*
X1789760Y5255021D01*
X1690039Y5255021D02*
G01*
X1690039Y5334030D01*
X1705279Y5349270D02*
G01*
X1774520Y5349270D01*
X1789760Y5613369D02*
G01*
X1789760Y5692378D01*
X1690039Y5692378D02*
G01*
X1690039Y5613369D01*
X1705279Y5598129D02*
G01*
X1774520Y5598129D01*
X1789760Y5816630D02*
G01*
X1789760Y5737621D01*
X1690039Y5737621D02*
G01*
X1690039Y5816630D01*
X1705279Y5831870D02*
G01*
X1774520Y5831870D01*
D12*
X1739150Y5401805D02*
G01*
X1799094Y5401805D01*
X1799094Y5456923D01*
X1599095Y5421820D02*
G01*
X1599095Y5601830D01*
X1779104Y5601830D01*
X1779104Y5421820D01*
X1599095Y5421820D01*
D11*
X1789760Y6095969D02*
G01*
X1789760Y6174978D01*
X1690039Y6174978D02*
G01*
X1690039Y6095969D01*
X1705279Y6080729D02*
G01*
X1774520Y6080729D01*
X1789760Y6299230D02*
G01*
X1789760Y6220221D01*
X1690039Y6220221D02*
G01*
X1690039Y6299230D01*
X1705279Y6314470D02*
G01*
X1774520Y6314470D01*
D12*
X1739150Y5884405D02*
G01*
X1799094Y5884405D01*
X1799094Y5939523D01*
X1599095Y5904420D02*
G01*
X1599095Y6084430D01*
X1779104Y6084430D01*
X1779104Y5904420D01*
X1599095Y5904420D01*
D11*
X1789760Y6578569D02*
G01*
X1789760Y6657578D01*
X1690039Y6657578D02*
G01*
X1690039Y6578569D01*
X1705279Y6563329D02*
G01*
X1774520Y6563329D01*
X1789760Y6781830D02*
G01*
X1789760Y6702821D01*
X1690039Y6702821D02*
G01*
X1690039Y6781830D01*
X1705279Y6797070D02*
G01*
X1774520Y6797070D01*
D12*
X1739150Y6367005D02*
G01*
X1799094Y6367005D01*
X1799094Y6422123D01*
X1599095Y6387020D02*
G01*
X1599095Y6567030D01*
X1779104Y6567030D01*
X1779104Y6387020D01*
X1599095Y6387020D01*
D11*
X1789760Y7061169D02*
G01*
X1789760Y7140178D01*
X1690039Y7140178D02*
G01*
X1690039Y7061169D01*
X1705279Y7045929D02*
G01*
X1774520Y7045929D01*
X1789760Y7264430D02*
G01*
X1789760Y7185421D01*
X1690039Y7185421D02*
G01*
X1690039Y7264430D01*
X1705279Y7279670D02*
G01*
X1774520Y7279670D01*
D12*
X1739150Y6849605D02*
G01*
X1799094Y6849605D01*
X1799094Y6904723D01*
X1599095Y6869620D02*
G01*
X1599095Y7049630D01*
X1779104Y7049630D01*
X1779104Y6869620D01*
X1599095Y6869620D01*
D11*
X1789760Y7543769D02*
G01*
X1789760Y7622778D01*
X1690039Y7622778D02*
G01*
X1690039Y7543769D01*
X1705279Y7528529D02*
G01*
X1774520Y7528529D01*
X1789760Y7747030D02*
G01*
X1789760Y7668021D01*
X1690039Y7668021D02*
G01*
X1690039Y7747030D01*
X1705279Y7762270D02*
G01*
X1774520Y7762270D01*
D12*
X1739150Y7332205D02*
G01*
X1799094Y7332205D01*
X1799094Y7387323D01*
X1599095Y7352220D02*
G01*
X1599095Y7532230D01*
X1779104Y7532230D01*
X1779104Y7352220D01*
X1599095Y7352220D01*
D11*
X1789760Y8026369D02*
G01*
X1789760Y8105378D01*
X1690039Y8105378D02*
G01*
X1690039Y8026369D01*
X1705279Y8011129D02*
G01*
X1774520Y8011129D01*
X1789760Y8229630D02*
G01*
X1789760Y8150621D01*
X1690039Y8150621D02*
G01*
X1690039Y8229630D01*
X1705279Y8244870D02*
G01*
X1774520Y8244870D01*
D12*
X1739150Y7814805D02*
G01*
X1799094Y7814805D01*
X1799094Y7869923D01*
X1599095Y7834820D02*
G01*
X1599095Y8014830D01*
X1779104Y8014830D01*
X1779104Y7834820D01*
X1599095Y7834820D01*
D11*
X1789760Y8508969D02*
G01*
X1789760Y8587978D01*
X1690039Y8587978D02*
G01*
X1690039Y8508969D01*
X1705279Y8493729D02*
G01*
X1774520Y8493729D01*
X1789760Y8712230D02*
G01*
X1789760Y8633221D01*
X1690039Y8633221D02*
G01*
X1690039Y8712230D01*
X1705279Y8727470D02*
G01*
X1774520Y8727470D01*
D12*
X1739150Y8297405D02*
G01*
X1799094Y8297405D01*
X1799094Y8352523D01*
X1599095Y8317420D02*
G01*
X1599095Y8497430D01*
X1779104Y8497430D01*
X1779104Y8317420D01*
X1599095Y8317420D01*
D11*
X1789760Y8991569D02*
G01*
X1789760Y9070578D01*
X1690039Y9070578D02*
G01*
X1690039Y8991569D01*
X1705279Y8976329D02*
G01*
X1774520Y8976329D01*
X1789760Y9194830D02*
G01*
X1789760Y9115821D01*
X1690039Y9115821D02*
G01*
X1690039Y9194830D01*
X1705279Y9210070D02*
G01*
X1774520Y9210070D01*
D12*
X1739150Y8780005D02*
G01*
X1799094Y8780005D01*
X1799094Y8835123D01*
X1599095Y8800020D02*
G01*
X1599095Y8980030D01*
X1779104Y8980030D01*
X1779104Y8800020D01*
X1599095Y8800020D01*
D11*
X1789760Y9474169D02*
G01*
X1789760Y9553178D01*
X1690039Y9553178D02*
G01*
X1690039Y9474169D01*
X1705279Y9458929D02*
G01*
X1774520Y9458929D01*
X1789760Y9677430D02*
G01*
X1789760Y9598421D01*
X1690039Y9598421D02*
G01*
X1690039Y9677430D01*
X1705279Y9692670D02*
G01*
X1774520Y9692670D01*
D12*
X1739150Y9262605D02*
G01*
X1799094Y9262605D01*
X1799094Y9317723D01*
X1599095Y9282620D02*
G01*
X1599095Y9462630D01*
X1779104Y9462630D01*
X1779104Y9282620D01*
X1599095Y9282620D01*
D11*
X1789760Y9956769D02*
G01*
X1789760Y10035778D01*
X1690039Y10035778D02*
G01*
X1690039Y9956769D01*
X1705279Y9941529D02*
G01*
X1774520Y9941529D01*
X1789760Y10160030D02*
G01*
X1789760Y10081021D01*
X1690039Y10081021D02*
G01*
X1690039Y10160030D01*
X1705279Y10175270D02*
G01*
X1774520Y10175270D01*
D12*
X1739150Y9745205D02*
G01*
X1799094Y9745205D01*
X1799094Y9800323D01*
X1599095Y9765220D02*
G01*
X1599095Y9945230D01*
X1779104Y9945230D01*
X1779104Y9765220D01*
X1599095Y9765220D01*
D11*
X1789760Y10439369D02*
G01*
X1789760Y10518378D01*
X1690039Y10518378D02*
G01*
X1690039Y10439369D01*
X1705279Y10424129D02*
G01*
X1774520Y10424129D01*
X1789760Y10642630D02*
G01*
X1789760Y10563621D01*
X1690039Y10563621D02*
G01*
X1690039Y10642630D01*
X1705279Y10657870D02*
G01*
X1774520Y10657870D01*
D12*
X1739150Y10227805D02*
G01*
X1799094Y10227805D01*
X1799094Y10282923D01*
X1599095Y10247820D02*
G01*
X1599095Y10427830D01*
X1779104Y10427830D01*
X1779104Y10247820D01*
X1599095Y10247820D01*
D11*
X1281760Y4241769D02*
G01*
X1281760Y4320778D01*
X1182039Y4320778D02*
G01*
X1182039Y4241769D01*
X1197279Y4226529D02*
G01*
X1266520Y4226529D01*
X1281760Y4445030D02*
G01*
X1281760Y4366021D01*
X1182039Y4366021D02*
G01*
X1182039Y4445030D01*
X1197279Y4460270D02*
G01*
X1266520Y4460270D01*
D12*
X1332750Y3950296D02*
G01*
X1392694Y3950296D01*
X1392694Y4005414D01*
X1192695Y3970312D02*
G01*
X1192695Y4150321D01*
X1372704Y4150321D01*
X1372704Y3970312D01*
X1192695Y3970312D01*
X1332750Y4432896D02*
G01*
X1392694Y4432896D01*
X1392694Y4488014D01*
X1192695Y4452912D02*
G01*
X1192695Y4632921D01*
X1372704Y4632921D01*
X1372704Y4452912D01*
X1192695Y4452912D01*
D11*
X1281760Y4724369D02*
G01*
X1281760Y4803378D01*
X1182039Y4803378D02*
G01*
X1182039Y4724369D01*
X1197279Y4709129D02*
G01*
X1266520Y4709129D01*
X1281760Y4927630D02*
G01*
X1281760Y4848621D01*
X1182039Y4848621D02*
G01*
X1182039Y4927630D01*
X1197279Y4942870D02*
G01*
X1266520Y4942870D01*
X1281760Y5206969D02*
G01*
X1281760Y5285978D01*
X1182039Y5285978D02*
G01*
X1182039Y5206969D01*
X1197279Y5191729D02*
G01*
X1266520Y5191729D01*
X1281760Y5410230D02*
G01*
X1281760Y5331221D01*
X1182039Y5331221D02*
G01*
X1182039Y5410230D01*
X1197279Y5425470D02*
G01*
X1266520Y5425470D01*
D12*
X1332750Y4915496D02*
G01*
X1392694Y4915496D01*
X1392694Y4970614D01*
X1192695Y4935512D02*
G01*
X1192695Y5115521D01*
X1372704Y5115521D01*
X1372704Y4935512D01*
X1192695Y4935512D01*
X1332750Y5398096D02*
G01*
X1392694Y5398096D01*
X1392694Y5453214D01*
X1192695Y5418112D02*
G01*
X1192695Y5598121D01*
X1372704Y5598121D01*
X1372704Y5418112D01*
X1192695Y5418112D01*
D11*
X1281760Y5689569D02*
G01*
X1281760Y5768578D01*
X1182039Y5768578D02*
G01*
X1182039Y5689569D01*
X1197279Y5674329D02*
G01*
X1266520Y5674329D01*
X1281760Y5892830D02*
G01*
X1281760Y5813821D01*
X1182039Y5813821D02*
G01*
X1182039Y5892830D01*
X1197279Y5908070D02*
G01*
X1266520Y5908070D01*
D12*
X1332750Y5880696D02*
G01*
X1392694Y5880696D01*
X1392694Y5935814D01*
X1192695Y5900712D02*
G01*
X1192695Y6080721D01*
X1372704Y6080721D01*
X1372704Y5900712D01*
X1192695Y5900712D01*
D11*
X1281760Y6172169D02*
G01*
X1281760Y6251178D01*
X1182039Y6251178D02*
G01*
X1182039Y6172169D01*
X1197279Y6156929D02*
G01*
X1266520Y6156929D01*
X1281760Y6375430D02*
G01*
X1281760Y6296421D01*
X1182039Y6296421D02*
G01*
X1182039Y6375430D01*
X1197279Y6390670D02*
G01*
X1266520Y6390670D01*
D12*
X1332750Y6363296D02*
G01*
X1392694Y6363296D01*
X1392694Y6418414D01*
X1192695Y6383312D02*
G01*
X1192695Y6563321D01*
X1372704Y6563321D01*
X1372704Y6383312D01*
X1192695Y6383312D01*
D11*
X1281760Y6654769D02*
G01*
X1281760Y6733778D01*
X1182039Y6733778D02*
G01*
X1182039Y6654769D01*
X1197279Y6639529D02*
G01*
X1266520Y6639529D01*
X1281760Y6858030D02*
G01*
X1281760Y6779021D01*
X1182039Y6779021D02*
G01*
X1182039Y6858030D01*
X1197279Y6873270D02*
G01*
X1266520Y6873270D01*
D12*
X1332750Y6845896D02*
G01*
X1392694Y6845896D01*
X1392694Y6901014D01*
X1192695Y6865912D02*
G01*
X1192695Y7045921D01*
X1372704Y7045921D01*
X1372704Y6865912D01*
X1192695Y6865912D01*
D11*
X1281760Y7137369D02*
G01*
X1281760Y7216378D01*
X1182039Y7216378D02*
G01*
X1182039Y7137369D01*
X1197279Y7122129D02*
G01*
X1266520Y7122129D01*
X1281760Y7340630D02*
G01*
X1281760Y7261621D01*
X1182039Y7261621D02*
G01*
X1182039Y7340630D01*
X1197279Y7355870D02*
G01*
X1266520Y7355870D01*
D12*
X1332750Y7328496D02*
G01*
X1392694Y7328496D01*
X1392694Y7383614D01*
X1192695Y7348512D02*
G01*
X1192695Y7528521D01*
X1372704Y7528521D01*
X1372704Y7348512D01*
X1192695Y7348512D01*
D11*
X1281760Y7619969D02*
G01*
X1281760Y7698978D01*
X1182039Y7698978D02*
G01*
X1182039Y7619969D01*
X1197279Y7604729D02*
G01*
X1266520Y7604729D01*
X1281760Y7823230D02*
G01*
X1281760Y7744221D01*
X1182039Y7744221D02*
G01*
X1182039Y7823230D01*
X1197279Y7838470D02*
G01*
X1266520Y7838470D01*
D12*
X1332750Y7811096D02*
G01*
X1392694Y7811096D01*
X1392694Y7866214D01*
X1192695Y7831112D02*
G01*
X1192695Y8011121D01*
X1372704Y8011121D01*
X1372704Y7831112D01*
X1192695Y7831112D01*
D11*
X1281760Y8102569D02*
G01*
X1281760Y8181578D01*
X1182039Y8181578D02*
G01*
X1182039Y8102569D01*
X1197279Y8087329D02*
G01*
X1266520Y8087329D01*
X1281760Y8305830D02*
G01*
X1281760Y8226821D01*
X1182039Y8226821D02*
G01*
X1182039Y8305830D01*
X1197279Y8321070D02*
G01*
X1266520Y8321070D01*
D12*
X1332750Y8293696D02*
G01*
X1392694Y8293696D01*
X1392694Y8348814D01*
X1192695Y8313712D02*
G01*
X1192695Y8493721D01*
X1372704Y8493721D01*
X1372704Y8313712D01*
X1192695Y8313712D01*
D11*
X1281760Y8585169D02*
G01*
X1281760Y8664178D01*
X1182039Y8664178D02*
G01*
X1182039Y8585169D01*
X1197279Y8569929D02*
G01*
X1266520Y8569929D01*
X1281760Y8788430D02*
G01*
X1281760Y8709421D01*
X1182039Y8709421D02*
G01*
X1182039Y8788430D01*
X1197279Y8803670D02*
G01*
X1266520Y8803670D01*
D12*
X1332750Y8776296D02*
G01*
X1392694Y8776296D01*
X1392694Y8831414D01*
X1192695Y8796312D02*
G01*
X1192695Y8976321D01*
X1372704Y8976321D01*
X1372704Y8796312D01*
X1192695Y8796312D01*
D11*
X1281760Y9067769D02*
G01*
X1281760Y9146778D01*
X1182039Y9146778D02*
G01*
X1182039Y9067769D01*
X1197279Y9052529D02*
G01*
X1266520Y9052529D01*
X1281760Y9271030D02*
G01*
X1281760Y9192021D01*
X1182039Y9192021D02*
G01*
X1182039Y9271030D01*
X1197279Y9286270D02*
G01*
X1266520Y9286270D01*
D12*
X1332750Y9258896D02*
G01*
X1392694Y9258896D01*
X1392694Y9314014D01*
X1192695Y9278912D02*
G01*
X1192695Y9458921D01*
X1372704Y9458921D01*
X1372704Y9278912D01*
X1192695Y9278912D01*
D11*
X1281760Y9550369D02*
G01*
X1281760Y9629378D01*
X1182039Y9629378D02*
G01*
X1182039Y9550369D01*
X1197279Y9535129D02*
G01*
X1266520Y9535129D01*
X1281760Y9753630D02*
G01*
X1281760Y9674621D01*
X1182039Y9674621D02*
G01*
X1182039Y9753630D01*
X1197279Y9768870D02*
G01*
X1266520Y9768870D01*
D12*
X1332750Y9741496D02*
G01*
X1392694Y9741496D01*
X1392694Y9796614D01*
X1192695Y9761512D02*
G01*
X1192695Y9941521D01*
X1372704Y9941521D01*
X1372704Y9761512D01*
X1192695Y9761512D01*
D11*
X1281760Y10032969D02*
G01*
X1281760Y10111978D01*
X1182039Y10111978D02*
G01*
X1182039Y10032969D01*
X1197279Y10017729D02*
G01*
X1266520Y10017729D01*
X1281760Y10236230D02*
G01*
X1281760Y10157221D01*
X1182039Y10157221D02*
G01*
X1182039Y10236230D01*
X1197279Y10251470D02*
G01*
X1266520Y10251470D01*
D12*
X1332750Y10224096D02*
G01*
X1392694Y10224096D01*
X1392694Y10279214D01*
X1192695Y10244112D02*
G01*
X1192695Y10424121D01*
X1372704Y10424121D01*
X1372704Y10244112D01*
X1192695Y10244112D01*
X1739150Y3954005D02*
G01*
X1799094Y3954005D01*
X1799094Y4009123D01*
X1599095Y3974020D02*
G01*
X1599095Y4154030D01*
X1779104Y4154030D01*
X1779104Y3974020D01*
X1599095Y3974020D01*
D11*
X1789760Y4165569D02*
G01*
X1789760Y4244578D01*
X1690039Y4244578D02*
G01*
X1690039Y4165569D01*
X1705279Y4150329D02*
G01*
X1774520Y4150329D01*
X1789760Y4368830D02*
G01*
X1789760Y4289821D01*
X1690039Y4289821D02*
G01*
X1690039Y4368830D01*
X1705279Y4384070D02*
G01*
X1774520Y4384070D01*
D12*
X1739150Y4436605D02*
G01*
X1799094Y4436605D01*
X1799094Y4491723D01*
X1599095Y4456620D02*
G01*
X1599095Y4636630D01*
X1779104Y4636630D01*
X1779104Y4456620D01*
X1599095Y4456620D01*
D11*
G75*
G01*
X1690040Y4648170D02*
G03*
X1705280Y4632930I15240J0D01*
G75*
G01*
X1774520Y4632930D02*
G03*
X1789760Y4648170I0J15240D01*
G75*
G01*
X1690040Y4851430D02*
G02*
X1705280Y4866670I15240J0D01*
G75*
G01*
X1774520Y4866670D02*
G02*
X1789760Y4851430I0J-15240D01*
G75*
G01*
X1690040Y5130770D02*
G03*
X1705280Y5115530I15240J0D01*
G75*
G01*
X1774520Y5115530D02*
G03*
X1789760Y5130770I0J15240D01*
G75*
G01*
X1690040Y5334030D02*
G02*
X1705280Y5349270I15240J0D01*
G75*
G01*
X1774520Y5349270D02*
G02*
X1789760Y5334030I0J-15240D01*
G75*
G01*
X1690040Y5613370D02*
G03*
X1705280Y5598130I15240J0D01*
G75*
G01*
X1774520Y5598130D02*
G03*
X1789760Y5613370I0J15240D01*
G75*
G01*
X1690040Y5816630D02*
G02*
X1705280Y5831870I15240J0D01*
G75*
G01*
X1774520Y5831870D02*
G02*
X1789760Y5816630I0J-15240D01*
G75*
G01*
X1690040Y6095970D02*
G03*
X1705280Y6080730I15240J0D01*
G75*
G01*
X1774520Y6080730D02*
G03*
X1789760Y6095970I0J15240D01*
G75*
G01*
X1690040Y6299230D02*
G02*
X1705280Y6314470I15240J0D01*
G75*
G01*
X1774520Y6314470D02*
G02*
X1789760Y6299230I0J-15240D01*
G75*
G01*
X1690040Y6578570D02*
G03*
X1705280Y6563330I15240J0D01*
G75*
G01*
X1774520Y6563330D02*
G03*
X1789760Y6578570I0J15240D01*
G75*
G01*
X1690040Y6781830D02*
G02*
X1705280Y6797070I15240J0D01*
G75*
G01*
X1774520Y6797070D02*
G02*
X1789760Y6781830I0J-15240D01*
G75*
G01*
X1690040Y7061170D02*
G03*
X1705280Y7045930I15240J0D01*
G75*
G01*
X1774520Y7045930D02*
G03*
X1789760Y7061170I0J15240D01*
G75*
G01*
X1690040Y7264430D02*
G02*
X1705280Y7279670I15240J0D01*
G75*
G01*
X1774520Y7279670D02*
G02*
X1789760Y7264430I0J-15240D01*
G75*
G01*
X1690040Y7543770D02*
G03*
X1705280Y7528530I15240J0D01*
G75*
G01*
X1774520Y7528530D02*
G03*
X1789760Y7543770I0J15240D01*
G75*
G01*
X1690040Y7747030D02*
G02*
X1705280Y7762270I15240J0D01*
G75*
G01*
X1774520Y7762270D02*
G02*
X1789760Y7747030I0J-15240D01*
G75*
G01*
X1690040Y8026370D02*
G03*
X1705280Y8011130I15240J0D01*
G75*
G01*
X1774520Y8011130D02*
G03*
X1789760Y8026370I0J15240D01*
G75*
G01*
X1690040Y8229630D02*
G02*
X1705280Y8244870I15240J0D01*
G75*
G01*
X1774520Y8244870D02*
G02*
X1789760Y8229630I0J-15240D01*
G75*
G01*
X1690040Y8508970D02*
G03*
X1705280Y8493730I15240J0D01*
G75*
G01*
X1774520Y8493730D02*
G03*
X1789760Y8508970I0J15240D01*
G75*
G01*
X1690040Y8712230D02*
G02*
X1705280Y8727470I15240J0D01*
G75*
G01*
X1774520Y8727470D02*
G02*
X1789760Y8712230I0J-15240D01*
G75*
G01*
X1690040Y8991570D02*
G03*
X1705280Y8976330I15240J0D01*
G75*
G01*
X1774520Y8976330D02*
G03*
X1789760Y8991570I0J15240D01*
G75*
G01*
X1690040Y9194830D02*
G02*
X1705280Y9210070I15240J0D01*
G75*
G01*
X1774520Y9210070D02*
G02*
X1789760Y9194830I0J-15240D01*
G75*
G01*
X1690040Y9474170D02*
G03*
X1705280Y9458930I15240J0D01*
G75*
G01*
X1774520Y9458930D02*
G03*
X1789760Y9474170I0J15240D01*
G75*
G01*
X1690040Y9677430D02*
G02*
X1705280Y9692670I15240J0D01*
G75*
G01*
X1774520Y9692670D02*
G02*
X1789760Y9677430I0J-15240D01*
G75*
G01*
X1690040Y9956770D02*
G03*
X1705280Y9941530I15240J0D01*
G75*
G01*
X1774520Y9941530D02*
G03*
X1789760Y9956770I0J15240D01*
G75*
G01*
X1690040Y10160030D02*
G02*
X1705280Y10175270I15240J0D01*
G75*
G01*
X1774520Y10175270D02*
G02*
X1789760Y10160030I0J-15240D01*
G75*
G01*
X1690040Y10439370D02*
G03*
X1705280Y10424130I15240J0D01*
G75*
G01*
X1774520Y10424130D02*
G03*
X1789760Y10439370I0J15240D01*
G75*
G01*
X1690040Y10642630D02*
G02*
X1705280Y10657870I15240J0D01*
G75*
G01*
X1774520Y10657870D02*
G02*
X1789760Y10642630I0J-15240D01*
G75*
G01*
X1182040Y4241770D02*
G03*
X1197280Y4226530I15240J0D01*
G75*
G01*
X1266520Y4226530D02*
G03*
X1281760Y4241770I0J15240D01*
G75*
G01*
X1182040Y4445030D02*
G02*
X1197280Y4460270I15240J0D01*
G75*
G01*
X1266520Y4460270D02*
G02*
X1281760Y4445030I0J-15240D01*
G75*
G01*
X1182040Y4724370D02*
G03*
X1197280Y4709130I15240J0D01*
G75*
G01*
X1266520Y4709130D02*
G03*
X1281760Y4724370I0J15240D01*
G75*
G01*
X1182040Y4927630D02*
G02*
X1197280Y4942870I15240J0D01*
G75*
G01*
X1266520Y4942870D02*
G02*
X1281760Y4927630I0J-15240D01*
G75*
G01*
X1182040Y5206970D02*
G03*
X1197280Y5191730I15240J0D01*
G75*
G01*
X1266520Y5191730D02*
G03*
X1281760Y5206970I0J15240D01*
G75*
G01*
X1182040Y5410230D02*
G02*
X1197280Y5425470I15240J0D01*
G75*
G01*
X1266520Y5425470D02*
G02*
X1281760Y5410230I0J-15240D01*
G75*
G01*
X1182040Y5689570D02*
G03*
X1197280Y5674330I15240J0D01*
G75*
G01*
X1266520Y5674330D02*
G03*
X1281760Y5689570I0J15240D01*
G75*
G01*
X1182040Y5892830D02*
G02*
X1197280Y5908070I15240J0D01*
G75*
G01*
X1266520Y5908070D02*
G02*
X1281760Y5892830I0J-15240D01*
G75*
G01*
X1182040Y6172170D02*
G03*
X1197280Y6156930I15240J0D01*
G75*
G01*
X1266520Y6156930D02*
G03*
X1281760Y6172170I0J15240D01*
G75*
G01*
X1182040Y6375430D02*
G02*
X1197280Y6390670I15240J0D01*
G75*
G01*
X1266520Y6390670D02*
G02*
X1281760Y6375430I0J-15240D01*
G75*
G01*
X1182040Y6654770D02*
G03*
X1197280Y6639530I15240J0D01*
G75*
G01*
X1266520Y6639530D02*
G03*
X1281760Y6654770I0J15240D01*
G75*
G01*
X1182040Y6858030D02*
G02*
X1197280Y6873270I15240J0D01*
G75*
G01*
X1266520Y6873270D02*
G02*
X1281760Y6858030I0J-15240D01*
G75*
G01*
X1182040Y7137370D02*
G03*
X1197280Y7122130I15240J0D01*
G75*
G01*
X1266520Y7122130D02*
G03*
X1281760Y7137370I0J15240D01*
G75*
G01*
X1182040Y7340630D02*
G02*
X1197280Y7355870I15240J0D01*
G75*
G01*
X1266520Y7355870D02*
G02*
X1281760Y7340630I0J-15240D01*
G75*
G01*
X1182040Y7619970D02*
G03*
X1197280Y7604730I15240J0D01*
G75*
G01*
X1266520Y7604730D02*
G03*
X1281760Y7619970I0J15240D01*
G75*
G01*
X1182040Y7823230D02*
G02*
X1197280Y7838470I15240J0D01*
G75*
G01*
X1266520Y7838470D02*
G02*
X1281760Y7823230I0J-15240D01*
G75*
G01*
X1182040Y8102570D02*
G03*
X1197280Y8087330I15240J0D01*
G75*
G01*
X1266520Y8087330D02*
G03*
X1281760Y8102570I0J15240D01*
G75*
G01*
X1182040Y8305830D02*
G02*
X1197280Y8321070I15240J0D01*
G75*
G01*
X1266520Y8321070D02*
G02*
X1281760Y8305830I0J-15240D01*
G75*
G01*
X1182040Y8585170D02*
G03*
X1197280Y8569930I15240J0D01*
G75*
G01*
X1266520Y8569930D02*
G03*
X1281760Y8585170I0J15240D01*
G75*
G01*
X1182040Y8788430D02*
G02*
X1197280Y8803670I15240J0D01*
G75*
G01*
X1266520Y8803670D02*
G02*
X1281760Y8788430I0J-15240D01*
G75*
G01*
X1182040Y9067770D02*
G03*
X1197280Y9052530I15240J0D01*
G75*
G01*
X1266520Y9052530D02*
G03*
X1281760Y9067770I0J15240D01*
G75*
G01*
X1182040Y9271030D02*
G02*
X1197280Y9286270I15240J0D01*
G75*
G01*
X1266520Y9286270D02*
G02*
X1281760Y9271030I0J-15240D01*
G75*
G01*
X1182040Y9550370D02*
G03*
X1197280Y9535130I15240J0D01*
G75*
G01*
X1266520Y9535130D02*
G03*
X1281760Y9550370I0J15240D01*
G75*
G01*
X1182040Y9753630D02*
G02*
X1197280Y9768870I15240J0D01*
G75*
G01*
X1266520Y9768870D02*
G02*
X1281760Y9753630I0J-15240D01*
G75*
G01*
X1182040Y10032970D02*
G03*
X1197280Y10017730I15240J0D01*
G75*
G01*
X1266520Y10017730D02*
G03*
X1281760Y10032970I0J15240D01*
G75*
G01*
X1182040Y10236230D02*
G02*
X1197280Y10251470I15240J0D01*
G75*
G01*
X1266520Y10251470D02*
G02*
X1281760Y10236230I0J-15240D01*
G75*
G01*
X1690040Y4165570D02*
G03*
X1705280Y4150330I15240J0D01*
G75*
G01*
X1774520Y4150330D02*
G03*
X1789760Y4165570I0J15240D01*
G75*
G01*
X1690040Y4368830D02*
G02*
X1705280Y4384070I15240J0D01*
G75*
G01*
X1774520Y4384070D02*
G02*
X1789760Y4368830I0J-15240D01*
D13*
X1168400Y10693400D02*
G01*
X1803400Y10693400D01*
X1803400Y3937000D01*
X1168400Y3937000D01*
X1168400Y10693400D01*
M02*
