G04 Layer: BottomLayer*
G04 EasyEDA v6.5.29, 2023-07-16 15:11:24*
G04 67781e16ba424d80afd487f8c688e69f,5a6b42c53f6a479593ecc07194224c93,10*
G04 Gerber Generator version 0.2*
G04 Scale: 100 percent, Rotated: No, Reflected: No *
G04 Dimensions in millimeters *
G04 leading zeros omitted , absolute positions ,4 integer and 5 decimal *
%FSLAX45Y45*%
%MOMM*%

%ADD10C,0.2540*%
%ADD11O,6.4000126X3.1999936*%

%LPD*%
G36*
X36068Y698500D02*
G01*
X32156Y699262D01*
X28905Y701497D01*
X26670Y704748D01*
X25908Y708660D01*
X25908Y12150090D01*
X26670Y12154001D01*
X28905Y12157252D01*
X32156Y12159488D01*
X36068Y12160250D01*
X11101832Y12160250D01*
X11105743Y12159488D01*
X11108994Y12157252D01*
X11111230Y12154001D01*
X11111992Y12150090D01*
X11111992Y708660D01*
X11111230Y704748D01*
X11108994Y701497D01*
X11105743Y699262D01*
X11101832Y698500D01*
G37*

%LPC*%
G36*
X444906Y10519918D02*
G01*
X470204Y10520832D01*
X495350Y10523677D01*
X520242Y10528401D01*
X544728Y10534954D01*
X568604Y10543286D01*
X591820Y10553446D01*
X614222Y10565282D01*
X635660Y10578744D01*
X656031Y10593781D01*
X675233Y10610291D01*
X693115Y10628172D01*
X709625Y10647375D01*
X724662Y10667746D01*
X738124Y10689183D01*
X749960Y10711586D01*
X760120Y10734802D01*
X768451Y10758678D01*
X775004Y10783163D01*
X779729Y10808055D01*
X782574Y10833201D01*
X783488Y10858500D01*
X782574Y10883798D01*
X779729Y10908944D01*
X775004Y10933836D01*
X768451Y10958322D01*
X760120Y10982198D01*
X749960Y11005413D01*
X738124Y11027816D01*
X724662Y11049254D01*
X709625Y11069624D01*
X693115Y11088827D01*
X675233Y11106708D01*
X656031Y11123218D01*
X635660Y11138255D01*
X614222Y11151717D01*
X591820Y11163554D01*
X568604Y11173714D01*
X544728Y11182045D01*
X520242Y11188598D01*
X495350Y11193322D01*
X470204Y11196167D01*
X444906Y11197082D01*
X419608Y11196167D01*
X394462Y11193322D01*
X369570Y11188598D01*
X345084Y11182045D01*
X321208Y11173714D01*
X297992Y11163554D01*
X275590Y11151717D01*
X254152Y11138255D01*
X233781Y11123218D01*
X214579Y11106708D01*
X196697Y11088827D01*
X180187Y11069624D01*
X165150Y11049254D01*
X151688Y11027816D01*
X139852Y11005413D01*
X129692Y10982198D01*
X121361Y10958322D01*
X114808Y10933836D01*
X110083Y10908944D01*
X107238Y10883798D01*
X106324Y10858500D01*
X107238Y10833201D01*
X110083Y10808055D01*
X114808Y10783163D01*
X121361Y10758678D01*
X129692Y10734802D01*
X139852Y10711586D01*
X151688Y10689183D01*
X165150Y10667746D01*
X180187Y10647375D01*
X196697Y10628172D01*
X214579Y10610291D01*
X233781Y10593781D01*
X254152Y10578744D01*
X275590Y10565282D01*
X297992Y10553446D01*
X321208Y10543286D01*
X345084Y10534954D01*
X369570Y10528401D01*
X394462Y10523677D01*
X419608Y10520832D01*
G37*
G36*
X2004364Y786892D02*
G01*
X3023209Y786892D01*
X3029559Y787603D01*
X3034995Y789533D01*
X3039922Y792581D01*
X3043986Y796696D01*
X3047085Y801573D01*
X3049016Y807059D01*
X3049727Y813358D01*
X3049727Y1832254D01*
X3049016Y1838553D01*
X3047085Y1843989D01*
X3043986Y1848916D01*
X3039922Y1852980D01*
X3034995Y1856079D01*
X3029559Y1858010D01*
X3023209Y1858721D01*
X2004364Y1858721D01*
X1998065Y1858010D01*
X1992579Y1856079D01*
X1987702Y1852980D01*
X1983587Y1848916D01*
X1980488Y1843989D01*
X1978609Y1838553D01*
X1977898Y1832254D01*
X1977898Y813358D01*
X1978609Y807059D01*
X1980488Y801573D01*
X1983587Y796696D01*
X1987702Y792581D01*
X1992579Y789533D01*
X1998065Y787603D01*
G37*
G36*
X4264964Y786892D02*
G01*
X5283809Y786892D01*
X5290159Y787603D01*
X5295595Y789533D01*
X5300522Y792581D01*
X5304586Y796696D01*
X5307685Y801573D01*
X5309616Y807059D01*
X5310327Y813358D01*
X5310327Y1832254D01*
X5309616Y1838553D01*
X5307685Y1843989D01*
X5304586Y1848916D01*
X5300522Y1852980D01*
X5295595Y1856079D01*
X5290159Y1858010D01*
X5283809Y1858721D01*
X4264964Y1858721D01*
X4258665Y1858010D01*
X4253179Y1856079D01*
X4248302Y1852980D01*
X4244187Y1848916D01*
X4241088Y1843989D01*
X4239209Y1838553D01*
X4238498Y1832254D01*
X4238498Y813358D01*
X4239209Y807059D01*
X4241088Y801573D01*
X4244187Y796696D01*
X4248302Y792581D01*
X4253179Y789533D01*
X4258665Y787603D01*
G37*
G36*
X3134664Y786892D02*
G01*
X4153509Y786892D01*
X4159859Y787603D01*
X4165295Y789533D01*
X4170222Y792581D01*
X4174286Y796696D01*
X4177385Y801573D01*
X4179315Y807059D01*
X4180027Y813358D01*
X4180027Y1832254D01*
X4179315Y1838553D01*
X4177385Y1843989D01*
X4174286Y1848916D01*
X4170222Y1852980D01*
X4165295Y1856079D01*
X4159859Y1858010D01*
X4153509Y1858721D01*
X3134664Y1858721D01*
X3128365Y1858010D01*
X3122879Y1856079D01*
X3118002Y1852980D01*
X3113887Y1848916D01*
X3110788Y1843989D01*
X3108909Y1838553D01*
X3108198Y1832254D01*
X3108198Y813358D01*
X3108909Y807059D01*
X3110788Y801573D01*
X3113887Y796696D01*
X3118002Y792581D01*
X3122879Y789533D01*
X3128365Y787603D01*
G37*
G36*
X6770878Y786892D02*
G01*
X8331809Y786892D01*
X8338159Y787603D01*
X8343595Y789533D01*
X8348522Y792581D01*
X8352586Y796696D01*
X8355685Y801573D01*
X8357616Y807059D01*
X8358327Y813358D01*
X8358327Y2374341D01*
X8357616Y2380640D01*
X8355685Y2386126D01*
X8352586Y2391003D01*
X8348522Y2395118D01*
X8343595Y2398166D01*
X8338159Y2400096D01*
X8331809Y2400808D01*
X6770878Y2400808D01*
X6764528Y2400096D01*
X6759092Y2398166D01*
X6754164Y2395118D01*
X6750100Y2391003D01*
X6747002Y2386126D01*
X6745122Y2380640D01*
X6744411Y2374341D01*
X6744411Y813358D01*
X6745122Y807059D01*
X6747002Y801573D01*
X6750100Y796696D01*
X6754164Y792581D01*
X6759092Y789533D01*
X6764528Y787603D01*
G37*
G36*
X8688578Y786892D02*
G01*
X10249509Y786892D01*
X10255859Y787603D01*
X10261295Y789533D01*
X10266222Y792581D01*
X10270286Y796696D01*
X10273385Y801573D01*
X10275316Y807059D01*
X10276027Y813358D01*
X10276027Y2374341D01*
X10275316Y2380640D01*
X10273385Y2386126D01*
X10270286Y2391003D01*
X10266222Y2395118D01*
X10261295Y2398166D01*
X10255859Y2400096D01*
X10249509Y2400808D01*
X8688578Y2400808D01*
X8682228Y2400096D01*
X8676792Y2398166D01*
X8671864Y2395118D01*
X8667800Y2391003D01*
X8664702Y2386126D01*
X8662822Y2380640D01*
X8662111Y2374341D01*
X8662111Y813358D01*
X8662822Y807059D01*
X8664702Y801573D01*
X8667800Y796696D01*
X8671864Y792581D01*
X8676792Y789533D01*
X8682228Y787603D01*
G37*
G36*
X446176Y1120292D02*
G01*
X471525Y1121257D01*
X496722Y1124102D01*
X521665Y1128826D01*
X546150Y1135380D01*
X570077Y1143812D01*
X593344Y1153972D01*
X615746Y1165809D01*
X637184Y1179372D01*
X657606Y1194409D01*
X676808Y1211021D01*
X694740Y1228953D01*
X711250Y1248206D01*
X726287Y1268679D01*
X739698Y1290167D01*
X751535Y1312621D01*
X761644Y1335887D01*
X769924Y1359865D01*
X776478Y1384350D01*
X781100Y1409293D01*
X783894Y1434541D01*
X784758Y1459585D01*
X783894Y1485087D01*
X781100Y1510284D01*
X776478Y1535226D01*
X769924Y1559763D01*
X761644Y1583690D01*
X751535Y1606956D01*
X739698Y1629410D01*
X726287Y1650949D01*
X711250Y1671370D01*
X694740Y1690624D01*
X676808Y1708607D01*
X657606Y1725168D01*
X637184Y1740255D01*
X615746Y1753768D01*
X593344Y1765655D01*
X570077Y1775815D01*
X546150Y1784197D01*
X521665Y1790750D01*
X496722Y1795475D01*
X471525Y1798320D01*
X446176Y1799285D01*
X420827Y1798320D01*
X395630Y1795475D01*
X370687Y1790750D01*
X346202Y1784197D01*
X322224Y1775815D01*
X299008Y1765655D01*
X276606Y1753768D01*
X255117Y1740255D01*
X234746Y1725168D01*
X215544Y1708607D01*
X197612Y1690624D01*
X181102Y1671370D01*
X166065Y1650949D01*
X152603Y1629410D01*
X140817Y1606956D01*
X130708Y1583690D01*
X122377Y1559763D01*
X115874Y1535226D01*
X111201Y1510284D01*
X108458Y1485087D01*
X107594Y1459992D01*
X108458Y1434490D01*
X111201Y1409293D01*
X115874Y1384350D01*
X122377Y1359865D01*
X130708Y1335887D01*
X140817Y1312621D01*
X152603Y1290167D01*
X166065Y1268679D01*
X181102Y1248206D01*
X197612Y1228953D01*
X215544Y1211021D01*
X234746Y1194409D01*
X255117Y1179372D01*
X276606Y1165809D01*
X299008Y1153972D01*
X322224Y1143812D01*
X346202Y1135380D01*
X370687Y1128826D01*
X395630Y1124102D01*
X420827Y1121257D01*
G37*
G36*
X5712104Y1121206D02*
G01*
X5737402Y1122121D01*
X5762548Y1124966D01*
X5787440Y1129690D01*
X5811926Y1136243D01*
X5835802Y1144625D01*
X5859018Y1154734D01*
X5881420Y1166571D01*
X5902858Y1180033D01*
X5923229Y1195070D01*
X5942431Y1211580D01*
X5960313Y1229512D01*
X5976823Y1248664D01*
X5991860Y1269034D01*
X6005322Y1290472D01*
X6017158Y1312875D01*
X6027318Y1336090D01*
X6035649Y1359966D01*
X6042202Y1384452D01*
X6046927Y1409344D01*
X6049772Y1434490D01*
X6050686Y1459788D01*
X6049772Y1485087D01*
X6046927Y1510284D01*
X6042202Y1535125D01*
X6035649Y1559610D01*
X6027318Y1583486D01*
X6017158Y1606702D01*
X6005322Y1629105D01*
X5991860Y1650542D01*
X5976823Y1670913D01*
X5960313Y1690116D01*
X5942431Y1707997D01*
X5923229Y1724507D01*
X5902858Y1739544D01*
X5881420Y1753057D01*
X5859018Y1764842D01*
X5835802Y1775002D01*
X5811926Y1783334D01*
X5787440Y1789887D01*
X5762548Y1794611D01*
X5737402Y1797456D01*
X5712104Y1798421D01*
X5686806Y1797456D01*
X5661660Y1794611D01*
X5636768Y1789887D01*
X5612282Y1783334D01*
X5588406Y1775002D01*
X5565190Y1764842D01*
X5542788Y1753057D01*
X5521350Y1739544D01*
X5500979Y1724507D01*
X5481777Y1707997D01*
X5463895Y1690116D01*
X5447385Y1670913D01*
X5432348Y1650542D01*
X5418886Y1629105D01*
X5407050Y1606702D01*
X5396890Y1583486D01*
X5388559Y1559610D01*
X5382006Y1535125D01*
X5377281Y1510284D01*
X5374436Y1485087D01*
X5373522Y1459788D01*
X5374436Y1434490D01*
X5377281Y1409344D01*
X5382006Y1384452D01*
X5388559Y1359966D01*
X5396890Y1336090D01*
X5407050Y1312875D01*
X5418886Y1290472D01*
X5432348Y1269034D01*
X5447385Y1248664D01*
X5463895Y1229512D01*
X5481777Y1211580D01*
X5500979Y1195070D01*
X5521350Y1180033D01*
X5542788Y1166571D01*
X5565190Y1154734D01*
X5588406Y1144625D01*
X5612282Y1136243D01*
X5636768Y1129690D01*
X5661660Y1124966D01*
X5686806Y1122121D01*
G37*
G36*
X10689793Y1121918D02*
G01*
X10715091Y1122832D01*
X10740288Y1125677D01*
X10765129Y1130401D01*
X10789615Y1136954D01*
X10813491Y1145286D01*
X10836706Y1155446D01*
X10859109Y1167282D01*
X10880547Y1180744D01*
X10900918Y1195781D01*
X10920120Y1212291D01*
X10938002Y1230172D01*
X10954512Y1249375D01*
X10969548Y1269746D01*
X10983061Y1291183D01*
X10994847Y1313586D01*
X11005007Y1336802D01*
X11013338Y1360678D01*
X11019891Y1385163D01*
X11024616Y1410055D01*
X11027460Y1435201D01*
X11028426Y1460500D01*
X11027460Y1485798D01*
X11024616Y1510944D01*
X11019891Y1535836D01*
X11013338Y1560322D01*
X11005007Y1584198D01*
X10994847Y1607413D01*
X10983061Y1629816D01*
X10969548Y1651254D01*
X10954512Y1671624D01*
X10938002Y1690827D01*
X10920120Y1708708D01*
X10900918Y1725218D01*
X10880547Y1740255D01*
X10859109Y1753717D01*
X10836706Y1765554D01*
X10813491Y1775714D01*
X10789615Y1784045D01*
X10765129Y1790598D01*
X10740288Y1795322D01*
X10715091Y1798167D01*
X10689793Y1799082D01*
X10664494Y1798167D01*
X10639348Y1795322D01*
X10614456Y1790598D01*
X10589971Y1784045D01*
X10566095Y1775714D01*
X10542879Y1765554D01*
X10520476Y1753717D01*
X10499039Y1740255D01*
X10478668Y1725218D01*
X10459516Y1708708D01*
X10441584Y1690827D01*
X10425074Y1671624D01*
X10410037Y1651254D01*
X10396575Y1629816D01*
X10384739Y1607413D01*
X10374579Y1584198D01*
X10366248Y1560322D01*
X10359694Y1535836D01*
X10354970Y1510944D01*
X10352125Y1485798D01*
X10351211Y1460500D01*
X10352125Y1435201D01*
X10354970Y1410055D01*
X10359694Y1385163D01*
X10366248Y1360678D01*
X10374579Y1336802D01*
X10384739Y1313586D01*
X10396575Y1291183D01*
X10410037Y1269746D01*
X10425074Y1249375D01*
X10441584Y1230172D01*
X10459516Y1212291D01*
X10478668Y1195781D01*
X10499039Y1180744D01*
X10520476Y1167282D01*
X10542879Y1155446D01*
X10566095Y1145286D01*
X10589971Y1136954D01*
X10614456Y1130401D01*
X10639348Y1125677D01*
X10664494Y1122832D01*
G37*
G36*
X874064Y1917192D02*
G01*
X1892909Y1917192D01*
X1899259Y1917903D01*
X1904695Y1919833D01*
X1909622Y1922881D01*
X1913686Y1926996D01*
X1916785Y1931873D01*
X1918716Y1937359D01*
X1919427Y1943658D01*
X1919427Y2962554D01*
X1918716Y2968853D01*
X1916785Y2974289D01*
X1913686Y2979216D01*
X1909622Y2983280D01*
X1904695Y2986379D01*
X1899259Y2988310D01*
X1892909Y2989021D01*
X874064Y2989021D01*
X867765Y2988310D01*
X862279Y2986379D01*
X857402Y2983280D01*
X853287Y2979216D01*
X850239Y2974289D01*
X848309Y2968853D01*
X847598Y2962554D01*
X847598Y1943658D01*
X848309Y1937359D01*
X850239Y1931873D01*
X853287Y1926996D01*
X857402Y1922881D01*
X862279Y1919833D01*
X867765Y1917903D01*
G37*
G36*
X874064Y786892D02*
G01*
X1892909Y786892D01*
X1899259Y787603D01*
X1904695Y789533D01*
X1909622Y792581D01*
X1913686Y796696D01*
X1916785Y801573D01*
X1918716Y807059D01*
X1919427Y813358D01*
X1919427Y1832254D01*
X1918716Y1838553D01*
X1916785Y1843989D01*
X1913686Y1848916D01*
X1909622Y1852980D01*
X1904695Y1856079D01*
X1899259Y1858010D01*
X1892909Y1858721D01*
X874064Y1858721D01*
X867765Y1858010D01*
X862279Y1856079D01*
X857402Y1852980D01*
X853287Y1848916D01*
X850239Y1843989D01*
X848309Y1838553D01*
X847598Y1832254D01*
X847598Y813358D01*
X848309Y807059D01*
X850239Y801573D01*
X853287Y796696D01*
X857402Y792581D01*
X862279Y789533D01*
X867765Y787603D01*
G37*
G36*
X3134664Y1917192D02*
G01*
X4153509Y1917192D01*
X4159859Y1917903D01*
X4165295Y1919833D01*
X4170222Y1922881D01*
X4174286Y1926996D01*
X4177385Y1931873D01*
X4179315Y1937359D01*
X4180027Y1943658D01*
X4180027Y2962554D01*
X4179315Y2968853D01*
X4177385Y2974289D01*
X4174286Y2979216D01*
X4170222Y2983280D01*
X4165295Y2986379D01*
X4159859Y2988310D01*
X4153509Y2989021D01*
X3134664Y2989021D01*
X3128365Y2988310D01*
X3122879Y2986379D01*
X3118002Y2983280D01*
X3113887Y2979216D01*
X3110788Y2974289D01*
X3108909Y2968853D01*
X3108198Y2962554D01*
X3108198Y1943658D01*
X3108909Y1937359D01*
X3110788Y1931873D01*
X3113887Y1926996D01*
X3118002Y1922881D01*
X3122879Y1919833D01*
X3128365Y1917903D01*
G37*
G36*
X4264964Y1917192D02*
G01*
X5283809Y1917192D01*
X5290159Y1917903D01*
X5295595Y1919833D01*
X5300522Y1922881D01*
X5304586Y1926996D01*
X5307685Y1931873D01*
X5309616Y1937359D01*
X5310327Y1943658D01*
X5310327Y2962554D01*
X5309616Y2968853D01*
X5307685Y2974289D01*
X5304586Y2979216D01*
X5300522Y2983280D01*
X5295595Y2986379D01*
X5290159Y2988310D01*
X5283809Y2989021D01*
X4264964Y2989021D01*
X4258665Y2988310D01*
X4253179Y2986379D01*
X4248302Y2983280D01*
X4244187Y2979216D01*
X4241088Y2974289D01*
X4239209Y2968853D01*
X4238498Y2962554D01*
X4238498Y1943658D01*
X4239209Y1937359D01*
X4241088Y1931873D01*
X4244187Y1926996D01*
X4248302Y1922881D01*
X4253179Y1919833D01*
X4258665Y1917903D01*
G37*
G36*
X7225690Y3913479D02*
G01*
X8024520Y3913479D01*
X8030870Y3914190D01*
X8036306Y3916121D01*
X8041233Y3919220D01*
X8045297Y3923284D01*
X8048396Y3928211D01*
X8050326Y3933647D01*
X8051038Y3939946D01*
X8051038Y10438841D01*
X8050326Y10445140D01*
X8048396Y10450626D01*
X8045297Y10455503D01*
X8041233Y10459618D01*
X8036306Y10462666D01*
X8030870Y10464596D01*
X8024520Y10465308D01*
X7225690Y10465308D01*
X7219340Y10464596D01*
X7213904Y10462666D01*
X7208977Y10459618D01*
X7204913Y10455503D01*
X7201814Y10450626D01*
X7199934Y10445140D01*
X7199223Y10438841D01*
X7199223Y3939946D01*
X7199934Y3933647D01*
X7201814Y3928211D01*
X7204913Y3923284D01*
X7208977Y3919220D01*
X7213904Y3916121D01*
X7219340Y3914190D01*
G37*
G36*
X878078Y4673092D02*
G01*
X5283809Y4673092D01*
X5290159Y4673803D01*
X5295595Y4675733D01*
X5300522Y4678781D01*
X5304586Y4682896D01*
X5307685Y4687773D01*
X5309616Y4693259D01*
X5310327Y4699558D01*
X5310327Y9727641D01*
X5309616Y9733940D01*
X5307685Y9739426D01*
X5304586Y9744303D01*
X5300522Y9748418D01*
X5295595Y9751466D01*
X5290159Y9753396D01*
X5283809Y9754108D01*
X878078Y9754108D01*
X871728Y9753396D01*
X866292Y9751466D01*
X861364Y9748418D01*
X857300Y9744303D01*
X854202Y9739426D01*
X852322Y9733940D01*
X851611Y9727641D01*
X851611Y4699558D01*
X852322Y4693259D01*
X854202Y4687773D01*
X857300Y4682896D01*
X861364Y4678781D01*
X866292Y4675733D01*
X871728Y4673803D01*
G37*
G36*
X10225481Y4675784D02*
G01*
X10246918Y4675784D01*
X10268305Y4677714D01*
X10289438Y4681575D01*
X10310114Y4687316D01*
X10330180Y4694834D01*
X10349484Y4704181D01*
X10367924Y4715205D01*
X10385247Y4727854D01*
X10401401Y4741976D01*
X10416184Y4757521D01*
X10429544Y4774336D01*
X10441330Y4792268D01*
X10451439Y4811166D01*
X10459821Y4830927D01*
X10466374Y4851349D01*
X10471099Y4872278D01*
X10473893Y4893564D01*
X10474807Y4914646D01*
X10473893Y4936236D01*
X10471099Y4957521D01*
X10466374Y4978450D01*
X10459821Y4998872D01*
X10451439Y5018633D01*
X10441330Y5037531D01*
X10429544Y5055463D01*
X10416184Y5072278D01*
X10401401Y5087823D01*
X10385247Y5101945D01*
X10367924Y5114594D01*
X10349484Y5125618D01*
X10330180Y5134965D01*
X10310114Y5142484D01*
X10289438Y5148224D01*
X10268305Y5152085D01*
X10246918Y5154015D01*
X10225481Y5154015D01*
X10204094Y5152085D01*
X10183012Y5148224D01*
X10162336Y5142484D01*
X10142220Y5134965D01*
X10122916Y5125618D01*
X10104526Y5114594D01*
X10087152Y5101945D01*
X10071049Y5087823D01*
X10056215Y5072278D01*
X10042906Y5055463D01*
X10031120Y5037531D01*
X10020960Y5018633D01*
X10012578Y4998872D01*
X10006025Y4978450D01*
X10001300Y4957521D01*
X9998506Y4936236D01*
X9997643Y4915154D01*
X9998506Y4893564D01*
X10001300Y4872278D01*
X10006025Y4851349D01*
X10012578Y4830927D01*
X10020960Y4811166D01*
X10031120Y4792268D01*
X10042906Y4774336D01*
X10056215Y4757521D01*
X10071049Y4741976D01*
X10087152Y4727854D01*
X10104526Y4715205D01*
X10122916Y4704181D01*
X10142220Y4694834D01*
X10162336Y4687316D01*
X10183012Y4681575D01*
X10204094Y4677714D01*
G37*
G36*
X10225481Y9247784D02*
G01*
X10246918Y9247784D01*
X10268305Y9249714D01*
X10289438Y9253575D01*
X10310114Y9259316D01*
X10330180Y9266834D01*
X10349484Y9276181D01*
X10367924Y9287205D01*
X10385247Y9299854D01*
X10401401Y9313976D01*
X10416184Y9329521D01*
X10429544Y9346336D01*
X10441330Y9364268D01*
X10451439Y9383166D01*
X10459821Y9402927D01*
X10466374Y9423349D01*
X10471099Y9444278D01*
X10473893Y9465564D01*
X10474807Y9486646D01*
X10473893Y9508236D01*
X10471099Y9529521D01*
X10466374Y9550450D01*
X10459821Y9570872D01*
X10451439Y9590633D01*
X10441330Y9609531D01*
X10429544Y9627463D01*
X10416184Y9644278D01*
X10401401Y9659823D01*
X10385247Y9673945D01*
X10367924Y9686594D01*
X10349484Y9697618D01*
X10330180Y9706965D01*
X10310114Y9714484D01*
X10289438Y9720224D01*
X10268305Y9724085D01*
X10246918Y9726015D01*
X10225481Y9726015D01*
X10204094Y9724085D01*
X10183012Y9720224D01*
X10162336Y9714484D01*
X10142220Y9706965D01*
X10122916Y9697618D01*
X10104526Y9686594D01*
X10087152Y9673945D01*
X10071049Y9659823D01*
X10056215Y9644278D01*
X10042906Y9627463D01*
X10031120Y9609531D01*
X10020960Y9590633D01*
X10012578Y9570872D01*
X10006025Y9550450D01*
X10001300Y9529521D01*
X9998506Y9508236D01*
X9997643Y9487154D01*
X9998506Y9465564D01*
X10001300Y9444278D01*
X10006025Y9423349D01*
X10012578Y9402927D01*
X10020960Y9383166D01*
X10031120Y9364268D01*
X10042906Y9346336D01*
X10056215Y9329521D01*
X10071049Y9313976D01*
X10087152Y9299854D01*
X10104526Y9287205D01*
X10122916Y9276181D01*
X10142220Y9266834D01*
X10162336Y9259316D01*
X10183012Y9253575D01*
X10204094Y9249714D01*
G37*
G36*
X878078Y10057892D02*
G01*
X2439009Y10057892D01*
X2445359Y10058603D01*
X2450795Y10060533D01*
X2455722Y10063581D01*
X2459786Y10067696D01*
X2462885Y10072573D01*
X2464816Y10078059D01*
X2465527Y10084358D01*
X2465527Y11645341D01*
X2464816Y11651640D01*
X2462885Y11657126D01*
X2459786Y11662003D01*
X2455722Y11666118D01*
X2450795Y11669166D01*
X2445359Y11671096D01*
X2439009Y11671808D01*
X878078Y11671808D01*
X871728Y11671096D01*
X866292Y11669166D01*
X861364Y11666118D01*
X857300Y11662003D01*
X854202Y11657126D01*
X852322Y11651640D01*
X851611Y11645341D01*
X851611Y10084358D01*
X852322Y10078059D01*
X854202Y10072573D01*
X857300Y10067696D01*
X861364Y10063581D01*
X866292Y10060533D01*
X871728Y10058603D01*
G37*
G36*
X3710178Y10057892D02*
G01*
X5271109Y10057892D01*
X5277459Y10058603D01*
X5282895Y10060533D01*
X5287822Y10063581D01*
X5291886Y10067696D01*
X5294985Y10072573D01*
X5296916Y10078059D01*
X5297627Y10084358D01*
X5297627Y11645341D01*
X5296916Y11651640D01*
X5294985Y11657126D01*
X5291886Y11662003D01*
X5287822Y11666118D01*
X5282895Y11669166D01*
X5277459Y11671096D01*
X5271109Y11671808D01*
X3710178Y11671808D01*
X3703828Y11671096D01*
X3698392Y11669166D01*
X3693464Y11666118D01*
X3689400Y11662003D01*
X3686301Y11657126D01*
X3684422Y11651640D01*
X3683711Y11645341D01*
X3683711Y10084358D01*
X3684422Y10078059D01*
X3686301Y10072573D01*
X3689400Y10067696D01*
X3693464Y10063581D01*
X3698392Y10060533D01*
X3703828Y10058603D01*
G37*
G36*
X5712206Y10519003D02*
G01*
X5737555Y10519968D01*
X5762752Y10522813D01*
X5787694Y10527538D01*
X5812180Y10534091D01*
X5836107Y10542473D01*
X5859373Y10552684D01*
X5881776Y10564520D01*
X5903264Y10578033D01*
X5923635Y10593120D01*
X5942838Y10609732D01*
X5960770Y10627664D01*
X5977280Y10646918D01*
X5992317Y10667339D01*
X6005779Y10688878D01*
X6017564Y10711332D01*
X6027674Y10734598D01*
X6036005Y10758576D01*
X6042507Y10783062D01*
X6047130Y10808004D01*
X6049924Y10833201D01*
X6050788Y10858296D01*
X6049924Y10883798D01*
X6047130Y10908995D01*
X6042507Y10933938D01*
X6036005Y10958423D01*
X6027674Y10982401D01*
X6017564Y11005667D01*
X6005779Y11028121D01*
X5992317Y11049660D01*
X5977280Y11070082D01*
X5960770Y11089335D01*
X5942838Y11107267D01*
X5923635Y11123879D01*
X5903264Y11138966D01*
X5881776Y11152479D01*
X5859373Y11164316D01*
X5836107Y11174476D01*
X5812180Y11182908D01*
X5787694Y11189462D01*
X5762752Y11194186D01*
X5737555Y11197031D01*
X5712206Y11197996D01*
X5686856Y11197031D01*
X5661660Y11194186D01*
X5636717Y11189462D01*
X5612231Y11182908D01*
X5588304Y11174476D01*
X5565038Y11164316D01*
X5542635Y11152479D01*
X5521147Y11138966D01*
X5500776Y11123879D01*
X5481574Y11107267D01*
X5463641Y11089335D01*
X5447131Y11070082D01*
X5432094Y11049660D01*
X5418632Y11028121D01*
X5406847Y11005667D01*
X5396738Y10982401D01*
X5388406Y10958423D01*
X5381904Y10933938D01*
X5377230Y10908995D01*
X5374487Y10883798D01*
X5373624Y10858703D01*
X5374487Y10833201D01*
X5377230Y10808004D01*
X5381904Y10783062D01*
X5388406Y10758576D01*
X5396738Y10734598D01*
X5406847Y10711332D01*
X5418632Y10688878D01*
X5432094Y10667339D01*
X5447131Y10646918D01*
X5463641Y10627664D01*
X5481574Y10609732D01*
X5500776Y10593120D01*
X5521147Y10578033D01*
X5542635Y10564520D01*
X5565038Y10552684D01*
X5588304Y10542473D01*
X5612231Y10534091D01*
X5636717Y10527538D01*
X5661660Y10522813D01*
X5686856Y10519968D01*
G37*
G36*
X2004364Y1917192D02*
G01*
X3023209Y1917192D01*
X3029559Y1917903D01*
X3034995Y1919833D01*
X3039922Y1922881D01*
X3043986Y1926996D01*
X3047085Y1931873D01*
X3049016Y1937359D01*
X3049727Y1943658D01*
X3049727Y2962554D01*
X3049016Y2968853D01*
X3047085Y2974289D01*
X3043986Y2979216D01*
X3039922Y2983280D01*
X3034995Y2986379D01*
X3029559Y2988310D01*
X3023209Y2989021D01*
X2004364Y2989021D01*
X1998065Y2988310D01*
X1992579Y2986379D01*
X1987702Y2983280D01*
X1983587Y2979216D01*
X1980488Y2974289D01*
X1978609Y2968853D01*
X1977898Y2962554D01*
X1977898Y1943658D01*
X1978609Y1937359D01*
X1980488Y1931873D01*
X1983587Y1926996D01*
X1987702Y1922881D01*
X1992579Y1919833D01*
X1998065Y1917903D01*
G37*

%LPD*%
G36*
X440893Y11171174D02*
G01*
X424942Y11170564D01*
X409041Y11169142D01*
X393242Y11166906D01*
X377545Y11163858D01*
X362051Y11159998D01*
X354380Y11157813D01*
X339191Y11152784D01*
X324307Y11146993D01*
X309727Y11140490D01*
X295503Y11133226D01*
X281686Y11125200D01*
X268274Y11116564D01*
X255320Y11107166D01*
X242874Y11097209D01*
X230987Y11086541D01*
X219608Y11075314D01*
X214121Y11069523D01*
X203657Y11057432D01*
X193802Y11044885D01*
X184607Y11031829D01*
X176123Y11018316D01*
X168300Y11004346D01*
X161239Y10990072D01*
X154889Y10975390D01*
X149301Y10960455D01*
X144475Y10945215D01*
X140411Y10929772D01*
X137210Y10914126D01*
X134772Y10898327D01*
X133146Y10882426D01*
X132283Y10866475D01*
X132283Y10850524D01*
X133146Y10834573D01*
X134772Y10818672D01*
X137210Y10802874D01*
X140411Y10787227D01*
X144475Y10771784D01*
X149301Y10756544D01*
X154889Y10741609D01*
X161239Y10726928D01*
X168300Y10712653D01*
X176123Y10698683D01*
X184607Y10685170D01*
X193802Y10672114D01*
X203657Y10659567D01*
X214121Y10647476D01*
X225196Y10635996D01*
X236880Y10625074D01*
X242874Y10619790D01*
X255320Y10609834D01*
X268274Y10600436D01*
X281686Y10591800D01*
X295503Y10583773D01*
X309727Y10576509D01*
X324307Y10570006D01*
X339191Y10564215D01*
X354380Y10559186D01*
X369773Y10554970D01*
X385368Y10551515D01*
X401116Y10548874D01*
X416966Y10547045D01*
X432917Y10546029D01*
X448919Y10545826D01*
X464870Y10546435D01*
X480771Y10547858D01*
X496570Y10550093D01*
X512267Y10553141D01*
X527761Y10557002D01*
X535432Y10559186D01*
X550621Y10564215D01*
X565505Y10570006D01*
X580085Y10576509D01*
X594309Y10583773D01*
X608126Y10591800D01*
X621538Y10600436D01*
X634492Y10609834D01*
X646938Y10619790D01*
X658825Y10630458D01*
X670204Y10641685D01*
X675690Y10647476D01*
X686155Y10659567D01*
X696010Y10672114D01*
X705205Y10685170D01*
X713689Y10698683D01*
X721512Y10712653D01*
X728573Y10726928D01*
X734923Y10741609D01*
X740511Y10756544D01*
X745337Y10771784D01*
X749401Y10787227D01*
X752602Y10802874D01*
X755040Y10818672D01*
X756666Y10834573D01*
X757478Y10850524D01*
X757478Y10866475D01*
X756666Y10882426D01*
X755040Y10898327D01*
X752602Y10914126D01*
X749401Y10929772D01*
X745337Y10945215D01*
X740511Y10960455D01*
X734923Y10975390D01*
X728573Y10990072D01*
X721512Y11004346D01*
X713689Y11018316D01*
X705205Y11031829D01*
X696010Y11044885D01*
X686155Y11057432D01*
X675690Y11069523D01*
X664616Y11081004D01*
X652932Y11091926D01*
X646938Y11097209D01*
X634492Y11107166D01*
X621538Y11116564D01*
X608126Y11125200D01*
X594309Y11133226D01*
X580085Y11140490D01*
X565505Y11146993D01*
X550621Y11152784D01*
X535432Y11157813D01*
X520039Y11162030D01*
X504443Y11165484D01*
X488696Y11168126D01*
X472795Y11169954D01*
X456895Y11170970D01*
G37*
G36*
X5708192Y11172088D02*
G01*
X5692190Y11171428D01*
X5676290Y11170005D01*
X5660440Y11167770D01*
X5644743Y11164722D01*
X5629198Y11160861D01*
X5613908Y11156238D01*
X5598820Y11150803D01*
X5584088Y11144656D01*
X5569661Y11137696D01*
X5562549Y11133988D01*
X5548731Y11125962D01*
X5535320Y11117224D01*
X5522366Y11107877D01*
X5509869Y11097818D01*
X5497931Y11087150D01*
X5486603Y11075873D01*
X5475782Y11064087D01*
X5465622Y11051692D01*
X5456123Y11038840D01*
X5447284Y11025530D01*
X5439105Y11011763D01*
X5431688Y10997590D01*
X5424982Y10983061D01*
X5419039Y10968177D01*
X5413857Y10953038D01*
X5409438Y10937646D01*
X5405831Y10922101D01*
X5403037Y10906353D01*
X5401056Y10890453D01*
X5399887Y10874502D01*
X5399481Y10858500D01*
X5399887Y10842498D01*
X5401056Y10826546D01*
X5403037Y10810646D01*
X5405831Y10794898D01*
X5409438Y10779353D01*
X5413857Y10763961D01*
X5419039Y10748822D01*
X5424982Y10733938D01*
X5431688Y10719409D01*
X5439105Y10705236D01*
X5447284Y10691469D01*
X5456123Y10678160D01*
X5465622Y10665307D01*
X5475782Y10652912D01*
X5486603Y10641126D01*
X5497931Y10629849D01*
X5509869Y10619181D01*
X5522366Y10609122D01*
X5535320Y10599775D01*
X5548731Y10591038D01*
X5562549Y10583011D01*
X5576824Y10575747D01*
X5591403Y10569194D01*
X5606338Y10563402D01*
X5613908Y10560761D01*
X5629198Y10556138D01*
X5644743Y10552277D01*
X5660440Y10549229D01*
X5676290Y10546994D01*
X5692190Y10545572D01*
X5708192Y10544911D01*
X5724194Y10545114D01*
X5740146Y10546181D01*
X5756046Y10548010D01*
X5771845Y10550652D01*
X5787491Y10554106D01*
X5802884Y10558373D01*
X5810504Y10560761D01*
X5825591Y10566196D01*
X5840323Y10572343D01*
X5854750Y10579303D01*
X5868822Y10586974D01*
X5882436Y10595305D01*
X5895644Y10604347D01*
X5908344Y10614101D01*
X5920536Y10624413D01*
X5932220Y10635386D01*
X5943295Y10646968D01*
X5948629Y10652912D01*
X5958789Y10665307D01*
X5968288Y10678160D01*
X5977128Y10691469D01*
X5985256Y10705236D01*
X5992723Y10719409D01*
X5999429Y10733938D01*
X6005372Y10748822D01*
X6010554Y10763961D01*
X6014923Y10779353D01*
X6016853Y10787075D01*
X6020054Y10802772D01*
X6021374Y10810646D01*
X6023356Y10826546D01*
X6024524Y10842498D01*
X6024880Y10858500D01*
X6024524Y10874502D01*
X6023356Y10890453D01*
X6021374Y10906353D01*
X6018530Y10922101D01*
X6016853Y10929924D01*
X6012840Y10945368D01*
X6008065Y10960658D01*
X6002477Y10975644D01*
X5996178Y10990376D01*
X5989066Y11004702D01*
X5981293Y11018672D01*
X5972810Y11032236D01*
X5963615Y11045342D01*
X5953760Y11057940D01*
X5948629Y11064087D01*
X5937808Y11075873D01*
X5932220Y11081613D01*
X5920536Y11092586D01*
X5908344Y11102898D01*
X5895644Y11112652D01*
X5882436Y11121694D01*
X5868822Y11130026D01*
X5854750Y11137696D01*
X5840323Y11144656D01*
X5825591Y11150803D01*
X5810504Y11156238D01*
X5795213Y11160861D01*
X5779668Y11164722D01*
X5763971Y11167770D01*
X5748121Y11170005D01*
X5732170Y11171428D01*
X5716219Y11172088D01*
G37*
G36*
X5708091Y1772462D02*
G01*
X5692140Y1771853D01*
X5676239Y1770430D01*
X5660440Y1768195D01*
X5644743Y1765147D01*
X5629249Y1761337D01*
X5613958Y1756714D01*
X5598922Y1751279D01*
X5591505Y1748332D01*
X5576925Y1741779D01*
X5562701Y1734515D01*
X5548884Y1726539D01*
X5535472Y1717852D01*
X5522518Y1708505D01*
X5510072Y1698498D01*
X5498185Y1687830D01*
X5486806Y1676654D01*
X5476036Y1664868D01*
X5465876Y1652524D01*
X5456326Y1639722D01*
X5447487Y1626412D01*
X5439308Y1612696D01*
X5431891Y1598523D01*
X5425135Y1584045D01*
X5419191Y1569262D01*
X5413959Y1554124D01*
X5409539Y1538782D01*
X5407609Y1531061D01*
X5404408Y1515414D01*
X5401970Y1499616D01*
X5400344Y1483715D01*
X5399532Y1467764D01*
X5399379Y1459788D01*
X5399836Y1443837D01*
X5401056Y1427886D01*
X5403088Y1412087D01*
X5405932Y1396339D01*
X5409539Y1380794D01*
X5413959Y1365453D01*
X5419191Y1350365D01*
X5425135Y1335532D01*
X5431891Y1321054D01*
X5439308Y1306931D01*
X5447487Y1293164D01*
X5456326Y1279906D01*
X5465876Y1267053D01*
X5476036Y1254760D01*
X5481320Y1248765D01*
X5492394Y1237284D01*
X5504078Y1226362D01*
X5516270Y1216050D01*
X5528970Y1206347D01*
X5542127Y1197305D01*
X5555742Y1188974D01*
X5569762Y1181354D01*
X5584190Y1174445D01*
X5598922Y1168298D01*
X5613958Y1162913D01*
X5621578Y1160475D01*
X5636971Y1156258D01*
X5652566Y1152804D01*
X5668314Y1150162D01*
X5684164Y1148334D01*
X5700115Y1147318D01*
X5716117Y1147114D01*
X5732068Y1147724D01*
X5747969Y1149146D01*
X5763768Y1151382D01*
X5779465Y1154430D01*
X5794959Y1158290D01*
X5802630Y1160475D01*
X5817819Y1165504D01*
X5832703Y1171295D01*
X5847283Y1177798D01*
X5861507Y1185062D01*
X5875324Y1193088D01*
X5882081Y1197305D01*
X5895238Y1206347D01*
X5907938Y1216050D01*
X5920130Y1226362D01*
X5931814Y1237284D01*
X5942888Y1248765D01*
X5953353Y1260856D01*
X5963208Y1273403D01*
X5972403Y1286459D01*
X5980887Y1300022D01*
X5988710Y1313942D01*
X5995771Y1328267D01*
X5999073Y1335532D01*
X6005017Y1350365D01*
X6010249Y1365453D01*
X6014669Y1380794D01*
X6018276Y1396339D01*
X6021120Y1412087D01*
X6023152Y1427886D01*
X6024422Y1443837D01*
X6024829Y1459788D01*
X6024422Y1475740D01*
X6023152Y1491691D01*
X6021120Y1507540D01*
X6018276Y1523238D01*
X6016599Y1531061D01*
X6012535Y1546504D01*
X6007709Y1561744D01*
X6002121Y1576679D01*
X5995771Y1591360D01*
X5988710Y1605635D01*
X5980887Y1619605D01*
X5972403Y1633118D01*
X5963208Y1646174D01*
X5953353Y1658772D01*
X5942888Y1670812D01*
X5931814Y1682292D01*
X5920130Y1693265D01*
X5907938Y1703578D01*
X5901690Y1708505D01*
X5888736Y1717852D01*
X5875324Y1726539D01*
X5861507Y1734515D01*
X5847283Y1741779D01*
X5832703Y1748332D01*
X5817819Y1754073D01*
X5810250Y1756714D01*
X5794959Y1761337D01*
X5779465Y1765147D01*
X5763768Y1768195D01*
X5747969Y1770430D01*
X5732068Y1771853D01*
X5716117Y1772462D01*
G37*
G36*
X442163Y1773377D02*
G01*
X426161Y1772767D01*
X418185Y1772157D01*
X402285Y1770278D01*
X386537Y1767636D01*
X370890Y1764182D01*
X355447Y1759966D01*
X340258Y1754936D01*
X325374Y1749094D01*
X318008Y1745945D01*
X303580Y1738985D01*
X289560Y1731365D01*
X275894Y1722983D01*
X262737Y1713941D01*
X249986Y1704187D01*
X237794Y1693875D01*
X226161Y1682902D01*
X215087Y1671370D01*
X204622Y1659229D01*
X199593Y1653032D01*
X190093Y1640128D01*
X181254Y1626819D01*
X173075Y1613052D01*
X165658Y1598879D01*
X158953Y1584350D01*
X153009Y1569466D01*
X147828Y1554327D01*
X143408Y1538986D01*
X139801Y1523390D01*
X137007Y1507642D01*
X135890Y1499717D01*
X134315Y1483766D01*
X133553Y1467815D01*
X133553Y1451813D01*
X133807Y1443786D01*
X135026Y1427835D01*
X137007Y1411986D01*
X139801Y1396238D01*
X143408Y1380642D01*
X147828Y1365250D01*
X153009Y1350111D01*
X158953Y1335227D01*
X165658Y1320698D01*
X173075Y1306576D01*
X181254Y1292758D01*
X190093Y1279448D01*
X199593Y1266596D01*
X209753Y1254201D01*
X220522Y1242415D01*
X231902Y1231138D01*
X243840Y1220470D01*
X256286Y1210462D01*
X269240Y1201064D01*
X282702Y1192326D01*
X296519Y1184351D01*
X310794Y1177036D01*
X325374Y1170482D01*
X340258Y1164691D01*
X347827Y1162050D01*
X363169Y1157427D01*
X378663Y1153566D01*
X394411Y1150518D01*
X410260Y1148283D01*
X426161Y1146860D01*
X442163Y1146251D01*
X458165Y1146454D01*
X474116Y1147470D01*
X490016Y1149299D01*
X505815Y1151940D01*
X521411Y1155395D01*
X536854Y1159662D01*
X544474Y1162050D01*
X559562Y1167485D01*
X574294Y1173683D01*
X588721Y1180592D01*
X602792Y1188262D01*
X616407Y1196594D01*
X629615Y1205687D01*
X642315Y1215390D01*
X654507Y1225753D01*
X666191Y1236675D01*
X677265Y1248257D01*
X687730Y1260348D01*
X697585Y1272946D01*
X706729Y1286052D01*
X715264Y1299616D01*
X723036Y1313586D01*
X726694Y1320698D01*
X733348Y1335227D01*
X739343Y1350111D01*
X744524Y1365250D01*
X748893Y1380642D01*
X750824Y1388414D01*
X754024Y1404061D01*
X756412Y1419910D01*
X757326Y1427835D01*
X758494Y1443786D01*
X758850Y1459788D01*
X758799Y1467815D01*
X757986Y1483766D01*
X756412Y1499717D01*
X754024Y1515516D01*
X750824Y1531213D01*
X746810Y1546707D01*
X742035Y1561947D01*
X736447Y1576933D01*
X730097Y1591665D01*
X726694Y1598879D01*
X719226Y1613052D01*
X711098Y1626819D01*
X702259Y1640128D01*
X692708Y1653032D01*
X682548Y1665376D01*
X671779Y1677212D01*
X660400Y1688439D01*
X648462Y1699107D01*
X636016Y1709166D01*
X623062Y1718513D01*
X609650Y1727250D01*
X595782Y1735277D01*
X581558Y1742541D01*
X566978Y1749094D01*
X552043Y1754936D01*
X536854Y1759966D01*
X521411Y1764182D01*
X505815Y1767636D01*
X490016Y1770278D01*
X474116Y1772157D01*
X458165Y1773174D01*
G37*
G36*
X10685830Y1773174D02*
G01*
X10669828Y1772564D01*
X10653928Y1771142D01*
X10638129Y1768906D01*
X10622432Y1765858D01*
X10606938Y1761998D01*
X10599267Y1759813D01*
X10584078Y1754784D01*
X10569194Y1748993D01*
X10554614Y1742490D01*
X10540441Y1735226D01*
X10526572Y1727250D01*
X10513161Y1718564D01*
X10500207Y1709166D01*
X10487761Y1699209D01*
X10475874Y1688541D01*
X10464495Y1677314D01*
X10459008Y1671523D01*
X10448544Y1659432D01*
X10438688Y1646885D01*
X10429544Y1633829D01*
X10421010Y1620316D01*
X10413187Y1606346D01*
X10406126Y1592072D01*
X10399776Y1577390D01*
X10394188Y1562455D01*
X10389362Y1547215D01*
X10385348Y1531772D01*
X10382097Y1516126D01*
X10379659Y1500327D01*
X10378033Y1484426D01*
X10377220Y1468475D01*
X10377220Y1452524D01*
X10378033Y1436573D01*
X10379659Y1420672D01*
X10382097Y1404874D01*
X10385348Y1389227D01*
X10389362Y1373784D01*
X10394188Y1358544D01*
X10399776Y1343609D01*
X10406126Y1328928D01*
X10413187Y1314653D01*
X10421010Y1300683D01*
X10429544Y1287170D01*
X10438688Y1274114D01*
X10448544Y1261567D01*
X10459008Y1249476D01*
X10470083Y1237996D01*
X10481767Y1227074D01*
X10487761Y1221790D01*
X10500207Y1211834D01*
X10513161Y1202436D01*
X10526572Y1193749D01*
X10540441Y1185773D01*
X10554614Y1178509D01*
X10569194Y1172006D01*
X10584078Y1166215D01*
X10599267Y1161186D01*
X10614660Y1156970D01*
X10630255Y1153515D01*
X10646003Y1150874D01*
X10661904Y1149045D01*
X10677804Y1148029D01*
X10693806Y1147826D01*
X10709757Y1148435D01*
X10725658Y1149858D01*
X10741456Y1152093D01*
X10757154Y1155141D01*
X10772648Y1159002D01*
X10780318Y1161186D01*
X10795508Y1166215D01*
X10810392Y1172006D01*
X10824972Y1178509D01*
X10839196Y1185773D01*
X10853013Y1193749D01*
X10866424Y1202436D01*
X10879378Y1211834D01*
X10891824Y1221790D01*
X10903762Y1232458D01*
X10915091Y1243685D01*
X10920577Y1249476D01*
X10931042Y1261567D01*
X10940897Y1274114D01*
X10950092Y1287170D01*
X10958576Y1300683D01*
X10966399Y1314653D01*
X10973460Y1328928D01*
X10979810Y1343609D01*
X10985398Y1358544D01*
X10990224Y1373784D01*
X10994288Y1389227D01*
X10997539Y1404874D01*
X10999978Y1420672D01*
X11001603Y1436573D01*
X11002416Y1452524D01*
X11002416Y1468475D01*
X11001603Y1484426D01*
X10999978Y1500327D01*
X10997539Y1516126D01*
X10994288Y1531772D01*
X10990224Y1547215D01*
X10985398Y1562455D01*
X10979810Y1577390D01*
X10973460Y1592072D01*
X10966399Y1606346D01*
X10958576Y1620316D01*
X10950092Y1633829D01*
X10940897Y1646885D01*
X10931042Y1659432D01*
X10920577Y1671523D01*
X10909503Y1683004D01*
X10897870Y1693925D01*
X10885678Y1704289D01*
X10872978Y1713941D01*
X10859770Y1722983D01*
X10846155Y1731314D01*
X10832134Y1738934D01*
X10817707Y1745843D01*
X10802975Y1751990D01*
X10787938Y1757375D01*
X10780318Y1759813D01*
X10764926Y1764030D01*
X10749330Y1767484D01*
X10733582Y1770125D01*
X10717733Y1771954D01*
X10701782Y1772970D01*
G37*
D10*
X10985500Y698500D02*
G01*
X10985500Y762000D01*
X10985500Y12128500D02*
G01*
X10985500Y12192000D01*
X11099038Y38862D02*
G01*
X38862Y38862D01*
X38862Y38862D02*
G01*
X38862Y685545D01*
X38862Y685545D02*
G01*
X11099038Y685545D01*
X11099038Y685545D02*
G01*
X11099038Y38862D01*
X10074876Y204043D02*
G01*
X10087982Y189583D01*
X10087982Y189583D02*
G01*
X10102442Y176477D01*
X10102442Y176477D02*
G01*
X10118117Y164852D01*
X10118117Y164852D02*
G01*
X10134856Y154819D01*
X10134856Y154819D02*
G01*
X10152497Y146475D01*
X10152497Y146475D02*
G01*
X10170872Y139901D01*
X10170872Y139901D02*
G01*
X10189803Y135159D01*
X10189803Y135159D02*
G01*
X10209107Y132295D01*
X10209107Y132295D02*
G01*
X10228599Y131338D01*
X10228599Y131338D02*
G01*
X10548600Y131338D01*
X10548600Y131338D02*
G01*
X10568092Y132295D01*
X10568092Y132295D02*
G01*
X10587396Y135159D01*
X10587396Y135159D02*
G01*
X10606327Y139901D01*
X10606327Y139901D02*
G01*
X10624702Y146475D01*
X10624702Y146475D02*
G01*
X10642343Y154819D01*
X10642343Y154819D02*
G01*
X10659082Y164852D01*
X10659082Y164852D02*
G01*
X10674757Y176477D01*
X10674757Y176477D02*
G01*
X10689217Y189583D01*
X10689217Y189583D02*
G01*
X10702323Y204043D01*
X10702323Y204043D02*
G01*
X10713948Y219718D01*
X10713948Y219718D02*
G01*
X10723981Y236457D01*
X10723981Y236457D02*
G01*
X10732325Y254098D01*
X10732325Y254098D02*
G01*
X10738899Y272473D01*
X10738899Y272473D02*
G01*
X10743641Y291404D01*
X10743641Y291404D02*
G01*
X10746505Y310708D01*
X10746505Y310708D02*
G01*
X10747462Y330200D01*
X10747462Y330200D02*
G01*
X10746505Y349691D01*
X10746505Y349691D02*
G01*
X10743641Y368995D01*
X10743641Y368995D02*
G01*
X10738899Y387926D01*
X10738899Y387926D02*
G01*
X10732325Y406301D01*
X10732325Y406301D02*
G01*
X10723981Y423942D01*
X10723981Y423942D02*
G01*
X10713948Y440681D01*
X10713948Y440681D02*
G01*
X10702323Y456356D01*
X10702323Y456356D02*
G01*
X10689217Y470816D01*
X10689217Y470816D02*
G01*
X10674757Y483922D01*
X10674757Y483922D02*
G01*
X10659082Y495547D01*
X10659082Y495547D02*
G01*
X10642343Y505580D01*
X10642343Y505580D02*
G01*
X10624702Y513924D01*
X10624702Y513924D02*
G01*
X10606327Y520498D01*
X10606327Y520498D02*
G01*
X10587396Y525240D01*
X10587396Y525240D02*
G01*
X10568092Y528104D01*
X10568092Y528104D02*
G01*
X10548600Y529061D01*
X10548600Y529061D02*
G01*
X10228599Y529061D01*
X10228599Y529061D02*
G01*
X10209107Y528104D01*
X10209107Y528104D02*
G01*
X10189803Y525240D01*
X10189803Y525240D02*
G01*
X10170872Y520498D01*
X10170872Y520498D02*
G01*
X10152497Y513924D01*
X10152497Y513924D02*
G01*
X10134856Y505580D01*
X10134856Y505580D02*
G01*
X10118117Y495547D01*
X10118117Y495547D02*
G01*
X10102442Y483922D01*
X10102442Y483922D02*
G01*
X10087982Y470816D01*
X10087982Y470816D02*
G01*
X10074876Y456356D01*
X10074876Y456356D02*
G01*
X10063251Y440681D01*
X10063251Y440681D02*
G01*
X10053218Y423942D01*
X10053218Y423942D02*
G01*
X10044874Y406301D01*
X10044874Y406301D02*
G01*
X10038300Y387926D01*
X10038300Y387926D02*
G01*
X10033558Y368995D01*
X10033558Y368995D02*
G01*
X10030694Y349691D01*
X10030694Y349691D02*
G01*
X10029737Y330200D01*
X10029737Y330200D02*
G01*
X10030694Y310708D01*
X10030694Y310708D02*
G01*
X10033558Y291404D01*
X10033558Y291404D02*
G01*
X10038300Y272473D01*
X10038300Y272473D02*
G01*
X10044874Y254098D01*
X10044874Y254098D02*
G01*
X10053218Y236457D01*
X10053218Y236457D02*
G01*
X10063251Y219718D01*
X10063251Y219718D02*
G01*
X10074876Y204043D01*
X435982Y189583D02*
G01*
X450442Y176477D01*
X450442Y176477D02*
G01*
X466117Y164852D01*
X466117Y164852D02*
G01*
X482856Y154819D01*
X482856Y154819D02*
G01*
X500497Y146475D01*
X500497Y146475D02*
G01*
X518872Y139901D01*
X518872Y139901D02*
G01*
X537803Y135159D01*
X537803Y135159D02*
G01*
X557107Y132295D01*
X557107Y132295D02*
G01*
X576599Y131338D01*
X576599Y131338D02*
G01*
X896600Y131338D01*
X896600Y131338D02*
G01*
X916092Y132295D01*
X916092Y132295D02*
G01*
X935396Y135159D01*
X935396Y135159D02*
G01*
X954327Y139901D01*
X954327Y139901D02*
G01*
X972702Y146475D01*
X972702Y146475D02*
G01*
X990343Y154819D01*
X990343Y154819D02*
G01*
X1007082Y164852D01*
X1007082Y164852D02*
G01*
X1022757Y176477D01*
X1022757Y176477D02*
G01*
X1037217Y189583D01*
X1037217Y189583D02*
G01*
X1050323Y204043D01*
X1050323Y204043D02*
G01*
X1061948Y219718D01*
X1061948Y219718D02*
G01*
X1071981Y236457D01*
X1071981Y236457D02*
G01*
X1080325Y254098D01*
X1080325Y254098D02*
G01*
X1086899Y272473D01*
X1086899Y272473D02*
G01*
X1091641Y291404D01*
X1091641Y291404D02*
G01*
X1094505Y310708D01*
X1094505Y310708D02*
G01*
X1095462Y330200D01*
X1095462Y330200D02*
G01*
X1094505Y349691D01*
X1094505Y349691D02*
G01*
X1091641Y368995D01*
X1091641Y368995D02*
G01*
X1086899Y387926D01*
X1086899Y387926D02*
G01*
X1080325Y406301D01*
X1080325Y406301D02*
G01*
X1071981Y423942D01*
X1071981Y423942D02*
G01*
X1061948Y440681D01*
X1061948Y440681D02*
G01*
X1050323Y456356D01*
X1050323Y456356D02*
G01*
X1037217Y470816D01*
X1037217Y470816D02*
G01*
X1022757Y483922D01*
X1022757Y483922D02*
G01*
X1007082Y495547D01*
X1007082Y495547D02*
G01*
X990343Y505580D01*
X990343Y505580D02*
G01*
X972702Y513924D01*
X972702Y513924D02*
G01*
X954327Y520498D01*
X954327Y520498D02*
G01*
X935396Y525240D01*
X935396Y525240D02*
G01*
X916092Y528104D01*
X916092Y528104D02*
G01*
X896600Y529061D01*
X896600Y529061D02*
G01*
X576599Y529061D01*
X576599Y529061D02*
G01*
X557107Y528104D01*
X557107Y528104D02*
G01*
X537803Y525240D01*
X537803Y525240D02*
G01*
X518872Y520498D01*
X518872Y520498D02*
G01*
X500497Y513924D01*
X500497Y513924D02*
G01*
X482856Y505580D01*
X482856Y505580D02*
G01*
X466117Y495547D01*
X466117Y495547D02*
G01*
X450442Y483922D01*
X450442Y483922D02*
G01*
X435982Y470816D01*
X435982Y470816D02*
G01*
X422876Y456356D01*
X422876Y456356D02*
G01*
X411251Y440681D01*
X411251Y440681D02*
G01*
X401218Y423942D01*
X401218Y423942D02*
G01*
X392874Y406301D01*
X392874Y406301D02*
G01*
X386300Y387926D01*
X386300Y387926D02*
G01*
X381558Y368995D01*
X381558Y368995D02*
G01*
X378694Y349691D01*
X378694Y349691D02*
G01*
X377737Y330200D01*
X377737Y330200D02*
G01*
X378694Y310708D01*
X378694Y310708D02*
G01*
X381558Y291404D01*
X381558Y291404D02*
G01*
X386300Y272473D01*
X386300Y272473D02*
G01*
X392874Y254098D01*
X392874Y254098D02*
G01*
X401218Y236457D01*
X401218Y236457D02*
G01*
X411251Y219718D01*
X411251Y219718D02*
G01*
X422876Y204043D01*
X422876Y204043D02*
G01*
X435982Y189583D01*
X38862Y50940D02*
G01*
X50940Y38862D01*
X38862Y158703D02*
G01*
X158703Y38862D01*
X38862Y266466D02*
G01*
X266466Y38862D01*
X38862Y374229D02*
G01*
X374229Y38862D01*
X38862Y481992D02*
G01*
X481992Y38862D01*
X38862Y589755D02*
G01*
X418003Y210614D01*
X457013Y171604D02*
G01*
X589755Y38862D01*
X50835Y685545D02*
G01*
X379727Y356653D01*
X605042Y131338D02*
G01*
X697519Y38862D01*
X158598Y685545D02*
G01*
X408332Y435811D01*
X712805Y131338D02*
G01*
X805282Y38862D01*
X266361Y685545D02*
G01*
X460514Y491392D01*
X820568Y131338D02*
G01*
X913045Y38862D01*
X374124Y685545D02*
G01*
X535105Y524564D01*
X925917Y133753D02*
G01*
X1020808Y38862D01*
X481887Y685545D02*
G01*
X638371Y529061D01*
X1004267Y163165D02*
G01*
X1128571Y38862D01*
X589650Y685545D02*
G01*
X746134Y529061D01*
X1059193Y216003D02*
G01*
X1236334Y38862D01*
X697413Y685545D02*
G01*
X853897Y529061D01*
X1091624Y291335D02*
G01*
X1344097Y38862D01*
X805176Y685545D02*
G01*
X980474Y510248D01*
X1076649Y414073D02*
G01*
X1451860Y38862D01*
X912939Y685545D02*
G01*
X1559623Y38862D01*
X1020702Y685545D02*
G01*
X1667386Y38862D01*
X1128465Y685545D02*
G01*
X1775149Y38862D01*
X1236228Y685545D02*
G01*
X1882912Y38862D01*
X1343991Y685545D02*
G01*
X1990675Y38862D01*
X1451755Y685545D02*
G01*
X2098439Y38862D01*
X1559518Y685545D02*
G01*
X2206202Y38862D01*
X1667281Y685545D02*
G01*
X2313965Y38862D01*
X1775044Y685545D02*
G01*
X2421728Y38862D01*
X1882807Y685545D02*
G01*
X2529491Y38862D01*
X1990570Y685545D02*
G01*
X2637254Y38862D01*
X2098333Y685545D02*
G01*
X2745017Y38862D01*
X2206096Y685545D02*
G01*
X2852780Y38862D01*
X2313859Y685545D02*
G01*
X2960543Y38862D01*
X2421622Y685545D02*
G01*
X3068306Y38862D01*
X2529385Y685545D02*
G01*
X3176069Y38862D01*
X2637148Y685545D02*
G01*
X3283832Y38862D01*
X2744911Y685545D02*
G01*
X3391595Y38862D01*
X2852675Y685545D02*
G01*
X3499359Y38862D01*
X2960438Y685545D02*
G01*
X3607122Y38862D01*
X3068201Y685545D02*
G01*
X3714885Y38862D01*
X3175964Y685545D02*
G01*
X3822648Y38862D01*
X3283727Y685545D02*
G01*
X3930411Y38862D01*
X3391490Y685545D02*
G01*
X4038174Y38862D01*
X3499253Y685545D02*
G01*
X4145937Y38862D01*
X3607016Y685545D02*
G01*
X4253700Y38862D01*
X3714779Y685545D02*
G01*
X4361463Y38862D01*
X3822542Y685545D02*
G01*
X4469226Y38862D01*
X3930305Y685545D02*
G01*
X4576989Y38862D01*
X4038068Y685545D02*
G01*
X4684752Y38862D01*
X4145831Y685545D02*
G01*
X4792515Y38862D01*
X4253594Y685545D02*
G01*
X4900278Y38862D01*
X4361358Y685545D02*
G01*
X5008042Y38862D01*
X4469121Y685545D02*
G01*
X5115805Y38862D01*
X4576884Y685545D02*
G01*
X5223568Y38862D01*
X4684647Y685545D02*
G01*
X5331331Y38862D01*
X4792410Y685545D02*
G01*
X5439094Y38862D01*
X4900173Y685545D02*
G01*
X5546857Y38862D01*
X5007936Y685545D02*
G01*
X5654620Y38862D01*
X5115699Y685545D02*
G01*
X5762383Y38862D01*
X5223462Y685545D02*
G01*
X5870146Y38862D01*
X5331225Y685545D02*
G01*
X5977909Y38862D01*
X5438988Y685545D02*
G01*
X6085672Y38862D01*
X5546751Y685545D02*
G01*
X6193435Y38862D01*
X5654514Y685545D02*
G01*
X6301198Y38862D01*
X5762277Y685545D02*
G01*
X6408961Y38862D01*
X5870041Y685545D02*
G01*
X6516725Y38862D01*
X5977804Y685545D02*
G01*
X6624488Y38862D01*
X6085567Y685545D02*
G01*
X6732251Y38862D01*
X6193330Y685545D02*
G01*
X6840014Y38862D01*
X6301093Y685545D02*
G01*
X6947777Y38862D01*
X6408856Y685545D02*
G01*
X7055540Y38862D01*
X6516619Y685545D02*
G01*
X7163303Y38862D01*
X6624382Y685545D02*
G01*
X7271066Y38862D01*
X6732145Y685545D02*
G01*
X7378829Y38862D01*
X6839908Y685545D02*
G01*
X7486592Y38862D01*
X6947671Y685545D02*
G01*
X7594355Y38862D01*
X7055434Y685545D02*
G01*
X7702118Y38862D01*
X7163197Y685545D02*
G01*
X7809881Y38862D01*
X7270960Y685545D02*
G01*
X7917644Y38862D01*
X7378723Y685545D02*
G01*
X8025407Y38862D01*
X7486487Y685545D02*
G01*
X8133171Y38862D01*
X7594250Y685545D02*
G01*
X8240934Y38862D01*
X7702013Y685545D02*
G01*
X8348697Y38862D01*
X7809776Y685545D02*
G01*
X8456460Y38862D01*
X7917539Y685545D02*
G01*
X8564223Y38862D01*
X8025302Y685545D02*
G01*
X8671986Y38862D01*
X8133065Y685545D02*
G01*
X8779749Y38862D01*
X8240828Y685545D02*
G01*
X8887512Y38862D01*
X8348591Y685545D02*
G01*
X8995275Y38862D01*
X8456354Y685545D02*
G01*
X9103038Y38862D01*
X8564117Y685545D02*
G01*
X9210801Y38862D01*
X8671880Y685545D02*
G01*
X9318564Y38862D01*
X8779643Y685545D02*
G01*
X9426327Y38862D01*
X8887406Y685545D02*
G01*
X9534090Y38862D01*
X8995170Y685545D02*
G01*
X9641854Y38862D01*
X9102933Y685545D02*
G01*
X9749617Y38862D01*
X9210696Y685545D02*
G01*
X9857380Y38862D01*
X9318459Y685545D02*
G01*
X9965143Y38862D01*
X9426222Y685545D02*
G01*
X10072906Y38862D01*
X9533985Y685545D02*
G01*
X10180669Y38862D01*
X9641748Y685545D02*
G01*
X10033152Y294142D01*
X10192541Y134753D02*
G01*
X10288432Y38862D01*
X9749511Y685545D02*
G01*
X10040627Y394430D01*
X10303719Y131338D02*
G01*
X10396195Y38862D01*
X9857274Y685545D02*
G01*
X10080385Y462434D01*
X10411482Y131338D02*
G01*
X10503958Y38862D01*
X9965037Y685545D02*
G01*
X10141745Y508838D01*
X10519245Y131338D02*
G01*
X10611721Y38862D01*
X10072800Y685545D02*
G01*
X10229285Y529061D01*
X10615252Y143094D02*
G01*
X10719484Y38862D01*
X10180563Y685545D02*
G01*
X10337048Y529061D01*
X10682560Y183549D02*
G01*
X10827247Y38862D01*
X10288326Y685545D02*
G01*
X10444811Y529061D01*
X10728295Y245577D02*
G01*
X10935010Y38862D01*
X10396089Y685545D02*
G01*
X10552779Y528856D01*
X10747257Y334378D02*
G01*
X11042773Y38862D01*
X10503853Y685545D02*
G01*
X11099038Y90361D01*
X10611616Y685545D02*
G01*
X11099038Y198124D01*
X10719379Y685545D02*
G01*
X11099038Y305887D01*
X10827142Y685545D02*
G01*
X11099038Y413650D01*
X10934905Y685545D02*
G01*
X11099038Y521413D01*
X11042668Y685545D02*
G01*
X11099038Y629176D01*
X10999335Y38862D02*
G01*
X11099038Y138564D01*
X10891572Y38862D02*
G01*
X11099038Y246327D01*
X10783809Y38862D02*
G01*
X11099038Y354090D01*
X10676046Y38862D02*
G01*
X11099038Y461853D01*
X10568283Y38862D02*
G01*
X11099038Y569616D01*
X10460520Y38862D02*
G01*
X10553224Y131565D01*
X10747235Y325576D02*
G01*
X11099038Y677379D01*
X10352757Y38862D02*
G01*
X10445233Y131338D01*
X10728430Y414535D02*
G01*
X10999441Y685545D01*
X10244994Y38862D02*
G01*
X10337470Y131338D01*
X10682781Y476649D02*
G01*
X10891678Y685545D01*
X10137231Y38862D02*
G01*
X10229707Y131338D01*
X10615563Y517194D02*
G01*
X10783915Y685545D01*
X10029468Y38862D02*
G01*
X10142032Y151425D01*
X10519667Y529061D02*
G01*
X10676152Y685545D01*
X9921705Y38862D02*
G01*
X10080586Y197743D01*
X10411904Y529061D02*
G01*
X10568389Y685545D01*
X9813942Y38862D02*
G01*
X10040738Y265658D01*
X10304141Y529061D02*
G01*
X10460626Y685545D01*
X9706178Y38862D02*
G01*
X10033078Y365761D01*
X10193037Y525720D02*
G01*
X10352862Y685545D01*
X9598415Y38862D02*
G01*
X10245099Y685545D01*
X9490652Y38862D02*
G01*
X10137336Y685545D01*
X9382889Y38862D02*
G01*
X10029573Y685545D01*
X9275126Y38862D02*
G01*
X9921810Y685545D01*
X9167363Y38862D02*
G01*
X9814047Y685545D01*
X9059600Y38862D02*
G01*
X9706284Y685545D01*
X8951837Y38862D02*
G01*
X9598521Y685545D01*
X8844074Y38862D02*
G01*
X9490758Y685545D01*
X8736311Y38862D02*
G01*
X9382995Y685545D01*
X8628548Y38862D02*
G01*
X9275232Y685545D01*
X8520785Y38862D02*
G01*
X9167469Y685545D01*
X8413022Y38862D02*
G01*
X9059706Y685545D01*
X8305258Y38862D02*
G01*
X8951942Y685545D01*
X8197495Y38862D02*
G01*
X8844179Y685545D01*
X8089732Y38862D02*
G01*
X8736416Y685545D01*
X7981969Y38862D02*
G01*
X8628653Y685545D01*
X7874206Y38862D02*
G01*
X8520890Y685545D01*
X7766443Y38862D02*
G01*
X8413127Y685545D01*
X7658680Y38862D02*
G01*
X8305364Y685545D01*
X7550917Y38862D02*
G01*
X8197601Y685545D01*
X7443154Y38862D02*
G01*
X8089838Y685545D01*
X7335391Y38862D02*
G01*
X7982075Y685545D01*
X7227628Y38862D02*
G01*
X7874312Y685545D01*
X7119865Y38862D02*
G01*
X7766549Y685545D01*
X7012102Y38862D02*
G01*
X7658786Y685545D01*
X6904338Y38862D02*
G01*
X7551022Y685545D01*
X6796575Y38862D02*
G01*
X7443259Y685545D01*
X6688812Y38862D02*
G01*
X7335496Y685545D01*
X6581049Y38862D02*
G01*
X7227733Y685545D01*
X6473286Y38862D02*
G01*
X7119970Y685545D01*
X6365523Y38862D02*
G01*
X7012207Y685545D01*
X6257760Y38862D02*
G01*
X6904444Y685545D01*
X6149997Y38862D02*
G01*
X6796681Y685545D01*
X6042234Y38862D02*
G01*
X6688918Y685545D01*
X5934471Y38862D02*
G01*
X6581155Y685545D01*
X5826708Y38862D02*
G01*
X6473392Y685545D01*
X5718945Y38862D02*
G01*
X6365629Y685545D01*
X5611182Y38862D02*
G01*
X6257866Y685545D01*
X5503419Y38862D02*
G01*
X6150103Y685545D01*
X5395655Y38862D02*
G01*
X6042339Y685545D01*
X5287892Y38862D02*
G01*
X5934576Y685545D01*
X5180129Y38862D02*
G01*
X5826813Y685545D01*
X5072366Y38862D02*
G01*
X5719050Y685545D01*
X4964603Y38862D02*
G01*
X5611287Y685545D01*
X4856840Y38862D02*
G01*
X5503524Y685545D01*
X4749077Y38862D02*
G01*
X5395761Y685545D01*
X4641314Y38862D02*
G01*
X5287998Y685545D01*
X4533551Y38862D02*
G01*
X5180235Y685545D01*
X4425788Y38862D02*
G01*
X5072472Y685545D01*
X4318025Y38862D02*
G01*
X4964709Y685545D01*
X4210262Y38862D02*
G01*
X4856946Y685545D01*
X4102499Y38862D02*
G01*
X4749183Y685545D01*
X3994735Y38862D02*
G01*
X4641419Y685545D01*
X3886972Y38862D02*
G01*
X4533656Y685545D01*
X3779209Y38862D02*
G01*
X4425893Y685545D01*
X3671446Y38862D02*
G01*
X4318130Y685545D01*
X3563683Y38862D02*
G01*
X4210367Y685545D01*
X3455920Y38862D02*
G01*
X4102604Y685545D01*
X3348157Y38862D02*
G01*
X3994841Y685545D01*
X3240394Y38862D02*
G01*
X3887078Y685545D01*
X3132631Y38862D02*
G01*
X3779315Y685545D01*
X3024868Y38862D02*
G01*
X3671552Y685545D01*
X2917105Y38862D02*
G01*
X3563789Y685545D01*
X2809342Y38862D02*
G01*
X3456026Y685545D01*
X2701579Y38862D02*
G01*
X3348263Y685545D01*
X2593816Y38862D02*
G01*
X3240500Y685545D01*
X2486052Y38862D02*
G01*
X3132736Y685545D01*
X2378289Y38862D02*
G01*
X3024973Y685545D01*
X2270526Y38862D02*
G01*
X2917210Y685545D01*
X2162763Y38862D02*
G01*
X2809447Y685545D01*
X2055000Y38862D02*
G01*
X2701684Y685545D01*
X1947237Y38862D02*
G01*
X2593921Y685545D01*
X1839474Y38862D02*
G01*
X2486158Y685545D01*
X1731711Y38862D02*
G01*
X2378395Y685545D01*
X1623948Y38862D02*
G01*
X2270632Y685545D01*
X1516185Y38862D02*
G01*
X2162869Y685545D01*
X1408422Y38862D02*
G01*
X2055106Y685545D01*
X1300659Y38862D02*
G01*
X1947343Y685545D01*
X1192896Y38862D02*
G01*
X1839580Y685545D01*
X1085133Y38862D02*
G01*
X1731817Y685545D01*
X977369Y38862D02*
G01*
X1624053Y685545D01*
X869606Y38862D02*
G01*
X981275Y150530D01*
X1076270Y245525D02*
G01*
X1516290Y685545D01*
X761843Y38862D02*
G01*
X854320Y131338D01*
X1091684Y368703D02*
G01*
X1408527Y685545D01*
X654080Y38862D02*
G01*
X746557Y131338D01*
X1059373Y444154D02*
G01*
X1300764Y685545D01*
X546317Y38862D02*
G01*
X638793Y131338D01*
X1004531Y497076D02*
G01*
X1193001Y685545D01*
X438554Y38862D02*
G01*
X535443Y135750D01*
X926284Y526592D02*
G01*
X1085238Y685545D01*
X330791Y38862D02*
G01*
X460757Y168827D01*
X820991Y529061D02*
G01*
X977475Y685545D01*
X223028Y38862D02*
G01*
X408490Y224324D01*
X713228Y529061D02*
G01*
X869712Y685545D01*
X115265Y38862D02*
G01*
X379782Y303378D01*
X605465Y529061D02*
G01*
X761949Y685545D01*
X38862Y70221D02*
G01*
X416790Y448150D01*
X458648Y490008D02*
G01*
X654186Y685545D01*
X38862Y177984D02*
G01*
X546423Y685545D01*
X38862Y285747D02*
G01*
X438660Y685545D01*
X38862Y393510D02*
G01*
X330897Y685545D01*
X38862Y501273D02*
G01*
X223134Y685545D01*
X38862Y609036D02*
G01*
X115371Y685545D01*
X11099038Y12173204D02*
G01*
X38862Y12173204D01*
X38862Y12173204D02*
G01*
X38862Y12813537D01*
X38862Y12813537D02*
G01*
X11099038Y12813537D01*
X11099038Y12813537D02*
G01*
X11099038Y12173204D01*
X10074876Y12446843D02*
G01*
X10087982Y12432383D01*
X10087982Y12432383D02*
G01*
X10102442Y12419277D01*
X10102442Y12419277D02*
G01*
X10118117Y12407652D01*
X10118117Y12407652D02*
G01*
X10134856Y12397619D01*
X10134856Y12397619D02*
G01*
X10152497Y12389275D01*
X10152497Y12389275D02*
G01*
X10170872Y12382701D01*
X10170872Y12382701D02*
G01*
X10189803Y12377959D01*
X10189803Y12377959D02*
G01*
X10209107Y12375095D01*
X10209107Y12375095D02*
G01*
X10228599Y12374138D01*
X10228599Y12374138D02*
G01*
X10548600Y12374138D01*
X10548600Y12374138D02*
G01*
X10568092Y12375095D01*
X10568092Y12375095D02*
G01*
X10587396Y12377959D01*
X10587396Y12377959D02*
G01*
X10606327Y12382701D01*
X10606327Y12382701D02*
G01*
X10624702Y12389275D01*
X10624702Y12389275D02*
G01*
X10642343Y12397619D01*
X10642343Y12397619D02*
G01*
X10659082Y12407652D01*
X10659082Y12407652D02*
G01*
X10674757Y12419277D01*
X10674757Y12419277D02*
G01*
X10689217Y12432383D01*
X10689217Y12432383D02*
G01*
X10702323Y12446843D01*
X10702323Y12446843D02*
G01*
X10713948Y12462518D01*
X10713948Y12462518D02*
G01*
X10723981Y12479257D01*
X10723981Y12479257D02*
G01*
X10732325Y12496898D01*
X10732325Y12496898D02*
G01*
X10738899Y12515273D01*
X10738899Y12515273D02*
G01*
X10743641Y12534204D01*
X10743641Y12534204D02*
G01*
X10746505Y12553508D01*
X10746505Y12553508D02*
G01*
X10747462Y12573000D01*
X10747462Y12573000D02*
G01*
X10746505Y12592491D01*
X10746505Y12592491D02*
G01*
X10743641Y12611795D01*
X10743641Y12611795D02*
G01*
X10738899Y12630726D01*
X10738899Y12630726D02*
G01*
X10732325Y12649101D01*
X10732325Y12649101D02*
G01*
X10723981Y12666742D01*
X10723981Y12666742D02*
G01*
X10713948Y12683481D01*
X10713948Y12683481D02*
G01*
X10702323Y12699156D01*
X10702323Y12699156D02*
G01*
X10689217Y12713616D01*
X10689217Y12713616D02*
G01*
X10674757Y12726722D01*
X10674757Y12726722D02*
G01*
X10659082Y12738347D01*
X10659082Y12738347D02*
G01*
X10642343Y12748380D01*
X10642343Y12748380D02*
G01*
X10624702Y12756724D01*
X10624702Y12756724D02*
G01*
X10606327Y12763298D01*
X10606327Y12763298D02*
G01*
X10587396Y12768040D01*
X10587396Y12768040D02*
G01*
X10568092Y12770904D01*
X10568092Y12770904D02*
G01*
X10548600Y12771861D01*
X10548600Y12771861D02*
G01*
X10228599Y12771861D01*
X10228599Y12771861D02*
G01*
X10209107Y12770904D01*
X10209107Y12770904D02*
G01*
X10189803Y12768040D01*
X10189803Y12768040D02*
G01*
X10170872Y12763298D01*
X10170872Y12763298D02*
G01*
X10152497Y12756724D01*
X10152497Y12756724D02*
G01*
X10134856Y12748380D01*
X10134856Y12748380D02*
G01*
X10118117Y12738347D01*
X10118117Y12738347D02*
G01*
X10102442Y12726722D01*
X10102442Y12726722D02*
G01*
X10087982Y12713616D01*
X10087982Y12713616D02*
G01*
X10074876Y12699156D01*
X10074876Y12699156D02*
G01*
X10063251Y12683481D01*
X10063251Y12683481D02*
G01*
X10053218Y12666742D01*
X10053218Y12666742D02*
G01*
X10044874Y12649101D01*
X10044874Y12649101D02*
G01*
X10038300Y12630726D01*
X10038300Y12630726D02*
G01*
X10033558Y12611795D01*
X10033558Y12611795D02*
G01*
X10030694Y12592491D01*
X10030694Y12592491D02*
G01*
X10029737Y12573000D01*
X10029737Y12573000D02*
G01*
X10030694Y12553508D01*
X10030694Y12553508D02*
G01*
X10033558Y12534204D01*
X10033558Y12534204D02*
G01*
X10038300Y12515273D01*
X10038300Y12515273D02*
G01*
X10044874Y12496898D01*
X10044874Y12496898D02*
G01*
X10053218Y12479257D01*
X10053218Y12479257D02*
G01*
X10063251Y12462518D01*
X10063251Y12462518D02*
G01*
X10074876Y12446843D01*
X422876Y12446843D02*
G01*
X435982Y12432383D01*
X435982Y12432383D02*
G01*
X450442Y12419277D01*
X450442Y12419277D02*
G01*
X466117Y12407652D01*
X466117Y12407652D02*
G01*
X482856Y12397619D01*
X482856Y12397619D02*
G01*
X500497Y12389275D01*
X500497Y12389275D02*
G01*
X518872Y12382701D01*
X518872Y12382701D02*
G01*
X537803Y12377959D01*
X537803Y12377959D02*
G01*
X557107Y12375095D01*
X557107Y12375095D02*
G01*
X576599Y12374138D01*
X576599Y12374138D02*
G01*
X896600Y12374138D01*
X896600Y12374138D02*
G01*
X916092Y12375095D01*
X916092Y12375095D02*
G01*
X935396Y12377959D01*
X935396Y12377959D02*
G01*
X954327Y12382701D01*
X954327Y12382701D02*
G01*
X972702Y12389275D01*
X972702Y12389275D02*
G01*
X990343Y12397619D01*
X990343Y12397619D02*
G01*
X1007082Y12407652D01*
X1007082Y12407652D02*
G01*
X1022757Y12419277D01*
X1022757Y12419277D02*
G01*
X1037217Y12432383D01*
X1037217Y12432383D02*
G01*
X1050323Y12446843D01*
X1050323Y12446843D02*
G01*
X1061948Y12462518D01*
X1061948Y12462518D02*
G01*
X1071981Y12479257D01*
X1071981Y12479257D02*
G01*
X1080325Y12496898D01*
X1080325Y12496898D02*
G01*
X1086899Y12515273D01*
X1086899Y12515273D02*
G01*
X1091641Y12534204D01*
X1091641Y12534204D02*
G01*
X1094505Y12553508D01*
X1094505Y12553508D02*
G01*
X1095462Y12573000D01*
X1095462Y12573000D02*
G01*
X1094505Y12592491D01*
X1094505Y12592491D02*
G01*
X1091641Y12611795D01*
X1091641Y12611795D02*
G01*
X1086899Y12630726D01*
X1086899Y12630726D02*
G01*
X1080325Y12649101D01*
X1080325Y12649101D02*
G01*
X1071981Y12666742D01*
X1071981Y12666742D02*
G01*
X1061948Y12683481D01*
X1061948Y12683481D02*
G01*
X1050323Y12699156D01*
X1050323Y12699156D02*
G01*
X1037217Y12713616D01*
X1037217Y12713616D02*
G01*
X1022757Y12726722D01*
X1022757Y12726722D02*
G01*
X1007082Y12738347D01*
X1007082Y12738347D02*
G01*
X990343Y12748380D01*
X990343Y12748380D02*
G01*
X972702Y12756724D01*
X972702Y12756724D02*
G01*
X954327Y12763298D01*
X954327Y12763298D02*
G01*
X935396Y12768040D01*
X935396Y12768040D02*
G01*
X916092Y12770904D01*
X916092Y12770904D02*
G01*
X896600Y12771861D01*
X896600Y12771861D02*
G01*
X576599Y12771861D01*
X576599Y12771861D02*
G01*
X557107Y12770904D01*
X557107Y12770904D02*
G01*
X537803Y12768040D01*
X537803Y12768040D02*
G01*
X518872Y12763298D01*
X518872Y12763298D02*
G01*
X500497Y12756724D01*
X500497Y12756724D02*
G01*
X482856Y12748380D01*
X482856Y12748380D02*
G01*
X466117Y12738347D01*
X466117Y12738347D02*
G01*
X450442Y12726722D01*
X450442Y12726722D02*
G01*
X435982Y12713616D01*
X435982Y12713616D02*
G01*
X422876Y12699156D01*
X422876Y12699156D02*
G01*
X411251Y12683481D01*
X411251Y12683481D02*
G01*
X401218Y12666742D01*
X401218Y12666742D02*
G01*
X392874Y12649101D01*
X392874Y12649101D02*
G01*
X386300Y12630726D01*
X386300Y12630726D02*
G01*
X381558Y12611795D01*
X381558Y12611795D02*
G01*
X378694Y12592491D01*
X378694Y12592491D02*
G01*
X377737Y12573000D01*
X377737Y12573000D02*
G01*
X378694Y12553508D01*
X378694Y12553508D02*
G01*
X381558Y12534204D01*
X381558Y12534204D02*
G01*
X386300Y12515273D01*
X386300Y12515273D02*
G01*
X392874Y12496898D01*
X392874Y12496898D02*
G01*
X401218Y12479257D01*
X401218Y12479257D02*
G01*
X411251Y12462518D01*
X411251Y12462518D02*
G01*
X422876Y12446843D01*
X38862Y12228167D02*
G01*
X93825Y12173204D01*
X38862Y12335930D02*
G01*
X201588Y12173204D01*
X38862Y12443693D02*
G01*
X309351Y12173204D01*
X38862Y12551456D02*
G01*
X417114Y12173204D01*
X38862Y12659220D02*
G01*
X524878Y12173204D01*
X38862Y12766983D02*
G01*
X632641Y12173204D01*
X100070Y12813537D02*
G01*
X382278Y12531330D01*
X534929Y12378679D02*
G01*
X740404Y12173204D01*
X207833Y12813537D02*
G01*
X387445Y12633926D01*
X647233Y12374138D02*
G01*
X848167Y12173204D01*
X315596Y12813537D02*
G01*
X426252Y12702881D01*
X754996Y12374138D02*
G01*
X955930Y12173204D01*
X423359Y12813537D02*
G01*
X486699Y12750198D01*
X862759Y12374138D02*
G01*
X1063693Y12173204D01*
X531122Y12813537D02*
G01*
X572976Y12771683D01*
X959948Y12384712D02*
G01*
X1171456Y12173204D01*
X638885Y12813537D02*
G01*
X680562Y12771861D01*
X1028206Y12424216D02*
G01*
X1279219Y12173204D01*
X746648Y12813537D02*
G01*
X788325Y12771861D01*
X1074854Y12485332D02*
G01*
X1386982Y12173204D01*
X854411Y12813537D02*
G01*
X896088Y12771861D01*
X1095438Y12572511D02*
G01*
X1494745Y12173204D01*
X962174Y12813537D02*
G01*
X1602508Y12173204D01*
X1069937Y12813537D02*
G01*
X1710271Y12173204D01*
X1177700Y12813537D02*
G01*
X1818034Y12173204D01*
X1285464Y12813537D02*
G01*
X1925798Y12173204D01*
X1393227Y12813537D02*
G01*
X2033561Y12173204D01*
X1500990Y12813537D02*
G01*
X2141324Y12173204D01*
X1608753Y12813537D02*
G01*
X2249087Y12173204D01*
X1716516Y12813537D02*
G01*
X2356850Y12173204D01*
X1824279Y12813537D02*
G01*
X2464613Y12173204D01*
X1932042Y12813537D02*
G01*
X2572376Y12173204D01*
X2039805Y12813537D02*
G01*
X2680139Y12173204D01*
X2147568Y12813537D02*
G01*
X2787902Y12173204D01*
X2255331Y12813537D02*
G01*
X2895665Y12173204D01*
X2363094Y12813537D02*
G01*
X3003428Y12173204D01*
X2470857Y12813537D02*
G01*
X3111191Y12173204D01*
X2578620Y12813537D02*
G01*
X3218954Y12173204D01*
X2686384Y12813537D02*
G01*
X3326718Y12173204D01*
X2794147Y12813537D02*
G01*
X3434481Y12173204D01*
X2901910Y12813537D02*
G01*
X3542244Y12173204D01*
X3009673Y12813537D02*
G01*
X3650007Y12173204D01*
X3117436Y12813537D02*
G01*
X3757770Y12173204D01*
X3225199Y12813537D02*
G01*
X3865533Y12173204D01*
X3332962Y12813537D02*
G01*
X3973296Y12173204D01*
X3440725Y12813537D02*
G01*
X4081059Y12173204D01*
X3548488Y12813537D02*
G01*
X4188822Y12173204D01*
X3656251Y12813537D02*
G01*
X4296585Y12173204D01*
X3764014Y12813537D02*
G01*
X4404348Y12173204D01*
X3871777Y12813537D02*
G01*
X4512111Y12173204D01*
X3979540Y12813537D02*
G01*
X4619874Y12173204D01*
X4087303Y12813537D02*
G01*
X4727637Y12173204D01*
X4195067Y12813537D02*
G01*
X4835401Y12173204D01*
X4302830Y12813537D02*
G01*
X4943164Y12173204D01*
X4410593Y12813537D02*
G01*
X5050927Y12173204D01*
X4518356Y12813537D02*
G01*
X5158690Y12173204D01*
X4626119Y12813537D02*
G01*
X5266453Y12173204D01*
X4733882Y12813537D02*
G01*
X5374216Y12173204D01*
X4841645Y12813537D02*
G01*
X5481979Y12173204D01*
X4949408Y12813537D02*
G01*
X5589742Y12173204D01*
X5057171Y12813537D02*
G01*
X5697505Y12173204D01*
X5164934Y12813537D02*
G01*
X5805268Y12173204D01*
X5272697Y12813537D02*
G01*
X5913031Y12173204D01*
X5380460Y12813537D02*
G01*
X6020794Y12173204D01*
X5488223Y12813537D02*
G01*
X6128557Y12173204D01*
X5595987Y12813537D02*
G01*
X6236321Y12173204D01*
X5703750Y12813537D02*
G01*
X6344084Y12173204D01*
X5811513Y12813537D02*
G01*
X6451847Y12173204D01*
X5919276Y12813537D02*
G01*
X6559610Y12173204D01*
X6027039Y12813537D02*
G01*
X6667373Y12173204D01*
X6134802Y12813537D02*
G01*
X6775136Y12173204D01*
X6242565Y12813537D02*
G01*
X6882899Y12173204D01*
X6350328Y12813537D02*
G01*
X6990662Y12173204D01*
X6458091Y12813537D02*
G01*
X7098425Y12173204D01*
X6565854Y12813537D02*
G01*
X7206188Y12173204D01*
X6673617Y12813537D02*
G01*
X7313951Y12173204D01*
X6781380Y12813537D02*
G01*
X7421714Y12173204D01*
X6889143Y12813537D02*
G01*
X7529477Y12173204D01*
X6996907Y12813537D02*
G01*
X7637241Y12173204D01*
X7104670Y12813537D02*
G01*
X7745004Y12173204D01*
X7212433Y12813537D02*
G01*
X7852767Y12173204D01*
X7320196Y12813537D02*
G01*
X7960530Y12173204D01*
X7427959Y12813537D02*
G01*
X8068293Y12173204D01*
X7535722Y12813537D02*
G01*
X8176056Y12173204D01*
X7643485Y12813537D02*
G01*
X8283819Y12173204D01*
X7751248Y12813537D02*
G01*
X8391582Y12173204D01*
X7859011Y12813537D02*
G01*
X8499345Y12173204D01*
X7966774Y12813537D02*
G01*
X8607108Y12173204D01*
X8074537Y12813537D02*
G01*
X8714871Y12173204D01*
X8182300Y12813537D02*
G01*
X8822634Y12173204D01*
X8290063Y12813537D02*
G01*
X8930397Y12173204D01*
X8397826Y12813537D02*
G01*
X9038160Y12173204D01*
X8505590Y12813537D02*
G01*
X9145924Y12173204D01*
X8613353Y12813537D02*
G01*
X9253687Y12173204D01*
X8721116Y12813537D02*
G01*
X9361450Y12173204D01*
X8828879Y12813537D02*
G01*
X9469213Y12173204D01*
X8936642Y12813537D02*
G01*
X9576976Y12173204D01*
X9044405Y12813537D02*
G01*
X9684739Y12173204D01*
X9152168Y12813537D02*
G01*
X9792502Y12173204D01*
X9259931Y12813537D02*
G01*
X9900265Y12173204D01*
X9367694Y12813537D02*
G01*
X10008028Y12173204D01*
X9475457Y12813537D02*
G01*
X10115791Y12173204D01*
X9583220Y12813537D02*
G01*
X10223554Y12173204D01*
X9690983Y12813537D02*
G01*
X10331317Y12173204D01*
X9798746Y12813537D02*
G01*
X10030184Y12582100D01*
X10238146Y12374138D02*
G01*
X10439080Y12173204D01*
X9906510Y12813537D02*
G01*
X10053251Y12666796D01*
X10345909Y12374138D02*
G01*
X10546844Y12173204D01*
X10014273Y12813537D02*
G01*
X10101732Y12726078D01*
X10453672Y12374138D02*
G01*
X10654607Y12173204D01*
X10122036Y12813537D02*
G01*
X10171994Y12763579D01*
X10560834Y12374739D02*
G01*
X10762370Y12173204D01*
X10229799Y12813537D02*
G01*
X10271475Y12771861D01*
X10644453Y12398884D02*
G01*
X10870133Y12173204D01*
X10337562Y12813537D02*
G01*
X10379238Y12771861D01*
X10703146Y12447953D02*
G01*
X10977896Y12173204D01*
X10445325Y12813537D02*
G01*
X10487001Y12771861D01*
X10739839Y12519024D02*
G01*
X11085659Y12173204D01*
X10553088Y12813537D02*
G01*
X10602325Y12764301D01*
X10739902Y12626724D02*
G01*
X11099038Y12267588D01*
X10660851Y12813537D02*
G01*
X11099038Y12375351D01*
X10768614Y12813537D02*
G01*
X11099038Y12483114D01*
X10876377Y12813537D02*
G01*
X11099038Y12590877D01*
X10984140Y12813537D02*
G01*
X11099038Y12698640D01*
X11091903Y12813537D02*
G01*
X11099038Y12806403D01*
X11064213Y12173204D02*
G01*
X11099038Y12208028D01*
X10956450Y12173204D02*
G01*
X11099038Y12315791D01*
X10848687Y12173204D02*
G01*
X11099038Y12423554D01*
X10740924Y12173204D02*
G01*
X11099038Y12531317D01*
X10633161Y12173204D02*
G01*
X11099038Y12639080D01*
X10525398Y12173204D02*
G01*
X11099038Y12746843D01*
X10417635Y12173204D02*
G01*
X10641787Y12397356D01*
X10724243Y12479812D02*
G01*
X11057969Y12813537D01*
X10309872Y12173204D02*
G01*
X10510806Y12374138D01*
X10744264Y12607596D02*
G01*
X10950206Y12813537D01*
X10202109Y12173204D02*
G01*
X10403043Y12374138D01*
X10713283Y12684378D02*
G01*
X10842443Y12813537D01*
X10094346Y12173204D02*
G01*
X10295280Y12374138D01*
X10659316Y12738174D02*
G01*
X10734680Y12813537D01*
X9986582Y12173204D02*
G01*
X10191139Y12377761D01*
X10582191Y12768812D02*
G01*
X10626916Y12813537D01*
X9878819Y12173204D02*
G01*
X10115333Y12409717D01*
X10477477Y12771861D02*
G01*
X10519153Y12813537D01*
X9771056Y12173204D02*
G01*
X10062172Y12464319D01*
X10369714Y12771861D02*
G01*
X10411390Y12813537D01*
X9663293Y12173204D02*
G01*
X10032361Y12542272D01*
X10261951Y12771861D02*
G01*
X10303627Y12813537D01*
X9555530Y12173204D02*
G01*
X10059426Y12677100D01*
X10124498Y12742172D02*
G01*
X10195864Y12813537D01*
X9447767Y12173204D02*
G01*
X10088101Y12813537D01*
X9340004Y12173204D02*
G01*
X9980338Y12813537D01*
X9232241Y12173204D02*
G01*
X9872575Y12813537D01*
X9124478Y12173204D02*
G01*
X9764812Y12813537D01*
X9016715Y12173204D02*
G01*
X9657049Y12813537D01*
X8908952Y12173204D02*
G01*
X9549286Y12813537D01*
X8801189Y12173204D02*
G01*
X9441523Y12813537D01*
X8693426Y12173204D02*
G01*
X9333760Y12813537D01*
X8585663Y12173204D02*
G01*
X9225997Y12813537D01*
X8477899Y12173204D02*
G01*
X9118233Y12813537D01*
X8370136Y12173204D02*
G01*
X9010470Y12813537D01*
X8262373Y12173204D02*
G01*
X8902707Y12813537D01*
X8154610Y12173204D02*
G01*
X8794944Y12813537D01*
X8046847Y12173204D02*
G01*
X8687181Y12813537D01*
X7939084Y12173204D02*
G01*
X8579418Y12813537D01*
X7831321Y12173204D02*
G01*
X8471655Y12813537D01*
X7723558Y12173204D02*
G01*
X8363892Y12813537D01*
X7615795Y12173204D02*
G01*
X8256129Y12813537D01*
X7508032Y12173204D02*
G01*
X8148366Y12813537D01*
X7400269Y12173204D02*
G01*
X8040603Y12813537D01*
X7292506Y12173204D02*
G01*
X7932840Y12813537D01*
X7184743Y12173204D02*
G01*
X7825077Y12813537D01*
X7076980Y12173204D02*
G01*
X7717314Y12813537D01*
X6969216Y12173204D02*
G01*
X7609550Y12813537D01*
X6861453Y12173204D02*
G01*
X7501787Y12813537D01*
X6753690Y12173204D02*
G01*
X7394024Y12813537D01*
X6645927Y12173204D02*
G01*
X7286261Y12813537D01*
X6538164Y12173204D02*
G01*
X7178498Y12813537D01*
X6430401Y12173204D02*
G01*
X7070735Y12813537D01*
X6322638Y12173204D02*
G01*
X6962972Y12813537D01*
X6214875Y12173204D02*
G01*
X6855209Y12813537D01*
X6107112Y12173204D02*
G01*
X6747446Y12813537D01*
X5999349Y12173204D02*
G01*
X6639683Y12813537D01*
X5891586Y12173204D02*
G01*
X6531920Y12813537D01*
X5783823Y12173204D02*
G01*
X6424157Y12813537D01*
X5676060Y12173204D02*
G01*
X6316394Y12813537D01*
X5568296Y12173204D02*
G01*
X6208630Y12813537D01*
X5460533Y12173204D02*
G01*
X6100867Y12813537D01*
X5352770Y12173204D02*
G01*
X5993104Y12813537D01*
X5245007Y12173204D02*
G01*
X5885341Y12813537D01*
X5137244Y12173204D02*
G01*
X5777578Y12813537D01*
X5029481Y12173204D02*
G01*
X5669815Y12813537D01*
X4921718Y12173204D02*
G01*
X5562052Y12813537D01*
X4813955Y12173204D02*
G01*
X5454289Y12813537D01*
X4706192Y12173204D02*
G01*
X5346526Y12813537D01*
X4598429Y12173204D02*
G01*
X5238763Y12813537D01*
X4490666Y12173204D02*
G01*
X5131000Y12813537D01*
X4382903Y12173204D02*
G01*
X5023237Y12813537D01*
X4275140Y12173204D02*
G01*
X4915474Y12813537D01*
X4167376Y12173204D02*
G01*
X4807710Y12813537D01*
X4059613Y12173204D02*
G01*
X4699947Y12813537D01*
X3951850Y12173204D02*
G01*
X4592184Y12813537D01*
X3844087Y12173204D02*
G01*
X4484421Y12813537D01*
X3736324Y12173204D02*
G01*
X4376658Y12813537D01*
X3628561Y12173204D02*
G01*
X4268895Y12813537D01*
X3520798Y12173204D02*
G01*
X4161132Y12813537D01*
X3413035Y12173204D02*
G01*
X4053369Y12813537D01*
X3305272Y12173204D02*
G01*
X3945606Y12813537D01*
X3197509Y12173204D02*
G01*
X3837843Y12813537D01*
X3089746Y12173204D02*
G01*
X3730080Y12813537D01*
X2981983Y12173204D02*
G01*
X3622317Y12813537D01*
X2874220Y12173204D02*
G01*
X3514554Y12813537D01*
X2766457Y12173204D02*
G01*
X3406791Y12813537D01*
X2658693Y12173204D02*
G01*
X3299027Y12813537D01*
X2550930Y12173204D02*
G01*
X3191264Y12813537D01*
X2443167Y12173204D02*
G01*
X3083501Y12813537D01*
X2335404Y12173204D02*
G01*
X2975738Y12813537D01*
X2227641Y12173204D02*
G01*
X2867975Y12813537D01*
X2119878Y12173204D02*
G01*
X2760212Y12813537D01*
X2012115Y12173204D02*
G01*
X2652449Y12813537D01*
X1904352Y12173204D02*
G01*
X2544686Y12813537D01*
X1796589Y12173204D02*
G01*
X2436923Y12813537D01*
X1688826Y12173204D02*
G01*
X2329160Y12813537D01*
X1581063Y12173204D02*
G01*
X2221397Y12813537D01*
X1473300Y12173204D02*
G01*
X2113634Y12813537D01*
X1365537Y12173204D02*
G01*
X2005871Y12813537D01*
X1257773Y12173204D02*
G01*
X1898107Y12813537D01*
X1150010Y12173204D02*
G01*
X1790344Y12813537D01*
X1042247Y12173204D02*
G01*
X1682581Y12813537D01*
X934484Y12173204D02*
G01*
X1574818Y12813537D01*
X826721Y12173204D02*
G01*
X1467055Y12813537D01*
X718958Y12173204D02*
G01*
X921679Y12375924D01*
X1093676Y12547921D02*
G01*
X1359292Y12813537D01*
X611195Y12173204D02*
G01*
X812129Y12374138D01*
X1082108Y12644116D02*
G01*
X1251529Y12813537D01*
X503432Y12173204D02*
G01*
X704366Y12374138D01*
X1040368Y12710139D02*
G01*
X1143766Y12813537D01*
X395669Y12173204D02*
G01*
X596603Y12374138D01*
X977106Y12754640D02*
G01*
X1036003Y12813537D01*
X287906Y12173204D02*
G01*
X503060Y12388358D01*
X886563Y12771861D02*
G01*
X928240Y12813537D01*
X180143Y12173204D02*
G01*
X437734Y12430795D01*
X778800Y12771861D02*
G01*
X820477Y12813537D01*
X72380Y12173204D02*
G01*
X393902Y12494726D01*
X671037Y12771861D02*
G01*
X712714Y12813537D01*
X38862Y12247448D02*
G01*
X378425Y12587012D01*
X562586Y12771173D02*
G01*
X604951Y12813537D01*
X38862Y12355212D02*
G01*
X497187Y12813537D01*
X38862Y12462975D02*
G01*
X389424Y12813537D01*
X38862Y12570738D02*
G01*
X281661Y12813537D01*
X38862Y12678501D02*
G01*
X173898Y12813537D01*
X38862Y12786264D02*
G01*
X66135Y12813537D01*
D11*
G01*
X736600Y12573000D03*
G01*
X736600Y330200D03*
G01*
X10388600Y12573000D03*
G01*
X10388600Y330200D03*
M02*
