G04 Layer: TopSilkscreenLayer*
G04 EasyEDA v6.5.29, 2023-07-18 11:35:47*
G04 afcbc65135b8487390061542234f1994,5a6b42c53f6a479593ecc07194224c93,10*
G04 Gerber Generator version 0.2*
G04 Scale: 100 percent, Rotated: No, Reflected: No *
G04 Dimensions in millimeters *
G04 leading zeros omitted , absolute positions ,4 integer and 5 decimal *
%FSLAX45Y45*%
%MOMM*%

%ADD10C,0.2032*%
%ADD11C,0.1524*%
%ADD12C,0.1270*%
%ADD13C,0.2540*%

%LPD*%
D10*
X-2260625Y7309281D02*
G01*
X-2260625Y7194727D01*
X-2260625Y7309281D02*
G01*
X-2216937Y7194727D01*
X-2173249Y7309281D02*
G01*
X-2216937Y7194727D01*
X-2173249Y7309281D02*
G01*
X-2173249Y7194727D01*
X-2039137Y7331125D02*
G01*
X-2137435Y7156627D01*
X-2003069Y7309281D02*
G01*
X-2003069Y7194727D01*
X-2003069Y7309281D02*
G01*
X-1932203Y7309281D01*
X-2003069Y7254671D02*
G01*
X-1959635Y7254671D01*
X-2003069Y7194727D02*
G01*
X-1932203Y7194727D01*
X-1812315Y7309281D02*
G01*
X-1812315Y7194727D01*
X-1812315Y7309281D02*
G01*
X-1763039Y7309281D01*
X-1746783Y7303947D01*
X-1741449Y7298359D01*
X-1735861Y7287437D01*
X-1735861Y7271181D01*
X-1741449Y7260259D01*
X-1746783Y7254671D01*
X-1763039Y7249337D01*
X-1812315Y7249337D01*
X-1667027Y7309281D02*
G01*
X-1677949Y7303947D01*
X-1688871Y7293025D01*
X-1694459Y7282103D01*
X-1699793Y7265593D01*
X-1699793Y7238415D01*
X-1694459Y7221905D01*
X-1688871Y7210983D01*
X-1677949Y7200315D01*
X-1667027Y7194727D01*
X-1645437Y7194727D01*
X-1634515Y7200315D01*
X-1623593Y7210983D01*
X-1618005Y7221905D01*
X-1612671Y7238415D01*
X-1612671Y7265593D01*
X-1618005Y7282103D01*
X-1623593Y7293025D01*
X-1634515Y7303947D01*
X-1645437Y7309281D01*
X-1667027Y7309281D01*
X-1576603Y7309281D02*
G01*
X-1549425Y7194727D01*
X-1521993Y7309281D02*
G01*
X-1549425Y7194727D01*
X-1521993Y7309281D02*
G01*
X-1494815Y7194727D01*
X-1467637Y7309281D02*
G01*
X-1494815Y7194727D01*
X-1431569Y7309281D02*
G01*
X-1431569Y7194727D01*
X-1431569Y7309281D02*
G01*
X-1360703Y7309281D01*
X-1431569Y7254671D02*
G01*
X-1387881Y7254671D01*
X-1431569Y7194727D02*
G01*
X-1360703Y7194727D01*
X-1324635Y7309281D02*
G01*
X-1324635Y7194727D01*
X-1324635Y7309281D02*
G01*
X-1275613Y7309281D01*
X-1259103Y7303947D01*
X-1253769Y7298359D01*
X-1248181Y7287437D01*
X-1248181Y7276515D01*
X-1253769Y7265593D01*
X-1259103Y7260259D01*
X-1275613Y7254671D01*
X-1324635Y7254671D01*
X-1286535Y7254671D02*
G01*
X-1248181Y7194727D01*
X-1128293Y7309281D02*
G01*
X-1128293Y7194727D01*
X-1128293Y7194727D02*
G01*
X-1062761Y7194727D01*
X-1026693Y7309281D02*
G01*
X-1026693Y7194727D01*
X-1026693Y7309281D02*
G01*
X-955827Y7309281D01*
X-1026693Y7254671D02*
G01*
X-983259Y7254671D01*
X-1026693Y7194727D02*
G01*
X-955827Y7194727D01*
X-919759Y7309281D02*
G01*
X-919759Y7194727D01*
X-919759Y7309281D02*
G01*
X-881659Y7309281D01*
X-865403Y7303947D01*
X-854481Y7293025D01*
X-848893Y7282103D01*
X-843559Y7265593D01*
X-843559Y7238415D01*
X-848893Y7221905D01*
X-854481Y7210983D01*
X-865403Y7200315D01*
X-881659Y7194727D01*
X-919759Y7194727D01*
X-723417Y7309281D02*
G01*
X-723417Y7194727D01*
X-723417Y7309281D02*
G01*
X-674395Y7309281D01*
X-658139Y7303947D01*
X-652551Y7298359D01*
X-647217Y7287437D01*
X-647217Y7276515D01*
X-652551Y7265593D01*
X-658139Y7260259D01*
X-674395Y7254671D01*
X-723417Y7254671D02*
G01*
X-674395Y7254671D01*
X-658139Y7249337D01*
X-652551Y7243749D01*
X-647217Y7232827D01*
X-647217Y7216571D01*
X-652551Y7205649D01*
X-658139Y7200315D01*
X-674395Y7194727D01*
X-723417Y7194727D01*
X-578383Y7309281D02*
G01*
X-589305Y7303947D01*
X-600227Y7293025D01*
X-605815Y7282103D01*
X-611149Y7265593D01*
X-611149Y7238415D01*
X-605815Y7221905D01*
X-600227Y7210983D01*
X-589305Y7200315D01*
X-578383Y7194727D01*
X-556539Y7194727D01*
X-545617Y7200315D01*
X-534695Y7210983D01*
X-529361Y7221905D01*
X-523773Y7238415D01*
X-523773Y7265593D01*
X-529361Y7282103D01*
X-534695Y7293025D01*
X-545617Y7303947D01*
X-556539Y7309281D01*
X-578383Y7309281D01*
X-444271Y7309281D02*
G01*
X-487959Y7194727D01*
X-444271Y7309281D02*
G01*
X-400583Y7194727D01*
X-471449Y7232827D02*
G01*
X-417093Y7232827D01*
X-364515Y7309281D02*
G01*
X-364515Y7194727D01*
X-364515Y7309281D02*
G01*
X-315493Y7309281D01*
X-299237Y7303947D01*
X-293649Y7298359D01*
X-288315Y7287437D01*
X-288315Y7276515D01*
X-293649Y7265593D01*
X-299237Y7260259D01*
X-315493Y7254671D01*
X-364515Y7254671D01*
X-326415Y7254671D02*
G01*
X-288315Y7194727D01*
X-252247Y7309281D02*
G01*
X-252247Y7194727D01*
X-252247Y7309281D02*
G01*
X-214147Y7309281D01*
X-197637Y7303947D01*
X-186715Y7293025D01*
X-181381Y7282103D01*
X-175793Y7265593D01*
X-175793Y7238415D01*
X-181381Y7221905D01*
X-186715Y7210983D01*
X-197637Y7200315D01*
X-214147Y7194727D01*
X-252247Y7194727D01*
X-55905Y7243749D02*
G01*
X42392Y7243749D01*
X200380Y7309281D02*
G01*
X200380Y7194727D01*
X162280Y7309281D02*
G01*
X238734Y7309281D01*
X307314Y7309281D02*
G01*
X296392Y7303947D01*
X285470Y7293025D01*
X280136Y7282103D01*
X274548Y7265593D01*
X274548Y7238415D01*
X280136Y7221905D01*
X285470Y7210983D01*
X296392Y7200315D01*
X307314Y7194727D01*
X329158Y7194727D01*
X340080Y7200315D01*
X351002Y7210983D01*
X356590Y7221905D01*
X361924Y7238415D01*
X361924Y7265593D01*
X356590Y7282103D01*
X351002Y7293025D01*
X340080Y7303947D01*
X329158Y7309281D01*
X307314Y7309281D01*
X397992Y7309281D02*
G01*
X397992Y7194727D01*
X397992Y7309281D02*
G01*
X447014Y7309281D01*
X463270Y7303947D01*
X468858Y7298359D01*
X474192Y7287437D01*
X474192Y7271181D01*
X468858Y7260259D01*
X463270Y7254671D01*
X447014Y7249337D01*
X397992Y7249337D01*
X-2243099Y7115479D02*
G01*
X-2243099Y7000925D01*
X-2243099Y7115479D02*
G01*
X-2194077Y7115479D01*
X-2177567Y7109891D01*
X-2172233Y7104557D01*
X-2166645Y7093635D01*
X-2166645Y7077125D01*
X-2172233Y7066203D01*
X-2177567Y7060869D01*
X-2194077Y7055535D01*
X-2243099Y7055535D01*
X-2087143Y7115479D02*
G01*
X-2130831Y7000925D01*
X-2087143Y7115479D02*
G01*
X-2043455Y7000925D01*
X-2114321Y7039025D02*
G01*
X-2059711Y7039025D01*
X-2007387Y7115479D02*
G01*
X-2007387Y7000925D01*
X-2007387Y7115479D02*
G01*
X-1958365Y7115479D01*
X-1942109Y7109891D01*
X-1936521Y7104557D01*
X-1931187Y7093635D01*
X-1931187Y7082713D01*
X-1936521Y7071791D01*
X-1942109Y7066203D01*
X-1958365Y7060869D01*
X-2007387Y7060869D01*
X-1969287Y7060869D02*
G01*
X-1931187Y7000925D01*
X-1857019Y7115479D02*
G01*
X-1857019Y7000925D01*
X-1895119Y7115479D02*
G01*
X-1818665Y7115479D01*
X-1698777Y7115479D02*
G01*
X-1698777Y7000925D01*
X-1698777Y7115479D02*
G01*
X-1622323Y7000925D01*
X-1622323Y7115479D02*
G01*
X-1622323Y7000925D01*
X-1586255Y7115479D02*
G01*
X-1586255Y7033691D01*
X-1580921Y7017181D01*
X-1569999Y7006259D01*
X-1553743Y7000925D01*
X-1542821Y7000925D01*
X-1526311Y7006259D01*
X-1515389Y7017181D01*
X-1510055Y7033691D01*
X-1510055Y7115479D01*
X-1473987Y7115479D02*
G01*
X-1473987Y7000925D01*
X-1473987Y7115479D02*
G01*
X-1430299Y7000925D01*
X-1386611Y7115479D02*
G01*
X-1430299Y7000925D01*
X-1386611Y7115479D02*
G01*
X-1386611Y7000925D01*
X-1350797Y7115479D02*
G01*
X-1350797Y7000925D01*
X-1350797Y7115479D02*
G01*
X-1301521Y7115479D01*
X-1285265Y7109891D01*
X-1279931Y7104557D01*
X-1274343Y7093635D01*
X-1274343Y7082713D01*
X-1279931Y7071791D01*
X-1285265Y7066203D01*
X-1301521Y7060869D01*
X-1350797Y7060869D02*
G01*
X-1301521Y7060869D01*
X-1285265Y7055535D01*
X-1279931Y7049947D01*
X-1274343Y7039025D01*
X-1274343Y7022769D01*
X-1279931Y7011847D01*
X-1285265Y7006259D01*
X-1301521Y7000925D01*
X-1350797Y7000925D01*
X-1238275Y7115479D02*
G01*
X-1238275Y7000925D01*
X-1238275Y7115479D02*
G01*
X-1167409Y7115479D01*
X-1238275Y7060869D02*
G01*
X-1194841Y7060869D01*
X-1238275Y7000925D02*
G01*
X-1167409Y7000925D01*
X-1131341Y7115479D02*
G01*
X-1131341Y7000925D01*
X-1131341Y7115479D02*
G01*
X-1082319Y7115479D01*
X-1066063Y7109891D01*
X-1060475Y7104557D01*
X-1055141Y7093635D01*
X-1055141Y7082713D01*
X-1060475Y7071791D01*
X-1066063Y7066203D01*
X-1082319Y7060869D01*
X-1131341Y7060869D01*
X-1093241Y7060869D02*
G01*
X-1055141Y7000925D01*
X-929665Y7088047D02*
G01*
X-929665Y7093635D01*
X-924077Y7104557D01*
X-918743Y7109891D01*
X-907821Y7115479D01*
X-885977Y7115479D01*
X-875055Y7109891D01*
X-869721Y7104557D01*
X-864133Y7093635D01*
X-864133Y7082713D01*
X-869721Y7071791D01*
X-880643Y7055535D01*
X-934999Y7000925D01*
X-858799Y7000925D01*
X-795553Y7115479D02*
G01*
X-811809Y7109891D01*
X-817397Y7098969D01*
X-817397Y7088047D01*
X-811809Y7077125D01*
X-800887Y7071791D01*
X-779043Y7066203D01*
X-762787Y7060869D01*
X-751865Y7049947D01*
X-746277Y7039025D01*
X-746277Y7022769D01*
X-751865Y7011847D01*
X-757199Y7006259D01*
X-773709Y7000925D01*
X-795553Y7000925D01*
X-811809Y7006259D01*
X-817397Y7011847D01*
X-822731Y7022769D01*
X-822731Y7039025D01*
X-817397Y7049947D01*
X-806475Y7060869D01*
X-789965Y7066203D01*
X-768121Y7071791D01*
X-757199Y7077125D01*
X-751865Y7088047D01*
X-751865Y7098969D01*
X-757199Y7109891D01*
X-773709Y7115479D01*
X-795553Y7115479D01*
X-639343Y7077125D02*
G01*
X-644931Y7060869D01*
X-655853Y7049947D01*
X-672109Y7044613D01*
X-677697Y7044613D01*
X-693953Y7049947D01*
X-704875Y7060869D01*
X-710463Y7077125D01*
X-710463Y7082713D01*
X-704875Y7098969D01*
X-693953Y7109891D01*
X-677697Y7115479D01*
X-672109Y7115479D01*
X-655853Y7109891D01*
X-644931Y7098969D01*
X-639343Y7077125D01*
X-639343Y7049947D01*
X-644931Y7022769D01*
X-655853Y7006259D01*
X-672109Y7000925D01*
X-683031Y7000925D01*
X-699541Y7006259D01*
X-704875Y7017181D01*
X-570763Y7115479D02*
G01*
X-587019Y7109891D01*
X-597941Y7093635D01*
X-603529Y7066203D01*
X-603529Y7049947D01*
X-597941Y7022769D01*
X-587019Y7006259D01*
X-570763Y7000925D01*
X-559841Y7000925D01*
X-543585Y7006259D01*
X-532663Y7022769D01*
X-527075Y7049947D01*
X-527075Y7066203D01*
X-532663Y7093635D01*
X-543585Y7109891D01*
X-559841Y7115479D01*
X-570763Y7115479D01*
X-491007Y7049947D02*
G01*
X-392963Y7049947D01*
X-324129Y7115479D02*
G01*
X-340639Y7109891D01*
X-351561Y7093635D01*
X-356895Y7066203D01*
X-356895Y7049947D01*
X-351561Y7022769D01*
X-340639Y7006259D01*
X-324129Y7000925D01*
X-313207Y7000925D01*
X-296951Y7006259D01*
X-286029Y7022769D01*
X-280441Y7049947D01*
X-280441Y7066203D01*
X-286029Y7093635D01*
X-296951Y7109891D01*
X-313207Y7115479D01*
X-324129Y7115479D01*
X-233705Y7115479D02*
G01*
X-173761Y7115479D01*
X-206273Y7071791D01*
X-190017Y7071791D01*
X-179095Y7066203D01*
X-173761Y7060869D01*
X-168173Y7044613D01*
X-168173Y7033691D01*
X-173761Y7017181D01*
X-184683Y7006259D01*
X-200939Y7000925D01*
X-217195Y7000925D01*
X-233705Y7006259D01*
X-239039Y7011847D01*
X-244627Y7022769D01*
X-99593Y7115479D02*
G01*
X-115849Y7109891D01*
X-126771Y7093635D01*
X-132105Y7066203D01*
X-132105Y7049947D01*
X-126771Y7022769D01*
X-115849Y7006259D01*
X-99593Y7000925D01*
X-88671Y7000925D01*
X-72161Y7006259D01*
X-61239Y7022769D01*
X-55905Y7049947D01*
X-55905Y7066203D01*
X-61239Y7093635D01*
X-72161Y7109891D01*
X-88671Y7115479D01*
X-99593Y7115479D01*
X-19837Y7093635D02*
G01*
X-8915Y7098969D01*
X7340Y7115479D01*
X7340Y7000925D01*
X127482Y7115479D02*
G01*
X171170Y7000925D01*
X214604Y7115479D02*
G01*
X171170Y7000925D01*
X283438Y7115479D02*
G01*
X267182Y7109891D01*
X256260Y7093635D01*
X250672Y7066203D01*
X250672Y7049947D01*
X256260Y7022769D01*
X267182Y7006259D01*
X283438Y7000925D01*
X294360Y7000925D01*
X310616Y7006259D01*
X321538Y7022769D01*
X327126Y7049947D01*
X327126Y7066203D01*
X321538Y7093635D01*
X310616Y7109891D01*
X294360Y7115479D01*
X283438Y7115479D01*
X368528Y7028103D02*
G01*
X363194Y7022769D01*
X368528Y7017181D01*
X373862Y7022769D01*
X368528Y7028103D01*
X409930Y7093635D02*
G01*
X420852Y7098969D01*
X437362Y7115479D01*
X437362Y7000925D01*
D11*
X-54973Y-3141802D02*
G01*
X-54970Y-3237303D01*
X-54973Y-3141802D02*
G01*
X-23220Y-3141802D01*
X-9504Y-3146371D01*
X-360Y-3155518D01*
X4211Y-3164662D01*
X8783Y-3178378D01*
X8783Y-3200984D01*
X4211Y-3214700D01*
X-360Y-3223590D01*
X-9504Y-3232731D01*
X-23220Y-3237303D01*
X-54970Y-3237303D01*
X47899Y-3141802D02*
G01*
X97937Y-3141799D01*
X70505Y-3178378D01*
X84221Y-3178378D01*
X93365Y-3182693D01*
X97937Y-3187268D01*
X102255Y-3200984D01*
X102255Y-3210128D01*
X97937Y-3223590D01*
X88793Y-3232734D01*
X75077Y-3237306D01*
X61361Y-3237306D01*
X47899Y-3232734D01*
X43327Y-3228159D01*
X38755Y-3219272D01*
X132481Y-3160090D02*
G01*
X141371Y-3155518D01*
X155087Y-3141799D01*
X155087Y-3237306D01*
X-1976399Y100484D02*
G01*
X-1976399Y195988D01*
X-1976399Y100484D02*
G01*
X-2008149Y100484D01*
X-2021865Y105056D01*
X-2031009Y113946D01*
X-2035581Y123090D01*
X-2040153Y136806D01*
X-2040153Y159412D01*
X-2035581Y173128D01*
X-2031009Y182272D01*
X-2021865Y191416D01*
X-2008149Y195988D01*
X-1976399Y195988D01*
X-2070125Y118518D02*
G01*
X-2079015Y113946D01*
X-2092731Y100484D01*
X-2092731Y195988D01*
X-2177313Y113946D02*
G01*
X-2172741Y105056D01*
X-2159025Y100484D01*
X-2150135Y100484D01*
X-2136419Y105056D01*
X-2127275Y118518D01*
X-2122703Y141378D01*
X-2122703Y163984D01*
X-2127275Y182272D01*
X-2136419Y191416D01*
X-2150135Y195988D01*
X-2154707Y195988D01*
X-2168169Y191416D01*
X-2177313Y182272D01*
X-2181885Y168556D01*
X-2181885Y163984D01*
X-2177313Y150522D01*
X-2168169Y141378D01*
X-2154707Y136806D01*
X-2150135Y136806D01*
X-2136419Y141378D01*
X-2127275Y150522D01*
X-2122703Y163984D01*
X-1942734Y-113210D02*
G01*
X-1962589Y-19794D01*
X-1942734Y-113210D02*
G01*
X-1973790Y-119811D01*
X-1988157Y-118191D01*
X-1998949Y-111396D01*
X-2005322Y-103403D01*
X-2012647Y-90939D01*
X-2017346Y-68826D01*
X-2015726Y-54460D01*
X-2013155Y-44564D01*
X-2006112Y-33718D01*
X-1993645Y-26395D01*
X-1962589Y-19794D01*
X-2038162Y-115059D02*
G01*
X-2045906Y-121378D01*
X-2056523Y-137398D01*
X-2076381Y-43980D01*
X-2148202Y-156885D02*
G01*
X-2123584Y-54015D01*
X-2085840Y-143629D02*
G01*
X-2148202Y-156885D01*
X-1871886Y-309897D02*
G01*
X-1910730Y-222648D01*
X-1871886Y-309897D02*
G01*
X-1900890Y-322811D01*
X-1915279Y-324213D01*
X-1927247Y-319811D01*
X-1935144Y-313316D01*
X-1944900Y-302646D01*
X-1954095Y-281995D01*
X-1955497Y-267604D01*
X-1955040Y-257390D01*
X-1950405Y-245318D01*
X-1939734Y-235564D01*
X-1910730Y-222648D01*
X-1964842Y-331543D02*
G01*
X-1971103Y-339336D01*
X-1978159Y-357212D01*
X-2017003Y-269966D01*
X-2026424Y-378701D02*
G01*
X-2015754Y-368947D01*
X-2015192Y-358965D01*
X-2018911Y-350611D01*
X-2026808Y-344119D01*
X-2037021Y-343661D01*
X-2055355Y-346819D01*
X-2069744Y-348221D01*
X-2081715Y-343819D01*
X-2089609Y-337324D01*
X-2095190Y-324794D01*
X-2094730Y-314581D01*
X-2092413Y-308546D01*
X-2081743Y-298790D01*
X-2065268Y-291454D01*
X-2050879Y-290052D01*
X-2044842Y-292369D01*
X-2036947Y-298864D01*
X-2031367Y-311393D01*
X-2031824Y-321607D01*
X-2036564Y-333448D01*
X-2047234Y-343202D01*
X-2061850Y-354716D01*
X-2068342Y-362610D01*
X-2068799Y-372823D01*
X-2065080Y-381177D01*
X-2057288Y-387438D01*
X-2042899Y-386036D01*
X-2026424Y-378701D01*
X-1752028Y-502556D02*
G01*
X-1808165Y-425292D01*
X-1752028Y-502556D02*
G01*
X-1777715Y-521218D01*
X-1791497Y-525581D01*
X-1804121Y-523765D01*
X-1813194Y-519054D01*
X-1824956Y-510644D01*
X-1838243Y-492356D01*
X-1842607Y-478571D01*
X-1844281Y-468487D01*
X-1842259Y-455716D01*
X-1833849Y-443953D01*
X-1808165Y-425292D01*
X-1838454Y-543057D02*
G01*
X-1842957Y-551982D01*
X-1846143Y-570936D01*
X-1902279Y-493671D01*
X-1936932Y-597651D02*
G01*
X-1941296Y-583867D01*
X-1939122Y-571301D01*
X-1930920Y-559688D01*
X-1927219Y-557001D01*
X-1913437Y-552637D01*
X-1900814Y-554456D01*
X-1889053Y-562866D01*
X-1886366Y-566564D01*
X-1882002Y-580349D01*
X-1884174Y-592914D01*
X-1892584Y-604674D01*
X-1896282Y-607362D01*
X-1909861Y-611578D01*
X-1922482Y-609760D01*
X-1936932Y-597651D01*
X-1950219Y-579363D01*
X-1959957Y-558182D01*
X-1960620Y-541710D01*
X-1952419Y-530097D01*
X-1945020Y-524723D01*
X-1931235Y-520362D01*
X-1922162Y-525071D01*
X-1598279Y-657918D02*
G01*
X-1669252Y-594014D01*
X-1598279Y-657918D02*
G01*
X-1619524Y-681515D01*
X-1632099Y-688647D01*
X-1645013Y-689325D01*
X-1654868Y-686602D01*
X-1668119Y-680824D01*
X-1684919Y-665695D01*
X-1692054Y-653122D01*
X-1695790Y-643605D01*
X-1696278Y-630862D01*
X-1690496Y-617608D01*
X-1669252Y-594014D01*
X-1681040Y-715672D02*
G01*
X-1677644Y-718731D01*
X-1673738Y-728057D01*
X-1673400Y-734517D01*
X-1676120Y-744369D01*
X-1688358Y-757961D01*
X-1697873Y-761697D01*
X-1704159Y-761847D01*
X-1714014Y-759127D01*
X-1720811Y-753008D01*
X-1724545Y-743491D01*
X-1728602Y-727877D01*
X-1731967Y-663666D01*
X-1774456Y-710857D01*
X-1741893Y-817420D02*
G01*
X-1736115Y-804169D01*
X-1740189Y-788195D01*
X-1754118Y-769500D01*
X-1764121Y-760493D01*
X-1784169Y-748593D01*
X-1800293Y-746381D01*
X-1812869Y-753516D01*
X-1818985Y-760310D01*
X-1824596Y-773374D01*
X-1820710Y-789177D01*
X-1806783Y-807872D01*
X-1796778Y-816879D01*
X-1776729Y-828779D01*
X-1760418Y-831161D01*
X-1748012Y-824214D01*
X-1741893Y-817420D01*
X-1415925Y-777753D02*
G01*
X-1498635Y-730001D01*
X-1415925Y-777753D02*
G01*
X-1431800Y-805248D01*
X-1442618Y-814842D01*
X-1454889Y-818316D01*
X-1464967Y-817483D01*
X-1479130Y-814585D01*
X-1498709Y-803282D01*
X-1508302Y-792464D01*
X-1514060Y-784153D01*
X-1517408Y-771662D01*
X-1514510Y-757496D01*
X-1498635Y-730001D01*
X-1484525Y-851359D02*
G01*
X-1480565Y-853645D01*
X-1475153Y-862048D01*
X-1473479Y-868293D01*
X-1474091Y-878499D01*
X-1483235Y-894336D01*
X-1491640Y-899749D01*
X-1497886Y-901423D01*
X-1507870Y-900937D01*
X-1515790Y-896365D01*
X-1521421Y-887834D01*
X-1528729Y-873058D01*
X-1545371Y-810950D01*
X-1577248Y-866162D01*
X-1525143Y-930854D02*
G01*
X-1525755Y-941059D01*
X-1520954Y-959667D01*
X-1603664Y-911915D01*
X-1220048Y-848819D02*
G01*
X-1310878Y-819307D01*
X-1220048Y-848819D02*
G01*
X-1229860Y-879015D01*
X-1238445Y-890648D01*
X-1249969Y-896518D01*
X-1259837Y-898118D01*
X-1274295Y-898230D01*
X-1296034Y-891166D01*
X-1307424Y-882657D01*
X-1314709Y-875482D01*
X-1320579Y-863960D01*
X-1320690Y-849502D01*
X-1310878Y-819307D01*
X-1271922Y-935321D02*
G01*
X-1267818Y-936655D01*
X-1260533Y-943828D01*
X-1257518Y-949347D01*
X-1255996Y-959457D01*
X-1261648Y-976850D01*
X-1268821Y-984135D01*
X-1274582Y-987069D01*
X-1284615Y-988352D01*
X-1293068Y-985603D01*
X-1300431Y-978672D01*
X-1310650Y-965735D01*
X-1339842Y-908446D01*
X-1359463Y-968837D01*
X-1300807Y-1024219D02*
G01*
X-1296700Y-1025552D01*
X-1289418Y-1032725D01*
X-1286482Y-1038486D01*
X-1284960Y-1048595D01*
X-1290533Y-1065748D01*
X-1297706Y-1073033D01*
X-1303467Y-1075966D01*
X-1313576Y-1077490D01*
X-1322031Y-1074742D01*
X-1329316Y-1067569D01*
X-1339535Y-1054633D01*
X-1368724Y-997343D01*
X-1388427Y-1057976D01*
X-986980Y-891819D02*
G01*
X-1081961Y-881834D01*
X-986980Y-891819D02*
G01*
X-990300Y-923394D01*
X-996281Y-936558D01*
X-1006304Y-944443D01*
X-1015875Y-948034D01*
X-1029741Y-951174D01*
X-1052476Y-948783D01*
X-1065639Y-942804D01*
X-1074003Y-937328D01*
X-1082166Y-927531D01*
X-1085281Y-913411D01*
X-1081961Y-881834D01*
X-1019964Y-986937D02*
G01*
X-1015418Y-987414D01*
X-1006802Y-992916D01*
X-1002733Y-997940D01*
X-999142Y-1007513D01*
X-1001026Y-1025448D01*
X-1006528Y-1034064D01*
X-1011554Y-1038133D01*
X-1021125Y-1041725D01*
X-1030218Y-1040770D01*
X-1038583Y-1035293D01*
X-1051267Y-1024765D01*
X-1091732Y-974796D01*
X-1098397Y-1038199D01*
X-1007506Y-1087084D02*
G01*
X-1012736Y-1136848D01*
X-1045989Y-1105771D01*
X-1047424Y-1119411D01*
X-1052926Y-1128026D01*
X-1057953Y-1132095D01*
X-1072045Y-1134958D01*
X-1081138Y-1134000D01*
X-1094074Y-1128301D01*
X-1102212Y-1118250D01*
X-1105326Y-1104130D01*
X-1103894Y-1090490D01*
X-1097937Y-1077579D01*
X-1092913Y-1073510D01*
X-1083594Y-1069893D01*
X-758515Y-883274D02*
G01*
X-853495Y-893259D01*
X-758515Y-883274D02*
G01*
X-755195Y-914852D01*
X-758309Y-928971D01*
X-766193Y-938994D01*
X-774809Y-944496D01*
X-787974Y-950478D01*
X-810455Y-952840D01*
X-824572Y-949726D01*
X-834146Y-946134D01*
X-844194Y-937999D01*
X-850176Y-924834D01*
X-853495Y-893259D01*
X-770722Y-983399D02*
G01*
X-766175Y-982921D01*
X-756856Y-986538D01*
X-751829Y-990607D01*
X-746353Y-998971D01*
X-744443Y-1017158D01*
X-748032Y-1026731D01*
X-752101Y-1031755D01*
X-760493Y-1036977D01*
X-769586Y-1037935D01*
X-779132Y-1034595D01*
X-793729Y-1026934D01*
X-843699Y-986472D01*
X-837059Y-1049624D01*
X-734194Y-1114666D02*
G01*
X-802073Y-1076337D01*
X-794956Y-1144038D01*
X-734194Y-1114666D02*
G01*
X-829175Y-1124648D01*
X-559694Y-824577D02*
G01*
X-650521Y-854090D01*
X-559694Y-824577D02*
G01*
X-549882Y-854773D01*
X-549991Y-869231D01*
X-555619Y-880673D01*
X-562904Y-887849D01*
X-574535Y-896434D01*
X-596036Y-903422D01*
X-610494Y-903310D01*
X-620603Y-901788D01*
X-632124Y-895918D01*
X-640712Y-884285D01*
X-650521Y-854090D01*
X-550816Y-925050D02*
G01*
X-546468Y-923637D01*
X-536600Y-925238D01*
X-530918Y-927933D01*
X-523745Y-935215D01*
X-518093Y-952609D01*
X-519615Y-962718D01*
X-522551Y-968479D01*
X-529671Y-975332D01*
X-538368Y-978159D01*
X-548398Y-976878D01*
X-564268Y-972418D01*
X-621560Y-943228D01*
X-601936Y-1003620D01*
X-484969Y-1054549D02*
G01*
X-499021Y-1011311D01*
X-539325Y-1019599D01*
X-533565Y-1022532D01*
X-524977Y-1034166D01*
X-520738Y-1047211D01*
X-520928Y-1061425D01*
X-526798Y-1072949D01*
X-538187Y-1081455D01*
X-546884Y-1084282D01*
X-561342Y-1084173D01*
X-572863Y-1078301D01*
X-581372Y-1066911D01*
X-585612Y-1053866D01*
X-585500Y-1039408D01*
X-582566Y-1033647D01*
X-575282Y-1026474D01*
X-372292Y-728512D02*
G01*
X-455000Y-776264D01*
X-372292Y-728512D02*
G01*
X-356417Y-756008D01*
X-353519Y-770173D01*
X-356864Y-782665D01*
X-362498Y-791197D01*
X-372089Y-802012D01*
X-391668Y-813315D01*
X-405833Y-816216D01*
X-415818Y-816701D01*
X-428307Y-813353D01*
X-439125Y-803760D01*
X-455000Y-776264D01*
X-342940Y-825070D02*
G01*
X-338980Y-822784D01*
X-328902Y-821954D01*
X-322658Y-823625D01*
X-314126Y-829259D01*
X-304982Y-845098D01*
X-304370Y-855301D01*
X-306169Y-861326D01*
X-311802Y-869858D01*
X-319722Y-874430D01*
X-329925Y-875042D01*
X-346029Y-874074D01*
X-408137Y-857435D01*
X-376387Y-912426D01*
X-263265Y-944783D02*
G01*
X-257634Y-936251D01*
X-260405Y-922307D01*
X-264977Y-914387D01*
X-275795Y-904796D01*
X-292244Y-903734D01*
X-314109Y-911077D01*
X-333905Y-922507D01*
X-347238Y-935484D01*
X-350583Y-947976D01*
X-347685Y-962139D01*
X-345399Y-966099D01*
X-334708Y-975471D01*
X-322219Y-978819D01*
X-308274Y-976048D01*
X-304314Y-973762D01*
X-294721Y-962944D01*
X-291376Y-950452D01*
X-294365Y-936635D01*
X-296651Y-932675D01*
X-307251Y-922957D01*
X-319740Y-919609D01*
X-333905Y-922507D01*
X-201909Y-592048D02*
G01*
X-272882Y-655954D01*
X-201909Y-592048D02*
G01*
X-180665Y-615645D01*
X-174884Y-628896D01*
X-175562Y-641809D01*
X-179108Y-651156D01*
X-186413Y-663541D01*
X-203400Y-678840D01*
X-216293Y-684639D01*
X-226148Y-687359D01*
X-239062Y-686681D01*
X-251637Y-679549D01*
X-272882Y-655954D01*
X-153103Y-680036D02*
G01*
X-149895Y-677146D01*
X-140040Y-674425D01*
X-133583Y-674763D01*
X-124068Y-678500D01*
X-111831Y-692091D01*
X-109280Y-701756D01*
X-109618Y-708212D01*
X-113355Y-717730D01*
X-119961Y-723679D01*
X-129816Y-726399D01*
X-145956Y-728969D01*
X-210167Y-725606D01*
X-167678Y-772794D01*
X-33990Y-778543D02*
G01*
X-135384Y-808659D01*
X-76649Y-731164D02*
G01*
X-33990Y-778543D01*
X-63606Y-422955D02*
G01*
X-119743Y-500219D01*
X-63606Y-422955D02*
G01*
X-37919Y-441617D01*
X-29512Y-453379D01*
X-27487Y-466150D01*
X-29164Y-476237D01*
X-33378Y-489813D01*
X-46814Y-508309D01*
X-58574Y-516717D01*
X-67500Y-521223D01*
X-80271Y-523245D01*
X-94056Y-518881D01*
X-119743Y-500219D01*
X2481Y-499226D02*
G01*
X5168Y-495528D01*
X14241Y-490819D01*
X20627Y-489808D01*
X30507Y-491335D01*
X45303Y-502084D01*
X50012Y-511157D01*
X51023Y-517542D01*
X49143Y-527479D01*
X43769Y-534875D01*
X35049Y-539531D01*
X19591Y-545251D01*
X-43916Y-555310D01*
X7454Y-592635D01*
X106334Y-546425D02*
G01*
X92549Y-542061D01*
X83477Y-546773D01*
X78102Y-554169D01*
X76575Y-564050D01*
X81285Y-573123D01*
X93393Y-587570D01*
X101597Y-599183D01*
X103619Y-611954D01*
X101942Y-622040D01*
X94030Y-632929D01*
X84957Y-637641D01*
X78572Y-638652D01*
X64993Y-634438D01*
X50198Y-623689D01*
X41788Y-611929D01*
X40777Y-605541D01*
X42659Y-595607D01*
X50571Y-584715D01*
X59438Y-579856D01*
X72212Y-577832D01*
X85994Y-582195D01*
X103273Y-589097D01*
X113357Y-590773D01*
X122280Y-586267D01*
X127655Y-578871D01*
X129331Y-568784D01*
X121130Y-557174D01*
X106334Y-546425D01*
X36659Y-229085D02*
G01*
X-2184Y-316331D01*
X36659Y-229085D02*
G01*
X65664Y-241998D01*
X76103Y-251650D01*
X80840Y-263491D01*
X81297Y-273705D01*
X79895Y-288094D01*
X70700Y-308747D01*
X60944Y-319417D01*
X53050Y-325909D01*
X40977Y-330545D01*
X26819Y-329247D01*
X-2184Y-316331D01*
X117033Y-289615D02*
G01*
X118892Y-285437D01*
X126685Y-279176D01*
X132720Y-276859D01*
X142933Y-276402D01*
X159407Y-283735D01*
X165902Y-291632D01*
X168219Y-297670D01*
X168780Y-307649D01*
X165061Y-316003D01*
X157165Y-322498D01*
X143233Y-331307D01*
X83205Y-354350D01*
X141447Y-380281D01*
X248592Y-358198D02*
G01*
X239069Y-368973D01*
X227098Y-373374D01*
X212709Y-371972D01*
X208534Y-370113D01*
X197863Y-360357D01*
X193357Y-348620D01*
X194759Y-334230D01*
X196618Y-330055D01*
X206375Y-319382D01*
X218112Y-314878D01*
X232501Y-316280D01*
X236677Y-318140D01*
X247347Y-327896D01*
X252087Y-339735D01*
X248592Y-358198D01*
X239397Y-378851D01*
X226156Y-397977D01*
X212222Y-406788D01*
X197832Y-405386D01*
X189478Y-401667D01*
X179042Y-392015D01*
X178584Y-381802D01*
X94112Y-18285D02*
G01*
X74254Y-111701D01*
X94112Y-18285D02*
G01*
X125415Y-24940D01*
X137632Y-32209D01*
X144675Y-43055D01*
X147246Y-52951D01*
X148920Y-67068D01*
X144167Y-89430D01*
X136895Y-101645D01*
X130522Y-109641D01*
X119677Y-116682D01*
X105559Y-118356D01*
X74254Y-111701D01*
X194734Y-39674D02*
G01*
X243677Y-50076D01*
X209293Y-79900D01*
X222709Y-82753D01*
X230703Y-89126D01*
X234223Y-94548D01*
X235844Y-108915D01*
X233997Y-117612D01*
X226672Y-130078D01*
X215828Y-137121D01*
X201460Y-138742D01*
X188292Y-135943D01*
X175826Y-128617D01*
X172305Y-123195D01*
X169735Y-113301D01*
X304050Y-62910D02*
G01*
X289684Y-64531D01*
X278137Y-76098D01*
X268965Y-97259D01*
X266113Y-110675D01*
X265884Y-133738D01*
X271729Y-149004D01*
X284195Y-156326D01*
X293138Y-158229D01*
X307505Y-156608D01*
X319051Y-145039D01*
X328223Y-123878D01*
X331076Y-110462D01*
X331304Y-87398D01*
X325460Y-72135D01*
X312994Y-64810D01*
X304050Y-62910D01*
X-1964298Y319272D02*
G01*
X-1944443Y412691D01*
X-1964298Y319272D02*
G01*
X-1995355Y325874D01*
X-2007821Y333199D01*
X-2014616Y343989D01*
X-2017186Y353888D01*
X-2018807Y368254D01*
X-2014105Y390364D01*
X-2006782Y402831D01*
X-2000410Y410824D01*
X-1989863Y417672D01*
X-1975500Y419293D01*
X-1944443Y412691D01*
X-2051926Y356595D02*
G01*
X-2061822Y354027D01*
X-2078088Y343461D01*
X-2058233Y436877D01*
X-2160821Y361045D02*
G01*
X-2116350Y351594D01*
X-2103376Y390641D01*
X-2108746Y387370D01*
X-2122865Y385696D01*
X-2136282Y388548D01*
X-2148746Y395871D01*
X-2155842Y406468D01*
X-2157214Y420781D01*
X-2155311Y429727D01*
X-2148238Y442247D01*
X-2137445Y449038D01*
X-2123076Y450662D01*
X-2109663Y447809D01*
X-2097445Y440540D01*
X-2093925Y435114D01*
X-2091298Y425470D01*
X-1906686Y529943D02*
G01*
X-1867842Y617192D01*
X-1906686Y529943D02*
G01*
X-1935690Y542858D01*
X-1946361Y552615D01*
X-1950763Y564583D01*
X-1951220Y574796D01*
X-1949818Y589188D01*
X-1940623Y609838D01*
X-1930867Y620509D01*
X-1922973Y627004D01*
X-1911233Y631507D01*
X-1896846Y630105D01*
X-1867842Y617192D01*
X-1984636Y584669D02*
G01*
X-1994849Y584215D01*
X-2012960Y577260D01*
X-1974113Y664509D01*
X-2081875Y607943D02*
G01*
X-2014410Y647694D01*
X-2076594Y675383D01*
X-2081875Y607943D02*
G01*
X-2043031Y695192D01*
X-1806526Y724032D02*
G01*
X-1750392Y801296D01*
X-1806526Y724032D02*
G01*
X-1832213Y742693D01*
X-1840623Y754456D01*
X-1842439Y767077D01*
X-1840763Y777163D01*
X-1836399Y790948D01*
X-1823112Y809236D01*
X-1811352Y817646D01*
X-1802279Y822355D01*
X-1789861Y824321D01*
X-1776077Y819960D01*
X-1750392Y801296D01*
X-1871398Y793767D02*
G01*
X-1881482Y795446D01*
X-1900641Y792408D01*
X-1844504Y869675D01*
X-1932287Y815400D02*
G01*
X-1972767Y844814D01*
X-1929076Y858278D01*
X-1940173Y866340D01*
X-1945032Y875210D01*
X-1946043Y881595D01*
X-1941476Y895230D01*
X-1936099Y902627D01*
X-1924545Y911186D01*
X-1911924Y913003D01*
X-1898136Y908641D01*
X-1887042Y900579D01*
X-1878837Y888969D01*
X-1877829Y882581D01*
X-1879353Y872700D01*
X-1668205Y893053D02*
G01*
X-1597233Y956960D01*
X-1668205Y893053D02*
G01*
X-1689450Y916650D01*
X-1695231Y929904D01*
X-1694385Y942627D01*
X-1690646Y952144D01*
X-1683511Y964719D01*
X-1666714Y979845D01*
X-1653461Y985626D01*
X-1643608Y988347D01*
X-1631053Y987686D01*
X-1618477Y980554D01*
X-1597233Y956960D01*
X-1717159Y974755D02*
G01*
X-1726674Y978491D01*
X-1746046Y979505D01*
X-1675074Y1043411D01*
X-1752173Y1020475D02*
G01*
X-1755569Y1017414D01*
X-1765427Y1014694D01*
X-1771883Y1015032D01*
X-1781228Y1018580D01*
X-1793463Y1032172D01*
X-1796186Y1042024D01*
X-1795848Y1048484D01*
X-1792112Y1057998D01*
X-1785317Y1064117D01*
X-1775462Y1066838D01*
X-1759338Y1069047D01*
X-1695127Y1065684D01*
X-1737619Y1112875D01*
X-1497766Y1029624D02*
G01*
X-1415056Y1077376D01*
X-1497766Y1029624D02*
G01*
X-1513639Y1057120D01*
X-1516540Y1071285D01*
X-1513065Y1083556D01*
X-1507431Y1092088D01*
X-1497837Y1102906D01*
X-1478262Y1114209D01*
X-1464096Y1117107D01*
X-1453893Y1117719D01*
X-1441749Y1114463D01*
X-1430931Y1104874D01*
X-1415056Y1077376D01*
X-1528663Y1119718D02*
G01*
X-1537192Y1125352D01*
X-1555930Y1130371D01*
X-1473222Y1178123D01*
X-1555079Y1165471D02*
G01*
X-1563608Y1171105D01*
X-1582219Y1175905D01*
X-1499509Y1223657D01*
X-1302656Y1127772D02*
G01*
X-1211826Y1157284D01*
X-1302656Y1127772D02*
G01*
X-1312466Y1157968D01*
X-1312357Y1172428D01*
X-1306408Y1183706D01*
X-1299123Y1190881D01*
X-1287490Y1199469D01*
X-1265991Y1206454D01*
X-1251534Y1206342D01*
X-1241425Y1204821D01*
X-1230223Y1199113D01*
X-1221635Y1187483D01*
X-1211826Y1157284D01*
X-1314145Y1222321D02*
G01*
X-1321318Y1229606D01*
X-1338602Y1238410D01*
X-1247772Y1267924D01*
X-1356263Y1292763D02*
G01*
X-1347757Y1281374D01*
X-1331884Y1276916D01*
X-1308973Y1279552D01*
X-1295928Y1283792D01*
X-1275600Y1295204D01*
X-1265621Y1308059D01*
X-1265433Y1322275D01*
X-1268260Y1330972D01*
X-1276847Y1342605D01*
X-1292473Y1347139D01*
X-1315552Y1344183D01*
X-1328597Y1339943D01*
X-1348762Y1328854D01*
X-1358978Y1315918D01*
X-1359087Y1301460D01*
X-1356263Y1292763D01*
X-1091404Y1183210D02*
G01*
X-996424Y1193195D01*
X-1091404Y1183210D02*
G01*
X-1094722Y1214788D01*
X-1091608Y1228907D01*
X-1083444Y1238704D01*
X-1074826Y1244206D01*
X-1061664Y1250188D01*
X-1039182Y1252550D01*
X-1025062Y1249436D01*
X-1015491Y1245847D01*
X-1005720Y1237932D01*
X-999741Y1224770D01*
X-996424Y1193195D01*
X-1075532Y1338374D02*
G01*
X-1061664Y1335234D01*
X-1051615Y1327096D01*
X-1045662Y1314185D01*
X-1045182Y1309639D01*
X-1048296Y1295519D01*
X-1056434Y1285471D01*
X-1069345Y1279517D01*
X-1073891Y1279039D01*
X-1088009Y1282151D01*
X-1098059Y1290289D01*
X-1104041Y1303451D01*
X-1104518Y1308000D01*
X-1101379Y1321864D01*
X-1093241Y1331915D01*
X-1075532Y1338374D01*
X-1053048Y1340739D01*
X-1029837Y1338580D01*
X-1015491Y1330893D01*
X-1009538Y1317980D01*
X-1008580Y1308889D01*
X-1011694Y1294770D01*
X-1020058Y1289293D01*
X-873239Y1193515D02*
G01*
X-778258Y1183533D01*
X-873239Y1193515D02*
G01*
X-869919Y1225092D01*
X-863937Y1238257D01*
X-853917Y1246141D01*
X-844341Y1249733D01*
X-830224Y1252844D01*
X-807742Y1250482D01*
X-794578Y1244500D01*
X-785962Y1238999D01*
X-778052Y1229227D01*
X-774938Y1215110D01*
X-778258Y1183533D01*
X-861077Y1309209D02*
G01*
X-857963Y1295092D01*
X-849348Y1289588D01*
X-840254Y1288633D01*
X-830684Y1292227D01*
X-825179Y1300840D01*
X-818974Y1318577D01*
X-813020Y1331488D01*
X-802970Y1339626D01*
X-793396Y1343218D01*
X-779757Y1341785D01*
X-771395Y1336306D01*
X-767326Y1331282D01*
X-764212Y1317162D01*
X-766097Y1299227D01*
X-772078Y1286065D01*
X-777102Y1281996D01*
X-786422Y1278379D01*
X-800064Y1279812D01*
X-808677Y1285316D01*
X-816818Y1295364D01*
X-819929Y1309484D01*
X-822340Y1327871D01*
X-825931Y1337442D01*
X-834544Y1342943D01*
X-843640Y1343901D01*
X-853211Y1340309D01*
X-859193Y1327144D01*
X-861077Y1309209D01*
X-657702Y1158237D02*
G01*
X-566872Y1128725D01*
X-657702Y1158237D02*
G01*
X-647890Y1188432D01*
X-639302Y1200066D01*
X-627860Y1205694D01*
X-617748Y1207218D01*
X-603290Y1207328D01*
X-581792Y1200340D01*
X-570158Y1191755D01*
X-562876Y1184582D01*
X-557169Y1173378D01*
X-557060Y1158923D01*
X-566872Y1128725D01*
X-609117Y1307769D02*
G01*
X-532335Y1235016D01*
X-628817Y1247134D02*
G01*
X-609117Y1307769D01*
X-454207Y1078918D02*
G01*
X-371500Y1031166D01*
X-454207Y1078918D02*
G01*
X-438332Y1106413D01*
X-427515Y1116007D01*
X-415152Y1119134D01*
X-404944Y1118522D01*
X-390781Y1115621D01*
X-371205Y1104318D01*
X-361612Y1093500D01*
X-355978Y1084971D01*
X-352724Y1072824D01*
X-355622Y1058661D01*
X-371500Y1031166D01*
X-368287Y1200302D02*
G01*
X-378493Y1200914D01*
X-389183Y1191541D01*
X-393755Y1183622D01*
X-396654Y1169459D01*
X-389348Y1154681D01*
X-372056Y1139418D01*
X-352259Y1127988D01*
X-334134Y1122804D01*
X-321866Y1126276D01*
X-311045Y1135870D01*
X-308762Y1139830D01*
X-305991Y1153774D01*
X-309118Y1166139D01*
X-318706Y1176957D01*
X-322666Y1179243D01*
X-336834Y1182141D01*
X-349323Y1178793D01*
X-359793Y1169294D01*
X-362079Y1165334D01*
X-365198Y1151298D01*
X-361850Y1138809D01*
X-352259Y1127988D01*
X-271652Y959022D02*
G01*
X-200680Y895118D01*
X-271652Y959022D02*
G01*
X-250408Y982616D01*
X-237832Y989751D01*
X-225089Y990239D01*
X-215231Y987518D01*
X-201980Y981737D01*
X-185183Y966609D01*
X-178048Y954034D01*
X-174312Y944519D01*
X-173654Y931964D01*
X-179433Y918712D01*
X-200680Y895118D01*
X-172567Y1069070D02*
G01*
X-202989Y1035281D01*
X-175658Y1004519D01*
X-175806Y1010805D01*
X-170030Y1024059D01*
X-160850Y1034252D01*
X-148445Y1041196D01*
X-135719Y1042042D01*
X-122466Y1036261D01*
X-115671Y1030145D01*
X-108536Y1017569D01*
X-108051Y1004826D01*
X-113659Y991760D01*
X-122839Y981567D01*
X-135415Y974435D01*
X-141871Y974097D01*
X-151536Y976647D01*
X-117977Y803534D02*
G01*
X-61991Y726475D01*
X-117977Y803534D02*
G01*
X-92290Y822195D01*
X-78656Y826764D01*
X-65885Y824743D01*
X-56809Y820031D01*
X-45049Y811623D01*
X-31762Y793333D01*
X-27398Y779551D01*
X-25722Y769465D01*
X-27894Y756899D01*
X-36304Y745136D01*
X-61991Y726475D01*
X-5369Y885350D02*
G01*
X-4825Y807252D01*
X50243Y847265D01*
X-5369Y885350D02*
G01*
X50617Y808291D01*
X1887Y610943D02*
G01*
X40731Y523694D01*
X1887Y610943D02*
G01*
X30891Y623857D01*
X45280Y625259D01*
X57249Y620857D01*
X65145Y614362D01*
X74902Y603691D01*
X84096Y583041D01*
X85498Y568650D01*
X85041Y558436D01*
X80406Y546364D01*
X69735Y536610D01*
X40731Y523694D01*
X95631Y652680D02*
G01*
X141343Y673033D01*
X131287Y628797D01*
X143817Y634375D01*
X153799Y633813D01*
X159834Y631497D01*
X169486Y621057D01*
X173207Y612706D01*
X174609Y598314D01*
X169974Y586242D01*
X159534Y576590D01*
X147005Y571012D01*
X132615Y569610D01*
X126812Y572030D01*
X118915Y578525D01*
X72735Y414256D02*
G01*
X92590Y320840D01*
X72735Y414256D02*
G01*
X103792Y420857D01*
X118158Y419237D01*
X128950Y412442D01*
X135323Y404449D01*
X142648Y391985D01*
X147347Y369872D01*
X145727Y355506D01*
X143156Y345610D01*
X136113Y334764D01*
X123647Y327441D01*
X92590Y320840D01*
X173586Y412582D02*
G01*
X172633Y417055D01*
X175011Y426648D01*
X178531Y432071D01*
X186524Y438444D01*
X204414Y442247D01*
X214058Y439623D01*
X219481Y436100D01*
X225803Y428355D01*
X227703Y419412D01*
X225132Y409516D01*
X219288Y394253D01*
X184269Y340326D01*
X246382Y353529D01*
X106400Y200560D02*
G01*
X106400Y105056D01*
X106400Y200560D02*
G01*
X138150Y200560D01*
X151866Y195988D01*
X161010Y187098D01*
X165582Y177954D01*
X170154Y164238D01*
X170154Y141632D01*
X165582Y127916D01*
X161010Y118772D01*
X151866Y109628D01*
X138150Y105056D01*
X106400Y105056D01*
X200126Y182526D02*
G01*
X209016Y187098D01*
X222732Y200560D01*
X222732Y105056D01*
X98425Y-2973196D02*
G01*
X93853Y-2964052D01*
X84709Y-2954909D01*
X75565Y-2950590D01*
X57531Y-2950590D01*
X48387Y-2954909D01*
X39243Y-2964052D01*
X34671Y-2973196D01*
X30099Y-2986912D01*
X30099Y-3009518D01*
X34671Y-3023234D01*
X39243Y-3032378D01*
X48387Y-3041268D01*
X57531Y-3045840D01*
X75565Y-3045840D01*
X84709Y-3041268D01*
X93853Y-3032378D01*
X98425Y-3023234D01*
X187579Y-2982340D02*
G01*
X183006Y-2995802D01*
X173863Y-3004946D01*
X160147Y-3009518D01*
X155575Y-3009518D01*
X142113Y-3004946D01*
X132969Y-2995802D01*
X128397Y-2982340D01*
X128397Y-2977768D01*
X132969Y-2964052D01*
X142113Y-2954909D01*
X155575Y-2950590D01*
X160147Y-2950590D01*
X173863Y-2954909D01*
X183006Y-2964052D01*
X187579Y-2982340D01*
X187579Y-3004946D01*
X183006Y-3027806D01*
X173863Y-3041268D01*
X160147Y-3045840D01*
X151003Y-3045840D01*
X137540Y-3041268D01*
X132969Y-3032378D01*
G36*
X-173380Y-3178556D02*
G01*
X-150876Y-3201060D01*
X-128371Y-3178556D01*
G37*
G36*
X-1884222Y160528D02*
G01*
X-1906727Y138023D01*
X-1861718Y138023D01*
G37*
G36*
X-1865579Y-36728D02*
G01*
X-1882902Y-63398D01*
X-1838909Y-54051D01*
G37*
G36*
X-1806346Y-225755D02*
G01*
X-1817776Y-255422D01*
X-1776628Y-237134D01*
G37*
G36*
X-1709115Y-398322D02*
G01*
X-1714093Y-429768D01*
X-1677670Y-403301D01*
G37*
G36*
X-1546352Y-545287D02*
G01*
X-1578152Y-546912D01*
X-1576476Y-578713D01*
G37*
G36*
X-1388364Y-656793D02*
G01*
X-1419098Y-665073D01*
X-1410868Y-695807D01*
G37*
G36*
X-1210665Y-733094D02*
G01*
X-1239012Y-747522D01*
X-1224534Y-775868D01*
G37*
G36*
X-1020927Y-770737D02*
G01*
X-1045667Y-790752D01*
X-1025652Y-815492D01*
G37*
G36*
X-827582Y-768096D02*
G01*
X-847598Y-792835D01*
X-822858Y-812850D01*
G37*
G36*
X-638962Y-725322D02*
G01*
X-653389Y-753719D01*
X-625043Y-768146D01*
G37*
G36*
X-463346Y-644296D02*
G01*
X-471576Y-675030D01*
X-440842Y-683260D01*
G37*
G36*
X-308457Y-528523D02*
G01*
X-310134Y-560273D01*
X-278333Y-561949D01*
G37*
G36*
X-181000Y-383082D02*
G01*
X-176022Y-414477D01*
X-144576Y-409498D01*
G37*
G36*
X-86563Y-214274D02*
G01*
X-75184Y-243992D01*
X-45466Y-232562D01*
G37*
G36*
X-29311Y-29565D02*
G01*
X-11988Y-56235D01*
X14732Y-38912D01*
G37*
G36*
X-1858010Y357276D02*
G01*
X-1884730Y339953D01*
X-1840687Y330606D01*
G37*
G36*
X-1794814Y545033D02*
G01*
X-1824532Y533654D01*
X-1783435Y515315D01*
G37*
G36*
X-1693976Y715518D02*
G01*
X-1725422Y710539D01*
X-1688998Y684123D01*
G37*
G36*
X-1591665Y862990D02*
G01*
X-1561541Y829564D01*
X-1559864Y861364D01*
G37*
G36*
X-1429156Y984300D02*
G01*
X-1406652Y945337D01*
X-1398422Y976071D01*
G37*
G36*
X-1244955Y1069187D02*
G01*
X-1231036Y1026414D01*
X-1216609Y1054760D01*
G37*
G36*
X-1047140Y1113891D02*
G01*
X-1042416Y1069136D01*
X-1022400Y1093876D01*
G37*
G36*
X-844346Y1116533D02*
G01*
X-849071Y1071778D01*
X-824331Y1091793D01*
G37*
G36*
X-645464Y1076909D02*
G01*
X-659333Y1034135D01*
X-630986Y1048562D01*
G37*
G36*
X-459130Y996848D02*
G01*
X-481634Y957884D01*
X-450900Y966114D01*
G37*
G36*
X-293522Y879754D02*
G01*
X-323646Y846328D01*
X-291846Y848004D01*
G37*
G36*
X-155905Y730808D02*
G01*
X-192278Y704342D01*
X-160883Y699363D01*
G37*
G36*
X-52222Y556514D02*
G01*
X-93370Y538175D01*
X-63652Y526796D01*
G37*
G36*
X12903Y364439D02*
G01*
X-31089Y355092D01*
X-4419Y337769D01*
G37*
G36*
X-8280Y163017D02*
G01*
X14224Y140512D01*
X36728Y163017D01*
G37*
D12*
X-308394Y-3241128D02*
G01*
X-308394Y-3301070D01*
X-253273Y-3301075D01*
X-288376Y-3101075D02*
G01*
X-108371Y-3101073D01*
X-108366Y-3281083D01*
X-288381Y-3281083D01*
X-288376Y-3101075D01*
X-1726704Y200573D02*
G01*
X-1726704Y260517D01*
X-1781822Y260517D01*
X-1746719Y60518D02*
G01*
X-1926729Y60518D01*
X-1926729Y240527D01*
X-1746719Y240527D01*
X-1746719Y60518D01*
X-1719846Y35229D02*
G01*
X-1732310Y93863D01*
X-1786224Y82405D01*
X-1710306Y-105925D02*
G01*
X-1886381Y-143352D01*
X-1923808Y32722D01*
X-1747730Y70149D01*
X-1710306Y-105925D01*
X-1678762Y-125077D02*
G01*
X-1703146Y-70314D01*
X-1753499Y-92732D01*
X-1640083Y-261165D02*
G01*
X-1804530Y-334380D01*
X-1877745Y-169936D01*
X-1713298Y-96718D01*
X-1640083Y-261165D01*
X-1605246Y-273337D02*
G01*
X-1640479Y-224843D01*
X-1685074Y-257238D01*
X-1539118Y-398409D02*
G01*
X-1684746Y-504215D01*
X-1790555Y-358587D01*
X-1644921Y-252778D01*
X-1539118Y-398409D01*
X-1502511Y-403075D02*
G01*
X-1547058Y-362965D01*
X-1583941Y-403923D01*
X-1411823Y-511665D02*
G01*
X-1532272Y-645436D01*
X-1666046Y-524990D01*
X-1545595Y-391213D01*
X-1411823Y-511665D01*
X-1375049Y-508614D02*
G01*
X-1426959Y-478645D01*
X-1454523Y-526376D01*
X-1263766Y-595977D02*
G01*
X-1353769Y-751867D01*
X-1509661Y-661865D01*
X-1419656Y-505970D01*
X-1263766Y-595977D01*
X-1228427Y-585348D02*
G01*
X-1285435Y-566826D01*
X-1302471Y-619246D01*
X-1101412Y-647664D02*
G01*
X-1157036Y-818862D01*
X-1328237Y-763239D01*
X-1272608Y-592035D01*
X-1101412Y-647664D01*
X-1069058Y-629919D02*
G01*
X-1128669Y-623656D01*
X-1134435Y-678472D01*
X-931862Y-664466D02*
G01*
X-950676Y-843488D01*
X-1129700Y-824674D01*
X-1110884Y-645647D01*
X-931862Y-664466D01*
X-903899Y-640384D02*
G01*
X-963513Y-646650D01*
X-957755Y-701466D01*
X-762520Y-645652D02*
G01*
X-743701Y-824671D01*
X-922726Y-843490D01*
X-941542Y-664463D01*
X-762520Y-645652D01*
X-740178Y-616282D02*
G01*
X-797186Y-634804D01*
X-780155Y-687227D01*
X-600793Y-592038D02*
G01*
X-545167Y-763236D01*
X-716363Y-818865D01*
X-771992Y-647661D01*
X-600793Y-592038D01*
X-585045Y-558665D02*
G01*
X-636955Y-588637D01*
X-609399Y-636374D01*
X-453745Y-505973D02*
G01*
X-363740Y-661863D01*
X-519633Y-751870D01*
X-609638Y-595975D01*
X-453745Y-505973D01*
X-445282Y-470057D02*
G01*
X-489826Y-510164D01*
X-452948Y-551129D01*
X-327807Y-391215D02*
G01*
X-207357Y-524987D01*
X-341129Y-645439D01*
X-461581Y-511662D01*
X-327807Y-391215D01*
X-326994Y-354322D02*
G01*
X-362226Y-402816D01*
X-317637Y-435216D01*
X-228478Y-252780D02*
G01*
X-82849Y-358584D01*
X-188653Y-504217D01*
X-334286Y-398409D01*
X-228478Y-252780D01*
X-235353Y-216524D02*
G01*
X-259735Y-271284D01*
X-209382Y-293705D01*
X-160103Y-96720D02*
G01*
X4343Y-169933D01*
X-68872Y-334380D01*
X-233321Y-261162D01*
X-160103Y-96720D01*
X-174368Y-62684D02*
G01*
X-186829Y-121315D01*
X-132915Y-132781D01*
X-125669Y70147D02*
G01*
X50403Y32722D01*
X12981Y-143352D01*
X-163098Y-105925D01*
X-125669Y70147D01*
X-1695630Y363730D02*
G01*
X-1683169Y422361D01*
X-1737083Y433826D01*
X-1744329Y230898D02*
G01*
X-1920402Y268323D01*
X-1882980Y444398D01*
X-1706900Y406971D01*
X-1744329Y230898D01*
X-1634644Y517570D02*
G01*
X-1610263Y572330D01*
X-1660616Y594751D01*
X-1709894Y397766D02*
G01*
X-1874342Y470979D01*
X-1801126Y635426D01*
X-1636676Y562208D01*
X-1709894Y397766D01*
X-1543004Y655368D02*
G01*
X-1507771Y703861D01*
X-1552361Y736262D01*
X-1641520Y553826D02*
G01*
X-1787149Y659630D01*
X-1681345Y805263D01*
X-1535711Y699455D01*
X-1641520Y553826D01*
X-1424716Y771103D02*
G01*
X-1380172Y811209D01*
X-1417050Y852175D01*
X-1542191Y692261D02*
G01*
X-1662640Y826033D01*
X-1528869Y946485D01*
X-1408417Y812708D01*
X-1542191Y692261D01*
X-1284952Y859711D02*
G01*
X-1233043Y889683D01*
X-1260599Y937420D01*
X-1416253Y807018D02*
G01*
X-1506258Y962908D01*
X-1350365Y1052916D01*
X-1260360Y897021D01*
X-1416253Y807018D01*
X-1129819Y917328D02*
G01*
X-1072812Y935850D01*
X-1089842Y988273D01*
X-1269204Y893084D02*
G01*
X-1324830Y1064282D01*
X-1153634Y1119911D01*
X-1098006Y948707D01*
X-1269204Y893084D01*
X-966099Y941430D02*
G01*
X-906485Y947696D01*
X-912243Y1002512D01*
X-1107478Y946698D02*
G01*
X-1126296Y1125717D01*
X-947272Y1144536D01*
X-928456Y965509D01*
X-1107478Y946698D01*
X-800940Y930965D02*
G01*
X-741329Y924702D01*
X-735563Y979517D01*
X-938136Y965512D02*
G01*
X-919322Y1144534D01*
X-740298Y1125720D01*
X-759114Y946693D01*
X-938136Y965512D01*
X-641570Y886393D02*
G01*
X-584563Y867872D01*
X-567527Y920292D01*
X-768586Y948710D02*
G01*
X-712962Y1119908D01*
X-541761Y1064285D01*
X-597390Y893081D01*
X-768586Y948710D01*
X-494949Y809660D02*
G01*
X-443039Y779691D01*
X-415475Y827422D01*
X-606231Y897023D02*
G01*
X-516229Y1052913D01*
X-360337Y962911D01*
X-450341Y807016D01*
X-606231Y897023D01*
X-367487Y704121D02*
G01*
X-322940Y664011D01*
X-286057Y704969D01*
X-458175Y812711D02*
G01*
X-337726Y946482D01*
X-203951Y826035D01*
X-324403Y692259D01*
X-458175Y812711D01*
X-264751Y574382D02*
G01*
X-229519Y525889D01*
X-184924Y558284D01*
X-330880Y699455D02*
G01*
X-185252Y805261D01*
X-79443Y659632D01*
X-225077Y553824D01*
X-330880Y699455D01*
X-191236Y426123D02*
G01*
X-166852Y371360D01*
X-116499Y393778D01*
X-229915Y562211D02*
G01*
X-65468Y635426D01*
X7747Y470982D01*
X-156700Y397764D01*
X-229915Y562211D01*
X-150152Y265816D02*
G01*
X-137688Y207182D01*
X-83774Y218640D01*
X-159692Y406971D02*
G01*
X16383Y444398D01*
X53809Y268323D01*
X-122267Y230896D01*
X-159692Y406971D01*
X-143294Y100472D02*
G01*
X-143294Y40528D01*
X-88176Y40528D01*
X-123278Y240527D02*
G01*
X56730Y240527D01*
X56730Y60518D01*
X-123278Y60518D01*
X-123278Y240527D01*
D13*
X-286600Y-3040555D02*
G01*
X-286600Y-2960552D01*
X-175625Y-3071540D02*
G01*
X-255623Y-3071540D01*
X-175625Y-2929575D02*
G01*
X-255623Y-2929575D01*
X-118036Y-3072122D02*
G01*
X-38036Y-3072122D01*
X-7053Y-3041139D02*
G01*
X-7053Y-2961142D01*
X-118036Y-2930161D02*
G01*
X-38036Y-2930161D01*
G75*
G01*
X-7049Y-3041139D02*
G02*
X-38031Y-3072122I-30982J0D01*
G75*
G01*
X-38031Y-2930157D02*
G02*
X-7049Y-2961142I0J-30983D01*
G75*
G01*
X-255618Y-3071541D02*
G02*
X-286601Y-3040555I0J30983D01*
G75*
G01*
X-286601Y-2960558D02*
G02*
X-255618Y-2929575I30983J0D01*
M02*
