G04 Layer: BottomSilkscreenLayer*
G04 EasyEDA v6.5.29, 2023-07-18 11:35:47*
G04 afcbc65135b8487390061542234f1994,5a6b42c53f6a479593ecc07194224c93,10*
G04 Gerber Generator version 0.2*
G04 Scale: 100 percent, Rotated: No, Reflected: No *
G04 Dimensions in millimeters *
G04 leading zeros omitted , absolute positions ,4 integer and 5 decimal *
%FSLAX45Y45*%
%MOMM*%

%ADD10C,0.2032*%
%ADD11C,0.1524*%
%ADD12C,0.2540*%

%LPD*%
D10*
X62682Y-3478260D02*
G01*
X68138Y-3467351D01*
X79047Y-3456442D01*
X89954Y-3450988D01*
X111772Y-3450988D01*
X122681Y-3456442D01*
X133591Y-3467351D01*
X139047Y-3478260D01*
X144500Y-3494623D01*
X144500Y-3521895D01*
X139047Y-3538260D01*
X133591Y-3549169D01*
X122681Y-3560079D01*
X111772Y-3565532D01*
X89954Y-3565532D01*
X79047Y-3560079D01*
X68138Y-3549169D01*
X62682Y-3538260D01*
X-6045Y-3450988D02*
G01*
X4864Y-3456442D01*
X15773Y-3467351D01*
X21229Y-3478260D01*
X26682Y-3494623D01*
X26682Y-3521895D01*
X21229Y-3538260D01*
X15773Y-3549169D01*
X4864Y-3560079D01*
X-6045Y-3565532D01*
X-27863Y-3565532D01*
X-38770Y-3560079D01*
X-49679Y-3549169D01*
X-55135Y-3538260D01*
X-60589Y-3521895D01*
X-60589Y-3494623D01*
X-55135Y-3478260D01*
X-49679Y-3467351D01*
X-38770Y-3456442D01*
X-27863Y-3450988D01*
X-6045Y-3450988D01*
X-96588Y-3450988D02*
G01*
X-96588Y-3565532D01*
X-96588Y-3450988D02*
G01*
X-145681Y-3450988D01*
X-162044Y-3456442D01*
X-167497Y-3461895D01*
X-172953Y-3472804D01*
X-172953Y-3489170D01*
X-167497Y-3500079D01*
X-162044Y-3505532D01*
X-145681Y-3510988D01*
X-96588Y-3510988D01*
X-208953Y-3450988D02*
G01*
X-252590Y-3505532D01*
X-252590Y-3565532D01*
X-296224Y-3450988D02*
G01*
X-252590Y-3505532D01*
X-332226Y-3450988D02*
G01*
X-332226Y-3565532D01*
X-332226Y-3450988D02*
G01*
X-381317Y-3450988D01*
X-397680Y-3456442D01*
X-403133Y-3461895D01*
X-408589Y-3472804D01*
X-408589Y-3483714D01*
X-403133Y-3494623D01*
X-397680Y-3500079D01*
X-381317Y-3505532D01*
X-332226Y-3505532D01*
X-370408Y-3505532D02*
G01*
X-408589Y-3565532D01*
X-444588Y-3450988D02*
G01*
X-444588Y-3565532D01*
X-562406Y-3478260D02*
G01*
X-556953Y-3467351D01*
X-546044Y-3456442D01*
X-535134Y-3450988D01*
X-513316Y-3450988D01*
X-502406Y-3456442D01*
X-491497Y-3467351D01*
X-486044Y-3478260D01*
X-480588Y-3494623D01*
X-480588Y-3521895D01*
X-486044Y-3538260D01*
X-491497Y-3549169D01*
X-502406Y-3560079D01*
X-513316Y-3565532D01*
X-535134Y-3565532D01*
X-546044Y-3560079D01*
X-556953Y-3549169D01*
X-562406Y-3538260D01*
X-562406Y-3521895D01*
X-535134Y-3521895D02*
G01*
X-562406Y-3521895D01*
X-598406Y-3450988D02*
G01*
X-598406Y-3565532D01*
X-674771Y-3450988D02*
G01*
X-674771Y-3565532D01*
X-598406Y-3505532D02*
G01*
X-674771Y-3505532D01*
X-748952Y-3450988D02*
G01*
X-748952Y-3565532D01*
X-710770Y-3450988D02*
G01*
X-787133Y-3450988D01*
X-912588Y-3478260D02*
G01*
X-912588Y-3472804D01*
X-918042Y-3461895D01*
X-923498Y-3456442D01*
X-934407Y-3450988D01*
X-956223Y-3450988D01*
X-967132Y-3456442D01*
X-972588Y-3461895D01*
X-978042Y-3472804D01*
X-978042Y-3483714D01*
X-972588Y-3494623D01*
X-961679Y-3510988D01*
X-907133Y-3565532D01*
X-983498Y-3565532D01*
X-1052225Y-3450988D02*
G01*
X-1035860Y-3456442D01*
X-1024950Y-3472804D01*
X-1019497Y-3500079D01*
X-1019497Y-3516442D01*
X-1024950Y-3543714D01*
X-1035860Y-3560079D01*
X-1052225Y-3565532D01*
X-1063132Y-3565532D01*
X-1079497Y-3560079D01*
X-1090406Y-3543714D01*
X-1095860Y-3516442D01*
X-1095860Y-3500079D01*
X-1090406Y-3472804D01*
X-1079497Y-3456442D01*
X-1063132Y-3450988D01*
X-1052225Y-3450988D01*
X-1137315Y-3478260D02*
G01*
X-1137315Y-3472804D01*
X-1142768Y-3461895D01*
X-1148224Y-3456442D01*
X-1159134Y-3450988D01*
X-1180950Y-3450988D01*
X-1191859Y-3456442D01*
X-1197315Y-3461895D01*
X-1202768Y-3472804D01*
X-1202768Y-3483714D01*
X-1197315Y-3494623D01*
X-1186406Y-3510988D01*
X-1131859Y-3565532D01*
X-1208224Y-3565532D01*
X-1255133Y-3450988D02*
G01*
X-1315133Y-3450988D01*
X-1282405Y-3494623D01*
X-1298768Y-3494623D01*
X-1309677Y-3500079D01*
X-1315133Y-3505532D01*
X-1320586Y-3521895D01*
X-1320586Y-3532804D01*
X-1315133Y-3549169D01*
X-1304223Y-3560079D01*
X-1287861Y-3565532D01*
X-1271496Y-3565532D01*
X-1255133Y-3560079D01*
X-1249677Y-3554623D01*
X-1244224Y-3543714D01*
X-1440586Y-3450988D02*
G01*
X-1484223Y-3565532D01*
X-1527860Y-3450988D02*
G01*
X-1484223Y-3565532D01*
X-1563860Y-3450988D02*
G01*
X-1563860Y-3565532D01*
X-1563860Y-3450988D02*
G01*
X-1634769Y-3450988D01*
X-1563860Y-3505532D02*
G01*
X-1607494Y-3505532D01*
X-1563860Y-3565532D02*
G01*
X-1634769Y-3565532D01*
X-1747131Y-3450988D02*
G01*
X-1692587Y-3565532D01*
X-1670768Y-3450988D02*
G01*
X-1747131Y-3450988D01*
X-1783130Y-3450988D02*
G01*
X-1783130Y-3565532D01*
X-1783130Y-3450988D02*
G01*
X-1854039Y-3450988D01*
X-1783130Y-3505532D02*
G01*
X-1826768Y-3505532D01*
X-1890041Y-3450988D02*
G01*
X-1890041Y-3565532D01*
X-1926041Y-3450988D02*
G01*
X-1926041Y-3565532D01*
X-1926041Y-3450988D02*
G01*
X-1969676Y-3565532D01*
X-2013313Y-3450988D02*
G01*
X-1969676Y-3565532D01*
X-2013313Y-3450988D02*
G01*
X-2013313Y-3565532D01*
X-384809Y-2583942D02*
G01*
X-384809Y-2671317D01*
X-379221Y-2687573D01*
X-373887Y-2693161D01*
X-362965Y-2698495D01*
X-352043Y-2698495D01*
X-341121Y-2693161D01*
X-335534Y-2687573D01*
X-330200Y-2671317D01*
X-330200Y-2660395D01*
X-420623Y-2583942D02*
G01*
X-420623Y-2698495D01*
X-420623Y-2698495D02*
G01*
X-486155Y-2698495D01*
X-604011Y-2611373D02*
G01*
X-598677Y-2600451D01*
X-587755Y-2589529D01*
X-576834Y-2583942D01*
X-554989Y-2583942D01*
X-544068Y-2589529D01*
X-533145Y-2600451D01*
X-527557Y-2611373D01*
X-522223Y-2627629D01*
X-522223Y-2654807D01*
X-527557Y-2671317D01*
X-533145Y-2682239D01*
X-544068Y-2693161D01*
X-554989Y-2698495D01*
X-576834Y-2698495D01*
X-587755Y-2693161D01*
X-598677Y-2682239D01*
X-604011Y-2671317D01*
X-694436Y-2583942D02*
G01*
X-694436Y-2671317D01*
X-689102Y-2687573D01*
X-683768Y-2693161D01*
X-672845Y-2698495D01*
X-661923Y-2698495D01*
X-651002Y-2693161D01*
X-645413Y-2687573D01*
X-640079Y-2671317D01*
X-640079Y-2660395D01*
X-730503Y-2583942D02*
G01*
X-730503Y-2698495D01*
X-730503Y-2698495D02*
G01*
X-796036Y-2698495D01*
X-913891Y-2611373D02*
G01*
X-908303Y-2600451D01*
X-897381Y-2589529D01*
X-886459Y-2583942D01*
X-864869Y-2583942D01*
X-853947Y-2589529D01*
X-843025Y-2600451D01*
X-837437Y-2611373D01*
X-832103Y-2627629D01*
X-832103Y-2654807D01*
X-837437Y-2671317D01*
X-843025Y-2682239D01*
X-853947Y-2693161D01*
X-864869Y-2698495D01*
X-886459Y-2698495D01*
X-897381Y-2693161D01*
X-908303Y-2682239D01*
X-913891Y-2671317D01*
X-1004315Y-2583942D02*
G01*
X-1004315Y-2671317D01*
X-998981Y-2687573D01*
X-993393Y-2693161D01*
X-982471Y-2698495D01*
X-971550Y-2698495D01*
X-960627Y-2693161D01*
X-955293Y-2687573D01*
X-949959Y-2671317D01*
X-949959Y-2660395D01*
X-1040384Y-2583942D02*
G01*
X-1040384Y-2698495D01*
X-1040384Y-2698495D02*
G01*
X-1105915Y-2698495D01*
X-1223771Y-2611373D02*
G01*
X-1218184Y-2600451D01*
X-1207261Y-2589529D01*
X-1196339Y-2583942D01*
X-1174495Y-2583942D01*
X-1163573Y-2589529D01*
X-1152652Y-2600451D01*
X-1147318Y-2611373D01*
X-1141729Y-2627629D01*
X-1141729Y-2654807D01*
X-1147318Y-2671317D01*
X-1152652Y-2682239D01*
X-1163573Y-2693161D01*
X-1174495Y-2698495D01*
X-1196339Y-2698495D01*
X-1207261Y-2693161D01*
X-1218184Y-2682239D01*
X-1223771Y-2671317D01*
X-1314195Y-2583942D02*
G01*
X-1314195Y-2671317D01*
X-1308861Y-2687573D01*
X-1303273Y-2693161D01*
X-1292352Y-2698495D01*
X-1281429Y-2698495D01*
X-1270507Y-2693161D01*
X-1265173Y-2687573D01*
X-1259586Y-2671317D01*
X-1259586Y-2660395D01*
X-1350263Y-2583942D02*
G01*
X-1350263Y-2698495D01*
X-1350263Y-2698495D02*
G01*
X-1415541Y-2698495D01*
X-1533397Y-2611373D02*
G01*
X-1528063Y-2600451D01*
X-1517141Y-2589529D01*
X-1506219Y-2583942D01*
X-1484375Y-2583942D01*
X-1473453Y-2589529D01*
X-1462531Y-2600451D01*
X-1457197Y-2611373D01*
X-1451609Y-2627629D01*
X-1451609Y-2654807D01*
X-1457197Y-2671317D01*
X-1462531Y-2682239D01*
X-1473453Y-2693161D01*
X-1484375Y-2698495D01*
X-1506219Y-2698495D01*
X-1517141Y-2693161D01*
X-1528063Y-2682239D01*
X-1533397Y-2671317D01*
X660400Y7309289D02*
G01*
X660400Y7194745D01*
X660400Y7309289D02*
G01*
X616762Y7194745D01*
X573128Y7309289D02*
G01*
X616762Y7194745D01*
X573128Y7309289D02*
G01*
X573128Y7194745D01*
X438945Y7331108D02*
G01*
X537128Y7156564D01*
X402945Y7309289D02*
G01*
X402945Y7194745D01*
X402945Y7309289D02*
G01*
X332036Y7309289D01*
X402945Y7254745D02*
G01*
X359310Y7254745D01*
X402945Y7194745D02*
G01*
X332036Y7194745D01*
X212036Y7309289D02*
G01*
X212036Y7194745D01*
X212036Y7309289D02*
G01*
X162946Y7309289D01*
X146583Y7303836D01*
X141127Y7298382D01*
X135674Y7287473D01*
X135674Y7271108D01*
X141127Y7260198D01*
X146583Y7254745D01*
X162946Y7249289D01*
X212036Y7249289D01*
X66946Y7309289D02*
G01*
X77856Y7303836D01*
X88765Y7292926D01*
X94218Y7282017D01*
X99674Y7265654D01*
X99674Y7238382D01*
X94218Y7222017D01*
X88765Y7211108D01*
X77856Y7200198D01*
X66946Y7194745D01*
X45128Y7194745D01*
X34218Y7200198D01*
X23309Y7211108D01*
X17856Y7222017D01*
X12400Y7238382D01*
X12400Y7265654D01*
X17856Y7282017D01*
X23309Y7292926D01*
X34218Y7303836D01*
X45128Y7309289D01*
X66946Y7309289D01*
X-23599Y7309289D02*
G01*
X-50871Y7194745D01*
X-78143Y7309289D02*
G01*
X-50871Y7194745D01*
X-78143Y7309289D02*
G01*
X-105417Y7194745D01*
X-132689Y7309289D02*
G01*
X-105417Y7194745D01*
X-168689Y7309289D02*
G01*
X-168689Y7194745D01*
X-168689Y7309289D02*
G01*
X-239598Y7309289D01*
X-168689Y7254745D02*
G01*
X-212326Y7254745D01*
X-168689Y7194745D02*
G01*
X-239598Y7194745D01*
X-275597Y7309289D02*
G01*
X-275597Y7194745D01*
X-275597Y7309289D02*
G01*
X-324688Y7309289D01*
X-341053Y7303836D01*
X-346506Y7298382D01*
X-351962Y7287473D01*
X-351962Y7276564D01*
X-346506Y7265654D01*
X-341053Y7260198D01*
X-324688Y7254745D01*
X-275597Y7254745D01*
X-313778Y7254745D02*
G01*
X-351962Y7194745D01*
X-471962Y7309289D02*
G01*
X-471962Y7194745D01*
X-471962Y7194745D02*
G01*
X-537415Y7194745D01*
X-573415Y7309289D02*
G01*
X-573415Y7194745D01*
X-573415Y7309289D02*
G01*
X-644324Y7309289D01*
X-573415Y7254745D02*
G01*
X-617052Y7254745D01*
X-573415Y7194745D02*
G01*
X-644324Y7194745D01*
X-680323Y7309289D02*
G01*
X-680323Y7194745D01*
X-680323Y7309289D02*
G01*
X-718507Y7309289D01*
X-734870Y7303836D01*
X-745779Y7292926D01*
X-751232Y7282017D01*
X-756688Y7265654D01*
X-756688Y7238382D01*
X-751232Y7222017D01*
X-745779Y7211108D01*
X-734870Y7200198D01*
X-718507Y7194745D01*
X-680323Y7194745D01*
X-876688Y7309289D02*
G01*
X-876688Y7194745D01*
X-876688Y7309289D02*
G01*
X-925779Y7309289D01*
X-942141Y7303836D01*
X-947597Y7298382D01*
X-953051Y7287473D01*
X-953051Y7276564D01*
X-947597Y7265654D01*
X-942141Y7260198D01*
X-925779Y7254745D01*
X-876688Y7254745D02*
G01*
X-925779Y7254745D01*
X-942141Y7249289D01*
X-947597Y7243836D01*
X-953051Y7232926D01*
X-953051Y7216564D01*
X-947597Y7205654D01*
X-942141Y7200198D01*
X-925779Y7194745D01*
X-876688Y7194745D01*
X-1021778Y7309289D02*
G01*
X-1010869Y7303836D01*
X-999959Y7292926D01*
X-994506Y7282017D01*
X-989050Y7265654D01*
X-989050Y7238382D01*
X-994506Y7222017D01*
X-999959Y7211108D01*
X-1010869Y7200198D01*
X-1021778Y7194745D01*
X-1043597Y7194745D01*
X-1054506Y7200198D01*
X-1065415Y7211108D01*
X-1070869Y7222017D01*
X-1076325Y7238382D01*
X-1076325Y7265654D01*
X-1070869Y7282017D01*
X-1065415Y7292926D01*
X-1054506Y7303836D01*
X-1043597Y7309289D01*
X-1021778Y7309289D01*
X-1155959Y7309289D02*
G01*
X-1112324Y7194745D01*
X-1155959Y7309289D02*
G01*
X-1199596Y7194745D01*
X-1128687Y7232926D02*
G01*
X-1183233Y7232926D01*
X-1235595Y7309289D02*
G01*
X-1235595Y7194745D01*
X-1235595Y7309289D02*
G01*
X-1284686Y7309289D01*
X-1301051Y7303836D01*
X-1306504Y7298382D01*
X-1311960Y7287473D01*
X-1311960Y7276564D01*
X-1306504Y7265654D01*
X-1301051Y7260198D01*
X-1284686Y7254745D01*
X-1235595Y7254745D01*
X-1273776Y7254745D02*
G01*
X-1311960Y7194745D01*
X-1347960Y7309289D02*
G01*
X-1347960Y7194745D01*
X-1347960Y7309289D02*
G01*
X-1386141Y7309289D01*
X-1402504Y7303836D01*
X-1413413Y7292926D01*
X-1418869Y7282017D01*
X-1424322Y7265654D01*
X-1424322Y7238382D01*
X-1418869Y7222017D01*
X-1413413Y7211108D01*
X-1402504Y7200198D01*
X-1386141Y7194745D01*
X-1347960Y7194745D01*
X-1544322Y7243836D02*
G01*
X-1642503Y7243836D01*
X-1762503Y7309289D02*
G01*
X-1762503Y7194745D01*
X-1762503Y7309289D02*
G01*
X-1811594Y7309289D01*
X-1827959Y7303836D01*
X-1833412Y7298382D01*
X-1838868Y7287473D01*
X-1838868Y7276564D01*
X-1833412Y7265654D01*
X-1827959Y7260198D01*
X-1811594Y7254745D01*
X-1762503Y7254745D02*
G01*
X-1811594Y7254745D01*
X-1827959Y7249289D01*
X-1833412Y7243836D01*
X-1838868Y7232926D01*
X-1838868Y7216564D01*
X-1833412Y7205654D01*
X-1827959Y7200198D01*
X-1811594Y7194745D01*
X-1762503Y7194745D01*
X-1907595Y7309289D02*
G01*
X-1896686Y7303836D01*
X-1885777Y7292926D01*
X-1880321Y7282017D01*
X-1874867Y7265654D01*
X-1874867Y7238382D01*
X-1880321Y7222017D01*
X-1885777Y7211108D01*
X-1896686Y7200198D01*
X-1907595Y7194745D01*
X-1929411Y7194745D01*
X-1940321Y7200198D01*
X-1951230Y7211108D01*
X-1956686Y7222017D01*
X-1962139Y7238382D01*
X-1962139Y7265654D01*
X-1956686Y7282017D01*
X-1951230Y7292926D01*
X-1940321Y7303836D01*
X-1929411Y7309289D01*
X-1907595Y7309289D01*
X-2036323Y7309289D02*
G01*
X-2036323Y7194745D01*
X-1998139Y7309289D02*
G01*
X-2074504Y7309289D01*
X-2148685Y7309289D02*
G01*
X-2148685Y7194745D01*
X-2110503Y7309289D02*
G01*
X-2186866Y7309289D01*
X-2255593Y7309289D02*
G01*
X-2244684Y7303836D01*
X-2233775Y7292926D01*
X-2228321Y7282017D01*
X-2222865Y7265654D01*
X-2222865Y7238382D01*
X-2228321Y7222017D01*
X-2233775Y7211108D01*
X-2244684Y7200198D01*
X-2255593Y7194745D01*
X-2277412Y7194745D01*
X-2288321Y7200198D01*
X-2299230Y7211108D01*
X-2304684Y7222017D01*
X-2310140Y7238382D01*
X-2310140Y7265654D01*
X-2304684Y7282017D01*
X-2299230Y7292926D01*
X-2288321Y7303836D01*
X-2277412Y7309289D01*
X-2255593Y7309289D01*
X-2346139Y7309289D02*
G01*
X-2346139Y7194745D01*
X-2346139Y7309289D02*
G01*
X-2389776Y7194745D01*
X-2433411Y7309289D02*
G01*
X-2389776Y7194745D01*
X-2433411Y7309289D02*
G01*
X-2433411Y7194745D01*
X436600Y7115411D02*
G01*
X436600Y7000867D01*
X436600Y7115411D02*
G01*
X387510Y7115411D01*
X371147Y7109957D01*
X365691Y7104504D01*
X360238Y7093595D01*
X360238Y7077229D01*
X365691Y7066321D01*
X371147Y7060867D01*
X387510Y7055411D01*
X436600Y7055411D01*
X280600Y7115411D02*
G01*
X324236Y7000867D01*
X280600Y7115411D02*
G01*
X236964Y7000867D01*
X307873Y7039048D02*
G01*
X253329Y7039048D01*
X200964Y7115411D02*
G01*
X200964Y7000867D01*
X200964Y7115411D02*
G01*
X151874Y7115411D01*
X135511Y7109957D01*
X130055Y7104504D01*
X124601Y7093595D01*
X124601Y7082685D01*
X130055Y7071776D01*
X135511Y7066321D01*
X151874Y7060867D01*
X200964Y7060867D01*
X162783Y7060867D02*
G01*
X124601Y7000867D01*
X50419Y7115411D02*
G01*
X50419Y7000867D01*
X88601Y7115411D02*
G01*
X12237Y7115411D01*
X-107762Y7115411D02*
G01*
X-107762Y7000867D01*
X-107762Y7115411D02*
G01*
X-184124Y7000867D01*
X-184124Y7115411D02*
G01*
X-184124Y7000867D01*
X-220126Y7115411D02*
G01*
X-220126Y7033595D01*
X-225579Y7017230D01*
X-236489Y7006321D01*
X-252851Y7000867D01*
X-263761Y7000867D01*
X-280126Y7006321D01*
X-291033Y7017230D01*
X-296489Y7033595D01*
X-296489Y7115411D01*
X-332488Y7115411D02*
G01*
X-332488Y7000867D01*
X-332488Y7115411D02*
G01*
X-376125Y7000867D01*
X-419760Y7115411D02*
G01*
X-376125Y7000867D01*
X-419760Y7115411D02*
G01*
X-419760Y7000867D01*
X-455762Y7115411D02*
G01*
X-455762Y7000867D01*
X-455762Y7115411D02*
G01*
X-504852Y7115411D01*
X-521215Y7109957D01*
X-526668Y7104504D01*
X-532124Y7093595D01*
X-532124Y7082685D01*
X-526668Y7071776D01*
X-521215Y7066321D01*
X-504852Y7060867D01*
X-455762Y7060867D02*
G01*
X-504852Y7060867D01*
X-521215Y7055411D01*
X-526668Y7049957D01*
X-532124Y7039048D01*
X-532124Y7022685D01*
X-526668Y7011776D01*
X-521215Y7006321D01*
X-504852Y7000867D01*
X-455762Y7000867D01*
X-568124Y7115411D02*
G01*
X-568124Y7000867D01*
X-568124Y7115411D02*
G01*
X-639033Y7115411D01*
X-568124Y7060867D02*
G01*
X-611761Y7060867D01*
X-568124Y7000867D02*
G01*
X-639033Y7000867D01*
X-675032Y7115411D02*
G01*
X-675032Y7000867D01*
X-675032Y7115411D02*
G01*
X-724123Y7115411D01*
X-740488Y7109957D01*
X-745942Y7104504D01*
X-751398Y7093595D01*
X-751398Y7082685D01*
X-745942Y7071776D01*
X-740488Y7066321D01*
X-724123Y7060867D01*
X-675032Y7060867D01*
X-713214Y7060867D02*
G01*
X-751398Y7000867D01*
X-876851Y7088139D02*
G01*
X-876851Y7093595D01*
X-882307Y7104504D01*
X-887760Y7109957D01*
X-898669Y7115411D01*
X-920488Y7115411D01*
X-931397Y7109957D01*
X-936851Y7104504D01*
X-942306Y7093595D01*
X-942306Y7082685D01*
X-936851Y7071776D01*
X-925941Y7055411D01*
X-871397Y7000867D01*
X-947760Y7000867D01*
X-1011031Y7115411D02*
G01*
X-994669Y7109957D01*
X-989215Y7099048D01*
X-989215Y7088139D01*
X-994669Y7077229D01*
X-1005578Y7071776D01*
X-1027396Y7066321D01*
X-1043759Y7060867D01*
X-1054668Y7049957D01*
X-1060124Y7039048D01*
X-1060124Y7022685D01*
X-1054668Y7011776D01*
X-1049215Y7006321D01*
X-1032850Y7000867D01*
X-1011031Y7000867D01*
X-994669Y7006321D01*
X-989215Y7011776D01*
X-983759Y7022685D01*
X-983759Y7039048D01*
X-989215Y7049957D01*
X-1000125Y7060867D01*
X-1016487Y7066321D01*
X-1038306Y7071776D01*
X-1049215Y7077229D01*
X-1054668Y7088139D01*
X-1054668Y7099048D01*
X-1049215Y7109957D01*
X-1032850Y7115411D01*
X-1011031Y7115411D01*
X-1167033Y7077229D02*
G01*
X-1161577Y7060867D01*
X-1150668Y7049957D01*
X-1134305Y7044504D01*
X-1128849Y7044504D01*
X-1112486Y7049957D01*
X-1101577Y7060867D01*
X-1096124Y7077229D01*
X-1096124Y7082685D01*
X-1101577Y7099048D01*
X-1112486Y7109957D01*
X-1128849Y7115411D01*
X-1134305Y7115411D01*
X-1150668Y7109957D01*
X-1161577Y7099048D01*
X-1167033Y7077229D01*
X-1167033Y7049957D01*
X-1161577Y7022685D01*
X-1150668Y7006321D01*
X-1134305Y7000867D01*
X-1123396Y7000867D01*
X-1107033Y7006321D01*
X-1101577Y7017230D01*
X-1235760Y7115411D02*
G01*
X-1219395Y7109957D01*
X-1208486Y7093595D01*
X-1203032Y7066321D01*
X-1203032Y7049957D01*
X-1208486Y7022685D01*
X-1219395Y7006321D01*
X-1235760Y7000867D01*
X-1246667Y7000867D01*
X-1263032Y7006321D01*
X-1273942Y7022685D01*
X-1279395Y7049957D01*
X-1279395Y7066321D01*
X-1273942Y7093595D01*
X-1263032Y7109957D01*
X-1246667Y7115411D01*
X-1235760Y7115411D01*
X-1315394Y7049957D02*
G01*
X-1413578Y7049957D01*
X-1482305Y7115411D02*
G01*
X-1465940Y7109957D01*
X-1455031Y7093595D01*
X-1449577Y7066321D01*
X-1449577Y7049957D01*
X-1455031Y7022685D01*
X-1465940Y7006321D01*
X-1482305Y7000867D01*
X-1493212Y7000867D01*
X-1509577Y7006321D01*
X-1520487Y7022685D01*
X-1525940Y7049957D01*
X-1525940Y7066321D01*
X-1520487Y7093595D01*
X-1509577Y7109957D01*
X-1493212Y7115411D01*
X-1482305Y7115411D01*
X-1572849Y7115411D02*
G01*
X-1632849Y7115411D01*
X-1600123Y7071776D01*
X-1616486Y7071776D01*
X-1627395Y7066321D01*
X-1632849Y7060867D01*
X-1638305Y7044504D01*
X-1638305Y7033595D01*
X-1632849Y7017230D01*
X-1621939Y7006321D01*
X-1605577Y7000867D01*
X-1589214Y7000867D01*
X-1572849Y7006321D01*
X-1567395Y7011776D01*
X-1561939Y7022685D01*
X-1707032Y7115411D02*
G01*
X-1690667Y7109957D01*
X-1679757Y7093595D01*
X-1674304Y7066321D01*
X-1674304Y7049957D01*
X-1679757Y7022685D01*
X-1690667Y7006321D01*
X-1707032Y7000867D01*
X-1717941Y7000867D01*
X-1734304Y7006321D01*
X-1745213Y7022685D01*
X-1750667Y7049957D01*
X-1750667Y7066321D01*
X-1745213Y7093595D01*
X-1734304Y7109957D01*
X-1717941Y7115411D01*
X-1707032Y7115411D01*
X-1786666Y7093595D02*
G01*
X-1797575Y7099048D01*
X-1813940Y7115411D01*
X-1813940Y7000867D01*
X-1933940Y7115411D02*
G01*
X-1977575Y7000867D01*
X-2021212Y7115411D02*
G01*
X-1977575Y7000867D01*
X-2089939Y7115411D02*
G01*
X-2073577Y7109957D01*
X-2062667Y7093595D01*
X-2057212Y7066321D01*
X-2057212Y7049957D01*
X-2062667Y7022685D01*
X-2073577Y7006321D01*
X-2089939Y7000867D01*
X-2100849Y7000867D01*
X-2117211Y7006321D01*
X-2128121Y7022685D01*
X-2133577Y7049957D01*
X-2133577Y7066321D01*
X-2128121Y7093595D01*
X-2117211Y7109957D01*
X-2100849Y7115411D01*
X-2089939Y7115411D01*
X-2175029Y7028139D02*
G01*
X-2169576Y7022685D01*
X-2175029Y7017230D01*
X-2180485Y7022685D01*
X-2175029Y7028139D01*
X-2216485Y7093595D02*
G01*
X-2227394Y7099048D01*
X-2243757Y7115411D01*
X-2243757Y7000867D01*
D11*
X-397954Y6817560D02*
G01*
X-397954Y6734434D01*
X-392757Y6718846D01*
X-387563Y6713651D01*
X-377172Y6708457D01*
X-366781Y6708457D01*
X-356389Y6713651D01*
X-351193Y6718846D01*
X-345998Y6734434D01*
X-345998Y6744825D01*
X-432244Y6796778D02*
G01*
X-442633Y6801975D01*
X-458221Y6817560D01*
X-458221Y6708457D01*
D12*
X-738098Y6867321D02*
G01*
X-738098Y6676821D01*
X-535000Y6865721D02*
G01*
X-1334998Y6865721D01*
X-1334998Y6665722D01*
X-535000Y6665722D01*
X-535000Y6865721D01*
M02*
