G04 Layer: TopSilkscreenLayer*
G04 EasyEDA v6.5.29, 2023-07-16 15:11:24*
G04 69541b314f914e7eb76376b61f0081d1,5a6b42c53f6a479593ecc07194224c93,10*
G04 Gerber Generator version 0.2*
G04 Scale: 100 percent, Rotated: No, Reflected: No *
G04 Dimensions in millimeters *
G04 leading zeros omitted , absolute positions ,4 integer and 5 decimal *
%FSLAX45Y45*%
%MOMM*%

%ADD10C,0.2032*%
%ADD11C,0.1524*%
%ADD12C,0.2540*%
%ADD13C,0.1999*%

%LPD*%
D10*
X342900Y3194557D02*
G01*
X342900Y3080004D01*
X342900Y3194557D02*
G01*
X391921Y3194557D01*
X408431Y3188970D01*
X413765Y3183636D01*
X419354Y3172713D01*
X419354Y3156204D01*
X413765Y3145281D01*
X408431Y3139947D01*
X391921Y3134613D01*
X342900Y3134613D01*
X498855Y3194557D02*
G01*
X455168Y3080004D01*
X498855Y3194557D02*
G01*
X542544Y3080004D01*
X471678Y3118104D02*
G01*
X526287Y3118104D01*
X578612Y3194557D02*
G01*
X578612Y3080004D01*
X578612Y3194557D02*
G01*
X627634Y3194557D01*
X643889Y3188970D01*
X649478Y3183636D01*
X654812Y3172713D01*
X654812Y3161792D01*
X649478Y3150870D01*
X643889Y3145281D01*
X627634Y3139947D01*
X578612Y3139947D01*
X616712Y3139947D02*
G01*
X654812Y3080004D01*
X728979Y3194557D02*
G01*
X728979Y3080004D01*
X690879Y3194557D02*
G01*
X767334Y3194557D01*
X887222Y3194557D02*
G01*
X887222Y3080004D01*
X887222Y3194557D02*
G01*
X963675Y3080004D01*
X963675Y3194557D02*
G01*
X963675Y3080004D01*
X999743Y3194557D02*
G01*
X999743Y3112770D01*
X1005077Y3096260D01*
X1016000Y3085337D01*
X1032256Y3080004D01*
X1043177Y3080004D01*
X1059688Y3085337D01*
X1070609Y3096260D01*
X1075943Y3112770D01*
X1075943Y3194557D01*
X1112011Y3194557D02*
G01*
X1112011Y3080004D01*
X1112011Y3194557D02*
G01*
X1155700Y3080004D01*
X1199388Y3194557D02*
G01*
X1155700Y3080004D01*
X1199388Y3194557D02*
G01*
X1199388Y3080004D01*
X1319275Y3172713D02*
G01*
X1330197Y3178047D01*
X1346454Y3194557D01*
X1346454Y3080004D01*
X1409700Y3194557D02*
G01*
X1393443Y3188970D01*
X1388109Y3178047D01*
X1388109Y3167126D01*
X1393443Y3156204D01*
X1404365Y3150870D01*
X1426209Y3145281D01*
X1442465Y3139947D01*
X1453388Y3129026D01*
X1458975Y3118104D01*
X1458975Y3101847D01*
X1453388Y3090926D01*
X1448054Y3085337D01*
X1431543Y3080004D01*
X1409700Y3080004D01*
X1393443Y3085337D01*
X1388109Y3090926D01*
X1382522Y3101847D01*
X1382522Y3118104D01*
X1388109Y3129026D01*
X1398777Y3139947D01*
X1415288Y3145281D01*
X1437131Y3150870D01*
X1448054Y3156204D01*
X1453388Y3167126D01*
X1453388Y3178047D01*
X1448054Y3188970D01*
X1431543Y3194557D01*
X1409700Y3194557D01*
X1560322Y3178047D02*
G01*
X1554988Y3188970D01*
X1538477Y3194557D01*
X1527556Y3194557D01*
X1511300Y3188970D01*
X1500377Y3172713D01*
X1494790Y3145281D01*
X1494790Y3118104D01*
X1500377Y3096260D01*
X1511300Y3085337D01*
X1527556Y3080004D01*
X1533143Y3080004D01*
X1549400Y3085337D01*
X1560322Y3096260D01*
X1565909Y3112770D01*
X1565909Y3118104D01*
X1560322Y3134613D01*
X1549400Y3145281D01*
X1533143Y3150870D01*
X1527556Y3150870D01*
X1511300Y3145281D01*
X1500377Y3134613D01*
X1494790Y3118104D01*
X1634490Y3194557D02*
G01*
X1618234Y3188970D01*
X1607311Y3172713D01*
X1601724Y3145281D01*
X1601724Y3129026D01*
X1607311Y3101847D01*
X1618234Y3085337D01*
X1634490Y3080004D01*
X1645411Y3080004D01*
X1661922Y3085337D01*
X1672590Y3101847D01*
X1678177Y3129026D01*
X1678177Y3145281D01*
X1672590Y3172713D01*
X1661922Y3188970D01*
X1645411Y3194557D01*
X1634490Y3194557D01*
X1714245Y3129026D02*
G01*
X1812290Y3129026D01*
X1881124Y3194557D02*
G01*
X1864613Y3188970D01*
X1853691Y3172713D01*
X1848358Y3145281D01*
X1848358Y3129026D01*
X1853691Y3101847D01*
X1864613Y3085337D01*
X1881124Y3080004D01*
X1892045Y3080004D01*
X1908302Y3085337D01*
X1919224Y3101847D01*
X1924811Y3129026D01*
X1924811Y3145281D01*
X1919224Y3172713D01*
X1908302Y3188970D01*
X1892045Y3194557D01*
X1881124Y3194557D01*
X2015236Y3194557D02*
G01*
X1960625Y3118104D01*
X2042413Y3118104D01*
X2015236Y3194557D02*
G01*
X2015236Y3080004D01*
X2111247Y3194557D02*
G01*
X2094991Y3188970D01*
X2084070Y3172713D01*
X2078481Y3145281D01*
X2078481Y3129026D01*
X2084070Y3101847D01*
X2094991Y3085337D01*
X2111247Y3080004D01*
X2122170Y3080004D01*
X2138425Y3085337D01*
X2149347Y3101847D01*
X2154936Y3129026D01*
X2154936Y3145281D01*
X2149347Y3172713D01*
X2138425Y3188970D01*
X2122170Y3194557D01*
X2111247Y3194557D01*
X2191004Y3172713D02*
G01*
X2201925Y3178047D01*
X2218181Y3194557D01*
X2218181Y3080004D01*
X2338070Y3194557D02*
G01*
X2381758Y3080004D01*
X2425445Y3194557D02*
G01*
X2381758Y3080004D01*
X2494279Y3194557D02*
G01*
X2477770Y3188970D01*
X2466847Y3172713D01*
X2461513Y3145281D01*
X2461513Y3129026D01*
X2466847Y3101847D01*
X2477770Y3085337D01*
X2494279Y3080004D01*
X2505202Y3080004D01*
X2521458Y3085337D01*
X2532379Y3101847D01*
X2537713Y3129026D01*
X2537713Y3145281D01*
X2532379Y3172713D01*
X2521458Y3188970D01*
X2505202Y3194557D01*
X2494279Y3194557D01*
X2579370Y3107181D02*
G01*
X2573781Y3101847D01*
X2579370Y3096260D01*
X2584704Y3101847D01*
X2579370Y3107181D01*
X2626106Y3167126D02*
G01*
X2626106Y3172713D01*
X2631693Y3183636D01*
X2637027Y3188970D01*
X2647950Y3194557D01*
X2669793Y3194557D01*
X2680715Y3188970D01*
X2686050Y3183636D01*
X2691638Y3172713D01*
X2691638Y3161792D01*
X2686050Y3150870D01*
X2675381Y3134613D01*
X2620772Y3080004D01*
X2696972Y3080004D01*
X482600Y3397689D02*
G01*
X482600Y3283145D01*
X482600Y3397689D02*
G01*
X526237Y3283145D01*
X569871Y3397689D02*
G01*
X526237Y3283145D01*
X569871Y3397689D02*
G01*
X569871Y3283145D01*
X704054Y3419508D02*
G01*
X605871Y3244964D01*
X740054Y3397689D02*
G01*
X740054Y3283145D01*
X740054Y3397689D02*
G01*
X810963Y3397689D01*
X740054Y3343145D02*
G01*
X783689Y3343145D01*
X740054Y3283145D02*
G01*
X810963Y3283145D01*
X1007325Y3381326D02*
G01*
X996416Y3392236D01*
X980053Y3397689D01*
X958235Y3397689D01*
X941872Y3392236D01*
X930963Y3381326D01*
X930963Y3370417D01*
X936416Y3359508D01*
X941872Y3354054D01*
X952781Y3348598D01*
X985507Y3337689D01*
X996416Y3332236D01*
X1001872Y3326782D01*
X1007325Y3315873D01*
X1007325Y3299508D01*
X996416Y3288598D01*
X980053Y3283145D01*
X958235Y3283145D01*
X941872Y3288598D01*
X930963Y3299508D01*
X1043325Y3397689D02*
G01*
X1043325Y3283145D01*
X1043325Y3283145D02*
G01*
X1108781Y3283145D01*
X1144780Y3397689D02*
G01*
X1144780Y3283145D01*
X1180779Y3397689D02*
G01*
X1180779Y3283145D01*
X1180779Y3397689D02*
G01*
X1218961Y3397689D01*
X1235326Y3392236D01*
X1246235Y3381326D01*
X1251689Y3370417D01*
X1257145Y3354054D01*
X1257145Y3326782D01*
X1251689Y3310417D01*
X1246235Y3299508D01*
X1235326Y3288598D01*
X1218961Y3283145D01*
X1180779Y3283145D01*
X1293144Y3397689D02*
G01*
X1293144Y3283145D01*
X1293144Y3397689D02*
G01*
X1364053Y3397689D01*
X1293144Y3343145D02*
G01*
X1336779Y3343145D01*
X1293144Y3283145D02*
G01*
X1364053Y3283145D01*
X1400053Y3397689D02*
G01*
X1400053Y3283145D01*
X1400053Y3397689D02*
G01*
X1449143Y3397689D01*
X1465506Y3392236D01*
X1470962Y3386782D01*
X1476415Y3375873D01*
X1476415Y3364964D01*
X1470962Y3354054D01*
X1465506Y3348598D01*
X1449143Y3343145D01*
X1400053Y3343145D01*
X1438234Y3343145D02*
G01*
X1476415Y3283145D01*
X1596415Y3397689D02*
G01*
X1596415Y3283145D01*
X1596415Y3397689D02*
G01*
X1640052Y3283145D01*
X1683687Y3397689D02*
G01*
X1640052Y3283145D01*
X1683687Y3397689D02*
G01*
X1683687Y3283145D01*
X1763323Y3397689D02*
G01*
X1719689Y3283145D01*
X1763323Y3397689D02*
G01*
X1806961Y3283145D01*
X1736051Y3321326D02*
G01*
X1790598Y3321326D01*
X1842960Y3397689D02*
G01*
X1842960Y3283145D01*
X1878959Y3397689D02*
G01*
X1878959Y3283145D01*
X1878959Y3397689D02*
G01*
X1955325Y3283145D01*
X1955325Y3397689D02*
G01*
X1955325Y3283145D01*
X2075324Y3332236D02*
G01*
X2173505Y3332236D01*
X2331686Y3397689D02*
G01*
X2331686Y3283145D01*
X2293505Y3397689D02*
G01*
X2369868Y3397689D01*
X2438595Y3397689D02*
G01*
X2427686Y3392236D01*
X2416776Y3381326D01*
X2411323Y3370417D01*
X2405867Y3354054D01*
X2405867Y3326782D01*
X2411323Y3310417D01*
X2416776Y3299508D01*
X2427686Y3288598D01*
X2438595Y3283145D01*
X2460414Y3283145D01*
X2471323Y3288598D01*
X2482232Y3299508D01*
X2487686Y3310417D01*
X2493142Y3326782D01*
X2493142Y3354054D01*
X2487686Y3370417D01*
X2482232Y3381326D01*
X2471323Y3392236D01*
X2460414Y3397689D01*
X2438595Y3397689D01*
X2529141Y3397689D02*
G01*
X2529141Y3283145D01*
X2529141Y3397689D02*
G01*
X2578232Y3397689D01*
X2594594Y3392236D01*
X2600050Y3386782D01*
X2605504Y3375873D01*
X2605504Y3359508D01*
X2600050Y3348598D01*
X2594594Y3343145D01*
X2578232Y3337689D01*
X2529141Y3337689D01*
D11*
X953663Y11240526D02*
G01*
X953663Y11157399D01*
X948466Y11141811D01*
X943272Y11136617D01*
X932881Y11131422D01*
X922489Y11131422D01*
X912098Y11136617D01*
X906901Y11141811D01*
X901707Y11157399D01*
X901707Y11167790D01*
X987953Y11219743D02*
G01*
X998341Y11224940D01*
X1013929Y11240526D01*
X1013929Y11131422D01*
X889251Y2944870D02*
G01*
X880107Y2953760D01*
X866391Y2958332D01*
X848103Y2958332D01*
X834641Y2953760D01*
X825497Y2944870D01*
X825497Y2935726D01*
X830069Y2926582D01*
X834641Y2922010D01*
X843785Y2917438D01*
X870963Y2908294D01*
X880107Y2903976D01*
X884679Y2899404D01*
X889251Y2890260D01*
X889251Y2876544D01*
X880107Y2867400D01*
X866391Y2862828D01*
X848103Y2862828D01*
X834641Y2867400D01*
X825497Y2876544D01*
X919223Y2940298D02*
G01*
X928113Y2944870D01*
X941829Y2958332D01*
X941829Y2862828D01*
X863851Y1814573D02*
G01*
X854707Y1823463D01*
X840991Y1828035D01*
X822703Y1828035D01*
X809241Y1823463D01*
X800097Y1814573D01*
X800097Y1805429D01*
X804669Y1796285D01*
X809241Y1791713D01*
X818385Y1787141D01*
X845563Y1777997D01*
X854707Y1773679D01*
X859279Y1769107D01*
X863851Y1759963D01*
X863851Y1746247D01*
X854707Y1737103D01*
X840991Y1732531D01*
X822703Y1732531D01*
X809241Y1737103D01*
X800097Y1746247D01*
X898395Y1805429D02*
G01*
X898395Y1810001D01*
X902713Y1818891D01*
X907285Y1823463D01*
X916429Y1828035D01*
X934717Y1828035D01*
X943607Y1823463D01*
X948179Y1818891D01*
X952751Y1810001D01*
X952751Y1800857D01*
X948179Y1791713D01*
X939289Y1777997D01*
X893823Y1732531D01*
X957323Y1732531D01*
D12*
X1682798Y11087077D02*
G01*
X1682798Y11277577D01*
X1885896Y11088677D02*
G01*
X1085898Y11088677D01*
X1085898Y11288676D01*
X1885896Y11288676D01*
X1885896Y11088677D01*
D13*
X1003805Y2960110D02*
G01*
X1003805Y1960112D01*
X2003803Y1960112D01*
X2003803Y2960110D01*
X1003805Y2960110D01*
X1003805Y1829813D02*
G01*
X1003805Y829815D01*
X2003803Y829815D01*
X2003803Y1829813D01*
X1003805Y1829813D01*
D12*
X1085900Y11049000D02*
G01*
X1879600Y11049000D01*
X1879600Y3551097D01*
X1085900Y3551097D01*
X1085900Y11049000D01*
M02*
