G04 Layer: TopSilkscreenLayer*
G04 EasyEDA v6.5.29, 2023-07-16 15:11:24*
G04 5fcfc6cb5b8945028dee16518429fc2b,5a6b42c53f6a479593ecc07194224c93,10*
G04 Gerber Generator version 0.2*
G04 Scale: 100 percent, Rotated: No, Reflected: No *
G04 Dimensions in millimeters *
G04 leading zeros omitted , absolute positions ,4 integer and 5 decimal *
%FSLAX45Y45*%
%MOMM*%

%ADD10C,0.2032*%
%ADD11C,0.2540*%

%LPD*%
D10*
X304749Y10903458D02*
G01*
X304749Y10788904D01*
X304749Y10903458D02*
G01*
X348437Y10788904D01*
X392125Y10903458D02*
G01*
X348437Y10788904D01*
X392125Y10903458D02*
G01*
X392125Y10788904D01*
X526237Y10925302D02*
G01*
X428193Y10750550D01*
X562305Y10903458D02*
G01*
X562305Y10788904D01*
X562305Y10903458D02*
G01*
X633171Y10903458D01*
X562305Y10848847D02*
G01*
X605993Y10848847D01*
X562305Y10788904D02*
G01*
X633171Y10788904D01*
X829513Y10886947D02*
G01*
X818591Y10897870D01*
X802335Y10903458D01*
X780491Y10903458D01*
X763981Y10897870D01*
X753059Y10886947D01*
X753059Y10876026D01*
X758647Y10865104D01*
X763981Y10859770D01*
X774903Y10854181D01*
X807669Y10843513D01*
X818591Y10837926D01*
X824179Y10832592D01*
X829513Y10821670D01*
X829513Y10805160D01*
X818591Y10794237D01*
X802335Y10788904D01*
X780491Y10788904D01*
X763981Y10794237D01*
X753059Y10805160D01*
X865581Y10903458D02*
G01*
X865581Y10788904D01*
X865581Y10788904D02*
G01*
X930859Y10788904D01*
X966927Y10903458D02*
G01*
X966927Y10788904D01*
X1002995Y10903458D02*
G01*
X1002995Y10788904D01*
X1002995Y10903458D02*
G01*
X1041095Y10903458D01*
X1057605Y10897870D01*
X1068527Y10886947D01*
X1073861Y10876026D01*
X1079449Y10859770D01*
X1079449Y10832592D01*
X1073861Y10816081D01*
X1068527Y10805160D01*
X1057605Y10794237D01*
X1041095Y10788904D01*
X1002995Y10788904D01*
X1115263Y10903458D02*
G01*
X1115263Y10788904D01*
X1115263Y10903458D02*
G01*
X1186129Y10903458D01*
X1115263Y10848847D02*
G01*
X1158951Y10848847D01*
X1115263Y10788904D02*
G01*
X1186129Y10788904D01*
X1222197Y10903458D02*
G01*
X1222197Y10788904D01*
X1222197Y10903458D02*
G01*
X1271219Y10903458D01*
X1287729Y10897870D01*
X1293063Y10892536D01*
X1298651Y10881613D01*
X1298651Y10870692D01*
X1293063Y10859770D01*
X1287729Y10854181D01*
X1271219Y10848847D01*
X1222197Y10848847D01*
X1260551Y10848847D02*
G01*
X1298651Y10788904D01*
X1494993Y10886947D02*
G01*
X1484071Y10897870D01*
X1467815Y10903458D01*
X1445971Y10903458D01*
X1429461Y10897870D01*
X1418539Y10886947D01*
X1418539Y10876026D01*
X1424127Y10865104D01*
X1429461Y10859770D01*
X1440383Y10854181D01*
X1473149Y10843513D01*
X1484071Y10837926D01*
X1489405Y10832592D01*
X1494993Y10821670D01*
X1494993Y10805160D01*
X1484071Y10794237D01*
X1467815Y10788904D01*
X1445971Y10788904D01*
X1429461Y10794237D01*
X1418539Y10805160D01*
X1531061Y10903458D02*
G01*
X1531061Y10788904D01*
X1531061Y10903458D02*
G01*
X1580083Y10903458D01*
X1596339Y10897870D01*
X1601927Y10892536D01*
X1607261Y10881613D01*
X1607261Y10865104D01*
X1601927Y10854181D01*
X1596339Y10848847D01*
X1580083Y10843513D01*
X1531061Y10843513D01*
X1687017Y10903458D02*
G01*
X1643329Y10788904D01*
X1687017Y10903458D02*
G01*
X1730705Y10788904D01*
X1659585Y10827004D02*
G01*
X1714195Y10827004D01*
X1848307Y10876026D02*
G01*
X1842973Y10886947D01*
X1832051Y10897870D01*
X1821129Y10903458D01*
X1799285Y10903458D01*
X1788363Y10897870D01*
X1777441Y10886947D01*
X1772107Y10876026D01*
X1766519Y10859770D01*
X1766519Y10832592D01*
X1772107Y10816081D01*
X1777441Y10805160D01*
X1788363Y10794237D01*
X1799285Y10788904D01*
X1821129Y10788904D01*
X1832051Y10794237D01*
X1842973Y10805160D01*
X1848307Y10816081D01*
X1884375Y10903458D02*
G01*
X1884375Y10788904D01*
X1884375Y10903458D02*
G01*
X1955241Y10903458D01*
X1884375Y10848847D02*
G01*
X1928063Y10848847D01*
X1884375Y10788904D02*
G01*
X1955241Y10788904D01*
X1991309Y10903458D02*
G01*
X1991309Y10788904D01*
X1991309Y10903458D02*
G01*
X2040331Y10903458D01*
X2056841Y10897870D01*
X2062175Y10892536D01*
X2067763Y10881613D01*
X2067763Y10870692D01*
X2062175Y10859770D01*
X2056841Y10854181D01*
X2040331Y10848847D01*
X1991309Y10848847D01*
X2029409Y10848847D02*
G01*
X2067763Y10788904D01*
X2187651Y10837926D02*
G01*
X2285949Y10837926D01*
X2444191Y10903458D02*
G01*
X2444191Y10788904D01*
X2405837Y10903458D02*
G01*
X2482291Y10903458D01*
X2550871Y10903458D02*
G01*
X2539949Y10897870D01*
X2529281Y10886947D01*
X2523693Y10876026D01*
X2518359Y10859770D01*
X2518359Y10832592D01*
X2523693Y10816081D01*
X2529281Y10805160D01*
X2539949Y10794237D01*
X2550871Y10788904D01*
X2572715Y10788904D01*
X2583637Y10794237D01*
X2594559Y10805160D01*
X2600147Y10816081D01*
X2605481Y10832592D01*
X2605481Y10859770D01*
X2600147Y10876026D01*
X2594559Y10886947D01*
X2583637Y10897870D01*
X2572715Y10903458D01*
X2550871Y10903458D01*
X2641549Y10903458D02*
G01*
X2641549Y10788904D01*
X2641549Y10903458D02*
G01*
X2690571Y10903458D01*
X2707081Y10897870D01*
X2712415Y10892536D01*
X2718003Y10881613D01*
X2718003Y10865104D01*
X2712415Y10854181D01*
X2707081Y10848847D01*
X2690571Y10843513D01*
X2641549Y10843513D01*
X317474Y3727957D02*
G01*
X317474Y3613404D01*
X317474Y3727957D02*
G01*
X366496Y3727957D01*
X383006Y3722370D01*
X388340Y3717036D01*
X393928Y3706113D01*
X393928Y3689604D01*
X388340Y3678681D01*
X383006Y3673347D01*
X366496Y3668013D01*
X317474Y3668013D01*
X473430Y3727957D02*
G01*
X429742Y3613404D01*
X473430Y3727957D02*
G01*
X517118Y3613404D01*
X446252Y3651504D02*
G01*
X500862Y3651504D01*
X553186Y3727957D02*
G01*
X553186Y3613404D01*
X553186Y3727957D02*
G01*
X602208Y3727957D01*
X618464Y3722370D01*
X624052Y3717036D01*
X629386Y3706113D01*
X629386Y3695192D01*
X624052Y3684270D01*
X618464Y3678681D01*
X602208Y3673347D01*
X553186Y3673347D01*
X591286Y3673347D02*
G01*
X629386Y3613404D01*
X703554Y3727957D02*
G01*
X703554Y3613404D01*
X665454Y3727957D02*
G01*
X741908Y3727957D01*
X861796Y3727957D02*
G01*
X861796Y3613404D01*
X861796Y3727957D02*
G01*
X938250Y3613404D01*
X938250Y3727957D02*
G01*
X938250Y3613404D01*
X974318Y3727957D02*
G01*
X974318Y3646170D01*
X979652Y3629660D01*
X990574Y3618737D01*
X1006830Y3613404D01*
X1017752Y3613404D01*
X1034262Y3618737D01*
X1045184Y3629660D01*
X1050518Y3646170D01*
X1050518Y3727957D01*
X1086586Y3727957D02*
G01*
X1086586Y3613404D01*
X1086586Y3727957D02*
G01*
X1130274Y3613404D01*
X1173962Y3727957D02*
G01*
X1130274Y3613404D01*
X1173962Y3727957D02*
G01*
X1173962Y3613404D01*
X1299438Y3700526D02*
G01*
X1299438Y3706113D01*
X1304772Y3717036D01*
X1310106Y3722370D01*
X1321028Y3727957D01*
X1342872Y3727957D01*
X1353794Y3722370D01*
X1359382Y3717036D01*
X1364716Y3706113D01*
X1364716Y3695192D01*
X1359382Y3684270D01*
X1348460Y3668013D01*
X1293850Y3613404D01*
X1370304Y3613404D01*
X1433550Y3727957D02*
G01*
X1417040Y3722370D01*
X1411706Y3711447D01*
X1411706Y3700526D01*
X1417040Y3689604D01*
X1427962Y3684270D01*
X1449806Y3678681D01*
X1466316Y3673347D01*
X1477238Y3662426D01*
X1482572Y3651504D01*
X1482572Y3635247D01*
X1477238Y3624326D01*
X1471650Y3618737D01*
X1455394Y3613404D01*
X1433550Y3613404D01*
X1417040Y3618737D01*
X1411706Y3624326D01*
X1406118Y3635247D01*
X1406118Y3651504D01*
X1411706Y3662426D01*
X1422628Y3673347D01*
X1438884Y3678681D01*
X1460728Y3684270D01*
X1471650Y3689604D01*
X1477238Y3700526D01*
X1477238Y3711447D01*
X1471650Y3722370D01*
X1455394Y3727957D01*
X1433550Y3727957D01*
X1583918Y3711447D02*
G01*
X1578584Y3722370D01*
X1562328Y3727957D01*
X1551406Y3727957D01*
X1534896Y3722370D01*
X1523974Y3706113D01*
X1518640Y3678681D01*
X1518640Y3651504D01*
X1523974Y3629660D01*
X1534896Y3618737D01*
X1551406Y3613404D01*
X1556740Y3613404D01*
X1573250Y3618737D01*
X1583918Y3629660D01*
X1589506Y3646170D01*
X1589506Y3651504D01*
X1583918Y3668013D01*
X1573250Y3678681D01*
X1556740Y3684270D01*
X1551406Y3684270D01*
X1534896Y3678681D01*
X1523974Y3668013D01*
X1518640Y3651504D01*
X1658340Y3727957D02*
G01*
X1641830Y3722370D01*
X1630908Y3706113D01*
X1625574Y3678681D01*
X1625574Y3662426D01*
X1630908Y3635247D01*
X1641830Y3618737D01*
X1658340Y3613404D01*
X1669008Y3613404D01*
X1685518Y3618737D01*
X1696440Y3635247D01*
X1701774Y3662426D01*
X1701774Y3678681D01*
X1696440Y3706113D01*
X1685518Y3722370D01*
X1669008Y3727957D01*
X1658340Y3727957D01*
X1737842Y3662426D02*
G01*
X1836140Y3662426D01*
X1904720Y3727957D02*
G01*
X1888464Y3722370D01*
X1877542Y3706113D01*
X1871954Y3678681D01*
X1871954Y3662426D01*
X1877542Y3635247D01*
X1888464Y3618737D01*
X1904720Y3613404D01*
X1915642Y3613404D01*
X1932152Y3618737D01*
X1943074Y3635247D01*
X1948408Y3662426D01*
X1948408Y3678681D01*
X1943074Y3706113D01*
X1932152Y3722370D01*
X1915642Y3727957D01*
X1904720Y3727957D01*
X1989810Y3700526D02*
G01*
X1989810Y3706113D01*
X1995398Y3717036D01*
X2000732Y3722370D01*
X2011654Y3727957D01*
X2033498Y3727957D01*
X2044420Y3722370D01*
X2049754Y3717036D01*
X2055342Y3706113D01*
X2055342Y3695192D01*
X2049754Y3684270D01*
X2038832Y3668013D01*
X1984476Y3613404D01*
X2060676Y3613404D01*
X2129510Y3727957D02*
G01*
X2113254Y3722370D01*
X2102332Y3706113D01*
X2096744Y3678681D01*
X2096744Y3662426D01*
X2102332Y3635247D01*
X2113254Y3618737D01*
X2129510Y3613404D01*
X2140432Y3613404D01*
X2156688Y3618737D01*
X2167610Y3635247D01*
X2173198Y3662426D01*
X2173198Y3678681D01*
X2167610Y3706113D01*
X2156688Y3722370D01*
X2140432Y3727957D01*
X2129510Y3727957D01*
X2209012Y3706113D02*
G01*
X2219934Y3711447D01*
X2236444Y3727957D01*
X2236444Y3613404D01*
X2356332Y3727957D02*
G01*
X2400020Y3613404D01*
X2443708Y3727957D02*
G01*
X2400020Y3613404D01*
X2512288Y3727957D02*
G01*
X2496032Y3722370D01*
X2485110Y3706113D01*
X2479776Y3678681D01*
X2479776Y3662426D01*
X2485110Y3635247D01*
X2496032Y3618737D01*
X2512288Y3613404D01*
X2523210Y3613404D01*
X2539720Y3618737D01*
X2550642Y3635247D01*
X2555976Y3662426D01*
X2555976Y3678681D01*
X2550642Y3706113D01*
X2539720Y3722370D01*
X2523210Y3727957D01*
X2512288Y3727957D01*
X2597378Y3640581D02*
G01*
X2592044Y3635247D01*
X2597378Y3629660D01*
X2602966Y3635247D01*
X2597378Y3640581D01*
X2649956Y3727957D02*
G01*
X2709900Y3727957D01*
X2677134Y3684270D01*
X2693390Y3684270D01*
X2704312Y3678681D01*
X2709900Y3673347D01*
X2715234Y3657092D01*
X2715234Y3646170D01*
X2709900Y3629660D01*
X2698978Y3618737D01*
X2682468Y3613404D01*
X2666212Y3613404D01*
X2649956Y3618737D01*
X2644368Y3624326D01*
X2639034Y3635247D01*
D11*
X1168400Y10693400D02*
G01*
X1803400Y10693400D01*
X1803400Y3937000D01*
X1168400Y3937000D01*
X1168400Y10693400D01*
M02*
