G04 Layer: BottomSilkscreenLayer*
G04 EasyEDA v6.5.29, 2023-07-16 15:11:24*
G04 5fcfc6cb5b8945028dee16518429fc2b,5a6b42c53f6a479593ecc07194224c93,10*
G04 Gerber Generator version 0.2*
G04 Scale: 100 percent, Rotated: No, Reflected: No *
G04 Dimensions in millimeters *
G04 leading zeros omitted , absolute positions ,4 integer and 5 decimal *
%FSLAX45Y45*%
%MOMM*%

%ADD10C,0.2032*%

%LPD*%
D10*
X2717800Y3727889D02*
G01*
X2717800Y3613345D01*
X2717800Y3727889D02*
G01*
X2668709Y3727889D01*
X2652346Y3722436D01*
X2646890Y3716982D01*
X2641437Y3706073D01*
X2641437Y3689708D01*
X2646890Y3678798D01*
X2652346Y3673345D01*
X2668709Y3667889D01*
X2717800Y3667889D01*
X2561800Y3727889D02*
G01*
X2605435Y3613345D01*
X2561800Y3727889D02*
G01*
X2518163Y3613345D01*
X2589072Y3651526D02*
G01*
X2534528Y3651526D01*
X2482164Y3727889D02*
G01*
X2482164Y3613345D01*
X2482164Y3727889D02*
G01*
X2433073Y3727889D01*
X2416710Y3722436D01*
X2411255Y3716982D01*
X2405801Y3706073D01*
X2405801Y3695164D01*
X2411255Y3684254D01*
X2416710Y3678798D01*
X2433073Y3673345D01*
X2482164Y3673345D01*
X2443982Y3673345D02*
G01*
X2405801Y3613345D01*
X2331618Y3727889D02*
G01*
X2331618Y3613345D01*
X2369799Y3727889D02*
G01*
X2293437Y3727889D01*
X2173437Y3727889D02*
G01*
X2173437Y3613345D01*
X2173437Y3727889D02*
G01*
X2097074Y3613345D01*
X2097074Y3727889D02*
G01*
X2097074Y3613345D01*
X2061072Y3727889D02*
G01*
X2061072Y3646073D01*
X2055619Y3629708D01*
X2044710Y3618798D01*
X2028347Y3613345D01*
X2017438Y3613345D01*
X2001072Y3618798D01*
X1990166Y3629708D01*
X1984710Y3646073D01*
X1984710Y3727889D01*
X1948710Y3727889D02*
G01*
X1948710Y3613345D01*
X1948710Y3727889D02*
G01*
X1905073Y3613345D01*
X1861438Y3727889D02*
G01*
X1905073Y3613345D01*
X1861438Y3727889D02*
G01*
X1861438Y3613345D01*
X1735983Y3700617D02*
G01*
X1735983Y3706073D01*
X1730529Y3716982D01*
X1725074Y3722436D01*
X1714164Y3727889D01*
X1692348Y3727889D01*
X1681439Y3722436D01*
X1675983Y3716982D01*
X1670530Y3706073D01*
X1670530Y3695164D01*
X1675983Y3684254D01*
X1686892Y3667889D01*
X1741439Y3613345D01*
X1665074Y3613345D01*
X1601802Y3727889D02*
G01*
X1618165Y3722436D01*
X1623621Y3711526D01*
X1623621Y3700617D01*
X1618165Y3689708D01*
X1607256Y3684254D01*
X1585437Y3678798D01*
X1569074Y3673345D01*
X1558165Y3662436D01*
X1552712Y3651526D01*
X1552712Y3635164D01*
X1558165Y3624254D01*
X1563621Y3618798D01*
X1579984Y3613345D01*
X1601802Y3613345D01*
X1618165Y3618798D01*
X1623621Y3624254D01*
X1629074Y3635164D01*
X1629074Y3651526D01*
X1623621Y3662436D01*
X1612712Y3673345D01*
X1596346Y3678798D01*
X1574530Y3684254D01*
X1563621Y3689708D01*
X1558165Y3700617D01*
X1558165Y3711526D01*
X1563621Y3722436D01*
X1579984Y3727889D01*
X1601802Y3727889D01*
X1451256Y3711526D02*
G01*
X1456712Y3722436D01*
X1473075Y3727889D01*
X1483984Y3727889D01*
X1500347Y3722436D01*
X1511256Y3706073D01*
X1516712Y3678798D01*
X1516712Y3651526D01*
X1511256Y3629708D01*
X1500347Y3618798D01*
X1483984Y3613345D01*
X1478528Y3613345D01*
X1462166Y3618798D01*
X1451256Y3629708D01*
X1445803Y3646073D01*
X1445803Y3651526D01*
X1451256Y3667889D01*
X1462166Y3678798D01*
X1478528Y3684254D01*
X1483984Y3684254D01*
X1500347Y3678798D01*
X1511256Y3667889D01*
X1516712Y3651526D01*
X1377076Y3727889D02*
G01*
X1393438Y3722436D01*
X1404348Y3706073D01*
X1409801Y3678798D01*
X1409801Y3662436D01*
X1404348Y3635164D01*
X1393438Y3618798D01*
X1377076Y3613345D01*
X1366166Y3613345D01*
X1349801Y3618798D01*
X1338892Y3635164D01*
X1333439Y3662436D01*
X1333439Y3678798D01*
X1338892Y3706073D01*
X1349801Y3722436D01*
X1366166Y3727889D01*
X1377076Y3727889D01*
X1297439Y3662436D02*
G01*
X1199258Y3662436D01*
X1130531Y3727889D02*
G01*
X1146893Y3722436D01*
X1157803Y3706073D01*
X1163256Y3678798D01*
X1163256Y3662436D01*
X1157803Y3635164D01*
X1146893Y3618798D01*
X1130531Y3613345D01*
X1119621Y3613345D01*
X1103256Y3618798D01*
X1092349Y3635164D01*
X1086893Y3662436D01*
X1086893Y3678798D01*
X1092349Y3706073D01*
X1103256Y3722436D01*
X1119621Y3727889D01*
X1130531Y3727889D01*
X1045438Y3700617D02*
G01*
X1045438Y3706073D01*
X1039985Y3716982D01*
X1034531Y3722436D01*
X1023622Y3727889D01*
X1001803Y3727889D01*
X990894Y3722436D01*
X985438Y3716982D01*
X979985Y3706073D01*
X979985Y3695164D01*
X985438Y3684254D01*
X996348Y3667889D01*
X1050894Y3613345D01*
X974531Y3613345D01*
X905804Y3727889D02*
G01*
X922167Y3722436D01*
X933076Y3706073D01*
X938529Y3678798D01*
X938529Y3662436D01*
X933076Y3635164D01*
X922167Y3618798D01*
X905804Y3613345D01*
X894895Y3613345D01*
X878530Y3618798D01*
X867620Y3635164D01*
X862167Y3662436D01*
X862167Y3678798D01*
X867620Y3706073D01*
X878530Y3722436D01*
X894895Y3727889D01*
X905804Y3727889D01*
X826168Y3706073D02*
G01*
X815258Y3711526D01*
X798893Y3727889D01*
X798893Y3613345D01*
X678893Y3727889D02*
G01*
X635259Y3613345D01*
X591621Y3727889D02*
G01*
X635259Y3613345D01*
X522894Y3727889D02*
G01*
X539259Y3722436D01*
X550169Y3706073D01*
X555622Y3678798D01*
X555622Y3662436D01*
X550169Y3635164D01*
X539259Y3618798D01*
X522894Y3613345D01*
X511985Y3613345D01*
X495622Y3618798D01*
X484713Y3635164D01*
X479259Y3662436D01*
X479259Y3678798D01*
X484713Y3706073D01*
X495622Y3722436D01*
X511985Y3727889D01*
X522894Y3727889D01*
X437804Y3640617D02*
G01*
X443257Y3635164D01*
X437804Y3629708D01*
X432351Y3635164D01*
X437804Y3640617D01*
X385439Y3727889D02*
G01*
X325440Y3727889D01*
X358167Y3684254D01*
X341805Y3684254D01*
X330895Y3678798D01*
X325440Y3673345D01*
X319986Y3656982D01*
X319986Y3646073D01*
X325440Y3629708D01*
X336349Y3618798D01*
X352714Y3613345D01*
X369077Y3613345D01*
X385439Y3618798D01*
X390895Y3624254D01*
X396349Y3635164D01*
X2028190Y3194557D02*
G01*
X2028190Y3107181D01*
X2033777Y3090926D01*
X2039111Y3085337D01*
X2050034Y3080004D01*
X2060956Y3080004D01*
X2071877Y3085337D01*
X2077465Y3090926D01*
X2082800Y3107181D01*
X2082800Y3118104D01*
X1992375Y3194557D02*
G01*
X1992375Y3080004D01*
X1992375Y3080004D02*
G01*
X1926843Y3080004D01*
X1808988Y3167126D02*
G01*
X1814322Y3178047D01*
X1825243Y3188970D01*
X1836165Y3194557D01*
X1858009Y3194557D01*
X1868931Y3188970D01*
X1879854Y3178047D01*
X1885441Y3167126D01*
X1890775Y3150870D01*
X1890775Y3123692D01*
X1885441Y3107181D01*
X1879854Y3096260D01*
X1868931Y3085337D01*
X1858009Y3080004D01*
X1836165Y3080004D01*
X1825243Y3085337D01*
X1814322Y3096260D01*
X1808988Y3107181D01*
X1718563Y3194557D02*
G01*
X1718563Y3107181D01*
X1723897Y3090926D01*
X1729231Y3085337D01*
X1740154Y3080004D01*
X1751075Y3080004D01*
X1761997Y3085337D01*
X1767586Y3090926D01*
X1772920Y3107181D01*
X1772920Y3118104D01*
X1682495Y3194557D02*
G01*
X1682495Y3080004D01*
X1682495Y3080004D02*
G01*
X1616963Y3080004D01*
X1499108Y3167126D02*
G01*
X1504695Y3178047D01*
X1515618Y3188970D01*
X1526540Y3194557D01*
X1548129Y3194557D01*
X1559052Y3188970D01*
X1569974Y3178047D01*
X1575561Y3167126D01*
X1580895Y3150870D01*
X1580895Y3123692D01*
X1575561Y3107181D01*
X1569974Y3096260D01*
X1559052Y3085337D01*
X1548129Y3080004D01*
X1526540Y3080004D01*
X1515618Y3085337D01*
X1504695Y3096260D01*
X1499108Y3107181D01*
X1408684Y3194557D02*
G01*
X1408684Y3107181D01*
X1414018Y3090926D01*
X1419606Y3085337D01*
X1430527Y3080004D01*
X1441450Y3080004D01*
X1452372Y3085337D01*
X1457706Y3090926D01*
X1463040Y3107181D01*
X1463040Y3118104D01*
X1372615Y3194557D02*
G01*
X1372615Y3080004D01*
X1372615Y3080004D02*
G01*
X1307084Y3080004D01*
X1189227Y3167126D02*
G01*
X1194815Y3178047D01*
X1205738Y3188970D01*
X1216659Y3194557D01*
X1238504Y3194557D01*
X1249425Y3188970D01*
X1260347Y3178047D01*
X1265681Y3167126D01*
X1271270Y3150870D01*
X1271270Y3123692D01*
X1265681Y3107181D01*
X1260347Y3096260D01*
X1249425Y3085337D01*
X1238504Y3080004D01*
X1216659Y3080004D01*
X1205738Y3085337D01*
X1194815Y3096260D01*
X1189227Y3107181D01*
X1098804Y3194557D02*
G01*
X1098804Y3107181D01*
X1104138Y3090926D01*
X1109725Y3085337D01*
X1120647Y3080004D01*
X1131570Y3080004D01*
X1142491Y3085337D01*
X1147825Y3090926D01*
X1153413Y3107181D01*
X1153413Y3118104D01*
X1062736Y3194557D02*
G01*
X1062736Y3080004D01*
X1062736Y3080004D02*
G01*
X997458Y3080004D01*
X879602Y3167126D02*
G01*
X884936Y3178047D01*
X895858Y3188970D01*
X906779Y3194557D01*
X928624Y3194557D01*
X939545Y3188970D01*
X950468Y3178047D01*
X955802Y3167126D01*
X961390Y3150870D01*
X961390Y3123692D01*
X955802Y3107181D01*
X950468Y3096260D01*
X939545Y3085337D01*
X928624Y3080004D01*
X906779Y3080004D01*
X895858Y3085337D01*
X884936Y3096260D01*
X879602Y3107181D01*
M02*
