G04 Layer: TopLayer*
G04 EasyEDA v6.5.29, 2023-07-18 11:35:47*
G04 afcbc65135b8487390061542234f1994,5a6b42c53f6a479593ecc07194224c93,10*
G04 Gerber Generator version 0.2*
G04 Scale: 100 percent, Rotated: No, Reflected: No *
G04 Dimensions in millimeters *
G04 leading zeros omitted , absolute positions ,4 integer and 5 decimal *
%FSLAX45Y45*%
%MOMM*%

%AMMACRO1*21,1,$1,$2,0,0,$3*%
%ADD10C,0.2540*%
%ADD11C,0.1500*%
%ADD12C,0.5000*%
%ADD13C,0.6350*%
%ADD14R,0.5500X0.5500*%
%ADD15MACRO1,0.55X0.55X-167.9999*%
%ADD16MACRO1,0.55X0.55X-156.0002*%
%ADD17MACRO1,0.55X0.55X-156.0012*%
%ADD18MACRO1,0.55X0.55X-143.9991*%
%ADD19MACRO1,0.55X0.55X-143.9997*%
%ADD20MACRO1,0.55X0.55X-131.9994*%
%ADD21MACRO1,0.55X0.55X-132.0012*%
%ADD22MACRO1,0.55X0.55X-131.9992*%
%ADD23MACRO1,0.55X0.55X-119.9976*%
%ADD24MACRO1,0.55X0.55X-119.9989*%
%ADD25MACRO1,0.55X0.55X-120.0002*%
%ADD26MACRO1,0.55X0.55X-107.9990*%
%ADD27MACRO1,0.55X0.55X-107.9973*%
%ADD28MACRO1,0.55X0.55X-107.9998*%
%ADD29MACRO1,0.55X0.55X-95.9989*%
%ADD30MACRO1,0.55X0.55X-95.9994*%
%ADD31MACRO1,0.55X0.55X-95.9992*%
%ADD32MACRO1,0.55X0.55X-83.9985*%
%ADD33MACRO1,0.55X0.55X-84.0006*%
%ADD34MACRO1,0.55X0.55X-84.0008*%
%ADD35MACRO1,0.55X0.55X-71.9977*%
%ADD36MACRO1,0.55X0.55X-71.9994*%
%ADD37MACRO1,0.55X0.55X-60.0001*%
%ADD38MACRO1,0.55X0.55X-59.9965*%
%ADD39MACRO1,0.55X0.55X-60.0011*%
%ADD40MACRO1,0.55X0.55X-47.9986*%
%ADD41MACRO1,0.55X0.55X-48.0006*%
%ADD42MACRO1,0.55X0.55X-48.0008*%
%ADD43MACRO1,0.55X0.55X-36.0009*%
%ADD44MACRO1,0.55X0.55X-35.9988*%
%ADD45MACRO1,0.55X0.55X-36.0003*%
%ADD46MACRO1,0.55X0.55X-35.9966*%
%ADD47MACRO1,0.55X0.55X-23.9988*%
%ADD48MACRO1,0.55X0.55X-23.9985*%
%ADD49MACRO1,0.55X0.55X-24.0009*%
%ADD50MACRO1,0.55X0.55X-12.0001*%
%ADD51MACRO1,0.55X0.55X-12.0007*%
%ADD52MACRO1,0.55X0.55X-11.9975*%
%ADD53MACRO1,0.55X0.55X167.9999*%
%ADD54MACRO1,0.55X0.55X167.9993*%
%ADD55MACRO1,0.55X0.55X168.0025*%
%ADD56MACRO1,0.55X0.55X156.0012*%
%ADD57MACRO1,0.55X0.55X156.0015*%
%ADD58MACRO1,0.55X0.55X155.9991*%
%ADD59MACRO1,0.55X0.55X143.9991*%
%ADD60MACRO1,0.55X0.55X144.0012*%
%ADD61MACRO1,0.55X0.55X143.9997*%
%ADD62MACRO1,0.55X0.55X144.0034*%
%ADD63MACRO1,0.55X0.55X132.0014*%
%ADD64MACRO1,0.55X0.55X131.9994*%
%ADD65MACRO1,0.55X0.55X131.9992*%
%ADD66MACRO1,0.55X0.55X119.9999*%
%ADD67MACRO1,0.55X0.55X120.0035*%
%ADD68MACRO1,0.55X0.55X119.9989*%
%ADD69MACRO1,0.55X0.55X108.0023*%
%ADD70MACRO1,0.55X0.55X108.0006*%
%ADD71MACRO1,0.55X0.55X96.0015*%
%ADD72MACRO1,0.55X0.55X95.9994*%
%ADD73MACRO1,0.55X0.55X95.9992*%
%ADD74MACRO1,0.55X0.55X84.0011*%
%ADD75MACRO1,0.55X0.55X84.0006*%
%ADD76MACRO1,0.55X0.55X84.0008*%
%ADD77MACRO1,0.55X0.55X72.0010*%
%ADD78MACRO1,0.55X0.55X72.0027*%
%ADD79MACRO1,0.55X0.55X72.0002*%
%ADD80MACRO1,0.55X0.55X60.0024*%
%ADD81MACRO1,0.55X0.55X60.0011*%
%ADD82MACRO1,0.55X0.55X59.9998*%
%ADD83MACRO1,0.55X0.55X48.0006*%
%ADD84MACRO1,0.55X0.55X47.9988*%
%ADD85MACRO1,0.55X0.55X48.0008*%
%ADD86MACRO1,0.55X0.55X36.0009*%
%ADD87MACRO1,0.55X0.55X36.0003*%
%ADD88MACRO1,0.55X0.55X23.9998*%
%ADD89MACRO1,0.55X0.55X23.9988*%
%ADD90MACRO1,0.55X0.55X12.0001*%
%ADD91R,0.8000X0.9000*%
%ADD92C,1.4000*%
%ADD93MACRO1,1.524X1.4X0.0000*%
%ADD94C,0.6096*%
%ADD95C,0.0144*%

%LPD*%
G36*
X-2930906Y-3622344D02*
G01*
X-2934817Y-3621582D01*
X-2938068Y-3619347D01*
X-2940304Y-3616096D01*
X-2941066Y-3612184D01*
X-2941066Y7364679D01*
X-2940304Y7368590D01*
X-2938068Y7371842D01*
X-2934817Y7374077D01*
X-2930906Y7374839D01*
X1060958Y7374839D01*
X1064869Y7374077D01*
X1068120Y7371842D01*
X1070356Y7368590D01*
X1071067Y7364679D01*
X1071067Y-3612184D01*
X1070356Y-3616096D01*
X1068120Y-3619347D01*
X1064869Y-3621582D01*
X1060958Y-3622344D01*
G37*

%LPC*%
G36*
X-2738374Y6893864D02*
G01*
X-2723184Y6894779D01*
X-2708249Y6897522D01*
X-2693720Y6902043D01*
X-2679852Y6908292D01*
X-2666847Y6916166D01*
X-2654909Y6925513D01*
X-2644140Y6936282D01*
X-2634792Y6948220D01*
X-2626918Y6961225D01*
X-2620670Y6975094D01*
X-2616149Y6989622D01*
X-2613406Y7004558D01*
X-2612491Y7019747D01*
X-2613406Y7034936D01*
X-2616149Y7049871D01*
X-2620670Y7064400D01*
X-2626918Y7078268D01*
X-2634792Y7091273D01*
X-2644140Y7103211D01*
X-2654909Y7113981D01*
X-2666847Y7123328D01*
X-2679852Y7131202D01*
X-2693720Y7137450D01*
X-2708249Y7141972D01*
X-2723184Y7144715D01*
X-2738374Y7145629D01*
X-2753563Y7144715D01*
X-2768498Y7141972D01*
X-2783027Y7137450D01*
X-2796895Y7131202D01*
X-2809900Y7123328D01*
X-2821838Y7113981D01*
X-2832608Y7103211D01*
X-2841955Y7091273D01*
X-2849829Y7078268D01*
X-2856077Y7064400D01*
X-2860598Y7049871D01*
X-2863342Y7034936D01*
X-2864256Y7019747D01*
X-2863342Y7004558D01*
X-2860598Y6989622D01*
X-2856077Y6975094D01*
X-2849829Y6961225D01*
X-2841955Y6948220D01*
X-2832608Y6936282D01*
X-2821838Y6925513D01*
X-2809900Y6916166D01*
X-2796895Y6908292D01*
X-2783027Y6902043D01*
X-2768498Y6897522D01*
X-2753563Y6894779D01*
G37*
G36*
X893826Y-3558235D02*
G01*
X909015Y-3557320D01*
X923950Y-3554577D01*
X938479Y-3550056D01*
X952347Y-3543808D01*
X965352Y-3535934D01*
X977290Y-3526586D01*
X988060Y-3515817D01*
X997407Y-3503879D01*
X1005281Y-3490874D01*
X1011529Y-3477006D01*
X1016050Y-3462477D01*
X1018794Y-3447542D01*
X1019708Y-3432352D01*
X1018794Y-3417163D01*
X1016050Y-3402228D01*
X1011529Y-3387699D01*
X1005281Y-3373831D01*
X997407Y-3360826D01*
X988060Y-3348888D01*
X977290Y-3338118D01*
X965352Y-3328771D01*
X952347Y-3320897D01*
X938479Y-3314649D01*
X923950Y-3310128D01*
X909015Y-3307384D01*
X893826Y-3306470D01*
X878636Y-3307384D01*
X863701Y-3310128D01*
X849172Y-3314649D01*
X835304Y-3320897D01*
X822299Y-3328771D01*
X810361Y-3338118D01*
X799592Y-3348888D01*
X790194Y-3360826D01*
X782370Y-3373831D01*
X776122Y-3387699D01*
X771601Y-3402228D01*
X768858Y-3417163D01*
X767943Y-3432352D01*
X768858Y-3447542D01*
X771601Y-3462477D01*
X776122Y-3477006D01*
X782370Y-3490874D01*
X790194Y-3503879D01*
X799592Y-3515817D01*
X810361Y-3526586D01*
X822299Y-3535934D01*
X835304Y-3543808D01*
X849172Y-3550056D01*
X863701Y-3554577D01*
X878636Y-3557320D01*
G37*
G36*
X-1188770Y-3420160D02*
G01*
X-681177Y-3420160D01*
X-660450Y-3419246D01*
X-640130Y-3416452D01*
X-620064Y-3411880D01*
X-600456Y-3405530D01*
X-581558Y-3397453D01*
X-563473Y-3387699D01*
X-546354Y-3376422D01*
X-530250Y-3363569D01*
X-515366Y-3349396D01*
X-501904Y-3333902D01*
X-489762Y-3317240D01*
X-479247Y-3299612D01*
X-470306Y-3281070D01*
X-463092Y-3261867D01*
X-457606Y-3242056D01*
X-453948Y-3221786D01*
X-452120Y-3201314D01*
X-452120Y-3180791D01*
X-453948Y-3160318D01*
X-457606Y-3140049D01*
X-463092Y-3120237D01*
X-470306Y-3101035D01*
X-479247Y-3082493D01*
X-489762Y-3064865D01*
X-501904Y-3048254D01*
X-515366Y-3032709D01*
X-530250Y-3018536D01*
X-546354Y-3005734D01*
X-563473Y-2994406D01*
X-581558Y-2984652D01*
X-600456Y-2976575D01*
X-620064Y-2970225D01*
X-640130Y-2965704D01*
X-660450Y-2962859D01*
X-681177Y-2961944D01*
X-1188770Y-2961944D01*
X-1209497Y-2962859D01*
X-1229868Y-2965704D01*
X-1249934Y-2970225D01*
X-1269492Y-2976575D01*
X-1288389Y-2984652D01*
X-1306474Y-2994406D01*
X-1323644Y-3005734D01*
X-1339697Y-3018536D01*
X-1354632Y-3032709D01*
X-1368094Y-3048254D01*
X-1380185Y-3064865D01*
X-1390700Y-3082493D01*
X-1399641Y-3101035D01*
X-1406906Y-3120237D01*
X-1412341Y-3140049D01*
X-1415999Y-3160318D01*
X-1417828Y-3180791D01*
X-1417828Y-3201314D01*
X-1415999Y-3221786D01*
X-1412341Y-3242056D01*
X-1406906Y-3261867D01*
X-1399641Y-3281070D01*
X-1390700Y-3299612D01*
X-1380185Y-3317240D01*
X-1368094Y-3333902D01*
X-1354632Y-3349396D01*
X-1339697Y-3363569D01*
X-1323644Y-3376422D01*
X-1306474Y-3387699D01*
X-1288389Y-3397453D01*
X-1269492Y-3405530D01*
X-1249934Y-3411880D01*
X-1229868Y-3416452D01*
X-1209497Y-3419246D01*
G37*
G36*
X-363474Y-3294887D02*
G01*
X-353669Y-3294024D01*
X-344220Y-3291484D01*
X-335330Y-3287369D01*
X-327253Y-3281730D01*
X-325678Y-3280105D01*
X-322376Y-3277920D01*
X-318465Y-3277158D01*
X-302310Y-3277158D01*
X-298958Y-3277717D01*
X-296011Y-3279394D01*
X-293573Y-3282187D01*
X-289458Y-3286251D01*
X-284581Y-3289350D01*
X-279095Y-3291230D01*
X-272796Y-3291992D01*
X-218897Y-3291992D01*
X-212648Y-3291230D01*
X-207111Y-3289350D01*
X-203809Y-3287217D01*
X-200253Y-3285845D01*
X-196443Y-3285845D01*
X-192938Y-3287217D01*
X-189636Y-3289350D01*
X-184099Y-3291281D01*
X-177800Y-3291992D01*
X-123901Y-3291992D01*
X-117602Y-3291281D01*
X-112166Y-3289350D01*
X-107238Y-3286251D01*
X-104343Y-3283407D01*
X-101498Y-3281375D01*
X-98094Y-3280460D01*
X-89204Y-3279648D01*
X-82042Y-3277463D01*
X-75336Y-3273907D01*
X-69138Y-3268776D01*
X-50647Y-3250285D01*
X-45516Y-3244088D01*
X-41960Y-3237382D01*
X-39827Y-3230168D01*
X-38963Y-3222142D01*
X-38963Y-3080461D01*
X-38100Y-3076397D01*
X-35712Y-3072993D01*
X-32156Y-3070860D01*
X-26365Y-3068828D01*
X-21488Y-3065830D01*
X-17373Y-3061665D01*
X-14325Y-3056788D01*
X-12395Y-3051302D01*
X-12039Y-3048254D01*
X-10972Y-3044647D01*
X-8686Y-3041751D01*
X-5588Y-3039821D01*
X-1930Y-3039160D01*
X10617Y-3039160D01*
X14478Y-3039922D01*
X17830Y-3042158D01*
X19354Y-3043732D01*
X27432Y-3049371D01*
X36372Y-3053486D01*
X45770Y-3056026D01*
X55626Y-3056890D01*
X65430Y-3056026D01*
X74879Y-3053486D01*
X83769Y-3049371D01*
X91846Y-3043732D01*
X98806Y-3036773D01*
X104394Y-3028746D01*
X108559Y-3019806D01*
X111099Y-3010357D01*
X111963Y-3000552D01*
X111099Y-2990748D01*
X108559Y-2981299D01*
X104394Y-2972358D01*
X98806Y-2964332D01*
X91846Y-2957372D01*
X83769Y-2951734D01*
X74879Y-2947619D01*
X65430Y-2945079D01*
X55626Y-2944215D01*
X45770Y-2945079D01*
X36372Y-2947619D01*
X27432Y-2951734D01*
X19354Y-2957372D01*
X17830Y-2958947D01*
X14478Y-2961182D01*
X10617Y-2961944D01*
X-1930Y-2961944D01*
X-5588Y-2961284D01*
X-8686Y-2959354D01*
X-10972Y-2956458D01*
X-12039Y-2952902D01*
X-12395Y-2949803D01*
X-14325Y-2944317D01*
X-17373Y-2939440D01*
X-21488Y-2935325D01*
X-26365Y-2932277D01*
X-31902Y-2930347D01*
X-38150Y-2929636D01*
X-116992Y-2929636D01*
X-123342Y-2930347D01*
X-128778Y-2932277D01*
X-133705Y-2935325D01*
X-137769Y-2939440D01*
X-138988Y-2941320D01*
X-141782Y-2944266D01*
X-145542Y-2945892D01*
X-149606Y-2945892D01*
X-153365Y-2944266D01*
X-156159Y-2941320D01*
X-157429Y-2939440D01*
X-161442Y-2935325D01*
X-166370Y-2932277D01*
X-171805Y-2930347D01*
X-178155Y-2929636D01*
X-204927Y-2929636D01*
X-204927Y-2987852D01*
X-153670Y-2987852D01*
X-149758Y-2988665D01*
X-146456Y-2990850D01*
X-144272Y-2994101D01*
X-143510Y-2998012D01*
X-143510Y-3003092D01*
X-144272Y-3007004D01*
X-146456Y-3010255D01*
X-149758Y-3012490D01*
X-153670Y-3013252D01*
X-204927Y-3013252D01*
X-204927Y-3071469D01*
X-188417Y-3071469D01*
X-184454Y-3072282D01*
X-181102Y-3074619D01*
X-178968Y-3077972D01*
X-178257Y-3081934D01*
X-179222Y-3085896D01*
X-181610Y-3089148D01*
X-185064Y-3091230D01*
X-189636Y-3092805D01*
X-192938Y-3094888D01*
X-196443Y-3096310D01*
X-200253Y-3096310D01*
X-203809Y-3094888D01*
X-207111Y-3092805D01*
X-211785Y-3091129D01*
X-215036Y-3091789D01*
X-220116Y-3091789D01*
X-223977Y-3091027D01*
X-227279Y-3088792D01*
X-229514Y-3085490D01*
X-230327Y-3081629D01*
X-230327Y-3013252D01*
X-283514Y-3013252D01*
X-283514Y-3045002D01*
X-282752Y-3051302D01*
X-280873Y-3056788D01*
X-277774Y-3061665D01*
X-273659Y-3065830D01*
X-268782Y-3068828D01*
X-264261Y-3070402D01*
X-260807Y-3072485D01*
X-258419Y-3075736D01*
X-257759Y-3076092D01*
X-255625Y-3072841D01*
X-252272Y-3070606D01*
X-248412Y-3069844D01*
X-243382Y-3069844D01*
X-239420Y-3070606D01*
X-236118Y-3072841D01*
X-233934Y-3076092D01*
X-233171Y-3080004D01*
X-233171Y-3130854D01*
X-214426Y-3130854D01*
X-210515Y-3131667D01*
X-207314Y-3133852D01*
X-205028Y-3137154D01*
X-204266Y-3141065D01*
X-204266Y-3146094D01*
X-205028Y-3150006D01*
X-207314Y-3153308D01*
X-210515Y-3155492D01*
X-214426Y-3156254D01*
X-233171Y-3156254D01*
X-233171Y-3175000D01*
X-233934Y-3178860D01*
X-236118Y-3182162D01*
X-239420Y-3184398D01*
X-243382Y-3185160D01*
X-248412Y-3185160D01*
X-252272Y-3184398D01*
X-255625Y-3182162D01*
X-257759Y-3178860D01*
X-258571Y-3175000D01*
X-258571Y-3156254D01*
X-299262Y-3156254D01*
X-299262Y-3170478D01*
X-298602Y-3176828D01*
X-296672Y-3182264D01*
X-295300Y-3184347D01*
X-293878Y-3188411D01*
X-294182Y-3192678D01*
X-296265Y-3196437D01*
X-299720Y-3199028D01*
X-303936Y-3199942D01*
X-318465Y-3199942D01*
X-322376Y-3199180D01*
X-325678Y-3196945D01*
X-327253Y-3195370D01*
X-335330Y-3189732D01*
X-344220Y-3185617D01*
X-353669Y-3183077D01*
X-363474Y-3182213D01*
X-373329Y-3183077D01*
X-382727Y-3185617D01*
X-391668Y-3189732D01*
X-399745Y-3195370D01*
X-406654Y-3202330D01*
X-412292Y-3210407D01*
X-416407Y-3219297D01*
X-418947Y-3228746D01*
X-419811Y-3238550D01*
X-418947Y-3248355D01*
X-416407Y-3257803D01*
X-412292Y-3266744D01*
X-406654Y-3274771D01*
X-399745Y-3281730D01*
X-391668Y-3287369D01*
X-382727Y-3291484D01*
X-373329Y-3294024D01*
G37*
G36*
X893826Y6893864D02*
G01*
X909015Y6894779D01*
X923950Y6897522D01*
X938479Y6902043D01*
X952347Y6908292D01*
X965352Y6916166D01*
X977290Y6925513D01*
X988060Y6936282D01*
X997407Y6948220D01*
X1005281Y6961225D01*
X1011529Y6975094D01*
X1016050Y6989622D01*
X1018794Y7004558D01*
X1019708Y7019747D01*
X1018794Y7034936D01*
X1016050Y7049871D01*
X1011529Y7064400D01*
X1005281Y7078268D01*
X997407Y7091273D01*
X988060Y7103211D01*
X977290Y7113981D01*
X965352Y7123328D01*
X952347Y7131202D01*
X938479Y7137450D01*
X923950Y7141972D01*
X909015Y7144715D01*
X893826Y7145629D01*
X878636Y7144715D01*
X863701Y7141972D01*
X849172Y7137450D01*
X835304Y7131202D01*
X822299Y7123328D01*
X810361Y7113981D01*
X799592Y7103211D01*
X790194Y7091273D01*
X782370Y7078268D01*
X776122Y7064400D01*
X771601Y7049871D01*
X768858Y7034936D01*
X767943Y7019747D01*
X768858Y7004558D01*
X771601Y6989622D01*
X776122Y6975094D01*
X782370Y6961225D01*
X790194Y6948220D01*
X799592Y6936282D01*
X810361Y6925513D01*
X822299Y6916166D01*
X835304Y6908292D01*
X849172Y6902043D01*
X863701Y6897522D01*
X878636Y6894779D01*
G37*
G36*
X-622300Y6778447D02*
G01*
X-532841Y6778447D01*
X-532841Y6835190D01*
X-533654Y6841490D01*
X-535482Y6846976D01*
X-538581Y6851853D01*
X-542645Y6855968D01*
X-547573Y6859016D01*
X-553059Y6860946D01*
X-559409Y6861657D01*
X-622300Y6861657D01*
G37*
G36*
X-1241501Y6670090D02*
G01*
X-1228445Y6670090D01*
X-1215491Y6671868D01*
X-1202842Y6675374D01*
X-1190853Y6680606D01*
X-1179677Y6687413D01*
X-1169568Y6695694D01*
X-1160576Y6705244D01*
X-1153058Y6715912D01*
X-1147013Y6727545D01*
X-1144524Y6734505D01*
X-1142390Y6738061D01*
X-1139037Y6740448D01*
X-1134973Y6741261D01*
X-1130909Y6740448D01*
X-1127607Y6738061D01*
X-1125423Y6734505D01*
X-1122934Y6727545D01*
X-1116888Y6715912D01*
X-1109370Y6705244D01*
X-1100429Y6695694D01*
X-1090269Y6687413D01*
X-1079093Y6680606D01*
X-1067104Y6675374D01*
X-1054506Y6671868D01*
X-1047648Y6670954D01*
X-1047648Y6753047D01*
X-1129080Y6753047D01*
X-1132992Y6753809D01*
X-1136243Y6756044D01*
X-1138478Y6759295D01*
X-1139291Y6763207D01*
X-1139291Y6768287D01*
X-1138478Y6772198D01*
X-1136243Y6775450D01*
X-1132992Y6777685D01*
X-1129080Y6778447D01*
X-1047648Y6778447D01*
X-1047648Y6860540D01*
X-1054506Y6859625D01*
X-1067104Y6856069D01*
X-1079093Y6850888D01*
X-1090269Y6844080D01*
X-1100429Y6835800D01*
X-1109370Y6826250D01*
X-1116888Y6815581D01*
X-1122934Y6803948D01*
X-1125423Y6796989D01*
X-1127607Y6793433D01*
X-1130909Y6791045D01*
X-1134973Y6790232D01*
X-1139037Y6791045D01*
X-1142390Y6793433D01*
X-1144524Y6796989D01*
X-1147013Y6803948D01*
X-1153058Y6815581D01*
X-1160576Y6826250D01*
X-1169568Y6835800D01*
X-1179677Y6844080D01*
X-1190853Y6850888D01*
X-1202842Y6856069D01*
X-1215491Y6859625D01*
X-1228445Y6861403D01*
X-1241501Y6861403D01*
X-1254506Y6859625D01*
X-1267104Y6856069D01*
X-1279093Y6850888D01*
X-1290269Y6844080D01*
X-1300429Y6835800D01*
X-1309370Y6826250D01*
X-1316888Y6815581D01*
X-1322984Y6803948D01*
X-1327302Y6791604D01*
X-1329944Y6778802D01*
X-1330858Y6765747D01*
X-1329944Y6752691D01*
X-1327302Y6739890D01*
X-1322984Y6727545D01*
X-1316888Y6715912D01*
X-1309370Y6705244D01*
X-1300429Y6695694D01*
X-1290269Y6687413D01*
X-1279093Y6680606D01*
X-1267104Y6675374D01*
X-1254506Y6671868D01*
G37*
G36*
X-710590Y6669836D02*
G01*
X-647700Y6669836D01*
X-647700Y6753047D01*
X-729081Y6753047D01*
X-732993Y6753809D01*
X-736295Y6756044D01*
X-738479Y6759295D01*
X-739241Y6763207D01*
X-739241Y6768287D01*
X-738479Y6772198D01*
X-736295Y6775450D01*
X-732993Y6777685D01*
X-729081Y6778447D01*
X-647700Y6778447D01*
X-647700Y6861657D01*
X-710590Y6861657D01*
X-716940Y6860946D01*
X-722376Y6859016D01*
X-727303Y6855968D01*
X-731418Y6851853D01*
X-734466Y6846976D01*
X-736346Y6841490D01*
X-737057Y6835190D01*
X-737057Y6824980D01*
X-737971Y6820814D01*
X-740460Y6817359D01*
X-744169Y6815277D01*
X-748436Y6814870D01*
X-752398Y6816242D01*
X-755548Y6819087D01*
X-760577Y6826250D01*
X-769518Y6835800D01*
X-779729Y6844080D01*
X-790854Y6850888D01*
X-802843Y6856069D01*
X-815441Y6859625D01*
X-828446Y6861403D01*
X-841502Y6861403D01*
X-854557Y6859625D01*
X-867156Y6856069D01*
X-879094Y6850888D01*
X-890269Y6844080D01*
X-900480Y6835800D01*
X-909370Y6826250D01*
X-916889Y6815581D01*
X-922934Y6803948D01*
X-925423Y6796989D01*
X-927557Y6793433D01*
X-930910Y6791045D01*
X-934974Y6790232D01*
X-939037Y6791045D01*
X-942441Y6793433D01*
X-944524Y6796989D01*
X-947013Y6803948D01*
X-953109Y6815581D01*
X-960577Y6826250D01*
X-969518Y6835800D01*
X-979678Y6844080D01*
X-990853Y6850888D01*
X-1002842Y6856069D01*
X-1015441Y6859625D01*
X-1022248Y6860540D01*
X-1022248Y6778447D01*
X-940866Y6778447D01*
X-937006Y6777685D01*
X-933703Y6775450D01*
X-931468Y6772198D01*
X-930757Y6768287D01*
X-930757Y6763207D01*
X-931468Y6759295D01*
X-933703Y6756044D01*
X-937006Y6753809D01*
X-940866Y6753047D01*
X-1022248Y6753047D01*
X-1022248Y6670954D01*
X-1015441Y6671868D01*
X-1002842Y6675374D01*
X-990853Y6680606D01*
X-979678Y6687413D01*
X-969518Y6695694D01*
X-960577Y6705244D01*
X-953109Y6715912D01*
X-947013Y6727545D01*
X-944524Y6734505D01*
X-942441Y6738061D01*
X-939037Y6740448D01*
X-934974Y6741261D01*
X-930910Y6740448D01*
X-927557Y6738061D01*
X-925423Y6734505D01*
X-922934Y6727545D01*
X-916889Y6715912D01*
X-909370Y6705244D01*
X-900480Y6695694D01*
X-890269Y6687413D01*
X-879094Y6680606D01*
X-867156Y6675374D01*
X-854557Y6671868D01*
X-841502Y6670090D01*
X-828446Y6670090D01*
X-815441Y6671868D01*
X-802843Y6675374D01*
X-790854Y6680606D01*
X-779729Y6687413D01*
X-769518Y6695694D01*
X-760577Y6705244D01*
X-755548Y6712407D01*
X-752398Y6715252D01*
X-748436Y6716623D01*
X-744169Y6716217D01*
X-740460Y6714134D01*
X-737971Y6710680D01*
X-737057Y6706514D01*
X-737057Y6696303D01*
X-736346Y6690004D01*
X-734466Y6684518D01*
X-731418Y6679641D01*
X-727303Y6675526D01*
X-722376Y6672478D01*
X-716940Y6670548D01*
G37*
G36*
X-299262Y-3130854D02*
G01*
X-258571Y-3130854D01*
X-258571Y-3084271D01*
X-260350Y-3087065D01*
X-263652Y-3089351D01*
X-267614Y-3090164D01*
X-272796Y-3090164D01*
X-279095Y-3090875D01*
X-284581Y-3092805D01*
X-289458Y-3095853D01*
X-293573Y-3100019D01*
X-296672Y-3104896D01*
X-298602Y-3110331D01*
X-299262Y-3116630D01*
G37*
G36*
X-622300Y6669836D02*
G01*
X-559409Y6669836D01*
X-553059Y6670548D01*
X-547573Y6672478D01*
X-542645Y6675526D01*
X-538581Y6679641D01*
X-535482Y6684518D01*
X-533654Y6690004D01*
X-532841Y6696303D01*
X-532841Y6753047D01*
X-622300Y6753047D01*
G37*
G36*
X-2687574Y6455410D02*
G01*
X-2677769Y6456273D01*
X-2668320Y6458813D01*
X-2659380Y6462928D01*
X-2651353Y6468567D01*
X-2649778Y6470142D01*
X-2646476Y6472377D01*
X-2642565Y6473139D01*
X-879957Y6473139D01*
X-876096Y6472377D01*
X-872794Y6470142D01*
X-871219Y6468567D01*
X-863142Y6462928D01*
X-854252Y6458813D01*
X-844803Y6456273D01*
X-834948Y6455410D01*
X-825195Y6456273D01*
X-815695Y6458813D01*
X-806805Y6462928D01*
X-798779Y6468567D01*
X-791819Y6475526D01*
X-786180Y6483553D01*
X-782015Y6492494D01*
X-779475Y6501942D01*
X-778611Y6511747D01*
X-779475Y6521551D01*
X-782015Y6531000D01*
X-786180Y6539941D01*
X-791819Y6547967D01*
X-798779Y6554927D01*
X-806805Y6560566D01*
X-815695Y6564680D01*
X-825195Y6567220D01*
X-834948Y6568084D01*
X-844803Y6567220D01*
X-854252Y6564680D01*
X-863142Y6560566D01*
X-871219Y6554927D01*
X-872794Y6553352D01*
X-876096Y6551117D01*
X-879957Y6550355D01*
X-2642565Y6550355D01*
X-2646476Y6551117D01*
X-2649778Y6553352D01*
X-2651353Y6554927D01*
X-2659380Y6560566D01*
X-2668320Y6564680D01*
X-2677769Y6567220D01*
X-2687574Y6568084D01*
X-2697378Y6567220D01*
X-2706827Y6564680D01*
X-2715768Y6560566D01*
X-2723794Y6554927D01*
X-2730754Y6547967D01*
X-2736392Y6539941D01*
X-2740507Y6531000D01*
X-2743047Y6521551D01*
X-2743911Y6511747D01*
X-2743047Y6501942D01*
X-2740507Y6492494D01*
X-2736392Y6483553D01*
X-2730754Y6475526D01*
X-2723794Y6468567D01*
X-2715768Y6462928D01*
X-2706827Y6458813D01*
X-2697378Y6456273D01*
G37*
G36*
X-1234998Y6260084D02*
G01*
X-1225143Y6260947D01*
X-1215694Y6263487D01*
X-1213307Y6264554D01*
X-1209040Y6265519D01*
X842467Y6265519D01*
X846785Y6264554D01*
X849172Y6263487D01*
X858570Y6260947D01*
X868426Y6260084D01*
X878230Y6260947D01*
X887679Y6263487D01*
X896569Y6267602D01*
X904646Y6273241D01*
X911606Y6280200D01*
X917194Y6288227D01*
X921359Y6297168D01*
X923899Y6306616D01*
X924763Y6316421D01*
X923899Y6326225D01*
X921359Y6335674D01*
X917194Y6344615D01*
X911606Y6352641D01*
X904646Y6359601D01*
X896569Y6365240D01*
X887679Y6369304D01*
X878230Y6371894D01*
X868426Y6372707D01*
X858570Y6371894D01*
X849172Y6369304D01*
X846785Y6368288D01*
X842467Y6367322D01*
X-1209040Y6367322D01*
X-1213358Y6368288D01*
X-1215694Y6369304D01*
X-1225143Y6371894D01*
X-1234998Y6372707D01*
X-1244752Y6371894D01*
X-1254201Y6369304D01*
X-1263142Y6365240D01*
X-1271168Y6359601D01*
X-1278128Y6352641D01*
X-1283766Y6344615D01*
X-1287881Y6335674D01*
X-1290421Y6326225D01*
X-1291285Y6316421D01*
X-1290421Y6306616D01*
X-1287881Y6297168D01*
X-1283766Y6288227D01*
X-1278128Y6280200D01*
X-1271168Y6273241D01*
X-1263142Y6267602D01*
X-1254201Y6263487D01*
X-1244752Y6260947D01*
G37*
G36*
X-2123287Y1761439D02*
G01*
X263144Y1761439D01*
X269494Y1762150D01*
X274929Y1764080D01*
X279857Y1767128D01*
X283921Y1771243D01*
X286969Y1776120D01*
X288899Y1781606D01*
X289661Y1787906D01*
X289661Y1948129D01*
X290372Y1951989D01*
X292557Y1955241D01*
X295808Y1957476D01*
X299618Y1958289D01*
X303479Y1957578D01*
X306781Y1955495D01*
X309067Y1952294D01*
X312470Y1944725D01*
X320294Y1931720D01*
X329692Y1919782D01*
X340461Y1909013D01*
X352399Y1899666D01*
X365404Y1891792D01*
X379272Y1885543D01*
X393801Y1881022D01*
X408736Y1878279D01*
X423926Y1877364D01*
X439115Y1878279D01*
X454050Y1881022D01*
X468579Y1885543D01*
X482447Y1891792D01*
X495452Y1899666D01*
X507390Y1909013D01*
X518159Y1919782D01*
X527507Y1931720D01*
X535381Y1944725D01*
X541629Y1958593D01*
X546150Y1973122D01*
X548894Y1988057D01*
X549808Y2003247D01*
X548894Y2018436D01*
X546150Y2033371D01*
X541629Y2047900D01*
X535381Y2061768D01*
X527507Y2074773D01*
X518159Y2086711D01*
X507390Y2097481D01*
X495452Y2106828D01*
X482447Y2114702D01*
X468579Y2120950D01*
X454050Y2125472D01*
X439115Y2128215D01*
X423926Y2129129D01*
X408736Y2128215D01*
X393801Y2125472D01*
X379272Y2120950D01*
X365404Y2114702D01*
X352399Y2106828D01*
X340461Y2097481D01*
X329692Y2086711D01*
X320294Y2074773D01*
X312470Y2061768D01*
X309067Y2054199D01*
X306781Y2050999D01*
X303479Y2048865D01*
X299618Y2048205D01*
X295808Y2049018D01*
X292557Y2051253D01*
X290372Y2054504D01*
X289661Y2058365D01*
X289661Y2144979D01*
X290372Y2148890D01*
X292608Y2152142D01*
X295910Y2154377D01*
X299770Y2155139D01*
X656844Y2155139D01*
X663194Y2155850D01*
X668629Y2157780D01*
X673557Y2160828D01*
X677621Y2164943D01*
X680669Y2169820D01*
X682599Y2175306D01*
X683361Y2181606D01*
X683361Y5723788D01*
X682599Y5730087D01*
X680669Y5735574D01*
X677621Y5740450D01*
X673557Y5744565D01*
X668629Y5747613D01*
X663194Y5749544D01*
X656844Y5750255D01*
X452628Y5750255D01*
X448462Y5751169D01*
X445058Y5753658D01*
X442976Y5757367D01*
X442569Y5761634D01*
X443890Y5765647D01*
X446887Y5768797D01*
X450799Y5770422D01*
X454050Y5770930D01*
X468579Y5775502D01*
X482447Y5781751D01*
X495452Y5789625D01*
X507390Y5799023D01*
X518159Y5809742D01*
X527507Y5821730D01*
X535381Y5834735D01*
X541629Y5848604D01*
X546150Y5863082D01*
X548894Y5878068D01*
X549808Y5893206D01*
X548894Y5908395D01*
X546150Y5923330D01*
X541629Y5937859D01*
X535381Y5951728D01*
X527507Y5964732D01*
X518159Y5976721D01*
X507390Y5987440D01*
X495452Y5996838D01*
X482447Y6004712D01*
X468579Y6010960D01*
X454050Y6015482D01*
X439115Y6018225D01*
X423926Y6019139D01*
X408736Y6018225D01*
X393801Y6015482D01*
X379272Y6010960D01*
X365404Y6004712D01*
X352399Y5996838D01*
X340461Y5987440D01*
X329692Y5976721D01*
X320294Y5964732D01*
X312470Y5951728D01*
X306222Y5937859D01*
X301701Y5923330D01*
X298958Y5908395D01*
X298043Y5893206D01*
X298958Y5878068D01*
X301701Y5863082D01*
X306222Y5848604D01*
X312470Y5834735D01*
X320294Y5821730D01*
X329692Y5809742D01*
X340461Y5799023D01*
X352399Y5789625D01*
X365404Y5781751D01*
X379272Y5775502D01*
X393801Y5770930D01*
X397052Y5770422D01*
X400913Y5768797D01*
X403910Y5765647D01*
X405231Y5761634D01*
X404876Y5757367D01*
X402742Y5753658D01*
X399338Y5751169D01*
X395173Y5750255D01*
X-2262327Y5750255D01*
X-2266543Y5751169D01*
X-2269947Y5753658D01*
X-2272080Y5757367D01*
X-2272436Y5761634D01*
X-2271064Y5765647D01*
X-2268118Y5768797D01*
X-2264257Y5770422D01*
X-2260955Y5770930D01*
X-2246426Y5775502D01*
X-2232558Y5781751D01*
X-2219553Y5789625D01*
X-2207615Y5799023D01*
X-2196846Y5809742D01*
X-2187498Y5821730D01*
X-2179675Y5834735D01*
X-2173376Y5848604D01*
X-2168906Y5863082D01*
X-2166112Y5878068D01*
X-2165197Y5893206D01*
X-2166112Y5908395D01*
X-2168906Y5923330D01*
X-2173376Y5937859D01*
X-2179675Y5951728D01*
X-2187498Y5964732D01*
X-2196846Y5976721D01*
X-2207615Y5987440D01*
X-2219553Y5996838D01*
X-2232558Y6004712D01*
X-2246426Y6010960D01*
X-2260955Y6015482D01*
X-2275941Y6018225D01*
X-2291130Y6019139D01*
X-2306269Y6018225D01*
X-2321204Y6015482D01*
X-2335733Y6010960D01*
X-2349601Y6004712D01*
X-2362606Y5996838D01*
X-2374544Y5987440D01*
X-2385314Y5976721D01*
X-2394661Y5964732D01*
X-2402535Y5951728D01*
X-2408783Y5937859D01*
X-2413304Y5923330D01*
X-2416048Y5908395D01*
X-2416962Y5893206D01*
X-2416048Y5878068D01*
X-2413304Y5863082D01*
X-2408783Y5848604D01*
X-2402535Y5834735D01*
X-2394661Y5821730D01*
X-2385314Y5809742D01*
X-2374544Y5799023D01*
X-2362606Y5789625D01*
X-2349601Y5781751D01*
X-2335733Y5775502D01*
X-2321204Y5770930D01*
X-2317953Y5770422D01*
X-2314041Y5768797D01*
X-2311095Y5765647D01*
X-2309723Y5761634D01*
X-2310130Y5757367D01*
X-2312212Y5753658D01*
X-2315616Y5751169D01*
X-2319832Y5750255D01*
X-2516987Y5750255D01*
X-2523337Y5749544D01*
X-2528773Y5747613D01*
X-2533700Y5744565D01*
X-2537764Y5740450D01*
X-2540863Y5735574D01*
X-2542743Y5730087D01*
X-2543454Y5723788D01*
X-2543454Y2181606D01*
X-2542743Y2175306D01*
X-2540863Y2169820D01*
X-2537764Y2164943D01*
X-2533700Y2160828D01*
X-2528773Y2157780D01*
X-2523337Y2155850D01*
X-2516987Y2155139D01*
X-2159914Y2155139D01*
X-2156053Y2154377D01*
X-2152802Y2152142D01*
X-2150567Y2148890D01*
X-2149754Y2144979D01*
X-2149754Y2038959D01*
X-2150618Y2034946D01*
X-2152954Y2031542D01*
X-2156409Y2029409D01*
X-2160473Y2028799D01*
X-2164486Y2029815D01*
X-2167636Y2032254D01*
X-2169617Y2035911D01*
X-2173376Y2047900D01*
X-2179675Y2061768D01*
X-2187498Y2074773D01*
X-2196846Y2086711D01*
X-2207615Y2097481D01*
X-2219553Y2106828D01*
X-2232558Y2114702D01*
X-2246426Y2120950D01*
X-2260955Y2125472D01*
X-2275941Y2128215D01*
X-2291130Y2129129D01*
X-2306269Y2128215D01*
X-2321204Y2125472D01*
X-2335733Y2120950D01*
X-2349601Y2114702D01*
X-2362606Y2106828D01*
X-2374544Y2097481D01*
X-2385314Y2086711D01*
X-2394661Y2074773D01*
X-2402535Y2061768D01*
X-2408783Y2047900D01*
X-2413304Y2033371D01*
X-2416048Y2018436D01*
X-2416962Y2003247D01*
X-2416048Y1988057D01*
X-2413304Y1973122D01*
X-2408783Y1958593D01*
X-2402535Y1944725D01*
X-2394661Y1931720D01*
X-2385314Y1919782D01*
X-2374544Y1909013D01*
X-2362606Y1899666D01*
X-2349601Y1891792D01*
X-2335733Y1885543D01*
X-2321204Y1881022D01*
X-2306269Y1878279D01*
X-2291130Y1877364D01*
X-2275941Y1878279D01*
X-2260955Y1881022D01*
X-2246426Y1885543D01*
X-2232558Y1891792D01*
X-2219553Y1899666D01*
X-2207615Y1909013D01*
X-2196846Y1919782D01*
X-2187498Y1931720D01*
X-2179675Y1944725D01*
X-2173376Y1958593D01*
X-2169617Y1970582D01*
X-2167636Y1974189D01*
X-2164486Y1976678D01*
X-2160473Y1977694D01*
X-2156409Y1977034D01*
X-2152954Y1974951D01*
X-2150618Y1971548D01*
X-2149754Y1967534D01*
X-2149754Y1787906D01*
X-2149043Y1781606D01*
X-2147163Y1776120D01*
X-2144064Y1771243D01*
X-2140000Y1767128D01*
X-2135073Y1764080D01*
X-2129637Y1762150D01*
G37*
G36*
X-283514Y-2987852D02*
G01*
X-230327Y-2987852D01*
X-230327Y-2929636D01*
X-256997Y-2929636D01*
X-263296Y-2930347D01*
X-268782Y-2932277D01*
X-273659Y-2935325D01*
X-277774Y-2939440D01*
X-280873Y-2944317D01*
X-282752Y-2949803D01*
X-283514Y-2956102D01*
G37*
G36*
X-2687574Y1438910D02*
G01*
X-2677769Y1439722D01*
X-2668320Y1442313D01*
X-2659380Y1446428D01*
X-2651353Y1452067D01*
X-2649778Y1453642D01*
X-2646476Y1455877D01*
X-2642565Y1456639D01*
X-446582Y1456639D01*
X-442722Y1455877D01*
X-439369Y1453642D01*
X-437845Y1452067D01*
X-429768Y1446428D01*
X-420827Y1442313D01*
X-411429Y1439722D01*
X-401574Y1438910D01*
X-391769Y1439722D01*
X-382320Y1442313D01*
X-373430Y1446428D01*
X-365353Y1452067D01*
X-358394Y1459026D01*
X-352806Y1467053D01*
X-348640Y1475994D01*
X-346100Y1485442D01*
X-345236Y1495247D01*
X-346100Y1505051D01*
X-348640Y1514500D01*
X-352806Y1523441D01*
X-358394Y1531467D01*
X-365353Y1538427D01*
X-373430Y1544066D01*
X-382320Y1548180D01*
X-391769Y1550720D01*
X-401574Y1551584D01*
X-411429Y1550720D01*
X-420827Y1548180D01*
X-429768Y1544066D01*
X-437845Y1538427D01*
X-439369Y1536852D01*
X-442722Y1534617D01*
X-446582Y1533855D01*
X-2642565Y1533855D01*
X-2646476Y1534617D01*
X-2649778Y1536852D01*
X-2651353Y1538427D01*
X-2659380Y1544066D01*
X-2668320Y1548180D01*
X-2677769Y1550720D01*
X-2687574Y1551584D01*
X-2697378Y1550720D01*
X-2706827Y1548180D01*
X-2715768Y1544066D01*
X-2723794Y1538427D01*
X-2730754Y1531467D01*
X-2736392Y1523441D01*
X-2740507Y1514500D01*
X-2743047Y1505051D01*
X-2743911Y1495247D01*
X-2743047Y1485442D01*
X-2740507Y1475994D01*
X-2736392Y1467053D01*
X-2730754Y1459026D01*
X-2723794Y1452067D01*
X-2715768Y1446428D01*
X-2706827Y1442313D01*
X-2697378Y1439722D01*
G37*
G36*
X-2738374Y-3558235D02*
G01*
X-2723184Y-3557320D01*
X-2708249Y-3554577D01*
X-2693720Y-3550056D01*
X-2679852Y-3543808D01*
X-2666847Y-3535934D01*
X-2654909Y-3526586D01*
X-2644140Y-3515817D01*
X-2634792Y-3503879D01*
X-2626918Y-3490874D01*
X-2620670Y-3477006D01*
X-2616149Y-3462477D01*
X-2613406Y-3447542D01*
X-2612491Y-3432352D01*
X-2613406Y-3417163D01*
X-2616149Y-3402228D01*
X-2620670Y-3387699D01*
X-2626918Y-3373831D01*
X-2634792Y-3360826D01*
X-2644140Y-3348888D01*
X-2654909Y-3338118D01*
X-2666847Y-3328771D01*
X-2679852Y-3320897D01*
X-2693720Y-3314649D01*
X-2708249Y-3310128D01*
X-2723184Y-3307384D01*
X-2738374Y-3306470D01*
X-2753563Y-3307384D01*
X-2768498Y-3310128D01*
X-2783027Y-3314649D01*
X-2796895Y-3320897D01*
X-2809900Y-3328771D01*
X-2821838Y-3338118D01*
X-2832608Y-3348888D01*
X-2841955Y-3360826D01*
X-2849829Y-3373831D01*
X-2856077Y-3387699D01*
X-2860598Y-3402228D01*
X-2863342Y-3417163D01*
X-2864256Y-3432352D01*
X-2863342Y-3447542D01*
X-2860598Y-3462477D01*
X-2856077Y-3477006D01*
X-2849829Y-3490874D01*
X-2841955Y-3503879D01*
X-2832608Y-3515817D01*
X-2821838Y-3526586D01*
X-2809900Y-3535934D01*
X-2796895Y-3543808D01*
X-2783027Y-3550056D01*
X-2768498Y-3554577D01*
X-2753563Y-3557320D01*
G37*
G36*
X68326Y-2875788D02*
G01*
X78130Y-2874924D01*
X87579Y-2872384D01*
X96469Y-2868269D01*
X104546Y-2862630D01*
X111506Y-2855671D01*
X117094Y-2847644D01*
X121259Y-2838704D01*
X123799Y-2829255D01*
X124663Y-2819450D01*
X123799Y-2809646D01*
X121259Y-2800197D01*
X117094Y-2791307D01*
X111506Y-2783230D01*
X104546Y-2776270D01*
X96469Y-2770632D01*
X87579Y-2766517D01*
X78130Y-2763977D01*
X68326Y-2763113D01*
X58470Y-2763977D01*
X49072Y-2766517D01*
X40132Y-2770632D01*
X32054Y-2776270D01*
X30530Y-2777845D01*
X27178Y-2780080D01*
X23317Y-2780842D01*
X-318414Y-2780842D01*
X-322275Y-2780080D01*
X-325577Y-2777845D01*
X-327253Y-2776220D01*
X-335330Y-2770581D01*
X-344220Y-2766415D01*
X-353669Y-2763875D01*
X-363474Y-2763012D01*
X-373329Y-2763875D01*
X-382727Y-2766415D01*
X-391668Y-2770581D01*
X-399745Y-2776220D01*
X-406654Y-2783128D01*
X-412292Y-2791206D01*
X-416407Y-2800096D01*
X-418947Y-2809595D01*
X-419811Y-2819349D01*
X-418947Y-2829153D01*
X-416407Y-2838704D01*
X-412292Y-2847543D01*
X-406654Y-2855569D01*
X-399745Y-2862529D01*
X-391668Y-2868168D01*
X-382727Y-2872384D01*
X-373329Y-2874873D01*
X-363474Y-2875737D01*
X-353669Y-2874873D01*
X-344220Y-2872384D01*
X-335330Y-2868168D01*
X-327253Y-2862529D01*
X-325729Y-2861056D01*
X-322529Y-2858820D01*
X-318566Y-2858058D01*
X23317Y-2858058D01*
X27178Y-2858820D01*
X30530Y-2861056D01*
X32054Y-2862630D01*
X40132Y-2868269D01*
X49072Y-2872384D01*
X58470Y-2874924D01*
G37*
G36*
X-946962Y-1000302D02*
G01*
X-899058Y-999794D01*
X-851255Y-997305D01*
X-803554Y-992835D01*
X-756107Y-986434D01*
X-708964Y-977950D01*
X-662228Y-967587D01*
X-615950Y-955243D01*
X-570280Y-941019D01*
X-525119Y-924915D01*
X-480822Y-906932D01*
X-437134Y-887120D01*
X-394411Y-865530D01*
X-352602Y-842162D01*
X-311861Y-817067D01*
X-272186Y-790295D01*
X-233629Y-761898D01*
X-196189Y-731977D01*
X-160121Y-700481D01*
X-125425Y-667512D01*
X-92100Y-633120D01*
X-60248Y-597357D01*
X-29870Y-560324D01*
X-1066Y-522071D01*
X26111Y-482650D01*
X51562Y-442112D01*
X75387Y-400558D01*
X97485Y-358038D01*
X117703Y-314655D01*
X136144Y-270459D01*
X152704Y-225552D01*
X167436Y-179984D01*
X180238Y-133807D01*
X191109Y-87172D01*
X199999Y-40132D01*
X206908Y7264D01*
X211175Y47548D01*
X212242Y51054D01*
X214477Y54051D01*
X217627Y55930D01*
X221284Y56641D01*
X863193Y56641D01*
X873099Y57505D01*
X882345Y59842D01*
X891032Y63652D01*
X899007Y68834D01*
X905967Y75285D01*
X911860Y82804D01*
X916381Y91186D01*
X919480Y100177D01*
X921054Y109575D01*
X921054Y119075D01*
X919480Y128473D01*
X916381Y137464D01*
X911860Y145796D01*
X905967Y153365D01*
X899007Y159816D01*
X891032Y164998D01*
X882345Y168757D01*
X873099Y171145D01*
X863193Y171958D01*
X225450Y171958D01*
X221538Y172669D01*
X218338Y174904D01*
X216103Y178054D01*
X215290Y181914D01*
X214934Y198424D01*
X211937Y246227D01*
X206908Y293827D01*
X199999Y341172D01*
X191109Y388264D01*
X180238Y434898D01*
X167436Y481076D01*
X152704Y526643D01*
X136144Y571550D01*
X117703Y615696D01*
X97485Y659130D01*
X75387Y701649D01*
X51562Y743204D01*
X26111Y783742D01*
X-1066Y823163D01*
X-29870Y861415D01*
X-60248Y898448D01*
X-92100Y934212D01*
X-125425Y968603D01*
X-160121Y1001572D01*
X-196189Y1033068D01*
X-233629Y1062990D01*
X-272186Y1091387D01*
X-311861Y1118158D01*
X-352602Y1143254D01*
X-394411Y1166622D01*
X-437134Y1188212D01*
X-480822Y1208024D01*
X-525119Y1226007D01*
X-570280Y1242110D01*
X-615950Y1256334D01*
X-662228Y1268679D01*
X-708964Y1279042D01*
X-756107Y1287475D01*
X-803554Y1293926D01*
X-851255Y1298397D01*
X-899058Y1300886D01*
X-946962Y1301394D01*
X-994816Y1299870D01*
X-1042568Y1296416D01*
X-1090117Y1290929D01*
X-1137462Y1283512D01*
X-1184402Y1274114D01*
X-1230934Y1262735D01*
X-1276959Y1249476D01*
X-1322324Y1234287D01*
X-1367078Y1217269D01*
X-1411071Y1198372D01*
X-1454302Y1177645D01*
X-1496568Y1155141D01*
X-1537868Y1130909D01*
X-1578102Y1105001D01*
X-1617268Y1077417D01*
X-1655216Y1048207D01*
X-1691944Y1017473D01*
X-1727352Y985266D01*
X-1761388Y951534D01*
X-1794002Y916482D01*
X-1825091Y880110D01*
X-1854707Y842365D01*
X-1882698Y803554D01*
X-1909013Y763574D01*
X-1933651Y722528D01*
X-1956612Y680516D01*
X-1977745Y637540D01*
X-1997100Y593750D01*
X-2014626Y549198D01*
X-2030272Y503935D01*
X-2044039Y458063D01*
X-2055875Y411632D01*
X-2065832Y364794D01*
X-2073757Y317550D01*
X-2079650Y270052D01*
X-2083612Y222351D01*
X-2085644Y174498D01*
X-2085644Y126593D01*
X-2083612Y78740D01*
X-2079650Y31038D01*
X-2073757Y-16459D01*
X-2065832Y-63754D01*
X-2055875Y-110540D01*
X-2044039Y-156972D01*
X-2030272Y-202844D01*
X-2014626Y-248107D01*
X-1997100Y-292658D01*
X-1977745Y-336448D01*
X-1956612Y-379425D01*
X-1933651Y-421436D01*
X-1909013Y-462483D01*
X-1882698Y-502462D01*
X-1854707Y-541324D01*
X-1825091Y-579069D01*
X-1794002Y-615391D01*
X-1761388Y-650494D01*
X-1727352Y-684174D01*
X-1691944Y-716381D01*
X-1655216Y-747115D01*
X-1617268Y-776325D01*
X-1578102Y-803910D01*
X-1537868Y-829818D01*
X-1496568Y-854049D01*
X-1454302Y-876553D01*
X-1411071Y-897280D01*
X-1367078Y-916178D01*
X-1322324Y-933196D01*
X-1276959Y-948385D01*
X-1230934Y-961644D01*
X-1184402Y-973023D01*
X-1137462Y-982421D01*
X-1090117Y-989837D01*
X-1042568Y-995324D01*
X-994816Y-998778D01*
G37*

%LPD*%
G36*
X-982624Y-743661D02*
G01*
X-985418Y-743356D01*
X-989279Y-742238D01*
X-992327Y-739648D01*
X-994156Y-736142D01*
X-994460Y-732180D01*
X-992530Y-713587D01*
X-1011123Y-711606D01*
X-1014933Y-710488D01*
X-1017981Y-707898D01*
X-1019810Y-704392D01*
X-1020165Y-700430D01*
X-1019657Y-695401D01*
X-1018489Y-691591D01*
X-1015949Y-688543D01*
X-1012444Y-686714D01*
X-1008481Y-686358D01*
X-989888Y-688289D01*
X-985621Y-647801D01*
X-999744Y-646328D01*
X-1006144Y-646379D01*
X-1011834Y-647700D01*
X-1015339Y-649478D01*
X-1018997Y-650494D01*
X-1022756Y-650087D01*
X-1026109Y-648360D01*
X-1029208Y-645871D01*
X-1034440Y-643382D01*
X-1040688Y-642061D01*
X-1094282Y-636422D01*
X-1101750Y-636473D01*
X-1106068Y-635558D01*
X-1112875Y-632460D01*
X-1126388Y-628040D01*
X-1138936Y-666750D01*
X-1132382Y-668934D01*
X-1129334Y-670509D01*
X-1127048Y-673049D01*
X-1125677Y-676198D01*
X-1125423Y-679704D01*
X-1125931Y-684784D01*
X-1127404Y-689051D01*
X-1130554Y-692251D01*
X-1134719Y-693877D01*
X-1139190Y-693420D01*
X-1146810Y-690930D01*
X-1152601Y-708710D01*
X-1154531Y-712216D01*
X-1157630Y-714654D01*
X-1161440Y-715721D01*
X-1165402Y-715264D01*
X-1170228Y-713689D01*
X-1173683Y-711758D01*
X-1176121Y-708660D01*
X-1177239Y-704799D01*
X-1176731Y-700887D01*
X-1170940Y-683107D01*
X-1188770Y-677265D01*
X-1192225Y-675335D01*
X-1194663Y-672236D01*
X-1195781Y-668477D01*
X-1195273Y-664464D01*
X-1193698Y-659688D01*
X-1191768Y-656234D01*
X-1188669Y-653796D01*
X-1184859Y-652678D01*
X-1180896Y-653135D01*
X-1163116Y-658926D01*
X-1150518Y-620217D01*
X-1164132Y-615797D01*
X-1170279Y-614527D01*
X-1176070Y-614730D01*
X-1179931Y-615696D01*
X-1183741Y-615848D01*
X-1187297Y-614730D01*
X-1190244Y-612292D01*
X-1192784Y-609244D01*
X-1197457Y-605739D01*
X-1203248Y-603097D01*
X-1254404Y-586435D01*
X-1261770Y-584962D01*
X-1265732Y-583184D01*
X-1271778Y-578713D01*
X-1284122Y-571601D01*
X-1304442Y-606907D01*
X-1298498Y-610311D01*
X-1295806Y-612495D01*
X-1294079Y-615492D01*
X-1293368Y-618845D01*
X-1293876Y-622249D01*
X-1295552Y-627176D01*
X-1297787Y-631037D01*
X-1301496Y-633526D01*
X-1305966Y-634187D01*
X-1310284Y-632866D01*
X-1317142Y-628904D01*
X-1325727Y-643636D01*
X-1328318Y-646582D01*
X-1331722Y-648309D01*
X-1333906Y-648970D01*
X-1337970Y-649274D01*
X-1341780Y-648004D01*
X-1344879Y-646226D01*
X-1347825Y-643636D01*
X-1349552Y-640130D01*
X-1349857Y-636117D01*
X-1348536Y-632358D01*
X-1339189Y-616204D01*
X-1355394Y-606806D01*
X-1358341Y-604164D01*
X-1360119Y-600608D01*
X-1360373Y-596646D01*
X-1359154Y-592886D01*
X-1356563Y-588518D01*
X-1353921Y-585520D01*
X-1350365Y-583793D01*
X-1346454Y-583539D01*
X-1342694Y-584809D01*
X-1326489Y-594207D01*
X-1306118Y-558901D01*
X-1318412Y-551789D01*
X-1324254Y-549249D01*
X-1329944Y-548182D01*
X-1333957Y-548335D01*
X-1337665Y-547725D01*
X-1340916Y-545846D01*
X-1343304Y-542899D01*
X-1345184Y-539394D01*
X-1348943Y-534974D01*
X-1354074Y-531215D01*
X-1400708Y-504342D01*
X-1407566Y-501294D01*
X-1411122Y-498703D01*
X-1416100Y-493115D01*
X-1426667Y-483565D01*
X-1453896Y-513842D01*
X-1448765Y-518515D01*
X-1446631Y-521157D01*
X-1445564Y-524408D01*
X-1445564Y-527862D01*
X-1446733Y-531114D01*
X-1449324Y-535584D01*
X-1452372Y-538886D01*
X-1456537Y-540562D01*
X-1461008Y-540258D01*
X-1464970Y-538073D01*
X-1470964Y-532688D01*
X-1483410Y-546608D01*
X-1486611Y-548995D01*
X-1490472Y-549960D01*
X-1494434Y-549402D01*
X-1497838Y-547370D01*
X-1501546Y-543966D01*
X-1503934Y-540816D01*
X-1504899Y-536956D01*
X-1504340Y-533044D01*
X-1502308Y-529640D01*
X-1489760Y-515721D01*
X-1503730Y-503174D01*
X-1506118Y-500024D01*
X-1507032Y-496163D01*
X-1506474Y-492251D01*
X-1504442Y-488848D01*
X-1501038Y-485038D01*
X-1497838Y-482701D01*
X-1494028Y-481736D01*
X-1490116Y-482346D01*
X-1486712Y-484327D01*
X-1472793Y-496824D01*
X-1445564Y-466598D01*
X-1456131Y-457047D01*
X-1461312Y-453339D01*
X-1466646Y-451104D01*
X-1470558Y-450443D01*
X-1474114Y-449122D01*
X-1476908Y-446582D01*
X-1478584Y-443280D01*
X-1479702Y-439369D01*
X-1482445Y-434289D01*
X-1486662Y-429615D01*
X-1526692Y-393496D01*
X-1532788Y-389128D01*
X-1535734Y-385876D01*
X-1539443Y-379374D01*
X-1547774Y-367842D01*
X-1580743Y-391769D01*
X-1576679Y-397408D01*
X-1575155Y-400456D01*
X-1574749Y-403910D01*
X-1575511Y-407263D01*
X-1577340Y-410159D01*
X-1580845Y-414020D01*
X-1584452Y-416610D01*
X-1588871Y-417372D01*
X-1593189Y-416153D01*
X-1596593Y-413207D01*
X-1601266Y-406704D01*
X-1616456Y-417728D01*
X-1620012Y-419354D01*
X-1623974Y-419506D01*
X-1627784Y-418134D01*
X-1630629Y-415442D01*
X-1633677Y-411378D01*
X-1635251Y-407771D01*
X-1635404Y-403809D01*
X-1634032Y-400050D01*
X-1631340Y-397154D01*
X-1616202Y-386130D01*
X-1627225Y-370992D01*
X-1628851Y-367436D01*
X-1629054Y-363474D01*
X-1627682Y-359765D01*
X-1624990Y-356819D01*
X-1620875Y-353822D01*
X-1617268Y-352196D01*
X-1613306Y-352044D01*
X-1609648Y-353415D01*
X-1606702Y-356057D01*
X-1595678Y-371246D01*
X-1562709Y-347319D01*
X-1571091Y-335838D01*
X-1575409Y-331114D01*
X-1580134Y-327812D01*
X-1583842Y-326288D01*
X-1587042Y-324256D01*
X-1589227Y-321208D01*
X-1590192Y-317550D01*
X-1590446Y-313588D01*
X-1592122Y-308051D01*
X-1595272Y-302514D01*
X-1626920Y-258927D01*
X-1632000Y-253390D01*
X-1634185Y-249631D01*
X-1636420Y-242519D01*
X-1642211Y-229463D01*
X-1679397Y-246024D01*
X-1676654Y-252323D01*
X-1675739Y-255778D01*
X-1676095Y-259232D01*
X-1677619Y-262432D01*
X-1680159Y-264871D01*
X-1684426Y-267766D01*
X-1688490Y-269443D01*
X-1692910Y-269189D01*
X-1696770Y-267055D01*
X-1699412Y-263550D01*
X-1702612Y-256336D01*
X-1715465Y-262077D01*
X-1718716Y-262890D01*
X-1722120Y-262636D01*
X-1727911Y-261112D01*
X-1730756Y-259943D01*
X-1733042Y-257962D01*
X-1735226Y-254152D01*
X-1736089Y-250342D01*
X-1735429Y-246430D01*
X-1733296Y-243027D01*
X-1730044Y-240741D01*
X-1712925Y-233121D01*
X-1720545Y-216052D01*
X-1721459Y-212242D01*
X-1720748Y-208330D01*
X-1718665Y-204927D01*
X-1715414Y-202641D01*
X-1710791Y-200558D01*
X-1706930Y-199694D01*
X-1703019Y-200355D01*
X-1699666Y-202488D01*
X-1697380Y-205689D01*
X-1689811Y-222808D01*
X-1652625Y-206248D01*
X-1658366Y-193243D01*
X-1661566Y-187807D01*
X-1665528Y-183540D01*
X-1668830Y-181356D01*
X-1671523Y-178663D01*
X-1673047Y-175209D01*
X-1673250Y-171450D01*
X-1672691Y-167538D01*
X-1673148Y-161747D01*
X-1675079Y-155702D01*
X-1696974Y-106476D01*
X-1700784Y-100025D01*
X-1702104Y-95859D01*
X-1702866Y-88392D01*
X-1705813Y-74472D01*
X-1745640Y-82905D01*
X-1744218Y-89712D01*
X-1744065Y-93167D01*
X-1745081Y-96469D01*
X-1747113Y-99212D01*
X-1750009Y-101092D01*
X-1754784Y-103225D01*
X-1759204Y-104089D01*
X-1763522Y-102971D01*
X-1766925Y-100126D01*
X-1768856Y-96062D01*
X-1770481Y-88188D01*
X-1788464Y-91998D01*
X-1792376Y-92049D01*
X-1796542Y-90271D01*
X-1799386Y-87528D01*
X-1800910Y-83870D01*
X-1801875Y-79298D01*
X-1801926Y-75336D01*
X-1800504Y-71678D01*
X-1797761Y-68834D01*
X-1794052Y-67259D01*
X-1775764Y-63347D01*
X-1779676Y-45059D01*
X-1779727Y-41097D01*
X-1778254Y-37388D01*
X-1775460Y-34544D01*
X-1771802Y-33020D01*
X-1766925Y-32004D01*
X-1762912Y-31902D01*
X-1759204Y-33375D01*
X-1756359Y-36118D01*
X-1754784Y-39827D01*
X-1750923Y-58064D01*
X-1711096Y-49631D01*
X-1714042Y-35712D01*
X-1716125Y-29667D01*
X-1719072Y-24739D01*
X-1721866Y-21844D01*
X-1723948Y-18694D01*
X-1724710Y-14985D01*
X-1724101Y-11277D01*
X-1722729Y-7569D01*
X-1722018Y-1778D01*
X-1722628Y4521D01*
X-1733804Y57200D01*
X-1736191Y64312D01*
X-1736648Y68630D01*
X-1735785Y76149D01*
X-1735785Y90373D01*
X-1776475Y90373D01*
X-1776475Y83413D01*
X-1777136Y80060D01*
X-1778762Y77063D01*
X-1781352Y74777D01*
X-1784604Y73507D01*
X-1789633Y72440D01*
X-1794103Y72491D01*
X-1798116Y74472D01*
X-1800910Y77978D01*
X-1801875Y82296D01*
X-1801875Y90373D01*
X-1820062Y90373D01*
X-1823974Y91084D01*
X-1827784Y93878D01*
X-1830019Y97180D01*
X-1830781Y101092D01*
X-1830781Y105613D01*
X-1830019Y109474D01*
X-1827784Y112776D01*
X-1824532Y115011D01*
X-1820672Y115773D01*
X-1801875Y115773D01*
X-1801875Y134467D01*
X-1801164Y138379D01*
X-1798929Y141681D01*
X-1795627Y143865D01*
X-1791716Y144627D01*
X-1786636Y144627D01*
X-1782775Y143865D01*
X-1779473Y141681D01*
X-1777288Y138379D01*
X-1776475Y134467D01*
X-1776475Y115773D01*
X-1735785Y115773D01*
X-1735785Y129997D01*
X-1736496Y136296D01*
X-1738426Y141782D01*
X-1740509Y145135D01*
X-1741982Y148691D01*
X-1741982Y152450D01*
X-1740509Y155956D01*
X-1738426Y159359D01*
X-1736496Y164795D01*
X-1735785Y171145D01*
X-1735785Y224942D01*
X-1736089Y227685D01*
X-1735937Y231038D01*
X-1734718Y234137D01*
X-1732381Y237896D01*
X-1730400Y243890D01*
X-1727454Y257810D01*
X-1767230Y266293D01*
X-1768703Y259486D01*
X-1769973Y256336D01*
X-1772259Y253746D01*
X-1775307Y252069D01*
X-1778609Y251460D01*
X-1783842Y251460D01*
X-1788210Y252475D01*
X-1791716Y255219D01*
X-1793697Y259232D01*
X-1793798Y263753D01*
X-1792122Y271576D01*
X-1808429Y275031D01*
X-1811985Y276555D01*
X-1814779Y279247D01*
X-1816354Y281584D01*
X-1817878Y285343D01*
X-1817827Y289407D01*
X-1817166Y292506D01*
X-1815642Y296113D01*
X-1812848Y298907D01*
X-1809089Y300380D01*
X-1805127Y300329D01*
X-1786839Y296418D01*
X-1782927Y314706D01*
X-1781352Y318363D01*
X-1778507Y321157D01*
X-1774850Y322580D01*
X-1770888Y322529D01*
X-1765909Y321513D01*
X-1762252Y319938D01*
X-1759559Y317093D01*
X-1758086Y313334D01*
X-1758086Y309422D01*
X-1762048Y291134D01*
X-1722170Y282651D01*
X-1719173Y296570D01*
X-1718614Y302920D01*
X-1719325Y308660D01*
X-1720697Y312369D01*
X-1721307Y316128D01*
X-1720545Y319836D01*
X-1718462Y322986D01*
X-1715668Y325831D01*
X-1712722Y330809D01*
X-1710639Y336804D01*
X-1699463Y389483D01*
X-1698701Y396951D01*
X-1697380Y401116D01*
X-1693570Y407619D01*
X-1687779Y420573D01*
X-1724964Y437134D01*
X-1727809Y430834D01*
X-1729689Y427939D01*
X-1732432Y425907D01*
X-1735734Y424891D01*
X-1739188Y425043D01*
X-1744268Y426110D01*
X-1748332Y427990D01*
X-1751177Y431444D01*
X-1752295Y435762D01*
X-1751431Y440182D01*
X-1748180Y447497D01*
X-1764284Y454659D01*
X-1767484Y456895D01*
X-1770176Y461670D01*
X-1770888Y465632D01*
X-1769973Y469544D01*
X-1768398Y473151D01*
X-1766062Y476402D01*
X-1762709Y478535D01*
X-1758797Y479196D01*
X-1754936Y478332D01*
X-1737817Y470712D01*
X-1730298Y487730D01*
X-1727962Y491032D01*
X-1724609Y493115D01*
X-1720697Y493826D01*
X-1716836Y492963D01*
X-1712163Y490880D01*
X-1708912Y488594D01*
X-1706829Y485241D01*
X-1706168Y481330D01*
X-1707032Y477469D01*
X-1714652Y460349D01*
X-1677466Y443788D01*
X-1671675Y456793D01*
X-1669745Y462889D01*
X-1669288Y468630D01*
X-1669846Y472592D01*
X-1669643Y476351D01*
X-1668119Y479806D01*
X-1665427Y482447D01*
X-1662125Y484682D01*
X-1658162Y488899D01*
X-1654911Y494385D01*
X-1633016Y543560D01*
X-1630781Y550722D01*
X-1628597Y554532D01*
X-1623517Y560019D01*
X-1615135Y571550D01*
X-1648053Y595477D01*
X-1652168Y589889D01*
X-1654657Y587502D01*
X-1657756Y586028D01*
X-1661160Y585724D01*
X-1664512Y586587D01*
X-1669288Y588670D01*
X-1672843Y591362D01*
X-1674926Y595325D01*
X-1675180Y599846D01*
X-1673352Y603961D01*
X-1668627Y610412D01*
X-1683766Y621436D01*
X-1686458Y624332D01*
X-1687880Y628040D01*
X-1687677Y632002D01*
X-1686001Y635609D01*
X-1683054Y639724D01*
X-1680108Y642416D01*
X-1676400Y643788D01*
X-1672437Y643636D01*
X-1668830Y641959D01*
X-1653692Y630986D01*
X-1642668Y646125D01*
X-1639773Y648817D01*
X-1636064Y650189D01*
X-1632102Y650036D01*
X-1628495Y648360D01*
X-1624380Y645363D01*
X-1621688Y642467D01*
X-1620316Y638759D01*
X-1620469Y634746D01*
X-1622145Y631190D01*
X-1633169Y616051D01*
X-1600200Y592124D01*
X-1591868Y603605D01*
X-1588719Y609142D01*
X-1587042Y614680D01*
X-1586788Y618642D01*
X-1585823Y622350D01*
X-1583588Y625398D01*
X-1580438Y627430D01*
X-1576730Y628904D01*
X-1572006Y632206D01*
X-1567688Y636879D01*
X-1536039Y680466D01*
X-1532331Y687019D01*
X-1529384Y690270D01*
X-1523288Y694639D01*
X-1512722Y704138D01*
X-1539951Y734364D01*
X-1545132Y729742D01*
X-1548079Y727913D01*
X-1551381Y727151D01*
X-1554784Y727557D01*
X-1557934Y729030D01*
X-1562049Y732129D01*
X-1565046Y735482D01*
X-1566265Y739800D01*
X-1565503Y744169D01*
X-1562912Y747928D01*
X-1556969Y753262D01*
X-1566570Y763981D01*
X-1568500Y767130D01*
X-1569161Y770737D01*
X-1569161Y776579D01*
X-1568297Y780745D01*
X-1564944Y784910D01*
X-1561541Y786942D01*
X-1557629Y787501D01*
X-1553768Y786536D01*
X-1550619Y784199D01*
X-1538071Y770280D01*
X-1524152Y782777D01*
X-1520748Y784809D01*
X-1516888Y785368D01*
X-1513027Y784402D01*
X-1509826Y782015D01*
X-1506423Y778256D01*
X-1504391Y774852D01*
X-1503832Y770940D01*
X-1504797Y767080D01*
X-1507134Y763930D01*
X-1521053Y751382D01*
X-1493875Y721156D01*
X-1483258Y730656D01*
X-1479042Y735380D01*
X-1476298Y740511D01*
X-1475181Y744321D01*
X-1473454Y747725D01*
X-1470660Y750214D01*
X-1467154Y751484D01*
X-1463192Y752246D01*
X-1457858Y754430D01*
X-1452676Y758190D01*
X-1412646Y794207D01*
X-1407668Y799846D01*
X-1404162Y802386D01*
X-1397254Y805383D01*
X-1385011Y812495D01*
X-1405280Y847750D01*
X-1411325Y844296D01*
X-1414526Y843127D01*
X-1417980Y843076D01*
X-1421231Y844194D01*
X-1423924Y846277D01*
X-1427429Y850137D01*
X-1429613Y854049D01*
X-1429918Y858570D01*
X-1428242Y862736D01*
X-1424940Y865733D01*
X-1417980Y869696D01*
X-1427429Y886002D01*
X-1428648Y889711D01*
X-1428445Y893622D01*
X-1426616Y897229D01*
X-1423670Y899871D01*
X-1419250Y902411D01*
X-1415491Y903681D01*
X-1411528Y903427D01*
X-1407972Y901649D01*
X-1405432Y898702D01*
X-1395984Y882396D01*
X-1379778Y891844D01*
X-1376019Y893114D01*
X-1372108Y892860D01*
X-1368552Y891082D01*
X-1365961Y888085D01*
X-1363370Y883716D01*
X-1362100Y879957D01*
X-1362354Y875995D01*
X-1364132Y872439D01*
X-1367078Y869848D01*
X-1383284Y860450D01*
X-1363014Y825195D01*
X-1350619Y832307D01*
X-1345488Y836117D01*
X-1341729Y840486D01*
X-1339850Y843991D01*
X-1337513Y846988D01*
X-1334262Y848868D01*
X-1330502Y849426D01*
X-1326540Y849274D01*
X-1320850Y850341D01*
X-1315059Y852881D01*
X-1268374Y879805D01*
X-1262329Y884275D01*
X-1258316Y886053D01*
X-1251000Y887577D01*
X-1237488Y891946D01*
X-1250086Y930656D01*
X-1256639Y928522D01*
X-1260043Y928014D01*
X-1263396Y928725D01*
X-1266342Y930452D01*
X-1268577Y933094D01*
X-1271168Y937615D01*
X-1272489Y941882D01*
X-1271828Y946353D01*
X-1269339Y950061D01*
X-1265478Y952347D01*
X-1257909Y954836D01*
X-1263650Y972616D01*
X-1264107Y976579D01*
X-1263040Y980389D01*
X-1260602Y983487D01*
X-1257147Y985418D01*
X-1252321Y986942D01*
X-1248359Y987450D01*
X-1244549Y986383D01*
X-1241450Y983945D01*
X-1239520Y980490D01*
X-1233728Y962660D01*
X-1215948Y968451D01*
X-1211986Y968857D01*
X-1208227Y967841D01*
X-1205077Y965403D01*
X-1203096Y961948D01*
X-1201521Y957122D01*
X-1201064Y953160D01*
X-1202131Y949350D01*
X-1204620Y946251D01*
X-1208125Y944321D01*
X-1225854Y938530D01*
X-1213307Y899820D01*
X-1199743Y904189D01*
X-1193952Y906830D01*
X-1189380Y910336D01*
X-1186789Y913384D01*
X-1183894Y915822D01*
X-1180338Y916940D01*
X-1176528Y916736D01*
X-1172667Y915771D01*
X-1166876Y915619D01*
X-1160627Y916889D01*
X-1109472Y933551D01*
X-1102664Y936650D01*
X-1098296Y937564D01*
X-1090879Y937514D01*
X-1076706Y938987D01*
X-1080922Y979474D01*
X-1087780Y978763D01*
X-1091234Y978966D01*
X-1094384Y980338D01*
X-1096924Y982675D01*
X-1098550Y985723D01*
X-1100175Y990650D01*
X-1100531Y995121D01*
X-1099007Y999337D01*
X-1095756Y1002487D01*
X-1091539Y1003909D01*
X-1083614Y1004722D01*
X-1085189Y1020318D01*
X-1084884Y1024077D01*
X-1083208Y1027480D01*
X-1080668Y1030833D01*
X-1077569Y1033576D01*
X-1073607Y1034796D01*
X-1071422Y1035050D01*
X-1067511Y1034694D01*
X-1064006Y1032865D01*
X-1061415Y1029817D01*
X-1060246Y1026007D01*
X-1058316Y1007414D01*
X-1039672Y1009345D01*
X-1035761Y1008989D01*
X-1032256Y1007160D01*
X-1029716Y1004112D01*
X-1028547Y1000302D01*
X-1027988Y995222D01*
X-1028395Y991311D01*
X-1030224Y987806D01*
X-1033271Y985266D01*
X-1037031Y984097D01*
X-1055725Y982065D01*
X-1051407Y941628D01*
X-1037234Y943152D01*
X-1031036Y944524D01*
X-1025804Y946962D01*
X-1022654Y949452D01*
X-1019302Y951179D01*
X-1015542Y951585D01*
X-1011936Y950569D01*
X-1008329Y948791D01*
X-1002690Y947470D01*
X-996340Y947369D01*
X-942797Y953058D01*
X-935431Y954684D01*
X-931062Y954684D01*
X-923747Y953058D01*
X-909574Y951585D01*
X-905357Y992073D01*
X-912215Y992784D01*
X-915568Y993698D01*
X-918362Y995730D01*
X-920343Y998524D01*
X-921258Y1001826D01*
X-921816Y1006957D01*
X-921359Y1011428D01*
X-918971Y1015237D01*
X-915111Y1017625D01*
X-910691Y1018184D01*
X-902665Y1017320D01*
X-900988Y1033576D01*
X-899921Y1037234D01*
X-897432Y1040282D01*
X-894943Y1042416D01*
X-891387Y1044346D01*
X-887323Y1044752D01*
X-884529Y1044448D01*
X-880719Y1043279D01*
X-877671Y1040739D01*
X-875842Y1037234D01*
X-875537Y1033271D01*
X-877468Y1014679D01*
X-858875Y1012698D01*
X-855014Y1011529D01*
X-851966Y1008989D01*
X-850137Y1005484D01*
X-849782Y1001521D01*
X-850290Y996492D01*
X-851509Y992682D01*
X-853998Y989634D01*
X-857503Y987806D01*
X-861466Y987450D01*
X-880059Y989380D01*
X-884377Y948944D01*
X-870203Y947369D01*
X-863853Y947470D01*
X-858164Y948791D01*
X-854608Y950569D01*
X-850950Y951585D01*
X-847191Y951179D01*
X-843838Y949452D01*
X-840740Y946962D01*
X-835507Y944524D01*
X-829259Y943152D01*
X-775716Y937514D01*
X-768197Y937564D01*
X-763930Y936650D01*
X-757123Y933551D01*
X-743559Y929132D01*
X-731012Y967841D01*
X-737565Y970026D01*
X-740613Y971600D01*
X-742950Y974140D01*
X-744321Y977290D01*
X-744575Y980744D01*
X-744016Y985875D01*
X-742543Y990142D01*
X-739444Y993292D01*
X-735279Y994918D01*
X-730758Y994511D01*
X-723138Y992022D01*
X-717346Y1009853D01*
X-715416Y1013307D01*
X-712368Y1015746D01*
X-708507Y1016812D01*
X-704545Y1016355D01*
X-699719Y1014780D01*
X-696264Y1012850D01*
X-693877Y1009751D01*
X-692759Y1005941D01*
X-693216Y1001979D01*
X-699008Y984199D01*
X-681177Y978408D01*
X-677722Y976477D01*
X-675284Y973328D01*
X-674166Y969518D01*
X-674725Y965606D01*
X-676249Y960780D01*
X-678230Y957275D01*
X-681278Y954836D01*
X-685088Y953719D01*
X-689051Y954227D01*
X-706831Y960018D01*
X-719429Y921308D01*
X-705866Y916889D01*
X-699668Y915619D01*
X-693877Y915771D01*
X-690016Y916736D01*
X-686206Y916940D01*
X-682650Y915771D01*
X-679704Y913384D01*
X-677214Y910336D01*
X-672541Y906830D01*
X-666750Y904189D01*
X-615543Y887526D01*
X-608177Y886053D01*
X-604215Y884275D01*
X-598170Y879805D01*
X-585825Y872642D01*
X-565505Y907948D01*
X-571500Y911402D01*
X-574141Y913637D01*
X-575868Y916584D01*
X-576630Y919937D01*
X-576072Y923340D01*
X-574446Y928268D01*
X-572211Y932129D01*
X-568452Y934618D01*
X-563981Y935278D01*
X-559714Y933958D01*
X-552805Y929944D01*
X-544220Y944727D01*
X-541680Y947674D01*
X-538226Y949401D01*
X-536041Y950061D01*
X-531977Y950315D01*
X-528218Y949096D01*
X-525119Y947318D01*
X-522173Y944727D01*
X-520395Y941171D01*
X-520141Y937209D01*
X-521411Y933450D01*
X-530758Y917244D01*
X-514604Y907897D01*
X-511657Y905256D01*
X-509828Y901700D01*
X-509625Y897737D01*
X-510844Y894029D01*
X-513384Y889609D01*
X-516077Y886612D01*
X-519582Y884834D01*
X-523493Y884631D01*
X-527304Y885901D01*
X-543458Y895248D01*
X-563829Y859942D01*
X-551586Y852881D01*
X-545693Y850341D01*
X-540004Y849274D01*
X-536041Y849426D01*
X-532282Y848868D01*
X-528980Y846937D01*
X-526643Y843991D01*
X-524814Y840486D01*
X-521004Y836117D01*
X-515874Y832307D01*
X-469239Y805383D01*
X-462381Y802386D01*
X-458825Y799795D01*
X-453847Y794207D01*
X-443280Y784656D01*
X-416051Y814933D01*
X-421182Y819556D01*
X-423316Y822248D01*
X-424434Y825550D01*
X-424383Y828954D01*
X-423214Y832205D01*
X-420624Y836676D01*
X-417576Y839978D01*
X-413461Y841654D01*
X-408940Y841349D01*
X-404977Y839165D01*
X-399034Y833831D01*
X-386588Y847699D01*
X-383336Y850087D01*
X-379476Y851052D01*
X-375564Y850493D01*
X-372160Y848461D01*
X-368452Y845058D01*
X-366064Y841857D01*
X-365048Y838047D01*
X-365607Y834136D01*
X-367639Y830732D01*
X-380238Y816813D01*
X-366268Y804265D01*
X-363880Y801116D01*
X-362915Y797255D01*
X-363474Y793343D01*
X-365506Y789940D01*
X-368909Y786180D01*
X-372110Y783742D01*
X-375920Y782828D01*
X-379831Y783386D01*
X-383235Y785418D01*
X-397154Y797915D01*
X-424434Y767689D01*
X-413816Y758139D01*
X-408635Y754430D01*
X-403301Y752246D01*
X-399389Y751484D01*
X-395884Y750214D01*
X-393039Y747674D01*
X-391363Y744321D01*
X-390296Y740460D01*
X-387502Y735380D01*
X-383286Y730656D01*
X-343255Y694588D01*
X-337159Y690219D01*
X-334213Y686968D01*
X-330504Y680466D01*
X-322173Y668934D01*
X-289204Y692861D01*
X-293268Y698500D01*
X-294792Y701548D01*
X-295198Y705002D01*
X-294436Y708355D01*
X-292608Y711250D01*
X-289153Y715111D01*
X-285496Y717702D01*
X-281127Y718464D01*
X-276758Y717245D01*
X-273354Y714298D01*
X-268681Y707796D01*
X-253542Y718769D01*
X-249936Y720445D01*
X-245973Y720648D01*
X-242214Y719277D01*
X-239318Y716584D01*
X-236321Y712419D01*
X-234696Y708863D01*
X-234543Y704900D01*
X-235915Y701192D01*
X-238607Y698246D01*
X-253746Y687273D01*
X-242722Y672134D01*
X-241096Y668528D01*
X-240893Y664565D01*
X-242265Y660806D01*
X-244957Y657910D01*
X-249072Y654913D01*
X-252679Y653288D01*
X-256641Y653135D01*
X-260350Y654507D01*
X-263296Y657199D01*
X-274269Y672338D01*
X-307238Y648411D01*
X-298856Y636879D01*
X-294538Y632206D01*
X-289864Y628904D01*
X-286105Y627430D01*
X-282956Y625398D01*
X-280720Y622300D01*
X-279755Y618642D01*
X-279552Y614680D01*
X-277825Y609142D01*
X-274675Y603605D01*
X-243027Y560019D01*
X-237947Y554482D01*
X-235762Y550722D01*
X-233527Y543560D01*
X-227736Y530555D01*
X-190550Y547116D01*
X-193344Y553466D01*
X-194208Y556768D01*
X-193903Y560222D01*
X-192430Y563321D01*
X-190042Y565810D01*
X-185877Y568807D01*
X-181711Y570636D01*
X-177241Y570433D01*
X-173278Y568350D01*
X-170586Y564743D01*
X-167335Y557428D01*
X-150215Y565048D01*
X-146354Y565962D01*
X-142443Y565251D01*
X-139090Y563168D01*
X-136804Y559917D01*
X-134721Y555294D01*
X-133858Y551383D01*
X-134518Y547522D01*
X-136652Y544169D01*
X-139954Y541883D01*
X-157022Y534263D01*
X-149402Y517143D01*
X-148488Y513283D01*
X-149199Y509371D01*
X-151282Y506018D01*
X-154584Y503732D01*
X-159156Y501650D01*
X-163017Y500786D01*
X-166928Y501396D01*
X-170281Y503580D01*
X-172618Y506780D01*
X-180187Y523900D01*
X-217373Y507339D01*
X-211632Y494334D01*
X-208381Y488848D01*
X-204419Y484632D01*
X-201117Y482447D01*
X-198475Y479806D01*
X-196900Y476351D01*
X-196697Y472541D01*
X-197256Y468630D01*
X-196799Y462838D01*
X-194868Y456793D01*
X-172974Y407568D01*
X-169214Y401116D01*
X-167843Y396951D01*
X-167081Y389483D01*
X-164134Y375564D01*
X-124307Y384048D01*
X-125780Y390804D01*
X-125882Y394258D01*
X-124866Y397510D01*
X-122834Y400304D01*
X-119938Y402183D01*
X-115214Y404317D01*
X-110794Y405180D01*
X-106476Y404063D01*
X-103022Y401218D01*
X-101142Y397154D01*
X-99466Y389331D01*
X-87122Y391922D01*
X-83769Y392074D01*
X-80568Y391109D01*
X-77825Y389178D01*
X-73558Y384911D01*
X-71221Y381254D01*
X-70612Y376986D01*
X-71831Y372821D01*
X-74676Y369519D01*
X-78638Y367792D01*
X-94183Y364439D01*
X-90271Y346151D01*
X-90220Y342188D01*
X-91694Y338480D01*
X-94488Y335686D01*
X-98145Y334111D01*
X-103073Y333044D01*
X-107086Y332994D01*
X-110744Y334467D01*
X-113588Y337210D01*
X-115163Y340868D01*
X-119024Y359156D01*
X-158902Y350723D01*
X-155956Y336804D01*
X-153873Y330758D01*
X-150876Y325831D01*
X-148132Y322935D01*
X-145999Y319786D01*
X-145288Y316128D01*
X-145846Y312369D01*
X-147218Y308660D01*
X-147980Y302920D01*
X-147320Y296570D01*
X-136144Y243890D01*
X-133756Y236778D01*
X-133299Y232410D01*
X-134162Y224942D01*
X-134162Y210718D01*
X-93472Y210718D01*
X-93472Y217678D01*
X-92862Y221030D01*
X-91186Y224078D01*
X-88595Y226314D01*
X-85394Y227584D01*
X-80314Y228701D01*
X-75895Y228600D01*
X-71831Y226618D01*
X-69088Y223113D01*
X-68072Y218744D01*
X-68072Y210718D01*
X-49936Y210718D01*
X-45974Y209956D01*
X-42214Y207213D01*
X-39928Y203911D01*
X-39166Y199999D01*
X-39166Y195478D01*
X-39928Y191617D01*
X-42214Y188315D01*
X-45415Y186080D01*
X-49326Y185318D01*
X-68072Y185318D01*
X-68072Y166624D01*
X-68834Y162712D01*
X-71018Y159410D01*
X-74320Y157226D01*
X-78282Y156464D01*
X-83312Y156464D01*
X-87172Y157226D01*
X-90525Y159410D01*
X-92659Y162712D01*
X-93472Y166624D01*
X-93472Y185318D01*
X-134162Y185318D01*
X-134162Y171094D01*
X-133502Y164795D01*
X-131572Y159308D01*
X-129438Y155956D01*
X-128016Y152450D01*
X-128016Y148640D01*
X-129438Y145135D01*
X-131622Y141630D01*
X-133959Y139090D01*
X-136906Y137414D01*
X-140208Y136855D01*
X-356565Y136855D01*
X-360476Y137617D01*
X-363778Y139852D01*
X-365353Y141427D01*
X-373430Y147066D01*
X-382320Y151180D01*
X-391769Y153720D01*
X-401574Y154584D01*
X-411429Y153720D01*
X-420827Y151180D01*
X-429768Y147066D01*
X-437845Y141427D01*
X-444754Y134467D01*
X-450392Y126441D01*
X-454507Y117500D01*
X-457047Y108051D01*
X-457911Y98247D01*
X-457047Y88442D01*
X-454507Y78994D01*
X-450392Y70053D01*
X-444754Y62026D01*
X-437845Y55067D01*
X-429768Y49428D01*
X-420827Y45313D01*
X-411429Y42722D01*
X-401574Y41910D01*
X-391769Y42722D01*
X-382320Y45313D01*
X-373430Y49428D01*
X-365353Y55067D01*
X-363778Y56641D01*
X-360476Y58877D01*
X-356565Y59639D01*
X-151638Y59639D01*
X-147218Y58674D01*
X-143662Y55880D01*
X-141681Y51866D01*
X-141630Y47345D01*
X-142494Y43230D01*
X-102768Y34798D01*
X-101295Y41605D01*
X-99974Y44805D01*
X-97688Y47345D01*
X-94691Y49072D01*
X-91338Y49580D01*
X-86106Y49580D01*
X-81788Y48615D01*
X-78282Y45872D01*
X-76250Y41859D01*
X-76200Y37338D01*
X-77825Y29514D01*
X-59537Y25654D01*
X-55930Y24079D01*
X-53136Y21234D01*
X-51663Y17526D01*
X-51714Y13563D01*
X-52781Y8636D01*
X-54356Y4978D01*
X-57150Y2184D01*
X-60858Y711D01*
X-64820Y812D01*
X-83159Y4622D01*
X-87020Y-13614D01*
X-88595Y-17272D01*
X-91440Y-20015D01*
X-95097Y-21488D01*
X-99060Y-21437D01*
X-104038Y-20421D01*
X-107696Y-18846D01*
X-110439Y-16002D01*
X-111912Y-12293D01*
X-111861Y-8331D01*
X-107950Y9956D01*
X-147777Y18440D01*
X-150774Y4521D01*
X-151384Y-1828D01*
X-150622Y-7569D01*
X-149250Y-11328D01*
X-148691Y-15036D01*
X-149453Y-18796D01*
X-151536Y-21894D01*
X-154279Y-24739D01*
X-157276Y-29667D01*
X-159359Y-35712D01*
X-170484Y-88392D01*
X-171246Y-95859D01*
X-172618Y-100025D01*
X-176377Y-106476D01*
X-182168Y-119481D01*
X-144983Y-136042D01*
X-142138Y-129743D01*
X-140309Y-126847D01*
X-137515Y-124815D01*
X-134213Y-123799D01*
X-130759Y-123901D01*
X-125679Y-125018D01*
X-121615Y-126898D01*
X-118770Y-130302D01*
X-117652Y-134670D01*
X-118516Y-139090D01*
X-121818Y-146405D01*
X-104698Y-154025D01*
X-101447Y-156311D01*
X-99364Y-159664D01*
X-98653Y-163576D01*
X-99517Y-167436D01*
X-101600Y-172059D01*
X-103885Y-175310D01*
X-107238Y-177393D01*
X-111150Y-178104D01*
X-115011Y-177190D01*
X-132130Y-169570D01*
X-139700Y-186690D01*
X-141986Y-189941D01*
X-145338Y-192024D01*
X-149250Y-192735D01*
X-153111Y-191820D01*
X-157784Y-189788D01*
X-161036Y-187502D01*
X-163118Y-184150D01*
X-163779Y-180238D01*
X-162915Y-176377D01*
X-155295Y-159258D01*
X-192481Y-142697D01*
X-198272Y-155702D01*
X-200202Y-161747D01*
X-200660Y-167538D01*
X-200101Y-171500D01*
X-200304Y-175260D01*
X-201879Y-178714D01*
X-204520Y-181356D01*
X-207822Y-183591D01*
X-211785Y-187807D01*
X-215036Y-193294D01*
X-236931Y-242519D01*
X-239166Y-249631D01*
X-241350Y-253441D01*
X-246430Y-258978D01*
X-254812Y-270459D01*
X-221945Y-294386D01*
X-217779Y-288798D01*
X-215341Y-286410D01*
X-212191Y-284937D01*
X-208788Y-284632D01*
X-205435Y-285496D01*
X-200710Y-287578D01*
X-197104Y-290271D01*
X-195072Y-294284D01*
X-194818Y-298704D01*
X-196596Y-302869D01*
X-201320Y-309321D01*
X-186232Y-320344D01*
X-183489Y-323240D01*
X-182118Y-326948D01*
X-182270Y-330911D01*
X-183946Y-334518D01*
X-186893Y-338632D01*
X-189839Y-341325D01*
X-193598Y-342696D01*
X-197561Y-342544D01*
X-201117Y-340868D01*
X-216255Y-329946D01*
X-227279Y-345084D01*
X-230225Y-347726D01*
X-233883Y-349097D01*
X-237845Y-348996D01*
X-241452Y-347268D01*
X-245567Y-344271D01*
X-248259Y-341376D01*
X-249631Y-337667D01*
X-249478Y-333705D01*
X-247802Y-330098D01*
X-236778Y-314960D01*
X-269798Y-291033D01*
X-278079Y-302514D01*
X-281228Y-308051D01*
X-282956Y-313588D01*
X-283159Y-317601D01*
X-284124Y-321259D01*
X-286359Y-324307D01*
X-289509Y-326339D01*
X-293268Y-327812D01*
X-297992Y-331114D01*
X-302260Y-335838D01*
X-333908Y-379374D01*
X-337616Y-385927D01*
X-340563Y-389178D01*
X-346659Y-393496D01*
X-357225Y-403047D01*
X-329996Y-433273D01*
X-324866Y-428650D01*
X-321919Y-426821D01*
X-318566Y-426059D01*
X-315163Y-426466D01*
X-312064Y-427990D01*
X-307898Y-431088D01*
X-304952Y-434390D01*
X-303682Y-438708D01*
X-304495Y-443128D01*
X-307035Y-446785D01*
X-312978Y-452170D01*
X-300532Y-466090D01*
X-298450Y-469493D01*
X-297891Y-473405D01*
X-298856Y-477266D01*
X-301244Y-480415D01*
X-305054Y-483819D01*
X-308457Y-485851D01*
X-312318Y-486409D01*
X-316179Y-485444D01*
X-319328Y-483057D01*
X-331927Y-469188D01*
X-345795Y-481685D01*
X-349199Y-483717D01*
X-353110Y-484327D01*
X-356971Y-483311D01*
X-360172Y-480923D01*
X-363575Y-477164D01*
X-365607Y-473760D01*
X-366115Y-469849D01*
X-365150Y-465988D01*
X-362762Y-462838D01*
X-348945Y-450291D01*
X-376123Y-420014D01*
X-386689Y-429615D01*
X-390906Y-434340D01*
X-393700Y-439369D01*
X-394766Y-443280D01*
X-396494Y-446582D01*
X-399288Y-449122D01*
X-402793Y-450443D01*
X-406755Y-451154D01*
X-412089Y-453390D01*
X-417322Y-457098D01*
X-457352Y-493115D01*
X-462330Y-498703D01*
X-465785Y-501294D01*
X-472693Y-504342D01*
X-484987Y-511403D01*
X-464718Y-546658D01*
X-458622Y-543204D01*
X-455422Y-542036D01*
X-452018Y-541985D01*
X-448716Y-543052D01*
X-446024Y-545185D01*
X-442518Y-549046D01*
X-440334Y-552958D01*
X-440029Y-557428D01*
X-441706Y-561594D01*
X-445008Y-564642D01*
X-452018Y-568655D01*
X-447954Y-575564D01*
X-446684Y-579374D01*
X-446989Y-583488D01*
X-450748Y-590092D01*
X-453491Y-593445D01*
X-457454Y-595376D01*
X-461772Y-595477D01*
X-465734Y-593801D01*
X-468680Y-590600D01*
X-474014Y-581355D01*
X-490169Y-590702D01*
X-493979Y-592023D01*
X-497840Y-591769D01*
X-501396Y-589991D01*
X-504037Y-586994D01*
X-506577Y-582625D01*
X-507847Y-578866D01*
X-507593Y-574903D01*
X-505815Y-571347D01*
X-502869Y-568706D01*
X-486714Y-559358D01*
X-506984Y-524103D01*
X-519379Y-531215D01*
X-524459Y-535025D01*
X-528218Y-539394D01*
X-530148Y-542899D01*
X-532434Y-545846D01*
X-535686Y-547827D01*
X-539445Y-548335D01*
X-543407Y-548182D01*
X-549097Y-549249D01*
X-554939Y-551789D01*
X-601573Y-578713D01*
X-607618Y-583184D01*
X-611682Y-584962D01*
X-618947Y-586435D01*
X-632510Y-590854D01*
X-619912Y-629564D01*
X-613308Y-627430D01*
X-609904Y-626922D01*
X-606552Y-627634D01*
X-603605Y-629361D01*
X-601370Y-632002D01*
X-598779Y-636524D01*
X-597509Y-640791D01*
X-598119Y-645210D01*
X-600608Y-648970D01*
X-604469Y-651256D01*
X-612089Y-653796D01*
X-606348Y-671525D01*
X-605891Y-675487D01*
X-606907Y-679297D01*
X-609346Y-682396D01*
X-612800Y-684326D01*
X-617677Y-685901D01*
X-621588Y-686358D01*
X-625398Y-685292D01*
X-628497Y-682853D01*
X-630428Y-679399D01*
X-636219Y-661619D01*
X-654050Y-667359D01*
X-657961Y-667816D01*
X-661771Y-666750D01*
X-664870Y-664311D01*
X-666902Y-660857D01*
X-668477Y-656031D01*
X-668934Y-652068D01*
X-667766Y-648258D01*
X-665327Y-645160D01*
X-661873Y-643229D01*
X-644093Y-637438D01*
X-656691Y-598728D01*
X-670204Y-603097D01*
X-675995Y-605739D01*
X-680618Y-609244D01*
X-683158Y-612292D01*
X-686054Y-614730D01*
X-689660Y-615848D01*
X-693420Y-615696D01*
X-697280Y-614730D01*
X-703072Y-614527D01*
X-709320Y-615797D01*
X-760526Y-632460D01*
X-767334Y-635558D01*
X-771652Y-636473D01*
X-779119Y-636422D01*
X-793292Y-637895D01*
X-789025Y-678383D01*
X-782218Y-677672D01*
X-778713Y-677875D01*
X-775563Y-679246D01*
X-773023Y-681634D01*
X-771448Y-684631D01*
X-769823Y-689559D01*
X-769416Y-694029D01*
X-770991Y-698246D01*
X-774192Y-701344D01*
X-778408Y-702818D01*
X-786384Y-703630D01*
X-784758Y-719175D01*
X-785063Y-722985D01*
X-786739Y-726338D01*
X-789279Y-729742D01*
X-792429Y-732485D01*
X-796391Y-733755D01*
X-798525Y-733958D01*
X-802487Y-733602D01*
X-805992Y-731774D01*
X-808532Y-728726D01*
X-809701Y-724916D01*
X-811631Y-706323D01*
X-830275Y-708253D01*
X-834186Y-707898D01*
X-837692Y-706069D01*
X-840282Y-703021D01*
X-841400Y-699211D01*
X-841959Y-694182D01*
X-841603Y-690219D01*
X-839724Y-686714D01*
X-836676Y-684174D01*
X-832916Y-683006D01*
X-814273Y-681024D01*
X-818540Y-640537D01*
X-832713Y-642061D01*
X-838911Y-643432D01*
X-844143Y-645871D01*
X-847293Y-648360D01*
X-850646Y-650087D01*
X-854456Y-650494D01*
X-858012Y-649478D01*
X-861618Y-647700D01*
X-867257Y-646379D01*
X-873607Y-646328D01*
X-927150Y-651967D01*
X-934516Y-653592D01*
X-938936Y-653592D01*
X-946200Y-651967D01*
X-960374Y-650494D01*
X-964590Y-690981D01*
X-957732Y-691692D01*
X-954379Y-692607D01*
X-951636Y-694588D01*
X-949604Y-697433D01*
X-948690Y-700735D01*
X-948131Y-705916D01*
X-948639Y-710336D01*
X-951026Y-714146D01*
X-954836Y-716534D01*
X-959307Y-717042D01*
X-967282Y-716229D01*
X-968959Y-732485D01*
X-970076Y-736193D01*
X-972515Y-739190D01*
X-975004Y-741273D01*
X-978611Y-743254D01*
G37*

%LPC*%
G36*
X-948842Y-246024D02*
G01*
X-921054Y-246024D01*
X-893267Y-244094D01*
X-865784Y-240233D01*
X-838504Y-234442D01*
X-811784Y-226771D01*
X-785622Y-217220D01*
X-760222Y-205943D01*
X-735634Y-192887D01*
X-712063Y-178104D01*
X-689559Y-161747D01*
X-668223Y-143865D01*
X-648208Y-124561D01*
X-629615Y-103885D01*
X-612444Y-81940D01*
X-596900Y-58877D01*
X-582980Y-34798D01*
X-570788Y-9804D01*
X-560425Y16002D01*
X-551789Y42468D01*
X-545033Y69443D01*
X-540207Y96875D01*
X-537311Y124510D01*
X-536346Y152349D01*
X-537311Y180136D01*
X-540207Y207822D01*
X-545033Y235204D01*
X-551789Y262178D01*
X-560425Y288645D01*
X-570788Y314452D01*
X-582980Y339445D01*
X-596900Y363575D01*
X-612444Y386638D01*
X-629615Y408533D01*
X-648208Y429209D01*
X-668223Y448564D01*
X-689559Y466445D01*
X-712063Y482803D01*
X-735634Y497484D01*
X-760222Y510590D01*
X-785622Y521919D01*
X-811784Y531418D01*
X-838504Y539089D01*
X-865784Y544880D01*
X-893267Y548741D01*
X-921054Y550672D01*
X-948842Y550672D01*
X-976680Y548741D01*
X-1004163Y544880D01*
X-1031392Y539089D01*
X-1058113Y531418D01*
X-1084275Y521919D01*
X-1109675Y510590D01*
X-1134262Y497484D01*
X-1157884Y482803D01*
X-1180338Y466445D01*
X-1201674Y448564D01*
X-1221689Y429209D01*
X-1240332Y408533D01*
X-1257452Y386638D01*
X-1272997Y363575D01*
X-1286865Y339445D01*
X-1299057Y314452D01*
X-1309522Y288645D01*
X-1318107Y262178D01*
X-1324813Y235204D01*
X-1329639Y207822D01*
X-1332636Y180136D01*
X-1333550Y152349D01*
X-1332636Y124510D01*
X-1329639Y96875D01*
X-1324813Y69443D01*
X-1318107Y42468D01*
X-1309522Y16002D01*
X-1299057Y-9804D01*
X-1286865Y-34798D01*
X-1272997Y-58877D01*
X-1257452Y-81940D01*
X-1240332Y-103885D01*
X-1221689Y-124561D01*
X-1201674Y-143865D01*
X-1180338Y-161747D01*
X-1157884Y-178104D01*
X-1134262Y-192887D01*
X-1109675Y-205943D01*
X-1084275Y-217220D01*
X-1058113Y-226771D01*
X-1031392Y-234442D01*
X-1004163Y-240233D01*
X-976680Y-244094D01*
G37*

%LPD*%
D10*
X55600Y-3000578D02*
G01*
X-77599Y-3000578D01*
X-80799Y103022D02*
G01*
X-85600Y98221D01*
X-401599Y98221D01*
D11*
X-421789Y-646287D02*
G01*
X-421789Y-606272D01*
X-401561Y-586038D01*
X-401573Y-514786D01*
X-267380Y-521820D02*
G01*
X-261899Y-459074D01*
X-274934Y-388990D01*
X-142217Y-367967D02*
G01*
X-147599Y-319374D01*
X-177228Y-239610D01*
X-51777Y-191452D02*
G01*
X-71399Y-128874D01*
X-112712Y-73182D01*
X-790399Y-786831D02*
G01*
X-744499Y-725774D01*
X-718441Y-674926D01*
X-988590Y-796643D02*
G01*
X-934999Y-751174D01*
X-894864Y-702155D01*
X-1184310Y-765301D02*
G01*
X-1125499Y-738474D01*
X-1073050Y-692337D01*
X-598711Y-735931D02*
G01*
X-566699Y-674974D01*
X-551594Y-611507D01*
X-1782973Y-278279D02*
G01*
X-1735099Y-293974D01*
X-1654309Y-312132D01*
X-1675320Y-444855D02*
G01*
X-1608099Y-459074D01*
X-1542430Y-451218D01*
X-1535396Y-585419D02*
G01*
X-1468399Y-586074D01*
X-1404081Y-564004D01*
X-1369303Y-693808D02*
G01*
X-1303299Y-674974D01*
X-1245306Y-645568D01*
X-1853628Y-92958D02*
G01*
X-1798599Y-128874D01*
X-1734814Y-152824D01*
X-1884212Y103004D02*
G01*
X-1800956Y19748D01*
X-1780443Y19748D01*
X-1869986Y301038D02*
G01*
X-1836699Y252125D01*
X-1789198Y198026D01*
X-1818220Y492500D02*
G01*
X-1798599Y442625D01*
X-1757286Y374230D01*
X-1727733Y668936D02*
G01*
X-1722399Y607725D01*
X-1692683Y540672D01*
X-1602618Y822868D02*
G01*
X-1602618Y697598D01*
X-1595064Y690039D01*
X-1448208Y947338D02*
G01*
X-1468399Y887125D01*
X-1468424Y815835D01*
X-1271287Y1036982D02*
G01*
X-1303299Y976025D01*
X-1318404Y912555D01*
X-1079599Y1087882D02*
G01*
X-1125499Y1026825D01*
X-1151557Y975974D01*
X-881407Y1097691D02*
G01*
X-934999Y1052225D01*
X-975133Y1003203D01*
X-685688Y1066350D02*
G01*
X-744499Y1039525D01*
X-796947Y993388D01*
X-500694Y994857D02*
G01*
X-566699Y976025D01*
X-624692Y946617D01*
X-194591Y745898D02*
G01*
X-261899Y760125D01*
X-327680Y752248D01*
X-334601Y886467D02*
G01*
X-444500Y886467D01*
X-465917Y865055D01*
X-87025Y579328D02*
G01*
X-165745Y613181D01*
X-215689Y613181D01*
X-16370Y394007D02*
G01*
X-35481Y394007D01*
X-95349Y453872D01*
X-135183Y453872D01*
X14213Y198043D02*
G01*
X-69042Y281299D01*
X-89555Y281299D01*
D12*
X-1234975Y6316398D02*
G01*
X868400Y6316398D01*
D10*
X-2687599Y1495221D02*
G01*
X-401599Y1495221D01*
X-834999Y6511721D02*
G01*
X-2687599Y6511721D01*
X-77596Y-3000578D02*
G01*
X-77596Y-3222675D01*
X-96799Y-3241878D01*
X-100098Y-3238578D01*
X-150875Y-3238578D01*
X-245892Y-3238571D02*
G01*
X-363499Y-3238571D01*
X0Y0D02*
G01*
X52222Y0D01*
X68300Y-16078D01*
D13*
X863600Y114300D02*
G01*
X177800Y114300D01*
D10*
X-90423Y-278262D02*
G01*
X47980Y-343738D01*
X-198064Y-444842D02*
G01*
X-73939Y-534238D01*
X-337987Y-585398D02*
G01*
X-337987Y-588871D01*
X-236499Y-699338D01*
X-504080Y-693800D02*
G01*
X-437159Y-831418D01*
X-689074Y-765294D02*
G01*
X-645439Y-910158D01*
X-884905Y-796767D02*
G01*
X-866419Y-948258D01*
X-1082984Y-786831D02*
G01*
X-1100099Y-938098D01*
X-1274673Y-735939D02*
G01*
X-1321079Y-879678D01*
X-1451594Y-646295D02*
G01*
X-1526819Y-775538D01*
X-1606016Y-521830D02*
G01*
X-1606016Y-525068D01*
X-1704619Y-635838D01*
X-1731180Y-367979D02*
G01*
X-1731180Y-372612D01*
X-1851939Y-458038D01*
X-1821616Y-191470D02*
G01*
X-1961159Y-249758D01*
X-1873384Y-7D02*
G01*
X-2019579Y-33858D01*
X-1884212Y198026D02*
G01*
X-2034819Y197162D01*
X-1850229Y393989D02*
G01*
X-1999259Y430961D01*
X-1779574Y579310D02*
G01*
X-1920519Y641781D01*
X-1671934Y745893D02*
G01*
X-1790979Y839901D01*
X-1532011Y886449D02*
G01*
X-1630959Y1002461D01*
X-1365918Y994851D02*
G01*
X-1442999Y1126921D01*
X-1180924Y1066345D02*
G01*
X-1227099Y1210741D01*
X-985093Y1097815D02*
G01*
X-1001039Y1248841D01*
X-787013Y1087882D02*
G01*
X-772439Y1238681D01*
X-595401Y1037005D02*
G01*
X-551459Y1180261D01*
X-418404Y947343D02*
G01*
X-342264Y1076121D01*
X-263982Y822881D02*
G01*
X-165379Y936421D01*
X-138818Y669028D02*
G01*
X-135394Y669028D01*
X-18059Y758621D01*
X-48379Y492518D02*
G01*
X86639Y557961D01*
X3276Y301167D02*
G01*
X149580Y334441D01*
X14198Y103047D02*
G01*
X164820Y103301D01*
X-19837Y-93040D02*
G01*
X126720Y-134145D01*
X68300Y-2819476D02*
G01*
X-363499Y-2819476D01*
D14*
G01*
X-245897Y-3143554D03*
G01*
X-245897Y-3238576D03*
G01*
X-150875Y-3238576D03*
G01*
X-150875Y-3143554D03*
G01*
X-1789201Y102997D03*
G01*
X-1789201Y198018D03*
G01*
X-1884222Y198018D03*
G01*
X-1884222Y102997D03*
D15*
G01*
X-1760687Y-73204D03*
G01*
X-1780443Y19734D03*
G01*
X-1873390Y-16D03*
G01*
X-1853633Y-92960D03*
D16*
G01*
X-1696166Y-239632D03*
D17*
G01*
X-1734813Y-152833D03*
D16*
G01*
X-1821624Y-191476D03*
G01*
X-1782974Y-278281D03*
D18*
G01*
X-1598452Y-389007D03*
G01*
X-1654301Y-312139D03*
D19*
G01*
X-1731180Y-367988D03*
G01*
X-1675326Y-444860D03*
D20*
G01*
X-1471816Y-514804D03*
G01*
X-1542427Y-451228D03*
D21*
G01*
X-1606014Y-521840D03*
D22*
G01*
X-1535399Y-585420D03*
D23*
G01*
X-1321794Y-611521D03*
G01*
X-1404080Y-564014D03*
D24*
G01*
X-1451596Y-646305D03*
D25*
G01*
X-1369305Y-693813D03*
D26*
G01*
X-1154941Y-674933D03*
G01*
X-1245306Y-645574D03*
D27*
G01*
X-1274674Y-735944D03*
D28*
G01*
X-1184304Y-765305D03*
D29*
G01*
X-978551Y-702270D03*
G01*
X-1073047Y-692339D03*
D30*
G01*
X-1082983Y-786842D03*
D31*
G01*
X-988482Y-796772D03*
D32*
G01*
X-800328Y-692335D03*
G01*
X-894824Y-702269D03*
D33*
G01*
X-884895Y-796772D03*
D34*
G01*
X-790395Y-786837D03*
D35*
G01*
X-628069Y-645565D03*
G01*
X-718435Y-674927D03*
D36*
G01*
X-689075Y-765300D03*
G01*
X-598705Y-735935D03*
D37*
G01*
X-469298Y-563999D03*
D38*
G01*
X-551583Y-611508D03*
D39*
G01*
X-504075Y-693803D03*
G01*
X-421786Y-646291D03*
D40*
G01*
X-330955Y-451208D03*
D41*
G01*
X-401563Y-514785D03*
D42*
G01*
X-337983Y-585405D03*
G01*
X-267371Y-521822D03*
D43*
G01*
X-219085Y-312115D03*
D44*
G01*
X-274932Y-388985D03*
D45*
G01*
X-198059Y-444842D03*
D46*
G01*
X-142210Y-367968D03*
D47*
G01*
X-138577Y-152805D03*
G01*
X-177223Y-239607D03*
D48*
G01*
X-90416Y-278260D03*
D49*
G01*
X-51770Y-191453D03*
D50*
G01*
X-92953Y19762D03*
G01*
X-112707Y-73176D03*
D51*
G01*
X-19761Y-92937D03*
D52*
G01*
X-8Y6D03*
D53*
G01*
X-1777044Y281283D03*
G01*
X-1757291Y374222D03*
D54*
G01*
X-1850237Y393983D03*
D55*
G01*
X-1869989Y301039D03*
D56*
G01*
X-1731421Y453851D03*
G01*
X-1692775Y540652D03*
D57*
G01*
X-1779582Y579306D03*
D58*
G01*
X-1818228Y492499D03*
D59*
G01*
X-1650913Y613161D03*
D60*
G01*
X-1595066Y690031D03*
D61*
G01*
X-1671939Y745888D03*
D62*
G01*
X-1727788Y669014D03*
D63*
G01*
X-1539043Y752254D03*
D64*
G01*
X-1468434Y815831D03*
D65*
G01*
X-1532014Y886451D03*
G01*
X-1602626Y822868D03*
D66*
G01*
X-1400700Y865045D03*
D67*
G01*
X-1318414Y912554D03*
D68*
G01*
X-1365923Y994849D03*
G01*
X-1448212Y947337D03*
D69*
G01*
X-1241929Y946611D03*
G01*
X-1151563Y975973D03*
D70*
G01*
X-1180923Y1066346D03*
G01*
X-1271292Y1036981D03*
D71*
G01*
X-1069670Y993381D03*
G01*
X-975174Y1003315D03*
D72*
G01*
X-985103Y1097818D03*
D73*
G01*
X-1079602Y1087883D03*
D74*
G01*
X-891447Y1003316D03*
G01*
X-796951Y993385D03*
D75*
G01*
X-787015Y1087888D03*
D76*
G01*
X-881515Y1097818D03*
D77*
G01*
X-715056Y975979D03*
G01*
X-624692Y946619D03*
D78*
G01*
X-595323Y1036990D03*
D79*
G01*
X-685694Y1066351D03*
D80*
G01*
X-548204Y912567D03*
G01*
X-465918Y865060D03*
D81*
G01*
X-418402Y947351D03*
D82*
G01*
X-500693Y994859D03*
D83*
G01*
X-398181Y815850D03*
G01*
X-327571Y752274D03*
D84*
G01*
X-263984Y822886D03*
D85*
G01*
X-334599Y886466D03*
D86*
G01*
X-271546Y690053D03*
G01*
X-215696Y613185D03*
D87*
G01*
X-138818Y669034D03*
G01*
X-194671Y745906D03*
D88*
G01*
X-173832Y540678D03*
D89*
G01*
X-135185Y453878D03*
D88*
G01*
X-48374Y492522D03*
G01*
X-87024Y579327D03*
D90*
G01*
X-109311Y374249D03*
G01*
X-89555Y281311D03*
G01*
X3392Y301062D03*
G01*
X-16365Y394006D03*
D14*
G01*
X-80797Y198043D03*
G01*
X-80797Y103022D03*
G01*
X14224Y103022D03*
G01*
X14224Y198043D03*
D91*
G01*
X-217601Y-3000578D03*
G01*
X-77596Y-3000578D03*
D12*
G75*
G01
X164998Y150520D02*
G03X164998Y150520I-1099998J0D01*
D92*
G01*
X-1234998Y6765721D03*
G01*
X-1034999Y6765721D03*
G01*
X-834999Y6765721D03*
D93*
G01*
X-635000Y6765721D03*
D94*
G01*
X55600Y-3000578D03*
G01*
X-566699Y-246176D03*
G01*
X-1315999Y-246176D03*
G01*
X-1315999Y515823D03*
G01*
X-566699Y515823D03*
G01*
X-249199Y287223D03*
G01*
X-401599Y98221D03*
G01*
X863600Y114300D03*
G01*
X-1234973Y6316395D03*
G01*
X868400Y6316395D03*
G01*
X-401599Y1495221D03*
G01*
X-2687599Y6511721D03*
G01*
X-2687599Y1495221D03*
G01*
X-834999Y6511721D03*
G01*
X-363499Y-3238576D03*
G01*
X68300Y-16078D03*
G01*
X-363499Y-2819400D03*
G01*
X68300Y-2819476D03*
M02*
