G04 Layer: BottomLayer*
G04 EasyEDA v6.5.29, 2023-07-18 11:35:47*
G04 afcbc65135b8487390061542234f1994,5a6b42c53f6a479593ecc07194224c93,10*
G04 Gerber Generator version 0.2*
G04 Scale: 100 percent, Rotated: No, Reflected: No *
G04 Dimensions in millimeters *
G04 leading zeros omitted , absolute positions ,4 integer and 5 decimal *
%FSLAX45Y45*%
%MOMM*%

%AMMACRO1*21,1,$1,$2,0,0,$3*%
%ADD10C,0.2540*%
%ADD11C,0.5000*%
%ADD12C,1.4000*%
%ADD13MACRO1,1.524X1.4X0.0000*%
%ADD14C,0.6096*%
%ADD15C,0.0126*%

%LPD*%
G36*
X-2930906Y-3622344D02*
G01*
X-2934817Y-3621582D01*
X-2938068Y-3619347D01*
X-2940304Y-3616096D01*
X-2941066Y-3612184D01*
X-2941066Y7364679D01*
X-2940304Y7368590D01*
X-2938068Y7371842D01*
X-2934817Y7374077D01*
X-2930906Y7374839D01*
X1060958Y7374839D01*
X1064869Y7374077D01*
X1068120Y7371842D01*
X1070356Y7368590D01*
X1071067Y7364679D01*
X1071067Y-3612184D01*
X1070356Y-3616096D01*
X1068120Y-3619347D01*
X1064869Y-3621582D01*
X1060958Y-3622344D01*
G37*

%LPC*%
G36*
X-2738374Y6893864D02*
G01*
X-2723184Y6894779D01*
X-2708249Y6897522D01*
X-2693720Y6902043D01*
X-2679852Y6908292D01*
X-2666847Y6916166D01*
X-2654909Y6925513D01*
X-2644140Y6936282D01*
X-2634792Y6948220D01*
X-2626918Y6961225D01*
X-2620670Y6975094D01*
X-2616149Y6989622D01*
X-2613406Y7004558D01*
X-2612491Y7019747D01*
X-2613406Y7034936D01*
X-2616149Y7049871D01*
X-2620670Y7064400D01*
X-2626918Y7078268D01*
X-2634792Y7091273D01*
X-2644140Y7103211D01*
X-2654909Y7113981D01*
X-2666847Y7123328D01*
X-2679852Y7131202D01*
X-2693720Y7137450D01*
X-2708249Y7141972D01*
X-2723184Y7144715D01*
X-2738374Y7145629D01*
X-2753563Y7144715D01*
X-2768498Y7141972D01*
X-2783027Y7137450D01*
X-2796895Y7131202D01*
X-2809900Y7123328D01*
X-2821838Y7113981D01*
X-2832608Y7103211D01*
X-2841955Y7091273D01*
X-2849829Y7078268D01*
X-2856077Y7064400D01*
X-2860598Y7049871D01*
X-2863342Y7034936D01*
X-2864256Y7019747D01*
X-2863342Y7004558D01*
X-2860598Y6989622D01*
X-2856077Y6975094D01*
X-2849829Y6961225D01*
X-2841955Y6948220D01*
X-2832608Y6936282D01*
X-2821838Y6925513D01*
X-2809900Y6916166D01*
X-2796895Y6908292D01*
X-2783027Y6902043D01*
X-2768498Y6897522D01*
X-2753563Y6894779D01*
G37*
G36*
X-2738374Y-3558235D02*
G01*
X-2723184Y-3557320D01*
X-2708249Y-3554577D01*
X-2693720Y-3550056D01*
X-2679852Y-3543808D01*
X-2666847Y-3535934D01*
X-2654909Y-3526586D01*
X-2644140Y-3515817D01*
X-2634792Y-3503879D01*
X-2626918Y-3490874D01*
X-2620670Y-3477006D01*
X-2616149Y-3462477D01*
X-2613406Y-3447542D01*
X-2612491Y-3432352D01*
X-2613406Y-3417163D01*
X-2616149Y-3402228D01*
X-2620670Y-3387699D01*
X-2626918Y-3373831D01*
X-2634792Y-3360826D01*
X-2644140Y-3348888D01*
X-2654909Y-3338118D01*
X-2666847Y-3328771D01*
X-2679852Y-3320897D01*
X-2693720Y-3314649D01*
X-2708249Y-3310128D01*
X-2723184Y-3307384D01*
X-2738374Y-3306470D01*
X-2753563Y-3307384D01*
X-2768498Y-3310128D01*
X-2783027Y-3314649D01*
X-2796895Y-3320897D01*
X-2809900Y-3328771D01*
X-2821838Y-3338118D01*
X-2832608Y-3348888D01*
X-2841955Y-3360826D01*
X-2849829Y-3373831D01*
X-2856077Y-3387699D01*
X-2860598Y-3402228D01*
X-2863342Y-3417163D01*
X-2864256Y-3432352D01*
X-2863342Y-3447542D01*
X-2860598Y-3462477D01*
X-2856077Y-3477006D01*
X-2849829Y-3490874D01*
X-2841955Y-3503879D01*
X-2832608Y-3515817D01*
X-2821838Y-3526586D01*
X-2809900Y-3535934D01*
X-2796895Y-3543808D01*
X-2783027Y-3550056D01*
X-2768498Y-3554577D01*
X-2753563Y-3557320D01*
G37*
G36*
X-1188770Y-3420160D02*
G01*
X-681177Y-3420160D01*
X-660450Y-3419246D01*
X-640130Y-3416452D01*
X-620064Y-3411880D01*
X-600456Y-3405530D01*
X-581558Y-3397453D01*
X-563473Y-3387699D01*
X-546354Y-3376422D01*
X-530250Y-3363569D01*
X-515366Y-3349396D01*
X-501904Y-3333902D01*
X-489762Y-3317240D01*
X-479247Y-3299612D01*
X-470306Y-3281070D01*
X-463092Y-3261867D01*
X-457606Y-3242056D01*
X-453948Y-3221786D01*
X-452120Y-3201314D01*
X-452120Y-3180791D01*
X-453948Y-3160318D01*
X-457606Y-3140049D01*
X-463092Y-3120237D01*
X-470306Y-3101035D01*
X-479247Y-3082493D01*
X-489762Y-3064865D01*
X-501904Y-3048254D01*
X-515366Y-3032709D01*
X-530250Y-3018536D01*
X-546354Y-3005734D01*
X-563473Y-2994406D01*
X-581558Y-2984652D01*
X-600456Y-2976575D01*
X-620064Y-2970225D01*
X-640130Y-2965704D01*
X-660450Y-2962859D01*
X-681177Y-2961944D01*
X-1188770Y-2961944D01*
X-1209497Y-2962859D01*
X-1229868Y-2965704D01*
X-1249934Y-2970225D01*
X-1269492Y-2976575D01*
X-1288389Y-2984652D01*
X-1306474Y-2994406D01*
X-1323644Y-3005734D01*
X-1339697Y-3018536D01*
X-1354632Y-3032709D01*
X-1368094Y-3048254D01*
X-1380185Y-3064865D01*
X-1390700Y-3082493D01*
X-1399641Y-3101035D01*
X-1406906Y-3120237D01*
X-1412341Y-3140049D01*
X-1415999Y-3160318D01*
X-1417828Y-3180791D01*
X-1417828Y-3201314D01*
X-1415999Y-3221786D01*
X-1412341Y-3242056D01*
X-1406906Y-3261867D01*
X-1399641Y-3281070D01*
X-1390700Y-3299612D01*
X-1380185Y-3317240D01*
X-1368094Y-3333902D01*
X-1354632Y-3349396D01*
X-1339697Y-3363569D01*
X-1323644Y-3376422D01*
X-1306474Y-3387699D01*
X-1288389Y-3397453D01*
X-1269492Y-3405530D01*
X-1249934Y-3411880D01*
X-1229868Y-3416452D01*
X-1209497Y-3419246D01*
G37*
G36*
X-363474Y-3294887D02*
G01*
X-353669Y-3294024D01*
X-344220Y-3291484D01*
X-335330Y-3287369D01*
X-327253Y-3281730D01*
X-320294Y-3274771D01*
X-314706Y-3266744D01*
X-310540Y-3257803D01*
X-308000Y-3248355D01*
X-307136Y-3238550D01*
X-308000Y-3228746D01*
X-310540Y-3219297D01*
X-314706Y-3210407D01*
X-320294Y-3202330D01*
X-321868Y-3200755D01*
X-324104Y-3197453D01*
X-324866Y-3193542D01*
X-324866Y-2864358D01*
X-324104Y-2860446D01*
X-321868Y-2857246D01*
X-320294Y-2855569D01*
X-314706Y-2847543D01*
X-310540Y-2838704D01*
X-308000Y-2829153D01*
X-307136Y-2819349D01*
X-308000Y-2809595D01*
X-310540Y-2800096D01*
X-314706Y-2791206D01*
X-320294Y-2783128D01*
X-327253Y-2776220D01*
X-335330Y-2770581D01*
X-344220Y-2766415D01*
X-353669Y-2763875D01*
X-363474Y-2763012D01*
X-373329Y-2763875D01*
X-382727Y-2766415D01*
X-391668Y-2770581D01*
X-399745Y-2776220D01*
X-406654Y-2783128D01*
X-412292Y-2791206D01*
X-416407Y-2800096D01*
X-418947Y-2809595D01*
X-419811Y-2819349D01*
X-418947Y-2829153D01*
X-416407Y-2838704D01*
X-412292Y-2847543D01*
X-406654Y-2855569D01*
X-405079Y-2857246D01*
X-402844Y-2860446D01*
X-402132Y-2864358D01*
X-402132Y-3193542D01*
X-402844Y-3197453D01*
X-405079Y-3200755D01*
X-406654Y-3202330D01*
X-412292Y-3210407D01*
X-416407Y-3219297D01*
X-418947Y-3228746D01*
X-419811Y-3238550D01*
X-418947Y-3248355D01*
X-416407Y-3257803D01*
X-412292Y-3266744D01*
X-406654Y-3274771D01*
X-399745Y-3281730D01*
X-391668Y-3287369D01*
X-382727Y-3291484D01*
X-373329Y-3294024D01*
G37*
G36*
X55626Y-3056890D02*
G01*
X65430Y-3056026D01*
X74879Y-3053486D01*
X83769Y-3049371D01*
X91846Y-3043732D01*
X98806Y-3036773D01*
X104394Y-3028746D01*
X108559Y-3019806D01*
X111099Y-3010357D01*
X111810Y-3002330D01*
X112674Y-2998927D01*
X114757Y-2996031D01*
X890574Y-2220214D01*
X895654Y-2213965D01*
X899261Y-2207310D01*
X901446Y-2200097D01*
X902258Y-2192070D01*
X902258Y69342D01*
X903020Y73202D01*
X905205Y76454D01*
X906780Y78079D01*
X912418Y86156D01*
X916584Y94996D01*
X919124Y104546D01*
X919987Y114300D01*
X919124Y124104D01*
X916584Y133604D01*
X915466Y135940D01*
X914552Y140208D01*
X914552Y4189780D01*
X915466Y4194048D01*
X917600Y4199890D01*
X918565Y4204208D01*
X919124Y4208627D01*
X919327Y4213250D01*
X919327Y6290513D01*
X920292Y6294831D01*
X921359Y6297168D01*
X923899Y6306616D01*
X924763Y6316421D01*
X923899Y6326225D01*
X921359Y6335674D01*
X917194Y6344615D01*
X911606Y6352641D01*
X904646Y6359601D01*
X896569Y6365240D01*
X887679Y6369304D01*
X878230Y6371894D01*
X868426Y6372707D01*
X858570Y6371894D01*
X849172Y6369304D01*
X840232Y6365240D01*
X832154Y6359601D01*
X825246Y6352641D01*
X819607Y6344615D01*
X815492Y6335674D01*
X812952Y6326225D01*
X812088Y6316421D01*
X812952Y6306616D01*
X815492Y6297168D01*
X816508Y6294831D01*
X817524Y6290513D01*
X817524Y4231538D01*
X816508Y4227220D01*
X814476Y4221429D01*
X813511Y4217060D01*
X812901Y4212691D01*
X812647Y4208018D01*
X812647Y140208D01*
X811784Y135940D01*
X810615Y133604D01*
X808126Y124104D01*
X807212Y114300D01*
X808126Y104546D01*
X810615Y94996D01*
X814832Y86156D01*
X820470Y78079D01*
X822045Y76454D01*
X824230Y73202D01*
X825042Y69342D01*
X825042Y-2172360D01*
X824230Y-2176221D01*
X822045Y-2179523D01*
X60147Y-2941421D01*
X57251Y-2943453D01*
X53848Y-2944368D01*
X45770Y-2945079D01*
X36372Y-2947619D01*
X27432Y-2951734D01*
X19354Y-2957372D01*
X12446Y-2964332D01*
X6807Y-2972358D01*
X2692Y-2981299D01*
X152Y-2990748D01*
X-711Y-3000552D01*
X152Y-3010357D01*
X2692Y-3019806D01*
X6807Y-3028746D01*
X12446Y-3036773D01*
X19354Y-3043732D01*
X27432Y-3049371D01*
X36372Y-3053486D01*
X45770Y-3056026D01*
G37*
G36*
X68326Y-2875788D02*
G01*
X78130Y-2874924D01*
X87579Y-2872384D01*
X96469Y-2868269D01*
X104546Y-2862630D01*
X111506Y-2855671D01*
X117094Y-2847644D01*
X121259Y-2838704D01*
X123799Y-2829255D01*
X124663Y-2819450D01*
X123799Y-2809646D01*
X121259Y-2800197D01*
X117094Y-2791307D01*
X111506Y-2783230D01*
X109931Y-2781655D01*
X107696Y-2778353D01*
X106933Y-2774442D01*
X106933Y-61061D01*
X107696Y-57150D01*
X109931Y-53848D01*
X111506Y-52273D01*
X117094Y-44246D01*
X121259Y-35306D01*
X123799Y-25857D01*
X124663Y-16052D01*
X123799Y-6248D01*
X121259Y3200D01*
X117094Y12141D01*
X111506Y20167D01*
X104546Y27127D01*
X96469Y32766D01*
X87579Y36880D01*
X78130Y39420D01*
X68326Y40284D01*
X58470Y39420D01*
X49072Y36880D01*
X40132Y32766D01*
X32054Y27127D01*
X25146Y20167D01*
X19507Y12141D01*
X15392Y3200D01*
X12852Y-6248D01*
X11988Y-16052D01*
X12852Y-25857D01*
X15392Y-35306D01*
X19507Y-44246D01*
X25146Y-52273D01*
X26720Y-53848D01*
X28956Y-57150D01*
X29667Y-61061D01*
X29667Y-2774442D01*
X28956Y-2778353D01*
X26720Y-2781655D01*
X25146Y-2783230D01*
X19507Y-2791307D01*
X15392Y-2800197D01*
X12852Y-2809646D01*
X11988Y-2819450D01*
X12852Y-2829255D01*
X15392Y-2838704D01*
X19507Y-2847644D01*
X25146Y-2855671D01*
X32054Y-2862630D01*
X40132Y-2868269D01*
X49072Y-2872384D01*
X58470Y-2874924D01*
G37*
G36*
X-948842Y-246024D02*
G01*
X-921054Y-246024D01*
X-893267Y-244094D01*
X-865784Y-240233D01*
X-838504Y-234442D01*
X-811784Y-226771D01*
X-785622Y-217220D01*
X-760222Y-205943D01*
X-735634Y-192887D01*
X-712063Y-178104D01*
X-689559Y-161747D01*
X-668223Y-143865D01*
X-648208Y-124561D01*
X-629615Y-103885D01*
X-612444Y-81940D01*
X-596900Y-58877D01*
X-582980Y-34798D01*
X-570788Y-9804D01*
X-560425Y16002D01*
X-551789Y42468D01*
X-545033Y69443D01*
X-540207Y96875D01*
X-537311Y124510D01*
X-536346Y152349D01*
X-537311Y180136D01*
X-540207Y207822D01*
X-545033Y235204D01*
X-551789Y262178D01*
X-560425Y288645D01*
X-570788Y314452D01*
X-582980Y339445D01*
X-596900Y363575D01*
X-612444Y386638D01*
X-629615Y408533D01*
X-648208Y429209D01*
X-668223Y448564D01*
X-689559Y466445D01*
X-712063Y482803D01*
X-735634Y497484D01*
X-760222Y510590D01*
X-785622Y521919D01*
X-811784Y531418D01*
X-838504Y539089D01*
X-865784Y544880D01*
X-893267Y548741D01*
X-921054Y550672D01*
X-948842Y550672D01*
X-976680Y548741D01*
X-1004163Y544880D01*
X-1031392Y539089D01*
X-1058113Y531418D01*
X-1084275Y521919D01*
X-1109675Y510590D01*
X-1134262Y497484D01*
X-1157884Y482803D01*
X-1180338Y466445D01*
X-1201674Y448564D01*
X-1221689Y429209D01*
X-1240332Y408533D01*
X-1257452Y386638D01*
X-1272997Y363575D01*
X-1286865Y339445D01*
X-1299057Y314452D01*
X-1309522Y288645D01*
X-1318107Y262178D01*
X-1324813Y235204D01*
X-1329639Y207822D01*
X-1332636Y180136D01*
X-1333550Y152349D01*
X-1332636Y124510D01*
X-1329639Y96875D01*
X-1324813Y69443D01*
X-1318107Y42468D01*
X-1309522Y16002D01*
X-1299057Y-9804D01*
X-1286865Y-34798D01*
X-1272997Y-58877D01*
X-1257452Y-81940D01*
X-1240332Y-103885D01*
X-1221689Y-124561D01*
X-1201674Y-143865D01*
X-1180338Y-161747D01*
X-1157884Y-178104D01*
X-1134262Y-192887D01*
X-1109675Y-205943D01*
X-1084275Y-217220D01*
X-1058113Y-226771D01*
X-1031392Y-234442D01*
X-1004163Y-240233D01*
X-976680Y-244094D01*
G37*
G36*
X-401574Y41910D02*
G01*
X-391769Y42722D01*
X-382320Y45313D01*
X-373430Y49428D01*
X-365353Y55067D01*
X-358394Y62026D01*
X-352806Y70053D01*
X-348640Y78994D01*
X-346100Y88442D01*
X-345236Y98247D01*
X-346100Y108051D01*
X-348640Y117500D01*
X-352806Y126441D01*
X-358394Y134467D01*
X-359968Y136042D01*
X-362204Y139344D01*
X-362966Y143256D01*
X-362966Y1450238D01*
X-362204Y1454150D01*
X-359968Y1457452D01*
X-358394Y1459026D01*
X-352806Y1467053D01*
X-348640Y1475994D01*
X-346100Y1485442D01*
X-345236Y1495247D01*
X-346100Y1505051D01*
X-348640Y1514500D01*
X-352806Y1523441D01*
X-358394Y1531467D01*
X-365353Y1538427D01*
X-373430Y1544066D01*
X-382320Y1548180D01*
X-391769Y1550720D01*
X-401574Y1551584D01*
X-411429Y1550720D01*
X-420827Y1548180D01*
X-429768Y1544066D01*
X-437845Y1538427D01*
X-444754Y1531467D01*
X-450392Y1523441D01*
X-454507Y1514500D01*
X-457047Y1505051D01*
X-457911Y1495247D01*
X-457047Y1485442D01*
X-454507Y1475994D01*
X-450392Y1467053D01*
X-444754Y1459026D01*
X-443179Y1457452D01*
X-440943Y1454150D01*
X-440232Y1450238D01*
X-440232Y143256D01*
X-440943Y139344D01*
X-443179Y136042D01*
X-444754Y134467D01*
X-450392Y126441D01*
X-454507Y117500D01*
X-457047Y108051D01*
X-457911Y98247D01*
X-457047Y88442D01*
X-454507Y78994D01*
X-450392Y70053D01*
X-444754Y62026D01*
X-437845Y55067D01*
X-429768Y49428D01*
X-420827Y45313D01*
X-411429Y42722D01*
G37*
G36*
X-2687574Y1438910D02*
G01*
X-2677769Y1439722D01*
X-2668320Y1442313D01*
X-2659380Y1446428D01*
X-2651353Y1452067D01*
X-2644394Y1459026D01*
X-2638755Y1467053D01*
X-2634640Y1475994D01*
X-2632100Y1485442D01*
X-2631236Y1495247D01*
X-2632100Y1505051D01*
X-2634640Y1514500D01*
X-2638755Y1523441D01*
X-2644394Y1531467D01*
X-2645968Y1533042D01*
X-2648204Y1536344D01*
X-2648966Y1540256D01*
X-2648966Y6466738D01*
X-2648204Y6470650D01*
X-2645968Y6473952D01*
X-2644394Y6475526D01*
X-2638755Y6483553D01*
X-2634640Y6492494D01*
X-2632100Y6501942D01*
X-2631236Y6511747D01*
X-2632100Y6521551D01*
X-2634640Y6531000D01*
X-2638755Y6539941D01*
X-2644394Y6547967D01*
X-2651353Y6554927D01*
X-2659380Y6560566D01*
X-2668320Y6564680D01*
X-2677769Y6567220D01*
X-2687574Y6568084D01*
X-2697378Y6567220D01*
X-2706827Y6564680D01*
X-2715768Y6560566D01*
X-2723794Y6554927D01*
X-2730754Y6547967D01*
X-2736392Y6539941D01*
X-2740507Y6531000D01*
X-2743047Y6521551D01*
X-2743911Y6511747D01*
X-2743047Y6501942D01*
X-2740507Y6492494D01*
X-2736392Y6483553D01*
X-2730754Y6475526D01*
X-2729179Y6473952D01*
X-2726944Y6470650D01*
X-2726182Y6466738D01*
X-2726182Y1540256D01*
X-2726944Y1536344D01*
X-2729179Y1533042D01*
X-2730754Y1531467D01*
X-2736392Y1523441D01*
X-2740507Y1514500D01*
X-2743047Y1505051D01*
X-2743911Y1495247D01*
X-2743047Y1485442D01*
X-2740507Y1475994D01*
X-2736392Y1467053D01*
X-2730754Y1459026D01*
X-2723794Y1452067D01*
X-2715768Y1446428D01*
X-2706827Y1442313D01*
X-2697378Y1439722D01*
G37*
G36*
X-2123287Y1761439D02*
G01*
X263144Y1761439D01*
X269494Y1762150D01*
X274929Y1764080D01*
X279857Y1767128D01*
X283921Y1771243D01*
X286969Y1776120D01*
X288899Y1781606D01*
X289661Y1787906D01*
X289661Y1948129D01*
X290372Y1951989D01*
X292557Y1955241D01*
X295808Y1957476D01*
X299618Y1958289D01*
X303479Y1957578D01*
X306781Y1955495D01*
X309067Y1952294D01*
X312470Y1944725D01*
X320294Y1931720D01*
X329692Y1919782D01*
X340461Y1909013D01*
X352399Y1899666D01*
X365404Y1891792D01*
X379272Y1885543D01*
X393801Y1881022D01*
X408736Y1878279D01*
X423926Y1877364D01*
X439115Y1878279D01*
X454050Y1881022D01*
X468579Y1885543D01*
X482447Y1891792D01*
X495452Y1899666D01*
X507390Y1909013D01*
X518159Y1919782D01*
X527507Y1931720D01*
X535381Y1944725D01*
X541629Y1958593D01*
X546150Y1973122D01*
X548894Y1988057D01*
X549808Y2003247D01*
X548894Y2018436D01*
X546150Y2033371D01*
X541629Y2047900D01*
X535381Y2061768D01*
X527507Y2074773D01*
X518159Y2086711D01*
X507390Y2097481D01*
X495452Y2106828D01*
X482447Y2114702D01*
X468579Y2120950D01*
X454050Y2125472D01*
X439115Y2128215D01*
X423926Y2129129D01*
X408736Y2128215D01*
X393801Y2125472D01*
X379272Y2120950D01*
X365404Y2114702D01*
X352399Y2106828D01*
X340461Y2097481D01*
X329692Y2086711D01*
X320294Y2074773D01*
X312470Y2061768D01*
X309067Y2054199D01*
X306781Y2050999D01*
X303479Y2048865D01*
X299618Y2048205D01*
X295808Y2049018D01*
X292557Y2051253D01*
X290372Y2054504D01*
X289661Y2058365D01*
X289661Y2144979D01*
X290372Y2148890D01*
X292608Y2152142D01*
X295910Y2154377D01*
X299770Y2155139D01*
X656844Y2155139D01*
X663194Y2155850D01*
X668629Y2157780D01*
X673557Y2160828D01*
X677621Y2164943D01*
X680669Y2169820D01*
X682599Y2175306D01*
X683361Y2181606D01*
X683361Y5723788D01*
X682599Y5730087D01*
X680669Y5735574D01*
X677621Y5740450D01*
X673557Y5744565D01*
X668629Y5747613D01*
X663194Y5749544D01*
X656844Y5750255D01*
X452628Y5750255D01*
X448462Y5751169D01*
X445058Y5753658D01*
X442976Y5757367D01*
X442569Y5761634D01*
X443890Y5765647D01*
X446887Y5768797D01*
X450799Y5770422D01*
X454050Y5770930D01*
X468579Y5775502D01*
X482447Y5781751D01*
X495452Y5789625D01*
X507390Y5799023D01*
X518159Y5809742D01*
X527507Y5821730D01*
X535381Y5834735D01*
X541629Y5848604D01*
X546150Y5863082D01*
X548894Y5878068D01*
X549808Y5893206D01*
X548894Y5908395D01*
X546150Y5923330D01*
X541629Y5937859D01*
X535381Y5951728D01*
X527507Y5964732D01*
X518159Y5976721D01*
X507390Y5987440D01*
X495452Y5996838D01*
X482447Y6004712D01*
X468579Y6010960D01*
X454050Y6015482D01*
X439115Y6018225D01*
X423926Y6019139D01*
X408736Y6018225D01*
X393801Y6015482D01*
X379272Y6010960D01*
X365404Y6004712D01*
X352399Y5996838D01*
X340461Y5987440D01*
X329692Y5976721D01*
X320294Y5964732D01*
X312470Y5951728D01*
X306222Y5937859D01*
X301701Y5923330D01*
X298958Y5908395D01*
X298043Y5893206D01*
X298958Y5878068D01*
X301701Y5863082D01*
X306222Y5848604D01*
X312470Y5834735D01*
X320294Y5821730D01*
X329692Y5809742D01*
X340461Y5799023D01*
X352399Y5789625D01*
X365404Y5781751D01*
X379272Y5775502D01*
X393801Y5770930D01*
X397052Y5770422D01*
X400913Y5768797D01*
X403910Y5765647D01*
X405231Y5761634D01*
X404876Y5757367D01*
X402742Y5753658D01*
X399338Y5751169D01*
X395173Y5750255D01*
X-2262327Y5750255D01*
X-2266543Y5751169D01*
X-2269947Y5753658D01*
X-2272080Y5757367D01*
X-2272436Y5761634D01*
X-2271064Y5765647D01*
X-2268118Y5768797D01*
X-2264257Y5770422D01*
X-2260955Y5770930D01*
X-2246426Y5775502D01*
X-2232558Y5781751D01*
X-2219553Y5789625D01*
X-2207615Y5799023D01*
X-2196846Y5809742D01*
X-2187498Y5821730D01*
X-2179675Y5834735D01*
X-2173376Y5848604D01*
X-2168906Y5863082D01*
X-2166112Y5878068D01*
X-2165197Y5893206D01*
X-2166112Y5908395D01*
X-2168906Y5923330D01*
X-2173376Y5937859D01*
X-2179675Y5951728D01*
X-2187498Y5964732D01*
X-2196846Y5976721D01*
X-2207615Y5987440D01*
X-2219553Y5996838D01*
X-2232558Y6004712D01*
X-2246426Y6010960D01*
X-2260955Y6015482D01*
X-2275941Y6018225D01*
X-2291130Y6019139D01*
X-2306269Y6018225D01*
X-2321204Y6015482D01*
X-2335733Y6010960D01*
X-2349601Y6004712D01*
X-2362606Y5996838D01*
X-2374544Y5987440D01*
X-2385314Y5976721D01*
X-2394661Y5964732D01*
X-2402535Y5951728D01*
X-2408783Y5937859D01*
X-2413304Y5923330D01*
X-2416048Y5908395D01*
X-2416962Y5893206D01*
X-2416048Y5878068D01*
X-2413304Y5863082D01*
X-2408783Y5848604D01*
X-2402535Y5834735D01*
X-2394661Y5821730D01*
X-2385314Y5809742D01*
X-2374544Y5799023D01*
X-2362606Y5789625D01*
X-2349601Y5781751D01*
X-2335733Y5775502D01*
X-2321204Y5770930D01*
X-2317953Y5770422D01*
X-2314041Y5768797D01*
X-2311095Y5765647D01*
X-2309723Y5761634D01*
X-2310130Y5757367D01*
X-2312212Y5753658D01*
X-2315616Y5751169D01*
X-2319832Y5750255D01*
X-2516987Y5750255D01*
X-2523337Y5749544D01*
X-2528773Y5747613D01*
X-2533700Y5744565D01*
X-2537764Y5740450D01*
X-2540863Y5735574D01*
X-2542743Y5730087D01*
X-2543454Y5723788D01*
X-2543454Y2181606D01*
X-2542743Y2175306D01*
X-2540863Y2169820D01*
X-2537764Y2164943D01*
X-2533700Y2160828D01*
X-2528773Y2157780D01*
X-2523337Y2155850D01*
X-2516987Y2155139D01*
X-2159914Y2155139D01*
X-2156053Y2154377D01*
X-2152802Y2152142D01*
X-2150567Y2148890D01*
X-2149754Y2144979D01*
X-2149754Y2038959D01*
X-2150618Y2034946D01*
X-2152954Y2031542D01*
X-2156409Y2029409D01*
X-2160473Y2028799D01*
X-2164486Y2029815D01*
X-2167636Y2032254D01*
X-2169617Y2035911D01*
X-2173376Y2047900D01*
X-2179675Y2061768D01*
X-2187498Y2074773D01*
X-2196846Y2086711D01*
X-2207615Y2097481D01*
X-2219553Y2106828D01*
X-2232558Y2114702D01*
X-2246426Y2120950D01*
X-2260955Y2125472D01*
X-2275941Y2128215D01*
X-2291130Y2129129D01*
X-2306269Y2128215D01*
X-2321204Y2125472D01*
X-2335733Y2120950D01*
X-2349601Y2114702D01*
X-2362606Y2106828D01*
X-2374544Y2097481D01*
X-2385314Y2086711D01*
X-2394661Y2074773D01*
X-2402535Y2061768D01*
X-2408783Y2047900D01*
X-2413304Y2033371D01*
X-2416048Y2018436D01*
X-2416962Y2003247D01*
X-2416048Y1988057D01*
X-2413304Y1973122D01*
X-2408783Y1958593D01*
X-2402535Y1944725D01*
X-2394661Y1931720D01*
X-2385314Y1919782D01*
X-2374544Y1909013D01*
X-2362606Y1899666D01*
X-2349601Y1891792D01*
X-2335733Y1885543D01*
X-2321204Y1881022D01*
X-2306269Y1878279D01*
X-2291130Y1877364D01*
X-2275941Y1878279D01*
X-2260955Y1881022D01*
X-2246426Y1885543D01*
X-2232558Y1891792D01*
X-2219553Y1899666D01*
X-2207615Y1909013D01*
X-2196846Y1919782D01*
X-2187498Y1931720D01*
X-2179675Y1944725D01*
X-2173376Y1958593D01*
X-2169617Y1970582D01*
X-2167636Y1974189D01*
X-2164486Y1976678D01*
X-2160473Y1977694D01*
X-2156409Y1977034D01*
X-2152954Y1974951D01*
X-2150618Y1971548D01*
X-2149754Y1967534D01*
X-2149754Y1787906D01*
X-2149043Y1781606D01*
X-2147163Y1776120D01*
X-2144064Y1771243D01*
X-2140000Y1767128D01*
X-2135073Y1764080D01*
X-2129637Y1762150D01*
G37*
G36*
X893826Y6893864D02*
G01*
X909015Y6894779D01*
X923950Y6897522D01*
X938479Y6902043D01*
X952347Y6908292D01*
X965352Y6916166D01*
X977290Y6925513D01*
X988060Y6936282D01*
X997407Y6948220D01*
X1005281Y6961225D01*
X1011529Y6975094D01*
X1016050Y6989622D01*
X1018794Y7004558D01*
X1019708Y7019747D01*
X1018794Y7034936D01*
X1016050Y7049871D01*
X1011529Y7064400D01*
X1005281Y7078268D01*
X997407Y7091273D01*
X988060Y7103211D01*
X977290Y7113981D01*
X965352Y7123328D01*
X952347Y7131202D01*
X938479Y7137450D01*
X923950Y7141972D01*
X909015Y7144715D01*
X893826Y7145629D01*
X878636Y7144715D01*
X863701Y7141972D01*
X849172Y7137450D01*
X835304Y7131202D01*
X822299Y7123328D01*
X810361Y7113981D01*
X799592Y7103211D01*
X790194Y7091273D01*
X782370Y7078268D01*
X776122Y7064400D01*
X771601Y7049871D01*
X768858Y7034936D01*
X767943Y7019747D01*
X768858Y7004558D01*
X771601Y6989622D01*
X776122Y6975094D01*
X782370Y6961225D01*
X790194Y6948220D01*
X799592Y6936282D01*
X810361Y6925513D01*
X822299Y6916166D01*
X835304Y6908292D01*
X849172Y6902043D01*
X863701Y6897522D01*
X878636Y6894779D01*
G37*
G36*
X-622300Y6778447D02*
G01*
X-532841Y6778447D01*
X-532841Y6835190D01*
X-533654Y6841490D01*
X-535482Y6846976D01*
X-538581Y6851853D01*
X-542645Y6855968D01*
X-547573Y6859016D01*
X-553059Y6860946D01*
X-559409Y6861657D01*
X-622300Y6861657D01*
G37*
G36*
X-622300Y6669836D02*
G01*
X-559409Y6669836D01*
X-553059Y6670548D01*
X-547573Y6672478D01*
X-542645Y6675526D01*
X-538581Y6679641D01*
X-535482Y6684518D01*
X-533654Y6690004D01*
X-532841Y6696303D01*
X-532841Y6753047D01*
X-622300Y6753047D01*
G37*
G36*
X893826Y-3558235D02*
G01*
X909015Y-3557320D01*
X923950Y-3554577D01*
X938479Y-3550056D01*
X952347Y-3543808D01*
X965352Y-3535934D01*
X977290Y-3526586D01*
X988060Y-3515817D01*
X997407Y-3503879D01*
X1005281Y-3490874D01*
X1011529Y-3477006D01*
X1016050Y-3462477D01*
X1018794Y-3447542D01*
X1019708Y-3432352D01*
X1018794Y-3417163D01*
X1016050Y-3402228D01*
X1011529Y-3387699D01*
X1005281Y-3373831D01*
X997407Y-3360826D01*
X988060Y-3348888D01*
X977290Y-3338118D01*
X965352Y-3328771D01*
X952347Y-3320897D01*
X938479Y-3314649D01*
X923950Y-3310128D01*
X909015Y-3307384D01*
X893826Y-3306470D01*
X878636Y-3307384D01*
X863701Y-3310128D01*
X849172Y-3314649D01*
X835304Y-3320897D01*
X822299Y-3328771D01*
X810361Y-3338118D01*
X799592Y-3348888D01*
X790194Y-3360826D01*
X782370Y-3373831D01*
X776122Y-3387699D01*
X771601Y-3402228D01*
X768858Y-3417163D01*
X767943Y-3432352D01*
X768858Y-3447542D01*
X771601Y-3462477D01*
X776122Y-3477006D01*
X782370Y-3490874D01*
X790194Y-3503879D01*
X799592Y-3515817D01*
X810361Y-3526586D01*
X822299Y-3535934D01*
X835304Y-3543808D01*
X849172Y-3550056D01*
X863701Y-3554577D01*
X878636Y-3557320D01*
G37*
G36*
X-834948Y6455410D02*
G01*
X-825195Y6456273D01*
X-815695Y6458813D01*
X-806805Y6462928D01*
X-798779Y6468567D01*
X-791819Y6475526D01*
X-786180Y6483553D01*
X-782015Y6492494D01*
X-779475Y6501942D01*
X-778611Y6511747D01*
X-779475Y6521551D01*
X-782015Y6531000D01*
X-786180Y6539941D01*
X-791819Y6547967D01*
X-793445Y6549542D01*
X-795578Y6552844D01*
X-796391Y6556756D01*
X-796391Y6671564D01*
X-795832Y6674967D01*
X-794105Y6677964D01*
X-791514Y6680250D01*
X-779729Y6687413D01*
X-769518Y6695694D01*
X-760577Y6705244D01*
X-755548Y6712407D01*
X-752398Y6715252D01*
X-748436Y6716623D01*
X-744169Y6716217D01*
X-740460Y6714134D01*
X-737971Y6710680D01*
X-737057Y6706514D01*
X-737057Y6696303D01*
X-736346Y6690004D01*
X-734466Y6684518D01*
X-731418Y6679641D01*
X-727303Y6675526D01*
X-722376Y6672478D01*
X-716940Y6670548D01*
X-710590Y6669836D01*
X-647700Y6669836D01*
X-647700Y6753047D01*
X-729081Y6753047D01*
X-732993Y6753809D01*
X-736295Y6756044D01*
X-738479Y6759295D01*
X-739241Y6763207D01*
X-739241Y6768287D01*
X-738479Y6772198D01*
X-736295Y6775450D01*
X-732993Y6777685D01*
X-729081Y6778447D01*
X-647700Y6778447D01*
X-647700Y6861657D01*
X-710590Y6861657D01*
X-716940Y6860946D01*
X-722376Y6859016D01*
X-727303Y6855968D01*
X-731418Y6851853D01*
X-734466Y6846976D01*
X-736346Y6841490D01*
X-737057Y6835190D01*
X-737057Y6824980D01*
X-737971Y6820814D01*
X-740460Y6817359D01*
X-744169Y6815277D01*
X-748436Y6814870D01*
X-752398Y6816242D01*
X-755548Y6819087D01*
X-760577Y6826250D01*
X-769518Y6835800D01*
X-779729Y6844080D01*
X-790854Y6850888D01*
X-802843Y6856069D01*
X-815441Y6859625D01*
X-828446Y6861403D01*
X-841502Y6861403D01*
X-854557Y6859625D01*
X-867156Y6856069D01*
X-879094Y6850888D01*
X-890269Y6844080D01*
X-900480Y6835800D01*
X-909370Y6826250D01*
X-916889Y6815581D01*
X-922934Y6803948D01*
X-925423Y6796989D01*
X-927557Y6793433D01*
X-930910Y6791045D01*
X-934974Y6790232D01*
X-939037Y6791045D01*
X-942441Y6793433D01*
X-944524Y6796989D01*
X-947013Y6803948D01*
X-953109Y6815581D01*
X-960577Y6826250D01*
X-969518Y6835800D01*
X-979678Y6844080D01*
X-990853Y6850888D01*
X-1002842Y6856069D01*
X-1015441Y6859625D01*
X-1022248Y6860540D01*
X-1022248Y6778447D01*
X-940866Y6778447D01*
X-937006Y6777685D01*
X-933703Y6775450D01*
X-931468Y6772198D01*
X-930757Y6768287D01*
X-930757Y6763207D01*
X-931468Y6759295D01*
X-933703Y6756044D01*
X-937006Y6753809D01*
X-940866Y6753047D01*
X-1022248Y6753047D01*
X-1022248Y6670954D01*
X-1015441Y6671868D01*
X-1002842Y6675374D01*
X-990853Y6680606D01*
X-979678Y6687413D01*
X-969518Y6695694D01*
X-960577Y6705244D01*
X-953109Y6715912D01*
X-947013Y6727545D01*
X-944524Y6734505D01*
X-942441Y6738061D01*
X-939037Y6740448D01*
X-934974Y6741261D01*
X-930910Y6740448D01*
X-927557Y6738061D01*
X-925423Y6734505D01*
X-922934Y6727545D01*
X-916889Y6715912D01*
X-909370Y6705244D01*
X-900480Y6695694D01*
X-890269Y6687413D01*
X-878484Y6680250D01*
X-875842Y6677964D01*
X-874166Y6674967D01*
X-873607Y6671564D01*
X-873607Y6556756D01*
X-874369Y6552844D01*
X-876553Y6549542D01*
X-878128Y6547967D01*
X-883818Y6539941D01*
X-887933Y6531000D01*
X-890473Y6521551D01*
X-891336Y6511747D01*
X-890473Y6501942D01*
X-887933Y6492494D01*
X-883818Y6483553D01*
X-878128Y6475526D01*
X-871219Y6468567D01*
X-863142Y6462928D01*
X-854252Y6458813D01*
X-844803Y6456273D01*
G37*
G36*
X-1234998Y6260084D02*
G01*
X-1225143Y6260947D01*
X-1215694Y6263487D01*
X-1206754Y6267602D01*
X-1198727Y6273241D01*
X-1191768Y6280200D01*
X-1186129Y6288227D01*
X-1182014Y6297168D01*
X-1179474Y6306616D01*
X-1178610Y6316421D01*
X-1179474Y6326225D01*
X-1182014Y6335674D01*
X-1183081Y6338011D01*
X-1184046Y6342329D01*
X-1184046Y6679031D01*
X-1183030Y6683400D01*
X-1180338Y6686956D01*
X-1169568Y6695694D01*
X-1160576Y6705244D01*
X-1153058Y6715912D01*
X-1147013Y6727545D01*
X-1144524Y6734505D01*
X-1142390Y6738061D01*
X-1139037Y6740448D01*
X-1134973Y6741261D01*
X-1130909Y6740448D01*
X-1127607Y6738061D01*
X-1125423Y6734505D01*
X-1122934Y6727545D01*
X-1116888Y6715912D01*
X-1109370Y6705244D01*
X-1100429Y6695694D01*
X-1090269Y6687413D01*
X-1079093Y6680606D01*
X-1067104Y6675374D01*
X-1054506Y6671868D01*
X-1047648Y6670954D01*
X-1047648Y6753047D01*
X-1129080Y6753047D01*
X-1132992Y6753809D01*
X-1136243Y6756044D01*
X-1138478Y6759295D01*
X-1139291Y6763207D01*
X-1139291Y6768287D01*
X-1138478Y6772198D01*
X-1136243Y6775450D01*
X-1132992Y6777685D01*
X-1129080Y6778447D01*
X-1047648Y6778447D01*
X-1047648Y6860540D01*
X-1054506Y6859625D01*
X-1067104Y6856069D01*
X-1079093Y6850888D01*
X-1090269Y6844080D01*
X-1100429Y6835800D01*
X-1109370Y6826250D01*
X-1116888Y6815581D01*
X-1122934Y6803948D01*
X-1125423Y6796989D01*
X-1127607Y6793433D01*
X-1130909Y6791045D01*
X-1134973Y6790232D01*
X-1139037Y6791045D01*
X-1142390Y6793433D01*
X-1144524Y6796989D01*
X-1147013Y6803948D01*
X-1153058Y6815581D01*
X-1160576Y6826250D01*
X-1169568Y6835800D01*
X-1179677Y6844080D01*
X-1190853Y6850888D01*
X-1202842Y6856069D01*
X-1215491Y6859625D01*
X-1228445Y6861403D01*
X-1241501Y6861403D01*
X-1254506Y6859625D01*
X-1267104Y6856069D01*
X-1279093Y6850888D01*
X-1290269Y6844080D01*
X-1300429Y6835800D01*
X-1309370Y6826250D01*
X-1316888Y6815581D01*
X-1322984Y6803948D01*
X-1327302Y6791604D01*
X-1329944Y6778802D01*
X-1330858Y6765747D01*
X-1329944Y6752691D01*
X-1327302Y6739890D01*
X-1322984Y6727545D01*
X-1316888Y6715912D01*
X-1309370Y6705244D01*
X-1300429Y6695694D01*
X-1289659Y6686905D01*
X-1286865Y6683400D01*
X-1285849Y6679031D01*
X-1285849Y6342329D01*
X-1286814Y6338011D01*
X-1287881Y6335674D01*
X-1290421Y6326225D01*
X-1291285Y6316421D01*
X-1290421Y6306616D01*
X-1287881Y6297168D01*
X-1283766Y6288227D01*
X-1278128Y6280200D01*
X-1271168Y6273241D01*
X-1263142Y6267602D01*
X-1254201Y6263487D01*
X-1244752Y6260947D01*
G37*

%LPD*%
D10*
X863600Y114300D02*
G01*
X863600Y-2192578D01*
X55600Y-3000578D01*
D11*
X-1234973Y6765721D02*
G01*
X-1234973Y6316395D01*
X868400Y4213021D02*
G01*
X863600Y4208221D01*
X863600Y114300D01*
X868400Y6316395D02*
G01*
X868400Y4213021D01*
D10*
X-401599Y1495221D02*
G01*
X-401599Y98221D01*
X-2687599Y6511721D02*
G01*
X-2687599Y1495221D01*
X-834999Y6765721D02*
G01*
X-834999Y6511721D01*
X-363499Y-2819397D02*
G01*
X-363499Y-3238573D01*
X68300Y-16078D02*
G01*
X68300Y-2819478D01*
D12*
G01*
X-1234998Y6765721D03*
G01*
X-1034999Y6765721D03*
G01*
X-834999Y6765721D03*
D13*
G01*
X-635000Y6765721D03*
D14*
G01*
X55600Y-3000578D03*
G01*
X-566699Y-246176D03*
G01*
X-1315999Y-246176D03*
G01*
X-1315999Y515823D03*
G01*
X-566699Y515823D03*
G01*
X-249199Y287223D03*
G01*
X-401599Y98221D03*
G01*
X863600Y114300D03*
G01*
X-1234973Y6316395D03*
G01*
X868400Y6316395D03*
G01*
X-401599Y1495221D03*
G01*
X-2687599Y6511721D03*
G01*
X-2687599Y1495221D03*
G01*
X-834999Y6511721D03*
G01*
X-363499Y-3238576D03*
G01*
X68300Y-16078D03*
G01*
X-363499Y-2819400D03*
G01*
X68300Y-2819476D03*
M02*
