G04 Layer: BottomSolderMaskLayer*
G04 EasyEDA v6.5.29, 2023-07-16 15:11:24*
G04 2c12c0e84ba74d3092461a17c469f48c,5a6b42c53f6a479593ecc07194224c93,10*
G04 Gerber Generator version 0.2*
G04 Scale: 100 percent, Rotated: No, Reflected: No *
G04 Dimensions in millimeters *
G04 leading zeros omitted , absolute positions ,4 integer and 5 decimal *
%FSLAX45Y45*%
%MOMM*%

%ADD10O,6.6032126X3.4031936000000003*%

%LPD*%
D10*
G01*
X736600Y12573000D03*
G01*
X8382000Y12573000D03*
G01*
X736600Y330200D03*
G01*
X8382000Y330200D03*
G36*
X0Y12852400D02*
G01*
X9131300Y12852400D01*
X9131300Y12152401D01*
X0Y12152401D01*
G37*
G36*
X0Y699998D02*
G01*
X9131300Y699998D01*
X9131300Y0D01*
X0Y0D01*
G37*
G36*
X1816100Y11168379D02*
G01*
X2070100Y11168379D01*
X2070100Y11079479D01*
X1816100Y11079479D01*
G37*
G36*
X1320800Y11168379D02*
G01*
X1574800Y11168379D01*
X1574800Y11079479D01*
X1320800Y11079479D01*
G37*
G36*
X1816100Y8983979D02*
G01*
X2070100Y8983979D01*
X2070100Y8933179D01*
X1816100Y8933179D01*
G37*
G36*
X1816100Y8895079D02*
G01*
X2070100Y8895079D01*
X2070100Y8844279D01*
X1816100Y8844279D01*
G37*
G36*
X1816100Y8806179D02*
G01*
X2070100Y8806179D01*
X2070100Y8755379D01*
X1816100Y8755379D01*
G37*
G36*
X1816100Y8539479D02*
G01*
X2070100Y8539479D01*
X2070100Y8488679D01*
X1816100Y8488679D01*
G37*
G36*
X1816100Y8628379D02*
G01*
X2070100Y8628379D01*
X2070100Y8577579D01*
X1816100Y8577579D01*
G37*
G36*
X1816100Y8717279D02*
G01*
X2070100Y8717279D01*
X2070100Y8666479D01*
X1816100Y8666479D01*
G37*
G36*
X1816100Y8272779D02*
G01*
X2070100Y8272779D01*
X2070100Y8221979D01*
X1816100Y8221979D01*
G37*
G36*
X1816100Y8361679D02*
G01*
X2070100Y8361679D01*
X2070100Y8310879D01*
X1816100Y8310879D01*
G37*
G36*
X1816100Y8450579D02*
G01*
X2070100Y8450579D01*
X2070100Y8399779D01*
X1816100Y8399779D01*
G37*
G36*
X1816100Y8006079D02*
G01*
X2070100Y8006079D01*
X2070100Y7955279D01*
X1816100Y7955279D01*
G37*
G36*
X1816100Y8094979D02*
G01*
X2070100Y8094979D01*
X2070100Y8044179D01*
X1816100Y8044179D01*
G37*
G36*
X1816100Y8183879D02*
G01*
X2070100Y8183879D01*
X2070100Y8133079D01*
X1816100Y8133079D01*
G37*
G36*
X1816100Y7828279D02*
G01*
X2070100Y7828279D01*
X2070100Y7777479D01*
X1816100Y7777479D01*
G37*
G36*
X1816100Y7917179D02*
G01*
X2070100Y7917179D01*
X2070100Y7866379D01*
X1816100Y7866379D01*
G37*
G36*
X1816100Y9161779D02*
G01*
X2070100Y9161779D01*
X2070100Y9110979D01*
X1816100Y9110979D01*
G37*
G36*
X1816100Y9072879D02*
G01*
X2070100Y9072879D01*
X2070100Y9022079D01*
X1816100Y9022079D01*
G37*
G36*
X1816100Y9428479D02*
G01*
X2070100Y9428479D01*
X2070100Y9377679D01*
X1816100Y9377679D01*
G37*
G36*
X1816100Y9339579D02*
G01*
X2070100Y9339579D01*
X2070100Y9288779D01*
X1816100Y9288779D01*
G37*
G36*
X1816100Y9250679D02*
G01*
X2070100Y9250679D01*
X2070100Y9199879D01*
X1816100Y9199879D01*
G37*
G36*
X1816100Y9695179D02*
G01*
X2070100Y9695179D01*
X2070100Y9644379D01*
X1816100Y9644379D01*
G37*
G36*
X1816100Y9606279D02*
G01*
X2070100Y9606279D01*
X2070100Y9555479D01*
X1816100Y9555479D01*
G37*
G36*
X1816100Y9517379D02*
G01*
X2070100Y9517379D01*
X2070100Y9466579D01*
X1816100Y9466579D01*
G37*
G36*
X1816100Y9961879D02*
G01*
X2070100Y9961879D01*
X2070100Y9911079D01*
X1816100Y9911079D01*
G37*
G36*
X1816100Y9872979D02*
G01*
X2070100Y9872979D01*
X2070100Y9822179D01*
X1816100Y9822179D01*
G37*
G36*
X1816100Y9784079D02*
G01*
X2070100Y9784079D01*
X2070100Y9733279D01*
X1816100Y9733279D01*
G37*
G36*
X1816100Y10228579D02*
G01*
X2070100Y10228579D01*
X2070100Y10177779D01*
X1816100Y10177779D01*
G37*
G36*
X1816100Y10139679D02*
G01*
X2070100Y10139679D01*
X2070100Y10088879D01*
X1816100Y10088879D01*
G37*
G36*
X1816100Y10050779D02*
G01*
X2070100Y10050779D01*
X2070100Y9999979D01*
X1816100Y9999979D01*
G37*
G36*
X1816100Y10495279D02*
G01*
X2070100Y10495279D01*
X2070100Y10444479D01*
X1816100Y10444479D01*
G37*
G36*
X1816100Y10406379D02*
G01*
X2070100Y10406379D01*
X2070100Y10355579D01*
X1816100Y10355579D01*
G37*
G36*
X1816100Y10317479D02*
G01*
X2070100Y10317479D01*
X2070100Y10266679D01*
X1816100Y10266679D01*
G37*
G36*
X1816100Y10584179D02*
G01*
X2070100Y10584179D01*
X2070100Y10533379D01*
X1816100Y10533379D01*
G37*
G36*
X1816100Y10673079D02*
G01*
X2070100Y10673079D01*
X2070100Y10622279D01*
X1816100Y10622279D01*
G37*
G36*
X1816100Y10761979D02*
G01*
X2070100Y10761979D01*
X2070100Y10711179D01*
X1816100Y10711179D01*
G37*
G36*
X1320800Y10761979D02*
G01*
X1574800Y10761979D01*
X1574800Y10711179D01*
X1320800Y10711179D01*
G37*
G36*
X1320800Y10673079D02*
G01*
X1574800Y10673079D01*
X1574800Y10622279D01*
X1320800Y10622279D01*
G37*
G36*
X1320800Y10584179D02*
G01*
X1574800Y10584179D01*
X1574800Y10533379D01*
X1320800Y10533379D01*
G37*
G36*
X1320800Y10317479D02*
G01*
X1574800Y10317479D01*
X1574800Y10266679D01*
X1320800Y10266679D01*
G37*
G36*
X1320800Y10406379D02*
G01*
X1574800Y10406379D01*
X1574800Y10355579D01*
X1320800Y10355579D01*
G37*
G36*
X1320800Y10495279D02*
G01*
X1574800Y10495279D01*
X1574800Y10444479D01*
X1320800Y10444479D01*
G37*
G36*
X1320800Y10050779D02*
G01*
X1574800Y10050779D01*
X1574800Y9999979D01*
X1320800Y9999979D01*
G37*
G36*
X1320800Y10139679D02*
G01*
X1574800Y10139679D01*
X1574800Y10088879D01*
X1320800Y10088879D01*
G37*
G36*
X1320800Y10228579D02*
G01*
X1574800Y10228579D01*
X1574800Y10177779D01*
X1320800Y10177779D01*
G37*
G36*
X1320800Y9784079D02*
G01*
X1574800Y9784079D01*
X1574800Y9733279D01*
X1320800Y9733279D01*
G37*
G36*
X1320800Y9872979D02*
G01*
X1574800Y9872979D01*
X1574800Y9822179D01*
X1320800Y9822179D01*
G37*
G36*
X1320800Y9961879D02*
G01*
X1574800Y9961879D01*
X1574800Y9911079D01*
X1320800Y9911079D01*
G37*
G36*
X1320800Y9517379D02*
G01*
X1574800Y9517379D01*
X1574800Y9466579D01*
X1320800Y9466579D01*
G37*
G36*
X1320800Y9606279D02*
G01*
X1574800Y9606279D01*
X1574800Y9555479D01*
X1320800Y9555479D01*
G37*
G36*
X1320800Y9695179D02*
G01*
X1574800Y9695179D01*
X1574800Y9644379D01*
X1320800Y9644379D01*
G37*
G36*
X1320800Y9250679D02*
G01*
X1574800Y9250679D01*
X1574800Y9199879D01*
X1320800Y9199879D01*
G37*
G36*
X1320800Y9339579D02*
G01*
X1574800Y9339579D01*
X1574800Y9288779D01*
X1320800Y9288779D01*
G37*
G36*
X1320800Y9428479D02*
G01*
X1574800Y9428479D01*
X1574800Y9377679D01*
X1320800Y9377679D01*
G37*
G36*
X1320800Y9072879D02*
G01*
X1574800Y9072879D01*
X1574800Y9022079D01*
X1320800Y9022079D01*
G37*
G36*
X1320800Y9161779D02*
G01*
X1574800Y9161779D01*
X1574800Y9110979D01*
X1320800Y9110979D01*
G37*
G36*
X1320800Y7917179D02*
G01*
X1574800Y7917179D01*
X1574800Y7866379D01*
X1320800Y7866379D01*
G37*
G36*
X1320800Y7828279D02*
G01*
X1574800Y7828279D01*
X1574800Y7777479D01*
X1320800Y7777479D01*
G37*
G36*
X1320800Y8183879D02*
G01*
X1574800Y8183879D01*
X1574800Y8133079D01*
X1320800Y8133079D01*
G37*
G36*
X1320800Y8094979D02*
G01*
X1574800Y8094979D01*
X1574800Y8044179D01*
X1320800Y8044179D01*
G37*
G36*
X1320800Y8006079D02*
G01*
X1574800Y8006079D01*
X1574800Y7955279D01*
X1320800Y7955279D01*
G37*
G36*
X1320800Y8450579D02*
G01*
X1574800Y8450579D01*
X1574800Y8399779D01*
X1320800Y8399779D01*
G37*
G36*
X1320800Y8361679D02*
G01*
X1574800Y8361679D01*
X1574800Y8310879D01*
X1320800Y8310879D01*
G37*
G36*
X1320800Y8272779D02*
G01*
X1574800Y8272779D01*
X1574800Y8221979D01*
X1320800Y8221979D01*
G37*
G36*
X1320800Y8717279D02*
G01*
X1574800Y8717279D01*
X1574800Y8666479D01*
X1320800Y8666479D01*
G37*
G36*
X1320800Y8628379D02*
G01*
X1574800Y8628379D01*
X1574800Y8577579D01*
X1320800Y8577579D01*
G37*
G36*
X1320800Y8539479D02*
G01*
X1574800Y8539479D01*
X1574800Y8488679D01*
X1320800Y8488679D01*
G37*
G36*
X1320800Y8806179D02*
G01*
X1574800Y8806179D01*
X1574800Y8755379D01*
X1320800Y8755379D01*
G37*
G36*
X1320800Y8895079D02*
G01*
X1574800Y8895079D01*
X1574800Y8844279D01*
X1320800Y8844279D01*
G37*
G36*
X1320800Y8983979D02*
G01*
X1574800Y8983979D01*
X1574800Y8933179D01*
X1320800Y8933179D01*
G37*
G36*
X1320800Y5961379D02*
G01*
X1574800Y5961379D01*
X1574800Y5910579D01*
X1320800Y5910579D01*
G37*
G36*
X1320800Y5872479D02*
G01*
X1574800Y5872479D01*
X1574800Y5821679D01*
X1320800Y5821679D01*
G37*
G36*
X1320800Y5783579D02*
G01*
X1574800Y5783579D01*
X1574800Y5732779D01*
X1320800Y5732779D01*
G37*
G36*
X1320800Y5516879D02*
G01*
X1574800Y5516879D01*
X1574800Y5466079D01*
X1320800Y5466079D01*
G37*
G36*
X1320800Y5605779D02*
G01*
X1574800Y5605779D01*
X1574800Y5554979D01*
X1320800Y5554979D01*
G37*
G36*
X1320800Y5694679D02*
G01*
X1574800Y5694679D01*
X1574800Y5643879D01*
X1320800Y5643879D01*
G37*
G36*
X1320800Y5250179D02*
G01*
X1574800Y5250179D01*
X1574800Y5199379D01*
X1320800Y5199379D01*
G37*
G36*
X1320800Y5339079D02*
G01*
X1574800Y5339079D01*
X1574800Y5288279D01*
X1320800Y5288279D01*
G37*
G36*
X1320800Y5427979D02*
G01*
X1574800Y5427979D01*
X1574800Y5377179D01*
X1320800Y5377179D01*
G37*
G36*
X1320800Y4983479D02*
G01*
X1574800Y4983479D01*
X1574800Y4932679D01*
X1320800Y4932679D01*
G37*
G36*
X1320800Y5072379D02*
G01*
X1574800Y5072379D01*
X1574800Y5021579D01*
X1320800Y5021579D01*
G37*
G36*
X1320800Y5161279D02*
G01*
X1574800Y5161279D01*
X1574800Y5110479D01*
X1320800Y5110479D01*
G37*
G36*
X1320800Y4805679D02*
G01*
X1574800Y4805679D01*
X1574800Y4754879D01*
X1320800Y4754879D01*
G37*
G36*
X1320800Y4894579D02*
G01*
X1574800Y4894579D01*
X1574800Y4843779D01*
X1320800Y4843779D01*
G37*
G36*
X1320800Y6139179D02*
G01*
X1574800Y6139179D01*
X1574800Y6088379D01*
X1320800Y6088379D01*
G37*
G36*
X1320800Y6050279D02*
G01*
X1574800Y6050279D01*
X1574800Y5999479D01*
X1320800Y5999479D01*
G37*
G36*
X1320800Y6405879D02*
G01*
X1574800Y6405879D01*
X1574800Y6355079D01*
X1320800Y6355079D01*
G37*
G36*
X1320800Y6316979D02*
G01*
X1574800Y6316979D01*
X1574800Y6266179D01*
X1320800Y6266179D01*
G37*
G36*
X1320800Y6228079D02*
G01*
X1574800Y6228079D01*
X1574800Y6177279D01*
X1320800Y6177279D01*
G37*
G36*
X1320800Y6672579D02*
G01*
X1574800Y6672579D01*
X1574800Y6621779D01*
X1320800Y6621779D01*
G37*
G36*
X1320800Y6583679D02*
G01*
X1574800Y6583679D01*
X1574800Y6532879D01*
X1320800Y6532879D01*
G37*
G36*
X1320800Y6494779D02*
G01*
X1574800Y6494779D01*
X1574800Y6443979D01*
X1320800Y6443979D01*
G37*
G36*
X1320800Y6939279D02*
G01*
X1574800Y6939279D01*
X1574800Y6888479D01*
X1320800Y6888479D01*
G37*
G36*
X1320800Y6850379D02*
G01*
X1574800Y6850379D01*
X1574800Y6799579D01*
X1320800Y6799579D01*
G37*
G36*
X1320800Y6761479D02*
G01*
X1574800Y6761479D01*
X1574800Y6710679D01*
X1320800Y6710679D01*
G37*
G36*
X1320800Y7205979D02*
G01*
X1574800Y7205979D01*
X1574800Y7155179D01*
X1320800Y7155179D01*
G37*
G36*
X1320800Y7117079D02*
G01*
X1574800Y7117079D01*
X1574800Y7066279D01*
X1320800Y7066279D01*
G37*
G36*
X1320800Y7028179D02*
G01*
X1574800Y7028179D01*
X1574800Y6977379D01*
X1320800Y6977379D01*
G37*
G36*
X1320800Y7472679D02*
G01*
X1574800Y7472679D01*
X1574800Y7421879D01*
X1320800Y7421879D01*
G37*
G36*
X1320800Y7383779D02*
G01*
X1574800Y7383779D01*
X1574800Y7332979D01*
X1320800Y7332979D01*
G37*
G36*
X1320800Y7294879D02*
G01*
X1574800Y7294879D01*
X1574800Y7244079D01*
X1320800Y7244079D01*
G37*
G36*
X1320800Y7561579D02*
G01*
X1574800Y7561579D01*
X1574800Y7510779D01*
X1320800Y7510779D01*
G37*
G36*
X1320800Y7650479D02*
G01*
X1574800Y7650479D01*
X1574800Y7599679D01*
X1320800Y7599679D01*
G37*
G36*
X1320800Y7739379D02*
G01*
X1574800Y7739379D01*
X1574800Y7688579D01*
X1320800Y7688579D01*
G37*
G36*
X1816100Y7739379D02*
G01*
X2070100Y7739379D01*
X2070100Y7688579D01*
X1816100Y7688579D01*
G37*
G36*
X1816100Y7650479D02*
G01*
X2070100Y7650479D01*
X2070100Y7599679D01*
X1816100Y7599679D01*
G37*
G36*
X1816100Y7561579D02*
G01*
X2070100Y7561579D01*
X2070100Y7510779D01*
X1816100Y7510779D01*
G37*
G36*
X1816100Y7294879D02*
G01*
X2070100Y7294879D01*
X2070100Y7244079D01*
X1816100Y7244079D01*
G37*
G36*
X1816100Y7383779D02*
G01*
X2070100Y7383779D01*
X2070100Y7332979D01*
X1816100Y7332979D01*
G37*
G36*
X1816100Y7472679D02*
G01*
X2070100Y7472679D01*
X2070100Y7421879D01*
X1816100Y7421879D01*
G37*
G36*
X1816100Y7028179D02*
G01*
X2070100Y7028179D01*
X2070100Y6977379D01*
X1816100Y6977379D01*
G37*
G36*
X1816100Y7117079D02*
G01*
X2070100Y7117079D01*
X2070100Y7066279D01*
X1816100Y7066279D01*
G37*
G36*
X1816100Y7205979D02*
G01*
X2070100Y7205979D01*
X2070100Y7155179D01*
X1816100Y7155179D01*
G37*
G36*
X1816100Y6761479D02*
G01*
X2070100Y6761479D01*
X2070100Y6710679D01*
X1816100Y6710679D01*
G37*
G36*
X1816100Y6850379D02*
G01*
X2070100Y6850379D01*
X2070100Y6799579D01*
X1816100Y6799579D01*
G37*
G36*
X1816100Y6939279D02*
G01*
X2070100Y6939279D01*
X2070100Y6888479D01*
X1816100Y6888479D01*
G37*
G36*
X1816100Y6494779D02*
G01*
X2070100Y6494779D01*
X2070100Y6443979D01*
X1816100Y6443979D01*
G37*
G36*
X1816100Y6583679D02*
G01*
X2070100Y6583679D01*
X2070100Y6532879D01*
X1816100Y6532879D01*
G37*
G36*
X1816100Y6672579D02*
G01*
X2070100Y6672579D01*
X2070100Y6621779D01*
X1816100Y6621779D01*
G37*
G36*
X1816100Y6228079D02*
G01*
X2070100Y6228079D01*
X2070100Y6177279D01*
X1816100Y6177279D01*
G37*
G36*
X1816100Y6316979D02*
G01*
X2070100Y6316979D01*
X2070100Y6266179D01*
X1816100Y6266179D01*
G37*
G36*
X1816100Y6405879D02*
G01*
X2070100Y6405879D01*
X2070100Y6355079D01*
X1816100Y6355079D01*
G37*
G36*
X1816100Y6050279D02*
G01*
X2070100Y6050279D01*
X2070100Y5999479D01*
X1816100Y5999479D01*
G37*
G36*
X1816100Y6139179D02*
G01*
X2070100Y6139179D01*
X2070100Y6088379D01*
X1816100Y6088379D01*
G37*
G36*
X1816100Y4894579D02*
G01*
X2070100Y4894579D01*
X2070100Y4843779D01*
X1816100Y4843779D01*
G37*
G36*
X1816100Y4805679D02*
G01*
X2070100Y4805679D01*
X2070100Y4754879D01*
X1816100Y4754879D01*
G37*
G36*
X1816100Y5161279D02*
G01*
X2070100Y5161279D01*
X2070100Y5110479D01*
X1816100Y5110479D01*
G37*
G36*
X1816100Y5072379D02*
G01*
X2070100Y5072379D01*
X2070100Y5021579D01*
X1816100Y5021579D01*
G37*
G36*
X1816100Y4983479D02*
G01*
X2070100Y4983479D01*
X2070100Y4932679D01*
X1816100Y4932679D01*
G37*
G36*
X1816100Y5427979D02*
G01*
X2070100Y5427979D01*
X2070100Y5377179D01*
X1816100Y5377179D01*
G37*
G36*
X1816100Y5339079D02*
G01*
X2070100Y5339079D01*
X2070100Y5288279D01*
X1816100Y5288279D01*
G37*
G36*
X1816100Y5250179D02*
G01*
X2070100Y5250179D01*
X2070100Y5199379D01*
X1816100Y5199379D01*
G37*
G36*
X1816100Y5694679D02*
G01*
X2070100Y5694679D01*
X2070100Y5643879D01*
X1816100Y5643879D01*
G37*
G36*
X1816100Y5605779D02*
G01*
X2070100Y5605779D01*
X2070100Y5554979D01*
X1816100Y5554979D01*
G37*
G36*
X1816100Y5516879D02*
G01*
X2070100Y5516879D01*
X2070100Y5466079D01*
X1816100Y5466079D01*
G37*
G36*
X1816100Y5783579D02*
G01*
X2070100Y5783579D01*
X2070100Y5732779D01*
X1816100Y5732779D01*
G37*
G36*
X1816100Y5872479D02*
G01*
X2070100Y5872479D01*
X2070100Y5821679D01*
X1816100Y5821679D01*
G37*
G36*
X1816100Y5961379D02*
G01*
X2070100Y5961379D01*
X2070100Y5910579D01*
X1816100Y5910579D01*
G37*
G36*
X1320800Y3916679D02*
G01*
X1574800Y3916679D01*
X1574800Y3865879D01*
X1320800Y3865879D01*
G37*
G36*
X1320800Y4183379D02*
G01*
X1574800Y4183379D01*
X1574800Y4132579D01*
X1320800Y4132579D01*
G37*
G36*
X1320800Y4094479D02*
G01*
X1574800Y4094479D01*
X1574800Y4043679D01*
X1320800Y4043679D01*
G37*
G36*
X1320800Y4005579D02*
G01*
X1574800Y4005579D01*
X1574800Y3954779D01*
X1320800Y3954779D01*
G37*
G36*
X1320800Y4450079D02*
G01*
X1574800Y4450079D01*
X1574800Y4399279D01*
X1320800Y4399279D01*
G37*
G36*
X1320800Y4361179D02*
G01*
X1574800Y4361179D01*
X1574800Y4310379D01*
X1320800Y4310379D01*
G37*
G36*
X1320800Y4272279D02*
G01*
X1574800Y4272279D01*
X1574800Y4221479D01*
X1320800Y4221479D01*
G37*
G36*
X1320800Y4538979D02*
G01*
X1574800Y4538979D01*
X1574800Y4488179D01*
X1320800Y4488179D01*
G37*
G36*
X1320800Y4627879D02*
G01*
X1574800Y4627879D01*
X1574800Y4577079D01*
X1320800Y4577079D01*
G37*
G36*
X1320800Y4716779D02*
G01*
X1574800Y4716779D01*
X1574800Y4665979D01*
X1320800Y4665979D01*
G37*
G36*
X1816100Y4716779D02*
G01*
X2070100Y4716779D01*
X2070100Y4665979D01*
X1816100Y4665979D01*
G37*
G36*
X1816100Y4627879D02*
G01*
X2070100Y4627879D01*
X2070100Y4577079D01*
X1816100Y4577079D01*
G37*
G36*
X1816100Y4538979D02*
G01*
X2070100Y4538979D01*
X2070100Y4488179D01*
X1816100Y4488179D01*
G37*
G36*
X1816100Y4272279D02*
G01*
X2070100Y4272279D01*
X2070100Y4221479D01*
X1816100Y4221479D01*
G37*
G36*
X1816100Y4361179D02*
G01*
X2070100Y4361179D01*
X2070100Y4310379D01*
X1816100Y4310379D01*
G37*
G36*
X1816100Y4450079D02*
G01*
X2070100Y4450079D01*
X2070100Y4399279D01*
X1816100Y4399279D01*
G37*
G36*
X1816100Y4005579D02*
G01*
X2070100Y4005579D01*
X2070100Y3954779D01*
X1816100Y3954779D01*
G37*
G36*
X1816100Y4094479D02*
G01*
X2070100Y4094479D01*
X2070100Y4043679D01*
X1816100Y4043679D01*
G37*
G36*
X1816100Y4183379D02*
G01*
X2070100Y4183379D01*
X2070100Y4132579D01*
X1816100Y4132579D01*
G37*
G36*
X1816100Y3916679D02*
G01*
X2070100Y3916679D01*
X2070100Y3865879D01*
X1816100Y3865879D01*
G37*
G36*
X3733825Y3916679D02*
G01*
X3987825Y3916679D01*
X3987825Y3865879D01*
X3733825Y3865879D01*
G37*
G36*
X3733825Y4183379D02*
G01*
X3987825Y4183379D01*
X3987825Y4132579D01*
X3733825Y4132579D01*
G37*
G36*
X3733825Y4094479D02*
G01*
X3987825Y4094479D01*
X3987825Y4043679D01*
X3733825Y4043679D01*
G37*
G36*
X3733825Y4005579D02*
G01*
X3987825Y4005579D01*
X3987825Y3954779D01*
X3733825Y3954779D01*
G37*
G36*
X3733825Y4450079D02*
G01*
X3987825Y4450079D01*
X3987825Y4399279D01*
X3733825Y4399279D01*
G37*
G36*
X3733825Y4361179D02*
G01*
X3987825Y4361179D01*
X3987825Y4310379D01*
X3733825Y4310379D01*
G37*
G36*
X3733825Y4272279D02*
G01*
X3987825Y4272279D01*
X3987825Y4221479D01*
X3733825Y4221479D01*
G37*
G36*
X3733825Y4538979D02*
G01*
X3987825Y4538979D01*
X3987825Y4488179D01*
X3733825Y4488179D01*
G37*
G36*
X3733825Y4627879D02*
G01*
X3987825Y4627879D01*
X3987825Y4577079D01*
X3733825Y4577079D01*
G37*
G36*
X3733825Y4716779D02*
G01*
X3987825Y4716779D01*
X3987825Y4665979D01*
X3733825Y4665979D01*
G37*
G36*
X3238525Y4716779D02*
G01*
X3492525Y4716779D01*
X3492525Y4665979D01*
X3238525Y4665979D01*
G37*
G36*
X3238525Y4627879D02*
G01*
X3492525Y4627879D01*
X3492525Y4577079D01*
X3238525Y4577079D01*
G37*
G36*
X3238525Y4538979D02*
G01*
X3492525Y4538979D01*
X3492525Y4488179D01*
X3238525Y4488179D01*
G37*
G36*
X3238525Y4272279D02*
G01*
X3492525Y4272279D01*
X3492525Y4221479D01*
X3238525Y4221479D01*
G37*
G36*
X3238525Y4361179D02*
G01*
X3492525Y4361179D01*
X3492525Y4310379D01*
X3238525Y4310379D01*
G37*
G36*
X3238525Y4450079D02*
G01*
X3492525Y4450079D01*
X3492525Y4399279D01*
X3238525Y4399279D01*
G37*
G36*
X3238525Y4005579D02*
G01*
X3492525Y4005579D01*
X3492525Y3954779D01*
X3238525Y3954779D01*
G37*
G36*
X3238525Y4094479D02*
G01*
X3492525Y4094479D01*
X3492525Y4043679D01*
X3238525Y4043679D01*
G37*
G36*
X3238525Y4183379D02*
G01*
X3492525Y4183379D01*
X3492525Y4132579D01*
X3238525Y4132579D01*
G37*
G36*
X3238525Y3916679D02*
G01*
X3492525Y3916679D01*
X3492525Y3865879D01*
X3238525Y3865879D01*
G37*
G36*
X3733825Y5961379D02*
G01*
X3987825Y5961379D01*
X3987825Y5910579D01*
X3733825Y5910579D01*
G37*
G36*
X3733825Y5872479D02*
G01*
X3987825Y5872479D01*
X3987825Y5821679D01*
X3733825Y5821679D01*
G37*
G36*
X3733825Y5783579D02*
G01*
X3987825Y5783579D01*
X3987825Y5732779D01*
X3733825Y5732779D01*
G37*
G36*
X3733825Y5516879D02*
G01*
X3987825Y5516879D01*
X3987825Y5466079D01*
X3733825Y5466079D01*
G37*
G36*
X3733825Y5605779D02*
G01*
X3987825Y5605779D01*
X3987825Y5554979D01*
X3733825Y5554979D01*
G37*
G36*
X3733825Y5694679D02*
G01*
X3987825Y5694679D01*
X3987825Y5643879D01*
X3733825Y5643879D01*
G37*
G36*
X3733825Y5250179D02*
G01*
X3987825Y5250179D01*
X3987825Y5199379D01*
X3733825Y5199379D01*
G37*
G36*
X3733825Y5339079D02*
G01*
X3987825Y5339079D01*
X3987825Y5288279D01*
X3733825Y5288279D01*
G37*
G36*
X3733825Y5427979D02*
G01*
X3987825Y5427979D01*
X3987825Y5377179D01*
X3733825Y5377179D01*
G37*
G36*
X3733825Y4983479D02*
G01*
X3987825Y4983479D01*
X3987825Y4932679D01*
X3733825Y4932679D01*
G37*
G36*
X3733825Y5072379D02*
G01*
X3987825Y5072379D01*
X3987825Y5021579D01*
X3733825Y5021579D01*
G37*
G36*
X3733825Y5161279D02*
G01*
X3987825Y5161279D01*
X3987825Y5110479D01*
X3733825Y5110479D01*
G37*
G36*
X3733825Y4805679D02*
G01*
X3987825Y4805679D01*
X3987825Y4754879D01*
X3733825Y4754879D01*
G37*
G36*
X3733825Y4894579D02*
G01*
X3987825Y4894579D01*
X3987825Y4843779D01*
X3733825Y4843779D01*
G37*
G36*
X3733825Y6139179D02*
G01*
X3987825Y6139179D01*
X3987825Y6088379D01*
X3733825Y6088379D01*
G37*
G36*
X3733825Y6050279D02*
G01*
X3987825Y6050279D01*
X3987825Y5999479D01*
X3733825Y5999479D01*
G37*
G36*
X3733825Y6405879D02*
G01*
X3987825Y6405879D01*
X3987825Y6355079D01*
X3733825Y6355079D01*
G37*
G36*
X3733825Y6316979D02*
G01*
X3987825Y6316979D01*
X3987825Y6266179D01*
X3733825Y6266179D01*
G37*
G36*
X3733825Y6228079D02*
G01*
X3987825Y6228079D01*
X3987825Y6177279D01*
X3733825Y6177279D01*
G37*
G36*
X3733825Y6672579D02*
G01*
X3987825Y6672579D01*
X3987825Y6621779D01*
X3733825Y6621779D01*
G37*
G36*
X3733825Y6583679D02*
G01*
X3987825Y6583679D01*
X3987825Y6532879D01*
X3733825Y6532879D01*
G37*
G36*
X3733825Y6494779D02*
G01*
X3987825Y6494779D01*
X3987825Y6443979D01*
X3733825Y6443979D01*
G37*
G36*
X3733825Y6939279D02*
G01*
X3987825Y6939279D01*
X3987825Y6888479D01*
X3733825Y6888479D01*
G37*
G36*
X3733825Y6850379D02*
G01*
X3987825Y6850379D01*
X3987825Y6799579D01*
X3733825Y6799579D01*
G37*
G36*
X3733825Y6761479D02*
G01*
X3987825Y6761479D01*
X3987825Y6710679D01*
X3733825Y6710679D01*
G37*
G36*
X3733825Y7205979D02*
G01*
X3987825Y7205979D01*
X3987825Y7155179D01*
X3733825Y7155179D01*
G37*
G36*
X3733825Y7117079D02*
G01*
X3987825Y7117079D01*
X3987825Y7066279D01*
X3733825Y7066279D01*
G37*
G36*
X3733825Y7028179D02*
G01*
X3987825Y7028179D01*
X3987825Y6977379D01*
X3733825Y6977379D01*
G37*
G36*
X3733825Y7472679D02*
G01*
X3987825Y7472679D01*
X3987825Y7421879D01*
X3733825Y7421879D01*
G37*
G36*
X3733825Y7383779D02*
G01*
X3987825Y7383779D01*
X3987825Y7332979D01*
X3733825Y7332979D01*
G37*
G36*
X3733825Y7294879D02*
G01*
X3987825Y7294879D01*
X3987825Y7244079D01*
X3733825Y7244079D01*
G37*
G36*
X3733825Y7561579D02*
G01*
X3987825Y7561579D01*
X3987825Y7510779D01*
X3733825Y7510779D01*
G37*
G36*
X3733825Y7650479D02*
G01*
X3987825Y7650479D01*
X3987825Y7599679D01*
X3733825Y7599679D01*
G37*
G36*
X3733825Y7739379D02*
G01*
X3987825Y7739379D01*
X3987825Y7688579D01*
X3733825Y7688579D01*
G37*
G36*
X3238525Y7739379D02*
G01*
X3492525Y7739379D01*
X3492525Y7688579D01*
X3238525Y7688579D01*
G37*
G36*
X3238525Y7650479D02*
G01*
X3492525Y7650479D01*
X3492525Y7599679D01*
X3238525Y7599679D01*
G37*
G36*
X3238525Y7561579D02*
G01*
X3492525Y7561579D01*
X3492525Y7510779D01*
X3238525Y7510779D01*
G37*
G36*
X3238525Y7294879D02*
G01*
X3492525Y7294879D01*
X3492525Y7244079D01*
X3238525Y7244079D01*
G37*
G36*
X3238525Y7383779D02*
G01*
X3492525Y7383779D01*
X3492525Y7332979D01*
X3238525Y7332979D01*
G37*
G36*
X3238525Y7472679D02*
G01*
X3492525Y7472679D01*
X3492525Y7421879D01*
X3238525Y7421879D01*
G37*
G36*
X3238525Y7028179D02*
G01*
X3492525Y7028179D01*
X3492525Y6977379D01*
X3238525Y6977379D01*
G37*
G36*
X3238525Y7117079D02*
G01*
X3492525Y7117079D01*
X3492525Y7066279D01*
X3238525Y7066279D01*
G37*
G36*
X3238525Y7205979D02*
G01*
X3492525Y7205979D01*
X3492525Y7155179D01*
X3238525Y7155179D01*
G37*
G36*
X3238525Y6761479D02*
G01*
X3492525Y6761479D01*
X3492525Y6710679D01*
X3238525Y6710679D01*
G37*
G36*
X3238525Y6850379D02*
G01*
X3492525Y6850379D01*
X3492525Y6799579D01*
X3238525Y6799579D01*
G37*
G36*
X3238525Y6939279D02*
G01*
X3492525Y6939279D01*
X3492525Y6888479D01*
X3238525Y6888479D01*
G37*
G36*
X3238525Y6494779D02*
G01*
X3492525Y6494779D01*
X3492525Y6443979D01*
X3238525Y6443979D01*
G37*
G36*
X3238525Y6583679D02*
G01*
X3492525Y6583679D01*
X3492525Y6532879D01*
X3238525Y6532879D01*
G37*
G36*
X3238525Y6672579D02*
G01*
X3492525Y6672579D01*
X3492525Y6621779D01*
X3238525Y6621779D01*
G37*
G36*
X3238525Y6228079D02*
G01*
X3492525Y6228079D01*
X3492525Y6177279D01*
X3238525Y6177279D01*
G37*
G36*
X3238525Y6316979D02*
G01*
X3492525Y6316979D01*
X3492525Y6266179D01*
X3238525Y6266179D01*
G37*
G36*
X3238525Y6405879D02*
G01*
X3492525Y6405879D01*
X3492525Y6355079D01*
X3238525Y6355079D01*
G37*
G36*
X3238525Y6050279D02*
G01*
X3492525Y6050279D01*
X3492525Y5999479D01*
X3238525Y5999479D01*
G37*
G36*
X3238525Y6139179D02*
G01*
X3492525Y6139179D01*
X3492525Y6088379D01*
X3238525Y6088379D01*
G37*
G36*
X3238525Y4894579D02*
G01*
X3492525Y4894579D01*
X3492525Y4843779D01*
X3238525Y4843779D01*
G37*
G36*
X3238525Y4805679D02*
G01*
X3492525Y4805679D01*
X3492525Y4754879D01*
X3238525Y4754879D01*
G37*
G36*
X3238525Y5161279D02*
G01*
X3492525Y5161279D01*
X3492525Y5110479D01*
X3238525Y5110479D01*
G37*
G36*
X3238525Y5072379D02*
G01*
X3492525Y5072379D01*
X3492525Y5021579D01*
X3238525Y5021579D01*
G37*
G36*
X3238525Y4983479D02*
G01*
X3492525Y4983479D01*
X3492525Y4932679D01*
X3238525Y4932679D01*
G37*
G36*
X3238525Y5427979D02*
G01*
X3492525Y5427979D01*
X3492525Y5377179D01*
X3238525Y5377179D01*
G37*
G36*
X3238525Y5339079D02*
G01*
X3492525Y5339079D01*
X3492525Y5288279D01*
X3238525Y5288279D01*
G37*
G36*
X3238525Y5250179D02*
G01*
X3492525Y5250179D01*
X3492525Y5199379D01*
X3238525Y5199379D01*
G37*
G36*
X3238525Y5694679D02*
G01*
X3492525Y5694679D01*
X3492525Y5643879D01*
X3238525Y5643879D01*
G37*
G36*
X3238525Y5605779D02*
G01*
X3492525Y5605779D01*
X3492525Y5554979D01*
X3238525Y5554979D01*
G37*
G36*
X3238525Y5516879D02*
G01*
X3492525Y5516879D01*
X3492525Y5466079D01*
X3238525Y5466079D01*
G37*
G36*
X3238525Y5783579D02*
G01*
X3492525Y5783579D01*
X3492525Y5732779D01*
X3238525Y5732779D01*
G37*
G36*
X3238525Y5872479D02*
G01*
X3492525Y5872479D01*
X3492525Y5821679D01*
X3238525Y5821679D01*
G37*
G36*
X3238525Y5961379D02*
G01*
X3492525Y5961379D01*
X3492525Y5910579D01*
X3238525Y5910579D01*
G37*
G36*
X3238525Y8983979D02*
G01*
X3492525Y8983979D01*
X3492525Y8933179D01*
X3238525Y8933179D01*
G37*
G36*
X3238525Y8895079D02*
G01*
X3492525Y8895079D01*
X3492525Y8844279D01*
X3238525Y8844279D01*
G37*
G36*
X3238525Y8806179D02*
G01*
X3492525Y8806179D01*
X3492525Y8755379D01*
X3238525Y8755379D01*
G37*
G36*
X3238525Y8539479D02*
G01*
X3492525Y8539479D01*
X3492525Y8488679D01*
X3238525Y8488679D01*
G37*
G36*
X3238525Y8628379D02*
G01*
X3492525Y8628379D01*
X3492525Y8577579D01*
X3238525Y8577579D01*
G37*
G36*
X3238525Y8717279D02*
G01*
X3492525Y8717279D01*
X3492525Y8666479D01*
X3238525Y8666479D01*
G37*
G36*
X3238525Y8272779D02*
G01*
X3492525Y8272779D01*
X3492525Y8221979D01*
X3238525Y8221979D01*
G37*
G36*
X3238525Y8361679D02*
G01*
X3492525Y8361679D01*
X3492525Y8310879D01*
X3238525Y8310879D01*
G37*
G36*
X3238525Y8450579D02*
G01*
X3492525Y8450579D01*
X3492525Y8399779D01*
X3238525Y8399779D01*
G37*
G36*
X3238525Y8006079D02*
G01*
X3492525Y8006079D01*
X3492525Y7955279D01*
X3238525Y7955279D01*
G37*
G36*
X3238525Y8094979D02*
G01*
X3492525Y8094979D01*
X3492525Y8044179D01*
X3238525Y8044179D01*
G37*
G36*
X3238525Y8183879D02*
G01*
X3492525Y8183879D01*
X3492525Y8133079D01*
X3238525Y8133079D01*
G37*
G36*
X3238525Y7828279D02*
G01*
X3492525Y7828279D01*
X3492525Y7777479D01*
X3238525Y7777479D01*
G37*
G36*
X3238525Y7917179D02*
G01*
X3492525Y7917179D01*
X3492525Y7866379D01*
X3238525Y7866379D01*
G37*
G36*
X3238525Y9161779D02*
G01*
X3492525Y9161779D01*
X3492525Y9110979D01*
X3238525Y9110979D01*
G37*
G36*
X3238525Y9072879D02*
G01*
X3492525Y9072879D01*
X3492525Y9022079D01*
X3238525Y9022079D01*
G37*
G36*
X3238525Y9428479D02*
G01*
X3492525Y9428479D01*
X3492525Y9377679D01*
X3238525Y9377679D01*
G37*
G36*
X3238525Y9339579D02*
G01*
X3492525Y9339579D01*
X3492525Y9288779D01*
X3238525Y9288779D01*
G37*
G36*
X3238525Y9250679D02*
G01*
X3492525Y9250679D01*
X3492525Y9199879D01*
X3238525Y9199879D01*
G37*
G36*
X3238525Y9695179D02*
G01*
X3492525Y9695179D01*
X3492525Y9644379D01*
X3238525Y9644379D01*
G37*
G36*
X3238525Y9606279D02*
G01*
X3492525Y9606279D01*
X3492525Y9555479D01*
X3238525Y9555479D01*
G37*
G36*
X3238525Y9517379D02*
G01*
X3492525Y9517379D01*
X3492525Y9466579D01*
X3238525Y9466579D01*
G37*
G36*
X3238525Y9961879D02*
G01*
X3492525Y9961879D01*
X3492525Y9911079D01*
X3238525Y9911079D01*
G37*
G36*
X3238525Y9872979D02*
G01*
X3492525Y9872979D01*
X3492525Y9822179D01*
X3238525Y9822179D01*
G37*
G36*
X3238525Y9784079D02*
G01*
X3492525Y9784079D01*
X3492525Y9733279D01*
X3238525Y9733279D01*
G37*
G36*
X3238525Y10228579D02*
G01*
X3492525Y10228579D01*
X3492525Y10177779D01*
X3238525Y10177779D01*
G37*
G36*
X3238525Y10139679D02*
G01*
X3492525Y10139679D01*
X3492525Y10088879D01*
X3238525Y10088879D01*
G37*
G36*
X3238525Y10050779D02*
G01*
X3492525Y10050779D01*
X3492525Y9999979D01*
X3238525Y9999979D01*
G37*
G36*
X3238525Y10495279D02*
G01*
X3492525Y10495279D01*
X3492525Y10444479D01*
X3238525Y10444479D01*
G37*
G36*
X3238525Y10406379D02*
G01*
X3492525Y10406379D01*
X3492525Y10355579D01*
X3238525Y10355579D01*
G37*
G36*
X3238525Y10317479D02*
G01*
X3492525Y10317479D01*
X3492525Y10266679D01*
X3238525Y10266679D01*
G37*
G36*
X3238525Y10584179D02*
G01*
X3492525Y10584179D01*
X3492525Y10533379D01*
X3238525Y10533379D01*
G37*
G36*
X3238525Y10673079D02*
G01*
X3492525Y10673079D01*
X3492525Y10622279D01*
X3238525Y10622279D01*
G37*
G36*
X3238525Y10761979D02*
G01*
X3492525Y10761979D01*
X3492525Y10711179D01*
X3238525Y10711179D01*
G37*
G36*
X3733825Y10761979D02*
G01*
X3987825Y10761979D01*
X3987825Y10711179D01*
X3733825Y10711179D01*
G37*
G36*
X3733825Y10673079D02*
G01*
X3987825Y10673079D01*
X3987825Y10622279D01*
X3733825Y10622279D01*
G37*
G36*
X3733825Y10584179D02*
G01*
X3987825Y10584179D01*
X3987825Y10533379D01*
X3733825Y10533379D01*
G37*
G36*
X3733825Y10317479D02*
G01*
X3987825Y10317479D01*
X3987825Y10266679D01*
X3733825Y10266679D01*
G37*
G36*
X3733825Y10406379D02*
G01*
X3987825Y10406379D01*
X3987825Y10355579D01*
X3733825Y10355579D01*
G37*
G36*
X3733825Y10495279D02*
G01*
X3987825Y10495279D01*
X3987825Y10444479D01*
X3733825Y10444479D01*
G37*
G36*
X3733825Y10050779D02*
G01*
X3987825Y10050779D01*
X3987825Y9999979D01*
X3733825Y9999979D01*
G37*
G36*
X3733825Y10139679D02*
G01*
X3987825Y10139679D01*
X3987825Y10088879D01*
X3733825Y10088879D01*
G37*
G36*
X3733825Y10228579D02*
G01*
X3987825Y10228579D01*
X3987825Y10177779D01*
X3733825Y10177779D01*
G37*
G36*
X3733825Y9784079D02*
G01*
X3987825Y9784079D01*
X3987825Y9733279D01*
X3733825Y9733279D01*
G37*
G36*
X3733825Y9872979D02*
G01*
X3987825Y9872979D01*
X3987825Y9822179D01*
X3733825Y9822179D01*
G37*
G36*
X3733825Y9961879D02*
G01*
X3987825Y9961879D01*
X3987825Y9911079D01*
X3733825Y9911079D01*
G37*
G36*
X3733825Y9517379D02*
G01*
X3987825Y9517379D01*
X3987825Y9466579D01*
X3733825Y9466579D01*
G37*
G36*
X3733825Y9606279D02*
G01*
X3987825Y9606279D01*
X3987825Y9555479D01*
X3733825Y9555479D01*
G37*
G36*
X3733825Y9695179D02*
G01*
X3987825Y9695179D01*
X3987825Y9644379D01*
X3733825Y9644379D01*
G37*
G36*
X3733825Y9250679D02*
G01*
X3987825Y9250679D01*
X3987825Y9199879D01*
X3733825Y9199879D01*
G37*
G36*
X3733825Y9339579D02*
G01*
X3987825Y9339579D01*
X3987825Y9288779D01*
X3733825Y9288779D01*
G37*
G36*
X3733825Y9428479D02*
G01*
X3987825Y9428479D01*
X3987825Y9377679D01*
X3733825Y9377679D01*
G37*
G36*
X3733825Y9072879D02*
G01*
X3987825Y9072879D01*
X3987825Y9022079D01*
X3733825Y9022079D01*
G37*
G36*
X3733825Y9161779D02*
G01*
X3987825Y9161779D01*
X3987825Y9110979D01*
X3733825Y9110979D01*
G37*
G36*
X3733825Y7917179D02*
G01*
X3987825Y7917179D01*
X3987825Y7866379D01*
X3733825Y7866379D01*
G37*
G36*
X3733825Y7828279D02*
G01*
X3987825Y7828279D01*
X3987825Y7777479D01*
X3733825Y7777479D01*
G37*
G36*
X3733825Y8183879D02*
G01*
X3987825Y8183879D01*
X3987825Y8133079D01*
X3733825Y8133079D01*
G37*
G36*
X3733825Y8094979D02*
G01*
X3987825Y8094979D01*
X3987825Y8044179D01*
X3733825Y8044179D01*
G37*
G36*
X3733825Y8006079D02*
G01*
X3987825Y8006079D01*
X3987825Y7955279D01*
X3733825Y7955279D01*
G37*
G36*
X3733825Y8450579D02*
G01*
X3987825Y8450579D01*
X3987825Y8399779D01*
X3733825Y8399779D01*
G37*
G36*
X3733825Y8361679D02*
G01*
X3987825Y8361679D01*
X3987825Y8310879D01*
X3733825Y8310879D01*
G37*
G36*
X3733825Y8272779D02*
G01*
X3987825Y8272779D01*
X3987825Y8221979D01*
X3733825Y8221979D01*
G37*
G36*
X3733825Y8717279D02*
G01*
X3987825Y8717279D01*
X3987825Y8666479D01*
X3733825Y8666479D01*
G37*
G36*
X3733825Y8628379D02*
G01*
X3987825Y8628379D01*
X3987825Y8577579D01*
X3733825Y8577579D01*
G37*
G36*
X3733825Y8539479D02*
G01*
X3987825Y8539479D01*
X3987825Y8488679D01*
X3733825Y8488679D01*
G37*
G36*
X3733825Y8806179D02*
G01*
X3987825Y8806179D01*
X3987825Y8755379D01*
X3733825Y8755379D01*
G37*
G36*
X3733825Y8895079D02*
G01*
X3987825Y8895079D01*
X3987825Y8844279D01*
X3733825Y8844279D01*
G37*
G36*
X3733825Y8983979D02*
G01*
X3987825Y8983979D01*
X3987825Y8933179D01*
X3733825Y8933179D01*
G37*
G36*
X3238525Y11168379D02*
G01*
X3492525Y11168379D01*
X3492525Y11079479D01*
X3238525Y11079479D01*
G37*
G36*
X3733825Y11168379D02*
G01*
X3987825Y11168379D01*
X3987825Y11079479D01*
X3733825Y11079479D01*
G37*
G36*
X7556525Y3916679D02*
G01*
X7810525Y3916679D01*
X7810525Y3865879D01*
X7556525Y3865879D01*
G37*
G36*
X7556525Y4183379D02*
G01*
X7810525Y4183379D01*
X7810525Y4132579D01*
X7556525Y4132579D01*
G37*
G36*
X7556525Y4094479D02*
G01*
X7810525Y4094479D01*
X7810525Y4043679D01*
X7556525Y4043679D01*
G37*
G36*
X7556525Y4005579D02*
G01*
X7810525Y4005579D01*
X7810525Y3954779D01*
X7556525Y3954779D01*
G37*
G36*
X7556525Y4450079D02*
G01*
X7810525Y4450079D01*
X7810525Y4399279D01*
X7556525Y4399279D01*
G37*
G36*
X7556525Y4361179D02*
G01*
X7810525Y4361179D01*
X7810525Y4310379D01*
X7556525Y4310379D01*
G37*
G36*
X7556525Y4272279D02*
G01*
X7810525Y4272279D01*
X7810525Y4221479D01*
X7556525Y4221479D01*
G37*
G36*
X7556525Y4538979D02*
G01*
X7810525Y4538979D01*
X7810525Y4488179D01*
X7556525Y4488179D01*
G37*
G36*
X7556525Y4627879D02*
G01*
X7810525Y4627879D01*
X7810525Y4577079D01*
X7556525Y4577079D01*
G37*
G36*
X7556525Y4716779D02*
G01*
X7810525Y4716779D01*
X7810525Y4665979D01*
X7556525Y4665979D01*
G37*
G36*
X7061225Y4716779D02*
G01*
X7315225Y4716779D01*
X7315225Y4665979D01*
X7061225Y4665979D01*
G37*
G36*
X7061225Y4627879D02*
G01*
X7315225Y4627879D01*
X7315225Y4577079D01*
X7061225Y4577079D01*
G37*
G36*
X7061225Y4538979D02*
G01*
X7315225Y4538979D01*
X7315225Y4488179D01*
X7061225Y4488179D01*
G37*
G36*
X7061225Y4272279D02*
G01*
X7315225Y4272279D01*
X7315225Y4221479D01*
X7061225Y4221479D01*
G37*
G36*
X7061225Y4361179D02*
G01*
X7315225Y4361179D01*
X7315225Y4310379D01*
X7061225Y4310379D01*
G37*
G36*
X7061225Y4450079D02*
G01*
X7315225Y4450079D01*
X7315225Y4399279D01*
X7061225Y4399279D01*
G37*
G36*
X7061225Y4005579D02*
G01*
X7315225Y4005579D01*
X7315225Y3954779D01*
X7061225Y3954779D01*
G37*
G36*
X7061225Y4094479D02*
G01*
X7315225Y4094479D01*
X7315225Y4043679D01*
X7061225Y4043679D01*
G37*
G36*
X7061225Y4183379D02*
G01*
X7315225Y4183379D01*
X7315225Y4132579D01*
X7061225Y4132579D01*
G37*
G36*
X7061225Y3916679D02*
G01*
X7315225Y3916679D01*
X7315225Y3865879D01*
X7061225Y3865879D01*
G37*
G36*
X7556525Y5961379D02*
G01*
X7810525Y5961379D01*
X7810525Y5910579D01*
X7556525Y5910579D01*
G37*
G36*
X7556525Y5872479D02*
G01*
X7810525Y5872479D01*
X7810525Y5821679D01*
X7556525Y5821679D01*
G37*
G36*
X7556525Y5783579D02*
G01*
X7810525Y5783579D01*
X7810525Y5732779D01*
X7556525Y5732779D01*
G37*
G36*
X7556525Y5516879D02*
G01*
X7810525Y5516879D01*
X7810525Y5466079D01*
X7556525Y5466079D01*
G37*
G36*
X7556525Y5605779D02*
G01*
X7810525Y5605779D01*
X7810525Y5554979D01*
X7556525Y5554979D01*
G37*
G36*
X7556525Y5694679D02*
G01*
X7810525Y5694679D01*
X7810525Y5643879D01*
X7556525Y5643879D01*
G37*
G36*
X7556525Y5250179D02*
G01*
X7810525Y5250179D01*
X7810525Y5199379D01*
X7556525Y5199379D01*
G37*
G36*
X7556525Y5339079D02*
G01*
X7810525Y5339079D01*
X7810525Y5288279D01*
X7556525Y5288279D01*
G37*
G36*
X7556525Y5427979D02*
G01*
X7810525Y5427979D01*
X7810525Y5377179D01*
X7556525Y5377179D01*
G37*
G36*
X7556525Y4983479D02*
G01*
X7810525Y4983479D01*
X7810525Y4932679D01*
X7556525Y4932679D01*
G37*
G36*
X7556525Y5072379D02*
G01*
X7810525Y5072379D01*
X7810525Y5021579D01*
X7556525Y5021579D01*
G37*
G36*
X7556525Y5161279D02*
G01*
X7810525Y5161279D01*
X7810525Y5110479D01*
X7556525Y5110479D01*
G37*
G36*
X7556525Y4805679D02*
G01*
X7810525Y4805679D01*
X7810525Y4754879D01*
X7556525Y4754879D01*
G37*
G36*
X7556525Y4894579D02*
G01*
X7810525Y4894579D01*
X7810525Y4843779D01*
X7556525Y4843779D01*
G37*
G36*
X7556525Y6139179D02*
G01*
X7810525Y6139179D01*
X7810525Y6088379D01*
X7556525Y6088379D01*
G37*
G36*
X7556525Y6050279D02*
G01*
X7810525Y6050279D01*
X7810525Y5999479D01*
X7556525Y5999479D01*
G37*
G36*
X7556525Y6405879D02*
G01*
X7810525Y6405879D01*
X7810525Y6355079D01*
X7556525Y6355079D01*
G37*
G36*
X7556525Y6316979D02*
G01*
X7810525Y6316979D01*
X7810525Y6266179D01*
X7556525Y6266179D01*
G37*
G36*
X7556525Y6228079D02*
G01*
X7810525Y6228079D01*
X7810525Y6177279D01*
X7556525Y6177279D01*
G37*
G36*
X7556525Y6672579D02*
G01*
X7810525Y6672579D01*
X7810525Y6621779D01*
X7556525Y6621779D01*
G37*
G36*
X7556525Y6583679D02*
G01*
X7810525Y6583679D01*
X7810525Y6532879D01*
X7556525Y6532879D01*
G37*
G36*
X7556525Y6494779D02*
G01*
X7810525Y6494779D01*
X7810525Y6443979D01*
X7556525Y6443979D01*
G37*
G36*
X7556525Y6939279D02*
G01*
X7810525Y6939279D01*
X7810525Y6888479D01*
X7556525Y6888479D01*
G37*
G36*
X7556525Y6850379D02*
G01*
X7810525Y6850379D01*
X7810525Y6799579D01*
X7556525Y6799579D01*
G37*
G36*
X7556525Y6761479D02*
G01*
X7810525Y6761479D01*
X7810525Y6710679D01*
X7556525Y6710679D01*
G37*
G36*
X7556525Y7205979D02*
G01*
X7810525Y7205979D01*
X7810525Y7155179D01*
X7556525Y7155179D01*
G37*
G36*
X7556525Y7117079D02*
G01*
X7810525Y7117079D01*
X7810525Y7066279D01*
X7556525Y7066279D01*
G37*
G36*
X7556525Y7028179D02*
G01*
X7810525Y7028179D01*
X7810525Y6977379D01*
X7556525Y6977379D01*
G37*
G36*
X7556525Y7472679D02*
G01*
X7810525Y7472679D01*
X7810525Y7421879D01*
X7556525Y7421879D01*
G37*
G36*
X7556525Y7383779D02*
G01*
X7810525Y7383779D01*
X7810525Y7332979D01*
X7556525Y7332979D01*
G37*
G36*
X7556525Y7294879D02*
G01*
X7810525Y7294879D01*
X7810525Y7244079D01*
X7556525Y7244079D01*
G37*
G36*
X7556525Y7561579D02*
G01*
X7810525Y7561579D01*
X7810525Y7510779D01*
X7556525Y7510779D01*
G37*
G36*
X7556525Y7650479D02*
G01*
X7810525Y7650479D01*
X7810525Y7599679D01*
X7556525Y7599679D01*
G37*
G36*
X7556525Y7739379D02*
G01*
X7810525Y7739379D01*
X7810525Y7688579D01*
X7556525Y7688579D01*
G37*
G36*
X7061225Y7739379D02*
G01*
X7315225Y7739379D01*
X7315225Y7688579D01*
X7061225Y7688579D01*
G37*
G36*
X7061225Y7650479D02*
G01*
X7315225Y7650479D01*
X7315225Y7599679D01*
X7061225Y7599679D01*
G37*
G36*
X7061225Y7561579D02*
G01*
X7315225Y7561579D01*
X7315225Y7510779D01*
X7061225Y7510779D01*
G37*
G36*
X7061225Y7294879D02*
G01*
X7315225Y7294879D01*
X7315225Y7244079D01*
X7061225Y7244079D01*
G37*
G36*
X7061225Y7383779D02*
G01*
X7315225Y7383779D01*
X7315225Y7332979D01*
X7061225Y7332979D01*
G37*
G36*
X7061225Y7472679D02*
G01*
X7315225Y7472679D01*
X7315225Y7421879D01*
X7061225Y7421879D01*
G37*
G36*
X7061225Y7028179D02*
G01*
X7315225Y7028179D01*
X7315225Y6977379D01*
X7061225Y6977379D01*
G37*
G36*
X7061225Y7117079D02*
G01*
X7315225Y7117079D01*
X7315225Y7066279D01*
X7061225Y7066279D01*
G37*
G36*
X7061225Y7205979D02*
G01*
X7315225Y7205979D01*
X7315225Y7155179D01*
X7061225Y7155179D01*
G37*
G36*
X7061225Y6761479D02*
G01*
X7315225Y6761479D01*
X7315225Y6710679D01*
X7061225Y6710679D01*
G37*
G36*
X7061225Y6850379D02*
G01*
X7315225Y6850379D01*
X7315225Y6799579D01*
X7061225Y6799579D01*
G37*
G36*
X7061225Y6939279D02*
G01*
X7315225Y6939279D01*
X7315225Y6888479D01*
X7061225Y6888479D01*
G37*
G36*
X7061225Y6494779D02*
G01*
X7315225Y6494779D01*
X7315225Y6443979D01*
X7061225Y6443979D01*
G37*
G36*
X7061225Y6583679D02*
G01*
X7315225Y6583679D01*
X7315225Y6532879D01*
X7061225Y6532879D01*
G37*
G36*
X7061225Y6672579D02*
G01*
X7315225Y6672579D01*
X7315225Y6621779D01*
X7061225Y6621779D01*
G37*
G36*
X7061225Y6228079D02*
G01*
X7315225Y6228079D01*
X7315225Y6177279D01*
X7061225Y6177279D01*
G37*
G36*
X7061225Y6316979D02*
G01*
X7315225Y6316979D01*
X7315225Y6266179D01*
X7061225Y6266179D01*
G37*
G36*
X7061225Y6405879D02*
G01*
X7315225Y6405879D01*
X7315225Y6355079D01*
X7061225Y6355079D01*
G37*
G36*
X7061225Y6050279D02*
G01*
X7315225Y6050279D01*
X7315225Y5999479D01*
X7061225Y5999479D01*
G37*
G36*
X7061225Y6139179D02*
G01*
X7315225Y6139179D01*
X7315225Y6088379D01*
X7061225Y6088379D01*
G37*
G36*
X7061225Y4894579D02*
G01*
X7315225Y4894579D01*
X7315225Y4843779D01*
X7061225Y4843779D01*
G37*
G36*
X7061225Y4805679D02*
G01*
X7315225Y4805679D01*
X7315225Y4754879D01*
X7061225Y4754879D01*
G37*
G36*
X7061225Y5161279D02*
G01*
X7315225Y5161279D01*
X7315225Y5110479D01*
X7061225Y5110479D01*
G37*
G36*
X7061225Y5072379D02*
G01*
X7315225Y5072379D01*
X7315225Y5021579D01*
X7061225Y5021579D01*
G37*
G36*
X7061225Y4983479D02*
G01*
X7315225Y4983479D01*
X7315225Y4932679D01*
X7061225Y4932679D01*
G37*
G36*
X7061225Y5427979D02*
G01*
X7315225Y5427979D01*
X7315225Y5377179D01*
X7061225Y5377179D01*
G37*
G36*
X7061225Y5339079D02*
G01*
X7315225Y5339079D01*
X7315225Y5288279D01*
X7061225Y5288279D01*
G37*
G36*
X7061225Y5250179D02*
G01*
X7315225Y5250179D01*
X7315225Y5199379D01*
X7061225Y5199379D01*
G37*
G36*
X7061225Y5694679D02*
G01*
X7315225Y5694679D01*
X7315225Y5643879D01*
X7061225Y5643879D01*
G37*
G36*
X7061225Y5605779D02*
G01*
X7315225Y5605779D01*
X7315225Y5554979D01*
X7061225Y5554979D01*
G37*
G36*
X7061225Y5516879D02*
G01*
X7315225Y5516879D01*
X7315225Y5466079D01*
X7061225Y5466079D01*
G37*
G36*
X7061225Y5783579D02*
G01*
X7315225Y5783579D01*
X7315225Y5732779D01*
X7061225Y5732779D01*
G37*
G36*
X7061225Y5872479D02*
G01*
X7315225Y5872479D01*
X7315225Y5821679D01*
X7061225Y5821679D01*
G37*
G36*
X7061225Y5961379D02*
G01*
X7315225Y5961379D01*
X7315225Y5910579D01*
X7061225Y5910579D01*
G37*
G36*
X7061225Y8983979D02*
G01*
X7315225Y8983979D01*
X7315225Y8933179D01*
X7061225Y8933179D01*
G37*
G36*
X7061225Y8895079D02*
G01*
X7315225Y8895079D01*
X7315225Y8844279D01*
X7061225Y8844279D01*
G37*
G36*
X7061225Y8806179D02*
G01*
X7315225Y8806179D01*
X7315225Y8755379D01*
X7061225Y8755379D01*
G37*
G36*
X7061225Y8539479D02*
G01*
X7315225Y8539479D01*
X7315225Y8488679D01*
X7061225Y8488679D01*
G37*
G36*
X7061225Y8628379D02*
G01*
X7315225Y8628379D01*
X7315225Y8577579D01*
X7061225Y8577579D01*
G37*
G36*
X7061225Y8717279D02*
G01*
X7315225Y8717279D01*
X7315225Y8666479D01*
X7061225Y8666479D01*
G37*
G36*
X7061225Y8272779D02*
G01*
X7315225Y8272779D01*
X7315225Y8221979D01*
X7061225Y8221979D01*
G37*
G36*
X7061225Y8361679D02*
G01*
X7315225Y8361679D01*
X7315225Y8310879D01*
X7061225Y8310879D01*
G37*
G36*
X7061225Y8450579D02*
G01*
X7315225Y8450579D01*
X7315225Y8399779D01*
X7061225Y8399779D01*
G37*
G36*
X7061225Y8006079D02*
G01*
X7315225Y8006079D01*
X7315225Y7955279D01*
X7061225Y7955279D01*
G37*
G36*
X7061225Y8094979D02*
G01*
X7315225Y8094979D01*
X7315225Y8044179D01*
X7061225Y8044179D01*
G37*
G36*
X7061225Y8183879D02*
G01*
X7315225Y8183879D01*
X7315225Y8133079D01*
X7061225Y8133079D01*
G37*
G36*
X7061225Y7828279D02*
G01*
X7315225Y7828279D01*
X7315225Y7777479D01*
X7061225Y7777479D01*
G37*
G36*
X7061225Y7917179D02*
G01*
X7315225Y7917179D01*
X7315225Y7866379D01*
X7061225Y7866379D01*
G37*
G36*
X7061225Y9161779D02*
G01*
X7315225Y9161779D01*
X7315225Y9110979D01*
X7061225Y9110979D01*
G37*
G36*
X7061225Y9072879D02*
G01*
X7315225Y9072879D01*
X7315225Y9022079D01*
X7061225Y9022079D01*
G37*
G36*
X7061225Y9428479D02*
G01*
X7315225Y9428479D01*
X7315225Y9377679D01*
X7061225Y9377679D01*
G37*
G36*
X7061225Y9339579D02*
G01*
X7315225Y9339579D01*
X7315225Y9288779D01*
X7061225Y9288779D01*
G37*
G36*
X7061225Y9250679D02*
G01*
X7315225Y9250679D01*
X7315225Y9199879D01*
X7061225Y9199879D01*
G37*
G36*
X7061225Y9695179D02*
G01*
X7315225Y9695179D01*
X7315225Y9644379D01*
X7061225Y9644379D01*
G37*
G36*
X7061225Y9606279D02*
G01*
X7315225Y9606279D01*
X7315225Y9555479D01*
X7061225Y9555479D01*
G37*
G36*
X7061225Y9517379D02*
G01*
X7315225Y9517379D01*
X7315225Y9466579D01*
X7061225Y9466579D01*
G37*
G36*
X7061225Y9961879D02*
G01*
X7315225Y9961879D01*
X7315225Y9911079D01*
X7061225Y9911079D01*
G37*
G36*
X7061225Y9872979D02*
G01*
X7315225Y9872979D01*
X7315225Y9822179D01*
X7061225Y9822179D01*
G37*
G36*
X7061225Y9784079D02*
G01*
X7315225Y9784079D01*
X7315225Y9733279D01*
X7061225Y9733279D01*
G37*
G36*
X7061225Y10228579D02*
G01*
X7315225Y10228579D01*
X7315225Y10177779D01*
X7061225Y10177779D01*
G37*
G36*
X7061225Y10139679D02*
G01*
X7315225Y10139679D01*
X7315225Y10088879D01*
X7061225Y10088879D01*
G37*
G36*
X7061225Y10050779D02*
G01*
X7315225Y10050779D01*
X7315225Y9999979D01*
X7061225Y9999979D01*
G37*
G36*
X7061225Y10495279D02*
G01*
X7315225Y10495279D01*
X7315225Y10444479D01*
X7061225Y10444479D01*
G37*
G36*
X7061225Y10406379D02*
G01*
X7315225Y10406379D01*
X7315225Y10355579D01*
X7061225Y10355579D01*
G37*
G36*
X7061225Y10317479D02*
G01*
X7315225Y10317479D01*
X7315225Y10266679D01*
X7061225Y10266679D01*
G37*
G36*
X7061225Y10584179D02*
G01*
X7315225Y10584179D01*
X7315225Y10533379D01*
X7061225Y10533379D01*
G37*
G36*
X7061225Y10673079D02*
G01*
X7315225Y10673079D01*
X7315225Y10622279D01*
X7061225Y10622279D01*
G37*
G36*
X7061225Y10761979D02*
G01*
X7315225Y10761979D01*
X7315225Y10711179D01*
X7061225Y10711179D01*
G37*
G36*
X7556525Y10761979D02*
G01*
X7810525Y10761979D01*
X7810525Y10711179D01*
X7556525Y10711179D01*
G37*
G36*
X7556525Y10673079D02*
G01*
X7810525Y10673079D01*
X7810525Y10622279D01*
X7556525Y10622279D01*
G37*
G36*
X7556525Y10584179D02*
G01*
X7810525Y10584179D01*
X7810525Y10533379D01*
X7556525Y10533379D01*
G37*
G36*
X7556525Y10317479D02*
G01*
X7810525Y10317479D01*
X7810525Y10266679D01*
X7556525Y10266679D01*
G37*
G36*
X7556525Y10406379D02*
G01*
X7810525Y10406379D01*
X7810525Y10355579D01*
X7556525Y10355579D01*
G37*
G36*
X7556525Y10495279D02*
G01*
X7810525Y10495279D01*
X7810525Y10444479D01*
X7556525Y10444479D01*
G37*
G36*
X7556525Y10050779D02*
G01*
X7810525Y10050779D01*
X7810525Y9999979D01*
X7556525Y9999979D01*
G37*
G36*
X7556525Y10139679D02*
G01*
X7810525Y10139679D01*
X7810525Y10088879D01*
X7556525Y10088879D01*
G37*
G36*
X7556525Y10228579D02*
G01*
X7810525Y10228579D01*
X7810525Y10177779D01*
X7556525Y10177779D01*
G37*
G36*
X7556525Y9784079D02*
G01*
X7810525Y9784079D01*
X7810525Y9733279D01*
X7556525Y9733279D01*
G37*
G36*
X7556525Y9872979D02*
G01*
X7810525Y9872979D01*
X7810525Y9822179D01*
X7556525Y9822179D01*
G37*
G36*
X7556525Y9961879D02*
G01*
X7810525Y9961879D01*
X7810525Y9911079D01*
X7556525Y9911079D01*
G37*
G36*
X7556525Y9517379D02*
G01*
X7810525Y9517379D01*
X7810525Y9466579D01*
X7556525Y9466579D01*
G37*
G36*
X7556525Y9606279D02*
G01*
X7810525Y9606279D01*
X7810525Y9555479D01*
X7556525Y9555479D01*
G37*
G36*
X7556525Y9695179D02*
G01*
X7810525Y9695179D01*
X7810525Y9644379D01*
X7556525Y9644379D01*
G37*
G36*
X7556525Y9250679D02*
G01*
X7810525Y9250679D01*
X7810525Y9199879D01*
X7556525Y9199879D01*
G37*
G36*
X7556525Y9339579D02*
G01*
X7810525Y9339579D01*
X7810525Y9288779D01*
X7556525Y9288779D01*
G37*
G36*
X7556525Y9428479D02*
G01*
X7810525Y9428479D01*
X7810525Y9377679D01*
X7556525Y9377679D01*
G37*
G36*
X7556525Y9072879D02*
G01*
X7810525Y9072879D01*
X7810525Y9022079D01*
X7556525Y9022079D01*
G37*
G36*
X7556525Y9161779D02*
G01*
X7810525Y9161779D01*
X7810525Y9110979D01*
X7556525Y9110979D01*
G37*
G36*
X7556525Y7917179D02*
G01*
X7810525Y7917179D01*
X7810525Y7866379D01*
X7556525Y7866379D01*
G37*
G36*
X7556525Y7828279D02*
G01*
X7810525Y7828279D01*
X7810525Y7777479D01*
X7556525Y7777479D01*
G37*
G36*
X7556525Y8183879D02*
G01*
X7810525Y8183879D01*
X7810525Y8133079D01*
X7556525Y8133079D01*
G37*
G36*
X7556525Y8094979D02*
G01*
X7810525Y8094979D01*
X7810525Y8044179D01*
X7556525Y8044179D01*
G37*
G36*
X7556525Y8006079D02*
G01*
X7810525Y8006079D01*
X7810525Y7955279D01*
X7556525Y7955279D01*
G37*
G36*
X7556525Y8450579D02*
G01*
X7810525Y8450579D01*
X7810525Y8399779D01*
X7556525Y8399779D01*
G37*
G36*
X7556525Y8361679D02*
G01*
X7810525Y8361679D01*
X7810525Y8310879D01*
X7556525Y8310879D01*
G37*
G36*
X7556525Y8272779D02*
G01*
X7810525Y8272779D01*
X7810525Y8221979D01*
X7556525Y8221979D01*
G37*
G36*
X7556525Y8717279D02*
G01*
X7810525Y8717279D01*
X7810525Y8666479D01*
X7556525Y8666479D01*
G37*
G36*
X7556525Y8628379D02*
G01*
X7810525Y8628379D01*
X7810525Y8577579D01*
X7556525Y8577579D01*
G37*
G36*
X7556525Y8539479D02*
G01*
X7810525Y8539479D01*
X7810525Y8488679D01*
X7556525Y8488679D01*
G37*
G36*
X7556525Y8806179D02*
G01*
X7810525Y8806179D01*
X7810525Y8755379D01*
X7556525Y8755379D01*
G37*
G36*
X7556525Y8895079D02*
G01*
X7810525Y8895079D01*
X7810525Y8844279D01*
X7556525Y8844279D01*
G37*
G36*
X7556525Y8983979D02*
G01*
X7810525Y8983979D01*
X7810525Y8933179D01*
X7556525Y8933179D01*
G37*
G36*
X7061225Y11168379D02*
G01*
X7315225Y11168379D01*
X7315225Y11079479D01*
X7061225Y11079479D01*
G37*
G36*
X7556525Y11168379D02*
G01*
X7810525Y11168379D01*
X7810525Y11079479D01*
X7556525Y11079479D01*
G37*
M02*
