M48
METRIC,LZ,000.000
;FILE_FORMAT=3:3
;TYPE=PLATED
;Layer: PTH_Through
;EasyEDA v6.5.29, 2023-07-18 10:00:19
;65aec9abdb6f4e73b05af1f89c23e90b,5a6b42c53f6a479593ecc07194224c93,10
;Gerber Generator version 0.2
;Holesize 1 = 0.305 mm
T01C0.305
;Holesize 2 = 1.000 mm
T02C1.000
;Holesize 3 = 1.101 mm
T03C1.101
;Holesize 4 = 1.200 mm
T04C1.200
;Holesize 5 = 2.701 mm
T05C2.701
%
G05
G90
T01
X060071Y036449
X027518Y058674
X019431Y091694
X020066Y089154
X014351Y086614
X033528Y078994
X039243Y081534
X038628Y084074
X053213Y073914
X052578Y071374
X044323Y038608
X071755Y038608
X044323Y063754
X044958Y039243
X076835Y039243
X044958Y066294
X045593Y039878
X075057Y039878
X045593Y068834
X041656Y096774
X042291Y094234
X042303Y014859
X060071Y042926
X084709Y042926
X085344Y044450
X041021Y076454
X041021Y042926
X045593Y111379
X075057Y111379
X044958Y112014
X076835Y112014
X044323Y112649
X071755Y112649
X043688Y107061
X041656Y034036
X043688Y099314
X046568Y056134
X051943Y046000
X051943Y053594
X065618Y044450
X008468Y027051
X008468Y044450
X008468Y025019
X008468Y061214
X011430Y044450
X030480Y044450
X011430Y027051
X011430Y025019
X030480Y025019
X030480Y027051
X049530Y027051
X049530Y025019
X068580Y025019
X068580Y027051
X049530Y044450
X046568Y044450
X027518Y044450
X027518Y025019
X027518Y027051
X046568Y027051
X046568Y025019
X065618Y027051
X065618Y025019
T02
X048768Y099314
X048768Y051054
X048768Y053594
X048768Y056134
X048768Y058674
X048768Y061214
X048768Y063754
X048768Y066294
X048768Y068834
X048768Y071374
X048768Y073914
X048768Y076454
X048768Y078994
X048768Y081534
X048768Y084074
X048768Y086614
X048768Y089154
X048768Y091694
X048768Y094234
X048768Y096774
T03
X019431Y034036
X019431Y036576
X014351Y034036
X014351Y036576
X033548Y036576
X033548Y034036
X038628Y036576
X038628Y034036
X052578Y036576
X052578Y034036
X057658Y036576
X057658Y034036
X071755Y036576
X071755Y034036
X076835Y036576
X076835Y034036
X014351Y017399
X014351Y014859
X019431Y017399
X019431Y014859
X033528Y017399
X033528Y014859
X038608Y017399
X038608Y014859
X052578Y017399
X052578Y014859
X057658Y017399
X057658Y014859
X071755Y017399
X071755Y014859
X076835Y017399
X076835Y014859
X014351Y109601
X014351Y107061
X019431Y109601
X019431Y107061
X033528Y109601
X033528Y107061
X038608Y109601
X038608Y107061
X052578Y109601
X052578Y107061
X057658Y109601
X057658Y107061
X071755Y109601
X071755Y107061
X076835Y109601
X076835Y107061
T04
X011791Y030226
X021971Y030226
X016871Y030226
X036068Y030226
X041168Y030226
X030988Y030226
X055098Y030226
X060198Y030226
X050018Y030226
X074275Y030226
X079375Y030226
X069195Y030226
X016871Y011049
X021971Y011049
X011791Y011049
X036048Y011049
X041148Y011049
X030968Y011049
X055098Y011049
X060198Y011049
X050018Y011049
X074275Y011049
X079375Y011049
X069195Y011049
X016871Y103251
X021971Y103251
X011791Y103251
X036048Y103251
X041148Y103251
X030968Y103251
X055098Y103251
X060198Y103251
X050018Y103251
X074275Y103251
X079375Y103251
X069195Y103251
T05
X004699Y025400
X086868Y025400
X004699Y108585
X086868Y108585
X003861Y047820
X081661Y047820
X003861Y096520
X081661Y096520
M30
