G04 Layer: TopSilkscreenLayer*
G04 EasyEDA v6.5.29, 2023-07-18 10:00:19*
G04 65aec9abdb6f4e73b05af1f89c23e90b,5a6b42c53f6a479593ecc07194224c93,10*
G04 Gerber Generator version 0.2*
G04 Scale: 100 percent, Rotated: No, Reflected: No *
G04 Dimensions in millimeters *
G04 leading zeros omitted , absolute positions ,4 integer and 5 decimal *
%FSLAX45Y45*%
%MOMM*%

%ADD10C,0.1524*%
%ADD11C,0.2540*%

%LPD*%
D10*
X2603754Y10247376D02*
G01*
X2594609Y10256265D01*
X2580893Y10260837D01*
X2562606Y10260837D01*
X2549143Y10256265D01*
X2540000Y10247376D01*
X2540000Y10238231D01*
X2544572Y10229087D01*
X2549143Y10224515D01*
X2558288Y10219944D01*
X2585465Y10210800D01*
X2594609Y10206481D01*
X2599181Y10201910D01*
X2603754Y10192765D01*
X2603754Y10179050D01*
X2594609Y10169905D01*
X2580893Y10165334D01*
X2562606Y10165334D01*
X2549143Y10169905D01*
X2540000Y10179050D01*
X2633725Y10242804D02*
G01*
X2642615Y10247376D01*
X2656331Y10260837D01*
X2656331Y10165334D01*
X4508754Y10247376D02*
G01*
X4499609Y10256265D01*
X4485893Y10260837D01*
X4467606Y10260837D01*
X4454143Y10256265D01*
X4445000Y10247376D01*
X4445000Y10238231D01*
X4449572Y10229087D01*
X4454143Y10224515D01*
X4463288Y10219944D01*
X4490465Y10210800D01*
X4499609Y10206481D01*
X4504181Y10201910D01*
X4508754Y10192765D01*
X4508754Y10179050D01*
X4499609Y10169905D01*
X4485893Y10165334D01*
X4467606Y10165334D01*
X4454143Y10169905D01*
X4445000Y10179050D01*
X4543297Y10238231D02*
G01*
X4543297Y10242804D01*
X4547615Y10251694D01*
X4552188Y10256265D01*
X4561331Y10260837D01*
X4579620Y10260837D01*
X4588509Y10256265D01*
X4593081Y10251694D01*
X4597654Y10242804D01*
X4597654Y10233660D01*
X4593081Y10224515D01*
X4584191Y10210800D01*
X4538725Y10165334D01*
X4602225Y10165334D01*
X6413754Y10247376D02*
G01*
X6404609Y10256265D01*
X6390893Y10260837D01*
X6372606Y10260837D01*
X6359143Y10256265D01*
X6350000Y10247376D01*
X6350000Y10238231D01*
X6354572Y10229087D01*
X6359143Y10224515D01*
X6368288Y10219944D01*
X6395465Y10210800D01*
X6404609Y10206481D01*
X6409181Y10201910D01*
X6413754Y10192765D01*
X6413754Y10179050D01*
X6404609Y10169905D01*
X6390893Y10165334D01*
X6372606Y10165334D01*
X6359143Y10169905D01*
X6350000Y10179050D01*
X6452615Y10260837D02*
G01*
X6502654Y10260837D01*
X6475475Y10224515D01*
X6489191Y10224515D01*
X6498081Y10219944D01*
X6502654Y10215371D01*
X6507225Y10201910D01*
X6507225Y10192765D01*
X6502654Y10179050D01*
X6493509Y10169905D01*
X6480047Y10165334D01*
X6466331Y10165334D01*
X6452615Y10169905D01*
X6448297Y10174478D01*
X6443725Y10183621D01*
X8318754Y10247376D02*
G01*
X8309609Y10256265D01*
X8295893Y10260837D01*
X8277606Y10260837D01*
X8264143Y10256265D01*
X8255000Y10247376D01*
X8255000Y10238231D01*
X8259572Y10229087D01*
X8264143Y10224515D01*
X8273288Y10219944D01*
X8300465Y10210800D01*
X8309609Y10206481D01*
X8314181Y10201910D01*
X8318754Y10192765D01*
X8318754Y10179050D01*
X8309609Y10169905D01*
X8295893Y10165334D01*
X8277606Y10165334D01*
X8264143Y10169905D01*
X8255000Y10179050D01*
X8394191Y10260837D02*
G01*
X8348725Y10197337D01*
X8416797Y10197337D01*
X8394191Y10260837D02*
G01*
X8394191Y10165334D01*
X2603754Y2944876D02*
G01*
X2594609Y2953765D01*
X2580893Y2958337D01*
X2562606Y2958337D01*
X2549143Y2953765D01*
X2540000Y2944876D01*
X2540000Y2935731D01*
X2544572Y2926587D01*
X2549143Y2922015D01*
X2558288Y2917444D01*
X2585465Y2908300D01*
X2594609Y2903981D01*
X2599181Y2899410D01*
X2603754Y2890265D01*
X2603754Y2876550D01*
X2594609Y2867405D01*
X2580893Y2862834D01*
X2562606Y2862834D01*
X2549143Y2867405D01*
X2540000Y2876550D01*
X2688081Y2958337D02*
G01*
X2642615Y2958337D01*
X2638297Y2917444D01*
X2642615Y2922015D01*
X2656331Y2926587D01*
X2670047Y2926587D01*
X2683509Y2922015D01*
X2692654Y2912871D01*
X2697225Y2899410D01*
X2697225Y2890265D01*
X2692654Y2876550D01*
X2683509Y2867405D01*
X2670047Y2862834D01*
X2656331Y2862834D01*
X2642615Y2867405D01*
X2638297Y2871978D01*
X2633725Y2881121D01*
X4508754Y2944876D02*
G01*
X4499609Y2953765D01*
X4485893Y2958337D01*
X4467606Y2958337D01*
X4454143Y2953765D01*
X4445000Y2944876D01*
X4445000Y2935731D01*
X4449572Y2926587D01*
X4454143Y2922015D01*
X4463288Y2917444D01*
X4490465Y2908300D01*
X4499609Y2903981D01*
X4504181Y2899410D01*
X4508754Y2890265D01*
X4508754Y2876550D01*
X4499609Y2867405D01*
X4485893Y2862834D01*
X4467606Y2862834D01*
X4454143Y2867405D01*
X4445000Y2876550D01*
X4593081Y2944876D02*
G01*
X4588509Y2953765D01*
X4575047Y2958337D01*
X4565904Y2958337D01*
X4552188Y2953765D01*
X4543297Y2940304D01*
X4538725Y2917444D01*
X4538725Y2894837D01*
X4543297Y2876550D01*
X4552188Y2867405D01*
X4565904Y2862834D01*
X4570475Y2862834D01*
X4584191Y2867405D01*
X4593081Y2876550D01*
X4597654Y2890265D01*
X4597654Y2894837D01*
X4593081Y2908300D01*
X4584191Y2917444D01*
X4570475Y2922015D01*
X4565904Y2922015D01*
X4552188Y2917444D01*
X4543297Y2908300D01*
X4538725Y2894837D01*
X6413754Y2944876D02*
G01*
X6404609Y2953765D01*
X6390893Y2958337D01*
X6372606Y2958337D01*
X6359143Y2953765D01*
X6350000Y2944876D01*
X6350000Y2935731D01*
X6354572Y2926587D01*
X6359143Y2922015D01*
X6368288Y2917444D01*
X6395465Y2908300D01*
X6404609Y2903981D01*
X6409181Y2899410D01*
X6413754Y2890265D01*
X6413754Y2876550D01*
X6404609Y2867405D01*
X6390893Y2862834D01*
X6372606Y2862834D01*
X6359143Y2867405D01*
X6350000Y2876550D01*
X6507225Y2958337D02*
G01*
X6461759Y2862834D01*
X6443725Y2958337D02*
G01*
X6507225Y2958337D01*
X8318754Y2944876D02*
G01*
X8309609Y2953765D01*
X8295893Y2958337D01*
X8277606Y2958337D01*
X8264143Y2953765D01*
X8255000Y2944876D01*
X8255000Y2935731D01*
X8259572Y2926587D01*
X8264143Y2922015D01*
X8273288Y2917444D01*
X8300465Y2908300D01*
X8309609Y2903981D01*
X8314181Y2899410D01*
X8318754Y2890265D01*
X8318754Y2876550D01*
X8309609Y2867405D01*
X8295893Y2862834D01*
X8277606Y2862834D01*
X8264143Y2867405D01*
X8255000Y2876550D01*
X8371331Y2958337D02*
G01*
X8357615Y2953765D01*
X8353297Y2944876D01*
X8353297Y2935731D01*
X8357615Y2926587D01*
X8366759Y2922015D01*
X8385047Y2917444D01*
X8398509Y2912871D01*
X8407654Y2903981D01*
X8412225Y2894837D01*
X8412225Y2881121D01*
X8407654Y2871978D01*
X8403081Y2867405D01*
X8389620Y2862834D01*
X8371331Y2862834D01*
X8357615Y2867405D01*
X8353297Y2871978D01*
X8348725Y2881121D01*
X8348725Y2894837D01*
X8353297Y2903981D01*
X8362188Y2912871D01*
X8375904Y2917444D01*
X8394191Y2922015D01*
X8403081Y2926587D01*
X8407654Y2935731D01*
X8407654Y2944876D01*
X8403081Y2953765D01*
X8389620Y2958337D01*
X8371331Y2958337D01*
X8318754Y1027176D02*
G01*
X8309609Y1036065D01*
X8295893Y1040637D01*
X8277606Y1040637D01*
X8264143Y1036065D01*
X8255000Y1027176D01*
X8255000Y1018031D01*
X8259572Y1008887D01*
X8264143Y1004315D01*
X8273288Y999744D01*
X8300465Y990600D01*
X8309609Y986281D01*
X8314181Y981710D01*
X8318754Y972565D01*
X8318754Y958850D01*
X8309609Y949705D01*
X8295893Y945134D01*
X8277606Y945134D01*
X8264143Y949705D01*
X8255000Y958850D01*
X8348725Y1022604D02*
G01*
X8357615Y1027176D01*
X8371331Y1040637D01*
X8371331Y945134D01*
X8405875Y1018031D02*
G01*
X8405875Y1022604D01*
X8410447Y1031494D01*
X8415020Y1036065D01*
X8424163Y1040637D01*
X8442197Y1040637D01*
X8451341Y1036065D01*
X8455913Y1031494D01*
X8460486Y1022604D01*
X8460486Y1013460D01*
X8455913Y1004315D01*
X8446770Y990600D01*
X8401304Y945134D01*
X8465058Y945134D01*
X6413754Y1027176D02*
G01*
X6404609Y1036065D01*
X6390893Y1040637D01*
X6372606Y1040637D01*
X6359143Y1036065D01*
X6350000Y1027176D01*
X6350000Y1018031D01*
X6354572Y1008887D01*
X6359143Y1004315D01*
X6368288Y999744D01*
X6395465Y990600D01*
X6404609Y986281D01*
X6409181Y981710D01*
X6413754Y972565D01*
X6413754Y958850D01*
X6404609Y949705D01*
X6390893Y945134D01*
X6372606Y945134D01*
X6359143Y949705D01*
X6350000Y958850D01*
X6443725Y1022604D02*
G01*
X6452615Y1027176D01*
X6466331Y1040637D01*
X6466331Y945134D01*
X6496304Y1022604D02*
G01*
X6505447Y1027176D01*
X6519163Y1040637D01*
X6519163Y945134D01*
X4508754Y1027176D02*
G01*
X4499609Y1036065D01*
X4485893Y1040637D01*
X4467606Y1040637D01*
X4454143Y1036065D01*
X4445000Y1027176D01*
X4445000Y1018031D01*
X4449572Y1008887D01*
X4454143Y1004315D01*
X4463288Y999744D01*
X4490465Y990600D01*
X4499609Y986281D01*
X4504181Y981710D01*
X4508754Y972565D01*
X4508754Y958850D01*
X4499609Y949705D01*
X4485893Y945134D01*
X4467606Y945134D01*
X4454143Y949705D01*
X4445000Y958850D01*
X4538725Y1022604D02*
G01*
X4547615Y1027176D01*
X4561331Y1040637D01*
X4561331Y945134D01*
X4618736Y1040637D02*
G01*
X4605020Y1036065D01*
X4595875Y1022604D01*
X4591304Y999744D01*
X4591304Y986281D01*
X4595875Y963421D01*
X4605020Y949705D01*
X4618736Y945134D01*
X4627625Y945134D01*
X4641341Y949705D01*
X4650486Y963421D01*
X4655058Y986281D01*
X4655058Y999744D01*
X4650486Y1022604D01*
X4641341Y1036065D01*
X4627625Y1040637D01*
X4618736Y1040637D01*
X2603754Y1027176D02*
G01*
X2594609Y1036065D01*
X2580893Y1040637D01*
X2562606Y1040637D01*
X2549143Y1036065D01*
X2540000Y1027176D01*
X2540000Y1018031D01*
X2544572Y1008887D01*
X2549143Y1004315D01*
X2558288Y999744D01*
X2585465Y990600D01*
X2594609Y986281D01*
X2599181Y981710D01*
X2603754Y972565D01*
X2603754Y958850D01*
X2594609Y949705D01*
X2580893Y945134D01*
X2562606Y945134D01*
X2549143Y949705D01*
X2540000Y958850D01*
X2692654Y1008887D02*
G01*
X2688081Y995171D01*
X2679191Y986281D01*
X2665475Y981710D01*
X2660904Y981710D01*
X2647188Y986281D01*
X2638297Y995171D01*
X2633725Y1008887D01*
X2633725Y1013460D01*
X2638297Y1027176D01*
X2647188Y1036065D01*
X2660904Y1040637D01*
X2665475Y1040637D01*
X2679191Y1036065D01*
X2688081Y1027176D01*
X2692654Y1008887D01*
X2692654Y986281D01*
X2688081Y963421D01*
X2679191Y949705D01*
X2665475Y945134D01*
X2656331Y945134D01*
X2642615Y949705D01*
X2638297Y958850D01*
X4802332Y4889962D02*
G01*
X4797135Y4900353D01*
X4786744Y4910744D01*
X4776355Y4915938D01*
X4755573Y4915938D01*
X4745182Y4910744D01*
X4734791Y4900353D01*
X4729594Y4889962D01*
X4724400Y4874374D01*
X4724400Y4848397D01*
X4729594Y4832812D01*
X4734791Y4822421D01*
X4745182Y4812029D01*
X4755573Y4806835D01*
X4776355Y4806835D01*
X4786744Y4812029D01*
X4797135Y4822421D01*
X4802332Y4832812D01*
X4836622Y4915938D02*
G01*
X4836622Y4806835D01*
X4836622Y4915938D02*
G01*
X4909357Y4806835D01*
X4909357Y4915938D02*
G01*
X4909357Y4806835D01*
X4954038Y4915938D02*
G01*
X5011188Y4915938D01*
X4980015Y4874374D01*
X4995603Y4874374D01*
X5005994Y4869179D01*
X5011188Y4863985D01*
X5016385Y4848397D01*
X5016385Y4838006D01*
X5011188Y4822421D01*
X5000797Y4812029D01*
X4985212Y4806835D01*
X4969624Y4806835D01*
X4954038Y4812029D01*
X4948844Y4817224D01*
X4943647Y4827615D01*
D11*
X8189503Y889000D02*
G01*
X8191500Y2400300D01*
X6680200Y889000D02*
G01*
X8191500Y889000D01*
X6678203Y2400300D02*
G01*
X8191500Y2400300D01*
X6678203Y889000D02*
G01*
X6678203Y2388301D01*
X6271803Y889000D02*
G01*
X6273800Y2400300D01*
X4762500Y889000D02*
G01*
X6273800Y889000D01*
X4760503Y2400300D02*
G01*
X6273800Y2400300D01*
X4760503Y889000D02*
G01*
X4760503Y2388301D01*
X4366803Y889000D02*
G01*
X4368800Y2400300D01*
X2857500Y889000D02*
G01*
X4368800Y889000D01*
X2855503Y2400300D02*
G01*
X4368800Y2400300D01*
X2855503Y889000D02*
G01*
X2855503Y2388301D01*
X2449103Y889000D02*
G01*
X2451100Y2400300D01*
X939800Y889000D02*
G01*
X2451100Y889000D01*
X937803Y2400300D02*
G01*
X2451100Y2400300D01*
X937803Y889000D02*
G01*
X937803Y2388301D01*
X8189503Y10109200D02*
G01*
X8191500Y11620500D01*
X6680200Y10109200D02*
G01*
X8191500Y10109200D01*
X6678203Y11620500D02*
G01*
X8191500Y11620500D01*
X6678203Y10109200D02*
G01*
X6678203Y11608501D01*
X6271803Y10109200D02*
G01*
X6273800Y11620500D01*
X4762500Y10109200D02*
G01*
X6273800Y10109200D01*
X4760503Y11620500D02*
G01*
X6273800Y11620500D01*
X4760503Y10109200D02*
G01*
X4760503Y11608501D01*
X4366803Y10109200D02*
G01*
X4368800Y11620500D01*
X2857500Y10109200D02*
G01*
X4368800Y10109200D01*
X2855503Y11620500D02*
G01*
X4368800Y11620500D01*
X2855503Y10109200D02*
G01*
X2855503Y11608501D01*
X2449103Y10109200D02*
G01*
X2451100Y11620500D01*
X939800Y10109200D02*
G01*
X2451100Y10109200D01*
X937803Y11620500D02*
G01*
X2451100Y11620500D01*
X937803Y10109200D02*
G01*
X937803Y11608501D01*
X8189503Y2806700D02*
G01*
X8191500Y4318000D01*
X6680200Y2806700D02*
G01*
X8191500Y2806700D01*
X6678203Y4318000D02*
G01*
X8191500Y4318000D01*
X6678203Y2806700D02*
G01*
X6678203Y4306001D01*
X6271803Y2806700D02*
G01*
X6273800Y4318000D01*
X4762500Y2806700D02*
G01*
X6273800Y2806700D01*
X4760503Y4318000D02*
G01*
X6273800Y4318000D01*
X4760503Y2806700D02*
G01*
X4760503Y4306001D01*
X4368800Y2806700D02*
G01*
X4370796Y4318000D01*
X2859496Y2806700D02*
G01*
X4370796Y2806700D01*
X2857500Y4318000D02*
G01*
X4370796Y4318000D01*
X2857500Y2806700D02*
G01*
X2857500Y4306001D01*
X2449103Y2806700D02*
G01*
X2451100Y4318000D01*
X939800Y2806700D02*
G01*
X2451100Y2806700D01*
X937803Y4318000D02*
G01*
X2451100Y4318000D01*
X937803Y2806700D02*
G01*
X937803Y4306001D01*
M02*
