G04 Layer: TopSolderMaskLayer*
G04 EasyEDA v6.5.29, 2023-07-18 10:00:19*
G04 65aec9abdb6f4e73b05af1f89c23e90b,5a6b42c53f6a479593ecc07194224c93,10*
G04 Gerber Generator version 0.2*
G04 Scale: 100 percent, Rotated: No, Reflected: No *
G04 Dimensions in millimeters *
G04 leading zeros omitted , absolute positions ,4 integer and 5 decimal *
%FSLAX45Y45*%
%MOMM*%

%AMMACRO1*1,1,$1,$2,$3*1,1,$1,$4,$5*1,1,$1,0-$2,0-$3*1,1,$1,0-$4,0-$5*20,1,$1,$2,$3,$4,$5,0*20,1,$1,$4,$5,0-$2,0-$3,0*20,1,$1,0-$2,0-$3,0-$4,0-$5,0*20,1,$1,0-$4,0-$5,$2,$3,0*4,1,4,$2,$3,$4,$5,0-$2,0-$3,0-$4,0-$5,$2,$3,0*%
%ADD10C,1.9016*%
%ADD11MACRO1,0.1016X0.9X-0.9X0.9X0.9*%
%ADD12C,5.2032*%
%ADD13C,2.6016*%
%ADD14C,2.7032*%
%ADD15C,1.9032*%
%ADD16C,1.8016*%

%LPD*%
D10*
G01*
X4876800Y9931400D03*
D11*
G01*
X4876800Y5105400D03*
D10*
G01*
X4876800Y5359400D03*
G01*
X4876800Y5613400D03*
G01*
X4876800Y5867400D03*
G01*
X4876800Y6121400D03*
G01*
X4876800Y6375400D03*
G01*
X4876800Y6629400D03*
G01*
X4876800Y6883400D03*
G01*
X4876800Y7137400D03*
G01*
X4876800Y7391400D03*
G01*
X4876800Y7645400D03*
G01*
X4876800Y7899400D03*
G01*
X4876800Y8153400D03*
G01*
X4876800Y8407400D03*
G01*
X4876800Y8661400D03*
G01*
X4876800Y8915400D03*
G01*
X4876800Y9169400D03*
G01*
X4876800Y9423400D03*
G01*
X4876800Y9677400D03*
D12*
G01*
X469900Y2540000D03*
G01*
X8686800Y2540000D03*
G01*
X469900Y10858500D03*
G01*
X8686800Y10858500D03*
D13*
G01*
X1179093Y3022600D03*
G01*
X2197100Y3022600D03*
D14*
G01*
X1687093Y3022600D03*
D15*
G01*
X1943100Y3403600D03*
G01*
X1943100Y3657600D03*
G01*
X1435100Y3403600D03*
G01*
X1435100Y3657600D03*
G01*
X3354806Y3657600D03*
G01*
X3354806Y3403600D03*
G01*
X3862806Y3657600D03*
G01*
X3862806Y3403600D03*
D14*
G01*
X3606800Y3022600D03*
D13*
G01*
X4116806Y3022600D03*
G01*
X3098800Y3022600D03*
D15*
G01*
X5257800Y3657600D03*
G01*
X5257800Y3403600D03*
G01*
X5765800Y3657600D03*
G01*
X5765800Y3403600D03*
D14*
G01*
X5509793Y3022600D03*
D13*
G01*
X6019800Y3022600D03*
G01*
X5001793Y3022600D03*
D15*
G01*
X7175500Y3657600D03*
G01*
X7175500Y3403600D03*
G01*
X7683500Y3657600D03*
G01*
X7683500Y3403600D03*
D14*
G01*
X7427493Y3022600D03*
D13*
G01*
X7937500Y3022600D03*
G01*
X6919493Y3022600D03*
D16*
G01*
X1435100Y1739900D03*
G01*
X1435100Y1485900D03*
G01*
X1943100Y1739900D03*
G01*
X1943100Y1485900D03*
D13*
G01*
X1687093Y1104900D03*
G01*
X2197100Y1104900D03*
G01*
X1179093Y1104900D03*
D16*
G01*
X3352800Y1739900D03*
G01*
X3352800Y1485900D03*
G01*
X3860800Y1739900D03*
G01*
X3860800Y1485900D03*
D13*
G01*
X3604793Y1104900D03*
G01*
X4114800Y1104900D03*
G01*
X3096793Y1104900D03*
D16*
G01*
X5257800Y1739900D03*
G01*
X5257800Y1485900D03*
G01*
X5765800Y1739900D03*
G01*
X5765800Y1485900D03*
D13*
G01*
X5509793Y1104900D03*
G01*
X6019800Y1104900D03*
G01*
X5001793Y1104900D03*
D16*
G01*
X7175500Y1739900D03*
G01*
X7175500Y1485900D03*
G01*
X7683500Y1739900D03*
G01*
X7683500Y1485900D03*
D13*
G01*
X7427493Y1104900D03*
G01*
X7937500Y1104900D03*
G01*
X6919493Y1104900D03*
D15*
G01*
X1435100Y10960100D03*
G01*
X1435100Y10706100D03*
G01*
X1943100Y10960100D03*
G01*
X1943100Y10706100D03*
D14*
G01*
X1687093Y10325100D03*
D13*
G01*
X2197100Y10325100D03*
D14*
G01*
X1179093Y10325100D03*
D15*
G01*
X3352800Y10960100D03*
G01*
X3352800Y10706100D03*
G01*
X3860800Y10960100D03*
G01*
X3860800Y10706100D03*
D14*
G01*
X3604793Y10325100D03*
D13*
G01*
X4114800Y10325100D03*
D14*
G01*
X3096793Y10325100D03*
D15*
G01*
X5257800Y10960100D03*
G01*
X5257800Y10706100D03*
G01*
X5765800Y10960100D03*
G01*
X5765800Y10706100D03*
D14*
G01*
X5509793Y10325100D03*
D13*
G01*
X6019800Y10325100D03*
D14*
G01*
X5001793Y10325100D03*
D15*
G01*
X7175500Y10960100D03*
G01*
X7175500Y10706100D03*
G01*
X7683500Y10960100D03*
G01*
X7683500Y10706100D03*
D14*
G01*
X7427493Y10325100D03*
D13*
G01*
X7937500Y10325100D03*
D14*
G01*
X6919493Y10325100D03*
D12*
G01*
X386105Y4782007D03*
G01*
X8166100Y4782007D03*
G01*
X386105Y9652000D03*
G01*
X8166100Y9652000D03*
M02*
