G04 Layer: BottomLayer*
G04 EasyEDA v6.5.29, 2023-07-18 10:32:44*
G04 f0145a9d3cf84adf84608df9e98d150b,5a6b42c53f6a479593ecc07194224c93,10*
G04 Gerber Generator version 0.2*
G04 Scale: 100 percent, Rotated: No, Reflected: No *
G04 Dimensions in millimeters *
G04 leading zeros omitted , absolute positions ,4 integer and 5 decimal *
%FSLAX45Y45*%
%MOMM*%

%AMMACRO1*21,1,$1,$2,0,0,$3*%
%ADD10C,0.2540*%
%ADD11MACRO1,0.95X1.15X0.0000*%
%ADD12C,1.8000*%
%ADD13MACRO1,1.8X1.8X90.0000*%
%ADD14R,1.7000X1.7000*%
%ADD15C,1.7000*%
%ADD16C,5.0000*%
%ADD17C,2.5000*%
%ADD18C,0.6096*%
%ADD19C,0.0138*%

%LPD*%
G36*
X163068Y838708D02*
G01*
X159156Y839469D01*
X155905Y841705D01*
X153670Y844956D01*
X152908Y848868D01*
X152908Y2606649D01*
X153720Y2610612D01*
X156006Y2613964D01*
X159410Y2616149D01*
X163423Y2616809D01*
X167386Y2615844D01*
X171246Y2614066D01*
X180695Y2611526D01*
X190500Y2610662D01*
X200304Y2611526D01*
X209753Y2614066D01*
X218694Y2618181D01*
X226720Y2623820D01*
X228295Y2625394D01*
X231597Y2627630D01*
X235508Y2628392D01*
X524459Y2628392D01*
X528269Y2627630D01*
X531520Y2625547D01*
X533755Y2622346D01*
X536702Y2615692D01*
X544068Y2603550D01*
X552907Y2592425D01*
X563118Y2582570D01*
X574497Y2574086D01*
X586892Y2567076D01*
X600049Y2561742D01*
X613816Y2558135D01*
X627888Y2556357D01*
X642112Y2556357D01*
X656183Y2558135D01*
X669950Y2561742D01*
X683107Y2567076D01*
X695502Y2574086D01*
X706882Y2582570D01*
X717092Y2592425D01*
X725932Y2603550D01*
X733298Y2615692D01*
X739089Y2628696D01*
X743102Y2642311D01*
X745388Y2656332D01*
X745845Y2670556D01*
X744474Y2684678D01*
X741324Y2698546D01*
X736396Y2711856D01*
X729843Y2724454D01*
X721715Y2736138D01*
X712165Y2746654D01*
X701344Y2755849D01*
X689406Y2763621D01*
X676605Y2769768D01*
X663143Y2774238D01*
X649173Y2776982D01*
X635000Y2777896D01*
X620826Y2776982D01*
X606856Y2774238D01*
X593394Y2769768D01*
X580593Y2763621D01*
X568706Y2755849D01*
X557885Y2746654D01*
X548335Y2736138D01*
X540207Y2724505D01*
X533247Y2711094D01*
X530961Y2708198D01*
X527812Y2706268D01*
X524205Y2705608D01*
X235508Y2705608D01*
X231597Y2706370D01*
X228295Y2708605D01*
X226720Y2710180D01*
X218694Y2715818D01*
X209753Y2719933D01*
X200304Y2722473D01*
X190500Y2723337D01*
X180695Y2722473D01*
X171246Y2719933D01*
X167386Y2718155D01*
X163423Y2717190D01*
X159410Y2717850D01*
X156006Y2720035D01*
X153720Y2723388D01*
X152908Y2727350D01*
X152908Y6480098D01*
X153720Y6484112D01*
X156006Y6487414D01*
X159410Y6489598D01*
X163423Y6490258D01*
X167386Y6489344D01*
X171246Y6487515D01*
X180695Y6484975D01*
X188569Y6484315D01*
X191973Y6483400D01*
X194868Y6481368D01*
X196900Y6478473D01*
X197815Y6475069D01*
X198526Y6467195D01*
X201066Y6457696D01*
X205181Y6448806D01*
X210820Y6440728D01*
X217779Y6433820D01*
X225806Y6428181D01*
X234746Y6424015D01*
X244195Y6421475D01*
X254000Y6420612D01*
X263804Y6421475D01*
X273253Y6424015D01*
X282194Y6428181D01*
X290220Y6433820D01*
X291846Y6435394D01*
X295148Y6437630D01*
X299008Y6438392D01*
X316331Y6438392D01*
X319938Y6437731D01*
X323138Y6435801D01*
X325374Y6432854D01*
X326440Y6429298D01*
X326136Y6425590D01*
X325526Y6423253D01*
X324662Y6413449D01*
X325526Y6403695D01*
X328066Y6394196D01*
X332181Y6385306D01*
X337820Y6377228D01*
X344779Y6370320D01*
X352806Y6364681D01*
X361746Y6360515D01*
X371195Y6357975D01*
X381000Y6357112D01*
X390804Y6357975D01*
X400253Y6360515D01*
X409194Y6364681D01*
X417220Y6370320D01*
X418795Y6371894D01*
X422097Y6374079D01*
X426008Y6374841D01*
X5814872Y6374841D01*
X5818835Y6374079D01*
X5822137Y6371793D01*
X5824321Y6368440D01*
X5826048Y6364173D01*
X5833059Y6351371D01*
X5841593Y6339636D01*
X5851550Y6329019D01*
X5862777Y6319723D01*
X5875070Y6311950D01*
X5888228Y6305753D01*
X5902045Y6301232D01*
X5916371Y6298539D01*
X5930900Y6297625D01*
X5945428Y6298539D01*
X5959703Y6301232D01*
X5973521Y6305753D01*
X5986729Y6311950D01*
X5999022Y6319723D01*
X6010198Y6329019D01*
X6020155Y6339636D01*
X6028740Y6351371D01*
X6035751Y6364173D01*
X6041085Y6377686D01*
X6044742Y6391757D01*
X6046520Y6406235D01*
X6046520Y6420764D01*
X6044742Y6435191D01*
X6041085Y6449314D01*
X6035751Y6462826D01*
X6028740Y6475577D01*
X6020155Y6487363D01*
X6010198Y6497980D01*
X5999022Y6507226D01*
X5986729Y6515049D01*
X5973521Y6521246D01*
X5959703Y6525717D01*
X5945428Y6528460D01*
X5930900Y6529374D01*
X5916371Y6528460D01*
X5902045Y6525717D01*
X5888228Y6521246D01*
X5875070Y6515049D01*
X5862777Y6507226D01*
X5851550Y6497980D01*
X5841593Y6487363D01*
X5833059Y6475577D01*
X5826048Y6462826D01*
X5824321Y6458508D01*
X5822137Y6455156D01*
X5818784Y6452870D01*
X5814872Y6452057D01*
X5703468Y6452057D01*
X5699861Y6452768D01*
X5696712Y6454698D01*
X5694426Y6457645D01*
X5693359Y6461201D01*
X5693664Y6464858D01*
X5694273Y6467195D01*
X5694984Y6475222D01*
X5695899Y6478625D01*
X5697931Y6481521D01*
X5819902Y6603492D01*
X5823559Y6605828D01*
X5827877Y6606438D01*
X5832043Y6605168D01*
X5835294Y6602272D01*
X5841593Y6593636D01*
X5851550Y6583019D01*
X5862777Y6573723D01*
X5875070Y6565950D01*
X5888228Y6559753D01*
X5902045Y6555231D01*
X5916371Y6552539D01*
X5930900Y6551625D01*
X5945428Y6552539D01*
X5959703Y6555231D01*
X5973521Y6559753D01*
X5986729Y6565950D01*
X5999022Y6573723D01*
X6010198Y6583019D01*
X6020155Y6593636D01*
X6028740Y6605371D01*
X6035751Y6618173D01*
X6041085Y6631686D01*
X6044742Y6645757D01*
X6046520Y6660235D01*
X6046520Y6674764D01*
X6044742Y6689191D01*
X6041085Y6703314D01*
X6035751Y6716826D01*
X6028740Y6729577D01*
X6020155Y6741363D01*
X6010198Y6751980D01*
X5999022Y6761225D01*
X5986729Y6769049D01*
X5973521Y6775246D01*
X5959703Y6779717D01*
X5945428Y6782460D01*
X5934506Y6783171D01*
X5930798Y6784136D01*
X5927699Y6786422D01*
X5925667Y6789724D01*
X5925007Y6793484D01*
X5925820Y6797294D01*
X5927953Y6800494D01*
X5930544Y6803034D01*
X5933541Y6805117D01*
X5937097Y6805980D01*
X5945428Y6806539D01*
X5959703Y6809231D01*
X5973521Y6813753D01*
X5986729Y6819950D01*
X5999022Y6827723D01*
X6010198Y6837019D01*
X6020155Y6847636D01*
X6028740Y6859371D01*
X6035751Y6872173D01*
X6041085Y6885686D01*
X6044742Y6899757D01*
X6046520Y6914235D01*
X6046520Y6928764D01*
X6044742Y6943191D01*
X6041085Y6957314D01*
X6035751Y6970826D01*
X6028740Y6983577D01*
X6020155Y6995363D01*
X6010198Y7005980D01*
X5999022Y7015225D01*
X5986729Y7023049D01*
X5973521Y7029246D01*
X5959703Y7033717D01*
X5945428Y7036460D01*
X5930900Y7037374D01*
X5916371Y7036460D01*
X5902045Y7033717D01*
X5888228Y7029246D01*
X5875070Y7023049D01*
X5862777Y7015225D01*
X5859119Y7012228D01*
X5855817Y7010400D01*
X5852007Y7009942D01*
X5848350Y7010908D01*
X5845251Y7013143D01*
X5843219Y7016343D01*
X5842508Y7020102D01*
X5842508Y7028281D01*
X5843270Y7032193D01*
X5845505Y7035495D01*
X5876036Y7066025D01*
X5879490Y7068312D01*
X5883554Y7069023D01*
X5888228Y7067753D01*
X5902045Y7063231D01*
X5916371Y7060539D01*
X5930900Y7059625D01*
X5945428Y7060539D01*
X5959703Y7063231D01*
X5973521Y7067753D01*
X5986729Y7073950D01*
X5999022Y7081723D01*
X6010198Y7091019D01*
X6020155Y7101636D01*
X6028740Y7113371D01*
X6035751Y7126173D01*
X6041085Y7139686D01*
X6044742Y7153757D01*
X6046520Y7168235D01*
X6046520Y7182764D01*
X6044742Y7197191D01*
X6041085Y7211314D01*
X6035751Y7224826D01*
X6028740Y7237577D01*
X6020155Y7249363D01*
X6010198Y7259980D01*
X5999022Y7269225D01*
X5986729Y7277049D01*
X5973521Y7283246D01*
X5959703Y7287717D01*
X5945428Y7290460D01*
X5930900Y7291374D01*
X5916371Y7290460D01*
X5902045Y7287717D01*
X5888228Y7283246D01*
X5875070Y7277049D01*
X5862777Y7269225D01*
X5851550Y7259980D01*
X5841593Y7249363D01*
X5833059Y7237577D01*
X5826048Y7224826D01*
X5820664Y7211314D01*
X5817057Y7197191D01*
X5815228Y7182764D01*
X5815228Y7168235D01*
X5817057Y7153757D01*
X5820664Y7139686D01*
X5823813Y7131710D01*
X5824524Y7127849D01*
X5823762Y7124039D01*
X5821578Y7120788D01*
X5776976Y7076135D01*
X5771845Y7069937D01*
X5768289Y7063231D01*
X5766104Y7056018D01*
X5765292Y7047992D01*
X5765292Y6840118D01*
X5764530Y6836206D01*
X5762294Y6832904D01*
X5511495Y6582105D01*
X5508193Y6579870D01*
X5504281Y6579108D01*
X697484Y6579108D01*
X693420Y6579971D01*
X690016Y6582359D01*
X687882Y6585915D01*
X687324Y6590030D01*
X688492Y6593992D01*
X691134Y6597192D01*
X694842Y6599072D01*
X705053Y6601815D01*
X713994Y6605981D01*
X722020Y6611620D01*
X728980Y6618528D01*
X734618Y6626606D01*
X738733Y6635496D01*
X741273Y6644995D01*
X741984Y6652869D01*
X742899Y6656273D01*
X744931Y6659168D01*
X747826Y6661200D01*
X751230Y6662115D01*
X759104Y6662775D01*
X768553Y6665315D01*
X777494Y6669481D01*
X785520Y6675120D01*
X792480Y6682028D01*
X798118Y6690106D01*
X802233Y6698996D01*
X804773Y6708495D01*
X805637Y6718249D01*
X804773Y6728053D01*
X802233Y6737553D01*
X798118Y6746443D01*
X792480Y6754520D01*
X785520Y6761429D01*
X777494Y6767068D01*
X768553Y6771233D01*
X759104Y6773773D01*
X749300Y6774637D01*
X739495Y6773773D01*
X730046Y6771233D01*
X721106Y6767068D01*
X713079Y6761429D01*
X711504Y6759905D01*
X708202Y6757670D01*
X704342Y6756908D01*
X312318Y6756908D01*
X308406Y6757670D01*
X305104Y6759905D01*
X295605Y6769404D01*
X293370Y6772706D01*
X292608Y6776618D01*
X292608Y9180880D01*
X293268Y9184538D01*
X295198Y9187688D01*
X298145Y9189923D01*
X301701Y9190990D01*
X305409Y9190685D01*
X307695Y9190075D01*
X315569Y9189415D01*
X318973Y9188500D01*
X321868Y9186468D01*
X323900Y9183573D01*
X324815Y9180169D01*
X325526Y9172295D01*
X328066Y9162796D01*
X332181Y9153906D01*
X337820Y9145828D01*
X344779Y9138920D01*
X352806Y9133281D01*
X361746Y9129115D01*
X371195Y9126575D01*
X379069Y9125915D01*
X382473Y9125000D01*
X385368Y9122968D01*
X387400Y9120073D01*
X388315Y9116669D01*
X389026Y9108795D01*
X391566Y9099296D01*
X395681Y9090406D01*
X401320Y9082328D01*
X408279Y9075420D01*
X416306Y9069781D01*
X425246Y9065615D01*
X434695Y9063075D01*
X444500Y9062212D01*
X454304Y9063075D01*
X460197Y9064650D01*
X463905Y9064955D01*
X467461Y9063888D01*
X470408Y9061653D01*
X472338Y9058503D01*
X472998Y9054846D01*
X472998Y6838797D01*
X473709Y6832447D01*
X475640Y6827012D01*
X478688Y6822084D01*
X482803Y6818020D01*
X487680Y6814921D01*
X493166Y6812991D01*
X499465Y6812280D01*
X5641848Y6812280D01*
X5648147Y6812991D01*
X5653633Y6814921D01*
X5658510Y6818020D01*
X5662625Y6822084D01*
X5665673Y6827012D01*
X5667603Y6832447D01*
X5668314Y6838797D01*
X5668314Y9060129D01*
X5667603Y9066479D01*
X5665673Y9071914D01*
X5662625Y9076842D01*
X5658510Y9080906D01*
X5653633Y9084005D01*
X5648147Y9085884D01*
X5641848Y9086596D01*
X4901488Y9086596D01*
X4897831Y9087307D01*
X4894681Y9089237D01*
X4892446Y9092184D01*
X4891379Y9095689D01*
X4891684Y9099397D01*
X4894173Y9108795D01*
X4895037Y9118549D01*
X4894173Y9128353D01*
X4891633Y9137853D01*
X4887518Y9146743D01*
X4881880Y9154820D01*
X4874920Y9161729D01*
X4866894Y9167368D01*
X4857953Y9171533D01*
X4848504Y9174073D01*
X4840630Y9174734D01*
X4837226Y9175648D01*
X4834331Y9177680D01*
X4832299Y9180576D01*
X4831384Y9183979D01*
X4830673Y9191853D01*
X4828133Y9201353D01*
X4824018Y9210243D01*
X4818380Y9218320D01*
X4811420Y9225229D01*
X4803394Y9230868D01*
X4794453Y9235033D01*
X4785004Y9237573D01*
X4775200Y9238437D01*
X4765395Y9237573D01*
X4755946Y9235033D01*
X4747006Y9230868D01*
X4738979Y9225229D01*
X4737404Y9223654D01*
X4734102Y9221470D01*
X4730191Y9220657D01*
X4331868Y9220657D01*
X4328261Y9221368D01*
X4325112Y9223298D01*
X4322826Y9226245D01*
X4321759Y9229801D01*
X4322064Y9233458D01*
X4322673Y9235795D01*
X4323537Y9245549D01*
X4322673Y9255353D01*
X4320133Y9264853D01*
X4316018Y9273743D01*
X4310380Y9281820D01*
X4303420Y9288729D01*
X4295394Y9294368D01*
X4286453Y9298533D01*
X4277004Y9301073D01*
X4267200Y9301937D01*
X4257395Y9301073D01*
X4247946Y9298533D01*
X4239006Y9294368D01*
X4230979Y9288729D01*
X4229404Y9287154D01*
X4226102Y9284970D01*
X4222191Y9284157D01*
X1131011Y9284157D01*
X1126744Y9285122D01*
X1123238Y9287814D01*
X1121206Y9291726D01*
X1121003Y9296095D01*
X1122680Y9300159D01*
X1125931Y9303156D01*
X1138428Y9310370D01*
X1157427Y9323527D01*
X1175207Y9338259D01*
X1191717Y9354464D01*
X1206804Y9371939D01*
X1220419Y9390634D01*
X1232357Y9410395D01*
X1242669Y9431070D01*
X1251153Y9452559D01*
X1257808Y9474708D01*
X1262634Y9497314D01*
X1265529Y9520224D01*
X1265986Y9530588D01*
X1003300Y9530588D01*
X1003300Y9294317D01*
X1002537Y9290456D01*
X1000302Y9287154D01*
X997051Y9284970D01*
X993140Y9284157D01*
X988060Y9284157D01*
X984148Y9284970D01*
X980897Y9287154D01*
X978662Y9290456D01*
X977900Y9294317D01*
X977900Y9530588D01*
X715060Y9530588D01*
X716889Y9508744D01*
X720750Y9485934D01*
X726490Y9463582D01*
X734060Y9441738D01*
X743458Y9420656D01*
X754583Y9400387D01*
X767384Y9381134D01*
X781761Y9363049D01*
X797560Y9346184D01*
X814730Y9330740D01*
X833119Y9316770D01*
X852627Y9304375D01*
X854608Y9303359D01*
X858012Y9300464D01*
X859840Y9296400D01*
X859790Y9291929D01*
X857758Y9287916D01*
X854252Y9285173D01*
X849884Y9284157D01*
X362508Y9284157D01*
X358597Y9284970D01*
X355295Y9287154D01*
X353720Y9288729D01*
X347522Y9293047D01*
X344576Y9296298D01*
X343255Y9300514D01*
X343814Y9304883D01*
X346202Y9308592D01*
X376428Y9338818D01*
X379323Y9340850D01*
X382727Y9341764D01*
X390804Y9342475D01*
X400253Y9345015D01*
X409194Y9349181D01*
X417220Y9354820D01*
X424180Y9361728D01*
X429818Y9369806D01*
X433933Y9378696D01*
X436473Y9388195D01*
X437337Y9397949D01*
X436473Y9407753D01*
X433933Y9417253D01*
X429818Y9426143D01*
X424180Y9434220D01*
X417220Y9441129D01*
X409194Y9446768D01*
X400253Y9450933D01*
X390804Y9453473D01*
X382930Y9454134D01*
X379526Y9455048D01*
X376631Y9457080D01*
X374599Y9459976D01*
X373684Y9463379D01*
X372973Y9471253D01*
X370433Y9480753D01*
X366318Y9489643D01*
X360680Y9497720D01*
X353720Y9504629D01*
X345694Y9510268D01*
X336753Y9514433D01*
X327304Y9516973D01*
X317500Y9517837D01*
X307695Y9516973D01*
X298246Y9514433D01*
X289306Y9510268D01*
X281279Y9504629D01*
X274320Y9497720D01*
X268681Y9489643D01*
X264566Y9480753D01*
X262026Y9471253D01*
X261315Y9463227D01*
X260400Y9459823D01*
X258368Y9456928D01*
X170230Y9368840D01*
X166979Y9366656D01*
X163068Y9365843D01*
X159156Y9366656D01*
X155905Y9368840D01*
X153670Y9372142D01*
X152908Y9376003D01*
X152908Y9921798D01*
X153720Y9925812D01*
X156006Y9929114D01*
X159410Y9931298D01*
X163423Y9931958D01*
X167386Y9931044D01*
X171246Y9929215D01*
X180695Y9926675D01*
X188569Y9926015D01*
X191973Y9925100D01*
X194868Y9923068D01*
X196900Y9920173D01*
X197815Y9916769D01*
X198526Y9908895D01*
X201066Y9899396D01*
X205181Y9890506D01*
X210820Y9882428D01*
X217779Y9875520D01*
X225806Y9869881D01*
X234746Y9865715D01*
X244195Y9863175D01*
X254000Y9862312D01*
X263804Y9863175D01*
X273253Y9865715D01*
X282194Y9869881D01*
X290220Y9875520D01*
X291795Y9877094D01*
X295097Y9879279D01*
X299008Y9880041D01*
X1370431Y9880041D01*
X1374038Y9879380D01*
X1377188Y9877450D01*
X1379474Y9874504D01*
X1380540Y9870948D01*
X1380236Y9867290D01*
X1379626Y9864953D01*
X1378762Y9855149D01*
X1379626Y9845395D01*
X1382166Y9835896D01*
X1386281Y9827006D01*
X1391920Y9818928D01*
X1398879Y9812020D01*
X1406906Y9806381D01*
X1415846Y9802215D01*
X1425295Y9799675D01*
X1435100Y9798812D01*
X1444904Y9799675D01*
X1454353Y9802215D01*
X1463294Y9806381D01*
X1471320Y9812020D01*
X1472895Y9813594D01*
X1476197Y9815779D01*
X1480108Y9816541D01*
X5173522Y9816541D01*
X5177434Y9815779D01*
X5180685Y9813594D01*
X5182920Y9810292D01*
X5183682Y9806432D01*
X5182920Y9802571D01*
X5180736Y9799269D01*
X5177485Y9797034D01*
X5167731Y9792970D01*
X5147259Y9782251D01*
X5127752Y9769856D01*
X5109362Y9755886D01*
X5092192Y9740442D01*
X5076342Y9723577D01*
X5062016Y9705492D01*
X5049215Y9686239D01*
X5038090Y9665970D01*
X5028692Y9644888D01*
X5021072Y9623044D01*
X5015331Y9600692D01*
X5011470Y9577882D01*
X5009642Y9555988D01*
X5272481Y9555988D01*
X5272481Y9806381D01*
X5273294Y9810292D01*
X5275478Y9813594D01*
X5278780Y9815779D01*
X5282641Y9816541D01*
X5287721Y9816541D01*
X5291632Y9815779D01*
X5294934Y9813594D01*
X5297119Y9810292D01*
X5297881Y9806381D01*
X5297881Y9555988D01*
X5560568Y9555988D01*
X5560110Y9566402D01*
X5557215Y9589312D01*
X5552440Y9611918D01*
X5545734Y9634016D01*
X5537250Y9655505D01*
X5526989Y9676231D01*
X5515000Y9695992D01*
X5501436Y9714687D01*
X5486349Y9732162D01*
X5469839Y9748316D01*
X5452008Y9763048D01*
X5433060Y9776256D01*
X5413044Y9787788D01*
X5393029Y9797237D01*
X5389880Y9799523D01*
X5387848Y9802825D01*
X5387187Y9806686D01*
X5388051Y9810496D01*
X5390286Y9813696D01*
X5393537Y9815830D01*
X5397347Y9816541D01*
X5657291Y9816541D01*
X5661202Y9815779D01*
X5664504Y9813594D01*
X5666079Y9812020D01*
X5674106Y9806381D01*
X5683046Y9802215D01*
X5692495Y9799675D01*
X5702300Y9798812D01*
X5712104Y9799675D01*
X5721553Y9802215D01*
X5730494Y9806381D01*
X5738520Y9812020D01*
X5745480Y9818928D01*
X5751118Y9827006D01*
X5755233Y9835896D01*
X5757773Y9845395D01*
X5758637Y9855149D01*
X5757773Y9864953D01*
X5755233Y9874453D01*
X5751118Y9883343D01*
X5745480Y9891420D01*
X5738520Y9898329D01*
X5730494Y9903968D01*
X5721553Y9908133D01*
X5712104Y9910673D01*
X5702300Y9911537D01*
X5692495Y9910673D01*
X5683046Y9908133D01*
X5674106Y9903968D01*
X5666079Y9898329D01*
X5664504Y9896754D01*
X5661202Y9894570D01*
X5657291Y9893757D01*
X2071268Y9893757D01*
X2067661Y9894468D01*
X2064512Y9896398D01*
X2062225Y9899345D01*
X2061159Y9902901D01*
X2061464Y9906558D01*
X2062073Y9908895D01*
X2062937Y9918649D01*
X2062073Y9928453D01*
X2059533Y9937953D01*
X2055418Y9946843D01*
X2049780Y9954920D01*
X2042820Y9961829D01*
X2034793Y9967468D01*
X2025853Y9971633D01*
X2016404Y9974173D01*
X2008530Y9974834D01*
X2005126Y9975748D01*
X2002231Y9977780D01*
X2000199Y9980676D01*
X1999284Y9984079D01*
X1998573Y9991953D01*
X1997964Y9994290D01*
X1997659Y9997998D01*
X1998725Y10001504D01*
X2000961Y10004450D01*
X2004161Y10006380D01*
X2007768Y10007092D01*
X2545791Y10007092D01*
X2549702Y10006279D01*
X2553004Y10004094D01*
X2554579Y10002520D01*
X2562606Y9996881D01*
X2571546Y9992715D01*
X2580995Y9990175D01*
X2590800Y9989312D01*
X2600604Y9990175D01*
X2610053Y9992715D01*
X2618994Y9996881D01*
X2627020Y10002520D01*
X2633980Y10009428D01*
X2639618Y10017506D01*
X2643733Y10026396D01*
X2646273Y10035895D01*
X2647137Y10045649D01*
X2646273Y10055453D01*
X2643733Y10064953D01*
X2639618Y10073843D01*
X2633980Y10081920D01*
X2627020Y10088829D01*
X2618994Y10094468D01*
X2610053Y10098633D01*
X2600604Y10101173D01*
X2592730Y10101834D01*
X2589326Y10102748D01*
X2586431Y10104780D01*
X2584399Y10107676D01*
X2583484Y10111079D01*
X2582773Y10118953D01*
X2580233Y10128453D01*
X2576118Y10137343D01*
X2570480Y10145420D01*
X2563520Y10152329D01*
X2555494Y10157968D01*
X2546553Y10162133D01*
X2537104Y10164673D01*
X2527300Y10165537D01*
X2517495Y10164673D01*
X2508046Y10162133D01*
X2499106Y10157968D01*
X2491079Y10152329D01*
X2489504Y10150754D01*
X2486202Y10148570D01*
X2482342Y10147808D01*
X425958Y10147808D01*
X422097Y10148570D01*
X418795Y10150754D01*
X417220Y10152329D01*
X409194Y10157968D01*
X400253Y10162133D01*
X390804Y10164673D01*
X381000Y10165537D01*
X371195Y10164673D01*
X361746Y10162133D01*
X352806Y10157968D01*
X344779Y10152329D01*
X337820Y10145420D01*
X332181Y10137343D01*
X328066Y10128453D01*
X325526Y10118953D01*
X324815Y10111079D01*
X323900Y10107676D01*
X321868Y10104780D01*
X318973Y10102748D01*
X315569Y10101834D01*
X307695Y10101173D01*
X298246Y10098633D01*
X289306Y10094468D01*
X281279Y10088829D01*
X274320Y10081920D01*
X268681Y10073843D01*
X264566Y10064953D01*
X262026Y10055453D01*
X261162Y10045649D01*
X262026Y10035895D01*
X262636Y10033558D01*
X262940Y10029901D01*
X261874Y10026345D01*
X259588Y10023398D01*
X256438Y10021468D01*
X252831Y10020757D01*
X235508Y10020757D01*
X231597Y10021570D01*
X228295Y10023754D01*
X226720Y10025329D01*
X218694Y10030968D01*
X209753Y10035133D01*
X200304Y10037673D01*
X190500Y10038537D01*
X180695Y10037673D01*
X171246Y10035133D01*
X167386Y10033304D01*
X163423Y10032390D01*
X159410Y10033050D01*
X156006Y10035235D01*
X153720Y10038537D01*
X152908Y10042550D01*
X152908Y11597132D01*
X153670Y11601043D01*
X155905Y11604294D01*
X159156Y11606530D01*
X163068Y11607292D01*
X6059932Y11607292D01*
X6063843Y11606530D01*
X6067094Y11604294D01*
X6069330Y11601043D01*
X6070092Y11597132D01*
X6070092Y848868D01*
X6069330Y844956D01*
X6067094Y841705D01*
X6063843Y839469D01*
X6059932Y838708D01*
G37*

%LPC*%
G36*
X5930900Y5027625D02*
G01*
X5945428Y5028539D01*
X5959703Y5031232D01*
X5973521Y5035753D01*
X5986729Y5041950D01*
X5999022Y5049723D01*
X6010198Y5059019D01*
X6020155Y5069636D01*
X6028740Y5081371D01*
X6035751Y5094173D01*
X6041085Y5107686D01*
X6044742Y5121757D01*
X6046520Y5136235D01*
X6046520Y5150764D01*
X6044742Y5165191D01*
X6041085Y5179314D01*
X6035751Y5192826D01*
X6028740Y5205577D01*
X6020155Y5217363D01*
X6010198Y5227980D01*
X5999022Y5237226D01*
X5986729Y5245049D01*
X5973521Y5251246D01*
X5959703Y5255717D01*
X5945428Y5258460D01*
X5930900Y5259374D01*
X5916371Y5258460D01*
X5902045Y5255717D01*
X5888228Y5251246D01*
X5875070Y5245049D01*
X5862777Y5237226D01*
X5851550Y5227980D01*
X5841593Y5217363D01*
X5833059Y5205577D01*
X5826048Y5192826D01*
X5820664Y5179314D01*
X5817057Y5165191D01*
X5815228Y5150764D01*
X5815228Y5136235D01*
X5817057Y5121757D01*
X5820664Y5107686D01*
X5826048Y5094173D01*
X5833059Y5081371D01*
X5841593Y5069636D01*
X5851550Y5059019D01*
X5862777Y5049723D01*
X5875070Y5041950D01*
X5888228Y5035753D01*
X5902045Y5031232D01*
X5916371Y5028539D01*
G37*
G36*
X296570Y905103D02*
G01*
X368300Y905103D01*
X368300Y1003300D01*
X270103Y1003300D01*
X270103Y931570D01*
X270814Y925271D01*
X272694Y919784D01*
X275793Y914908D01*
X279908Y910793D01*
X284784Y907694D01*
X290271Y905814D01*
G37*
G36*
X5668670Y905103D02*
G01*
X5740400Y905103D01*
X5740400Y1003300D01*
X5642203Y1003300D01*
X5642203Y931570D01*
X5642914Y925271D01*
X5644794Y919784D01*
X5647893Y914908D01*
X5651957Y910793D01*
X5656884Y907694D01*
X5662320Y905814D01*
G37*
G36*
X5765800Y905103D02*
G01*
X5837529Y905103D01*
X5843828Y905814D01*
X5849315Y907694D01*
X5854192Y910793D01*
X5858306Y914908D01*
X5861354Y919784D01*
X5863285Y925271D01*
X5863996Y931570D01*
X5863996Y1003300D01*
X5765800Y1003300D01*
G37*
G36*
X638556Y905154D02*
G01*
X652678Y906526D01*
X666546Y909675D01*
X679907Y914603D01*
X692505Y921156D01*
X704138Y929284D01*
X714654Y938834D01*
X723849Y949655D01*
X731621Y961593D01*
X737768Y974394D01*
X742238Y987856D01*
X744982Y1001826D01*
X745896Y1016000D01*
X744982Y1030173D01*
X742238Y1044143D01*
X738124Y1056589D01*
X737616Y1060297D01*
X738479Y1063904D01*
X740562Y1066952D01*
X775004Y1101394D01*
X778306Y1103630D01*
X782218Y1104392D01*
X1377391Y1104392D01*
X1381302Y1103630D01*
X1384604Y1101394D01*
X1386179Y1099820D01*
X1394206Y1094181D01*
X1403146Y1090066D01*
X1412595Y1087526D01*
X1422400Y1086662D01*
X1432204Y1087526D01*
X1441653Y1090066D01*
X1450594Y1094181D01*
X1458620Y1099820D01*
X1465580Y1106779D01*
X1471218Y1114806D01*
X1475333Y1123746D01*
X1477873Y1133195D01*
X1478737Y1143000D01*
X1477873Y1152804D01*
X1475333Y1162253D01*
X1471218Y1171194D01*
X1465580Y1179220D01*
X1458620Y1186180D01*
X1450594Y1191818D01*
X1441653Y1195933D01*
X1432204Y1198473D01*
X1422400Y1199337D01*
X1412595Y1198473D01*
X1403146Y1195933D01*
X1394206Y1191818D01*
X1386179Y1186180D01*
X1384604Y1184605D01*
X1381302Y1182370D01*
X1377391Y1181608D01*
X762508Y1181608D01*
X754481Y1180795D01*
X747268Y1178610D01*
X740562Y1175054D01*
X734364Y1169924D01*
X685901Y1121460D01*
X682701Y1119327D01*
X678942Y1118514D01*
X675182Y1119124D01*
X666546Y1122324D01*
X652678Y1125474D01*
X638556Y1126845D01*
X624332Y1126388D01*
X610311Y1124102D01*
X596696Y1120038D01*
X583692Y1114298D01*
X571550Y1106932D01*
X560425Y1098092D01*
X550570Y1087882D01*
X542086Y1076502D01*
X535076Y1064107D01*
X529742Y1050950D01*
X526135Y1037183D01*
X524357Y1023112D01*
X524357Y1008887D01*
X526135Y994816D01*
X529742Y981049D01*
X535076Y967892D01*
X542086Y955497D01*
X550570Y944118D01*
X560425Y933907D01*
X571550Y925068D01*
X583692Y917702D01*
X596696Y911910D01*
X610311Y907897D01*
X624332Y905611D01*
G37*
G36*
X5495544Y905154D02*
G01*
X5509717Y905611D01*
X5523788Y907897D01*
X5537403Y911910D01*
X5550357Y917702D01*
X5562549Y925068D01*
X5573623Y933907D01*
X5583529Y944118D01*
X5592013Y955497D01*
X5598972Y967892D01*
X5604306Y981049D01*
X5607913Y994816D01*
X5609742Y1008887D01*
X5609742Y1023112D01*
X5607913Y1037183D01*
X5604306Y1050950D01*
X5598972Y1064107D01*
X5592013Y1076502D01*
X5583529Y1087882D01*
X5573623Y1098092D01*
X5562549Y1106932D01*
X5550357Y1114298D01*
X5537403Y1120038D01*
X5523788Y1124102D01*
X5509717Y1126388D01*
X5495544Y1126845D01*
X5481370Y1125474D01*
X5467553Y1122324D01*
X5458917Y1119124D01*
X5455107Y1118514D01*
X5451398Y1119327D01*
X5448198Y1121460D01*
X5399735Y1169924D01*
X5393486Y1175054D01*
X5386832Y1178610D01*
X5379618Y1180795D01*
X5371592Y1181608D01*
X1619808Y1181608D01*
X1615897Y1182370D01*
X1612595Y1184605D01*
X1611020Y1186180D01*
X1602994Y1191818D01*
X1594053Y1195933D01*
X1584604Y1198473D01*
X1574800Y1199337D01*
X1564995Y1198473D01*
X1555546Y1195933D01*
X1546606Y1191818D01*
X1538579Y1186180D01*
X1531620Y1179220D01*
X1525981Y1171194D01*
X1521866Y1162253D01*
X1519326Y1152804D01*
X1518462Y1143000D01*
X1519326Y1133195D01*
X1521866Y1123746D01*
X1525981Y1114806D01*
X1531620Y1106779D01*
X1538579Y1099820D01*
X1546606Y1094181D01*
X1555546Y1090066D01*
X1564995Y1087526D01*
X1574800Y1086662D01*
X1584604Y1087526D01*
X1594053Y1090066D01*
X1602994Y1094181D01*
X1611020Y1099820D01*
X1612595Y1101394D01*
X1615897Y1103630D01*
X1619808Y1104392D01*
X5351881Y1104392D01*
X5355793Y1103630D01*
X5359095Y1101394D01*
X5393486Y1066952D01*
X5395620Y1063904D01*
X5396484Y1060297D01*
X5395976Y1056589D01*
X5391810Y1044143D01*
X5389118Y1030173D01*
X5388203Y1016000D01*
X5389118Y1001826D01*
X5391810Y987856D01*
X5396331Y974394D01*
X5402478Y961593D01*
X5410200Y949655D01*
X5419445Y938834D01*
X5429961Y929284D01*
X5441594Y921156D01*
X5454192Y914603D01*
X5467553Y909675D01*
X5481370Y906526D01*
G37*
G36*
X393700Y1028700D02*
G01*
X491896Y1028700D01*
X491896Y1100429D01*
X491185Y1106728D01*
X489305Y1112215D01*
X486206Y1117092D01*
X482092Y1121206D01*
X477215Y1124305D01*
X471728Y1126185D01*
X465429Y1126896D01*
X393700Y1126896D01*
G37*
G36*
X270103Y1028700D02*
G01*
X368300Y1028700D01*
X368300Y1126896D01*
X296570Y1126896D01*
X290271Y1126185D01*
X284784Y1124305D01*
X279908Y1121206D01*
X275793Y1117092D01*
X272694Y1112215D01*
X270814Y1106728D01*
X270103Y1100429D01*
G37*
G36*
X5642203Y1028700D02*
G01*
X5740400Y1028700D01*
X5740400Y1126896D01*
X5668670Y1126896D01*
X5662320Y1126185D01*
X5656884Y1124305D01*
X5651957Y1121206D01*
X5647893Y1117092D01*
X5644794Y1112215D01*
X5642914Y1106728D01*
X5642203Y1100429D01*
G37*
G36*
X5765800Y1028700D02*
G01*
X5863996Y1028700D01*
X5863996Y1100429D01*
X5863285Y1106728D01*
X5861354Y1112215D01*
X5858306Y1117092D01*
X5854192Y1121206D01*
X5849315Y1124305D01*
X5843828Y1126185D01*
X5837529Y1126896D01*
X5765800Y1126896D01*
G37*
G36*
X1181100Y11119612D02*
G01*
X1190904Y11120475D01*
X1200353Y11123015D01*
X1209294Y11127181D01*
X1217320Y11132820D01*
X1218895Y11134394D01*
X1222197Y11136579D01*
X1226108Y11137341D01*
X3409391Y11137341D01*
X3413302Y11136579D01*
X3416604Y11134394D01*
X3418179Y11132820D01*
X3426206Y11127181D01*
X3435146Y11123015D01*
X3444595Y11120475D01*
X3454400Y11119612D01*
X3464204Y11120475D01*
X3473653Y11123015D01*
X3482594Y11127181D01*
X3490620Y11132820D01*
X3497579Y11139728D01*
X3503218Y11147806D01*
X3507333Y11156696D01*
X3509873Y11166195D01*
X3510737Y11175949D01*
X3509873Y11185753D01*
X3507333Y11195253D01*
X3503218Y11204143D01*
X3497579Y11212220D01*
X3490620Y11219129D01*
X3482594Y11224768D01*
X3473653Y11228933D01*
X3464204Y11231473D01*
X3454400Y11232337D01*
X3444595Y11231473D01*
X3435146Y11228933D01*
X3426206Y11224768D01*
X3418179Y11219129D01*
X3416604Y11217554D01*
X3413302Y11215370D01*
X3409391Y11214557D01*
X1226108Y11214557D01*
X1222197Y11215370D01*
X1218895Y11217554D01*
X1217320Y11219129D01*
X1209294Y11224768D01*
X1200353Y11228933D01*
X1190904Y11231473D01*
X1181100Y11232337D01*
X1171295Y11231473D01*
X1161846Y11228933D01*
X1152906Y11224768D01*
X1144879Y11219129D01*
X1137920Y11212220D01*
X1132281Y11204143D01*
X1128166Y11195253D01*
X1125626Y11185753D01*
X1124762Y11175949D01*
X1125626Y11166195D01*
X1128166Y11156696D01*
X1132281Y11147806D01*
X1137920Y11139728D01*
X1144879Y11132820D01*
X1152906Y11127181D01*
X1161846Y11123015D01*
X1171295Y11120475D01*
G37*
G36*
X194360Y10871200D02*
G01*
X457200Y10871200D01*
X457200Y11133886D01*
X441045Y11132870D01*
X418185Y11129518D01*
X395681Y11124234D01*
X373735Y11117072D01*
X352450Y11108131D01*
X331927Y11097412D01*
X312420Y11085068D01*
X294030Y11071098D01*
X276860Y11055604D01*
X261061Y11038789D01*
X246684Y11020653D01*
X233883Y11001400D01*
X222758Y10981182D01*
X213360Y10960049D01*
X205790Y10938256D01*
X200050Y10915853D01*
X196189Y10893094D01*
G37*
G36*
X5461609Y10871200D02*
G01*
X5724499Y10871200D01*
X5724499Y11133886D01*
X5708345Y11132870D01*
X5685485Y11129518D01*
X5662980Y11124234D01*
X5641035Y11117072D01*
X5619699Y11108131D01*
X5599226Y11097412D01*
X5579719Y11085068D01*
X5561330Y11071098D01*
X5544159Y11055604D01*
X5528360Y11038789D01*
X5513984Y11020653D01*
X5501182Y11001400D01*
X5490057Y10981182D01*
X5480659Y10960049D01*
X5473090Y10938256D01*
X5467350Y10915853D01*
X5463489Y10893094D01*
G37*
G36*
X482600Y10871200D02*
G01*
X745286Y10871200D01*
X744829Y10881563D01*
X741934Y10904524D01*
X737108Y10927130D01*
X730453Y10949228D01*
X721969Y10970717D01*
X711657Y10991392D01*
X699719Y11011204D01*
X686104Y11029848D01*
X671017Y11047374D01*
X654507Y11063528D01*
X636727Y11078260D01*
X617728Y11091468D01*
X597712Y11103000D01*
X576834Y11112855D01*
X555142Y11120882D01*
X532892Y11127130D01*
X510184Y11131448D01*
X487222Y11133836D01*
X482600Y11133937D01*
G37*
G36*
X5749899Y1185062D02*
G01*
X5754522Y1185164D01*
X5777484Y1187551D01*
X5800191Y1191920D01*
X5822442Y1198118D01*
X5844133Y1206144D01*
X5865012Y1215999D01*
X5885027Y1227582D01*
X5904026Y1240739D01*
X5921806Y1255471D01*
X5938316Y1271625D01*
X5953404Y1289151D01*
X5967018Y1307846D01*
X5978956Y1327607D01*
X5989218Y1348282D01*
X5997752Y1369771D01*
X6004407Y1391920D01*
X6009233Y1414475D01*
X6012129Y1437436D01*
X6012535Y1447800D01*
X5749899Y1447800D01*
G37*
G36*
X483971Y1185062D02*
G01*
X488594Y1185164D01*
X511556Y1187551D01*
X534263Y1191920D01*
X556514Y1198118D01*
X578154Y1206144D01*
X599084Y1215999D01*
X619099Y1227582D01*
X638048Y1240739D01*
X655878Y1255471D01*
X672388Y1271625D01*
X687476Y1289151D01*
X701040Y1307846D01*
X713028Y1327607D01*
X723290Y1348282D01*
X731824Y1369771D01*
X738479Y1391920D01*
X743305Y1414475D01*
X746201Y1437436D01*
X746607Y1447800D01*
X483971Y1447800D01*
G37*
G36*
X5724499Y1185113D02*
G01*
X5724499Y1447800D01*
X5461609Y1447800D01*
X5463489Y1425956D01*
X5467350Y1403146D01*
X5473090Y1380744D01*
X5480659Y1358950D01*
X5490057Y1337818D01*
X5501182Y1317599D01*
X5513984Y1298346D01*
X5528360Y1280210D01*
X5544159Y1263396D01*
X5561330Y1247902D01*
X5579719Y1233932D01*
X5599226Y1221587D01*
X5619699Y1210868D01*
X5641035Y1201928D01*
X5662980Y1194765D01*
X5685485Y1189482D01*
X5708345Y1186129D01*
G37*
G36*
X458571Y1185113D02*
G01*
X458571Y1447800D01*
X195681Y1447800D01*
X197561Y1425956D01*
X201371Y1403146D01*
X207111Y1380744D01*
X214731Y1358950D01*
X224129Y1337818D01*
X235254Y1317599D01*
X248056Y1298346D01*
X262382Y1280210D01*
X278231Y1263396D01*
X295402Y1247902D01*
X313791Y1233932D01*
X333298Y1221587D01*
X353771Y1210868D01*
X375107Y1201928D01*
X397052Y1194765D01*
X419557Y1189482D01*
X442417Y1186129D01*
G37*
G36*
X483971Y1473200D02*
G01*
X746607Y1473200D01*
X746201Y1483614D01*
X743305Y1506524D01*
X738479Y1529130D01*
X731824Y1551228D01*
X723290Y1572717D01*
X713028Y1593443D01*
X701040Y1613204D01*
X687476Y1631899D01*
X672388Y1649374D01*
X655878Y1665528D01*
X638048Y1680260D01*
X619099Y1693468D01*
X599084Y1705000D01*
X578154Y1714855D01*
X556514Y1722882D01*
X534263Y1729130D01*
X511556Y1733448D01*
X488594Y1735886D01*
X483971Y1735937D01*
G37*
G36*
X5749899Y1473200D02*
G01*
X6012535Y1473200D01*
X6012129Y1483614D01*
X6009233Y1506524D01*
X6004407Y1529130D01*
X5997752Y1551228D01*
X5989218Y1572717D01*
X5978956Y1593443D01*
X5967018Y1613204D01*
X5953404Y1631899D01*
X5938316Y1649374D01*
X5921806Y1665528D01*
X5904026Y1680260D01*
X5885027Y1693468D01*
X5865012Y1705000D01*
X5844133Y1714855D01*
X5822442Y1722882D01*
X5800191Y1729130D01*
X5777484Y1733448D01*
X5754522Y1735886D01*
X5749899Y1735937D01*
G37*
G36*
X5461609Y1473200D02*
G01*
X5724499Y1473200D01*
X5724499Y1735937D01*
X5708345Y1734921D01*
X5685485Y1731518D01*
X5662980Y1726234D01*
X5641035Y1719122D01*
X5619699Y1710131D01*
X5599226Y1699463D01*
X5579719Y1687068D01*
X5561330Y1673098D01*
X5544159Y1657654D01*
X5528360Y1640789D01*
X5513984Y1622704D01*
X5501182Y1603451D01*
X5490057Y1583182D01*
X5480659Y1562100D01*
X5473090Y1540256D01*
X5467350Y1517853D01*
X5463489Y1495094D01*
G37*
G36*
X195681Y1473200D02*
G01*
X458571Y1473200D01*
X458571Y1735937D01*
X442417Y1734921D01*
X419557Y1731518D01*
X397052Y1726234D01*
X375107Y1719122D01*
X353771Y1710131D01*
X333298Y1699463D01*
X313791Y1687068D01*
X295402Y1673098D01*
X278231Y1657654D01*
X262382Y1640789D01*
X248056Y1622704D01*
X235254Y1603451D01*
X224129Y1583182D01*
X214731Y1562100D01*
X207111Y1540256D01*
X201371Y1517853D01*
X197561Y1495094D01*
G37*
G36*
X5846470Y1794103D02*
G01*
X6015329Y1794103D01*
X6021628Y1794814D01*
X6027115Y1796694D01*
X6031992Y1799793D01*
X6036106Y1803857D01*
X6039154Y1808784D01*
X6041085Y1814220D01*
X6041796Y1820570D01*
X6041796Y1989429D01*
X6041085Y1995728D01*
X6039154Y2001215D01*
X6036106Y2006092D01*
X6031992Y2010206D01*
X6027115Y2013254D01*
X6021628Y2015185D01*
X6015329Y2015896D01*
X5846470Y2015896D01*
X5840120Y2015185D01*
X5834684Y2013254D01*
X5829757Y2010206D01*
X5825693Y2006092D01*
X5822594Y2001215D01*
X5820714Y1995728D01*
X5820003Y1989429D01*
X5820003Y1820570D01*
X5820714Y1814220D01*
X5822594Y1808784D01*
X5825693Y1803857D01*
X5829757Y1799793D01*
X5834684Y1796694D01*
X5840120Y1794814D01*
G37*
G36*
X550570Y1794103D02*
G01*
X719429Y1794103D01*
X725779Y1794814D01*
X731215Y1796694D01*
X736142Y1799793D01*
X740206Y1803857D01*
X743305Y1808784D01*
X745185Y1814220D01*
X745896Y1820570D01*
X745896Y1989429D01*
X745185Y1995728D01*
X743305Y2001215D01*
X740206Y2006092D01*
X736142Y2010206D01*
X731215Y2013254D01*
X725779Y2015185D01*
X719429Y2015896D01*
X550570Y2015896D01*
X544271Y2015185D01*
X538784Y2013254D01*
X533908Y2010206D01*
X529793Y2006092D01*
X526745Y2001215D01*
X524814Y1995728D01*
X524103Y1989429D01*
X524103Y1953768D01*
X523341Y1949856D01*
X521106Y1946605D01*
X517804Y1944370D01*
X513943Y1943607D01*
X489508Y1943607D01*
X485597Y1944370D01*
X482295Y1946605D01*
X480720Y1948180D01*
X472693Y1953818D01*
X463753Y1957933D01*
X454304Y1960473D01*
X444500Y1961337D01*
X434695Y1960473D01*
X425246Y1957933D01*
X416306Y1953818D01*
X408279Y1948180D01*
X401320Y1941220D01*
X395681Y1933193D01*
X391566Y1924253D01*
X389026Y1914804D01*
X388162Y1905000D01*
X389026Y1895195D01*
X391566Y1885746D01*
X395681Y1876806D01*
X401320Y1868779D01*
X408279Y1861820D01*
X416306Y1856181D01*
X425246Y1852066D01*
X434695Y1849526D01*
X444500Y1848662D01*
X454304Y1849526D01*
X463753Y1852066D01*
X472693Y1856181D01*
X480720Y1861820D01*
X482295Y1863394D01*
X485597Y1865630D01*
X489508Y1866392D01*
X513943Y1866392D01*
X517804Y1865630D01*
X521106Y1863394D01*
X523341Y1860143D01*
X524103Y1856232D01*
X524103Y1820570D01*
X524814Y1814220D01*
X526745Y1808784D01*
X529793Y1803857D01*
X533908Y1799793D01*
X538784Y1796694D01*
X544271Y1794814D01*
G37*
G36*
X5414670Y1794103D02*
G01*
X5583529Y1794103D01*
X5589828Y1794814D01*
X5595315Y1796694D01*
X5600192Y1799793D01*
X5604306Y1803857D01*
X5607405Y1808784D01*
X5609285Y1814220D01*
X5609996Y1820570D01*
X5609996Y1989429D01*
X5609285Y1995728D01*
X5607405Y2001215D01*
X5604306Y2006092D01*
X5600192Y2010206D01*
X5595315Y2013254D01*
X5589828Y2015185D01*
X5583529Y2015896D01*
X5414670Y2015896D01*
X5408371Y2015185D01*
X5402884Y2013254D01*
X5398008Y2010206D01*
X5393893Y2006092D01*
X5390794Y2001215D01*
X5388914Y1995728D01*
X5388203Y1989429D01*
X5388203Y1953768D01*
X5387441Y1949856D01*
X5385206Y1946554D01*
X5381904Y1944370D01*
X5378043Y1943607D01*
X4705908Y1943607D01*
X4701997Y1944370D01*
X4698695Y1946554D01*
X4697120Y1948180D01*
X4689094Y1953818D01*
X4680153Y1957933D01*
X4670704Y1960473D01*
X4660900Y1961337D01*
X4651095Y1960473D01*
X4641646Y1957933D01*
X4632706Y1953818D01*
X4624679Y1948180D01*
X4617720Y1941220D01*
X4612081Y1933193D01*
X4607966Y1924253D01*
X4605426Y1914804D01*
X4604562Y1905000D01*
X4605426Y1895195D01*
X4607966Y1885746D01*
X4612081Y1876806D01*
X4617720Y1868779D01*
X4624679Y1861820D01*
X4632706Y1856181D01*
X4641646Y1852066D01*
X4651095Y1849526D01*
X4660900Y1848662D01*
X4670704Y1849526D01*
X4680153Y1852066D01*
X4689094Y1856181D01*
X4697120Y1861820D01*
X4698695Y1863394D01*
X4701997Y1865630D01*
X4705858Y1866392D01*
X5378043Y1866392D01*
X5381904Y1865630D01*
X5385206Y1863394D01*
X5387441Y1860092D01*
X5388203Y1856232D01*
X5388203Y1820570D01*
X5388914Y1814220D01*
X5390794Y1808784D01*
X5393893Y1803857D01*
X5398008Y1799793D01*
X5402884Y1796694D01*
X5408371Y1794814D01*
G37*
G36*
X5749899Y10871200D02*
G01*
X6012535Y10871200D01*
X6012129Y10881563D01*
X6009233Y10904524D01*
X6004407Y10927130D01*
X5997752Y10949228D01*
X5989218Y10970717D01*
X5978956Y10991392D01*
X5967018Y11011204D01*
X5953404Y11029848D01*
X5938316Y11047374D01*
X5921806Y11063528D01*
X5904026Y11078260D01*
X5885027Y11091468D01*
X5865012Y11103000D01*
X5844133Y11112855D01*
X5822442Y11120882D01*
X5800191Y11127130D01*
X5777484Y11131448D01*
X5754522Y11133836D01*
X5749899Y11133937D01*
G37*
G36*
X4778756Y10849254D02*
G01*
X4792878Y10850626D01*
X4806746Y10853775D01*
X4820107Y10858703D01*
X4832705Y10865256D01*
X4844338Y10873384D01*
X4854854Y10882934D01*
X4864049Y10893755D01*
X4871821Y10905693D01*
X4877968Y10918494D01*
X4882438Y10931956D01*
X4885182Y10945926D01*
X4886096Y10960100D01*
X4885182Y10974273D01*
X4882438Y10988243D01*
X4877968Y11001705D01*
X4871821Y11014506D01*
X4864049Y11026444D01*
X4854854Y11037265D01*
X4844338Y11046815D01*
X4832705Y11054943D01*
X4820107Y11061496D01*
X4806746Y11066424D01*
X4792878Y11069574D01*
X4778756Y11070945D01*
X4764532Y11070488D01*
X4750511Y11068202D01*
X4736896Y11064138D01*
X4723892Y11058398D01*
X4711750Y11051032D01*
X4700625Y11042192D01*
X4690770Y11031982D01*
X4682286Y11020602D01*
X4675276Y11008207D01*
X4669942Y10995050D01*
X4666335Y10981283D01*
X4664557Y10967212D01*
X4664557Y10952988D01*
X4666335Y10938916D01*
X4669942Y10925149D01*
X4675276Y10911992D01*
X4682286Y10899597D01*
X4690770Y10888218D01*
X4700625Y10878007D01*
X4711750Y10869168D01*
X4723892Y10861802D01*
X4736896Y10856010D01*
X4750511Y10851997D01*
X4764532Y10849711D01*
G37*
G36*
X4270756Y10849254D02*
G01*
X4284878Y10850626D01*
X4298746Y10853775D01*
X4312107Y10858703D01*
X4324705Y10865256D01*
X4336338Y10873384D01*
X4346854Y10882934D01*
X4356049Y10893755D01*
X4363821Y10905693D01*
X4369968Y10918494D01*
X4374438Y10931956D01*
X4377182Y10945926D01*
X4378096Y10960100D01*
X4377182Y10974273D01*
X4374438Y10988243D01*
X4369968Y11001705D01*
X4363821Y11014506D01*
X4356049Y11026444D01*
X4346854Y11037265D01*
X4336338Y11046815D01*
X4324705Y11054943D01*
X4312107Y11061496D01*
X4298746Y11066424D01*
X4284878Y11069574D01*
X4270756Y11070945D01*
X4256532Y11070488D01*
X4242511Y11068202D01*
X4228896Y11064138D01*
X4215892Y11058398D01*
X4203750Y11051032D01*
X4192625Y11042192D01*
X4182770Y11031982D01*
X4174286Y11020602D01*
X4167276Y11008207D01*
X4161942Y10995050D01*
X4158335Y10981283D01*
X4156557Y10967212D01*
X4156557Y10952988D01*
X4158335Y10938916D01*
X4161942Y10925149D01*
X4167276Y10911992D01*
X4174286Y10899597D01*
X4182770Y10888218D01*
X4192625Y10878007D01*
X4203750Y10869168D01*
X4215892Y10861802D01*
X4228896Y10856010D01*
X4242511Y10851997D01*
X4256532Y10849711D01*
G37*
G36*
X1438656Y10849254D02*
G01*
X1452778Y10850626D01*
X1466646Y10853775D01*
X1480007Y10858703D01*
X1492605Y10865256D01*
X1504238Y10873384D01*
X1514754Y10882934D01*
X1523949Y10893755D01*
X1531721Y10905693D01*
X1537868Y10918494D01*
X1542338Y10931956D01*
X1545082Y10945926D01*
X1545996Y10960100D01*
X1545082Y10974273D01*
X1542338Y10988243D01*
X1537868Y11001705D01*
X1531721Y11014506D01*
X1523949Y11026444D01*
X1514754Y11037265D01*
X1504238Y11046815D01*
X1492605Y11054943D01*
X1480007Y11061496D01*
X1466646Y11066424D01*
X1452778Y11069574D01*
X1438656Y11070945D01*
X1424432Y11070488D01*
X1410411Y11068202D01*
X1396796Y11064138D01*
X1383792Y11058398D01*
X1371650Y11051032D01*
X1360525Y11042192D01*
X1350670Y11031982D01*
X1342186Y11020602D01*
X1335176Y11008207D01*
X1329842Y10995050D01*
X1326235Y10981283D01*
X1324457Y10967212D01*
X1324457Y10952988D01*
X1326235Y10938916D01*
X1329842Y10925149D01*
X1335176Y10911992D01*
X1342186Y10899597D01*
X1350670Y10888218D01*
X1360525Y10878007D01*
X1371650Y10869168D01*
X1383792Y10861802D01*
X1396796Y10856010D01*
X1410411Y10851997D01*
X1424432Y10849711D01*
G37*
G36*
X5923788Y2048357D02*
G01*
X5938012Y2048357D01*
X5952083Y2050135D01*
X5965850Y2053742D01*
X5979007Y2059076D01*
X5991402Y2066086D01*
X6002782Y2074570D01*
X6012992Y2084425D01*
X6021832Y2095550D01*
X6029198Y2107692D01*
X6034938Y2120696D01*
X6039002Y2134311D01*
X6041288Y2148332D01*
X6041745Y2162556D01*
X6040374Y2176678D01*
X6037173Y2190546D01*
X6032296Y2203856D01*
X6025743Y2216454D01*
X6017564Y2228138D01*
X6008014Y2238654D01*
X5997194Y2247849D01*
X5985306Y2255621D01*
X5972505Y2261768D01*
X5959043Y2266238D01*
X5945073Y2268982D01*
X5930900Y2269896D01*
X5916726Y2268982D01*
X5902756Y2266238D01*
X5889294Y2261768D01*
X5876493Y2255621D01*
X5864555Y2247849D01*
X5853734Y2238654D01*
X5844184Y2228138D01*
X5836056Y2216505D01*
X5829096Y2203094D01*
X5826861Y2200198D01*
X5823712Y2198268D01*
X5820105Y2197608D01*
X5785408Y2197608D01*
X5781497Y2198370D01*
X5778195Y2200554D01*
X5776620Y2202180D01*
X5768594Y2207818D01*
X5759653Y2211933D01*
X5750204Y2214473D01*
X5740400Y2215337D01*
X5730595Y2214473D01*
X5721146Y2211933D01*
X5712206Y2207818D01*
X5704179Y2202180D01*
X5697220Y2195220D01*
X5691581Y2187194D01*
X5687466Y2178253D01*
X5684926Y2168804D01*
X5684062Y2159000D01*
X5684926Y2149195D01*
X5687466Y2139746D01*
X5691581Y2130806D01*
X5697220Y2122779D01*
X5704179Y2115820D01*
X5712206Y2110181D01*
X5721146Y2106066D01*
X5730595Y2103526D01*
X5740400Y2102662D01*
X5750204Y2103526D01*
X5759653Y2106066D01*
X5768594Y2110181D01*
X5776620Y2115820D01*
X5778195Y2117394D01*
X5781497Y2119630D01*
X5785358Y2120392D01*
X5820359Y2120392D01*
X5824169Y2119630D01*
X5827420Y2117547D01*
X5829655Y2114346D01*
X5832602Y2107692D01*
X5839968Y2095550D01*
X5848807Y2084425D01*
X5859018Y2074570D01*
X5870397Y2066086D01*
X5882792Y2059076D01*
X5895949Y2053742D01*
X5909716Y2050135D01*
G37*
G36*
X627888Y2048357D02*
G01*
X642112Y2048357D01*
X656183Y2050135D01*
X669950Y2053742D01*
X683107Y2059076D01*
X695502Y2066086D01*
X706882Y2074570D01*
X717092Y2084425D01*
X725932Y2095550D01*
X733298Y2107692D01*
X739089Y2120696D01*
X743102Y2134311D01*
X745388Y2148332D01*
X745845Y2162556D01*
X744474Y2176678D01*
X741324Y2190546D01*
X736396Y2203856D01*
X729843Y2216454D01*
X721715Y2228138D01*
X712165Y2238654D01*
X701344Y2247849D01*
X689406Y2255621D01*
X676605Y2261768D01*
X663143Y2266238D01*
X649173Y2268982D01*
X635000Y2269896D01*
X620826Y2268982D01*
X606856Y2266238D01*
X593394Y2261768D01*
X580593Y2255621D01*
X568706Y2247849D01*
X557885Y2238654D01*
X548335Y2228138D01*
X540207Y2216505D01*
X533247Y2203094D01*
X530961Y2200198D01*
X527812Y2198268D01*
X524205Y2197608D01*
X426008Y2197608D01*
X422097Y2198370D01*
X418795Y2200605D01*
X417220Y2202180D01*
X409194Y2207818D01*
X400253Y2211933D01*
X390804Y2214473D01*
X381000Y2215337D01*
X371195Y2214473D01*
X361746Y2211933D01*
X352806Y2207818D01*
X344779Y2202180D01*
X337820Y2195220D01*
X332181Y2187194D01*
X328066Y2178253D01*
X325526Y2168804D01*
X324662Y2159000D01*
X325526Y2149195D01*
X328066Y2139746D01*
X332181Y2130806D01*
X337820Y2122779D01*
X344779Y2115820D01*
X352806Y2110181D01*
X361746Y2106066D01*
X371195Y2103526D01*
X381000Y2102662D01*
X390804Y2103526D01*
X400253Y2106066D01*
X409194Y2110181D01*
X417220Y2115820D01*
X418795Y2117394D01*
X422097Y2119630D01*
X426008Y2120392D01*
X524459Y2120392D01*
X528269Y2119630D01*
X531520Y2117547D01*
X533755Y2114346D01*
X536702Y2107692D01*
X544068Y2095550D01*
X552907Y2084425D01*
X563118Y2074570D01*
X574497Y2066086D01*
X586892Y2059076D01*
X600049Y2053742D01*
X613816Y2050135D01*
G37*
G36*
X5491988Y2048357D02*
G01*
X5506212Y2048357D01*
X5520283Y2050135D01*
X5534050Y2053742D01*
X5547207Y2059076D01*
X5559602Y2066086D01*
X5570982Y2074570D01*
X5581192Y2084425D01*
X5590032Y2095550D01*
X5597398Y2107692D01*
X5603138Y2120696D01*
X5607202Y2134311D01*
X5609488Y2148332D01*
X5609945Y2162556D01*
X5608574Y2176678D01*
X5605424Y2190546D01*
X5600496Y2203856D01*
X5593943Y2216454D01*
X5585815Y2228138D01*
X5576214Y2238654D01*
X5565444Y2247849D01*
X5553506Y2255621D01*
X5540705Y2261768D01*
X5527243Y2266238D01*
X5513273Y2268982D01*
X5499100Y2269896D01*
X5484926Y2268982D01*
X5470956Y2266238D01*
X5457494Y2261768D01*
X5444693Y2255621D01*
X5432755Y2247849D01*
X5421934Y2238654D01*
X5412384Y2228138D01*
X5404256Y2216505D01*
X5397296Y2203094D01*
X5395061Y2200198D01*
X5391912Y2198268D01*
X5388305Y2197608D01*
X4642408Y2197608D01*
X4638497Y2198370D01*
X4635195Y2200554D01*
X4633620Y2202180D01*
X4625594Y2207818D01*
X4616653Y2211933D01*
X4607204Y2214473D01*
X4597400Y2215337D01*
X4587595Y2214473D01*
X4578146Y2211933D01*
X4569206Y2207818D01*
X4561179Y2202180D01*
X4554220Y2195220D01*
X4548581Y2187194D01*
X4544466Y2178253D01*
X4541926Y2168804D01*
X4541062Y2159000D01*
X4541926Y2149195D01*
X4544466Y2139746D01*
X4548581Y2130806D01*
X4554220Y2122779D01*
X4561179Y2115820D01*
X4569206Y2110181D01*
X4578146Y2106066D01*
X4587595Y2103526D01*
X4597400Y2102662D01*
X4607204Y2103526D01*
X4616653Y2106066D01*
X4625594Y2110181D01*
X4633620Y2115820D01*
X4635195Y2117394D01*
X4638497Y2119630D01*
X4642358Y2120392D01*
X5388559Y2120392D01*
X5392369Y2119630D01*
X5395620Y2117547D01*
X5397855Y2114346D01*
X5400802Y2107692D01*
X5408168Y2095550D01*
X5417007Y2084425D01*
X5427218Y2074570D01*
X5438597Y2066086D01*
X5450992Y2059076D01*
X5464149Y2053742D01*
X5477916Y2050135D01*
G37*
G36*
X1946656Y10849254D02*
G01*
X1960778Y10850626D01*
X1974646Y10853775D01*
X1988007Y10858703D01*
X2000605Y10865256D01*
X2012238Y10873384D01*
X2022754Y10882934D01*
X2031949Y10893755D01*
X2039721Y10905693D01*
X2045868Y10918494D01*
X2050338Y10931956D01*
X2053082Y10945926D01*
X2053996Y10960100D01*
X2053082Y10974273D01*
X2050338Y10988243D01*
X2045868Y11001705D01*
X2039721Y11014506D01*
X2031949Y11026444D01*
X2022754Y11037265D01*
X2012238Y11046815D01*
X2000605Y11054943D01*
X1988007Y11061496D01*
X1974646Y11066424D01*
X1960778Y11069574D01*
X1946656Y11070945D01*
X1932432Y11070488D01*
X1918411Y11068202D01*
X1904796Y11064138D01*
X1891792Y11058398D01*
X1879650Y11051032D01*
X1868525Y11042192D01*
X1858670Y11031982D01*
X1850186Y11020602D01*
X1843176Y11008207D01*
X1837842Y10995050D01*
X1834235Y10981283D01*
X1832457Y10967212D01*
X1832457Y10952988D01*
X1834235Y10938916D01*
X1837842Y10925149D01*
X1843176Y10911992D01*
X1850186Y10899597D01*
X1858670Y10888218D01*
X1868525Y10878007D01*
X1879650Y10869168D01*
X1891792Y10861802D01*
X1904796Y10856010D01*
X1918411Y10851997D01*
X1932432Y10849711D01*
G37*
G36*
X1438656Y10595254D02*
G01*
X1452778Y10596626D01*
X1466646Y10599775D01*
X1480007Y10604703D01*
X1492605Y10611256D01*
X1504238Y10619384D01*
X1514754Y10628934D01*
X1523949Y10639755D01*
X1531721Y10651693D01*
X1536547Y10661751D01*
X1538782Y10664799D01*
X1541983Y10666780D01*
X1545691Y10667492D01*
X1642110Y10667492D01*
X1645970Y10666730D01*
X1649272Y10664494D01*
X1650847Y10662920D01*
X1658924Y10657281D01*
X1667814Y10653166D01*
X1677314Y10650626D01*
X1687118Y10649762D01*
X1696872Y10650626D01*
X1706372Y10653166D01*
X1715262Y10657281D01*
X1723339Y10662920D01*
X1730248Y10669879D01*
X1735886Y10677906D01*
X1740052Y10686846D01*
X1742592Y10696295D01*
X1743456Y10706100D01*
X1742592Y10715904D01*
X1740052Y10725353D01*
X1735886Y10734294D01*
X1730248Y10742320D01*
X1723339Y10749280D01*
X1715262Y10754918D01*
X1706372Y10759033D01*
X1696872Y10761573D01*
X1687118Y10762437D01*
X1677314Y10761573D01*
X1667814Y10759033D01*
X1658924Y10754918D01*
X1650847Y10749280D01*
X1649272Y10747705D01*
X1645970Y10745470D01*
X1642110Y10744708D01*
X1545691Y10744708D01*
X1541983Y10745419D01*
X1538782Y10747400D01*
X1536547Y10750448D01*
X1531721Y10760506D01*
X1523949Y10772444D01*
X1514754Y10783265D01*
X1504238Y10792815D01*
X1492605Y10800943D01*
X1480007Y10807496D01*
X1466646Y10812424D01*
X1452778Y10815574D01*
X1438656Y10816945D01*
X1424432Y10816488D01*
X1410411Y10814202D01*
X1396796Y10810138D01*
X1383792Y10804398D01*
X1371650Y10797032D01*
X1360525Y10788192D01*
X1350670Y10777982D01*
X1342186Y10766602D01*
X1335176Y10754207D01*
X1329842Y10741050D01*
X1326235Y10727283D01*
X1324457Y10713212D01*
X1324457Y10698988D01*
X1326235Y10684916D01*
X1329842Y10671149D01*
X1335176Y10657992D01*
X1342186Y10645597D01*
X1350670Y10634218D01*
X1360525Y10624007D01*
X1371650Y10615168D01*
X1383792Y10607802D01*
X1396796Y10602010D01*
X1410411Y10597997D01*
X1424432Y10595711D01*
G37*
G36*
X4778756Y10595254D02*
G01*
X4792878Y10596626D01*
X4806746Y10599775D01*
X4820107Y10604703D01*
X4832705Y10611256D01*
X4844338Y10619384D01*
X4854854Y10628934D01*
X4864049Y10639755D01*
X4871821Y10651693D01*
X4877968Y10664494D01*
X4882438Y10677956D01*
X4885182Y10691926D01*
X4886096Y10706100D01*
X4885182Y10720273D01*
X4882438Y10734243D01*
X4877968Y10747705D01*
X4871821Y10760506D01*
X4864049Y10772444D01*
X4854854Y10783265D01*
X4844338Y10792815D01*
X4832705Y10800943D01*
X4820107Y10807496D01*
X4806746Y10812424D01*
X4792878Y10815574D01*
X4778756Y10816945D01*
X4764532Y10816488D01*
X4750511Y10814202D01*
X4736896Y10810138D01*
X4723892Y10804398D01*
X4711750Y10797032D01*
X4700625Y10788192D01*
X4690770Y10777982D01*
X4682286Y10766602D01*
X4675276Y10754207D01*
X4669942Y10741050D01*
X4666335Y10727283D01*
X4664557Y10713212D01*
X4664557Y10698988D01*
X4666335Y10684916D01*
X4669942Y10671149D01*
X4675276Y10657992D01*
X4682286Y10645597D01*
X4690770Y10634218D01*
X4700625Y10624007D01*
X4711750Y10615168D01*
X4723892Y10607802D01*
X4736896Y10602010D01*
X4750511Y10597997D01*
X4764532Y10595711D01*
G37*
G36*
X1946656Y10595254D02*
G01*
X1960778Y10596626D01*
X1974646Y10599775D01*
X1988007Y10604703D01*
X2000605Y10611256D01*
X2012238Y10619384D01*
X2022754Y10628934D01*
X2031949Y10639755D01*
X2039721Y10651693D01*
X2045868Y10664494D01*
X2050338Y10677956D01*
X2053082Y10691926D01*
X2053996Y10706100D01*
X2053082Y10720273D01*
X2050338Y10734243D01*
X2045868Y10747705D01*
X2039721Y10760506D01*
X2031949Y10772444D01*
X2022754Y10783265D01*
X2012238Y10792815D01*
X2000605Y10800943D01*
X1988007Y10807496D01*
X1974646Y10812424D01*
X1960778Y10815574D01*
X1946656Y10816945D01*
X1932432Y10816488D01*
X1918411Y10814202D01*
X1904796Y10810138D01*
X1891792Y10804398D01*
X1879650Y10797032D01*
X1868525Y10788192D01*
X1858670Y10777982D01*
X1850186Y10766602D01*
X1843176Y10754207D01*
X1837842Y10741050D01*
X1834235Y10727283D01*
X1832457Y10713212D01*
X1832457Y10698988D01*
X1834235Y10684916D01*
X1837842Y10671149D01*
X1843176Y10657992D01*
X1850186Y10645597D01*
X1858670Y10634218D01*
X1868525Y10624007D01*
X1879650Y10615168D01*
X1891792Y10607802D01*
X1904796Y10602010D01*
X1918411Y10597997D01*
X1932432Y10595711D01*
G37*
G36*
X457200Y10583113D02*
G01*
X457200Y10845800D01*
X194360Y10845800D01*
X196189Y10823905D01*
X200050Y10801146D01*
X205790Y10778744D01*
X213360Y10756950D01*
X222758Y10735818D01*
X233883Y10715599D01*
X246684Y10696346D01*
X261061Y10678210D01*
X276860Y10661396D01*
X294030Y10645902D01*
X312420Y10631932D01*
X331927Y10619587D01*
X352450Y10608868D01*
X373735Y10599928D01*
X395681Y10592765D01*
X418185Y10587482D01*
X441045Y10584129D01*
G37*
G36*
X5724499Y10583113D02*
G01*
X5724499Y10845800D01*
X5461609Y10845800D01*
X5463489Y10823905D01*
X5467350Y10801146D01*
X5473090Y10778744D01*
X5480659Y10756950D01*
X5490057Y10735818D01*
X5501182Y10715599D01*
X5513984Y10696346D01*
X5528360Y10678210D01*
X5544159Y10661396D01*
X5561330Y10645902D01*
X5579719Y10631932D01*
X5599226Y10619587D01*
X5619699Y10608868D01*
X5641035Y10599928D01*
X5662980Y10592765D01*
X5685485Y10587482D01*
X5708345Y10584129D01*
G37*
G36*
X627888Y2302357D02*
G01*
X642112Y2302357D01*
X656183Y2304135D01*
X669950Y2307742D01*
X683107Y2313076D01*
X695502Y2320086D01*
X706882Y2328570D01*
X717092Y2338425D01*
X725932Y2349550D01*
X733298Y2361692D01*
X739089Y2374696D01*
X743102Y2388311D01*
X745388Y2402332D01*
X745845Y2416556D01*
X744474Y2430678D01*
X741324Y2444546D01*
X736396Y2457856D01*
X729843Y2470454D01*
X721715Y2482138D01*
X712165Y2492654D01*
X701344Y2501849D01*
X689406Y2509621D01*
X676605Y2515768D01*
X663143Y2520238D01*
X649173Y2522982D01*
X635000Y2523896D01*
X620826Y2522982D01*
X606856Y2520238D01*
X593394Y2515768D01*
X580593Y2509621D01*
X568706Y2501849D01*
X557885Y2492654D01*
X548335Y2482138D01*
X540207Y2470505D01*
X533247Y2457094D01*
X530961Y2454198D01*
X527812Y2452268D01*
X524205Y2451608D01*
X299008Y2451608D01*
X295097Y2452370D01*
X291795Y2454605D01*
X290220Y2456180D01*
X282194Y2461818D01*
X273253Y2465933D01*
X263804Y2468473D01*
X254000Y2469337D01*
X244195Y2468473D01*
X234746Y2465933D01*
X225806Y2461818D01*
X217779Y2456180D01*
X210820Y2449220D01*
X205181Y2441194D01*
X201066Y2432253D01*
X198526Y2422804D01*
X197662Y2413000D01*
X198526Y2403195D01*
X201066Y2393746D01*
X205181Y2384806D01*
X210820Y2376779D01*
X217779Y2369820D01*
X225806Y2364181D01*
X234746Y2360066D01*
X244195Y2357526D01*
X254000Y2356662D01*
X263804Y2357526D01*
X273253Y2360066D01*
X282194Y2364181D01*
X290220Y2369820D01*
X291795Y2371394D01*
X295097Y2373630D01*
X299008Y2374392D01*
X524459Y2374392D01*
X528269Y2373630D01*
X531520Y2371547D01*
X533755Y2368346D01*
X536702Y2361692D01*
X544068Y2349550D01*
X552907Y2338425D01*
X563118Y2328570D01*
X574497Y2320086D01*
X586892Y2313076D01*
X600049Y2307742D01*
X613816Y2304135D01*
G37*
G36*
X5491988Y2302357D02*
G01*
X5506212Y2302357D01*
X5520283Y2304135D01*
X5534050Y2307742D01*
X5547207Y2313076D01*
X5559602Y2320086D01*
X5570982Y2328570D01*
X5581192Y2338425D01*
X5590032Y2349550D01*
X5597398Y2361692D01*
X5603138Y2374696D01*
X5607050Y2387904D01*
X5608980Y2391460D01*
X5612130Y2394000D01*
X5616041Y2395118D01*
X5620105Y2394610D01*
X5623610Y2392527D01*
X5625998Y2389276D01*
X5628081Y2384806D01*
X5633720Y2376779D01*
X5640679Y2369820D01*
X5648706Y2364181D01*
X5657646Y2360066D01*
X5667095Y2357526D01*
X5676900Y2356662D01*
X5686704Y2357526D01*
X5696153Y2360066D01*
X5705094Y2364181D01*
X5713120Y2369820D01*
X5714695Y2371394D01*
X5717997Y2373630D01*
X5721858Y2374392D01*
X5820359Y2374392D01*
X5824169Y2373630D01*
X5827420Y2371547D01*
X5829655Y2368346D01*
X5832602Y2361692D01*
X5839968Y2349550D01*
X5848807Y2338425D01*
X5859018Y2328570D01*
X5870397Y2320086D01*
X5882792Y2313076D01*
X5895949Y2307742D01*
X5909716Y2304135D01*
X5923788Y2302357D01*
X5938012Y2302357D01*
X5952083Y2304135D01*
X5965850Y2307742D01*
X5979007Y2313076D01*
X5991402Y2320086D01*
X6002782Y2328570D01*
X6012992Y2338425D01*
X6021832Y2349550D01*
X6029198Y2361692D01*
X6034938Y2374696D01*
X6039002Y2388311D01*
X6041288Y2402332D01*
X6041745Y2416556D01*
X6040374Y2430678D01*
X6037173Y2444546D01*
X6032296Y2457856D01*
X6025743Y2470454D01*
X6017564Y2482138D01*
X6008014Y2492654D01*
X5997194Y2501849D01*
X5985306Y2509621D01*
X5972505Y2515768D01*
X5959043Y2520238D01*
X5945073Y2522982D01*
X5930900Y2523896D01*
X5916726Y2522982D01*
X5902756Y2520238D01*
X5889294Y2515768D01*
X5876493Y2509621D01*
X5864555Y2501849D01*
X5853734Y2492654D01*
X5844184Y2482138D01*
X5836056Y2470505D01*
X5829096Y2457094D01*
X5826861Y2454198D01*
X5823712Y2452268D01*
X5820105Y2451608D01*
X5721908Y2451608D01*
X5717997Y2452370D01*
X5714695Y2454554D01*
X5713120Y2456180D01*
X5705094Y2461818D01*
X5696153Y2465933D01*
X5686704Y2468473D01*
X5676900Y2469337D01*
X5667095Y2468473D01*
X5657646Y2465933D01*
X5648706Y2461818D01*
X5640679Y2456180D01*
X5633720Y2449220D01*
X5628081Y2441194D01*
X5625896Y2436469D01*
X5623407Y2433116D01*
X5619750Y2431084D01*
X5615635Y2430627D01*
X5611622Y2431948D01*
X5608523Y2434691D01*
X5606796Y2438501D01*
X5605424Y2444546D01*
X5600496Y2457856D01*
X5593943Y2470454D01*
X5585815Y2482138D01*
X5576214Y2492654D01*
X5565444Y2501849D01*
X5553506Y2509621D01*
X5540705Y2515768D01*
X5527243Y2520238D01*
X5513273Y2522982D01*
X5499100Y2523896D01*
X5484926Y2522982D01*
X5470956Y2520238D01*
X5457494Y2515768D01*
X5444693Y2509621D01*
X5432755Y2501849D01*
X5421934Y2492654D01*
X5412384Y2482138D01*
X5404256Y2470505D01*
X5397347Y2457094D01*
X5395061Y2454198D01*
X5391912Y2452268D01*
X5388305Y2451608D01*
X4578908Y2451608D01*
X4574997Y2452370D01*
X4571695Y2454605D01*
X4570120Y2456180D01*
X4562094Y2461818D01*
X4553153Y2465933D01*
X4543704Y2468473D01*
X4533900Y2469337D01*
X4524095Y2468473D01*
X4514646Y2465933D01*
X4505706Y2461818D01*
X4497679Y2456180D01*
X4490720Y2449220D01*
X4485081Y2441194D01*
X4480966Y2432253D01*
X4478426Y2422804D01*
X4477562Y2413000D01*
X4478426Y2403195D01*
X4480966Y2393746D01*
X4485081Y2384806D01*
X4490720Y2376779D01*
X4497679Y2369820D01*
X4505706Y2364181D01*
X4514646Y2360066D01*
X4524095Y2357526D01*
X4533900Y2356662D01*
X4543704Y2357526D01*
X4553153Y2360066D01*
X4562094Y2364181D01*
X4570120Y2369820D01*
X4571695Y2371394D01*
X4574997Y2373630D01*
X4578908Y2374392D01*
X5388559Y2374392D01*
X5392369Y2373630D01*
X5395620Y2371547D01*
X5397855Y2368346D01*
X5400802Y2361692D01*
X5408168Y2349550D01*
X5417007Y2338425D01*
X5427218Y2328570D01*
X5438597Y2320086D01*
X5450992Y2313076D01*
X5464149Y2307742D01*
X5477916Y2304135D01*
G37*
G36*
X482600Y10583062D02*
G01*
X487222Y10583164D01*
X510184Y10585551D01*
X532892Y10589869D01*
X555142Y10596118D01*
X576834Y10604144D01*
X597712Y10613999D01*
X617728Y10625531D01*
X636727Y10638739D01*
X654507Y10653471D01*
X671017Y10669625D01*
X686104Y10687100D01*
X699719Y10705795D01*
X711657Y10725607D01*
X721969Y10746282D01*
X730453Y10767771D01*
X737108Y10789869D01*
X741934Y10812475D01*
X744829Y10835436D01*
X745286Y10845800D01*
X482600Y10845800D01*
G37*
G36*
X5749899Y10583062D02*
G01*
X5754522Y10583164D01*
X5777484Y10585551D01*
X5800191Y10589869D01*
X5822442Y10596118D01*
X5844133Y10604144D01*
X5865012Y10613999D01*
X5885027Y10625531D01*
X5904026Y10638739D01*
X5921806Y10653471D01*
X5938316Y10669625D01*
X5953404Y10687100D01*
X5967018Y10705795D01*
X5978956Y10725607D01*
X5989218Y10746282D01*
X5997752Y10767771D01*
X6004407Y10789869D01*
X6009233Y10812475D01*
X6012129Y10835436D01*
X6012535Y10845800D01*
X5749899Y10845800D01*
G37*
G36*
X2933395Y10241686D02*
G01*
X3027273Y10241686D01*
X3033623Y10242397D01*
X3039059Y10244328D01*
X3043986Y10247376D01*
X3048050Y10251490D01*
X3051149Y10256367D01*
X3053029Y10261854D01*
X3053740Y10268153D01*
X3053740Y10382046D01*
X3053029Y10388346D01*
X3051149Y10393832D01*
X3048050Y10398709D01*
X3043986Y10402824D01*
X3039059Y10405872D01*
X3033623Y10407802D01*
X3027273Y10408513D01*
X2933395Y10408513D01*
X2927096Y10407802D01*
X2921660Y10405872D01*
X2916732Y10402824D01*
X2912668Y10398709D01*
X2909570Y10393832D01*
X2907639Y10388346D01*
X2906928Y10382046D01*
X2906928Y10373868D01*
X2906166Y10369956D01*
X2903982Y10366705D01*
X2900680Y10364470D01*
X2896768Y10363708D01*
X2635808Y10363708D01*
X2631897Y10364470D01*
X2628595Y10366705D01*
X2627020Y10368280D01*
X2618994Y10373918D01*
X2610053Y10378033D01*
X2600604Y10380573D01*
X2590800Y10381437D01*
X2580995Y10380573D01*
X2571546Y10378033D01*
X2562606Y10373918D01*
X2554579Y10368280D01*
X2547620Y10361320D01*
X2541981Y10353294D01*
X2537866Y10344353D01*
X2535326Y10334904D01*
X2534462Y10325100D01*
X2535326Y10315295D01*
X2537866Y10305846D01*
X2541981Y10296906D01*
X2547620Y10288879D01*
X2554579Y10281920D01*
X2562606Y10276281D01*
X2571546Y10272166D01*
X2580995Y10269626D01*
X2590800Y10268762D01*
X2600604Y10269626D01*
X2610053Y10272166D01*
X2618994Y10276281D01*
X2627020Y10281920D01*
X2628595Y10283494D01*
X2631897Y10285730D01*
X2635808Y10286492D01*
X2896768Y10286492D01*
X2900680Y10285730D01*
X2903982Y10283494D01*
X2906166Y10280243D01*
X2906928Y10276332D01*
X2906928Y10268153D01*
X2907639Y10261854D01*
X2909570Y10256367D01*
X2912668Y10251490D01*
X2916732Y10247376D01*
X2921660Y10244328D01*
X2927096Y10242397D01*
G37*
G36*
X1687118Y10174224D02*
G01*
X1703984Y10175138D01*
X1720697Y10177983D01*
X1736953Y10182656D01*
X1752549Y10189159D01*
X1767382Y10197338D01*
X1781200Y10207142D01*
X1793798Y10218420D01*
X1805076Y10231018D01*
X1814880Y10244836D01*
X1823059Y10259618D01*
X1829511Y10275265D01*
X1830628Y10279126D01*
X1832711Y10282936D01*
X1836166Y10285577D01*
X1840382Y10286492D01*
X1879092Y10286492D01*
X1887118Y10287304D01*
X1894332Y10289489D01*
X1901037Y10293045D01*
X1907235Y10298176D01*
X2273604Y10664494D01*
X2276906Y10666730D01*
X2280818Y10667492D01*
X2919882Y10667492D01*
X2923844Y10666679D01*
X2927146Y10664393D01*
X2929331Y10660989D01*
X2930042Y10657027D01*
X2929077Y10653064D01*
X2926689Y10649813D01*
X2923235Y10647730D01*
X2921660Y10647172D01*
X2916732Y10644124D01*
X2912668Y10640009D01*
X2909570Y10635132D01*
X2907639Y10629646D01*
X2906928Y10623346D01*
X2906928Y10615168D01*
X2906166Y10611256D01*
X2903982Y10608005D01*
X2900680Y10605770D01*
X2896768Y10605008D01*
X2572308Y10605008D01*
X2568397Y10605770D01*
X2565095Y10608005D01*
X2563520Y10609580D01*
X2555494Y10615218D01*
X2546553Y10619333D01*
X2537104Y10621873D01*
X2527300Y10622737D01*
X2517495Y10621873D01*
X2508046Y10619333D01*
X2499106Y10615218D01*
X2491079Y10609580D01*
X2484120Y10602620D01*
X2478481Y10594594D01*
X2474366Y10585653D01*
X2471826Y10576204D01*
X2470962Y10566400D01*
X2471826Y10556595D01*
X2474366Y10547146D01*
X2478481Y10538206D01*
X2484120Y10530179D01*
X2491079Y10523220D01*
X2499106Y10517581D01*
X2508046Y10513466D01*
X2517495Y10510926D01*
X2527300Y10510062D01*
X2537104Y10510926D01*
X2546553Y10513466D01*
X2555494Y10517581D01*
X2563520Y10523220D01*
X2565095Y10524794D01*
X2568397Y10527030D01*
X2572308Y10527792D01*
X2896768Y10527792D01*
X2900680Y10527030D01*
X2903982Y10524794D01*
X2906166Y10521543D01*
X2906928Y10517632D01*
X2906928Y10509453D01*
X2907639Y10503154D01*
X2909570Y10497667D01*
X2912668Y10492790D01*
X2916732Y10488676D01*
X2921660Y10485628D01*
X2927096Y10483697D01*
X2933395Y10482986D01*
X3027273Y10482986D01*
X3033623Y10483697D01*
X3039059Y10485628D01*
X3043986Y10488676D01*
X3048050Y10492790D01*
X3051149Y10497667D01*
X3053029Y10503154D01*
X3053740Y10509453D01*
X3053740Y10623346D01*
X3053029Y10629646D01*
X3051149Y10635132D01*
X3048050Y10640009D01*
X3043986Y10644124D01*
X3039059Y10647172D01*
X3037484Y10647730D01*
X3033979Y10649813D01*
X3031591Y10653064D01*
X3030677Y10657027D01*
X3031337Y10660989D01*
X3033522Y10664393D01*
X3036874Y10666679D01*
X3040837Y10667492D01*
X3258362Y10667492D01*
X3262325Y10666679D01*
X3265678Y10664393D01*
X3267862Y10660989D01*
X3268522Y10657027D01*
X3267608Y10653064D01*
X3265220Y10649813D01*
X3261715Y10647730D01*
X3260140Y10647172D01*
X3255213Y10644124D01*
X3251149Y10640009D01*
X3248050Y10635132D01*
X3246170Y10629646D01*
X3245459Y10623346D01*
X3245459Y10509453D01*
X3246170Y10503154D01*
X3248050Y10497667D01*
X3251149Y10492790D01*
X3255213Y10488676D01*
X3260140Y10485628D01*
X3265576Y10483697D01*
X3271926Y10482986D01*
X3365804Y10482986D01*
X3372104Y10483697D01*
X3377539Y10485628D01*
X3382467Y10488676D01*
X3386531Y10492790D01*
X3389629Y10497667D01*
X3391560Y10503154D01*
X3392271Y10509453D01*
X3392271Y10517581D01*
X3393033Y10521492D01*
X3395218Y10524794D01*
X3398520Y10526979D01*
X3402431Y10527741D01*
X3409391Y10527741D01*
X3413302Y10526979D01*
X3416604Y10524794D01*
X3418179Y10523220D01*
X3426206Y10517581D01*
X3435146Y10513415D01*
X3444595Y10510875D01*
X3454400Y10510012D01*
X3464204Y10510875D01*
X3473653Y10513415D01*
X3482594Y10517581D01*
X3490620Y10523220D01*
X3497579Y10530128D01*
X3503218Y10538206D01*
X3507333Y10547096D01*
X3509873Y10556595D01*
X3510737Y10566349D01*
X3509873Y10576153D01*
X3507333Y10585653D01*
X3503218Y10594543D01*
X3497579Y10602620D01*
X3490620Y10609529D01*
X3482594Y10615168D01*
X3473653Y10619333D01*
X3464204Y10621873D01*
X3454400Y10622737D01*
X3444595Y10621873D01*
X3435146Y10619333D01*
X3426206Y10615168D01*
X3418179Y10609529D01*
X3416604Y10607954D01*
X3413302Y10605770D01*
X3409391Y10604957D01*
X3402431Y10604957D01*
X3398520Y10605770D01*
X3395218Y10607954D01*
X3393033Y10611256D01*
X3392271Y10615117D01*
X3392271Y10623346D01*
X3391560Y10629646D01*
X3389629Y10635132D01*
X3386531Y10640009D01*
X3382467Y10644124D01*
X3377539Y10647172D01*
X3375964Y10647730D01*
X3372510Y10649813D01*
X3370122Y10653064D01*
X3369157Y10657027D01*
X3369868Y10660989D01*
X3372053Y10664393D01*
X3375355Y10666679D01*
X3379317Y10667492D01*
X4156608Y10667492D01*
X4160520Y10666730D01*
X4163822Y10664494D01*
X4166006Y10661142D01*
X4167276Y10657992D01*
X4174286Y10645597D01*
X4182770Y10634218D01*
X4192625Y10624007D01*
X4203750Y10615168D01*
X4215892Y10607802D01*
X4228896Y10602010D01*
X4242511Y10597997D01*
X4256532Y10595711D01*
X4270756Y10595254D01*
X4284878Y10596626D01*
X4298746Y10599775D01*
X4312107Y10604703D01*
X4324705Y10611256D01*
X4336338Y10619384D01*
X4346854Y10628934D01*
X4356049Y10639755D01*
X4363821Y10651693D01*
X4368647Y10661751D01*
X4370882Y10664799D01*
X4374083Y10666780D01*
X4377791Y10667492D01*
X4474210Y10667492D01*
X4478070Y10666730D01*
X4481372Y10664494D01*
X4482947Y10662920D01*
X4491024Y10657281D01*
X4499914Y10653166D01*
X4509414Y10650626D01*
X4519218Y10649762D01*
X4528972Y10650626D01*
X4538472Y10653166D01*
X4547362Y10657281D01*
X4555439Y10662920D01*
X4562348Y10669879D01*
X4567986Y10677906D01*
X4572152Y10686846D01*
X4574692Y10696295D01*
X4575556Y10706100D01*
X4574692Y10715904D01*
X4572152Y10725353D01*
X4567986Y10734294D01*
X4562348Y10742320D01*
X4555439Y10749280D01*
X4547362Y10754918D01*
X4538472Y10759033D01*
X4528972Y10761573D01*
X4519218Y10762437D01*
X4509414Y10761573D01*
X4499914Y10759033D01*
X4491024Y10754918D01*
X4482947Y10749280D01*
X4481372Y10747705D01*
X4478070Y10745470D01*
X4474210Y10744708D01*
X4377791Y10744708D01*
X4374083Y10745419D01*
X4370882Y10747400D01*
X4368647Y10750448D01*
X4363821Y10760506D01*
X4356049Y10772444D01*
X4346854Y10783265D01*
X4336338Y10792815D01*
X4324705Y10800943D01*
X4312107Y10807496D01*
X4298746Y10812424D01*
X4284878Y10815574D01*
X4270756Y10816945D01*
X4256532Y10816488D01*
X4242511Y10814202D01*
X4228896Y10810138D01*
X4215892Y10804398D01*
X4203750Y10797032D01*
X4192625Y10788192D01*
X4182770Y10777982D01*
X4174286Y10766602D01*
X4167276Y10754207D01*
X4166006Y10751058D01*
X4163822Y10747705D01*
X4160520Y10745470D01*
X4156608Y10744708D01*
X2261108Y10744708D01*
X2253081Y10743895D01*
X2245868Y10741710D01*
X2239162Y10738154D01*
X2232964Y10733024D01*
X1866595Y10366705D01*
X1863293Y10364470D01*
X1859381Y10363708D01*
X1840382Y10363708D01*
X1836166Y10364622D01*
X1832711Y10367264D01*
X1830628Y10371074D01*
X1829511Y10374934D01*
X1823059Y10390581D01*
X1814880Y10405364D01*
X1805076Y10419181D01*
X1793798Y10431780D01*
X1781200Y10443057D01*
X1767382Y10452862D01*
X1752549Y10461040D01*
X1736953Y10467543D01*
X1720697Y10472216D01*
X1703984Y10475061D01*
X1687118Y10475976D01*
X1670202Y10475061D01*
X1653539Y10472216D01*
X1637283Y10467543D01*
X1621637Y10461040D01*
X1606804Y10452862D01*
X1593037Y10443057D01*
X1580388Y10431780D01*
X1569110Y10419181D01*
X1559356Y10405364D01*
X1551127Y10390581D01*
X1544675Y10374934D01*
X1540002Y10358678D01*
X1537157Y10342016D01*
X1536192Y10325100D01*
X1537157Y10308183D01*
X1540002Y10291521D01*
X1544675Y10275265D01*
X1551127Y10259618D01*
X1559356Y10244836D01*
X1569110Y10231018D01*
X1580388Y10218420D01*
X1593037Y10207142D01*
X1606804Y10197338D01*
X1621637Y10189159D01*
X1637283Y10182656D01*
X1653539Y10177983D01*
X1670202Y10175138D01*
G37*
G36*
X4519218Y10174224D02*
G01*
X4536084Y10175138D01*
X4552797Y10177983D01*
X4569053Y10182656D01*
X4584649Y10189159D01*
X4599482Y10197338D01*
X4613300Y10207142D01*
X4625898Y10218420D01*
X4637176Y10231018D01*
X4646980Y10244836D01*
X4655159Y10259618D01*
X4661611Y10275265D01*
X4662728Y10279126D01*
X4664811Y10282936D01*
X4668266Y10285577D01*
X4672482Y10286492D01*
X4711192Y10286492D01*
X4719218Y10287304D01*
X4726432Y10289489D01*
X4733137Y10293045D01*
X4739335Y10298176D01*
X4915204Y10473994D01*
X4918506Y10476179D01*
X4922367Y10476992D01*
X4953152Y10476992D01*
X4957470Y10476026D01*
X4960975Y10473283D01*
X4963007Y10469372D01*
X4963160Y10464901D01*
X4961382Y10460837D01*
X4958080Y10457942D01*
X4948936Y10452862D01*
X4935118Y10443057D01*
X4922520Y10431780D01*
X4911242Y10419181D01*
X4901438Y10405364D01*
X4893259Y10390581D01*
X4886756Y10374934D01*
X4882083Y10358678D01*
X4879238Y10342016D01*
X4878324Y10325100D01*
X4879238Y10308183D01*
X4882083Y10291521D01*
X4886756Y10275265D01*
X4893259Y10259618D01*
X4901438Y10244836D01*
X4911242Y10231018D01*
X4922520Y10218420D01*
X4935118Y10207142D01*
X4948936Y10197338D01*
X4963718Y10189159D01*
X4979365Y10182656D01*
X4995621Y10177983D01*
X5012283Y10175138D01*
X5029200Y10174224D01*
X5046116Y10175138D01*
X5062778Y10177983D01*
X5079034Y10182656D01*
X5094681Y10189159D01*
X5109464Y10197338D01*
X5123281Y10207142D01*
X5135880Y10218420D01*
X5147157Y10231018D01*
X5156962Y10244836D01*
X5165140Y10259618D01*
X5171643Y10275265D01*
X5176316Y10291521D01*
X5179161Y10308183D01*
X5180076Y10325100D01*
X5179161Y10342016D01*
X5176316Y10358678D01*
X5171643Y10374934D01*
X5165140Y10390581D01*
X5156962Y10405364D01*
X5147157Y10419181D01*
X5135880Y10431780D01*
X5123281Y10443057D01*
X5109464Y10452862D01*
X5100320Y10457942D01*
X5097018Y10460837D01*
X5095240Y10464901D01*
X5095392Y10469372D01*
X5097424Y10473283D01*
X5100929Y10476026D01*
X5105247Y10476992D01*
X5885891Y10476992D01*
X5889802Y10476179D01*
X5893104Y10473994D01*
X5894679Y10472420D01*
X5902706Y10466781D01*
X5911646Y10462615D01*
X5921095Y10460075D01*
X5930900Y10459212D01*
X5940704Y10460075D01*
X5950153Y10462615D01*
X5959094Y10466781D01*
X5967120Y10472420D01*
X5974080Y10479328D01*
X5979718Y10487406D01*
X5983833Y10496296D01*
X5986373Y10505795D01*
X5987237Y10515549D01*
X5986373Y10525353D01*
X5983833Y10534853D01*
X5979718Y10543743D01*
X5974080Y10551820D01*
X5967120Y10558729D01*
X5959094Y10564368D01*
X5950153Y10568533D01*
X5940704Y10571073D01*
X5930900Y10571937D01*
X5921095Y10571073D01*
X5911646Y10568533D01*
X5902706Y10564368D01*
X5894679Y10558729D01*
X5893104Y10557154D01*
X5889802Y10554970D01*
X5885942Y10554208D01*
X4902708Y10554208D01*
X4894681Y10553395D01*
X4887417Y10551210D01*
X4880762Y10547654D01*
X4874514Y10542524D01*
X4698695Y10366705D01*
X4695393Y10364470D01*
X4691481Y10363708D01*
X4672482Y10363708D01*
X4668266Y10364622D01*
X4664811Y10367264D01*
X4662728Y10371074D01*
X4661611Y10374934D01*
X4655159Y10390581D01*
X4646980Y10405364D01*
X4637176Y10419181D01*
X4625898Y10431780D01*
X4613300Y10443057D01*
X4599482Y10452862D01*
X4584649Y10461040D01*
X4569053Y10467543D01*
X4552797Y10472216D01*
X4536084Y10475061D01*
X4519218Y10475976D01*
X4502302Y10475061D01*
X4485640Y10472216D01*
X4469384Y10467543D01*
X4453737Y10461040D01*
X4438904Y10452862D01*
X4425137Y10443057D01*
X4412488Y10431780D01*
X4401210Y10419181D01*
X4391456Y10405364D01*
X4383227Y10390581D01*
X4376775Y10374934D01*
X4372102Y10358678D01*
X4369257Y10342016D01*
X4368292Y10325100D01*
X4369257Y10308183D01*
X4372102Y10291521D01*
X4376775Y10275265D01*
X4383227Y10259618D01*
X4391456Y10244836D01*
X4401210Y10231018D01*
X4412488Y10218420D01*
X4425137Y10207142D01*
X4438904Y10197338D01*
X4453737Y10189159D01*
X4469384Y10182656D01*
X4485640Y10177983D01*
X4502302Y10175138D01*
G37*
G36*
X4011218Y10174224D02*
G01*
X4028084Y10175138D01*
X4044797Y10177983D01*
X4061053Y10182656D01*
X4076649Y10189159D01*
X4091482Y10197338D01*
X4105300Y10207142D01*
X4117898Y10218420D01*
X4129176Y10231018D01*
X4138980Y10244836D01*
X4147159Y10259618D01*
X4153611Y10275265D01*
X4158284Y10291521D01*
X4161129Y10308183D01*
X4162094Y10325100D01*
X4161129Y10342016D01*
X4158284Y10358678D01*
X4153611Y10374934D01*
X4147159Y10390581D01*
X4138980Y10405364D01*
X4129176Y10419181D01*
X4117898Y10431780D01*
X4105300Y10443057D01*
X4091482Y10452862D01*
X4076649Y10461040D01*
X4061053Y10467543D01*
X4044797Y10472216D01*
X4028084Y10475061D01*
X4011218Y10475976D01*
X3994302Y10475061D01*
X3977640Y10472216D01*
X3961384Y10467543D01*
X3945737Y10461040D01*
X3930904Y10452862D01*
X3917137Y10443057D01*
X3904487Y10431780D01*
X3893210Y10419181D01*
X3883456Y10405364D01*
X3875227Y10390581D01*
X3868775Y10374934D01*
X3867658Y10371074D01*
X3865575Y10367264D01*
X3862120Y10364622D01*
X3857904Y10363708D01*
X3402431Y10363708D01*
X3398520Y10364470D01*
X3395218Y10366705D01*
X3393033Y10369956D01*
X3392271Y10373868D01*
X3392271Y10382046D01*
X3391560Y10388346D01*
X3389629Y10393832D01*
X3386531Y10398709D01*
X3382467Y10402824D01*
X3377539Y10405872D01*
X3372104Y10407802D01*
X3365804Y10408513D01*
X3271926Y10408513D01*
X3265576Y10407802D01*
X3260140Y10405872D01*
X3255213Y10402824D01*
X3251149Y10398709D01*
X3248050Y10393832D01*
X3246170Y10388346D01*
X3245459Y10382046D01*
X3245459Y10268153D01*
X3246170Y10261854D01*
X3248050Y10256367D01*
X3251149Y10251490D01*
X3255213Y10247376D01*
X3260140Y10244328D01*
X3265576Y10242397D01*
X3271926Y10241686D01*
X3365804Y10241686D01*
X3372104Y10242397D01*
X3377539Y10244328D01*
X3382467Y10247376D01*
X3386531Y10251490D01*
X3389629Y10256367D01*
X3391560Y10261854D01*
X3392271Y10268153D01*
X3392271Y10276332D01*
X3393033Y10280243D01*
X3395218Y10283494D01*
X3398520Y10285730D01*
X3402431Y10286492D01*
X3857904Y10286492D01*
X3862120Y10285577D01*
X3865575Y10282936D01*
X3867658Y10279126D01*
X3868775Y10275265D01*
X3875227Y10259618D01*
X3883456Y10244836D01*
X3893210Y10231018D01*
X3904487Y10218420D01*
X3917137Y10207142D01*
X3930904Y10197338D01*
X3945737Y10189159D01*
X3961384Y10182656D01*
X3977640Y10177983D01*
X3994302Y10175138D01*
G37*
G36*
X2197100Y10174224D02*
G01*
X2214016Y10175138D01*
X2230678Y10177983D01*
X2246934Y10182656D01*
X2262581Y10189159D01*
X2277364Y10197338D01*
X2291181Y10207142D01*
X2303780Y10218420D01*
X2315057Y10231018D01*
X2324862Y10244836D01*
X2333040Y10259618D01*
X2339543Y10275265D01*
X2344216Y10291521D01*
X2347061Y10308183D01*
X2347976Y10325100D01*
X2347061Y10342016D01*
X2344216Y10358678D01*
X2339543Y10374934D01*
X2333040Y10390581D01*
X2324862Y10405364D01*
X2315057Y10419181D01*
X2303780Y10431780D01*
X2291181Y10443057D01*
X2277364Y10452862D01*
X2262581Y10461040D01*
X2246934Y10467543D01*
X2230678Y10472216D01*
X2214016Y10475061D01*
X2197100Y10475976D01*
X2180183Y10475061D01*
X2163521Y10472216D01*
X2147265Y10467543D01*
X2131618Y10461040D01*
X2116836Y10452862D01*
X2103018Y10443057D01*
X2090420Y10431780D01*
X2079142Y10419181D01*
X2069338Y10405364D01*
X2061159Y10390581D01*
X2054656Y10374934D01*
X2049983Y10358678D01*
X2047138Y10342016D01*
X2046224Y10325100D01*
X2047138Y10308183D01*
X2049983Y10291521D01*
X2054656Y10275265D01*
X2061159Y10259618D01*
X2069338Y10244836D01*
X2079142Y10231018D01*
X2090420Y10218420D01*
X2103018Y10207142D01*
X2116836Y10197338D01*
X2131618Y10189159D01*
X2147265Y10182656D01*
X2163521Y10177983D01*
X2180183Y10175138D01*
G37*
G36*
X1179118Y10174224D02*
G01*
X1195984Y10175138D01*
X1212697Y10177983D01*
X1228953Y10182656D01*
X1244549Y10189159D01*
X1259382Y10197338D01*
X1273200Y10207142D01*
X1285798Y10218420D01*
X1297076Y10231018D01*
X1306880Y10244836D01*
X1315059Y10259618D01*
X1321511Y10275265D01*
X1326184Y10291521D01*
X1329029Y10308183D01*
X1329994Y10325100D01*
X1329029Y10342016D01*
X1326184Y10358678D01*
X1321511Y10374934D01*
X1315059Y10390581D01*
X1306880Y10405364D01*
X1297076Y10419181D01*
X1285798Y10431780D01*
X1273200Y10443057D01*
X1259382Y10452862D01*
X1244549Y10461040D01*
X1228953Y10467543D01*
X1212697Y10472216D01*
X1195984Y10475061D01*
X1179118Y10475976D01*
X1162202Y10475061D01*
X1145540Y10472216D01*
X1129284Y10467543D01*
X1113637Y10461040D01*
X1098804Y10452862D01*
X1085037Y10443057D01*
X1072388Y10431780D01*
X1061110Y10419181D01*
X1051356Y10405364D01*
X1043127Y10390581D01*
X1036675Y10374934D01*
X1032002Y10358678D01*
X1029157Y10342016D01*
X1028192Y10325100D01*
X1029157Y10308183D01*
X1032002Y10291521D01*
X1036675Y10275265D01*
X1043127Y10259618D01*
X1051356Y10244836D01*
X1061110Y10231018D01*
X1072388Y10218420D01*
X1085037Y10207142D01*
X1098804Y10197338D01*
X1113637Y10189159D01*
X1129284Y10182656D01*
X1145540Y10177983D01*
X1162202Y10175138D01*
G37*
G36*
X5491988Y2556357D02*
G01*
X5506212Y2556357D01*
X5520283Y2558135D01*
X5534050Y2561742D01*
X5547207Y2567076D01*
X5559602Y2574086D01*
X5570982Y2582570D01*
X5581192Y2592425D01*
X5590032Y2603550D01*
X5597398Y2615692D01*
X5603138Y2628696D01*
X5607202Y2642311D01*
X5609488Y2656332D01*
X5609945Y2670556D01*
X5608574Y2684678D01*
X5605424Y2698546D01*
X5600649Y2711551D01*
X5599988Y2715514D01*
X5601004Y2719476D01*
X5603494Y2722676D01*
X5606999Y2724708D01*
X5611622Y2725115D01*
X5615025Y2724200D01*
X5617921Y2722168D01*
X5700064Y2640076D01*
X5706262Y2634945D01*
X5712968Y2631389D01*
X5720181Y2629204D01*
X5728208Y2628392D01*
X5820359Y2628392D01*
X5824169Y2627630D01*
X5827420Y2625547D01*
X5829655Y2622346D01*
X5832602Y2615692D01*
X5839968Y2603550D01*
X5848807Y2592425D01*
X5859018Y2582570D01*
X5870397Y2574086D01*
X5882792Y2567076D01*
X5895949Y2561742D01*
X5909716Y2558135D01*
X5923788Y2556357D01*
X5938012Y2556357D01*
X5952083Y2558135D01*
X5965850Y2561742D01*
X5979007Y2567076D01*
X5991402Y2574086D01*
X6002782Y2582570D01*
X6012992Y2592425D01*
X6021832Y2603550D01*
X6029198Y2615692D01*
X6034938Y2628696D01*
X6039002Y2642311D01*
X6041288Y2656332D01*
X6041745Y2670556D01*
X6040374Y2684678D01*
X6037173Y2698546D01*
X6032296Y2711856D01*
X6025743Y2724454D01*
X6017564Y2736138D01*
X6008014Y2746654D01*
X5997194Y2755849D01*
X5985306Y2763621D01*
X5972505Y2769768D01*
X5959043Y2774238D01*
X5945073Y2776982D01*
X5930900Y2777896D01*
X5916726Y2776982D01*
X5902756Y2774238D01*
X5889294Y2769768D01*
X5876493Y2763621D01*
X5864555Y2755849D01*
X5853734Y2746654D01*
X5844184Y2736138D01*
X5836056Y2724505D01*
X5829096Y2711094D01*
X5826861Y2708198D01*
X5823712Y2706268D01*
X5820105Y2705608D01*
X5747918Y2705608D01*
X5744006Y2706370D01*
X5740704Y2708605D01*
X5672531Y2776778D01*
X5670499Y2779674D01*
X5669584Y2783078D01*
X5668873Y2791104D01*
X5666333Y2800553D01*
X5662218Y2809494D01*
X5656580Y2817520D01*
X5649620Y2824480D01*
X5641594Y2830118D01*
X5632653Y2834233D01*
X5623204Y2836773D01*
X5613400Y2837637D01*
X5603595Y2836773D01*
X5594146Y2834233D01*
X5585206Y2830118D01*
X5577179Y2824480D01*
X5570220Y2817520D01*
X5564581Y2809494D01*
X5560466Y2800553D01*
X5557926Y2791104D01*
X5557062Y2781300D01*
X5557266Y2778861D01*
X5556758Y2774645D01*
X5554522Y2770987D01*
X5551068Y2768549D01*
X5546852Y2767787D01*
X5542737Y2768803D01*
X5540705Y2769768D01*
X5527243Y2774238D01*
X5513273Y2776982D01*
X5499100Y2777896D01*
X5484926Y2776982D01*
X5470956Y2774238D01*
X5457494Y2769768D01*
X5444693Y2763621D01*
X5432755Y2755849D01*
X5421934Y2746654D01*
X5412384Y2736138D01*
X5404256Y2724505D01*
X5397347Y2711094D01*
X5395061Y2708198D01*
X5391912Y2706268D01*
X5388305Y2705608D01*
X4515408Y2705608D01*
X4511497Y2706370D01*
X4508195Y2708605D01*
X4506620Y2710180D01*
X4498594Y2715818D01*
X4489653Y2719933D01*
X4480204Y2722473D01*
X4470400Y2723337D01*
X4460595Y2722473D01*
X4451146Y2719933D01*
X4442206Y2715818D01*
X4434179Y2710180D01*
X4427220Y2703220D01*
X4421581Y2695194D01*
X4417466Y2686253D01*
X4414926Y2676804D01*
X4414062Y2667000D01*
X4414926Y2657195D01*
X4417466Y2647746D01*
X4421581Y2638806D01*
X4427220Y2630779D01*
X4434179Y2623820D01*
X4442206Y2618181D01*
X4451146Y2614066D01*
X4460595Y2611526D01*
X4470400Y2610662D01*
X4480204Y2611526D01*
X4489653Y2614066D01*
X4498594Y2618181D01*
X4506620Y2623820D01*
X4508195Y2625394D01*
X4511497Y2627630D01*
X4515408Y2628392D01*
X5388559Y2628392D01*
X5392369Y2627630D01*
X5395620Y2625547D01*
X5397855Y2622346D01*
X5400802Y2615692D01*
X5408168Y2603550D01*
X5417007Y2592425D01*
X5427218Y2582570D01*
X5438597Y2574086D01*
X5450992Y2567076D01*
X5464149Y2561742D01*
X5477916Y2558135D01*
G37*
G36*
X715060Y9555988D02*
G01*
X977900Y9555988D01*
X977900Y9818725D01*
X961745Y9817709D01*
X938885Y9814306D01*
X916381Y9809022D01*
X894435Y9801910D01*
X873150Y9792970D01*
X852627Y9782251D01*
X833119Y9769856D01*
X814730Y9755886D01*
X797560Y9740442D01*
X781761Y9723577D01*
X767384Y9705492D01*
X754583Y9686239D01*
X743458Y9665970D01*
X734060Y9644888D01*
X726490Y9623044D01*
X720750Y9600692D01*
X716889Y9577882D01*
G37*
G36*
X1003300Y9555988D02*
G01*
X1265986Y9555988D01*
X1265529Y9566402D01*
X1262634Y9589312D01*
X1257808Y9611918D01*
X1251153Y9634016D01*
X1242669Y9655505D01*
X1232357Y9676231D01*
X1220419Y9695992D01*
X1206804Y9714687D01*
X1191717Y9732162D01*
X1175207Y9748316D01*
X1157427Y9763048D01*
X1138428Y9776256D01*
X1118412Y9787788D01*
X1097534Y9797643D01*
X1075842Y9805720D01*
X1053592Y9811918D01*
X1030884Y9816236D01*
X1007922Y9818674D01*
X1003300Y9818776D01*
G37*
G36*
X5272481Y9267901D02*
G01*
X5272481Y9530588D01*
X5009642Y9530588D01*
X5011470Y9508744D01*
X5015331Y9485934D01*
X5021072Y9463582D01*
X5028692Y9441738D01*
X5038090Y9420656D01*
X5049215Y9400387D01*
X5062016Y9381134D01*
X5076342Y9363049D01*
X5092192Y9346184D01*
X5109362Y9330740D01*
X5127752Y9316770D01*
X5147259Y9304375D01*
X5167731Y9293656D01*
X5189016Y9284716D01*
X5211013Y9277553D01*
X5233517Y9272270D01*
X5256377Y9268917D01*
G37*
G36*
X5297881Y9267850D02*
G01*
X5302504Y9267952D01*
X5325516Y9270390D01*
X5348224Y9274708D01*
X5370474Y9280906D01*
X5392115Y9288983D01*
X5413044Y9298787D01*
X5433060Y9310370D01*
X5452008Y9323527D01*
X5469839Y9338259D01*
X5486349Y9354464D01*
X5501436Y9371939D01*
X5515000Y9390634D01*
X5526989Y9410395D01*
X5537250Y9431070D01*
X5545734Y9452559D01*
X5552440Y9474708D01*
X5557215Y9497314D01*
X5560110Y9520224D01*
X5560568Y9530588D01*
X5297881Y9530588D01*
G37*
G36*
X5930900Y7821625D02*
G01*
X5945428Y7822539D01*
X5959703Y7825231D01*
X5973521Y7829753D01*
X5986729Y7835950D01*
X5999022Y7843723D01*
X6010198Y7853019D01*
X6020155Y7863636D01*
X6028740Y7875371D01*
X6035751Y7888173D01*
X6041085Y7901686D01*
X6044742Y7915757D01*
X6046520Y7930235D01*
X6046520Y7944764D01*
X6044742Y7959191D01*
X6041085Y7973314D01*
X6035751Y7986826D01*
X6028740Y7999577D01*
X6020155Y8011363D01*
X6010198Y8021980D01*
X5999022Y8031225D01*
X5986729Y8039049D01*
X5973521Y8045246D01*
X5959703Y8049717D01*
X5945428Y8052460D01*
X5930900Y8053374D01*
X5916371Y8052460D01*
X5902045Y8049717D01*
X5888228Y8045246D01*
X5875070Y8039049D01*
X5862777Y8031225D01*
X5851550Y8021980D01*
X5841593Y8011363D01*
X5833059Y7999577D01*
X5826048Y7986826D01*
X5820664Y7973314D01*
X5817057Y7959191D01*
X5815228Y7944764D01*
X5815228Y7930235D01*
X5817057Y7915757D01*
X5820664Y7901686D01*
X5826048Y7888173D01*
X5833059Y7875371D01*
X5841593Y7863636D01*
X5851550Y7853019D01*
X5862777Y7843723D01*
X5875070Y7835950D01*
X5888228Y7829753D01*
X5902045Y7825231D01*
X5916371Y7822539D01*
G37*
G36*
X5930900Y7567625D02*
G01*
X5945428Y7568539D01*
X5959703Y7571231D01*
X5973521Y7575753D01*
X5986729Y7581950D01*
X5999022Y7589723D01*
X6010198Y7599019D01*
X6020155Y7609636D01*
X6028740Y7621371D01*
X6035751Y7634173D01*
X6041085Y7647686D01*
X6044742Y7661757D01*
X6046520Y7676235D01*
X6046520Y7690764D01*
X6044742Y7705191D01*
X6041085Y7719314D01*
X6035751Y7732826D01*
X6028740Y7745577D01*
X6020155Y7757363D01*
X6010198Y7767980D01*
X5999022Y7777225D01*
X5986729Y7785049D01*
X5973521Y7791246D01*
X5959703Y7795717D01*
X5945428Y7798460D01*
X5930900Y7799374D01*
X5916371Y7798460D01*
X5902045Y7795717D01*
X5888228Y7791246D01*
X5875070Y7785049D01*
X5862777Y7777225D01*
X5851550Y7767980D01*
X5841593Y7757363D01*
X5833059Y7745577D01*
X5826048Y7732826D01*
X5820664Y7719314D01*
X5817057Y7705191D01*
X5815228Y7690764D01*
X5815228Y7676235D01*
X5817057Y7661757D01*
X5820664Y7647686D01*
X5826048Y7634173D01*
X5833059Y7621371D01*
X5841593Y7609636D01*
X5851550Y7599019D01*
X5862777Y7589723D01*
X5875070Y7581950D01*
X5888228Y7575753D01*
X5902045Y7571231D01*
X5916371Y7568539D01*
G37*
G36*
X5930900Y7313625D02*
G01*
X5945428Y7314539D01*
X5959703Y7317231D01*
X5973521Y7321753D01*
X5986729Y7327950D01*
X5999022Y7335723D01*
X6010198Y7345019D01*
X6020155Y7355636D01*
X6028740Y7367371D01*
X6035751Y7380173D01*
X6041085Y7393686D01*
X6044742Y7407757D01*
X6046520Y7422235D01*
X6046520Y7436764D01*
X6044742Y7451191D01*
X6041085Y7465314D01*
X6035751Y7478826D01*
X6028740Y7491577D01*
X6020155Y7503363D01*
X6010198Y7513980D01*
X5999022Y7523225D01*
X5986729Y7531049D01*
X5973521Y7537246D01*
X5959703Y7541717D01*
X5945428Y7544460D01*
X5930900Y7545374D01*
X5916371Y7544460D01*
X5902045Y7541717D01*
X5888228Y7537246D01*
X5875070Y7531049D01*
X5862777Y7523225D01*
X5851550Y7513980D01*
X5841593Y7503363D01*
X5833059Y7491577D01*
X5826048Y7478826D01*
X5820664Y7465314D01*
X5817057Y7451191D01*
X5815228Y7436764D01*
X5815228Y7422235D01*
X5817057Y7407757D01*
X5820664Y7393686D01*
X5826048Y7380173D01*
X5833059Y7367371D01*
X5841593Y7355636D01*
X5851550Y7345019D01*
X5862777Y7335723D01*
X5875070Y7327950D01*
X5888228Y7321753D01*
X5902045Y7317231D01*
X5916371Y7314539D01*
G37*
G36*
X1422400Y6230112D02*
G01*
X1432204Y6230975D01*
X1441653Y6233515D01*
X1450594Y6237681D01*
X1458620Y6243320D01*
X1460195Y6244894D01*
X1463497Y6247130D01*
X1467408Y6247892D01*
X5657291Y6247892D01*
X5661202Y6247130D01*
X5664504Y6244894D01*
X5666079Y6243320D01*
X5674106Y6237681D01*
X5683046Y6233515D01*
X5692495Y6230975D01*
X5702300Y6230112D01*
X5712104Y6230975D01*
X5721553Y6233515D01*
X5730494Y6237681D01*
X5738520Y6243320D01*
X5745480Y6250228D01*
X5751118Y6258306D01*
X5755233Y6267196D01*
X5757773Y6276695D01*
X5758637Y6286449D01*
X5757773Y6296253D01*
X5755233Y6305753D01*
X5751118Y6314643D01*
X5745480Y6322720D01*
X5738520Y6329629D01*
X5730494Y6335268D01*
X5721553Y6339433D01*
X5712104Y6341973D01*
X5702300Y6342837D01*
X5692495Y6341973D01*
X5683046Y6339433D01*
X5674106Y6335268D01*
X5666079Y6329629D01*
X5664504Y6328054D01*
X5661202Y6325870D01*
X5657342Y6325108D01*
X1467358Y6325108D01*
X1463497Y6325870D01*
X1460195Y6328054D01*
X1458620Y6329629D01*
X1450594Y6335268D01*
X1441653Y6339433D01*
X1432204Y6341973D01*
X1422400Y6342837D01*
X1412595Y6341973D01*
X1403146Y6339433D01*
X1394206Y6335268D01*
X1386179Y6329629D01*
X1379220Y6322720D01*
X1373581Y6314643D01*
X1369466Y6305753D01*
X1366926Y6296253D01*
X1366062Y6286449D01*
X1366926Y6276695D01*
X1369466Y6267196D01*
X1373581Y6258306D01*
X1379220Y6250228D01*
X1386179Y6243320D01*
X1394206Y6237681D01*
X1403146Y6233515D01*
X1412595Y6230975D01*
G37*
G36*
X5930900Y6043625D02*
G01*
X5945428Y6044539D01*
X5959703Y6047232D01*
X5973521Y6051753D01*
X5986729Y6057950D01*
X5999022Y6065723D01*
X6010198Y6075019D01*
X6020155Y6085636D01*
X6028740Y6097371D01*
X6035751Y6110173D01*
X6041085Y6123686D01*
X6044742Y6137757D01*
X6046520Y6152235D01*
X6046520Y6166764D01*
X6044742Y6181191D01*
X6041085Y6195314D01*
X6035751Y6208826D01*
X6028740Y6221577D01*
X6020155Y6233363D01*
X6010198Y6243980D01*
X5999022Y6253226D01*
X5986729Y6261049D01*
X5973521Y6267246D01*
X5959703Y6271717D01*
X5945428Y6274460D01*
X5930900Y6275374D01*
X5916371Y6274460D01*
X5902045Y6271717D01*
X5888228Y6267246D01*
X5875070Y6261049D01*
X5862777Y6253226D01*
X5851550Y6243980D01*
X5841593Y6233363D01*
X5833059Y6221577D01*
X5826048Y6208826D01*
X5824321Y6204508D01*
X5822137Y6201156D01*
X5818784Y6198870D01*
X5814872Y6198057D01*
X489508Y6198057D01*
X485597Y6198870D01*
X482295Y6201054D01*
X480720Y6202629D01*
X472693Y6208268D01*
X463753Y6212433D01*
X454304Y6214973D01*
X444500Y6215837D01*
X434695Y6214973D01*
X425246Y6212433D01*
X416306Y6208268D01*
X408279Y6202629D01*
X401320Y6195720D01*
X395681Y6187643D01*
X391566Y6178753D01*
X389026Y6169253D01*
X388162Y6159449D01*
X389026Y6149695D01*
X391566Y6140196D01*
X395681Y6131306D01*
X401320Y6123228D01*
X408279Y6116320D01*
X416306Y6110681D01*
X425246Y6106515D01*
X434695Y6103975D01*
X444500Y6103112D01*
X454304Y6103975D01*
X463753Y6106515D01*
X472693Y6110681D01*
X480720Y6116320D01*
X482295Y6117894D01*
X485597Y6120079D01*
X489508Y6120841D01*
X5814872Y6120841D01*
X5818835Y6120079D01*
X5822137Y6117793D01*
X5824321Y6114440D01*
X5826048Y6110173D01*
X5833059Y6097371D01*
X5841593Y6085636D01*
X5851550Y6075019D01*
X5862777Y6065723D01*
X5875070Y6057950D01*
X5888228Y6051753D01*
X5902045Y6047232D01*
X5916371Y6044539D01*
G37*
G36*
X5841441Y2995574D02*
G01*
X5918200Y2995574D01*
X5918200Y3098800D01*
X5814974Y3098800D01*
X5814974Y3022041D01*
X5815685Y3015742D01*
X5817616Y3010255D01*
X5820664Y3005378D01*
X5824778Y3001264D01*
X5829655Y2998216D01*
X5835142Y2996285D01*
G37*
G36*
X5943600Y2995574D02*
G01*
X6020308Y2995574D01*
X6026658Y2996285D01*
X6032093Y2998216D01*
X6037021Y3001264D01*
X6041085Y3005378D01*
X6044184Y3010255D01*
X6046063Y3015742D01*
X6046774Y3022041D01*
X6046774Y3098800D01*
X5943600Y3098800D01*
G37*
G36*
X5297881Y3077362D02*
G01*
X5302504Y3077464D01*
X5325516Y3079851D01*
X5348224Y3084169D01*
X5370474Y3090418D01*
X5392115Y3098444D01*
X5413044Y3108299D01*
X5433060Y3119831D01*
X5452008Y3133039D01*
X5469839Y3147771D01*
X5486349Y3163925D01*
X5501436Y3181400D01*
X5515000Y3200095D01*
X5526989Y3219907D01*
X5537250Y3240582D01*
X5545734Y3262071D01*
X5552440Y3284169D01*
X5557215Y3306775D01*
X5560110Y3329736D01*
X5560568Y3340100D01*
X5297881Y3340100D01*
G37*
G36*
X1003300Y3077362D02*
G01*
X1007922Y3077464D01*
X1030884Y3079851D01*
X1053592Y3084169D01*
X1075842Y3090418D01*
X1097534Y3098444D01*
X1118412Y3108299D01*
X1138428Y3119831D01*
X1157427Y3133039D01*
X1175207Y3147771D01*
X1191717Y3163925D01*
X1206804Y3181400D01*
X1220419Y3200095D01*
X1232357Y3219907D01*
X1242669Y3240582D01*
X1251153Y3262071D01*
X1257808Y3284169D01*
X1262634Y3306775D01*
X1265529Y3329736D01*
X1265986Y3340100D01*
X1003300Y3340100D01*
G37*
G36*
X5272481Y3077413D02*
G01*
X5272481Y3340100D01*
X5009642Y3340100D01*
X5011470Y3318205D01*
X5015331Y3295446D01*
X5021072Y3273044D01*
X5028692Y3251250D01*
X5038090Y3230118D01*
X5049215Y3209899D01*
X5062016Y3190646D01*
X5076342Y3172510D01*
X5092192Y3155696D01*
X5109362Y3140202D01*
X5127752Y3126232D01*
X5147259Y3113887D01*
X5167731Y3103168D01*
X5189016Y3094228D01*
X5211013Y3087065D01*
X5233517Y3081782D01*
X5256377Y3078429D01*
G37*
G36*
X977900Y3077413D02*
G01*
X977900Y3340100D01*
X715060Y3340100D01*
X716889Y3318205D01*
X720750Y3295446D01*
X726490Y3273044D01*
X734060Y3251250D01*
X743458Y3230118D01*
X754583Y3209899D01*
X767384Y3190646D01*
X781761Y3172510D01*
X797560Y3155696D01*
X814730Y3140202D01*
X833119Y3126232D01*
X852627Y3113887D01*
X873150Y3103168D01*
X894435Y3094228D01*
X916381Y3087065D01*
X938885Y3081782D01*
X961745Y3078429D01*
G37*
G36*
X5943600Y3124200D02*
G01*
X6046774Y3124200D01*
X6046774Y3200908D01*
X6046063Y3207258D01*
X6044184Y3212693D01*
X6041085Y3217621D01*
X6037021Y3221685D01*
X6032093Y3224784D01*
X6026658Y3226663D01*
X6020308Y3227374D01*
X5943600Y3227374D01*
G37*
G36*
X5814974Y3124200D02*
G01*
X5918200Y3124200D01*
X5918200Y3227374D01*
X5841441Y3227374D01*
X5835142Y3226663D01*
X5829655Y3224784D01*
X5824778Y3221685D01*
X5820664Y3217621D01*
X5817616Y3212693D01*
X5815685Y3207258D01*
X5814974Y3200908D01*
G37*
G36*
X5930900Y3249625D02*
G01*
X5945428Y3250539D01*
X5959703Y3253232D01*
X5973521Y3257753D01*
X5986729Y3263950D01*
X5999022Y3271723D01*
X6010198Y3281019D01*
X6020155Y3291636D01*
X6028740Y3303371D01*
X6035751Y3316173D01*
X6041085Y3329686D01*
X6044742Y3343757D01*
X6046520Y3358235D01*
X6046520Y3372764D01*
X6044742Y3387191D01*
X6041085Y3401314D01*
X6035751Y3414826D01*
X6028740Y3427577D01*
X6020155Y3439363D01*
X6010198Y3449980D01*
X5999022Y3459226D01*
X5986729Y3467049D01*
X5973521Y3473246D01*
X5959703Y3477717D01*
X5945428Y3480460D01*
X5930900Y3481374D01*
X5916371Y3480460D01*
X5902045Y3477717D01*
X5888228Y3473246D01*
X5875070Y3467049D01*
X5862777Y3459226D01*
X5851550Y3449980D01*
X5841593Y3439363D01*
X5833059Y3427577D01*
X5831230Y3424326D01*
X5828284Y3420973D01*
X5824169Y3419195D01*
X5819698Y3419398D01*
X5813704Y3420973D01*
X5803900Y3421837D01*
X5794095Y3420973D01*
X5784646Y3418433D01*
X5775706Y3414318D01*
X5767679Y3408679D01*
X5760720Y3401720D01*
X5755081Y3393694D01*
X5750966Y3384753D01*
X5748426Y3375304D01*
X5747562Y3365500D01*
X5748426Y3355695D01*
X5750966Y3346246D01*
X5755081Y3337306D01*
X5760720Y3329279D01*
X5767679Y3322320D01*
X5775706Y3316681D01*
X5784646Y3312566D01*
X5794095Y3310026D01*
X5803900Y3309162D01*
X5813704Y3310026D01*
X5819698Y3311601D01*
X5824169Y3311804D01*
X5828284Y3310026D01*
X5831230Y3306673D01*
X5833059Y3303371D01*
X5841593Y3291636D01*
X5851550Y3281019D01*
X5862777Y3271723D01*
X5875070Y3263950D01*
X5888228Y3257753D01*
X5902045Y3253232D01*
X5916371Y3250539D01*
G37*
G36*
X1574800Y5976112D02*
G01*
X1584604Y5976975D01*
X1594053Y5979515D01*
X1602994Y5983681D01*
X1611020Y5989320D01*
X1612595Y5990894D01*
X1615897Y5993130D01*
X1619808Y5993892D01*
X5657342Y5993892D01*
X5661202Y5993130D01*
X5664504Y5990894D01*
X5666079Y5989320D01*
X5674106Y5983681D01*
X5683046Y5979566D01*
X5692495Y5977026D01*
X5702300Y5976162D01*
X5712104Y5977026D01*
X5721553Y5979566D01*
X5730494Y5983681D01*
X5738520Y5989320D01*
X5745480Y5996279D01*
X5751118Y6004306D01*
X5755233Y6013246D01*
X5757773Y6022695D01*
X5758637Y6032500D01*
X5757773Y6042304D01*
X5755233Y6051753D01*
X5751118Y6060694D01*
X5745480Y6068720D01*
X5738520Y6075680D01*
X5730494Y6081318D01*
X5721553Y6085433D01*
X5712104Y6087973D01*
X5702300Y6088837D01*
X5692495Y6087973D01*
X5683046Y6085433D01*
X5674106Y6081318D01*
X5666079Y6075680D01*
X5664504Y6074054D01*
X5661202Y6071870D01*
X5657291Y6071108D01*
X1619758Y6071108D01*
X1615897Y6071870D01*
X1612595Y6074054D01*
X1611020Y6075629D01*
X1602994Y6081268D01*
X1594053Y6085433D01*
X1584604Y6087973D01*
X1574800Y6088837D01*
X1564995Y6087973D01*
X1555546Y6085433D01*
X1546606Y6081268D01*
X1538579Y6075629D01*
X1531620Y6068720D01*
X1525981Y6060643D01*
X1521866Y6051753D01*
X1519326Y6042253D01*
X1518462Y6032449D01*
X1519326Y6022695D01*
X1521866Y6013196D01*
X1525981Y6004306D01*
X1531620Y5996228D01*
X1538579Y5989320D01*
X1546606Y5983681D01*
X1555546Y5979515D01*
X1564995Y5976975D01*
G37*
G36*
X1003300Y3365500D02*
G01*
X1265986Y3365500D01*
X1265529Y3375863D01*
X1262634Y3398824D01*
X1257808Y3421430D01*
X1251153Y3443528D01*
X1242669Y3465017D01*
X1232357Y3485692D01*
X1220419Y3505504D01*
X1206804Y3524148D01*
X1191717Y3541674D01*
X1175207Y3557828D01*
X1157427Y3572560D01*
X1138428Y3585768D01*
X1118412Y3597300D01*
X1097534Y3607155D01*
X1075842Y3615182D01*
X1053592Y3621430D01*
X1030884Y3625748D01*
X1007922Y3628136D01*
X1003300Y3628237D01*
G37*
G36*
X5297881Y3365500D02*
G01*
X5560568Y3365500D01*
X5560110Y3375863D01*
X5557215Y3398824D01*
X5552440Y3421430D01*
X5545734Y3443528D01*
X5537250Y3465017D01*
X5526989Y3485692D01*
X5515000Y3505504D01*
X5501436Y3524148D01*
X5486349Y3541674D01*
X5469839Y3557828D01*
X5452008Y3572560D01*
X5433060Y3585768D01*
X5413044Y3597300D01*
X5392115Y3607155D01*
X5370474Y3615182D01*
X5348224Y3621430D01*
X5325516Y3625748D01*
X5302504Y3628136D01*
X5297881Y3628237D01*
G37*
G36*
X5009642Y3365500D02*
G01*
X5272481Y3365500D01*
X5272481Y3628186D01*
X5256377Y3627170D01*
X5233517Y3623818D01*
X5211013Y3618534D01*
X5189016Y3611372D01*
X5167731Y3602431D01*
X5147259Y3591712D01*
X5127752Y3579368D01*
X5109362Y3565398D01*
X5092192Y3549904D01*
X5076342Y3533089D01*
X5062016Y3514953D01*
X5049215Y3495700D01*
X5038090Y3475482D01*
X5028692Y3454349D01*
X5021072Y3432556D01*
X5015331Y3410153D01*
X5011470Y3387394D01*
G37*
G36*
X715060Y3365500D02*
G01*
X977900Y3365500D01*
X977900Y3628186D01*
X961745Y3627170D01*
X938885Y3623818D01*
X916381Y3618534D01*
X894435Y3611372D01*
X873150Y3602431D01*
X852627Y3591712D01*
X833119Y3579368D01*
X814730Y3565398D01*
X797560Y3549904D01*
X781761Y3533089D01*
X767384Y3514953D01*
X754583Y3495700D01*
X743458Y3475482D01*
X734060Y3454349D01*
X726490Y3432556D01*
X720750Y3410153D01*
X716889Y3387394D01*
G37*
G36*
X5930900Y5789625D02*
G01*
X5945428Y5790539D01*
X5959703Y5793232D01*
X5973521Y5797753D01*
X5986729Y5803950D01*
X5999022Y5811723D01*
X6010198Y5821019D01*
X6020155Y5831636D01*
X6028740Y5843371D01*
X6035751Y5856173D01*
X6041085Y5869686D01*
X6044742Y5883757D01*
X6046520Y5898235D01*
X6046520Y5912764D01*
X6044742Y5927191D01*
X6041085Y5941314D01*
X6035751Y5954826D01*
X6028740Y5967577D01*
X6020155Y5979363D01*
X6010198Y5989980D01*
X5999022Y5999226D01*
X5986729Y6007049D01*
X5973521Y6013246D01*
X5959703Y6017717D01*
X5945428Y6020460D01*
X5930900Y6021374D01*
X5916371Y6020460D01*
X5902045Y6017717D01*
X5888228Y6013246D01*
X5875070Y6007049D01*
X5862777Y5999226D01*
X5851550Y5989980D01*
X5841593Y5979363D01*
X5833059Y5967577D01*
X5826048Y5954826D01*
X5824321Y5950508D01*
X5822137Y5947156D01*
X5818784Y5944870D01*
X5814872Y5944057D01*
X362508Y5944057D01*
X358597Y5944870D01*
X355295Y5947054D01*
X353720Y5948629D01*
X345694Y5954268D01*
X336753Y5958433D01*
X327304Y5960973D01*
X317500Y5961837D01*
X307695Y5960973D01*
X298246Y5958433D01*
X289306Y5954268D01*
X281279Y5948629D01*
X274320Y5941720D01*
X268681Y5933643D01*
X264566Y5924753D01*
X262026Y5915253D01*
X261162Y5905449D01*
X262026Y5895695D01*
X264566Y5886196D01*
X268681Y5877306D01*
X274320Y5869228D01*
X281279Y5862320D01*
X289306Y5856681D01*
X298246Y5852515D01*
X307695Y5849975D01*
X317500Y5849112D01*
X327304Y5849975D01*
X336753Y5852515D01*
X345694Y5856681D01*
X353720Y5862320D01*
X355295Y5863894D01*
X358597Y5866079D01*
X362508Y5866841D01*
X5814872Y5866841D01*
X5818835Y5866079D01*
X5822137Y5863793D01*
X5824321Y5860440D01*
X5826048Y5856173D01*
X5833059Y5843371D01*
X5841593Y5831636D01*
X5851550Y5821019D01*
X5862777Y5811723D01*
X5875070Y5803950D01*
X5888228Y5797753D01*
X5902045Y5793232D01*
X5916371Y5790539D01*
G37*
G36*
X5930900Y3503625D02*
G01*
X5945428Y3504539D01*
X5959703Y3507232D01*
X5973521Y3511753D01*
X5986729Y3517950D01*
X5999022Y3525723D01*
X6010198Y3535019D01*
X6020155Y3545636D01*
X6028740Y3557371D01*
X6035751Y3570173D01*
X6041085Y3583686D01*
X6044742Y3597757D01*
X6046520Y3612235D01*
X6046520Y3626764D01*
X6044742Y3641191D01*
X6041085Y3655314D01*
X6035751Y3668826D01*
X6028740Y3681577D01*
X6020155Y3693363D01*
X6010198Y3703980D01*
X5999022Y3713226D01*
X5986729Y3721049D01*
X5973521Y3727246D01*
X5959703Y3731717D01*
X5945428Y3734460D01*
X5930900Y3735374D01*
X5916371Y3734460D01*
X5902045Y3731717D01*
X5888228Y3727246D01*
X5875070Y3721049D01*
X5862777Y3713226D01*
X5851550Y3703980D01*
X5841593Y3693363D01*
X5833059Y3681577D01*
X5826048Y3668826D01*
X5824321Y3664508D01*
X5822137Y3661156D01*
X5818835Y3658920D01*
X5814872Y3658108D01*
X5785408Y3658108D01*
X5781497Y3658870D01*
X5778195Y3661105D01*
X5776620Y3662679D01*
X5768594Y3668318D01*
X5759653Y3672433D01*
X5750204Y3674973D01*
X5740400Y3675837D01*
X5730595Y3674973D01*
X5721146Y3672433D01*
X5712206Y3668318D01*
X5704179Y3662679D01*
X5697220Y3655720D01*
X5691581Y3647694D01*
X5687466Y3638753D01*
X5684926Y3629304D01*
X5684062Y3619500D01*
X5684926Y3609695D01*
X5687466Y3600246D01*
X5691581Y3591306D01*
X5697220Y3583279D01*
X5704179Y3576320D01*
X5712206Y3570681D01*
X5721146Y3566566D01*
X5730595Y3564026D01*
X5740400Y3563162D01*
X5750204Y3564026D01*
X5759653Y3566566D01*
X5768594Y3570681D01*
X5776620Y3576320D01*
X5778195Y3577894D01*
X5781497Y3580129D01*
X5785408Y3580892D01*
X5814872Y3580892D01*
X5818784Y3580079D01*
X5822137Y3577844D01*
X5824321Y3574491D01*
X5826048Y3570173D01*
X5833059Y3557371D01*
X5841593Y3545636D01*
X5851550Y3535019D01*
X5862777Y3525723D01*
X5875070Y3517950D01*
X5888228Y3511753D01*
X5902045Y3507232D01*
X5916371Y3504539D01*
G37*
G36*
X5930900Y5535625D02*
G01*
X5945428Y5536539D01*
X5959703Y5539232D01*
X5973521Y5543753D01*
X5986729Y5549950D01*
X5999022Y5557723D01*
X6010198Y5567019D01*
X6020155Y5577636D01*
X6028740Y5589371D01*
X6035751Y5602173D01*
X6041085Y5615686D01*
X6044742Y5629757D01*
X6046520Y5644235D01*
X6046520Y5658764D01*
X6044742Y5673191D01*
X6041085Y5687314D01*
X6035751Y5700826D01*
X6028740Y5713577D01*
X6020155Y5725363D01*
X6010198Y5735980D01*
X5999022Y5745226D01*
X5986729Y5753049D01*
X5973521Y5759246D01*
X5959703Y5763717D01*
X5945428Y5766460D01*
X5930900Y5767374D01*
X5916371Y5766460D01*
X5902045Y5763717D01*
X5888228Y5759246D01*
X5875070Y5753049D01*
X5862777Y5745226D01*
X5851550Y5735980D01*
X5841593Y5725363D01*
X5833059Y5713577D01*
X5826048Y5700826D01*
X5824321Y5696508D01*
X5822137Y5693156D01*
X5818835Y5690920D01*
X5814872Y5690108D01*
X4515358Y5690108D01*
X4511497Y5690870D01*
X4508195Y5693105D01*
X4506620Y5694629D01*
X4498594Y5700268D01*
X4489653Y5704433D01*
X4480204Y5706973D01*
X4470400Y5707837D01*
X4460595Y5706973D01*
X4451146Y5704433D01*
X4442206Y5700268D01*
X4434179Y5694629D01*
X4427220Y5687720D01*
X4421581Y5679643D01*
X4417466Y5670753D01*
X4414926Y5661253D01*
X4414062Y5651449D01*
X4414926Y5641695D01*
X4417466Y5632196D01*
X4421581Y5623306D01*
X4427220Y5615228D01*
X4434179Y5608320D01*
X4442206Y5602681D01*
X4451146Y5598515D01*
X4460595Y5595975D01*
X4470400Y5595112D01*
X4480204Y5595975D01*
X4489653Y5598515D01*
X4498594Y5602681D01*
X4506620Y5608320D01*
X4508246Y5609894D01*
X4511548Y5612130D01*
X4515408Y5612892D01*
X5814872Y5612892D01*
X5818784Y5612079D01*
X5822137Y5609844D01*
X5824321Y5606491D01*
X5826048Y5602173D01*
X5833059Y5589371D01*
X5841593Y5577636D01*
X5851550Y5567019D01*
X5862777Y5557723D01*
X5875070Y5549950D01*
X5888228Y5543753D01*
X5902045Y5539232D01*
X5916371Y5536539D01*
G37*
G36*
X5930900Y5281625D02*
G01*
X5945428Y5282539D01*
X5959703Y5285232D01*
X5973521Y5289753D01*
X5986729Y5295950D01*
X5999022Y5303723D01*
X6010198Y5313019D01*
X6020155Y5323636D01*
X6028740Y5335371D01*
X6035751Y5348173D01*
X6041085Y5361686D01*
X6044742Y5375757D01*
X6046520Y5390235D01*
X6046520Y5404764D01*
X6044742Y5419191D01*
X6041085Y5433314D01*
X6035751Y5446826D01*
X6028740Y5459577D01*
X6020155Y5471363D01*
X6010198Y5481980D01*
X5999022Y5491226D01*
X5986729Y5499049D01*
X5973521Y5505246D01*
X5959703Y5509717D01*
X5945428Y5512460D01*
X5930900Y5513374D01*
X5916371Y5512460D01*
X5902045Y5509717D01*
X5888228Y5505246D01*
X5875070Y5499049D01*
X5862777Y5491226D01*
X5851550Y5481980D01*
X5841593Y5471363D01*
X5833059Y5459577D01*
X5826048Y5446826D01*
X5824321Y5442508D01*
X5822137Y5439156D01*
X5818835Y5436920D01*
X5814872Y5436108D01*
X4578858Y5436108D01*
X4574997Y5436870D01*
X4571695Y5439105D01*
X4570120Y5440629D01*
X4562094Y5446268D01*
X4553153Y5450433D01*
X4543704Y5452973D01*
X4533900Y5453837D01*
X4524095Y5452973D01*
X4514646Y5450433D01*
X4505706Y5446268D01*
X4497679Y5440629D01*
X4490720Y5433720D01*
X4485081Y5425643D01*
X4480966Y5416753D01*
X4478426Y5407253D01*
X4477562Y5397449D01*
X4478426Y5387695D01*
X4480966Y5378196D01*
X4485081Y5369306D01*
X4490720Y5361228D01*
X4497679Y5354320D01*
X4505706Y5348681D01*
X4514646Y5344515D01*
X4524095Y5341975D01*
X4533900Y5341112D01*
X4543704Y5341975D01*
X4553153Y5344515D01*
X4562094Y5348681D01*
X4570120Y5354320D01*
X4571746Y5355894D01*
X4575048Y5358130D01*
X4578908Y5358892D01*
X5814872Y5358892D01*
X5818784Y5358079D01*
X5822137Y5355844D01*
X5824321Y5352491D01*
X5826048Y5348173D01*
X5833059Y5335371D01*
X5841593Y5323636D01*
X5851550Y5313019D01*
X5862777Y5303723D01*
X5875070Y5295950D01*
X5888228Y5289753D01*
X5902045Y5285232D01*
X5916371Y5282539D01*
G37*
G36*
X5930900Y3757625D02*
G01*
X5945428Y3758539D01*
X5959703Y3761232D01*
X5973521Y3765753D01*
X5986729Y3771950D01*
X5999022Y3779723D01*
X6010198Y3789019D01*
X6020155Y3799636D01*
X6028740Y3811371D01*
X6035751Y3824173D01*
X6041085Y3837686D01*
X6044742Y3851757D01*
X6046520Y3866235D01*
X6046520Y3880764D01*
X6044742Y3895191D01*
X6041085Y3909314D01*
X6035751Y3922826D01*
X6028740Y3935577D01*
X6020155Y3947363D01*
X6010198Y3957980D01*
X5999022Y3967226D01*
X5986729Y3975049D01*
X5973521Y3981246D01*
X5959703Y3985717D01*
X5945428Y3988460D01*
X5930900Y3989374D01*
X5916371Y3988460D01*
X5902045Y3985717D01*
X5888228Y3981246D01*
X5875070Y3975049D01*
X5862777Y3967226D01*
X5851550Y3957980D01*
X5841593Y3947363D01*
X5833059Y3935577D01*
X5826048Y3922826D01*
X5824321Y3918508D01*
X5822137Y3915156D01*
X5818835Y3912920D01*
X5814872Y3912108D01*
X5721908Y3912108D01*
X5717997Y3912870D01*
X5714695Y3915105D01*
X5713120Y3916679D01*
X5705094Y3922318D01*
X5696153Y3926433D01*
X5686704Y3928973D01*
X5676900Y3929837D01*
X5667095Y3928973D01*
X5657646Y3926433D01*
X5648706Y3922318D01*
X5640679Y3916679D01*
X5639104Y3915105D01*
X5635802Y3912870D01*
X5631891Y3912108D01*
X730808Y3912108D01*
X726897Y3912870D01*
X723595Y3915105D01*
X722020Y3916679D01*
X713994Y3922318D01*
X705053Y3926433D01*
X695604Y3928973D01*
X685800Y3929837D01*
X675995Y3928973D01*
X666546Y3926433D01*
X657606Y3922318D01*
X649579Y3916679D01*
X642620Y3909720D01*
X636981Y3901694D01*
X632866Y3892753D01*
X630326Y3883304D01*
X629462Y3873500D01*
X630326Y3863695D01*
X632866Y3854246D01*
X636981Y3845306D01*
X642620Y3837279D01*
X649579Y3830320D01*
X657606Y3824681D01*
X666546Y3820566D01*
X675995Y3818026D01*
X685800Y3817162D01*
X695604Y3818026D01*
X705053Y3820566D01*
X713994Y3824681D01*
X722020Y3830320D01*
X723595Y3831894D01*
X726897Y3834129D01*
X730808Y3834892D01*
X5631891Y3834892D01*
X5635802Y3834129D01*
X5639104Y3831894D01*
X5640679Y3830320D01*
X5648706Y3824681D01*
X5657646Y3820566D01*
X5667095Y3818026D01*
X5676900Y3817162D01*
X5686704Y3818026D01*
X5696153Y3820566D01*
X5705094Y3824681D01*
X5713120Y3830320D01*
X5714695Y3831894D01*
X5717997Y3834129D01*
X5721908Y3834892D01*
X5814872Y3834892D01*
X5818784Y3834079D01*
X5822137Y3831844D01*
X5824321Y3828491D01*
X5826048Y3824173D01*
X5833059Y3811371D01*
X5841593Y3799636D01*
X5851550Y3789019D01*
X5862777Y3779723D01*
X5875070Y3771950D01*
X5888228Y3765753D01*
X5902045Y3761232D01*
X5916371Y3758539D01*
G37*
G36*
X393700Y905103D02*
G01*
X465429Y905103D01*
X471728Y905814D01*
X477215Y907694D01*
X482092Y910793D01*
X486206Y914908D01*
X489305Y919784D01*
X491185Y925271D01*
X491896Y931570D01*
X491896Y1003300D01*
X393700Y1003300D01*
G37*
G36*
X5930900Y4773625D02*
G01*
X5945428Y4774539D01*
X5959703Y4777232D01*
X5973521Y4781753D01*
X5986729Y4787950D01*
X5999022Y4795723D01*
X6010198Y4805019D01*
X6020155Y4815636D01*
X6028740Y4827371D01*
X6035751Y4840173D01*
X6041085Y4853686D01*
X6044742Y4867757D01*
X6046520Y4882235D01*
X6046520Y4896764D01*
X6044742Y4911191D01*
X6041085Y4925314D01*
X6035751Y4938826D01*
X6028740Y4951577D01*
X6020155Y4963363D01*
X6010198Y4973980D01*
X5999022Y4983226D01*
X5986729Y4991049D01*
X5973521Y4997246D01*
X5959703Y5001717D01*
X5945428Y5004460D01*
X5930900Y5005374D01*
X5916371Y5004460D01*
X5902045Y5001717D01*
X5888228Y4997246D01*
X5875070Y4991049D01*
X5862777Y4983226D01*
X5851550Y4973980D01*
X5841593Y4963363D01*
X5833059Y4951577D01*
X5826048Y4938826D01*
X5824321Y4934508D01*
X5822137Y4931156D01*
X5818784Y4928870D01*
X5814872Y4928108D01*
X4642358Y4928108D01*
X4638497Y4928870D01*
X4635195Y4931054D01*
X4633620Y4932629D01*
X4625594Y4938268D01*
X4616653Y4942433D01*
X4607204Y4944973D01*
X4597400Y4945837D01*
X4587595Y4944973D01*
X4578146Y4942433D01*
X4569206Y4938268D01*
X4561179Y4932629D01*
X4554220Y4925720D01*
X4548581Y4917643D01*
X4544466Y4908753D01*
X4541926Y4899253D01*
X4541062Y4889449D01*
X4541926Y4879695D01*
X4544466Y4870196D01*
X4548581Y4861306D01*
X4554220Y4853228D01*
X4561179Y4846320D01*
X4569206Y4840681D01*
X4578146Y4836515D01*
X4587595Y4833975D01*
X4597400Y4833112D01*
X4607204Y4833975D01*
X4616653Y4836515D01*
X4625594Y4840681D01*
X4633620Y4846320D01*
X4635195Y4847894D01*
X4638497Y4850130D01*
X4642408Y4850892D01*
X5814872Y4850892D01*
X5818835Y4850079D01*
X5822137Y4847844D01*
X5824321Y4844440D01*
X5826048Y4840173D01*
X5833059Y4827371D01*
X5841593Y4815636D01*
X5851550Y4805019D01*
X5862777Y4795723D01*
X5875070Y4787950D01*
X5888228Y4781753D01*
X5902045Y4777232D01*
X5916371Y4774539D01*
G37*
G36*
X5930900Y4519625D02*
G01*
X5945428Y4520539D01*
X5959703Y4523232D01*
X5973521Y4527753D01*
X5986729Y4533950D01*
X5999022Y4541723D01*
X6010198Y4551019D01*
X6020155Y4561636D01*
X6028740Y4573371D01*
X6035751Y4586173D01*
X6041085Y4599686D01*
X6044742Y4613757D01*
X6046520Y4628235D01*
X6046520Y4642764D01*
X6044742Y4657191D01*
X6041085Y4671314D01*
X6035751Y4684826D01*
X6028740Y4697577D01*
X6020155Y4709363D01*
X6010198Y4719980D01*
X5999022Y4729226D01*
X5986729Y4737049D01*
X5973521Y4743246D01*
X5959703Y4747717D01*
X5945428Y4750460D01*
X5930900Y4751374D01*
X5916371Y4750460D01*
X5902045Y4747717D01*
X5888228Y4743246D01*
X5875070Y4737049D01*
X5862777Y4729226D01*
X5851550Y4719980D01*
X5841593Y4709363D01*
X5833059Y4697577D01*
X5826048Y4684826D01*
X5824321Y4680508D01*
X5822137Y4677156D01*
X5818784Y4674870D01*
X5814872Y4674108D01*
X4705858Y4674108D01*
X4701997Y4674870D01*
X4698695Y4677054D01*
X4697120Y4678629D01*
X4689094Y4684268D01*
X4680153Y4688433D01*
X4670704Y4690973D01*
X4660900Y4691837D01*
X4651095Y4690973D01*
X4641646Y4688433D01*
X4632706Y4684268D01*
X4624679Y4678629D01*
X4617720Y4671720D01*
X4612081Y4663643D01*
X4607966Y4654753D01*
X4605426Y4645253D01*
X4604562Y4635449D01*
X4605426Y4625695D01*
X4607966Y4616196D01*
X4612081Y4607306D01*
X4617720Y4599228D01*
X4624679Y4592320D01*
X4632706Y4586681D01*
X4641646Y4582515D01*
X4651095Y4579975D01*
X4660900Y4579112D01*
X4670704Y4579975D01*
X4680153Y4582515D01*
X4689094Y4586681D01*
X4697120Y4592320D01*
X4698695Y4593894D01*
X4701997Y4596130D01*
X4705908Y4596892D01*
X5814872Y4596892D01*
X5818835Y4596079D01*
X5822137Y4593844D01*
X5824321Y4590440D01*
X5826048Y4586173D01*
X5833059Y4573371D01*
X5841593Y4561636D01*
X5851550Y4551019D01*
X5862777Y4541723D01*
X5875070Y4533950D01*
X5888228Y4527753D01*
X5902045Y4523232D01*
X5916371Y4520539D01*
G37*
G36*
X5930900Y4265625D02*
G01*
X5945428Y4266539D01*
X5959703Y4269232D01*
X5973521Y4273753D01*
X5986729Y4279950D01*
X5999022Y4287723D01*
X6010198Y4297019D01*
X6020155Y4307636D01*
X6028740Y4319371D01*
X6035751Y4332173D01*
X6041085Y4345686D01*
X6044742Y4359757D01*
X6046520Y4374235D01*
X6046520Y4388764D01*
X6044742Y4403191D01*
X6041085Y4417314D01*
X6035751Y4430826D01*
X6028740Y4443577D01*
X6020155Y4455363D01*
X6010198Y4465980D01*
X5999022Y4475226D01*
X5986729Y4483049D01*
X5973521Y4489246D01*
X5959703Y4493717D01*
X5945428Y4496460D01*
X5930900Y4497374D01*
X5916371Y4496460D01*
X5902045Y4493717D01*
X5888228Y4489246D01*
X5875070Y4483049D01*
X5862777Y4475226D01*
X5851550Y4465980D01*
X5841593Y4455363D01*
X5833059Y4443577D01*
X5826048Y4430826D01*
X5820664Y4417314D01*
X5817057Y4403191D01*
X5815228Y4388764D01*
X5815228Y4374235D01*
X5817057Y4359757D01*
X5820664Y4345686D01*
X5826048Y4332173D01*
X5833059Y4319371D01*
X5841593Y4307636D01*
X5851550Y4297019D01*
X5862777Y4287723D01*
X5875070Y4279950D01*
X5888228Y4273753D01*
X5902045Y4269232D01*
X5916371Y4266539D01*
G37*
G36*
X5930900Y4011625D02*
G01*
X5945428Y4012539D01*
X5959703Y4015232D01*
X5973521Y4019753D01*
X5986729Y4025950D01*
X5999022Y4033723D01*
X6010198Y4043019D01*
X6020155Y4053636D01*
X6028740Y4065371D01*
X6035751Y4078173D01*
X6041085Y4091686D01*
X6044742Y4105757D01*
X6046520Y4120235D01*
X6046520Y4134764D01*
X6044742Y4149191D01*
X6041085Y4163314D01*
X6035751Y4176826D01*
X6028740Y4189577D01*
X6020155Y4201363D01*
X6010198Y4211980D01*
X5999022Y4221226D01*
X5986729Y4229049D01*
X5973521Y4235246D01*
X5959703Y4239717D01*
X5945428Y4242460D01*
X5930900Y4243374D01*
X5916371Y4242460D01*
X5902045Y4239717D01*
X5888228Y4235246D01*
X5875070Y4229049D01*
X5862777Y4221226D01*
X5851550Y4211980D01*
X5841593Y4201363D01*
X5833059Y4189577D01*
X5826048Y4176826D01*
X5824321Y4172508D01*
X5822137Y4169156D01*
X5818784Y4166870D01*
X5814872Y4166108D01*
X5658408Y4166108D01*
X5654497Y4166870D01*
X5651195Y4169054D01*
X5649620Y4170679D01*
X5641594Y4176318D01*
X5632653Y4180433D01*
X5623204Y4182973D01*
X5613400Y4183837D01*
X5603595Y4182973D01*
X5594146Y4180433D01*
X5585206Y4176318D01*
X5577179Y4170679D01*
X5575604Y4169054D01*
X5572302Y4166870D01*
X5568391Y4166108D01*
X794258Y4166108D01*
X790397Y4166870D01*
X787095Y4169054D01*
X785520Y4170629D01*
X777494Y4176268D01*
X768553Y4180433D01*
X759104Y4182973D01*
X749300Y4183837D01*
X739495Y4182973D01*
X730046Y4180433D01*
X721106Y4176268D01*
X713079Y4170629D01*
X706120Y4163720D01*
X700481Y4155643D01*
X696366Y4146753D01*
X693826Y4137253D01*
X692962Y4127449D01*
X693826Y4117695D01*
X696366Y4108196D01*
X700481Y4099306D01*
X706120Y4091228D01*
X713079Y4084320D01*
X721106Y4078681D01*
X730046Y4074515D01*
X739495Y4071975D01*
X749300Y4071112D01*
X759104Y4071975D01*
X768553Y4074515D01*
X777494Y4078681D01*
X785520Y4084320D01*
X787095Y4085894D01*
X790397Y4088129D01*
X794308Y4088892D01*
X5568442Y4088892D01*
X5572302Y4088129D01*
X5575604Y4085894D01*
X5577179Y4084320D01*
X5585206Y4078681D01*
X5594146Y4074566D01*
X5603595Y4072026D01*
X5613400Y4071162D01*
X5623204Y4072026D01*
X5632653Y4074566D01*
X5641594Y4078681D01*
X5649620Y4084320D01*
X5651195Y4085894D01*
X5654497Y4088129D01*
X5658358Y4088892D01*
X5814872Y4088892D01*
X5818835Y4088079D01*
X5822137Y4085844D01*
X5824321Y4082440D01*
X5826048Y4078173D01*
X5833059Y4065371D01*
X5841593Y4053636D01*
X5851550Y4043019D01*
X5862777Y4033723D01*
X5875070Y4025950D01*
X5888228Y4019753D01*
X5902045Y4015232D01*
X5916371Y4012539D01*
G37*

%LPD*%
D10*
X1574800Y1143000D02*
G01*
X5372087Y1143000D01*
X5499089Y1015997D01*
X1422400Y1143000D02*
G01*
X762002Y1143000D01*
X635000Y1015997D01*
X381000Y9398000D02*
G01*
X254000Y9271000D01*
X254000Y6756400D01*
X292100Y6718300D01*
X749300Y6718300D01*
X4660889Y4635489D02*
G01*
X5930887Y4635489D01*
X5499089Y1904994D02*
G01*
X4660889Y1904994D01*
X4597389Y4889489D02*
G01*
X5930887Y4889489D01*
X5499089Y2158994D02*
G01*
X4597389Y2158994D01*
X4533900Y5397500D02*
G01*
X5930900Y5397500D01*
X5499100Y2413000D02*
G01*
X4533900Y2413000D01*
X4470400Y5651500D02*
G01*
X5930900Y5651500D01*
X5499100Y2667000D02*
G01*
X4470400Y2667000D01*
X1687068Y10325100D02*
G01*
X1879600Y10325100D01*
X2260600Y10706100D01*
X4271263Y10706100D01*
X5930900Y2667000D02*
G01*
X5727700Y2667000D01*
X5613400Y2781300D01*
X5930887Y2412994D02*
G01*
X5676900Y2412994D01*
X5930887Y2158994D02*
G01*
X5740400Y2158994D01*
X5803874Y3365500D02*
G01*
X5930882Y3365500D01*
X5930887Y3365494D01*
X5740400Y3619500D02*
G01*
X5930887Y3619500D01*
X5930887Y3619494D01*
X5930900Y3873500D02*
G01*
X5676900Y3873500D01*
X685800Y3873500D01*
X1574797Y6032487D02*
G01*
X5702287Y6032487D01*
X1422400Y6286487D02*
G01*
X5702287Y6286487D01*
X5930887Y4127487D02*
G01*
X749300Y4127487D01*
X317500Y9461482D02*
G01*
X190500Y9334482D01*
X190500Y6730987D01*
X266712Y6654774D01*
X685800Y6654774D01*
X5638800Y6476974D02*
G01*
X5829325Y6667500D01*
X5930900Y6667500D01*
X254000Y6477000D02*
G01*
X5549900Y6477000D01*
X5930900Y6858000D01*
X5930900Y6921500D01*
X190500Y6540500D02*
G01*
X5524500Y6540500D01*
X5803900Y6819900D01*
X5803900Y7048500D01*
X5930900Y7175500D01*
X2527294Y10109179D02*
G01*
X381000Y10109179D01*
X2980359Y10566400D02*
G01*
X2527294Y10566400D01*
X2590794Y10045679D02*
G01*
X317500Y10045679D01*
X2980359Y10325100D02*
G01*
X2590794Y10325100D01*
X1435100Y9855182D02*
G01*
X1435107Y9855174D01*
X5702300Y9855174D01*
X5930887Y10515579D02*
G01*
X4902189Y10515579D01*
X4519168Y10325100D02*
G01*
X4711700Y10325100D01*
X4902189Y10515579D01*
X190500Y9982174D02*
G01*
X1943100Y9982174D01*
X1943100Y9982174D01*
X635000Y2666994D02*
G01*
X634994Y2667000D01*
X190500Y2667000D01*
X254000Y9918674D02*
G01*
X2006600Y9918674D01*
X2006600Y9918674D01*
X1181100Y11175974D02*
G01*
X3454400Y11175974D01*
X3454400Y11175974D01*
X4267200Y10706100D02*
G01*
X4519168Y10706100D01*
X1435100Y10706100D02*
G01*
X1687068Y10706100D01*
X635000Y2412994D02*
G01*
X634994Y2413000D01*
X254000Y2413000D01*
X5930887Y5905487D02*
G01*
X5930874Y5905474D01*
X317500Y5905474D01*
X317500Y9245574D02*
G01*
X4267200Y9245574D01*
X4267200Y9245574D01*
X381000Y9182074D02*
G01*
X4775200Y9182074D01*
X4775200Y9182074D01*
X635000Y2158994D02*
G01*
X634994Y2159000D01*
X381000Y2159000D01*
X381000Y6413474D02*
G01*
X5930874Y6413474D01*
X5930887Y6413487D01*
X444500Y9118574D02*
G01*
X4838700Y9118574D01*
X4838700Y9118574D01*
X444500Y6159474D02*
G01*
X5930874Y6159474D01*
X5930887Y6159487D01*
X635000Y1904994D02*
G01*
X634994Y1905000D01*
X444500Y1905000D01*
X3318840Y10325100D02*
G01*
X4011193Y10325100D01*
X3454400Y10566374D02*
G01*
X3340125Y10566374D01*
X3318842Y10587657D01*
X3318842Y10566400D01*
D11*
G01*
X2980359Y10566400D03*
G01*
X3318840Y10566400D03*
G01*
X2980359Y10325100D03*
G01*
X3318840Y10325100D03*
D12*
G01*
X5930900Y7937500D03*
D13*
G01*
X5930886Y3111489D03*
D12*
G01*
X5930900Y3365500D03*
G01*
X5930900Y3619500D03*
G01*
X5930900Y3873500D03*
G01*
X5930900Y4127500D03*
G01*
X5930900Y4381500D03*
G01*
X5930900Y4635500D03*
G01*
X5930900Y4889500D03*
G01*
X5930900Y5143500D03*
G01*
X5930900Y5397500D03*
G01*
X5930900Y5651500D03*
G01*
X5930900Y5905500D03*
G01*
X5930900Y6159500D03*
G01*
X5930900Y6413500D03*
G01*
X5930900Y6667500D03*
G01*
X5930900Y6921500D03*
G01*
X5930900Y7175500D03*
G01*
X5930900Y7429500D03*
G01*
X5930900Y7683500D03*
D14*
G01*
X381000Y1016000D03*
D15*
G01*
X635000Y1016000D03*
D14*
G01*
X5753100Y1016000D03*
D15*
G01*
X5499100Y1016000D03*
D14*
G01*
X635000Y1905000D03*
D15*
G01*
X635000Y2159000D03*
G01*
X635000Y2413000D03*
G01*
X635000Y2667000D03*
D14*
G01*
X5499100Y1905000D03*
D15*
G01*
X5499100Y2159000D03*
G01*
X5499100Y2413000D03*
G01*
X5499100Y2667000D03*
D14*
G01*
X5930900Y1905000D03*
D15*
G01*
X5930900Y2159000D03*
G01*
X5930900Y2413000D03*
G01*
X5930900Y2667000D03*
D16*
G01*
X469900Y10858500D03*
D15*
G01*
X1435100Y10960100D03*
G01*
X1435100Y10706100D03*
G01*
X1943100Y10960100D03*
G01*
X1943100Y10706100D03*
D17*
G01*
X1687093Y10325100D03*
G01*
X2197100Y10325100D03*
G01*
X1179093Y10325100D03*
D15*
G01*
X4267200Y10960100D03*
G01*
X4267200Y10706100D03*
G01*
X4775200Y10960100D03*
G01*
X4775200Y10706100D03*
D17*
G01*
X4519193Y10325100D03*
G01*
X5029200Y10325100D03*
G01*
X4011193Y10325100D03*
D16*
G01*
X5737199Y10858500D03*
G01*
X471271Y1460500D03*
G01*
X5737199Y1460500D03*
G01*
X5285206Y9543313D03*
G01*
X990600Y9543313D03*
G01*
X5285206Y3352800D03*
G01*
X990600Y3352800D03*
D18*
G01*
X3454400Y10566374D03*
G01*
X444500Y1905000D03*
G01*
X444500Y6159474D03*
G01*
X444500Y9118574D03*
G01*
X4838700Y9118574D03*
G01*
X381000Y6413474D03*
G01*
X381000Y2159000D03*
G01*
X381000Y9182074D03*
G01*
X4775200Y9182074D03*
G01*
X317500Y9245574D03*
G01*
X4267200Y9245574D03*
G01*
X317500Y5905474D03*
G01*
X254000Y2413000D03*
G01*
X254000Y6476974D03*
G01*
X1687093Y10706100D03*
G01*
X4519193Y10706100D03*
G01*
X3454400Y11175974D03*
G01*
X1181100Y11175974D03*
G01*
X254000Y9918674D03*
G01*
X2006600Y9918674D03*
G01*
X190500Y2667000D03*
G01*
X190500Y6540474D03*
G01*
X190500Y9982174D03*
G01*
X1943100Y9982174D03*
G01*
X5930900Y10515574D03*
G01*
X1435100Y9855174D03*
G01*
X5702300Y9855174D03*
G01*
X5638800Y6476974D03*
G01*
X317500Y10045674D03*
G01*
X2590800Y10325100D03*
G01*
X2590800Y10045674D03*
G01*
X381000Y10109174D03*
G01*
X2527300Y10566400D03*
G01*
X2527300Y10109174D03*
G01*
X317500Y9461474D03*
G01*
X381000Y9397974D03*
G01*
X685800Y6654774D03*
G01*
X749300Y4127474D03*
G01*
X685800Y3873500D03*
G01*
X749300Y6718274D03*
G01*
X5702300Y6286474D03*
G01*
X5702300Y6032500D03*
G01*
X1422400Y6286474D03*
G01*
X1422400Y1143000D03*
G01*
X1574800Y1143000D03*
G01*
X1574800Y6032474D03*
G01*
X5676900Y3873500D03*
G01*
X5740400Y3619500D03*
G01*
X5803900Y3365500D03*
G01*
X5740400Y2159000D03*
G01*
X5676900Y2413000D03*
G01*
X5613400Y4127500D03*
G01*
X5613400Y2781300D03*
G01*
X4470400Y2667000D03*
G01*
X4470400Y5651474D03*
G01*
X4533900Y2413000D03*
G01*
X4533900Y5397474D03*
G01*
X4597400Y2159000D03*
G01*
X4597400Y4889474D03*
G01*
X4660900Y1905000D03*
G01*
X4660900Y4635474D03*
M02*
