G04 Layer: TopPasteMaskLayer*
G04 EasyEDA v6.5.29, 2023-07-18 10:32:44*
G04 f0145a9d3cf84adf84608df9e98d150b,5a6b42c53f6a479593ecc07194224c93,10*
G04 Gerber Generator version 0.2*
G04 Scale: 100 percent, Rotated: No, Reflected: No *
G04 Dimensions in millimeters *
G04 leading zeros omitted , absolute positions ,4 integer and 5 decimal *
%FSLAX45Y45*%
%MOMM*%

%ADD10C,0.0001*%

%LPD*%
G36*
X34757Y-1346197D02*
G01*
X34828Y-1338191D01*
X35102Y-1330187D01*
X35582Y-1322196D01*
X36266Y-1314218D01*
X37155Y-1306261D01*
X38247Y-1298328D01*
X39542Y-1290426D01*
X41038Y-1282560D01*
X42738Y-1274734D01*
X44635Y-1266957D01*
X46730Y-1259227D01*
X49021Y-1251557D01*
X51511Y-1243947D01*
X54195Y-1236403D01*
X57068Y-1228928D01*
X60134Y-1221531D01*
X63388Y-1214216D01*
X66829Y-1206985D01*
X70454Y-1199845D01*
X74259Y-1192801D01*
X78244Y-1185854D01*
X82405Y-1179014D01*
X86740Y-1172283D01*
X91246Y-1165664D01*
X95920Y-1159162D01*
X100759Y-1152784D01*
X105760Y-1146530D01*
X110919Y-1140406D01*
X116235Y-1134417D01*
X121701Y-1128567D01*
X127314Y-1122857D01*
X133073Y-1117292D01*
X138971Y-1111879D01*
X145006Y-1106617D01*
X151175Y-1101511D01*
X157472Y-1096566D01*
X163893Y-1091783D01*
X170436Y-1087165D01*
X177093Y-1082718D01*
X183862Y-1078443D01*
X190741Y-1074341D01*
X197721Y-1070416D01*
X204797Y-1066672D01*
X211970Y-1063111D01*
X219229Y-1059736D01*
X226575Y-1056546D01*
X233997Y-1053546D01*
X241495Y-1050737D01*
X249064Y-1048120D01*
X256694Y-1045697D01*
X264386Y-1043472D01*
X272133Y-1041445D01*
X279928Y-1039614D01*
X287769Y-1037986D01*
X295645Y-1036558D01*
X303560Y-1035334D01*
X311500Y-1034310D01*
X319465Y-1033492D01*
X327449Y-1032878D01*
X335445Y-1032469D01*
X343451Y-1032263D01*
X351457Y-1032263D01*
X359463Y-1032469D01*
X367459Y-1032878D01*
X375442Y-1033492D01*
X383407Y-1034310D01*
X391347Y-1035334D01*
X399262Y-1036558D01*
X407139Y-1037986D01*
X414980Y-1039614D01*
X422775Y-1041445D01*
X430522Y-1043472D01*
X438213Y-1045697D01*
X445843Y-1048120D01*
X453412Y-1050737D01*
X460910Y-1053546D01*
X468332Y-1056546D01*
X475678Y-1059736D01*
X482937Y-1063111D01*
X490110Y-1066672D01*
X497187Y-1070416D01*
X504167Y-1074341D01*
X511045Y-1078443D01*
X517814Y-1082718D01*
X524471Y-1087165D01*
X531014Y-1091783D01*
X537436Y-1096566D01*
X543732Y-1101511D01*
X549902Y-1106617D01*
X555937Y-1111879D01*
X561835Y-1117292D01*
X567593Y-1122857D01*
X573206Y-1128567D01*
X578672Y-1134417D01*
X583989Y-1140406D01*
X589147Y-1146530D01*
X594149Y-1152784D01*
X598987Y-1159162D01*
X603661Y-1165664D01*
X608167Y-1172283D01*
X612503Y-1179014D01*
X616663Y-1185854D01*
X620648Y-1192801D01*
X624453Y-1199845D01*
X628078Y-1206985D01*
X631520Y-1214216D01*
X634773Y-1221531D01*
X637839Y-1228928D01*
X640712Y-1236403D01*
X643397Y-1243947D01*
X645886Y-1251557D01*
X648177Y-1259227D01*
X650273Y-1266957D01*
X652170Y-1274734D01*
X653869Y-1282560D01*
X655365Y-1290426D01*
X656661Y-1298328D01*
X657753Y-1306261D01*
X658642Y-1314218D01*
X659325Y-1322196D01*
X659805Y-1330187D01*
X660079Y-1338191D01*
X660151Y-1346197D01*
X660079Y-1354203D01*
X659805Y-1362207D01*
X659325Y-1370197D01*
X658642Y-1378176D01*
X657753Y-1386133D01*
X656661Y-1394066D01*
X655365Y-1401968D01*
X653869Y-1409834D01*
X652170Y-1417660D01*
X650273Y-1425437D01*
X648177Y-1433167D01*
X645886Y-1440837D01*
X643397Y-1448447D01*
X640712Y-1455991D01*
X637839Y-1463466D01*
X634773Y-1470863D01*
X631520Y-1478178D01*
X628078Y-1485409D01*
X624453Y-1492549D01*
X620648Y-1499593D01*
X616663Y-1506540D01*
X612503Y-1513380D01*
X608167Y-1520111D01*
X603661Y-1526730D01*
X598987Y-1533232D01*
X594149Y-1539610D01*
X589147Y-1545864D01*
X583989Y-1551988D01*
X578672Y-1557977D01*
X573206Y-1563827D01*
X567593Y-1569537D01*
X561835Y-1575102D01*
X555937Y-1580514D01*
X549902Y-1585777D01*
X543732Y-1590883D01*
X537436Y-1595828D01*
X531014Y-1600611D01*
X524471Y-1605229D01*
X517814Y-1609676D01*
X511045Y-1613951D01*
X504167Y-1618053D01*
X497187Y-1621977D01*
X490110Y-1625721D01*
X482937Y-1629282D01*
X475678Y-1632658D01*
X468332Y-1635848D01*
X460910Y-1638848D01*
X453412Y-1641657D01*
X445843Y-1644274D01*
X438213Y-1646697D01*
X430522Y-1648922D01*
X422775Y-1650949D01*
X414980Y-1652780D01*
X407139Y-1654408D01*
X399262Y-1655836D01*
X391347Y-1657060D01*
X383407Y-1658084D01*
X375442Y-1658901D01*
X367459Y-1659516D01*
X359463Y-1659925D01*
X351457Y-1660131D01*
X343451Y-1660131D01*
X335445Y-1659925D01*
X327449Y-1659516D01*
X319465Y-1658901D01*
X311500Y-1658084D01*
X303560Y-1657060D01*
X295645Y-1655836D01*
X287769Y-1654408D01*
X279928Y-1652780D01*
X272133Y-1650949D01*
X264386Y-1648922D01*
X256694Y-1646697D01*
X249064Y-1644274D01*
X241495Y-1641657D01*
X233997Y-1638848D01*
X226575Y-1635848D01*
X219229Y-1632658D01*
X211970Y-1629282D01*
X204797Y-1625721D01*
X197721Y-1621977D01*
X190741Y-1618053D01*
X183862Y-1613951D01*
X177093Y-1609676D01*
X170436Y-1605229D01*
X163893Y-1600611D01*
X157472Y-1595828D01*
X151175Y-1590883D01*
X145006Y-1585777D01*
X138971Y-1580514D01*
X133073Y-1575102D01*
X127314Y-1569537D01*
X121701Y-1563827D01*
X116235Y-1557977D01*
X110919Y-1551988D01*
X105760Y-1545864D01*
X100759Y-1539610D01*
X95920Y-1533232D01*
X91246Y-1526730D01*
X86740Y-1520111D01*
X82405Y-1513380D01*
X78244Y-1506540D01*
X74259Y-1499593D01*
X70454Y-1492549D01*
X66829Y-1485409D01*
X63388Y-1478178D01*
X60134Y-1470863D01*
X57068Y-1463466D01*
X54195Y-1455991D01*
X51511Y-1448447D01*
X49021Y-1440837D01*
X46730Y-1433167D01*
X44635Y-1425437D01*
X42738Y-1417660D01*
X41038Y-1409834D01*
X39542Y-1401968D01*
X38247Y-1394066D01*
X37155Y-1386133D01*
X36266Y-1378176D01*
X35582Y-1370197D01*
X35102Y-1362207D01*
X34828Y-1354203D01*
G37*
G36*
X5300700Y-1346197D02*
G01*
X5300779Y-1338196D01*
X5301063Y-1330200D01*
X5301554Y-1322214D01*
X5302244Y-1314244D01*
X5303141Y-1306294D01*
X5304241Y-1298366D01*
X5305544Y-1290472D01*
X5307048Y-1282616D01*
X5308752Y-1274798D01*
X5310654Y-1267025D01*
X5312757Y-1259306D01*
X5315056Y-1251643D01*
X5317550Y-1244041D01*
X5320238Y-1236505D01*
X5323118Y-1229039D01*
X5326186Y-1221651D01*
X5329445Y-1214343D01*
X5332890Y-1207119D01*
X5336517Y-1199989D01*
X5340324Y-1192951D01*
X5344312Y-1186014D01*
X5348475Y-1179182D01*
X5352813Y-1172458D01*
X5357319Y-1165849D01*
X5361995Y-1159355D01*
X5366834Y-1152984D01*
X5371835Y-1146738D01*
X5376997Y-1140625D01*
X5382310Y-1134643D01*
X5387776Y-1128798D01*
X5393387Y-1123096D01*
X5399145Y-1117541D01*
X5405043Y-1112133D01*
X5411076Y-1106881D01*
X5417243Y-1101780D01*
X5423537Y-1096843D01*
X5429958Y-1092065D01*
X5436496Y-1087455D01*
X5443151Y-1083015D01*
X5449917Y-1078745D01*
X5456791Y-1074648D01*
X5463768Y-1070731D01*
X5470842Y-1066993D01*
X5478010Y-1063437D01*
X5485264Y-1060063D01*
X5492605Y-1056878D01*
X5500024Y-1053884D01*
X5507517Y-1051077D01*
X5515079Y-1048466D01*
X5522706Y-1046048D01*
X5530392Y-1043825D01*
X5538132Y-1041801D01*
X5545922Y-1039972D01*
X5553755Y-1038346D01*
X5561629Y-1036921D01*
X5569536Y-1035697D01*
X5577471Y-1034676D01*
X5585432Y-1033861D01*
X5593410Y-1033246D01*
X5601398Y-1032837D01*
X5609396Y-1032631D01*
X5617400Y-1032631D01*
X5625398Y-1032837D01*
X5633387Y-1033246D01*
X5641365Y-1033861D01*
X5649325Y-1034676D01*
X5657260Y-1035697D01*
X5665167Y-1036921D01*
X5673041Y-1038346D01*
X5680875Y-1039972D01*
X5688665Y-1041801D01*
X5696404Y-1043825D01*
X5704090Y-1046048D01*
X5711718Y-1048466D01*
X5719279Y-1051077D01*
X5726772Y-1053884D01*
X5734192Y-1056878D01*
X5741532Y-1060063D01*
X5748787Y-1063437D01*
X5755954Y-1066993D01*
X5763028Y-1070731D01*
X5770006Y-1074648D01*
X5776879Y-1078745D01*
X5783646Y-1083015D01*
X5790300Y-1087455D01*
X5796838Y-1092065D01*
X5803259Y-1096843D01*
X5809554Y-1101780D01*
X5815721Y-1106881D01*
X5821753Y-1112133D01*
X5827651Y-1117541D01*
X5833409Y-1123096D01*
X5839020Y-1128798D01*
X5844486Y-1134643D01*
X5849800Y-1140625D01*
X5854961Y-1146738D01*
X5859962Y-1152984D01*
X5864801Y-1159355D01*
X5869477Y-1165849D01*
X5873983Y-1172458D01*
X5878322Y-1179182D01*
X5882485Y-1186014D01*
X5886472Y-1192951D01*
X5890280Y-1199989D01*
X5893907Y-1207119D01*
X5897351Y-1214343D01*
X5900610Y-1221651D01*
X5903678Y-1229039D01*
X5906559Y-1236505D01*
X5909246Y-1244041D01*
X5911740Y-1251643D01*
X5914039Y-1259306D01*
X5916142Y-1267025D01*
X5918045Y-1274798D01*
X5919749Y-1282616D01*
X5921253Y-1290472D01*
X5922556Y-1298366D01*
X5923655Y-1306294D01*
X5924552Y-1314244D01*
X5925243Y-1322214D01*
X5925733Y-1330200D01*
X5926018Y-1338196D01*
X5926096Y-1346197D01*
X5926018Y-1354198D01*
X5925733Y-1362194D01*
X5925243Y-1370180D01*
X5924552Y-1378150D01*
X5923655Y-1386100D01*
X5922556Y-1394028D01*
X5921253Y-1401922D01*
X5919749Y-1409778D01*
X5918045Y-1417596D01*
X5916142Y-1425369D01*
X5914039Y-1433088D01*
X5911740Y-1440751D01*
X5909246Y-1448353D01*
X5906559Y-1455889D01*
X5903678Y-1463354D01*
X5900610Y-1470743D01*
X5897351Y-1478051D01*
X5893907Y-1485275D01*
X5890280Y-1492404D01*
X5886472Y-1499443D01*
X5882485Y-1506380D01*
X5878322Y-1513212D01*
X5873983Y-1519936D01*
X5869477Y-1526545D01*
X5864801Y-1533039D01*
X5859962Y-1539410D01*
X5854961Y-1545656D01*
X5849800Y-1551769D01*
X5844486Y-1557751D01*
X5839020Y-1563596D01*
X5833409Y-1569298D01*
X5827651Y-1574853D01*
X5821753Y-1580261D01*
X5815721Y-1585513D01*
X5809554Y-1590614D01*
X5803259Y-1595551D01*
X5796838Y-1600329D01*
X5790300Y-1604939D01*
X5783646Y-1609379D01*
X5776879Y-1613649D01*
X5770006Y-1617746D01*
X5763028Y-1621662D01*
X5755954Y-1625401D01*
X5748787Y-1628957D01*
X5741532Y-1632330D01*
X5734192Y-1635516D01*
X5726772Y-1638510D01*
X5719279Y-1641317D01*
X5711718Y-1643928D01*
X5704090Y-1646346D01*
X5696404Y-1648569D01*
X5688665Y-1650593D01*
X5680875Y-1652422D01*
X5673041Y-1654047D01*
X5665167Y-1655472D01*
X5657260Y-1656697D01*
X5649325Y-1657718D01*
X5641365Y-1658533D01*
X5633387Y-1659148D01*
X5625398Y-1659557D01*
X5617400Y-1659762D01*
X5609396Y-1659762D01*
X5601398Y-1659557D01*
X5593410Y-1659148D01*
X5585432Y-1658533D01*
X5577471Y-1657718D01*
X5569536Y-1656697D01*
X5561629Y-1655472D01*
X5553755Y-1654047D01*
X5545922Y-1652422D01*
X5538132Y-1650593D01*
X5530392Y-1648569D01*
X5522706Y-1646346D01*
X5515079Y-1643928D01*
X5507517Y-1641317D01*
X5500024Y-1638510D01*
X5492605Y-1635516D01*
X5485264Y-1632330D01*
X5478010Y-1628957D01*
X5470842Y-1625401D01*
X5463768Y-1621662D01*
X5456791Y-1617746D01*
X5449917Y-1613649D01*
X5443151Y-1609379D01*
X5436496Y-1604939D01*
X5429958Y-1600329D01*
X5423537Y-1595551D01*
X5417243Y-1590614D01*
X5411076Y-1585513D01*
X5405043Y-1580261D01*
X5399145Y-1574853D01*
X5393387Y-1569298D01*
X5387776Y-1563596D01*
X5382310Y-1557751D01*
X5376997Y-1551769D01*
X5371835Y-1545656D01*
X5366834Y-1539410D01*
X5361995Y-1533039D01*
X5357319Y-1526545D01*
X5352813Y-1519936D01*
X5348475Y-1513212D01*
X5344312Y-1506380D01*
X5340324Y-1499443D01*
X5336517Y-1492404D01*
X5332890Y-1485275D01*
X5329445Y-1478051D01*
X5326186Y-1470743D01*
X5323118Y-1463354D01*
X5320238Y-1455889D01*
X5317550Y-1448353D01*
X5315056Y-1440751D01*
X5312757Y-1433088D01*
X5310654Y-1425369D01*
X5308752Y-1417596D01*
X5307048Y-1409778D01*
X5305544Y-1401922D01*
X5304241Y-1394028D01*
X5303141Y-1386100D01*
X5302244Y-1378150D01*
X5301554Y-1370180D01*
X5301063Y-1362194D01*
X5300779Y-1354198D01*
G37*
G36*
X13653668Y-1041397D02*
G01*
X13653770Y-1033411D01*
X13654077Y-1025431D01*
X13654585Y-1017460D01*
X13655299Y-1009505D01*
X13656216Y-1001572D01*
X13657333Y-993663D01*
X13658651Y-985786D01*
X13660173Y-977945D01*
X13661892Y-970147D01*
X13663813Y-962395D01*
X13665928Y-954694D01*
X13668240Y-947049D01*
X13670747Y-939467D01*
X13673447Y-931948D01*
X13676337Y-924504D01*
X13679418Y-917135D01*
X13682685Y-909848D01*
X13686137Y-902644D01*
X13689771Y-895535D01*
X13693587Y-888517D01*
X13697579Y-881600D01*
X13701750Y-874788D01*
X13706091Y-868085D01*
X13710602Y-861494D01*
X13715278Y-855022D01*
X13720122Y-848669D01*
X13725123Y-842444D01*
X13730282Y-836348D01*
X13735596Y-830384D01*
X13741062Y-824560D01*
X13746673Y-818878D01*
X13752426Y-813338D01*
X13758321Y-807948D01*
X13764351Y-802713D01*
X13770513Y-797631D01*
X13776802Y-792708D01*
X13783216Y-787948D01*
X13789746Y-783353D01*
X13796396Y-778926D01*
X13803152Y-774672D01*
X13810018Y-770590D01*
X13816985Y-766686D01*
X13824049Y-762960D01*
X13831206Y-759416D01*
X13838453Y-756056D01*
X13845781Y-752883D01*
X13853190Y-749896D01*
X13860670Y-747102D01*
X13868222Y-744499D01*
X13875834Y-742088D01*
X13883507Y-739874D01*
X13891237Y-737857D01*
X13899012Y-736036D01*
X13906832Y-734415D01*
X13914694Y-732995D01*
X13922585Y-731776D01*
X13930508Y-730760D01*
X13938453Y-729945D01*
X13946416Y-729333D01*
X13954391Y-728926D01*
X13962374Y-728723D01*
X13970363Y-728723D01*
X13978346Y-728926D01*
X13986322Y-729333D01*
X13994284Y-729945D01*
X14002230Y-730760D01*
X14010152Y-731776D01*
X14018044Y-732995D01*
X14025905Y-734415D01*
X14033726Y-736036D01*
X14041500Y-737857D01*
X14049230Y-739874D01*
X14056903Y-742088D01*
X14064515Y-744499D01*
X14072067Y-747102D01*
X14079547Y-749896D01*
X14086956Y-752883D01*
X14094284Y-756056D01*
X14101531Y-759416D01*
X14108689Y-762960D01*
X14115752Y-766686D01*
X14122720Y-770590D01*
X14129585Y-774672D01*
X14136342Y-778926D01*
X14142991Y-783353D01*
X14149522Y-787948D01*
X14155935Y-792708D01*
X14162224Y-797631D01*
X14168386Y-802713D01*
X14174416Y-807948D01*
X14180311Y-813338D01*
X14186065Y-818878D01*
X14191675Y-824560D01*
X14197142Y-830384D01*
X14202455Y-836348D01*
X14207614Y-842444D01*
X14212615Y-848669D01*
X14217459Y-855022D01*
X14222135Y-861494D01*
X14226646Y-868085D01*
X14230987Y-874788D01*
X14235158Y-881600D01*
X14239151Y-888517D01*
X14242966Y-895535D01*
X14246600Y-902644D01*
X14250052Y-909848D01*
X14253319Y-917135D01*
X14256400Y-924504D01*
X14259290Y-931948D01*
X14261990Y-939467D01*
X14264497Y-947049D01*
X14266809Y-954694D01*
X14268924Y-962395D01*
X14270845Y-970147D01*
X14272564Y-977945D01*
X14274086Y-985786D01*
X14275404Y-993663D01*
X14276522Y-1001572D01*
X14277439Y-1009505D01*
X14278152Y-1017460D01*
X14278660Y-1025431D01*
X14278968Y-1033411D01*
X14279069Y-1041397D01*
X14278968Y-1049383D01*
X14278660Y-1057363D01*
X14278152Y-1065334D01*
X14277439Y-1073289D01*
X14276522Y-1081222D01*
X14275404Y-1089131D01*
X14274086Y-1097008D01*
X14272564Y-1104849D01*
X14270845Y-1112646D01*
X14268924Y-1120399D01*
X14266809Y-1128100D01*
X14264497Y-1135745D01*
X14261990Y-1143327D01*
X14259290Y-1150846D01*
X14256400Y-1158290D01*
X14253319Y-1165659D01*
X14250052Y-1172946D01*
X14246600Y-1180150D01*
X14242966Y-1187259D01*
X14239151Y-1194277D01*
X14235158Y-1201193D01*
X14230987Y-1208006D01*
X14226646Y-1214709D01*
X14222135Y-1221300D01*
X14217459Y-1227772D01*
X14212615Y-1234125D01*
X14207614Y-1240350D01*
X14202455Y-1246446D01*
X14197142Y-1252410D01*
X14191675Y-1258234D01*
X14186065Y-1263916D01*
X14180311Y-1269456D01*
X14174416Y-1274846D01*
X14168386Y-1280081D01*
X14162224Y-1285163D01*
X14155935Y-1290086D01*
X14149522Y-1294846D01*
X14142991Y-1299441D01*
X14136342Y-1303868D01*
X14129585Y-1308122D01*
X14122720Y-1312204D01*
X14115752Y-1316108D01*
X14108689Y-1319834D01*
X14101531Y-1323378D01*
X14094284Y-1326738D01*
X14086956Y-1329910D01*
X14079547Y-1332898D01*
X14072067Y-1335692D01*
X14064515Y-1338295D01*
X14056903Y-1340705D01*
X14049230Y-1342920D01*
X14041500Y-1344937D01*
X14033726Y-1346758D01*
X14025905Y-1348379D01*
X14018044Y-1349799D01*
X14010152Y-1351018D01*
X14002230Y-1352034D01*
X13994284Y-1352849D01*
X13986322Y-1353461D01*
X13978346Y-1353868D01*
X13970363Y-1354071D01*
X13962374Y-1354071D01*
X13954391Y-1353868D01*
X13946416Y-1353461D01*
X13938453Y-1352849D01*
X13930508Y-1352034D01*
X13922585Y-1351018D01*
X13914694Y-1349799D01*
X13906832Y-1348379D01*
X13899012Y-1346758D01*
X13891237Y-1344937D01*
X13883507Y-1342920D01*
X13875834Y-1340705D01*
X13868222Y-1338295D01*
X13860670Y-1335692D01*
X13853190Y-1332898D01*
X13845781Y-1329910D01*
X13838453Y-1326738D01*
X13831206Y-1323378D01*
X13824049Y-1319834D01*
X13816985Y-1316108D01*
X13810018Y-1312204D01*
X13803152Y-1308122D01*
X13796396Y-1303868D01*
X13789746Y-1299441D01*
X13783216Y-1294846D01*
X13776802Y-1290086D01*
X13770513Y-1285163D01*
X13764351Y-1280081D01*
X13758321Y-1274846D01*
X13752426Y-1269456D01*
X13746673Y-1263916D01*
X13741062Y-1258234D01*
X13735596Y-1252410D01*
X13730282Y-1246446D01*
X13725123Y-1240350D01*
X13720122Y-1234125D01*
X13715278Y-1227772D01*
X13710602Y-1221300D01*
X13706091Y-1214709D01*
X13701750Y-1208006D01*
X13697579Y-1201193D01*
X13693587Y-1194277D01*
X13689771Y-1187259D01*
X13686137Y-1180150D01*
X13682685Y-1172946D01*
X13679418Y-1165659D01*
X13676337Y-1158290D01*
X13673447Y-1150846D01*
X13670747Y-1143327D01*
X13668240Y-1135745D01*
X13665928Y-1128100D01*
X13663813Y-1120399D01*
X13661892Y-1112646D01*
X13660173Y-1104849D01*
X13658651Y-1097008D01*
X13657333Y-1089131D01*
X13656216Y-1081222D01*
X13655299Y-1073289D01*
X13654585Y-1065334D01*
X13654077Y-1057363D01*
X13653770Y-1049383D01*
G37*
G36*
X8675974Y-1042101D02*
G01*
X8676076Y-1034115D01*
X8676383Y-1026134D01*
X8676891Y-1018164D01*
X8677605Y-1010208D01*
X8678522Y-1002276D01*
X8679639Y-994366D01*
X8680958Y-986490D01*
X8682479Y-978649D01*
X8684199Y-970851D01*
X8686119Y-963099D01*
X8688235Y-955398D01*
X8690546Y-947752D01*
X8693053Y-940170D01*
X8695753Y-932652D01*
X8698644Y-925207D01*
X8701725Y-917839D01*
X8704991Y-910551D01*
X8708443Y-903348D01*
X8712078Y-896238D01*
X8715893Y-889220D01*
X8719886Y-882304D01*
X8724056Y-875492D01*
X8728397Y-868789D01*
X8732908Y-862197D01*
X8737584Y-855726D01*
X8742428Y-849373D01*
X8747429Y-843147D01*
X8752588Y-837051D01*
X8757902Y-831087D01*
X8763368Y-825263D01*
X8768979Y-819581D01*
X8774732Y-814042D01*
X8780627Y-808652D01*
X8786657Y-803417D01*
X8792819Y-798334D01*
X8799108Y-793412D01*
X8805522Y-788652D01*
X8812052Y-784057D01*
X8818702Y-779630D01*
X8825458Y-775375D01*
X8832324Y-771293D01*
X8839291Y-767389D01*
X8846355Y-763663D01*
X8853512Y-760120D01*
X8860759Y-756759D01*
X8868087Y-753587D01*
X8875496Y-750600D01*
X8882976Y-747806D01*
X8890528Y-745202D01*
X8898140Y-742792D01*
X8905814Y-740577D01*
X8913543Y-738560D01*
X8921318Y-736739D01*
X8929138Y-735119D01*
X8937000Y-733699D01*
X8944891Y-732480D01*
X8952814Y-731464D01*
X8960759Y-730648D01*
X8968722Y-730036D01*
X8976697Y-729630D01*
X8984681Y-729427D01*
X8992669Y-729427D01*
X9000652Y-729630D01*
X9008628Y-730036D01*
X9016591Y-730648D01*
X9024536Y-731464D01*
X9032458Y-732480D01*
X9040350Y-733699D01*
X9048211Y-735119D01*
X9056032Y-736739D01*
X9063807Y-738560D01*
X9071536Y-740577D01*
X9079209Y-742792D01*
X9086822Y-745202D01*
X9094373Y-747806D01*
X9101853Y-750600D01*
X9109262Y-753587D01*
X9116590Y-756759D01*
X9123837Y-760120D01*
X9130995Y-763663D01*
X9138058Y-767389D01*
X9145026Y-771293D01*
X9151891Y-775375D01*
X9158648Y-779630D01*
X9165297Y-784057D01*
X9171828Y-788652D01*
X9178241Y-793412D01*
X9184530Y-798334D01*
X9190692Y-803417D01*
X9196722Y-808652D01*
X9202618Y-814042D01*
X9208371Y-819581D01*
X9213982Y-825263D01*
X9219448Y-831087D01*
X9224761Y-837051D01*
X9229920Y-843147D01*
X9234921Y-849373D01*
X9239765Y-855726D01*
X9244441Y-862197D01*
X9248952Y-868789D01*
X9253293Y-875492D01*
X9257464Y-882304D01*
X9261457Y-889220D01*
X9265272Y-896238D01*
X9268907Y-903348D01*
X9272358Y-910551D01*
X9275625Y-917839D01*
X9278706Y-925207D01*
X9281596Y-932652D01*
X9284296Y-940170D01*
X9286803Y-947752D01*
X9289115Y-955398D01*
X9291231Y-963099D01*
X9293151Y-970851D01*
X9294870Y-978649D01*
X9296392Y-986490D01*
X9297710Y-994366D01*
X9298828Y-1002276D01*
X9299745Y-1010208D01*
X9300458Y-1018164D01*
X9300966Y-1026134D01*
X9301274Y-1034115D01*
X9301375Y-1042101D01*
X9301274Y-1050086D01*
X9300966Y-1058067D01*
X9300458Y-1066037D01*
X9299745Y-1073993D01*
X9298828Y-1081925D01*
X9297710Y-1089835D01*
X9296392Y-1097711D01*
X9294870Y-1105552D01*
X9293151Y-1113350D01*
X9291231Y-1121102D01*
X9289115Y-1128803D01*
X9286803Y-1136449D01*
X9284296Y-1144031D01*
X9281596Y-1151549D01*
X9278706Y-1158994D01*
X9275625Y-1166362D01*
X9272358Y-1173650D01*
X9268907Y-1180853D01*
X9265272Y-1187963D01*
X9261457Y-1194981D01*
X9257464Y-1201897D01*
X9253293Y-1208709D01*
X9248952Y-1215412D01*
X9244441Y-1222004D01*
X9239765Y-1228476D01*
X9234921Y-1234828D01*
X9229920Y-1241054D01*
X9224761Y-1247150D01*
X9219448Y-1253114D01*
X9213982Y-1258938D01*
X9208371Y-1264620D01*
X9202618Y-1270160D01*
X9196722Y-1275549D01*
X9190692Y-1280784D01*
X9184530Y-1285867D01*
X9178241Y-1290789D01*
X9171828Y-1295549D01*
X9165297Y-1300144D01*
X9158648Y-1304571D01*
X9151891Y-1308826D01*
X9145026Y-1312908D01*
X9138058Y-1316812D01*
X9130995Y-1320538D01*
X9123837Y-1324081D01*
X9116590Y-1327442D01*
X9109262Y-1330614D01*
X9101853Y-1333601D01*
X9094373Y-1336395D01*
X9086822Y-1338999D01*
X9079209Y-1341409D01*
X9071536Y-1343624D01*
X9063807Y-1345641D01*
X9056032Y-1347462D01*
X9048211Y-1349082D01*
X9040350Y-1350502D01*
X9032458Y-1351721D01*
X9024536Y-1352737D01*
X9016591Y-1353553D01*
X9008628Y-1354165D01*
X9000652Y-1354571D01*
X8992669Y-1354775D01*
X8984681Y-1354775D01*
X8976697Y-1354571D01*
X8968722Y-1354165D01*
X8960759Y-1353553D01*
X8952814Y-1352737D01*
X8944891Y-1351721D01*
X8937000Y-1350502D01*
X8929138Y-1349082D01*
X8921318Y-1347462D01*
X8913543Y-1345641D01*
X8905814Y-1343624D01*
X8898140Y-1341409D01*
X8890528Y-1338999D01*
X8882976Y-1336395D01*
X8875496Y-1333601D01*
X8868087Y-1330614D01*
X8860759Y-1327442D01*
X8853512Y-1324081D01*
X8846355Y-1320538D01*
X8839291Y-1316812D01*
X8832324Y-1312908D01*
X8825458Y-1308826D01*
X8818702Y-1304571D01*
X8812052Y-1300144D01*
X8805522Y-1295549D01*
X8799108Y-1290789D01*
X8792819Y-1285867D01*
X8786657Y-1280784D01*
X8780627Y-1275549D01*
X8774732Y-1270160D01*
X8768979Y-1264620D01*
X8763368Y-1258938D01*
X8757902Y-1253114D01*
X8752588Y-1247150D01*
X8747429Y-1241054D01*
X8742428Y-1234828D01*
X8737584Y-1228476D01*
X8732908Y-1222004D01*
X8728397Y-1215412D01*
X8724056Y-1208709D01*
X8719886Y-1201897D01*
X8715893Y-1194981D01*
X8712078Y-1187963D01*
X8708443Y-1180853D01*
X8704991Y-1173650D01*
X8701725Y-1166362D01*
X8698644Y-1158994D01*
X8695753Y-1151549D01*
X8693053Y-1144031D01*
X8690546Y-1136449D01*
X8688235Y-1128803D01*
X8686119Y-1121102D01*
X8684199Y-1113350D01*
X8682479Y-1105552D01*
X8680958Y-1097711D01*
X8679639Y-1089835D01*
X8678522Y-1081925D01*
X8677605Y-1073993D01*
X8676891Y-1066037D01*
X8676383Y-1058067D01*
X8676076Y-1050086D01*
G37*
M02*
