G04 Layer: BottomLayer*
G04 EasyEDA v6.5.29, 2023-07-18 10:38:40*
G04 9c3e5ffd6bc94b6ca845c2a892670007,5a6b42c53f6a479593ecc07194224c93,10*
G04 Gerber Generator version 0.2*
G04 Scale: 100 percent, Rotated: No, Reflected: No *
G04 Dimensions in millimeters *
G04 leading zeros omitted , absolute positions ,4 integer and 5 decimal *
%FSLAX45Y45*%
%MOMM*%

%AMMACRO1*21,1,$1,$2,0,0,$3*%
%ADD10C,0.2540*%
%ADD11C,0.5000*%
%ADD12C,1.4000*%
%ADD13MACRO1,1.524X1.4X0.0000*%
%ADD14C,0.6096*%
%ADD15C,0.0135*%

%LPD*%
G36*
X290068Y1295908D02*
G01*
X286156Y1296670D01*
X282905Y1298905D01*
X280670Y1302156D01*
X279908Y1306068D01*
X279908Y11647932D01*
X280670Y11651843D01*
X282905Y11655094D01*
X286156Y11657330D01*
X290068Y11658092D01*
X8853932Y11658092D01*
X8857843Y11657330D01*
X8861094Y11655094D01*
X8863330Y11651843D01*
X8864092Y11647932D01*
X8864092Y1306068D01*
X8863330Y1302156D01*
X8861094Y1298905D01*
X8857843Y1296670D01*
X8853932Y1295908D01*
X8164068Y1295908D01*
X8160156Y1296670D01*
X8156905Y1298905D01*
X8154670Y1302156D01*
X8153908Y1306068D01*
X8153908Y3047390D01*
X8153095Y3053892D01*
X8151012Y3059430D01*
X8147456Y3064560D01*
X8144459Y3067608D01*
X8140852Y3070250D01*
X8135315Y3072739D01*
X8127847Y3073908D01*
X1016609Y3073908D01*
X1010107Y3073095D01*
X1004569Y3071012D01*
X999439Y3067456D01*
X996391Y3064459D01*
X993749Y3060852D01*
X991260Y3055315D01*
X990092Y3047847D01*
X990092Y1306068D01*
X989330Y1302156D01*
X987094Y1298905D01*
X983843Y1296670D01*
X979932Y1295908D01*
G37*

%LPC*%
G36*
X584200Y10999317D02*
G01*
X599389Y11000232D01*
X614324Y11002975D01*
X628853Y11007496D01*
X642721Y11013744D01*
X655726Y11021618D01*
X667664Y11030966D01*
X678434Y11041735D01*
X687781Y11053673D01*
X695655Y11066678D01*
X701903Y11080546D01*
X706424Y11095075D01*
X709168Y11110010D01*
X710082Y11125200D01*
X709168Y11140389D01*
X706424Y11155324D01*
X701903Y11169853D01*
X695655Y11183721D01*
X687781Y11196726D01*
X678434Y11208664D01*
X667664Y11219434D01*
X655726Y11228781D01*
X642721Y11236655D01*
X628853Y11242903D01*
X614324Y11247424D01*
X599389Y11250168D01*
X584200Y11251082D01*
X569010Y11250168D01*
X554075Y11247424D01*
X539546Y11242903D01*
X525678Y11236655D01*
X512673Y11228781D01*
X500735Y11219434D01*
X489966Y11208664D01*
X480618Y11196726D01*
X472744Y11183721D01*
X466496Y11169853D01*
X461975Y11155324D01*
X459232Y11140389D01*
X458317Y11125200D01*
X459232Y11110010D01*
X461975Y11095075D01*
X466496Y11080546D01*
X472744Y11066678D01*
X480618Y11053673D01*
X489966Y11041735D01*
X500735Y11030966D01*
X512673Y11021618D01*
X525678Y11013744D01*
X539546Y11007496D01*
X554075Y11002975D01*
X569010Y11000232D01*
G37*
G36*
X8547100Y1766417D02*
G01*
X8562238Y1767332D01*
X8577224Y1770075D01*
X8591702Y1774596D01*
X8605570Y1780844D01*
X8618575Y1788718D01*
X8630564Y1798066D01*
X8641283Y1808835D01*
X8650681Y1820773D01*
X8658555Y1833778D01*
X8664803Y1847646D01*
X8669324Y1862175D01*
X8672068Y1877110D01*
X8672982Y1892300D01*
X8672068Y1907489D01*
X8669324Y1922424D01*
X8664803Y1936953D01*
X8658555Y1950821D01*
X8650681Y1963826D01*
X8641283Y1975764D01*
X8630564Y1986534D01*
X8618575Y1995881D01*
X8605570Y2003755D01*
X8591702Y2010003D01*
X8577224Y2014524D01*
X8562238Y2017268D01*
X8547100Y2018182D01*
X8531910Y2017268D01*
X8516924Y2014524D01*
X8502446Y2010003D01*
X8488578Y2003755D01*
X8475573Y1995881D01*
X8463584Y1986534D01*
X8452866Y1975764D01*
X8443468Y1963826D01*
X8435594Y1950821D01*
X8429345Y1936953D01*
X8424824Y1922424D01*
X8422081Y1907489D01*
X8421166Y1892300D01*
X8422081Y1877110D01*
X8424824Y1862175D01*
X8429345Y1847646D01*
X8435594Y1833778D01*
X8443468Y1820773D01*
X8452866Y1808835D01*
X8463584Y1798066D01*
X8475573Y1788718D01*
X8488578Y1780844D01*
X8502446Y1774596D01*
X8516924Y1770075D01*
X8531910Y1767332D01*
G37*
G36*
X584200Y1766417D02*
G01*
X599389Y1767332D01*
X614324Y1770075D01*
X628853Y1774596D01*
X642721Y1780844D01*
X655726Y1788718D01*
X667664Y1798066D01*
X678434Y1808835D01*
X687781Y1820773D01*
X695655Y1833778D01*
X701903Y1847646D01*
X706424Y1862175D01*
X709168Y1877110D01*
X710082Y1892300D01*
X709168Y1907489D01*
X706424Y1922424D01*
X701903Y1936953D01*
X695655Y1950821D01*
X687781Y1963826D01*
X678434Y1975764D01*
X667664Y1986534D01*
X655726Y1995881D01*
X642721Y2003755D01*
X628853Y2010003D01*
X614324Y2014524D01*
X599389Y2017268D01*
X584200Y2018182D01*
X569010Y2017268D01*
X554075Y2014524D01*
X539546Y2010003D01*
X525678Y2003755D01*
X512673Y1995881D01*
X500735Y1986534D01*
X489966Y1975764D01*
X480618Y1963826D01*
X472744Y1950821D01*
X466496Y1936953D01*
X461975Y1922424D01*
X459232Y1907489D01*
X458317Y1892300D01*
X459232Y1877110D01*
X461975Y1862175D01*
X466496Y1847646D01*
X472744Y1833778D01*
X480618Y1820773D01*
X489966Y1808835D01*
X500735Y1798066D01*
X512673Y1788718D01*
X525678Y1780844D01*
X539546Y1774596D01*
X554075Y1770075D01*
X569010Y1767332D01*
G37*
G36*
X1536700Y3740962D02*
G01*
X1546504Y3741826D01*
X1555953Y3744366D01*
X1564894Y3748481D01*
X1572920Y3754120D01*
X1579880Y3761079D01*
X1585518Y3769106D01*
X1589633Y3778046D01*
X1592173Y3787495D01*
X1593037Y3797300D01*
X1592173Y3807104D01*
X1589633Y3816553D01*
X1585518Y3825494D01*
X1579880Y3833520D01*
X1572920Y3840479D01*
X1564894Y3846118D01*
X1555953Y3850233D01*
X1546504Y3852773D01*
X1538478Y3853484D01*
X1535074Y3854399D01*
X1532178Y3856431D01*
X1095705Y4292904D01*
X1093470Y4296206D01*
X1092708Y4300118D01*
X1092708Y10952581D01*
X1093470Y10956493D01*
X1095705Y10959795D01*
X1105204Y10969294D01*
X1108506Y10971530D01*
X1112418Y10972292D01*
X1290523Y10972292D01*
X1294688Y10971377D01*
X1298092Y10968888D01*
X1300226Y10965180D01*
X1300581Y10960912D01*
X1299718Y10953292D01*
X1299718Y10896600D01*
X1389126Y10896600D01*
X1389126Y10962132D01*
X1389888Y10966043D01*
X1392072Y10969294D01*
X1395374Y10971530D01*
X1399286Y10972292D01*
X1404366Y10972292D01*
X1408226Y10971530D01*
X1411528Y10969294D01*
X1413713Y10966043D01*
X1414526Y10962132D01*
X1414526Y10896600D01*
X1495907Y10896600D01*
X1499819Y10895838D01*
X1503070Y10893602D01*
X1505305Y10890351D01*
X1506067Y10886440D01*
X1506067Y10881360D01*
X1505305Y10877448D01*
X1503070Y10874197D01*
X1499819Y10871962D01*
X1495907Y10871200D01*
X1414526Y10871200D01*
X1414526Y10787989D01*
X1477416Y10787989D01*
X1483766Y10788700D01*
X1489202Y10790631D01*
X1494129Y10793679D01*
X1498193Y10797794D01*
X1501292Y10802670D01*
X1503172Y10808157D01*
X1503934Y10814456D01*
X1503934Y10824667D01*
X1504797Y10828832D01*
X1507286Y10832287D01*
X1510995Y10834370D01*
X1515211Y10834776D01*
X1519224Y10833404D01*
X1522374Y10830560D01*
X1527403Y10823397D01*
X1536344Y10813846D01*
X1546504Y10805566D01*
X1557680Y10798759D01*
X1569669Y10793526D01*
X1582267Y10790021D01*
X1595272Y10788243D01*
X1608328Y10788243D01*
X1621332Y10790021D01*
X1633931Y10793526D01*
X1636776Y10794796D01*
X1640738Y10795609D01*
X1644751Y10794847D01*
X1648104Y10792510D01*
X1650288Y10789056D01*
X1650898Y10783671D01*
X1650898Y10710773D01*
X1649933Y10706506D01*
X1648866Y10704169D01*
X1646326Y10694670D01*
X1645462Y10684865D01*
X1646326Y10675112D01*
X1648866Y10665612D01*
X1649933Y10663275D01*
X1650898Y10659008D01*
X1650898Y10494873D01*
X1649933Y10490606D01*
X1648866Y10488269D01*
X1646326Y10478770D01*
X1645462Y10468965D01*
X1646326Y10459212D01*
X1648866Y10449712D01*
X1649933Y10447375D01*
X1650898Y10443108D01*
X1650898Y10278973D01*
X1649933Y10274706D01*
X1648866Y10272369D01*
X1646326Y10262870D01*
X1645462Y10253065D01*
X1646326Y10243312D01*
X1648866Y10233812D01*
X1649933Y10231475D01*
X1650898Y10227208D01*
X1650898Y10063073D01*
X1649933Y10058806D01*
X1648866Y10056469D01*
X1646326Y10046970D01*
X1645462Y10037165D01*
X1646326Y10027412D01*
X1648866Y10017912D01*
X1649933Y10015575D01*
X1650898Y10011308D01*
X1650898Y9847173D01*
X1649933Y9842906D01*
X1648866Y9840569D01*
X1646326Y9831070D01*
X1645462Y9821265D01*
X1646326Y9811512D01*
X1648866Y9802012D01*
X1649933Y9799675D01*
X1650898Y9795408D01*
X1650898Y9631273D01*
X1649933Y9627006D01*
X1648866Y9624669D01*
X1646326Y9615170D01*
X1645462Y9605365D01*
X1646326Y9595612D01*
X1648866Y9586112D01*
X1649933Y9583775D01*
X1650898Y9579508D01*
X1650898Y9415373D01*
X1649933Y9411106D01*
X1648866Y9408769D01*
X1646326Y9399270D01*
X1645462Y9389465D01*
X1646326Y9379712D01*
X1648866Y9370212D01*
X1649933Y9367875D01*
X1650898Y9363608D01*
X1650898Y9199473D01*
X1649933Y9195206D01*
X1648866Y9192869D01*
X1646326Y9183370D01*
X1645462Y9173565D01*
X1646326Y9163812D01*
X1648866Y9154312D01*
X1649933Y9151975D01*
X1650898Y9147708D01*
X1650898Y8983573D01*
X1649933Y8979306D01*
X1648866Y8976969D01*
X1646326Y8967470D01*
X1645462Y8957665D01*
X1646326Y8947912D01*
X1648866Y8938412D01*
X1649933Y8936075D01*
X1650898Y8931808D01*
X1650898Y8767673D01*
X1649933Y8763406D01*
X1648866Y8761069D01*
X1646326Y8751570D01*
X1645462Y8741765D01*
X1646326Y8732012D01*
X1648866Y8722512D01*
X1649933Y8720175D01*
X1650898Y8715908D01*
X1650898Y8551773D01*
X1649933Y8547506D01*
X1648866Y8545169D01*
X1646326Y8535670D01*
X1645462Y8525865D01*
X1646326Y8516112D01*
X1648866Y8506612D01*
X1649933Y8504275D01*
X1650898Y8500008D01*
X1650898Y8335873D01*
X1649933Y8331606D01*
X1648866Y8329269D01*
X1646326Y8319770D01*
X1645462Y8309965D01*
X1646326Y8300212D01*
X1648866Y8290712D01*
X1649933Y8288375D01*
X1650898Y8284108D01*
X1650898Y8119973D01*
X1649933Y8115706D01*
X1648866Y8113369D01*
X1646326Y8103870D01*
X1645462Y8094065D01*
X1646326Y8084312D01*
X1648866Y8074812D01*
X1649933Y8072475D01*
X1650898Y8068208D01*
X1650898Y7904073D01*
X1649933Y7899806D01*
X1648866Y7897469D01*
X1646326Y7887970D01*
X1645462Y7878165D01*
X1646326Y7868412D01*
X1648866Y7858912D01*
X1649933Y7856575D01*
X1650898Y7852308D01*
X1650898Y7688173D01*
X1649933Y7683906D01*
X1648866Y7681569D01*
X1646326Y7672070D01*
X1645462Y7662265D01*
X1646326Y7652512D01*
X1648866Y7643012D01*
X1649933Y7640675D01*
X1650898Y7636408D01*
X1650898Y7472273D01*
X1649933Y7468006D01*
X1648866Y7465669D01*
X1646326Y7456170D01*
X1645462Y7446365D01*
X1646326Y7436612D01*
X1648866Y7427112D01*
X1649933Y7424775D01*
X1650898Y7420508D01*
X1650898Y7256373D01*
X1649933Y7252106D01*
X1648866Y7249769D01*
X1646326Y7240270D01*
X1645462Y7230465D01*
X1646326Y7220712D01*
X1648866Y7211212D01*
X1649933Y7208875D01*
X1650898Y7204608D01*
X1650898Y7040473D01*
X1649933Y7036206D01*
X1648866Y7033869D01*
X1646326Y7024370D01*
X1645462Y7014565D01*
X1646326Y7004812D01*
X1648866Y6995312D01*
X1649933Y6992975D01*
X1650898Y6988708D01*
X1650898Y6824573D01*
X1649933Y6820306D01*
X1648866Y6817969D01*
X1646326Y6808470D01*
X1645462Y6798665D01*
X1646326Y6788912D01*
X1648866Y6779412D01*
X1649933Y6777075D01*
X1650898Y6772808D01*
X1650898Y6608673D01*
X1649933Y6604406D01*
X1648866Y6602069D01*
X1646326Y6592570D01*
X1645462Y6582765D01*
X1646326Y6573012D01*
X1648866Y6563512D01*
X1649933Y6561175D01*
X1650898Y6556908D01*
X1650898Y6392773D01*
X1649933Y6388506D01*
X1648866Y6386169D01*
X1646326Y6376670D01*
X1645462Y6366865D01*
X1646326Y6357112D01*
X1648866Y6347612D01*
X1649933Y6345275D01*
X1650898Y6341008D01*
X1650898Y6176873D01*
X1649933Y6172606D01*
X1648866Y6170269D01*
X1646326Y6160770D01*
X1645462Y6150965D01*
X1646326Y6141212D01*
X1648866Y6131712D01*
X1649933Y6129375D01*
X1650898Y6125108D01*
X1650898Y5960973D01*
X1649933Y5956706D01*
X1648866Y5954369D01*
X1646326Y5944870D01*
X1645462Y5935065D01*
X1646326Y5925312D01*
X1648866Y5915812D01*
X1649933Y5913475D01*
X1650898Y5909208D01*
X1650898Y5745073D01*
X1649933Y5740806D01*
X1648866Y5738469D01*
X1646326Y5728970D01*
X1645462Y5719165D01*
X1646326Y5709412D01*
X1648866Y5699912D01*
X1649933Y5697575D01*
X1650898Y5693308D01*
X1650898Y5529173D01*
X1649933Y5524906D01*
X1648866Y5522569D01*
X1646326Y5513070D01*
X1645462Y5503265D01*
X1646326Y5493512D01*
X1648866Y5484012D01*
X1649933Y5481675D01*
X1650898Y5477408D01*
X1650898Y5313273D01*
X1649933Y5309006D01*
X1648866Y5306669D01*
X1646326Y5297170D01*
X1645462Y5287365D01*
X1646326Y5277612D01*
X1648866Y5268112D01*
X1649933Y5265775D01*
X1650898Y5261508D01*
X1650898Y5097373D01*
X1649933Y5093106D01*
X1648866Y5090769D01*
X1646326Y5081270D01*
X1645462Y5071465D01*
X1646326Y5061712D01*
X1648866Y5052212D01*
X1649933Y5049875D01*
X1650898Y5045608D01*
X1650898Y4881473D01*
X1649933Y4877206D01*
X1648866Y4874869D01*
X1646326Y4865370D01*
X1645462Y4855565D01*
X1646326Y4845812D01*
X1648866Y4836312D01*
X1649933Y4833975D01*
X1650898Y4829708D01*
X1650898Y4665573D01*
X1649933Y4661306D01*
X1648866Y4658969D01*
X1646326Y4649470D01*
X1645462Y4639665D01*
X1646326Y4629912D01*
X1648866Y4620412D01*
X1649933Y4618075D01*
X1650898Y4613808D01*
X1650898Y4449673D01*
X1649933Y4445406D01*
X1648866Y4443069D01*
X1646326Y4433570D01*
X1645462Y4423765D01*
X1646326Y4414012D01*
X1648866Y4404512D01*
X1649933Y4402175D01*
X1650898Y4397908D01*
X1650898Y4233773D01*
X1649933Y4229506D01*
X1648866Y4227169D01*
X1646326Y4217670D01*
X1645462Y4207865D01*
X1646326Y4198112D01*
X1648866Y4188612D01*
X1649933Y4186275D01*
X1650898Y4182008D01*
X1650898Y4017873D01*
X1649933Y4013606D01*
X1648866Y4011269D01*
X1646326Y4001770D01*
X1645462Y3991965D01*
X1646326Y3982212D01*
X1648866Y3972712D01*
X1652981Y3963822D01*
X1658620Y3955745D01*
X1665579Y3948836D01*
X1673606Y3943197D01*
X1682546Y3939032D01*
X1691995Y3936492D01*
X1701800Y3935628D01*
X1711604Y3936492D01*
X1721053Y3939032D01*
X1729993Y3943197D01*
X1738020Y3948836D01*
X1744980Y3955745D01*
X1750618Y3963822D01*
X1754733Y3972712D01*
X1757273Y3982212D01*
X1758137Y3991965D01*
X1757273Y4001770D01*
X1754733Y4011269D01*
X1753666Y4013606D01*
X1752701Y4017873D01*
X1752701Y4182008D01*
X1753666Y4186275D01*
X1754733Y4188612D01*
X1757273Y4198112D01*
X1758137Y4207865D01*
X1757273Y4217670D01*
X1754733Y4227169D01*
X1753666Y4229506D01*
X1752701Y4233773D01*
X1752701Y4397908D01*
X1753666Y4402175D01*
X1754733Y4404512D01*
X1757273Y4414012D01*
X1758137Y4423765D01*
X1757273Y4433570D01*
X1754733Y4443069D01*
X1753666Y4445406D01*
X1752701Y4449673D01*
X1752701Y4613808D01*
X1753666Y4618075D01*
X1754733Y4620412D01*
X1757273Y4629912D01*
X1758137Y4639665D01*
X1757273Y4649470D01*
X1754733Y4658969D01*
X1753666Y4661306D01*
X1752701Y4665573D01*
X1752701Y4829708D01*
X1753666Y4833975D01*
X1754733Y4836312D01*
X1757273Y4845812D01*
X1758137Y4855565D01*
X1757273Y4865370D01*
X1754733Y4874869D01*
X1753666Y4877206D01*
X1752701Y4881473D01*
X1752701Y5045608D01*
X1753666Y5049875D01*
X1754733Y5052212D01*
X1757273Y5061712D01*
X1758137Y5071465D01*
X1757273Y5081270D01*
X1754733Y5090769D01*
X1753666Y5093106D01*
X1752701Y5097373D01*
X1752701Y5261508D01*
X1753666Y5265775D01*
X1754733Y5268112D01*
X1757273Y5277612D01*
X1758137Y5287365D01*
X1757273Y5297170D01*
X1754733Y5306669D01*
X1753666Y5309006D01*
X1752701Y5313273D01*
X1752701Y5477408D01*
X1753666Y5481675D01*
X1754733Y5484012D01*
X1757273Y5493512D01*
X1758137Y5503265D01*
X1757273Y5513070D01*
X1754733Y5522569D01*
X1753666Y5524906D01*
X1752701Y5529173D01*
X1752701Y5693308D01*
X1753666Y5697575D01*
X1754733Y5699912D01*
X1757273Y5709412D01*
X1758137Y5719165D01*
X1757273Y5728970D01*
X1754733Y5738469D01*
X1753666Y5740806D01*
X1752701Y5745073D01*
X1752701Y5909208D01*
X1753666Y5913475D01*
X1754733Y5915812D01*
X1757273Y5925312D01*
X1758137Y5935065D01*
X1757273Y5944870D01*
X1754733Y5954369D01*
X1753666Y5956706D01*
X1752701Y5960973D01*
X1752701Y6125108D01*
X1753666Y6129375D01*
X1754733Y6131712D01*
X1757273Y6141212D01*
X1758137Y6150965D01*
X1757273Y6160770D01*
X1754733Y6170269D01*
X1753666Y6172606D01*
X1752701Y6176873D01*
X1752701Y6341008D01*
X1753666Y6345275D01*
X1754733Y6347612D01*
X1757273Y6357112D01*
X1758137Y6366865D01*
X1757273Y6376670D01*
X1754733Y6386169D01*
X1753666Y6388506D01*
X1752701Y6392773D01*
X1752701Y6556908D01*
X1753666Y6561175D01*
X1754733Y6563512D01*
X1757273Y6573012D01*
X1758137Y6582765D01*
X1757273Y6592570D01*
X1754733Y6602069D01*
X1753666Y6604406D01*
X1752701Y6608673D01*
X1752701Y6772808D01*
X1753666Y6777075D01*
X1754733Y6779412D01*
X1757273Y6788912D01*
X1758137Y6798665D01*
X1757273Y6808470D01*
X1754733Y6817969D01*
X1753666Y6820306D01*
X1752701Y6824573D01*
X1752701Y6988708D01*
X1753666Y6992975D01*
X1754733Y6995312D01*
X1757273Y7004812D01*
X1758137Y7014565D01*
X1757273Y7024370D01*
X1754733Y7033869D01*
X1753666Y7036206D01*
X1752701Y7040473D01*
X1752701Y7204608D01*
X1753666Y7208875D01*
X1754733Y7211212D01*
X1757273Y7220712D01*
X1758137Y7230465D01*
X1757273Y7240270D01*
X1754733Y7249769D01*
X1753666Y7252106D01*
X1752701Y7256373D01*
X1752701Y7420508D01*
X1753666Y7424775D01*
X1754733Y7427112D01*
X1757273Y7436612D01*
X1758137Y7446365D01*
X1757273Y7456170D01*
X1754733Y7465669D01*
X1753666Y7468006D01*
X1752701Y7472273D01*
X1752701Y7636408D01*
X1753666Y7640675D01*
X1754733Y7643012D01*
X1757273Y7652512D01*
X1758137Y7662265D01*
X1757273Y7672070D01*
X1754733Y7681569D01*
X1753666Y7683906D01*
X1752701Y7688173D01*
X1752701Y7852308D01*
X1753666Y7856575D01*
X1754733Y7858912D01*
X1757273Y7868412D01*
X1758137Y7878165D01*
X1757273Y7887970D01*
X1754733Y7897469D01*
X1753666Y7899806D01*
X1752701Y7904073D01*
X1752701Y8068208D01*
X1753666Y8072475D01*
X1754733Y8074812D01*
X1757273Y8084312D01*
X1758137Y8094065D01*
X1757273Y8103870D01*
X1754733Y8113369D01*
X1753666Y8115706D01*
X1752701Y8119973D01*
X1752701Y8284108D01*
X1753666Y8288375D01*
X1754733Y8290712D01*
X1757273Y8300212D01*
X1758137Y8309965D01*
X1757273Y8319770D01*
X1754733Y8329269D01*
X1753666Y8331606D01*
X1752701Y8335873D01*
X1752701Y8500008D01*
X1753666Y8504275D01*
X1754733Y8506612D01*
X1757273Y8516112D01*
X1758137Y8525865D01*
X1757273Y8535670D01*
X1754733Y8545169D01*
X1753666Y8547506D01*
X1752701Y8551773D01*
X1752701Y8715908D01*
X1753666Y8720175D01*
X1754733Y8722512D01*
X1757273Y8732012D01*
X1758137Y8741765D01*
X1757273Y8751570D01*
X1754733Y8761069D01*
X1753666Y8763406D01*
X1752701Y8767673D01*
X1752701Y8931808D01*
X1753666Y8936075D01*
X1754733Y8938412D01*
X1757273Y8947912D01*
X1758137Y8957665D01*
X1757273Y8967470D01*
X1754733Y8976969D01*
X1753666Y8979306D01*
X1752701Y8983573D01*
X1752701Y9147708D01*
X1753666Y9151975D01*
X1754733Y9154312D01*
X1757273Y9163812D01*
X1758137Y9173565D01*
X1757273Y9183370D01*
X1754733Y9192869D01*
X1753666Y9195206D01*
X1752701Y9199473D01*
X1752701Y9363608D01*
X1753666Y9367875D01*
X1754733Y9370212D01*
X1757273Y9379712D01*
X1758137Y9389465D01*
X1757273Y9399270D01*
X1754733Y9408769D01*
X1753666Y9411106D01*
X1752701Y9415373D01*
X1752701Y9579508D01*
X1753666Y9583775D01*
X1754733Y9586112D01*
X1757273Y9595612D01*
X1758137Y9605365D01*
X1757273Y9615170D01*
X1754733Y9624669D01*
X1753666Y9627006D01*
X1752701Y9631273D01*
X1752701Y9795408D01*
X1753666Y9799675D01*
X1754733Y9802012D01*
X1757273Y9811512D01*
X1758137Y9821265D01*
X1757273Y9831070D01*
X1754733Y9840569D01*
X1753666Y9842906D01*
X1752701Y9847173D01*
X1752701Y10011308D01*
X1753666Y10015575D01*
X1754733Y10017912D01*
X1757273Y10027412D01*
X1758137Y10037165D01*
X1757273Y10046970D01*
X1754733Y10056469D01*
X1753666Y10058806D01*
X1752701Y10063073D01*
X1752701Y10227208D01*
X1753666Y10231475D01*
X1754733Y10233812D01*
X1757273Y10243312D01*
X1758137Y10253065D01*
X1757273Y10262870D01*
X1754733Y10272369D01*
X1753666Y10274706D01*
X1752701Y10278973D01*
X1752701Y10443108D01*
X1753666Y10447375D01*
X1754733Y10449712D01*
X1757273Y10459212D01*
X1758137Y10468965D01*
X1757273Y10478770D01*
X1754733Y10488269D01*
X1753666Y10490606D01*
X1752701Y10494873D01*
X1752701Y10659008D01*
X1753666Y10663275D01*
X1754733Y10665612D01*
X1757273Y10675112D01*
X1758137Y10684865D01*
X1757273Y10694670D01*
X1754733Y10704169D01*
X1753666Y10706506D01*
X1752701Y10710773D01*
X1752701Y10758627D01*
X1753463Y10762488D01*
X1755698Y10765790D01*
X1776628Y10786719D01*
X1779168Y10788599D01*
X1782114Y10789564D01*
X1785213Y10789615D01*
X1795272Y10788243D01*
X1808327Y10788243D01*
X1818386Y10789615D01*
X1821484Y10789564D01*
X1824431Y10788599D01*
X1826971Y10786719D01*
X1879955Y10733735D01*
X1883359Y10730585D01*
X1886915Y10727893D01*
X1890674Y10725505D01*
X1894586Y10723473D01*
X1898700Y10721746D01*
X1902917Y10720425D01*
X1907286Y10719460D01*
X1911654Y10718901D01*
X1916328Y10718698D01*
X2136038Y10718698D01*
X2139899Y10717936D01*
X2143201Y10715701D01*
X2145385Y10712399D01*
X2146198Y10708538D01*
X2146198Y10706608D01*
X2145233Y10702340D01*
X2144115Y10699953D01*
X2141575Y10690504D01*
X2140712Y10680700D01*
X2141575Y10670895D01*
X2144115Y10661446D01*
X2145233Y10659059D01*
X2146198Y10654741D01*
X2146198Y10490708D01*
X2145233Y10486440D01*
X2144115Y10484053D01*
X2141575Y10474604D01*
X2140712Y10464800D01*
X2141575Y10454995D01*
X2144115Y10445546D01*
X2145233Y10443159D01*
X2146198Y10438841D01*
X2146198Y10274808D01*
X2145233Y10270540D01*
X2144115Y10268153D01*
X2141575Y10258704D01*
X2140712Y10248900D01*
X2141575Y10239095D01*
X2144115Y10229646D01*
X2145233Y10227259D01*
X2146198Y10222941D01*
X2146198Y10058908D01*
X2145233Y10054640D01*
X2144115Y10052253D01*
X2141575Y10042804D01*
X2140712Y10033000D01*
X2141575Y10023195D01*
X2144115Y10013746D01*
X2145233Y10011359D01*
X2146198Y10007041D01*
X2146198Y9843008D01*
X2145233Y9838740D01*
X2144115Y9836353D01*
X2141575Y9826904D01*
X2140712Y9817100D01*
X2141575Y9807295D01*
X2144115Y9797846D01*
X2145233Y9795459D01*
X2146198Y9791141D01*
X2146198Y9627108D01*
X2145233Y9622840D01*
X2144115Y9620453D01*
X2141575Y9611004D01*
X2140712Y9601200D01*
X2141575Y9591395D01*
X2144115Y9581946D01*
X2145233Y9579559D01*
X2146198Y9575241D01*
X2146198Y9411208D01*
X2145233Y9406940D01*
X2144115Y9404553D01*
X2141575Y9395104D01*
X2140712Y9385300D01*
X2141575Y9375495D01*
X2144115Y9366046D01*
X2145233Y9363608D01*
X2146198Y9359341D01*
X2146198Y9195308D01*
X2145233Y9190990D01*
X2144166Y9188653D01*
X2141626Y9179204D01*
X2140762Y9169400D01*
X2141626Y9159595D01*
X2144166Y9150146D01*
X2145233Y9147810D01*
X2146198Y9143542D01*
X2146198Y8979357D01*
X2145233Y8975090D01*
X2144166Y8972753D01*
X2141626Y8963304D01*
X2140762Y8953500D01*
X2141626Y8943695D01*
X2144166Y8934246D01*
X2145233Y8931910D01*
X2146198Y8927642D01*
X2146198Y8763457D01*
X2145233Y8759190D01*
X2144166Y8756853D01*
X2141626Y8747404D01*
X2140762Y8737600D01*
X2141626Y8727795D01*
X2144166Y8718346D01*
X2145233Y8716010D01*
X2146198Y8711742D01*
X2146198Y8547557D01*
X2145233Y8543290D01*
X2144166Y8540953D01*
X2141626Y8531504D01*
X2140762Y8521700D01*
X2141626Y8511895D01*
X2144166Y8502446D01*
X2145233Y8500110D01*
X2146198Y8495842D01*
X2146198Y8331657D01*
X2145233Y8327390D01*
X2144166Y8325053D01*
X2141626Y8315604D01*
X2140762Y8305800D01*
X2141626Y8295995D01*
X2144166Y8286546D01*
X2145233Y8284209D01*
X2146198Y8279942D01*
X2146198Y8115757D01*
X2145233Y8111490D01*
X2144166Y8109153D01*
X2141626Y8099704D01*
X2140762Y8089900D01*
X2141626Y8080095D01*
X2144166Y8070646D01*
X2145233Y8068309D01*
X2146198Y8064042D01*
X2146198Y7899857D01*
X2145233Y7895590D01*
X2144166Y7893253D01*
X2141626Y7883804D01*
X2140762Y7874000D01*
X2141626Y7864195D01*
X2144166Y7854746D01*
X2145233Y7852409D01*
X2146198Y7848142D01*
X2146198Y7683957D01*
X2145233Y7679690D01*
X2144166Y7677353D01*
X2141626Y7667904D01*
X2140762Y7658100D01*
X2141626Y7648295D01*
X2144166Y7638846D01*
X2145233Y7636509D01*
X2146198Y7632242D01*
X2146198Y7468057D01*
X2145233Y7463790D01*
X2144166Y7461453D01*
X2141626Y7452004D01*
X2140762Y7442200D01*
X2141626Y7432395D01*
X2144166Y7422946D01*
X2145233Y7420609D01*
X2146198Y7416342D01*
X2146198Y7252157D01*
X2145233Y7247890D01*
X2144166Y7245553D01*
X2141626Y7236104D01*
X2140762Y7226300D01*
X2141626Y7216495D01*
X2144166Y7207046D01*
X2145233Y7204709D01*
X2146198Y7200442D01*
X2146198Y7036257D01*
X2145233Y7031990D01*
X2144166Y7029653D01*
X2141626Y7020204D01*
X2140762Y7010400D01*
X2141626Y7000595D01*
X2144166Y6991146D01*
X2145233Y6988809D01*
X2146198Y6984542D01*
X2146198Y6820357D01*
X2145233Y6816090D01*
X2144166Y6813753D01*
X2141626Y6804304D01*
X2140762Y6794500D01*
X2141626Y6784695D01*
X2144166Y6775246D01*
X2145233Y6772909D01*
X2146198Y6768642D01*
X2146198Y6604457D01*
X2145233Y6600190D01*
X2144166Y6597853D01*
X2141626Y6588404D01*
X2140762Y6578600D01*
X2141626Y6568795D01*
X2144166Y6559346D01*
X2145233Y6557009D01*
X2146198Y6552742D01*
X2146198Y6388557D01*
X2145233Y6384290D01*
X2144166Y6381953D01*
X2141626Y6372504D01*
X2140762Y6362700D01*
X2141626Y6352895D01*
X2144166Y6343446D01*
X2145233Y6341110D01*
X2146198Y6336792D01*
X2146198Y6172708D01*
X2145233Y6168390D01*
X2144166Y6166053D01*
X2141626Y6156604D01*
X2140762Y6146800D01*
X2141626Y6136995D01*
X2144166Y6127546D01*
X2145233Y6125210D01*
X2146198Y6120892D01*
X2146198Y5956808D01*
X2145233Y5952490D01*
X2144166Y5950153D01*
X2141626Y5940704D01*
X2140762Y5930900D01*
X2141626Y5921095D01*
X2144166Y5911646D01*
X2145233Y5909310D01*
X2146198Y5904992D01*
X2146198Y5740908D01*
X2145233Y5736590D01*
X2144166Y5734253D01*
X2141626Y5724804D01*
X2140762Y5715000D01*
X2141626Y5705195D01*
X2144166Y5695746D01*
X2145233Y5693410D01*
X2146198Y5689092D01*
X2146198Y5525008D01*
X2145233Y5520690D01*
X2144166Y5518353D01*
X2141626Y5508904D01*
X2140762Y5499100D01*
X2141626Y5489295D01*
X2144166Y5479846D01*
X2145233Y5477510D01*
X2146198Y5473192D01*
X2146198Y5309108D01*
X2145233Y5304790D01*
X2144166Y5302453D01*
X2141626Y5293004D01*
X2140762Y5283200D01*
X2141626Y5273395D01*
X2144166Y5263946D01*
X2145233Y5261610D01*
X2146198Y5257292D01*
X2146198Y5093208D01*
X2145233Y5088890D01*
X2144166Y5086553D01*
X2141626Y5077104D01*
X2140762Y5067300D01*
X2141626Y5057495D01*
X2144166Y5048046D01*
X2145233Y5045710D01*
X2146198Y5041392D01*
X2146198Y4877308D01*
X2145233Y4872990D01*
X2144166Y4870653D01*
X2141626Y4861204D01*
X2140762Y4851400D01*
X2141626Y4841595D01*
X2144166Y4832146D01*
X2145233Y4829810D01*
X2146198Y4825492D01*
X2146198Y4661408D01*
X2145233Y4657090D01*
X2144166Y4654753D01*
X2141626Y4645304D01*
X2140762Y4635500D01*
X2141626Y4625695D01*
X2144166Y4616246D01*
X2145233Y4613910D01*
X2146198Y4609592D01*
X2146198Y4445508D01*
X2145233Y4441190D01*
X2144166Y4438853D01*
X2141626Y4429404D01*
X2140762Y4419600D01*
X2141626Y4409795D01*
X2144166Y4400346D01*
X2145233Y4398010D01*
X2146198Y4393692D01*
X2146198Y4229608D01*
X2145233Y4225290D01*
X2144166Y4222953D01*
X2141626Y4213504D01*
X2140762Y4203700D01*
X2141626Y4193895D01*
X2144166Y4184446D01*
X2145233Y4182110D01*
X2146198Y4177792D01*
X2146198Y4013708D01*
X2145233Y4009390D01*
X2144166Y4007053D01*
X2141626Y3997604D01*
X2140762Y3987800D01*
X2141626Y3977995D01*
X2144166Y3968546D01*
X2148281Y3959606D01*
X2153920Y3951579D01*
X2160879Y3944620D01*
X2168956Y3938981D01*
X2171649Y3936187D01*
X2173122Y3932580D01*
X2173122Y3928719D01*
X2171649Y3925112D01*
X2168956Y3922318D01*
X2160879Y3916679D01*
X2159304Y3915105D01*
X2156002Y3912870D01*
X2152091Y3912108D01*
X1671218Y3912108D01*
X1667306Y3912870D01*
X1664004Y3915105D01*
X1235405Y4343704D01*
X1233170Y4347006D01*
X1232408Y4350918D01*
X1232408Y10639907D01*
X1233170Y10643768D01*
X1235405Y10647070D01*
X1236980Y10648645D01*
X1242618Y10656722D01*
X1246733Y10665612D01*
X1249273Y10675112D01*
X1250137Y10684865D01*
X1249273Y10694670D01*
X1246733Y10704169D01*
X1242618Y10713059D01*
X1236980Y10721136D01*
X1230020Y10728045D01*
X1221994Y10733684D01*
X1213053Y10737850D01*
X1203604Y10740390D01*
X1193800Y10741253D01*
X1183995Y10740390D01*
X1174546Y10737850D01*
X1165606Y10733684D01*
X1157579Y10728045D01*
X1150620Y10721136D01*
X1144981Y10713059D01*
X1140866Y10704169D01*
X1138326Y10694670D01*
X1137462Y10684865D01*
X1138326Y10675112D01*
X1140866Y10665612D01*
X1144981Y10656722D01*
X1150620Y10648645D01*
X1152194Y10647070D01*
X1154430Y10643768D01*
X1155192Y10639907D01*
X1155192Y4331208D01*
X1156004Y4323181D01*
X1158189Y4315968D01*
X1161745Y4309262D01*
X1166876Y4303064D01*
X1623364Y3846576D01*
X1629562Y3841445D01*
X1636268Y3837889D01*
X1643481Y3835704D01*
X1651507Y3834892D01*
X2152091Y3834892D01*
X2156002Y3834129D01*
X2159304Y3831894D01*
X2160879Y3830320D01*
X2168906Y3824681D01*
X2177846Y3820566D01*
X2187295Y3818026D01*
X2197100Y3817162D01*
X2206904Y3818026D01*
X2216353Y3820566D01*
X2225294Y3824681D01*
X2233320Y3830320D01*
X2240280Y3837279D01*
X2245918Y3845306D01*
X2250033Y3854246D01*
X2252573Y3863695D01*
X2253437Y3873500D01*
X2252573Y3883304D01*
X2250033Y3892753D01*
X2245918Y3901694D01*
X2240280Y3909720D01*
X2233320Y3916679D01*
X2225243Y3922318D01*
X2222550Y3925112D01*
X2221077Y3928719D01*
X2221077Y3932580D01*
X2222550Y3936187D01*
X2225243Y3938981D01*
X2233320Y3944620D01*
X2240280Y3951579D01*
X2245918Y3959606D01*
X2250033Y3968546D01*
X2252573Y3977995D01*
X2253437Y3987800D01*
X2252573Y3997604D01*
X2250033Y4007053D01*
X2248966Y4009390D01*
X2248001Y4013708D01*
X2248001Y4177792D01*
X2248966Y4182110D01*
X2250033Y4184446D01*
X2252573Y4193895D01*
X2253437Y4203700D01*
X2252573Y4213504D01*
X2250033Y4222953D01*
X2248966Y4225290D01*
X2248001Y4229608D01*
X2248001Y4393692D01*
X2248966Y4398010D01*
X2250033Y4400346D01*
X2252573Y4409795D01*
X2253437Y4419600D01*
X2252573Y4429404D01*
X2250033Y4438853D01*
X2248966Y4441190D01*
X2248001Y4445508D01*
X2248001Y4609592D01*
X2248966Y4613910D01*
X2250033Y4616246D01*
X2252573Y4625695D01*
X2253437Y4635500D01*
X2252573Y4645304D01*
X2250033Y4654753D01*
X2248966Y4657090D01*
X2248001Y4661408D01*
X2248001Y4825492D01*
X2248966Y4829810D01*
X2250033Y4832146D01*
X2252573Y4841595D01*
X2253437Y4851400D01*
X2252573Y4861204D01*
X2250033Y4870653D01*
X2248966Y4872990D01*
X2248001Y4877308D01*
X2248001Y5041392D01*
X2248966Y5045710D01*
X2250033Y5048046D01*
X2252573Y5057495D01*
X2253437Y5067300D01*
X2252573Y5077104D01*
X2250033Y5086553D01*
X2248966Y5088890D01*
X2248001Y5093208D01*
X2248001Y5257292D01*
X2248966Y5261610D01*
X2250033Y5263946D01*
X2252573Y5273395D01*
X2253437Y5283200D01*
X2252573Y5293004D01*
X2250033Y5302453D01*
X2248966Y5304790D01*
X2248001Y5309108D01*
X2248001Y5473192D01*
X2248966Y5477510D01*
X2250033Y5479846D01*
X2252573Y5489295D01*
X2253437Y5499100D01*
X2252573Y5508904D01*
X2250033Y5518353D01*
X2248966Y5520690D01*
X2248001Y5525008D01*
X2248001Y5689092D01*
X2248966Y5693410D01*
X2250033Y5695746D01*
X2252573Y5705195D01*
X2253437Y5715000D01*
X2252573Y5724804D01*
X2250033Y5734253D01*
X2248966Y5736590D01*
X2248001Y5740908D01*
X2248001Y5904992D01*
X2248966Y5909310D01*
X2250033Y5911646D01*
X2252573Y5921095D01*
X2253437Y5930900D01*
X2252573Y5940704D01*
X2250033Y5950153D01*
X2248966Y5952490D01*
X2248001Y5956808D01*
X2248001Y6120892D01*
X2248966Y6125210D01*
X2250033Y6127546D01*
X2252573Y6136995D01*
X2253437Y6146800D01*
X2252573Y6156604D01*
X2250033Y6166053D01*
X2248966Y6168390D01*
X2248001Y6172708D01*
X2248001Y6336792D01*
X2248966Y6341110D01*
X2250033Y6343446D01*
X2252573Y6352895D01*
X2253437Y6362700D01*
X2252573Y6372504D01*
X2250033Y6381953D01*
X2248966Y6384340D01*
X2248001Y6388608D01*
X2248001Y6552641D01*
X2248966Y6556959D01*
X2250033Y6559346D01*
X2252573Y6568795D01*
X2253437Y6578600D01*
X2252573Y6588404D01*
X2250033Y6597853D01*
X2248966Y6600240D01*
X2248001Y6604508D01*
X2248001Y6768541D01*
X2248966Y6772859D01*
X2250033Y6775246D01*
X2252573Y6784695D01*
X2253437Y6794500D01*
X2252573Y6804304D01*
X2250033Y6813753D01*
X2248966Y6816140D01*
X2248001Y6820408D01*
X2248001Y6984441D01*
X2248966Y6988759D01*
X2250033Y6991146D01*
X2252573Y7000595D01*
X2253437Y7010400D01*
X2252573Y7020204D01*
X2250033Y7029653D01*
X2248966Y7032040D01*
X2248001Y7036308D01*
X2248001Y7200341D01*
X2248966Y7204659D01*
X2250033Y7207046D01*
X2252573Y7216495D01*
X2253437Y7226300D01*
X2252573Y7236104D01*
X2250033Y7245553D01*
X2248966Y7247940D01*
X2248001Y7252208D01*
X2248001Y7416241D01*
X2248966Y7420559D01*
X2250033Y7422946D01*
X2252573Y7432395D01*
X2253437Y7442200D01*
X2252573Y7452004D01*
X2250033Y7461453D01*
X2248966Y7463840D01*
X2248001Y7468108D01*
X2248001Y7632141D01*
X2248966Y7636459D01*
X2250033Y7638846D01*
X2252573Y7648295D01*
X2253437Y7658100D01*
X2252573Y7667904D01*
X2250033Y7677353D01*
X2248966Y7679740D01*
X2248001Y7684008D01*
X2248001Y7848041D01*
X2248966Y7852359D01*
X2250033Y7854746D01*
X2252573Y7864195D01*
X2253437Y7874000D01*
X2252573Y7883804D01*
X2250033Y7893253D01*
X2248966Y7895640D01*
X2248001Y7899908D01*
X2248001Y8063941D01*
X2248966Y8068259D01*
X2250033Y8070646D01*
X2252573Y8080095D01*
X2253437Y8089900D01*
X2252573Y8099704D01*
X2250033Y8109153D01*
X2248966Y8111540D01*
X2248001Y8115808D01*
X2248001Y8279841D01*
X2248966Y8284159D01*
X2250033Y8286546D01*
X2252573Y8295995D01*
X2253437Y8305800D01*
X2252573Y8315604D01*
X2250033Y8325053D01*
X2248966Y8327440D01*
X2248001Y8331708D01*
X2248001Y8495741D01*
X2248966Y8500059D01*
X2250033Y8502446D01*
X2252573Y8511895D01*
X2253437Y8521700D01*
X2252573Y8531504D01*
X2250033Y8540953D01*
X2248966Y8543340D01*
X2248001Y8547608D01*
X2248001Y8711641D01*
X2248966Y8715959D01*
X2250033Y8718346D01*
X2252573Y8727795D01*
X2253437Y8737600D01*
X2252573Y8747404D01*
X2250033Y8756853D01*
X2248966Y8759240D01*
X2248001Y8763508D01*
X2248001Y8927541D01*
X2248966Y8931859D01*
X2250033Y8934246D01*
X2252573Y8943695D01*
X2253437Y8953500D01*
X2252573Y8963304D01*
X2250033Y8972753D01*
X2248966Y8975140D01*
X2248001Y8979408D01*
X2248001Y9143441D01*
X2248966Y9147759D01*
X2250033Y9150146D01*
X2252573Y9159595D01*
X2253437Y9169400D01*
X2252573Y9179204D01*
X2250033Y9188653D01*
X2248966Y9190990D01*
X2248001Y9195308D01*
X2248001Y9359442D01*
X2248966Y9363760D01*
X2250033Y9366046D01*
X2252573Y9375495D01*
X2253437Y9385300D01*
X2252573Y9395104D01*
X2250033Y9404553D01*
X2248966Y9406890D01*
X2248001Y9411157D01*
X2248001Y9575342D01*
X2248966Y9579610D01*
X2250033Y9581946D01*
X2252573Y9591395D01*
X2253437Y9601200D01*
X2252573Y9611004D01*
X2250033Y9620453D01*
X2248966Y9622790D01*
X2248001Y9627057D01*
X2248001Y9791242D01*
X2248966Y9795510D01*
X2250033Y9797846D01*
X2252573Y9807295D01*
X2253437Y9817100D01*
X2252573Y9826904D01*
X2250033Y9836353D01*
X2248966Y9838690D01*
X2248001Y9842957D01*
X2248001Y10007142D01*
X2248966Y10011410D01*
X2250033Y10013746D01*
X2252573Y10023195D01*
X2253437Y10033000D01*
X2252573Y10042804D01*
X2250033Y10052253D01*
X2248966Y10054590D01*
X2248001Y10058857D01*
X2248001Y10223042D01*
X2248966Y10227310D01*
X2250033Y10229646D01*
X2252573Y10239095D01*
X2253437Y10248900D01*
X2252573Y10258704D01*
X2250033Y10268153D01*
X2248966Y10270490D01*
X2248001Y10274757D01*
X2248001Y10438942D01*
X2248966Y10443210D01*
X2250033Y10445546D01*
X2252573Y10454995D01*
X2253437Y10464800D01*
X2252573Y10474604D01*
X2250033Y10484053D01*
X2248966Y10486390D01*
X2248001Y10490657D01*
X2248001Y10654842D01*
X2248966Y10659110D01*
X2250033Y10661446D01*
X2252573Y10670895D01*
X2253437Y10680700D01*
X2252573Y10690504D01*
X2250033Y10699953D01*
X2248966Y10702290D01*
X2248001Y10706557D01*
X2248001Y11141608D01*
X2248966Y11145875D01*
X2250033Y11148212D01*
X2252573Y11157712D01*
X2253437Y11167465D01*
X2252573Y11177270D01*
X2250033Y11186769D01*
X2245918Y11195659D01*
X2240280Y11203736D01*
X2233320Y11210645D01*
X2225294Y11216284D01*
X2216353Y11220450D01*
X2206904Y11222990D01*
X2197100Y11223853D01*
X2187295Y11222990D01*
X2177846Y11220450D01*
X2168906Y11216284D01*
X2160879Y11210645D01*
X2153920Y11203736D01*
X2148281Y11195659D01*
X2144166Y11186769D01*
X2141626Y11177270D01*
X2140762Y11167465D01*
X2141626Y11157712D01*
X2144166Y11148212D01*
X2145233Y11145875D01*
X2146198Y11141608D01*
X2146198Y10830661D01*
X2145436Y10826800D01*
X2143201Y10823498D01*
X2139899Y10821263D01*
X2136038Y10820501D01*
X2093417Y10820501D01*
X2089353Y10821365D01*
X2085949Y10823752D01*
X2083816Y10827258D01*
X2083257Y10831372D01*
X2084374Y10835335D01*
X2089759Y10845698D01*
X2094128Y10858042D01*
X2096820Y10871200D01*
X2014474Y10871200D01*
X2014474Y10830661D01*
X2013712Y10826800D01*
X2011527Y10823498D01*
X2008225Y10821263D01*
X2004364Y10820501D01*
X1999284Y10820501D01*
X1995373Y10821263D01*
X1992071Y10823498D01*
X1989886Y10826800D01*
X1989074Y10830661D01*
X1989074Y10871200D01*
X1907692Y10871200D01*
X1903780Y10871962D01*
X1900529Y10874197D01*
X1898294Y10877448D01*
X1897532Y10881360D01*
X1897532Y10886440D01*
X1898294Y10890351D01*
X1900529Y10893602D01*
X1903780Y10895838D01*
X1907692Y10896600D01*
X1989074Y10896600D01*
X1989074Y10978692D01*
X1982266Y10977778D01*
X1969668Y10974222D01*
X1957679Y10969040D01*
X1946503Y10962233D01*
X1936343Y10953953D01*
X1927402Y10944402D01*
X1919884Y10933734D01*
X1913839Y10922101D01*
X1911350Y10915142D01*
X1909216Y10911586D01*
X1905863Y10909198D01*
X1901799Y10908385D01*
X1897735Y10909198D01*
X1894382Y10911586D01*
X1892249Y10915142D01*
X1889760Y10922101D01*
X1883714Y10933734D01*
X1876196Y10944402D01*
X1867255Y10953953D01*
X1857095Y10962233D01*
X1845919Y10969040D01*
X1833930Y10974222D01*
X1821332Y10977778D01*
X1808327Y10979556D01*
X1795272Y10979556D01*
X1782267Y10977778D01*
X1772564Y10975035D01*
X1769008Y10974730D01*
X1765554Y10975594D01*
X1762658Y10977676D01*
X1743405Y10996930D01*
X1741170Y11000232D01*
X1740407Y11004092D01*
X1740407Y11122507D01*
X1741170Y11126368D01*
X1743405Y11129670D01*
X1744980Y11131245D01*
X1750618Y11139322D01*
X1754733Y11148212D01*
X1757273Y11157712D01*
X1758137Y11167465D01*
X1757273Y11177270D01*
X1754733Y11186769D01*
X1750618Y11195659D01*
X1744980Y11203736D01*
X1738020Y11210645D01*
X1729993Y11216284D01*
X1721053Y11220450D01*
X1711604Y11222990D01*
X1701800Y11223853D01*
X1691995Y11222990D01*
X1682546Y11220450D01*
X1673606Y11216284D01*
X1665579Y11210645D01*
X1658620Y11203736D01*
X1652981Y11195659D01*
X1648866Y11186769D01*
X1646326Y11177270D01*
X1645462Y11167465D01*
X1646326Y11157712D01*
X1648866Y11148212D01*
X1652981Y11139322D01*
X1658620Y11131245D01*
X1660194Y11129670D01*
X1662430Y11126368D01*
X1663192Y11122507D01*
X1663192Y10984382D01*
X1663903Y10977118D01*
X1663344Y10972698D01*
X1660956Y10968939D01*
X1657197Y10966551D01*
X1652727Y10966043D01*
X1648510Y10967466D01*
X1645920Y10969040D01*
X1633931Y10974222D01*
X1621332Y10977778D01*
X1608328Y10979556D01*
X1595272Y10979556D01*
X1582267Y10977778D01*
X1572514Y10975035D01*
X1568958Y10974679D01*
X1565503Y10975594D01*
X1562608Y10977626D01*
X1502359Y11037824D01*
X1496161Y11042954D01*
X1489506Y11046510D01*
X1482242Y11048695D01*
X1474216Y11049508D01*
X1092708Y11049508D01*
X1084681Y11048695D01*
X1077468Y11046510D01*
X1070762Y11042954D01*
X1064564Y11037824D01*
X1027176Y11000435D01*
X1022045Y10994237D01*
X1018489Y10987532D01*
X1016304Y10980318D01*
X1015492Y10972292D01*
X1015492Y4280408D01*
X1016304Y4272381D01*
X1018489Y4265168D01*
X1022045Y4258462D01*
X1027176Y4252264D01*
X1477568Y3801821D01*
X1479600Y3798925D01*
X1480515Y3795522D01*
X1481226Y3787495D01*
X1483766Y3778046D01*
X1487881Y3769106D01*
X1493520Y3761079D01*
X1500479Y3754120D01*
X1508506Y3748481D01*
X1517446Y3744366D01*
X1526895Y3741826D01*
G37*
G36*
X7277100Y3740962D02*
G01*
X7286904Y3741826D01*
X7296353Y3744366D01*
X7305294Y3748481D01*
X7313320Y3754120D01*
X7320280Y3761079D01*
X7325918Y3769106D01*
X7330033Y3778046D01*
X7332573Y3787495D01*
X7333437Y3797300D01*
X7332573Y3807104D01*
X7330033Y3816553D01*
X7325918Y3825494D01*
X7320280Y3833520D01*
X7313320Y3840479D01*
X7305294Y3846118D01*
X7296353Y3850233D01*
X7286904Y3852773D01*
X7278878Y3853484D01*
X7275474Y3854399D01*
X7272578Y3856431D01*
X6836105Y4292904D01*
X6833870Y4296206D01*
X6833108Y4300118D01*
X6833108Y10952581D01*
X6833870Y10956493D01*
X6836105Y10959795D01*
X6845604Y10969294D01*
X6848906Y10971530D01*
X6852818Y10972292D01*
X7030923Y10972292D01*
X7035088Y10971377D01*
X7038492Y10968888D01*
X7040625Y10965180D01*
X7040981Y10960912D01*
X7040118Y10953292D01*
X7040118Y10896600D01*
X7129525Y10896600D01*
X7129525Y10962132D01*
X7130288Y10966043D01*
X7132472Y10969294D01*
X7135774Y10971530D01*
X7139686Y10972292D01*
X7144766Y10972292D01*
X7148626Y10971530D01*
X7151928Y10969294D01*
X7154113Y10966043D01*
X7154925Y10962132D01*
X7154925Y10896600D01*
X7236307Y10896600D01*
X7240219Y10895838D01*
X7243470Y10893602D01*
X7245705Y10890351D01*
X7246467Y10886440D01*
X7246467Y10881360D01*
X7245705Y10877448D01*
X7243470Y10874197D01*
X7240219Y10871962D01*
X7236307Y10871200D01*
X7154925Y10871200D01*
X7154925Y10787989D01*
X7217816Y10787989D01*
X7224166Y10788700D01*
X7229602Y10790631D01*
X7234529Y10793679D01*
X7238593Y10797794D01*
X7241692Y10802670D01*
X7243572Y10808157D01*
X7244334Y10814456D01*
X7244334Y10824667D01*
X7245197Y10828832D01*
X7247686Y10832287D01*
X7251395Y10834370D01*
X7255611Y10834776D01*
X7259624Y10833404D01*
X7262774Y10830560D01*
X7267803Y10823397D01*
X7276744Y10813846D01*
X7286904Y10805566D01*
X7298080Y10798759D01*
X7310069Y10793526D01*
X7322667Y10790021D01*
X7335672Y10788243D01*
X7348728Y10788243D01*
X7361732Y10790021D01*
X7374331Y10793526D01*
X7377175Y10794796D01*
X7381138Y10795609D01*
X7385151Y10794847D01*
X7388504Y10792510D01*
X7390688Y10789056D01*
X7391298Y10783671D01*
X7391298Y10710773D01*
X7390333Y10706506D01*
X7389266Y10704169D01*
X7386726Y10694670D01*
X7385862Y10684865D01*
X7386726Y10675112D01*
X7389266Y10665612D01*
X7390333Y10663275D01*
X7391298Y10659008D01*
X7391298Y10494873D01*
X7390333Y10490606D01*
X7389266Y10488269D01*
X7386726Y10478770D01*
X7385862Y10468965D01*
X7386726Y10459212D01*
X7389266Y10449712D01*
X7390333Y10447375D01*
X7391298Y10443108D01*
X7391298Y10278973D01*
X7390333Y10274706D01*
X7389266Y10272369D01*
X7386726Y10262870D01*
X7385862Y10253065D01*
X7386726Y10243312D01*
X7389266Y10233812D01*
X7390333Y10231475D01*
X7391298Y10227208D01*
X7391298Y10063073D01*
X7390333Y10058806D01*
X7389266Y10056469D01*
X7386726Y10046970D01*
X7385862Y10037165D01*
X7386726Y10027412D01*
X7389266Y10017912D01*
X7390333Y10015575D01*
X7391298Y10011308D01*
X7391298Y9847173D01*
X7390333Y9842906D01*
X7389266Y9840569D01*
X7386726Y9831070D01*
X7385862Y9821265D01*
X7386726Y9811512D01*
X7389266Y9802012D01*
X7390333Y9799675D01*
X7391298Y9795408D01*
X7391298Y9631273D01*
X7390333Y9627006D01*
X7389266Y9624669D01*
X7386726Y9615170D01*
X7385862Y9605365D01*
X7386726Y9595612D01*
X7389266Y9586112D01*
X7390333Y9583775D01*
X7391298Y9579508D01*
X7391298Y9415373D01*
X7390333Y9411106D01*
X7389266Y9408769D01*
X7386726Y9399270D01*
X7385862Y9389465D01*
X7386726Y9379712D01*
X7389266Y9370212D01*
X7390333Y9367875D01*
X7391298Y9363608D01*
X7391298Y9199473D01*
X7390333Y9195206D01*
X7389266Y9192869D01*
X7386726Y9183370D01*
X7385862Y9173565D01*
X7386726Y9163812D01*
X7389266Y9154312D01*
X7390333Y9151975D01*
X7391298Y9147708D01*
X7391298Y8983573D01*
X7390333Y8979306D01*
X7389266Y8976969D01*
X7386726Y8967470D01*
X7385862Y8957665D01*
X7386726Y8947912D01*
X7389266Y8938412D01*
X7390333Y8936075D01*
X7391298Y8931808D01*
X7391298Y8767673D01*
X7390333Y8763406D01*
X7389266Y8761069D01*
X7386726Y8751570D01*
X7385862Y8741765D01*
X7386726Y8732012D01*
X7389266Y8722512D01*
X7390333Y8720175D01*
X7391298Y8715908D01*
X7391298Y8551773D01*
X7390333Y8547506D01*
X7389266Y8545169D01*
X7386726Y8535670D01*
X7385862Y8525865D01*
X7386726Y8516112D01*
X7389266Y8506612D01*
X7390333Y8504275D01*
X7391298Y8500008D01*
X7391298Y8335873D01*
X7390333Y8331606D01*
X7389266Y8329269D01*
X7386726Y8319770D01*
X7385862Y8309965D01*
X7386726Y8300212D01*
X7389266Y8290712D01*
X7390333Y8288375D01*
X7391298Y8284108D01*
X7391298Y8119973D01*
X7390333Y8115706D01*
X7389266Y8113369D01*
X7386726Y8103870D01*
X7385862Y8094065D01*
X7386726Y8084312D01*
X7389266Y8074812D01*
X7390333Y8072475D01*
X7391298Y8068208D01*
X7391298Y7904073D01*
X7390333Y7899806D01*
X7389266Y7897469D01*
X7386726Y7887970D01*
X7385862Y7878165D01*
X7386726Y7868412D01*
X7389266Y7858912D01*
X7390333Y7856575D01*
X7391298Y7852308D01*
X7391298Y7688173D01*
X7390333Y7683906D01*
X7389266Y7681569D01*
X7386726Y7672070D01*
X7385862Y7662265D01*
X7386726Y7652512D01*
X7389266Y7643012D01*
X7390333Y7640675D01*
X7391298Y7636408D01*
X7391298Y7472273D01*
X7390333Y7468006D01*
X7389266Y7465669D01*
X7386726Y7456170D01*
X7385862Y7446365D01*
X7386726Y7436612D01*
X7389266Y7427112D01*
X7390333Y7424775D01*
X7391298Y7420508D01*
X7391298Y7256373D01*
X7390333Y7252106D01*
X7389266Y7249769D01*
X7386726Y7240270D01*
X7385862Y7230465D01*
X7386726Y7220712D01*
X7389266Y7211212D01*
X7390333Y7208875D01*
X7391298Y7204608D01*
X7391298Y7040473D01*
X7390333Y7036206D01*
X7389266Y7033869D01*
X7386726Y7024370D01*
X7385862Y7014565D01*
X7386726Y7004812D01*
X7389266Y6995312D01*
X7390333Y6992975D01*
X7391298Y6988708D01*
X7391298Y6824573D01*
X7390333Y6820306D01*
X7389266Y6817969D01*
X7386726Y6808470D01*
X7385862Y6798665D01*
X7386726Y6788912D01*
X7389266Y6779412D01*
X7390333Y6777075D01*
X7391298Y6772808D01*
X7391298Y6608673D01*
X7390333Y6604406D01*
X7389266Y6602069D01*
X7386726Y6592570D01*
X7385862Y6582765D01*
X7386726Y6573012D01*
X7389266Y6563512D01*
X7390333Y6561175D01*
X7391298Y6556908D01*
X7391298Y6392773D01*
X7390333Y6388506D01*
X7389266Y6386169D01*
X7386726Y6376670D01*
X7385862Y6366865D01*
X7386726Y6357112D01*
X7389266Y6347612D01*
X7390333Y6345275D01*
X7391298Y6341008D01*
X7391298Y6176873D01*
X7390333Y6172606D01*
X7389266Y6170269D01*
X7386726Y6160770D01*
X7385862Y6150965D01*
X7386726Y6141212D01*
X7389266Y6131712D01*
X7390333Y6129375D01*
X7391298Y6125108D01*
X7391298Y5960973D01*
X7390333Y5956706D01*
X7389266Y5954369D01*
X7386726Y5944870D01*
X7385862Y5935065D01*
X7386726Y5925312D01*
X7389266Y5915812D01*
X7390333Y5913475D01*
X7391298Y5909208D01*
X7391298Y5745073D01*
X7390333Y5740806D01*
X7389266Y5738469D01*
X7386726Y5728970D01*
X7385862Y5719165D01*
X7386726Y5709412D01*
X7389266Y5699912D01*
X7390333Y5697575D01*
X7391298Y5693308D01*
X7391298Y5529173D01*
X7390333Y5524906D01*
X7389266Y5522569D01*
X7386726Y5513070D01*
X7385862Y5503265D01*
X7386726Y5493512D01*
X7389266Y5484012D01*
X7390333Y5481675D01*
X7391298Y5477408D01*
X7391298Y5313273D01*
X7390333Y5309006D01*
X7389266Y5306669D01*
X7386726Y5297170D01*
X7385862Y5287365D01*
X7386726Y5277612D01*
X7389266Y5268112D01*
X7390333Y5265775D01*
X7391298Y5261508D01*
X7391298Y5097373D01*
X7390333Y5093106D01*
X7389266Y5090769D01*
X7386726Y5081270D01*
X7385862Y5071465D01*
X7386726Y5061712D01*
X7389266Y5052212D01*
X7390333Y5049875D01*
X7391298Y5045608D01*
X7391298Y4881473D01*
X7390333Y4877206D01*
X7389266Y4874869D01*
X7386726Y4865370D01*
X7385862Y4855565D01*
X7386726Y4845812D01*
X7389266Y4836312D01*
X7390333Y4833975D01*
X7391298Y4829708D01*
X7391298Y4665573D01*
X7390333Y4661306D01*
X7389266Y4658969D01*
X7386726Y4649470D01*
X7385862Y4639665D01*
X7386726Y4629912D01*
X7389266Y4620412D01*
X7390333Y4618075D01*
X7391298Y4613808D01*
X7391298Y4449673D01*
X7390333Y4445406D01*
X7389266Y4443069D01*
X7386726Y4433570D01*
X7385862Y4423765D01*
X7386726Y4414012D01*
X7389266Y4404512D01*
X7390333Y4402175D01*
X7391298Y4397908D01*
X7391298Y4233773D01*
X7390333Y4229506D01*
X7389266Y4227169D01*
X7386726Y4217670D01*
X7385862Y4207865D01*
X7386726Y4198112D01*
X7389266Y4188612D01*
X7390333Y4186275D01*
X7391298Y4182008D01*
X7391298Y4017873D01*
X7390333Y4013606D01*
X7389266Y4011269D01*
X7386726Y4001770D01*
X7385862Y3991965D01*
X7386726Y3982212D01*
X7389266Y3972712D01*
X7393381Y3963822D01*
X7399020Y3955745D01*
X7405979Y3948836D01*
X7414006Y3943197D01*
X7422946Y3939032D01*
X7432395Y3936492D01*
X7442200Y3935628D01*
X7452004Y3936492D01*
X7461453Y3939032D01*
X7470394Y3943197D01*
X7478420Y3948836D01*
X7485380Y3955745D01*
X7491018Y3963822D01*
X7495133Y3972712D01*
X7497673Y3982212D01*
X7498537Y3991965D01*
X7497673Y4001770D01*
X7495133Y4011269D01*
X7494066Y4013606D01*
X7493101Y4017873D01*
X7493101Y4182008D01*
X7494066Y4186275D01*
X7495133Y4188612D01*
X7497673Y4198112D01*
X7498537Y4207865D01*
X7497673Y4217670D01*
X7495133Y4227169D01*
X7494066Y4229506D01*
X7493101Y4233773D01*
X7493101Y4397908D01*
X7494066Y4402175D01*
X7495133Y4404512D01*
X7497673Y4414012D01*
X7498537Y4423765D01*
X7497673Y4433570D01*
X7495133Y4443069D01*
X7494066Y4445406D01*
X7493101Y4449673D01*
X7493101Y4613808D01*
X7494066Y4618075D01*
X7495133Y4620412D01*
X7497673Y4629912D01*
X7498537Y4639665D01*
X7497673Y4649470D01*
X7495133Y4658969D01*
X7494066Y4661306D01*
X7493101Y4665573D01*
X7493101Y4829708D01*
X7494066Y4833975D01*
X7495133Y4836312D01*
X7497673Y4845812D01*
X7498537Y4855565D01*
X7497673Y4865370D01*
X7495133Y4874869D01*
X7494066Y4877206D01*
X7493101Y4881473D01*
X7493101Y5045608D01*
X7494066Y5049875D01*
X7495133Y5052212D01*
X7497673Y5061712D01*
X7498537Y5071465D01*
X7497673Y5081270D01*
X7495133Y5090769D01*
X7494066Y5093106D01*
X7493101Y5097373D01*
X7493101Y5261508D01*
X7494066Y5265775D01*
X7495133Y5268112D01*
X7497673Y5277612D01*
X7498537Y5287365D01*
X7497673Y5297170D01*
X7495133Y5306669D01*
X7494066Y5309006D01*
X7493101Y5313273D01*
X7493101Y5477408D01*
X7494066Y5481675D01*
X7495133Y5484012D01*
X7497673Y5493512D01*
X7498537Y5503265D01*
X7497673Y5513070D01*
X7495133Y5522569D01*
X7494066Y5524906D01*
X7493101Y5529173D01*
X7493101Y5693308D01*
X7494066Y5697575D01*
X7495133Y5699912D01*
X7497673Y5709412D01*
X7498537Y5719165D01*
X7497673Y5728970D01*
X7495133Y5738469D01*
X7494066Y5740806D01*
X7493101Y5745073D01*
X7493101Y5909208D01*
X7494066Y5913475D01*
X7495133Y5915812D01*
X7497673Y5925312D01*
X7498537Y5935065D01*
X7497673Y5944870D01*
X7495133Y5954369D01*
X7494066Y5956706D01*
X7493101Y5960973D01*
X7493101Y6125108D01*
X7494066Y6129375D01*
X7495133Y6131712D01*
X7497673Y6141212D01*
X7498537Y6150965D01*
X7497673Y6160770D01*
X7495133Y6170269D01*
X7494066Y6172606D01*
X7493101Y6176873D01*
X7493101Y6341008D01*
X7494066Y6345275D01*
X7495133Y6347612D01*
X7497673Y6357112D01*
X7498537Y6366865D01*
X7497673Y6376670D01*
X7495133Y6386169D01*
X7494066Y6388506D01*
X7493101Y6392773D01*
X7493101Y6556908D01*
X7494066Y6561175D01*
X7495133Y6563512D01*
X7497673Y6573012D01*
X7498537Y6582765D01*
X7497673Y6592570D01*
X7495133Y6602069D01*
X7494066Y6604406D01*
X7493101Y6608673D01*
X7493101Y6772808D01*
X7494066Y6777075D01*
X7495133Y6779412D01*
X7497673Y6788912D01*
X7498537Y6798665D01*
X7497673Y6808470D01*
X7495133Y6817969D01*
X7494066Y6820306D01*
X7493101Y6824573D01*
X7493101Y6988708D01*
X7494066Y6992975D01*
X7495133Y6995312D01*
X7497673Y7004812D01*
X7498537Y7014565D01*
X7497673Y7024370D01*
X7495133Y7033869D01*
X7494066Y7036206D01*
X7493101Y7040473D01*
X7493101Y7204608D01*
X7494066Y7208875D01*
X7495133Y7211212D01*
X7497673Y7220712D01*
X7498537Y7230465D01*
X7497673Y7240270D01*
X7495133Y7249769D01*
X7494066Y7252106D01*
X7493101Y7256373D01*
X7493101Y7420508D01*
X7494066Y7424775D01*
X7495133Y7427112D01*
X7497673Y7436612D01*
X7498537Y7446365D01*
X7497673Y7456170D01*
X7495133Y7465669D01*
X7494066Y7468006D01*
X7493101Y7472273D01*
X7493101Y7636408D01*
X7494066Y7640675D01*
X7495133Y7643012D01*
X7497673Y7652512D01*
X7498537Y7662265D01*
X7497673Y7672070D01*
X7495133Y7681569D01*
X7494066Y7683906D01*
X7493101Y7688173D01*
X7493101Y7852308D01*
X7494066Y7856575D01*
X7495133Y7858912D01*
X7497673Y7868412D01*
X7498537Y7878165D01*
X7497673Y7887970D01*
X7495133Y7897469D01*
X7494066Y7899806D01*
X7493101Y7904073D01*
X7493101Y8068208D01*
X7494066Y8072475D01*
X7495133Y8074812D01*
X7497673Y8084312D01*
X7498537Y8094065D01*
X7497673Y8103870D01*
X7495133Y8113369D01*
X7494066Y8115706D01*
X7493101Y8119973D01*
X7493101Y8284108D01*
X7494066Y8288375D01*
X7495133Y8290712D01*
X7497673Y8300212D01*
X7498537Y8309965D01*
X7497673Y8319770D01*
X7495133Y8329269D01*
X7494066Y8331606D01*
X7493101Y8335873D01*
X7493101Y8500008D01*
X7494066Y8504275D01*
X7495133Y8506612D01*
X7497673Y8516112D01*
X7498537Y8525865D01*
X7497673Y8535670D01*
X7495133Y8545169D01*
X7494066Y8547506D01*
X7493101Y8551773D01*
X7493101Y8715908D01*
X7494066Y8720175D01*
X7495133Y8722512D01*
X7497673Y8732012D01*
X7498537Y8741765D01*
X7497673Y8751570D01*
X7495133Y8761069D01*
X7494066Y8763406D01*
X7493101Y8767673D01*
X7493101Y8931808D01*
X7494066Y8936075D01*
X7495133Y8938412D01*
X7497673Y8947912D01*
X7498537Y8957665D01*
X7497673Y8967470D01*
X7495133Y8976969D01*
X7494066Y8979306D01*
X7493101Y8983573D01*
X7493101Y9147708D01*
X7494066Y9151975D01*
X7495133Y9154312D01*
X7497673Y9163812D01*
X7498537Y9173565D01*
X7497673Y9183370D01*
X7495133Y9192869D01*
X7494066Y9195206D01*
X7493101Y9199473D01*
X7493101Y9363608D01*
X7494066Y9367875D01*
X7495133Y9370212D01*
X7497673Y9379712D01*
X7498537Y9389465D01*
X7497673Y9399270D01*
X7495133Y9408769D01*
X7494066Y9411106D01*
X7493101Y9415373D01*
X7493101Y9579508D01*
X7494066Y9583775D01*
X7495133Y9586112D01*
X7497673Y9595612D01*
X7498537Y9605365D01*
X7497673Y9615170D01*
X7495133Y9624669D01*
X7494066Y9627006D01*
X7493101Y9631273D01*
X7493101Y9795408D01*
X7494066Y9799675D01*
X7495133Y9802012D01*
X7497673Y9811512D01*
X7498537Y9821265D01*
X7497673Y9831070D01*
X7495133Y9840569D01*
X7494066Y9842906D01*
X7493101Y9847173D01*
X7493101Y10011308D01*
X7494066Y10015575D01*
X7495133Y10017912D01*
X7497673Y10027412D01*
X7498537Y10037165D01*
X7497673Y10046970D01*
X7495133Y10056469D01*
X7494066Y10058806D01*
X7493101Y10063073D01*
X7493101Y10227208D01*
X7494066Y10231475D01*
X7495133Y10233812D01*
X7497673Y10243312D01*
X7498537Y10253065D01*
X7497673Y10262870D01*
X7495133Y10272369D01*
X7494066Y10274706D01*
X7493101Y10278973D01*
X7493101Y10443108D01*
X7494066Y10447375D01*
X7495133Y10449712D01*
X7497673Y10459212D01*
X7498537Y10468965D01*
X7497673Y10478770D01*
X7495133Y10488269D01*
X7494066Y10490606D01*
X7493101Y10494873D01*
X7493101Y10659008D01*
X7494066Y10663275D01*
X7495133Y10665612D01*
X7497673Y10675112D01*
X7498537Y10684865D01*
X7497673Y10694670D01*
X7495133Y10704169D01*
X7494066Y10706506D01*
X7493101Y10710773D01*
X7493101Y10758627D01*
X7493863Y10762488D01*
X7496098Y10765790D01*
X7517028Y10786719D01*
X7519568Y10788599D01*
X7522514Y10789564D01*
X7525613Y10789615D01*
X7535672Y10788243D01*
X7548727Y10788243D01*
X7558786Y10789615D01*
X7561884Y10789564D01*
X7564831Y10788599D01*
X7567371Y10786719D01*
X7620355Y10733735D01*
X7623759Y10730585D01*
X7627315Y10727893D01*
X7631074Y10725505D01*
X7634986Y10723473D01*
X7639100Y10721746D01*
X7643317Y10720425D01*
X7647686Y10719460D01*
X7652054Y10718901D01*
X7656728Y10718698D01*
X7876438Y10718698D01*
X7880299Y10717936D01*
X7883601Y10715701D01*
X7885785Y10712399D01*
X7886598Y10708538D01*
X7886598Y10706608D01*
X7885633Y10702340D01*
X7884515Y10699953D01*
X7881975Y10690504D01*
X7881112Y10680700D01*
X7881975Y10670895D01*
X7884515Y10661446D01*
X7885633Y10659059D01*
X7886598Y10654741D01*
X7886598Y10490708D01*
X7885633Y10486440D01*
X7884515Y10484053D01*
X7881975Y10474604D01*
X7881112Y10464800D01*
X7881975Y10454995D01*
X7884515Y10445546D01*
X7885633Y10443159D01*
X7886598Y10438841D01*
X7886598Y10274808D01*
X7885633Y10270540D01*
X7884515Y10268153D01*
X7881975Y10258704D01*
X7881112Y10248900D01*
X7881975Y10239095D01*
X7884515Y10229646D01*
X7885633Y10227259D01*
X7886598Y10222941D01*
X7886598Y10058908D01*
X7885633Y10054640D01*
X7884515Y10052253D01*
X7881975Y10042804D01*
X7881112Y10033000D01*
X7881975Y10023195D01*
X7884515Y10013746D01*
X7885633Y10011359D01*
X7886598Y10007041D01*
X7886598Y9843008D01*
X7885633Y9838740D01*
X7884515Y9836353D01*
X7881975Y9826904D01*
X7881112Y9817100D01*
X7881975Y9807295D01*
X7884515Y9797846D01*
X7885633Y9795459D01*
X7886598Y9791141D01*
X7886598Y9627108D01*
X7885633Y9622840D01*
X7884515Y9620453D01*
X7881975Y9611004D01*
X7881112Y9601200D01*
X7881975Y9591395D01*
X7884515Y9581946D01*
X7885633Y9579559D01*
X7886598Y9575241D01*
X7886598Y9411208D01*
X7885633Y9406940D01*
X7884515Y9404553D01*
X7881975Y9395104D01*
X7881112Y9385300D01*
X7881975Y9375495D01*
X7884515Y9366046D01*
X7885633Y9363608D01*
X7886598Y9359341D01*
X7886598Y9195308D01*
X7885633Y9190990D01*
X7884566Y9188653D01*
X7882026Y9179204D01*
X7881162Y9169400D01*
X7882026Y9159595D01*
X7884566Y9150146D01*
X7885633Y9147810D01*
X7886598Y9143542D01*
X7886598Y8979357D01*
X7885633Y8975090D01*
X7884566Y8972753D01*
X7882026Y8963304D01*
X7881162Y8953500D01*
X7882026Y8943695D01*
X7884566Y8934246D01*
X7885633Y8931910D01*
X7886598Y8927642D01*
X7886598Y8763457D01*
X7885633Y8759190D01*
X7884566Y8756853D01*
X7882026Y8747404D01*
X7881162Y8737600D01*
X7882026Y8727795D01*
X7884566Y8718346D01*
X7885633Y8716010D01*
X7886598Y8711742D01*
X7886598Y8547557D01*
X7885633Y8543290D01*
X7884566Y8540953D01*
X7882026Y8531504D01*
X7881162Y8521700D01*
X7882026Y8511895D01*
X7884566Y8502446D01*
X7885633Y8500110D01*
X7886598Y8495842D01*
X7886598Y8331657D01*
X7885633Y8327390D01*
X7884566Y8325053D01*
X7882026Y8315604D01*
X7881162Y8305800D01*
X7882026Y8295995D01*
X7884566Y8286546D01*
X7885633Y8284209D01*
X7886598Y8279942D01*
X7886598Y8115757D01*
X7885633Y8111490D01*
X7884566Y8109153D01*
X7882026Y8099704D01*
X7881162Y8089900D01*
X7882026Y8080095D01*
X7884566Y8070646D01*
X7885633Y8068309D01*
X7886598Y8064042D01*
X7886598Y7899857D01*
X7885633Y7895590D01*
X7884566Y7893253D01*
X7882026Y7883804D01*
X7881162Y7874000D01*
X7882026Y7864195D01*
X7884566Y7854746D01*
X7885633Y7852409D01*
X7886598Y7848142D01*
X7886598Y7683957D01*
X7885633Y7679690D01*
X7884566Y7677353D01*
X7882026Y7667904D01*
X7881162Y7658100D01*
X7882026Y7648295D01*
X7884566Y7638846D01*
X7885633Y7636509D01*
X7886598Y7632242D01*
X7886598Y7468057D01*
X7885633Y7463790D01*
X7884566Y7461453D01*
X7882026Y7452004D01*
X7881162Y7442200D01*
X7882026Y7432395D01*
X7884566Y7422946D01*
X7885633Y7420609D01*
X7886598Y7416342D01*
X7886598Y7252157D01*
X7885633Y7247890D01*
X7884566Y7245553D01*
X7882026Y7236104D01*
X7881162Y7226300D01*
X7882026Y7216495D01*
X7884566Y7207046D01*
X7885633Y7204709D01*
X7886598Y7200442D01*
X7886598Y7036257D01*
X7885633Y7031990D01*
X7884566Y7029653D01*
X7882026Y7020204D01*
X7881162Y7010400D01*
X7882026Y7000595D01*
X7884566Y6991146D01*
X7885633Y6988809D01*
X7886598Y6984542D01*
X7886598Y6820357D01*
X7885633Y6816090D01*
X7884566Y6813753D01*
X7882026Y6804304D01*
X7881162Y6794500D01*
X7882026Y6784695D01*
X7884566Y6775246D01*
X7885633Y6772909D01*
X7886598Y6768642D01*
X7886598Y6604457D01*
X7885633Y6600190D01*
X7884566Y6597853D01*
X7882026Y6588404D01*
X7881162Y6578600D01*
X7882026Y6568795D01*
X7884566Y6559346D01*
X7885633Y6557009D01*
X7886598Y6552742D01*
X7886598Y6388557D01*
X7885633Y6384290D01*
X7884566Y6381953D01*
X7882026Y6372504D01*
X7881162Y6362700D01*
X7882026Y6352895D01*
X7884566Y6343446D01*
X7885633Y6341110D01*
X7886598Y6336792D01*
X7886598Y6172708D01*
X7885633Y6168390D01*
X7884566Y6166053D01*
X7882026Y6156604D01*
X7881162Y6146800D01*
X7882026Y6136995D01*
X7884566Y6127546D01*
X7885633Y6125210D01*
X7886598Y6120892D01*
X7886598Y5956808D01*
X7885633Y5952490D01*
X7884566Y5950153D01*
X7882026Y5940704D01*
X7881162Y5930900D01*
X7882026Y5921095D01*
X7884566Y5911646D01*
X7885633Y5909310D01*
X7886598Y5904992D01*
X7886598Y5740908D01*
X7885633Y5736590D01*
X7884566Y5734253D01*
X7882026Y5724804D01*
X7881162Y5715000D01*
X7882026Y5705195D01*
X7884566Y5695746D01*
X7885633Y5693410D01*
X7886598Y5689092D01*
X7886598Y5525008D01*
X7885633Y5520690D01*
X7884566Y5518353D01*
X7882026Y5508904D01*
X7881162Y5499100D01*
X7882026Y5489295D01*
X7884566Y5479846D01*
X7885633Y5477510D01*
X7886598Y5473192D01*
X7886598Y5309108D01*
X7885633Y5304790D01*
X7884566Y5302453D01*
X7882026Y5293004D01*
X7881162Y5283200D01*
X7882026Y5273395D01*
X7884566Y5263946D01*
X7885633Y5261610D01*
X7886598Y5257292D01*
X7886598Y5093208D01*
X7885633Y5088890D01*
X7884566Y5086553D01*
X7882026Y5077104D01*
X7881162Y5067300D01*
X7882026Y5057495D01*
X7884566Y5048046D01*
X7885633Y5045710D01*
X7886598Y5041392D01*
X7886598Y4877308D01*
X7885633Y4872990D01*
X7884566Y4870653D01*
X7882026Y4861204D01*
X7881162Y4851400D01*
X7882026Y4841595D01*
X7884566Y4832146D01*
X7885633Y4829810D01*
X7886598Y4825492D01*
X7886598Y4661408D01*
X7885633Y4657090D01*
X7884566Y4654753D01*
X7882026Y4645304D01*
X7881162Y4635500D01*
X7882026Y4625695D01*
X7884566Y4616246D01*
X7885633Y4613910D01*
X7886598Y4609592D01*
X7886598Y4445508D01*
X7885633Y4441190D01*
X7884566Y4438853D01*
X7882026Y4429404D01*
X7881162Y4419600D01*
X7882026Y4409795D01*
X7884566Y4400346D01*
X7885633Y4398010D01*
X7886598Y4393692D01*
X7886598Y4229608D01*
X7885633Y4225290D01*
X7884566Y4222953D01*
X7882026Y4213504D01*
X7881162Y4203700D01*
X7882026Y4193895D01*
X7884566Y4184446D01*
X7885633Y4182110D01*
X7886598Y4177792D01*
X7886598Y4013708D01*
X7885633Y4009390D01*
X7884566Y4007053D01*
X7882026Y3997604D01*
X7881162Y3987800D01*
X7882026Y3977995D01*
X7884566Y3968546D01*
X7888681Y3959606D01*
X7894320Y3951579D01*
X7901279Y3944620D01*
X7909356Y3938981D01*
X7912049Y3936187D01*
X7913522Y3932580D01*
X7913522Y3928719D01*
X7912049Y3925112D01*
X7909356Y3922318D01*
X7901279Y3916679D01*
X7899704Y3915105D01*
X7896402Y3912870D01*
X7892491Y3912108D01*
X7411618Y3912108D01*
X7407706Y3912870D01*
X7404404Y3915105D01*
X6975805Y4343704D01*
X6973570Y4347006D01*
X6972808Y4350918D01*
X6972808Y10639907D01*
X6973570Y10643768D01*
X6975805Y10647070D01*
X6977380Y10648645D01*
X6983018Y10656722D01*
X6987133Y10665612D01*
X6989673Y10675112D01*
X6990537Y10684865D01*
X6989673Y10694670D01*
X6987133Y10704169D01*
X6983018Y10713059D01*
X6977380Y10721136D01*
X6970420Y10728045D01*
X6962394Y10733684D01*
X6953453Y10737850D01*
X6944004Y10740390D01*
X6934200Y10741253D01*
X6924395Y10740390D01*
X6914946Y10737850D01*
X6906006Y10733684D01*
X6897979Y10728045D01*
X6891020Y10721136D01*
X6885381Y10713059D01*
X6881266Y10704169D01*
X6878726Y10694670D01*
X6877862Y10684865D01*
X6878726Y10675112D01*
X6881266Y10665612D01*
X6885381Y10656722D01*
X6891020Y10648645D01*
X6892594Y10647070D01*
X6894830Y10643768D01*
X6895592Y10639907D01*
X6895592Y4331208D01*
X6896404Y4323181D01*
X6898589Y4315968D01*
X6902145Y4309262D01*
X6907275Y4303064D01*
X7363764Y3846576D01*
X7369962Y3841445D01*
X7376668Y3837889D01*
X7383881Y3835704D01*
X7391908Y3834892D01*
X7892491Y3834892D01*
X7896402Y3834129D01*
X7899704Y3831894D01*
X7901279Y3830320D01*
X7909306Y3824681D01*
X7918246Y3820566D01*
X7927695Y3818026D01*
X7937500Y3817162D01*
X7947304Y3818026D01*
X7956753Y3820566D01*
X7965694Y3824681D01*
X7973720Y3830320D01*
X7980680Y3837279D01*
X7986318Y3845306D01*
X7990433Y3854246D01*
X7992973Y3863695D01*
X7993837Y3873500D01*
X7992973Y3883304D01*
X7990433Y3892753D01*
X7986318Y3901694D01*
X7980680Y3909720D01*
X7973720Y3916679D01*
X7965643Y3922318D01*
X7962950Y3925112D01*
X7961477Y3928719D01*
X7961477Y3932580D01*
X7962950Y3936187D01*
X7965643Y3938981D01*
X7973720Y3944620D01*
X7980680Y3951579D01*
X7986318Y3959606D01*
X7990433Y3968546D01*
X7992973Y3977995D01*
X7993837Y3987800D01*
X7992973Y3997604D01*
X7990433Y4007053D01*
X7989366Y4009390D01*
X7988401Y4013708D01*
X7988401Y4177792D01*
X7989366Y4182110D01*
X7990433Y4184446D01*
X7992973Y4193895D01*
X7993837Y4203700D01*
X7992973Y4213504D01*
X7990433Y4222953D01*
X7989366Y4225290D01*
X7988401Y4229608D01*
X7988401Y4393692D01*
X7989366Y4398010D01*
X7990433Y4400346D01*
X7992973Y4409795D01*
X7993837Y4419600D01*
X7992973Y4429404D01*
X7990433Y4438853D01*
X7989366Y4441190D01*
X7988401Y4445508D01*
X7988401Y4609592D01*
X7989366Y4613910D01*
X7990433Y4616246D01*
X7992973Y4625695D01*
X7993837Y4635500D01*
X7992973Y4645304D01*
X7990433Y4654753D01*
X7989366Y4657090D01*
X7988401Y4661408D01*
X7988401Y4825492D01*
X7989366Y4829810D01*
X7990433Y4832146D01*
X7992973Y4841595D01*
X7993837Y4851400D01*
X7992973Y4861204D01*
X7990433Y4870653D01*
X7989366Y4872990D01*
X7988401Y4877308D01*
X7988401Y5041392D01*
X7989366Y5045710D01*
X7990433Y5048046D01*
X7992973Y5057495D01*
X7993837Y5067300D01*
X7992973Y5077104D01*
X7990433Y5086553D01*
X7989366Y5088890D01*
X7988401Y5093208D01*
X7988401Y5257292D01*
X7989366Y5261610D01*
X7990433Y5263946D01*
X7992973Y5273395D01*
X7993837Y5283200D01*
X7992973Y5293004D01*
X7990433Y5302453D01*
X7989366Y5304790D01*
X7988401Y5309108D01*
X7988401Y5473192D01*
X7989366Y5477510D01*
X7990433Y5479846D01*
X7992973Y5489295D01*
X7993837Y5499100D01*
X7992973Y5508904D01*
X7990433Y5518353D01*
X7989366Y5520690D01*
X7988401Y5525008D01*
X7988401Y5689092D01*
X7989366Y5693410D01*
X7990433Y5695746D01*
X7992973Y5705195D01*
X7993837Y5715000D01*
X7992973Y5724804D01*
X7990433Y5734253D01*
X7989366Y5736590D01*
X7988401Y5740908D01*
X7988401Y5904992D01*
X7989366Y5909310D01*
X7990433Y5911646D01*
X7992973Y5921095D01*
X7993837Y5930900D01*
X7992973Y5940704D01*
X7990433Y5950153D01*
X7989366Y5952490D01*
X7988401Y5956808D01*
X7988401Y6120892D01*
X7989366Y6125210D01*
X7990433Y6127546D01*
X7992973Y6136995D01*
X7993837Y6146800D01*
X7992973Y6156604D01*
X7990433Y6166053D01*
X7989366Y6168390D01*
X7988401Y6172708D01*
X7988401Y6336792D01*
X7989366Y6341110D01*
X7990433Y6343446D01*
X7992973Y6352895D01*
X7993837Y6362700D01*
X7992973Y6372504D01*
X7990433Y6381953D01*
X7989366Y6384340D01*
X7988401Y6388608D01*
X7988401Y6552641D01*
X7989366Y6556959D01*
X7990433Y6559346D01*
X7992973Y6568795D01*
X7993837Y6578600D01*
X7992973Y6588404D01*
X7990433Y6597853D01*
X7989366Y6600240D01*
X7988401Y6604508D01*
X7988401Y6768541D01*
X7989366Y6772859D01*
X7990433Y6775246D01*
X7992973Y6784695D01*
X7993837Y6794500D01*
X7992973Y6804304D01*
X7990433Y6813753D01*
X7989366Y6816140D01*
X7988401Y6820408D01*
X7988401Y6984441D01*
X7989366Y6988759D01*
X7990433Y6991146D01*
X7992973Y7000595D01*
X7993837Y7010400D01*
X7992973Y7020204D01*
X7990433Y7029653D01*
X7989366Y7032040D01*
X7988401Y7036308D01*
X7988401Y7200341D01*
X7989366Y7204659D01*
X7990433Y7207046D01*
X7992973Y7216495D01*
X7993837Y7226300D01*
X7992973Y7236104D01*
X7990433Y7245553D01*
X7989366Y7247940D01*
X7988401Y7252208D01*
X7988401Y7416241D01*
X7989366Y7420559D01*
X7990433Y7422946D01*
X7992973Y7432395D01*
X7993837Y7442200D01*
X7992973Y7452004D01*
X7990433Y7461453D01*
X7989366Y7463840D01*
X7988401Y7468108D01*
X7988401Y7632141D01*
X7989366Y7636459D01*
X7990433Y7638846D01*
X7992973Y7648295D01*
X7993837Y7658100D01*
X7992973Y7667904D01*
X7990433Y7677353D01*
X7989366Y7679740D01*
X7988401Y7684008D01*
X7988401Y7848041D01*
X7989366Y7852359D01*
X7990433Y7854746D01*
X7992973Y7864195D01*
X7993837Y7874000D01*
X7992973Y7883804D01*
X7990433Y7893253D01*
X7989366Y7895640D01*
X7988401Y7899908D01*
X7988401Y8063941D01*
X7989366Y8068259D01*
X7990433Y8070646D01*
X7992973Y8080095D01*
X7993837Y8089900D01*
X7992973Y8099704D01*
X7990433Y8109153D01*
X7989366Y8111540D01*
X7988401Y8115808D01*
X7988401Y8279841D01*
X7989366Y8284159D01*
X7990433Y8286546D01*
X7992973Y8295995D01*
X7993837Y8305800D01*
X7992973Y8315604D01*
X7990433Y8325053D01*
X7989366Y8327440D01*
X7988401Y8331708D01*
X7988401Y8495741D01*
X7989366Y8500059D01*
X7990433Y8502446D01*
X7992973Y8511895D01*
X7993837Y8521700D01*
X7992973Y8531504D01*
X7990433Y8540953D01*
X7989366Y8543340D01*
X7988401Y8547608D01*
X7988401Y8711641D01*
X7989366Y8715959D01*
X7990433Y8718346D01*
X7992973Y8727795D01*
X7993837Y8737600D01*
X7992973Y8747404D01*
X7990433Y8756853D01*
X7989366Y8759240D01*
X7988401Y8763508D01*
X7988401Y8927541D01*
X7989366Y8931859D01*
X7990433Y8934246D01*
X7992973Y8943695D01*
X7993837Y8953500D01*
X7992973Y8963304D01*
X7990433Y8972753D01*
X7989366Y8975140D01*
X7988401Y8979408D01*
X7988401Y9143441D01*
X7989366Y9147759D01*
X7990433Y9150146D01*
X7992973Y9159595D01*
X7993837Y9169400D01*
X7992973Y9179204D01*
X7990433Y9188653D01*
X7989366Y9190990D01*
X7988401Y9195308D01*
X7988401Y9359442D01*
X7989366Y9363760D01*
X7990433Y9366046D01*
X7992973Y9375495D01*
X7993837Y9385300D01*
X7992973Y9395104D01*
X7990433Y9404553D01*
X7989366Y9406890D01*
X7988401Y9411157D01*
X7988401Y9575342D01*
X7989366Y9579610D01*
X7990433Y9581946D01*
X7992973Y9591395D01*
X7993837Y9601200D01*
X7992973Y9611004D01*
X7990433Y9620453D01*
X7989366Y9622790D01*
X7988401Y9627057D01*
X7988401Y9791242D01*
X7989366Y9795510D01*
X7990433Y9797846D01*
X7992973Y9807295D01*
X7993837Y9817100D01*
X7992973Y9826904D01*
X7990433Y9836353D01*
X7989366Y9838690D01*
X7988401Y9842957D01*
X7988401Y10007142D01*
X7989366Y10011410D01*
X7990433Y10013746D01*
X7992973Y10023195D01*
X7993837Y10033000D01*
X7992973Y10042804D01*
X7990433Y10052253D01*
X7989366Y10054590D01*
X7988401Y10058857D01*
X7988401Y10223042D01*
X7989366Y10227310D01*
X7990433Y10229646D01*
X7992973Y10239095D01*
X7993837Y10248900D01*
X7992973Y10258704D01*
X7990433Y10268153D01*
X7989366Y10270490D01*
X7988401Y10274757D01*
X7988401Y10438942D01*
X7989366Y10443210D01*
X7990433Y10445546D01*
X7992973Y10454995D01*
X7993837Y10464800D01*
X7992973Y10474604D01*
X7990433Y10484053D01*
X7989366Y10486390D01*
X7988401Y10490657D01*
X7988401Y10654842D01*
X7989366Y10659110D01*
X7990433Y10661446D01*
X7992973Y10670895D01*
X7993837Y10680700D01*
X7992973Y10690504D01*
X7990433Y10699953D01*
X7989366Y10702290D01*
X7988401Y10706557D01*
X7988401Y11141608D01*
X7989366Y11145875D01*
X7990433Y11148212D01*
X7992973Y11157712D01*
X7993837Y11167465D01*
X7992973Y11177270D01*
X7990433Y11186769D01*
X7986318Y11195659D01*
X7980680Y11203736D01*
X7973720Y11210645D01*
X7965694Y11216284D01*
X7956753Y11220450D01*
X7947304Y11222990D01*
X7937500Y11223853D01*
X7927695Y11222990D01*
X7918246Y11220450D01*
X7909306Y11216284D01*
X7901279Y11210645D01*
X7894320Y11203736D01*
X7888681Y11195659D01*
X7884566Y11186769D01*
X7882026Y11177270D01*
X7881162Y11167465D01*
X7882026Y11157712D01*
X7884566Y11148212D01*
X7885633Y11145875D01*
X7886598Y11141608D01*
X7886598Y10830661D01*
X7885836Y10826800D01*
X7883601Y10823498D01*
X7880299Y10821263D01*
X7876438Y10820501D01*
X7833817Y10820501D01*
X7829753Y10821365D01*
X7826349Y10823752D01*
X7824216Y10827258D01*
X7823657Y10831372D01*
X7824774Y10835335D01*
X7830159Y10845698D01*
X7834528Y10858042D01*
X7837220Y10871200D01*
X7754924Y10871200D01*
X7754924Y10830661D01*
X7754112Y10826800D01*
X7751927Y10823498D01*
X7748625Y10821263D01*
X7744764Y10820501D01*
X7739684Y10820501D01*
X7735773Y10821263D01*
X7732471Y10823498D01*
X7730286Y10826800D01*
X7729524Y10830661D01*
X7729524Y10871200D01*
X7648092Y10871200D01*
X7644180Y10871962D01*
X7640929Y10874197D01*
X7638694Y10877448D01*
X7637932Y10881360D01*
X7637932Y10886440D01*
X7638694Y10890351D01*
X7640929Y10893602D01*
X7644180Y10895838D01*
X7648092Y10896600D01*
X7729524Y10896600D01*
X7729524Y10978692D01*
X7722666Y10977778D01*
X7710068Y10974222D01*
X7698079Y10969040D01*
X7686903Y10962233D01*
X7676743Y10953953D01*
X7667802Y10944402D01*
X7660284Y10933734D01*
X7654239Y10922101D01*
X7651750Y10915142D01*
X7649616Y10911586D01*
X7646263Y10909198D01*
X7642199Y10908385D01*
X7638135Y10909198D01*
X7634782Y10911586D01*
X7632649Y10915142D01*
X7630159Y10922101D01*
X7624114Y10933734D01*
X7616596Y10944402D01*
X7607655Y10953953D01*
X7597495Y10962233D01*
X7586319Y10969040D01*
X7574330Y10974222D01*
X7561732Y10977778D01*
X7548727Y10979556D01*
X7535672Y10979556D01*
X7522667Y10977778D01*
X7512964Y10975035D01*
X7509408Y10974730D01*
X7505953Y10975594D01*
X7503058Y10977676D01*
X7483805Y10996930D01*
X7481570Y11000232D01*
X7480808Y11004092D01*
X7480808Y11122507D01*
X7481570Y11126368D01*
X7483805Y11129670D01*
X7485380Y11131245D01*
X7491018Y11139322D01*
X7495133Y11148212D01*
X7497673Y11157712D01*
X7498537Y11167465D01*
X7497673Y11177270D01*
X7495133Y11186769D01*
X7491018Y11195659D01*
X7485380Y11203736D01*
X7478420Y11210645D01*
X7470394Y11216284D01*
X7461453Y11220450D01*
X7452004Y11222990D01*
X7442200Y11223853D01*
X7432395Y11222990D01*
X7422946Y11220450D01*
X7414006Y11216284D01*
X7405979Y11210645D01*
X7399020Y11203736D01*
X7393381Y11195659D01*
X7389266Y11186769D01*
X7386726Y11177270D01*
X7385862Y11167465D01*
X7386726Y11157712D01*
X7389266Y11148212D01*
X7393381Y11139322D01*
X7399020Y11131245D01*
X7400594Y11129670D01*
X7402830Y11126368D01*
X7403592Y11122507D01*
X7403592Y10984382D01*
X7404303Y10977118D01*
X7403744Y10972698D01*
X7401356Y10968939D01*
X7397597Y10966551D01*
X7393127Y10966043D01*
X7388910Y10967466D01*
X7386320Y10969040D01*
X7374331Y10974222D01*
X7361732Y10977778D01*
X7348728Y10979556D01*
X7335672Y10979556D01*
X7322667Y10977778D01*
X7312914Y10975035D01*
X7309358Y10974679D01*
X7305903Y10975594D01*
X7303008Y10977626D01*
X7242759Y11037824D01*
X7236561Y11042954D01*
X7229906Y11046510D01*
X7222642Y11048695D01*
X7214616Y11049508D01*
X6833108Y11049508D01*
X6825081Y11048695D01*
X6817868Y11046510D01*
X6811162Y11042954D01*
X6804964Y11037824D01*
X6767575Y11000435D01*
X6762445Y10994237D01*
X6758889Y10987532D01*
X6756704Y10980318D01*
X6755892Y10972292D01*
X6755892Y4280408D01*
X6756704Y4272381D01*
X6758889Y4265168D01*
X6762445Y4258462D01*
X6767575Y4252264D01*
X7217968Y3801821D01*
X7220000Y3798925D01*
X7220915Y3795522D01*
X7221626Y3787495D01*
X7224166Y3778046D01*
X7228281Y3769106D01*
X7233920Y3761079D01*
X7240879Y3754120D01*
X7248906Y3748481D01*
X7257846Y3744366D01*
X7267295Y3741826D01*
G37*
G36*
X3454400Y3740962D02*
G01*
X3464204Y3741826D01*
X3473653Y3744366D01*
X3482594Y3748481D01*
X3490620Y3754120D01*
X3497579Y3761079D01*
X3503218Y3769106D01*
X3507333Y3778046D01*
X3509873Y3787495D01*
X3510737Y3797300D01*
X3509873Y3807104D01*
X3507333Y3816553D01*
X3503218Y3825494D01*
X3497579Y3833520D01*
X3490620Y3840479D01*
X3482594Y3846118D01*
X3473653Y3850233D01*
X3464204Y3852773D01*
X3456178Y3853484D01*
X3452774Y3854399D01*
X3449878Y3856431D01*
X3013405Y4292904D01*
X3011170Y4296206D01*
X3010408Y4300118D01*
X3010408Y10952581D01*
X3011170Y10956493D01*
X3013405Y10959795D01*
X3022904Y10969294D01*
X3026206Y10971530D01*
X3030118Y10972292D01*
X3208223Y10972292D01*
X3212388Y10971377D01*
X3215792Y10968888D01*
X3217926Y10965180D01*
X3218281Y10960912D01*
X3217418Y10953292D01*
X3217418Y10896600D01*
X3306826Y10896600D01*
X3306826Y10962132D01*
X3307587Y10966043D01*
X3309772Y10969294D01*
X3313074Y10971530D01*
X3316986Y10972292D01*
X3322015Y10972292D01*
X3325926Y10971530D01*
X3329228Y10969294D01*
X3331413Y10966043D01*
X3332226Y10962132D01*
X3332226Y10896600D01*
X3413607Y10896600D01*
X3417519Y10895838D01*
X3420770Y10893602D01*
X3423005Y10890351D01*
X3423767Y10886440D01*
X3423767Y10881360D01*
X3423005Y10877448D01*
X3420770Y10874197D01*
X3417519Y10871962D01*
X3413607Y10871200D01*
X3332226Y10871200D01*
X3332226Y10787989D01*
X3395116Y10787989D01*
X3401466Y10788700D01*
X3406901Y10790631D01*
X3411829Y10793679D01*
X3415893Y10797794D01*
X3418992Y10802670D01*
X3420872Y10808157D01*
X3421634Y10814456D01*
X3421634Y10824667D01*
X3422497Y10828832D01*
X3424986Y10832287D01*
X3428695Y10834370D01*
X3432911Y10834776D01*
X3436924Y10833404D01*
X3440074Y10830560D01*
X3445103Y10823397D01*
X3454044Y10813846D01*
X3464204Y10805566D01*
X3475380Y10798759D01*
X3487369Y10793526D01*
X3499967Y10790021D01*
X3512972Y10788243D01*
X3526028Y10788243D01*
X3539032Y10790021D01*
X3551631Y10793526D01*
X3554476Y10794796D01*
X3558438Y10795609D01*
X3562451Y10794847D01*
X3565804Y10792510D01*
X3567988Y10789056D01*
X3568598Y10783671D01*
X3568598Y10710773D01*
X3567633Y10706506D01*
X3566566Y10704169D01*
X3564026Y10694670D01*
X3563162Y10684865D01*
X3564026Y10675112D01*
X3566566Y10665612D01*
X3567633Y10663275D01*
X3568598Y10659008D01*
X3568598Y10494873D01*
X3567633Y10490606D01*
X3566566Y10488269D01*
X3564026Y10478770D01*
X3563162Y10468965D01*
X3564026Y10459212D01*
X3566566Y10449712D01*
X3567633Y10447375D01*
X3568598Y10443108D01*
X3568598Y10278973D01*
X3567633Y10274706D01*
X3566566Y10272369D01*
X3564026Y10262870D01*
X3563162Y10253065D01*
X3564026Y10243312D01*
X3566566Y10233812D01*
X3567633Y10231475D01*
X3568598Y10227208D01*
X3568598Y10063073D01*
X3567633Y10058806D01*
X3566566Y10056469D01*
X3564026Y10046970D01*
X3563162Y10037165D01*
X3564026Y10027412D01*
X3566566Y10017912D01*
X3567633Y10015575D01*
X3568598Y10011308D01*
X3568598Y9847173D01*
X3567633Y9842906D01*
X3566566Y9840569D01*
X3564026Y9831070D01*
X3563162Y9821265D01*
X3564026Y9811512D01*
X3566566Y9802012D01*
X3567633Y9799675D01*
X3568598Y9795408D01*
X3568598Y9631273D01*
X3567633Y9627006D01*
X3566566Y9624669D01*
X3564026Y9615170D01*
X3563162Y9605365D01*
X3564026Y9595612D01*
X3566566Y9586112D01*
X3567633Y9583775D01*
X3568598Y9579508D01*
X3568598Y9415373D01*
X3567633Y9411106D01*
X3566566Y9408769D01*
X3564026Y9399270D01*
X3563162Y9389465D01*
X3564026Y9379712D01*
X3566566Y9370212D01*
X3567633Y9367875D01*
X3568598Y9363608D01*
X3568598Y9199473D01*
X3567633Y9195206D01*
X3566566Y9192869D01*
X3564026Y9183370D01*
X3563162Y9173565D01*
X3564026Y9163812D01*
X3566566Y9154312D01*
X3567633Y9151975D01*
X3568598Y9147708D01*
X3568598Y8983573D01*
X3567633Y8979306D01*
X3566566Y8976969D01*
X3564026Y8967470D01*
X3563162Y8957665D01*
X3564026Y8947912D01*
X3566566Y8938412D01*
X3567633Y8936075D01*
X3568598Y8931808D01*
X3568598Y8767673D01*
X3567633Y8763406D01*
X3566566Y8761069D01*
X3564026Y8751570D01*
X3563162Y8741765D01*
X3564026Y8732012D01*
X3566566Y8722512D01*
X3567633Y8720175D01*
X3568598Y8715908D01*
X3568598Y8551773D01*
X3567633Y8547506D01*
X3566566Y8545169D01*
X3564026Y8535670D01*
X3563162Y8525865D01*
X3564026Y8516112D01*
X3566566Y8506612D01*
X3567633Y8504275D01*
X3568598Y8500008D01*
X3568598Y8335873D01*
X3567633Y8331606D01*
X3566566Y8329269D01*
X3564026Y8319770D01*
X3563162Y8309965D01*
X3564026Y8300212D01*
X3566566Y8290712D01*
X3567633Y8288375D01*
X3568598Y8284108D01*
X3568598Y8119973D01*
X3567633Y8115706D01*
X3566566Y8113369D01*
X3564026Y8103870D01*
X3563162Y8094065D01*
X3564026Y8084312D01*
X3566566Y8074812D01*
X3567633Y8072475D01*
X3568598Y8068208D01*
X3568598Y7904073D01*
X3567633Y7899806D01*
X3566566Y7897469D01*
X3564026Y7887970D01*
X3563162Y7878165D01*
X3564026Y7868412D01*
X3566566Y7858912D01*
X3567633Y7856575D01*
X3568598Y7852308D01*
X3568598Y7688173D01*
X3567633Y7683906D01*
X3566566Y7681569D01*
X3564026Y7672070D01*
X3563162Y7662265D01*
X3564026Y7652512D01*
X3566566Y7643012D01*
X3567633Y7640675D01*
X3568598Y7636408D01*
X3568598Y7472273D01*
X3567633Y7468006D01*
X3566566Y7465669D01*
X3564026Y7456170D01*
X3563162Y7446365D01*
X3564026Y7436612D01*
X3566566Y7427112D01*
X3567633Y7424775D01*
X3568598Y7420508D01*
X3568598Y7256373D01*
X3567633Y7252106D01*
X3566566Y7249769D01*
X3564026Y7240270D01*
X3563162Y7230465D01*
X3564026Y7220712D01*
X3566566Y7211212D01*
X3567633Y7208875D01*
X3568598Y7204608D01*
X3568598Y7040473D01*
X3567633Y7036206D01*
X3566566Y7033869D01*
X3564026Y7024370D01*
X3563162Y7014565D01*
X3564026Y7004812D01*
X3566566Y6995312D01*
X3567633Y6992975D01*
X3568598Y6988708D01*
X3568598Y6824573D01*
X3567633Y6820306D01*
X3566566Y6817969D01*
X3564026Y6808470D01*
X3563162Y6798665D01*
X3564026Y6788912D01*
X3566566Y6779412D01*
X3567633Y6777075D01*
X3568598Y6772808D01*
X3568598Y6608673D01*
X3567633Y6604406D01*
X3566566Y6602069D01*
X3564026Y6592570D01*
X3563162Y6582765D01*
X3564026Y6573012D01*
X3566566Y6563512D01*
X3567633Y6561175D01*
X3568598Y6556908D01*
X3568598Y6392773D01*
X3567633Y6388506D01*
X3566566Y6386169D01*
X3564026Y6376670D01*
X3563162Y6366865D01*
X3564026Y6357112D01*
X3566566Y6347612D01*
X3567633Y6345275D01*
X3568598Y6341008D01*
X3568598Y6176873D01*
X3567633Y6172606D01*
X3566566Y6170269D01*
X3564026Y6160770D01*
X3563162Y6150965D01*
X3564026Y6141212D01*
X3566566Y6131712D01*
X3567633Y6129375D01*
X3568598Y6125108D01*
X3568598Y5960973D01*
X3567633Y5956706D01*
X3566566Y5954369D01*
X3564026Y5944870D01*
X3563162Y5935065D01*
X3564026Y5925312D01*
X3566566Y5915812D01*
X3567633Y5913475D01*
X3568598Y5909208D01*
X3568598Y5745073D01*
X3567633Y5740806D01*
X3566566Y5738469D01*
X3564026Y5728970D01*
X3563162Y5719165D01*
X3564026Y5709412D01*
X3566566Y5699912D01*
X3567633Y5697575D01*
X3568598Y5693308D01*
X3568598Y5529173D01*
X3567633Y5524906D01*
X3566566Y5522569D01*
X3564026Y5513070D01*
X3563162Y5503265D01*
X3564026Y5493512D01*
X3566566Y5484012D01*
X3567633Y5481675D01*
X3568598Y5477408D01*
X3568598Y5313273D01*
X3567633Y5309006D01*
X3566566Y5306669D01*
X3564026Y5297170D01*
X3563162Y5287365D01*
X3564026Y5277612D01*
X3566566Y5268112D01*
X3567633Y5265775D01*
X3568598Y5261508D01*
X3568598Y5097373D01*
X3567633Y5093106D01*
X3566566Y5090769D01*
X3564026Y5081270D01*
X3563162Y5071465D01*
X3564026Y5061712D01*
X3566566Y5052212D01*
X3567633Y5049875D01*
X3568598Y5045608D01*
X3568598Y4881473D01*
X3567633Y4877206D01*
X3566566Y4874869D01*
X3564026Y4865370D01*
X3563162Y4855565D01*
X3564026Y4845812D01*
X3566566Y4836312D01*
X3567633Y4833975D01*
X3568598Y4829708D01*
X3568598Y4665573D01*
X3567633Y4661306D01*
X3566566Y4658969D01*
X3564026Y4649470D01*
X3563162Y4639665D01*
X3564026Y4629912D01*
X3566566Y4620412D01*
X3567633Y4618075D01*
X3568598Y4613808D01*
X3568598Y4449673D01*
X3567633Y4445406D01*
X3566566Y4443069D01*
X3564026Y4433570D01*
X3563162Y4423765D01*
X3564026Y4414012D01*
X3566566Y4404512D01*
X3567633Y4402175D01*
X3568598Y4397908D01*
X3568598Y4233773D01*
X3567633Y4229506D01*
X3566566Y4227169D01*
X3564026Y4217670D01*
X3563162Y4207865D01*
X3564026Y4198112D01*
X3566566Y4188612D01*
X3567633Y4186275D01*
X3568598Y4182008D01*
X3568598Y4017873D01*
X3567633Y4013606D01*
X3566566Y4011269D01*
X3564026Y4001770D01*
X3563162Y3991965D01*
X3564026Y3982212D01*
X3566566Y3972712D01*
X3570681Y3963822D01*
X3576320Y3955745D01*
X3583279Y3948836D01*
X3591306Y3943197D01*
X3600246Y3939032D01*
X3609695Y3936492D01*
X3619500Y3935628D01*
X3629304Y3936492D01*
X3638753Y3939032D01*
X3647694Y3943197D01*
X3655720Y3948836D01*
X3662679Y3955745D01*
X3668318Y3963822D01*
X3672433Y3972712D01*
X3674973Y3982212D01*
X3675837Y3991965D01*
X3674973Y4001770D01*
X3672433Y4011269D01*
X3671366Y4013606D01*
X3670401Y4017873D01*
X3670401Y4182008D01*
X3671366Y4186275D01*
X3672433Y4188612D01*
X3674973Y4198112D01*
X3675837Y4207865D01*
X3674973Y4217670D01*
X3672433Y4227169D01*
X3671366Y4229506D01*
X3670401Y4233773D01*
X3670401Y4397908D01*
X3671366Y4402175D01*
X3672433Y4404512D01*
X3674973Y4414012D01*
X3675837Y4423765D01*
X3674973Y4433570D01*
X3672433Y4443069D01*
X3671366Y4445406D01*
X3670401Y4449673D01*
X3670401Y4613808D01*
X3671366Y4618075D01*
X3672433Y4620412D01*
X3674973Y4629912D01*
X3675837Y4639665D01*
X3674973Y4649470D01*
X3672433Y4658969D01*
X3671366Y4661306D01*
X3670401Y4665573D01*
X3670401Y4829708D01*
X3671366Y4833975D01*
X3672433Y4836312D01*
X3674973Y4845812D01*
X3675837Y4855565D01*
X3674973Y4865370D01*
X3672433Y4874869D01*
X3671366Y4877206D01*
X3670401Y4881473D01*
X3670401Y5045608D01*
X3671366Y5049875D01*
X3672433Y5052212D01*
X3674973Y5061712D01*
X3675837Y5071465D01*
X3674973Y5081270D01*
X3672433Y5090769D01*
X3671366Y5093106D01*
X3670401Y5097373D01*
X3670401Y5261508D01*
X3671366Y5265775D01*
X3672433Y5268112D01*
X3674973Y5277612D01*
X3675837Y5287365D01*
X3674973Y5297170D01*
X3672433Y5306669D01*
X3671366Y5309006D01*
X3670401Y5313273D01*
X3670401Y5477408D01*
X3671366Y5481675D01*
X3672433Y5484012D01*
X3674973Y5493512D01*
X3675837Y5503265D01*
X3674973Y5513070D01*
X3672433Y5522569D01*
X3671366Y5524906D01*
X3670401Y5529173D01*
X3670401Y5693308D01*
X3671366Y5697575D01*
X3672433Y5699912D01*
X3674973Y5709412D01*
X3675837Y5719165D01*
X3674973Y5728970D01*
X3672433Y5738469D01*
X3671366Y5740806D01*
X3670401Y5745073D01*
X3670401Y5909208D01*
X3671366Y5913475D01*
X3672433Y5915812D01*
X3674973Y5925312D01*
X3675837Y5935065D01*
X3674973Y5944870D01*
X3672433Y5954369D01*
X3671366Y5956706D01*
X3670401Y5960973D01*
X3670401Y6125108D01*
X3671366Y6129375D01*
X3672433Y6131712D01*
X3674973Y6141212D01*
X3675837Y6150965D01*
X3674973Y6160770D01*
X3672433Y6170269D01*
X3671366Y6172606D01*
X3670401Y6176873D01*
X3670401Y6341008D01*
X3671366Y6345275D01*
X3672433Y6347612D01*
X3674973Y6357112D01*
X3675837Y6366865D01*
X3674973Y6376670D01*
X3672433Y6386169D01*
X3671366Y6388506D01*
X3670401Y6392773D01*
X3670401Y6556908D01*
X3671366Y6561175D01*
X3672433Y6563512D01*
X3674973Y6573012D01*
X3675837Y6582765D01*
X3674973Y6592570D01*
X3672433Y6602069D01*
X3671366Y6604406D01*
X3670401Y6608673D01*
X3670401Y6772808D01*
X3671366Y6777075D01*
X3672433Y6779412D01*
X3674973Y6788912D01*
X3675837Y6798665D01*
X3674973Y6808470D01*
X3672433Y6817969D01*
X3671366Y6820306D01*
X3670401Y6824573D01*
X3670401Y6988708D01*
X3671366Y6992975D01*
X3672433Y6995312D01*
X3674973Y7004812D01*
X3675837Y7014565D01*
X3674973Y7024370D01*
X3672433Y7033869D01*
X3671366Y7036206D01*
X3670401Y7040473D01*
X3670401Y7204608D01*
X3671366Y7208875D01*
X3672433Y7211212D01*
X3674973Y7220712D01*
X3675837Y7230465D01*
X3674973Y7240270D01*
X3672433Y7249769D01*
X3671366Y7252106D01*
X3670401Y7256373D01*
X3670401Y7420508D01*
X3671366Y7424775D01*
X3672433Y7427112D01*
X3674973Y7436612D01*
X3675837Y7446365D01*
X3674973Y7456170D01*
X3672433Y7465669D01*
X3671366Y7468006D01*
X3670401Y7472273D01*
X3670401Y7636408D01*
X3671366Y7640675D01*
X3672433Y7643012D01*
X3674973Y7652512D01*
X3675837Y7662265D01*
X3674973Y7672070D01*
X3672433Y7681569D01*
X3671366Y7683906D01*
X3670401Y7688173D01*
X3670401Y7852308D01*
X3671366Y7856575D01*
X3672433Y7858912D01*
X3674973Y7868412D01*
X3675837Y7878165D01*
X3674973Y7887970D01*
X3672433Y7897469D01*
X3671366Y7899806D01*
X3670401Y7904073D01*
X3670401Y8068208D01*
X3671366Y8072475D01*
X3672433Y8074812D01*
X3674973Y8084312D01*
X3675837Y8094065D01*
X3674973Y8103870D01*
X3672433Y8113369D01*
X3671366Y8115706D01*
X3670401Y8119973D01*
X3670401Y8284108D01*
X3671366Y8288375D01*
X3672433Y8290712D01*
X3674973Y8300212D01*
X3675837Y8309965D01*
X3674973Y8319770D01*
X3672433Y8329269D01*
X3671366Y8331606D01*
X3670401Y8335873D01*
X3670401Y8500008D01*
X3671366Y8504275D01*
X3672433Y8506612D01*
X3674973Y8516112D01*
X3675837Y8525865D01*
X3674973Y8535670D01*
X3672433Y8545169D01*
X3671366Y8547506D01*
X3670401Y8551773D01*
X3670401Y8715908D01*
X3671366Y8720175D01*
X3672433Y8722512D01*
X3674973Y8732012D01*
X3675837Y8741765D01*
X3674973Y8751570D01*
X3672433Y8761069D01*
X3671366Y8763406D01*
X3670401Y8767673D01*
X3670401Y8931808D01*
X3671366Y8936075D01*
X3672433Y8938412D01*
X3674973Y8947912D01*
X3675837Y8957665D01*
X3674973Y8967470D01*
X3672433Y8976969D01*
X3671366Y8979306D01*
X3670401Y8983573D01*
X3670401Y9147708D01*
X3671366Y9151975D01*
X3672433Y9154312D01*
X3674973Y9163812D01*
X3675837Y9173565D01*
X3674973Y9183370D01*
X3672433Y9192869D01*
X3671366Y9195206D01*
X3670401Y9199473D01*
X3670401Y9363608D01*
X3671366Y9367875D01*
X3672433Y9370212D01*
X3674973Y9379712D01*
X3675837Y9389465D01*
X3674973Y9399270D01*
X3672433Y9408769D01*
X3671366Y9411106D01*
X3670401Y9415373D01*
X3670401Y9579508D01*
X3671366Y9583775D01*
X3672433Y9586112D01*
X3674973Y9595612D01*
X3675837Y9605365D01*
X3674973Y9615170D01*
X3672433Y9624669D01*
X3671366Y9627006D01*
X3670401Y9631273D01*
X3670401Y9795408D01*
X3671366Y9799675D01*
X3672433Y9802012D01*
X3674973Y9811512D01*
X3675837Y9821265D01*
X3674973Y9831070D01*
X3672433Y9840569D01*
X3671366Y9842906D01*
X3670401Y9847173D01*
X3670401Y10011308D01*
X3671366Y10015575D01*
X3672433Y10017912D01*
X3674973Y10027412D01*
X3675837Y10037165D01*
X3674973Y10046970D01*
X3672433Y10056469D01*
X3671366Y10058806D01*
X3670401Y10063073D01*
X3670401Y10227208D01*
X3671366Y10231475D01*
X3672433Y10233812D01*
X3674973Y10243312D01*
X3675837Y10253065D01*
X3674973Y10262870D01*
X3672433Y10272369D01*
X3671366Y10274706D01*
X3670401Y10278973D01*
X3670401Y10443108D01*
X3671366Y10447375D01*
X3672433Y10449712D01*
X3674973Y10459212D01*
X3675837Y10468965D01*
X3674973Y10478770D01*
X3672433Y10488269D01*
X3671366Y10490606D01*
X3670401Y10494873D01*
X3670401Y10659008D01*
X3671366Y10663275D01*
X3672433Y10665612D01*
X3674973Y10675112D01*
X3675837Y10684865D01*
X3674973Y10694670D01*
X3672433Y10704169D01*
X3671366Y10706506D01*
X3670401Y10710773D01*
X3670401Y10758627D01*
X3671163Y10762488D01*
X3673398Y10765790D01*
X3694328Y10786719D01*
X3696868Y10788599D01*
X3699814Y10789564D01*
X3702913Y10789615D01*
X3712972Y10788243D01*
X3726027Y10788243D01*
X3736086Y10789615D01*
X3739184Y10789564D01*
X3742131Y10788599D01*
X3744671Y10786719D01*
X3797655Y10733735D01*
X3801059Y10730585D01*
X3804615Y10727893D01*
X3808374Y10725505D01*
X3812286Y10723473D01*
X3816400Y10721746D01*
X3820617Y10720425D01*
X3824986Y10719460D01*
X3829354Y10718901D01*
X3834028Y10718698D01*
X4053738Y10718698D01*
X4057599Y10717936D01*
X4060901Y10715701D01*
X4063085Y10712399D01*
X4063898Y10708538D01*
X4063898Y10706608D01*
X4062933Y10702340D01*
X4061815Y10699953D01*
X4059275Y10690504D01*
X4058412Y10680700D01*
X4059275Y10670895D01*
X4061815Y10661446D01*
X4062933Y10659059D01*
X4063898Y10654741D01*
X4063898Y10490708D01*
X4062933Y10486440D01*
X4061815Y10484053D01*
X4059275Y10474604D01*
X4058412Y10464800D01*
X4059275Y10454995D01*
X4061815Y10445546D01*
X4062933Y10443159D01*
X4063898Y10438841D01*
X4063898Y10274808D01*
X4062933Y10270540D01*
X4061815Y10268153D01*
X4059275Y10258704D01*
X4058412Y10248900D01*
X4059275Y10239095D01*
X4061815Y10229646D01*
X4062933Y10227259D01*
X4063898Y10222941D01*
X4063898Y10058908D01*
X4062933Y10054640D01*
X4061815Y10052253D01*
X4059275Y10042804D01*
X4058412Y10033000D01*
X4059275Y10023195D01*
X4061815Y10013746D01*
X4062933Y10011359D01*
X4063898Y10007041D01*
X4063898Y9843008D01*
X4062933Y9838740D01*
X4061815Y9836353D01*
X4059275Y9826904D01*
X4058412Y9817100D01*
X4059275Y9807295D01*
X4061815Y9797846D01*
X4062933Y9795459D01*
X4063898Y9791141D01*
X4063898Y9627108D01*
X4062933Y9622840D01*
X4061815Y9620453D01*
X4059275Y9611004D01*
X4058412Y9601200D01*
X4059275Y9591395D01*
X4061815Y9581946D01*
X4062933Y9579559D01*
X4063898Y9575241D01*
X4063898Y9411208D01*
X4062933Y9406940D01*
X4061815Y9404553D01*
X4059275Y9395104D01*
X4058412Y9385300D01*
X4059275Y9375495D01*
X4061815Y9366046D01*
X4062933Y9363608D01*
X4063898Y9359341D01*
X4063898Y9195308D01*
X4062933Y9190990D01*
X4061866Y9188653D01*
X4059326Y9179204D01*
X4058462Y9169400D01*
X4059326Y9159595D01*
X4061866Y9150146D01*
X4062933Y9147810D01*
X4063898Y9143542D01*
X4063898Y8979357D01*
X4062933Y8975090D01*
X4061866Y8972753D01*
X4059326Y8963304D01*
X4058462Y8953500D01*
X4059326Y8943695D01*
X4061866Y8934246D01*
X4062933Y8931910D01*
X4063898Y8927642D01*
X4063898Y8763457D01*
X4062933Y8759190D01*
X4061866Y8756853D01*
X4059326Y8747404D01*
X4058462Y8737600D01*
X4059326Y8727795D01*
X4061866Y8718346D01*
X4062933Y8716010D01*
X4063898Y8711742D01*
X4063898Y8547557D01*
X4062933Y8543290D01*
X4061866Y8540953D01*
X4059326Y8531504D01*
X4058462Y8521700D01*
X4059326Y8511895D01*
X4061866Y8502446D01*
X4062933Y8500110D01*
X4063898Y8495842D01*
X4063898Y8331657D01*
X4062933Y8327390D01*
X4061866Y8325053D01*
X4059326Y8315604D01*
X4058462Y8305800D01*
X4059326Y8295995D01*
X4061866Y8286546D01*
X4062933Y8284209D01*
X4063898Y8279942D01*
X4063898Y8115757D01*
X4062933Y8111490D01*
X4061866Y8109153D01*
X4059326Y8099704D01*
X4058462Y8089900D01*
X4059326Y8080095D01*
X4061866Y8070646D01*
X4062933Y8068309D01*
X4063898Y8064042D01*
X4063898Y7899857D01*
X4062933Y7895590D01*
X4061866Y7893253D01*
X4059326Y7883804D01*
X4058462Y7874000D01*
X4059326Y7864195D01*
X4061866Y7854746D01*
X4062933Y7852409D01*
X4063898Y7848142D01*
X4063898Y7683957D01*
X4062933Y7679690D01*
X4061866Y7677353D01*
X4059326Y7667904D01*
X4058462Y7658100D01*
X4059326Y7648295D01*
X4061866Y7638846D01*
X4062933Y7636509D01*
X4063898Y7632242D01*
X4063898Y7468057D01*
X4062933Y7463790D01*
X4061866Y7461453D01*
X4059326Y7452004D01*
X4058462Y7442200D01*
X4059326Y7432395D01*
X4061866Y7422946D01*
X4062933Y7420609D01*
X4063898Y7416342D01*
X4063898Y7252157D01*
X4062933Y7247890D01*
X4061866Y7245553D01*
X4059326Y7236104D01*
X4058462Y7226300D01*
X4059326Y7216495D01*
X4061866Y7207046D01*
X4062933Y7204709D01*
X4063898Y7200442D01*
X4063898Y7036257D01*
X4062933Y7031990D01*
X4061866Y7029653D01*
X4059326Y7020204D01*
X4058462Y7010400D01*
X4059326Y7000595D01*
X4061866Y6991146D01*
X4062933Y6988809D01*
X4063898Y6984542D01*
X4063898Y6820357D01*
X4062933Y6816090D01*
X4061866Y6813753D01*
X4059326Y6804304D01*
X4058462Y6794500D01*
X4059326Y6784695D01*
X4061866Y6775246D01*
X4062933Y6772909D01*
X4063898Y6768642D01*
X4063898Y6604457D01*
X4062933Y6600190D01*
X4061866Y6597853D01*
X4059326Y6588404D01*
X4058462Y6578600D01*
X4059326Y6568795D01*
X4061866Y6559346D01*
X4062933Y6557009D01*
X4063898Y6552742D01*
X4063898Y6388557D01*
X4062933Y6384290D01*
X4061866Y6381953D01*
X4059326Y6372504D01*
X4058462Y6362700D01*
X4059326Y6352895D01*
X4061866Y6343446D01*
X4062933Y6341110D01*
X4063898Y6336792D01*
X4063898Y6172708D01*
X4062933Y6168390D01*
X4061866Y6166053D01*
X4059326Y6156604D01*
X4058462Y6146800D01*
X4059326Y6136995D01*
X4061866Y6127546D01*
X4062933Y6125210D01*
X4063898Y6120892D01*
X4063898Y5956808D01*
X4062933Y5952490D01*
X4061866Y5950153D01*
X4059326Y5940704D01*
X4058462Y5930900D01*
X4059326Y5921095D01*
X4061866Y5911646D01*
X4062933Y5909310D01*
X4063898Y5904992D01*
X4063898Y5740908D01*
X4062933Y5736590D01*
X4061866Y5734253D01*
X4059326Y5724804D01*
X4058462Y5715000D01*
X4059326Y5705195D01*
X4061866Y5695746D01*
X4062933Y5693410D01*
X4063898Y5689092D01*
X4063898Y5525008D01*
X4062933Y5520690D01*
X4061866Y5518353D01*
X4059326Y5508904D01*
X4058462Y5499100D01*
X4059326Y5489295D01*
X4061866Y5479846D01*
X4062933Y5477510D01*
X4063898Y5473192D01*
X4063898Y5309108D01*
X4062933Y5304790D01*
X4061866Y5302453D01*
X4059326Y5293004D01*
X4058462Y5283200D01*
X4059326Y5273395D01*
X4061866Y5263946D01*
X4062933Y5261610D01*
X4063898Y5257292D01*
X4063898Y5093208D01*
X4062933Y5088890D01*
X4061866Y5086553D01*
X4059326Y5077104D01*
X4058462Y5067300D01*
X4059326Y5057495D01*
X4061866Y5048046D01*
X4062933Y5045710D01*
X4063898Y5041392D01*
X4063898Y4877308D01*
X4062933Y4872990D01*
X4061866Y4870653D01*
X4059326Y4861204D01*
X4058462Y4851400D01*
X4059326Y4841595D01*
X4061866Y4832146D01*
X4062933Y4829810D01*
X4063898Y4825492D01*
X4063898Y4661408D01*
X4062933Y4657090D01*
X4061866Y4654753D01*
X4059326Y4645304D01*
X4058462Y4635500D01*
X4059326Y4625695D01*
X4061866Y4616246D01*
X4062933Y4613910D01*
X4063898Y4609592D01*
X4063898Y4445508D01*
X4062933Y4441190D01*
X4061866Y4438853D01*
X4059326Y4429404D01*
X4058462Y4419600D01*
X4059326Y4409795D01*
X4061866Y4400346D01*
X4062933Y4398010D01*
X4063898Y4393692D01*
X4063898Y4229608D01*
X4062933Y4225290D01*
X4061866Y4222953D01*
X4059326Y4213504D01*
X4058462Y4203700D01*
X4059326Y4193895D01*
X4061866Y4184446D01*
X4062933Y4182110D01*
X4063898Y4177792D01*
X4063898Y4013708D01*
X4062933Y4009390D01*
X4061866Y4007053D01*
X4059326Y3997604D01*
X4058462Y3987800D01*
X4059326Y3977995D01*
X4061866Y3968546D01*
X4065981Y3959606D01*
X4071620Y3951579D01*
X4078579Y3944620D01*
X4086656Y3938981D01*
X4089349Y3936187D01*
X4090822Y3932580D01*
X4090822Y3928719D01*
X4089349Y3925112D01*
X4086656Y3922318D01*
X4078579Y3916679D01*
X4077004Y3915105D01*
X4073702Y3912870D01*
X4069791Y3912108D01*
X3588918Y3912108D01*
X3585006Y3912870D01*
X3581704Y3915105D01*
X3153105Y4343704D01*
X3150870Y4347006D01*
X3150108Y4350918D01*
X3150108Y10639907D01*
X3150870Y10643768D01*
X3153105Y10647070D01*
X3154680Y10648645D01*
X3160318Y10656722D01*
X3164433Y10665612D01*
X3166973Y10675112D01*
X3167837Y10684865D01*
X3166973Y10694670D01*
X3164433Y10704169D01*
X3160318Y10713059D01*
X3154680Y10721136D01*
X3147720Y10728045D01*
X3139694Y10733684D01*
X3130753Y10737850D01*
X3121304Y10740390D01*
X3111500Y10741253D01*
X3101695Y10740390D01*
X3092246Y10737850D01*
X3083306Y10733684D01*
X3075279Y10728045D01*
X3068320Y10721136D01*
X3062681Y10713059D01*
X3058566Y10704169D01*
X3056026Y10694670D01*
X3055162Y10684865D01*
X3056026Y10675112D01*
X3058566Y10665612D01*
X3062681Y10656722D01*
X3068320Y10648645D01*
X3069894Y10647070D01*
X3072130Y10643768D01*
X3072892Y10639907D01*
X3072892Y4331208D01*
X3073704Y4323181D01*
X3075889Y4315968D01*
X3079445Y4309262D01*
X3084576Y4303064D01*
X3541064Y3846576D01*
X3547262Y3841445D01*
X3553968Y3837889D01*
X3561181Y3835704D01*
X3569208Y3834892D01*
X4069791Y3834892D01*
X4073702Y3834129D01*
X4077004Y3831894D01*
X4078579Y3830320D01*
X4086606Y3824681D01*
X4095546Y3820566D01*
X4104995Y3818026D01*
X4114800Y3817162D01*
X4124604Y3818026D01*
X4134053Y3820566D01*
X4142994Y3824681D01*
X4151020Y3830320D01*
X4157979Y3837279D01*
X4163618Y3845306D01*
X4167733Y3854246D01*
X4170273Y3863695D01*
X4171137Y3873500D01*
X4170273Y3883304D01*
X4167733Y3892753D01*
X4163618Y3901694D01*
X4157979Y3909720D01*
X4151020Y3916679D01*
X4142943Y3922318D01*
X4140250Y3925112D01*
X4138777Y3928719D01*
X4138777Y3932580D01*
X4140250Y3936187D01*
X4142943Y3938981D01*
X4151020Y3944620D01*
X4157979Y3951579D01*
X4163618Y3959606D01*
X4167733Y3968546D01*
X4170273Y3977995D01*
X4171137Y3987800D01*
X4170273Y3997604D01*
X4167733Y4007053D01*
X4166666Y4009390D01*
X4165701Y4013708D01*
X4165701Y4177792D01*
X4166666Y4182110D01*
X4167733Y4184446D01*
X4170273Y4193895D01*
X4171137Y4203700D01*
X4170273Y4213504D01*
X4167733Y4222953D01*
X4166666Y4225290D01*
X4165701Y4229608D01*
X4165701Y4393692D01*
X4166666Y4398010D01*
X4167733Y4400346D01*
X4170273Y4409795D01*
X4171137Y4419600D01*
X4170273Y4429404D01*
X4167733Y4438853D01*
X4166666Y4441190D01*
X4165701Y4445508D01*
X4165701Y4609592D01*
X4166666Y4613910D01*
X4167733Y4616246D01*
X4170273Y4625695D01*
X4171137Y4635500D01*
X4170273Y4645304D01*
X4167733Y4654753D01*
X4166666Y4657090D01*
X4165701Y4661408D01*
X4165701Y4825492D01*
X4166666Y4829810D01*
X4167733Y4832146D01*
X4170273Y4841595D01*
X4171137Y4851400D01*
X4170273Y4861204D01*
X4167733Y4870653D01*
X4166666Y4872990D01*
X4165701Y4877308D01*
X4165701Y5041392D01*
X4166666Y5045710D01*
X4167733Y5048046D01*
X4170273Y5057495D01*
X4171137Y5067300D01*
X4170273Y5077104D01*
X4167733Y5086553D01*
X4166666Y5088890D01*
X4165701Y5093208D01*
X4165701Y5257292D01*
X4166666Y5261610D01*
X4167733Y5263946D01*
X4170273Y5273395D01*
X4171137Y5283200D01*
X4170273Y5293004D01*
X4167733Y5302453D01*
X4166666Y5304790D01*
X4165701Y5309108D01*
X4165701Y5473192D01*
X4166666Y5477510D01*
X4167733Y5479846D01*
X4170273Y5489295D01*
X4171137Y5499100D01*
X4170273Y5508904D01*
X4167733Y5518353D01*
X4166666Y5520690D01*
X4165701Y5525008D01*
X4165701Y5689092D01*
X4166666Y5693410D01*
X4167733Y5695746D01*
X4170273Y5705195D01*
X4171137Y5715000D01*
X4170273Y5724804D01*
X4167733Y5734253D01*
X4166666Y5736590D01*
X4165701Y5740908D01*
X4165701Y5904992D01*
X4166666Y5909310D01*
X4167733Y5911646D01*
X4170273Y5921095D01*
X4171137Y5930900D01*
X4170273Y5940704D01*
X4167733Y5950153D01*
X4166666Y5952490D01*
X4165701Y5956808D01*
X4165701Y6120892D01*
X4166666Y6125210D01*
X4167733Y6127546D01*
X4170273Y6136995D01*
X4171137Y6146800D01*
X4170273Y6156604D01*
X4167733Y6166053D01*
X4166666Y6168390D01*
X4165701Y6172708D01*
X4165701Y6336792D01*
X4166666Y6341110D01*
X4167733Y6343446D01*
X4170273Y6352895D01*
X4171137Y6362700D01*
X4170273Y6372504D01*
X4167733Y6381953D01*
X4166666Y6384340D01*
X4165701Y6388608D01*
X4165701Y6552641D01*
X4166666Y6556959D01*
X4167733Y6559346D01*
X4170273Y6568795D01*
X4171137Y6578600D01*
X4170273Y6588404D01*
X4167733Y6597853D01*
X4166666Y6600240D01*
X4165701Y6604508D01*
X4165701Y6768541D01*
X4166666Y6772859D01*
X4167733Y6775246D01*
X4170273Y6784695D01*
X4171137Y6794500D01*
X4170273Y6804304D01*
X4167733Y6813753D01*
X4166666Y6816140D01*
X4165701Y6820408D01*
X4165701Y6984441D01*
X4166666Y6988759D01*
X4167733Y6991146D01*
X4170273Y7000595D01*
X4171137Y7010400D01*
X4170273Y7020204D01*
X4167733Y7029653D01*
X4166666Y7032040D01*
X4165701Y7036308D01*
X4165701Y7200341D01*
X4166666Y7204659D01*
X4167733Y7207046D01*
X4170273Y7216495D01*
X4171137Y7226300D01*
X4170273Y7236104D01*
X4167733Y7245553D01*
X4166666Y7247940D01*
X4165701Y7252208D01*
X4165701Y7416241D01*
X4166666Y7420559D01*
X4167733Y7422946D01*
X4170273Y7432395D01*
X4171137Y7442200D01*
X4170273Y7452004D01*
X4167733Y7461453D01*
X4166666Y7463840D01*
X4165701Y7468108D01*
X4165701Y7632141D01*
X4166666Y7636459D01*
X4167733Y7638846D01*
X4170273Y7648295D01*
X4171137Y7658100D01*
X4170273Y7667904D01*
X4167733Y7677353D01*
X4166666Y7679740D01*
X4165701Y7684008D01*
X4165701Y7848041D01*
X4166666Y7852359D01*
X4167733Y7854746D01*
X4170273Y7864195D01*
X4171137Y7874000D01*
X4170273Y7883804D01*
X4167733Y7893253D01*
X4166666Y7895640D01*
X4165701Y7899908D01*
X4165701Y8063941D01*
X4166666Y8068259D01*
X4167733Y8070646D01*
X4170273Y8080095D01*
X4171137Y8089900D01*
X4170273Y8099704D01*
X4167733Y8109153D01*
X4166666Y8111540D01*
X4165701Y8115808D01*
X4165701Y8279841D01*
X4166666Y8284159D01*
X4167733Y8286546D01*
X4170273Y8295995D01*
X4171137Y8305800D01*
X4170273Y8315604D01*
X4167733Y8325053D01*
X4166666Y8327440D01*
X4165701Y8331708D01*
X4165701Y8495741D01*
X4166666Y8500059D01*
X4167733Y8502446D01*
X4170273Y8511895D01*
X4171137Y8521700D01*
X4170273Y8531504D01*
X4167733Y8540953D01*
X4166666Y8543340D01*
X4165701Y8547608D01*
X4165701Y8711641D01*
X4166666Y8715959D01*
X4167733Y8718346D01*
X4170273Y8727795D01*
X4171137Y8737600D01*
X4170273Y8747404D01*
X4167733Y8756853D01*
X4166666Y8759240D01*
X4165701Y8763508D01*
X4165701Y8927541D01*
X4166666Y8931859D01*
X4167733Y8934246D01*
X4170273Y8943695D01*
X4171137Y8953500D01*
X4170273Y8963304D01*
X4167733Y8972753D01*
X4166666Y8975140D01*
X4165701Y8979408D01*
X4165701Y9143441D01*
X4166666Y9147759D01*
X4167733Y9150146D01*
X4170273Y9159595D01*
X4171137Y9169400D01*
X4170273Y9179204D01*
X4167733Y9188653D01*
X4166666Y9190990D01*
X4165701Y9195308D01*
X4165701Y9359442D01*
X4166666Y9363760D01*
X4167733Y9366046D01*
X4170273Y9375495D01*
X4171137Y9385300D01*
X4170273Y9395104D01*
X4167733Y9404553D01*
X4166666Y9406890D01*
X4165701Y9411157D01*
X4165701Y9575342D01*
X4166666Y9579610D01*
X4167733Y9581946D01*
X4170273Y9591395D01*
X4171137Y9601200D01*
X4170273Y9611004D01*
X4167733Y9620453D01*
X4166666Y9622790D01*
X4165701Y9627057D01*
X4165701Y9791242D01*
X4166666Y9795510D01*
X4167733Y9797846D01*
X4170273Y9807295D01*
X4171137Y9817100D01*
X4170273Y9826904D01*
X4167733Y9836353D01*
X4166666Y9838690D01*
X4165701Y9842957D01*
X4165701Y10007142D01*
X4166666Y10011410D01*
X4167733Y10013746D01*
X4170273Y10023195D01*
X4171137Y10033000D01*
X4170273Y10042804D01*
X4167733Y10052253D01*
X4166666Y10054590D01*
X4165701Y10058857D01*
X4165701Y10223042D01*
X4166666Y10227310D01*
X4167733Y10229646D01*
X4170273Y10239095D01*
X4171137Y10248900D01*
X4170273Y10258704D01*
X4167733Y10268153D01*
X4166666Y10270490D01*
X4165701Y10274757D01*
X4165701Y10438942D01*
X4166666Y10443210D01*
X4167733Y10445546D01*
X4170273Y10454995D01*
X4171137Y10464800D01*
X4170273Y10474604D01*
X4167733Y10484053D01*
X4166666Y10486390D01*
X4165701Y10490657D01*
X4165701Y10654842D01*
X4166666Y10659110D01*
X4167733Y10661446D01*
X4170273Y10670895D01*
X4171137Y10680700D01*
X4170273Y10690504D01*
X4167733Y10699953D01*
X4166666Y10702290D01*
X4165701Y10706557D01*
X4165701Y11141608D01*
X4166666Y11145875D01*
X4167733Y11148212D01*
X4170273Y11157712D01*
X4171137Y11167465D01*
X4170273Y11177270D01*
X4167733Y11186769D01*
X4163618Y11195659D01*
X4157979Y11203736D01*
X4151020Y11210645D01*
X4142994Y11216284D01*
X4134053Y11220450D01*
X4124604Y11222990D01*
X4114800Y11223853D01*
X4104995Y11222990D01*
X4095546Y11220450D01*
X4086606Y11216284D01*
X4078579Y11210645D01*
X4071620Y11203736D01*
X4065981Y11195659D01*
X4061866Y11186769D01*
X4059326Y11177270D01*
X4058462Y11167465D01*
X4059326Y11157712D01*
X4061866Y11148212D01*
X4062933Y11145875D01*
X4063898Y11141608D01*
X4063898Y10830661D01*
X4063136Y10826800D01*
X4060901Y10823498D01*
X4057599Y10821263D01*
X4053738Y10820501D01*
X4011117Y10820501D01*
X4007053Y10821365D01*
X4003649Y10823752D01*
X4001515Y10827258D01*
X4000957Y10831372D01*
X4002074Y10835335D01*
X4007459Y10845698D01*
X4011828Y10858042D01*
X4014520Y10871200D01*
X3932174Y10871200D01*
X3932174Y10830661D01*
X3931412Y10826800D01*
X3929227Y10823498D01*
X3925925Y10821263D01*
X3922064Y10820501D01*
X3916984Y10820501D01*
X3913073Y10821263D01*
X3909771Y10823498D01*
X3907586Y10826800D01*
X3906774Y10830661D01*
X3906774Y10871200D01*
X3825392Y10871200D01*
X3821480Y10871962D01*
X3818229Y10874197D01*
X3815994Y10877448D01*
X3815232Y10881360D01*
X3815232Y10886440D01*
X3815994Y10890351D01*
X3818229Y10893602D01*
X3821480Y10895838D01*
X3825392Y10896600D01*
X3906774Y10896600D01*
X3906774Y10978692D01*
X3899966Y10977778D01*
X3887368Y10974222D01*
X3875379Y10969040D01*
X3864203Y10962233D01*
X3854043Y10953953D01*
X3845102Y10944402D01*
X3837584Y10933734D01*
X3831539Y10922101D01*
X3829050Y10915142D01*
X3826916Y10911586D01*
X3823563Y10909198D01*
X3819499Y10908385D01*
X3815435Y10909198D01*
X3812082Y10911586D01*
X3809949Y10915142D01*
X3807460Y10922101D01*
X3801414Y10933734D01*
X3793896Y10944402D01*
X3784955Y10953953D01*
X3774795Y10962233D01*
X3763619Y10969040D01*
X3751630Y10974222D01*
X3739032Y10977778D01*
X3726027Y10979556D01*
X3712972Y10979556D01*
X3699967Y10977778D01*
X3690264Y10975035D01*
X3686708Y10974730D01*
X3683254Y10975594D01*
X3680358Y10977676D01*
X3661105Y10996930D01*
X3658870Y11000232D01*
X3658108Y11004092D01*
X3658108Y11122507D01*
X3658870Y11126368D01*
X3661105Y11129670D01*
X3662679Y11131245D01*
X3668318Y11139322D01*
X3672433Y11148212D01*
X3674973Y11157712D01*
X3675837Y11167465D01*
X3674973Y11177270D01*
X3672433Y11186769D01*
X3668318Y11195659D01*
X3662679Y11203736D01*
X3655720Y11210645D01*
X3647694Y11216284D01*
X3638753Y11220450D01*
X3629304Y11222990D01*
X3619500Y11223853D01*
X3609695Y11222990D01*
X3600246Y11220450D01*
X3591306Y11216284D01*
X3583279Y11210645D01*
X3576320Y11203736D01*
X3570681Y11195659D01*
X3566566Y11186769D01*
X3564026Y11177270D01*
X3563162Y11167465D01*
X3564026Y11157712D01*
X3566566Y11148212D01*
X3570681Y11139322D01*
X3576320Y11131245D01*
X3577894Y11129670D01*
X3580129Y11126368D01*
X3580892Y11122507D01*
X3580892Y10984382D01*
X3581603Y10977118D01*
X3581044Y10972698D01*
X3578656Y10968939D01*
X3574897Y10966551D01*
X3570427Y10966043D01*
X3566210Y10967466D01*
X3563620Y10969040D01*
X3551631Y10974222D01*
X3539032Y10977778D01*
X3526028Y10979556D01*
X3512972Y10979556D01*
X3499967Y10977778D01*
X3490214Y10975035D01*
X3486658Y10974679D01*
X3483203Y10975594D01*
X3480308Y10977626D01*
X3420059Y11037824D01*
X3413861Y11042954D01*
X3407206Y11046510D01*
X3399942Y11048695D01*
X3391915Y11049508D01*
X3010408Y11049508D01*
X3002381Y11048695D01*
X2995168Y11046510D01*
X2988462Y11042954D01*
X2982264Y11037824D01*
X2944876Y11000435D01*
X2939745Y10994237D01*
X2936189Y10987532D01*
X2934004Y10980318D01*
X2933192Y10972292D01*
X2933192Y4280408D01*
X2934004Y4272381D01*
X2936189Y4265168D01*
X2939745Y4258462D01*
X2944876Y4252264D01*
X3395268Y3801821D01*
X3397300Y3798925D01*
X3398215Y3795522D01*
X3398926Y3787495D01*
X3401466Y3778046D01*
X3405581Y3769106D01*
X3411220Y3761079D01*
X3418179Y3754120D01*
X3426206Y3748481D01*
X3435146Y3744366D01*
X3444595Y3741826D01*
G37*
G36*
X5359400Y3740962D02*
G01*
X5369204Y3741826D01*
X5378653Y3744366D01*
X5387594Y3748481D01*
X5395620Y3754120D01*
X5402580Y3761079D01*
X5408218Y3769106D01*
X5412333Y3778046D01*
X5414873Y3787495D01*
X5415737Y3797300D01*
X5414873Y3807104D01*
X5412333Y3816553D01*
X5408218Y3825494D01*
X5402580Y3833520D01*
X5395620Y3840479D01*
X5387594Y3846118D01*
X5378653Y3850233D01*
X5369204Y3852773D01*
X5361178Y3853484D01*
X5357774Y3854399D01*
X5354878Y3856431D01*
X4918405Y4292904D01*
X4916170Y4296206D01*
X4915408Y4300118D01*
X4915408Y10952581D01*
X4916170Y10956493D01*
X4918405Y10959795D01*
X4927904Y10969294D01*
X4931206Y10971530D01*
X4935118Y10972292D01*
X5113223Y10972292D01*
X5117388Y10971377D01*
X5120792Y10968888D01*
X5122926Y10965180D01*
X5123281Y10960912D01*
X5122418Y10953292D01*
X5122418Y10896600D01*
X5211826Y10896600D01*
X5211826Y10962132D01*
X5212588Y10966043D01*
X5214772Y10969294D01*
X5218074Y10971530D01*
X5221986Y10972292D01*
X5227066Y10972292D01*
X5230926Y10971530D01*
X5234228Y10969294D01*
X5236413Y10966043D01*
X5237226Y10962132D01*
X5237226Y10896600D01*
X5318607Y10896600D01*
X5322519Y10895838D01*
X5325770Y10893602D01*
X5328005Y10890351D01*
X5328767Y10886440D01*
X5328767Y10881360D01*
X5328005Y10877448D01*
X5325770Y10874197D01*
X5322519Y10871962D01*
X5318607Y10871200D01*
X5237226Y10871200D01*
X5237226Y10787989D01*
X5300116Y10787989D01*
X5306466Y10788700D01*
X5311902Y10790631D01*
X5316829Y10793679D01*
X5320893Y10797794D01*
X5323992Y10802670D01*
X5325872Y10808157D01*
X5326634Y10814456D01*
X5326634Y10824667D01*
X5327497Y10828832D01*
X5329986Y10832287D01*
X5333695Y10834370D01*
X5337911Y10834776D01*
X5341924Y10833404D01*
X5345074Y10830560D01*
X5350103Y10823397D01*
X5359044Y10813846D01*
X5369204Y10805566D01*
X5380380Y10798759D01*
X5392369Y10793526D01*
X5404967Y10790021D01*
X5417972Y10788243D01*
X5431028Y10788243D01*
X5444032Y10790021D01*
X5456631Y10793526D01*
X5459476Y10794796D01*
X5463438Y10795609D01*
X5467451Y10794847D01*
X5470804Y10792510D01*
X5472988Y10789056D01*
X5473598Y10783671D01*
X5473598Y10710773D01*
X5472633Y10706506D01*
X5471566Y10704169D01*
X5469026Y10694670D01*
X5468162Y10684865D01*
X5469026Y10675112D01*
X5471566Y10665612D01*
X5472633Y10663275D01*
X5473598Y10659008D01*
X5473598Y10494873D01*
X5472633Y10490606D01*
X5471566Y10488269D01*
X5469026Y10478770D01*
X5468162Y10468965D01*
X5469026Y10459212D01*
X5471566Y10449712D01*
X5472633Y10447375D01*
X5473598Y10443108D01*
X5473598Y10278973D01*
X5472633Y10274706D01*
X5471566Y10272369D01*
X5469026Y10262870D01*
X5468162Y10253065D01*
X5469026Y10243312D01*
X5471566Y10233812D01*
X5472633Y10231475D01*
X5473598Y10227208D01*
X5473598Y10063073D01*
X5472633Y10058806D01*
X5471566Y10056469D01*
X5469026Y10046970D01*
X5468162Y10037165D01*
X5469026Y10027412D01*
X5471566Y10017912D01*
X5472633Y10015575D01*
X5473598Y10011308D01*
X5473598Y9847173D01*
X5472633Y9842906D01*
X5471566Y9840569D01*
X5469026Y9831070D01*
X5468162Y9821265D01*
X5469026Y9811512D01*
X5471566Y9802012D01*
X5472633Y9799675D01*
X5473598Y9795408D01*
X5473598Y9631273D01*
X5472633Y9627006D01*
X5471566Y9624669D01*
X5469026Y9615170D01*
X5468162Y9605365D01*
X5469026Y9595612D01*
X5471566Y9586112D01*
X5472633Y9583775D01*
X5473598Y9579508D01*
X5473598Y9415373D01*
X5472633Y9411106D01*
X5471566Y9408769D01*
X5469026Y9399270D01*
X5468162Y9389465D01*
X5469026Y9379712D01*
X5471566Y9370212D01*
X5472633Y9367875D01*
X5473598Y9363608D01*
X5473598Y9199473D01*
X5472633Y9195206D01*
X5471566Y9192869D01*
X5469026Y9183370D01*
X5468162Y9173565D01*
X5469026Y9163812D01*
X5471566Y9154312D01*
X5472633Y9151975D01*
X5473598Y9147708D01*
X5473598Y8983573D01*
X5472633Y8979306D01*
X5471566Y8976969D01*
X5469026Y8967470D01*
X5468162Y8957665D01*
X5469026Y8947912D01*
X5471566Y8938412D01*
X5472633Y8936075D01*
X5473598Y8931808D01*
X5473598Y8767673D01*
X5472633Y8763406D01*
X5471566Y8761069D01*
X5469026Y8751570D01*
X5468162Y8741765D01*
X5469026Y8732012D01*
X5471566Y8722512D01*
X5472633Y8720175D01*
X5473598Y8715908D01*
X5473598Y8551773D01*
X5472633Y8547506D01*
X5471566Y8545169D01*
X5469026Y8535670D01*
X5468162Y8525865D01*
X5469026Y8516112D01*
X5471566Y8506612D01*
X5472633Y8504275D01*
X5473598Y8500008D01*
X5473598Y8335873D01*
X5472633Y8331606D01*
X5471566Y8329269D01*
X5469026Y8319770D01*
X5468162Y8309965D01*
X5469026Y8300212D01*
X5471566Y8290712D01*
X5472633Y8288375D01*
X5473598Y8284108D01*
X5473598Y8119973D01*
X5472633Y8115706D01*
X5471566Y8113369D01*
X5469026Y8103870D01*
X5468162Y8094065D01*
X5469026Y8084312D01*
X5471566Y8074812D01*
X5472633Y8072475D01*
X5473598Y8068208D01*
X5473598Y7904073D01*
X5472633Y7899806D01*
X5471566Y7897469D01*
X5469026Y7887970D01*
X5468162Y7878165D01*
X5469026Y7868412D01*
X5471566Y7858912D01*
X5472633Y7856575D01*
X5473598Y7852308D01*
X5473598Y7688173D01*
X5472633Y7683906D01*
X5471566Y7681569D01*
X5469026Y7672070D01*
X5468162Y7662265D01*
X5469026Y7652512D01*
X5471566Y7643012D01*
X5472633Y7640675D01*
X5473598Y7636408D01*
X5473598Y7472273D01*
X5472633Y7468006D01*
X5471566Y7465669D01*
X5469026Y7456170D01*
X5468162Y7446365D01*
X5469026Y7436612D01*
X5471566Y7427112D01*
X5472633Y7424775D01*
X5473598Y7420508D01*
X5473598Y7256373D01*
X5472633Y7252106D01*
X5471566Y7249769D01*
X5469026Y7240270D01*
X5468162Y7230465D01*
X5469026Y7220712D01*
X5471566Y7211212D01*
X5472633Y7208875D01*
X5473598Y7204608D01*
X5473598Y7040473D01*
X5472633Y7036206D01*
X5471566Y7033869D01*
X5469026Y7024370D01*
X5468162Y7014565D01*
X5469026Y7004812D01*
X5471566Y6995312D01*
X5472633Y6992975D01*
X5473598Y6988708D01*
X5473598Y6824573D01*
X5472633Y6820306D01*
X5471566Y6817969D01*
X5469026Y6808470D01*
X5468162Y6798665D01*
X5469026Y6788912D01*
X5471566Y6779412D01*
X5472633Y6777075D01*
X5473598Y6772808D01*
X5473598Y6608673D01*
X5472633Y6604406D01*
X5471566Y6602069D01*
X5469026Y6592570D01*
X5468162Y6582765D01*
X5469026Y6573012D01*
X5471566Y6563512D01*
X5472633Y6561175D01*
X5473598Y6556908D01*
X5473598Y6392773D01*
X5472633Y6388506D01*
X5471566Y6386169D01*
X5469026Y6376670D01*
X5468162Y6366865D01*
X5469026Y6357112D01*
X5471566Y6347612D01*
X5472633Y6345275D01*
X5473598Y6341008D01*
X5473598Y6176873D01*
X5472633Y6172606D01*
X5471566Y6170269D01*
X5469026Y6160770D01*
X5468162Y6150965D01*
X5469026Y6141212D01*
X5471566Y6131712D01*
X5472633Y6129375D01*
X5473598Y6125108D01*
X5473598Y5960973D01*
X5472633Y5956706D01*
X5471566Y5954369D01*
X5469026Y5944870D01*
X5468162Y5935065D01*
X5469026Y5925312D01*
X5471566Y5915812D01*
X5472633Y5913475D01*
X5473598Y5909208D01*
X5473598Y5745073D01*
X5472633Y5740806D01*
X5471566Y5738469D01*
X5469026Y5728970D01*
X5468162Y5719165D01*
X5469026Y5709412D01*
X5471566Y5699912D01*
X5472633Y5697575D01*
X5473598Y5693308D01*
X5473598Y5529173D01*
X5472633Y5524906D01*
X5471566Y5522569D01*
X5469026Y5513070D01*
X5468162Y5503265D01*
X5469026Y5493512D01*
X5471566Y5484012D01*
X5472633Y5481675D01*
X5473598Y5477408D01*
X5473598Y5313273D01*
X5472633Y5309006D01*
X5471566Y5306669D01*
X5469026Y5297170D01*
X5468162Y5287365D01*
X5469026Y5277612D01*
X5471566Y5268112D01*
X5472633Y5265775D01*
X5473598Y5261508D01*
X5473598Y5097373D01*
X5472633Y5093106D01*
X5471566Y5090769D01*
X5469026Y5081270D01*
X5468162Y5071465D01*
X5469026Y5061712D01*
X5471566Y5052212D01*
X5472633Y5049875D01*
X5473598Y5045608D01*
X5473598Y4881473D01*
X5472633Y4877206D01*
X5471566Y4874869D01*
X5469026Y4865370D01*
X5468162Y4855565D01*
X5469026Y4845812D01*
X5471566Y4836312D01*
X5472633Y4833975D01*
X5473598Y4829708D01*
X5473598Y4665573D01*
X5472633Y4661306D01*
X5471566Y4658969D01*
X5469026Y4649470D01*
X5468162Y4639665D01*
X5469026Y4629912D01*
X5471566Y4620412D01*
X5472633Y4618075D01*
X5473598Y4613808D01*
X5473598Y4449673D01*
X5472633Y4445406D01*
X5471566Y4443069D01*
X5469026Y4433570D01*
X5468162Y4423765D01*
X5469026Y4414012D01*
X5471566Y4404512D01*
X5472633Y4402175D01*
X5473598Y4397908D01*
X5473598Y4233773D01*
X5472633Y4229506D01*
X5471566Y4227169D01*
X5469026Y4217670D01*
X5468162Y4207865D01*
X5469026Y4198112D01*
X5471566Y4188612D01*
X5472633Y4186275D01*
X5473598Y4182008D01*
X5473598Y4017873D01*
X5472633Y4013606D01*
X5471566Y4011269D01*
X5469026Y4001770D01*
X5468162Y3991965D01*
X5469026Y3982212D01*
X5471566Y3972712D01*
X5475681Y3963822D01*
X5481320Y3955745D01*
X5488279Y3948836D01*
X5496306Y3943197D01*
X5505246Y3939032D01*
X5514695Y3936492D01*
X5524500Y3935628D01*
X5534304Y3936492D01*
X5543753Y3939032D01*
X5552694Y3943197D01*
X5560720Y3948836D01*
X5567680Y3955745D01*
X5573318Y3963822D01*
X5577433Y3972712D01*
X5579973Y3982212D01*
X5580837Y3991965D01*
X5579973Y4001770D01*
X5577433Y4011269D01*
X5576366Y4013606D01*
X5575401Y4017873D01*
X5575401Y4182008D01*
X5576366Y4186275D01*
X5577433Y4188612D01*
X5579973Y4198112D01*
X5580837Y4207865D01*
X5579973Y4217670D01*
X5577433Y4227169D01*
X5576366Y4229506D01*
X5575401Y4233773D01*
X5575401Y4397908D01*
X5576366Y4402175D01*
X5577433Y4404512D01*
X5579973Y4414012D01*
X5580837Y4423765D01*
X5579973Y4433570D01*
X5577433Y4443069D01*
X5576366Y4445406D01*
X5575401Y4449673D01*
X5575401Y4613808D01*
X5576366Y4618075D01*
X5577433Y4620412D01*
X5579973Y4629912D01*
X5580837Y4639665D01*
X5579973Y4649470D01*
X5577433Y4658969D01*
X5576366Y4661306D01*
X5575401Y4665573D01*
X5575401Y4829708D01*
X5576366Y4833975D01*
X5577433Y4836312D01*
X5579973Y4845812D01*
X5580837Y4855565D01*
X5579973Y4865370D01*
X5577433Y4874869D01*
X5576366Y4877206D01*
X5575401Y4881473D01*
X5575401Y5045608D01*
X5576366Y5049875D01*
X5577433Y5052212D01*
X5579973Y5061712D01*
X5580837Y5071465D01*
X5579973Y5081270D01*
X5577433Y5090769D01*
X5576366Y5093106D01*
X5575401Y5097373D01*
X5575401Y5261508D01*
X5576366Y5265775D01*
X5577433Y5268112D01*
X5579973Y5277612D01*
X5580837Y5287365D01*
X5579973Y5297170D01*
X5577433Y5306669D01*
X5576366Y5309006D01*
X5575401Y5313273D01*
X5575401Y5477408D01*
X5576366Y5481675D01*
X5577433Y5484012D01*
X5579973Y5493512D01*
X5580837Y5503265D01*
X5579973Y5513070D01*
X5577433Y5522569D01*
X5576366Y5524906D01*
X5575401Y5529173D01*
X5575401Y5693308D01*
X5576366Y5697575D01*
X5577433Y5699912D01*
X5579973Y5709412D01*
X5580837Y5719165D01*
X5579973Y5728970D01*
X5577433Y5738469D01*
X5576366Y5740806D01*
X5575401Y5745073D01*
X5575401Y5909208D01*
X5576366Y5913475D01*
X5577433Y5915812D01*
X5579973Y5925312D01*
X5580837Y5935065D01*
X5579973Y5944870D01*
X5577433Y5954369D01*
X5576366Y5956706D01*
X5575401Y5960973D01*
X5575401Y6125108D01*
X5576366Y6129375D01*
X5577433Y6131712D01*
X5579973Y6141212D01*
X5580837Y6150965D01*
X5579973Y6160770D01*
X5577433Y6170269D01*
X5576366Y6172606D01*
X5575401Y6176873D01*
X5575401Y6341008D01*
X5576366Y6345275D01*
X5577433Y6347612D01*
X5579973Y6357112D01*
X5580837Y6366865D01*
X5579973Y6376670D01*
X5577433Y6386169D01*
X5576366Y6388506D01*
X5575401Y6392773D01*
X5575401Y6556908D01*
X5576366Y6561175D01*
X5577433Y6563512D01*
X5579973Y6573012D01*
X5580837Y6582765D01*
X5579973Y6592570D01*
X5577433Y6602069D01*
X5576366Y6604406D01*
X5575401Y6608673D01*
X5575401Y6772808D01*
X5576366Y6777075D01*
X5577433Y6779412D01*
X5579973Y6788912D01*
X5580837Y6798665D01*
X5579973Y6808470D01*
X5577433Y6817969D01*
X5576366Y6820306D01*
X5575401Y6824573D01*
X5575401Y6988708D01*
X5576366Y6992975D01*
X5577433Y6995312D01*
X5579973Y7004812D01*
X5580837Y7014565D01*
X5579973Y7024370D01*
X5577433Y7033869D01*
X5576366Y7036206D01*
X5575401Y7040473D01*
X5575401Y7204608D01*
X5576366Y7208875D01*
X5577433Y7211212D01*
X5579973Y7220712D01*
X5580837Y7230465D01*
X5579973Y7240270D01*
X5577433Y7249769D01*
X5576366Y7252106D01*
X5575401Y7256373D01*
X5575401Y7420508D01*
X5576366Y7424775D01*
X5577433Y7427112D01*
X5579973Y7436612D01*
X5580837Y7446365D01*
X5579973Y7456170D01*
X5577433Y7465669D01*
X5576366Y7468006D01*
X5575401Y7472273D01*
X5575401Y7636408D01*
X5576366Y7640675D01*
X5577433Y7643012D01*
X5579973Y7652512D01*
X5580837Y7662265D01*
X5579973Y7672070D01*
X5577433Y7681569D01*
X5576366Y7683906D01*
X5575401Y7688173D01*
X5575401Y7852308D01*
X5576366Y7856575D01*
X5577433Y7858912D01*
X5579973Y7868412D01*
X5580837Y7878165D01*
X5579973Y7887970D01*
X5577433Y7897469D01*
X5576366Y7899806D01*
X5575401Y7904073D01*
X5575401Y8068208D01*
X5576366Y8072475D01*
X5577433Y8074812D01*
X5579973Y8084312D01*
X5580837Y8094065D01*
X5579973Y8103870D01*
X5577433Y8113369D01*
X5576366Y8115706D01*
X5575401Y8119973D01*
X5575401Y8284108D01*
X5576366Y8288375D01*
X5577433Y8290712D01*
X5579973Y8300212D01*
X5580837Y8309965D01*
X5579973Y8319770D01*
X5577433Y8329269D01*
X5576366Y8331606D01*
X5575401Y8335873D01*
X5575401Y8500008D01*
X5576366Y8504275D01*
X5577433Y8506612D01*
X5579973Y8516112D01*
X5580837Y8525865D01*
X5579973Y8535670D01*
X5577433Y8545169D01*
X5576366Y8547506D01*
X5575401Y8551773D01*
X5575401Y8715908D01*
X5576366Y8720175D01*
X5577433Y8722512D01*
X5579973Y8732012D01*
X5580837Y8741765D01*
X5579973Y8751570D01*
X5577433Y8761069D01*
X5576366Y8763406D01*
X5575401Y8767673D01*
X5575401Y8931808D01*
X5576366Y8936075D01*
X5577433Y8938412D01*
X5579973Y8947912D01*
X5580837Y8957665D01*
X5579973Y8967470D01*
X5577433Y8976969D01*
X5576366Y8979306D01*
X5575401Y8983573D01*
X5575401Y9147708D01*
X5576366Y9151975D01*
X5577433Y9154312D01*
X5579973Y9163812D01*
X5580837Y9173565D01*
X5579973Y9183370D01*
X5577433Y9192869D01*
X5576366Y9195206D01*
X5575401Y9199473D01*
X5575401Y9363608D01*
X5576366Y9367875D01*
X5577433Y9370212D01*
X5579973Y9379712D01*
X5580837Y9389465D01*
X5579973Y9399270D01*
X5577433Y9408769D01*
X5576366Y9411106D01*
X5575401Y9415373D01*
X5575401Y9579508D01*
X5576366Y9583775D01*
X5577433Y9586112D01*
X5579973Y9595612D01*
X5580837Y9605365D01*
X5579973Y9615170D01*
X5577433Y9624669D01*
X5576366Y9627006D01*
X5575401Y9631273D01*
X5575401Y9795408D01*
X5576366Y9799675D01*
X5577433Y9802012D01*
X5579973Y9811512D01*
X5580837Y9821265D01*
X5579973Y9831070D01*
X5577433Y9840569D01*
X5576366Y9842906D01*
X5575401Y9847173D01*
X5575401Y10011308D01*
X5576366Y10015575D01*
X5577433Y10017912D01*
X5579973Y10027412D01*
X5580837Y10037165D01*
X5579973Y10046970D01*
X5577433Y10056469D01*
X5576366Y10058806D01*
X5575401Y10063073D01*
X5575401Y10227208D01*
X5576366Y10231475D01*
X5577433Y10233812D01*
X5579973Y10243312D01*
X5580837Y10253065D01*
X5579973Y10262870D01*
X5577433Y10272369D01*
X5576366Y10274706D01*
X5575401Y10278973D01*
X5575401Y10443108D01*
X5576366Y10447375D01*
X5577433Y10449712D01*
X5579973Y10459212D01*
X5580837Y10468965D01*
X5579973Y10478770D01*
X5577433Y10488269D01*
X5576366Y10490606D01*
X5575401Y10494873D01*
X5575401Y10659008D01*
X5576366Y10663275D01*
X5577433Y10665612D01*
X5579973Y10675112D01*
X5580837Y10684865D01*
X5579973Y10694670D01*
X5577433Y10704169D01*
X5576366Y10706506D01*
X5575401Y10710773D01*
X5575401Y10758627D01*
X5576163Y10762488D01*
X5578398Y10765790D01*
X5599328Y10786719D01*
X5601868Y10788599D01*
X5604814Y10789564D01*
X5607913Y10789615D01*
X5617972Y10788243D01*
X5631027Y10788243D01*
X5641086Y10789615D01*
X5644184Y10789564D01*
X5647131Y10788599D01*
X5649671Y10786719D01*
X5702655Y10733735D01*
X5706059Y10730585D01*
X5709615Y10727893D01*
X5713374Y10725505D01*
X5717286Y10723473D01*
X5721400Y10721746D01*
X5725617Y10720425D01*
X5729986Y10719460D01*
X5734354Y10718901D01*
X5739028Y10718698D01*
X5958738Y10718698D01*
X5962599Y10717936D01*
X5965901Y10715701D01*
X5968085Y10712399D01*
X5968898Y10708538D01*
X5968898Y10706608D01*
X5967933Y10702340D01*
X5966815Y10699953D01*
X5964275Y10690504D01*
X5963412Y10680700D01*
X5964275Y10670895D01*
X5966815Y10661446D01*
X5967933Y10659059D01*
X5968898Y10654741D01*
X5968898Y10490708D01*
X5967933Y10486440D01*
X5966815Y10484053D01*
X5964275Y10474604D01*
X5963412Y10464800D01*
X5964275Y10454995D01*
X5966815Y10445546D01*
X5967933Y10443159D01*
X5968898Y10438841D01*
X5968898Y10274808D01*
X5967933Y10270540D01*
X5966815Y10268153D01*
X5964275Y10258704D01*
X5963412Y10248900D01*
X5964275Y10239095D01*
X5966815Y10229646D01*
X5967933Y10227259D01*
X5968898Y10222941D01*
X5968898Y10058908D01*
X5967933Y10054640D01*
X5966815Y10052253D01*
X5964275Y10042804D01*
X5963412Y10033000D01*
X5964275Y10023195D01*
X5966815Y10013746D01*
X5967933Y10011359D01*
X5968898Y10007041D01*
X5968898Y9843008D01*
X5967933Y9838740D01*
X5966815Y9836353D01*
X5964275Y9826904D01*
X5963412Y9817100D01*
X5964275Y9807295D01*
X5966815Y9797846D01*
X5967933Y9795459D01*
X5968898Y9791141D01*
X5968898Y9627108D01*
X5967933Y9622840D01*
X5966815Y9620453D01*
X5964275Y9611004D01*
X5963412Y9601200D01*
X5964275Y9591395D01*
X5966815Y9581946D01*
X5967933Y9579559D01*
X5968898Y9575241D01*
X5968898Y9411208D01*
X5967933Y9406940D01*
X5966815Y9404553D01*
X5964275Y9395104D01*
X5963412Y9385300D01*
X5964275Y9375495D01*
X5966815Y9366046D01*
X5967933Y9363608D01*
X5968898Y9359341D01*
X5968898Y9195308D01*
X5967933Y9190990D01*
X5966866Y9188653D01*
X5964326Y9179204D01*
X5963462Y9169400D01*
X5964326Y9159595D01*
X5966866Y9150146D01*
X5967933Y9147810D01*
X5968898Y9143542D01*
X5968898Y8979357D01*
X5967933Y8975090D01*
X5966866Y8972753D01*
X5964326Y8963304D01*
X5963462Y8953500D01*
X5964326Y8943695D01*
X5966866Y8934246D01*
X5967933Y8931910D01*
X5968898Y8927642D01*
X5968898Y8763457D01*
X5967933Y8759190D01*
X5966866Y8756853D01*
X5964326Y8747404D01*
X5963462Y8737600D01*
X5964326Y8727795D01*
X5966866Y8718346D01*
X5967933Y8716010D01*
X5968898Y8711742D01*
X5968898Y8547557D01*
X5967933Y8543290D01*
X5966866Y8540953D01*
X5964326Y8531504D01*
X5963462Y8521700D01*
X5964326Y8511895D01*
X5966866Y8502446D01*
X5967933Y8500110D01*
X5968898Y8495842D01*
X5968898Y8331657D01*
X5967933Y8327390D01*
X5966866Y8325053D01*
X5964326Y8315604D01*
X5963462Y8305800D01*
X5964326Y8295995D01*
X5966866Y8286546D01*
X5967933Y8284209D01*
X5968898Y8279942D01*
X5968898Y8115757D01*
X5967933Y8111490D01*
X5966866Y8109153D01*
X5964326Y8099704D01*
X5963462Y8089900D01*
X5964326Y8080095D01*
X5966866Y8070646D01*
X5967933Y8068309D01*
X5968898Y8064042D01*
X5968898Y7899857D01*
X5967933Y7895590D01*
X5966866Y7893253D01*
X5964326Y7883804D01*
X5963462Y7874000D01*
X5964326Y7864195D01*
X5966866Y7854746D01*
X5967933Y7852409D01*
X5968898Y7848142D01*
X5968898Y7683957D01*
X5967933Y7679690D01*
X5966866Y7677353D01*
X5964326Y7667904D01*
X5963462Y7658100D01*
X5964326Y7648295D01*
X5966866Y7638846D01*
X5967933Y7636509D01*
X5968898Y7632242D01*
X5968898Y7468057D01*
X5967933Y7463790D01*
X5966866Y7461453D01*
X5964326Y7452004D01*
X5963462Y7442200D01*
X5964326Y7432395D01*
X5966866Y7422946D01*
X5967933Y7420609D01*
X5968898Y7416342D01*
X5968898Y7252157D01*
X5967933Y7247890D01*
X5966866Y7245553D01*
X5964326Y7236104D01*
X5963462Y7226300D01*
X5964326Y7216495D01*
X5966866Y7207046D01*
X5967933Y7204709D01*
X5968898Y7200442D01*
X5968898Y7036257D01*
X5967933Y7031990D01*
X5966866Y7029653D01*
X5964326Y7020204D01*
X5963462Y7010400D01*
X5964326Y7000595D01*
X5966866Y6991146D01*
X5967933Y6988809D01*
X5968898Y6984542D01*
X5968898Y6820357D01*
X5967933Y6816090D01*
X5966866Y6813753D01*
X5964326Y6804304D01*
X5963462Y6794500D01*
X5964326Y6784695D01*
X5966866Y6775246D01*
X5967933Y6772909D01*
X5968898Y6768642D01*
X5968898Y6604457D01*
X5967933Y6600190D01*
X5966866Y6597853D01*
X5964326Y6588404D01*
X5963462Y6578600D01*
X5964326Y6568795D01*
X5966866Y6559346D01*
X5967933Y6557009D01*
X5968898Y6552742D01*
X5968898Y6388557D01*
X5967933Y6384290D01*
X5966866Y6381953D01*
X5964326Y6372504D01*
X5963462Y6362700D01*
X5964326Y6352895D01*
X5966866Y6343446D01*
X5967933Y6341110D01*
X5968898Y6336792D01*
X5968898Y6172708D01*
X5967933Y6168390D01*
X5966866Y6166053D01*
X5964326Y6156604D01*
X5963462Y6146800D01*
X5964326Y6136995D01*
X5966866Y6127546D01*
X5967933Y6125210D01*
X5968898Y6120892D01*
X5968898Y5956808D01*
X5967933Y5952490D01*
X5966866Y5950153D01*
X5964326Y5940704D01*
X5963462Y5930900D01*
X5964326Y5921095D01*
X5966866Y5911646D01*
X5967933Y5909310D01*
X5968898Y5904992D01*
X5968898Y5740908D01*
X5967933Y5736590D01*
X5966866Y5734253D01*
X5964326Y5724804D01*
X5963462Y5715000D01*
X5964326Y5705195D01*
X5966866Y5695746D01*
X5967933Y5693410D01*
X5968898Y5689092D01*
X5968898Y5525008D01*
X5967933Y5520690D01*
X5966866Y5518353D01*
X5964326Y5508904D01*
X5963462Y5499100D01*
X5964326Y5489295D01*
X5966866Y5479846D01*
X5967933Y5477510D01*
X5968898Y5473192D01*
X5968898Y5309108D01*
X5967933Y5304790D01*
X5966866Y5302453D01*
X5964326Y5293004D01*
X5963462Y5283200D01*
X5964326Y5273395D01*
X5966866Y5263946D01*
X5967933Y5261610D01*
X5968898Y5257292D01*
X5968898Y5093208D01*
X5967933Y5088890D01*
X5966866Y5086553D01*
X5964326Y5077104D01*
X5963462Y5067300D01*
X5964326Y5057495D01*
X5966866Y5048046D01*
X5967933Y5045710D01*
X5968898Y5041392D01*
X5968898Y4877308D01*
X5967933Y4872990D01*
X5966866Y4870653D01*
X5964326Y4861204D01*
X5963462Y4851400D01*
X5964326Y4841595D01*
X5966866Y4832146D01*
X5967933Y4829810D01*
X5968898Y4825492D01*
X5968898Y4661408D01*
X5967933Y4657090D01*
X5966866Y4654753D01*
X5964326Y4645304D01*
X5963462Y4635500D01*
X5964326Y4625695D01*
X5966866Y4616246D01*
X5967933Y4613910D01*
X5968898Y4609592D01*
X5968898Y4445508D01*
X5967933Y4441190D01*
X5966866Y4438853D01*
X5964326Y4429404D01*
X5963462Y4419600D01*
X5964326Y4409795D01*
X5966866Y4400346D01*
X5967933Y4398010D01*
X5968898Y4393692D01*
X5968898Y4229608D01*
X5967933Y4225290D01*
X5966866Y4222953D01*
X5964326Y4213504D01*
X5963462Y4203700D01*
X5964326Y4193895D01*
X5966866Y4184446D01*
X5967933Y4182110D01*
X5968898Y4177792D01*
X5968898Y4013708D01*
X5967933Y4009390D01*
X5966866Y4007053D01*
X5964326Y3997604D01*
X5963462Y3987800D01*
X5964326Y3977995D01*
X5966866Y3968546D01*
X5970981Y3959606D01*
X5976620Y3951579D01*
X5983579Y3944620D01*
X5991656Y3938981D01*
X5994349Y3936187D01*
X5995822Y3932580D01*
X5995822Y3928719D01*
X5994349Y3925112D01*
X5991656Y3922318D01*
X5983579Y3916679D01*
X5982004Y3915105D01*
X5978702Y3912870D01*
X5974791Y3912108D01*
X5493918Y3912108D01*
X5490006Y3912870D01*
X5486704Y3915105D01*
X5058105Y4343704D01*
X5055870Y4347006D01*
X5055108Y4350918D01*
X5055108Y10639907D01*
X5055870Y10643768D01*
X5058105Y10647070D01*
X5059680Y10648645D01*
X5065318Y10656722D01*
X5069433Y10665612D01*
X5071973Y10675112D01*
X5072837Y10684865D01*
X5071973Y10694670D01*
X5069433Y10704169D01*
X5065318Y10713059D01*
X5059680Y10721136D01*
X5052720Y10728045D01*
X5044694Y10733684D01*
X5035753Y10737850D01*
X5026304Y10740390D01*
X5016500Y10741253D01*
X5006695Y10740390D01*
X4997246Y10737850D01*
X4988306Y10733684D01*
X4980279Y10728045D01*
X4973320Y10721136D01*
X4967681Y10713059D01*
X4963566Y10704169D01*
X4961026Y10694670D01*
X4960162Y10684865D01*
X4961026Y10675112D01*
X4963566Y10665612D01*
X4967681Y10656722D01*
X4973320Y10648645D01*
X4974894Y10647070D01*
X4977130Y10643768D01*
X4977892Y10639907D01*
X4977892Y4331208D01*
X4978704Y4323181D01*
X4980889Y4315968D01*
X4984445Y4309262D01*
X4989576Y4303064D01*
X5446064Y3846576D01*
X5452262Y3841445D01*
X5458968Y3837889D01*
X5466181Y3835704D01*
X5474208Y3834892D01*
X5974791Y3834892D01*
X5978702Y3834129D01*
X5982004Y3831894D01*
X5983579Y3830320D01*
X5991606Y3824681D01*
X6000546Y3820566D01*
X6009995Y3818026D01*
X6019800Y3817162D01*
X6029604Y3818026D01*
X6039053Y3820566D01*
X6047994Y3824681D01*
X6056020Y3830320D01*
X6062980Y3837279D01*
X6068618Y3845306D01*
X6072733Y3854246D01*
X6075273Y3863695D01*
X6076137Y3873500D01*
X6075273Y3883304D01*
X6072733Y3892753D01*
X6068618Y3901694D01*
X6062980Y3909720D01*
X6056020Y3916679D01*
X6047943Y3922318D01*
X6045250Y3925112D01*
X6043777Y3928719D01*
X6043777Y3932580D01*
X6045250Y3936187D01*
X6047943Y3938981D01*
X6056020Y3944620D01*
X6062980Y3951579D01*
X6068618Y3959606D01*
X6072733Y3968546D01*
X6075273Y3977995D01*
X6076137Y3987800D01*
X6075273Y3997604D01*
X6072733Y4007053D01*
X6071666Y4009390D01*
X6070701Y4013708D01*
X6070701Y4177792D01*
X6071666Y4182110D01*
X6072733Y4184446D01*
X6075273Y4193895D01*
X6076137Y4203700D01*
X6075273Y4213504D01*
X6072733Y4222953D01*
X6071666Y4225290D01*
X6070701Y4229608D01*
X6070701Y4393692D01*
X6071666Y4398010D01*
X6072733Y4400346D01*
X6075273Y4409795D01*
X6076137Y4419600D01*
X6075273Y4429404D01*
X6072733Y4438853D01*
X6071666Y4441190D01*
X6070701Y4445508D01*
X6070701Y4609592D01*
X6071666Y4613910D01*
X6072733Y4616246D01*
X6075273Y4625695D01*
X6076137Y4635500D01*
X6075273Y4645304D01*
X6072733Y4654753D01*
X6071666Y4657090D01*
X6070701Y4661408D01*
X6070701Y4825492D01*
X6071666Y4829810D01*
X6072733Y4832146D01*
X6075273Y4841595D01*
X6076137Y4851400D01*
X6075273Y4861204D01*
X6072733Y4870653D01*
X6071666Y4872990D01*
X6070701Y4877308D01*
X6070701Y5041392D01*
X6071666Y5045710D01*
X6072733Y5048046D01*
X6075273Y5057495D01*
X6076137Y5067300D01*
X6075273Y5077104D01*
X6072733Y5086553D01*
X6071666Y5088890D01*
X6070701Y5093208D01*
X6070701Y5257292D01*
X6071666Y5261610D01*
X6072733Y5263946D01*
X6075273Y5273395D01*
X6076137Y5283200D01*
X6075273Y5293004D01*
X6072733Y5302453D01*
X6071666Y5304790D01*
X6070701Y5309108D01*
X6070701Y5473192D01*
X6071666Y5477510D01*
X6072733Y5479846D01*
X6075273Y5489295D01*
X6076137Y5499100D01*
X6075273Y5508904D01*
X6072733Y5518353D01*
X6071666Y5520690D01*
X6070701Y5525008D01*
X6070701Y5689092D01*
X6071666Y5693410D01*
X6072733Y5695746D01*
X6075273Y5705195D01*
X6076137Y5715000D01*
X6075273Y5724804D01*
X6072733Y5734253D01*
X6071666Y5736590D01*
X6070701Y5740908D01*
X6070701Y5904992D01*
X6071666Y5909310D01*
X6072733Y5911646D01*
X6075273Y5921095D01*
X6076137Y5930900D01*
X6075273Y5940704D01*
X6072733Y5950153D01*
X6071666Y5952490D01*
X6070701Y5956808D01*
X6070701Y6120892D01*
X6071666Y6125210D01*
X6072733Y6127546D01*
X6075273Y6136995D01*
X6076137Y6146800D01*
X6075273Y6156604D01*
X6072733Y6166053D01*
X6071666Y6168390D01*
X6070701Y6172708D01*
X6070701Y6336792D01*
X6071666Y6341110D01*
X6072733Y6343446D01*
X6075273Y6352895D01*
X6076137Y6362700D01*
X6075273Y6372504D01*
X6072733Y6381953D01*
X6071666Y6384340D01*
X6070701Y6388608D01*
X6070701Y6552641D01*
X6071666Y6556959D01*
X6072733Y6559346D01*
X6075273Y6568795D01*
X6076137Y6578600D01*
X6075273Y6588404D01*
X6072733Y6597853D01*
X6071666Y6600240D01*
X6070701Y6604508D01*
X6070701Y6768541D01*
X6071666Y6772859D01*
X6072733Y6775246D01*
X6075273Y6784695D01*
X6076137Y6794500D01*
X6075273Y6804304D01*
X6072733Y6813753D01*
X6071666Y6816140D01*
X6070701Y6820408D01*
X6070701Y6984441D01*
X6071666Y6988759D01*
X6072733Y6991146D01*
X6075273Y7000595D01*
X6076137Y7010400D01*
X6075273Y7020204D01*
X6072733Y7029653D01*
X6071666Y7032040D01*
X6070701Y7036308D01*
X6070701Y7200341D01*
X6071666Y7204659D01*
X6072733Y7207046D01*
X6075273Y7216495D01*
X6076137Y7226300D01*
X6075273Y7236104D01*
X6072733Y7245553D01*
X6071666Y7247940D01*
X6070701Y7252208D01*
X6070701Y7416241D01*
X6071666Y7420559D01*
X6072733Y7422946D01*
X6075273Y7432395D01*
X6076137Y7442200D01*
X6075273Y7452004D01*
X6072733Y7461453D01*
X6071666Y7463840D01*
X6070701Y7468108D01*
X6070701Y7632141D01*
X6071666Y7636459D01*
X6072733Y7638846D01*
X6075273Y7648295D01*
X6076137Y7658100D01*
X6075273Y7667904D01*
X6072733Y7677353D01*
X6071666Y7679740D01*
X6070701Y7684008D01*
X6070701Y7848041D01*
X6071666Y7852359D01*
X6072733Y7854746D01*
X6075273Y7864195D01*
X6076137Y7874000D01*
X6075273Y7883804D01*
X6072733Y7893253D01*
X6071666Y7895640D01*
X6070701Y7899908D01*
X6070701Y8063941D01*
X6071666Y8068259D01*
X6072733Y8070646D01*
X6075273Y8080095D01*
X6076137Y8089900D01*
X6075273Y8099704D01*
X6072733Y8109153D01*
X6071666Y8111540D01*
X6070701Y8115808D01*
X6070701Y8279841D01*
X6071666Y8284159D01*
X6072733Y8286546D01*
X6075273Y8295995D01*
X6076137Y8305800D01*
X6075273Y8315604D01*
X6072733Y8325053D01*
X6071666Y8327440D01*
X6070701Y8331708D01*
X6070701Y8495741D01*
X6071666Y8500059D01*
X6072733Y8502446D01*
X6075273Y8511895D01*
X6076137Y8521700D01*
X6075273Y8531504D01*
X6072733Y8540953D01*
X6071666Y8543340D01*
X6070701Y8547608D01*
X6070701Y8711641D01*
X6071666Y8715959D01*
X6072733Y8718346D01*
X6075273Y8727795D01*
X6076137Y8737600D01*
X6075273Y8747404D01*
X6072733Y8756853D01*
X6071666Y8759240D01*
X6070701Y8763508D01*
X6070701Y8927541D01*
X6071666Y8931859D01*
X6072733Y8934246D01*
X6075273Y8943695D01*
X6076137Y8953500D01*
X6075273Y8963304D01*
X6072733Y8972753D01*
X6071666Y8975140D01*
X6070701Y8979408D01*
X6070701Y9143441D01*
X6071666Y9147759D01*
X6072733Y9150146D01*
X6075273Y9159595D01*
X6076137Y9169400D01*
X6075273Y9179204D01*
X6072733Y9188653D01*
X6071666Y9190990D01*
X6070701Y9195308D01*
X6070701Y9359442D01*
X6071666Y9363760D01*
X6072733Y9366046D01*
X6075273Y9375495D01*
X6076137Y9385300D01*
X6075273Y9395104D01*
X6072733Y9404553D01*
X6071666Y9406890D01*
X6070701Y9411157D01*
X6070701Y9575342D01*
X6071666Y9579610D01*
X6072733Y9581946D01*
X6075273Y9591395D01*
X6076137Y9601200D01*
X6075273Y9611004D01*
X6072733Y9620453D01*
X6071666Y9622790D01*
X6070701Y9627057D01*
X6070701Y9791242D01*
X6071666Y9795510D01*
X6072733Y9797846D01*
X6075273Y9807295D01*
X6076137Y9817100D01*
X6075273Y9826904D01*
X6072733Y9836353D01*
X6071666Y9838690D01*
X6070701Y9842957D01*
X6070701Y10007142D01*
X6071666Y10011410D01*
X6072733Y10013746D01*
X6075273Y10023195D01*
X6076137Y10033000D01*
X6075273Y10042804D01*
X6072733Y10052253D01*
X6071666Y10054590D01*
X6070701Y10058857D01*
X6070701Y10223042D01*
X6071666Y10227310D01*
X6072733Y10229646D01*
X6075273Y10239095D01*
X6076137Y10248900D01*
X6075273Y10258704D01*
X6072733Y10268153D01*
X6071666Y10270490D01*
X6070701Y10274757D01*
X6070701Y10438942D01*
X6071666Y10443210D01*
X6072733Y10445546D01*
X6075273Y10454995D01*
X6076137Y10464800D01*
X6075273Y10474604D01*
X6072733Y10484053D01*
X6071666Y10486390D01*
X6070701Y10490657D01*
X6070701Y10654842D01*
X6071666Y10659110D01*
X6072733Y10661446D01*
X6075273Y10670895D01*
X6076137Y10680700D01*
X6075273Y10690504D01*
X6072733Y10699953D01*
X6071666Y10702290D01*
X6070701Y10706557D01*
X6070701Y11141608D01*
X6071666Y11145875D01*
X6072733Y11148212D01*
X6075273Y11157712D01*
X6076137Y11167465D01*
X6075273Y11177270D01*
X6072733Y11186769D01*
X6068618Y11195659D01*
X6062980Y11203736D01*
X6056020Y11210645D01*
X6047994Y11216284D01*
X6039053Y11220450D01*
X6029604Y11222990D01*
X6019800Y11223853D01*
X6009995Y11222990D01*
X6000546Y11220450D01*
X5991606Y11216284D01*
X5983579Y11210645D01*
X5976620Y11203736D01*
X5970981Y11195659D01*
X5966866Y11186769D01*
X5964326Y11177270D01*
X5963462Y11167465D01*
X5964326Y11157712D01*
X5966866Y11148212D01*
X5967933Y11145875D01*
X5968898Y11141608D01*
X5968898Y10830661D01*
X5968136Y10826800D01*
X5965901Y10823498D01*
X5962599Y10821263D01*
X5958738Y10820501D01*
X5916117Y10820501D01*
X5912053Y10821365D01*
X5908649Y10823752D01*
X5906516Y10827258D01*
X5905957Y10831372D01*
X5907074Y10835335D01*
X5912459Y10845698D01*
X5916828Y10858042D01*
X5919520Y10871200D01*
X5837224Y10871200D01*
X5837224Y10830661D01*
X5836412Y10826800D01*
X5834227Y10823498D01*
X5830925Y10821263D01*
X5827064Y10820501D01*
X5821984Y10820501D01*
X5818073Y10821263D01*
X5814771Y10823498D01*
X5812586Y10826800D01*
X5811824Y10830661D01*
X5811824Y10871200D01*
X5730392Y10871200D01*
X5726480Y10871962D01*
X5723229Y10874197D01*
X5720994Y10877448D01*
X5720232Y10881360D01*
X5720232Y10886440D01*
X5720994Y10890351D01*
X5723229Y10893602D01*
X5726480Y10895838D01*
X5730392Y10896600D01*
X5811824Y10896600D01*
X5811824Y10978692D01*
X5804966Y10977778D01*
X5792368Y10974222D01*
X5780379Y10969040D01*
X5769203Y10962233D01*
X5759043Y10953953D01*
X5750102Y10944402D01*
X5742584Y10933734D01*
X5736539Y10922101D01*
X5734050Y10915142D01*
X5731916Y10911586D01*
X5728563Y10909198D01*
X5724499Y10908385D01*
X5720435Y10909198D01*
X5717082Y10911586D01*
X5714949Y10915142D01*
X5712460Y10922101D01*
X5706414Y10933734D01*
X5698896Y10944402D01*
X5689955Y10953953D01*
X5679795Y10962233D01*
X5668619Y10969040D01*
X5656630Y10974222D01*
X5644032Y10977778D01*
X5631027Y10979556D01*
X5617972Y10979556D01*
X5604967Y10977778D01*
X5595264Y10975035D01*
X5591708Y10974730D01*
X5588254Y10975594D01*
X5585358Y10977676D01*
X5566105Y10996930D01*
X5563870Y11000232D01*
X5563108Y11004092D01*
X5563108Y11122507D01*
X5563870Y11126368D01*
X5566105Y11129670D01*
X5567680Y11131245D01*
X5573318Y11139322D01*
X5577433Y11148212D01*
X5579973Y11157712D01*
X5580837Y11167465D01*
X5579973Y11177270D01*
X5577433Y11186769D01*
X5573318Y11195659D01*
X5567680Y11203736D01*
X5560720Y11210645D01*
X5552694Y11216284D01*
X5543753Y11220450D01*
X5534304Y11222990D01*
X5524500Y11223853D01*
X5514695Y11222990D01*
X5505246Y11220450D01*
X5496306Y11216284D01*
X5488279Y11210645D01*
X5481320Y11203736D01*
X5475681Y11195659D01*
X5471566Y11186769D01*
X5469026Y11177270D01*
X5468162Y11167465D01*
X5469026Y11157712D01*
X5471566Y11148212D01*
X5475681Y11139322D01*
X5481320Y11131245D01*
X5482894Y11129670D01*
X5485130Y11126368D01*
X5485892Y11122507D01*
X5485892Y10984382D01*
X5486603Y10977118D01*
X5486044Y10972698D01*
X5483656Y10968939D01*
X5479897Y10966551D01*
X5475427Y10966043D01*
X5471210Y10967466D01*
X5468620Y10969040D01*
X5456631Y10974222D01*
X5444032Y10977778D01*
X5431028Y10979556D01*
X5417972Y10979556D01*
X5404967Y10977778D01*
X5395214Y10975035D01*
X5391658Y10974679D01*
X5388203Y10975594D01*
X5385308Y10977626D01*
X5325059Y11037824D01*
X5318861Y11042954D01*
X5312206Y11046510D01*
X5304942Y11048695D01*
X5296916Y11049508D01*
X4915408Y11049508D01*
X4907381Y11048695D01*
X4900168Y11046510D01*
X4893462Y11042954D01*
X4887264Y11037824D01*
X4849876Y11000435D01*
X4844745Y10994237D01*
X4841189Y10987532D01*
X4839004Y10980318D01*
X4838192Y10972292D01*
X4838192Y4280408D01*
X4839004Y4272381D01*
X4841189Y4265168D01*
X4844745Y4258462D01*
X4849876Y4252264D01*
X5300268Y3801821D01*
X5302300Y3798925D01*
X5303215Y3795522D01*
X5303926Y3787495D01*
X5306466Y3778046D01*
X5310581Y3769106D01*
X5316220Y3761079D01*
X5323179Y3754120D01*
X5331206Y3748481D01*
X5340146Y3744366D01*
X5349595Y3741826D01*
G37*
G36*
X8547100Y10999317D02*
G01*
X8562238Y11000232D01*
X8577224Y11002975D01*
X8591702Y11007496D01*
X8605570Y11013744D01*
X8618575Y11021618D01*
X8630564Y11030966D01*
X8641283Y11041735D01*
X8650681Y11053673D01*
X8658555Y11066678D01*
X8664803Y11080546D01*
X8669324Y11095075D01*
X8672068Y11110010D01*
X8672982Y11125200D01*
X8672068Y11140389D01*
X8669324Y11155324D01*
X8664803Y11169853D01*
X8658555Y11183721D01*
X8650681Y11196726D01*
X8641283Y11208664D01*
X8630564Y11219434D01*
X8618575Y11228781D01*
X8605570Y11236655D01*
X8591702Y11242903D01*
X8577224Y11247424D01*
X8562238Y11250168D01*
X8547100Y11251082D01*
X8531910Y11250168D01*
X8516924Y11247424D01*
X8502446Y11242903D01*
X8488578Y11236655D01*
X8475573Y11228781D01*
X8463584Y11219434D01*
X8452866Y11208664D01*
X8443468Y11196726D01*
X8435594Y11183721D01*
X8429345Y11169853D01*
X8424824Y11155324D01*
X8422081Y11140389D01*
X8421166Y11125200D01*
X8422081Y11110010D01*
X8424824Y11095075D01*
X8429345Y11080546D01*
X8435594Y11066678D01*
X8443468Y11053673D01*
X8452866Y11041735D01*
X8463584Y11030966D01*
X8475573Y11021618D01*
X8488578Y11013744D01*
X8502446Y11007496D01*
X8516924Y11002975D01*
X8531910Y11000232D01*
G37*
G36*
X7754924Y10896600D02*
G01*
X7837220Y10896600D01*
X7834528Y10909757D01*
X7830159Y10922101D01*
X7824114Y10933734D01*
X7816596Y10944402D01*
X7807655Y10953953D01*
X7797495Y10962233D01*
X7786319Y10969040D01*
X7774330Y10974222D01*
X7761731Y10977778D01*
X7754924Y10978692D01*
G37*
G36*
X3932174Y10896600D02*
G01*
X4014520Y10896600D01*
X4011828Y10909757D01*
X4007459Y10922101D01*
X4001414Y10933734D01*
X3993896Y10944402D01*
X3984955Y10953953D01*
X3974795Y10962233D01*
X3963619Y10969040D01*
X3951630Y10974222D01*
X3939032Y10977778D01*
X3932174Y10978692D01*
G37*
G36*
X2014474Y10896600D02*
G01*
X2096820Y10896600D01*
X2094128Y10909757D01*
X2089759Y10922101D01*
X2083714Y10933734D01*
X2076196Y10944402D01*
X2067255Y10953953D01*
X2057095Y10962233D01*
X2045919Y10969040D01*
X2033930Y10974222D01*
X2021332Y10977778D01*
X2014474Y10978692D01*
G37*
G36*
X5837224Y10896600D02*
G01*
X5919520Y10896600D01*
X5916828Y10909757D01*
X5912459Y10922101D01*
X5906414Y10933734D01*
X5898896Y10944402D01*
X5889955Y10953953D01*
X5879795Y10962233D01*
X5868619Y10969040D01*
X5856630Y10974222D01*
X5844032Y10977778D01*
X5837224Y10978692D01*
G37*
G36*
X5148884Y10787989D02*
G01*
X5211826Y10787989D01*
X5211826Y10871200D01*
X5122418Y10871200D01*
X5122418Y10814456D01*
X5123129Y10808157D01*
X5125008Y10802670D01*
X5128107Y10797794D01*
X5132171Y10793679D01*
X5137099Y10790631D01*
X5142534Y10788700D01*
G37*
G36*
X3243884Y10787989D02*
G01*
X3306826Y10787989D01*
X3306826Y10871200D01*
X3217418Y10871200D01*
X3217418Y10814456D01*
X3218129Y10808157D01*
X3220008Y10802670D01*
X3223107Y10797794D01*
X3227171Y10793679D01*
X3232099Y10790631D01*
X3237534Y10788700D01*
G37*
G36*
X7066584Y10787989D02*
G01*
X7129525Y10787989D01*
X7129525Y10871200D01*
X7040118Y10871200D01*
X7040118Y10814456D01*
X7040829Y10808157D01*
X7042708Y10802670D01*
X7045807Y10797794D01*
X7049871Y10793679D01*
X7054799Y10790631D01*
X7060234Y10788700D01*
G37*
G36*
X1326184Y10787989D02*
G01*
X1389126Y10787989D01*
X1389126Y10871200D01*
X1299718Y10871200D01*
X1299718Y10814456D01*
X1300429Y10808157D01*
X1302308Y10802670D01*
X1305407Y10797794D01*
X1309471Y10793679D01*
X1314399Y10790631D01*
X1319834Y10788700D01*
G37*

%LPD*%
D10*
X4114800Y3873500D02*
G01*
X3568700Y3873500D01*
X3111500Y4330700D01*
X3111500Y10685015D01*
X3519426Y10883900D02*
G01*
X3392426Y11010900D01*
X3009900Y11010900D01*
X2971800Y10972800D01*
X2971800Y10198100D01*
X2971800Y10198100D02*
G01*
X2971800Y4279900D01*
X3454400Y3797300D01*
X3719499Y10883900D02*
G01*
X3619500Y10983899D01*
X3619500Y11167485D01*
D11*
X4114800Y10769600D02*
G01*
X4114800Y11167615D01*
X4114787Y10680700D02*
G01*
X4114787Y10769600D01*
X3833799Y10769600D01*
X3719499Y10883900D01*
X3619500Y10684885D02*
G01*
X3619500Y10783900D01*
X3719499Y10883900D01*
X4114787Y10464800D02*
G01*
X4114787Y10680700D01*
X4114787Y10248900D02*
G01*
X4114787Y10464800D01*
X4114787Y10033000D02*
G01*
X4114787Y10248900D01*
X4114787Y9817100D02*
G01*
X4114787Y10033000D01*
X4114787Y9601200D02*
G01*
X4114787Y9817100D01*
X4114800Y9169400D02*
G01*
X4114800Y9385300D01*
X4114787Y9385300D02*
G01*
X4114787Y9601200D01*
X4114787Y8953500D02*
G01*
X4114787Y9169400D01*
X4114800Y6146794D02*
G01*
X4114800Y6362694D01*
X4114800Y5930894D02*
G01*
X4114800Y6146794D01*
X4114787Y6362700D02*
G01*
X4114787Y6578600D01*
X4114787Y6578600D02*
G01*
X4114787Y6794500D01*
X4114787Y6794500D02*
G01*
X4114787Y7010400D01*
X4114787Y7010400D02*
G01*
X4114787Y7226300D01*
X4114787Y7226300D02*
G01*
X4114787Y7442200D01*
X4114787Y7442200D02*
G01*
X4114787Y7658100D01*
X4114787Y7658100D02*
G01*
X4114787Y7874000D01*
X4114787Y7874000D02*
G01*
X4114787Y8089900D01*
X4114787Y8089900D02*
G01*
X4114787Y8305800D01*
X4114787Y8305800D02*
G01*
X4114787Y8521700D01*
X4114787Y8521700D02*
G01*
X4114787Y8737600D01*
X4114787Y8737600D02*
G01*
X4114787Y8953500D01*
X4114800Y3987805D02*
G01*
X4114800Y4203705D01*
X4114800Y4203705D02*
G01*
X4114800Y4419605D01*
X4114800Y4419605D02*
G01*
X4114800Y4635505D01*
X4114800Y4635494D02*
G01*
X4114800Y4851394D01*
X4114800Y4851394D02*
G01*
X4114800Y5067294D01*
X4114800Y5067294D02*
G01*
X4114800Y5283194D01*
X4114800Y5283194D02*
G01*
X4114800Y5499094D01*
X4114800Y5499094D02*
G01*
X4114800Y5714994D01*
X4114800Y5714994D02*
G01*
X4114800Y5930894D01*
X3619500Y10468985D02*
G01*
X3619500Y10684885D01*
X3619500Y10253085D02*
G01*
X3619500Y10468985D01*
X3619500Y10037180D02*
G01*
X3619500Y10253080D01*
X3619500Y9821280D02*
G01*
X3619500Y10037180D01*
X3619500Y6798685D02*
G01*
X3619500Y7014585D01*
X3619500Y7014585D02*
G01*
X3619500Y7230485D01*
X3619500Y6582780D02*
G01*
X3619500Y6798680D01*
X3619500Y7230485D02*
G01*
X3619500Y7446385D01*
X3619500Y7446385D02*
G01*
X3619500Y7662285D01*
X3619500Y7662285D02*
G01*
X3619500Y7878185D01*
X3619500Y7878185D02*
G01*
X3619500Y8094085D01*
X3619500Y8094085D02*
G01*
X3619500Y8309985D01*
X3619500Y8309985D02*
G01*
X3619500Y8525885D01*
X3619500Y8525880D02*
G01*
X3619500Y8741780D01*
X3619500Y8741780D02*
G01*
X3619500Y8957680D01*
X3619500Y8957680D02*
G01*
X3619500Y9173580D01*
X3619500Y9173580D02*
G01*
X3619500Y9389480D01*
X3619500Y9389480D02*
G01*
X3619500Y9605380D01*
X3619500Y9605380D02*
G01*
X3619500Y9821280D01*
X3619500Y3991985D02*
G01*
X3619500Y4207885D01*
X3619500Y4207885D02*
G01*
X3619500Y4423785D01*
X3619500Y4423785D02*
G01*
X3619500Y4639685D01*
X3619500Y4639685D02*
G01*
X3619500Y4855585D01*
X3619500Y4855585D02*
G01*
X3619500Y5071485D01*
X3619500Y5071485D02*
G01*
X3619500Y5287385D01*
X3619500Y5287380D02*
G01*
X3619500Y5503280D01*
X3619500Y5503280D02*
G01*
X3619500Y5719180D01*
X3619500Y5719180D02*
G01*
X3619500Y5935080D01*
X3619500Y5935080D02*
G01*
X3619500Y6150980D01*
X3619500Y6150980D02*
G01*
X3619500Y6366880D01*
X3619500Y6366880D02*
G01*
X3619500Y6582780D01*
D10*
X6019800Y3873500D02*
G01*
X5473700Y3873500D01*
X5016500Y4330700D01*
X5016500Y10685015D01*
X5424426Y10883900D02*
G01*
X5297426Y11010900D01*
X4914900Y11010900D01*
X4876800Y10972800D01*
X4876800Y10198100D01*
X4876800Y10198100D02*
G01*
X4876800Y4279900D01*
X5359400Y3797300D01*
X5624499Y10883900D02*
G01*
X5524500Y10983899D01*
X5524500Y11167485D01*
D11*
X6019800Y10769600D02*
G01*
X6019800Y11167615D01*
X6019787Y10680700D02*
G01*
X6019787Y10769600D01*
X5738799Y10769600D01*
X5624499Y10883900D01*
X5524500Y10684885D02*
G01*
X5524500Y10783900D01*
X5624499Y10883900D01*
X6019787Y10464800D02*
G01*
X6019787Y10680700D01*
X6019787Y10248900D02*
G01*
X6019787Y10464800D01*
X6019787Y10033000D02*
G01*
X6019787Y10248900D01*
X6019787Y9817100D02*
G01*
X6019787Y10033000D01*
X6019787Y9601200D02*
G01*
X6019787Y9817100D01*
X6019800Y9169400D02*
G01*
X6019800Y9385300D01*
X6019787Y9385300D02*
G01*
X6019787Y9601200D01*
X6019787Y8953500D02*
G01*
X6019787Y9169400D01*
X6019800Y6146794D02*
G01*
X6019800Y6362694D01*
X6019800Y5930894D02*
G01*
X6019800Y6146794D01*
X6019787Y6362700D02*
G01*
X6019787Y6578600D01*
X6019787Y6578600D02*
G01*
X6019787Y6794500D01*
X6019787Y6794500D02*
G01*
X6019787Y7010400D01*
X6019787Y7010400D02*
G01*
X6019787Y7226300D01*
X6019787Y7226300D02*
G01*
X6019787Y7442200D01*
X6019787Y7442200D02*
G01*
X6019787Y7658100D01*
X6019787Y7658100D02*
G01*
X6019787Y7874000D01*
X6019787Y7874000D02*
G01*
X6019787Y8089900D01*
X6019787Y8089900D02*
G01*
X6019787Y8305800D01*
X6019787Y8305800D02*
G01*
X6019787Y8521700D01*
X6019787Y8521700D02*
G01*
X6019787Y8737600D01*
X6019787Y8737600D02*
G01*
X6019787Y8953500D01*
X6019800Y3987805D02*
G01*
X6019800Y4203705D01*
X6019800Y4203705D02*
G01*
X6019800Y4419605D01*
X6019800Y4419605D02*
G01*
X6019800Y4635505D01*
X6019800Y4635494D02*
G01*
X6019800Y4851394D01*
X6019800Y4851394D02*
G01*
X6019800Y5067294D01*
X6019800Y5067294D02*
G01*
X6019800Y5283194D01*
X6019800Y5283194D02*
G01*
X6019800Y5499094D01*
X6019800Y5499094D02*
G01*
X6019800Y5714994D01*
X6019800Y5714994D02*
G01*
X6019800Y5930894D01*
X5524500Y10468985D02*
G01*
X5524500Y10684885D01*
X5524500Y10253085D02*
G01*
X5524500Y10468985D01*
X5524500Y10037180D02*
G01*
X5524500Y10253080D01*
X5524500Y9821280D02*
G01*
X5524500Y10037180D01*
X5524500Y6798685D02*
G01*
X5524500Y7014585D01*
X5524500Y7014585D02*
G01*
X5524500Y7230485D01*
X5524500Y6582780D02*
G01*
X5524500Y6798680D01*
X5524500Y7230485D02*
G01*
X5524500Y7446385D01*
X5524500Y7446385D02*
G01*
X5524500Y7662285D01*
X5524500Y7662285D02*
G01*
X5524500Y7878185D01*
X5524500Y7878185D02*
G01*
X5524500Y8094085D01*
X5524500Y8094085D02*
G01*
X5524500Y8309985D01*
X5524500Y8309985D02*
G01*
X5524500Y8525885D01*
X5524500Y8525880D02*
G01*
X5524500Y8741780D01*
X5524500Y8741780D02*
G01*
X5524500Y8957680D01*
X5524500Y8957680D02*
G01*
X5524500Y9173580D01*
X5524500Y9173580D02*
G01*
X5524500Y9389480D01*
X5524500Y9389480D02*
G01*
X5524500Y9605380D01*
X5524500Y9605380D02*
G01*
X5524500Y9821280D01*
X5524500Y3991985D02*
G01*
X5524500Y4207885D01*
X5524500Y4207885D02*
G01*
X5524500Y4423785D01*
X5524500Y4423785D02*
G01*
X5524500Y4639685D01*
X5524500Y4639685D02*
G01*
X5524500Y4855585D01*
X5524500Y4855585D02*
G01*
X5524500Y5071485D01*
X5524500Y5071485D02*
G01*
X5524500Y5287385D01*
X5524500Y5287380D02*
G01*
X5524500Y5503280D01*
X5524500Y5503280D02*
G01*
X5524500Y5719180D01*
X5524500Y5719180D02*
G01*
X5524500Y5935080D01*
X5524500Y5935080D02*
G01*
X5524500Y6150980D01*
X5524500Y6150980D02*
G01*
X5524500Y6366880D01*
X5524500Y6366880D02*
G01*
X5524500Y6582780D01*
D10*
X7937500Y3873500D02*
G01*
X7391400Y3873500D01*
X6934200Y4330700D01*
X6934200Y10685015D01*
X7342126Y10883900D02*
G01*
X7215126Y11010900D01*
X6832600Y11010900D01*
X6794500Y10972800D01*
X6794500Y10198100D01*
X6794500Y10198100D02*
G01*
X6794500Y4279900D01*
X7277100Y3797300D01*
X7542199Y10883900D02*
G01*
X7442200Y10983899D01*
X7442200Y11167485D01*
D11*
X7937500Y10769600D02*
G01*
X7937500Y11167615D01*
X7937487Y10680700D02*
G01*
X7937487Y10769600D01*
X7656499Y10769600D01*
X7542199Y10883900D01*
X7442200Y10684885D02*
G01*
X7442200Y10783900D01*
X7542199Y10883900D01*
X7937487Y10464800D02*
G01*
X7937487Y10680700D01*
X7937487Y10248900D02*
G01*
X7937487Y10464800D01*
X7937487Y10033000D02*
G01*
X7937487Y10248900D01*
X7937487Y9817100D02*
G01*
X7937487Y10033000D01*
X7937487Y9601200D02*
G01*
X7937487Y9817100D01*
X7937500Y9169400D02*
G01*
X7937500Y9385300D01*
X7937487Y9385300D02*
G01*
X7937487Y9601200D01*
X7937487Y8953500D02*
G01*
X7937487Y9169400D01*
X7937500Y6146794D02*
G01*
X7937500Y6362694D01*
X7937500Y5930894D02*
G01*
X7937500Y6146794D01*
X7937487Y6362700D02*
G01*
X7937487Y6578600D01*
X7937487Y6578600D02*
G01*
X7937487Y6794500D01*
X7937487Y6794500D02*
G01*
X7937487Y7010400D01*
X7937487Y7010400D02*
G01*
X7937487Y7226300D01*
X7937487Y7226300D02*
G01*
X7937487Y7442200D01*
X7937487Y7442200D02*
G01*
X7937487Y7658100D01*
X7937487Y7658100D02*
G01*
X7937487Y7874000D01*
X7937487Y7874000D02*
G01*
X7937487Y8089900D01*
X7937487Y8089900D02*
G01*
X7937487Y8305800D01*
X7937487Y8305800D02*
G01*
X7937487Y8521700D01*
X7937487Y8521700D02*
G01*
X7937487Y8737600D01*
X7937487Y8737600D02*
G01*
X7937487Y8953500D01*
X7937500Y3987805D02*
G01*
X7937500Y4203705D01*
X7937500Y4203705D02*
G01*
X7937500Y4419605D01*
X7937500Y4419605D02*
G01*
X7937500Y4635505D01*
X7937500Y4635494D02*
G01*
X7937500Y4851394D01*
X7937500Y4851394D02*
G01*
X7937500Y5067294D01*
X7937500Y5067294D02*
G01*
X7937500Y5283194D01*
X7937500Y5283194D02*
G01*
X7937500Y5499094D01*
X7937500Y5499094D02*
G01*
X7937500Y5714994D01*
X7937500Y5714994D02*
G01*
X7937500Y5930894D01*
X7442200Y10468985D02*
G01*
X7442200Y10684885D01*
X7442200Y10253085D02*
G01*
X7442200Y10468985D01*
X7442200Y10037180D02*
G01*
X7442200Y10253080D01*
X7442200Y9821280D02*
G01*
X7442200Y10037180D01*
X7442200Y6798685D02*
G01*
X7442200Y7014585D01*
X7442200Y7014585D02*
G01*
X7442200Y7230485D01*
X7442200Y6582780D02*
G01*
X7442200Y6798680D01*
X7442200Y7230485D02*
G01*
X7442200Y7446385D01*
X7442200Y7446385D02*
G01*
X7442200Y7662285D01*
X7442200Y7662285D02*
G01*
X7442200Y7878185D01*
X7442200Y7878185D02*
G01*
X7442200Y8094085D01*
X7442200Y8094085D02*
G01*
X7442200Y8309985D01*
X7442200Y8309985D02*
G01*
X7442200Y8525885D01*
X7442200Y8525880D02*
G01*
X7442200Y8741780D01*
X7442200Y8741780D02*
G01*
X7442200Y8957680D01*
X7442200Y8957680D02*
G01*
X7442200Y9173580D01*
X7442200Y9173580D02*
G01*
X7442200Y9389480D01*
X7442200Y9389480D02*
G01*
X7442200Y9605380D01*
X7442200Y9605380D02*
G01*
X7442200Y9821280D01*
X7442200Y3991985D02*
G01*
X7442200Y4207885D01*
X7442200Y4207885D02*
G01*
X7442200Y4423785D01*
X7442200Y4423785D02*
G01*
X7442200Y4639685D01*
X7442200Y4639685D02*
G01*
X7442200Y4855585D01*
X7442200Y4855585D02*
G01*
X7442200Y5071485D01*
X7442200Y5071485D02*
G01*
X7442200Y5287385D01*
X7442200Y5287380D02*
G01*
X7442200Y5503280D01*
X7442200Y5503280D02*
G01*
X7442200Y5719180D01*
X7442200Y5719180D02*
G01*
X7442200Y5935080D01*
X7442200Y5935080D02*
G01*
X7442200Y6150980D01*
X7442200Y6150980D02*
G01*
X7442200Y6366880D01*
X7442200Y6366880D02*
G01*
X7442200Y6582780D01*
D10*
X2197100Y3873500D02*
G01*
X1651000Y3873500D01*
X1193800Y4330700D01*
X1193800Y10685015D01*
X1601726Y10883900D02*
G01*
X1474726Y11010900D01*
X1092200Y11010900D01*
X1054100Y10972800D01*
X1054100Y10198100D01*
X1054100Y10198100D02*
G01*
X1054100Y4279900D01*
X1536700Y3797300D01*
X1801799Y10883900D02*
G01*
X1701800Y10983899D01*
X1701800Y11167485D01*
D11*
X2197100Y10769600D02*
G01*
X2197100Y11167615D01*
X2197087Y10680700D02*
G01*
X2197087Y10769600D01*
X1916099Y10769600D01*
X1801799Y10883900D01*
X1701800Y10684885D02*
G01*
X1701800Y10783900D01*
X1801799Y10883900D01*
X2197087Y10464800D02*
G01*
X2197087Y10680700D01*
X2197087Y10248900D02*
G01*
X2197087Y10464800D01*
X2197087Y10033000D02*
G01*
X2197087Y10248900D01*
X2197087Y9817100D02*
G01*
X2197087Y10033000D01*
X2197087Y9601200D02*
G01*
X2197087Y9817100D01*
X2197100Y9169400D02*
G01*
X2197100Y9385300D01*
X2197087Y9385300D02*
G01*
X2197087Y9601200D01*
X2197087Y8953500D02*
G01*
X2197087Y9169400D01*
X2197100Y6146794D02*
G01*
X2197100Y6362694D01*
X2197100Y5930894D02*
G01*
X2197100Y6146794D01*
X2197087Y6362700D02*
G01*
X2197087Y6578600D01*
X2197087Y6578600D02*
G01*
X2197087Y6794500D01*
X2197087Y6794500D02*
G01*
X2197087Y7010400D01*
X2197087Y7010400D02*
G01*
X2197087Y7226300D01*
X2197087Y7226300D02*
G01*
X2197087Y7442200D01*
X2197087Y7442200D02*
G01*
X2197087Y7658100D01*
X2197087Y7658100D02*
G01*
X2197087Y7874000D01*
X2197087Y7874000D02*
G01*
X2197087Y8089900D01*
X2197087Y8089900D02*
G01*
X2197087Y8305800D01*
X2197087Y8305800D02*
G01*
X2197087Y8521700D01*
X2197087Y8521700D02*
G01*
X2197087Y8737600D01*
X2197087Y8737600D02*
G01*
X2197087Y8953500D01*
X2197100Y3987805D02*
G01*
X2197100Y4203705D01*
X2197100Y4203705D02*
G01*
X2197100Y4419605D01*
X2197100Y4419605D02*
G01*
X2197100Y4635505D01*
X2197100Y4635494D02*
G01*
X2197100Y4851394D01*
X2197100Y4851394D02*
G01*
X2197100Y5067294D01*
X2197100Y5067294D02*
G01*
X2197100Y5283194D01*
X2197100Y5283194D02*
G01*
X2197100Y5499094D01*
X2197100Y5499094D02*
G01*
X2197100Y5714994D01*
X2197100Y5714994D02*
G01*
X2197100Y5930894D01*
X1701800Y10468985D02*
G01*
X1701800Y10684885D01*
X1701800Y10253085D02*
G01*
X1701800Y10468985D01*
X1701800Y10037180D02*
G01*
X1701800Y10253080D01*
X1701800Y9821280D02*
G01*
X1701800Y10037180D01*
X1701800Y6798685D02*
G01*
X1701800Y7014585D01*
X1701800Y7014585D02*
G01*
X1701800Y7230485D01*
X1701800Y6582780D02*
G01*
X1701800Y6798680D01*
X1701800Y7230485D02*
G01*
X1701800Y7446385D01*
X1701800Y7446385D02*
G01*
X1701800Y7662285D01*
X1701800Y7662285D02*
G01*
X1701800Y7878185D01*
X1701800Y7878185D02*
G01*
X1701800Y8094085D01*
X1701800Y8094085D02*
G01*
X1701800Y8309985D01*
X1701800Y8309985D02*
G01*
X1701800Y8525885D01*
X1701800Y8525880D02*
G01*
X1701800Y8741780D01*
X1701800Y8741780D02*
G01*
X1701800Y8957680D01*
X1701800Y8957680D02*
G01*
X1701800Y9173580D01*
X1701800Y9173580D02*
G01*
X1701800Y9389480D01*
X1701800Y9389480D02*
G01*
X1701800Y9605380D01*
X1701800Y9605380D02*
G01*
X1701800Y9821280D01*
X1701800Y3991985D02*
G01*
X1701800Y4207885D01*
X1701800Y4207885D02*
G01*
X1701800Y4423785D01*
X1701800Y4423785D02*
G01*
X1701800Y4639685D01*
X1701800Y4639685D02*
G01*
X1701800Y4855585D01*
X1701800Y4855585D02*
G01*
X1701800Y5071485D01*
X1701800Y5071485D02*
G01*
X1701800Y5287385D01*
X1701800Y5287380D02*
G01*
X1701800Y5503280D01*
X1701800Y5503280D02*
G01*
X1701800Y5719180D01*
X1701800Y5719180D02*
G01*
X1701800Y5935080D01*
X1701800Y5935080D02*
G01*
X1701800Y6150980D01*
X1701800Y6150980D02*
G01*
X1701800Y6366880D01*
X1701800Y6366880D02*
G01*
X1701800Y6582780D01*
D12*
G01*
X3919499Y10883900D03*
G01*
X3719499Y10883900D03*
G01*
X3519500Y10883900D03*
D13*
G01*
X3319500Y10883900D03*
D12*
G01*
X5824499Y10883900D03*
G01*
X5624499Y10883900D03*
G01*
X5424500Y10883900D03*
D13*
G01*
X5224500Y10883900D03*
D12*
G01*
X7742199Y10883900D03*
G01*
X7542199Y10883900D03*
G01*
X7342200Y10883900D03*
D13*
G01*
X7142200Y10883900D03*
D12*
G01*
X2001799Y10883900D03*
G01*
X1801799Y10883900D03*
G01*
X1601800Y10883900D03*
D13*
G01*
X1401800Y10883900D03*
D14*
G01*
X3619500Y6798690D03*
G01*
X3619500Y3991990D03*
G01*
X3619500Y4207890D03*
G01*
X3619500Y4423790D03*
G01*
X3619500Y4639690D03*
G01*
X3619500Y4855590D03*
G01*
X3619500Y5071490D03*
G01*
X3619500Y5287390D03*
G01*
X3619500Y5503290D03*
G01*
X3619500Y5719190D03*
G01*
X3619500Y5935090D03*
G01*
X3619500Y6150990D03*
G01*
X3619500Y6366890D03*
G01*
X3619500Y6582790D03*
G01*
X3619500Y9821290D03*
G01*
X3619500Y9605390D03*
G01*
X3619500Y9389490D03*
G01*
X3619500Y9173590D03*
G01*
X3619500Y8957690D03*
G01*
X3619500Y8741790D03*
G01*
X3619500Y8525890D03*
G01*
X3619500Y8309990D03*
G01*
X3619500Y8094090D03*
G01*
X3619500Y7878190D03*
G01*
X3619500Y7662290D03*
G01*
X3619500Y7446390D03*
G01*
X3619500Y7230490D03*
G01*
X3619500Y10037190D03*
G01*
X3619500Y7014590D03*
G01*
X3619500Y10253090D03*
G01*
X3619500Y10468990D03*
G01*
X3619500Y10684890D03*
G01*
X4114800Y5930900D03*
G01*
X4114800Y5715000D03*
G01*
X4114800Y5499100D03*
G01*
X4114800Y5283200D03*
G01*
X4114800Y5067300D03*
G01*
X4114800Y4851400D03*
G01*
X4114800Y4635500D03*
G01*
X4114800Y4419600D03*
G01*
X4114800Y4203700D03*
G01*
X4114800Y3987800D03*
G01*
X4114800Y6146800D03*
G01*
X4114800Y8953500D03*
G01*
X4114800Y8737600D03*
G01*
X4114800Y8521700D03*
G01*
X4114800Y8305800D03*
G01*
X4114800Y8089900D03*
G01*
X4114800Y7874000D03*
G01*
X4114800Y7658100D03*
G01*
X4114800Y7442200D03*
G01*
X4114800Y7226300D03*
G01*
X4114800Y7010400D03*
G01*
X4114800Y6794500D03*
G01*
X4114800Y6578600D03*
G01*
X4114800Y6362700D03*
G01*
X4114800Y9169400D03*
G01*
X4114774Y9385300D03*
G01*
X4114774Y9601200D03*
G01*
X4114774Y9817100D03*
G01*
X4114774Y10033000D03*
G01*
X4114774Y10248900D03*
G01*
X4114774Y10464800D03*
G01*
X4114774Y10680700D03*
G01*
X3111500Y10684890D03*
G01*
X4114800Y3873500D03*
G01*
X4114800Y11167490D03*
G01*
X3619500Y11167490D03*
G01*
X5524500Y6798690D03*
G01*
X5524500Y3991990D03*
G01*
X5524500Y4207890D03*
G01*
X5524500Y4423790D03*
G01*
X5524500Y4639690D03*
G01*
X5524500Y4855590D03*
G01*
X5524500Y5071490D03*
G01*
X5524500Y5287390D03*
G01*
X5524500Y5503290D03*
G01*
X5524500Y5719190D03*
G01*
X5524500Y5935090D03*
G01*
X5524500Y6150990D03*
G01*
X5524500Y6366890D03*
G01*
X5524500Y6582790D03*
G01*
X5524500Y9821290D03*
G01*
X5524500Y9605390D03*
G01*
X5524500Y9389490D03*
G01*
X5524500Y9173590D03*
G01*
X5524500Y8957690D03*
G01*
X5524500Y8741790D03*
G01*
X5524500Y8525890D03*
G01*
X5524500Y8309990D03*
G01*
X5524500Y8094090D03*
G01*
X5524500Y7878190D03*
G01*
X5524500Y7662290D03*
G01*
X5524500Y7446390D03*
G01*
X5524500Y7230490D03*
G01*
X5524500Y10037190D03*
G01*
X5524500Y7014590D03*
G01*
X5524500Y10253090D03*
G01*
X5524500Y10468990D03*
G01*
X5524500Y10684890D03*
G01*
X6019800Y5930900D03*
G01*
X6019800Y5715000D03*
G01*
X6019800Y5499100D03*
G01*
X6019800Y5283200D03*
G01*
X6019800Y5067300D03*
G01*
X6019800Y4851400D03*
G01*
X6019800Y4635500D03*
G01*
X6019800Y4419600D03*
G01*
X6019800Y4203700D03*
G01*
X6019800Y3987800D03*
G01*
X6019800Y6146800D03*
G01*
X6019800Y8953500D03*
G01*
X6019800Y8737600D03*
G01*
X6019800Y8521700D03*
G01*
X6019800Y8305800D03*
G01*
X6019800Y8089900D03*
G01*
X6019800Y7874000D03*
G01*
X6019800Y7658100D03*
G01*
X6019800Y7442200D03*
G01*
X6019800Y7226300D03*
G01*
X6019800Y7010400D03*
G01*
X6019800Y6794500D03*
G01*
X6019800Y6578600D03*
G01*
X6019800Y6362700D03*
G01*
X6019800Y9169400D03*
G01*
X6019774Y9385300D03*
G01*
X6019774Y9601200D03*
G01*
X6019774Y9817100D03*
G01*
X6019774Y10033000D03*
G01*
X6019774Y10248900D03*
G01*
X6019774Y10464800D03*
G01*
X6019774Y10680700D03*
G01*
X5016500Y10684890D03*
G01*
X6019800Y3873500D03*
G01*
X6019800Y11167490D03*
G01*
X5524500Y11167490D03*
G01*
X7442200Y6798690D03*
G01*
X7442200Y3991990D03*
G01*
X7442200Y4207890D03*
G01*
X7442200Y4423790D03*
G01*
X7442200Y4639690D03*
G01*
X7442200Y4855590D03*
G01*
X7442200Y5071490D03*
G01*
X7442200Y5287390D03*
G01*
X7442200Y5503290D03*
G01*
X7442200Y5719190D03*
G01*
X7442200Y5935090D03*
G01*
X7442200Y6150990D03*
G01*
X7442200Y6366890D03*
G01*
X7442200Y6582790D03*
G01*
X7442200Y9821290D03*
G01*
X7442200Y9605390D03*
G01*
X7442200Y9389490D03*
G01*
X7442200Y9173590D03*
G01*
X7442200Y8957690D03*
G01*
X7442200Y8741790D03*
G01*
X7442200Y8525890D03*
G01*
X7442200Y8309990D03*
G01*
X7442200Y8094090D03*
G01*
X7442200Y7878190D03*
G01*
X7442200Y7662290D03*
G01*
X7442200Y7446390D03*
G01*
X7442200Y7230490D03*
G01*
X7442200Y10037190D03*
G01*
X7442200Y7014590D03*
G01*
X7442200Y10253090D03*
G01*
X7442200Y10468990D03*
G01*
X7442200Y10684890D03*
G01*
X7937500Y5930900D03*
G01*
X7937500Y5715000D03*
G01*
X7937500Y5499100D03*
G01*
X7937500Y5283200D03*
G01*
X7937500Y5067300D03*
G01*
X7937500Y4851400D03*
G01*
X7937500Y4635500D03*
G01*
X7937500Y4419600D03*
G01*
X7937500Y4203700D03*
G01*
X7937500Y3987800D03*
G01*
X7937500Y6146800D03*
G01*
X7937500Y8953500D03*
G01*
X7937500Y8737600D03*
G01*
X7937500Y8521700D03*
G01*
X7937500Y8305800D03*
G01*
X7937500Y8089900D03*
G01*
X7937500Y7874000D03*
G01*
X7937500Y7658100D03*
G01*
X7937500Y7442200D03*
G01*
X7937500Y7226300D03*
G01*
X7937500Y7010400D03*
G01*
X7937500Y6794500D03*
G01*
X7937500Y6578600D03*
G01*
X7937500Y6362700D03*
G01*
X7937500Y9169400D03*
G01*
X7937474Y9385300D03*
G01*
X7937474Y9601200D03*
G01*
X7937474Y9817100D03*
G01*
X7937474Y10033000D03*
G01*
X7937474Y10248900D03*
G01*
X7937474Y10464800D03*
G01*
X7937474Y10680700D03*
G01*
X6934200Y10684890D03*
G01*
X7937500Y3873500D03*
G01*
X7937500Y11167490D03*
G01*
X7442200Y11167490D03*
G01*
X1701800Y6798690D03*
G01*
X1701800Y3991990D03*
G01*
X1701800Y4207890D03*
G01*
X1701800Y4423790D03*
G01*
X1701800Y4639690D03*
G01*
X1701800Y4855590D03*
G01*
X1701800Y5071490D03*
G01*
X1701800Y5287390D03*
G01*
X1701800Y5503290D03*
G01*
X1701800Y5719190D03*
G01*
X1701800Y5935090D03*
G01*
X1701800Y6150990D03*
G01*
X1701800Y6366890D03*
G01*
X1701800Y6582790D03*
G01*
X1701800Y9821290D03*
G01*
X1701800Y9605390D03*
G01*
X1701800Y9389490D03*
G01*
X1701800Y9173590D03*
G01*
X1701800Y8957690D03*
G01*
X1701800Y8741790D03*
G01*
X1701800Y8525890D03*
G01*
X1701800Y8309990D03*
G01*
X1701800Y8094090D03*
G01*
X1701800Y7878190D03*
G01*
X1701800Y7662290D03*
G01*
X1701800Y7446390D03*
G01*
X1701800Y7230490D03*
G01*
X1701800Y10037190D03*
G01*
X1701800Y7014590D03*
G01*
X1701800Y10253090D03*
G01*
X1701800Y10468990D03*
G01*
X1701800Y10684890D03*
G01*
X2197100Y5930900D03*
G01*
X2197100Y5715000D03*
G01*
X2197100Y5499100D03*
G01*
X2197100Y5283200D03*
G01*
X2197100Y5067300D03*
G01*
X2197100Y4851400D03*
G01*
X2197100Y4635500D03*
G01*
X2197100Y4419600D03*
G01*
X2197100Y4203700D03*
G01*
X2197100Y3987800D03*
G01*
X2197100Y6146800D03*
G01*
X2197100Y8953500D03*
G01*
X2197100Y8737600D03*
G01*
X2197100Y8521700D03*
G01*
X2197100Y8305800D03*
G01*
X2197100Y8089900D03*
G01*
X2197100Y7874000D03*
G01*
X2197100Y7658100D03*
G01*
X2197100Y7442200D03*
G01*
X2197100Y7226300D03*
G01*
X2197100Y7010400D03*
G01*
X2197100Y6794500D03*
G01*
X2197100Y6578600D03*
G01*
X2197100Y6362700D03*
G01*
X2197100Y9169400D03*
G01*
X2197074Y9385300D03*
G01*
X2197074Y9601200D03*
G01*
X2197074Y9817100D03*
G01*
X2197074Y10033000D03*
G01*
X2197074Y10248900D03*
G01*
X2197074Y10464800D03*
G01*
X2197074Y10680700D03*
G01*
X1193800Y10684890D03*
G01*
X2197100Y3873500D03*
G01*
X2197100Y11167490D03*
G01*
X1701800Y11167490D03*
G01*
X1536700Y3797300D03*
G01*
X3454400Y3797300D03*
G01*
X5359400Y3797300D03*
G01*
X7277100Y3797300D03*
M02*
