G04 Layer: TopSolderMaskLayer*
G04 EasyEDA v6.5.29, 2023-07-18 10:38:40*
G04 9c3e5ffd6bc94b6ca845c2a892670007,5a6b42c53f6a479593ecc07194224c93,10*
G04 Gerber Generator version 0.2*
G04 Scale: 100 percent, Rotated: No, Reflected: No *
G04 Dimensions in millimeters *
G04 leading zeros omitted , absolute positions ,4 integer and 5 decimal *
%FSLAX45Y45*%
%MOMM*%

%AMMACRO1*1,1,$1,$2,$3*1,1,$1,$4,$5*1,1,$1,0-$2,0-$3*1,1,$1,0-$4,0-$5*20,1,$1,$2,$3,$4,$5,0*20,1,$1,$4,$5,0-$2,0-$3,0*20,1,$1,0-$2,0-$3,0-$4,0-$5,0*20,1,$1,0-$4,0-$5,$2,$3,0*4,1,4,$2,$3,$4,$5,0-$2,0-$3,0-$4,0-$5,$2,$3,0*%
%ADD10C,1.5016*%
%ADD11MACRO1,0.1016X-0.762X-0.7X0.762X-0.7*%
%ADD12MACRO1,0.1016X-0.45X0.35X0.45X0.35*%

%LPD*%
D10*
G01*
X3919499Y10883900D03*
G01*
X3719499Y10883900D03*
G01*
X3519500Y10883900D03*
D11*
G01*
X3319500Y10883900D03*
D10*
G01*
X5824499Y10883900D03*
G01*
X5624499Y10883900D03*
G01*
X5424500Y10883900D03*
D11*
G01*
X5224500Y10883900D03*
D10*
G01*
X7742199Y10883900D03*
G01*
X7542199Y10883900D03*
G01*
X7342200Y10883900D03*
D11*
G01*
X7142200Y10883900D03*
D10*
G01*
X2001799Y10883900D03*
G01*
X1801799Y10883900D03*
G01*
X1601800Y10883900D03*
D11*
G01*
X1401800Y10883900D03*
D12*
G01*
X3457006Y3991998D03*
G01*
X3273997Y3991996D03*
G01*
X3273999Y3881991D03*
G01*
X3457006Y3881991D03*
G01*
X3457006Y6798693D03*
G01*
X3273997Y6798690D03*
G01*
X3273999Y6688686D03*
G01*
X3457006Y6688686D03*
G01*
X3457006Y6582793D03*
G01*
X3273997Y6582790D03*
G01*
X3273999Y6472786D03*
G01*
X3457006Y6472786D03*
G01*
X3457006Y6366896D03*
G01*
X3273997Y6366893D03*
G01*
X3273999Y6256888D03*
G01*
X3457006Y6256888D03*
G01*
X3457006Y6150996D03*
G01*
X3273997Y6150993D03*
G01*
X3273999Y6040988D03*
G01*
X3457006Y6040988D03*
G01*
X3457006Y5935096D03*
G01*
X3273997Y5935093D03*
G01*
X3273999Y5825088D03*
G01*
X3457006Y5825088D03*
G01*
X3457006Y5719196D03*
G01*
X3273997Y5719193D03*
G01*
X3273999Y5609188D03*
G01*
X3457006Y5609188D03*
G01*
X3457006Y5503296D03*
G01*
X3273997Y5503293D03*
G01*
X3273999Y5393288D03*
G01*
X3457006Y5393288D03*
G01*
X3457006Y5287396D03*
G01*
X3273997Y5287393D03*
G01*
X3273999Y5177388D03*
G01*
X3457006Y5177388D03*
G01*
X3457006Y5071498D03*
G01*
X3273997Y5071496D03*
G01*
X3273999Y4961491D03*
G01*
X3457006Y4961491D03*
G01*
X3457006Y4855598D03*
G01*
X3273997Y4855596D03*
G01*
X3273999Y4745591D03*
G01*
X3457006Y4745591D03*
G01*
X3457006Y4639698D03*
G01*
X3273997Y4639696D03*
G01*
X3273999Y4529691D03*
G01*
X3457006Y4529691D03*
G01*
X3457006Y4423798D03*
G01*
X3273997Y4423796D03*
G01*
X3273999Y4313791D03*
G01*
X3457006Y4313791D03*
G01*
X3457006Y4207898D03*
G01*
X3273997Y4207896D03*
G01*
X3273999Y4097891D03*
G01*
X3457006Y4097891D03*
G01*
X3457006Y7014601D03*
G01*
X3273997Y7014598D03*
G01*
X3273999Y6904593D03*
G01*
X3457006Y6904593D03*
G01*
X3457006Y7230498D03*
G01*
X3273997Y7230496D03*
G01*
X3273999Y7120491D03*
G01*
X3457006Y7120491D03*
G01*
X3457006Y7446398D03*
G01*
X3273997Y7446396D03*
G01*
X3273999Y7336391D03*
G01*
X3457006Y7336391D03*
G01*
X3457006Y7662298D03*
G01*
X3273997Y7662296D03*
G01*
X3273999Y7552291D03*
G01*
X3457006Y7552291D03*
G01*
X3457006Y7878198D03*
G01*
X3273997Y7878196D03*
G01*
X3273999Y7768191D03*
G01*
X3457006Y7768191D03*
G01*
X3457006Y8094098D03*
G01*
X3273997Y8094096D03*
G01*
X3273999Y7984091D03*
G01*
X3457006Y7984091D03*
G01*
X3457006Y8309996D03*
G01*
X3273997Y8309993D03*
G01*
X3273999Y8199988D03*
G01*
X3457006Y8199988D03*
G01*
X3457006Y8525896D03*
G01*
X3273997Y8525893D03*
G01*
X3273999Y8415888D03*
G01*
X3457006Y8415888D03*
G01*
X3457006Y8741796D03*
G01*
X3273997Y8741793D03*
G01*
X3273999Y8631788D03*
G01*
X3457006Y8631788D03*
G01*
X3457006Y8957696D03*
G01*
X3273997Y8957693D03*
G01*
X3273999Y8847688D03*
G01*
X3457006Y8847688D03*
G01*
X3457006Y9173596D03*
G01*
X3273997Y9173593D03*
G01*
X3273999Y9063588D03*
G01*
X3457006Y9063588D03*
G01*
X3457006Y9389496D03*
G01*
X3273997Y9389493D03*
G01*
X3273999Y9279488D03*
G01*
X3457006Y9279488D03*
G01*
X3457006Y9605393D03*
G01*
X3273997Y9605390D03*
G01*
X3273999Y9495386D03*
G01*
X3457006Y9495386D03*
G01*
X3457006Y9821293D03*
G01*
X3273997Y9821290D03*
G01*
X3273999Y9711286D03*
G01*
X3457006Y9711286D03*
G01*
X3457006Y10037193D03*
G01*
X3273997Y10037190D03*
G01*
X3273999Y9927186D03*
G01*
X3457006Y9927186D03*
G01*
X3457006Y10253101D03*
G01*
X3273997Y10253098D03*
G01*
X3273999Y10143093D03*
G01*
X3457006Y10143093D03*
G01*
X3457006Y10469001D03*
G01*
X3273997Y10468998D03*
G01*
X3273999Y10358993D03*
G01*
X3457006Y10358993D03*
G01*
X3457006Y10684901D03*
G01*
X3273997Y10684898D03*
G01*
X3273999Y10574893D03*
G01*
X3457006Y10574893D03*
G01*
X3952308Y3987812D03*
G01*
X3769300Y3987810D03*
G01*
X3769301Y3877805D03*
G01*
X3952308Y3877805D03*
G01*
X3952308Y4203712D03*
G01*
X3769300Y4203710D03*
G01*
X3769301Y4093705D03*
G01*
X3952308Y4093705D03*
G01*
X3952308Y4419610D03*
G01*
X3769300Y4419607D03*
G01*
X3769301Y4309602D03*
G01*
X3952308Y4309602D03*
G01*
X3952308Y4635510D03*
G01*
X3769300Y4635507D03*
G01*
X3769301Y4525502D03*
G01*
X3952308Y4525502D03*
G01*
X3952308Y4851410D03*
G01*
X3769300Y4851407D03*
G01*
X3769301Y4741402D03*
G01*
X3952308Y4741402D03*
G01*
X3952308Y5067310D03*
G01*
X3769300Y5067307D03*
G01*
X3769301Y4957302D03*
G01*
X3952308Y4957302D03*
G01*
X3952308Y5283210D03*
G01*
X3769300Y5283207D03*
G01*
X3769301Y5173202D03*
G01*
X3952308Y5173202D03*
G01*
X3952308Y5499110D03*
G01*
X3769300Y5499107D03*
G01*
X3769301Y5389102D03*
G01*
X3952308Y5389102D03*
G01*
X3952308Y5715007D03*
G01*
X3769300Y5715005D03*
G01*
X3769301Y5605000D03*
G01*
X3952308Y5605000D03*
G01*
X3952308Y5930907D03*
G01*
X3769300Y5930905D03*
G01*
X3769301Y5820900D03*
G01*
X3952308Y5820900D03*
G01*
X3952308Y6146807D03*
G01*
X3769300Y6146805D03*
G01*
X3769301Y6036800D03*
G01*
X3952308Y6036800D03*
G01*
X3952303Y6362712D03*
G01*
X3769295Y6362710D03*
G01*
X3769296Y6252705D03*
G01*
X3952303Y6252705D03*
G01*
X3952303Y6578612D03*
G01*
X3769295Y6578610D03*
G01*
X3769296Y6468605D03*
G01*
X3952303Y6468605D03*
G01*
X3952303Y6794512D03*
G01*
X3769295Y6794510D03*
G01*
X3769296Y6684505D03*
G01*
X3952303Y6684505D03*
G01*
X3952303Y7010412D03*
G01*
X3769295Y7010410D03*
G01*
X3769296Y6900405D03*
G01*
X3952303Y6900405D03*
G01*
X3952303Y7226312D03*
G01*
X3769295Y7226310D03*
G01*
X3769296Y7116305D03*
G01*
X3952303Y7116305D03*
G01*
X3952303Y7442210D03*
G01*
X3769295Y7442207D03*
G01*
X3769296Y7332202D03*
G01*
X3952303Y7332202D03*
G01*
X3952303Y7658110D03*
G01*
X3769295Y7658107D03*
G01*
X3769296Y7548102D03*
G01*
X3952303Y7548102D03*
G01*
X3952303Y7874010D03*
G01*
X3769295Y7874007D03*
G01*
X3769296Y7764002D03*
G01*
X3952303Y7764002D03*
G01*
X3952303Y8089910D03*
G01*
X3769295Y8089907D03*
G01*
X3769296Y7979902D03*
G01*
X3952303Y7979902D03*
G01*
X3952303Y8305810D03*
G01*
X3769295Y8305807D03*
G01*
X3769296Y8195802D03*
G01*
X3952303Y8195802D03*
G01*
X3952303Y8521710D03*
G01*
X3769295Y8521707D03*
G01*
X3769296Y8411702D03*
G01*
X3952303Y8411702D03*
G01*
X3952303Y8737607D03*
G01*
X3769295Y8737605D03*
G01*
X3769296Y8627600D03*
G01*
X3952303Y8627600D03*
G01*
X3952303Y8953507D03*
G01*
X3769295Y8953505D03*
G01*
X3769296Y8843500D03*
G01*
X3952303Y8843500D03*
G01*
X3952303Y9169407D03*
G01*
X3769295Y9169405D03*
G01*
X3769296Y9059400D03*
G01*
X3952303Y9059400D03*
G01*
X3952303Y9385307D03*
G01*
X3769295Y9385305D03*
G01*
X3769296Y9275300D03*
G01*
X3952303Y9275300D03*
G01*
X3952303Y9601207D03*
G01*
X3769295Y9601205D03*
G01*
X3769296Y9491200D03*
G01*
X3952303Y9491200D03*
G01*
X3952303Y9817107D03*
G01*
X3769295Y9817105D03*
G01*
X3769296Y9707100D03*
G01*
X3952303Y9707100D03*
G01*
X3952303Y10033007D03*
G01*
X3769295Y10033005D03*
G01*
X3769296Y9923000D03*
G01*
X3952303Y9923000D03*
G01*
X3952303Y10248907D03*
G01*
X3769295Y10248905D03*
G01*
X3769296Y10138900D03*
G01*
X3952303Y10138900D03*
G01*
X3952303Y10464807D03*
G01*
X3769295Y10464805D03*
G01*
X3769296Y10354800D03*
G01*
X3952303Y10354800D03*
G01*
X3952303Y10680707D03*
G01*
X3769295Y10680705D03*
G01*
X3769296Y10570700D03*
G01*
X3952303Y10570700D03*
G01*
X3457006Y11167501D03*
G01*
X3273997Y11167498D03*
G01*
X3273999Y11057493D03*
G01*
X3457006Y11057493D03*
G01*
X3952306Y11167501D03*
G01*
X3769297Y11167498D03*
G01*
X3769299Y11057493D03*
G01*
X3952306Y11057493D03*
G01*
X5362006Y3991998D03*
G01*
X5178997Y3991996D03*
G01*
X5178999Y3881991D03*
G01*
X5362006Y3881991D03*
G01*
X5362006Y6798693D03*
G01*
X5178997Y6798690D03*
G01*
X5178999Y6688686D03*
G01*
X5362006Y6688686D03*
G01*
X5362006Y6582793D03*
G01*
X5178997Y6582790D03*
G01*
X5178999Y6472786D03*
G01*
X5362006Y6472786D03*
G01*
X5362006Y6366896D03*
G01*
X5178997Y6366893D03*
G01*
X5178999Y6256888D03*
G01*
X5362006Y6256888D03*
G01*
X5362006Y6150996D03*
G01*
X5178997Y6150993D03*
G01*
X5178999Y6040988D03*
G01*
X5362006Y6040988D03*
G01*
X5362006Y5935096D03*
G01*
X5178997Y5935093D03*
G01*
X5178999Y5825088D03*
G01*
X5362006Y5825088D03*
G01*
X5362006Y5719196D03*
G01*
X5178997Y5719193D03*
G01*
X5178999Y5609188D03*
G01*
X5362006Y5609188D03*
G01*
X5362006Y5503296D03*
G01*
X5178997Y5503293D03*
G01*
X5178999Y5393288D03*
G01*
X5362006Y5393288D03*
G01*
X5362006Y5287396D03*
G01*
X5178997Y5287393D03*
G01*
X5178999Y5177388D03*
G01*
X5362006Y5177388D03*
G01*
X5362006Y5071498D03*
G01*
X5178997Y5071496D03*
G01*
X5178999Y4961491D03*
G01*
X5362006Y4961491D03*
G01*
X5362006Y4855598D03*
G01*
X5178997Y4855596D03*
G01*
X5178999Y4745591D03*
G01*
X5362006Y4745591D03*
G01*
X5362006Y4639698D03*
G01*
X5178997Y4639696D03*
G01*
X5178999Y4529691D03*
G01*
X5362006Y4529691D03*
G01*
X5362006Y4423798D03*
G01*
X5178997Y4423796D03*
G01*
X5178999Y4313791D03*
G01*
X5362006Y4313791D03*
G01*
X5362006Y4207898D03*
G01*
X5178997Y4207896D03*
G01*
X5178999Y4097891D03*
G01*
X5362006Y4097891D03*
G01*
X5362006Y7014601D03*
G01*
X5178997Y7014598D03*
G01*
X5178999Y6904593D03*
G01*
X5362006Y6904593D03*
G01*
X5362006Y7230498D03*
G01*
X5178997Y7230496D03*
G01*
X5178999Y7120491D03*
G01*
X5362006Y7120491D03*
G01*
X5362006Y7446398D03*
G01*
X5178997Y7446396D03*
G01*
X5178999Y7336391D03*
G01*
X5362006Y7336391D03*
G01*
X5362006Y7662298D03*
G01*
X5178997Y7662296D03*
G01*
X5178999Y7552291D03*
G01*
X5362006Y7552291D03*
G01*
X5362006Y7878198D03*
G01*
X5178997Y7878196D03*
G01*
X5178999Y7768191D03*
G01*
X5362006Y7768191D03*
G01*
X5362006Y8094098D03*
G01*
X5178997Y8094096D03*
G01*
X5178999Y7984091D03*
G01*
X5362006Y7984091D03*
G01*
X5362006Y8309996D03*
G01*
X5178997Y8309993D03*
G01*
X5178999Y8199988D03*
G01*
X5362006Y8199988D03*
G01*
X5362006Y8525896D03*
G01*
X5178997Y8525893D03*
G01*
X5178999Y8415888D03*
G01*
X5362006Y8415888D03*
G01*
X5362006Y8741796D03*
G01*
X5178997Y8741793D03*
G01*
X5178999Y8631788D03*
G01*
X5362006Y8631788D03*
G01*
X5362006Y8957696D03*
G01*
X5178997Y8957693D03*
G01*
X5178999Y8847688D03*
G01*
X5362006Y8847688D03*
G01*
X5362006Y9173596D03*
G01*
X5178997Y9173593D03*
G01*
X5178999Y9063588D03*
G01*
X5362006Y9063588D03*
G01*
X5362006Y9389496D03*
G01*
X5178997Y9389493D03*
G01*
X5178999Y9279488D03*
G01*
X5362006Y9279488D03*
G01*
X5362006Y9605393D03*
G01*
X5178997Y9605390D03*
G01*
X5178999Y9495386D03*
G01*
X5362006Y9495386D03*
G01*
X5362006Y9821293D03*
G01*
X5178997Y9821290D03*
G01*
X5178999Y9711286D03*
G01*
X5362006Y9711286D03*
G01*
X5362006Y10037193D03*
G01*
X5178997Y10037190D03*
G01*
X5178999Y9927186D03*
G01*
X5362006Y9927186D03*
G01*
X5362006Y10253101D03*
G01*
X5178997Y10253098D03*
G01*
X5178999Y10143093D03*
G01*
X5362006Y10143093D03*
G01*
X5362006Y10469001D03*
G01*
X5178997Y10468998D03*
G01*
X5178999Y10358993D03*
G01*
X5362006Y10358993D03*
G01*
X5362006Y10684901D03*
G01*
X5178997Y10684898D03*
G01*
X5178999Y10574893D03*
G01*
X5362006Y10574893D03*
G01*
X5857308Y3987812D03*
G01*
X5674300Y3987810D03*
G01*
X5674301Y3877805D03*
G01*
X5857308Y3877805D03*
G01*
X5857308Y4203712D03*
G01*
X5674300Y4203710D03*
G01*
X5674301Y4093705D03*
G01*
X5857308Y4093705D03*
G01*
X5857308Y4419610D03*
G01*
X5674300Y4419607D03*
G01*
X5674301Y4309602D03*
G01*
X5857308Y4309602D03*
G01*
X5857308Y4635510D03*
G01*
X5674300Y4635507D03*
G01*
X5674301Y4525502D03*
G01*
X5857308Y4525502D03*
G01*
X5857308Y4851410D03*
G01*
X5674300Y4851407D03*
G01*
X5674301Y4741402D03*
G01*
X5857308Y4741402D03*
G01*
X5857308Y5067310D03*
G01*
X5674300Y5067307D03*
G01*
X5674301Y4957302D03*
G01*
X5857308Y4957302D03*
G01*
X5857308Y5283210D03*
G01*
X5674300Y5283207D03*
G01*
X5674301Y5173202D03*
G01*
X5857308Y5173202D03*
G01*
X5857308Y5499110D03*
G01*
X5674300Y5499107D03*
G01*
X5674301Y5389102D03*
G01*
X5857308Y5389102D03*
G01*
X5857308Y5715007D03*
G01*
X5674300Y5715005D03*
G01*
X5674301Y5605000D03*
G01*
X5857308Y5605000D03*
G01*
X5857308Y5930907D03*
G01*
X5674300Y5930905D03*
G01*
X5674301Y5820900D03*
G01*
X5857308Y5820900D03*
G01*
X5857308Y6146807D03*
G01*
X5674300Y6146805D03*
G01*
X5674301Y6036800D03*
G01*
X5857308Y6036800D03*
G01*
X5857303Y6362712D03*
G01*
X5674295Y6362710D03*
G01*
X5674296Y6252705D03*
G01*
X5857303Y6252705D03*
G01*
X5857303Y6578612D03*
G01*
X5674295Y6578610D03*
G01*
X5674296Y6468605D03*
G01*
X5857303Y6468605D03*
G01*
X5857303Y6794512D03*
G01*
X5674295Y6794510D03*
G01*
X5674296Y6684505D03*
G01*
X5857303Y6684505D03*
G01*
X5857303Y7010412D03*
G01*
X5674295Y7010410D03*
G01*
X5674296Y6900405D03*
G01*
X5857303Y6900405D03*
G01*
X5857303Y7226312D03*
G01*
X5674295Y7226310D03*
G01*
X5674296Y7116305D03*
G01*
X5857303Y7116305D03*
G01*
X5857303Y7442210D03*
G01*
X5674295Y7442207D03*
G01*
X5674296Y7332202D03*
G01*
X5857303Y7332202D03*
G01*
X5857303Y7658110D03*
G01*
X5674295Y7658107D03*
G01*
X5674296Y7548102D03*
G01*
X5857303Y7548102D03*
G01*
X5857303Y7874010D03*
G01*
X5674295Y7874007D03*
G01*
X5674296Y7764002D03*
G01*
X5857303Y7764002D03*
G01*
X5857303Y8089910D03*
G01*
X5674295Y8089907D03*
G01*
X5674296Y7979902D03*
G01*
X5857303Y7979902D03*
G01*
X5857303Y8305810D03*
G01*
X5674295Y8305807D03*
G01*
X5674296Y8195802D03*
G01*
X5857303Y8195802D03*
G01*
X5857303Y8521710D03*
G01*
X5674295Y8521707D03*
G01*
X5674296Y8411702D03*
G01*
X5857303Y8411702D03*
G01*
X5857303Y8737607D03*
G01*
X5674295Y8737605D03*
G01*
X5674296Y8627600D03*
G01*
X5857303Y8627600D03*
G01*
X5857303Y8953507D03*
G01*
X5674295Y8953505D03*
G01*
X5674296Y8843500D03*
G01*
X5857303Y8843500D03*
G01*
X5857303Y9169407D03*
G01*
X5674295Y9169405D03*
G01*
X5674296Y9059400D03*
G01*
X5857303Y9059400D03*
G01*
X5857303Y9385307D03*
G01*
X5674295Y9385305D03*
G01*
X5674296Y9275300D03*
G01*
X5857303Y9275300D03*
G01*
X5857303Y9601207D03*
G01*
X5674295Y9601205D03*
G01*
X5674296Y9491200D03*
G01*
X5857303Y9491200D03*
G01*
X5857303Y9817107D03*
G01*
X5674295Y9817105D03*
G01*
X5674296Y9707100D03*
G01*
X5857303Y9707100D03*
G01*
X5857303Y10033007D03*
G01*
X5674295Y10033005D03*
G01*
X5674296Y9923000D03*
G01*
X5857303Y9923000D03*
G01*
X5857303Y10248907D03*
G01*
X5674295Y10248905D03*
G01*
X5674296Y10138900D03*
G01*
X5857303Y10138900D03*
G01*
X5857303Y10464807D03*
G01*
X5674295Y10464805D03*
G01*
X5674296Y10354800D03*
G01*
X5857303Y10354800D03*
G01*
X5857303Y10680707D03*
G01*
X5674295Y10680705D03*
G01*
X5674296Y10570700D03*
G01*
X5857303Y10570700D03*
G01*
X5362006Y11167501D03*
G01*
X5178997Y11167498D03*
G01*
X5178999Y11057493D03*
G01*
X5362006Y11057493D03*
G01*
X5857306Y11167501D03*
G01*
X5674297Y11167498D03*
G01*
X5674299Y11057493D03*
G01*
X5857306Y11057493D03*
G01*
X7279706Y3991998D03*
G01*
X7096697Y3991996D03*
G01*
X7096699Y3881991D03*
G01*
X7279706Y3881991D03*
G01*
X7279706Y6798693D03*
G01*
X7096697Y6798690D03*
G01*
X7096699Y6688686D03*
G01*
X7279706Y6688686D03*
G01*
X7279706Y6582793D03*
G01*
X7096697Y6582790D03*
G01*
X7096699Y6472786D03*
G01*
X7279706Y6472786D03*
G01*
X7279706Y6366896D03*
G01*
X7096697Y6366893D03*
G01*
X7096699Y6256888D03*
G01*
X7279706Y6256888D03*
G01*
X7279706Y6150996D03*
G01*
X7096697Y6150993D03*
G01*
X7096699Y6040988D03*
G01*
X7279706Y6040988D03*
G01*
X7279706Y5935096D03*
G01*
X7096697Y5935093D03*
G01*
X7096699Y5825088D03*
G01*
X7279706Y5825088D03*
G01*
X7279706Y5719196D03*
G01*
X7096697Y5719193D03*
G01*
X7096699Y5609188D03*
G01*
X7279706Y5609188D03*
G01*
X7279706Y5503296D03*
G01*
X7096697Y5503293D03*
G01*
X7096699Y5393288D03*
G01*
X7279706Y5393288D03*
G01*
X7279706Y5287396D03*
G01*
X7096697Y5287393D03*
G01*
X7096699Y5177388D03*
G01*
X7279706Y5177388D03*
G01*
X7279706Y5071498D03*
G01*
X7096697Y5071496D03*
G01*
X7096699Y4961491D03*
G01*
X7279706Y4961491D03*
G01*
X7279706Y4855598D03*
G01*
X7096697Y4855596D03*
G01*
X7096699Y4745591D03*
G01*
X7279706Y4745591D03*
G01*
X7279706Y4639698D03*
G01*
X7096697Y4639696D03*
G01*
X7096699Y4529691D03*
G01*
X7279706Y4529691D03*
G01*
X7279706Y4423798D03*
G01*
X7096697Y4423796D03*
G01*
X7096699Y4313791D03*
G01*
X7279706Y4313791D03*
G01*
X7279706Y4207898D03*
G01*
X7096697Y4207896D03*
G01*
X7096699Y4097891D03*
G01*
X7279706Y4097891D03*
G01*
X7279706Y7014601D03*
G01*
X7096697Y7014598D03*
G01*
X7096699Y6904593D03*
G01*
X7279706Y6904593D03*
G01*
X7279706Y7230498D03*
G01*
X7096697Y7230496D03*
G01*
X7096699Y7120491D03*
G01*
X7279706Y7120491D03*
G01*
X7279706Y7446398D03*
G01*
X7096697Y7446396D03*
G01*
X7096699Y7336391D03*
G01*
X7279706Y7336391D03*
G01*
X7279706Y7662298D03*
G01*
X7096697Y7662296D03*
G01*
X7096699Y7552291D03*
G01*
X7279706Y7552291D03*
G01*
X7279706Y7878198D03*
G01*
X7096697Y7878196D03*
G01*
X7096699Y7768191D03*
G01*
X7279706Y7768191D03*
G01*
X7279706Y8094098D03*
G01*
X7096697Y8094096D03*
G01*
X7096699Y7984091D03*
G01*
X7279706Y7984091D03*
G01*
X7279706Y8309996D03*
G01*
X7096697Y8309993D03*
G01*
X7096699Y8199988D03*
G01*
X7279706Y8199988D03*
G01*
X7279706Y8525896D03*
G01*
X7096697Y8525893D03*
G01*
X7096699Y8415888D03*
G01*
X7279706Y8415888D03*
G01*
X7279706Y8741796D03*
G01*
X7096697Y8741793D03*
G01*
X7096699Y8631788D03*
G01*
X7279706Y8631788D03*
G01*
X7279706Y8957696D03*
G01*
X7096697Y8957693D03*
G01*
X7096699Y8847688D03*
G01*
X7279706Y8847688D03*
G01*
X7279706Y9173596D03*
G01*
X7096697Y9173593D03*
G01*
X7096699Y9063588D03*
G01*
X7279706Y9063588D03*
G01*
X7279706Y9389496D03*
G01*
X7096697Y9389493D03*
G01*
X7096699Y9279488D03*
G01*
X7279706Y9279488D03*
G01*
X7279706Y9605393D03*
G01*
X7096697Y9605390D03*
G01*
X7096699Y9495386D03*
G01*
X7279706Y9495386D03*
G01*
X7279706Y9821293D03*
G01*
X7096697Y9821290D03*
G01*
X7096699Y9711286D03*
G01*
X7279706Y9711286D03*
G01*
X7279706Y10037193D03*
G01*
X7096697Y10037190D03*
G01*
X7096699Y9927186D03*
G01*
X7279706Y9927186D03*
G01*
X7279706Y10253101D03*
G01*
X7096697Y10253098D03*
G01*
X7096699Y10143093D03*
G01*
X7279706Y10143093D03*
G01*
X7279706Y10469001D03*
G01*
X7096697Y10468998D03*
G01*
X7096699Y10358993D03*
G01*
X7279706Y10358993D03*
G01*
X7279706Y10684901D03*
G01*
X7096697Y10684898D03*
G01*
X7096699Y10574893D03*
G01*
X7279706Y10574893D03*
G01*
X7775008Y3987812D03*
G01*
X7592000Y3987810D03*
G01*
X7592001Y3877805D03*
G01*
X7775008Y3877805D03*
G01*
X7775008Y4203712D03*
G01*
X7592000Y4203710D03*
G01*
X7592001Y4093705D03*
G01*
X7775008Y4093705D03*
G01*
X7775008Y4419610D03*
G01*
X7592000Y4419607D03*
G01*
X7592001Y4309602D03*
G01*
X7775008Y4309602D03*
G01*
X7775008Y4635510D03*
G01*
X7592000Y4635507D03*
G01*
X7592001Y4525502D03*
G01*
X7775008Y4525502D03*
G01*
X7775008Y4851410D03*
G01*
X7592000Y4851407D03*
G01*
X7592001Y4741402D03*
G01*
X7775008Y4741402D03*
G01*
X7775008Y5067310D03*
G01*
X7592000Y5067307D03*
G01*
X7592001Y4957302D03*
G01*
X7775008Y4957302D03*
G01*
X7775008Y5283210D03*
G01*
X7592000Y5283207D03*
G01*
X7592001Y5173202D03*
G01*
X7775008Y5173202D03*
G01*
X7775008Y5499110D03*
G01*
X7592000Y5499107D03*
G01*
X7592001Y5389102D03*
G01*
X7775008Y5389102D03*
G01*
X7775008Y5715007D03*
G01*
X7592000Y5715005D03*
G01*
X7592001Y5605000D03*
G01*
X7775008Y5605000D03*
G01*
X7775008Y5930907D03*
G01*
X7592000Y5930905D03*
G01*
X7592001Y5820900D03*
G01*
X7775008Y5820900D03*
G01*
X7775008Y6146807D03*
G01*
X7592000Y6146805D03*
G01*
X7592001Y6036800D03*
G01*
X7775008Y6036800D03*
G01*
X7775003Y6362712D03*
G01*
X7591995Y6362710D03*
G01*
X7591996Y6252705D03*
G01*
X7775003Y6252705D03*
G01*
X7775003Y6578612D03*
G01*
X7591995Y6578610D03*
G01*
X7591996Y6468605D03*
G01*
X7775003Y6468605D03*
G01*
X7775003Y6794512D03*
G01*
X7591995Y6794510D03*
G01*
X7591996Y6684505D03*
G01*
X7775003Y6684505D03*
G01*
X7775003Y7010412D03*
G01*
X7591995Y7010410D03*
G01*
X7591996Y6900405D03*
G01*
X7775003Y6900405D03*
G01*
X7775003Y7226312D03*
G01*
X7591995Y7226310D03*
G01*
X7591996Y7116305D03*
G01*
X7775003Y7116305D03*
G01*
X7775003Y7442210D03*
G01*
X7591995Y7442207D03*
G01*
X7591996Y7332202D03*
G01*
X7775003Y7332202D03*
G01*
X7775003Y7658110D03*
G01*
X7591995Y7658107D03*
G01*
X7591996Y7548102D03*
G01*
X7775003Y7548102D03*
G01*
X7775003Y7874010D03*
G01*
X7591995Y7874007D03*
G01*
X7591996Y7764002D03*
G01*
X7775003Y7764002D03*
G01*
X7775003Y8089910D03*
G01*
X7591995Y8089907D03*
G01*
X7591996Y7979902D03*
G01*
X7775003Y7979902D03*
G01*
X7775003Y8305810D03*
G01*
X7591995Y8305807D03*
G01*
X7591996Y8195802D03*
G01*
X7775003Y8195802D03*
G01*
X7775003Y8521710D03*
G01*
X7591995Y8521707D03*
G01*
X7591996Y8411702D03*
G01*
X7775003Y8411702D03*
G01*
X7775003Y8737607D03*
G01*
X7591995Y8737605D03*
G01*
X7591996Y8627600D03*
G01*
X7775003Y8627600D03*
G01*
X7775003Y8953507D03*
G01*
X7591995Y8953505D03*
G01*
X7591996Y8843500D03*
G01*
X7775003Y8843500D03*
G01*
X7775003Y9169407D03*
G01*
X7591995Y9169405D03*
G01*
X7591996Y9059400D03*
G01*
X7775003Y9059400D03*
G01*
X7775003Y9385307D03*
G01*
X7591995Y9385305D03*
G01*
X7591996Y9275300D03*
G01*
X7775003Y9275300D03*
G01*
X7775003Y9601207D03*
G01*
X7591995Y9601205D03*
G01*
X7591996Y9491200D03*
G01*
X7775003Y9491200D03*
G01*
X7775003Y9817107D03*
G01*
X7591995Y9817105D03*
G01*
X7591996Y9707100D03*
G01*
X7775003Y9707100D03*
G01*
X7775003Y10033007D03*
G01*
X7591995Y10033005D03*
G01*
X7591996Y9923000D03*
G01*
X7775003Y9923000D03*
G01*
X7775003Y10248907D03*
G01*
X7591995Y10248905D03*
G01*
X7591996Y10138900D03*
G01*
X7775003Y10138900D03*
G01*
X7775003Y10464807D03*
G01*
X7591995Y10464805D03*
G01*
X7591996Y10354800D03*
G01*
X7775003Y10354800D03*
G01*
X7775003Y10680707D03*
G01*
X7591995Y10680705D03*
G01*
X7591996Y10570700D03*
G01*
X7775003Y10570700D03*
G01*
X7279706Y11167501D03*
G01*
X7096697Y11167498D03*
G01*
X7096699Y11057493D03*
G01*
X7279706Y11057493D03*
G01*
X7775006Y11167501D03*
G01*
X7591997Y11167498D03*
G01*
X7591999Y11057493D03*
G01*
X7775006Y11057493D03*
G01*
X1539306Y3991998D03*
G01*
X1356297Y3991996D03*
G01*
X1356299Y3881991D03*
G01*
X1539306Y3881991D03*
G01*
X1539306Y6798693D03*
G01*
X1356297Y6798690D03*
G01*
X1356299Y6688686D03*
G01*
X1539306Y6688686D03*
G01*
X1539306Y6582793D03*
G01*
X1356297Y6582790D03*
G01*
X1356299Y6472786D03*
G01*
X1539306Y6472786D03*
G01*
X1539306Y6366896D03*
G01*
X1356297Y6366893D03*
G01*
X1356299Y6256888D03*
G01*
X1539306Y6256888D03*
G01*
X1539306Y6150996D03*
G01*
X1356297Y6150993D03*
G01*
X1356299Y6040988D03*
G01*
X1539306Y6040988D03*
G01*
X1539306Y5935096D03*
G01*
X1356297Y5935093D03*
G01*
X1356299Y5825088D03*
G01*
X1539306Y5825088D03*
G01*
X1539306Y5719196D03*
G01*
X1356297Y5719193D03*
G01*
X1356299Y5609188D03*
G01*
X1539306Y5609188D03*
G01*
X1539306Y5503296D03*
G01*
X1356297Y5503293D03*
G01*
X1356299Y5393288D03*
G01*
X1539306Y5393288D03*
G01*
X1539306Y5287396D03*
G01*
X1356297Y5287393D03*
G01*
X1356299Y5177388D03*
G01*
X1539306Y5177388D03*
G01*
X1539306Y5071498D03*
G01*
X1356297Y5071496D03*
G01*
X1356299Y4961491D03*
G01*
X1539306Y4961491D03*
G01*
X1539306Y4855598D03*
G01*
X1356297Y4855596D03*
G01*
X1356299Y4745591D03*
G01*
X1539306Y4745591D03*
G01*
X1539306Y4639698D03*
G01*
X1356297Y4639696D03*
G01*
X1356299Y4529691D03*
G01*
X1539306Y4529691D03*
G01*
X1539306Y4423798D03*
G01*
X1356297Y4423796D03*
G01*
X1356299Y4313791D03*
G01*
X1539306Y4313791D03*
G01*
X1539306Y4207898D03*
G01*
X1356297Y4207896D03*
G01*
X1356299Y4097891D03*
G01*
X1539306Y4097891D03*
G01*
X1539306Y7014601D03*
G01*
X1356297Y7014598D03*
G01*
X1356299Y6904593D03*
G01*
X1539306Y6904593D03*
G01*
X1539306Y7230498D03*
G01*
X1356297Y7230496D03*
G01*
X1356299Y7120491D03*
G01*
X1539306Y7120491D03*
G01*
X1539306Y7446398D03*
G01*
X1356297Y7446396D03*
G01*
X1356299Y7336391D03*
G01*
X1539306Y7336391D03*
G01*
X1539306Y7662298D03*
G01*
X1356297Y7662296D03*
G01*
X1356299Y7552291D03*
G01*
X1539306Y7552291D03*
G01*
X1539306Y7878198D03*
G01*
X1356297Y7878196D03*
G01*
X1356299Y7768191D03*
G01*
X1539306Y7768191D03*
G01*
X1539306Y8094098D03*
G01*
X1356297Y8094096D03*
G01*
X1356299Y7984091D03*
G01*
X1539306Y7984091D03*
G01*
X1539306Y8309996D03*
G01*
X1356297Y8309993D03*
G01*
X1356299Y8199988D03*
G01*
X1539306Y8199988D03*
G01*
X1539306Y8525896D03*
G01*
X1356297Y8525893D03*
G01*
X1356299Y8415888D03*
G01*
X1539306Y8415888D03*
G01*
X1539306Y8741796D03*
G01*
X1356297Y8741793D03*
G01*
X1356299Y8631788D03*
G01*
X1539306Y8631788D03*
G01*
X1539306Y8957696D03*
G01*
X1356297Y8957693D03*
G01*
X1356299Y8847688D03*
G01*
X1539306Y8847688D03*
G01*
X1539306Y9173596D03*
G01*
X1356297Y9173593D03*
G01*
X1356299Y9063588D03*
G01*
X1539306Y9063588D03*
G01*
X1539306Y9389496D03*
G01*
X1356297Y9389493D03*
G01*
X1356299Y9279488D03*
G01*
X1539306Y9279488D03*
G01*
X1539306Y9605393D03*
G01*
X1356297Y9605390D03*
G01*
X1356299Y9495386D03*
G01*
X1539306Y9495386D03*
G01*
X1539306Y9821293D03*
G01*
X1356297Y9821290D03*
G01*
X1356299Y9711286D03*
G01*
X1539306Y9711286D03*
G01*
X1539306Y10037193D03*
G01*
X1356297Y10037190D03*
G01*
X1356299Y9927186D03*
G01*
X1539306Y9927186D03*
G01*
X1539306Y10253101D03*
G01*
X1356297Y10253098D03*
G01*
X1356299Y10143093D03*
G01*
X1539306Y10143093D03*
G01*
X1539306Y10469001D03*
G01*
X1356297Y10468998D03*
G01*
X1356299Y10358993D03*
G01*
X1539306Y10358993D03*
G01*
X1539306Y10684901D03*
G01*
X1356297Y10684898D03*
G01*
X1356299Y10574893D03*
G01*
X1539306Y10574893D03*
G01*
X2034608Y3987812D03*
G01*
X1851600Y3987810D03*
G01*
X1851601Y3877805D03*
G01*
X2034608Y3877805D03*
G01*
X2034608Y4203712D03*
G01*
X1851600Y4203710D03*
G01*
X1851601Y4093705D03*
G01*
X2034608Y4093705D03*
G01*
X2034608Y4419610D03*
G01*
X1851600Y4419607D03*
G01*
X1851601Y4309602D03*
G01*
X2034608Y4309602D03*
G01*
X2034608Y4635510D03*
G01*
X1851600Y4635507D03*
G01*
X1851601Y4525502D03*
G01*
X2034608Y4525502D03*
G01*
X2034608Y4851410D03*
G01*
X1851600Y4851407D03*
G01*
X1851601Y4741402D03*
G01*
X2034608Y4741402D03*
G01*
X2034608Y5067310D03*
G01*
X1851600Y5067307D03*
G01*
X1851601Y4957302D03*
G01*
X2034608Y4957302D03*
G01*
X2034608Y5283210D03*
G01*
X1851600Y5283207D03*
G01*
X1851601Y5173202D03*
G01*
X2034608Y5173202D03*
G01*
X2034608Y5499110D03*
G01*
X1851600Y5499107D03*
G01*
X1851601Y5389102D03*
G01*
X2034608Y5389102D03*
G01*
X2034608Y5715007D03*
G01*
X1851600Y5715005D03*
G01*
X1851601Y5605000D03*
G01*
X2034608Y5605000D03*
G01*
X2034608Y5930907D03*
G01*
X1851600Y5930905D03*
G01*
X1851601Y5820900D03*
G01*
X2034608Y5820900D03*
G01*
X2034608Y6146807D03*
G01*
X1851600Y6146805D03*
G01*
X1851601Y6036800D03*
G01*
X2034608Y6036800D03*
G01*
X2034603Y6362712D03*
G01*
X1851595Y6362710D03*
G01*
X1851596Y6252705D03*
G01*
X2034603Y6252705D03*
G01*
X2034603Y6578612D03*
G01*
X1851595Y6578610D03*
G01*
X1851596Y6468605D03*
G01*
X2034603Y6468605D03*
G01*
X2034603Y6794512D03*
G01*
X1851595Y6794510D03*
G01*
X1851596Y6684505D03*
G01*
X2034603Y6684505D03*
G01*
X2034603Y7010412D03*
G01*
X1851595Y7010410D03*
G01*
X1851596Y6900405D03*
G01*
X2034603Y6900405D03*
G01*
X2034603Y7226312D03*
G01*
X1851595Y7226310D03*
G01*
X1851596Y7116305D03*
G01*
X2034603Y7116305D03*
G01*
X2034603Y7442210D03*
G01*
X1851595Y7442207D03*
G01*
X1851596Y7332202D03*
G01*
X2034603Y7332202D03*
G01*
X2034603Y7658110D03*
G01*
X1851595Y7658107D03*
G01*
X1851596Y7548102D03*
G01*
X2034603Y7548102D03*
G01*
X2034603Y7874010D03*
G01*
X1851595Y7874007D03*
G01*
X1851596Y7764002D03*
G01*
X2034603Y7764002D03*
G01*
X2034603Y8089910D03*
G01*
X1851595Y8089907D03*
G01*
X1851596Y7979902D03*
G01*
X2034603Y7979902D03*
G01*
X2034603Y8305810D03*
G01*
X1851595Y8305807D03*
G01*
X1851596Y8195802D03*
G01*
X2034603Y8195802D03*
G01*
X2034603Y8521710D03*
G01*
X1851595Y8521707D03*
G01*
X1851596Y8411702D03*
G01*
X2034603Y8411702D03*
G01*
X2034603Y8737607D03*
G01*
X1851595Y8737605D03*
G01*
X1851596Y8627600D03*
G01*
X2034603Y8627600D03*
G01*
X2034603Y8953507D03*
G01*
X1851595Y8953505D03*
G01*
X1851596Y8843500D03*
G01*
X2034603Y8843500D03*
G01*
X2034603Y9169407D03*
G01*
X1851595Y9169405D03*
G01*
X1851596Y9059400D03*
G01*
X2034603Y9059400D03*
G01*
X2034603Y9385307D03*
G01*
X1851595Y9385305D03*
G01*
X1851596Y9275300D03*
G01*
X2034603Y9275300D03*
G01*
X2034603Y9601207D03*
G01*
X1851595Y9601205D03*
G01*
X1851596Y9491200D03*
G01*
X2034603Y9491200D03*
G01*
X2034603Y9817107D03*
G01*
X1851595Y9817105D03*
G01*
X1851596Y9707100D03*
G01*
X2034603Y9707100D03*
G01*
X2034603Y10033007D03*
G01*
X1851595Y10033005D03*
G01*
X1851596Y9923000D03*
G01*
X2034603Y9923000D03*
G01*
X2034603Y10248907D03*
G01*
X1851595Y10248905D03*
G01*
X1851596Y10138900D03*
G01*
X2034603Y10138900D03*
G01*
X2034603Y10464807D03*
G01*
X1851595Y10464805D03*
G01*
X1851596Y10354800D03*
G01*
X2034603Y10354800D03*
G01*
X2034603Y10680707D03*
G01*
X1851595Y10680705D03*
G01*
X1851596Y10570700D03*
G01*
X2034603Y10570700D03*
G01*
X1539306Y11167501D03*
G01*
X1356297Y11167498D03*
G01*
X1356299Y11057493D03*
G01*
X1539306Y11057493D03*
G01*
X2034606Y11167501D03*
G01*
X1851597Y11167498D03*
G01*
X1851599Y11057493D03*
G01*
X2034606Y11057493D03*
M02*
