G04 Layer: BottomLayer*
G04 EasyEDA v6.5.29, 2023-07-18 10:59:27*
G04 edb8639753f2491aa550edbca108bfa0,5a6b42c53f6a479593ecc07194224c93,10*
G04 Gerber Generator version 0.2*
G04 Scale: 100 percent, Rotated: No, Reflected: No *
G04 Dimensions in millimeters *
G04 leading zeros omitted , absolute positions ,4 integer and 5 decimal *
%FSLAX45Y45*%
%MOMM*%

%AMMACRO1*21,1,$1,$2,0,0,$3*%
%ADD10C,0.2540*%
%ADD11C,0.5000*%
%ADD12C,1.8000*%
%ADD13R,1.7000X1.8000*%
%ADD14MACRO1,1.8X1.8X90.0000*%
%ADD15C,1.6500*%
%ADD16C,1.4000*%
%ADD17R,1.5240X1.4000*%
%ADD18C,5.0000*%
%ADD19C,0.6096*%
%ADD20C,0.0137*%

%LPD*%
G36*
X2166518Y1016508D02*
G01*
X2162606Y1017269D01*
X2159304Y1019505D01*
X2122881Y1055928D01*
X2120747Y1059027D01*
X2119884Y1062685D01*
X2120442Y1066393D01*
X2123998Y1076858D01*
X2126742Y1090777D01*
X2127707Y1104900D01*
X2126742Y1119022D01*
X2123998Y1132941D01*
X2119426Y1146352D01*
X2113178Y1159103D01*
X2105304Y1170889D01*
X2095957Y1181557D01*
X2085289Y1190904D01*
X2073503Y1198778D01*
X2064461Y1203198D01*
X2061006Y1205992D01*
X2059076Y1209903D01*
X2058974Y1214323D01*
X2060752Y1218336D01*
X2064054Y1221232D01*
X2068474Y1222502D01*
X2082393Y1225245D01*
X2095804Y1229817D01*
X2108555Y1236065D01*
X2120341Y1243939D01*
X2131009Y1253286D01*
X2140356Y1263954D01*
X2148230Y1275740D01*
X2154478Y1288491D01*
X2159050Y1301902D01*
X2161794Y1315821D01*
X2162759Y1329944D01*
X2161794Y1344066D01*
X2159050Y1357985D01*
X2154478Y1371396D01*
X2148230Y1384147D01*
X2140356Y1395933D01*
X2131009Y1406601D01*
X2120341Y1415948D01*
X2108555Y1423822D01*
X2095804Y1430070D01*
X2082393Y1434642D01*
X2068271Y1437436D01*
X2064054Y1438656D01*
X2060752Y1441551D01*
X2058974Y1445564D01*
X2059076Y1449984D01*
X2061006Y1453896D01*
X2064461Y1456690D01*
X2073503Y1461109D01*
X2085289Y1468983D01*
X2095957Y1478330D01*
X2105304Y1488998D01*
X2113178Y1500784D01*
X2119426Y1513535D01*
X2123998Y1526946D01*
X2126742Y1540865D01*
X2127707Y1554988D01*
X2126742Y1569110D01*
X2123998Y1583029D01*
X2119426Y1596440D01*
X2113178Y1609191D01*
X2105304Y1620977D01*
X2095957Y1631645D01*
X2093823Y1633474D01*
X2091385Y1636725D01*
X2090369Y1640687D01*
X2091029Y1644700D01*
X2093163Y1648155D01*
X2096516Y1650441D01*
X2100529Y1651254D01*
X3205784Y1651254D01*
X3209798Y1650441D01*
X3213150Y1648155D01*
X3215284Y1644700D01*
X3215944Y1640687D01*
X3214928Y1636725D01*
X3212490Y1633474D01*
X3210356Y1631645D01*
X3201009Y1620977D01*
X3193135Y1609191D01*
X3186887Y1596440D01*
X3182315Y1583029D01*
X3179572Y1569110D01*
X3178606Y1554988D01*
X3179572Y1540865D01*
X3182315Y1526946D01*
X3186887Y1513535D01*
X3193135Y1500784D01*
X3201009Y1488998D01*
X3210356Y1478330D01*
X3221024Y1468983D01*
X3232810Y1461109D01*
X3236315Y1459382D01*
X3239617Y1456791D01*
X3241598Y1453134D01*
X3241903Y1448968D01*
X3240532Y1445006D01*
X3237687Y1441958D01*
X3233826Y1440332D01*
X3223158Y1438198D01*
X3209747Y1433626D01*
X3196996Y1427378D01*
X3185210Y1419504D01*
X3174542Y1410157D01*
X3165195Y1399489D01*
X3157321Y1387703D01*
X3151073Y1374952D01*
X3146501Y1361541D01*
X3143758Y1347622D01*
X3142792Y1333500D01*
X3143758Y1319377D01*
X3146501Y1305458D01*
X3151073Y1292047D01*
X3157321Y1279296D01*
X3165195Y1267510D01*
X3174542Y1256842D01*
X3185210Y1247495D01*
X3196996Y1239621D01*
X3209747Y1233373D01*
X3223158Y1228801D01*
X3237077Y1226058D01*
X3245053Y1225499D01*
X3248914Y1224483D01*
X3252063Y1222095D01*
X3254044Y1218641D01*
X3254552Y1214729D01*
X3253536Y1210868D01*
X3251098Y1207719D01*
X3247644Y1205738D01*
X3245561Y1205026D01*
X3232810Y1198778D01*
X3221024Y1190904D01*
X3210356Y1181557D01*
X3201009Y1170889D01*
X3193135Y1159103D01*
X3186887Y1146352D01*
X3182315Y1132941D01*
X3179572Y1119022D01*
X3178606Y1104900D01*
X3179572Y1090777D01*
X3182315Y1076858D01*
X3186887Y1063447D01*
X3193135Y1050696D01*
X3201009Y1038910D01*
X3205886Y1033373D01*
X3207816Y1030020D01*
X3208426Y1026210D01*
X3207512Y1022451D01*
X3205276Y1019352D01*
X3202025Y1017219D01*
X3198266Y1016508D01*
G37*

%LPD*%
G36*
X3375761Y1016508D02*
G01*
X3372002Y1017219D01*
X3368751Y1019352D01*
X3366515Y1022451D01*
X3365601Y1026210D01*
X3366211Y1030020D01*
X3368141Y1033373D01*
X3373018Y1038910D01*
X3380892Y1050696D01*
X3387140Y1063447D01*
X3391712Y1076858D01*
X3394456Y1090777D01*
X3395421Y1104900D01*
X3394456Y1119022D01*
X3391712Y1132941D01*
X3387140Y1146352D01*
X3380892Y1159103D01*
X3373018Y1170889D01*
X3363671Y1181557D01*
X3353003Y1190904D01*
X3341217Y1198778D01*
X3328466Y1205026D01*
X3315055Y1209598D01*
X3301136Y1212342D01*
X3293160Y1212900D01*
X3289300Y1213916D01*
X3286150Y1216304D01*
X3284169Y1219758D01*
X3283661Y1223670D01*
X3284677Y1227531D01*
X3287115Y1230680D01*
X3290570Y1232662D01*
X3292652Y1233373D01*
X3305403Y1239621D01*
X3317189Y1247495D01*
X3327857Y1256842D01*
X3337204Y1267510D01*
X3345078Y1279296D01*
X3351326Y1292047D01*
X3355898Y1305458D01*
X3358642Y1319377D01*
X3359607Y1333500D01*
X3358642Y1347622D01*
X3355898Y1361541D01*
X3351326Y1374952D01*
X3345078Y1387703D01*
X3337204Y1399489D01*
X3327857Y1410157D01*
X3317189Y1419504D01*
X3305403Y1427378D01*
X3301898Y1429105D01*
X3298596Y1431696D01*
X3296615Y1435354D01*
X3296310Y1439519D01*
X3297682Y1443482D01*
X3300526Y1446530D01*
X3304387Y1448155D01*
X3315055Y1450289D01*
X3328466Y1454861D01*
X3341217Y1461109D01*
X3353003Y1468983D01*
X3363671Y1478330D01*
X3373018Y1488998D01*
X3380892Y1500784D01*
X3387140Y1513535D01*
X3391712Y1526946D01*
X3394456Y1540865D01*
X3395421Y1554988D01*
X3394456Y1569110D01*
X3391712Y1583029D01*
X3387140Y1596440D01*
X3380892Y1609191D01*
X3373018Y1620977D01*
X3363671Y1631645D01*
X3361537Y1633474D01*
X3359099Y1636725D01*
X3358083Y1640687D01*
X3358743Y1644700D01*
X3360877Y1648155D01*
X3364229Y1650441D01*
X3368243Y1651254D01*
X3504133Y1651254D01*
X3507790Y1650593D01*
X3510991Y1648612D01*
X3513226Y1645615D01*
X3518154Y1635658D01*
X3526028Y1623872D01*
X3535375Y1613204D01*
X3546043Y1603857D01*
X3557828Y1595983D01*
X3570528Y1589735D01*
X3583940Y1585163D01*
X3597859Y1582420D01*
X3612032Y1581454D01*
X3626154Y1582420D01*
X3640074Y1585163D01*
X3653485Y1589735D01*
X3666185Y1595983D01*
X3677970Y1603857D01*
X3688638Y1613204D01*
X3697986Y1623872D01*
X3705860Y1635658D01*
X3710787Y1645615D01*
X3713022Y1648612D01*
X3716223Y1650593D01*
X3719880Y1651254D01*
X3855770Y1651254D01*
X3859784Y1650441D01*
X3863136Y1648155D01*
X3865270Y1644700D01*
X3865930Y1640687D01*
X3864914Y1636725D01*
X3862476Y1633474D01*
X3860342Y1631645D01*
X3850995Y1620977D01*
X3843121Y1609191D01*
X3836873Y1596440D01*
X3832301Y1583029D01*
X3829558Y1569110D01*
X3828592Y1554988D01*
X3829558Y1540865D01*
X3832301Y1526946D01*
X3836873Y1513535D01*
X3843121Y1500784D01*
X3850995Y1488998D01*
X3860342Y1478330D01*
X3871010Y1468983D01*
X3882796Y1461109D01*
X3895547Y1454861D01*
X3908958Y1450289D01*
X3923080Y1447495D01*
X3927297Y1446276D01*
X3930599Y1443380D01*
X3932377Y1439367D01*
X3932275Y1434947D01*
X3930345Y1431036D01*
X3926890Y1428242D01*
X3917848Y1423822D01*
X3906062Y1415948D01*
X3895394Y1406601D01*
X3886047Y1395933D01*
X3878173Y1384147D01*
X3871925Y1371396D01*
X3867353Y1357985D01*
X3864610Y1344066D01*
X3863644Y1329944D01*
X3864610Y1315821D01*
X3867353Y1301902D01*
X3871925Y1288491D01*
X3878173Y1275740D01*
X3886047Y1263954D01*
X3895394Y1253286D01*
X3906062Y1243939D01*
X3917848Y1236065D01*
X3926890Y1231646D01*
X3930345Y1228852D01*
X3932275Y1224940D01*
X3932377Y1220520D01*
X3930599Y1216507D01*
X3927297Y1213612D01*
X3922877Y1212342D01*
X3908958Y1209598D01*
X3895547Y1205026D01*
X3882796Y1198778D01*
X3871010Y1190904D01*
X3860342Y1181557D01*
X3850995Y1170889D01*
X3843121Y1159103D01*
X3836873Y1146352D01*
X3832301Y1132941D01*
X3829558Y1119022D01*
X3828592Y1104900D01*
X3829558Y1090777D01*
X3832301Y1076858D01*
X3835857Y1066393D01*
X3836415Y1062685D01*
X3835552Y1059027D01*
X3833418Y1055928D01*
X3796995Y1019505D01*
X3793693Y1017269D01*
X3789781Y1016508D01*
X3740048Y1016508D01*
X3736390Y1017219D01*
X3733190Y1019200D01*
X3730955Y1022197D01*
X3726078Y1032103D01*
X3718204Y1043889D01*
X3708857Y1054557D01*
X3698189Y1063904D01*
X3686403Y1071778D01*
X3673652Y1078026D01*
X3660241Y1082598D01*
X3646322Y1085342D01*
X3632200Y1086307D01*
X3618077Y1085342D01*
X3604158Y1082598D01*
X3590747Y1078026D01*
X3577996Y1071778D01*
X3566210Y1063904D01*
X3555542Y1054557D01*
X3546195Y1043889D01*
X3538321Y1032103D01*
X3533444Y1022197D01*
X3531209Y1019200D01*
X3528009Y1017219D01*
X3524351Y1016508D01*
G37*

%LPD*%
G36*
X4084218Y1016508D02*
G01*
X4080306Y1017269D01*
X4077004Y1019505D01*
X4040581Y1055928D01*
X4038447Y1059027D01*
X4037584Y1062685D01*
X4038142Y1066393D01*
X4041698Y1076858D01*
X4044442Y1090777D01*
X4045407Y1104900D01*
X4044442Y1119022D01*
X4041698Y1132941D01*
X4037126Y1146352D01*
X4030878Y1159103D01*
X4023004Y1170889D01*
X4013657Y1181557D01*
X4002989Y1190904D01*
X3991203Y1198778D01*
X3982161Y1203198D01*
X3978706Y1205992D01*
X3976776Y1209903D01*
X3976674Y1214323D01*
X3978452Y1218336D01*
X3981754Y1221232D01*
X3986174Y1222502D01*
X4000093Y1225245D01*
X4013504Y1229817D01*
X4026255Y1236065D01*
X4038041Y1243939D01*
X4048709Y1253286D01*
X4058056Y1263954D01*
X4065930Y1275740D01*
X4072178Y1288491D01*
X4076750Y1301902D01*
X4079494Y1315821D01*
X4080459Y1329944D01*
X4079494Y1344066D01*
X4076750Y1357985D01*
X4072178Y1371396D01*
X4065930Y1384147D01*
X4058056Y1395933D01*
X4048709Y1406601D01*
X4038041Y1415948D01*
X4026255Y1423822D01*
X4013504Y1430070D01*
X4000093Y1434642D01*
X3985971Y1437436D01*
X3981754Y1438656D01*
X3978452Y1441551D01*
X3976674Y1445564D01*
X3976776Y1449984D01*
X3978706Y1453896D01*
X3982161Y1456690D01*
X3991203Y1461109D01*
X4002989Y1468983D01*
X4013657Y1478330D01*
X4023004Y1488998D01*
X4030878Y1500784D01*
X4037126Y1513535D01*
X4041698Y1526946D01*
X4044442Y1540865D01*
X4045407Y1554988D01*
X4044442Y1569110D01*
X4041698Y1583029D01*
X4037126Y1596440D01*
X4030878Y1609191D01*
X4023004Y1620977D01*
X4013657Y1631645D01*
X4011523Y1633474D01*
X4009085Y1636725D01*
X4008069Y1640687D01*
X4008729Y1644700D01*
X4010863Y1648155D01*
X4014215Y1650441D01*
X4018229Y1651254D01*
X4526686Y1651254D01*
X4530547Y1650492D01*
X4533849Y1648307D01*
X4535424Y1646732D01*
X4543501Y1641093D01*
X4552391Y1636928D01*
X4561890Y1634388D01*
X4571695Y1633524D01*
X4581448Y1634388D01*
X4590948Y1636928D01*
X4599838Y1641093D01*
X4607915Y1646732D01*
X4609490Y1648307D01*
X4612792Y1650492D01*
X4616653Y1651254D01*
X7028484Y1651254D01*
X7032498Y1650441D01*
X7035850Y1648155D01*
X7037984Y1644700D01*
X7038644Y1640687D01*
X7037628Y1636725D01*
X7035190Y1633474D01*
X7033056Y1631645D01*
X7023709Y1620977D01*
X7015835Y1609191D01*
X7009587Y1596440D01*
X7005015Y1583029D01*
X7002272Y1569110D01*
X7001306Y1554988D01*
X7002272Y1540865D01*
X7005015Y1526946D01*
X7009587Y1513535D01*
X7015835Y1500784D01*
X7023709Y1488998D01*
X7033056Y1478330D01*
X7043724Y1468983D01*
X7055510Y1461109D01*
X7059015Y1459382D01*
X7062317Y1456791D01*
X7064298Y1453134D01*
X7064603Y1448968D01*
X7063231Y1445006D01*
X7060387Y1441958D01*
X7056526Y1440332D01*
X7045858Y1438198D01*
X7032447Y1433626D01*
X7019696Y1427378D01*
X7007910Y1419504D01*
X6997242Y1410157D01*
X6987895Y1399489D01*
X6980021Y1387703D01*
X6973773Y1374952D01*
X6969201Y1361541D01*
X6966458Y1347622D01*
X6965492Y1333500D01*
X6966458Y1319377D01*
X6969201Y1305458D01*
X6973773Y1292047D01*
X6980021Y1279296D01*
X6987895Y1267510D01*
X6997242Y1256842D01*
X7007910Y1247495D01*
X7019696Y1239621D01*
X7032447Y1233373D01*
X7045858Y1228801D01*
X7059777Y1226058D01*
X7067753Y1225499D01*
X7071614Y1224483D01*
X7074763Y1222095D01*
X7076744Y1218641D01*
X7077252Y1214729D01*
X7076236Y1210868D01*
X7073798Y1207719D01*
X7070344Y1205738D01*
X7068261Y1205026D01*
X7055510Y1198778D01*
X7043724Y1190904D01*
X7033056Y1181557D01*
X7023709Y1170889D01*
X7015835Y1159103D01*
X7009587Y1146352D01*
X7005015Y1132941D01*
X7002272Y1119022D01*
X7001306Y1104900D01*
X7002272Y1090777D01*
X7005015Y1076858D01*
X7009587Y1063447D01*
X7015835Y1050696D01*
X7023709Y1038910D01*
X7028586Y1033373D01*
X7030516Y1030020D01*
X7031126Y1026210D01*
X7030212Y1022451D01*
X7027976Y1019352D01*
X7024725Y1017219D01*
X7020966Y1016508D01*
X4616653Y1016508D01*
X4612792Y1017269D01*
X4609490Y1019505D01*
X4607915Y1021080D01*
X4599838Y1026718D01*
X4590948Y1030833D01*
X4581448Y1033373D01*
X4571695Y1034237D01*
X4561890Y1033373D01*
X4552391Y1030833D01*
X4543501Y1026718D01*
X4535424Y1021080D01*
X4533849Y1019505D01*
X4530547Y1017269D01*
X4526686Y1016508D01*
G37*

%LPD*%
G36*
X1736089Y851408D02*
G01*
X1731975Y852271D01*
X1728520Y854811D01*
X1726438Y858469D01*
X1726031Y862685D01*
X1727352Y866749D01*
X1730248Y869848D01*
X1734108Y871524D01*
X1742541Y873201D01*
X1755952Y877773D01*
X1768703Y884021D01*
X1780489Y891895D01*
X1791157Y901242D01*
X1800504Y911910D01*
X1808378Y923696D01*
X1813255Y933602D01*
X1815490Y936599D01*
X1818690Y938580D01*
X1822348Y939292D01*
X1891792Y939292D01*
X1899818Y940104D01*
X1907032Y942289D01*
X1913737Y945845D01*
X1919935Y950976D01*
X1970328Y1001318D01*
X1973427Y1003452D01*
X1977085Y1004316D01*
X1980793Y1003757D01*
X1991258Y1000201D01*
X2005177Y997458D01*
X2019300Y996492D01*
X2033422Y997458D01*
X2047341Y1000201D01*
X2057806Y1003757D01*
X2061514Y1004316D01*
X2065172Y1003452D01*
X2068271Y1001318D01*
X2118664Y950976D01*
X2124862Y945845D01*
X2131568Y942289D01*
X2138781Y940104D01*
X2146808Y939292D01*
X3524351Y939292D01*
X3528009Y938580D01*
X3531209Y936599D01*
X3533444Y933602D01*
X3538321Y923696D01*
X3546195Y911910D01*
X3555542Y901242D01*
X3566210Y891895D01*
X3577996Y884021D01*
X3590747Y877773D01*
X3604158Y873201D01*
X3612591Y871524D01*
X3616451Y869848D01*
X3619347Y866749D01*
X3620668Y862685D01*
X3620262Y858469D01*
X3618179Y854811D01*
X3614724Y852271D01*
X3610610Y851408D01*
G37*

%LPD*%
G36*
X290068Y851408D02*
G01*
X286156Y852169D01*
X282905Y854405D01*
X280670Y857656D01*
X279908Y861568D01*
X279908Y11647932D01*
X280670Y11651843D01*
X282905Y11655094D01*
X286156Y11657330D01*
X290068Y11658092D01*
X8853932Y11658092D01*
X8857843Y11657330D01*
X8861094Y11655094D01*
X8863330Y11651843D01*
X8864092Y11647932D01*
X8864092Y861568D01*
X8863330Y857656D01*
X8861094Y854405D01*
X8857843Y852169D01*
X8853932Y851408D01*
X7476490Y851408D01*
X7472375Y852271D01*
X7468920Y854811D01*
X7466838Y858469D01*
X7466431Y862685D01*
X7467752Y866749D01*
X7470648Y869848D01*
X7474508Y871524D01*
X7482941Y873201D01*
X7496352Y877773D01*
X7509103Y884021D01*
X7520889Y891895D01*
X7531557Y901242D01*
X7540904Y911910D01*
X7548778Y923696D01*
X7553655Y933602D01*
X7555890Y936599D01*
X7559090Y938580D01*
X7562748Y939292D01*
X7632192Y939292D01*
X7640218Y940104D01*
X7647431Y942289D01*
X7654137Y945845D01*
X7660335Y950976D01*
X7710728Y1001318D01*
X7713827Y1003452D01*
X7717485Y1004316D01*
X7721193Y1003757D01*
X7731658Y1000201D01*
X7745577Y997458D01*
X7759700Y996492D01*
X7773822Y997458D01*
X7787741Y1000201D01*
X7801152Y1004773D01*
X7813903Y1011021D01*
X7825689Y1018895D01*
X7836357Y1028242D01*
X7845704Y1038910D01*
X7853578Y1050696D01*
X7859826Y1063447D01*
X7864398Y1076858D01*
X7867142Y1090777D01*
X7868107Y1104900D01*
X7867142Y1119022D01*
X7864398Y1132941D01*
X7859826Y1146352D01*
X7853578Y1159103D01*
X7845704Y1170889D01*
X7836357Y1181557D01*
X7825689Y1190904D01*
X7813903Y1198778D01*
X7804861Y1203198D01*
X7801406Y1205992D01*
X7799476Y1209903D01*
X7799374Y1214323D01*
X7801152Y1218336D01*
X7804454Y1221232D01*
X7808874Y1222502D01*
X7822793Y1225245D01*
X7836204Y1229817D01*
X7848955Y1236065D01*
X7860741Y1243939D01*
X7871409Y1253286D01*
X7880756Y1263954D01*
X7888630Y1275740D01*
X7894878Y1288491D01*
X7899450Y1301902D01*
X7902194Y1315821D01*
X7903159Y1329944D01*
X7902194Y1344066D01*
X7899450Y1357985D01*
X7894878Y1371396D01*
X7888630Y1384147D01*
X7880756Y1395933D01*
X7871409Y1406601D01*
X7860741Y1415948D01*
X7848955Y1423822D01*
X7836204Y1430070D01*
X7822793Y1434642D01*
X7808671Y1437436D01*
X7804454Y1438656D01*
X7801152Y1441551D01*
X7799374Y1445564D01*
X7799476Y1449984D01*
X7801406Y1453896D01*
X7804861Y1456690D01*
X7813903Y1461109D01*
X7825689Y1468983D01*
X7836357Y1478330D01*
X7845704Y1488998D01*
X7853578Y1500784D01*
X7859826Y1513535D01*
X7864398Y1526946D01*
X7867142Y1540865D01*
X7868107Y1554988D01*
X7867142Y1569110D01*
X7864398Y1583029D01*
X7859826Y1596440D01*
X7853578Y1609191D01*
X7845704Y1620977D01*
X7836357Y1631645D01*
X7825689Y1640992D01*
X7813903Y1648866D01*
X7801152Y1655114D01*
X7787741Y1659686D01*
X7773822Y1662430D01*
X7759700Y1663395D01*
X7745577Y1662430D01*
X7731658Y1659686D01*
X7718247Y1655114D01*
X7705496Y1648866D01*
X7693710Y1640992D01*
X7683042Y1631645D01*
X7673695Y1620977D01*
X7665821Y1609191D01*
X7659573Y1596440D01*
X7655001Y1583029D01*
X7652258Y1569110D01*
X7651292Y1554988D01*
X7652258Y1540865D01*
X7655001Y1526946D01*
X7659573Y1513535D01*
X7665821Y1500784D01*
X7673695Y1488998D01*
X7683042Y1478330D01*
X7693710Y1468983D01*
X7705496Y1461109D01*
X7718247Y1454861D01*
X7731658Y1450289D01*
X7745780Y1447495D01*
X7749997Y1446276D01*
X7753299Y1443380D01*
X7755077Y1439367D01*
X7754975Y1434947D01*
X7753045Y1431036D01*
X7749590Y1428242D01*
X7740548Y1423822D01*
X7728762Y1415948D01*
X7718094Y1406601D01*
X7708747Y1395933D01*
X7700873Y1384147D01*
X7694625Y1371396D01*
X7690053Y1357985D01*
X7687309Y1344066D01*
X7686344Y1329944D01*
X7687309Y1315821D01*
X7690053Y1301902D01*
X7694625Y1288491D01*
X7700873Y1275740D01*
X7708747Y1263954D01*
X7718094Y1253286D01*
X7728762Y1243939D01*
X7740548Y1236065D01*
X7749590Y1231646D01*
X7753045Y1228852D01*
X7754975Y1224940D01*
X7755077Y1220520D01*
X7753299Y1216507D01*
X7749997Y1213612D01*
X7745577Y1212342D01*
X7731658Y1209598D01*
X7718247Y1205026D01*
X7705496Y1198778D01*
X7693710Y1190904D01*
X7683042Y1181557D01*
X7673695Y1170889D01*
X7665821Y1159103D01*
X7659573Y1146352D01*
X7655001Y1132941D01*
X7652258Y1119022D01*
X7651292Y1104900D01*
X7652258Y1090777D01*
X7655001Y1076858D01*
X7658557Y1066393D01*
X7659116Y1062685D01*
X7658252Y1059027D01*
X7656118Y1055928D01*
X7619695Y1019505D01*
X7616393Y1017269D01*
X7612481Y1016508D01*
X7562748Y1016508D01*
X7559090Y1017219D01*
X7555890Y1019200D01*
X7553655Y1022197D01*
X7548778Y1032103D01*
X7540904Y1043889D01*
X7531557Y1054557D01*
X7520889Y1063904D01*
X7509103Y1071778D01*
X7496352Y1078026D01*
X7482941Y1082598D01*
X7469022Y1085342D01*
X7454900Y1086307D01*
X7440777Y1085342D01*
X7426858Y1082598D01*
X7413447Y1078026D01*
X7400696Y1071778D01*
X7388910Y1063904D01*
X7378242Y1054557D01*
X7368895Y1043889D01*
X7361021Y1032103D01*
X7356144Y1022197D01*
X7353909Y1019200D01*
X7350709Y1017219D01*
X7347051Y1016508D01*
X7198461Y1016508D01*
X7194702Y1017219D01*
X7191451Y1019352D01*
X7189216Y1022451D01*
X7188301Y1026210D01*
X7188911Y1030020D01*
X7190841Y1033373D01*
X7195718Y1038910D01*
X7203592Y1050696D01*
X7209840Y1063447D01*
X7214412Y1076858D01*
X7217156Y1090777D01*
X7218121Y1104900D01*
X7217156Y1119022D01*
X7214412Y1132941D01*
X7209840Y1146352D01*
X7203592Y1159103D01*
X7195718Y1170889D01*
X7186371Y1181557D01*
X7175703Y1190904D01*
X7163917Y1198778D01*
X7151166Y1205026D01*
X7137755Y1209598D01*
X7123836Y1212342D01*
X7115860Y1212900D01*
X7112000Y1213916D01*
X7108850Y1216304D01*
X7106869Y1219758D01*
X7106361Y1223670D01*
X7107377Y1227531D01*
X7109815Y1230680D01*
X7113270Y1232662D01*
X7115352Y1233373D01*
X7128103Y1239621D01*
X7139889Y1247495D01*
X7150557Y1256842D01*
X7159904Y1267510D01*
X7167778Y1279296D01*
X7174026Y1292047D01*
X7178598Y1305458D01*
X7181342Y1319377D01*
X7182307Y1333500D01*
X7181342Y1347622D01*
X7178598Y1361541D01*
X7174026Y1374952D01*
X7167778Y1387703D01*
X7159904Y1399489D01*
X7150557Y1410157D01*
X7139889Y1419504D01*
X7128103Y1427378D01*
X7124598Y1429105D01*
X7121296Y1431696D01*
X7119315Y1435354D01*
X7119010Y1439519D01*
X7120381Y1443482D01*
X7123226Y1446530D01*
X7127087Y1448155D01*
X7137755Y1450289D01*
X7151166Y1454861D01*
X7163917Y1461109D01*
X7175703Y1468983D01*
X7186371Y1478330D01*
X7195718Y1488998D01*
X7203592Y1500784D01*
X7209840Y1513535D01*
X7214412Y1526946D01*
X7217156Y1540865D01*
X7218121Y1554988D01*
X7217156Y1569110D01*
X7214412Y1583029D01*
X7209840Y1596440D01*
X7203592Y1609191D01*
X7195718Y1620977D01*
X7186371Y1631645D01*
X7184237Y1633474D01*
X7181799Y1636725D01*
X7180783Y1640687D01*
X7181443Y1644700D01*
X7183577Y1648155D01*
X7186930Y1650441D01*
X7190943Y1651254D01*
X7326833Y1651254D01*
X7330490Y1650593D01*
X7333691Y1648612D01*
X7335926Y1645615D01*
X7340853Y1635658D01*
X7348728Y1623872D01*
X7358075Y1613204D01*
X7368743Y1603857D01*
X7380528Y1595983D01*
X7393228Y1589735D01*
X7406640Y1585163D01*
X7420559Y1582420D01*
X7434732Y1581454D01*
X7448854Y1582420D01*
X7462774Y1585163D01*
X7476185Y1589735D01*
X7488885Y1595983D01*
X7500670Y1603857D01*
X7511338Y1613204D01*
X7520686Y1623872D01*
X7528559Y1635658D01*
X7534859Y1648409D01*
X7539380Y1661820D01*
X7542174Y1675739D01*
X7543088Y1689862D01*
X7542174Y1703984D01*
X7539380Y1717903D01*
X7534859Y1731314D01*
X7528559Y1744065D01*
X7520686Y1755851D01*
X7511338Y1766519D01*
X7500670Y1775866D01*
X7488885Y1783740D01*
X7476185Y1789988D01*
X7462774Y1794560D01*
X7448854Y1797304D01*
X7434732Y1798269D01*
X7420559Y1797304D01*
X7406640Y1794560D01*
X7393228Y1789988D01*
X7380528Y1783740D01*
X7368743Y1775866D01*
X7358075Y1766519D01*
X7348728Y1755851D01*
X7340853Y1744065D01*
X7335977Y1734159D01*
X7333691Y1731162D01*
X7330541Y1729181D01*
X7326833Y1728470D01*
X4616653Y1728470D01*
X4612792Y1729282D01*
X4609490Y1731467D01*
X4607915Y1733042D01*
X4599838Y1738680D01*
X4590948Y1742846D01*
X4581448Y1745386D01*
X4571695Y1746250D01*
X4561890Y1745386D01*
X4552391Y1742846D01*
X4543501Y1738680D01*
X4535424Y1733042D01*
X4533849Y1731467D01*
X4530547Y1729282D01*
X4526686Y1728470D01*
X3719880Y1728470D01*
X3716172Y1729181D01*
X3713022Y1731162D01*
X3710736Y1734159D01*
X3705860Y1744065D01*
X3697986Y1755851D01*
X3688638Y1766519D01*
X3677970Y1775866D01*
X3666185Y1783740D01*
X3653485Y1789988D01*
X3640074Y1794560D01*
X3626154Y1797304D01*
X3612032Y1798269D01*
X3597859Y1797304D01*
X3583940Y1794560D01*
X3570528Y1789988D01*
X3557828Y1783740D01*
X3546043Y1775866D01*
X3535375Y1766519D01*
X3526028Y1755851D01*
X3518154Y1744065D01*
X3513277Y1734159D01*
X3510991Y1731162D01*
X3507841Y1729181D01*
X3504133Y1728470D01*
X1802180Y1728470D01*
X1798472Y1729181D01*
X1795322Y1731162D01*
X1793036Y1734159D01*
X1788160Y1744065D01*
X1780286Y1755851D01*
X1770938Y1766519D01*
X1760270Y1775866D01*
X1748485Y1783740D01*
X1735785Y1789988D01*
X1722374Y1794560D01*
X1708454Y1797304D01*
X1694332Y1798269D01*
X1680159Y1797304D01*
X1666239Y1794560D01*
X1652828Y1789988D01*
X1640128Y1783740D01*
X1628343Y1775866D01*
X1617675Y1766519D01*
X1608328Y1755851D01*
X1600454Y1744065D01*
X1594154Y1731314D01*
X1589633Y1717903D01*
X1586839Y1703984D01*
X1585925Y1689862D01*
X1586839Y1675739D01*
X1589633Y1661820D01*
X1594154Y1648409D01*
X1600454Y1635658D01*
X1608328Y1623872D01*
X1617675Y1613204D01*
X1628343Y1603857D01*
X1640128Y1595983D01*
X1652828Y1589735D01*
X1666239Y1585163D01*
X1680159Y1582420D01*
X1694332Y1581454D01*
X1708454Y1582420D01*
X1722374Y1585163D01*
X1735785Y1589735D01*
X1748485Y1595983D01*
X1760270Y1603857D01*
X1770938Y1613204D01*
X1780286Y1623872D01*
X1788160Y1635658D01*
X1793087Y1645615D01*
X1795322Y1648612D01*
X1798523Y1650593D01*
X1802180Y1651254D01*
X1938070Y1651254D01*
X1942084Y1650441D01*
X1945436Y1648155D01*
X1947570Y1644700D01*
X1948230Y1640687D01*
X1947214Y1636725D01*
X1944776Y1633474D01*
X1942642Y1631645D01*
X1933295Y1620977D01*
X1925421Y1609191D01*
X1919173Y1596440D01*
X1914601Y1583029D01*
X1911857Y1569110D01*
X1910892Y1554988D01*
X1911857Y1540865D01*
X1914601Y1526946D01*
X1919173Y1513535D01*
X1925421Y1500784D01*
X1933295Y1488998D01*
X1942642Y1478330D01*
X1953310Y1468983D01*
X1965096Y1461109D01*
X1977847Y1454861D01*
X1991258Y1450289D01*
X2005380Y1447495D01*
X2009597Y1446276D01*
X2012899Y1443380D01*
X2014677Y1439367D01*
X2014575Y1434947D01*
X2012645Y1431036D01*
X2009190Y1428242D01*
X2000148Y1423822D01*
X1988362Y1415948D01*
X1977694Y1406601D01*
X1968347Y1395933D01*
X1960473Y1384147D01*
X1954225Y1371396D01*
X1949653Y1357985D01*
X1946910Y1344066D01*
X1945944Y1329944D01*
X1946910Y1315821D01*
X1949653Y1301902D01*
X1954225Y1288491D01*
X1960473Y1275740D01*
X1968347Y1263954D01*
X1977694Y1253286D01*
X1988362Y1243939D01*
X2000148Y1236065D01*
X2009190Y1231646D01*
X2012645Y1228852D01*
X2014575Y1224940D01*
X2014677Y1220520D01*
X2012899Y1216507D01*
X2009597Y1213612D01*
X2005177Y1212342D01*
X1991258Y1209598D01*
X1977847Y1205026D01*
X1965096Y1198778D01*
X1953310Y1190904D01*
X1942642Y1181557D01*
X1933295Y1170889D01*
X1925421Y1159103D01*
X1919173Y1146352D01*
X1914601Y1132941D01*
X1911857Y1119022D01*
X1910892Y1104900D01*
X1911857Y1090777D01*
X1914601Y1076858D01*
X1918157Y1066393D01*
X1918716Y1062685D01*
X1917852Y1059027D01*
X1915718Y1055928D01*
X1879295Y1019505D01*
X1875993Y1017269D01*
X1872081Y1016508D01*
X1822348Y1016508D01*
X1818690Y1017219D01*
X1815490Y1019200D01*
X1813255Y1022197D01*
X1808378Y1032103D01*
X1800504Y1043889D01*
X1791157Y1054557D01*
X1780489Y1063904D01*
X1768703Y1071778D01*
X1755952Y1078026D01*
X1742541Y1082598D01*
X1728622Y1085342D01*
X1714500Y1086307D01*
X1700377Y1085342D01*
X1686458Y1082598D01*
X1673047Y1078026D01*
X1660296Y1071778D01*
X1648510Y1063904D01*
X1637842Y1054557D01*
X1628495Y1043889D01*
X1620621Y1032103D01*
X1614373Y1019352D01*
X1609801Y1005941D01*
X1607058Y992022D01*
X1606092Y977900D01*
X1607058Y963777D01*
X1609801Y949858D01*
X1614373Y936447D01*
X1620621Y923696D01*
X1628495Y911910D01*
X1637842Y901242D01*
X1648510Y891895D01*
X1660296Y884021D01*
X1673047Y877773D01*
X1686458Y873201D01*
X1694891Y871524D01*
X1698752Y869848D01*
X1701647Y866749D01*
X1702968Y862685D01*
X1702562Y858469D01*
X1700479Y854811D01*
X1697024Y852271D01*
X1692910Y851408D01*
G37*

%LPC*%
G36*
X1801825Y11119662D02*
G01*
X1811578Y11120526D01*
X1821078Y11123066D01*
X1823415Y11124133D01*
X1827682Y11125098D01*
X3693617Y11125098D01*
X3697884Y11124133D01*
X3700221Y11123066D01*
X3709720Y11120526D01*
X3719525Y11119662D01*
X3729278Y11120526D01*
X3738778Y11123066D01*
X3741115Y11124133D01*
X3745382Y11125098D01*
X5598617Y11125098D01*
X5602884Y11124133D01*
X5605221Y11123066D01*
X5614720Y11120526D01*
X5624525Y11119662D01*
X5634278Y11120526D01*
X5643778Y11123066D01*
X5646115Y11124133D01*
X5650382Y11125098D01*
X7516317Y11125098D01*
X7520584Y11124133D01*
X7522921Y11123066D01*
X7532420Y11120526D01*
X7542225Y11119662D01*
X7551978Y11120526D01*
X7561478Y11123066D01*
X7570368Y11127181D01*
X7578445Y11132820D01*
X7585354Y11139779D01*
X7590993Y11147806D01*
X7595158Y11156746D01*
X7597698Y11166195D01*
X7598562Y11176000D01*
X7597698Y11185804D01*
X7595158Y11195253D01*
X7590993Y11204194D01*
X7585354Y11212220D01*
X7578445Y11219180D01*
X7570368Y11224818D01*
X7561478Y11228933D01*
X7551978Y11231473D01*
X7542225Y11232337D01*
X7532420Y11231473D01*
X7522921Y11228933D01*
X7520584Y11227866D01*
X7516317Y11226901D01*
X5650382Y11226901D01*
X5646115Y11227866D01*
X5643778Y11228933D01*
X5634278Y11231473D01*
X5624525Y11232337D01*
X5614720Y11231473D01*
X5605221Y11228933D01*
X5602884Y11227866D01*
X5598617Y11226901D01*
X3745382Y11226901D01*
X3741115Y11227866D01*
X3738778Y11228933D01*
X3729278Y11231473D01*
X3719525Y11232337D01*
X3709720Y11231473D01*
X3700221Y11228933D01*
X3697884Y11227866D01*
X3693617Y11226901D01*
X1827682Y11226901D01*
X1823415Y11227866D01*
X1821078Y11228933D01*
X1811578Y11231473D01*
X1801825Y11232337D01*
X1792020Y11231473D01*
X1782521Y11228933D01*
X1773631Y11224818D01*
X1765554Y11219180D01*
X1758645Y11212220D01*
X1753006Y11204194D01*
X1748840Y11195253D01*
X1746300Y11185804D01*
X1745437Y11176000D01*
X1746300Y11166195D01*
X1748840Y11156746D01*
X1753006Y11147806D01*
X1758645Y11139779D01*
X1765554Y11132820D01*
X1773631Y11127181D01*
X1782521Y11123066D01*
X1792020Y11120526D01*
G37*
G36*
X584200Y10999317D02*
G01*
X599389Y11000232D01*
X614324Y11002975D01*
X628853Y11007496D01*
X642721Y11013744D01*
X655726Y11021618D01*
X667664Y11030966D01*
X678434Y11041735D01*
X687781Y11053673D01*
X695655Y11066678D01*
X701903Y11080546D01*
X706424Y11095075D01*
X709168Y11110010D01*
X710082Y11125200D01*
X709168Y11140389D01*
X706424Y11155324D01*
X701903Y11169853D01*
X695655Y11183721D01*
X687781Y11196726D01*
X678434Y11208664D01*
X667664Y11219434D01*
X655726Y11228781D01*
X642721Y11236655D01*
X628853Y11242903D01*
X614324Y11247424D01*
X599389Y11250168D01*
X584200Y11251082D01*
X569010Y11250168D01*
X554075Y11247424D01*
X539546Y11242903D01*
X525678Y11236655D01*
X512673Y11228781D01*
X500735Y11219434D01*
X489966Y11208664D01*
X480618Y11196726D01*
X472744Y11183721D01*
X466496Y11169853D01*
X461975Y11155324D01*
X459232Y11140389D01*
X458317Y11125200D01*
X459232Y11110010D01*
X461975Y11095075D01*
X466496Y11080546D01*
X472744Y11066678D01*
X480618Y11053673D01*
X489966Y11041735D01*
X500735Y11030966D01*
X512673Y11021618D01*
X525678Y11013744D01*
X539546Y11007496D01*
X554075Y11002975D01*
X569010Y11000232D01*
G37*
G36*
X8547100Y10999317D02*
G01*
X8562238Y11000232D01*
X8577224Y11002975D01*
X8591702Y11007496D01*
X8605570Y11013744D01*
X8618575Y11021618D01*
X8630564Y11030966D01*
X8641283Y11041735D01*
X8650681Y11053673D01*
X8658555Y11066678D01*
X8664803Y11080546D01*
X8669324Y11095075D01*
X8672068Y11110010D01*
X8672982Y11125200D01*
X8672068Y11140389D01*
X8669324Y11155324D01*
X8664803Y11169853D01*
X8658555Y11183721D01*
X8650681Y11196726D01*
X8641283Y11208664D01*
X8630564Y11219434D01*
X8618575Y11228781D01*
X8605570Y11236655D01*
X8591702Y11242903D01*
X8577224Y11247424D01*
X8562238Y11250168D01*
X8547100Y11251082D01*
X8531910Y11250168D01*
X8516924Y11247424D01*
X8502446Y11242903D01*
X8488578Y11236655D01*
X8475573Y11228781D01*
X8463584Y11219434D01*
X8452866Y11208664D01*
X8443468Y11196726D01*
X8435594Y11183721D01*
X8429345Y11169853D01*
X8424824Y11155324D01*
X8422081Y11140389D01*
X8421166Y11125200D01*
X8422081Y11110010D01*
X8424824Y11095075D01*
X8429345Y11080546D01*
X8435594Y11066678D01*
X8443468Y11053673D01*
X8452866Y11041735D01*
X8463584Y11030966D01*
X8475573Y11021618D01*
X8488578Y11013744D01*
X8502446Y11007496D01*
X8516924Y11002975D01*
X8531910Y11000232D01*
G37*
G36*
X7040118Y10896600D02*
G01*
X7129525Y10896600D01*
X7129525Y10979810D01*
X7066584Y10979810D01*
X7060234Y10979099D01*
X7054799Y10977168D01*
X7049871Y10974120D01*
X7045807Y10970006D01*
X7042708Y10965129D01*
X7040829Y10959642D01*
X7040118Y10953343D01*
G37*
G36*
X1369314Y996492D02*
G01*
X1383436Y997458D01*
X1397355Y1000201D01*
X1410766Y1004773D01*
X1423517Y1011021D01*
X1435303Y1018895D01*
X1445971Y1028242D01*
X1455318Y1038910D01*
X1463192Y1050696D01*
X1469440Y1063447D01*
X1474012Y1076858D01*
X1476756Y1090777D01*
X1477721Y1104900D01*
X1476756Y1119022D01*
X1474012Y1132941D01*
X1469440Y1146352D01*
X1463192Y1159103D01*
X1455318Y1170889D01*
X1445971Y1181557D01*
X1435303Y1190904D01*
X1423517Y1198778D01*
X1410766Y1205026D01*
X1397355Y1209598D01*
X1383436Y1212342D01*
X1375460Y1212900D01*
X1371600Y1213916D01*
X1368450Y1216304D01*
X1366469Y1219758D01*
X1365961Y1223670D01*
X1366977Y1227531D01*
X1369415Y1230680D01*
X1372870Y1232662D01*
X1374952Y1233373D01*
X1387703Y1239621D01*
X1399489Y1247495D01*
X1410157Y1256842D01*
X1419504Y1267510D01*
X1427378Y1279296D01*
X1433626Y1292047D01*
X1438198Y1305458D01*
X1440942Y1319377D01*
X1441907Y1333500D01*
X1440942Y1347622D01*
X1438198Y1361541D01*
X1433626Y1374952D01*
X1427378Y1387703D01*
X1419504Y1399489D01*
X1410157Y1410157D01*
X1399489Y1419504D01*
X1387703Y1427378D01*
X1384198Y1429105D01*
X1380896Y1431696D01*
X1378915Y1435354D01*
X1378610Y1439519D01*
X1379982Y1443482D01*
X1382826Y1446530D01*
X1386687Y1448155D01*
X1397355Y1450289D01*
X1410766Y1454861D01*
X1423517Y1461109D01*
X1435303Y1468983D01*
X1445971Y1478330D01*
X1455318Y1488998D01*
X1463192Y1500784D01*
X1469440Y1513535D01*
X1474012Y1526946D01*
X1476756Y1540865D01*
X1477721Y1554988D01*
X1476756Y1569110D01*
X1474012Y1583029D01*
X1469440Y1596440D01*
X1463192Y1609191D01*
X1455318Y1620977D01*
X1445971Y1631645D01*
X1435303Y1640992D01*
X1423517Y1648866D01*
X1410766Y1655114D01*
X1397355Y1659686D01*
X1383436Y1662430D01*
X1369314Y1663395D01*
X1355191Y1662430D01*
X1341272Y1659686D01*
X1327861Y1655114D01*
X1315110Y1648866D01*
X1303324Y1640992D01*
X1292656Y1631645D01*
X1283309Y1620977D01*
X1275435Y1609191D01*
X1269187Y1596440D01*
X1264615Y1583029D01*
X1261872Y1569110D01*
X1260906Y1554988D01*
X1261872Y1540865D01*
X1264615Y1526946D01*
X1269187Y1513535D01*
X1275435Y1500784D01*
X1283309Y1488998D01*
X1292656Y1478330D01*
X1303324Y1468983D01*
X1315110Y1461109D01*
X1318615Y1459382D01*
X1321917Y1456791D01*
X1323898Y1453134D01*
X1324203Y1448968D01*
X1322832Y1445006D01*
X1319987Y1441958D01*
X1316126Y1440332D01*
X1305458Y1438198D01*
X1292047Y1433626D01*
X1279296Y1427378D01*
X1267510Y1419504D01*
X1256842Y1410157D01*
X1247495Y1399489D01*
X1239621Y1387703D01*
X1233373Y1374952D01*
X1228801Y1361541D01*
X1226058Y1347622D01*
X1225092Y1333500D01*
X1226058Y1319377D01*
X1228801Y1305458D01*
X1233373Y1292047D01*
X1239621Y1279296D01*
X1247495Y1267510D01*
X1256842Y1256842D01*
X1267510Y1247495D01*
X1279296Y1239621D01*
X1292047Y1233373D01*
X1305458Y1228801D01*
X1319377Y1226058D01*
X1327353Y1225499D01*
X1331214Y1224483D01*
X1334363Y1222095D01*
X1336344Y1218641D01*
X1336852Y1214729D01*
X1335836Y1210868D01*
X1333398Y1207719D01*
X1329944Y1205738D01*
X1327861Y1205026D01*
X1315110Y1198778D01*
X1303324Y1190904D01*
X1292656Y1181557D01*
X1283309Y1170889D01*
X1275435Y1159103D01*
X1269187Y1146352D01*
X1264615Y1132941D01*
X1261872Y1119022D01*
X1260906Y1104900D01*
X1261872Y1090777D01*
X1264615Y1076858D01*
X1269187Y1063447D01*
X1275435Y1050696D01*
X1283309Y1038910D01*
X1292656Y1028242D01*
X1303324Y1018895D01*
X1315110Y1011021D01*
X1327861Y1004773D01*
X1341272Y1000201D01*
X1355191Y997458D01*
G37*
G36*
X3217418Y10896600D02*
G01*
X3306826Y10896600D01*
X3306826Y10979810D01*
X3243884Y10979810D01*
X3237534Y10979099D01*
X3232099Y10977168D01*
X3227171Y10974120D01*
X3223107Y10970006D01*
X3220008Y10965129D01*
X3218129Y10959642D01*
X3217418Y10953343D01*
G37*
G36*
X1299718Y10896600D02*
G01*
X1389126Y10896600D01*
X1389126Y10979810D01*
X1326184Y10979810D01*
X1319834Y10979099D01*
X1314399Y10977168D01*
X1309471Y10974120D01*
X1305407Y10970006D01*
X1302308Y10965129D01*
X1300429Y10959642D01*
X1299718Y10953343D01*
G37*
G36*
X2014474Y10896600D02*
G01*
X2096820Y10896600D01*
X2094128Y10909757D01*
X2089759Y10922101D01*
X2083714Y10933734D01*
X2076196Y10944402D01*
X2067255Y10953953D01*
X2057095Y10962233D01*
X2045919Y10969040D01*
X2033930Y10974222D01*
X2021332Y10977778D01*
X2014474Y10978692D01*
G37*
G36*
X7754924Y10896600D02*
G01*
X7837220Y10896600D01*
X7834528Y10909757D01*
X7830159Y10922101D01*
X7824114Y10933734D01*
X7816596Y10944402D01*
X7807655Y10953953D01*
X7797495Y10962233D01*
X7786319Y10969040D01*
X7774330Y10974222D01*
X7761731Y10977778D01*
X7754924Y10978692D01*
G37*
G36*
X3932174Y10896600D02*
G01*
X4014520Y10896600D01*
X4011828Y10909757D01*
X4007459Y10922101D01*
X4001414Y10933734D01*
X3993896Y10944402D01*
X3984955Y10953953D01*
X3974795Y10962233D01*
X3963619Y10969040D01*
X3951630Y10974222D01*
X3939032Y10977778D01*
X3932174Y10978692D01*
G37*
G36*
X2014474Y10789107D02*
G01*
X2021332Y10790021D01*
X2033930Y10793526D01*
X2045919Y10798759D01*
X2057095Y10805566D01*
X2067255Y10813846D01*
X2076196Y10823397D01*
X2083714Y10834065D01*
X2089759Y10845698D01*
X2094128Y10858042D01*
X2096820Y10871200D01*
X2014474Y10871200D01*
G37*
G36*
X7754924Y10789107D02*
G01*
X7761731Y10790021D01*
X7774330Y10793526D01*
X7786319Y10798759D01*
X7797495Y10805566D01*
X7807655Y10813846D01*
X7816596Y10823397D01*
X7824114Y10834065D01*
X7830159Y10845698D01*
X7834528Y10858042D01*
X7837220Y10871200D01*
X7754924Y10871200D01*
G37*
G36*
X3932174Y10789107D02*
G01*
X3939032Y10790021D01*
X3951630Y10793526D01*
X3963619Y10798759D01*
X3974795Y10805566D01*
X3984955Y10813846D01*
X3993896Y10823397D01*
X4001414Y10834065D01*
X4007459Y10845698D01*
X4011828Y10858042D01*
X4014520Y10871200D01*
X3932174Y10871200D01*
G37*
G36*
X1414526Y10787989D02*
G01*
X1477416Y10787989D01*
X1483766Y10788700D01*
X1489202Y10790631D01*
X1494129Y10793679D01*
X1498193Y10797794D01*
X1501292Y10802670D01*
X1503172Y10808157D01*
X1503934Y10814456D01*
X1503934Y10824667D01*
X1504797Y10828832D01*
X1507286Y10832287D01*
X1510995Y10834370D01*
X1515211Y10834776D01*
X1519224Y10833404D01*
X1522374Y10830560D01*
X1527403Y10823397D01*
X1536344Y10813846D01*
X1546504Y10805566D01*
X1557680Y10798759D01*
X1569669Y10793526D01*
X1582267Y10790021D01*
X1595272Y10788243D01*
X1608328Y10788243D01*
X1621332Y10790021D01*
X1633931Y10793526D01*
X1645920Y10798759D01*
X1657096Y10805566D01*
X1667256Y10813846D01*
X1676196Y10823397D01*
X1683715Y10834065D01*
X1689760Y10845698D01*
X1692249Y10852658D01*
X1694383Y10856214D01*
X1697736Y10858601D01*
X1701800Y10859414D01*
X1705864Y10858601D01*
X1709216Y10856214D01*
X1711350Y10852658D01*
X1713839Y10845698D01*
X1719884Y10834065D01*
X1727403Y10823397D01*
X1736343Y10813846D01*
X1746504Y10805566D01*
X1757680Y10798759D01*
X1769668Y10793526D01*
X1782267Y10790021D01*
X1795272Y10788243D01*
X1808327Y10788243D01*
X1821332Y10790021D01*
X1833930Y10793526D01*
X1845919Y10798759D01*
X1857095Y10805566D01*
X1867255Y10813846D01*
X1876196Y10823397D01*
X1883714Y10834065D01*
X1889760Y10845698D01*
X1892249Y10852658D01*
X1894382Y10856214D01*
X1897735Y10858601D01*
X1901799Y10859414D01*
X1905863Y10858601D01*
X1909216Y10856214D01*
X1911350Y10852658D01*
X1913839Y10845698D01*
X1919884Y10834065D01*
X1927402Y10823397D01*
X1936343Y10813846D01*
X1946503Y10805566D01*
X1957679Y10798759D01*
X1969668Y10793526D01*
X1982266Y10790021D01*
X1989074Y10789107D01*
X1989074Y10871200D01*
X1907692Y10871200D01*
X1903780Y10871962D01*
X1900529Y10874197D01*
X1898294Y10877448D01*
X1897532Y10881360D01*
X1897532Y10886440D01*
X1898294Y10890351D01*
X1900529Y10893602D01*
X1903780Y10895838D01*
X1907692Y10896600D01*
X1989074Y10896600D01*
X1989074Y10978692D01*
X1982266Y10977778D01*
X1969668Y10974222D01*
X1957679Y10969040D01*
X1946503Y10962233D01*
X1936343Y10953953D01*
X1927402Y10944402D01*
X1919884Y10933734D01*
X1913839Y10922101D01*
X1911350Y10915142D01*
X1909216Y10911586D01*
X1905863Y10909198D01*
X1901799Y10908385D01*
X1897735Y10909198D01*
X1894382Y10911586D01*
X1892249Y10915142D01*
X1889760Y10922101D01*
X1883714Y10933734D01*
X1876196Y10944402D01*
X1867255Y10953953D01*
X1857095Y10962233D01*
X1845919Y10969040D01*
X1833930Y10974222D01*
X1821332Y10977778D01*
X1808327Y10979556D01*
X1795272Y10979556D01*
X1782267Y10977778D01*
X1769668Y10974222D01*
X1757680Y10969040D01*
X1746504Y10962233D01*
X1736343Y10953953D01*
X1727403Y10944402D01*
X1719884Y10933734D01*
X1713839Y10922101D01*
X1711350Y10915142D01*
X1709216Y10911586D01*
X1705864Y10909198D01*
X1701800Y10908385D01*
X1697736Y10909198D01*
X1694383Y10911586D01*
X1692249Y10915142D01*
X1689760Y10922101D01*
X1683715Y10933734D01*
X1676196Y10944402D01*
X1667256Y10953953D01*
X1657096Y10962233D01*
X1645920Y10969040D01*
X1633931Y10974222D01*
X1621332Y10977778D01*
X1608328Y10979556D01*
X1595272Y10979556D01*
X1582267Y10977778D01*
X1569669Y10974222D01*
X1557680Y10969040D01*
X1546504Y10962233D01*
X1536344Y10953953D01*
X1527403Y10944402D01*
X1522374Y10937240D01*
X1519224Y10934395D01*
X1515211Y10933023D01*
X1510995Y10933430D01*
X1507286Y10935512D01*
X1504797Y10938967D01*
X1503934Y10943132D01*
X1503934Y10953343D01*
X1503172Y10959642D01*
X1501292Y10965129D01*
X1498193Y10970006D01*
X1494129Y10974120D01*
X1489202Y10977168D01*
X1483766Y10979099D01*
X1477416Y10979810D01*
X1414526Y10979810D01*
X1414526Y10896600D01*
X1495907Y10896600D01*
X1499819Y10895838D01*
X1503070Y10893602D01*
X1505305Y10890351D01*
X1506067Y10886440D01*
X1506067Y10881360D01*
X1505305Y10877448D01*
X1503070Y10874197D01*
X1499819Y10871962D01*
X1495907Y10871200D01*
X1414526Y10871200D01*
G37*
G36*
X3332226Y10787989D02*
G01*
X3395116Y10787989D01*
X3401466Y10788700D01*
X3406901Y10790631D01*
X3411829Y10793679D01*
X3415893Y10797794D01*
X3418992Y10802670D01*
X3420872Y10808157D01*
X3421634Y10814456D01*
X3421634Y10824667D01*
X3422497Y10828832D01*
X3424986Y10832287D01*
X3428695Y10834370D01*
X3432911Y10834776D01*
X3436924Y10833404D01*
X3440074Y10830560D01*
X3445103Y10823397D01*
X3454044Y10813846D01*
X3464204Y10805566D01*
X3475380Y10798759D01*
X3487369Y10793526D01*
X3499967Y10790021D01*
X3512972Y10788243D01*
X3526028Y10788243D01*
X3539032Y10790021D01*
X3551631Y10793526D01*
X3563620Y10798759D01*
X3574796Y10805566D01*
X3584956Y10813846D01*
X3593896Y10823397D01*
X3601415Y10834065D01*
X3607460Y10845698D01*
X3609949Y10852658D01*
X3612083Y10856214D01*
X3615436Y10858601D01*
X3619500Y10859414D01*
X3623564Y10858601D01*
X3626916Y10856214D01*
X3629050Y10852658D01*
X3631539Y10845698D01*
X3637584Y10834065D01*
X3645103Y10823397D01*
X3654044Y10813846D01*
X3664204Y10805566D01*
X3675379Y10798759D01*
X3687368Y10793526D01*
X3699967Y10790021D01*
X3712972Y10788243D01*
X3726027Y10788243D01*
X3739032Y10790021D01*
X3751630Y10793526D01*
X3763619Y10798759D01*
X3774795Y10805566D01*
X3784955Y10813846D01*
X3793896Y10823397D01*
X3801414Y10834065D01*
X3807460Y10845698D01*
X3809949Y10852658D01*
X3812082Y10856214D01*
X3815435Y10858601D01*
X3819499Y10859414D01*
X3823563Y10858601D01*
X3826916Y10856214D01*
X3829050Y10852658D01*
X3831539Y10845698D01*
X3837584Y10834065D01*
X3845102Y10823397D01*
X3854043Y10813846D01*
X3864203Y10805566D01*
X3875379Y10798759D01*
X3887368Y10793526D01*
X3899966Y10790021D01*
X3906774Y10789107D01*
X3906774Y10871200D01*
X3825392Y10871200D01*
X3821480Y10871962D01*
X3818229Y10874197D01*
X3815994Y10877448D01*
X3815232Y10881360D01*
X3815232Y10886440D01*
X3815994Y10890351D01*
X3818229Y10893602D01*
X3821480Y10895838D01*
X3825392Y10896600D01*
X3906774Y10896600D01*
X3906774Y10978692D01*
X3899966Y10977778D01*
X3887368Y10974222D01*
X3875379Y10969040D01*
X3864203Y10962233D01*
X3854043Y10953953D01*
X3845102Y10944402D01*
X3837584Y10933734D01*
X3831539Y10922101D01*
X3829050Y10915142D01*
X3826916Y10911586D01*
X3823563Y10909198D01*
X3819499Y10908385D01*
X3815435Y10909198D01*
X3812082Y10911586D01*
X3809949Y10915142D01*
X3807460Y10922101D01*
X3801414Y10933734D01*
X3793896Y10944402D01*
X3784955Y10953953D01*
X3774795Y10962233D01*
X3763619Y10969040D01*
X3751630Y10974222D01*
X3739032Y10977778D01*
X3726027Y10979556D01*
X3712972Y10979556D01*
X3699967Y10977778D01*
X3687368Y10974222D01*
X3675379Y10969040D01*
X3664204Y10962233D01*
X3654044Y10953953D01*
X3645103Y10944402D01*
X3637584Y10933734D01*
X3631539Y10922101D01*
X3629050Y10915142D01*
X3626916Y10911586D01*
X3623564Y10909198D01*
X3619500Y10908385D01*
X3615436Y10909198D01*
X3612083Y10911586D01*
X3609949Y10915142D01*
X3607460Y10922101D01*
X3601415Y10933734D01*
X3593896Y10944402D01*
X3584956Y10953953D01*
X3574796Y10962233D01*
X3563620Y10969040D01*
X3551631Y10974222D01*
X3539032Y10977778D01*
X3526028Y10979556D01*
X3512972Y10979556D01*
X3499967Y10977778D01*
X3487369Y10974222D01*
X3475380Y10969040D01*
X3464204Y10962233D01*
X3454044Y10953953D01*
X3445103Y10944402D01*
X3440074Y10937240D01*
X3436924Y10934395D01*
X3432911Y10933023D01*
X3428695Y10933430D01*
X3424986Y10935512D01*
X3422497Y10938967D01*
X3421634Y10943132D01*
X3421634Y10953343D01*
X3420872Y10959642D01*
X3418992Y10965129D01*
X3415893Y10970006D01*
X3411829Y10974120D01*
X3406901Y10977168D01*
X3401466Y10979099D01*
X3395116Y10979810D01*
X3332226Y10979810D01*
X3332226Y10896600D01*
X3413607Y10896600D01*
X3417519Y10895838D01*
X3420770Y10893602D01*
X3423005Y10890351D01*
X3423767Y10886440D01*
X3423767Y10881360D01*
X3423005Y10877448D01*
X3420770Y10874197D01*
X3417519Y10871962D01*
X3413607Y10871200D01*
X3332226Y10871200D01*
G37*
G36*
X7154925Y10787989D02*
G01*
X7217816Y10787989D01*
X7224166Y10788700D01*
X7229602Y10790631D01*
X7234529Y10793679D01*
X7238593Y10797794D01*
X7241692Y10802670D01*
X7243572Y10808157D01*
X7244334Y10814456D01*
X7244334Y10824667D01*
X7245197Y10828832D01*
X7247686Y10832287D01*
X7251395Y10834370D01*
X7255611Y10834776D01*
X7259624Y10833404D01*
X7262774Y10830560D01*
X7267803Y10823397D01*
X7276744Y10813846D01*
X7286904Y10805566D01*
X7298080Y10798759D01*
X7310069Y10793526D01*
X7322667Y10790021D01*
X7335672Y10788243D01*
X7348728Y10788243D01*
X7361732Y10790021D01*
X7374331Y10793526D01*
X7386320Y10798759D01*
X7397496Y10805566D01*
X7407656Y10813846D01*
X7416596Y10823397D01*
X7424115Y10834065D01*
X7430160Y10845698D01*
X7432649Y10852658D01*
X7434783Y10856214D01*
X7438136Y10858601D01*
X7442200Y10859414D01*
X7446264Y10858601D01*
X7449616Y10856214D01*
X7451750Y10852658D01*
X7454239Y10845698D01*
X7460284Y10834065D01*
X7467803Y10823397D01*
X7476744Y10813846D01*
X7486903Y10805566D01*
X7498080Y10798759D01*
X7510068Y10793526D01*
X7522667Y10790021D01*
X7535672Y10788243D01*
X7548727Y10788243D01*
X7561732Y10790021D01*
X7574330Y10793526D01*
X7586319Y10798759D01*
X7597495Y10805566D01*
X7607655Y10813846D01*
X7616596Y10823397D01*
X7624114Y10834065D01*
X7630159Y10845698D01*
X7632649Y10852658D01*
X7634782Y10856214D01*
X7638135Y10858601D01*
X7642199Y10859414D01*
X7646263Y10858601D01*
X7649616Y10856214D01*
X7651750Y10852658D01*
X7654239Y10845698D01*
X7660284Y10834065D01*
X7667802Y10823397D01*
X7676743Y10813846D01*
X7686903Y10805566D01*
X7698079Y10798759D01*
X7710068Y10793526D01*
X7722666Y10790021D01*
X7729524Y10789107D01*
X7729524Y10871200D01*
X7648092Y10871200D01*
X7644180Y10871962D01*
X7640929Y10874197D01*
X7638694Y10877448D01*
X7637932Y10881360D01*
X7637932Y10886440D01*
X7638694Y10890351D01*
X7640929Y10893602D01*
X7644180Y10895838D01*
X7648092Y10896600D01*
X7729524Y10896600D01*
X7729524Y10978692D01*
X7722666Y10977778D01*
X7710068Y10974222D01*
X7698079Y10969040D01*
X7686903Y10962233D01*
X7676743Y10953953D01*
X7667802Y10944402D01*
X7660284Y10933734D01*
X7654239Y10922101D01*
X7651750Y10915142D01*
X7649616Y10911586D01*
X7646263Y10909198D01*
X7642199Y10908385D01*
X7638135Y10909198D01*
X7634782Y10911586D01*
X7632649Y10915142D01*
X7630159Y10922101D01*
X7624114Y10933734D01*
X7616596Y10944402D01*
X7607655Y10953953D01*
X7597495Y10962233D01*
X7586319Y10969040D01*
X7574330Y10974222D01*
X7561732Y10977778D01*
X7548727Y10979556D01*
X7535672Y10979556D01*
X7522667Y10977778D01*
X7510068Y10974222D01*
X7498080Y10969040D01*
X7486903Y10962233D01*
X7476744Y10953953D01*
X7467803Y10944402D01*
X7460284Y10933734D01*
X7454239Y10922101D01*
X7451750Y10915142D01*
X7449616Y10911586D01*
X7446264Y10909198D01*
X7442200Y10908385D01*
X7438136Y10909198D01*
X7434783Y10911586D01*
X7432649Y10915142D01*
X7430160Y10922101D01*
X7424115Y10933734D01*
X7416596Y10944402D01*
X7407656Y10953953D01*
X7397496Y10962233D01*
X7386320Y10969040D01*
X7374331Y10974222D01*
X7361732Y10977778D01*
X7348728Y10979556D01*
X7335672Y10979556D01*
X7322667Y10977778D01*
X7310069Y10974222D01*
X7298080Y10969040D01*
X7286904Y10962233D01*
X7276744Y10953953D01*
X7267803Y10944402D01*
X7262774Y10937240D01*
X7259624Y10934395D01*
X7255611Y10933023D01*
X7251395Y10933430D01*
X7247686Y10935512D01*
X7245197Y10938967D01*
X7244334Y10943132D01*
X7244334Y10953343D01*
X7243572Y10959642D01*
X7241692Y10965129D01*
X7238593Y10970006D01*
X7234529Y10974120D01*
X7229602Y10977168D01*
X7224166Y10979099D01*
X7217816Y10979810D01*
X7154925Y10979810D01*
X7154925Y10896600D01*
X7236307Y10896600D01*
X7240219Y10895838D01*
X7243470Y10893602D01*
X7245705Y10890351D01*
X7246467Y10886440D01*
X7246467Y10881360D01*
X7245705Y10877448D01*
X7243470Y10874197D01*
X7240219Y10871962D01*
X7236307Y10871200D01*
X7154925Y10871200D01*
G37*
G36*
X3243884Y10787989D02*
G01*
X3306826Y10787989D01*
X3306826Y10871200D01*
X3217418Y10871200D01*
X3217418Y10814456D01*
X3218129Y10808157D01*
X3220008Y10802670D01*
X3223107Y10797794D01*
X3227171Y10793679D01*
X3232099Y10790631D01*
X3237534Y10788700D01*
G37*
G36*
X7066584Y10787989D02*
G01*
X7129525Y10787989D01*
X7129525Y10871200D01*
X7040118Y10871200D01*
X7040118Y10814456D01*
X7040829Y10808157D01*
X7042708Y10802670D01*
X7045807Y10797794D01*
X7049871Y10793679D01*
X7054799Y10790631D01*
X7060234Y10788700D01*
G37*
G36*
X1326184Y10787989D02*
G01*
X1389126Y10787989D01*
X1389126Y10871200D01*
X1299718Y10871200D01*
X1299718Y10814456D01*
X1300429Y10808157D01*
X1302308Y10802670D01*
X1305407Y10797794D01*
X1309471Y10793679D01*
X1314399Y10790631D01*
X1319834Y10788700D01*
G37*
G36*
X6021120Y10037318D02*
G01*
X6035598Y10038232D01*
X6049924Y10040924D01*
X6063742Y10045446D01*
X6076950Y10051643D01*
X6089192Y10059416D01*
X6100419Y10068712D01*
X6110376Y10079329D01*
X6118961Y10091115D01*
X6125972Y10103866D01*
X6131306Y10117378D01*
X6134912Y10131501D01*
X6136741Y10145928D01*
X6136741Y10160457D01*
X6134912Y10174884D01*
X6131306Y10189006D01*
X6125972Y10202519D01*
X6118961Y10215270D01*
X6110376Y10227056D01*
X6100419Y10237673D01*
X6089192Y10246969D01*
X6076950Y10254742D01*
X6063742Y10260939D01*
X6049924Y10265460D01*
X6035598Y10268153D01*
X6021120Y10269067D01*
X6006592Y10268153D01*
X5992266Y10265460D01*
X5978448Y10260939D01*
X5965240Y10254742D01*
X5952998Y10246969D01*
X5941771Y10237673D01*
X5931814Y10227056D01*
X5923229Y10215270D01*
X5916218Y10202519D01*
X5910884Y10189006D01*
X5907278Y10174884D01*
X5905449Y10160457D01*
X5905449Y10145928D01*
X5907278Y10131501D01*
X5910884Y10117378D01*
X5916218Y10103866D01*
X5923229Y10091115D01*
X5931814Y10079329D01*
X5941771Y10068712D01*
X5952998Y10059416D01*
X5965240Y10051643D01*
X5978448Y10045446D01*
X5992266Y10040924D01*
X6006592Y10038232D01*
G37*
G36*
X5132120Y10037318D02*
G01*
X5146598Y10038232D01*
X5160924Y10040924D01*
X5174742Y10045446D01*
X5187950Y10051643D01*
X5200192Y10059416D01*
X5211419Y10068712D01*
X5221376Y10079329D01*
X5229961Y10091115D01*
X5236972Y10103866D01*
X5242306Y10117378D01*
X5245912Y10131501D01*
X5247741Y10145928D01*
X5247741Y10160457D01*
X5245912Y10174884D01*
X5242306Y10189006D01*
X5236972Y10202519D01*
X5229961Y10215270D01*
X5221376Y10227056D01*
X5211419Y10237673D01*
X5200192Y10246969D01*
X5187950Y10254742D01*
X5174742Y10260939D01*
X5160924Y10265460D01*
X5146598Y10268153D01*
X5132120Y10269067D01*
X5117592Y10268153D01*
X5103266Y10265460D01*
X5089448Y10260939D01*
X5076240Y10254742D01*
X5063998Y10246969D01*
X5052771Y10237673D01*
X5042814Y10227056D01*
X5034229Y10215270D01*
X5027218Y10202519D01*
X5021884Y10189006D01*
X5018278Y10174884D01*
X5016449Y10160457D01*
X5016449Y10145928D01*
X5018278Y10131501D01*
X5021884Y10117378D01*
X5027218Y10103866D01*
X5034229Y10091115D01*
X5042814Y10079329D01*
X5052771Y10068712D01*
X5063998Y10059416D01*
X5076240Y10051643D01*
X5089448Y10045446D01*
X5103266Y10040924D01*
X5117592Y10038232D01*
G37*
G36*
X365810Y9886492D02*
G01*
X628700Y9886492D01*
X628700Y10149179D01*
X612546Y10148163D01*
X589686Y10144810D01*
X567182Y10139527D01*
X545236Y10132364D01*
X523900Y10123424D01*
X503428Y10112705D01*
X483920Y10100360D01*
X465531Y10086390D01*
X448360Y10070896D01*
X432562Y10054082D01*
X418185Y10035946D01*
X405384Y10016693D01*
X394258Y9996474D01*
X384860Y9975342D01*
X377291Y9953548D01*
X371551Y9931146D01*
X367690Y9908387D01*
G37*
G36*
X584200Y1766417D02*
G01*
X599389Y1767332D01*
X614324Y1770075D01*
X628853Y1774596D01*
X642721Y1780844D01*
X655726Y1788718D01*
X667664Y1798066D01*
X678434Y1808835D01*
X687781Y1820773D01*
X695655Y1833778D01*
X701903Y1847646D01*
X706424Y1862175D01*
X709168Y1877110D01*
X710082Y1892300D01*
X709168Y1907489D01*
X706424Y1922424D01*
X701903Y1936953D01*
X695655Y1950821D01*
X687781Y1963826D01*
X678434Y1975764D01*
X667664Y1986534D01*
X655726Y1995881D01*
X642721Y2003755D01*
X628853Y2010003D01*
X614324Y2014524D01*
X599389Y2017268D01*
X584200Y2018182D01*
X569010Y2017268D01*
X554075Y2014524D01*
X539546Y2010003D01*
X525678Y2003755D01*
X512673Y1995881D01*
X500735Y1986534D01*
X489966Y1975764D01*
X480618Y1963826D01*
X472744Y1950821D01*
X466496Y1936953D01*
X461975Y1922424D01*
X459232Y1907489D01*
X458317Y1892300D01*
X459232Y1877110D01*
X461975Y1862175D01*
X466496Y1847646D01*
X472744Y1833778D01*
X480618Y1820773D01*
X489966Y1808835D01*
X500735Y1798066D01*
X512673Y1788718D01*
X525678Y1780844D01*
X539546Y1774596D01*
X554075Y1770075D01*
X569010Y1767332D01*
G37*
G36*
X8547100Y1766417D02*
G01*
X8562238Y1767332D01*
X8577224Y1770075D01*
X8591702Y1774596D01*
X8605570Y1780844D01*
X8618575Y1788718D01*
X8630564Y1798066D01*
X8641283Y1808835D01*
X8650681Y1820773D01*
X8658555Y1833778D01*
X8664803Y1847646D01*
X8669324Y1862175D01*
X8672068Y1877110D01*
X8672982Y1892300D01*
X8672068Y1907489D01*
X8669324Y1922424D01*
X8664803Y1936953D01*
X8658555Y1950821D01*
X8650681Y1963826D01*
X8641283Y1975764D01*
X8630564Y1986534D01*
X8618575Y1995881D01*
X8605570Y2003755D01*
X8591702Y2010003D01*
X8577224Y2014524D01*
X8562238Y2017268D01*
X8547100Y2018182D01*
X8531910Y2017268D01*
X8516924Y2014524D01*
X8502446Y2010003D01*
X8488578Y2003755D01*
X8475573Y1995881D01*
X8463584Y1986534D01*
X8452866Y1975764D01*
X8443468Y1963826D01*
X8435594Y1950821D01*
X8429345Y1936953D01*
X8424824Y1922424D01*
X8422081Y1907489D01*
X8421166Y1892300D01*
X8422081Y1877110D01*
X8424824Y1862175D01*
X8429345Y1847646D01*
X8435594Y1833778D01*
X8443468Y1820773D01*
X8452866Y1808835D01*
X8463584Y1798066D01*
X8475573Y1788718D01*
X8488578Y1780844D01*
X8502446Y1774596D01*
X8516924Y1770075D01*
X8531910Y1767332D01*
G37*
G36*
X1714500Y1999792D02*
G01*
X1728622Y2000757D01*
X1742541Y2003501D01*
X1755952Y2008073D01*
X1768703Y2014321D01*
X1780489Y2022195D01*
X1791157Y2031542D01*
X1800504Y2042210D01*
X1808378Y2053996D01*
X1813255Y2063902D01*
X1815490Y2066899D01*
X1818690Y2068880D01*
X1822348Y2069592D01*
X1891792Y2069592D01*
X1899818Y2070404D01*
X1907032Y2072589D01*
X1913737Y2076145D01*
X1919935Y2081275D01*
X1970328Y2131618D01*
X1973427Y2133752D01*
X1977085Y2134616D01*
X1980793Y2134057D01*
X1991258Y2130501D01*
X2005177Y2127758D01*
X2019300Y2126792D01*
X2033422Y2127758D01*
X2047341Y2130501D01*
X2057806Y2134057D01*
X2061514Y2134616D01*
X2065172Y2133752D01*
X2068271Y2131618D01*
X2118664Y2081275D01*
X2124862Y2076145D01*
X2131568Y2072589D01*
X2138781Y2070404D01*
X2146808Y2069592D01*
X3524351Y2069592D01*
X3528009Y2068880D01*
X3531209Y2066899D01*
X3533444Y2063902D01*
X3538321Y2053996D01*
X3546195Y2042210D01*
X3555542Y2031542D01*
X3566210Y2022195D01*
X3577996Y2014321D01*
X3590747Y2008073D01*
X3604158Y2003501D01*
X3618077Y2000757D01*
X3632200Y1999792D01*
X3646322Y2000757D01*
X3660241Y2003501D01*
X3673652Y2008073D01*
X3686403Y2014321D01*
X3698189Y2022195D01*
X3708857Y2031542D01*
X3718204Y2042210D01*
X3726078Y2053996D01*
X3730955Y2063902D01*
X3733190Y2066899D01*
X3736390Y2068880D01*
X3740048Y2069592D01*
X3809492Y2069592D01*
X3817518Y2070404D01*
X3824732Y2072589D01*
X3831437Y2076145D01*
X3837635Y2081275D01*
X3888028Y2131618D01*
X3891127Y2133752D01*
X3894785Y2134616D01*
X3898493Y2134057D01*
X3908958Y2130501D01*
X3922877Y2127758D01*
X3937000Y2126792D01*
X3951122Y2127758D01*
X3965041Y2130501D01*
X3975506Y2134057D01*
X3979214Y2134616D01*
X3982872Y2133752D01*
X3985971Y2131618D01*
X4036364Y2081275D01*
X4042562Y2076145D01*
X4049268Y2072589D01*
X4056481Y2070404D01*
X4064508Y2069592D01*
X4273702Y2069592D01*
X4277563Y2068830D01*
X4280865Y2066594D01*
X4282440Y2065020D01*
X4290517Y2059381D01*
X4299407Y2055266D01*
X4308906Y2052726D01*
X4318711Y2051862D01*
X4328464Y2052726D01*
X4337964Y2055266D01*
X4346854Y2059381D01*
X4354931Y2065020D01*
X4356506Y2066594D01*
X4359808Y2068830D01*
X4363669Y2069592D01*
X7347051Y2069592D01*
X7350709Y2068880D01*
X7353909Y2066899D01*
X7356144Y2063902D01*
X7361021Y2053996D01*
X7368895Y2042210D01*
X7378242Y2031542D01*
X7388910Y2022195D01*
X7400696Y2014321D01*
X7413447Y2008073D01*
X7426858Y2003501D01*
X7440777Y2000757D01*
X7454900Y1999792D01*
X7469022Y2000757D01*
X7482941Y2003501D01*
X7496352Y2008073D01*
X7509103Y2014321D01*
X7520889Y2022195D01*
X7531557Y2031542D01*
X7540904Y2042210D01*
X7548778Y2053996D01*
X7553655Y2063902D01*
X7555890Y2066899D01*
X7559090Y2068880D01*
X7562748Y2069592D01*
X7632192Y2069592D01*
X7640218Y2070404D01*
X7647431Y2072589D01*
X7654137Y2076145D01*
X7660335Y2081275D01*
X7710728Y2131618D01*
X7713827Y2133752D01*
X7717485Y2134616D01*
X7721193Y2134057D01*
X7731658Y2130501D01*
X7745577Y2127758D01*
X7759700Y2126792D01*
X7773822Y2127758D01*
X7787741Y2130501D01*
X7801152Y2135073D01*
X7813903Y2141321D01*
X7825689Y2149195D01*
X7836357Y2158542D01*
X7845704Y2169210D01*
X7853578Y2180996D01*
X7859826Y2193747D01*
X7864398Y2207158D01*
X7867142Y2221077D01*
X7868107Y2235200D01*
X7867142Y2249322D01*
X7864398Y2263241D01*
X7859826Y2276652D01*
X7853578Y2289403D01*
X7845704Y2301189D01*
X7836357Y2311857D01*
X7825689Y2321204D01*
X7813903Y2329078D01*
X7804861Y2333498D01*
X7801406Y2336292D01*
X7799476Y2340203D01*
X7799374Y2344623D01*
X7801152Y2348636D01*
X7804454Y2351532D01*
X7808874Y2352802D01*
X7822793Y2355545D01*
X7836204Y2360117D01*
X7848955Y2366365D01*
X7860741Y2374239D01*
X7871409Y2383586D01*
X7880756Y2394254D01*
X7888630Y2406040D01*
X7894878Y2418791D01*
X7899450Y2432202D01*
X7902194Y2446121D01*
X7903159Y2460244D01*
X7902194Y2474366D01*
X7899450Y2488285D01*
X7894878Y2501696D01*
X7888630Y2514447D01*
X7880756Y2526233D01*
X7871409Y2536901D01*
X7860741Y2546248D01*
X7848955Y2554122D01*
X7836204Y2560370D01*
X7822793Y2564942D01*
X7808671Y2567736D01*
X7804454Y2568956D01*
X7801152Y2571851D01*
X7799374Y2575864D01*
X7799476Y2580284D01*
X7801406Y2584196D01*
X7804861Y2586990D01*
X7813903Y2591409D01*
X7825689Y2599283D01*
X7836357Y2608630D01*
X7845704Y2619298D01*
X7853578Y2631084D01*
X7859826Y2643835D01*
X7864398Y2657246D01*
X7867142Y2671165D01*
X7868107Y2685288D01*
X7867142Y2699410D01*
X7864398Y2713329D01*
X7859826Y2726740D01*
X7853578Y2739491D01*
X7845704Y2751277D01*
X7836357Y2761945D01*
X7825689Y2771292D01*
X7813903Y2779166D01*
X7801152Y2785414D01*
X7787741Y2789986D01*
X7773822Y2792730D01*
X7759700Y2793695D01*
X7745577Y2792730D01*
X7731658Y2789986D01*
X7718247Y2785414D01*
X7705496Y2779166D01*
X7693710Y2771292D01*
X7683042Y2761945D01*
X7673695Y2751277D01*
X7665821Y2739491D01*
X7659573Y2726740D01*
X7655001Y2713329D01*
X7652258Y2699410D01*
X7651292Y2685288D01*
X7652258Y2671165D01*
X7655001Y2657246D01*
X7659573Y2643835D01*
X7665821Y2631084D01*
X7673695Y2619298D01*
X7683042Y2608630D01*
X7693710Y2599283D01*
X7705496Y2591409D01*
X7718247Y2585161D01*
X7731658Y2580589D01*
X7745780Y2577795D01*
X7749997Y2576576D01*
X7753299Y2573680D01*
X7755077Y2569667D01*
X7754975Y2565247D01*
X7753045Y2561336D01*
X7749590Y2558542D01*
X7740548Y2554122D01*
X7728762Y2546248D01*
X7718094Y2536901D01*
X7708747Y2526233D01*
X7700873Y2514447D01*
X7694625Y2501696D01*
X7690053Y2488285D01*
X7687309Y2474366D01*
X7686344Y2460244D01*
X7687309Y2446121D01*
X7690053Y2432202D01*
X7694625Y2418791D01*
X7700873Y2406040D01*
X7708747Y2394254D01*
X7718094Y2383586D01*
X7728762Y2374239D01*
X7740548Y2366365D01*
X7749590Y2361946D01*
X7753045Y2359152D01*
X7754975Y2355240D01*
X7755077Y2350820D01*
X7753299Y2346807D01*
X7749997Y2343912D01*
X7745577Y2342642D01*
X7731658Y2339898D01*
X7718247Y2335326D01*
X7705496Y2329078D01*
X7693710Y2321204D01*
X7683042Y2311857D01*
X7673695Y2301189D01*
X7665821Y2289403D01*
X7659573Y2276652D01*
X7655001Y2263241D01*
X7652258Y2249322D01*
X7651292Y2235200D01*
X7652258Y2221077D01*
X7655001Y2207158D01*
X7658557Y2196693D01*
X7659116Y2192985D01*
X7658252Y2189327D01*
X7656118Y2186228D01*
X7619695Y2149805D01*
X7616393Y2147570D01*
X7612481Y2146808D01*
X7562748Y2146808D01*
X7559090Y2147519D01*
X7555890Y2149500D01*
X7553655Y2152497D01*
X7548778Y2162403D01*
X7540904Y2174189D01*
X7531557Y2184857D01*
X7520889Y2194204D01*
X7509103Y2202078D01*
X7496352Y2208326D01*
X7482941Y2212898D01*
X7469022Y2215642D01*
X7454900Y2216607D01*
X7440777Y2215642D01*
X7426858Y2212898D01*
X7413447Y2208326D01*
X7400696Y2202078D01*
X7388910Y2194204D01*
X7378242Y2184857D01*
X7368895Y2174189D01*
X7361021Y2162403D01*
X7356144Y2152497D01*
X7353909Y2149500D01*
X7350709Y2147519D01*
X7347051Y2146808D01*
X7198461Y2146808D01*
X7194702Y2147519D01*
X7191451Y2149652D01*
X7189216Y2152751D01*
X7188301Y2156510D01*
X7188911Y2160320D01*
X7190841Y2163673D01*
X7195718Y2169210D01*
X7203592Y2180996D01*
X7209840Y2193747D01*
X7214412Y2207158D01*
X7217156Y2221077D01*
X7218121Y2235200D01*
X7217156Y2249322D01*
X7214412Y2263241D01*
X7209840Y2276652D01*
X7203592Y2289403D01*
X7195718Y2301189D01*
X7186371Y2311857D01*
X7175703Y2321204D01*
X7163917Y2329078D01*
X7151166Y2335326D01*
X7137755Y2339898D01*
X7123836Y2342642D01*
X7115860Y2343200D01*
X7112000Y2344216D01*
X7108850Y2346604D01*
X7106869Y2350058D01*
X7106361Y2353970D01*
X7107377Y2357831D01*
X7109815Y2360980D01*
X7113270Y2362962D01*
X7115352Y2363673D01*
X7128103Y2369921D01*
X7139889Y2377795D01*
X7150557Y2387142D01*
X7159904Y2397810D01*
X7167778Y2409596D01*
X7174026Y2422347D01*
X7178598Y2435758D01*
X7181342Y2449677D01*
X7182307Y2463800D01*
X7181342Y2477922D01*
X7178598Y2491841D01*
X7174026Y2505252D01*
X7167778Y2518003D01*
X7159904Y2529789D01*
X7150557Y2540457D01*
X7139889Y2549804D01*
X7128103Y2557678D01*
X7124598Y2559405D01*
X7121296Y2561996D01*
X7119315Y2565654D01*
X7119010Y2569819D01*
X7120381Y2573782D01*
X7123226Y2576830D01*
X7127087Y2578455D01*
X7137755Y2580589D01*
X7151166Y2585161D01*
X7163917Y2591409D01*
X7175703Y2599283D01*
X7186371Y2608630D01*
X7195718Y2619298D01*
X7203592Y2631084D01*
X7209840Y2643835D01*
X7214412Y2657246D01*
X7217156Y2671165D01*
X7218121Y2685288D01*
X7217156Y2699410D01*
X7214412Y2713329D01*
X7209840Y2726740D01*
X7203592Y2739491D01*
X7195718Y2751277D01*
X7186371Y2761945D01*
X7184237Y2763774D01*
X7181799Y2767025D01*
X7180783Y2770987D01*
X7181443Y2775000D01*
X7183577Y2778455D01*
X7186930Y2780741D01*
X7190943Y2781554D01*
X7326833Y2781554D01*
X7330490Y2780893D01*
X7333691Y2778912D01*
X7335926Y2775915D01*
X7340853Y2765958D01*
X7348728Y2754172D01*
X7358075Y2743504D01*
X7368743Y2734157D01*
X7380528Y2726283D01*
X7393228Y2720035D01*
X7406640Y2715463D01*
X7420559Y2712720D01*
X7434732Y2711754D01*
X7448854Y2712720D01*
X7462774Y2715463D01*
X7476185Y2720035D01*
X7488885Y2726283D01*
X7500670Y2734157D01*
X7511338Y2743504D01*
X7520686Y2754172D01*
X7528559Y2765958D01*
X7534859Y2778709D01*
X7539380Y2792120D01*
X7542174Y2806039D01*
X7543088Y2820162D01*
X7542174Y2834284D01*
X7539380Y2848203D01*
X7534859Y2861614D01*
X7528559Y2874365D01*
X7520686Y2886151D01*
X7511338Y2896819D01*
X7500670Y2906166D01*
X7488885Y2914040D01*
X7476185Y2920288D01*
X7462774Y2924860D01*
X7448854Y2927604D01*
X7434732Y2928569D01*
X7420559Y2927604D01*
X7406640Y2924860D01*
X7393228Y2920288D01*
X7380528Y2914040D01*
X7368743Y2906166D01*
X7358075Y2896819D01*
X7348728Y2886151D01*
X7340853Y2874365D01*
X7335977Y2864459D01*
X7333691Y2861462D01*
X7330541Y2859481D01*
X7326833Y2858770D01*
X4362907Y2858770D01*
X4358995Y2859582D01*
X4346854Y2868218D01*
X4337964Y2872333D01*
X4328464Y2874873D01*
X4318711Y2875737D01*
X4308906Y2874873D01*
X4299407Y2872333D01*
X4290517Y2868218D01*
X4278376Y2859582D01*
X4274464Y2858770D01*
X3719880Y2858770D01*
X3716172Y2859481D01*
X3713022Y2861462D01*
X3710736Y2864459D01*
X3705860Y2874365D01*
X3697986Y2886151D01*
X3688638Y2896819D01*
X3677970Y2906166D01*
X3666185Y2914040D01*
X3653485Y2920288D01*
X3640074Y2924860D01*
X3626154Y2927604D01*
X3612032Y2928569D01*
X3597859Y2927604D01*
X3583940Y2924860D01*
X3570528Y2920288D01*
X3557828Y2914040D01*
X3546043Y2906166D01*
X3535375Y2896819D01*
X3526028Y2886151D01*
X3518154Y2874365D01*
X3513277Y2864459D01*
X3510991Y2861462D01*
X3507841Y2859481D01*
X3504133Y2858770D01*
X1802180Y2858770D01*
X1798472Y2859481D01*
X1795322Y2861462D01*
X1793036Y2864459D01*
X1788160Y2874365D01*
X1780286Y2886151D01*
X1770938Y2896819D01*
X1760270Y2906166D01*
X1748485Y2914040D01*
X1735785Y2920288D01*
X1722374Y2924860D01*
X1708454Y2927604D01*
X1694332Y2928569D01*
X1680159Y2927604D01*
X1666239Y2924860D01*
X1652828Y2920288D01*
X1640128Y2914040D01*
X1628343Y2906166D01*
X1617675Y2896819D01*
X1608328Y2886151D01*
X1600454Y2874365D01*
X1594154Y2861614D01*
X1589633Y2848203D01*
X1586839Y2834284D01*
X1585925Y2820162D01*
X1586839Y2806039D01*
X1589633Y2792120D01*
X1594154Y2778709D01*
X1600454Y2765958D01*
X1608328Y2754172D01*
X1617675Y2743504D01*
X1628343Y2734157D01*
X1640128Y2726283D01*
X1652828Y2720035D01*
X1666239Y2715463D01*
X1680159Y2712720D01*
X1694332Y2711754D01*
X1708454Y2712720D01*
X1722374Y2715463D01*
X1735785Y2720035D01*
X1748485Y2726283D01*
X1760270Y2734157D01*
X1770938Y2743504D01*
X1780286Y2754172D01*
X1788160Y2765958D01*
X1793087Y2775915D01*
X1795322Y2778912D01*
X1798523Y2780893D01*
X1802180Y2781554D01*
X1938070Y2781554D01*
X1942084Y2780741D01*
X1945436Y2778455D01*
X1947570Y2775000D01*
X1948230Y2770987D01*
X1947214Y2767025D01*
X1944776Y2763774D01*
X1942642Y2761945D01*
X1933295Y2751277D01*
X1925421Y2739491D01*
X1919173Y2726740D01*
X1914601Y2713329D01*
X1911857Y2699410D01*
X1910892Y2685288D01*
X1911857Y2671165D01*
X1914601Y2657246D01*
X1919173Y2643835D01*
X1925421Y2631084D01*
X1933295Y2619298D01*
X1942642Y2608630D01*
X1953310Y2599283D01*
X1965096Y2591409D01*
X1977847Y2585161D01*
X1991258Y2580589D01*
X2005380Y2577795D01*
X2009597Y2576576D01*
X2012899Y2573680D01*
X2014677Y2569667D01*
X2014575Y2565247D01*
X2012645Y2561336D01*
X2009190Y2558542D01*
X2000148Y2554122D01*
X1988362Y2546248D01*
X1977694Y2536901D01*
X1968347Y2526233D01*
X1960473Y2514447D01*
X1954225Y2501696D01*
X1949653Y2488285D01*
X1946910Y2474366D01*
X1945944Y2460244D01*
X1946910Y2446121D01*
X1949653Y2432202D01*
X1954225Y2418791D01*
X1960473Y2406040D01*
X1968347Y2394254D01*
X1977694Y2383586D01*
X1988362Y2374239D01*
X2000148Y2366365D01*
X2009190Y2361946D01*
X2012645Y2359152D01*
X2014575Y2355240D01*
X2014677Y2350820D01*
X2012899Y2346807D01*
X2009597Y2343912D01*
X2005177Y2342642D01*
X1991258Y2339898D01*
X1977847Y2335326D01*
X1965096Y2329078D01*
X1953310Y2321204D01*
X1942642Y2311857D01*
X1933295Y2301189D01*
X1925421Y2289403D01*
X1919173Y2276652D01*
X1914601Y2263241D01*
X1911857Y2249322D01*
X1910892Y2235200D01*
X1911857Y2221077D01*
X1914601Y2207158D01*
X1918157Y2196693D01*
X1918716Y2192985D01*
X1917852Y2189327D01*
X1915718Y2186228D01*
X1879295Y2149805D01*
X1875993Y2147570D01*
X1872081Y2146808D01*
X1822348Y2146808D01*
X1818690Y2147519D01*
X1815490Y2149500D01*
X1813255Y2152497D01*
X1808378Y2162403D01*
X1800504Y2174189D01*
X1791157Y2184857D01*
X1780489Y2194204D01*
X1768703Y2202078D01*
X1755952Y2208326D01*
X1742541Y2212898D01*
X1728622Y2215642D01*
X1714500Y2216607D01*
X1700377Y2215642D01*
X1686458Y2212898D01*
X1673047Y2208326D01*
X1660296Y2202078D01*
X1648510Y2194204D01*
X1637842Y2184857D01*
X1628495Y2174189D01*
X1620621Y2162403D01*
X1614373Y2149652D01*
X1609801Y2136241D01*
X1607058Y2122322D01*
X1606092Y2108200D01*
X1607058Y2094077D01*
X1609801Y2080158D01*
X1614373Y2066747D01*
X1620621Y2053996D01*
X1628495Y2042210D01*
X1637842Y2031542D01*
X1648510Y2022195D01*
X1660296Y2014321D01*
X1673047Y2008073D01*
X1686458Y2003501D01*
X1700377Y2000757D01*
G37*
G36*
X8145830Y9886492D02*
G01*
X8408720Y9886492D01*
X8408720Y10149179D01*
X8392566Y10148163D01*
X8369706Y10144810D01*
X8347202Y10139527D01*
X8325205Y10132364D01*
X8303920Y10123424D01*
X8283448Y10112705D01*
X8263940Y10100360D01*
X8245551Y10086390D01*
X8228380Y10070896D01*
X8212531Y10054082D01*
X8198205Y10035946D01*
X8185403Y10016693D01*
X8174278Y9996474D01*
X8164880Y9975342D01*
X8157260Y9953548D01*
X8151520Y9931146D01*
X8147659Y9908387D01*
G37*
G36*
X8434120Y9886492D02*
G01*
X8696756Y9886492D01*
X8696350Y9896856D01*
X8693454Y9919817D01*
X8688628Y9942423D01*
X8681923Y9964521D01*
X8673439Y9986010D01*
X8663178Y10006685D01*
X8651189Y10026497D01*
X8637625Y10045141D01*
X8622538Y10062667D01*
X8606028Y10078821D01*
X8588197Y10093553D01*
X8569248Y10106761D01*
X8549233Y10118293D01*
X8528304Y10128148D01*
X8506663Y10136174D01*
X8484412Y10142423D01*
X8461705Y10146741D01*
X8438743Y10149128D01*
X8434120Y10149230D01*
G37*
G36*
X654100Y9886492D02*
G01*
X916736Y9886492D01*
X916330Y9896856D01*
X913434Y9919817D01*
X908608Y9942423D01*
X901953Y9964521D01*
X893419Y9986010D01*
X883158Y10006685D01*
X871219Y10026497D01*
X857605Y10045141D01*
X842518Y10062667D01*
X826008Y10078821D01*
X808228Y10093553D01*
X789228Y10106761D01*
X769213Y10118293D01*
X748334Y10128148D01*
X726643Y10136174D01*
X704392Y10142423D01*
X681685Y10146741D01*
X658723Y10149128D01*
X654100Y10149230D01*
G37*
G36*
X1369314Y2126792D02*
G01*
X1383436Y2127758D01*
X1397355Y2130501D01*
X1410766Y2135073D01*
X1423517Y2141321D01*
X1435303Y2149195D01*
X1445971Y2158542D01*
X1455318Y2169210D01*
X1463192Y2180996D01*
X1469440Y2193747D01*
X1474012Y2207158D01*
X1476756Y2221077D01*
X1477721Y2235200D01*
X1476756Y2249322D01*
X1474012Y2263241D01*
X1469440Y2276652D01*
X1463192Y2289403D01*
X1455318Y2301189D01*
X1445971Y2311857D01*
X1435303Y2321204D01*
X1423517Y2329078D01*
X1410766Y2335326D01*
X1397355Y2339898D01*
X1383436Y2342642D01*
X1375460Y2343200D01*
X1371600Y2344216D01*
X1368450Y2346604D01*
X1366469Y2350058D01*
X1365961Y2353970D01*
X1366977Y2357831D01*
X1369415Y2360980D01*
X1372870Y2362962D01*
X1374952Y2363673D01*
X1387703Y2369921D01*
X1399489Y2377795D01*
X1410157Y2387142D01*
X1419504Y2397810D01*
X1427378Y2409596D01*
X1433626Y2422347D01*
X1438198Y2435758D01*
X1440942Y2449677D01*
X1441907Y2463800D01*
X1440942Y2477922D01*
X1438198Y2491841D01*
X1433626Y2505252D01*
X1427378Y2518003D01*
X1419504Y2529789D01*
X1410157Y2540457D01*
X1399489Y2549804D01*
X1387703Y2557678D01*
X1384198Y2559405D01*
X1380896Y2561996D01*
X1378915Y2565654D01*
X1378610Y2569819D01*
X1379982Y2573782D01*
X1382826Y2576830D01*
X1386687Y2578455D01*
X1397355Y2580589D01*
X1410766Y2585161D01*
X1423517Y2591409D01*
X1435303Y2599283D01*
X1445971Y2608630D01*
X1455318Y2619298D01*
X1463192Y2631084D01*
X1469440Y2643835D01*
X1474012Y2657246D01*
X1476756Y2671165D01*
X1477721Y2685288D01*
X1476756Y2699410D01*
X1474012Y2713329D01*
X1469440Y2726740D01*
X1463192Y2739491D01*
X1455318Y2751277D01*
X1445971Y2761945D01*
X1435303Y2771292D01*
X1423517Y2779166D01*
X1410766Y2785414D01*
X1397355Y2789986D01*
X1383436Y2792730D01*
X1369314Y2793695D01*
X1355191Y2792730D01*
X1341272Y2789986D01*
X1327861Y2785414D01*
X1315110Y2779166D01*
X1303324Y2771292D01*
X1292656Y2761945D01*
X1283309Y2751277D01*
X1275435Y2739491D01*
X1269187Y2726740D01*
X1264615Y2713329D01*
X1261872Y2699410D01*
X1260906Y2685288D01*
X1261872Y2671165D01*
X1264615Y2657246D01*
X1269187Y2643835D01*
X1275435Y2631084D01*
X1283309Y2619298D01*
X1292656Y2608630D01*
X1303324Y2599283D01*
X1315110Y2591409D01*
X1318615Y2589682D01*
X1321917Y2587091D01*
X1323898Y2583434D01*
X1324203Y2579268D01*
X1322832Y2575306D01*
X1319987Y2572258D01*
X1316126Y2570632D01*
X1305458Y2568498D01*
X1292047Y2563926D01*
X1279296Y2557678D01*
X1267510Y2549804D01*
X1256842Y2540457D01*
X1247495Y2529789D01*
X1239621Y2518003D01*
X1233373Y2505252D01*
X1228801Y2491841D01*
X1226058Y2477922D01*
X1225092Y2463800D01*
X1226058Y2449677D01*
X1228801Y2435758D01*
X1233373Y2422347D01*
X1239621Y2409596D01*
X1247495Y2397810D01*
X1256842Y2387142D01*
X1267510Y2377795D01*
X1279296Y2369921D01*
X1292047Y2363673D01*
X1305458Y2359101D01*
X1319377Y2356358D01*
X1327353Y2355799D01*
X1331214Y2354783D01*
X1334363Y2352395D01*
X1336344Y2348941D01*
X1336852Y2345029D01*
X1335836Y2341168D01*
X1333398Y2338019D01*
X1329944Y2336038D01*
X1327861Y2335326D01*
X1315110Y2329078D01*
X1303324Y2321204D01*
X1292656Y2311857D01*
X1283309Y2301189D01*
X1275435Y2289403D01*
X1269187Y2276652D01*
X1264615Y2263241D01*
X1261872Y2249322D01*
X1260906Y2235200D01*
X1261872Y2221077D01*
X1264615Y2207158D01*
X1269187Y2193747D01*
X1275435Y2180996D01*
X1283309Y2169210D01*
X1292656Y2158542D01*
X1303324Y2149195D01*
X1315110Y2141321D01*
X1327861Y2135073D01*
X1341272Y2130501D01*
X1355191Y2127758D01*
G37*
G36*
X5132120Y9783318D02*
G01*
X5146598Y9784232D01*
X5160924Y9786924D01*
X5174742Y9791446D01*
X5187950Y9797643D01*
X5200192Y9805416D01*
X5211419Y9814712D01*
X5221376Y9825329D01*
X5229961Y9837115D01*
X5236972Y9849866D01*
X5242306Y9863378D01*
X5245912Y9877501D01*
X5247741Y9891928D01*
X5247741Y9906457D01*
X5245912Y9920884D01*
X5242306Y9935006D01*
X5236972Y9948519D01*
X5229961Y9961270D01*
X5221376Y9973056D01*
X5211419Y9983673D01*
X5200192Y9992969D01*
X5187950Y10000742D01*
X5174742Y10006939D01*
X5160924Y10011460D01*
X5146598Y10014153D01*
X5132120Y10015067D01*
X5117592Y10014153D01*
X5103266Y10011460D01*
X5089448Y10006939D01*
X5076240Y10000742D01*
X5063998Y9992969D01*
X5052771Y9983673D01*
X5042814Y9973056D01*
X5034229Y9961270D01*
X5027218Y9948519D01*
X5025542Y9944201D01*
X5023358Y9940848D01*
X5020005Y9938613D01*
X5016093Y9937800D01*
X4363669Y9937800D01*
X4359808Y9938562D01*
X4356506Y9940798D01*
X4354931Y9942372D01*
X4346854Y9948011D01*
X4337964Y9952126D01*
X4328464Y9954666D01*
X4318711Y9955530D01*
X4308906Y9954666D01*
X4299407Y9952126D01*
X4290517Y9948011D01*
X4282440Y9942372D01*
X4275531Y9935413D01*
X4269892Y9927386D01*
X4265726Y9918446D01*
X4263186Y9908997D01*
X4262323Y9899192D01*
X4263186Y9889388D01*
X4265726Y9879939D01*
X4269892Y9870998D01*
X4275531Y9862972D01*
X4282440Y9856012D01*
X4290517Y9850374D01*
X4299407Y9846259D01*
X4308906Y9843719D01*
X4318711Y9842855D01*
X4328464Y9843719D01*
X4337964Y9846259D01*
X4346854Y9850374D01*
X4354931Y9856012D01*
X4356506Y9857587D01*
X4359757Y9859822D01*
X4363669Y9860584D01*
X5016093Y9860584D01*
X5020005Y9859772D01*
X5023358Y9857536D01*
X5025542Y9854184D01*
X5027218Y9849866D01*
X5034229Y9837115D01*
X5042814Y9825329D01*
X5052771Y9814712D01*
X5063998Y9805416D01*
X5076240Y9797643D01*
X5089448Y9791446D01*
X5103266Y9786924D01*
X5117592Y9784232D01*
G37*
G36*
X6021120Y9783318D02*
G01*
X6035598Y9784232D01*
X6049924Y9786924D01*
X6063742Y9791446D01*
X6076950Y9797643D01*
X6089192Y9805416D01*
X6100419Y9814712D01*
X6110376Y9825329D01*
X6118961Y9837115D01*
X6125972Y9849866D01*
X6131306Y9863378D01*
X6134912Y9877501D01*
X6136741Y9891928D01*
X6136741Y9906457D01*
X6134912Y9920884D01*
X6131306Y9935006D01*
X6125972Y9948519D01*
X6118961Y9961270D01*
X6110376Y9973056D01*
X6100419Y9983673D01*
X6089192Y9992969D01*
X6076950Y10000742D01*
X6063742Y10006939D01*
X6049924Y10011460D01*
X6035598Y10014153D01*
X6021120Y10015067D01*
X6006592Y10014153D01*
X5992266Y10011460D01*
X5978448Y10006939D01*
X5965240Y10000742D01*
X5952998Y9992969D01*
X5941771Y9983673D01*
X5931814Y9973056D01*
X5923229Y9961270D01*
X5919978Y9955377D01*
X5917742Y9952583D01*
X5914644Y9950754D01*
X5911088Y9950094D01*
X5650433Y9950094D01*
X5646115Y9951059D01*
X5643778Y9952126D01*
X5634278Y9954666D01*
X5624525Y9955530D01*
X5614720Y9954666D01*
X5605221Y9952126D01*
X5596331Y9948011D01*
X5588254Y9942372D01*
X5581345Y9935413D01*
X5575706Y9927386D01*
X5571540Y9918446D01*
X5569000Y9908997D01*
X5568137Y9899192D01*
X5569000Y9889388D01*
X5571540Y9879939D01*
X5575706Y9870998D01*
X5581345Y9862972D01*
X5588254Y9856012D01*
X5596331Y9850374D01*
X5605221Y9846259D01*
X5614720Y9843719D01*
X5624525Y9842855D01*
X5634278Y9843719D01*
X5643778Y9846259D01*
X5646115Y9847326D01*
X5650382Y9848291D01*
X5911088Y9848291D01*
X5914644Y9847630D01*
X5917742Y9845802D01*
X5919978Y9843008D01*
X5923229Y9837115D01*
X5931814Y9825329D01*
X5941771Y9814712D01*
X5952998Y9805416D01*
X5965240Y9797643D01*
X5978448Y9791446D01*
X5992266Y9786924D01*
X6006592Y9784232D01*
G37*
G36*
X6033820Y9657892D02*
G01*
X6136081Y9657892D01*
X6134912Y9666884D01*
X6131306Y9681006D01*
X6125972Y9694519D01*
X6118961Y9707270D01*
X6110376Y9719056D01*
X6100419Y9729673D01*
X6089192Y9738969D01*
X6076950Y9746742D01*
X6063742Y9752939D01*
X6049924Y9757460D01*
X6035598Y9760153D01*
X6033820Y9760305D01*
G37*
G36*
X5906109Y9657892D02*
G01*
X6008420Y9657892D01*
X6008420Y9760305D01*
X6006592Y9760153D01*
X5992266Y9757460D01*
X5978448Y9752939D01*
X5965240Y9746742D01*
X5952998Y9738969D01*
X5941771Y9729673D01*
X5931814Y9719056D01*
X5923229Y9707270D01*
X5916218Y9694519D01*
X5910884Y9681006D01*
X5907278Y9666884D01*
G37*
G36*
X628700Y9598406D02*
G01*
X628700Y9861092D01*
X365810Y9861092D01*
X367690Y9839198D01*
X371551Y9816439D01*
X377291Y9794036D01*
X384860Y9772243D01*
X394258Y9751110D01*
X405384Y9730892D01*
X418185Y9711639D01*
X432562Y9693503D01*
X448360Y9676688D01*
X465531Y9661194D01*
X483920Y9647224D01*
X503428Y9634880D01*
X523900Y9624161D01*
X545236Y9615220D01*
X567182Y9608058D01*
X589686Y9602774D01*
X612546Y9599422D01*
G37*
G36*
X8408720Y9598406D02*
G01*
X8408720Y9861092D01*
X8145830Y9861092D01*
X8147659Y9839198D01*
X8151520Y9816439D01*
X8157260Y9794036D01*
X8164880Y9772243D01*
X8174278Y9751110D01*
X8185403Y9730892D01*
X8198205Y9711639D01*
X8212531Y9693503D01*
X8228380Y9676688D01*
X8245551Y9661194D01*
X8263940Y9647224D01*
X8283448Y9634880D01*
X8303920Y9624161D01*
X8325205Y9615220D01*
X8347202Y9608058D01*
X8369706Y9602774D01*
X8392566Y9599422D01*
G37*
G36*
X654100Y9598355D02*
G01*
X658723Y9598456D01*
X681685Y9600844D01*
X704392Y9605162D01*
X726643Y9611410D01*
X748334Y9619437D01*
X769213Y9629292D01*
X789228Y9640824D01*
X808228Y9654032D01*
X826008Y9668764D01*
X842518Y9684918D01*
X857605Y9702393D01*
X871219Y9721088D01*
X883158Y9740900D01*
X893419Y9761575D01*
X901953Y9783064D01*
X908608Y9805162D01*
X913434Y9827768D01*
X916330Y9850729D01*
X916736Y9861092D01*
X654100Y9861092D01*
G37*
G36*
X8434120Y9598355D02*
G01*
X8438743Y9598456D01*
X8461705Y9600844D01*
X8484412Y9605162D01*
X8506663Y9611410D01*
X8528304Y9619437D01*
X8549233Y9629292D01*
X8569248Y9640824D01*
X8588197Y9654032D01*
X8606028Y9668764D01*
X8622538Y9684918D01*
X8637625Y9702393D01*
X8651189Y9721088D01*
X8663178Y9740900D01*
X8673439Y9761575D01*
X8681923Y9783064D01*
X8688628Y9805162D01*
X8693454Y9827768D01*
X8696350Y9850729D01*
X8696756Y9861092D01*
X8434120Y9861092D01*
G37*
G36*
X6033820Y9530080D02*
G01*
X6035598Y9530232D01*
X6049924Y9532924D01*
X6063742Y9537446D01*
X6076950Y9543643D01*
X6089192Y9551416D01*
X6100419Y9560712D01*
X6110376Y9571329D01*
X6118961Y9583115D01*
X6125972Y9595866D01*
X6131306Y9609378D01*
X6134912Y9623501D01*
X6136081Y9632492D01*
X6033820Y9632492D01*
G37*
G36*
X6008420Y9530080D02*
G01*
X6008420Y9632492D01*
X5906109Y9632492D01*
X5907278Y9623501D01*
X5910884Y9609378D01*
X5916218Y9595866D01*
X5923229Y9583115D01*
X5931814Y9571329D01*
X5941771Y9560712D01*
X5952998Y9551416D01*
X5965240Y9543643D01*
X5978448Y9537446D01*
X5992266Y9532924D01*
X6006592Y9530232D01*
G37*
G36*
X5132120Y9529318D02*
G01*
X5146598Y9530232D01*
X5160924Y9532924D01*
X5174742Y9537446D01*
X5187950Y9543643D01*
X5200192Y9551416D01*
X5211419Y9560712D01*
X5221376Y9571329D01*
X5229961Y9583115D01*
X5236972Y9595866D01*
X5242306Y9609378D01*
X5245912Y9623501D01*
X5247741Y9637928D01*
X5247741Y9652457D01*
X5245912Y9666884D01*
X5242306Y9681006D01*
X5236972Y9694519D01*
X5229961Y9707270D01*
X5221376Y9719056D01*
X5211419Y9729673D01*
X5200192Y9738969D01*
X5187950Y9746742D01*
X5174742Y9752939D01*
X5160924Y9757460D01*
X5146598Y9760153D01*
X5132120Y9761067D01*
X5117592Y9760153D01*
X5103266Y9757460D01*
X5089448Y9752939D01*
X5076240Y9746742D01*
X5063998Y9738969D01*
X5052771Y9729673D01*
X5042814Y9719056D01*
X5034229Y9707270D01*
X5027218Y9694519D01*
X5025542Y9690201D01*
X5023358Y9686848D01*
X5020005Y9684613D01*
X5016093Y9683800D01*
X4616653Y9683800D01*
X4612792Y9684562D01*
X4609490Y9686798D01*
X4607915Y9688372D01*
X4599838Y9694011D01*
X4590948Y9698126D01*
X4581448Y9700666D01*
X4571695Y9701530D01*
X4561890Y9700666D01*
X4552391Y9698126D01*
X4543501Y9694011D01*
X4535424Y9688372D01*
X4528515Y9681413D01*
X4522876Y9673386D01*
X4518710Y9664446D01*
X4516170Y9654997D01*
X4515307Y9645192D01*
X4516170Y9635388D01*
X4518710Y9625939D01*
X4522876Y9616998D01*
X4528515Y9608972D01*
X4535424Y9602012D01*
X4543501Y9596374D01*
X4552391Y9592259D01*
X4561890Y9589719D01*
X4571695Y9588855D01*
X4581448Y9589719D01*
X4590948Y9592259D01*
X4599838Y9596374D01*
X4607915Y9602012D01*
X4609490Y9603587D01*
X4612741Y9605822D01*
X4616653Y9606584D01*
X5016093Y9606584D01*
X5020005Y9605772D01*
X5023358Y9603536D01*
X5025542Y9600184D01*
X5027218Y9595866D01*
X5034229Y9583115D01*
X5042814Y9571329D01*
X5052771Y9560712D01*
X5063998Y9551416D01*
X5076240Y9543643D01*
X5089448Y9537446D01*
X5103266Y9532924D01*
X5117592Y9530232D01*
G37*
G36*
X5132120Y9275318D02*
G01*
X5146598Y9276232D01*
X5160924Y9278924D01*
X5174742Y9283446D01*
X5187950Y9289643D01*
X5200192Y9297416D01*
X5211419Y9306712D01*
X5221376Y9317329D01*
X5229961Y9329115D01*
X5236972Y9341866D01*
X5242306Y9355378D01*
X5245912Y9369501D01*
X5247741Y9383928D01*
X5247741Y9398457D01*
X5245912Y9412884D01*
X5242306Y9427006D01*
X5236972Y9440519D01*
X5229961Y9453270D01*
X5221376Y9465056D01*
X5211419Y9475673D01*
X5200192Y9484969D01*
X5187950Y9492742D01*
X5174742Y9498939D01*
X5160924Y9503460D01*
X5146598Y9506153D01*
X5132120Y9507067D01*
X5117592Y9506153D01*
X5103266Y9503460D01*
X5089448Y9498939D01*
X5076240Y9492742D01*
X5063998Y9484969D01*
X5052771Y9475673D01*
X5042814Y9465056D01*
X5034229Y9453270D01*
X5027218Y9440519D01*
X5025542Y9436201D01*
X5023358Y9432848D01*
X5020005Y9430613D01*
X5016093Y9429800D01*
X2216708Y9429800D01*
X2212797Y9430562D01*
X2209495Y9432798D01*
X2207920Y9434372D01*
X2199894Y9440011D01*
X2190953Y9444126D01*
X2181504Y9446666D01*
X2171700Y9447530D01*
X2161895Y9446666D01*
X2152446Y9444126D01*
X2143506Y9440011D01*
X2135479Y9434372D01*
X2128520Y9427413D01*
X2122881Y9419386D01*
X2118766Y9410446D01*
X2116226Y9400997D01*
X2115362Y9391192D01*
X2116226Y9381388D01*
X2118766Y9371939D01*
X2122881Y9362998D01*
X2128520Y9354972D01*
X2135479Y9348012D01*
X2143506Y9342374D01*
X2152446Y9338259D01*
X2161895Y9335719D01*
X2171700Y9334855D01*
X2181504Y9335719D01*
X2190953Y9338259D01*
X2199894Y9342374D01*
X2207920Y9348012D01*
X2209495Y9349587D01*
X2212797Y9351822D01*
X2216708Y9352584D01*
X5016093Y9352584D01*
X5020005Y9351772D01*
X5023358Y9349536D01*
X5025542Y9346184D01*
X5027218Y9341866D01*
X5034229Y9329115D01*
X5042814Y9317329D01*
X5052771Y9306712D01*
X5063998Y9297416D01*
X5076240Y9289643D01*
X5089448Y9283446D01*
X5103266Y9278924D01*
X5117592Y9276232D01*
G37*
G36*
X5936691Y9275267D02*
G01*
X6105499Y9275267D01*
X6111849Y9275978D01*
X6117285Y9277908D01*
X6122212Y9281007D01*
X6126276Y9285071D01*
X6129375Y9289999D01*
X6131306Y9295434D01*
X6132017Y9301784D01*
X6132017Y9480600D01*
X6131306Y9486950D01*
X6129375Y9492386D01*
X6126276Y9497314D01*
X6122212Y9501378D01*
X6117285Y9504476D01*
X6111849Y9506407D01*
X6105499Y9507118D01*
X5936691Y9507118D01*
X5930341Y9506407D01*
X5924905Y9504476D01*
X5919978Y9501378D01*
X5915914Y9497314D01*
X5912815Y9492386D01*
X5910884Y9486950D01*
X5910173Y9480600D01*
X5910173Y9301784D01*
X5910884Y9295434D01*
X5912815Y9289999D01*
X5915914Y9285071D01*
X5919978Y9281007D01*
X5924905Y9277908D01*
X5930341Y9275978D01*
G37*
G36*
X5132120Y9021318D02*
G01*
X5146598Y9022232D01*
X5160924Y9024924D01*
X5174742Y9029446D01*
X5187950Y9035643D01*
X5200192Y9043416D01*
X5211419Y9052712D01*
X5221376Y9063329D01*
X5229961Y9075115D01*
X5236972Y9087866D01*
X5242306Y9101378D01*
X5245912Y9115501D01*
X5247741Y9129928D01*
X5247741Y9144457D01*
X5245912Y9158884D01*
X5242306Y9173006D01*
X5236972Y9186519D01*
X5229961Y9199270D01*
X5221376Y9211056D01*
X5211419Y9221673D01*
X5200192Y9230969D01*
X5187950Y9238742D01*
X5174742Y9244939D01*
X5160924Y9249460D01*
X5146598Y9252153D01*
X5132120Y9253067D01*
X5117592Y9252153D01*
X5103266Y9249460D01*
X5089448Y9244939D01*
X5076240Y9238742D01*
X5063998Y9230969D01*
X5052771Y9221673D01*
X5042814Y9211056D01*
X5034229Y9199270D01*
X5027218Y9186519D01*
X5025542Y9182201D01*
X5023358Y9178848D01*
X5020005Y9176613D01*
X5016093Y9175800D01*
X1264208Y9175800D01*
X1260297Y9176562D01*
X1256995Y9178798D01*
X1255420Y9180372D01*
X1247394Y9186011D01*
X1238453Y9190126D01*
X1229004Y9192666D01*
X1219200Y9193530D01*
X1209395Y9192666D01*
X1199946Y9190126D01*
X1191006Y9186011D01*
X1182979Y9180372D01*
X1176020Y9173413D01*
X1170381Y9165386D01*
X1166266Y9156446D01*
X1163726Y9146997D01*
X1162862Y9137192D01*
X1163726Y9127388D01*
X1166266Y9117939D01*
X1170381Y9108998D01*
X1176020Y9100972D01*
X1182979Y9094012D01*
X1191006Y9088374D01*
X1199946Y9084259D01*
X1209395Y9081719D01*
X1219200Y9080855D01*
X1229004Y9081719D01*
X1238453Y9084259D01*
X1247394Y9088374D01*
X1255420Y9094012D01*
X1256995Y9095587D01*
X1260297Y9097822D01*
X1264208Y9098584D01*
X5016093Y9098584D01*
X5020005Y9097772D01*
X5023358Y9095536D01*
X5025542Y9092184D01*
X5027218Y9087866D01*
X5034229Y9075115D01*
X5042814Y9063329D01*
X5052771Y9052712D01*
X5063998Y9043416D01*
X5076240Y9035643D01*
X5089448Y9029446D01*
X5103266Y9024924D01*
X5117592Y9022232D01*
G37*
G36*
X5132120Y8767318D02*
G01*
X5146598Y8768232D01*
X5160924Y8770924D01*
X5174742Y8775446D01*
X5187950Y8781643D01*
X5200192Y8789416D01*
X5211419Y8798712D01*
X5221376Y8809329D01*
X5229961Y8821115D01*
X5236972Y8833866D01*
X5242306Y8847378D01*
X5245912Y8861501D01*
X5247741Y8875928D01*
X5247741Y8890457D01*
X5245912Y8904884D01*
X5242306Y8919006D01*
X5236972Y8932519D01*
X5229961Y8945270D01*
X5221376Y8957056D01*
X5211419Y8967673D01*
X5200192Y8976969D01*
X5187950Y8984742D01*
X5174742Y8990939D01*
X5160924Y8995460D01*
X5146598Y8998153D01*
X5132120Y8999067D01*
X5117592Y8998153D01*
X5103266Y8995460D01*
X5089448Y8990939D01*
X5076240Y8984742D01*
X5063998Y8976969D01*
X5052771Y8967673D01*
X5042814Y8957056D01*
X5034229Y8945270D01*
X5027218Y8932519D01*
X5025542Y8928201D01*
X5023358Y8924848D01*
X5020005Y8922613D01*
X5016093Y8921800D01*
X1646783Y8921800D01*
X1642872Y8922562D01*
X1639570Y8924798D01*
X1638046Y8926372D01*
X1629968Y8932011D01*
X1621078Y8936126D01*
X1611579Y8938666D01*
X1601825Y8939530D01*
X1592021Y8938666D01*
X1582521Y8936126D01*
X1573631Y8932011D01*
X1565554Y8926372D01*
X1558645Y8919413D01*
X1553006Y8911386D01*
X1548841Y8902446D01*
X1546301Y8892997D01*
X1545437Y8883192D01*
X1546301Y8873388D01*
X1548841Y8863939D01*
X1553006Y8854998D01*
X1558645Y8846972D01*
X1565554Y8840012D01*
X1573631Y8834374D01*
X1582521Y8830259D01*
X1592021Y8827719D01*
X1601825Y8826855D01*
X1611579Y8827719D01*
X1621078Y8830259D01*
X1629968Y8834374D01*
X1638046Y8840012D01*
X1639620Y8841638D01*
X1642922Y8843822D01*
X1646783Y8844584D01*
X5016093Y8844584D01*
X5020005Y8843772D01*
X5023358Y8841536D01*
X5025542Y8838184D01*
X5027218Y8833866D01*
X5034229Y8821115D01*
X5042814Y8809329D01*
X5052771Y8798712D01*
X5063998Y8789416D01*
X5076240Y8781643D01*
X5089448Y8775446D01*
X5103266Y8770924D01*
X5117592Y8768232D01*
G37*
G36*
X5132120Y8513318D02*
G01*
X5146598Y8514232D01*
X5160924Y8516924D01*
X5174742Y8521446D01*
X5187950Y8527643D01*
X5200192Y8535416D01*
X5211419Y8544712D01*
X5221376Y8555329D01*
X5229961Y8567115D01*
X5236972Y8579866D01*
X5242306Y8593378D01*
X5245912Y8607501D01*
X5247741Y8621928D01*
X5247741Y8636457D01*
X5245912Y8650884D01*
X5242306Y8665006D01*
X5236972Y8678519D01*
X5229961Y8691270D01*
X5221376Y8703056D01*
X5211419Y8713673D01*
X5200192Y8722969D01*
X5187950Y8730742D01*
X5174742Y8736939D01*
X5160924Y8741460D01*
X5146598Y8744153D01*
X5132120Y8745067D01*
X5117592Y8744153D01*
X5103266Y8741460D01*
X5089448Y8736939D01*
X5076240Y8730742D01*
X5063998Y8722969D01*
X5052771Y8713673D01*
X5042814Y8703056D01*
X5034229Y8691270D01*
X5027218Y8678519D01*
X5025542Y8674201D01*
X5023358Y8670848D01*
X5020005Y8668613D01*
X5016093Y8667800D01*
X4134408Y8667800D01*
X4130497Y8668562D01*
X4127195Y8670798D01*
X4125620Y8672372D01*
X4117594Y8678011D01*
X4108653Y8682126D01*
X4099204Y8684666D01*
X4089400Y8685530D01*
X4079595Y8684666D01*
X4070146Y8682126D01*
X4061206Y8678011D01*
X4053179Y8672372D01*
X4046220Y8665413D01*
X4040581Y8657386D01*
X4036466Y8648446D01*
X4033926Y8638997D01*
X4033062Y8629192D01*
X4033926Y8619388D01*
X4036466Y8609939D01*
X4040581Y8600998D01*
X4046220Y8592972D01*
X4053179Y8586012D01*
X4061206Y8580374D01*
X4070146Y8576259D01*
X4079595Y8573719D01*
X4089400Y8572855D01*
X4099204Y8573719D01*
X4108653Y8576259D01*
X4117594Y8580374D01*
X4125620Y8586012D01*
X4127195Y8587587D01*
X4130497Y8589822D01*
X4134408Y8590584D01*
X5016093Y8590584D01*
X5020005Y8589772D01*
X5023358Y8587536D01*
X5025542Y8584184D01*
X5027218Y8579866D01*
X5034229Y8567115D01*
X5042814Y8555329D01*
X5052771Y8544712D01*
X5063998Y8535416D01*
X5076240Y8527643D01*
X5089448Y8521446D01*
X5103266Y8516924D01*
X5117592Y8514232D01*
G37*
G36*
X5132120Y8259318D02*
G01*
X5146598Y8260232D01*
X5160924Y8262924D01*
X5174742Y8267446D01*
X5187950Y8273643D01*
X5200192Y8281416D01*
X5211419Y8290712D01*
X5221376Y8301329D01*
X5229961Y8313115D01*
X5236972Y8325866D01*
X5242306Y8339378D01*
X5245912Y8353501D01*
X5247741Y8367928D01*
X5247741Y8382457D01*
X5245912Y8396884D01*
X5242306Y8411006D01*
X5236972Y8424519D01*
X5229961Y8437270D01*
X5221376Y8449056D01*
X5211419Y8459673D01*
X5200192Y8468969D01*
X5187950Y8476742D01*
X5174742Y8482939D01*
X5160924Y8487460D01*
X5146598Y8490153D01*
X5132120Y8491067D01*
X5117592Y8490153D01*
X5103266Y8487460D01*
X5089448Y8482939D01*
X5076240Y8476742D01*
X5063998Y8468969D01*
X5052771Y8459673D01*
X5042814Y8449056D01*
X5034229Y8437270D01*
X5027218Y8424519D01*
X5025542Y8420201D01*
X5023358Y8416848D01*
X5020005Y8414613D01*
X5016093Y8413800D01*
X3181908Y8413800D01*
X3177997Y8414562D01*
X3174695Y8416798D01*
X3173120Y8418372D01*
X3165094Y8424011D01*
X3156153Y8428126D01*
X3146704Y8430666D01*
X3136900Y8431530D01*
X3127095Y8430666D01*
X3117646Y8428126D01*
X3108706Y8424011D01*
X3100679Y8418372D01*
X3093720Y8411413D01*
X3088081Y8403386D01*
X3083966Y8394446D01*
X3081426Y8384997D01*
X3080562Y8375192D01*
X3081426Y8365388D01*
X3083966Y8355939D01*
X3088081Y8346998D01*
X3093720Y8338972D01*
X3100679Y8332012D01*
X3108706Y8326374D01*
X3117646Y8322259D01*
X3127095Y8319719D01*
X3136900Y8318855D01*
X3146704Y8319719D01*
X3156153Y8322259D01*
X3165094Y8326374D01*
X3173120Y8332012D01*
X3174695Y8333587D01*
X3177997Y8335822D01*
X3181908Y8336584D01*
X5016093Y8336584D01*
X5020005Y8335772D01*
X5023358Y8333536D01*
X5025542Y8330184D01*
X5027218Y8325866D01*
X5034229Y8313115D01*
X5042814Y8301329D01*
X5052771Y8290712D01*
X5063998Y8281416D01*
X5076240Y8273643D01*
X5089448Y8267446D01*
X5103266Y8262924D01*
X5117592Y8260232D01*
G37*
G36*
X5132120Y8005318D02*
G01*
X5146598Y8006232D01*
X5160924Y8008924D01*
X5174742Y8013446D01*
X5187950Y8019643D01*
X5200192Y8027416D01*
X5211419Y8036712D01*
X5221376Y8047329D01*
X5229961Y8059115D01*
X5236972Y8071866D01*
X5242306Y8085378D01*
X5245912Y8099501D01*
X5247741Y8113928D01*
X5247741Y8128457D01*
X5245912Y8142884D01*
X5242306Y8157006D01*
X5236972Y8170519D01*
X5229961Y8183270D01*
X5221376Y8195056D01*
X5211419Y8205673D01*
X5200192Y8214969D01*
X5187950Y8222742D01*
X5174742Y8228939D01*
X5160924Y8233460D01*
X5146598Y8236153D01*
X5132120Y8237067D01*
X5117592Y8236153D01*
X5103266Y8233460D01*
X5089448Y8228939D01*
X5076240Y8222742D01*
X5063998Y8214969D01*
X5052771Y8205673D01*
X5042814Y8195056D01*
X5034229Y8183270D01*
X5027218Y8170519D01*
X5025542Y8166201D01*
X5023358Y8162848D01*
X5020005Y8160613D01*
X5016093Y8159800D01*
X3564483Y8159800D01*
X3560622Y8160562D01*
X3557320Y8162798D01*
X3555746Y8164372D01*
X3547668Y8170011D01*
X3538778Y8174126D01*
X3529279Y8176666D01*
X3519525Y8177530D01*
X3509721Y8176666D01*
X3500221Y8174126D01*
X3491331Y8170011D01*
X3483254Y8164372D01*
X3476345Y8157413D01*
X3470706Y8149386D01*
X3466541Y8140446D01*
X3464001Y8130997D01*
X3463137Y8121192D01*
X3464001Y8111388D01*
X3466541Y8101939D01*
X3470706Y8092998D01*
X3476345Y8084972D01*
X3483254Y8078012D01*
X3491331Y8072374D01*
X3500221Y8068259D01*
X3509721Y8065719D01*
X3519525Y8064855D01*
X3529279Y8065719D01*
X3538778Y8068259D01*
X3547668Y8072374D01*
X3555746Y8078012D01*
X3557320Y8079587D01*
X3560572Y8081822D01*
X3564483Y8082584D01*
X5016093Y8082584D01*
X5020005Y8081772D01*
X5023358Y8079536D01*
X5025542Y8076184D01*
X5027218Y8071866D01*
X5034229Y8059115D01*
X5042814Y8047329D01*
X5052771Y8036712D01*
X5063998Y8027416D01*
X5076240Y8019643D01*
X5089448Y8013446D01*
X5103266Y8008924D01*
X5117592Y8006232D01*
G37*
G36*
X8434120Y4728311D02*
G01*
X8438743Y4728413D01*
X8461705Y4730851D01*
X8484412Y4735169D01*
X8506663Y4741367D01*
X8528304Y4749444D01*
X8549233Y4759299D01*
X8569248Y4770831D01*
X8588197Y4784039D01*
X8606028Y4798771D01*
X8622538Y4814925D01*
X8637625Y4832400D01*
X8651189Y4851095D01*
X8663178Y4870856D01*
X8673439Y4891582D01*
X8681923Y4913071D01*
X8688628Y4935169D01*
X8693454Y4957775D01*
X8696350Y4980686D01*
X8696756Y4991100D01*
X8434120Y4991100D01*
G37*
G36*
X654100Y4728311D02*
G01*
X658723Y4728413D01*
X681685Y4730851D01*
X704392Y4735169D01*
X726643Y4741367D01*
X748334Y4749444D01*
X769213Y4759299D01*
X789228Y4770831D01*
X808228Y4784039D01*
X826008Y4798771D01*
X842518Y4814925D01*
X857605Y4832400D01*
X871219Y4851095D01*
X883158Y4870856D01*
X893419Y4891582D01*
X901953Y4913071D01*
X908608Y4935169D01*
X913434Y4957775D01*
X916330Y4980686D01*
X916736Y4991100D01*
X654100Y4991100D01*
G37*
G36*
X8408720Y4728362D02*
G01*
X8408720Y4991100D01*
X8145830Y4991100D01*
X8147659Y4969205D01*
X8151520Y4946396D01*
X8157260Y4924044D01*
X8164880Y4902200D01*
X8174278Y4881118D01*
X8185403Y4860848D01*
X8198205Y4841595D01*
X8212531Y4823510D01*
X8228380Y4806645D01*
X8245551Y4791202D01*
X8263940Y4777232D01*
X8283448Y4764836D01*
X8303920Y4754118D01*
X8325205Y4745177D01*
X8347202Y4738065D01*
X8369706Y4732782D01*
X8392566Y4729378D01*
G37*
G36*
X628700Y4728362D02*
G01*
X628700Y4991100D01*
X365810Y4991100D01*
X367690Y4969205D01*
X371551Y4946396D01*
X377291Y4924044D01*
X384860Y4902200D01*
X394258Y4881118D01*
X405384Y4860848D01*
X418185Y4841595D01*
X432562Y4823510D01*
X448360Y4806645D01*
X465531Y4791202D01*
X483920Y4777232D01*
X503428Y4764836D01*
X523900Y4754118D01*
X545236Y4745177D01*
X567182Y4738065D01*
X589686Y4732782D01*
X612546Y4729378D01*
G37*
G36*
X654100Y5016500D02*
G01*
X916736Y5016500D01*
X916330Y5026863D01*
X913434Y5049774D01*
X908608Y5072380D01*
X901953Y5094528D01*
X893419Y5116017D01*
X883158Y5136692D01*
X871219Y5156454D01*
X857605Y5175148D01*
X842518Y5192623D01*
X826008Y5208828D01*
X808228Y5223560D01*
X789228Y5236718D01*
X769213Y5248300D01*
X748334Y5258104D01*
X726643Y5266182D01*
X704392Y5272379D01*
X681685Y5276697D01*
X658723Y5279136D01*
X654100Y5279237D01*
G37*
G36*
X8434120Y5016500D02*
G01*
X8696756Y5016500D01*
X8696350Y5026863D01*
X8693454Y5049774D01*
X8688628Y5072380D01*
X8681923Y5094528D01*
X8673439Y5116017D01*
X8663178Y5136692D01*
X8651189Y5156454D01*
X8637625Y5175148D01*
X8622538Y5192623D01*
X8606028Y5208828D01*
X8588197Y5223560D01*
X8569248Y5236718D01*
X8549233Y5248300D01*
X8528304Y5258104D01*
X8506663Y5266182D01*
X8484412Y5272379D01*
X8461705Y5276697D01*
X8438743Y5279136D01*
X8434120Y5279237D01*
G37*
G36*
X8145830Y5016500D02*
G01*
X8408720Y5016500D01*
X8408720Y5279186D01*
X8392566Y5278170D01*
X8369706Y5274818D01*
X8347202Y5269534D01*
X8325205Y5262372D01*
X8303920Y5253431D01*
X8283448Y5242712D01*
X8263940Y5230317D01*
X8245551Y5216347D01*
X8228380Y5200904D01*
X8212531Y5184038D01*
X8198205Y5165953D01*
X8185403Y5146700D01*
X8174278Y5126431D01*
X8164880Y5105349D01*
X8157260Y5083505D01*
X8151520Y5061153D01*
X8147659Y5038344D01*
G37*
G36*
X365810Y5016500D02*
G01*
X628700Y5016500D01*
X628700Y5279186D01*
X612546Y5278170D01*
X589686Y5274818D01*
X567182Y5269534D01*
X545236Y5262372D01*
X523900Y5253431D01*
X503428Y5242712D01*
X483920Y5230317D01*
X465531Y5216347D01*
X448360Y5200904D01*
X432562Y5184038D01*
X418185Y5165953D01*
X405384Y5146700D01*
X394258Y5126431D01*
X384860Y5105349D01*
X377291Y5083505D01*
X371551Y5061153D01*
X367690Y5038344D01*
G37*
G36*
X5144820Y5211267D02*
G01*
X5221528Y5211267D01*
X5227828Y5211978D01*
X5233314Y5213908D01*
X5238191Y5217007D01*
X5242306Y5221071D01*
X5245404Y5225999D01*
X5247284Y5231434D01*
X5247995Y5237784D01*
X5247995Y5314492D01*
X5144820Y5314492D01*
G37*
G36*
X5042662Y5211267D02*
G01*
X5119420Y5211267D01*
X5119420Y5314492D01*
X5016195Y5314492D01*
X5016195Y5237784D01*
X5016906Y5231434D01*
X5018786Y5225999D01*
X5021884Y5221071D01*
X5025999Y5217007D01*
X5030876Y5213908D01*
X5036362Y5211978D01*
G37*
G36*
X5016195Y5339892D02*
G01*
X5119420Y5339892D01*
X5119420Y5443118D01*
X5042662Y5443118D01*
X5036362Y5442407D01*
X5030876Y5440476D01*
X5025999Y5437378D01*
X5021884Y5433314D01*
X5018786Y5428386D01*
X5016906Y5422950D01*
X5016195Y5416600D01*
G37*
G36*
X5144820Y5339892D02*
G01*
X5247995Y5339892D01*
X5247995Y5416600D01*
X5247284Y5422950D01*
X5245404Y5428386D01*
X5242306Y5433314D01*
X5238191Y5437378D01*
X5233314Y5440476D01*
X5227828Y5442407D01*
X5221528Y5443118D01*
X5144820Y5443118D01*
G37*
G36*
X5132120Y5465318D02*
G01*
X5146598Y5466232D01*
X5160924Y5468924D01*
X5174742Y5473446D01*
X5187950Y5479643D01*
X5200192Y5487416D01*
X5211419Y5496712D01*
X5221376Y5507329D01*
X5229961Y5519115D01*
X5236972Y5531866D01*
X5238648Y5536184D01*
X5240832Y5539536D01*
X5244185Y5541772D01*
X5248097Y5542584D01*
X7574991Y5542584D01*
X7578902Y5541822D01*
X7582204Y5539638D01*
X7583779Y5538012D01*
X7591806Y5532374D01*
X7600746Y5528259D01*
X7610195Y5525719D01*
X7620000Y5524855D01*
X7629804Y5525719D01*
X7639253Y5528259D01*
X7648194Y5532374D01*
X7656220Y5538012D01*
X7663180Y5544972D01*
X7668818Y5552998D01*
X7672933Y5561939D01*
X7675473Y5571388D01*
X7676337Y5581192D01*
X7675473Y5590997D01*
X7672933Y5600446D01*
X7668818Y5609386D01*
X7663180Y5617413D01*
X7656220Y5624372D01*
X7648194Y5630011D01*
X7639253Y5634126D01*
X7629804Y5636666D01*
X7620000Y5637530D01*
X7610195Y5636666D01*
X7600746Y5634126D01*
X7591806Y5630011D01*
X7583779Y5624372D01*
X7582204Y5622798D01*
X7578902Y5620562D01*
X7575042Y5619800D01*
X5248097Y5619800D01*
X5244185Y5620613D01*
X5240832Y5622848D01*
X5238648Y5626201D01*
X5236972Y5630519D01*
X5229961Y5643270D01*
X5221376Y5655056D01*
X5211419Y5665673D01*
X5200192Y5674969D01*
X5187950Y5682742D01*
X5174742Y5688939D01*
X5160924Y5693460D01*
X5146598Y5696153D01*
X5132120Y5697067D01*
X5117592Y5696153D01*
X5103266Y5693460D01*
X5089448Y5688939D01*
X5076240Y5682742D01*
X5063998Y5674969D01*
X5052771Y5665673D01*
X5042814Y5655056D01*
X5034229Y5643270D01*
X5027218Y5630519D01*
X5021884Y5617006D01*
X5018278Y5602884D01*
X5016449Y5588457D01*
X5016449Y5573928D01*
X5018278Y5559501D01*
X5021884Y5545378D01*
X5027218Y5531866D01*
X5034229Y5519115D01*
X5042814Y5507329D01*
X5052771Y5496712D01*
X5063998Y5487416D01*
X5076240Y5479643D01*
X5089448Y5473446D01*
X5103266Y5468924D01*
X5117592Y5466232D01*
G37*
G36*
X5132120Y7751318D02*
G01*
X5146598Y7752232D01*
X5160924Y7754924D01*
X5174742Y7759446D01*
X5187950Y7765643D01*
X5200192Y7773416D01*
X5211419Y7782712D01*
X5221376Y7793329D01*
X5229961Y7805115D01*
X5236972Y7817866D01*
X5242306Y7831378D01*
X5245912Y7845501D01*
X5247741Y7859928D01*
X5247741Y7874457D01*
X5245912Y7888884D01*
X5242306Y7903006D01*
X5236972Y7916519D01*
X5229961Y7929270D01*
X5221376Y7941056D01*
X5211419Y7951673D01*
X5200192Y7960969D01*
X5187950Y7968742D01*
X5174742Y7974939D01*
X5160924Y7979460D01*
X5146598Y7982153D01*
X5132120Y7983067D01*
X5117592Y7982153D01*
X5103266Y7979460D01*
X5089448Y7974939D01*
X5076240Y7968742D01*
X5063998Y7960969D01*
X5052771Y7951673D01*
X5042814Y7941056D01*
X5034229Y7929270D01*
X5027218Y7916519D01*
X5021884Y7903006D01*
X5018278Y7888884D01*
X5016449Y7874457D01*
X5016449Y7859928D01*
X5018278Y7845501D01*
X5021884Y7831378D01*
X5027218Y7817866D01*
X5034229Y7805115D01*
X5042814Y7793329D01*
X5052771Y7782712D01*
X5063998Y7773416D01*
X5076240Y7765643D01*
X5089448Y7759446D01*
X5103266Y7754924D01*
X5117592Y7752232D01*
G37*
G36*
X5132120Y7497318D02*
G01*
X5146598Y7498232D01*
X5160924Y7500924D01*
X5174742Y7505446D01*
X5187950Y7511643D01*
X5200192Y7519416D01*
X5211419Y7528712D01*
X5221376Y7539329D01*
X5229961Y7551115D01*
X5236972Y7563866D01*
X5242306Y7577378D01*
X5245912Y7591501D01*
X5247741Y7605928D01*
X5247741Y7620457D01*
X5245912Y7634884D01*
X5242306Y7649006D01*
X5236972Y7662519D01*
X5229961Y7675270D01*
X5221376Y7687056D01*
X5211419Y7697673D01*
X5200192Y7706969D01*
X5187950Y7714742D01*
X5174742Y7720939D01*
X5160924Y7725460D01*
X5146598Y7728153D01*
X5132120Y7729067D01*
X5117592Y7728153D01*
X5103266Y7725460D01*
X5089448Y7720939D01*
X5076240Y7714742D01*
X5063998Y7706969D01*
X5052771Y7697673D01*
X5042814Y7687056D01*
X5034229Y7675270D01*
X5027218Y7662519D01*
X5021884Y7649006D01*
X5018278Y7634884D01*
X5016449Y7620457D01*
X5016449Y7605928D01*
X5018278Y7591501D01*
X5021884Y7577378D01*
X5027218Y7563866D01*
X5034229Y7551115D01*
X5042814Y7539329D01*
X5052771Y7528712D01*
X5063998Y7519416D01*
X5076240Y7511643D01*
X5089448Y7505446D01*
X5103266Y7500924D01*
X5117592Y7498232D01*
G37*
G36*
X5132120Y5719318D02*
G01*
X5146598Y5720232D01*
X5160924Y5722924D01*
X5174742Y5727446D01*
X5187950Y5733643D01*
X5200192Y5741416D01*
X5211419Y5750712D01*
X5221376Y5761329D01*
X5229961Y5773115D01*
X5236972Y5785866D01*
X5242306Y5799378D01*
X5245912Y5813501D01*
X5247741Y5827928D01*
X5247741Y5842457D01*
X5245912Y5856884D01*
X5242306Y5871006D01*
X5236972Y5884519D01*
X5229961Y5897270D01*
X5221376Y5909056D01*
X5211419Y5919673D01*
X5200192Y5928969D01*
X5187950Y5936742D01*
X5174742Y5942939D01*
X5160924Y5947460D01*
X5146598Y5950153D01*
X5132120Y5951067D01*
X5117592Y5950153D01*
X5103266Y5947460D01*
X5089448Y5942939D01*
X5076240Y5936742D01*
X5063998Y5928969D01*
X5052771Y5919673D01*
X5042814Y5909056D01*
X5034229Y5897270D01*
X5027218Y5884519D01*
X5021884Y5871006D01*
X5018278Y5856884D01*
X5016449Y5842457D01*
X5016449Y5827928D01*
X5018278Y5813501D01*
X5021884Y5799378D01*
X5027218Y5785866D01*
X5034229Y5773115D01*
X5042814Y5761329D01*
X5052771Y5750712D01*
X5063998Y5741416D01*
X5076240Y5733643D01*
X5089448Y5727446D01*
X5103266Y5722924D01*
X5117592Y5720232D01*
G37*
G36*
X5132120Y5973318D02*
G01*
X5146598Y5974232D01*
X5160924Y5976924D01*
X5174742Y5981446D01*
X5187950Y5987643D01*
X5200192Y5995416D01*
X5211419Y6004712D01*
X5221376Y6015329D01*
X5229961Y6027115D01*
X5236972Y6039866D01*
X5242306Y6053378D01*
X5245912Y6067501D01*
X5247741Y6081928D01*
X5247741Y6096457D01*
X5245912Y6110884D01*
X5242306Y6125006D01*
X5236972Y6138519D01*
X5229961Y6151270D01*
X5221376Y6163056D01*
X5211419Y6173673D01*
X5200192Y6182969D01*
X5187950Y6190742D01*
X5174742Y6196939D01*
X5160924Y6201460D01*
X5146598Y6204153D01*
X5132120Y6205067D01*
X5117592Y6204153D01*
X5103266Y6201460D01*
X5089448Y6196939D01*
X5076240Y6190742D01*
X5063998Y6182969D01*
X5052771Y6173673D01*
X5042814Y6163056D01*
X5034229Y6151270D01*
X5027218Y6138519D01*
X5025542Y6134201D01*
X5023358Y6130848D01*
X5020005Y6128613D01*
X5016093Y6127800D01*
X3829608Y6127800D01*
X3825697Y6128562D01*
X3822395Y6130798D01*
X3820820Y6132372D01*
X3812794Y6138011D01*
X3803853Y6142126D01*
X3794404Y6144666D01*
X3784600Y6145530D01*
X3774795Y6144666D01*
X3765346Y6142126D01*
X3756406Y6138011D01*
X3748379Y6132372D01*
X3741420Y6125413D01*
X3735781Y6117386D01*
X3731666Y6108446D01*
X3729126Y6098997D01*
X3728262Y6089192D01*
X3729126Y6079388D01*
X3731666Y6069939D01*
X3735781Y6060998D01*
X3741420Y6052972D01*
X3748379Y6046012D01*
X3756406Y6040374D01*
X3765346Y6036259D01*
X3774795Y6033719D01*
X3784600Y6032855D01*
X3794404Y6033719D01*
X3803853Y6036259D01*
X3812794Y6040374D01*
X3820820Y6046012D01*
X3822395Y6047587D01*
X3825697Y6049822D01*
X3829608Y6050584D01*
X5016093Y6050584D01*
X5020005Y6049772D01*
X5023358Y6047536D01*
X5025542Y6044184D01*
X5027218Y6039866D01*
X5034229Y6027115D01*
X5042814Y6015329D01*
X5052771Y6004712D01*
X5063998Y5995416D01*
X5076240Y5987643D01*
X5089448Y5981446D01*
X5103266Y5976924D01*
X5117592Y5974232D01*
G37*
G36*
X5132120Y7243318D02*
G01*
X5146598Y7244232D01*
X5160924Y7246924D01*
X5174742Y7251446D01*
X5187950Y7257643D01*
X5200192Y7265416D01*
X5211419Y7274712D01*
X5221376Y7285329D01*
X5229961Y7297115D01*
X5236972Y7309866D01*
X5242306Y7323378D01*
X5245912Y7337501D01*
X5247741Y7351928D01*
X5247741Y7366457D01*
X5245912Y7380884D01*
X5242306Y7395006D01*
X5236972Y7408519D01*
X5229961Y7421270D01*
X5221376Y7433056D01*
X5211419Y7443673D01*
X5200192Y7452969D01*
X5187950Y7460742D01*
X5174742Y7466939D01*
X5160924Y7471460D01*
X5146598Y7474153D01*
X5132120Y7475067D01*
X5117592Y7474153D01*
X5103266Y7471460D01*
X5089448Y7466939D01*
X5076240Y7460742D01*
X5063998Y7452969D01*
X5052771Y7443673D01*
X5042814Y7433056D01*
X5034229Y7421270D01*
X5027218Y7408519D01*
X5021884Y7395006D01*
X5018278Y7380884D01*
X5016449Y7366457D01*
X5016449Y7351928D01*
X5018278Y7337501D01*
X5021884Y7323378D01*
X5027218Y7309866D01*
X5034229Y7297115D01*
X5042814Y7285329D01*
X5052771Y7274712D01*
X5063998Y7265416D01*
X5076240Y7257643D01*
X5089448Y7251446D01*
X5103266Y7246924D01*
X5117592Y7244232D01*
G37*
G36*
X5132120Y6989318D02*
G01*
X5146598Y6990232D01*
X5160924Y6992924D01*
X5174742Y6997446D01*
X5187950Y7003643D01*
X5200192Y7011416D01*
X5211419Y7020712D01*
X5221376Y7031329D01*
X5229961Y7043115D01*
X5236972Y7055866D01*
X5238648Y7060184D01*
X5240832Y7063536D01*
X5244185Y7065772D01*
X5248097Y7066584D01*
X7867091Y7066584D01*
X7871002Y7065822D01*
X7874304Y7063638D01*
X7875879Y7062012D01*
X7883906Y7056374D01*
X7892846Y7052259D01*
X7902295Y7049719D01*
X7912100Y7048855D01*
X7921904Y7049719D01*
X7931353Y7052259D01*
X7940294Y7056374D01*
X7948320Y7062012D01*
X7955280Y7068972D01*
X7960918Y7076998D01*
X7965033Y7085939D01*
X7967573Y7095388D01*
X7968437Y7105192D01*
X7967573Y7114997D01*
X7965033Y7124446D01*
X7960918Y7133386D01*
X7955280Y7141413D01*
X7948320Y7148372D01*
X7940294Y7154011D01*
X7931353Y7158126D01*
X7921904Y7160666D01*
X7912100Y7161530D01*
X7902295Y7160666D01*
X7892846Y7158126D01*
X7883906Y7154011D01*
X7875879Y7148372D01*
X7874304Y7146798D01*
X7871002Y7144562D01*
X7867142Y7143800D01*
X5248097Y7143800D01*
X5244185Y7144613D01*
X5240832Y7146848D01*
X5238648Y7150201D01*
X5236972Y7154519D01*
X5229961Y7167270D01*
X5221376Y7179056D01*
X5211419Y7189673D01*
X5200192Y7198969D01*
X5187950Y7206742D01*
X5174742Y7212939D01*
X5160924Y7217460D01*
X5146598Y7220153D01*
X5132120Y7221067D01*
X5117592Y7220153D01*
X5103266Y7217460D01*
X5089448Y7212939D01*
X5076240Y7206742D01*
X5063998Y7198969D01*
X5052771Y7189673D01*
X5042814Y7179056D01*
X5034229Y7167270D01*
X5027218Y7154519D01*
X5021884Y7141006D01*
X5018278Y7126884D01*
X5016449Y7112457D01*
X5016449Y7097928D01*
X5018278Y7083501D01*
X5021884Y7069378D01*
X5027218Y7055866D01*
X5034229Y7043115D01*
X5042814Y7031329D01*
X5052771Y7020712D01*
X5063998Y7011416D01*
X5076240Y7003643D01*
X5089448Y6997446D01*
X5103266Y6992924D01*
X5117592Y6990232D01*
G37*
G36*
X5132120Y6227318D02*
G01*
X5146598Y6228232D01*
X5160924Y6230924D01*
X5174742Y6235446D01*
X5187950Y6241643D01*
X5200192Y6249416D01*
X5211419Y6258712D01*
X5221376Y6269329D01*
X5229961Y6281115D01*
X5236972Y6293866D01*
X5242306Y6307378D01*
X5245912Y6321501D01*
X5247741Y6335928D01*
X5247741Y6350457D01*
X5245912Y6364884D01*
X5242306Y6379006D01*
X5236972Y6392519D01*
X5229961Y6405270D01*
X5221376Y6417056D01*
X5211419Y6427673D01*
X5200192Y6436969D01*
X5187950Y6444742D01*
X5174742Y6450939D01*
X5160924Y6455460D01*
X5146598Y6458153D01*
X5132120Y6459067D01*
X5117592Y6458153D01*
X5103266Y6455460D01*
X5089448Y6450939D01*
X5076240Y6444742D01*
X5063998Y6436969D01*
X5052771Y6427673D01*
X5042814Y6417056D01*
X5034229Y6405270D01*
X5027218Y6392519D01*
X5025542Y6388201D01*
X5023358Y6384848D01*
X5020005Y6382613D01*
X5016093Y6381800D01*
X1911908Y6381800D01*
X1907997Y6382562D01*
X1904695Y6384798D01*
X1903120Y6386372D01*
X1895093Y6392011D01*
X1886153Y6396126D01*
X1876704Y6398666D01*
X1866900Y6399530D01*
X1857095Y6398666D01*
X1847646Y6396126D01*
X1838706Y6392011D01*
X1830679Y6386372D01*
X1823720Y6379413D01*
X1818081Y6371386D01*
X1813966Y6362446D01*
X1811426Y6352997D01*
X1810562Y6343192D01*
X1811426Y6333388D01*
X1813966Y6323939D01*
X1818081Y6314998D01*
X1823720Y6306972D01*
X1830679Y6300012D01*
X1838706Y6294374D01*
X1847646Y6290259D01*
X1857095Y6287719D01*
X1866900Y6286855D01*
X1876704Y6287719D01*
X1886153Y6290259D01*
X1895093Y6294374D01*
X1903120Y6300012D01*
X1904695Y6301587D01*
X1907997Y6303822D01*
X1911908Y6304584D01*
X5016093Y6304584D01*
X5020005Y6303772D01*
X5023358Y6301536D01*
X5025542Y6298184D01*
X5027218Y6293866D01*
X5034229Y6281115D01*
X5042814Y6269329D01*
X5052771Y6258712D01*
X5063998Y6249416D01*
X5076240Y6241643D01*
X5089448Y6235446D01*
X5103266Y6230924D01*
X5117592Y6228232D01*
G37*
G36*
X5132120Y6735318D02*
G01*
X5146598Y6736232D01*
X5160924Y6738924D01*
X5174742Y6743446D01*
X5187950Y6749643D01*
X5200192Y6757416D01*
X5211419Y6766712D01*
X5221376Y6777329D01*
X5229961Y6789115D01*
X5236972Y6801866D01*
X5238648Y6806184D01*
X5240832Y6809536D01*
X5244185Y6811772D01*
X5248097Y6812584D01*
X6914591Y6812584D01*
X6918502Y6811822D01*
X6921804Y6809638D01*
X6923379Y6808012D01*
X6931406Y6802374D01*
X6940346Y6798259D01*
X6949795Y6795719D01*
X6959600Y6794855D01*
X6969404Y6795719D01*
X6978853Y6798259D01*
X6987794Y6802374D01*
X6995820Y6808012D01*
X7002780Y6814972D01*
X7008418Y6822998D01*
X7012533Y6831939D01*
X7015073Y6841388D01*
X7015937Y6851192D01*
X7015073Y6860997D01*
X7012533Y6870446D01*
X7008418Y6879386D01*
X7002780Y6887413D01*
X6995820Y6894372D01*
X6987794Y6900011D01*
X6978853Y6904126D01*
X6969404Y6906666D01*
X6959600Y6907530D01*
X6949795Y6906666D01*
X6940346Y6904126D01*
X6931406Y6900011D01*
X6923379Y6894372D01*
X6921804Y6892798D01*
X6918502Y6890562D01*
X6914642Y6889800D01*
X5248097Y6889800D01*
X5244185Y6890613D01*
X5240832Y6892848D01*
X5238648Y6896201D01*
X5236972Y6900519D01*
X5229961Y6913270D01*
X5221376Y6925056D01*
X5211419Y6935673D01*
X5200192Y6944969D01*
X5187950Y6952742D01*
X5174742Y6958939D01*
X5160924Y6963460D01*
X5146598Y6966153D01*
X5132120Y6967067D01*
X5117592Y6966153D01*
X5103266Y6963460D01*
X5089448Y6958939D01*
X5076240Y6952742D01*
X5063998Y6944969D01*
X5052771Y6935673D01*
X5042814Y6925056D01*
X5034229Y6913270D01*
X5027218Y6900519D01*
X5021884Y6887006D01*
X5018278Y6872884D01*
X5016449Y6858457D01*
X5016449Y6843928D01*
X5018278Y6829501D01*
X5021884Y6815378D01*
X5027218Y6801866D01*
X5034229Y6789115D01*
X5042814Y6777329D01*
X5052771Y6766712D01*
X5063998Y6757416D01*
X5076240Y6749643D01*
X5089448Y6743446D01*
X5103266Y6738924D01*
X5117592Y6736232D01*
G37*
G36*
X5132120Y6481318D02*
G01*
X5146598Y6482232D01*
X5160924Y6484924D01*
X5174742Y6489446D01*
X5187950Y6495643D01*
X5200192Y6503416D01*
X5211419Y6512712D01*
X5221376Y6523329D01*
X5229961Y6535115D01*
X5236972Y6547866D01*
X5238648Y6552184D01*
X5240832Y6555536D01*
X5244185Y6557772D01*
X5248097Y6558584D01*
X7297216Y6558584D01*
X7301128Y6557822D01*
X7304430Y6555587D01*
X7305954Y6554012D01*
X7314031Y6548374D01*
X7322921Y6544259D01*
X7332421Y6541719D01*
X7342225Y6540855D01*
X7351979Y6541719D01*
X7361478Y6544259D01*
X7370368Y6548374D01*
X7378446Y6554012D01*
X7385354Y6560972D01*
X7390993Y6568998D01*
X7395159Y6577939D01*
X7397699Y6587388D01*
X7398562Y6597192D01*
X7397699Y6606997D01*
X7395159Y6616446D01*
X7390993Y6625386D01*
X7385354Y6633413D01*
X7378446Y6640372D01*
X7370368Y6646011D01*
X7361478Y6650126D01*
X7351979Y6652666D01*
X7342225Y6653530D01*
X7332421Y6652666D01*
X7322921Y6650126D01*
X7314031Y6646011D01*
X7305954Y6640372D01*
X7304379Y6638747D01*
X7301077Y6636562D01*
X7297216Y6635800D01*
X5248097Y6635800D01*
X5244185Y6636613D01*
X5240832Y6638848D01*
X5238648Y6642201D01*
X5236972Y6646519D01*
X5229961Y6659270D01*
X5221376Y6671056D01*
X5211419Y6681673D01*
X5200192Y6690969D01*
X5187950Y6698742D01*
X5174742Y6704939D01*
X5160924Y6709460D01*
X5146598Y6712153D01*
X5132120Y6713067D01*
X5117592Y6712153D01*
X5103266Y6709460D01*
X5089448Y6704939D01*
X5076240Y6698742D01*
X5063998Y6690969D01*
X5052771Y6681673D01*
X5042814Y6671056D01*
X5034229Y6659270D01*
X5027218Y6646519D01*
X5021884Y6633006D01*
X5018278Y6618884D01*
X5016449Y6604457D01*
X5016449Y6589928D01*
X5018278Y6575501D01*
X5021884Y6561378D01*
X5027218Y6547866D01*
X5034229Y6535115D01*
X5042814Y6523329D01*
X5052771Y6512712D01*
X5063998Y6503416D01*
X5076240Y6495643D01*
X5089448Y6489446D01*
X5103266Y6484924D01*
X5117592Y6482232D01*
G37*

%LPD*%
G36*
X4084218Y2146808D02*
G01*
X4080306Y2147570D01*
X4077004Y2149805D01*
X4040581Y2186228D01*
X4038447Y2189327D01*
X4037584Y2192985D01*
X4038142Y2196693D01*
X4041698Y2207158D01*
X4044442Y2221077D01*
X4045407Y2235200D01*
X4044442Y2249322D01*
X4041698Y2263241D01*
X4037126Y2276652D01*
X4030878Y2289403D01*
X4023004Y2301189D01*
X4013657Y2311857D01*
X4002989Y2321204D01*
X3991203Y2329078D01*
X3982161Y2333498D01*
X3978706Y2336292D01*
X3976776Y2340203D01*
X3976674Y2344623D01*
X3978452Y2348636D01*
X3981754Y2351532D01*
X3986174Y2352802D01*
X4000093Y2355545D01*
X4013504Y2360117D01*
X4026255Y2366365D01*
X4038041Y2374239D01*
X4048709Y2383586D01*
X4058056Y2394254D01*
X4065930Y2406040D01*
X4072178Y2418791D01*
X4076750Y2432202D01*
X4079494Y2446121D01*
X4080459Y2460244D01*
X4079494Y2474366D01*
X4076750Y2488285D01*
X4072178Y2501696D01*
X4065930Y2514447D01*
X4058056Y2526233D01*
X4048709Y2536901D01*
X4038041Y2546248D01*
X4026255Y2554122D01*
X4013504Y2560370D01*
X4000093Y2564942D01*
X3985971Y2567736D01*
X3981754Y2568956D01*
X3978452Y2571851D01*
X3976674Y2575864D01*
X3976776Y2580284D01*
X3978706Y2584196D01*
X3982161Y2586990D01*
X3991203Y2591409D01*
X4002989Y2599283D01*
X4013657Y2608630D01*
X4023004Y2619298D01*
X4030878Y2631084D01*
X4037126Y2643835D01*
X4041698Y2657246D01*
X4044442Y2671165D01*
X4045407Y2685288D01*
X4044442Y2699410D01*
X4041698Y2713329D01*
X4037126Y2726740D01*
X4030878Y2739491D01*
X4023004Y2751277D01*
X4013657Y2761945D01*
X4011523Y2763774D01*
X4009085Y2767025D01*
X4008069Y2770987D01*
X4008729Y2775000D01*
X4010863Y2778455D01*
X4014215Y2780741D01*
X4018229Y2781554D01*
X4272889Y2781554D01*
X4276801Y2780792D01*
X4280103Y2778607D01*
X4282440Y2776220D01*
X4290517Y2770581D01*
X4299407Y2766466D01*
X4308906Y2763926D01*
X4318711Y2763062D01*
X4328464Y2763926D01*
X4337964Y2766466D01*
X4346854Y2770581D01*
X4354931Y2776220D01*
X4357268Y2778607D01*
X4360570Y2780792D01*
X4364482Y2781554D01*
X7028484Y2781554D01*
X7032498Y2780741D01*
X7035850Y2778455D01*
X7037984Y2775000D01*
X7038644Y2770987D01*
X7037628Y2767025D01*
X7035190Y2763774D01*
X7033056Y2761945D01*
X7023709Y2751277D01*
X7015835Y2739491D01*
X7009587Y2726740D01*
X7005015Y2713329D01*
X7002272Y2699410D01*
X7001306Y2685288D01*
X7002272Y2671165D01*
X7005015Y2657246D01*
X7009587Y2643835D01*
X7015835Y2631084D01*
X7023709Y2619298D01*
X7033056Y2608630D01*
X7043724Y2599283D01*
X7055510Y2591409D01*
X7059015Y2589682D01*
X7062317Y2587091D01*
X7064298Y2583434D01*
X7064603Y2579268D01*
X7063231Y2575306D01*
X7060387Y2572258D01*
X7056526Y2570632D01*
X7045858Y2568498D01*
X7032447Y2563926D01*
X7019696Y2557678D01*
X7007910Y2549804D01*
X6997242Y2540457D01*
X6987895Y2529789D01*
X6980021Y2518003D01*
X6973773Y2505252D01*
X6969201Y2491841D01*
X6966458Y2477922D01*
X6965492Y2463800D01*
X6966458Y2449677D01*
X6969201Y2435758D01*
X6973773Y2422347D01*
X6980021Y2409596D01*
X6987895Y2397810D01*
X6997242Y2387142D01*
X7007910Y2377795D01*
X7019696Y2369921D01*
X7032447Y2363673D01*
X7045858Y2359101D01*
X7059777Y2356358D01*
X7067753Y2355799D01*
X7071614Y2354783D01*
X7074763Y2352395D01*
X7076744Y2348941D01*
X7077252Y2345029D01*
X7076236Y2341168D01*
X7073798Y2338019D01*
X7070344Y2336038D01*
X7068261Y2335326D01*
X7055510Y2329078D01*
X7043724Y2321204D01*
X7033056Y2311857D01*
X7023709Y2301189D01*
X7015835Y2289403D01*
X7009587Y2276652D01*
X7005015Y2263241D01*
X7002272Y2249322D01*
X7001306Y2235200D01*
X7002272Y2221077D01*
X7005015Y2207158D01*
X7009587Y2193747D01*
X7015835Y2180996D01*
X7023709Y2169210D01*
X7028586Y2163673D01*
X7030516Y2160320D01*
X7031126Y2156510D01*
X7030212Y2152751D01*
X7027976Y2149652D01*
X7024725Y2147519D01*
X7020966Y2146808D01*
X4363669Y2146808D01*
X4359808Y2147570D01*
X4356506Y2149805D01*
X4354931Y2151380D01*
X4346854Y2157018D01*
X4337964Y2161133D01*
X4328464Y2163673D01*
X4318711Y2164537D01*
X4308906Y2163673D01*
X4299407Y2161133D01*
X4290517Y2157018D01*
X4282440Y2151380D01*
X4280865Y2149805D01*
X4277563Y2147570D01*
X4273702Y2146808D01*
G37*

%LPD*%
G36*
X2166518Y2146808D02*
G01*
X2162606Y2147570D01*
X2159304Y2149805D01*
X2122881Y2186228D01*
X2120747Y2189327D01*
X2119884Y2192985D01*
X2120442Y2196693D01*
X2123998Y2207158D01*
X2126742Y2221077D01*
X2127707Y2235200D01*
X2126742Y2249322D01*
X2123998Y2263241D01*
X2119426Y2276652D01*
X2113178Y2289403D01*
X2105304Y2301189D01*
X2095957Y2311857D01*
X2085289Y2321204D01*
X2073503Y2329078D01*
X2064461Y2333498D01*
X2061006Y2336292D01*
X2059076Y2340203D01*
X2058974Y2344623D01*
X2060752Y2348636D01*
X2064054Y2351532D01*
X2068474Y2352802D01*
X2082393Y2355545D01*
X2095804Y2360117D01*
X2108555Y2366365D01*
X2120341Y2374239D01*
X2131009Y2383586D01*
X2140356Y2394254D01*
X2148230Y2406040D01*
X2154478Y2418791D01*
X2159050Y2432202D01*
X2161794Y2446121D01*
X2162759Y2460244D01*
X2161794Y2474366D01*
X2159050Y2488285D01*
X2154478Y2501696D01*
X2148230Y2514447D01*
X2140356Y2526233D01*
X2131009Y2536901D01*
X2120341Y2546248D01*
X2108555Y2554122D01*
X2095804Y2560370D01*
X2082393Y2564942D01*
X2068271Y2567736D01*
X2064054Y2568956D01*
X2060752Y2571851D01*
X2058974Y2575864D01*
X2059076Y2580284D01*
X2061006Y2584196D01*
X2064461Y2586990D01*
X2073503Y2591409D01*
X2085289Y2599283D01*
X2095957Y2608630D01*
X2105304Y2619298D01*
X2113178Y2631084D01*
X2119426Y2643835D01*
X2123998Y2657246D01*
X2126742Y2671165D01*
X2127707Y2685288D01*
X2126742Y2699410D01*
X2123998Y2713329D01*
X2119426Y2726740D01*
X2113178Y2739491D01*
X2105304Y2751277D01*
X2095957Y2761945D01*
X2093823Y2763774D01*
X2091385Y2767025D01*
X2090369Y2770987D01*
X2091029Y2775000D01*
X2093163Y2778455D01*
X2096516Y2780741D01*
X2100529Y2781554D01*
X3205784Y2781554D01*
X3209798Y2780741D01*
X3213150Y2778455D01*
X3215284Y2775000D01*
X3215944Y2770987D01*
X3214928Y2767025D01*
X3212490Y2763774D01*
X3210356Y2761945D01*
X3201009Y2751277D01*
X3193135Y2739491D01*
X3186887Y2726740D01*
X3182315Y2713329D01*
X3179572Y2699410D01*
X3178606Y2685288D01*
X3179572Y2671165D01*
X3182315Y2657246D01*
X3186887Y2643835D01*
X3193135Y2631084D01*
X3201009Y2619298D01*
X3210356Y2608630D01*
X3221024Y2599283D01*
X3232810Y2591409D01*
X3236315Y2589682D01*
X3239617Y2587091D01*
X3241598Y2583434D01*
X3241903Y2579268D01*
X3240532Y2575306D01*
X3237687Y2572258D01*
X3233826Y2570632D01*
X3223158Y2568498D01*
X3209747Y2563926D01*
X3196996Y2557678D01*
X3185210Y2549804D01*
X3174542Y2540457D01*
X3165195Y2529789D01*
X3157321Y2518003D01*
X3151073Y2505252D01*
X3146501Y2491841D01*
X3143758Y2477922D01*
X3142792Y2463800D01*
X3143758Y2449677D01*
X3146501Y2435758D01*
X3151073Y2422347D01*
X3157321Y2409596D01*
X3165195Y2397810D01*
X3174542Y2387142D01*
X3185210Y2377795D01*
X3196996Y2369921D01*
X3209747Y2363673D01*
X3223158Y2359101D01*
X3237077Y2356358D01*
X3245053Y2355799D01*
X3248914Y2354783D01*
X3252063Y2352395D01*
X3254044Y2348941D01*
X3254552Y2345029D01*
X3253536Y2341168D01*
X3251098Y2338019D01*
X3247644Y2336038D01*
X3245561Y2335326D01*
X3232810Y2329078D01*
X3221024Y2321204D01*
X3210356Y2311857D01*
X3201009Y2301189D01*
X3193135Y2289403D01*
X3186887Y2276652D01*
X3182315Y2263241D01*
X3179572Y2249322D01*
X3178606Y2235200D01*
X3179572Y2221077D01*
X3182315Y2207158D01*
X3186887Y2193747D01*
X3193135Y2180996D01*
X3201009Y2169210D01*
X3205886Y2163673D01*
X3207816Y2160320D01*
X3208426Y2156510D01*
X3207512Y2152751D01*
X3205276Y2149652D01*
X3202025Y2147519D01*
X3198266Y2146808D01*
G37*

%LPD*%
G36*
X3375761Y2146808D02*
G01*
X3372002Y2147519D01*
X3368751Y2149652D01*
X3366515Y2152751D01*
X3365601Y2156510D01*
X3366211Y2160320D01*
X3368141Y2163673D01*
X3373018Y2169210D01*
X3380892Y2180996D01*
X3387140Y2193747D01*
X3391712Y2207158D01*
X3394456Y2221077D01*
X3395421Y2235200D01*
X3394456Y2249322D01*
X3391712Y2263241D01*
X3387140Y2276652D01*
X3380892Y2289403D01*
X3373018Y2301189D01*
X3363671Y2311857D01*
X3353003Y2321204D01*
X3341217Y2329078D01*
X3328466Y2335326D01*
X3315055Y2339898D01*
X3301136Y2342642D01*
X3293160Y2343200D01*
X3289300Y2344216D01*
X3286150Y2346604D01*
X3284169Y2350058D01*
X3283661Y2353970D01*
X3284677Y2357831D01*
X3287115Y2360980D01*
X3290570Y2362962D01*
X3292652Y2363673D01*
X3305403Y2369921D01*
X3317189Y2377795D01*
X3327857Y2387142D01*
X3337204Y2397810D01*
X3345078Y2409596D01*
X3351326Y2422347D01*
X3355898Y2435758D01*
X3358642Y2449677D01*
X3359607Y2463800D01*
X3358642Y2477922D01*
X3355898Y2491841D01*
X3351326Y2505252D01*
X3345078Y2518003D01*
X3337204Y2529789D01*
X3327857Y2540457D01*
X3317189Y2549804D01*
X3305403Y2557678D01*
X3301898Y2559405D01*
X3298596Y2561996D01*
X3296615Y2565654D01*
X3296310Y2569819D01*
X3297682Y2573782D01*
X3300526Y2576830D01*
X3304387Y2578455D01*
X3315055Y2580589D01*
X3328466Y2585161D01*
X3341217Y2591409D01*
X3353003Y2599283D01*
X3363671Y2608630D01*
X3373018Y2619298D01*
X3380892Y2631084D01*
X3387140Y2643835D01*
X3391712Y2657246D01*
X3394456Y2671165D01*
X3395421Y2685288D01*
X3394456Y2699410D01*
X3391712Y2713329D01*
X3387140Y2726740D01*
X3380892Y2739491D01*
X3373018Y2751277D01*
X3363671Y2761945D01*
X3361537Y2763774D01*
X3359099Y2767025D01*
X3358083Y2770987D01*
X3358743Y2775000D01*
X3360877Y2778455D01*
X3364229Y2780741D01*
X3368243Y2781554D01*
X3504133Y2781554D01*
X3507790Y2780893D01*
X3510991Y2778912D01*
X3513226Y2775915D01*
X3518154Y2765958D01*
X3526028Y2754172D01*
X3535375Y2743504D01*
X3546043Y2734157D01*
X3557828Y2726283D01*
X3570528Y2720035D01*
X3583940Y2715463D01*
X3597859Y2712720D01*
X3612032Y2711754D01*
X3626154Y2712720D01*
X3640074Y2715463D01*
X3653485Y2720035D01*
X3666185Y2726283D01*
X3677970Y2734157D01*
X3688638Y2743504D01*
X3697986Y2754172D01*
X3705860Y2765958D01*
X3710787Y2775915D01*
X3713022Y2778912D01*
X3716223Y2780893D01*
X3719880Y2781554D01*
X3855770Y2781554D01*
X3859784Y2780741D01*
X3863136Y2778455D01*
X3865270Y2775000D01*
X3865930Y2770987D01*
X3864914Y2767025D01*
X3862476Y2763774D01*
X3860342Y2761945D01*
X3850995Y2751277D01*
X3843121Y2739491D01*
X3836873Y2726740D01*
X3832301Y2713329D01*
X3829558Y2699410D01*
X3828592Y2685288D01*
X3829558Y2671165D01*
X3832301Y2657246D01*
X3836873Y2643835D01*
X3843121Y2631084D01*
X3850995Y2619298D01*
X3860342Y2608630D01*
X3871010Y2599283D01*
X3882796Y2591409D01*
X3895547Y2585161D01*
X3908958Y2580589D01*
X3923080Y2577795D01*
X3927297Y2576576D01*
X3930599Y2573680D01*
X3932377Y2569667D01*
X3932275Y2565247D01*
X3930345Y2561336D01*
X3926890Y2558542D01*
X3917848Y2554122D01*
X3906062Y2546248D01*
X3895394Y2536901D01*
X3886047Y2526233D01*
X3878173Y2514447D01*
X3871925Y2501696D01*
X3867353Y2488285D01*
X3864610Y2474366D01*
X3863644Y2460244D01*
X3864610Y2446121D01*
X3867353Y2432202D01*
X3871925Y2418791D01*
X3878173Y2406040D01*
X3886047Y2394254D01*
X3895394Y2383586D01*
X3906062Y2374239D01*
X3917848Y2366365D01*
X3926890Y2361946D01*
X3930345Y2359152D01*
X3932275Y2355240D01*
X3932377Y2350820D01*
X3930599Y2346807D01*
X3927297Y2343912D01*
X3922877Y2342642D01*
X3908958Y2339898D01*
X3895547Y2335326D01*
X3882796Y2329078D01*
X3871010Y2321204D01*
X3860342Y2311857D01*
X3850995Y2301189D01*
X3843121Y2289403D01*
X3836873Y2276652D01*
X3832301Y2263241D01*
X3829558Y2249322D01*
X3828592Y2235200D01*
X3829558Y2221077D01*
X3832301Y2207158D01*
X3835857Y2196693D01*
X3836415Y2192985D01*
X3835552Y2189327D01*
X3833418Y2186228D01*
X3796995Y2149805D01*
X3793693Y2147570D01*
X3789781Y2146808D01*
X3740048Y2146808D01*
X3736390Y2147519D01*
X3733190Y2149500D01*
X3730955Y2152497D01*
X3726078Y2162403D01*
X3718204Y2174189D01*
X3708857Y2184857D01*
X3698189Y2194204D01*
X3686403Y2202078D01*
X3673652Y2208326D01*
X3660241Y2212898D01*
X3646322Y2215642D01*
X3632200Y2216607D01*
X3618077Y2215642D01*
X3604158Y2212898D01*
X3590747Y2208326D01*
X3577996Y2202078D01*
X3566210Y2194204D01*
X3555542Y2184857D01*
X3546195Y2174189D01*
X3538321Y2162403D01*
X3533444Y2152497D01*
X3531209Y2149500D01*
X3528009Y2147519D01*
X3524351Y2146808D01*
G37*

%LPD*%
G36*
X3653790Y851408D02*
G01*
X3649675Y852271D01*
X3646220Y854811D01*
X3644137Y858469D01*
X3643731Y862685D01*
X3645052Y866749D01*
X3647948Y869848D01*
X3651808Y871524D01*
X3660241Y873201D01*
X3673652Y877773D01*
X3686403Y884021D01*
X3698189Y891895D01*
X3708857Y901242D01*
X3718204Y911910D01*
X3726078Y923696D01*
X3730955Y933602D01*
X3733190Y936599D01*
X3736390Y938580D01*
X3740048Y939292D01*
X3809492Y939292D01*
X3817518Y940104D01*
X3824732Y942289D01*
X3831437Y945845D01*
X3837635Y950976D01*
X3888028Y1001318D01*
X3891127Y1003452D01*
X3894785Y1004316D01*
X3898493Y1003757D01*
X3908958Y1000201D01*
X3922877Y997458D01*
X3937000Y996492D01*
X3951122Y997458D01*
X3965041Y1000201D01*
X3975506Y1003757D01*
X3979214Y1004316D01*
X3982872Y1003452D01*
X3985971Y1001318D01*
X4036364Y950976D01*
X4042562Y945845D01*
X4049268Y942289D01*
X4056481Y940104D01*
X4064508Y939292D01*
X4526686Y939292D01*
X4530547Y938530D01*
X4533849Y936294D01*
X4535424Y934719D01*
X4543501Y929081D01*
X4552391Y924966D01*
X4561890Y922426D01*
X4571695Y921562D01*
X4581448Y922426D01*
X4590948Y924966D01*
X4599838Y929081D01*
X4607915Y934719D01*
X4609490Y936294D01*
X4612792Y938530D01*
X4616653Y939292D01*
X7347051Y939292D01*
X7350709Y938580D01*
X7353909Y936599D01*
X7356144Y933602D01*
X7361021Y923696D01*
X7368895Y911910D01*
X7378242Y901242D01*
X7388910Y891895D01*
X7400696Y884021D01*
X7413447Y877773D01*
X7426858Y873201D01*
X7435291Y871524D01*
X7439152Y869848D01*
X7442047Y866749D01*
X7443368Y862685D01*
X7442962Y858469D01*
X7440879Y854811D01*
X7437424Y852271D01*
X7433309Y851408D01*
G37*

%LPD*%
D10*
X3519500Y8121190D02*
G01*
X5132090Y8121190D01*
X7342200Y6597185D02*
G01*
X5132090Y6597190D01*
X1601792Y8883202D02*
G01*
X5132090Y8883190D01*
X4571664Y9645190D02*
G01*
X5132090Y9645190D01*
X4318683Y9899190D02*
G01*
X5132090Y9899190D01*
X6959600Y6851197D02*
G01*
X5132090Y6851190D01*
X7912100Y7105197D02*
G01*
X5132090Y7105190D01*
X3136900Y8375190D02*
G01*
X5132090Y8375190D01*
X4089400Y8629190D02*
G01*
X5132090Y8629190D01*
X2171700Y9391190D02*
G01*
X5132090Y9391190D01*
X3632200Y2108200D02*
G01*
X2146300Y2108200D01*
X2019300Y2235200D01*
X7454900Y977900D02*
G01*
X7632700Y977900D01*
X7759700Y1104900D01*
X7454900Y2108200D02*
G01*
X7632700Y2108200D01*
X7759700Y2235200D01*
X5517006Y2820187D02*
G01*
X7434706Y2820187D01*
X3632200Y2108200D02*
G01*
X3810000Y2108200D01*
X3937000Y2235200D01*
X4318685Y2108200D02*
G01*
X4064000Y2108200D01*
X3937000Y2235200D01*
X3612006Y2820187D02*
G01*
X5517006Y2820187D01*
X1694306Y2820187D02*
G01*
X3612006Y2820187D01*
X1714500Y2108200D02*
G01*
X1892300Y2108200D01*
X2019300Y2235200D01*
X3632200Y977900D02*
G01*
X3810000Y977900D01*
X3937000Y1104900D01*
X5517006Y1689887D02*
G01*
X7434706Y1689887D01*
X3612006Y1689887D02*
G01*
X4571669Y1689887D01*
X4571669Y1689887D02*
G01*
X5517006Y1689887D01*
X1694306Y1689887D02*
G01*
X3612006Y1689887D01*
X3632200Y977900D02*
G01*
X2146300Y977900D01*
X2019300Y1104900D01*
X1714500Y977900D02*
G01*
X1892300Y977900D01*
X2019300Y1104900D01*
X1219200Y9137190D02*
G01*
X5132090Y9137190D01*
X7620000Y5581202D02*
G01*
X5132090Y5581190D01*
X1866900Y6343190D02*
G01*
X5132090Y6343190D01*
D11*
X3719573Y11176000D02*
G01*
X1801799Y11176000D01*
X5624573Y11176000D02*
G01*
X3719499Y11176000D01*
X7542199Y11176000D02*
G01*
X5624499Y11176000D01*
X6021090Y9899190D02*
G01*
X5624499Y9899190D01*
D10*
X3784600Y6089190D02*
G01*
X5132090Y6089190D01*
X7454900Y977900D02*
G01*
X4571669Y977900D01*
X4571669Y977900D02*
G01*
X4064000Y977900D01*
X3937000Y1104900D01*
X4318685Y2108200D02*
G01*
X7454900Y2108200D01*
D12*
G01*
X6021095Y10153192D03*
D13*
G01*
X6021095Y9391192D03*
D12*
G01*
X6021095Y9645192D03*
G01*
X6021095Y9899192D03*
G01*
X5132095Y10153192D03*
D14*
G01*
X5132095Y5327192D03*
D12*
G01*
X5132095Y5581192D03*
G01*
X5132095Y5835192D03*
G01*
X5132095Y6089192D03*
G01*
X5132095Y6343192D03*
G01*
X5132095Y6597192D03*
G01*
X5132095Y6851192D03*
G01*
X5132095Y7105192D03*
G01*
X5132095Y7359192D03*
G01*
X5132095Y7613192D03*
G01*
X5132095Y7867192D03*
G01*
X5132095Y8121192D03*
G01*
X5132095Y8375192D03*
G01*
X5132095Y8629192D03*
G01*
X5132095Y8883192D03*
G01*
X5132095Y9137192D03*
G01*
X5132095Y9391192D03*
G01*
X5132095Y9645192D03*
G01*
X5132095Y9899192D03*
D15*
G01*
X2019300Y2235200D03*
G01*
X1369288Y2235200D03*
G01*
X2019300Y2685211D03*
G01*
X1369288Y2685211D03*
G01*
X1694306Y2820187D03*
G01*
X2054301Y2460193D03*
G01*
X1714500Y2108200D03*
G01*
X1333500Y2463800D03*
G01*
X3937000Y2235200D03*
G01*
X3286988Y2235200D03*
G01*
X3937000Y2685211D03*
G01*
X3286988Y2685211D03*
G01*
X3612006Y2820187D03*
G01*
X3972001Y2460193D03*
G01*
X3632200Y2108200D03*
G01*
X3251200Y2463800D03*
G01*
X7759700Y2235200D03*
G01*
X7109688Y2235200D03*
G01*
X7759700Y2685211D03*
G01*
X7109688Y2685211D03*
G01*
X7434706Y2820187D03*
G01*
X7794701Y2460193D03*
G01*
X7454900Y2108200D03*
G01*
X7073900Y2463800D03*
G01*
X2019300Y1104900D03*
G01*
X1369288Y1104900D03*
G01*
X2019300Y1554911D03*
G01*
X1369288Y1554911D03*
G01*
X1694306Y1689887D03*
G01*
X2054301Y1329893D03*
G01*
X1714500Y977900D03*
G01*
X1333500Y1333500D03*
G01*
X3937000Y1104900D03*
G01*
X3286988Y1104900D03*
G01*
X3937000Y1554911D03*
G01*
X3286988Y1554911D03*
G01*
X3612006Y1689887D03*
G01*
X3972001Y1329893D03*
G01*
X3632200Y977900D03*
G01*
X3251200Y1333500D03*
G01*
X7759700Y1104900D03*
G01*
X7109688Y1104900D03*
G01*
X7759700Y1554911D03*
G01*
X7109688Y1554911D03*
G01*
X7434706Y1689887D03*
G01*
X7794701Y1329893D03*
G01*
X7454900Y977900D03*
G01*
X7073900Y1333500D03*
D16*
G01*
X3919499Y10883900D03*
G01*
X3719499Y10883900D03*
G01*
X3519500Y10883900D03*
D17*
G01*
X3319500Y10883900D03*
D16*
G01*
X7742199Y10883900D03*
G01*
X7542199Y10883900D03*
G01*
X7342200Y10883900D03*
D17*
G01*
X7142200Y10883900D03*
D16*
G01*
X2001799Y10883900D03*
G01*
X1801799Y10883900D03*
G01*
X1601800Y10883900D03*
D17*
G01*
X1401800Y10883900D03*
D18*
G01*
X8421395Y9873792D03*
G01*
X641400Y9873792D03*
G01*
X8421395Y5003800D03*
G01*
X641400Y5003800D03*
D19*
G01*
X3784600Y6089192D03*
G01*
X5624499Y9899192D03*
G01*
X7542199Y11176000D03*
G01*
X5624499Y11176000D03*
G01*
X3719499Y11176000D03*
G01*
X1801799Y11176000D03*
G01*
X1866900Y6343192D03*
G01*
X7620000Y5581192D03*
G01*
X1219200Y9137192D03*
G01*
X2171700Y9391192D03*
G01*
X4089400Y8629192D03*
G01*
X3136900Y8375192D03*
G01*
X7912100Y7105192D03*
G01*
X6959600Y6851192D03*
G01*
X4318685Y2108200D03*
G01*
X4571669Y1689887D03*
G01*
X4318685Y2819400D03*
G01*
X4571669Y977900D03*
G01*
X4318685Y9899192D03*
G01*
X4571669Y9645192D03*
G01*
X1601800Y8883192D03*
G01*
X7342200Y6597192D03*
G01*
X3519500Y8121192D03*
G01*
X4432300Y2463800D03*
G01*
X2514600Y2463800D03*
G01*
X2514600Y1333500D03*
G01*
X4432300Y1333500D03*
G01*
X3711498Y1337106D03*
G01*
X5616498Y1337106D03*
G01*
X5616498Y2467406D03*
G01*
X3711498Y2467406D03*
G01*
X6337300Y2463800D03*
G01*
X6337300Y1333500D03*
G01*
X7534198Y1337106D03*
G01*
X7534198Y2467406D03*
G01*
X1793798Y2467406D03*
G01*
X1793798Y1337106D03*
G01*
X2022398Y1895906D03*
G01*
X3940098Y1895906D03*
G01*
X5845098Y1895906D03*
G01*
X7762798Y1895906D03*
G01*
X2514600Y901700D03*
G01*
X4432300Y901700D03*
G01*
X6337300Y901700D03*
M02*
