G04 Layer: TopSilkscreenLayer*
G04 EasyEDA v6.5.29, 2023-07-18 10:59:27*
G04 edb8639753f2491aa550edbca108bfa0,5a6b42c53f6a479593ecc07194224c93,10*
G04 Gerber Generator version 0.2*
G04 Scale: 100 percent, Rotated: No, Reflected: No *
G04 Dimensions in millimeters *
G04 leading zeros omitted , absolute positions ,4 integer and 5 decimal *
%FSLAX45Y45*%
%MOMM*%

%ADD10C,0.2032*%
%ADD11C,0.1524*%
%ADD12C,0.1999*%
%ADD13C,0.2540*%

%LPD*%
D10*
X4851374Y11576456D02*
G01*
X4851374Y11461902D01*
X4851374Y11576456D02*
G01*
X4895062Y11461902D01*
X4938750Y11576456D02*
G01*
X4895062Y11461902D01*
X4938750Y11576456D02*
G01*
X4938750Y11461902D01*
X5072862Y11598300D02*
G01*
X4974564Y11423802D01*
X5108930Y11576456D02*
G01*
X5108930Y11461902D01*
X5108930Y11576456D02*
G01*
X5179796Y11576456D01*
X5108930Y11521846D02*
G01*
X5152364Y11521846D01*
X5108930Y11461902D02*
G01*
X5179796Y11461902D01*
X5376138Y11560200D02*
G01*
X5365216Y11571122D01*
X5348960Y11576456D01*
X5327116Y11576456D01*
X5310606Y11571122D01*
X5299684Y11560200D01*
X5299684Y11549278D01*
X5305272Y11538356D01*
X5310606Y11532768D01*
X5321528Y11527434D01*
X5354294Y11516512D01*
X5365216Y11510924D01*
X5370550Y11505590D01*
X5376138Y11494668D01*
X5376138Y11478412D01*
X5365216Y11467490D01*
X5348960Y11461902D01*
X5327116Y11461902D01*
X5310606Y11467490D01*
X5299684Y11478412D01*
X5444972Y11576456D02*
G01*
X5434050Y11571122D01*
X5423128Y11560200D01*
X5417540Y11549278D01*
X5412206Y11532768D01*
X5412206Y11505590D01*
X5417540Y11489334D01*
X5423128Y11478412D01*
X5434050Y11467490D01*
X5444972Y11461902D01*
X5466562Y11461902D01*
X5477484Y11467490D01*
X5488406Y11478412D01*
X5493994Y11489334D01*
X5499328Y11505590D01*
X5499328Y11532768D01*
X5493994Y11549278D01*
X5488406Y11560200D01*
X5477484Y11571122D01*
X5466562Y11576456D01*
X5444972Y11576456D01*
X5535396Y11576456D02*
G01*
X5535396Y11494668D01*
X5540730Y11478412D01*
X5551652Y11467490D01*
X5568162Y11461902D01*
X5579084Y11461902D01*
X5595340Y11467490D01*
X5606262Y11478412D01*
X5611850Y11494668D01*
X5611850Y11576456D01*
X5647664Y11576456D02*
G01*
X5647664Y11461902D01*
X5647664Y11576456D02*
G01*
X5696940Y11576456D01*
X5713196Y11571122D01*
X5718784Y11565534D01*
X5724118Y11554612D01*
X5724118Y11543690D01*
X5718784Y11532768D01*
X5713196Y11527434D01*
X5696940Y11521846D01*
X5647664Y11521846D01*
X5686018Y11521846D02*
G01*
X5724118Y11461902D01*
X5841974Y11549278D02*
G01*
X5836386Y11560200D01*
X5825464Y11571122D01*
X5814796Y11576456D01*
X5792952Y11576456D01*
X5782030Y11571122D01*
X5771108Y11560200D01*
X5765520Y11549278D01*
X5760186Y11532768D01*
X5760186Y11505590D01*
X5765520Y11489334D01*
X5771108Y11478412D01*
X5782030Y11467490D01*
X5792952Y11461902D01*
X5814796Y11461902D01*
X5825464Y11467490D01*
X5836386Y11478412D01*
X5841974Y11489334D01*
X5878042Y11576456D02*
G01*
X5878042Y11461902D01*
X5878042Y11576456D02*
G01*
X5948908Y11576456D01*
X5878042Y11521846D02*
G01*
X5921476Y11521846D01*
X5878042Y11461902D02*
G01*
X5948908Y11461902D01*
X6068796Y11576456D02*
G01*
X6068796Y11461902D01*
X6068796Y11576456D02*
G01*
X6112484Y11461902D01*
X6156172Y11576456D02*
G01*
X6112484Y11461902D01*
X6156172Y11576456D02*
G01*
X6156172Y11461902D01*
X6192240Y11576456D02*
G01*
X6192240Y11461902D01*
X6192240Y11576456D02*
G01*
X6263106Y11576456D01*
X6192240Y11521846D02*
G01*
X6235674Y11521846D01*
X6192240Y11461902D02*
G01*
X6263106Y11461902D01*
X6337274Y11576456D02*
G01*
X6337274Y11461902D01*
X6298920Y11576456D02*
G01*
X6375374Y11576456D01*
X6411442Y11576456D02*
G01*
X6411442Y11461902D01*
X6411442Y11576456D02*
G01*
X6482308Y11576456D01*
X6411442Y11521846D02*
G01*
X6455130Y11521846D01*
X6411442Y11461902D02*
G01*
X6482308Y11461902D01*
X6518376Y11576456D02*
G01*
X6518376Y11461902D01*
X6518376Y11576456D02*
G01*
X6567398Y11576456D01*
X6583654Y11571122D01*
X6589242Y11565534D01*
X6594576Y11554612D01*
X6594576Y11543690D01*
X6589242Y11532768D01*
X6583654Y11527434D01*
X6567398Y11521846D01*
X6518376Y11521846D01*
X6556476Y11521846D02*
G01*
X6594576Y11461902D01*
X6707098Y11560200D02*
G01*
X6696176Y11571122D01*
X6679666Y11576456D01*
X6657822Y11576456D01*
X6641566Y11571122D01*
X6630644Y11560200D01*
X6630644Y11549278D01*
X6636232Y11538356D01*
X6641566Y11532768D01*
X6652488Y11527434D01*
X6685254Y11516512D01*
X6696176Y11510924D01*
X6701510Y11505590D01*
X6707098Y11494668D01*
X6707098Y11478412D01*
X6696176Y11467490D01*
X6679666Y11461902D01*
X6657822Y11461902D01*
X6641566Y11467490D01*
X6630644Y11478412D01*
X6826986Y11576456D02*
G01*
X6826986Y11461902D01*
X6826986Y11576456D02*
G01*
X6876008Y11576456D01*
X6892518Y11571122D01*
X6897852Y11565534D01*
X6903440Y11554612D01*
X6903440Y11543690D01*
X6897852Y11532768D01*
X6892518Y11527434D01*
X6876008Y11521846D01*
X6826986Y11521846D02*
G01*
X6876008Y11521846D01*
X6892518Y11516512D01*
X6897852Y11510924D01*
X6903440Y11500002D01*
X6903440Y11483746D01*
X6897852Y11472824D01*
X6892518Y11467490D01*
X6876008Y11461902D01*
X6826986Y11461902D01*
X6939508Y11576456D02*
G01*
X6939508Y11494668D01*
X6944842Y11478412D01*
X6955764Y11467490D01*
X6972020Y11461902D01*
X6982942Y11461902D01*
X6999452Y11467490D01*
X7010374Y11478412D01*
X7015708Y11494668D01*
X7015708Y11576456D01*
X7089876Y11576456D02*
G01*
X7089876Y11461902D01*
X7051776Y11576456D02*
G01*
X7128230Y11576456D01*
X7202398Y11576456D02*
G01*
X7202398Y11461902D01*
X7164044Y11576456D02*
G01*
X7240498Y11576456D01*
X7309332Y11576456D02*
G01*
X7298410Y11571122D01*
X7287488Y11560200D01*
X7281900Y11549278D01*
X7276566Y11532768D01*
X7276566Y11505590D01*
X7281900Y11489334D01*
X7287488Y11478412D01*
X7298410Y11467490D01*
X7309332Y11461902D01*
X7330922Y11461902D01*
X7341844Y11467490D01*
X7352766Y11478412D01*
X7358354Y11489334D01*
X7363688Y11505590D01*
X7363688Y11532768D01*
X7358354Y11549278D01*
X7352766Y11560200D01*
X7341844Y11571122D01*
X7330922Y11576456D01*
X7309332Y11576456D01*
X7399756Y11576456D02*
G01*
X7399756Y11461902D01*
X7399756Y11576456D02*
G01*
X7476210Y11461902D01*
X7476210Y11576456D02*
G01*
X7476210Y11461902D01*
X7596098Y11576456D02*
G01*
X7596098Y11461902D01*
X7596098Y11576456D02*
G01*
X7645120Y11576456D01*
X7661630Y11571122D01*
X7666964Y11565534D01*
X7672552Y11554612D01*
X7672552Y11543690D01*
X7666964Y11532768D01*
X7661630Y11527434D01*
X7645120Y11521846D01*
X7596098Y11521846D02*
G01*
X7645120Y11521846D01*
X7661630Y11516512D01*
X7666964Y11510924D01*
X7672552Y11500002D01*
X7672552Y11483746D01*
X7666964Y11472824D01*
X7661630Y11467490D01*
X7645120Y11461902D01*
X7596098Y11461902D01*
X7741132Y11576456D02*
G01*
X7730210Y11571122D01*
X7719288Y11560200D01*
X7713954Y11549278D01*
X7708366Y11532768D01*
X7708366Y11505590D01*
X7713954Y11489334D01*
X7719288Y11478412D01*
X7730210Y11467490D01*
X7741132Y11461902D01*
X7762976Y11461902D01*
X7773898Y11467490D01*
X7784820Y11478412D01*
X7790408Y11489334D01*
X7795742Y11505590D01*
X7795742Y11532768D01*
X7790408Y11549278D01*
X7784820Y11560200D01*
X7773898Y11571122D01*
X7762976Y11576456D01*
X7741132Y11576456D01*
X7875498Y11576456D02*
G01*
X7831810Y11461902D01*
X7875498Y11576456D02*
G01*
X7918932Y11461902D01*
X7848066Y11500002D02*
G01*
X7902676Y11500002D01*
X7955000Y11576456D02*
G01*
X7955000Y11461902D01*
X7955000Y11576456D02*
G01*
X8004022Y11576456D01*
X8020532Y11571122D01*
X8025866Y11565534D01*
X8031454Y11554612D01*
X8031454Y11543690D01*
X8025866Y11532768D01*
X8020532Y11527434D01*
X8004022Y11521846D01*
X7955000Y11521846D01*
X7993100Y11521846D02*
G01*
X8031454Y11461902D01*
X8067268Y11576456D02*
G01*
X8067268Y11461902D01*
X8067268Y11576456D02*
G01*
X8105622Y11576456D01*
X8121878Y11571122D01*
X8132800Y11560200D01*
X8138388Y11549278D01*
X8143722Y11532768D01*
X8143722Y11505590D01*
X8138388Y11489334D01*
X8132800Y11478412D01*
X8121878Y11467490D01*
X8105622Y11461902D01*
X8067268Y11461902D01*
X8263864Y11510924D02*
G01*
X8361908Y11510924D01*
X8520150Y11576456D02*
G01*
X8520150Y11461902D01*
X8482050Y11576456D02*
G01*
X8558250Y11576456D01*
X8627084Y11576456D02*
G01*
X8616162Y11571122D01*
X8605240Y11560200D01*
X8599652Y11549278D01*
X8594318Y11532768D01*
X8594318Y11505590D01*
X8599652Y11489334D01*
X8605240Y11478412D01*
X8616162Y11467490D01*
X8627084Y11461902D01*
X8648928Y11461902D01*
X8659850Y11467490D01*
X8670772Y11478412D01*
X8676106Y11489334D01*
X8681694Y11505590D01*
X8681694Y11532768D01*
X8676106Y11549278D01*
X8670772Y11560200D01*
X8659850Y11571122D01*
X8648928Y11576456D01*
X8627084Y11576456D01*
X8717508Y11576456D02*
G01*
X8717508Y11461902D01*
X8717508Y11576456D02*
G01*
X8766784Y11576456D01*
X8783040Y11571122D01*
X8788374Y11565534D01*
X8793962Y11554612D01*
X8793962Y11538356D01*
X8788374Y11527434D01*
X8783040Y11521846D01*
X8766784Y11516512D01*
X8717508Y11516512D01*
X5664200Y11360658D02*
G01*
X5664200Y11246104D01*
X5664200Y11360658D02*
G01*
X5713222Y11360658D01*
X5729731Y11355070D01*
X5735065Y11349736D01*
X5740654Y11338813D01*
X5740654Y11322304D01*
X5735065Y11311381D01*
X5729731Y11306047D01*
X5713222Y11300713D01*
X5664200Y11300713D01*
X5820156Y11360658D02*
G01*
X5776468Y11246104D01*
X5820156Y11360658D02*
G01*
X5863843Y11246104D01*
X5792977Y11284204D02*
G01*
X5847588Y11284204D01*
X5899911Y11360658D02*
G01*
X5899911Y11246104D01*
X5899911Y11360658D02*
G01*
X5948934Y11360658D01*
X5965190Y11355070D01*
X5970777Y11349736D01*
X5976111Y11338813D01*
X5976111Y11327892D01*
X5970777Y11316970D01*
X5965190Y11311381D01*
X5948934Y11306047D01*
X5899911Y11306047D01*
X5938011Y11306047D02*
G01*
X5976111Y11246104D01*
X6050279Y11360658D02*
G01*
X6050279Y11246104D01*
X6012179Y11360658D02*
G01*
X6088634Y11360658D01*
X6208522Y11360658D02*
G01*
X6208522Y11246104D01*
X6208522Y11360658D02*
G01*
X6284975Y11246104D01*
X6284975Y11360658D02*
G01*
X6284975Y11246104D01*
X6321043Y11360658D02*
G01*
X6321043Y11278870D01*
X6326377Y11262360D01*
X6337300Y11251437D01*
X6353556Y11246104D01*
X6364477Y11246104D01*
X6380988Y11251437D01*
X6391909Y11262360D01*
X6397243Y11278870D01*
X6397243Y11360658D01*
X6433311Y11360658D02*
G01*
X6433311Y11246104D01*
X6433311Y11360658D02*
G01*
X6477000Y11246104D01*
X6520688Y11360658D02*
G01*
X6477000Y11246104D01*
X6520688Y11360658D02*
G01*
X6520688Y11246104D01*
X6556502Y11360658D02*
G01*
X6556502Y11246104D01*
X6556502Y11360658D02*
G01*
X6605777Y11360658D01*
X6622034Y11355070D01*
X6627368Y11349736D01*
X6632956Y11338813D01*
X6632956Y11327892D01*
X6627368Y11316970D01*
X6622034Y11311381D01*
X6605777Y11306047D01*
X6556502Y11306047D02*
G01*
X6605777Y11306047D01*
X6622034Y11300713D01*
X6627368Y11295126D01*
X6632956Y11284204D01*
X6632956Y11267947D01*
X6627368Y11257026D01*
X6622034Y11251437D01*
X6605777Y11246104D01*
X6556502Y11246104D01*
X6669024Y11360658D02*
G01*
X6669024Y11246104D01*
X6669024Y11360658D02*
G01*
X6739890Y11360658D01*
X6669024Y11306047D02*
G01*
X6712458Y11306047D01*
X6669024Y11246104D02*
G01*
X6739890Y11246104D01*
X6775958Y11360658D02*
G01*
X6775958Y11246104D01*
X6775958Y11360658D02*
G01*
X6824979Y11360658D01*
X6841236Y11355070D01*
X6846824Y11349736D01*
X6852158Y11338813D01*
X6852158Y11327892D01*
X6846824Y11316970D01*
X6841236Y11311381D01*
X6824979Y11306047D01*
X6775958Y11306047D01*
X6814058Y11306047D02*
G01*
X6852158Y11246104D01*
X6977634Y11333226D02*
G01*
X6977634Y11338813D01*
X6983222Y11349736D01*
X6988556Y11355070D01*
X6999477Y11360658D01*
X7021322Y11360658D01*
X7032243Y11355070D01*
X7037577Y11349736D01*
X7043165Y11338813D01*
X7043165Y11327892D01*
X7037577Y11316970D01*
X7026656Y11300713D01*
X6972300Y11246104D01*
X7048500Y11246104D01*
X7111745Y11360658D02*
G01*
X7095490Y11355070D01*
X7089902Y11344147D01*
X7089902Y11333226D01*
X7095490Y11322304D01*
X7106411Y11316970D01*
X7128256Y11311381D01*
X7144511Y11306047D01*
X7155434Y11295126D01*
X7161022Y11284204D01*
X7161022Y11267947D01*
X7155434Y11257026D01*
X7150100Y11251437D01*
X7133590Y11246104D01*
X7111745Y11246104D01*
X7095490Y11251437D01*
X7089902Y11257026D01*
X7084568Y11267947D01*
X7084568Y11284204D01*
X7089902Y11295126D01*
X7100824Y11306047D01*
X7117334Y11311381D01*
X7139177Y11316970D01*
X7150100Y11322304D01*
X7155434Y11333226D01*
X7155434Y11344147D01*
X7150100Y11355070D01*
X7133590Y11360658D01*
X7111745Y11360658D01*
X7262368Y11360658D02*
G01*
X7207758Y11360658D01*
X7202424Y11311381D01*
X7207758Y11316970D01*
X7224268Y11322304D01*
X7240524Y11322304D01*
X7257034Y11316970D01*
X7267956Y11306047D01*
X7273290Y11289792D01*
X7273290Y11278870D01*
X7267956Y11262360D01*
X7257034Y11251437D01*
X7240524Y11246104D01*
X7224268Y11246104D01*
X7207758Y11251437D01*
X7202424Y11257026D01*
X7196836Y11267947D01*
X7309358Y11338813D02*
G01*
X7320279Y11344147D01*
X7336536Y11360658D01*
X7336536Y11246104D01*
X7372604Y11295126D02*
G01*
X7470647Y11295126D01*
X7539481Y11360658D02*
G01*
X7523225Y11355070D01*
X7512304Y11338813D01*
X7506715Y11311381D01*
X7506715Y11295126D01*
X7512304Y11267947D01*
X7523225Y11251437D01*
X7539481Y11246104D01*
X7550404Y11246104D01*
X7566659Y11251437D01*
X7577581Y11267947D01*
X7583170Y11295126D01*
X7583170Y11311381D01*
X7577581Y11338813D01*
X7566659Y11355070D01*
X7550404Y11360658D01*
X7539481Y11360658D01*
X7673593Y11360658D02*
G01*
X7618984Y11284204D01*
X7701025Y11284204D01*
X7673593Y11360658D02*
G01*
X7673593Y11246104D01*
X7769606Y11360658D02*
G01*
X7753350Y11355070D01*
X7742427Y11338813D01*
X7736840Y11311381D01*
X7736840Y11295126D01*
X7742427Y11267947D01*
X7753350Y11251437D01*
X7769606Y11246104D01*
X7780527Y11246104D01*
X7797038Y11251437D01*
X7807706Y11267947D01*
X7813293Y11295126D01*
X7813293Y11311381D01*
X7807706Y11338813D01*
X7797038Y11355070D01*
X7780527Y11360658D01*
X7769606Y11360658D01*
X7849361Y11338813D02*
G01*
X7860284Y11344147D01*
X7876540Y11360658D01*
X7876540Y11246104D01*
X7996681Y11360658D02*
G01*
X8040115Y11246104D01*
X8083804Y11360658D02*
G01*
X8040115Y11246104D01*
X8119872Y11338813D02*
G01*
X8130793Y11344147D01*
X8147050Y11360658D01*
X8147050Y11246104D01*
D11*
X1079754Y2944876D02*
G01*
X1070610Y2953765D01*
X1056894Y2958337D01*
X1038605Y2958337D01*
X1025144Y2953765D01*
X1016000Y2944876D01*
X1016000Y2935731D01*
X1020571Y2926587D01*
X1025144Y2922015D01*
X1034287Y2917444D01*
X1061465Y2908300D01*
X1070610Y2903981D01*
X1075181Y2899410D01*
X1079754Y2890265D01*
X1079754Y2876550D01*
X1070610Y2867405D01*
X1056894Y2862834D01*
X1038605Y2862834D01*
X1025144Y2867405D01*
X1016000Y2876550D01*
X1109726Y2940304D02*
G01*
X1118615Y2944876D01*
X1132331Y2958337D01*
X1132331Y2862834D01*
X2959354Y2944876D02*
G01*
X2950209Y2953765D01*
X2936493Y2958337D01*
X2918206Y2958337D01*
X2904743Y2953765D01*
X2895600Y2944876D01*
X2895600Y2935731D01*
X2900172Y2926587D01*
X2904743Y2922015D01*
X2913888Y2917444D01*
X2941065Y2908300D01*
X2950209Y2903981D01*
X2954781Y2899410D01*
X2959354Y2890265D01*
X2959354Y2876550D01*
X2950209Y2867405D01*
X2936493Y2862834D01*
X2918206Y2862834D01*
X2904743Y2867405D01*
X2895600Y2876550D01*
X2993897Y2935731D02*
G01*
X2993897Y2940304D01*
X2998215Y2949194D01*
X3002788Y2953765D01*
X3011931Y2958337D01*
X3030220Y2958337D01*
X3039109Y2953765D01*
X3043681Y2949194D01*
X3048254Y2940304D01*
X3048254Y2931160D01*
X3043681Y2922015D01*
X3034791Y2908300D01*
X2989325Y2862834D01*
X3052825Y2862834D01*
X6782054Y2944876D02*
G01*
X6772909Y2953765D01*
X6759193Y2958337D01*
X6740906Y2958337D01*
X6727443Y2953765D01*
X6718300Y2944876D01*
X6718300Y2935731D01*
X6722872Y2926587D01*
X6727443Y2922015D01*
X6736588Y2917444D01*
X6763765Y2908300D01*
X6772909Y2903981D01*
X6777481Y2899410D01*
X6782054Y2890265D01*
X6782054Y2876550D01*
X6772909Y2867405D01*
X6759193Y2862834D01*
X6740906Y2862834D01*
X6727443Y2867405D01*
X6718300Y2876550D01*
X6857491Y2958337D02*
G01*
X6812025Y2894837D01*
X6880097Y2894837D01*
X6857491Y2958337D02*
G01*
X6857491Y2862834D01*
X1041654Y1814576D02*
G01*
X1032510Y1823465D01*
X1018794Y1828037D01*
X1000505Y1828037D01*
X987044Y1823465D01*
X977900Y1814576D01*
X977900Y1805431D01*
X982471Y1796287D01*
X987044Y1791715D01*
X996187Y1787144D01*
X1023365Y1778000D01*
X1032510Y1773681D01*
X1037081Y1769110D01*
X1041654Y1759965D01*
X1041654Y1746250D01*
X1032510Y1737105D01*
X1018794Y1732534D01*
X1000505Y1732534D01*
X987044Y1737105D01*
X977900Y1746250D01*
X1125981Y1828037D02*
G01*
X1080515Y1828037D01*
X1076197Y1787144D01*
X1080515Y1791715D01*
X1094231Y1796287D01*
X1107947Y1796287D01*
X1121410Y1791715D01*
X1130554Y1782571D01*
X1135126Y1769110D01*
X1135126Y1759965D01*
X1130554Y1746250D01*
X1121410Y1737105D01*
X1107947Y1732534D01*
X1094231Y1732534D01*
X1080515Y1737105D01*
X1076197Y1741678D01*
X1071626Y1750821D01*
X2959354Y1814576D02*
G01*
X2950209Y1823465D01*
X2936493Y1828037D01*
X2918206Y1828037D01*
X2904743Y1823465D01*
X2895600Y1814576D01*
X2895600Y1805431D01*
X2900172Y1796287D01*
X2904743Y1791715D01*
X2913888Y1787144D01*
X2941065Y1778000D01*
X2950209Y1773681D01*
X2954781Y1769110D01*
X2959354Y1759965D01*
X2959354Y1746250D01*
X2950209Y1737105D01*
X2936493Y1732534D01*
X2918206Y1732534D01*
X2904743Y1737105D01*
X2895600Y1746250D01*
X3043681Y1814576D02*
G01*
X3039109Y1823465D01*
X3025647Y1828037D01*
X3016504Y1828037D01*
X3002788Y1823465D01*
X2993897Y1810004D01*
X2989325Y1787144D01*
X2989325Y1764537D01*
X2993897Y1746250D01*
X3002788Y1737105D01*
X3016504Y1732534D01*
X3021075Y1732534D01*
X3034791Y1737105D01*
X3043681Y1746250D01*
X3048254Y1759965D01*
X3048254Y1764537D01*
X3043681Y1778000D01*
X3034791Y1787144D01*
X3021075Y1791715D01*
X3016504Y1791715D01*
X3002788Y1787144D01*
X2993897Y1778000D01*
X2989325Y1764537D01*
X6782054Y1814576D02*
G01*
X6772909Y1823465D01*
X6759193Y1828037D01*
X6740906Y1828037D01*
X6727443Y1823465D01*
X6718300Y1814576D01*
X6718300Y1805431D01*
X6722872Y1796287D01*
X6727443Y1791715D01*
X6736588Y1787144D01*
X6763765Y1778000D01*
X6772909Y1773681D01*
X6777481Y1769110D01*
X6782054Y1759965D01*
X6782054Y1746250D01*
X6772909Y1737105D01*
X6759193Y1732534D01*
X6740906Y1732534D01*
X6727443Y1737105D01*
X6718300Y1746250D01*
X6834631Y1828037D02*
G01*
X6820915Y1823465D01*
X6816597Y1814576D01*
X6816597Y1805431D01*
X6820915Y1796287D01*
X6830059Y1791715D01*
X6848347Y1787144D01*
X6861809Y1782571D01*
X6870954Y1773681D01*
X6875525Y1764537D01*
X6875525Y1750821D01*
X6870954Y1741678D01*
X6866381Y1737105D01*
X6852920Y1732534D01*
X6834631Y1732534D01*
X6820915Y1737105D01*
X6816597Y1741678D01*
X6812025Y1750821D01*
X6812025Y1764537D01*
X6816597Y1773681D01*
X6825488Y1782571D01*
X6839204Y1787144D01*
X6857491Y1791715D01*
X6866381Y1796287D01*
X6870954Y1805431D01*
X6870954Y1814576D01*
X6866381Y1823465D01*
X6852920Y1828037D01*
X6834631Y1828037D01*
X1799336Y4458715D02*
G01*
X1799336Y4349750D01*
X1799336Y4458715D02*
G01*
X1835657Y4458715D01*
X1851152Y4453636D01*
X1861565Y4443221D01*
X1866900Y4432807D01*
X1871979Y4417060D01*
X1871979Y4391152D01*
X1866900Y4375657D01*
X1861565Y4365244D01*
X1851152Y4354829D01*
X1835657Y4349750D01*
X1799336Y4349750D01*
X1911604Y4432807D02*
G01*
X1911604Y4437887D01*
X1916684Y4448302D01*
X1921763Y4453636D01*
X1932177Y4458715D01*
X1953006Y4458715D01*
X1963420Y4453636D01*
X1968754Y4448302D01*
X1973834Y4437887D01*
X1973834Y4427473D01*
X1968754Y4417060D01*
X1958340Y4401565D01*
X1906270Y4349750D01*
X1978913Y4349750D01*
X3348664Y4454598D02*
G01*
X3348664Y4345495D01*
X3348664Y4454598D02*
G01*
X3385032Y4454598D01*
X3400620Y4449404D01*
X3411009Y4439013D01*
X3416206Y4428622D01*
X3421400Y4413034D01*
X3421400Y4387057D01*
X3416206Y4371472D01*
X3411009Y4361080D01*
X3400620Y4350689D01*
X3385032Y4345495D01*
X3348664Y4345495D01*
X3466081Y4454598D02*
G01*
X3523231Y4454598D01*
X3492060Y4413034D01*
X3507646Y4413034D01*
X3518037Y4407839D01*
X3523231Y4402645D01*
X3528428Y4387057D01*
X3528428Y4376666D01*
X3523231Y4361080D01*
X3512840Y4350689D01*
X3497254Y4345495D01*
X3481669Y4345495D01*
X3466081Y4350689D01*
X3460887Y4355884D01*
X3455690Y4366275D01*
X1456436Y4458715D02*
G01*
X1456436Y4349750D01*
X1456436Y4458715D02*
G01*
X1492757Y4458715D01*
X1508252Y4453636D01*
X1518665Y4443221D01*
X1524000Y4432807D01*
X1529079Y4417060D01*
X1529079Y4391152D01*
X1524000Y4375657D01*
X1518665Y4365244D01*
X1508252Y4354829D01*
X1492757Y4349750D01*
X1456436Y4349750D01*
X1563370Y4437887D02*
G01*
X1573784Y4443221D01*
X1589278Y4458715D01*
X1589278Y4349750D01*
X3717038Y4458792D02*
G01*
X3717038Y4349572D01*
X3717038Y4458792D02*
G01*
X3753360Y4458792D01*
X3768854Y4453458D01*
X3779268Y4443044D01*
X3784602Y4432884D01*
X3789682Y4417136D01*
X3789682Y4391228D01*
X3784602Y4375734D01*
X3779268Y4365320D01*
X3768854Y4354906D01*
X3753360Y4349572D01*
X3717038Y4349572D01*
X3876042Y4458792D02*
G01*
X3823972Y4385894D01*
X3901950Y4385894D01*
X3876042Y4458792D02*
G01*
X3876042Y4349572D01*
X7552436Y4458715D02*
G01*
X7552436Y4349750D01*
X7552436Y4458715D02*
G01*
X7588758Y4458715D01*
X7604252Y4453636D01*
X7614665Y4443221D01*
X7620000Y4432807D01*
X7625079Y4417060D01*
X7625079Y4391152D01*
X7620000Y4375657D01*
X7614665Y4365244D01*
X7604252Y4354829D01*
X7588758Y4349750D01*
X7552436Y4349750D01*
X7685277Y4458715D02*
G01*
X7669784Y4453636D01*
X7664704Y4443221D01*
X7664704Y4432807D01*
X7669784Y4422394D01*
X7680197Y4417060D01*
X7701025Y4411979D01*
X7716520Y4406900D01*
X7726934Y4396486D01*
X7732013Y4386071D01*
X7732013Y4370323D01*
X7726934Y4359910D01*
X7721854Y4354829D01*
X7706106Y4349750D01*
X7685277Y4349750D01*
X7669784Y4354829D01*
X7664704Y4359910D01*
X7659370Y4370323D01*
X7659370Y4386071D01*
X7664704Y4396486D01*
X7674863Y4406900D01*
X7690611Y4411979D01*
X7711440Y4417060D01*
X7721854Y4422394D01*
X7726934Y4432807D01*
X7726934Y4443221D01*
X7721854Y4453636D01*
X7706106Y4458715D01*
X7685277Y4458715D01*
X7184136Y4454652D02*
G01*
X7184136Y4345431D01*
X7184136Y4454652D02*
G01*
X7220458Y4454652D01*
X7235952Y4449318D01*
X7246365Y4438904D01*
X7251700Y4428744D01*
X7256779Y4412995D01*
X7256779Y4387087D01*
X7251700Y4371594D01*
X7246365Y4361179D01*
X7235952Y4350765D01*
X7220458Y4345431D01*
X7184136Y4345431D01*
X7363713Y4454652D02*
G01*
X7311897Y4345431D01*
X7291070Y4454652D02*
G01*
X7363713Y4454652D01*
X4141355Y10935738D02*
G01*
X4141355Y10852612D01*
X4136158Y10837024D01*
X4130964Y10831829D01*
X4120573Y10826635D01*
X4110182Y10826635D01*
X4099791Y10831829D01*
X4094594Y10837024D01*
X4089400Y10852612D01*
X4089400Y10863003D01*
X4180840Y10909762D02*
G01*
X4180840Y10914956D01*
X4186034Y10925347D01*
X4191231Y10930544D01*
X4201622Y10935738D01*
X4222404Y10935738D01*
X4232795Y10930544D01*
X4237990Y10925347D01*
X4243184Y10914956D01*
X4243184Y10904565D01*
X4237990Y10894174D01*
X4227598Y10878588D01*
X4175645Y10826635D01*
X4248381Y10826635D01*
X7964081Y10935733D02*
G01*
X7964081Y10852607D01*
X7958884Y10837019D01*
X7953689Y10831824D01*
X7943298Y10826630D01*
X7932907Y10826630D01*
X7922516Y10831824D01*
X7917319Y10837019D01*
X7912125Y10852607D01*
X7912125Y10862998D01*
X8050324Y10935733D02*
G01*
X7998371Y10862998D01*
X8076300Y10862998D01*
X8050324Y10935733D02*
G01*
X8050324Y10826630D01*
X2236391Y10935743D02*
G01*
X2236391Y10852617D01*
X2231194Y10837029D01*
X2226000Y10831835D01*
X2215608Y10826640D01*
X2205217Y10826640D01*
X2194826Y10831835D01*
X2189629Y10837029D01*
X2184435Y10852617D01*
X2184435Y10863008D01*
X2270681Y10914961D02*
G01*
X2281069Y10920158D01*
X2296657Y10935743D01*
X2296657Y10826640D01*
G36*
X1931619Y4227474D02*
G01*
X1931619Y4196994D01*
X1961134Y4196994D01*
X1961134Y4227474D01*
G37*
G36*
X1772666Y4227474D02*
G01*
X1772666Y4196994D01*
X1802180Y4196994D01*
X1802180Y4227474D01*
G37*
G36*
X3506419Y4227474D02*
G01*
X3506419Y4196994D01*
X3535934Y4196994D01*
X3535934Y4227474D01*
G37*
G36*
X3347465Y4227474D02*
G01*
X3347465Y4196994D01*
X3376980Y4196994D01*
X3376980Y4227474D01*
G37*
G36*
X1588719Y4227474D02*
G01*
X1588719Y4196994D01*
X1618234Y4196994D01*
X1618234Y4227474D01*
G37*
G36*
X1429766Y4227474D02*
G01*
X1429766Y4196994D01*
X1459280Y4196994D01*
X1459280Y4227474D01*
G37*
G36*
X3849319Y4227474D02*
G01*
X3849319Y4196994D01*
X3878834Y4196994D01*
X3878834Y4227474D01*
G37*
G36*
X3690365Y4227474D02*
G01*
X3690365Y4196994D01*
X3719880Y4196994D01*
X3719880Y4227474D01*
G37*
G36*
X7684770Y4227474D02*
G01*
X7684770Y4196994D01*
X7714234Y4196994D01*
X7714234Y4227474D01*
G37*
G36*
X7525766Y4227474D02*
G01*
X7525766Y4196994D01*
X7555280Y4196994D01*
X7555280Y4227474D01*
G37*
G36*
X7341870Y4227474D02*
G01*
X7341870Y4196994D01*
X7371334Y4196994D01*
X7371334Y4227474D01*
G37*
G36*
X7182866Y4227474D02*
G01*
X7182866Y4196994D01*
X7212380Y4196994D01*
X7212380Y4227474D01*
G37*
D12*
X1194307Y2960115D02*
G01*
X1194307Y1960118D01*
X2194306Y1960118D01*
X2194306Y2960115D01*
X1194307Y2960115D01*
X3112008Y2960115D02*
G01*
X3112008Y1960118D01*
X4112006Y1960118D01*
X4112006Y2960115D01*
X3112008Y2960115D01*
X6934708Y2960115D02*
G01*
X6934708Y1960118D01*
X7934706Y1960118D01*
X7934706Y2960115D01*
X6934708Y2960115D01*
X1194307Y1829815D02*
G01*
X1194307Y829818D01*
X2194306Y829818D01*
X2194306Y1829815D01*
X1194307Y1829815D01*
X3112008Y1829815D02*
G01*
X3112008Y829818D01*
X4112006Y829818D01*
X4112006Y1829815D01*
X3112008Y1829815D01*
X6934708Y1829815D02*
G01*
X6934708Y829818D01*
X7934706Y829818D01*
X7934706Y1829815D01*
X6934708Y1829815D01*
D11*
X1953519Y4204619D02*
G01*
X1953519Y3923380D01*
X1953519Y3923380D02*
G01*
X1936719Y3923380D01*
X1780280Y4204619D02*
G01*
X1780280Y3923380D01*
X1780280Y3923380D02*
G01*
X1797080Y3923380D01*
X1953519Y4168929D02*
G01*
X1780280Y4168929D01*
X3528319Y4204619D02*
G01*
X3528319Y3923380D01*
X3528319Y3923380D02*
G01*
X3511519Y3923380D01*
X3355080Y4204619D02*
G01*
X3355080Y3923380D01*
X3355080Y3923380D02*
G01*
X3371880Y3923380D01*
X3528319Y4168929D02*
G01*
X3355080Y4168929D01*
X1610619Y4204619D02*
G01*
X1610619Y3923380D01*
X1610619Y3923380D02*
G01*
X1593819Y3923380D01*
X1437380Y4204619D02*
G01*
X1437380Y3923380D01*
X1437380Y3923380D02*
G01*
X1454180Y3923380D01*
X1610619Y4168929D02*
G01*
X1437380Y4168929D01*
X3871221Y4204619D02*
G01*
X3871221Y3923380D01*
X3871221Y3923380D02*
G01*
X3854422Y3923380D01*
X3697983Y4204619D02*
G01*
X3697983Y3923380D01*
X3697983Y3923380D02*
G01*
X3714783Y3923380D01*
X3871221Y4168929D02*
G01*
X3697983Y4168929D01*
X7706626Y4204619D02*
G01*
X7706626Y3923380D01*
X7706626Y3923380D02*
G01*
X7689827Y3923380D01*
X7533388Y4204619D02*
G01*
X7533388Y3923380D01*
X7533388Y3923380D02*
G01*
X7550188Y3923380D01*
X7706626Y4168929D02*
G01*
X7533388Y4168929D01*
X7363724Y4204619D02*
G01*
X7363724Y3923380D01*
X7363724Y3923380D02*
G01*
X7346924Y3923380D01*
X7190486Y4204619D02*
G01*
X7190486Y3923380D01*
X7190486Y3923380D02*
G01*
X7207285Y3923380D01*
X7363724Y4168929D02*
G01*
X7190486Y4168929D01*
D13*
X3422599Y10985500D02*
G01*
X3422599Y10795000D01*
X3219500Y10983899D02*
G01*
X4019499Y10983899D01*
X4019499Y10783900D01*
X3219500Y10783900D01*
X3219500Y10983899D01*
X7245299Y10985500D02*
G01*
X7245299Y10795000D01*
X7042200Y10983899D02*
G01*
X7842199Y10983899D01*
X7842199Y10783900D01*
X7042200Y10783900D01*
X7042200Y10983899D01*
X1504899Y10985500D02*
G01*
X1504899Y10795000D01*
X1301800Y10983899D02*
G01*
X2101799Y10983899D01*
X2101799Y10783900D01*
X1301800Y10783900D01*
X1301800Y10983899D01*
M02*
