M48
METRIC,LZ,000.000
;FILE_FORMAT=3:3
;TYPE=PLATED
;Layer: PTH_Through
;EasyEDA v6.5.29, 2023-07-18 10:02:35
;8a87558a6270435d8ad66e31a1dfd8bf,5a6b42c53f6a479593ecc07194224c93,10
;Gerber Generator version 0.2
;Holesize 1 = 0.305 mm
T01C0.305
;Holesize 2 = 1.000 mm
T02C1.000
;Holesize 3 = 1.200 mm
T03C1.200
;Holesize 4 = 2.701 mm
T04C2.701
%
G05
G90
T01
X037084Y083820
X037084Y076200
X037084Y073660
X037084Y068580
X037084Y066040
X043180Y093345
X043180Y096012
X043180Y098425
X060960Y078740
X064516Y078740
X067310Y078613
X070866Y078613
X036830Y100330
X036830Y089154
X038354Y100330
X038354Y091694
X006477Y091440
X006477Y088900
X031877Y076962
X031877Y069342
X031877Y066802
X031877Y064008
X031877Y072390
X031877Y059690
X055753Y076454
X056261Y065024
X002286Y090170
X054737Y087884
X019050Y049784
X012954Y049784
X025146Y049784
X007747Y047117
X030607Y047117
X012954Y047117
X019050Y047117
X025146Y047117
X024196Y049657
X026096Y049657
X031877Y091440
X031877Y093980
X040513Y096139
X040513Y098933
T02
X048768Y099314
X048768Y051054
X048768Y053594
X048768Y056134
X048768Y058674
X048768Y061214
X048768Y063754
X048768Y066294
X048768Y068834
X048768Y071374
X048768Y073914
X048768Y076454
X048768Y078994
X048768Y081534
X048768Y084074
X048768Y086614
X048768Y089154
X048768Y091694
X048768Y094234
X048768Y096774
X075438Y099314
X075438Y051054
X075438Y053594
X075438Y056134
X075438Y058674
X075438Y061214
X075438Y063754
X075438Y066294
X075438Y068834
X075438Y071374
X075438Y073914
X075438Y076454
X075438Y078994
X075438Y081534
X075438Y084074
X075438Y086614
X075438Y089154
X075438Y091694
X075438Y094234
X075438Y096774
X057658Y099314
X057658Y051054
X057658Y053594
X057658Y056134
X057658Y058674
X057658Y061214
X057658Y063754
X057658Y066294
X057658Y068834
X057658Y071374
X057658Y073914
X057658Y076454
X057658Y078994
X057658Y081534
X057658Y084074
X057658Y086614
X057658Y089154
X057658Y091694
X057658Y094234
X057658Y096774
X010160Y102870
X027940Y102870
X010160Y100330
X010160Y097790
X010160Y095250
X010160Y092710
X010160Y090170
X010160Y087630
X010160Y085090
X010160Y082550
X010160Y080010
X010160Y077470
X010160Y074930
X010160Y072390
X010160Y069850
X010160Y067310
X010160Y064770
X010160Y062230
X010160Y059690
X010160Y057150
X010160Y054610
X027940Y100330
X027940Y097790
X027940Y095250
X027940Y092710
X027940Y090170
X027940Y087630
X027940Y085090
X027940Y082550
X027940Y080010
X027940Y077470
X027940Y074930
X027940Y072390
X027940Y069850
X027940Y067310
X027940Y064770
X027940Y062230
X027940Y059690
X027940Y057150
X027940Y054610
X019050Y054610
X016510Y054610
X021590Y054610
T03
X038100Y037973
X040640Y037973
X038100Y040513
X040640Y040513
X038100Y043053
X040640Y043053
X038100Y045593
X040640Y045593
X038100Y048133
X040640Y048133
X038100Y050673
X040640Y050673
X038100Y053213
X040640Y053213
X038100Y055753
X040640Y055753
T04
X003861Y047820
X081661Y047820
X003861Y096520
X081661Y096520
M30
