M48
METRIC,LZ,000.000
;FILE_FORMAT=3:3
;TYPE=NON_PLATED
;Layer: NPTH_Through
;EasyEDA v6.5.29, 2023-07-18 10:02:35
;8a87558a6270435d8ad66e31a1dfd8bf,5a6b42c53f6a479593ecc07194224c93,10
;Gerber Generator version 0.2
;Holesize 1 = 0.551 mm
T01C0.551
;Holesize 2 = 2.000 mm
T02C2.000
%
G05
G90
T01
X040205Y027575
X041055Y027575
X041905Y027575
X042755Y027575
X043605Y027575
X044455Y027575
X045305Y027575
X046155Y027575
X040205Y028991
X041055Y028991
X041905Y028991
X042755Y028991
X043605Y028991
X044455Y028991
X045305Y028991
X046155Y028991
X128165Y027575
X129015Y027575
X129865Y027575
X130715Y027575
X131565Y027575
X132415Y027575
X133265Y027575
X134115Y027575
X128165Y028991
X129015Y028991
X129865Y028991
X130715Y028991
X131565Y028991
X132415Y028991
X133265Y028991
X134115Y028991
X087868Y069587
X087868Y068737
X087868Y067887
X087868Y067036
X087868Y066186
X087868Y065336
X087868Y064486
X087868Y063636
X086452Y069587
X086452Y068737
X086452Y067887
X086452Y067036
X086452Y066186
X086452Y065336
X086452Y064486
X086452Y063636
X087868Y-007070
X087868Y-007920
X087868Y-008770
X087868Y-009621
X087868Y-010471
X087868Y-011321
X087868Y-012171
X087868Y-013021
X086452Y-007070
X086452Y-007920
X086452Y-008770
X086452Y-009621
X086452Y-010471
X086452Y-011321
X086452Y-012171
X086452Y-013021
X040205Y104232
X041055Y104232
X041905Y104232
X042755Y104232
X043605Y104232
X044455Y104232
X045305Y104232
X046155Y104232
X040205Y-047666
X041055Y-047666
X041905Y-047666
X042755Y-047666
X043605Y-047666
X044455Y-047666
X045305Y-047666
X046155Y-047666
X128165Y104232
X129015Y104232
X129865Y104232
X130715Y104232
X131565Y104232
X132415Y104232
X133265Y104232
X134115Y104232
X128165Y-047666
X129015Y-047666
X129865Y-047666
X130715Y-047666
X131565Y-047666
X132415Y-047666
X133265Y-047666
X134115Y-047666
T02
X005000Y107740
X169320Y107740
X010000Y-051174
X164320Y-051174
M30
