G04 Layer: TopLayer*
G04 EasyEDA v6.5.29, 2023-07-18 10:02:35*
G04 8a87558a6270435d8ad66e31a1dfd8bf,5a6b42c53f6a479593ecc07194224c93,10*
G04 Gerber Generator version 0.2*
G04 Scale: 100 percent, Rotated: No, Reflected: No *
G04 Dimensions in millimeters *
G04 leading zeros omitted , absolute positions ,4 integer and 5 decimal *
%FSLAX45Y45*%
%MOMM*%

%AMMACRO1*21,1,$1,$2,0,0,$3*%
%ADD10C,0.2540*%
%ADD11C,0.5000*%
%ADD12C,1.0000*%
%ADD13MACRO1,1.8X1.8X90.0000*%
%ADD14C,1.8000*%
%ADD15R,1.8000X1.8000*%
%ADD16C,5.0000*%
%ADD17C,1.7000*%
%ADD18C,0.6096*%
%ADD19C,0.0161*%

%LPD*%
G36*
X2975711Y2934208D02*
G01*
X2971444Y2935122D01*
X2967990Y2937764D01*
X2949346Y2959455D01*
X2947517Y2962554D01*
X2946908Y2966110D01*
X2946908Y4000093D01*
X2946603Y4003903D01*
X2944571Y4010964D01*
X2941828Y4015841D01*
X2939034Y4019092D01*
X2876092Y4082034D01*
X2873197Y4084523D01*
X2866745Y4088079D01*
X2861360Y4089603D01*
X2857093Y4089908D01*
X36068Y4089908D01*
X32156Y4090670D01*
X28905Y4092905D01*
X26670Y4096156D01*
X25908Y4100068D01*
X25908Y10377932D01*
X26670Y10381843D01*
X28905Y10385094D01*
X32156Y10387330D01*
X36068Y10388092D01*
X936396Y10388092D01*
X940358Y10387279D01*
X943711Y10384993D01*
X945896Y10381589D01*
X946556Y10377627D01*
X945642Y10373664D01*
X943254Y10370413D01*
X936345Y10364165D01*
X927150Y10353344D01*
X919378Y10341406D01*
X913231Y10328605D01*
X908761Y10315143D01*
X906018Y10301173D01*
X905103Y10287000D01*
X906018Y10272826D01*
X908761Y10258856D01*
X913231Y10245394D01*
X919378Y10232593D01*
X927150Y10220655D01*
X936345Y10209834D01*
X946861Y10200284D01*
X958494Y10192156D01*
X971092Y10185603D01*
X984453Y10180675D01*
X998321Y10177526D01*
X1012444Y10176154D01*
X1026668Y10176611D01*
X1040688Y10178897D01*
X1054303Y10182910D01*
X1067308Y10188702D01*
X1079449Y10196068D01*
X1090574Y10204907D01*
X1100429Y10215118D01*
X1108913Y10226497D01*
X1115923Y10238892D01*
X1121257Y10252049D01*
X1124864Y10265816D01*
X1126642Y10279888D01*
X1126642Y10294112D01*
X1124864Y10308183D01*
X1121257Y10321950D01*
X1115923Y10335107D01*
X1108913Y10347502D01*
X1100429Y10358882D01*
X1086764Y10373207D01*
X1085646Y10377170D01*
X1086154Y10381284D01*
X1088288Y10384840D01*
X1091692Y10387228D01*
X1095756Y10388092D01*
X1128064Y10388092D01*
X1131925Y10387330D01*
X1135227Y10385094D01*
X1241094Y10279227D01*
X1243330Y10275925D01*
X1244092Y10272064D01*
X1244092Y10033406D01*
X1244396Y10029596D01*
X1246428Y10022535D01*
X1249172Y10017658D01*
X1251966Y10014407D01*
X1378407Y9887966D01*
X1381302Y9885476D01*
X1387754Y9881920D01*
X1393139Y9880396D01*
X1397406Y9880092D01*
X2412593Y9880092D01*
X2416403Y9880396D01*
X2423464Y9882428D01*
X2428341Y9885172D01*
X2431592Y9887966D01*
X2558034Y10014407D01*
X2560523Y10017302D01*
X2564079Y10023754D01*
X2565603Y10029139D01*
X2565908Y10033406D01*
X2565908Y10272064D01*
X2566670Y10275925D01*
X2568905Y10279227D01*
X2674772Y10385094D01*
X2678074Y10387330D01*
X2681935Y10388092D01*
X2714396Y10388092D01*
X2718358Y10387279D01*
X2721711Y10384993D01*
X2723896Y10381589D01*
X2724556Y10377627D01*
X2723642Y10373664D01*
X2721254Y10370413D01*
X2714345Y10364165D01*
X2705150Y10353344D01*
X2697378Y10341406D01*
X2691231Y10328605D01*
X2686761Y10315143D01*
X2684018Y10301173D01*
X2683103Y10287000D01*
X2684018Y10272826D01*
X2686761Y10258856D01*
X2691231Y10245394D01*
X2697378Y10232593D01*
X2705150Y10220655D01*
X2714345Y10209834D01*
X2724861Y10200284D01*
X2736494Y10192156D01*
X2749092Y10185603D01*
X2762453Y10180675D01*
X2776321Y10177526D01*
X2790444Y10176154D01*
X2804668Y10176611D01*
X2818688Y10178897D01*
X2832303Y10182910D01*
X2845308Y10188702D01*
X2857449Y10196068D01*
X2868574Y10204907D01*
X2878429Y10215118D01*
X2886913Y10226497D01*
X2893923Y10238892D01*
X2899257Y10252049D01*
X2902864Y10265816D01*
X2904642Y10279888D01*
X2904642Y10294112D01*
X2902864Y10308183D01*
X2899257Y10321950D01*
X2893923Y10335107D01*
X2886913Y10347502D01*
X2878429Y10358882D01*
X2864764Y10373207D01*
X2863646Y10377170D01*
X2864154Y10381284D01*
X2866288Y10384840D01*
X2869692Y10387228D01*
X2873756Y10388092D01*
X8599932Y10388092D01*
X8603843Y10387330D01*
X8607094Y10385094D01*
X8609330Y10381843D01*
X8610092Y10377932D01*
X8610092Y2944368D01*
X8609330Y2940456D01*
X8607094Y2937205D01*
X8603843Y2934970D01*
X8599932Y2934208D01*
G37*

%LPC*%
G36*
X7543800Y9815525D02*
G01*
X7558328Y9816439D01*
X7572603Y9819132D01*
X7586472Y9823653D01*
X7599629Y9829850D01*
X7611922Y9837623D01*
X7623149Y9846919D01*
X7633106Y9857536D01*
X7641640Y9869322D01*
X7648651Y9882073D01*
X7654036Y9895586D01*
X7657642Y9909708D01*
X7659471Y9924135D01*
X7659471Y9938664D01*
X7657642Y9953091D01*
X7654036Y9967214D01*
X7648651Y9980726D01*
X7641640Y9993477D01*
X7633106Y10005263D01*
X7623149Y10015880D01*
X7611922Y10025176D01*
X7599629Y10032949D01*
X7586472Y10039146D01*
X7572603Y10043668D01*
X7558328Y10046360D01*
X7543800Y10047274D01*
X7529271Y10046360D01*
X7514996Y10043668D01*
X7501128Y10039146D01*
X7487970Y10032949D01*
X7475677Y10025176D01*
X7464450Y10015880D01*
X7454493Y10005263D01*
X7445959Y9993477D01*
X7438948Y9980726D01*
X7433564Y9967214D01*
X7429957Y9953091D01*
X7428128Y9938664D01*
X7428128Y9924135D01*
X7429957Y9909708D01*
X7433564Y9895586D01*
X7438948Y9882073D01*
X7445959Y9869322D01*
X7454493Y9857536D01*
X7464450Y9846919D01*
X7475677Y9837623D01*
X7487970Y9829850D01*
X7501128Y9823653D01*
X7514996Y9819132D01*
X7529271Y9816439D01*
G37*
G36*
X4051300Y3936187D02*
G01*
X4051300Y4038600D01*
X3949039Y4038600D01*
X3950157Y4029557D01*
X3953764Y4015486D01*
X3959148Y4001922D01*
X3966159Y3989171D01*
X3974693Y3977436D01*
X3984650Y3966819D01*
X3995877Y3957523D01*
X4008170Y3949750D01*
X4021328Y3943553D01*
X4035196Y3939032D01*
X4049471Y3936339D01*
G37*
G36*
X3797300Y3936187D02*
G01*
X3797300Y4038600D01*
X3695039Y4038600D01*
X3696157Y4029557D01*
X3699764Y4015486D01*
X3705148Y4001922D01*
X3712159Y3989171D01*
X3720693Y3977436D01*
X3730650Y3966819D01*
X3741877Y3957523D01*
X3754170Y3949750D01*
X3767328Y3943553D01*
X3781196Y3939032D01*
X3795471Y3936339D01*
G37*
G36*
X4076700Y3936187D02*
G01*
X4078528Y3936339D01*
X4092803Y3939032D01*
X4106672Y3943553D01*
X4119829Y3949750D01*
X4132122Y3957523D01*
X4143298Y3966819D01*
X4153306Y3977436D01*
X4161840Y3989171D01*
X4168851Y4001922D01*
X4174185Y4015486D01*
X4177842Y4029557D01*
X4178960Y4038600D01*
X4076700Y4038600D01*
G37*
G36*
X3822700Y3936187D02*
G01*
X3824528Y3936339D01*
X3838803Y3939032D01*
X3852672Y3943553D01*
X3865829Y3949750D01*
X3878122Y3957523D01*
X3889298Y3966819D01*
X3899306Y3977436D01*
X3907840Y3989171D01*
X3914851Y4001922D01*
X3920185Y4015486D01*
X3923842Y4029557D01*
X3924960Y4038600D01*
X3822700Y4038600D01*
G37*
G36*
X3822700Y4064000D02*
G01*
X3924960Y4064000D01*
X3923842Y4072991D01*
X3920185Y4087114D01*
X3914851Y4100626D01*
X3907840Y4113377D01*
X3899306Y4125163D01*
X3889298Y4135780D01*
X3878122Y4145026D01*
X3865829Y4152849D01*
X3852672Y4159046D01*
X3838803Y4163517D01*
X3824528Y4166260D01*
X3822700Y4166362D01*
G37*
G36*
X3949039Y4064000D02*
G01*
X4051300Y4064000D01*
X4051300Y4166362D01*
X4049471Y4166260D01*
X4035196Y4163517D01*
X4021328Y4159046D01*
X4008170Y4152849D01*
X3995877Y4145026D01*
X3984650Y4135780D01*
X3974693Y4125163D01*
X3966159Y4113377D01*
X3959148Y4100626D01*
X3953764Y4087114D01*
X3950157Y4072991D01*
G37*
G36*
X4076700Y4064000D02*
G01*
X4178960Y4064000D01*
X4177842Y4072991D01*
X4174185Y4087114D01*
X4168851Y4100626D01*
X4161840Y4113377D01*
X4153306Y4125163D01*
X4143298Y4135780D01*
X4132122Y4145026D01*
X4119829Y4152849D01*
X4106672Y4159046D01*
X4092803Y4163517D01*
X4078528Y4166260D01*
X4076700Y4166362D01*
G37*
G36*
X3695039Y4064000D02*
G01*
X3797300Y4064000D01*
X3797300Y4166362D01*
X3795471Y4166260D01*
X3781196Y4163517D01*
X3767328Y4159046D01*
X3754170Y4152849D01*
X3741877Y4145026D01*
X3730650Y4135780D01*
X3720693Y4125163D01*
X3712159Y4113377D01*
X3705148Y4100626D01*
X3699764Y4087114D01*
X3696157Y4072991D01*
G37*
G36*
X4051300Y4190187D02*
G01*
X4051300Y4292600D01*
X3949039Y4292600D01*
X3950157Y4283557D01*
X3953764Y4269486D01*
X3959148Y4255922D01*
X3966159Y4243171D01*
X3974693Y4231436D01*
X3984650Y4220819D01*
X3995877Y4211523D01*
X4008170Y4203750D01*
X4021328Y4197553D01*
X4035196Y4193032D01*
X4049471Y4190339D01*
G37*
G36*
X3822700Y4190187D02*
G01*
X3824528Y4190339D01*
X3838803Y4193032D01*
X3852672Y4197553D01*
X3865829Y4203750D01*
X3878122Y4211523D01*
X3889298Y4220819D01*
X3899306Y4231436D01*
X3907840Y4243171D01*
X3914851Y4255922D01*
X3920185Y4269486D01*
X3923842Y4283557D01*
X3924960Y4292600D01*
X3822700Y4292600D01*
G37*
G36*
X4076700Y4190187D02*
G01*
X4078528Y4190339D01*
X4092803Y4193032D01*
X4106672Y4197553D01*
X4119829Y4203750D01*
X4132122Y4211523D01*
X4143298Y4220819D01*
X4153306Y4231436D01*
X4161840Y4243171D01*
X4168851Y4255922D01*
X4174185Y4269486D01*
X4177842Y4283557D01*
X4178960Y4292600D01*
X4076700Y4292600D01*
G37*
G36*
X3797300Y4190187D02*
G01*
X3797300Y4292600D01*
X3695039Y4292600D01*
X3696157Y4283557D01*
X3699764Y4269486D01*
X3705148Y4255922D01*
X3712159Y4243171D01*
X3720693Y4231436D01*
X3730650Y4220819D01*
X3741877Y4211523D01*
X3754170Y4203750D01*
X3767328Y4197553D01*
X3781196Y4193032D01*
X3795471Y4190339D01*
G37*
G36*
X4076700Y4318000D02*
G01*
X4178960Y4318000D01*
X4177842Y4326991D01*
X4174185Y4341114D01*
X4168851Y4354626D01*
X4161840Y4367377D01*
X4153306Y4379163D01*
X4143298Y4389780D01*
X4132122Y4399026D01*
X4119829Y4406849D01*
X4106672Y4413046D01*
X4092803Y4417517D01*
X4078528Y4420260D01*
X4076700Y4420362D01*
G37*
G36*
X3695039Y4318000D02*
G01*
X3797300Y4318000D01*
X3797300Y4420362D01*
X3795471Y4420260D01*
X3781196Y4417517D01*
X3767328Y4413046D01*
X3754170Y4406849D01*
X3741877Y4399026D01*
X3730650Y4389780D01*
X3720693Y4379163D01*
X3712159Y4367377D01*
X3705148Y4354626D01*
X3699764Y4341114D01*
X3696157Y4326991D01*
G37*
G36*
X3822700Y4318000D02*
G01*
X3924960Y4318000D01*
X3923842Y4326991D01*
X3920185Y4341114D01*
X3914851Y4354626D01*
X3907840Y4367377D01*
X3899306Y4379163D01*
X3889298Y4389780D01*
X3878122Y4399026D01*
X3865829Y4406849D01*
X3852672Y4413046D01*
X3838803Y4417517D01*
X3824528Y4420260D01*
X3822700Y4420362D01*
G37*
G36*
X3949039Y4318000D02*
G01*
X4051300Y4318000D01*
X4051300Y4420362D01*
X4049471Y4420260D01*
X4035196Y4417517D01*
X4021328Y4413046D01*
X4008170Y4406849D01*
X3995877Y4399026D01*
X3984650Y4389780D01*
X3974693Y4379163D01*
X3966159Y4367377D01*
X3959148Y4354626D01*
X3953764Y4341114D01*
X3950157Y4326991D01*
G37*
G36*
X3797300Y4444187D02*
G01*
X3797300Y4546600D01*
X3695039Y4546600D01*
X3696157Y4537557D01*
X3699764Y4523486D01*
X3705148Y4509922D01*
X3712159Y4497171D01*
X3720693Y4485436D01*
X3730650Y4474819D01*
X3741877Y4465523D01*
X3754170Y4457750D01*
X3767328Y4451553D01*
X3781196Y4447032D01*
X3795471Y4444339D01*
G37*
G36*
X4076700Y4444187D02*
G01*
X4078528Y4444339D01*
X4092803Y4447032D01*
X4106672Y4451553D01*
X4119829Y4457750D01*
X4132122Y4465523D01*
X4143298Y4474819D01*
X4153306Y4485436D01*
X4161840Y4497171D01*
X4168851Y4509922D01*
X4174185Y4523486D01*
X4177842Y4537557D01*
X4178960Y4546600D01*
X4076700Y4546600D01*
G37*
G36*
X3822700Y4444187D02*
G01*
X3824528Y4444339D01*
X3838803Y4447032D01*
X3852672Y4451553D01*
X3865829Y4457750D01*
X3878122Y4465523D01*
X3889298Y4474819D01*
X3899306Y4485436D01*
X3907840Y4497171D01*
X3914851Y4509922D01*
X3920185Y4523486D01*
X3923842Y4537557D01*
X3924960Y4546600D01*
X3822700Y4546600D01*
G37*
G36*
X4051300Y4444187D02*
G01*
X4051300Y4546600D01*
X3949039Y4546600D01*
X3950157Y4537557D01*
X3953764Y4523486D01*
X3959148Y4509922D01*
X3966159Y4497171D01*
X3974693Y4485436D01*
X3984650Y4474819D01*
X3995877Y4465523D01*
X4008170Y4457750D01*
X4021328Y4451553D01*
X4035196Y4447032D01*
X4049471Y4444339D01*
G37*
G36*
X8178800Y4506518D02*
G01*
X8183422Y4506620D01*
X8206384Y4509058D01*
X8229092Y4513376D01*
X8251342Y4519574D01*
X8273034Y4527651D01*
X8293912Y4537506D01*
X8313928Y4549038D01*
X8332927Y4562246D01*
X8350707Y4576978D01*
X8367217Y4593132D01*
X8382304Y4610608D01*
X8395919Y4629302D01*
X8407857Y4649063D01*
X8418169Y4669790D01*
X8426653Y4691278D01*
X8433308Y4713376D01*
X8438134Y4735982D01*
X8441029Y4758893D01*
X8441486Y4769307D01*
X8178800Y4769307D01*
G37*
G36*
X398780Y4506518D02*
G01*
X403402Y4506620D01*
X426415Y4509058D01*
X449122Y4513376D01*
X471373Y4519574D01*
X493014Y4527651D01*
X513943Y4537506D01*
X533958Y4549038D01*
X552907Y4562246D01*
X570738Y4576978D01*
X587197Y4593132D01*
X602335Y4610608D01*
X615899Y4629302D01*
X627888Y4649063D01*
X638149Y4669790D01*
X646633Y4691278D01*
X653338Y4713376D01*
X658114Y4735982D01*
X661009Y4758893D01*
X661466Y4769307D01*
X398780Y4769307D01*
G37*
G36*
X8153400Y4506569D02*
G01*
X8153400Y4769307D01*
X7890560Y4769307D01*
X7892389Y4747412D01*
X7896250Y4724603D01*
X7901990Y4702251D01*
X7909559Y4680407D01*
X7918958Y4659325D01*
X7930083Y4639056D01*
X7942884Y4619802D01*
X7957261Y4601718D01*
X7973059Y4584852D01*
X7990230Y4569409D01*
X8008620Y4555439D01*
X8028127Y4543044D01*
X8048650Y4532325D01*
X8069935Y4523384D01*
X8091881Y4516272D01*
X8114385Y4510989D01*
X8137245Y4507585D01*
G37*
G36*
X373380Y4506569D02*
G01*
X373380Y4769307D01*
X110540Y4769307D01*
X112369Y4747412D01*
X116230Y4724603D01*
X121970Y4702251D01*
X129590Y4680407D01*
X138988Y4659325D01*
X150114Y4639056D01*
X162915Y4619802D01*
X177241Y4601718D01*
X193040Y4584852D01*
X210261Y4569409D01*
X228650Y4555439D01*
X248158Y4543044D01*
X268630Y4532325D01*
X289915Y4523384D01*
X311912Y4516272D01*
X334416Y4510989D01*
X357276Y4507585D01*
G37*
G36*
X3949039Y4572000D02*
G01*
X4051300Y4572000D01*
X4051300Y4674362D01*
X4049471Y4674260D01*
X4035196Y4671517D01*
X4021328Y4667046D01*
X4008170Y4660849D01*
X3995877Y4653026D01*
X3984650Y4643780D01*
X3974693Y4633163D01*
X3966159Y4621377D01*
X3959148Y4608626D01*
X3953764Y4595114D01*
X3950157Y4580991D01*
G37*
G36*
X3822700Y4572000D02*
G01*
X3924960Y4572000D01*
X3923842Y4580991D01*
X3920185Y4595114D01*
X3914851Y4608626D01*
X3907840Y4621377D01*
X3899306Y4633163D01*
X3889298Y4643780D01*
X3878122Y4653026D01*
X3865829Y4660849D01*
X3852672Y4667046D01*
X3838803Y4671517D01*
X3824528Y4674260D01*
X3822700Y4674362D01*
G37*
G36*
X4076700Y4572000D02*
G01*
X4178960Y4572000D01*
X4177842Y4580991D01*
X4174185Y4595114D01*
X4168851Y4608626D01*
X4161840Y4621377D01*
X4153306Y4633163D01*
X4143298Y4643780D01*
X4132122Y4653026D01*
X4119829Y4660849D01*
X4106672Y4667046D01*
X4092803Y4671517D01*
X4078528Y4674260D01*
X4076700Y4674362D01*
G37*
G36*
X3695039Y4572000D02*
G01*
X3797300Y4572000D01*
X3797300Y4674362D01*
X3795471Y4674260D01*
X3781196Y4671517D01*
X3767328Y4667046D01*
X3754170Y4660849D01*
X3741877Y4653026D01*
X3730650Y4643780D01*
X3720693Y4633163D01*
X3712159Y4621377D01*
X3705148Y4608626D01*
X3699764Y4595114D01*
X3696157Y4580991D01*
G37*
G36*
X774700Y4655362D02*
G01*
X784504Y4656226D01*
X793953Y4658766D01*
X796290Y4659833D01*
X800608Y4660798D01*
X1269492Y4660798D01*
X1273810Y4659833D01*
X1276146Y4658766D01*
X1285595Y4656226D01*
X1295400Y4655362D01*
X1305204Y4656226D01*
X1314653Y4658766D01*
X1316990Y4659833D01*
X1321308Y4660798D01*
X1879092Y4660798D01*
X1883410Y4659833D01*
X1885746Y4658766D01*
X1895195Y4656226D01*
X1905000Y4655362D01*
X1914804Y4656226D01*
X1924253Y4658766D01*
X1926589Y4659833D01*
X1930907Y4660798D01*
X2488692Y4660798D01*
X2493010Y4659833D01*
X2495346Y4658766D01*
X2504795Y4656226D01*
X2514600Y4655362D01*
X2524404Y4656226D01*
X2533853Y4658766D01*
X2536190Y4659833D01*
X2540508Y4660798D01*
X3034792Y4660798D01*
X3039110Y4659833D01*
X3041446Y4658766D01*
X3050895Y4656226D01*
X3060700Y4655362D01*
X3070504Y4656226D01*
X3079953Y4658766D01*
X3088894Y4662881D01*
X3096920Y4668520D01*
X3103880Y4675479D01*
X3109518Y4683506D01*
X3113633Y4692446D01*
X3116173Y4701895D01*
X3117037Y4711700D01*
X3116173Y4721504D01*
X3113633Y4730953D01*
X3109518Y4739894D01*
X3103880Y4747920D01*
X3096920Y4754880D01*
X3088894Y4760518D01*
X3079953Y4764633D01*
X3070504Y4767173D01*
X3060700Y4768037D01*
X3050895Y4767173D01*
X3041446Y4764633D01*
X3039110Y4763566D01*
X3034792Y4762601D01*
X2540508Y4762601D01*
X2536190Y4763566D01*
X2533853Y4764633D01*
X2524404Y4767173D01*
X2514600Y4768037D01*
X2504795Y4767173D01*
X2495346Y4764633D01*
X2493010Y4763566D01*
X2488692Y4762601D01*
X1930907Y4762601D01*
X1926589Y4763566D01*
X1924253Y4764633D01*
X1914804Y4767173D01*
X1905000Y4768037D01*
X1895195Y4767173D01*
X1885746Y4764633D01*
X1883410Y4763566D01*
X1879092Y4762601D01*
X1321308Y4762601D01*
X1316990Y4763566D01*
X1314653Y4764633D01*
X1305204Y4767173D01*
X1295400Y4768037D01*
X1285595Y4767173D01*
X1276146Y4764633D01*
X1273810Y4763566D01*
X1269492Y4762601D01*
X800608Y4762601D01*
X796290Y4763566D01*
X793953Y4764633D01*
X784504Y4767173D01*
X774700Y4768037D01*
X764895Y4767173D01*
X755446Y4764633D01*
X746506Y4760518D01*
X738479Y4754880D01*
X731520Y4747920D01*
X725881Y4739894D01*
X721766Y4730953D01*
X719226Y4721504D01*
X718362Y4711700D01*
X719226Y4701895D01*
X721766Y4692446D01*
X725881Y4683506D01*
X731520Y4675479D01*
X738479Y4668520D01*
X746506Y4662881D01*
X755446Y4658766D01*
X764895Y4656226D01*
G37*
G36*
X4064000Y4697425D02*
G01*
X4078528Y4698339D01*
X4092803Y4701032D01*
X4106672Y4705553D01*
X4119829Y4711750D01*
X4132122Y4719523D01*
X4143298Y4728819D01*
X4153306Y4739436D01*
X4161840Y4751171D01*
X4168851Y4763922D01*
X4174185Y4777486D01*
X4177842Y4791557D01*
X4179671Y4806035D01*
X4179671Y4820564D01*
X4177842Y4834991D01*
X4174185Y4849114D01*
X4168851Y4862626D01*
X4161840Y4875377D01*
X4153306Y4887163D01*
X4143298Y4897780D01*
X4132122Y4907026D01*
X4119829Y4914849D01*
X4106672Y4921046D01*
X4092803Y4925517D01*
X4078528Y4928260D01*
X4064000Y4929174D01*
X4049471Y4928260D01*
X4035196Y4925517D01*
X4021328Y4921046D01*
X4008170Y4914849D01*
X3995877Y4907026D01*
X3984650Y4897780D01*
X3974693Y4887163D01*
X3966159Y4875377D01*
X3959148Y4862626D01*
X3953764Y4849114D01*
X3950157Y4834991D01*
X3948328Y4820564D01*
X3948328Y4806035D01*
X3950157Y4791557D01*
X3953764Y4777486D01*
X3959148Y4763922D01*
X3966159Y4751171D01*
X3974693Y4739436D01*
X3984650Y4728819D01*
X3995877Y4719523D01*
X4008170Y4711750D01*
X4021328Y4705553D01*
X4035196Y4701032D01*
X4049471Y4698339D01*
G37*
G36*
X3810000Y4697425D02*
G01*
X3824528Y4698339D01*
X3838803Y4701032D01*
X3852672Y4705553D01*
X3865829Y4711750D01*
X3878122Y4719523D01*
X3889298Y4728819D01*
X3899306Y4739436D01*
X3907840Y4751171D01*
X3914851Y4763922D01*
X3920185Y4777486D01*
X3923842Y4791557D01*
X3925671Y4806035D01*
X3925671Y4820564D01*
X3923842Y4834991D01*
X3920185Y4849114D01*
X3914851Y4862626D01*
X3907840Y4875377D01*
X3899306Y4887163D01*
X3889298Y4897780D01*
X3878122Y4907026D01*
X3865829Y4914849D01*
X3852672Y4921046D01*
X3838803Y4925517D01*
X3824528Y4928260D01*
X3810000Y4929174D01*
X3795471Y4928260D01*
X3781196Y4925517D01*
X3767328Y4921046D01*
X3754170Y4914849D01*
X3741877Y4907026D01*
X3730650Y4897780D01*
X3720693Y4887163D01*
X3712159Y4875377D01*
X3705148Y4862626D01*
X3699764Y4849114D01*
X3696157Y4834991D01*
X3694328Y4820564D01*
X3694328Y4806035D01*
X3696157Y4791557D01*
X3699764Y4777486D01*
X3705148Y4763922D01*
X3712159Y4751171D01*
X3720693Y4739436D01*
X3730650Y4728819D01*
X3741877Y4719523D01*
X3754170Y4711750D01*
X3767328Y4705553D01*
X3781196Y4701032D01*
X3795471Y4698339D01*
G37*
G36*
X398780Y4794707D02*
G01*
X661466Y4794707D01*
X661009Y4805070D01*
X658114Y4827981D01*
X653338Y4850587D01*
X646633Y4872736D01*
X638149Y4894224D01*
X627888Y4914900D01*
X615899Y4934661D01*
X602335Y4953355D01*
X587197Y4970830D01*
X570738Y4987036D01*
X552907Y5001768D01*
X533958Y5014925D01*
X513943Y5026507D01*
X493014Y5036312D01*
X471373Y5044389D01*
X449122Y5050586D01*
X426415Y5054904D01*
X403402Y5057343D01*
X398780Y5057444D01*
G37*
G36*
X8178800Y4794707D02*
G01*
X8441486Y4794707D01*
X8441029Y4805070D01*
X8438134Y4827981D01*
X8433308Y4850587D01*
X8426653Y4872736D01*
X8418169Y4894224D01*
X8407857Y4914900D01*
X8395919Y4934661D01*
X8382304Y4953355D01*
X8367217Y4970830D01*
X8350707Y4987036D01*
X8332927Y5001768D01*
X8313928Y5014925D01*
X8293912Y5026507D01*
X8273034Y5036312D01*
X8251342Y5044389D01*
X8229092Y5050586D01*
X8206384Y5054904D01*
X8183422Y5057343D01*
X8178800Y5057444D01*
G37*
G36*
X7890560Y4794707D02*
G01*
X8153400Y4794707D01*
X8153400Y5057394D01*
X8137245Y5056378D01*
X8114385Y5053025D01*
X8091881Y5047742D01*
X8069935Y5040579D01*
X8048650Y5031638D01*
X8028127Y5020919D01*
X8008620Y5008524D01*
X7990230Y4994554D01*
X7973059Y4979111D01*
X7957261Y4962245D01*
X7942884Y4944160D01*
X7930083Y4924907D01*
X7918958Y4904638D01*
X7909559Y4883556D01*
X7901990Y4861712D01*
X7896250Y4839360D01*
X7892389Y4816551D01*
G37*
G36*
X110540Y4794707D02*
G01*
X373380Y4794707D01*
X373380Y5057394D01*
X357276Y5056378D01*
X334416Y5053025D01*
X311912Y5047742D01*
X289915Y5040579D01*
X268630Y5031638D01*
X248158Y5020919D01*
X228650Y5008524D01*
X210261Y4994554D01*
X193040Y4979111D01*
X177241Y4962245D01*
X162915Y4944160D01*
X150114Y4924907D01*
X138988Y4904638D01*
X129590Y4883556D01*
X121970Y4861712D01*
X116230Y4839360D01*
X112369Y4816551D01*
G37*
G36*
X2419604Y4909362D02*
G01*
X2429408Y4910226D01*
X2438857Y4912766D01*
X2447798Y4916881D01*
X2455824Y4922520D01*
X2462784Y4929479D01*
X2468422Y4937506D01*
X2472537Y4946446D01*
X2475077Y4955895D01*
X2475941Y4965700D01*
X2475077Y4975504D01*
X2472537Y4984953D01*
X2468422Y4993894D01*
X2462784Y5001920D01*
X2461209Y5003495D01*
X2458974Y5006797D01*
X2458212Y5010708D01*
X2458212Y5218785D01*
X2458974Y5222697D01*
X2461209Y5225999D01*
X2476804Y5241594D01*
X2480106Y5243830D01*
X2484018Y5244592D01*
X2574747Y5244592D01*
X2578455Y5243880D01*
X2581706Y5241848D01*
X2583942Y5238800D01*
X2584907Y5235092D01*
X2584399Y5231333D01*
X2582621Y5227980D01*
X2577541Y5221833D01*
X2573985Y5215128D01*
X2571800Y5207914D01*
X2570988Y5199888D01*
X2570988Y5010708D01*
X2570226Y5006797D01*
X2567990Y5003495D01*
X2566416Y5001920D01*
X2560777Y4993894D01*
X2556662Y4984953D01*
X2554122Y4975504D01*
X2553258Y4965700D01*
X2554122Y4955895D01*
X2556662Y4946446D01*
X2560777Y4937506D01*
X2566416Y4929479D01*
X2573375Y4922520D01*
X2581402Y4916881D01*
X2590342Y4912766D01*
X2599791Y4910226D01*
X2609596Y4909362D01*
X2619400Y4910226D01*
X2628849Y4912766D01*
X2637790Y4916881D01*
X2645816Y4922520D01*
X2652776Y4929479D01*
X2658414Y4937506D01*
X2662529Y4946446D01*
X2665069Y4955895D01*
X2665933Y4965700D01*
X2665069Y4975504D01*
X2662529Y4984953D01*
X2658414Y4993894D01*
X2652776Y5001920D01*
X2651201Y5003495D01*
X2648966Y5006797D01*
X2648204Y5010708D01*
X2648204Y5180177D01*
X2648966Y5184089D01*
X2651201Y5187391D01*
X2654604Y5190794D01*
X2657906Y5193030D01*
X2661818Y5193792D01*
X2933192Y5193792D01*
X2941218Y5194604D01*
X2948432Y5196789D01*
X2955137Y5200345D01*
X2961335Y5205476D01*
X3035604Y5279694D01*
X3038906Y5281930D01*
X3042818Y5282692D01*
X3693972Y5282692D01*
X3697935Y5281879D01*
X3701237Y5279644D01*
X3703421Y5276291D01*
X3705148Y5271922D01*
X3712159Y5259171D01*
X3720693Y5247436D01*
X3730650Y5236819D01*
X3741877Y5227523D01*
X3754170Y5219750D01*
X3767328Y5213553D01*
X3781196Y5209032D01*
X3795471Y5206339D01*
X3810000Y5205425D01*
X3824528Y5206339D01*
X3838803Y5209032D01*
X3852672Y5213553D01*
X3865829Y5219750D01*
X3878122Y5227523D01*
X3889298Y5236819D01*
X3899306Y5247436D01*
X3907840Y5259171D01*
X3914851Y5271922D01*
X3920185Y5285486D01*
X3923842Y5299557D01*
X3925671Y5314035D01*
X3925671Y5328564D01*
X3923842Y5342991D01*
X3920185Y5357114D01*
X3914851Y5370626D01*
X3907840Y5383377D01*
X3899306Y5395163D01*
X3889298Y5405780D01*
X3878122Y5415026D01*
X3865829Y5422849D01*
X3852672Y5429046D01*
X3838803Y5433517D01*
X3824528Y5436260D01*
X3810000Y5437174D01*
X3795471Y5436260D01*
X3781196Y5433517D01*
X3767328Y5429046D01*
X3754170Y5422849D01*
X3741877Y5415026D01*
X3730650Y5405780D01*
X3720693Y5395163D01*
X3712159Y5383377D01*
X3705148Y5370626D01*
X3703421Y5366308D01*
X3701237Y5362956D01*
X3697935Y5360720D01*
X3693972Y5359908D01*
X3064154Y5359908D01*
X3060242Y5360670D01*
X3056940Y5362905D01*
X3054756Y5366156D01*
X3053994Y5370068D01*
X3054756Y5373979D01*
X3056940Y5377230D01*
X3213404Y5533694D01*
X3216706Y5535930D01*
X3220618Y5536692D01*
X3693972Y5536692D01*
X3697935Y5535879D01*
X3701237Y5533644D01*
X3703421Y5530291D01*
X3705148Y5525922D01*
X3712159Y5513171D01*
X3720693Y5501436D01*
X3730650Y5490819D01*
X3741877Y5481523D01*
X3754170Y5473750D01*
X3767328Y5467553D01*
X3781196Y5463032D01*
X3795471Y5460339D01*
X3810000Y5459425D01*
X3824528Y5460339D01*
X3838803Y5463032D01*
X3852672Y5467553D01*
X3865829Y5473750D01*
X3878122Y5481523D01*
X3889298Y5490819D01*
X3899306Y5501436D01*
X3907840Y5513171D01*
X3914851Y5525922D01*
X3920185Y5539486D01*
X3923842Y5553557D01*
X3925671Y5568035D01*
X3925671Y5582564D01*
X3923842Y5596991D01*
X3920185Y5611114D01*
X3914851Y5624626D01*
X3907840Y5637377D01*
X3899306Y5649163D01*
X3889298Y5659780D01*
X3878122Y5669026D01*
X3865829Y5676849D01*
X3852672Y5683046D01*
X3838803Y5687517D01*
X3824528Y5690260D01*
X3810000Y5691174D01*
X3795471Y5690260D01*
X3781196Y5687517D01*
X3767328Y5683046D01*
X3754170Y5676849D01*
X3741877Y5669026D01*
X3730650Y5659780D01*
X3720693Y5649163D01*
X3712159Y5637377D01*
X3705148Y5624626D01*
X3703421Y5620308D01*
X3701237Y5616956D01*
X3697935Y5614720D01*
X3693972Y5613908D01*
X3200908Y5613908D01*
X3192881Y5613095D01*
X3185668Y5610910D01*
X3178962Y5607354D01*
X3172764Y5602224D01*
X2895295Y5324805D01*
X2891993Y5322570D01*
X2888081Y5321808D01*
X2464308Y5321808D01*
X2456281Y5320995D01*
X2449068Y5318810D01*
X2442362Y5315254D01*
X2436164Y5310124D01*
X2392680Y5266639D01*
X2387549Y5260441D01*
X2383993Y5253736D01*
X2381808Y5246522D01*
X2380996Y5238496D01*
X2380996Y5010708D01*
X2380234Y5006797D01*
X2377998Y5003495D01*
X2376424Y5001920D01*
X2370785Y4993894D01*
X2366670Y4984953D01*
X2364130Y4975504D01*
X2363266Y4965700D01*
X2364130Y4955895D01*
X2366670Y4946446D01*
X2370785Y4937506D01*
X2376424Y4929479D01*
X2383383Y4922520D01*
X2391410Y4916881D01*
X2400350Y4912766D01*
X2409799Y4910226D01*
G37*
G36*
X3810000Y4951425D02*
G01*
X3824528Y4952339D01*
X3838803Y4955032D01*
X3852672Y4959553D01*
X3865829Y4965750D01*
X3878122Y4973523D01*
X3889298Y4982819D01*
X3899306Y4993436D01*
X3907840Y5005171D01*
X3914851Y5017922D01*
X3920185Y5031486D01*
X3923842Y5045557D01*
X3925671Y5060035D01*
X3925671Y5074564D01*
X3923842Y5088991D01*
X3920185Y5103114D01*
X3914851Y5116626D01*
X3907840Y5129377D01*
X3899306Y5141163D01*
X3889298Y5151780D01*
X3878122Y5161026D01*
X3865829Y5168849D01*
X3852672Y5175046D01*
X3838803Y5179517D01*
X3824528Y5182260D01*
X3810000Y5183174D01*
X3795471Y5182260D01*
X3781196Y5179517D01*
X3767328Y5175046D01*
X3754170Y5168849D01*
X3741877Y5161026D01*
X3730650Y5151780D01*
X3720693Y5141163D01*
X3712159Y5129377D01*
X3705148Y5116626D01*
X3699764Y5103114D01*
X3696157Y5088991D01*
X3694328Y5074564D01*
X3694328Y5060035D01*
X3696157Y5045557D01*
X3699764Y5031486D01*
X3705148Y5017922D01*
X3712159Y5005171D01*
X3720693Y4993436D01*
X3730650Y4982819D01*
X3741877Y4973523D01*
X3754170Y4965750D01*
X3767328Y4959553D01*
X3781196Y4955032D01*
X3795471Y4952339D01*
G37*
G36*
X4064000Y4951425D02*
G01*
X4078528Y4952339D01*
X4092803Y4955032D01*
X4106672Y4959553D01*
X4119829Y4965750D01*
X4132122Y4973523D01*
X4143298Y4982819D01*
X4153306Y4993436D01*
X4161840Y5005171D01*
X4168851Y5017922D01*
X4174185Y5031486D01*
X4177842Y5045557D01*
X4179671Y5060035D01*
X4179671Y5074564D01*
X4177842Y5088991D01*
X4174185Y5103114D01*
X4168851Y5116626D01*
X4161840Y5129377D01*
X4153306Y5141163D01*
X4143298Y5151780D01*
X4132122Y5161026D01*
X4119829Y5168849D01*
X4106672Y5175046D01*
X4092803Y5179517D01*
X4078528Y5182260D01*
X4064000Y5183174D01*
X4049471Y5182260D01*
X4035196Y5179517D01*
X4021328Y5175046D01*
X4008170Y5168849D01*
X3995877Y5161026D01*
X3984650Y5151780D01*
X3974693Y5141163D01*
X3966159Y5129377D01*
X3959148Y5116626D01*
X3953764Y5103114D01*
X3950157Y5088991D01*
X3948328Y5074564D01*
X3948328Y5060035D01*
X3950157Y5045557D01*
X3953764Y5031486D01*
X3959148Y5017922D01*
X3966159Y5005171D01*
X3974693Y4993436D01*
X3984650Y4982819D01*
X3995877Y4973523D01*
X4008170Y4965750D01*
X4021328Y4959553D01*
X4035196Y4955032D01*
X4049471Y4952339D01*
G37*
G36*
X4787392Y4989474D02*
G01*
X4864100Y4989474D01*
X4864100Y5092700D01*
X4760874Y5092700D01*
X4760874Y5015992D01*
X4761585Y5009642D01*
X4763516Y5004206D01*
X4766614Y4999278D01*
X4770678Y4995214D01*
X4775606Y4992116D01*
X4781042Y4990185D01*
G37*
G36*
X4889500Y4989474D02*
G01*
X4966208Y4989474D01*
X4972558Y4990185D01*
X4977993Y4992116D01*
X4982921Y4995214D01*
X4986985Y4999278D01*
X4990084Y5004206D01*
X4992014Y5009642D01*
X4992725Y5015992D01*
X4992725Y5092700D01*
X4889500Y5092700D01*
G37*
G36*
X5676392Y4989474D02*
G01*
X5855208Y4989474D01*
X5861558Y4990185D01*
X5866993Y4992116D01*
X5871921Y4995214D01*
X5875985Y4999278D01*
X5879084Y5004206D01*
X5881014Y5009642D01*
X5881725Y5015992D01*
X5881725Y5194808D01*
X5881014Y5201158D01*
X5879084Y5206593D01*
X5875985Y5211521D01*
X5871921Y5215585D01*
X5866993Y5218684D01*
X5861558Y5220614D01*
X5855208Y5221325D01*
X5676392Y5221325D01*
X5670042Y5220614D01*
X5664606Y5218684D01*
X5659678Y5215585D01*
X5655614Y5211521D01*
X5652516Y5206593D01*
X5650585Y5201158D01*
X5649874Y5194808D01*
X5649874Y5015992D01*
X5650585Y5009642D01*
X5652516Y5004206D01*
X5655614Y4999278D01*
X5659678Y4995214D01*
X5664606Y4992116D01*
X5670042Y4990185D01*
G37*
G36*
X7454392Y4989474D02*
G01*
X7633208Y4989474D01*
X7639558Y4990185D01*
X7644993Y4992116D01*
X7649921Y4995214D01*
X7653985Y4999278D01*
X7657084Y5004206D01*
X7659014Y5009642D01*
X7659725Y5015992D01*
X7659725Y5194808D01*
X7659014Y5201158D01*
X7657084Y5206593D01*
X7653985Y5211521D01*
X7649921Y5215585D01*
X7644993Y5218684D01*
X7639558Y5220614D01*
X7633208Y5221325D01*
X7486700Y5221325D01*
X7482789Y5222087D01*
X7479538Y5224272D01*
X6682435Y6021324D01*
X6676237Y6026454D01*
X6669531Y6030010D01*
X6662318Y6032195D01*
X6654292Y6033008D01*
X5864504Y6033008D01*
X5860135Y6033973D01*
X5856630Y6036716D01*
X5854649Y6040628D01*
X5854496Y6045047D01*
X5856274Y6049162D01*
X5863640Y6059322D01*
X5870651Y6072073D01*
X5876036Y6085586D01*
X5879642Y6099708D01*
X5881471Y6114135D01*
X5881471Y6128664D01*
X5879642Y6143091D01*
X5876036Y6157214D01*
X5870651Y6170726D01*
X5863640Y6183477D01*
X5855106Y6195263D01*
X5845149Y6205880D01*
X5833922Y6215176D01*
X5821629Y6222949D01*
X5808472Y6229146D01*
X5794603Y6233668D01*
X5780328Y6236360D01*
X5765800Y6237274D01*
X5751271Y6236360D01*
X5736996Y6233668D01*
X5723128Y6229146D01*
X5709970Y6222949D01*
X5697677Y6215176D01*
X5686450Y6205880D01*
X5676493Y6195263D01*
X5667959Y6183477D01*
X5660948Y6170726D01*
X5655564Y6157214D01*
X5651957Y6143091D01*
X5650128Y6128664D01*
X5650128Y6114135D01*
X5651957Y6099708D01*
X5655564Y6085586D01*
X5660948Y6072073D01*
X5667959Y6059322D01*
X5675325Y6049162D01*
X5677103Y6045047D01*
X5676950Y6040628D01*
X5674969Y6036716D01*
X5671464Y6033973D01*
X5667095Y6033008D01*
X4975504Y6033008D01*
X4971135Y6033973D01*
X4967630Y6036716D01*
X4965649Y6040628D01*
X4965496Y6045047D01*
X4967274Y6049162D01*
X4974640Y6059322D01*
X4981651Y6072073D01*
X4987036Y6085586D01*
X4990642Y6099708D01*
X4992471Y6114135D01*
X4992471Y6128664D01*
X4990642Y6143091D01*
X4987036Y6157214D01*
X4981651Y6170726D01*
X4974640Y6183477D01*
X4966106Y6195263D01*
X4956149Y6205880D01*
X4944922Y6215176D01*
X4932629Y6222949D01*
X4919472Y6229146D01*
X4905603Y6233668D01*
X4891328Y6236360D01*
X4876800Y6237274D01*
X4862271Y6236360D01*
X4847996Y6233668D01*
X4834128Y6229146D01*
X4820970Y6222949D01*
X4808677Y6215176D01*
X4797450Y6205880D01*
X4787493Y6195263D01*
X4778959Y6183477D01*
X4771948Y6170726D01*
X4766564Y6157214D01*
X4762957Y6143091D01*
X4761128Y6128664D01*
X4761128Y6114135D01*
X4762957Y6099708D01*
X4766564Y6085586D01*
X4771948Y6072073D01*
X4778959Y6059322D01*
X4786325Y6049162D01*
X4788103Y6045047D01*
X4787950Y6040628D01*
X4785969Y6036716D01*
X4782464Y6033973D01*
X4778095Y6033008D01*
X3449218Y6033008D01*
X3445306Y6033770D01*
X3442004Y6036005D01*
X3342335Y6135624D01*
X3336137Y6140754D01*
X3329432Y6144310D01*
X3322218Y6146495D01*
X3314192Y6147308D01*
X2895752Y6147308D01*
X2891637Y6148171D01*
X2888234Y6150660D01*
X2886100Y6154267D01*
X2885643Y6158433D01*
X2886913Y6162446D01*
X2893923Y6174892D01*
X2899257Y6188049D01*
X2902864Y6201816D01*
X2904642Y6215888D01*
X2904642Y6230112D01*
X2902864Y6244183D01*
X2899257Y6257950D01*
X2893923Y6271107D01*
X2886913Y6283502D01*
X2878429Y6294882D01*
X2868574Y6305092D01*
X2857449Y6313932D01*
X2845308Y6321298D01*
X2832303Y6327038D01*
X2818688Y6331102D01*
X2804668Y6333388D01*
X2790444Y6333845D01*
X2776321Y6332474D01*
X2762453Y6329324D01*
X2749092Y6324396D01*
X2736494Y6317843D01*
X2724861Y6309715D01*
X2714345Y6300165D01*
X2705150Y6289344D01*
X2697378Y6277406D01*
X2691231Y6264605D01*
X2686761Y6251143D01*
X2684018Y6237173D01*
X2683103Y6223000D01*
X2684018Y6208826D01*
X2686761Y6194856D01*
X2691231Y6181394D01*
X2697378Y6168593D01*
X2701036Y6163005D01*
X2702560Y6158941D01*
X2702255Y6154623D01*
X2700172Y6150813D01*
X2696718Y6148222D01*
X2692501Y6147308D01*
X1117752Y6147308D01*
X1113637Y6148171D01*
X1110234Y6150660D01*
X1108100Y6154267D01*
X1107643Y6158433D01*
X1108913Y6162446D01*
X1115923Y6174892D01*
X1121257Y6188049D01*
X1124864Y6201816D01*
X1126642Y6215888D01*
X1126642Y6230112D01*
X1124864Y6244183D01*
X1121257Y6257950D01*
X1119225Y6262878D01*
X1118514Y6266738D01*
X1119276Y6270599D01*
X1121460Y6273850D01*
X1410004Y6562394D01*
X1413306Y6564630D01*
X1417218Y6565392D01*
X2701950Y6565392D01*
X2705709Y6564680D01*
X2708910Y6562598D01*
X2711145Y6559499D01*
X2712059Y6555790D01*
X2711551Y6551980D01*
X2709672Y6548628D01*
X2705150Y6543344D01*
X2697378Y6531406D01*
X2691231Y6518605D01*
X2686761Y6505143D01*
X2684018Y6491173D01*
X2683103Y6477000D01*
X2684018Y6462826D01*
X2686761Y6448856D01*
X2691231Y6435394D01*
X2697378Y6422593D01*
X2705150Y6410655D01*
X2714345Y6399834D01*
X2724861Y6390284D01*
X2736494Y6382156D01*
X2749092Y6375603D01*
X2762453Y6370675D01*
X2776321Y6367526D01*
X2790444Y6366154D01*
X2804668Y6366611D01*
X2818688Y6368897D01*
X2832303Y6372910D01*
X2845308Y6378702D01*
X2857449Y6386068D01*
X2868574Y6394907D01*
X2878429Y6405118D01*
X2886913Y6416497D01*
X2893923Y6428892D01*
X2899257Y6442049D01*
X2902864Y6455816D01*
X2904642Y6469888D01*
X2904642Y6484112D01*
X2902864Y6498183D01*
X2899257Y6511950D01*
X2893923Y6525107D01*
X2886913Y6537502D01*
X2878226Y6549135D01*
X2876397Y6553250D01*
X2876499Y6557670D01*
X2878531Y6561683D01*
X2882036Y6564426D01*
X2886354Y6565392D01*
X3663391Y6565392D01*
X3667302Y6564630D01*
X3670604Y6562394D01*
X3672179Y6560820D01*
X3680206Y6555181D01*
X3689146Y6551066D01*
X3698595Y6548526D01*
X3708400Y6547662D01*
X3718204Y6548526D01*
X3727653Y6551066D01*
X3736594Y6555181D01*
X3744620Y6560820D01*
X3751579Y6567779D01*
X3757218Y6575806D01*
X3761333Y6584746D01*
X3763873Y6594195D01*
X3764737Y6604000D01*
X3763873Y6613804D01*
X3761333Y6623253D01*
X3757218Y6632194D01*
X3751579Y6640220D01*
X3744620Y6647180D01*
X3736594Y6652818D01*
X3727653Y6656933D01*
X3718204Y6659473D01*
X3708400Y6660337D01*
X3698595Y6659473D01*
X3689146Y6656933D01*
X3680206Y6652818D01*
X3672179Y6647180D01*
X3670604Y6645605D01*
X3667302Y6643370D01*
X3663391Y6642608D01*
X2886354Y6642608D01*
X2882036Y6643573D01*
X2878531Y6646316D01*
X2876499Y6650329D01*
X2876397Y6654749D01*
X2878226Y6658864D01*
X2886913Y6670497D01*
X2893923Y6682892D01*
X2899257Y6696049D01*
X2902966Y6710222D01*
X2904947Y6714134D01*
X2908452Y6716826D01*
X2912770Y6717792D01*
X4778095Y6717792D01*
X4782464Y6716826D01*
X4785969Y6714083D01*
X4787950Y6710172D01*
X4788103Y6705752D01*
X4786325Y6701637D01*
X4778959Y6691477D01*
X4771948Y6678726D01*
X4766564Y6665214D01*
X4762957Y6651091D01*
X4761128Y6636664D01*
X4761128Y6622135D01*
X4762957Y6607708D01*
X4766564Y6593586D01*
X4771948Y6580073D01*
X4778959Y6567322D01*
X4787493Y6555536D01*
X4797450Y6544919D01*
X4808677Y6535623D01*
X4820970Y6527850D01*
X4834128Y6521653D01*
X4847996Y6517131D01*
X4862271Y6514439D01*
X4876800Y6513525D01*
X4891328Y6514439D01*
X4905603Y6517131D01*
X4919472Y6521653D01*
X4932629Y6527850D01*
X4944922Y6535623D01*
X4956149Y6544919D01*
X4966106Y6555536D01*
X4974640Y6567322D01*
X4981651Y6580073D01*
X4987036Y6593586D01*
X4990642Y6607708D01*
X4992471Y6622135D01*
X4992471Y6636664D01*
X4990642Y6651091D01*
X4987036Y6665214D01*
X4981651Y6678726D01*
X4974640Y6691477D01*
X4967274Y6701637D01*
X4965496Y6705752D01*
X4965649Y6710172D01*
X4967630Y6714083D01*
X4971135Y6716826D01*
X4975504Y6717792D01*
X5667095Y6717792D01*
X5671464Y6716826D01*
X5674969Y6714083D01*
X5676950Y6710172D01*
X5677103Y6705752D01*
X5675325Y6701637D01*
X5667959Y6691477D01*
X5660948Y6678726D01*
X5655564Y6665214D01*
X5651957Y6651091D01*
X5650128Y6636664D01*
X5650128Y6622135D01*
X5651957Y6607708D01*
X5655564Y6593586D01*
X5660948Y6580073D01*
X5667959Y6567322D01*
X5676493Y6555536D01*
X5686450Y6544919D01*
X5697677Y6535623D01*
X5709970Y6527850D01*
X5723128Y6521653D01*
X5736996Y6517131D01*
X5751271Y6514439D01*
X5765800Y6513525D01*
X5780328Y6514439D01*
X5794603Y6517131D01*
X5808472Y6521653D01*
X5821629Y6527850D01*
X5833922Y6535623D01*
X5845149Y6544919D01*
X5855106Y6555536D01*
X5863640Y6567322D01*
X5870651Y6580073D01*
X5876036Y6593586D01*
X5879642Y6607708D01*
X5881471Y6622135D01*
X5881471Y6636664D01*
X5879642Y6651091D01*
X5876036Y6665214D01*
X5870651Y6678726D01*
X5863640Y6691477D01*
X5856274Y6701637D01*
X5854496Y6705752D01*
X5854649Y6710172D01*
X5856630Y6714083D01*
X5860135Y6716826D01*
X5864504Y6717792D01*
X7141616Y6717792D01*
X7145680Y6716928D01*
X7149033Y6714540D01*
X7429500Y6414109D01*
X7431328Y6411264D01*
X7432192Y6408013D01*
X7431887Y6404610D01*
X7429957Y6397091D01*
X7428128Y6382664D01*
X7428128Y6368135D01*
X7429957Y6353708D01*
X7433564Y6339586D01*
X7438948Y6326073D01*
X7445959Y6313322D01*
X7454493Y6301536D01*
X7464450Y6290919D01*
X7475677Y6281623D01*
X7487970Y6273850D01*
X7501128Y6267653D01*
X7514996Y6263132D01*
X7529271Y6260439D01*
X7543800Y6259525D01*
X7558328Y6260439D01*
X7572603Y6263132D01*
X7586472Y6267653D01*
X7599629Y6273850D01*
X7611922Y6281623D01*
X7623149Y6290919D01*
X7633106Y6301536D01*
X7641640Y6313322D01*
X7648651Y6326073D01*
X7654036Y6339586D01*
X7657642Y6353708D01*
X7659471Y6368135D01*
X7659471Y6382664D01*
X7657642Y6397091D01*
X7654036Y6411214D01*
X7648651Y6424726D01*
X7641640Y6437477D01*
X7633106Y6449263D01*
X7623149Y6459880D01*
X7611922Y6469176D01*
X7599629Y6476949D01*
X7586472Y6483146D01*
X7572603Y6487668D01*
X7558328Y6490360D01*
X7543800Y6491274D01*
X7529271Y6490360D01*
X7514996Y6487668D01*
X7501128Y6483146D01*
X7487818Y6476847D01*
X7484618Y6475526D01*
X7481112Y6475374D01*
X7477759Y6476390D01*
X7474966Y6478524D01*
X7191095Y6782663D01*
X7184237Y6788454D01*
X7177531Y6792010D01*
X7170318Y6794195D01*
X7162292Y6795008D01*
X5864504Y6795008D01*
X5860135Y6795973D01*
X5856630Y6798716D01*
X5854649Y6802628D01*
X5854496Y6807047D01*
X5856274Y6811162D01*
X5863640Y6821322D01*
X5870651Y6834073D01*
X5876036Y6847586D01*
X5879642Y6861708D01*
X5880760Y6870700D01*
X5778500Y6870700D01*
X5778500Y6805168D01*
X5777738Y6801256D01*
X5775502Y6798005D01*
X5772251Y6795770D01*
X5768340Y6795008D01*
X5763260Y6795008D01*
X5759348Y6795770D01*
X5756097Y6798005D01*
X5753862Y6801256D01*
X5753100Y6805168D01*
X5753100Y6870700D01*
X5650839Y6870700D01*
X5651957Y6861708D01*
X5655564Y6847586D01*
X5660948Y6834073D01*
X5667959Y6821322D01*
X5675325Y6811162D01*
X5677103Y6807047D01*
X5676950Y6802628D01*
X5674969Y6798716D01*
X5671464Y6795973D01*
X5667095Y6795008D01*
X4975504Y6795008D01*
X4971135Y6795973D01*
X4967630Y6798716D01*
X4965649Y6802628D01*
X4965496Y6807047D01*
X4967274Y6811162D01*
X4974640Y6821322D01*
X4981651Y6834073D01*
X4987036Y6847586D01*
X4990642Y6861708D01*
X4992471Y6876135D01*
X4992471Y6890664D01*
X4990642Y6905091D01*
X4987036Y6919214D01*
X4981651Y6932726D01*
X4974640Y6945477D01*
X4967274Y6955637D01*
X4965496Y6959752D01*
X4965649Y6964172D01*
X4967630Y6968083D01*
X4971135Y6970826D01*
X4975504Y6971792D01*
X5667095Y6971792D01*
X5671464Y6970826D01*
X5674969Y6968083D01*
X5676950Y6964172D01*
X5677103Y6959752D01*
X5675325Y6955637D01*
X5667959Y6945477D01*
X5660948Y6932726D01*
X5655564Y6919214D01*
X5651957Y6905091D01*
X5650839Y6896100D01*
X5753100Y6896100D01*
X5753100Y6961631D01*
X5753862Y6965543D01*
X5756097Y6968794D01*
X5759348Y6971030D01*
X5763260Y6971792D01*
X5768340Y6971792D01*
X5772251Y6971030D01*
X5775502Y6968794D01*
X5777738Y6965543D01*
X5778500Y6961631D01*
X5778500Y6896100D01*
X5880760Y6896100D01*
X5879642Y6905091D01*
X5876036Y6919214D01*
X5870651Y6932726D01*
X5863640Y6945477D01*
X5856274Y6955637D01*
X5854496Y6959752D01*
X5854649Y6964172D01*
X5856630Y6968083D01*
X5860135Y6970826D01*
X5864504Y6971792D01*
X7142581Y6971792D01*
X7146493Y6971030D01*
X7149795Y6968794D01*
X7434478Y6684111D01*
X7436662Y6680860D01*
X7437475Y6677050D01*
X7436764Y6673189D01*
X7433564Y6665214D01*
X7429957Y6651091D01*
X7428128Y6636664D01*
X7428128Y6622135D01*
X7429957Y6607708D01*
X7433564Y6593586D01*
X7438948Y6580073D01*
X7445959Y6567322D01*
X7454493Y6555536D01*
X7464450Y6544919D01*
X7475677Y6535623D01*
X7487970Y6527850D01*
X7501128Y6521653D01*
X7514996Y6517131D01*
X7529271Y6514439D01*
X7543800Y6513525D01*
X7558328Y6514439D01*
X7572603Y6517131D01*
X7586472Y6521653D01*
X7599629Y6527850D01*
X7611922Y6535623D01*
X7623149Y6544919D01*
X7633106Y6555536D01*
X7641640Y6567322D01*
X7648651Y6580073D01*
X7654036Y6593586D01*
X7657642Y6607708D01*
X7659471Y6622135D01*
X7659471Y6636664D01*
X7657642Y6651091D01*
X7654036Y6665214D01*
X7648651Y6678726D01*
X7641640Y6691477D01*
X7633106Y6703263D01*
X7623149Y6713880D01*
X7611922Y6723176D01*
X7599629Y6730949D01*
X7586472Y6737146D01*
X7572603Y6741668D01*
X7558328Y6744360D01*
X7543800Y6745274D01*
X7529271Y6744360D01*
X7514996Y6741668D01*
X7501128Y6737146D01*
X7496454Y6735876D01*
X7492390Y6736588D01*
X7488936Y6738823D01*
X7190435Y7037324D01*
X7184237Y7042454D01*
X7177531Y7046010D01*
X7170318Y7048195D01*
X7162292Y7049008D01*
X5864504Y7049008D01*
X5860135Y7049973D01*
X5856630Y7052716D01*
X5854649Y7056628D01*
X5854496Y7061047D01*
X5856274Y7065162D01*
X5863640Y7075322D01*
X5870651Y7088073D01*
X5876036Y7101586D01*
X5879642Y7115708D01*
X5881471Y7130135D01*
X5881471Y7144664D01*
X5879642Y7159091D01*
X5876036Y7173214D01*
X5870651Y7186726D01*
X5863640Y7199477D01*
X5855106Y7211263D01*
X5845149Y7221880D01*
X5833922Y7231176D01*
X5821629Y7238949D01*
X5808472Y7245146D01*
X5794603Y7249668D01*
X5780328Y7252360D01*
X5765800Y7253274D01*
X5751271Y7252360D01*
X5736996Y7249668D01*
X5723128Y7245146D01*
X5709970Y7238949D01*
X5697677Y7231176D01*
X5686450Y7221880D01*
X5676493Y7211263D01*
X5667959Y7199477D01*
X5660948Y7186726D01*
X5655564Y7173214D01*
X5651957Y7159091D01*
X5650128Y7144664D01*
X5650128Y7130135D01*
X5651957Y7115708D01*
X5655564Y7101586D01*
X5660948Y7088073D01*
X5667959Y7075322D01*
X5675325Y7065162D01*
X5677103Y7061047D01*
X5676950Y7056628D01*
X5674969Y7052716D01*
X5671464Y7049973D01*
X5667095Y7049008D01*
X4975504Y7049008D01*
X4971135Y7049973D01*
X4967630Y7052716D01*
X4965649Y7056628D01*
X4965496Y7061047D01*
X4967274Y7065162D01*
X4974640Y7075322D01*
X4981651Y7088073D01*
X4987036Y7101586D01*
X4990642Y7115708D01*
X4992471Y7130135D01*
X4992471Y7144664D01*
X4990642Y7159091D01*
X4987036Y7173214D01*
X4981651Y7186726D01*
X4974640Y7199477D01*
X4966106Y7211263D01*
X4956149Y7221880D01*
X4944922Y7231176D01*
X4932629Y7238949D01*
X4919472Y7245146D01*
X4905603Y7249668D01*
X4891328Y7252360D01*
X4876800Y7253274D01*
X4862271Y7252360D01*
X4847996Y7249668D01*
X4834128Y7245146D01*
X4820970Y7238949D01*
X4808677Y7231176D01*
X4797450Y7221880D01*
X4787493Y7211263D01*
X4778959Y7199477D01*
X4771948Y7186726D01*
X4766564Y7173214D01*
X4762957Y7159091D01*
X4761128Y7144664D01*
X4761128Y7130135D01*
X4762957Y7115708D01*
X4766564Y7101586D01*
X4771948Y7088073D01*
X4778959Y7075322D01*
X4786325Y7065162D01*
X4788103Y7061047D01*
X4787950Y7056628D01*
X4785969Y7052716D01*
X4782464Y7049973D01*
X4778095Y7049008D01*
X2889402Y7049008D01*
X2886303Y7049516D01*
X2883509Y7050887D01*
X2881274Y7053072D01*
X2878429Y7056881D01*
X2868574Y7067092D01*
X2857449Y7075931D01*
X2845308Y7083298D01*
X2832303Y7089038D01*
X2818688Y7093102D01*
X2804668Y7095388D01*
X2790444Y7095845D01*
X2776321Y7094474D01*
X2762453Y7091324D01*
X2749092Y7086396D01*
X2736494Y7079843D01*
X2724861Y7071715D01*
X2714345Y7062165D01*
X2705150Y7051344D01*
X2697378Y7039406D01*
X2691231Y7026605D01*
X2686761Y7013143D01*
X2684018Y6999173D01*
X2683103Y6985000D01*
X2684018Y6970826D01*
X2686761Y6956856D01*
X2691231Y6943394D01*
X2697378Y6930593D01*
X2705150Y6918655D01*
X2709672Y6913372D01*
X2711551Y6910019D01*
X2712059Y6906209D01*
X2711145Y6902500D01*
X2708910Y6899402D01*
X2705709Y6897319D01*
X2701950Y6896608D01*
X1397508Y6896608D01*
X1389481Y6895795D01*
X1382268Y6893610D01*
X1375562Y6890054D01*
X1369364Y6884924D01*
X1066952Y6582562D01*
X1063599Y6580327D01*
X1059637Y6579565D01*
X1040688Y6585102D01*
X1026668Y6587388D01*
X1012444Y6587845D01*
X998321Y6586474D01*
X984453Y6583324D01*
X971092Y6578396D01*
X958494Y6571843D01*
X946861Y6563715D01*
X936345Y6554165D01*
X927150Y6543344D01*
X919378Y6531406D01*
X913231Y6518605D01*
X908761Y6505143D01*
X906018Y6491173D01*
X905103Y6477000D01*
X906018Y6462826D01*
X908761Y6448856D01*
X913231Y6435394D01*
X919378Y6422593D01*
X927150Y6410655D01*
X936345Y6399834D01*
X946861Y6390284D01*
X958494Y6382156D01*
X971092Y6375603D01*
X984453Y6370675D01*
X998321Y6367526D01*
X1012444Y6366154D01*
X1026668Y6366611D01*
X1040688Y6368897D01*
X1054303Y6372910D01*
X1067308Y6378702D01*
X1079449Y6386068D01*
X1090574Y6394907D01*
X1100429Y6405118D01*
X1108913Y6416497D01*
X1115923Y6428892D01*
X1121257Y6442049D01*
X1124864Y6455816D01*
X1126642Y6469888D01*
X1126642Y6484112D01*
X1124864Y6498183D01*
X1121257Y6511950D01*
X1119225Y6516878D01*
X1118514Y6520738D01*
X1119276Y6524599D01*
X1121460Y6527850D01*
X1410004Y6816394D01*
X1413306Y6818630D01*
X1417218Y6819392D01*
X2701950Y6819392D01*
X2705709Y6818680D01*
X2708910Y6816598D01*
X2711145Y6813499D01*
X2712059Y6809790D01*
X2711551Y6805980D01*
X2709672Y6802628D01*
X2705150Y6797344D01*
X2697378Y6785406D01*
X2691231Y6772605D01*
X2686761Y6759143D01*
X2684018Y6745173D01*
X2683103Y6731000D01*
X2684018Y6716826D01*
X2686761Y6702856D01*
X2691231Y6689394D01*
X2697378Y6676593D01*
X2705150Y6664655D01*
X2709672Y6659372D01*
X2711551Y6656019D01*
X2712059Y6652209D01*
X2711145Y6648500D01*
X2708910Y6645402D01*
X2705709Y6643319D01*
X2701950Y6642608D01*
X1397508Y6642608D01*
X1389481Y6641795D01*
X1382268Y6639610D01*
X1375562Y6636054D01*
X1369364Y6630924D01*
X1066952Y6328562D01*
X1063599Y6326327D01*
X1059637Y6325565D01*
X1040688Y6331102D01*
X1026668Y6333388D01*
X1012444Y6333845D01*
X998321Y6332474D01*
X984453Y6329324D01*
X971092Y6324396D01*
X958494Y6317843D01*
X946861Y6309715D01*
X936345Y6300165D01*
X927150Y6289344D01*
X919378Y6277406D01*
X913231Y6264605D01*
X908761Y6251143D01*
X906018Y6237173D01*
X905103Y6223000D01*
X906018Y6208826D01*
X908761Y6194856D01*
X913231Y6181394D01*
X919378Y6168593D01*
X923036Y6163005D01*
X924560Y6158941D01*
X924255Y6154623D01*
X922172Y6150813D01*
X918718Y6148222D01*
X914501Y6147308D01*
X896518Y6147308D01*
X892606Y6148070D01*
X889304Y6150305D01*
X854405Y6185204D01*
X852169Y6188506D01*
X851408Y6192418D01*
X851408Y6913981D01*
X852169Y6917893D01*
X854405Y6921195D01*
X876604Y6943394D01*
X879906Y6945630D01*
X883818Y6946392D01*
X905408Y6946392D01*
X909116Y6945680D01*
X912317Y6943699D01*
X914552Y6940651D01*
X919378Y6930593D01*
X927150Y6918655D01*
X936345Y6907834D01*
X946861Y6898284D01*
X958494Y6890156D01*
X971092Y6883603D01*
X984453Y6878675D01*
X998321Y6875525D01*
X1012444Y6874154D01*
X1026668Y6874611D01*
X1040688Y6876897D01*
X1054303Y6880910D01*
X1067308Y6886702D01*
X1079449Y6894068D01*
X1090574Y6902907D01*
X1100429Y6913118D01*
X1108913Y6924497D01*
X1115923Y6936892D01*
X1121257Y6950049D01*
X1124864Y6963816D01*
X1126642Y6977888D01*
X1126642Y6992112D01*
X1124864Y7006183D01*
X1121257Y7019950D01*
X1115923Y7033107D01*
X1108913Y7045502D01*
X1100429Y7056881D01*
X1090574Y7067092D01*
X1079449Y7075931D01*
X1067308Y7083298D01*
X1054303Y7089038D01*
X1040688Y7093102D01*
X1026668Y7095388D01*
X1012444Y7095845D01*
X998321Y7094474D01*
X984453Y7091324D01*
X971092Y7086396D01*
X958494Y7079843D01*
X946861Y7071715D01*
X936345Y7062165D01*
X927150Y7051344D01*
X919378Y7039406D01*
X914552Y7029348D01*
X912317Y7026300D01*
X909116Y7024319D01*
X905408Y7023608D01*
X864108Y7023608D01*
X856081Y7022795D01*
X848868Y7020610D01*
X842162Y7017054D01*
X835964Y7011924D01*
X785876Y6961835D01*
X780745Y6955637D01*
X777189Y6948931D01*
X775004Y6941718D01*
X774192Y6933692D01*
X774192Y6172708D01*
X775004Y6164681D01*
X777189Y6157468D01*
X780745Y6150762D01*
X785876Y6144564D01*
X848664Y6081776D01*
X854862Y6076645D01*
X861568Y6073089D01*
X868781Y6070904D01*
X876808Y6070092D01*
X936396Y6070092D01*
X940358Y6069279D01*
X943711Y6066993D01*
X945896Y6063589D01*
X946556Y6059627D01*
X945642Y6055664D01*
X943254Y6052413D01*
X936345Y6046165D01*
X927150Y6035344D01*
X919378Y6023406D01*
X913231Y6010605D01*
X908761Y5997143D01*
X906018Y5983173D01*
X905916Y5981700D01*
X1003300Y5981700D01*
X1003300Y6059932D01*
X1004062Y6063843D01*
X1006297Y6067094D01*
X1009548Y6069330D01*
X1013460Y6070092D01*
X1018540Y6070092D01*
X1022451Y6069330D01*
X1025702Y6067094D01*
X1027937Y6063843D01*
X1028700Y6059932D01*
X1028700Y5981700D01*
X1125931Y5981700D01*
X1124864Y5990183D01*
X1121257Y6003950D01*
X1115923Y6017107D01*
X1108913Y6029502D01*
X1100429Y6040882D01*
X1086764Y6055207D01*
X1085646Y6059170D01*
X1086154Y6063284D01*
X1088288Y6066840D01*
X1091692Y6069228D01*
X1095756Y6070092D01*
X2714396Y6070092D01*
X2718358Y6069279D01*
X2721711Y6066993D01*
X2723896Y6063589D01*
X2724556Y6059627D01*
X2723642Y6055664D01*
X2721254Y6052413D01*
X2714345Y6046165D01*
X2705150Y6035344D01*
X2697378Y6023406D01*
X2691231Y6010605D01*
X2686761Y5997143D01*
X2684018Y5983173D01*
X2683916Y5981700D01*
X2781300Y5981700D01*
X2781300Y6059932D01*
X2782062Y6063843D01*
X2784297Y6067094D01*
X2787548Y6069330D01*
X2791460Y6070092D01*
X2796540Y6070092D01*
X2800451Y6069330D01*
X2803702Y6067094D01*
X2805938Y6063843D01*
X2806700Y6059932D01*
X2806700Y5981700D01*
X2903931Y5981700D01*
X2902864Y5990183D01*
X2899257Y6003950D01*
X2893923Y6017107D01*
X2886913Y6029502D01*
X2878429Y6040882D01*
X2864764Y6055207D01*
X2863646Y6059170D01*
X2864154Y6063284D01*
X2866288Y6066840D01*
X2869692Y6069228D01*
X2873756Y6070092D01*
X3294481Y6070092D01*
X3298393Y6069330D01*
X3301695Y6067094D01*
X3401364Y5967476D01*
X3407562Y5962345D01*
X3414268Y5958789D01*
X3421481Y5956604D01*
X3429508Y5955792D01*
X4778095Y5955792D01*
X4782464Y5954826D01*
X4785969Y5952083D01*
X4787950Y5948172D01*
X4788103Y5943752D01*
X4786325Y5939637D01*
X4778959Y5929477D01*
X4771948Y5916726D01*
X4766564Y5903214D01*
X4762957Y5889091D01*
X4761128Y5874664D01*
X4761128Y5860135D01*
X4762957Y5845708D01*
X4766564Y5831586D01*
X4771948Y5818073D01*
X4778959Y5805322D01*
X4787493Y5793536D01*
X4797450Y5782919D01*
X4808677Y5773623D01*
X4820970Y5765850D01*
X4834128Y5759653D01*
X4847996Y5755132D01*
X4862271Y5752439D01*
X4876800Y5751525D01*
X4891328Y5752439D01*
X4905603Y5755132D01*
X4919472Y5759653D01*
X4932629Y5765850D01*
X4944922Y5773623D01*
X4956149Y5782919D01*
X4966106Y5793536D01*
X4974640Y5805322D01*
X4981651Y5818073D01*
X4987036Y5831586D01*
X4990642Y5845708D01*
X4992471Y5860135D01*
X4992471Y5874664D01*
X4990642Y5889091D01*
X4987036Y5903214D01*
X4981651Y5916726D01*
X4974640Y5929477D01*
X4967274Y5939637D01*
X4965496Y5943752D01*
X4965649Y5948172D01*
X4967630Y5952083D01*
X4971135Y5954826D01*
X4975504Y5955792D01*
X5667095Y5955792D01*
X5671464Y5954826D01*
X5674969Y5952083D01*
X5676950Y5948172D01*
X5677103Y5943752D01*
X5675325Y5939637D01*
X5667959Y5929477D01*
X5660948Y5916726D01*
X5655564Y5903214D01*
X5651957Y5889091D01*
X5650128Y5874664D01*
X5650128Y5860135D01*
X5651957Y5845708D01*
X5655564Y5831586D01*
X5660948Y5818073D01*
X5667959Y5805322D01*
X5676493Y5793536D01*
X5686450Y5782919D01*
X5697677Y5773623D01*
X5709970Y5765850D01*
X5723128Y5759653D01*
X5736996Y5755132D01*
X5751271Y5752439D01*
X5765800Y5751525D01*
X5780328Y5752439D01*
X5794603Y5755132D01*
X5808472Y5759653D01*
X5821629Y5765850D01*
X5833922Y5773623D01*
X5845149Y5782919D01*
X5855106Y5793536D01*
X5863640Y5805322D01*
X5870651Y5818073D01*
X5876036Y5831586D01*
X5879642Y5845708D01*
X5881471Y5860135D01*
X5881471Y5874664D01*
X5879642Y5889091D01*
X5876036Y5903214D01*
X5870651Y5916726D01*
X5863640Y5929477D01*
X5856274Y5939637D01*
X5854496Y5943752D01*
X5854649Y5948172D01*
X5856630Y5952083D01*
X5860135Y5954826D01*
X5864504Y5955792D01*
X6634581Y5955792D01*
X6638493Y5955030D01*
X6641795Y5952794D01*
X7424928Y5169662D01*
X7427112Y5166410D01*
X7427874Y5162499D01*
X7427874Y5015992D01*
X7428585Y5009642D01*
X7430516Y5004206D01*
X7433614Y4999278D01*
X7437678Y4995214D01*
X7442606Y4992116D01*
X7448042Y4990185D01*
G37*
G36*
X4889500Y5118100D02*
G01*
X4992725Y5118100D01*
X4992725Y5194808D01*
X4992014Y5201158D01*
X4990084Y5206593D01*
X4986985Y5211521D01*
X4982921Y5215585D01*
X4977993Y5218684D01*
X4972558Y5220614D01*
X4966208Y5221325D01*
X4889500Y5221325D01*
G37*
G36*
X4760874Y5118100D02*
G01*
X4864100Y5118100D01*
X4864100Y5221325D01*
X4787392Y5221325D01*
X4781042Y5220614D01*
X4775606Y5218684D01*
X4770678Y5215585D01*
X4766614Y5211521D01*
X4763516Y5206593D01*
X4761585Y5201158D01*
X4760874Y5194808D01*
G37*
G36*
X4064000Y5205425D02*
G01*
X4078528Y5206339D01*
X4092803Y5209032D01*
X4106672Y5213553D01*
X4119829Y5219750D01*
X4132122Y5227523D01*
X4143298Y5236819D01*
X4153306Y5247436D01*
X4161840Y5259171D01*
X4168851Y5271922D01*
X4174185Y5285486D01*
X4177842Y5299557D01*
X4179671Y5314035D01*
X4179671Y5328564D01*
X4177842Y5342991D01*
X4174185Y5357114D01*
X4168851Y5370626D01*
X4161840Y5383377D01*
X4153306Y5395163D01*
X4143298Y5405780D01*
X4132122Y5415026D01*
X4119829Y5422849D01*
X4106672Y5429046D01*
X4092803Y5433517D01*
X4078528Y5436260D01*
X4064000Y5437174D01*
X4049471Y5436260D01*
X4035196Y5433517D01*
X4021328Y5429046D01*
X4008170Y5422849D01*
X3995877Y5415026D01*
X3984650Y5405780D01*
X3974693Y5395163D01*
X3966159Y5383377D01*
X3959148Y5370626D01*
X3953764Y5357114D01*
X3950157Y5342991D01*
X3948328Y5328564D01*
X3948328Y5314035D01*
X3950157Y5299557D01*
X3953764Y5285486D01*
X3959148Y5271922D01*
X3966159Y5259171D01*
X3974693Y5247436D01*
X3984650Y5236819D01*
X3995877Y5227523D01*
X4008170Y5219750D01*
X4021328Y5213553D01*
X4035196Y5209032D01*
X4049471Y5206339D01*
G37*
G36*
X4876800Y5243525D02*
G01*
X4891328Y5244439D01*
X4905603Y5247132D01*
X4919472Y5251653D01*
X4932629Y5257850D01*
X4944922Y5265623D01*
X4956149Y5274919D01*
X4966106Y5285536D01*
X4974640Y5297322D01*
X4981651Y5310073D01*
X4987036Y5323586D01*
X4990642Y5337708D01*
X4992471Y5352135D01*
X4992471Y5366664D01*
X4990642Y5381091D01*
X4987036Y5395214D01*
X4981651Y5408726D01*
X4974640Y5421477D01*
X4966106Y5433263D01*
X4956149Y5443880D01*
X4944922Y5453176D01*
X4932629Y5460949D01*
X4919472Y5467146D01*
X4905603Y5471668D01*
X4891328Y5474360D01*
X4876800Y5475274D01*
X4862271Y5474360D01*
X4847996Y5471668D01*
X4834128Y5467146D01*
X4820970Y5460949D01*
X4808677Y5453176D01*
X4797450Y5443880D01*
X4787493Y5433263D01*
X4778959Y5421477D01*
X4771948Y5408726D01*
X4766564Y5395214D01*
X4762957Y5381091D01*
X4761128Y5366664D01*
X4761128Y5352135D01*
X4762957Y5337708D01*
X4766564Y5323586D01*
X4771948Y5310073D01*
X4778959Y5297322D01*
X4787493Y5285536D01*
X4797450Y5274919D01*
X4808677Y5265623D01*
X4820970Y5257850D01*
X4834128Y5251653D01*
X4847996Y5247132D01*
X4862271Y5244439D01*
G37*
G36*
X7543800Y5243525D02*
G01*
X7558328Y5244439D01*
X7572603Y5247132D01*
X7586472Y5251653D01*
X7599629Y5257850D01*
X7611922Y5265623D01*
X7623149Y5274919D01*
X7633106Y5285536D01*
X7641640Y5297322D01*
X7648651Y5310073D01*
X7654036Y5323586D01*
X7657642Y5337708D01*
X7659471Y5352135D01*
X7659471Y5366664D01*
X7657642Y5381091D01*
X7654036Y5395214D01*
X7648651Y5408726D01*
X7641640Y5421477D01*
X7633106Y5433263D01*
X7623149Y5443880D01*
X7611922Y5453176D01*
X7599629Y5460949D01*
X7586472Y5467146D01*
X7572603Y5471668D01*
X7558328Y5474360D01*
X7543800Y5475274D01*
X7529271Y5474360D01*
X7514996Y5471668D01*
X7501128Y5467146D01*
X7487970Y5460949D01*
X7475677Y5453176D01*
X7464450Y5443880D01*
X7454493Y5433263D01*
X7445959Y5421477D01*
X7438948Y5408726D01*
X7433564Y5395214D01*
X7429957Y5381091D01*
X7428128Y5366664D01*
X7428128Y5352135D01*
X7429957Y5337708D01*
X7433564Y5323586D01*
X7438948Y5310073D01*
X7445959Y5297322D01*
X7454493Y5285536D01*
X7464450Y5274919D01*
X7475677Y5265623D01*
X7487970Y5257850D01*
X7501128Y5251653D01*
X7514996Y5247132D01*
X7529271Y5244439D01*
G37*
G36*
X5765800Y5243525D02*
G01*
X5780328Y5244439D01*
X5794603Y5247132D01*
X5808472Y5251653D01*
X5821629Y5257850D01*
X5833922Y5265623D01*
X5845149Y5274919D01*
X5855106Y5285536D01*
X5863640Y5297322D01*
X5870651Y5310073D01*
X5876036Y5323586D01*
X5879642Y5337708D01*
X5881471Y5352135D01*
X5881471Y5366664D01*
X5879642Y5381091D01*
X5876036Y5395214D01*
X5870651Y5408726D01*
X5863640Y5421477D01*
X5855106Y5433263D01*
X5845149Y5443880D01*
X5833922Y5453176D01*
X5821629Y5460949D01*
X5808472Y5467146D01*
X5794603Y5471668D01*
X5780328Y5474360D01*
X5765800Y5475274D01*
X5751271Y5474360D01*
X5736996Y5471668D01*
X5723128Y5467146D01*
X5709970Y5460949D01*
X5697677Y5453176D01*
X5686450Y5443880D01*
X5676493Y5433263D01*
X5667959Y5421477D01*
X5660948Y5408726D01*
X5655564Y5395214D01*
X5651957Y5381091D01*
X5650128Y5366664D01*
X5650128Y5352135D01*
X5651957Y5337708D01*
X5655564Y5323586D01*
X5660948Y5310073D01*
X5667959Y5297322D01*
X5676493Y5285536D01*
X5686450Y5274919D01*
X5697677Y5265623D01*
X5709970Y5257850D01*
X5723128Y5251653D01*
X5736996Y5247132D01*
X5751271Y5244439D01*
G37*
G36*
X1651000Y5350103D02*
G01*
X1665173Y5351018D01*
X1679143Y5353761D01*
X1692605Y5358231D01*
X1705406Y5364378D01*
X1717344Y5372150D01*
X1728165Y5381345D01*
X1737715Y5391861D01*
X1745843Y5403494D01*
X1752396Y5416092D01*
X1757324Y5429453D01*
X1760474Y5443321D01*
X1761845Y5457444D01*
X1761388Y5471668D01*
X1759102Y5485688D01*
X1755089Y5499303D01*
X1749298Y5512308D01*
X1741932Y5524449D01*
X1733092Y5535574D01*
X1722882Y5545429D01*
X1711502Y5553913D01*
X1699107Y5560923D01*
X1685950Y5566257D01*
X1672183Y5569864D01*
X1658112Y5571642D01*
X1643888Y5571642D01*
X1629816Y5569864D01*
X1616049Y5566257D01*
X1602892Y5560923D01*
X1590497Y5553913D01*
X1579118Y5545429D01*
X1568907Y5535574D01*
X1560068Y5524449D01*
X1552702Y5512308D01*
X1546961Y5499303D01*
X1542897Y5485688D01*
X1540611Y5471668D01*
X1540154Y5457444D01*
X1541526Y5443321D01*
X1544675Y5429453D01*
X1549603Y5416092D01*
X1556156Y5403494D01*
X1564284Y5391861D01*
X1573834Y5381345D01*
X1584655Y5372150D01*
X1596593Y5364378D01*
X1609394Y5358231D01*
X1622856Y5353761D01*
X1636826Y5351018D01*
G37*
G36*
X2159000Y5350103D02*
G01*
X2173173Y5351018D01*
X2187143Y5353761D01*
X2200605Y5358231D01*
X2213406Y5364378D01*
X2225344Y5372150D01*
X2236165Y5381345D01*
X2245715Y5391861D01*
X2253843Y5403494D01*
X2260396Y5416092D01*
X2265324Y5429453D01*
X2268474Y5443321D01*
X2269845Y5457444D01*
X2269388Y5471668D01*
X2267102Y5485688D01*
X2263038Y5499303D01*
X2257298Y5512308D01*
X2249932Y5524449D01*
X2241092Y5535574D01*
X2230882Y5545429D01*
X2219502Y5553913D01*
X2207107Y5560923D01*
X2193950Y5566257D01*
X2180183Y5569864D01*
X2166112Y5571642D01*
X2151888Y5571642D01*
X2137816Y5569864D01*
X2124049Y5566257D01*
X2110892Y5560923D01*
X2098497Y5553913D01*
X2087118Y5545429D01*
X2076907Y5535574D01*
X2068068Y5524449D01*
X2060702Y5512308D01*
X2054961Y5499303D01*
X2050897Y5485688D01*
X2048611Y5471668D01*
X2048154Y5457444D01*
X2049525Y5443321D01*
X2052675Y5429453D01*
X2057603Y5416092D01*
X2064156Y5403494D01*
X2072284Y5391861D01*
X2081834Y5381345D01*
X2092655Y5372150D01*
X2104593Y5364378D01*
X2117394Y5358231D01*
X2130856Y5353761D01*
X2144826Y5351018D01*
G37*
G36*
X1012444Y5350154D02*
G01*
X1026668Y5350611D01*
X1040688Y5352897D01*
X1054303Y5356910D01*
X1067308Y5362702D01*
X1079449Y5370068D01*
X1090574Y5378907D01*
X1100429Y5389118D01*
X1108913Y5400497D01*
X1115923Y5412892D01*
X1121257Y5426049D01*
X1124864Y5439816D01*
X1126642Y5453888D01*
X1126642Y5468112D01*
X1124864Y5482183D01*
X1121257Y5495950D01*
X1115923Y5509107D01*
X1108913Y5521502D01*
X1100429Y5532882D01*
X1090574Y5543092D01*
X1079449Y5551932D01*
X1067308Y5559298D01*
X1054303Y5565038D01*
X1040688Y5569102D01*
X1026668Y5571388D01*
X1012444Y5571845D01*
X998321Y5570474D01*
X984453Y5567324D01*
X971092Y5562396D01*
X958494Y5555843D01*
X946861Y5547715D01*
X936345Y5538165D01*
X927150Y5527344D01*
X919378Y5515406D01*
X913231Y5502605D01*
X908761Y5489143D01*
X906018Y5475173D01*
X905103Y5461000D01*
X906018Y5446826D01*
X908761Y5432856D01*
X913231Y5419394D01*
X919378Y5406593D01*
X927150Y5394655D01*
X936345Y5383834D01*
X946861Y5374284D01*
X958494Y5366156D01*
X971092Y5359603D01*
X984453Y5354675D01*
X998321Y5351526D01*
G37*
G36*
X1901443Y5350154D02*
G01*
X1915668Y5350611D01*
X1929688Y5352897D01*
X1943303Y5356910D01*
X1956307Y5362702D01*
X1968449Y5370068D01*
X1979574Y5378907D01*
X1989429Y5389118D01*
X1997913Y5400497D01*
X2004923Y5412892D01*
X2010257Y5426049D01*
X2013864Y5439816D01*
X2015642Y5453888D01*
X2015642Y5468112D01*
X2013864Y5482183D01*
X2010257Y5495950D01*
X2004923Y5509107D01*
X1997913Y5521502D01*
X1989429Y5532882D01*
X1979574Y5543092D01*
X1968449Y5551932D01*
X1956307Y5559298D01*
X1943303Y5565038D01*
X1929688Y5569102D01*
X1915668Y5571388D01*
X1901443Y5571845D01*
X1887321Y5570474D01*
X1873453Y5567324D01*
X1860092Y5562396D01*
X1847494Y5555843D01*
X1835861Y5547715D01*
X1825345Y5538165D01*
X1816150Y5527344D01*
X1808378Y5515406D01*
X1802231Y5502605D01*
X1797761Y5489143D01*
X1795018Y5475173D01*
X1794103Y5461000D01*
X1795018Y5446826D01*
X1797761Y5432856D01*
X1802231Y5419394D01*
X1808378Y5406593D01*
X1816150Y5394655D01*
X1825345Y5383834D01*
X1835861Y5374284D01*
X1847494Y5366156D01*
X1860092Y5359603D01*
X1873453Y5354675D01*
X1887321Y5351526D01*
G37*
G36*
X2790444Y5350154D02*
G01*
X2804668Y5350611D01*
X2818688Y5352897D01*
X2832303Y5356910D01*
X2845308Y5362702D01*
X2857449Y5370068D01*
X2868574Y5378907D01*
X2878429Y5389118D01*
X2886913Y5400497D01*
X2893923Y5412892D01*
X2899257Y5426049D01*
X2902864Y5439816D01*
X2904642Y5453888D01*
X2904642Y5468112D01*
X2902864Y5482183D01*
X2899257Y5495950D01*
X2893923Y5509107D01*
X2886913Y5521502D01*
X2878429Y5532882D01*
X2868574Y5543092D01*
X2857449Y5551932D01*
X2845308Y5559298D01*
X2832303Y5565038D01*
X2818688Y5569102D01*
X2804668Y5571388D01*
X2790444Y5571845D01*
X2776321Y5570474D01*
X2762453Y5567324D01*
X2749092Y5562396D01*
X2736494Y5555843D01*
X2724861Y5547715D01*
X2714345Y5538165D01*
X2705150Y5527344D01*
X2697378Y5515406D01*
X2691231Y5502605D01*
X2686761Y5489143D01*
X2684018Y5475173D01*
X2683103Y5461000D01*
X2684018Y5446826D01*
X2686761Y5432856D01*
X2691231Y5419394D01*
X2697378Y5406593D01*
X2705150Y5394655D01*
X2714345Y5383834D01*
X2724861Y5374284D01*
X2736494Y5366156D01*
X2749092Y5359603D01*
X2762453Y5354675D01*
X2776321Y5351526D01*
G37*
G36*
X4064000Y5459425D02*
G01*
X4078528Y5460339D01*
X4092803Y5463032D01*
X4106672Y5467553D01*
X4119829Y5473750D01*
X4132122Y5481523D01*
X4143298Y5490819D01*
X4153306Y5501436D01*
X4161840Y5513171D01*
X4168851Y5525922D01*
X4174185Y5539486D01*
X4177842Y5553557D01*
X4179671Y5568035D01*
X4179671Y5582564D01*
X4177842Y5596991D01*
X4174185Y5611114D01*
X4168851Y5624626D01*
X4161840Y5637377D01*
X4153306Y5649163D01*
X4143298Y5659780D01*
X4132122Y5669026D01*
X4119829Y5676849D01*
X4106672Y5683046D01*
X4092803Y5687517D01*
X4078528Y5690260D01*
X4064000Y5691174D01*
X4049471Y5690260D01*
X4035196Y5687517D01*
X4021328Y5683046D01*
X4008170Y5676849D01*
X3995877Y5669026D01*
X3984650Y5659780D01*
X3974693Y5649163D01*
X3966159Y5637377D01*
X3959148Y5624626D01*
X3953764Y5611114D01*
X3950157Y5596991D01*
X3948328Y5582564D01*
X3948328Y5568035D01*
X3950157Y5553557D01*
X3953764Y5539486D01*
X3959148Y5525922D01*
X3966159Y5513171D01*
X3974693Y5501436D01*
X3984650Y5490819D01*
X3995877Y5481523D01*
X4008170Y5473750D01*
X4021328Y5467553D01*
X4035196Y5463032D01*
X4049471Y5460339D01*
G37*
G36*
X4876800Y5497525D02*
G01*
X4891328Y5498439D01*
X4905603Y5501132D01*
X4919472Y5505653D01*
X4932629Y5511850D01*
X4944922Y5519623D01*
X4956149Y5528919D01*
X4966106Y5539536D01*
X4974640Y5551322D01*
X4981651Y5564073D01*
X4987036Y5577586D01*
X4990642Y5591708D01*
X4992471Y5606135D01*
X4992471Y5620664D01*
X4990642Y5635091D01*
X4987036Y5649214D01*
X4981651Y5662726D01*
X4974640Y5675477D01*
X4966106Y5687263D01*
X4956149Y5697880D01*
X4944922Y5707176D01*
X4932629Y5714949D01*
X4919472Y5721146D01*
X4905603Y5725668D01*
X4891328Y5728360D01*
X4876800Y5729274D01*
X4862271Y5728360D01*
X4847996Y5725668D01*
X4834128Y5721146D01*
X4820970Y5714949D01*
X4808677Y5707176D01*
X4797450Y5697880D01*
X4787493Y5687263D01*
X4778959Y5675477D01*
X4771948Y5662726D01*
X4766564Y5649214D01*
X4762957Y5635091D01*
X4761128Y5620664D01*
X4761128Y5606135D01*
X4762957Y5591708D01*
X4766564Y5577586D01*
X4771948Y5564073D01*
X4778959Y5551322D01*
X4787493Y5539536D01*
X4797450Y5528919D01*
X4808677Y5519623D01*
X4820970Y5511850D01*
X4834128Y5505653D01*
X4847996Y5501132D01*
X4862271Y5498439D01*
G37*
G36*
X5753100Y5498287D02*
G01*
X5753100Y5600700D01*
X5650839Y5600700D01*
X5651957Y5591708D01*
X5655564Y5577586D01*
X5660948Y5564073D01*
X5667959Y5551322D01*
X5676493Y5539536D01*
X5686450Y5528919D01*
X5697677Y5519623D01*
X5709970Y5511850D01*
X5723128Y5505653D01*
X5736996Y5501132D01*
X5751271Y5498439D01*
G37*
G36*
X7531100Y5498287D02*
G01*
X7531100Y5600700D01*
X7428839Y5600700D01*
X7429957Y5591708D01*
X7433564Y5577586D01*
X7438948Y5564073D01*
X7445959Y5551322D01*
X7454493Y5539536D01*
X7464450Y5528919D01*
X7475677Y5519623D01*
X7487970Y5511850D01*
X7501128Y5505653D01*
X7514996Y5501132D01*
X7529271Y5498439D01*
G37*
G36*
X5778500Y5498287D02*
G01*
X5780328Y5498439D01*
X5794603Y5501132D01*
X5808472Y5505653D01*
X5821629Y5511850D01*
X5833922Y5519623D01*
X5845149Y5528919D01*
X5855106Y5539536D01*
X5863640Y5551322D01*
X5870651Y5564073D01*
X5876036Y5577586D01*
X5879642Y5591708D01*
X5880760Y5600700D01*
X5778500Y5600700D01*
G37*
G36*
X7556500Y5498287D02*
G01*
X7558328Y5498439D01*
X7572603Y5501132D01*
X7586472Y5505653D01*
X7599629Y5511850D01*
X7611922Y5519623D01*
X7623149Y5528919D01*
X7633106Y5539536D01*
X7641640Y5551322D01*
X7648651Y5564073D01*
X7654036Y5577586D01*
X7657642Y5591708D01*
X7658760Y5600700D01*
X7556500Y5600700D01*
G37*
G36*
X1012444Y5604154D02*
G01*
X1026668Y5604611D01*
X1040688Y5606897D01*
X1054303Y5610910D01*
X1067308Y5616702D01*
X1079449Y5624068D01*
X1090574Y5632907D01*
X1100429Y5643118D01*
X1108913Y5654497D01*
X1115923Y5666892D01*
X1121257Y5680049D01*
X1124864Y5693816D01*
X1126642Y5707888D01*
X1126642Y5722112D01*
X1124864Y5736183D01*
X1121257Y5749950D01*
X1115923Y5763107D01*
X1108913Y5775502D01*
X1100429Y5786882D01*
X1090574Y5797092D01*
X1079449Y5805932D01*
X1067308Y5813298D01*
X1054303Y5819038D01*
X1040688Y5823102D01*
X1026668Y5825388D01*
X1012444Y5825845D01*
X998321Y5824474D01*
X984453Y5821324D01*
X971092Y5816396D01*
X958494Y5809843D01*
X946861Y5801715D01*
X936345Y5792165D01*
X927150Y5781344D01*
X919378Y5769406D01*
X913231Y5756605D01*
X908761Y5743143D01*
X906018Y5729173D01*
X905103Y5715000D01*
X906018Y5700826D01*
X908761Y5686856D01*
X913231Y5673394D01*
X919378Y5660593D01*
X927150Y5648655D01*
X936345Y5637834D01*
X946861Y5628284D01*
X958494Y5620156D01*
X971092Y5613603D01*
X984453Y5608675D01*
X998321Y5605526D01*
G37*
G36*
X2790444Y5604154D02*
G01*
X2804668Y5604611D01*
X2818688Y5606897D01*
X2832303Y5610910D01*
X2845308Y5616702D01*
X2857449Y5624068D01*
X2868574Y5632907D01*
X2878429Y5643118D01*
X2886913Y5654497D01*
X2893923Y5666892D01*
X2899257Y5680049D01*
X2902864Y5693816D01*
X2904642Y5707888D01*
X2904642Y5722112D01*
X2902864Y5736183D01*
X2899257Y5749950D01*
X2893923Y5763107D01*
X2886913Y5775502D01*
X2878429Y5786882D01*
X2868574Y5797092D01*
X2857449Y5805932D01*
X2845308Y5813298D01*
X2832303Y5819038D01*
X2818688Y5823102D01*
X2804668Y5825388D01*
X2790444Y5825845D01*
X2776321Y5824474D01*
X2762453Y5821324D01*
X2749092Y5816396D01*
X2736494Y5809843D01*
X2724861Y5801715D01*
X2714345Y5792165D01*
X2705150Y5781344D01*
X2697378Y5769406D01*
X2691231Y5756605D01*
X2686761Y5743143D01*
X2684018Y5729173D01*
X2683103Y5715000D01*
X2684018Y5700826D01*
X2686761Y5686856D01*
X2691231Y5673394D01*
X2697378Y5660593D01*
X2705150Y5648655D01*
X2714345Y5637834D01*
X2724861Y5628284D01*
X2736494Y5620156D01*
X2749092Y5613603D01*
X2762453Y5608675D01*
X2776321Y5605526D01*
G37*
G36*
X5650839Y5626100D02*
G01*
X5753100Y5626100D01*
X5753100Y5728512D01*
X5751271Y5728360D01*
X5736996Y5725668D01*
X5723128Y5721146D01*
X5709970Y5714949D01*
X5697677Y5707176D01*
X5686450Y5697880D01*
X5676493Y5687263D01*
X5667959Y5675477D01*
X5660948Y5662726D01*
X5655564Y5649214D01*
X5651957Y5635091D01*
G37*
G36*
X7428839Y5626100D02*
G01*
X7531100Y5626100D01*
X7531100Y5728512D01*
X7529271Y5728360D01*
X7514996Y5725668D01*
X7501128Y5721146D01*
X7487970Y5714949D01*
X7475677Y5707176D01*
X7464450Y5697880D01*
X7454493Y5687263D01*
X7445959Y5675477D01*
X7438948Y5662726D01*
X7433564Y5649214D01*
X7429957Y5635091D01*
G37*
G36*
X5778500Y5626100D02*
G01*
X5880760Y5626100D01*
X5879642Y5635091D01*
X5876036Y5649214D01*
X5870651Y5662726D01*
X5863640Y5675477D01*
X5855106Y5687263D01*
X5845149Y5697880D01*
X5833922Y5707176D01*
X5821629Y5714949D01*
X5808472Y5721146D01*
X5794603Y5725668D01*
X5780328Y5728360D01*
X5778500Y5728512D01*
G37*
G36*
X7556500Y5626100D02*
G01*
X7658760Y5626100D01*
X7657642Y5635091D01*
X7654036Y5649214D01*
X7648651Y5662726D01*
X7641640Y5675477D01*
X7633106Y5687263D01*
X7623149Y5697880D01*
X7611922Y5707176D01*
X7599629Y5714949D01*
X7586472Y5721146D01*
X7572603Y5725668D01*
X7558328Y5728360D01*
X7556500Y5728512D01*
G37*
G36*
X7543800Y5751525D02*
G01*
X7558328Y5752439D01*
X7572603Y5755132D01*
X7586472Y5759653D01*
X7599629Y5765850D01*
X7611922Y5773623D01*
X7623149Y5782919D01*
X7633106Y5793536D01*
X7641640Y5805322D01*
X7648651Y5818073D01*
X7654036Y5831586D01*
X7657642Y5845708D01*
X7659471Y5860135D01*
X7659471Y5874664D01*
X7657642Y5889091D01*
X7654036Y5903214D01*
X7648651Y5916726D01*
X7641640Y5929477D01*
X7633106Y5941263D01*
X7623149Y5951880D01*
X7611922Y5961176D01*
X7599629Y5968949D01*
X7586472Y5975146D01*
X7572603Y5979668D01*
X7558328Y5982360D01*
X7543800Y5983274D01*
X7529271Y5982360D01*
X7514996Y5979668D01*
X7501128Y5975146D01*
X7487970Y5968949D01*
X7475677Y5961176D01*
X7464450Y5951880D01*
X7454493Y5941263D01*
X7445959Y5929477D01*
X7438948Y5916726D01*
X7433564Y5903214D01*
X7429957Y5889091D01*
X7428128Y5874664D01*
X7428128Y5860135D01*
X7429957Y5845708D01*
X7433564Y5831586D01*
X7438948Y5818073D01*
X7445959Y5805322D01*
X7454493Y5793536D01*
X7464450Y5782919D01*
X7475677Y5773623D01*
X7487970Y5765850D01*
X7501128Y5759653D01*
X7514996Y5755132D01*
X7529271Y5752439D01*
G37*
G36*
X1028700Y5858967D02*
G01*
X1040688Y5860897D01*
X1054303Y5864910D01*
X1067308Y5870702D01*
X1079449Y5878068D01*
X1090574Y5886907D01*
X1100429Y5897118D01*
X1108913Y5908497D01*
X1115923Y5920892D01*
X1121257Y5934049D01*
X1124864Y5947816D01*
X1125931Y5956300D01*
X1028700Y5956300D01*
G37*
G36*
X2806700Y5858967D02*
G01*
X2818688Y5860897D01*
X2832303Y5864910D01*
X2845308Y5870702D01*
X2857449Y5878068D01*
X2868574Y5886907D01*
X2878429Y5897118D01*
X2886913Y5908497D01*
X2893923Y5920892D01*
X2899257Y5934049D01*
X2902864Y5947816D01*
X2903931Y5956300D01*
X2806700Y5956300D01*
G37*
G36*
X2781300Y5859068D02*
G01*
X2781300Y5956300D01*
X2683916Y5956300D01*
X2684018Y5954826D01*
X2686761Y5940856D01*
X2691231Y5927394D01*
X2697378Y5914593D01*
X2705150Y5902655D01*
X2714345Y5891834D01*
X2724861Y5882284D01*
X2736494Y5874156D01*
X2749092Y5867603D01*
X2762453Y5862675D01*
X2776321Y5859526D01*
G37*
G36*
X1003300Y5859068D02*
G01*
X1003300Y5956300D01*
X905916Y5956300D01*
X906018Y5954826D01*
X908761Y5940856D01*
X913231Y5927394D01*
X919378Y5914593D01*
X927150Y5902655D01*
X936345Y5891834D01*
X946861Y5882284D01*
X958494Y5874156D01*
X971092Y5867603D01*
X984453Y5862675D01*
X998321Y5859526D01*
G37*
G36*
X7543800Y6005525D02*
G01*
X7558328Y6006439D01*
X7572603Y6009132D01*
X7586472Y6013653D01*
X7599629Y6019850D01*
X7611922Y6027623D01*
X7623149Y6036919D01*
X7633106Y6047536D01*
X7641640Y6059322D01*
X7648651Y6072073D01*
X7654036Y6085586D01*
X7657642Y6099708D01*
X7659471Y6114135D01*
X7659471Y6128664D01*
X7657642Y6143091D01*
X7654036Y6157214D01*
X7648651Y6170726D01*
X7641640Y6183477D01*
X7633106Y6195263D01*
X7623149Y6205880D01*
X7611922Y6215176D01*
X7599629Y6222949D01*
X7586472Y6229146D01*
X7572603Y6233668D01*
X7558328Y6236360D01*
X7543800Y6237274D01*
X7529271Y6236360D01*
X7514996Y6233668D01*
X7501128Y6229146D01*
X7487970Y6222949D01*
X7475677Y6215176D01*
X7464450Y6205880D01*
X7454493Y6195263D01*
X7445959Y6183477D01*
X7438948Y6170726D01*
X7433564Y6157214D01*
X7429957Y6143091D01*
X7428128Y6128664D01*
X7428128Y6114135D01*
X7429957Y6099708D01*
X7433564Y6085586D01*
X7438948Y6072073D01*
X7445959Y6059322D01*
X7454493Y6047536D01*
X7464450Y6036919D01*
X7475677Y6027623D01*
X7487970Y6019850D01*
X7501128Y6013653D01*
X7514996Y6009132D01*
X7529271Y6006439D01*
G37*
G36*
X5765800Y6259525D02*
G01*
X5780328Y6260439D01*
X5794603Y6263132D01*
X5808472Y6267653D01*
X5821629Y6273850D01*
X5833922Y6281623D01*
X5845149Y6290919D01*
X5855106Y6301536D01*
X5863640Y6313322D01*
X5870651Y6326073D01*
X5876036Y6339586D01*
X5879642Y6353708D01*
X5881471Y6368135D01*
X5881471Y6382664D01*
X5879642Y6397091D01*
X5876036Y6411214D01*
X5870651Y6424726D01*
X5863640Y6437477D01*
X5855106Y6449263D01*
X5845149Y6459880D01*
X5833922Y6469176D01*
X5821629Y6476949D01*
X5808472Y6483146D01*
X5794603Y6487668D01*
X5780328Y6490360D01*
X5765800Y6491274D01*
X5751271Y6490360D01*
X5736996Y6487668D01*
X5723128Y6483146D01*
X5709970Y6476949D01*
X5697677Y6469176D01*
X5686450Y6459880D01*
X5676493Y6449263D01*
X5667959Y6437477D01*
X5660948Y6424726D01*
X5655564Y6411214D01*
X5651957Y6397091D01*
X5650128Y6382664D01*
X5650128Y6368135D01*
X5651957Y6353708D01*
X5655564Y6339586D01*
X5660948Y6326073D01*
X5667959Y6313322D01*
X5676493Y6301536D01*
X5686450Y6290919D01*
X5697677Y6281623D01*
X5709970Y6273850D01*
X5723128Y6267653D01*
X5736996Y6263132D01*
X5751271Y6260439D01*
G37*
G36*
X4876800Y6259525D02*
G01*
X4891328Y6260439D01*
X4905603Y6263132D01*
X4919472Y6267653D01*
X4932629Y6273850D01*
X4944922Y6281623D01*
X4956149Y6290919D01*
X4966106Y6301536D01*
X4974640Y6313322D01*
X4981651Y6326073D01*
X4987036Y6339586D01*
X4990642Y6353708D01*
X4992471Y6368135D01*
X4992471Y6382664D01*
X4990642Y6397091D01*
X4987036Y6411214D01*
X4981651Y6424726D01*
X4974640Y6437477D01*
X4966106Y6449263D01*
X4956149Y6459880D01*
X4944922Y6469176D01*
X4932629Y6476949D01*
X4919472Y6483146D01*
X4905603Y6487668D01*
X4891328Y6490360D01*
X4876800Y6491274D01*
X4862271Y6490360D01*
X4847996Y6487668D01*
X4834128Y6483146D01*
X4820970Y6476949D01*
X4808677Y6469176D01*
X4797450Y6459880D01*
X4787493Y6449263D01*
X4778959Y6437477D01*
X4771948Y6424726D01*
X4766564Y6411214D01*
X4762957Y6397091D01*
X4761128Y6382664D01*
X4761128Y6368135D01*
X4762957Y6353708D01*
X4766564Y6339586D01*
X4771948Y6326073D01*
X4778959Y6313322D01*
X4787493Y6301536D01*
X4797450Y6290919D01*
X4808677Y6281623D01*
X4820970Y6273850D01*
X4834128Y6267653D01*
X4847996Y6263132D01*
X4862271Y6260439D01*
G37*
G36*
X1012444Y6620154D02*
G01*
X1026668Y6620611D01*
X1040688Y6622897D01*
X1054303Y6626910D01*
X1067308Y6632702D01*
X1079449Y6640068D01*
X1090574Y6648907D01*
X1100429Y6659118D01*
X1108913Y6670497D01*
X1115923Y6682892D01*
X1121257Y6696049D01*
X1124864Y6709816D01*
X1126642Y6723888D01*
X1126642Y6738112D01*
X1124864Y6752183D01*
X1121257Y6765950D01*
X1119225Y6770878D01*
X1118514Y6774738D01*
X1119276Y6778599D01*
X1121460Y6781850D01*
X1664004Y7324394D01*
X1667306Y7326630D01*
X1671218Y7327392D01*
X2701950Y7327392D01*
X2705709Y7326680D01*
X2708910Y7324598D01*
X2711145Y7321499D01*
X2712059Y7317790D01*
X2711551Y7313980D01*
X2709672Y7310628D01*
X2705150Y7305344D01*
X2697378Y7293406D01*
X2691231Y7280605D01*
X2686761Y7267143D01*
X2684018Y7253173D01*
X2683916Y7251700D01*
X2781300Y7251700D01*
X2781300Y7317231D01*
X2782062Y7321143D01*
X2784297Y7324394D01*
X2787548Y7326630D01*
X2791460Y7327392D01*
X2796540Y7327392D01*
X2800451Y7326630D01*
X2803702Y7324394D01*
X2805938Y7321143D01*
X2806700Y7317231D01*
X2806700Y7251700D01*
X2903931Y7251700D01*
X2902864Y7260183D01*
X2899257Y7273950D01*
X2893923Y7287107D01*
X2886913Y7299502D01*
X2878226Y7311136D01*
X2876397Y7315250D01*
X2876499Y7319670D01*
X2878531Y7323683D01*
X2882036Y7326426D01*
X2886354Y7327392D01*
X3663391Y7327392D01*
X3667302Y7326630D01*
X3670604Y7324394D01*
X3672179Y7322820D01*
X3680206Y7317181D01*
X3689146Y7313066D01*
X3698595Y7310526D01*
X3708400Y7309662D01*
X3718204Y7310526D01*
X3727653Y7313066D01*
X3736594Y7317181D01*
X3744620Y7322820D01*
X3751579Y7329779D01*
X3757218Y7337806D01*
X3761333Y7346746D01*
X3763873Y7356195D01*
X3764737Y7366000D01*
X3763873Y7375804D01*
X3761333Y7385253D01*
X3757218Y7394194D01*
X3751579Y7402220D01*
X3744620Y7409180D01*
X3736594Y7414818D01*
X3727653Y7418933D01*
X3718204Y7421473D01*
X3708400Y7422337D01*
X3698595Y7421473D01*
X3689146Y7418933D01*
X3680206Y7414818D01*
X3672179Y7409180D01*
X3670604Y7407605D01*
X3667302Y7405370D01*
X3663391Y7404608D01*
X2886354Y7404608D01*
X2882036Y7405573D01*
X2878531Y7408316D01*
X2876499Y7412329D01*
X2876397Y7416749D01*
X2878226Y7420864D01*
X2886913Y7432497D01*
X2893923Y7444892D01*
X2899257Y7458049D01*
X2902966Y7472222D01*
X2904947Y7476134D01*
X2908452Y7478826D01*
X2912770Y7479792D01*
X4778095Y7479792D01*
X4782464Y7478826D01*
X4785969Y7476083D01*
X4787950Y7472172D01*
X4788103Y7467752D01*
X4786325Y7463637D01*
X4778959Y7453477D01*
X4771948Y7440726D01*
X4766564Y7427214D01*
X4762957Y7413091D01*
X4761128Y7398664D01*
X4761128Y7384135D01*
X4762957Y7369708D01*
X4766564Y7355586D01*
X4771948Y7342073D01*
X4778959Y7329322D01*
X4787493Y7317536D01*
X4797450Y7306919D01*
X4808677Y7297623D01*
X4820970Y7289850D01*
X4834128Y7283653D01*
X4847996Y7279131D01*
X4862271Y7276439D01*
X4876800Y7275525D01*
X4891328Y7276439D01*
X4905603Y7279131D01*
X4919472Y7283653D01*
X4932629Y7289850D01*
X4944922Y7297623D01*
X4956149Y7306919D01*
X4966106Y7317536D01*
X4974640Y7329322D01*
X4981651Y7342073D01*
X4987036Y7355586D01*
X4990642Y7369708D01*
X4992471Y7384135D01*
X4992471Y7398664D01*
X4990642Y7413091D01*
X4987036Y7427214D01*
X4981651Y7440726D01*
X4974640Y7453477D01*
X4967274Y7463637D01*
X4965496Y7467752D01*
X4965649Y7472172D01*
X4967630Y7476083D01*
X4971135Y7478826D01*
X4975504Y7479792D01*
X5667095Y7479792D01*
X5671464Y7478826D01*
X5674969Y7476083D01*
X5676950Y7472172D01*
X5677103Y7467752D01*
X5675325Y7463637D01*
X5667959Y7453477D01*
X5660948Y7440726D01*
X5655564Y7427214D01*
X5651957Y7413091D01*
X5650128Y7398664D01*
X5650128Y7384135D01*
X5651957Y7369708D01*
X5655564Y7355586D01*
X5660948Y7342073D01*
X5667959Y7329322D01*
X5676493Y7317536D01*
X5686450Y7306919D01*
X5697677Y7297623D01*
X5709970Y7289850D01*
X5723128Y7283653D01*
X5736996Y7279131D01*
X5751271Y7276439D01*
X5765800Y7275525D01*
X5780328Y7276439D01*
X5794603Y7279131D01*
X5808472Y7283653D01*
X5821629Y7289850D01*
X5833922Y7297623D01*
X5845149Y7306919D01*
X5855106Y7317536D01*
X5863640Y7329322D01*
X5870651Y7342073D01*
X5876036Y7355586D01*
X5879642Y7369708D01*
X5881471Y7384135D01*
X5881471Y7398664D01*
X5879642Y7413091D01*
X5876036Y7427214D01*
X5870651Y7440726D01*
X5863640Y7453477D01*
X5856274Y7463637D01*
X5854496Y7467752D01*
X5854649Y7472172D01*
X5856630Y7476083D01*
X5860135Y7478826D01*
X5864504Y7479792D01*
X7142581Y7479792D01*
X7146493Y7479030D01*
X7149795Y7476794D01*
X7434478Y7192111D01*
X7436662Y7188860D01*
X7437475Y7185050D01*
X7436764Y7181189D01*
X7433564Y7173214D01*
X7429957Y7159091D01*
X7428128Y7144664D01*
X7428128Y7130135D01*
X7429957Y7115708D01*
X7433564Y7101586D01*
X7438948Y7088073D01*
X7445959Y7075322D01*
X7454493Y7063536D01*
X7464450Y7052919D01*
X7475677Y7043623D01*
X7487970Y7035850D01*
X7501128Y7029653D01*
X7514996Y7025131D01*
X7529271Y7022439D01*
X7543800Y7021525D01*
X7558328Y7022439D01*
X7572603Y7025131D01*
X7586472Y7029653D01*
X7599629Y7035850D01*
X7611922Y7043623D01*
X7623149Y7052919D01*
X7633106Y7063536D01*
X7641640Y7075322D01*
X7648651Y7088073D01*
X7654036Y7101586D01*
X7657642Y7115708D01*
X7659471Y7130135D01*
X7659471Y7144664D01*
X7657642Y7159091D01*
X7654036Y7173214D01*
X7648651Y7186726D01*
X7641640Y7199477D01*
X7633106Y7211263D01*
X7623149Y7221880D01*
X7611922Y7231176D01*
X7599629Y7238949D01*
X7586472Y7245146D01*
X7572603Y7249668D01*
X7558328Y7252360D01*
X7543800Y7253274D01*
X7529271Y7252360D01*
X7514996Y7249668D01*
X7501128Y7245146D01*
X7496454Y7243876D01*
X7492390Y7244588D01*
X7488936Y7246823D01*
X7190435Y7545324D01*
X7184237Y7550454D01*
X7177531Y7554010D01*
X7170318Y7556195D01*
X7162292Y7557008D01*
X5864504Y7557008D01*
X5860135Y7557973D01*
X5856630Y7560716D01*
X5854649Y7564628D01*
X5854496Y7569047D01*
X5856274Y7573162D01*
X5863640Y7583322D01*
X5870651Y7596073D01*
X5876036Y7609586D01*
X5879642Y7623708D01*
X5881471Y7638135D01*
X5881471Y7652664D01*
X5879642Y7667091D01*
X5876036Y7681214D01*
X5870651Y7694726D01*
X5863640Y7707477D01*
X5856274Y7717637D01*
X5854496Y7721752D01*
X5854649Y7726172D01*
X5856630Y7730083D01*
X5860135Y7732826D01*
X5864504Y7733792D01*
X7142581Y7733792D01*
X7146493Y7733030D01*
X7149795Y7730794D01*
X7434478Y7446111D01*
X7436662Y7442860D01*
X7437475Y7439050D01*
X7436764Y7435189D01*
X7433564Y7427214D01*
X7429957Y7413091D01*
X7428128Y7398664D01*
X7428128Y7384135D01*
X7429957Y7369708D01*
X7433564Y7355586D01*
X7438948Y7342073D01*
X7445959Y7329322D01*
X7454493Y7317536D01*
X7464450Y7306919D01*
X7475677Y7297623D01*
X7487970Y7289850D01*
X7501128Y7283653D01*
X7514996Y7279131D01*
X7529271Y7276439D01*
X7543800Y7275525D01*
X7558328Y7276439D01*
X7572603Y7279131D01*
X7586472Y7283653D01*
X7599629Y7289850D01*
X7611922Y7297623D01*
X7623149Y7306919D01*
X7633106Y7317536D01*
X7641640Y7329322D01*
X7648651Y7342073D01*
X7654036Y7355586D01*
X7657642Y7369708D01*
X7659471Y7384135D01*
X7659471Y7398664D01*
X7657642Y7413091D01*
X7654036Y7427214D01*
X7648651Y7440726D01*
X7641640Y7453477D01*
X7633106Y7465263D01*
X7623149Y7475880D01*
X7611922Y7485176D01*
X7599629Y7492949D01*
X7586472Y7499146D01*
X7572603Y7503668D01*
X7558328Y7506360D01*
X7543800Y7507274D01*
X7529271Y7506360D01*
X7514996Y7503668D01*
X7501128Y7499146D01*
X7496454Y7497876D01*
X7492390Y7498588D01*
X7488936Y7500823D01*
X7190435Y7799324D01*
X7184237Y7804454D01*
X7177531Y7808010D01*
X7170318Y7810195D01*
X7162292Y7811008D01*
X5864504Y7811008D01*
X5860135Y7811973D01*
X5856630Y7814716D01*
X5854649Y7818628D01*
X5854496Y7823047D01*
X5856274Y7827162D01*
X5863640Y7837322D01*
X5870651Y7850073D01*
X5876036Y7863586D01*
X5879642Y7877708D01*
X5881471Y7892135D01*
X5881471Y7906664D01*
X5879642Y7921091D01*
X5876036Y7935214D01*
X5870651Y7948726D01*
X5863640Y7961477D01*
X5855106Y7973263D01*
X5845149Y7983880D01*
X5833922Y7993176D01*
X5821629Y8000949D01*
X5808472Y8007146D01*
X5794603Y8011668D01*
X5780328Y8014360D01*
X5765800Y8015274D01*
X5751271Y8014360D01*
X5736996Y8011668D01*
X5723128Y8007146D01*
X5709970Y8000949D01*
X5697677Y7993176D01*
X5686450Y7983880D01*
X5676493Y7973263D01*
X5667959Y7961477D01*
X5660948Y7948726D01*
X5655564Y7935214D01*
X5651957Y7921091D01*
X5650128Y7906664D01*
X5650128Y7892135D01*
X5651957Y7877708D01*
X5655564Y7863586D01*
X5660948Y7850073D01*
X5667959Y7837322D01*
X5675325Y7827162D01*
X5677103Y7823047D01*
X5676950Y7818628D01*
X5674969Y7814716D01*
X5671464Y7811973D01*
X5667095Y7811008D01*
X4975504Y7811008D01*
X4971135Y7811973D01*
X4967630Y7814716D01*
X4965649Y7818628D01*
X4965496Y7823047D01*
X4967274Y7827162D01*
X4974640Y7837322D01*
X4981651Y7850073D01*
X4987036Y7863586D01*
X4990642Y7877708D01*
X4992471Y7892135D01*
X4992471Y7906664D01*
X4990642Y7921091D01*
X4987036Y7935214D01*
X4981651Y7948726D01*
X4974640Y7961477D01*
X4966106Y7973263D01*
X4956149Y7983880D01*
X4944922Y7993176D01*
X4932629Y8000949D01*
X4919472Y8007146D01*
X4905603Y8011668D01*
X4891328Y8014360D01*
X4876800Y8015274D01*
X4862271Y8014360D01*
X4847996Y8011668D01*
X4834128Y8007146D01*
X4820970Y8000949D01*
X4808677Y7993176D01*
X4797450Y7983880D01*
X4787493Y7973263D01*
X4778959Y7961477D01*
X4771948Y7948726D01*
X4766564Y7935214D01*
X4762957Y7921091D01*
X4761128Y7906664D01*
X4761128Y7892135D01*
X4762957Y7877708D01*
X4766564Y7863586D01*
X4771948Y7850073D01*
X4778959Y7837322D01*
X4786325Y7827162D01*
X4788103Y7823047D01*
X4787950Y7818628D01*
X4785969Y7814716D01*
X4782464Y7811973D01*
X4778095Y7811008D01*
X2889402Y7811008D01*
X2886303Y7811516D01*
X2883509Y7812887D01*
X2881274Y7815072D01*
X2878429Y7818881D01*
X2868574Y7829092D01*
X2857449Y7837931D01*
X2845308Y7845298D01*
X2832303Y7851038D01*
X2818688Y7855102D01*
X2804668Y7857388D01*
X2790444Y7857845D01*
X2776321Y7856474D01*
X2762453Y7853324D01*
X2749092Y7848396D01*
X2736494Y7841843D01*
X2724861Y7833715D01*
X2714345Y7824165D01*
X2705150Y7813344D01*
X2697378Y7801406D01*
X2691231Y7788605D01*
X2686761Y7775143D01*
X2684018Y7761173D01*
X2683103Y7747000D01*
X2684018Y7732826D01*
X2686761Y7718856D01*
X2691231Y7705394D01*
X2697378Y7692593D01*
X2705150Y7680655D01*
X2709672Y7675372D01*
X2711551Y7672019D01*
X2712059Y7668209D01*
X2711145Y7664500D01*
X2708910Y7661402D01*
X2705709Y7659319D01*
X2701950Y7658608D01*
X1417218Y7658608D01*
X1413306Y7659370D01*
X1410004Y7661605D01*
X1121460Y7950149D01*
X1119276Y7953400D01*
X1118514Y7957261D01*
X1119225Y7961122D01*
X1121257Y7966049D01*
X1124864Y7979816D01*
X1126642Y7993888D01*
X1126642Y8008112D01*
X1124864Y8022183D01*
X1121257Y8035950D01*
X1115923Y8049107D01*
X1108913Y8061502D01*
X1100429Y8072881D01*
X1090574Y8083092D01*
X1079449Y8091931D01*
X1067308Y8099298D01*
X1054303Y8105038D01*
X1040688Y8109102D01*
X1026668Y8111388D01*
X1012444Y8111845D01*
X998321Y8110474D01*
X984453Y8107324D01*
X971092Y8102396D01*
X958494Y8095843D01*
X946861Y8087715D01*
X936345Y8078165D01*
X927150Y8067344D01*
X919378Y8055406D01*
X913231Y8042605D01*
X908761Y8029143D01*
X906018Y8015173D01*
X905103Y8001000D01*
X906018Y7986826D01*
X908761Y7972856D01*
X913231Y7959394D01*
X919378Y7946593D01*
X927150Y7934655D01*
X936345Y7923834D01*
X946861Y7914284D01*
X958494Y7906156D01*
X971092Y7899603D01*
X984453Y7894675D01*
X998321Y7891525D01*
X1012444Y7890154D01*
X1026668Y7890611D01*
X1040688Y7892897D01*
X1059637Y7898434D01*
X1063599Y7897672D01*
X1066952Y7895437D01*
X1369364Y7593075D01*
X1375562Y7587945D01*
X1382268Y7584389D01*
X1389481Y7582204D01*
X1397508Y7581392D01*
X2701950Y7581392D01*
X2705709Y7580680D01*
X2708910Y7578598D01*
X2711145Y7575499D01*
X2712059Y7571790D01*
X2711551Y7567980D01*
X2709672Y7564628D01*
X2705150Y7559344D01*
X2697378Y7547406D01*
X2691231Y7534605D01*
X2686761Y7521143D01*
X2684018Y7507173D01*
X2683103Y7493000D01*
X2684018Y7478826D01*
X2686761Y7464856D01*
X2691231Y7451394D01*
X2697378Y7438593D01*
X2705150Y7426655D01*
X2709672Y7421372D01*
X2711551Y7418019D01*
X2712059Y7414209D01*
X2711145Y7410500D01*
X2708910Y7407402D01*
X2705709Y7405319D01*
X2701950Y7404608D01*
X1651507Y7404608D01*
X1643481Y7403795D01*
X1636268Y7401610D01*
X1629562Y7398054D01*
X1623364Y7392924D01*
X1066952Y6836562D01*
X1063599Y6834327D01*
X1059637Y6833565D01*
X1040688Y6839102D01*
X1026668Y6841388D01*
X1012444Y6841845D01*
X998321Y6840474D01*
X984453Y6837324D01*
X971092Y6832396D01*
X958494Y6825843D01*
X946861Y6817715D01*
X936345Y6808165D01*
X927150Y6797344D01*
X919378Y6785406D01*
X913231Y6772605D01*
X908761Y6759143D01*
X906018Y6745173D01*
X905103Y6731000D01*
X906018Y6716826D01*
X908761Y6702856D01*
X913231Y6689394D01*
X919378Y6676593D01*
X927150Y6664655D01*
X936345Y6653834D01*
X946861Y6644284D01*
X958494Y6636156D01*
X971092Y6629603D01*
X984453Y6624675D01*
X998321Y6621525D01*
G37*
G36*
X4064000Y3681425D02*
G01*
X4078528Y3682339D01*
X4092803Y3685032D01*
X4106672Y3689553D01*
X4119829Y3695750D01*
X4132122Y3703523D01*
X4143298Y3712819D01*
X4153306Y3723436D01*
X4161840Y3735171D01*
X4168851Y3747922D01*
X4174185Y3761486D01*
X4177842Y3775557D01*
X4179671Y3790035D01*
X4179671Y3804564D01*
X4177842Y3818991D01*
X4174185Y3833114D01*
X4168851Y3846626D01*
X4161840Y3859377D01*
X4153306Y3871163D01*
X4143298Y3881780D01*
X4132122Y3891026D01*
X4119829Y3898849D01*
X4106672Y3905046D01*
X4092803Y3909517D01*
X4078528Y3912260D01*
X4064000Y3913174D01*
X4049471Y3912260D01*
X4035196Y3909517D01*
X4021328Y3905046D01*
X4008170Y3898849D01*
X3995877Y3891026D01*
X3984650Y3881780D01*
X3974693Y3871163D01*
X3966159Y3859377D01*
X3959148Y3846626D01*
X3953764Y3833114D01*
X3950157Y3818991D01*
X3948328Y3804564D01*
X3948328Y3790035D01*
X3950157Y3775557D01*
X3953764Y3761486D01*
X3959148Y3747922D01*
X3966159Y3735171D01*
X3974693Y3723436D01*
X3984650Y3712819D01*
X3995877Y3703523D01*
X4008170Y3695750D01*
X4021328Y3689553D01*
X4035196Y3685032D01*
X4049471Y3682339D01*
G37*
G36*
X7556500Y6768287D02*
G01*
X7558328Y6768439D01*
X7572603Y6771131D01*
X7586472Y6775653D01*
X7599629Y6781850D01*
X7611922Y6789623D01*
X7623149Y6798919D01*
X7633106Y6809536D01*
X7641640Y6821322D01*
X7648651Y6834073D01*
X7654036Y6847586D01*
X7657642Y6861708D01*
X7658760Y6870700D01*
X7556500Y6870700D01*
G37*
G36*
X5765800Y9815525D02*
G01*
X5780328Y9816439D01*
X5794603Y9819132D01*
X5808472Y9823653D01*
X5821629Y9829850D01*
X5833922Y9837623D01*
X5845149Y9846919D01*
X5855106Y9857536D01*
X5863640Y9869322D01*
X5870651Y9882073D01*
X5876036Y9895586D01*
X5879642Y9909708D01*
X5881471Y9924135D01*
X5881471Y9938664D01*
X5879642Y9953091D01*
X5876036Y9967214D01*
X5870651Y9980726D01*
X5863640Y9993477D01*
X5855106Y10005263D01*
X5845149Y10015880D01*
X5833922Y10025176D01*
X5821629Y10032949D01*
X5808472Y10039146D01*
X5794603Y10043668D01*
X5780328Y10046360D01*
X5765800Y10047274D01*
X5751271Y10046360D01*
X5736996Y10043668D01*
X5723128Y10039146D01*
X5709970Y10032949D01*
X5697677Y10025176D01*
X5686450Y10015880D01*
X5676493Y10005263D01*
X5667959Y9993477D01*
X5660948Y9980726D01*
X5655564Y9967214D01*
X5651957Y9953091D01*
X5650128Y9938664D01*
X5650128Y9924135D01*
X5651957Y9909708D01*
X5655564Y9895586D01*
X5660948Y9882073D01*
X5667959Y9869322D01*
X5676493Y9857536D01*
X5686450Y9846919D01*
X5697677Y9837623D01*
X5709970Y9829850D01*
X5723128Y9823653D01*
X5736996Y9819132D01*
X5751271Y9816439D01*
G37*
G36*
X7428839Y6896100D02*
G01*
X7531100Y6896100D01*
X7531100Y6998512D01*
X7529271Y6998360D01*
X7514996Y6995668D01*
X7501128Y6991146D01*
X7487970Y6984949D01*
X7475677Y6977176D01*
X7464450Y6967880D01*
X7454493Y6957263D01*
X7445959Y6945477D01*
X7438948Y6932726D01*
X7433564Y6919214D01*
X7429957Y6905091D01*
G37*
G36*
X7556500Y6896100D02*
G01*
X7658760Y6896100D01*
X7657642Y6905091D01*
X7654036Y6919214D01*
X7648651Y6932726D01*
X7641640Y6945477D01*
X7633106Y6957263D01*
X7623149Y6967880D01*
X7611922Y6977176D01*
X7599629Y6984949D01*
X7586472Y6991146D01*
X7572603Y6995668D01*
X7558328Y6998360D01*
X7556500Y6998512D01*
G37*
G36*
X3720541Y3681374D02*
G01*
X3899408Y3681374D01*
X3905758Y3682085D01*
X3911193Y3684015D01*
X3916121Y3687064D01*
X3920185Y3691178D01*
X3923284Y3696055D01*
X3925163Y3701542D01*
X3925925Y3707841D01*
X3925925Y3886708D01*
X3925163Y3893058D01*
X3923284Y3898493D01*
X3920185Y3903421D01*
X3916121Y3907485D01*
X3911193Y3910584D01*
X3905758Y3912463D01*
X3899408Y3913174D01*
X3720541Y3913174D01*
X3714242Y3912463D01*
X3708755Y3910584D01*
X3703878Y3907485D01*
X3699764Y3903421D01*
X3696715Y3898493D01*
X3694785Y3893058D01*
X3694074Y3886708D01*
X3694074Y3707841D01*
X3694785Y3701542D01*
X3696715Y3696055D01*
X3699764Y3691178D01*
X3703878Y3687064D01*
X3708755Y3684015D01*
X3714242Y3682085D01*
G37*
G36*
X1028700Y7128967D02*
G01*
X1040688Y7130897D01*
X1054303Y7134910D01*
X1067308Y7140702D01*
X1079449Y7148068D01*
X1090574Y7156907D01*
X1100429Y7167118D01*
X1108913Y7178497D01*
X1115923Y7190892D01*
X1121257Y7204049D01*
X1124864Y7217816D01*
X1125931Y7226300D01*
X1028700Y7226300D01*
G37*
G36*
X2806700Y7128967D02*
G01*
X2818688Y7130897D01*
X2832303Y7134910D01*
X2845308Y7140702D01*
X2857449Y7148068D01*
X2868574Y7156907D01*
X2878429Y7167118D01*
X2886913Y7178497D01*
X2893923Y7190892D01*
X2899257Y7204049D01*
X2902864Y7217816D01*
X2903931Y7226300D01*
X2806700Y7226300D01*
G37*
G36*
X1003300Y7129068D02*
G01*
X1003300Y7226300D01*
X905916Y7226300D01*
X906018Y7224826D01*
X908761Y7210856D01*
X913231Y7197394D01*
X919378Y7184593D01*
X927150Y7172655D01*
X936345Y7161834D01*
X946861Y7152284D01*
X958494Y7144156D01*
X971092Y7137603D01*
X984453Y7132675D01*
X998321Y7129525D01*
G37*
G36*
X2781300Y7129068D02*
G01*
X2781300Y7226300D01*
X2683916Y7226300D01*
X2684018Y7224826D01*
X2686761Y7210856D01*
X2691231Y7197394D01*
X2697378Y7184593D01*
X2705150Y7172655D01*
X2714345Y7161834D01*
X2724861Y7152284D01*
X2736494Y7144156D01*
X2749092Y7137603D01*
X2762453Y7132675D01*
X2776321Y7129525D01*
G37*
G36*
X1028700Y7251700D02*
G01*
X1125931Y7251700D01*
X1124864Y7260183D01*
X1121257Y7273950D01*
X1115923Y7287107D01*
X1108913Y7299502D01*
X1100429Y7310881D01*
X1090574Y7321092D01*
X1079449Y7329931D01*
X1067308Y7337298D01*
X1054303Y7343038D01*
X1040688Y7347102D01*
X1028700Y7349032D01*
G37*
G36*
X905916Y7251700D02*
G01*
X1003300Y7251700D01*
X1003300Y7348931D01*
X998321Y7348474D01*
X984453Y7345324D01*
X971092Y7340396D01*
X958494Y7333843D01*
X946861Y7325715D01*
X936345Y7316165D01*
X927150Y7305344D01*
X919378Y7293406D01*
X913231Y7280605D01*
X908761Y7267143D01*
X906018Y7253173D01*
G37*
G36*
X1012444Y7382154D02*
G01*
X1026668Y7382611D01*
X1040688Y7384897D01*
X1054303Y7388910D01*
X1067308Y7394702D01*
X1079449Y7402068D01*
X1090574Y7410907D01*
X1100429Y7421118D01*
X1108913Y7432497D01*
X1115923Y7444892D01*
X1121257Y7458049D01*
X1124864Y7471816D01*
X1126642Y7485888D01*
X1126642Y7500112D01*
X1124864Y7514183D01*
X1121257Y7527950D01*
X1115923Y7541107D01*
X1108913Y7553502D01*
X1100429Y7564881D01*
X1090574Y7575092D01*
X1079449Y7583931D01*
X1067308Y7591298D01*
X1054303Y7597038D01*
X1040688Y7601102D01*
X1026668Y7603388D01*
X1012444Y7603845D01*
X998321Y7602474D01*
X984453Y7599324D01*
X971092Y7594396D01*
X958494Y7587843D01*
X946861Y7579715D01*
X936345Y7570165D01*
X927150Y7559344D01*
X919378Y7547406D01*
X913231Y7534605D01*
X908761Y7521143D01*
X906018Y7507173D01*
X905103Y7493000D01*
X906018Y7478826D01*
X908761Y7464856D01*
X913231Y7451394D01*
X919378Y7438593D01*
X927150Y7426655D01*
X936345Y7415834D01*
X946861Y7406284D01*
X958494Y7398156D01*
X971092Y7391603D01*
X984453Y7386675D01*
X998321Y7383525D01*
G37*
G36*
X7543800Y7529525D02*
G01*
X7558328Y7530439D01*
X7572603Y7533131D01*
X7586472Y7537653D01*
X7599629Y7543850D01*
X7611922Y7551623D01*
X7623149Y7560919D01*
X7633106Y7571536D01*
X7641640Y7583322D01*
X7648651Y7596073D01*
X7654036Y7609586D01*
X7657642Y7623708D01*
X7659471Y7638135D01*
X7659471Y7652664D01*
X7657642Y7667091D01*
X7654036Y7681214D01*
X7648651Y7694726D01*
X7641640Y7707477D01*
X7633106Y7719263D01*
X7623149Y7729880D01*
X7611922Y7739176D01*
X7599629Y7746949D01*
X7586472Y7753146D01*
X7572603Y7757668D01*
X7558328Y7760360D01*
X7543800Y7761274D01*
X7529271Y7760360D01*
X7514996Y7757668D01*
X7501128Y7753146D01*
X7487970Y7746949D01*
X7475677Y7739176D01*
X7464450Y7729880D01*
X7454493Y7719263D01*
X7445959Y7707477D01*
X7438948Y7694726D01*
X7433564Y7681214D01*
X7429957Y7667091D01*
X7428128Y7652664D01*
X7428128Y7638135D01*
X7429957Y7623708D01*
X7433564Y7609586D01*
X7438948Y7596073D01*
X7445959Y7583322D01*
X7454493Y7571536D01*
X7464450Y7560919D01*
X7475677Y7551623D01*
X7487970Y7543850D01*
X7501128Y7537653D01*
X7514996Y7533131D01*
X7529271Y7530439D01*
G37*
G36*
X4876800Y9815525D02*
G01*
X4891328Y9816439D01*
X4905603Y9819132D01*
X4919472Y9823653D01*
X4932629Y9829850D01*
X4944922Y9837623D01*
X4956149Y9846919D01*
X4966106Y9857536D01*
X4974640Y9869322D01*
X4981651Y9882073D01*
X4987036Y9895586D01*
X4990642Y9909708D01*
X4992471Y9924135D01*
X4992471Y9938664D01*
X4990642Y9953091D01*
X4987036Y9967214D01*
X4981651Y9980726D01*
X4974640Y9993477D01*
X4966106Y10005263D01*
X4956149Y10015880D01*
X4944922Y10025176D01*
X4932629Y10032949D01*
X4919472Y10039146D01*
X4905603Y10043668D01*
X4891328Y10046360D01*
X4876800Y10047274D01*
X4862271Y10046360D01*
X4847996Y10043668D01*
X4834128Y10039146D01*
X4820970Y10032949D01*
X4808677Y10025176D01*
X4797450Y10015880D01*
X4787493Y10005263D01*
X4778959Y9993477D01*
X4771948Y9980726D01*
X4766564Y9967214D01*
X4762957Y9953091D01*
X4761128Y9938664D01*
X4761128Y9924135D01*
X4762957Y9909708D01*
X4766564Y9895586D01*
X4771948Y9882073D01*
X4778959Y9869322D01*
X4787493Y9857536D01*
X4797450Y9846919D01*
X4808677Y9837623D01*
X4820970Y9829850D01*
X4834128Y9823653D01*
X4847996Y9819132D01*
X4862271Y9816439D01*
G37*
G36*
X905916Y9791700D02*
G01*
X1003300Y9791700D01*
X1003300Y9888931D01*
X998321Y9888474D01*
X984453Y9885324D01*
X971092Y9880396D01*
X958494Y9873843D01*
X946861Y9865715D01*
X936345Y9856165D01*
X927150Y9845344D01*
X919378Y9833406D01*
X913231Y9820605D01*
X908761Y9807143D01*
X906018Y9793173D01*
G37*
G36*
X1012444Y7636154D02*
G01*
X1026668Y7636611D01*
X1040688Y7638897D01*
X1054303Y7642910D01*
X1067308Y7648702D01*
X1079449Y7656068D01*
X1090574Y7664907D01*
X1100429Y7675118D01*
X1108913Y7686497D01*
X1115923Y7698892D01*
X1121257Y7712049D01*
X1124864Y7725816D01*
X1126642Y7739888D01*
X1126642Y7754112D01*
X1124864Y7768183D01*
X1121257Y7781950D01*
X1115923Y7795107D01*
X1108913Y7807502D01*
X1100429Y7818881D01*
X1090574Y7829092D01*
X1079449Y7837931D01*
X1067308Y7845298D01*
X1054303Y7851038D01*
X1040688Y7855102D01*
X1026668Y7857388D01*
X1012444Y7857845D01*
X998321Y7856474D01*
X984453Y7853324D01*
X971092Y7848396D01*
X958494Y7841843D01*
X946861Y7833715D01*
X936345Y7824165D01*
X927150Y7813344D01*
X919378Y7801406D01*
X913231Y7788605D01*
X908761Y7775143D01*
X906018Y7761173D01*
X905103Y7747000D01*
X906018Y7732826D01*
X908761Y7718856D01*
X913231Y7705394D01*
X919378Y7692593D01*
X927150Y7680655D01*
X936345Y7669834D01*
X946861Y7660284D01*
X958494Y7652156D01*
X971092Y7645603D01*
X984453Y7640675D01*
X998321Y7637525D01*
G37*
G36*
X7543800Y7783525D02*
G01*
X7558328Y7784439D01*
X7572603Y7787131D01*
X7586472Y7791653D01*
X7599629Y7797850D01*
X7611922Y7805623D01*
X7623149Y7814919D01*
X7633106Y7825536D01*
X7641640Y7837322D01*
X7648651Y7850073D01*
X7654036Y7863586D01*
X7657642Y7877708D01*
X7659471Y7892135D01*
X7659471Y7906664D01*
X7657642Y7921091D01*
X7654036Y7935214D01*
X7648651Y7948726D01*
X7641640Y7961477D01*
X7633106Y7973263D01*
X7623149Y7983880D01*
X7611922Y7993176D01*
X7599629Y8000949D01*
X7586472Y8007146D01*
X7572603Y8011668D01*
X7558328Y8014360D01*
X7543800Y8015274D01*
X7529271Y8014360D01*
X7514996Y8011668D01*
X7501128Y8007146D01*
X7487970Y8000949D01*
X7475677Y7993176D01*
X7464450Y7983880D01*
X7454493Y7973263D01*
X7445959Y7961477D01*
X7438948Y7948726D01*
X7433564Y7935214D01*
X7429957Y7921091D01*
X7428128Y7906664D01*
X7428128Y7892135D01*
X7429957Y7877708D01*
X7433564Y7863586D01*
X7438948Y7850073D01*
X7445959Y7837322D01*
X7454493Y7825536D01*
X7464450Y7814919D01*
X7475677Y7805623D01*
X7487970Y7797850D01*
X7501128Y7791653D01*
X7514996Y7787131D01*
X7529271Y7784439D01*
G37*
G36*
X2790444Y7890154D02*
G01*
X2804668Y7890611D01*
X2818688Y7892897D01*
X2832303Y7896910D01*
X2845308Y7902702D01*
X2857449Y7910068D01*
X2868574Y7918907D01*
X2878429Y7929118D01*
X2886913Y7940497D01*
X2893923Y7952892D01*
X2899257Y7966049D01*
X2902864Y7979816D01*
X2904642Y7993888D01*
X2904642Y8008112D01*
X2902864Y8022183D01*
X2899257Y8035950D01*
X2893923Y8049107D01*
X2886913Y8061502D01*
X2878429Y8072881D01*
X2868574Y8083092D01*
X2857449Y8091931D01*
X2845308Y8099298D01*
X2832303Y8105038D01*
X2818688Y8109102D01*
X2804668Y8111388D01*
X2790444Y8111845D01*
X2776321Y8110474D01*
X2762453Y8107324D01*
X2749092Y8102396D01*
X2736494Y8095843D01*
X2724861Y8087715D01*
X2714345Y8078165D01*
X2705150Y8067344D01*
X2697378Y8055406D01*
X2691231Y8042605D01*
X2686761Y8029143D01*
X2684018Y8015173D01*
X2683103Y8001000D01*
X2684018Y7986826D01*
X2686761Y7972856D01*
X2691231Y7959394D01*
X2697378Y7946593D01*
X2705150Y7934655D01*
X2714345Y7923834D01*
X2724861Y7914284D01*
X2736494Y7906156D01*
X2749092Y7899603D01*
X2762453Y7894675D01*
X2776321Y7891525D01*
G37*
G36*
X4876800Y8037525D02*
G01*
X4891328Y8038439D01*
X4905603Y8041131D01*
X4919472Y8045653D01*
X4932629Y8051850D01*
X4944922Y8059623D01*
X4956149Y8068919D01*
X4966106Y8079536D01*
X4974640Y8091322D01*
X4981651Y8104073D01*
X4987036Y8117586D01*
X4990642Y8131708D01*
X4992471Y8146135D01*
X4992471Y8160664D01*
X4990642Y8175091D01*
X4987036Y8189214D01*
X4981651Y8202726D01*
X4974640Y8215477D01*
X4966106Y8227263D01*
X4956149Y8237880D01*
X4944922Y8247176D01*
X4932629Y8254949D01*
X4919472Y8261146D01*
X4905603Y8265668D01*
X4891328Y8268360D01*
X4876800Y8269274D01*
X4862271Y8268360D01*
X4847996Y8265668D01*
X4834128Y8261146D01*
X4820970Y8254949D01*
X4808677Y8247176D01*
X4797450Y8237880D01*
X4787493Y8227263D01*
X4778959Y8215477D01*
X4771948Y8202726D01*
X4766564Y8189214D01*
X4762957Y8175091D01*
X4761128Y8160664D01*
X4761128Y8146135D01*
X4762957Y8131708D01*
X4766564Y8117586D01*
X4771948Y8104073D01*
X4778959Y8091322D01*
X4787493Y8079536D01*
X4797450Y8068919D01*
X4808677Y8059623D01*
X4820970Y8051850D01*
X4834128Y8045653D01*
X4847996Y8041131D01*
X4862271Y8038439D01*
G37*
G36*
X5753100Y8038287D02*
G01*
X5753100Y8140700D01*
X5650839Y8140700D01*
X5651957Y8131708D01*
X5655564Y8117586D01*
X5660948Y8104073D01*
X5667959Y8091322D01*
X5676493Y8079536D01*
X5686450Y8068919D01*
X5697677Y8059623D01*
X5709970Y8051850D01*
X5723128Y8045653D01*
X5736996Y8041131D01*
X5751271Y8038439D01*
G37*
G36*
X5778500Y8038287D02*
G01*
X5780328Y8038439D01*
X5794603Y8041131D01*
X5808472Y8045653D01*
X5821629Y8051850D01*
X5833922Y8059623D01*
X5845149Y8068919D01*
X5855106Y8079536D01*
X5863640Y8091322D01*
X5870651Y8104073D01*
X5876036Y8117586D01*
X5879642Y8131708D01*
X5880760Y8140700D01*
X5778500Y8140700D01*
G37*
G36*
X7556500Y8038287D02*
G01*
X7558328Y8038439D01*
X7572603Y8041131D01*
X7586472Y8045653D01*
X7599629Y8051850D01*
X7611922Y8059623D01*
X7623149Y8068919D01*
X7633106Y8079536D01*
X7641640Y8091322D01*
X7648651Y8104073D01*
X7654036Y8117586D01*
X7657642Y8131708D01*
X7658760Y8140700D01*
X7556500Y8140700D01*
G37*
G36*
X7531100Y8038287D02*
G01*
X7531100Y8140700D01*
X7428839Y8140700D01*
X7429957Y8131708D01*
X7433564Y8117586D01*
X7438948Y8104073D01*
X7445959Y8091322D01*
X7454493Y8079536D01*
X7464450Y8068919D01*
X7475677Y8059623D01*
X7487970Y8051850D01*
X7501128Y8045653D01*
X7514996Y8041131D01*
X7529271Y8038439D01*
G37*
G36*
X1012444Y8144154D02*
G01*
X1026668Y8144611D01*
X1040688Y8146897D01*
X1054303Y8150910D01*
X1067308Y8156702D01*
X1079449Y8164068D01*
X1090574Y8172907D01*
X1100429Y8183118D01*
X1108913Y8194497D01*
X1115923Y8206892D01*
X1121257Y8220049D01*
X1124864Y8233816D01*
X1126642Y8247888D01*
X1126642Y8262112D01*
X1124864Y8276183D01*
X1121257Y8289950D01*
X1119225Y8294878D01*
X1118514Y8298738D01*
X1119276Y8302599D01*
X1121460Y8305850D01*
X1156004Y8340394D01*
X1159306Y8342630D01*
X1163218Y8343392D01*
X2701950Y8343392D01*
X2705709Y8342680D01*
X2708910Y8340598D01*
X2711145Y8337499D01*
X2712059Y8333790D01*
X2711551Y8329980D01*
X2709672Y8326628D01*
X2705150Y8321344D01*
X2697378Y8309406D01*
X2691231Y8296605D01*
X2686761Y8283143D01*
X2684018Y8269173D01*
X2683103Y8255000D01*
X2684018Y8240826D01*
X2686761Y8226856D01*
X2691231Y8213394D01*
X2697378Y8200593D01*
X2705150Y8188655D01*
X2714345Y8177834D01*
X2724861Y8168284D01*
X2736494Y8160156D01*
X2749092Y8153603D01*
X2762453Y8148675D01*
X2776321Y8145525D01*
X2790444Y8144154D01*
X2804668Y8144611D01*
X2818688Y8146897D01*
X2832303Y8150910D01*
X2845308Y8156702D01*
X2857449Y8164068D01*
X2868574Y8172907D01*
X2878429Y8183118D01*
X2886913Y8194497D01*
X2893923Y8206892D01*
X2899257Y8220049D01*
X2902864Y8233816D01*
X2904642Y8247888D01*
X2904642Y8262112D01*
X2902864Y8276183D01*
X2899257Y8289950D01*
X2893923Y8303107D01*
X2886913Y8315502D01*
X2878226Y8327136D01*
X2876397Y8331250D01*
X2876499Y8335670D01*
X2878531Y8339683D01*
X2882036Y8342426D01*
X2886354Y8343392D01*
X3663391Y8343392D01*
X3667302Y8342630D01*
X3670604Y8340394D01*
X3672179Y8338820D01*
X3680206Y8333181D01*
X3689146Y8329066D01*
X3698595Y8326526D01*
X3708400Y8325662D01*
X3718204Y8326526D01*
X3727653Y8329066D01*
X3736594Y8333181D01*
X3744620Y8338820D01*
X3751579Y8345779D01*
X3757218Y8353806D01*
X3761333Y8362746D01*
X3763873Y8372195D01*
X3764737Y8382000D01*
X3763873Y8391804D01*
X3761333Y8401253D01*
X3757218Y8410194D01*
X3751579Y8418220D01*
X3744620Y8425180D01*
X3736594Y8430818D01*
X3727653Y8434933D01*
X3718204Y8437473D01*
X3708400Y8438337D01*
X3698595Y8437473D01*
X3689146Y8434933D01*
X3680206Y8430818D01*
X3672179Y8425180D01*
X3670604Y8423605D01*
X3667302Y8421370D01*
X3663391Y8420608D01*
X2886354Y8420608D01*
X2882036Y8421573D01*
X2878531Y8424316D01*
X2876499Y8428329D01*
X2876397Y8432749D01*
X2878226Y8436864D01*
X2886913Y8448497D01*
X2893923Y8460892D01*
X2899257Y8474049D01*
X2902864Y8487816D01*
X2903931Y8496300D01*
X2806700Y8496300D01*
X2806700Y8430768D01*
X2805938Y8426856D01*
X2803702Y8423605D01*
X2800451Y8421370D01*
X2796540Y8420608D01*
X2791460Y8420608D01*
X2787548Y8421370D01*
X2784297Y8423605D01*
X2782062Y8426856D01*
X2781300Y8430768D01*
X2781300Y8496300D01*
X2683916Y8496300D01*
X2684018Y8494826D01*
X2686761Y8480856D01*
X2691231Y8467394D01*
X2697378Y8454593D01*
X2705150Y8442655D01*
X2709672Y8437372D01*
X2711551Y8434019D01*
X2712059Y8430209D01*
X2711145Y8426500D01*
X2708910Y8423402D01*
X2705709Y8421319D01*
X2701950Y8420608D01*
X1143508Y8420608D01*
X1135481Y8419795D01*
X1128268Y8417610D01*
X1121562Y8414054D01*
X1115364Y8408924D01*
X1066952Y8360562D01*
X1063599Y8358327D01*
X1059637Y8357565D01*
X1040688Y8363102D01*
X1026668Y8365388D01*
X1012444Y8365845D01*
X998321Y8364474D01*
X984453Y8361324D01*
X971092Y8356396D01*
X958494Y8349843D01*
X946861Y8341715D01*
X936345Y8332165D01*
X927150Y8321344D01*
X919378Y8309406D01*
X913231Y8296605D01*
X908761Y8283143D01*
X906018Y8269173D01*
X905103Y8255000D01*
X906018Y8240826D01*
X908761Y8226856D01*
X913231Y8213394D01*
X919378Y8200593D01*
X927150Y8188655D01*
X936345Y8177834D01*
X946861Y8168284D01*
X958494Y8160156D01*
X971092Y8153603D01*
X984453Y8148675D01*
X998321Y8145525D01*
G37*
G36*
X5778500Y8166100D02*
G01*
X5880760Y8166100D01*
X5879642Y8175091D01*
X5876036Y8189214D01*
X5870651Y8202726D01*
X5863640Y8215477D01*
X5855106Y8227263D01*
X5845149Y8237880D01*
X5833922Y8247176D01*
X5821629Y8254949D01*
X5808472Y8261146D01*
X5794603Y8265668D01*
X5780328Y8268360D01*
X5778500Y8268512D01*
G37*
G36*
X5650839Y8166100D02*
G01*
X5753100Y8166100D01*
X5753100Y8268512D01*
X5751271Y8268360D01*
X5736996Y8265668D01*
X5723128Y8261146D01*
X5709970Y8254949D01*
X5697677Y8247176D01*
X5686450Y8237880D01*
X5676493Y8227263D01*
X5667959Y8215477D01*
X5660948Y8202726D01*
X5655564Y8189214D01*
X5651957Y8175091D01*
G37*
G36*
X7556500Y8166100D02*
G01*
X7658760Y8166100D01*
X7657642Y8175091D01*
X7654036Y8189214D01*
X7648651Y8202726D01*
X7641640Y8215477D01*
X7633106Y8227263D01*
X7623149Y8237880D01*
X7611922Y8247176D01*
X7599629Y8254949D01*
X7586472Y8261146D01*
X7572603Y8265668D01*
X7558328Y8268360D01*
X7556500Y8268512D01*
G37*
G36*
X7428839Y8166100D02*
G01*
X7531100Y8166100D01*
X7531100Y8268512D01*
X7529271Y8268360D01*
X7514996Y8265668D01*
X7501128Y8261146D01*
X7487970Y8254949D01*
X7475677Y8247176D01*
X7464450Y8237880D01*
X7454493Y8227263D01*
X7445959Y8215477D01*
X7438948Y8202726D01*
X7433564Y8189214D01*
X7429957Y8175091D01*
G37*
G36*
X4876800Y8291525D02*
G01*
X4891328Y8292439D01*
X4905603Y8295131D01*
X4919472Y8299653D01*
X4932629Y8305850D01*
X4944922Y8313623D01*
X4956149Y8322919D01*
X4966106Y8333536D01*
X4974640Y8345322D01*
X4981651Y8358073D01*
X4987036Y8371586D01*
X4990642Y8385708D01*
X4992471Y8400135D01*
X4992471Y8414664D01*
X4990642Y8429091D01*
X4987036Y8443214D01*
X4981651Y8456726D01*
X4974640Y8469477D01*
X4966106Y8481263D01*
X4956149Y8491880D01*
X4944922Y8501176D01*
X4932629Y8508949D01*
X4919472Y8515146D01*
X4905603Y8519668D01*
X4891328Y8522360D01*
X4876800Y8523274D01*
X4862271Y8522360D01*
X4847996Y8519668D01*
X4834128Y8515146D01*
X4820970Y8508949D01*
X4808677Y8501176D01*
X4797450Y8491880D01*
X4787493Y8481263D01*
X4778959Y8469477D01*
X4771948Y8456726D01*
X4766564Y8443214D01*
X4762957Y8429091D01*
X4761128Y8414664D01*
X4761128Y8400135D01*
X4762957Y8385708D01*
X4766564Y8371586D01*
X4771948Y8358073D01*
X4778959Y8345322D01*
X4787493Y8333536D01*
X4797450Y8322919D01*
X4808677Y8313623D01*
X4820970Y8305850D01*
X4834128Y8299653D01*
X4847996Y8295131D01*
X4862271Y8292439D01*
G37*
G36*
X7543800Y8291525D02*
G01*
X7558328Y8292439D01*
X7572603Y8295131D01*
X7586472Y8299653D01*
X7599629Y8305850D01*
X7611922Y8313623D01*
X7623149Y8322919D01*
X7633106Y8333536D01*
X7641640Y8345322D01*
X7648651Y8358073D01*
X7654036Y8371586D01*
X7657642Y8385708D01*
X7659471Y8400135D01*
X7659471Y8414664D01*
X7657642Y8429091D01*
X7654036Y8443214D01*
X7648651Y8456726D01*
X7641640Y8469477D01*
X7633106Y8481263D01*
X7623149Y8491880D01*
X7611922Y8501176D01*
X7599629Y8508949D01*
X7586472Y8515146D01*
X7572603Y8519668D01*
X7558328Y8522360D01*
X7543800Y8523274D01*
X7529271Y8522360D01*
X7514996Y8519668D01*
X7501128Y8515146D01*
X7487970Y8508949D01*
X7475677Y8501176D01*
X7464450Y8491880D01*
X7454493Y8481263D01*
X7445959Y8469477D01*
X7438948Y8456726D01*
X7433564Y8443214D01*
X7429957Y8429091D01*
X7428128Y8414664D01*
X7428128Y8400135D01*
X7429957Y8385708D01*
X7433564Y8371586D01*
X7438948Y8358073D01*
X7445959Y8345322D01*
X7454493Y8333536D01*
X7464450Y8322919D01*
X7475677Y8313623D01*
X7487970Y8305850D01*
X7501128Y8299653D01*
X7514996Y8295131D01*
X7529271Y8292439D01*
G37*
G36*
X5765800Y8291525D02*
G01*
X5780328Y8292439D01*
X5794603Y8295131D01*
X5808472Y8299653D01*
X5821629Y8305850D01*
X5833922Y8313623D01*
X5845149Y8322919D01*
X5855106Y8333536D01*
X5863640Y8345322D01*
X5870651Y8358073D01*
X5876036Y8371586D01*
X5879642Y8385708D01*
X5881471Y8400135D01*
X5881471Y8414664D01*
X5879642Y8429091D01*
X5876036Y8443214D01*
X5870651Y8456726D01*
X5863640Y8469477D01*
X5855106Y8481263D01*
X5845149Y8491880D01*
X5833922Y8501176D01*
X5821629Y8508949D01*
X5808472Y8515146D01*
X5794603Y8519668D01*
X5780328Y8522360D01*
X5765800Y8523274D01*
X5751271Y8522360D01*
X5736996Y8519668D01*
X5723128Y8515146D01*
X5709970Y8508949D01*
X5697677Y8501176D01*
X5686450Y8491880D01*
X5676493Y8481263D01*
X5667959Y8469477D01*
X5660948Y8456726D01*
X5655564Y8443214D01*
X5651957Y8429091D01*
X5650128Y8414664D01*
X5650128Y8400135D01*
X5651957Y8385708D01*
X5655564Y8371586D01*
X5660948Y8358073D01*
X5667959Y8345322D01*
X5676493Y8333536D01*
X5686450Y8322919D01*
X5697677Y8313623D01*
X5709970Y8305850D01*
X5723128Y8299653D01*
X5736996Y8295131D01*
X5751271Y8292439D01*
G37*
G36*
X1028700Y8398967D02*
G01*
X1040688Y8400897D01*
X1054303Y8404910D01*
X1067308Y8410702D01*
X1079449Y8418068D01*
X1090574Y8426907D01*
X1100429Y8437118D01*
X1108913Y8448497D01*
X1115923Y8460892D01*
X1121257Y8474049D01*
X1124864Y8487816D01*
X1125931Y8496300D01*
X1028700Y8496300D01*
G37*
G36*
X1003300Y8399068D02*
G01*
X1003300Y8496300D01*
X905916Y8496300D01*
X906018Y8494826D01*
X908761Y8480856D01*
X913231Y8467394D01*
X919378Y8454593D01*
X927150Y8442655D01*
X936345Y8431834D01*
X946861Y8422284D01*
X958494Y8414156D01*
X971092Y8407603D01*
X984453Y8402675D01*
X998321Y8399526D01*
G37*
G36*
X1028700Y8521700D02*
G01*
X1125931Y8521700D01*
X1124864Y8530183D01*
X1121257Y8543950D01*
X1115923Y8557107D01*
X1108913Y8569502D01*
X1100429Y8580882D01*
X1090574Y8591092D01*
X1079449Y8599932D01*
X1067308Y8607298D01*
X1054303Y8613038D01*
X1040688Y8617102D01*
X1028700Y8619032D01*
G37*
G36*
X2806700Y8521700D02*
G01*
X2903931Y8521700D01*
X2902864Y8530183D01*
X2899257Y8543950D01*
X2893923Y8557107D01*
X2886913Y8569502D01*
X2878429Y8580882D01*
X2868574Y8591092D01*
X2857449Y8599932D01*
X2845308Y8607298D01*
X2832303Y8613038D01*
X2818688Y8617102D01*
X2806700Y8619032D01*
G37*
G36*
X2683916Y8521700D02*
G01*
X2781300Y8521700D01*
X2781300Y8618931D01*
X2776321Y8618474D01*
X2762453Y8615324D01*
X2749092Y8610396D01*
X2736494Y8603843D01*
X2724861Y8595715D01*
X2714345Y8586165D01*
X2705150Y8575344D01*
X2697378Y8563406D01*
X2691231Y8550605D01*
X2686761Y8537143D01*
X2684018Y8523173D01*
G37*
G36*
X905916Y8521700D02*
G01*
X1003300Y8521700D01*
X1003300Y8618931D01*
X998321Y8618474D01*
X984453Y8615324D01*
X971092Y8610396D01*
X958494Y8603843D01*
X946861Y8595715D01*
X936345Y8586165D01*
X927150Y8575344D01*
X919378Y8563406D01*
X913231Y8550605D01*
X908761Y8537143D01*
X906018Y8523173D01*
G37*
G36*
X7543800Y8545525D02*
G01*
X7558328Y8546439D01*
X7572603Y8549132D01*
X7586472Y8553653D01*
X7599629Y8559850D01*
X7611922Y8567623D01*
X7623149Y8576919D01*
X7633106Y8587536D01*
X7641640Y8599322D01*
X7648651Y8612073D01*
X7654036Y8625586D01*
X7657642Y8639708D01*
X7659471Y8654135D01*
X7659471Y8668664D01*
X7657642Y8683091D01*
X7654036Y8697214D01*
X7648651Y8710726D01*
X7641640Y8723477D01*
X7633106Y8735263D01*
X7623149Y8745880D01*
X7611922Y8755176D01*
X7599629Y8762949D01*
X7586472Y8769146D01*
X7572603Y8773668D01*
X7558328Y8776360D01*
X7543800Y8777274D01*
X7529271Y8776360D01*
X7514996Y8773668D01*
X7501128Y8769146D01*
X7487970Y8762949D01*
X7475677Y8755176D01*
X7464450Y8745880D01*
X7454493Y8735263D01*
X7445959Y8723477D01*
X7438948Y8710726D01*
X7433564Y8697214D01*
X7429957Y8683091D01*
X7428128Y8668664D01*
X7428128Y8654135D01*
X7429957Y8639708D01*
X7433564Y8625586D01*
X7438948Y8612073D01*
X7445959Y8599322D01*
X7454493Y8587536D01*
X7464450Y8576919D01*
X7475677Y8567623D01*
X7487970Y8559850D01*
X7501128Y8553653D01*
X7514996Y8549132D01*
X7529271Y8546439D01*
G37*
G36*
X5765800Y8545525D02*
G01*
X5780328Y8546439D01*
X5794603Y8549132D01*
X5808472Y8553653D01*
X5821629Y8559850D01*
X5833922Y8567623D01*
X5845149Y8576919D01*
X5855106Y8587536D01*
X5863640Y8599322D01*
X5870651Y8612073D01*
X5876036Y8625586D01*
X5879642Y8639708D01*
X5881471Y8654135D01*
X5881471Y8668664D01*
X5879642Y8683091D01*
X5876036Y8697214D01*
X5870651Y8710726D01*
X5863640Y8723477D01*
X5855106Y8735263D01*
X5845149Y8745880D01*
X5833922Y8755176D01*
X5821629Y8762949D01*
X5808472Y8769146D01*
X5794603Y8773668D01*
X5780328Y8776360D01*
X5765800Y8777274D01*
X5751271Y8776360D01*
X5736996Y8773668D01*
X5723128Y8769146D01*
X5709970Y8762949D01*
X5697677Y8755176D01*
X5686450Y8745880D01*
X5676493Y8735263D01*
X5667959Y8723477D01*
X5660948Y8710726D01*
X5655564Y8697214D01*
X5651957Y8683091D01*
X5650128Y8668664D01*
X5650128Y8654135D01*
X5651957Y8639708D01*
X5655564Y8625586D01*
X5660948Y8612073D01*
X5667959Y8599322D01*
X5676493Y8587536D01*
X5686450Y8576919D01*
X5697677Y8567623D01*
X5709970Y8559850D01*
X5723128Y8553653D01*
X5736996Y8549132D01*
X5751271Y8546439D01*
G37*
G36*
X4876800Y8545525D02*
G01*
X4891328Y8546439D01*
X4905603Y8549132D01*
X4919472Y8553653D01*
X4932629Y8559850D01*
X4944922Y8567623D01*
X4956149Y8576919D01*
X4966106Y8587536D01*
X4974640Y8599322D01*
X4981651Y8612073D01*
X4987036Y8625586D01*
X4990642Y8639708D01*
X4992471Y8654135D01*
X4992471Y8668664D01*
X4990642Y8683091D01*
X4987036Y8697214D01*
X4981651Y8710726D01*
X4974640Y8723477D01*
X4967274Y8733637D01*
X4965496Y8737752D01*
X4965649Y8742172D01*
X4967630Y8746083D01*
X4971135Y8748826D01*
X4975504Y8749792D01*
X5428691Y8749792D01*
X5432602Y8749030D01*
X5435904Y8746794D01*
X5437479Y8745220D01*
X5445506Y8739581D01*
X5454446Y8735466D01*
X5463895Y8732926D01*
X5473700Y8732062D01*
X5483504Y8732926D01*
X5492953Y8735466D01*
X5501894Y8739581D01*
X5509920Y8745220D01*
X5516880Y8752179D01*
X5522518Y8760206D01*
X5526633Y8769146D01*
X5529173Y8778595D01*
X5530037Y8788400D01*
X5529173Y8798204D01*
X5526633Y8807653D01*
X5522518Y8816594D01*
X5516880Y8824620D01*
X5509920Y8831580D01*
X5501894Y8837218D01*
X5492953Y8841333D01*
X5483504Y8843873D01*
X5473700Y8844737D01*
X5463895Y8843873D01*
X5454446Y8841333D01*
X5445506Y8837218D01*
X5437479Y8831580D01*
X5435904Y8830005D01*
X5432602Y8827770D01*
X5428691Y8827008D01*
X4975504Y8827008D01*
X4971135Y8827973D01*
X4967630Y8830716D01*
X4965649Y8834628D01*
X4965496Y8839047D01*
X4967274Y8843162D01*
X4974640Y8853322D01*
X4981651Y8866073D01*
X4987036Y8879586D01*
X4990642Y8893708D01*
X4992471Y8908135D01*
X4992471Y8922664D01*
X4990642Y8937091D01*
X4987036Y8951214D01*
X4981651Y8964726D01*
X4974640Y8977477D01*
X4966106Y8989263D01*
X4956149Y8999880D01*
X4944922Y9009176D01*
X4932629Y9016949D01*
X4919472Y9023146D01*
X4905603Y9027668D01*
X4891328Y9030360D01*
X4876800Y9031274D01*
X4862271Y9030360D01*
X4847996Y9027668D01*
X4834128Y9023146D01*
X4820970Y9016949D01*
X4808677Y9009176D01*
X4797450Y8999880D01*
X4787493Y8989263D01*
X4778959Y8977477D01*
X4771948Y8964726D01*
X4766564Y8951214D01*
X4762957Y8937091D01*
X4761128Y8922664D01*
X4761128Y8908135D01*
X4762957Y8893708D01*
X4766564Y8879586D01*
X4771948Y8866073D01*
X4778959Y8853322D01*
X4786325Y8843162D01*
X4788103Y8839047D01*
X4787950Y8834628D01*
X4785969Y8830716D01*
X4782464Y8827973D01*
X4778095Y8827008D01*
X3449218Y8827008D01*
X3445306Y8827770D01*
X3442004Y8830005D01*
X3355035Y8916924D01*
X3348837Y8922054D01*
X3342132Y8925610D01*
X3334918Y8927795D01*
X3326892Y8928608D01*
X2886354Y8928608D01*
X2882036Y8929573D01*
X2878531Y8932316D01*
X2876499Y8936329D01*
X2876397Y8940749D01*
X2878226Y8944864D01*
X2886913Y8956497D01*
X2893923Y8968892D01*
X2899257Y8982049D01*
X2902864Y8995816D01*
X2904642Y9009888D01*
X2904642Y9024112D01*
X2902864Y9038183D01*
X2899257Y9051950D01*
X2893923Y9065107D01*
X2886913Y9077502D01*
X2878429Y9088882D01*
X2868574Y9099092D01*
X2857449Y9107932D01*
X2845308Y9115298D01*
X2832303Y9121038D01*
X2818688Y9125102D01*
X2804668Y9127388D01*
X2790444Y9127845D01*
X2776321Y9126474D01*
X2762453Y9123324D01*
X2749092Y9118396D01*
X2736494Y9111843D01*
X2724861Y9103715D01*
X2714345Y9094165D01*
X2705150Y9083344D01*
X2697378Y9071406D01*
X2691231Y9058605D01*
X2686761Y9045143D01*
X2684018Y9031173D01*
X2683103Y9017000D01*
X2684018Y9002826D01*
X2686761Y8988856D01*
X2691231Y8975394D01*
X2697378Y8962593D01*
X2705150Y8950655D01*
X2709672Y8945372D01*
X2711551Y8942019D01*
X2712059Y8938209D01*
X2711145Y8934500D01*
X2708910Y8931402D01*
X2705709Y8929319D01*
X2701950Y8928608D01*
X1143508Y8928608D01*
X1135481Y8927795D01*
X1128268Y8925610D01*
X1121562Y8922054D01*
X1115364Y8916924D01*
X1066952Y8868562D01*
X1063599Y8866327D01*
X1059637Y8865565D01*
X1040688Y8871102D01*
X1026668Y8873388D01*
X1012444Y8873845D01*
X998321Y8872474D01*
X984453Y8869324D01*
X971092Y8864396D01*
X958494Y8857843D01*
X946861Y8849715D01*
X936345Y8840165D01*
X927150Y8829344D01*
X919378Y8817406D01*
X913231Y8804605D01*
X908761Y8791143D01*
X906018Y8777173D01*
X905103Y8763000D01*
X906018Y8748826D01*
X908761Y8734856D01*
X913231Y8721394D01*
X919378Y8708593D01*
X927150Y8696655D01*
X936345Y8685834D01*
X946861Y8676284D01*
X958494Y8668156D01*
X971092Y8661603D01*
X984453Y8656675D01*
X998321Y8653526D01*
X1012444Y8652154D01*
X1026668Y8652611D01*
X1040688Y8654897D01*
X1054303Y8658910D01*
X1067308Y8664702D01*
X1079449Y8672068D01*
X1090574Y8680907D01*
X1100429Y8691118D01*
X1108913Y8702497D01*
X1115923Y8714892D01*
X1121257Y8728049D01*
X1124864Y8741816D01*
X1126642Y8755888D01*
X1126642Y8770112D01*
X1124864Y8784183D01*
X1121257Y8797950D01*
X1119225Y8802878D01*
X1118514Y8806738D01*
X1119276Y8810599D01*
X1121460Y8813850D01*
X1156004Y8848394D01*
X1159306Y8850630D01*
X1163218Y8851392D01*
X2701950Y8851392D01*
X2705709Y8850680D01*
X2708910Y8848598D01*
X2711145Y8845499D01*
X2712059Y8841790D01*
X2711551Y8837980D01*
X2709672Y8834628D01*
X2705150Y8829344D01*
X2697378Y8817406D01*
X2691231Y8804605D01*
X2686761Y8791143D01*
X2684018Y8777173D01*
X2683103Y8763000D01*
X2684018Y8748826D01*
X2686761Y8734856D01*
X2691231Y8721394D01*
X2697378Y8708593D01*
X2705150Y8696655D01*
X2714345Y8685834D01*
X2724861Y8676284D01*
X2736494Y8668156D01*
X2749092Y8661603D01*
X2762453Y8656675D01*
X2776321Y8653526D01*
X2790444Y8652154D01*
X2804668Y8652611D01*
X2818688Y8654897D01*
X2832303Y8658910D01*
X2845308Y8664702D01*
X2857449Y8672068D01*
X2868574Y8680907D01*
X2878429Y8691118D01*
X2886913Y8702497D01*
X2893923Y8714892D01*
X2899257Y8728049D01*
X2902864Y8741816D01*
X2904642Y8755888D01*
X2904642Y8770112D01*
X2902864Y8784183D01*
X2899257Y8797950D01*
X2893923Y8811107D01*
X2886913Y8823502D01*
X2878226Y8835136D01*
X2876397Y8839250D01*
X2876499Y8843670D01*
X2878531Y8847683D01*
X2882036Y8850426D01*
X2886354Y8851392D01*
X3307181Y8851392D01*
X3311093Y8850630D01*
X3314395Y8848394D01*
X3401364Y8761476D01*
X3407562Y8756345D01*
X3414268Y8752789D01*
X3421481Y8750604D01*
X3429508Y8749792D01*
X4778095Y8749792D01*
X4782464Y8748826D01*
X4785969Y8746083D01*
X4787950Y8742172D01*
X4788103Y8737752D01*
X4786325Y8733637D01*
X4778959Y8723477D01*
X4771948Y8710726D01*
X4766564Y8697214D01*
X4762957Y8683091D01*
X4761128Y8668664D01*
X4761128Y8654135D01*
X4762957Y8639708D01*
X4766564Y8625586D01*
X4771948Y8612073D01*
X4778959Y8599322D01*
X4787493Y8587536D01*
X4797450Y8576919D01*
X4808677Y8567623D01*
X4820970Y8559850D01*
X4834128Y8553653D01*
X4847996Y8549132D01*
X4862271Y8546439D01*
G37*
G36*
X7543800Y8799525D02*
G01*
X7558328Y8800439D01*
X7572603Y8803132D01*
X7586472Y8807653D01*
X7599629Y8813850D01*
X7611922Y8821623D01*
X7623149Y8830919D01*
X7633106Y8841536D01*
X7641640Y8853322D01*
X7648651Y8866073D01*
X7654036Y8879586D01*
X7657642Y8893708D01*
X7659471Y8908135D01*
X7659471Y8922664D01*
X7657642Y8937091D01*
X7654036Y8951214D01*
X7648651Y8964726D01*
X7641640Y8977477D01*
X7633106Y8989263D01*
X7623149Y8999880D01*
X7611922Y9009176D01*
X7599629Y9016949D01*
X7586472Y9023146D01*
X7572603Y9027668D01*
X7558328Y9030360D01*
X7543800Y9031274D01*
X7529271Y9030360D01*
X7514996Y9027668D01*
X7501128Y9023146D01*
X7487970Y9016949D01*
X7475677Y9009176D01*
X7464450Y8999880D01*
X7454493Y8989263D01*
X7445959Y8977477D01*
X7438948Y8964726D01*
X7433564Y8951214D01*
X7429957Y8937091D01*
X7428128Y8922664D01*
X7428128Y8908135D01*
X7429957Y8893708D01*
X7433564Y8879586D01*
X7438948Y8866073D01*
X7445959Y8853322D01*
X7454493Y8841536D01*
X7464450Y8830919D01*
X7475677Y8821623D01*
X7487970Y8813850D01*
X7501128Y8807653D01*
X7514996Y8803132D01*
X7529271Y8800439D01*
G37*
G36*
X5765800Y8799525D02*
G01*
X5780328Y8800439D01*
X5794603Y8803132D01*
X5808472Y8807653D01*
X5821629Y8813850D01*
X5833922Y8821623D01*
X5845149Y8830919D01*
X5855106Y8841536D01*
X5863640Y8853322D01*
X5870651Y8866073D01*
X5876036Y8879586D01*
X5879642Y8893708D01*
X5881471Y8908135D01*
X5881471Y8922664D01*
X5879642Y8937091D01*
X5876036Y8951214D01*
X5870651Y8964726D01*
X5863640Y8977477D01*
X5855106Y8989263D01*
X5845149Y8999880D01*
X5833922Y9009176D01*
X5821629Y9016949D01*
X5808472Y9023146D01*
X5794603Y9027668D01*
X5780328Y9030360D01*
X5765800Y9031274D01*
X5751271Y9030360D01*
X5736996Y9027668D01*
X5723128Y9023146D01*
X5709970Y9016949D01*
X5697677Y9009176D01*
X5686450Y8999880D01*
X5676493Y8989263D01*
X5667959Y8977477D01*
X5660948Y8964726D01*
X5655564Y8951214D01*
X5651957Y8937091D01*
X5650128Y8922664D01*
X5650128Y8908135D01*
X5651957Y8893708D01*
X5655564Y8879586D01*
X5660948Y8866073D01*
X5667959Y8853322D01*
X5676493Y8841536D01*
X5686450Y8830919D01*
X5697677Y8821623D01*
X5709970Y8813850D01*
X5723128Y8807653D01*
X5736996Y8803132D01*
X5751271Y8800439D01*
G37*
G36*
X3683000Y8859062D02*
G01*
X3692804Y8859926D01*
X3702253Y8862466D01*
X3711194Y8866581D01*
X3719220Y8872220D01*
X3726179Y8879179D01*
X3731818Y8887206D01*
X3735933Y8896146D01*
X3738473Y8905595D01*
X3739337Y8915400D01*
X3738473Y8925204D01*
X3735933Y8934653D01*
X3731818Y8943594D01*
X3726179Y8951620D01*
X3724605Y8953195D01*
X3722370Y8956497D01*
X3721608Y8960408D01*
X3721608Y9987991D01*
X3722370Y9991902D01*
X3724605Y9995204D01*
X3726179Y9996779D01*
X3731818Y10004806D01*
X3735933Y10013746D01*
X3738473Y10023195D01*
X3739337Y10033000D01*
X3738473Y10042804D01*
X3735933Y10052253D01*
X3731818Y10061194D01*
X3726179Y10069220D01*
X3719220Y10076180D01*
X3717290Y10077500D01*
X3714394Y10080599D01*
X3713022Y10084663D01*
X3713429Y10088880D01*
X3715562Y10092588D01*
X3718966Y10095077D01*
X3723132Y10095992D01*
X3795268Y10095992D01*
X3799433Y10095077D01*
X3802837Y10092588D01*
X3804970Y10088880D01*
X3805377Y10084663D01*
X3804005Y10080599D01*
X3801110Y10077500D01*
X3799179Y10076180D01*
X3792220Y10069220D01*
X3786581Y10061194D01*
X3782466Y10052253D01*
X3779926Y10042804D01*
X3779062Y10033000D01*
X3779926Y10023195D01*
X3782466Y10013746D01*
X3786581Y10004806D01*
X3792220Y9996779D01*
X3793794Y9995204D01*
X3796029Y9991902D01*
X3796792Y9987991D01*
X3796792Y9214408D01*
X3796029Y9210497D01*
X3793794Y9207195D01*
X3792220Y9205620D01*
X3786581Y9197594D01*
X3782466Y9188653D01*
X3779926Y9179204D01*
X3779062Y9169400D01*
X3779926Y9159595D01*
X3782466Y9150146D01*
X3786581Y9141206D01*
X3792220Y9133179D01*
X3799179Y9126220D01*
X3807206Y9120581D01*
X3816146Y9116466D01*
X3825595Y9113926D01*
X3835400Y9113062D01*
X3845204Y9113926D01*
X3854653Y9116466D01*
X3863594Y9120581D01*
X3871620Y9126220D01*
X3878579Y9133179D01*
X3884218Y9141206D01*
X3888333Y9150146D01*
X3890873Y9159595D01*
X3891737Y9169400D01*
X3890873Y9179204D01*
X3888333Y9188653D01*
X3884218Y9197594D01*
X3878579Y9205620D01*
X3877005Y9207195D01*
X3874770Y9210497D01*
X3874008Y9214408D01*
X3874008Y9987991D01*
X3874770Y9991902D01*
X3877005Y9995204D01*
X3878579Y9996779D01*
X3884218Y10004806D01*
X3888333Y10013746D01*
X3890873Y10023195D01*
X3891737Y10033000D01*
X3890873Y10042804D01*
X3888333Y10052253D01*
X3884218Y10061194D01*
X3878579Y10069220D01*
X3871620Y10076180D01*
X3869690Y10077500D01*
X3866794Y10080599D01*
X3865422Y10084663D01*
X3865829Y10088880D01*
X3867962Y10092588D01*
X3871366Y10095077D01*
X3875532Y10095992D01*
X4246981Y10095992D01*
X4250893Y10095230D01*
X4254195Y10092994D01*
X4276394Y10070795D01*
X4278630Y10067493D01*
X4279392Y10063581D01*
X4279392Y9887508D01*
X4278630Y9883597D01*
X4276394Y9880295D01*
X4274820Y9878720D01*
X4269181Y9870694D01*
X4265066Y9861753D01*
X4262526Y9852304D01*
X4261662Y9842500D01*
X4262526Y9832695D01*
X4265066Y9823246D01*
X4269181Y9814306D01*
X4274820Y9806279D01*
X4276394Y9804704D01*
X4278630Y9801402D01*
X4279392Y9797491D01*
X4279392Y9646208D01*
X4278630Y9642297D01*
X4276394Y9638995D01*
X4274820Y9637420D01*
X4269181Y9629394D01*
X4265066Y9620453D01*
X4262526Y9611004D01*
X4261662Y9601200D01*
X4262526Y9591395D01*
X4265066Y9581946D01*
X4269181Y9573006D01*
X4274820Y9564979D01*
X4276394Y9563404D01*
X4278630Y9560102D01*
X4279392Y9556191D01*
X4279392Y9379508D01*
X4278630Y9375597D01*
X4276394Y9372295D01*
X4274820Y9370720D01*
X4269181Y9362694D01*
X4265066Y9353753D01*
X4262526Y9344304D01*
X4261662Y9334500D01*
X4262526Y9324695D01*
X4265066Y9315246D01*
X4269181Y9306306D01*
X4274820Y9298279D01*
X4281779Y9291320D01*
X4289806Y9285681D01*
X4298746Y9281566D01*
X4308195Y9279026D01*
X4318000Y9278162D01*
X4327804Y9279026D01*
X4337253Y9281566D01*
X4346194Y9285681D01*
X4354220Y9291320D01*
X4361180Y9298279D01*
X4366818Y9306306D01*
X4370933Y9315246D01*
X4373473Y9324695D01*
X4374337Y9334500D01*
X4373473Y9344304D01*
X4370933Y9353753D01*
X4366818Y9362694D01*
X4361180Y9370720D01*
X4359605Y9372295D01*
X4357370Y9375597D01*
X4356608Y9379508D01*
X4356608Y9556191D01*
X4357370Y9560102D01*
X4359605Y9563404D01*
X4361180Y9564979D01*
X4366818Y9573006D01*
X4370933Y9581946D01*
X4373473Y9591395D01*
X4374337Y9601200D01*
X4373473Y9611004D01*
X4370933Y9620453D01*
X4366818Y9629394D01*
X4361180Y9637420D01*
X4359605Y9638995D01*
X4357370Y9642297D01*
X4356608Y9646208D01*
X4356608Y9797491D01*
X4357370Y9801402D01*
X4359605Y9804704D01*
X4361180Y9806279D01*
X4366818Y9814306D01*
X4370933Y9823246D01*
X4373473Y9832695D01*
X4374337Y9842500D01*
X4373473Y9852304D01*
X4370933Y9861753D01*
X4366818Y9870694D01*
X4361180Y9878720D01*
X4359605Y9880295D01*
X4357370Y9883597D01*
X4356608Y9887508D01*
X4356608Y10083292D01*
X4355795Y10091318D01*
X4353610Y10098532D01*
X4350054Y10105237D01*
X4344924Y10111435D01*
X4294835Y10161524D01*
X4288637Y10166654D01*
X4281932Y10170210D01*
X4274718Y10172395D01*
X4266692Y10173208D01*
X3620008Y10173208D01*
X3611981Y10172395D01*
X3604768Y10170210D01*
X3598062Y10166654D01*
X3591864Y10161524D01*
X3123895Y9693605D01*
X3120593Y9691370D01*
X3116681Y9690608D01*
X2886354Y9690608D01*
X2882036Y9691573D01*
X2878531Y9694316D01*
X2876499Y9698329D01*
X2876397Y9702749D01*
X2878226Y9706864D01*
X2886913Y9718497D01*
X2893923Y9730892D01*
X2899257Y9744049D01*
X2902864Y9757816D01*
X2903931Y9766300D01*
X2806700Y9766300D01*
X2806700Y9700768D01*
X2805938Y9696856D01*
X2803702Y9693605D01*
X2800451Y9691370D01*
X2796540Y9690608D01*
X2791460Y9690608D01*
X2787548Y9691370D01*
X2784297Y9693605D01*
X2782062Y9696856D01*
X2781300Y9700768D01*
X2781300Y9766300D01*
X2683916Y9766300D01*
X2684018Y9764826D01*
X2686761Y9750856D01*
X2691231Y9737394D01*
X2697378Y9724593D01*
X2705150Y9712655D01*
X2709672Y9707372D01*
X2711551Y9704019D01*
X2712059Y9700209D01*
X2711145Y9696500D01*
X2708910Y9693402D01*
X2705709Y9691319D01*
X2701950Y9690608D01*
X1397508Y9690608D01*
X1389481Y9689795D01*
X1382268Y9687610D01*
X1375562Y9684054D01*
X1369364Y9678924D01*
X1066952Y9376562D01*
X1063599Y9374327D01*
X1059637Y9373565D01*
X1040688Y9379102D01*
X1026668Y9381388D01*
X1012444Y9381845D01*
X998321Y9380474D01*
X984453Y9377324D01*
X971092Y9372396D01*
X958494Y9365843D01*
X946861Y9357715D01*
X936345Y9348165D01*
X927150Y9337344D01*
X919378Y9325406D01*
X913231Y9312605D01*
X908761Y9299143D01*
X906018Y9285173D01*
X905103Y9271000D01*
X906018Y9256826D01*
X908761Y9242856D01*
X913231Y9229394D01*
X919378Y9216593D01*
X927150Y9204655D01*
X936345Y9193834D01*
X946861Y9184284D01*
X958494Y9176156D01*
X971092Y9169603D01*
X984453Y9164675D01*
X998321Y9161526D01*
X1012444Y9160154D01*
X1026668Y9160611D01*
X1040688Y9162897D01*
X1054303Y9166910D01*
X1067308Y9172702D01*
X1079449Y9180068D01*
X1090574Y9188907D01*
X1100429Y9199118D01*
X1108913Y9210497D01*
X1115923Y9222892D01*
X1121257Y9236049D01*
X1124864Y9249816D01*
X1126642Y9263888D01*
X1126642Y9278112D01*
X1124864Y9292183D01*
X1121257Y9305950D01*
X1119225Y9310878D01*
X1118514Y9314738D01*
X1119276Y9318599D01*
X1121460Y9321850D01*
X1410004Y9610394D01*
X1413306Y9612630D01*
X1417218Y9613392D01*
X2701950Y9613392D01*
X2705709Y9612680D01*
X2708910Y9610598D01*
X2711145Y9607499D01*
X2712059Y9603790D01*
X2711551Y9599980D01*
X2709672Y9596628D01*
X2705150Y9591344D01*
X2697378Y9579406D01*
X2691231Y9566605D01*
X2686761Y9553143D01*
X2684018Y9539173D01*
X2683103Y9525000D01*
X2684018Y9510826D01*
X2686761Y9496856D01*
X2691231Y9483394D01*
X2697378Y9470593D01*
X2705150Y9458655D01*
X2714345Y9447834D01*
X2724861Y9438284D01*
X2736494Y9430156D01*
X2749092Y9423603D01*
X2762453Y9418675D01*
X2776321Y9415526D01*
X2790444Y9414154D01*
X2804668Y9414611D01*
X2818688Y9416897D01*
X2832303Y9420910D01*
X2845308Y9426702D01*
X2857449Y9434068D01*
X2868574Y9442907D01*
X2878429Y9453118D01*
X2886913Y9464497D01*
X2893923Y9476892D01*
X2899257Y9490049D01*
X2902864Y9503816D01*
X2904642Y9517888D01*
X2904642Y9532112D01*
X2902864Y9546183D01*
X2899257Y9559950D01*
X2893923Y9573107D01*
X2886913Y9585502D01*
X2878226Y9597136D01*
X2876397Y9601250D01*
X2876499Y9605670D01*
X2878531Y9609683D01*
X2882036Y9612426D01*
X2886354Y9613392D01*
X3136392Y9613392D01*
X3144418Y9614204D01*
X3151632Y9616389D01*
X3158337Y9619945D01*
X3164535Y9625076D01*
X3632504Y10092994D01*
X3635806Y10095230D01*
X3639718Y10095992D01*
X3642868Y10095992D01*
X3647033Y10095077D01*
X3650437Y10092588D01*
X3652570Y10088880D01*
X3652977Y10084663D01*
X3651605Y10080599D01*
X3648710Y10077500D01*
X3646779Y10076180D01*
X3639820Y10069220D01*
X3634181Y10061194D01*
X3630066Y10052253D01*
X3627526Y10042804D01*
X3626662Y10033000D01*
X3627526Y10023195D01*
X3630066Y10013746D01*
X3634181Y10004806D01*
X3639820Y9996779D01*
X3641394Y9995204D01*
X3643629Y9991902D01*
X3644392Y9987991D01*
X3644392Y8960408D01*
X3643629Y8956497D01*
X3641394Y8953195D01*
X3639820Y8951620D01*
X3634181Y8943594D01*
X3630066Y8934653D01*
X3627526Y8925204D01*
X3626662Y8915400D01*
X3627526Y8905595D01*
X3630066Y8896146D01*
X3634181Y8887206D01*
X3639820Y8879179D01*
X3646779Y8872220D01*
X3654806Y8866581D01*
X3663746Y8862466D01*
X3673195Y8859926D01*
G37*
G36*
X1012444Y8906154D02*
G01*
X1026668Y8906611D01*
X1040688Y8908897D01*
X1054303Y8912910D01*
X1067308Y8918702D01*
X1079449Y8926068D01*
X1090574Y8934907D01*
X1100429Y8945118D01*
X1108913Y8956497D01*
X1115923Y8968892D01*
X1121257Y8982049D01*
X1124864Y8995816D01*
X1126642Y9009888D01*
X1126642Y9024112D01*
X1124864Y9038183D01*
X1121257Y9051950D01*
X1115923Y9065107D01*
X1108913Y9077502D01*
X1100429Y9088882D01*
X1090574Y9099092D01*
X1079449Y9107932D01*
X1067308Y9115298D01*
X1054303Y9121038D01*
X1040688Y9125102D01*
X1026668Y9127388D01*
X1012444Y9127845D01*
X998321Y9126474D01*
X984453Y9123324D01*
X971092Y9118396D01*
X958494Y9111843D01*
X946861Y9103715D01*
X936345Y9094165D01*
X927150Y9083344D01*
X919378Y9071406D01*
X913231Y9058605D01*
X908761Y9045143D01*
X906018Y9031173D01*
X905103Y9017000D01*
X906018Y9002826D01*
X908761Y8988856D01*
X913231Y8975394D01*
X919378Y8962593D01*
X927150Y8950655D01*
X936345Y8939834D01*
X946861Y8930284D01*
X958494Y8922156D01*
X971092Y8915603D01*
X984453Y8910675D01*
X998321Y8907526D01*
G37*
G36*
X228600Y8960662D02*
G01*
X238404Y8961526D01*
X247853Y8964066D01*
X256794Y8968181D01*
X264820Y8973820D01*
X271780Y8980779D01*
X277418Y8988806D01*
X281533Y8997746D01*
X284073Y9007195D01*
X284784Y9015222D01*
X285699Y9018625D01*
X287731Y9021521D01*
X776224Y9510064D01*
X781354Y9516262D01*
X784910Y9522968D01*
X787095Y9530181D01*
X787908Y9538208D01*
X787908Y9961981D01*
X788670Y9965893D01*
X790905Y9969195D01*
X813104Y9991394D01*
X816406Y9993630D01*
X820318Y9994392D01*
X905408Y9994392D01*
X909116Y9993680D01*
X912317Y9991699D01*
X914552Y9988651D01*
X919378Y9978593D01*
X927150Y9966655D01*
X936345Y9955834D01*
X946861Y9946284D01*
X958494Y9938156D01*
X971092Y9931603D01*
X984453Y9926675D01*
X998321Y9923526D01*
X1012444Y9922154D01*
X1026668Y9922611D01*
X1040688Y9924897D01*
X1059637Y9930434D01*
X1063599Y9929672D01*
X1066952Y9927437D01*
X1204264Y9790176D01*
X1210462Y9785045D01*
X1217168Y9781489D01*
X1224381Y9779304D01*
X1232408Y9778492D01*
X2526792Y9778492D01*
X2534818Y9779304D01*
X2542032Y9781489D01*
X2548737Y9785045D01*
X2554935Y9790176D01*
X2629204Y9864394D01*
X2632506Y9866630D01*
X2636418Y9867392D01*
X2701950Y9867392D01*
X2705709Y9866680D01*
X2708910Y9864598D01*
X2711145Y9861499D01*
X2712059Y9857790D01*
X2711551Y9853980D01*
X2709672Y9850628D01*
X2705150Y9845344D01*
X2697378Y9833406D01*
X2691231Y9820605D01*
X2686761Y9807143D01*
X2684018Y9793173D01*
X2683916Y9791700D01*
X2781300Y9791700D01*
X2781300Y9857232D01*
X2782062Y9861143D01*
X2784297Y9864394D01*
X2787548Y9866630D01*
X2791460Y9867392D01*
X2796540Y9867392D01*
X2800451Y9866630D01*
X2803702Y9864394D01*
X2805938Y9861143D01*
X2806700Y9857232D01*
X2806700Y9791700D01*
X2903931Y9791700D01*
X2902864Y9800183D01*
X2899257Y9813950D01*
X2893923Y9827107D01*
X2886913Y9839502D01*
X2878226Y9851136D01*
X2876397Y9855250D01*
X2876499Y9859670D01*
X2878531Y9863683D01*
X2882036Y9866426D01*
X2886354Y9867392D01*
X3136392Y9867392D01*
X3144418Y9868204D01*
X3151632Y9870389D01*
X3158337Y9873945D01*
X3164535Y9879076D01*
X3480104Y10194594D01*
X3483406Y10196830D01*
X3487318Y10197592D01*
X5161381Y10197592D01*
X5165293Y10196830D01*
X5168595Y10194594D01*
X5650331Y9712858D01*
X5652363Y9710013D01*
X5653278Y9706610D01*
X5653024Y9703155D01*
X5651957Y9699091D01*
X5650128Y9684664D01*
X5650128Y9670135D01*
X5651957Y9655708D01*
X5655564Y9641586D01*
X5660948Y9628073D01*
X5667959Y9615322D01*
X5676493Y9603536D01*
X5686450Y9592919D01*
X5697677Y9583623D01*
X5709970Y9575850D01*
X5723128Y9569653D01*
X5736996Y9565132D01*
X5751271Y9562439D01*
X5765800Y9561525D01*
X5780328Y9562439D01*
X5794603Y9565132D01*
X5808472Y9569653D01*
X5821629Y9575850D01*
X5833922Y9583623D01*
X5845149Y9592919D01*
X5855106Y9603536D01*
X5863640Y9615322D01*
X5870651Y9628073D01*
X5876036Y9641586D01*
X5879642Y9655708D01*
X5881471Y9670135D01*
X5881471Y9684664D01*
X5879642Y9699091D01*
X5876036Y9713214D01*
X5870651Y9726726D01*
X5863640Y9739477D01*
X5855106Y9751263D01*
X5845149Y9761880D01*
X5833922Y9771176D01*
X5821629Y9778949D01*
X5808472Y9785146D01*
X5794603Y9789668D01*
X5780328Y9792360D01*
X5765800Y9793274D01*
X5751271Y9792360D01*
X5736996Y9789668D01*
X5723128Y9785146D01*
X5709970Y9778949D01*
X5706719Y9776917D01*
X5703570Y9775596D01*
X5700166Y9775393D01*
X5696915Y9776307D01*
X5694121Y9778288D01*
X5209235Y10263124D01*
X5203037Y10268254D01*
X5196332Y10271810D01*
X5189118Y10273995D01*
X5181092Y10274808D01*
X3467608Y10274808D01*
X3459581Y10273995D01*
X3452368Y10271810D01*
X3445662Y10268254D01*
X3439464Y10263124D01*
X3123895Y9947605D01*
X3120593Y9945370D01*
X3116681Y9944608D01*
X2886354Y9944608D01*
X2882036Y9945573D01*
X2878531Y9948316D01*
X2876499Y9952329D01*
X2876397Y9956749D01*
X2878226Y9960864D01*
X2886913Y9972497D01*
X2893923Y9984892D01*
X2899257Y9998049D01*
X2902864Y10011816D01*
X2904642Y10025888D01*
X2904642Y10040112D01*
X2902864Y10054183D01*
X2899257Y10067950D01*
X2893923Y10081107D01*
X2886913Y10093502D01*
X2878429Y10104882D01*
X2868574Y10115092D01*
X2857449Y10123932D01*
X2845308Y10131298D01*
X2832303Y10137038D01*
X2818688Y10141102D01*
X2804668Y10143388D01*
X2790444Y10143845D01*
X2776321Y10142474D01*
X2762453Y10139324D01*
X2749092Y10134396D01*
X2736494Y10127843D01*
X2724861Y10119715D01*
X2714345Y10110165D01*
X2705150Y10099344D01*
X2697378Y10087406D01*
X2691231Y10074605D01*
X2686761Y10061143D01*
X2684018Y10047173D01*
X2683103Y10033000D01*
X2684018Y10018826D01*
X2686761Y10004856D01*
X2691231Y9991394D01*
X2697378Y9978593D01*
X2705150Y9966655D01*
X2709672Y9961372D01*
X2711551Y9958019D01*
X2712059Y9954209D01*
X2711145Y9950500D01*
X2708910Y9947402D01*
X2705709Y9945319D01*
X2701950Y9944608D01*
X2616708Y9944608D01*
X2608681Y9943795D01*
X2601468Y9941610D01*
X2594762Y9938054D01*
X2588564Y9932924D01*
X2514295Y9858705D01*
X2510993Y9856470D01*
X2507081Y9855708D01*
X1252118Y9855708D01*
X1248206Y9856470D01*
X1244904Y9858705D01*
X1121460Y9982149D01*
X1119276Y9985400D01*
X1118514Y9989261D01*
X1119225Y9993122D01*
X1121257Y9998049D01*
X1124864Y10011816D01*
X1126642Y10025888D01*
X1126642Y10040112D01*
X1124864Y10054183D01*
X1121257Y10067950D01*
X1115923Y10081107D01*
X1108913Y10093502D01*
X1100429Y10104882D01*
X1090574Y10115092D01*
X1079449Y10123932D01*
X1067308Y10131298D01*
X1054303Y10137038D01*
X1040688Y10141102D01*
X1026668Y10143388D01*
X1012444Y10143845D01*
X998321Y10142474D01*
X984453Y10139324D01*
X971092Y10134396D01*
X958494Y10127843D01*
X946861Y10119715D01*
X936345Y10110165D01*
X927150Y10099344D01*
X919378Y10087406D01*
X914552Y10077348D01*
X912317Y10074300D01*
X909116Y10072319D01*
X905408Y10071608D01*
X800608Y10071608D01*
X792581Y10070795D01*
X785368Y10068610D01*
X778662Y10065054D01*
X772464Y10059924D01*
X722376Y10009835D01*
X717245Y10003637D01*
X713689Y9996932D01*
X711504Y9989718D01*
X710692Y9981692D01*
X710692Y9557918D01*
X709930Y9554006D01*
X707694Y9550704D01*
X233121Y9076131D01*
X230225Y9074099D01*
X226821Y9073184D01*
X218795Y9072473D01*
X209346Y9069933D01*
X200406Y9065818D01*
X192379Y9060180D01*
X185420Y9053220D01*
X179781Y9045194D01*
X175666Y9036253D01*
X173126Y9026804D01*
X172262Y9017000D01*
X173126Y9007195D01*
X175666Y8997746D01*
X179781Y8988806D01*
X185420Y8980779D01*
X192379Y8973820D01*
X200406Y8968181D01*
X209346Y8964066D01*
X218795Y8961526D01*
G37*
G36*
X4876800Y9053525D02*
G01*
X4891328Y9054439D01*
X4905603Y9057132D01*
X4919472Y9061653D01*
X4932629Y9067850D01*
X4944922Y9075623D01*
X4956149Y9084919D01*
X4966106Y9095536D01*
X4974640Y9107322D01*
X4981651Y9120073D01*
X4987036Y9133586D01*
X4990642Y9147708D01*
X4992471Y9162135D01*
X4992471Y9176664D01*
X4990642Y9191091D01*
X4987036Y9205214D01*
X4981651Y9218726D01*
X4974640Y9231477D01*
X4966106Y9243263D01*
X4956149Y9253880D01*
X4944922Y9263176D01*
X4932629Y9270949D01*
X4919472Y9277146D01*
X4905603Y9281668D01*
X4891328Y9284360D01*
X4876800Y9285274D01*
X4862271Y9284360D01*
X4847996Y9281668D01*
X4834128Y9277146D01*
X4820970Y9270949D01*
X4808677Y9263176D01*
X4797450Y9253880D01*
X4787493Y9243263D01*
X4778959Y9231477D01*
X4771948Y9218726D01*
X4766564Y9205214D01*
X4762957Y9191091D01*
X4761128Y9176664D01*
X4761128Y9162135D01*
X4762957Y9147708D01*
X4766564Y9133586D01*
X4771948Y9120073D01*
X4778959Y9107322D01*
X4787493Y9095536D01*
X4797450Y9084919D01*
X4808677Y9075623D01*
X4820970Y9067850D01*
X4834128Y9061653D01*
X4847996Y9057132D01*
X4862271Y9054439D01*
G37*
G36*
X5765800Y9053525D02*
G01*
X5780328Y9054439D01*
X5794603Y9057132D01*
X5808472Y9061653D01*
X5821629Y9067850D01*
X5833922Y9075623D01*
X5845149Y9084919D01*
X5855106Y9095536D01*
X5863640Y9107322D01*
X5870651Y9120073D01*
X5876036Y9133586D01*
X5879642Y9147708D01*
X5881471Y9162135D01*
X5881471Y9176664D01*
X5879642Y9191091D01*
X5876036Y9205214D01*
X5870651Y9218726D01*
X5863640Y9231477D01*
X5855106Y9243263D01*
X5845149Y9253880D01*
X5833922Y9263176D01*
X5821629Y9270949D01*
X5808472Y9277146D01*
X5794603Y9281668D01*
X5780328Y9284360D01*
X5765800Y9285274D01*
X5751271Y9284360D01*
X5736996Y9281668D01*
X5723128Y9277146D01*
X5709970Y9270949D01*
X5697677Y9263176D01*
X5686450Y9253880D01*
X5676493Y9243263D01*
X5667959Y9231477D01*
X5660948Y9218726D01*
X5655564Y9205214D01*
X5651957Y9191091D01*
X5650128Y9176664D01*
X5650128Y9162135D01*
X5651957Y9147708D01*
X5655564Y9133586D01*
X5660948Y9120073D01*
X5667959Y9107322D01*
X5676493Y9095536D01*
X5686450Y9084919D01*
X5697677Y9075623D01*
X5709970Y9067850D01*
X5723128Y9061653D01*
X5736996Y9057132D01*
X5751271Y9054439D01*
G37*
G36*
X7543800Y9053525D02*
G01*
X7558328Y9054439D01*
X7572603Y9057132D01*
X7586472Y9061653D01*
X7599629Y9067850D01*
X7611922Y9075623D01*
X7623149Y9084919D01*
X7633106Y9095536D01*
X7641640Y9107322D01*
X7648651Y9120073D01*
X7654036Y9133586D01*
X7657642Y9147708D01*
X7659471Y9162135D01*
X7659471Y9176664D01*
X7657642Y9191091D01*
X7654036Y9205214D01*
X7648651Y9218726D01*
X7641640Y9231477D01*
X7633106Y9243263D01*
X7623149Y9253880D01*
X7611922Y9263176D01*
X7599629Y9270949D01*
X7586472Y9277146D01*
X7572603Y9281668D01*
X7558328Y9284360D01*
X7543800Y9285274D01*
X7529271Y9284360D01*
X7514996Y9281668D01*
X7501128Y9277146D01*
X7487970Y9270949D01*
X7475677Y9263176D01*
X7464450Y9253880D01*
X7454493Y9243263D01*
X7445959Y9231477D01*
X7438948Y9218726D01*
X7433564Y9205214D01*
X7429957Y9191091D01*
X7428128Y9176664D01*
X7428128Y9162135D01*
X7429957Y9147708D01*
X7433564Y9133586D01*
X7438948Y9120073D01*
X7445959Y9107322D01*
X7454493Y9095536D01*
X7464450Y9084919D01*
X7475677Y9075623D01*
X7487970Y9067850D01*
X7501128Y9061653D01*
X7514996Y9057132D01*
X7529271Y9054439D01*
G37*
G36*
X2790444Y9160154D02*
G01*
X2804668Y9160611D01*
X2818688Y9162897D01*
X2832303Y9166910D01*
X2845308Y9172702D01*
X2857449Y9180068D01*
X2868574Y9188907D01*
X2878429Y9199118D01*
X2886913Y9210497D01*
X2893923Y9222892D01*
X2899257Y9236049D01*
X2902864Y9249816D01*
X2904642Y9263888D01*
X2904642Y9278112D01*
X2902864Y9292183D01*
X2899257Y9305950D01*
X2893923Y9319107D01*
X2886913Y9331502D01*
X2878429Y9342882D01*
X2868574Y9353092D01*
X2857449Y9361932D01*
X2845308Y9369298D01*
X2832303Y9375038D01*
X2818688Y9379102D01*
X2804668Y9381388D01*
X2790444Y9381845D01*
X2776321Y9380474D01*
X2762453Y9377324D01*
X2749092Y9372396D01*
X2736494Y9365843D01*
X2724861Y9357715D01*
X2714345Y9348165D01*
X2705150Y9337344D01*
X2697378Y9325406D01*
X2691231Y9312605D01*
X2686761Y9299143D01*
X2684018Y9285173D01*
X2683103Y9271000D01*
X2684018Y9256826D01*
X2686761Y9242856D01*
X2691231Y9229394D01*
X2697378Y9216593D01*
X2705150Y9204655D01*
X2714345Y9193834D01*
X2724861Y9184284D01*
X2736494Y9176156D01*
X2749092Y9169603D01*
X2762453Y9164675D01*
X2776321Y9161526D01*
G37*
G36*
X4876800Y9307525D02*
G01*
X4891328Y9308439D01*
X4905603Y9311132D01*
X4919472Y9315653D01*
X4932629Y9321850D01*
X4944922Y9329623D01*
X4956149Y9338919D01*
X4966106Y9349536D01*
X4974640Y9361322D01*
X4981651Y9374073D01*
X4987036Y9387586D01*
X4990642Y9401708D01*
X4992471Y9416135D01*
X4992471Y9430664D01*
X4990642Y9445091D01*
X4987036Y9459214D01*
X4981651Y9472726D01*
X4974640Y9485477D01*
X4966106Y9497263D01*
X4956149Y9507880D01*
X4944922Y9517176D01*
X4932629Y9524949D01*
X4919472Y9531146D01*
X4905603Y9535668D01*
X4891328Y9538360D01*
X4876800Y9539274D01*
X4862271Y9538360D01*
X4847996Y9535668D01*
X4834128Y9531146D01*
X4820970Y9524949D01*
X4808677Y9517176D01*
X4797450Y9507880D01*
X4787493Y9497263D01*
X4778959Y9485477D01*
X4771948Y9472726D01*
X4766564Y9459214D01*
X4762957Y9445091D01*
X4761128Y9430664D01*
X4761128Y9416135D01*
X4762957Y9401708D01*
X4766564Y9387586D01*
X4771948Y9374073D01*
X4778959Y9361322D01*
X4787493Y9349536D01*
X4797450Y9338919D01*
X4808677Y9329623D01*
X4820970Y9321850D01*
X4834128Y9315653D01*
X4847996Y9311132D01*
X4862271Y9308439D01*
G37*
G36*
X5778500Y9308287D02*
G01*
X5780328Y9308439D01*
X5794603Y9311132D01*
X5808472Y9315653D01*
X5821629Y9321850D01*
X5833922Y9329623D01*
X5845149Y9338919D01*
X5855106Y9349536D01*
X5863640Y9361322D01*
X5870651Y9374073D01*
X5876036Y9387586D01*
X5879642Y9401708D01*
X5880760Y9410700D01*
X5778500Y9410700D01*
G37*
G36*
X7531100Y9308287D02*
G01*
X7531100Y9410700D01*
X7428839Y9410700D01*
X7429957Y9401708D01*
X7433564Y9387586D01*
X7438948Y9374073D01*
X7445959Y9361322D01*
X7454493Y9349536D01*
X7464450Y9338919D01*
X7475677Y9329623D01*
X7487970Y9321850D01*
X7501128Y9315653D01*
X7514996Y9311132D01*
X7529271Y9308439D01*
G37*
G36*
X5753100Y9308287D02*
G01*
X5753100Y9410700D01*
X5650839Y9410700D01*
X5651957Y9401708D01*
X5655564Y9387586D01*
X5660948Y9374073D01*
X5667959Y9361322D01*
X5676493Y9349536D01*
X5686450Y9338919D01*
X5697677Y9329623D01*
X5709970Y9321850D01*
X5723128Y9315653D01*
X5736996Y9311132D01*
X5751271Y9308439D01*
G37*
G36*
X7556500Y9308287D02*
G01*
X7558328Y9308439D01*
X7572603Y9311132D01*
X7586472Y9315653D01*
X7599629Y9321850D01*
X7611922Y9329623D01*
X7623149Y9338919D01*
X7633106Y9349536D01*
X7641640Y9361322D01*
X7648651Y9374073D01*
X7654036Y9387586D01*
X7657642Y9401708D01*
X7658760Y9410700D01*
X7556500Y9410700D01*
G37*
G36*
X8178800Y9376562D02*
G01*
X8183422Y9376664D01*
X8206384Y9379051D01*
X8229092Y9383369D01*
X8251342Y9389618D01*
X8273034Y9397644D01*
X8293912Y9407499D01*
X8313928Y9419031D01*
X8332927Y9432239D01*
X8350707Y9446971D01*
X8367217Y9463125D01*
X8382304Y9480600D01*
X8395919Y9499295D01*
X8407857Y9519107D01*
X8418169Y9539782D01*
X8426653Y9561271D01*
X8433308Y9583369D01*
X8438134Y9605975D01*
X8441029Y9628936D01*
X8441486Y9639300D01*
X8178800Y9639300D01*
G37*
G36*
X398780Y9376562D02*
G01*
X403402Y9376664D01*
X426415Y9379051D01*
X449122Y9383369D01*
X471373Y9389618D01*
X493014Y9397644D01*
X513943Y9407499D01*
X533958Y9419031D01*
X552907Y9432239D01*
X570738Y9446971D01*
X587197Y9463125D01*
X602335Y9480600D01*
X615899Y9499295D01*
X627888Y9519107D01*
X638149Y9539782D01*
X646633Y9561271D01*
X653338Y9583369D01*
X658114Y9605975D01*
X661009Y9628936D01*
X661466Y9639300D01*
X398780Y9639300D01*
G37*
G36*
X8153400Y9376613D02*
G01*
X8153400Y9639300D01*
X7890560Y9639300D01*
X7892389Y9617405D01*
X7896250Y9594646D01*
X7901990Y9572244D01*
X7909559Y9550450D01*
X7918958Y9529318D01*
X7930083Y9509099D01*
X7942884Y9489846D01*
X7957261Y9471710D01*
X7973059Y9454896D01*
X7990230Y9439402D01*
X8008620Y9425432D01*
X8028127Y9413087D01*
X8048650Y9402368D01*
X8069935Y9393428D01*
X8091881Y9386265D01*
X8114385Y9380982D01*
X8137245Y9377629D01*
G37*
G36*
X373380Y9376613D02*
G01*
X373380Y9639300D01*
X110540Y9639300D01*
X112369Y9617405D01*
X116230Y9594646D01*
X121970Y9572244D01*
X129590Y9550450D01*
X138988Y9529318D01*
X150114Y9509099D01*
X162915Y9489846D01*
X177241Y9471710D01*
X193040Y9454896D01*
X210261Y9439402D01*
X228650Y9425432D01*
X248158Y9413087D01*
X268630Y9402368D01*
X289915Y9393428D01*
X311912Y9386265D01*
X334416Y9380982D01*
X357276Y9377629D01*
G37*
G36*
X1012444Y9414154D02*
G01*
X1026668Y9414611D01*
X1040688Y9416897D01*
X1054303Y9420910D01*
X1067308Y9426702D01*
X1079449Y9434068D01*
X1090574Y9442907D01*
X1100429Y9453118D01*
X1108913Y9464497D01*
X1115923Y9476892D01*
X1121257Y9490049D01*
X1124864Y9503816D01*
X1126642Y9517888D01*
X1126642Y9532112D01*
X1124864Y9546183D01*
X1121257Y9559950D01*
X1115923Y9573107D01*
X1108913Y9585502D01*
X1100429Y9596882D01*
X1090574Y9607092D01*
X1079449Y9615932D01*
X1067308Y9623298D01*
X1054303Y9629038D01*
X1040688Y9633102D01*
X1026668Y9635388D01*
X1012444Y9635845D01*
X998321Y9634474D01*
X984453Y9631324D01*
X971092Y9626396D01*
X958494Y9619843D01*
X946861Y9611715D01*
X936345Y9602165D01*
X927150Y9591344D01*
X919378Y9579406D01*
X913231Y9566605D01*
X908761Y9553143D01*
X906018Y9539173D01*
X905103Y9525000D01*
X906018Y9510826D01*
X908761Y9496856D01*
X913231Y9483394D01*
X919378Y9470593D01*
X927150Y9458655D01*
X936345Y9447834D01*
X946861Y9438284D01*
X958494Y9430156D01*
X971092Y9423603D01*
X984453Y9418675D01*
X998321Y9415526D01*
G37*
G36*
X7556500Y9436100D02*
G01*
X7658760Y9436100D01*
X7657642Y9445091D01*
X7654036Y9459214D01*
X7648651Y9472726D01*
X7641640Y9485477D01*
X7633106Y9497263D01*
X7623149Y9507880D01*
X7611922Y9517176D01*
X7599629Y9524949D01*
X7586472Y9531146D01*
X7572603Y9535668D01*
X7558328Y9538360D01*
X7556500Y9538512D01*
G37*
G36*
X5778500Y9436100D02*
G01*
X5880760Y9436100D01*
X5879642Y9445091D01*
X5876036Y9459214D01*
X5870651Y9472726D01*
X5863640Y9485477D01*
X5855106Y9497263D01*
X5845149Y9507880D01*
X5833922Y9517176D01*
X5821629Y9524949D01*
X5808472Y9531146D01*
X5794603Y9535668D01*
X5780328Y9538360D01*
X5778500Y9538512D01*
G37*
G36*
X5650839Y9436100D02*
G01*
X5753100Y9436100D01*
X5753100Y9538512D01*
X5751271Y9538360D01*
X5736996Y9535668D01*
X5723128Y9531146D01*
X5709970Y9524949D01*
X5697677Y9517176D01*
X5686450Y9507880D01*
X5676493Y9497263D01*
X5667959Y9485477D01*
X5660948Y9472726D01*
X5655564Y9459214D01*
X5651957Y9445091D01*
G37*
G36*
X7428839Y9436100D02*
G01*
X7531100Y9436100D01*
X7531100Y9538512D01*
X7529271Y9538360D01*
X7514996Y9535668D01*
X7501128Y9531146D01*
X7487970Y9524949D01*
X7475677Y9517176D01*
X7464450Y9507880D01*
X7454493Y9497263D01*
X7445959Y9485477D01*
X7438948Y9472726D01*
X7433564Y9459214D01*
X7429957Y9445091D01*
G37*
G36*
X4876800Y9561525D02*
G01*
X4891328Y9562439D01*
X4905603Y9565132D01*
X4919472Y9569653D01*
X4932629Y9575850D01*
X4944922Y9583623D01*
X4956149Y9592919D01*
X4966106Y9603536D01*
X4974640Y9615322D01*
X4981651Y9628073D01*
X4987036Y9641586D01*
X4990642Y9655708D01*
X4992471Y9670135D01*
X4992471Y9684664D01*
X4990642Y9699091D01*
X4987036Y9713214D01*
X4981651Y9726726D01*
X4974640Y9739477D01*
X4966106Y9751263D01*
X4956149Y9761880D01*
X4944922Y9771176D01*
X4932629Y9778949D01*
X4919472Y9785146D01*
X4905603Y9789668D01*
X4891328Y9792360D01*
X4876800Y9793274D01*
X4862271Y9792360D01*
X4847996Y9789668D01*
X4834128Y9785146D01*
X4820970Y9778949D01*
X4808677Y9771176D01*
X4797450Y9761880D01*
X4787493Y9751263D01*
X4778959Y9739477D01*
X4771948Y9726726D01*
X4766564Y9713214D01*
X4762957Y9699091D01*
X4761128Y9684664D01*
X4761128Y9670135D01*
X4762957Y9655708D01*
X4766564Y9641586D01*
X4771948Y9628073D01*
X4778959Y9615322D01*
X4787493Y9603536D01*
X4797450Y9592919D01*
X4808677Y9583623D01*
X4820970Y9575850D01*
X4834128Y9569653D01*
X4847996Y9565132D01*
X4862271Y9562439D01*
G37*
G36*
X7543800Y9561525D02*
G01*
X7558328Y9562439D01*
X7572603Y9565132D01*
X7586472Y9569653D01*
X7599629Y9575850D01*
X7611922Y9583623D01*
X7623149Y9592919D01*
X7633106Y9603536D01*
X7641640Y9615322D01*
X7648651Y9628073D01*
X7654036Y9641586D01*
X7657642Y9655708D01*
X7659471Y9670135D01*
X7659471Y9684664D01*
X7657642Y9699091D01*
X7654036Y9713214D01*
X7648651Y9726726D01*
X7641640Y9739477D01*
X7633106Y9751263D01*
X7623149Y9761880D01*
X7611922Y9771176D01*
X7599629Y9778949D01*
X7586472Y9785146D01*
X7572603Y9789668D01*
X7558328Y9792360D01*
X7543800Y9793274D01*
X7529271Y9792360D01*
X7514996Y9789668D01*
X7501128Y9785146D01*
X7487970Y9778949D01*
X7475677Y9771176D01*
X7464450Y9761880D01*
X7454493Y9751263D01*
X7445959Y9739477D01*
X7438948Y9726726D01*
X7433564Y9713214D01*
X7429957Y9699091D01*
X7428128Y9684664D01*
X7428128Y9670135D01*
X7429957Y9655708D01*
X7433564Y9641586D01*
X7438948Y9628073D01*
X7445959Y9615322D01*
X7454493Y9603536D01*
X7464450Y9592919D01*
X7475677Y9583623D01*
X7487970Y9575850D01*
X7501128Y9569653D01*
X7514996Y9565132D01*
X7529271Y9562439D01*
G37*
G36*
X8178800Y9664700D02*
G01*
X8441486Y9664700D01*
X8441029Y9675063D01*
X8438134Y9698024D01*
X8433308Y9720630D01*
X8426653Y9742728D01*
X8418169Y9764217D01*
X8407857Y9784892D01*
X8395919Y9804704D01*
X8382304Y9823348D01*
X8367217Y9840874D01*
X8350707Y9857028D01*
X8332927Y9871760D01*
X8313928Y9884968D01*
X8293912Y9896500D01*
X8273034Y9906355D01*
X8251342Y9914382D01*
X8229092Y9920630D01*
X8206384Y9924948D01*
X8183422Y9927336D01*
X8178800Y9927437D01*
G37*
G36*
X398780Y9664700D02*
G01*
X661466Y9664700D01*
X661009Y9675063D01*
X658114Y9698024D01*
X653338Y9720630D01*
X646633Y9742728D01*
X638149Y9764217D01*
X627888Y9784892D01*
X615899Y9804704D01*
X602335Y9823348D01*
X587197Y9840874D01*
X570738Y9857028D01*
X552907Y9871760D01*
X533958Y9884968D01*
X513943Y9896500D01*
X493014Y9906355D01*
X471373Y9914382D01*
X449122Y9920630D01*
X426415Y9924948D01*
X403402Y9927336D01*
X398780Y9927437D01*
G37*
G36*
X7890560Y9664700D02*
G01*
X8153400Y9664700D01*
X8153400Y9927386D01*
X8137245Y9926370D01*
X8114385Y9923018D01*
X8091881Y9917734D01*
X8069935Y9910572D01*
X8048650Y9901631D01*
X8028127Y9890912D01*
X8008620Y9878568D01*
X7990230Y9864598D01*
X7973059Y9849104D01*
X7957261Y9832289D01*
X7942884Y9814153D01*
X7930083Y9794900D01*
X7918958Y9774682D01*
X7909559Y9753549D01*
X7901990Y9731756D01*
X7896250Y9709353D01*
X7892389Y9686594D01*
G37*
G36*
X110540Y9664700D02*
G01*
X373380Y9664700D01*
X373380Y9927386D01*
X357276Y9926370D01*
X334416Y9923018D01*
X311912Y9917734D01*
X289915Y9910572D01*
X268630Y9901631D01*
X248158Y9890912D01*
X228650Y9878568D01*
X210261Y9864598D01*
X193040Y9849104D01*
X177241Y9832289D01*
X162915Y9814153D01*
X150114Y9794900D01*
X138988Y9774682D01*
X129590Y9753549D01*
X121970Y9731756D01*
X116230Y9709353D01*
X112369Y9686594D01*
G37*
G36*
X1028700Y9668967D02*
G01*
X1040688Y9670897D01*
X1054303Y9674910D01*
X1067308Y9680702D01*
X1079449Y9688068D01*
X1090574Y9696907D01*
X1100429Y9707118D01*
X1108913Y9718497D01*
X1115923Y9730892D01*
X1121257Y9744049D01*
X1124864Y9757816D01*
X1125931Y9766300D01*
X1028700Y9766300D01*
G37*
G36*
X1003300Y9669068D02*
G01*
X1003300Y9766300D01*
X905916Y9766300D01*
X906018Y9764826D01*
X908761Y9750856D01*
X913231Y9737394D01*
X919378Y9724593D01*
X927150Y9712655D01*
X936345Y9701834D01*
X946861Y9692284D01*
X958494Y9684156D01*
X971092Y9677603D01*
X984453Y9672675D01*
X998321Y9669526D01*
G37*
G36*
X1028700Y9791700D02*
G01*
X1125931Y9791700D01*
X1124864Y9800183D01*
X1121257Y9813950D01*
X1115923Y9827107D01*
X1108913Y9839502D01*
X1100429Y9850882D01*
X1090574Y9861092D01*
X1079449Y9869932D01*
X1067308Y9877298D01*
X1054303Y9883038D01*
X1040688Y9887102D01*
X1028700Y9889032D01*
G37*
G36*
X7531100Y6768287D02*
G01*
X7531100Y6870700D01*
X7428839Y6870700D01*
X7429957Y6861708D01*
X7433564Y6847586D01*
X7438948Y6834073D01*
X7445959Y6821322D01*
X7454493Y6809536D01*
X7464450Y6798919D01*
X7475677Y6789623D01*
X7487970Y6781850D01*
X7501128Y6775653D01*
X7514996Y6771131D01*
X7529271Y6768439D01*
G37*

%LPD*%
G36*
X3748532Y7557008D02*
G01*
X3744366Y7557922D01*
X3740962Y7560411D01*
X3738829Y7564120D01*
X3738422Y7568336D01*
X3739794Y7572400D01*
X3742690Y7575499D01*
X3744620Y7576820D01*
X3751579Y7583779D01*
X3757218Y7591806D01*
X3761333Y7600746D01*
X3763873Y7610195D01*
X3764737Y7620000D01*
X3763873Y7629804D01*
X3761333Y7639253D01*
X3757218Y7648194D01*
X3751579Y7656220D01*
X3744620Y7663180D01*
X3736594Y7668818D01*
X3727653Y7672933D01*
X3718204Y7675473D01*
X3708400Y7676337D01*
X3698595Y7675473D01*
X3689146Y7672933D01*
X3680206Y7668818D01*
X3672179Y7663180D01*
X3670604Y7661605D01*
X3667302Y7659370D01*
X3663391Y7658608D01*
X2886354Y7658608D01*
X2882036Y7659573D01*
X2878531Y7662316D01*
X2876499Y7666329D01*
X2876397Y7670749D01*
X2878226Y7674864D01*
X2886913Y7686497D01*
X2893923Y7698892D01*
X2899257Y7712049D01*
X2902966Y7726222D01*
X2904947Y7730134D01*
X2908452Y7732826D01*
X2912770Y7733792D01*
X4778095Y7733792D01*
X4782464Y7732826D01*
X4785969Y7730083D01*
X4787950Y7726172D01*
X4788103Y7721752D01*
X4786325Y7717637D01*
X4778959Y7707477D01*
X4771948Y7694726D01*
X4766564Y7681214D01*
X4762957Y7667091D01*
X4761128Y7652664D01*
X4761128Y7638135D01*
X4762957Y7623708D01*
X4766564Y7609586D01*
X4771948Y7596073D01*
X4778959Y7583322D01*
X4786325Y7573162D01*
X4788103Y7569047D01*
X4787950Y7564628D01*
X4785969Y7560716D01*
X4782464Y7557973D01*
X4778095Y7557008D01*
G37*

%LPD*%
G36*
X4975504Y7557008D02*
G01*
X4971135Y7557973D01*
X4967630Y7560716D01*
X4965649Y7564628D01*
X4965496Y7569047D01*
X4967274Y7573162D01*
X4974640Y7583322D01*
X4981651Y7596073D01*
X4987036Y7609586D01*
X4990642Y7623708D01*
X4992471Y7638135D01*
X4992471Y7652664D01*
X4990642Y7667091D01*
X4987036Y7681214D01*
X4981651Y7694726D01*
X4974640Y7707477D01*
X4967274Y7717637D01*
X4965496Y7721752D01*
X4965649Y7726172D01*
X4967630Y7730083D01*
X4971135Y7732826D01*
X4975504Y7733792D01*
X5667095Y7733792D01*
X5671464Y7732826D01*
X5674969Y7730083D01*
X5676950Y7726172D01*
X5677103Y7721752D01*
X5675325Y7717637D01*
X5667959Y7707477D01*
X5660948Y7694726D01*
X5655564Y7681214D01*
X5651957Y7667091D01*
X5650128Y7652664D01*
X5650128Y7638135D01*
X5651957Y7623708D01*
X5655564Y7609586D01*
X5660948Y7596073D01*
X5667959Y7583322D01*
X5675325Y7573162D01*
X5677103Y7569047D01*
X5676950Y7564628D01*
X5674969Y7560716D01*
X5671464Y7557973D01*
X5667095Y7557008D01*
G37*

%LPD*%
G36*
X3748532Y6795008D02*
G01*
X3744366Y6795922D01*
X3740962Y6798411D01*
X3738829Y6802120D01*
X3738422Y6806336D01*
X3739794Y6810400D01*
X3742690Y6813499D01*
X3744620Y6814820D01*
X3751579Y6821779D01*
X3757218Y6829806D01*
X3761333Y6838746D01*
X3763873Y6848195D01*
X3764737Y6858000D01*
X3763873Y6867804D01*
X3761333Y6877253D01*
X3757218Y6886194D01*
X3751579Y6894220D01*
X3744620Y6901180D01*
X3736594Y6906818D01*
X3727653Y6910933D01*
X3718204Y6913473D01*
X3708400Y6914337D01*
X3698595Y6913473D01*
X3689146Y6910933D01*
X3680206Y6906818D01*
X3672179Y6901180D01*
X3670604Y6899605D01*
X3667302Y6897370D01*
X3663391Y6896608D01*
X2886354Y6896608D01*
X2882036Y6897573D01*
X2878531Y6900316D01*
X2876499Y6904329D01*
X2876397Y6908749D01*
X2878226Y6912864D01*
X2886913Y6924497D01*
X2893923Y6936892D01*
X2899257Y6950049D01*
X2902966Y6964222D01*
X2904947Y6968134D01*
X2908452Y6970826D01*
X2912770Y6971792D01*
X4778095Y6971792D01*
X4782464Y6970826D01*
X4785969Y6968083D01*
X4787950Y6964172D01*
X4788103Y6959752D01*
X4786325Y6955637D01*
X4778959Y6945477D01*
X4771948Y6932726D01*
X4766564Y6919214D01*
X4762957Y6905091D01*
X4761128Y6890664D01*
X4761128Y6876135D01*
X4762957Y6861708D01*
X4766564Y6847586D01*
X4771948Y6834073D01*
X4778959Y6821322D01*
X4786325Y6811162D01*
X4788103Y6807047D01*
X4787950Y6802628D01*
X4785969Y6798716D01*
X4782464Y6795973D01*
X4778095Y6795008D01*
G37*

%LPD*%
D10*
X7543800Y5105400D02*
G01*
X6654800Y5994400D01*
X3683000Y5994400D01*
X1016000Y6985000D02*
G01*
X863600Y6985000D01*
X812800Y6934200D01*
X812800Y6172200D01*
X876300Y6108700D01*
X3314700Y6108700D01*
X3429000Y5994400D01*
X3683000Y5994400D01*
X3708400Y7366000D02*
G01*
X1651000Y7366000D01*
X1016000Y6731000D01*
X5473700Y8788400D02*
G01*
X3429000Y8788400D01*
X3327400Y8890000D01*
X1143000Y8890000D01*
X1016000Y8763000D01*
X1016000Y10033000D02*
G01*
X800100Y10033000D01*
X749300Y9982200D01*
X749300Y9537700D01*
X228600Y9017000D01*
X1016000Y10033000D02*
G01*
X1231900Y9817100D01*
X2527300Y9817100D01*
X2616200Y9906000D01*
X3136900Y9906000D01*
X3467100Y10236200D01*
X5181600Y10236200D01*
X5740400Y9677400D01*
X3708400Y7620000D02*
G01*
X1397000Y7620000D01*
X1016000Y8001000D01*
X3708400Y6858000D02*
G01*
X1397000Y6858000D01*
X1016000Y6477000D01*
X3708400Y6604000D02*
G01*
X1397000Y6604000D01*
X1016000Y6223000D01*
X2794000Y6756400D02*
G01*
X7162800Y6756400D01*
X7518400Y6375400D01*
X1016000Y9271000D02*
G01*
X1397000Y9652000D01*
X3136900Y9652000D01*
X3619500Y10134600D01*
X4267200Y10134600D01*
X4318000Y10083800D01*
X4318000Y9334500D01*
X3835400Y9169400D02*
G01*
X3835400Y9169400D01*
X3835400Y10033000D01*
X3683000Y8915400D02*
G01*
X3683000Y10033000D01*
X4318000Y9334500D02*
G01*
X4318000Y9575800D01*
X4318000Y9842500D01*
X2794000Y7010400D02*
G01*
X7162800Y7010400D01*
X7518400Y6654800D01*
X2794000Y7518400D02*
G01*
X7162800Y7518400D01*
X7518400Y7162800D01*
X2794000Y7772400D02*
G01*
X7162800Y7772400D01*
X7518400Y7416800D01*
X4870698Y9937495D02*
G01*
X4876800Y9931400D01*
X4870698Y9683495D02*
G01*
X4876800Y9677400D01*
X4870698Y9429495D02*
G01*
X4876800Y9423400D01*
X3708400Y8382000D02*
G01*
X1143000Y8382000D01*
X1016000Y8255000D01*
D11*
X3060700Y4711700D02*
G01*
X774700Y4711700D01*
D10*
X1238250Y4648200D02*
G01*
X2622550Y4648200D01*
X3810000Y5575300D02*
G01*
X3200400Y5575300D01*
X2908300Y5283200D01*
X2463800Y5283200D01*
X2419604Y5239004D01*
X2419604Y4965700D01*
X3810000Y5321300D02*
G01*
X3022600Y5321300D01*
X2933700Y5232400D01*
X2641600Y5232400D01*
X2609595Y5200395D01*
X2609595Y4965700D01*
D12*
G01*
X999997Y10773999D03*
G01*
X16432001Y10773999D03*
G01*
X1499996Y-5117398D03*
G01*
X15932002Y-5117398D03*
D13*
G01*
X3809992Y3797289D03*
D14*
G01*
X4064000Y3797300D03*
G01*
X3810000Y4051300D03*
G01*
X4064000Y4051300D03*
G01*
X3810000Y4305300D03*
G01*
X4064000Y4305300D03*
G01*
X3810000Y4559300D03*
G01*
X4064000Y4559300D03*
G01*
X3810000Y4813300D03*
G01*
X4064000Y4813300D03*
G01*
X3810000Y5067300D03*
G01*
X4064000Y5067300D03*
G01*
X3810000Y5321300D03*
G01*
X4064000Y5321300D03*
G01*
X3810000Y5575300D03*
G01*
X4064000Y5575300D03*
G01*
X4876800Y9931400D03*
D15*
G01*
X4876800Y5105400D03*
D14*
G01*
X4876800Y5359400D03*
G01*
X4876800Y5613400D03*
G01*
X4876800Y5867400D03*
G01*
X4876800Y6121400D03*
G01*
X4876800Y6375400D03*
G01*
X4876800Y6629400D03*
G01*
X4876800Y6883400D03*
G01*
X4876800Y7137400D03*
G01*
X4876800Y7391400D03*
G01*
X4876800Y7645400D03*
G01*
X4876800Y7899400D03*
G01*
X4876800Y8153400D03*
G01*
X4876800Y8407400D03*
G01*
X4876800Y8661400D03*
G01*
X4876800Y8915400D03*
G01*
X4876800Y9169400D03*
G01*
X4876800Y9423400D03*
G01*
X4876800Y9677400D03*
G01*
X7543800Y9931400D03*
D15*
G01*
X7543800Y5105400D03*
D14*
G01*
X7543800Y5359400D03*
G01*
X7543800Y5613400D03*
G01*
X7543800Y5867400D03*
G01*
X7543800Y6121400D03*
G01*
X7543800Y6375400D03*
G01*
X7543800Y6629400D03*
G01*
X7543800Y6883400D03*
G01*
X7543800Y7137400D03*
G01*
X7543800Y7391400D03*
G01*
X7543800Y7645400D03*
G01*
X7543800Y7899400D03*
G01*
X7543800Y8153400D03*
G01*
X7543800Y8407400D03*
G01*
X7543800Y8661400D03*
G01*
X7543800Y8915400D03*
G01*
X7543800Y9169400D03*
G01*
X7543800Y9423400D03*
G01*
X7543800Y9677400D03*
G01*
X5765800Y9931400D03*
D15*
G01*
X5765800Y5105400D03*
D14*
G01*
X5765800Y5359400D03*
G01*
X5765800Y5613400D03*
G01*
X5765800Y5867400D03*
G01*
X5765800Y6121400D03*
G01*
X5765800Y6375400D03*
G01*
X5765800Y6629400D03*
G01*
X5765800Y6883400D03*
G01*
X5765800Y7137400D03*
G01*
X5765800Y7391400D03*
G01*
X5765800Y7645400D03*
G01*
X5765800Y7899400D03*
G01*
X5765800Y8153400D03*
G01*
X5765800Y8407400D03*
G01*
X5765800Y8661400D03*
G01*
X5765800Y8915400D03*
G01*
X5765800Y9169400D03*
G01*
X5765800Y9423400D03*
G01*
X5765800Y9677400D03*
D16*
G01*
X386105Y4782007D03*
G01*
X8166100Y4782007D03*
G01*
X386105Y9652000D03*
G01*
X8166100Y9652000D03*
D17*
G01*
X1016000Y10287000D03*
G01*
X2794000Y10287000D03*
G01*
X1016000Y10033000D03*
G01*
X1016000Y9779000D03*
G01*
X1016000Y9525000D03*
G01*
X1016000Y9271000D03*
G01*
X1016000Y9017000D03*
G01*
X1016000Y8763000D03*
G01*
X1016000Y8509000D03*
G01*
X1016000Y8255000D03*
G01*
X1016000Y8001000D03*
G01*
X1016000Y7747000D03*
G01*
X1016000Y7493000D03*
G01*
X1016000Y7239000D03*
G01*
X1016000Y6985000D03*
G01*
X1016000Y6731000D03*
G01*
X1016000Y6477000D03*
G01*
X1016000Y6223000D03*
G01*
X1016000Y5969000D03*
G01*
X1016000Y5715000D03*
G01*
X1016000Y5461000D03*
G01*
X2794000Y10033000D03*
G01*
X2794000Y9779000D03*
G01*
X2794000Y9525000D03*
G01*
X2794000Y9271000D03*
G01*
X2794000Y9017000D03*
G01*
X2794000Y8763000D03*
G01*
X2794000Y8509000D03*
G01*
X2794000Y8255000D03*
G01*
X2794000Y8001000D03*
G01*
X2794000Y7747000D03*
G01*
X2794000Y7493000D03*
G01*
X2794000Y7239000D03*
G01*
X2794000Y6985000D03*
G01*
X2794000Y6731000D03*
G01*
X2794000Y6477000D03*
G01*
X2794000Y6223000D03*
G01*
X2794000Y5969000D03*
G01*
X2794000Y5715000D03*
G01*
X2794000Y5461000D03*
G01*
X1905000Y5461000D03*
G01*
X1651000Y5461000D03*
G01*
X2159000Y5461000D03*
D18*
G01*
X3708400Y8382000D03*
G01*
X3708400Y7620000D03*
G01*
X3708400Y7366000D03*
G01*
X3708400Y6858000D03*
G01*
X3708400Y6604000D03*
G01*
X4318000Y9334500D03*
G01*
X4318000Y9601200D03*
G01*
X4318000Y9842500D03*
G01*
X6096000Y7874000D03*
G01*
X6451600Y7874000D03*
G01*
X6731000Y7861300D03*
G01*
X7086600Y7861300D03*
G01*
X3683000Y10033000D03*
G01*
X3683000Y8915400D03*
G01*
X3835400Y10033000D03*
G01*
X3835400Y9169400D03*
G01*
X647700Y9144000D03*
G01*
X647700Y8890000D03*
G01*
X3187700Y7696200D03*
G01*
X3187700Y6934200D03*
G01*
X3187700Y6680200D03*
G01*
X3187700Y6400800D03*
G01*
X3187700Y7239000D03*
G01*
X3187700Y5969000D03*
G01*
X5575300Y7645400D03*
G01*
X5626100Y6502400D03*
G01*
X228600Y9017000D03*
G01*
X5473700Y8788400D03*
G01*
X1905000Y4978400D03*
G01*
X1295400Y4978400D03*
G01*
X2514600Y4978400D03*
G01*
X774700Y4711700D03*
G01*
X3060700Y4711700D03*
G01*
X1295400Y4711700D03*
G01*
X1905000Y4711700D03*
G01*
X2514600Y4711700D03*
G01*
X2419604Y4965700D03*
G01*
X2609595Y4965700D03*
G01*
X3187700Y9144000D03*
G01*
X3187700Y9398000D03*
G01*
X4051300Y9613900D03*
G01*
X4051300Y9893300D03*
M02*
