G04 Layer: BottomSolderMaskLayer*
G04 EasyEDA v6.5.29, 2023-07-18 11:26:45*
G04 dee4f192ebb34c66a732ff03969ef4b9,5a6b42c53f6a479593ecc07194224c93,10*
G04 Gerber Generator version 0.2*
G04 Scale: 100 percent, Rotated: No, Reflected: No *
G04 Dimensions in millimeters *
G04 leading zeros omitted , absolute positions ,4 integer and 5 decimal *
%FSLAX45Y45*%
%MOMM*%

%ADD10O,6.6032126X3.4031936000000003*%
%ADD11O,8.543188400000002X2.7631898*%
%ADD12C,2.0000*%

%LPD*%
G36*
X2768600Y1457299D02*
G01*
X2758897Y1456893D01*
X2754071Y1456385D01*
X2744520Y1454708D01*
X2735173Y1452219D01*
X2726029Y1448968D01*
X2717241Y1444904D01*
X2708808Y1440129D01*
X2700782Y1434642D01*
X2693314Y1428445D01*
X2686405Y1421688D01*
X2680055Y1414322D01*
X2674416Y1406448D01*
X2669438Y1398117D01*
X2665171Y1389380D01*
X2661716Y1380337D01*
X2659024Y1371041D01*
X2657195Y1361490D01*
X2656535Y1356715D01*
X2655925Y1347012D01*
X2656128Y1337310D01*
X2656535Y1332484D01*
X2658008Y1322933D01*
X2659024Y1318158D01*
X2661716Y1308862D01*
X2665171Y1299819D01*
X2669438Y1291082D01*
X2674416Y1282750D01*
X2680055Y1274876D01*
X2686405Y1267510D01*
X2693314Y1260754D01*
X2700782Y1254556D01*
X2708808Y1249070D01*
X2717241Y1244295D01*
X2726029Y1240231D01*
X2735173Y1236980D01*
X2744520Y1234490D01*
X2754071Y1232814D01*
X2763774Y1232001D01*
X2773476Y1232001D01*
X2783128Y1232814D01*
X2792679Y1234490D01*
X2802026Y1236980D01*
X2811170Y1240231D01*
X2820009Y1244295D01*
X2828442Y1249070D01*
X2836418Y1254556D01*
X2843885Y1260754D01*
X2850845Y1267510D01*
X2857144Y1274876D01*
X2862834Y1282750D01*
X2867761Y1291082D01*
X2872028Y1299819D01*
X2875483Y1308862D01*
X2878175Y1318158D01*
X2880004Y1327708D01*
X2880664Y1332484D01*
X2881274Y1342186D01*
X2881071Y1351889D01*
X2880664Y1356715D01*
X2879191Y1366266D01*
X2878175Y1371041D01*
X2875483Y1380337D01*
X2872028Y1389380D01*
X2867761Y1398117D01*
X2862834Y1406448D01*
X2857144Y1414322D01*
X2850845Y1421688D01*
X2843885Y1428445D01*
X2836418Y1434642D01*
X2828442Y1440129D01*
X2820009Y1444904D01*
X2811170Y1448968D01*
X2802026Y1452219D01*
X2792679Y1454708D01*
X2783128Y1456385D01*
X2773476Y1457198D01*
G37*
G36*
X2768600Y1457299D02*
G01*
X2758897Y1456893D01*
X2754071Y1456385D01*
X2744520Y1454708D01*
X2735173Y1452219D01*
X2726029Y1448968D01*
X2717241Y1444904D01*
X2708808Y1440129D01*
X2700782Y1434642D01*
X2693314Y1428445D01*
X2686405Y1421688D01*
X2680055Y1414322D01*
X2674416Y1406448D01*
X2669438Y1398117D01*
X2665171Y1389380D01*
X2661716Y1380337D01*
X2659024Y1371041D01*
X2657195Y1361490D01*
X2656535Y1356715D01*
X2655925Y1347012D01*
X2656128Y1337310D01*
X2656535Y1332484D01*
X2658008Y1322933D01*
X2659024Y1318158D01*
X2661716Y1308862D01*
X2665171Y1299819D01*
X2669438Y1291082D01*
X2674416Y1282750D01*
X2680055Y1274876D01*
X2686405Y1267510D01*
X2693314Y1260754D01*
X2700782Y1254556D01*
X2708808Y1249070D01*
X2717241Y1244295D01*
X2726029Y1240231D01*
X2735173Y1236980D01*
X2744520Y1234490D01*
X2754071Y1232814D01*
X2763774Y1232001D01*
X2773476Y1232001D01*
X2783128Y1232814D01*
X2792679Y1234490D01*
X2802026Y1236980D01*
X2811170Y1240231D01*
X2820009Y1244295D01*
X2828442Y1249070D01*
X2836418Y1254556D01*
X2843885Y1260754D01*
X2850845Y1267510D01*
X2857144Y1274876D01*
X2862834Y1282750D01*
X2867761Y1291082D01*
X2872028Y1299819D01*
X2875483Y1308862D01*
X2878175Y1318158D01*
X2880004Y1327708D01*
X2880664Y1332484D01*
X2881274Y1342186D01*
X2881071Y1351889D01*
X2880664Y1356715D01*
X2879191Y1366266D01*
X2878175Y1371041D01*
X2875483Y1380337D01*
X2872028Y1389380D01*
X2867761Y1398117D01*
X2862834Y1406448D01*
X2857144Y1414322D01*
X2850845Y1421688D01*
X2843885Y1428445D01*
X2836418Y1434642D01*
X2828442Y1440129D01*
X2820009Y1444904D01*
X2811170Y1448968D01*
X2802026Y1452219D01*
X2792679Y1454708D01*
X2783128Y1456385D01*
X2773476Y1457198D01*
G37*
D10*
G01*
X685800Y12573000D03*
G01*
X3378200Y330200D03*
D11*
G01*
X2032000Y1346200D03*
D12*
G75*
G01
X2931998Y4699000D02*
G03X2931998Y4699000I-899998J0D01*
G36*
X0Y12839700D02*
G01*
X4064000Y12839700D01*
X4064000Y12128500D01*
X0Y12128500D01*
G37*
G36*
X0Y698500D02*
G01*
X4066108Y698500D01*
X4066108Y0D01*
X0Y0D01*
G37*
M02*
