M48
METRIC,LZ,000.000
;FILE_FORMAT=3:3
;TYPE=PLATED
;Layer: PTH_Through
;EasyEDA v6.5.29, 2023-07-18 11:37:26
;44a429887d2946ba859a18da238e0ce0,5a6b42c53f6a479593ecc07194224c93,10
;Gerber Generator version 0.2
;Holesize 1 = 0.305 mm
T01C0.305
;Holesize 2 = 0.901 mm
T02C0.901
;Holesize 3 = 1.000 mm
T03C1.000
%
G05
G90
T01
X032639Y101981
X029591Y102108
X029591Y099568
X029591Y094107
X029591Y096647
X032639Y094107
X017320Y114554
X030607Y114554
X032639Y071120
X029591Y071120
X029591Y068580
X029591Y074041
X029591Y076581
X032639Y076454
X032639Y081407
X029591Y083947
X029591Y081407
X029591Y086868
X029591Y089408
X032639Y089281
X007874Y089662
X006660Y085400
X012319Y086614
X013589Y092202
X015367Y083693
X004572Y085550
X015367Y088519
X003175Y095250
X009525Y094615
X011303Y089662
X009017Y089662
X009017Y087757
X011303Y087757
X012700Y089027
X004572Y087122
X003429Y090551
X005969Y092548
X008509Y091313
X007620Y091313
X004572Y092329
X005842Y093726
X009525Y093726
X008763Y094107
X004572Y093091
X004572Y093853
X010287Y086868
X010541Y091313
X011811Y095198
X011557Y084398
X011303Y086360
X013081Y083693
X005080Y081915
X012700Y091313
X009525Y086868
X009398Y091313
X012319Y081661
X011049Y080137
X011684Y077978
X014351Y073660
X013716Y071628
X010287Y080518
X010287Y065913
X026698Y065913
X038100Y050673
X035560Y045593
X012700Y045593
X033020Y040640
X012700Y040640
X013998Y039370
X030480Y039370
X014732Y038100
X027940Y038100
X001016Y111760
X021320Y111760
X031369Y027940
X010160Y027940
X002540Y027940
X012700Y033020
X005080Y033020
X007620Y030480
X026670Y030480
X001016Y059690
X005080Y059690
X017780Y034290
X006350Y034290
X020320Y035560
X007620Y035560
X002286Y089662
X001651Y089154
X006350Y060452
X001651Y060452
X007620Y061214
X002159Y061214
X026797Y090424
X026797Y096647
X027432Y091059
X027432Y102108
X020193Y089154
X026797Y083947
X020193Y088265
X026797Y076581
X020193Y087376
X017526Y087249
X017526Y108077
X018161Y086614
X018161Y106807
X018796Y085979
X018796Y092329
X019431Y085344
X019431Y091694
X026797Y071120
X007874Y088392
X008128Y087630
X008763Y086868
X008128Y080518
X007493Y079375
X008128Y078740
X008763Y077343
X035306Y078359
X009398Y078359
X036576Y079502
X002794Y088519
X002921Y087757
X003175Y086487
X003810Y085852
X002794Y062865
X002413Y062103
X036957Y062103
X003175Y076708
X003810Y076073
X034036Y101981
X033655Y094107
X033655Y081407
X034036Y089281
X034036Y076454
X034036Y070993
X033844Y060960
X008763Y061214
X008763Y063881
X015367Y091821
X016002Y084582
X003810Y087122
X009652Y081026
X011430Y067818
X016510Y026924
X019050Y026924
X021590Y026924
X024130Y026924
X026670Y026924
X013970Y026924
X029210Y026924
X031750Y026924
X034290Y026924
X036830Y026924
X011430Y026924
X008890Y026924
X006350Y026924
X003810Y026924
X039370Y026924
X001270Y026924
T02
X017320Y113030
X019320Y113030
X021320Y113030
X023320Y113030
T03
X038608Y110617
X038608Y062357
X038608Y064897
X038608Y067437
X038608Y069977
X038608Y072517
X038608Y075057
X038608Y077597
X038608Y080137
X038608Y082677
X038608Y085217
X038608Y087757
X038608Y090297
X038608Y092837
X038608Y095377
X038608Y097917
X038608Y100457
X038608Y102997
X038608Y105537
X038608Y108077
X009525Y050673
X009525Y043053
X009525Y045593
X009525Y048133
X029845Y043053
X029845Y045593
X029845Y048133
X029845Y050673
X029238Y064554
X026698Y064554
X024158Y064554
X021618Y064554
X019078Y064554
X016538Y064554
X013998Y064554
X011458Y064554
M30
