G04 Layer: BottomLayer*
G04 EasyEDA v6.5.29, 2023-07-18 11:37:26*
G04 44a429887d2946ba859a18da238e0ce0,5a6b42c53f6a479593ecc07194224c93,10*
G04 Gerber Generator version 0.2*
G04 Scale: 100 percent, Rotated: No, Reflected: No *
G04 Dimensions in millimeters *
G04 leading zeros omitted , absolute positions ,4 integer and 5 decimal *
%FSLAX45Y45*%
%MOMM*%

%AMMACRO1*21,1,$1,$2,0,0,$3*%
%ADD10C,0.2540*%
%ADD11C,0.5000*%
%ADD12C,0.1270*%
%ADD13R,1.4000X2.0000*%
%ADD14C,1.8000*%
%ADD15MACRO1,1.8X1.8X90.0000*%
%ADD16C,1.7000*%
%ADD17MACRO1,1.7X1.7X90.0000*%
%ADD18MACRO1,1.7X1.7X0.0000*%
%ADD19C,1.4000*%
%ADD20R,1.5240X1.4000*%
%ADD21C,0.6096*%
%ADD22C,0.0125*%

%LPD*%
G36*
X514502Y9341358D02*
G01*
X510489Y9342170D01*
X507136Y9344507D01*
X504951Y9347911D01*
X504342Y9351924D01*
X505307Y9355886D01*
X510184Y9366046D01*
X512673Y9375495D01*
X513537Y9385300D01*
X513080Y9390430D01*
X513689Y9394799D01*
X516026Y9398508D01*
X518363Y9400844D01*
X521665Y9403080D01*
X525576Y9403842D01*
X812241Y9403842D01*
X816508Y9402876D01*
X820013Y9400235D01*
X822045Y9396323D01*
X823366Y9391446D01*
X827481Y9382506D01*
X833119Y9374479D01*
X840079Y9367520D01*
X848106Y9361881D01*
X850646Y9360712D01*
X853795Y9358426D01*
X855827Y9355124D01*
X856487Y9351264D01*
X855675Y9347454D01*
X853440Y9344253D01*
X850188Y9342120D01*
X846328Y9341358D01*
G37*

%LPD*%
G36*
X913892Y9100058D02*
G01*
X910234Y9100718D01*
X907084Y9102648D01*
X904849Y9105595D01*
X903782Y9109151D01*
X904087Y9112859D01*
X906373Y9121495D01*
X907237Y9131300D01*
X906373Y9141104D01*
X905764Y9143441D01*
X905459Y9147149D01*
X906526Y9150705D01*
X908761Y9153601D01*
X911910Y9155582D01*
X915568Y9156242D01*
X970381Y9156242D01*
X974293Y9155480D01*
X977595Y9153245D01*
X994968Y9135872D01*
X997000Y9132976D01*
X997915Y9129572D01*
X998626Y9121495D01*
X1000912Y9112859D01*
X1001217Y9109151D01*
X1000150Y9105595D01*
X997915Y9102648D01*
X994765Y9100718D01*
X991108Y9100058D01*
G37*

%LPD*%
G36*
X965250Y8065871D02*
G01*
X961186Y8067446D01*
X958189Y8070545D01*
X910082Y8147456D01*
X908964Y8150047D01*
X908558Y8152841D01*
X908558Y8635593D01*
X909319Y8639505D01*
X911555Y8642807D01*
X919480Y8650630D01*
X925118Y8658606D01*
X929233Y8667546D01*
X931773Y8676995D01*
X932637Y8686800D01*
X931773Y8696604D01*
X929233Y8706053D01*
X925118Y8714994D01*
X919480Y8723020D01*
X912520Y8729980D01*
X904494Y8735618D01*
X895553Y8739733D01*
X886104Y8742273D01*
X877620Y8743035D01*
X873810Y8744153D01*
X870712Y8746642D01*
X868781Y8750096D01*
X868375Y8754059D01*
X869137Y8763000D01*
X868273Y8772804D01*
X865733Y8782253D01*
X861618Y8791194D01*
X855980Y8799220D01*
X849020Y8806180D01*
X844448Y8809380D01*
X841603Y8812377D01*
X840232Y8816238D01*
X840435Y8820302D01*
X842873Y8829395D01*
X843737Y8839200D01*
X842873Y8849004D01*
X842264Y8851290D01*
X841959Y8854998D01*
X843026Y8858554D01*
X845312Y8861501D01*
X848461Y8863431D01*
X852068Y8864092D01*
X979932Y8864092D01*
X983843Y8863330D01*
X987094Y8861094D01*
X989330Y8857843D01*
X990092Y8853932D01*
X990092Y8731808D01*
X989330Y8727897D01*
X987094Y8724595D01*
X985519Y8723020D01*
X979881Y8714994D01*
X975766Y8706053D01*
X973226Y8696604D01*
X972362Y8686800D01*
X973226Y8676995D01*
X975766Y8667546D01*
X979881Y8658606D01*
X985519Y8650579D01*
X992479Y8643620D01*
X1000506Y8637981D01*
X1009446Y8633866D01*
X1018895Y8631326D01*
X1028700Y8630462D01*
X1038504Y8631326D01*
X1047953Y8633866D01*
X1056894Y8637981D01*
X1058367Y8639048D01*
X1062278Y8640724D01*
X1066495Y8640622D01*
X1070305Y8638844D01*
X1073099Y8635644D01*
X1074318Y8631631D01*
X1074826Y8626195D01*
X1077366Y8616746D01*
X1081481Y8607806D01*
X1087120Y8599830D01*
X1095044Y8592007D01*
X1097280Y8588705D01*
X1098042Y8584793D01*
X1098042Y8526576D01*
X1097280Y8522665D01*
X1095044Y8519363D01*
X1069746Y8494064D01*
X1065174Y8488426D01*
X1062126Y8482431D01*
X1060348Y8475827D01*
X1059942Y8470493D01*
X1059942Y8114792D01*
X1059281Y8111134D01*
X1057351Y8107984D01*
X1054404Y8105749D01*
X1050848Y8104682D01*
X1047140Y8104987D01*
X1038504Y8107273D01*
X1028700Y8108137D01*
X1018895Y8107273D01*
X1009446Y8104733D01*
X1000506Y8100618D01*
X992479Y8094980D01*
X985519Y8088020D01*
X979881Y8079994D01*
X976020Y8071612D01*
X973378Y8068208D01*
X969568Y8066176D01*
G37*

%LPD*%
G36*
X36830Y5970422D02*
G01*
X32715Y5970981D01*
X29159Y5973114D01*
X26771Y5976518D01*
X25908Y5980582D01*
X25908Y11164417D01*
X26771Y11168481D01*
X29159Y11171885D01*
X32715Y11174018D01*
X36830Y11174577D01*
X40792Y11173409D01*
X43992Y11170767D01*
X45872Y11167059D01*
X48666Y11156746D01*
X52781Y11147806D01*
X58419Y11139779D01*
X59994Y11138204D01*
X62230Y11134902D01*
X62991Y11130991D01*
X62991Y6014008D01*
X62230Y6010097D01*
X59994Y6006795D01*
X58419Y6005220D01*
X52781Y5997194D01*
X48666Y5988253D01*
X45872Y5977940D01*
X43992Y5974232D01*
X40792Y5971590D01*
G37*

%LPD*%
G36*
X2392070Y2514600D02*
G01*
X2388158Y2515362D01*
X2384856Y2517597D01*
X2382672Y2520848D01*
X2381910Y2524760D01*
X2381910Y2614015D01*
X2381199Y2620365D01*
X2379268Y2625801D01*
X2376170Y2630728D01*
X2372106Y2634792D01*
X2367178Y2637891D01*
X2361742Y2639822D01*
X2355443Y2640533D01*
X2334768Y2640533D01*
X2330856Y2641295D01*
X2327605Y2643479D01*
X2325370Y2646781D01*
X2324608Y2650693D01*
X2324608Y4158081D01*
X2325370Y4161993D01*
X2327605Y4165295D01*
X2484069Y4321759D01*
X2487320Y4323943D01*
X2491232Y4324705D01*
X2495143Y4323943D01*
X2498394Y4321759D01*
X2500630Y4318457D01*
X2501392Y4314545D01*
X2501392Y2650693D01*
X2500630Y2646781D01*
X2498394Y2643479D01*
X2495143Y2641295D01*
X2491232Y2640533D01*
X2470556Y2640533D01*
X2464257Y2639822D01*
X2458770Y2637891D01*
X2453894Y2634792D01*
X2449779Y2630728D01*
X2446680Y2625801D01*
X2444800Y2620365D01*
X2444089Y2614015D01*
X2444089Y2524760D01*
X2443327Y2520848D01*
X2441092Y2517597D01*
X2437790Y2515362D01*
X2433929Y2514600D01*
G37*

%LPD*%
G36*
X36068Y2514600D02*
G01*
X32156Y2515362D01*
X28905Y2517597D01*
X26670Y2520848D01*
X25908Y2524760D01*
X25908Y5957417D01*
X26771Y5961481D01*
X29159Y5964885D01*
X32715Y5967018D01*
X36830Y5967577D01*
X40792Y5966409D01*
X43992Y5963767D01*
X45872Y5960059D01*
X48666Y5949746D01*
X52781Y5940806D01*
X58419Y5932779D01*
X65379Y5925820D01*
X73406Y5920181D01*
X82346Y5916066D01*
X91795Y5913526D01*
X101600Y5912662D01*
X111404Y5913526D01*
X120853Y5916066D01*
X129794Y5920181D01*
X137820Y5925820D01*
X144780Y5932779D01*
X150418Y5940806D01*
X154533Y5949746D01*
X157073Y5959195D01*
X157937Y5969000D01*
X157175Y5977940D01*
X157581Y5981903D01*
X159512Y5985357D01*
X162610Y5987846D01*
X166420Y5988964D01*
X174904Y5989726D01*
X184353Y5992266D01*
X193294Y5996381D01*
X201320Y6002020D01*
X208279Y6008979D01*
X213918Y6017006D01*
X218033Y6025946D01*
X220573Y6035395D01*
X221437Y6045200D01*
X220522Y6055817D01*
X220827Y6059322D01*
X222300Y6062522D01*
X224790Y6065062D01*
X227990Y6066536D01*
X235153Y6068466D01*
X244094Y6072581D01*
X252120Y6078220D01*
X259079Y6085179D01*
X264718Y6093206D01*
X268833Y6102146D01*
X271373Y6111595D01*
X272237Y6121400D01*
X271373Y6131204D01*
X268833Y6140704D01*
X265328Y6148476D01*
X264464Y6151880D01*
X264769Y6155334D01*
X266242Y6158534D01*
X268732Y6160973D01*
X277520Y6167120D01*
X284480Y6174079D01*
X290118Y6182106D01*
X294233Y6191046D01*
X296773Y6200495D01*
X297637Y6210300D01*
X296773Y6220104D01*
X296011Y6223050D01*
X295706Y6226556D01*
X296621Y6229959D01*
X298653Y6232855D01*
X301498Y6234887D01*
X307594Y6237681D01*
X315620Y6243320D01*
X322580Y6250279D01*
X328218Y6258306D01*
X332333Y6267246D01*
X334873Y6276695D01*
X335737Y6286500D01*
X334873Y6296304D01*
X332333Y6305753D01*
X328218Y6314694D01*
X322580Y6322720D01*
X315620Y6329680D01*
X307594Y6335318D01*
X298653Y6339433D01*
X293776Y6340754D01*
X289864Y6342786D01*
X287223Y6346291D01*
X286258Y6350558D01*
X286258Y7607808D01*
X286918Y7611465D01*
X288848Y7614615D01*
X291795Y7616850D01*
X295351Y7617917D01*
X299059Y7617612D01*
X307695Y7615326D01*
X315569Y7614615D01*
X318973Y7613700D01*
X321868Y7611668D01*
X323900Y7608773D01*
X324815Y7605369D01*
X325526Y7597495D01*
X328066Y7588046D01*
X332181Y7579106D01*
X337820Y7571079D01*
X344779Y7564120D01*
X352806Y7558481D01*
X361746Y7554366D01*
X371195Y7551826D01*
X381000Y7550962D01*
X390804Y7551826D01*
X400253Y7554366D01*
X409194Y7558481D01*
X417220Y7564120D01*
X424180Y7571079D01*
X429818Y7579106D01*
X433933Y7588046D01*
X436473Y7597495D01*
X437337Y7607300D01*
X436473Y7617104D01*
X433933Y7626553D01*
X429818Y7635494D01*
X424180Y7643469D01*
X416255Y7651292D01*
X414020Y7654594D01*
X413258Y7658506D01*
X413258Y8207095D01*
X414020Y8211007D01*
X416255Y8214309D01*
X419506Y8216493D01*
X423418Y8217255D01*
X427329Y8216493D01*
X430580Y8214309D01*
X448868Y8196021D01*
X450900Y8193125D01*
X451815Y8189722D01*
X452526Y8181695D01*
X455066Y8172246D01*
X459181Y8163306D01*
X464820Y8155279D01*
X471779Y8148320D01*
X479806Y8142681D01*
X488746Y8138566D01*
X498195Y8136026D01*
X508000Y8135162D01*
X517804Y8136026D01*
X527253Y8138566D01*
X536194Y8142681D01*
X544220Y8148320D01*
X551180Y8155279D01*
X556818Y8163306D01*
X560933Y8172246D01*
X563473Y8181695D01*
X564337Y8191500D01*
X563473Y8201304D01*
X560933Y8210753D01*
X556818Y8219694D01*
X551180Y8227720D01*
X544220Y8234680D01*
X536194Y8240318D01*
X527253Y8244433D01*
X517804Y8246973D01*
X509778Y8247684D01*
X506374Y8248599D01*
X503478Y8250631D01*
X498805Y8255304D01*
X496570Y8258606D01*
X495808Y8262518D01*
X495808Y8509965D01*
X496570Y8513876D01*
X498805Y8517178D01*
X500380Y8518753D01*
X506018Y8526780D01*
X510133Y8535720D01*
X512673Y8545169D01*
X513537Y8554974D01*
X512673Y8564778D01*
X510133Y8574227D01*
X506018Y8583168D01*
X500380Y8591194D01*
X498805Y8592769D01*
X496570Y8596071D01*
X495808Y8599982D01*
X495808Y8667191D01*
X496570Y8671102D01*
X498805Y8674404D01*
X500380Y8675979D01*
X506018Y8684006D01*
X510133Y8692946D01*
X512673Y8702395D01*
X513384Y8710422D01*
X514299Y8713825D01*
X516331Y8716721D01*
X660704Y8861094D01*
X664006Y8863330D01*
X667918Y8864092D01*
X722731Y8864092D01*
X726338Y8863431D01*
X729488Y8861501D01*
X731774Y8858554D01*
X732840Y8854998D01*
X732536Y8851290D01*
X731926Y8849004D01*
X731062Y8839200D01*
X731520Y8834069D01*
X730910Y8829700D01*
X728573Y8825992D01*
X726846Y8824264D01*
X722274Y8818626D01*
X719226Y8812631D01*
X717448Y8806027D01*
X717042Y8800693D01*
X717042Y7988706D01*
X716280Y7984794D01*
X714044Y7981492D01*
X706120Y7973669D01*
X700481Y7965694D01*
X696366Y7956753D01*
X693826Y7947304D01*
X692962Y7937500D01*
X693826Y7927695D01*
X696366Y7918246D01*
X700481Y7909306D01*
X706120Y7901279D01*
X713079Y7894320D01*
X721106Y7888681D01*
X730046Y7884566D01*
X739495Y7882026D01*
X747369Y7881315D01*
X750773Y7880400D01*
X753668Y7878368D01*
X755700Y7875473D01*
X756615Y7872069D01*
X757326Y7864195D01*
X759866Y7854746D01*
X763981Y7845806D01*
X769620Y7837779D01*
X776579Y7830820D01*
X784606Y7825181D01*
X793546Y7821066D01*
X802995Y7818526D01*
X812800Y7817662D01*
X822604Y7818526D01*
X831240Y7820812D01*
X834948Y7821117D01*
X838504Y7820050D01*
X841451Y7817815D01*
X843381Y7814665D01*
X844042Y7811008D01*
X844042Y7785506D01*
X843280Y7781594D01*
X841044Y7778292D01*
X833119Y7770469D01*
X827481Y7762494D01*
X823366Y7753553D01*
X820826Y7744104D01*
X819962Y7734300D01*
X820826Y7724495D01*
X823366Y7715046D01*
X827481Y7706106D01*
X833119Y7698079D01*
X840079Y7691120D01*
X848106Y7685481D01*
X857046Y7681366D01*
X866495Y7678826D01*
X876300Y7677962D01*
X886104Y7678826D01*
X895553Y7681366D01*
X904494Y7685481D01*
X912520Y7691120D01*
X919480Y7698079D01*
X925118Y7706106D01*
X929233Y7715046D01*
X931773Y7724495D01*
X932637Y7734300D01*
X931773Y7744104D01*
X929233Y7753553D01*
X925118Y7762494D01*
X923899Y7764170D01*
X922324Y7767675D01*
X922172Y7771485D01*
X923442Y7775092D01*
X925931Y7777988D01*
X929284Y7779766D01*
X933094Y7780121D01*
X939800Y7779562D01*
X949604Y7780426D01*
X959053Y7782966D01*
X967994Y7787081D01*
X974090Y7791399D01*
X978153Y7793075D01*
X982573Y7792872D01*
X986485Y7790840D01*
X989126Y7787386D01*
X990092Y7783068D01*
X990092Y6636308D01*
X989330Y6632397D01*
X987094Y6629095D01*
X985519Y6627520D01*
X979881Y6619494D01*
X975766Y6610553D01*
X973226Y6601104D01*
X972362Y6591300D01*
X973226Y6581495D01*
X975766Y6572046D01*
X979881Y6563106D01*
X985519Y6555079D01*
X992479Y6548120D01*
X1000506Y6542481D01*
X1005586Y6540144D01*
X1008481Y6538112D01*
X1040231Y6506362D01*
X1042314Y6503314D01*
X1043178Y6499656D01*
X1042669Y6495999D01*
X1038555Y6483502D01*
X1035812Y6469583D01*
X1034897Y6455410D01*
X1035812Y6441186D01*
X1038555Y6427266D01*
X1043025Y6413754D01*
X1049172Y6400952D01*
X1056944Y6389065D01*
X1066139Y6378244D01*
X1076655Y6368694D01*
X1088288Y6360566D01*
X1100886Y6354013D01*
X1114247Y6349085D01*
X1128115Y6345936D01*
X1142238Y6344564D01*
X1156462Y6345021D01*
X1170482Y6347256D01*
X1184097Y6351320D01*
X1197102Y6357061D01*
X1209243Y6364427D01*
X1220368Y6373317D01*
X1230223Y6383528D01*
X1238707Y6394907D01*
X1245717Y6407251D01*
X1251051Y6420459D01*
X1254658Y6434175D01*
X1256436Y6448298D01*
X1256436Y6462471D01*
X1254658Y6476593D01*
X1251051Y6490309D01*
X1245717Y6503517D01*
X1238707Y6515862D01*
X1230223Y6527292D01*
X1220368Y6537452D01*
X1209243Y6546342D01*
X1197102Y6553708D01*
X1184097Y6559448D01*
X1170482Y6563512D01*
X1156462Y6565747D01*
X1142238Y6566204D01*
X1128115Y6564833D01*
X1114247Y6561683D01*
X1105611Y6558534D01*
X1101852Y6557873D01*
X1098092Y6558737D01*
X1094943Y6560870D01*
X1086256Y6569557D01*
X1084224Y6572453D01*
X1083310Y6575856D01*
X1083614Y6579362D01*
X1084173Y6581495D01*
X1085037Y6591300D01*
X1084173Y6601104D01*
X1081633Y6610553D01*
X1077518Y6619494D01*
X1071880Y6627520D01*
X1070305Y6629095D01*
X1068070Y6632397D01*
X1067308Y6636308D01*
X1067308Y7953349D01*
X1068120Y7957312D01*
X1070406Y7960664D01*
X1073810Y7962849D01*
X1077823Y7963509D01*
X1081786Y7962544D01*
X1085646Y7960766D01*
X1095095Y7958226D01*
X1104900Y7957362D01*
X1114704Y7958226D01*
X1123340Y7960512D01*
X1127048Y7960817D01*
X1130604Y7959750D01*
X1133551Y7957515D01*
X1135481Y7954365D01*
X1136142Y7950708D01*
X1136142Y7849006D01*
X1135380Y7845094D01*
X1133144Y7841792D01*
X1125220Y7833969D01*
X1119581Y7825994D01*
X1115466Y7817053D01*
X1112926Y7807604D01*
X1112062Y7797800D01*
X1112926Y7787995D01*
X1115466Y7778546D01*
X1119581Y7769606D01*
X1125220Y7761579D01*
X1132179Y7754620D01*
X1140206Y7748981D01*
X1149146Y7744866D01*
X1158595Y7742326D01*
X1168400Y7741462D01*
X1178204Y7742326D01*
X1187653Y7744866D01*
X1196594Y7748981D01*
X1204620Y7754620D01*
X1211580Y7761579D01*
X1217218Y7769606D01*
X1221333Y7778546D01*
X1223873Y7787995D01*
X1224737Y7797800D01*
X1223873Y7807604D01*
X1221333Y7817053D01*
X1217218Y7825994D01*
X1211580Y7833969D01*
X1203655Y7841792D01*
X1201420Y7845094D01*
X1200658Y7849006D01*
X1200658Y8402929D01*
X1201115Y8405977D01*
X1202486Y8408771D01*
X1204518Y8411616D01*
X1208633Y8420506D01*
X1211173Y8430006D01*
X1212037Y8439759D01*
X1211173Y8449564D01*
X1208633Y8459063D01*
X1204518Y8467953D01*
X1198880Y8476030D01*
X1191920Y8482939D01*
X1183894Y8488578D01*
X1174953Y8492744D01*
X1169670Y8494166D01*
X1166520Y8495639D01*
X1164031Y8498078D01*
X1162507Y8501278D01*
X1162202Y8504783D01*
X1162558Y8509406D01*
X1162558Y8584793D01*
X1163320Y8588705D01*
X1165555Y8592007D01*
X1173480Y8599830D01*
X1179118Y8607806D01*
X1183233Y8616746D01*
X1185773Y8626195D01*
X1186637Y8636000D01*
X1185773Y8645804D01*
X1183233Y8655253D01*
X1179118Y8664194D01*
X1173480Y8672220D01*
X1166520Y8679180D01*
X1158494Y8684818D01*
X1149553Y8688933D01*
X1140104Y8691473D01*
X1130300Y8692337D01*
X1120495Y8691473D01*
X1111046Y8688933D01*
X1102106Y8684818D01*
X1100632Y8683752D01*
X1096721Y8682075D01*
X1092504Y8682177D01*
X1088694Y8683955D01*
X1085900Y8687155D01*
X1084681Y8691168D01*
X1084173Y8696604D01*
X1081633Y8706053D01*
X1077518Y8714994D01*
X1071880Y8723020D01*
X1070305Y8724595D01*
X1068070Y8727897D01*
X1067308Y8731808D01*
X1067308Y8853932D01*
X1068070Y8857843D01*
X1070305Y8861094D01*
X1073607Y8863330D01*
X1077468Y8864092D01*
X1221232Y8864092D01*
X1225143Y8863330D01*
X1228394Y8861094D01*
X1230630Y8857843D01*
X1231392Y8853932D01*
X1231392Y8788958D01*
X1232204Y8780881D01*
X1234389Y8773668D01*
X1237945Y8766962D01*
X1243076Y8760764D01*
X1266494Y8737295D01*
X1268730Y8733993D01*
X1269492Y8730081D01*
X1269492Y8414308D01*
X1268730Y8410397D01*
X1266494Y8407095D01*
X1264920Y8405520D01*
X1259281Y8397494D01*
X1255166Y8388553D01*
X1252626Y8379104D01*
X1251762Y8369300D01*
X1252626Y8359495D01*
X1255166Y8350046D01*
X1259281Y8341106D01*
X1264920Y8333079D01*
X1271879Y8326120D01*
X1279906Y8320481D01*
X1288846Y8316366D01*
X1298295Y8313826D01*
X1308100Y8312962D01*
X1317904Y8313826D01*
X1326540Y8316112D01*
X1330248Y8316417D01*
X1333804Y8315350D01*
X1336751Y8313115D01*
X1338681Y8309965D01*
X1339342Y8306308D01*
X1339342Y7214006D01*
X1338580Y7210094D01*
X1336344Y7206792D01*
X1328420Y7198969D01*
X1322781Y7190994D01*
X1318666Y7182053D01*
X1316126Y7172604D01*
X1315262Y7162800D01*
X1316126Y7152995D01*
X1318666Y7143546D01*
X1322781Y7134606D01*
X1328420Y7126579D01*
X1335379Y7119620D01*
X1343406Y7113981D01*
X1352346Y7109866D01*
X1361795Y7107326D01*
X1371600Y7106462D01*
X1381404Y7107326D01*
X1390853Y7109866D01*
X1399794Y7113981D01*
X1407820Y7119620D01*
X1414780Y7126579D01*
X1420418Y7134606D01*
X1424533Y7143546D01*
X1427073Y7152995D01*
X1427937Y7162800D01*
X1427073Y7172604D01*
X1424533Y7182053D01*
X1420418Y7190994D01*
X1414780Y7198969D01*
X1406855Y7206792D01*
X1404620Y7210094D01*
X1403858Y7214006D01*
X1403858Y7303008D01*
X1404518Y7306665D01*
X1406448Y7309815D01*
X1409395Y7312050D01*
X1412951Y7313117D01*
X1416659Y7312812D01*
X1425295Y7310526D01*
X1435100Y7309662D01*
X1444904Y7310526D01*
X1454353Y7313066D01*
X1463294Y7317181D01*
X1471320Y7322820D01*
X1478280Y7329779D01*
X1483918Y7337806D01*
X1488033Y7346746D01*
X1490573Y7356195D01*
X1491437Y7366000D01*
X1490573Y7375804D01*
X1488033Y7385253D01*
X1483918Y7394194D01*
X1478280Y7402169D01*
X1470355Y7409992D01*
X1468120Y7413294D01*
X1467358Y7417206D01*
X1467358Y8267192D01*
X1466596Y8274405D01*
X1464513Y8280806D01*
X1461109Y8286750D01*
X1457096Y8291322D01*
X1455318Y8294420D01*
X1454658Y8297976D01*
X1454658Y8927592D01*
X1453896Y8934805D01*
X1451813Y8941206D01*
X1448409Y8947150D01*
X1444904Y8951214D01*
X1314196Y9081922D01*
X1312164Y9084818D01*
X1311249Y9088221D01*
X1311554Y9091726D01*
X1313078Y9094927D01*
X1318818Y9103106D01*
X1322933Y9112046D01*
X1325473Y9121495D01*
X1326337Y9131300D01*
X1325473Y9141104D01*
X1322933Y9150553D01*
X1320190Y9156496D01*
X1319225Y9160510D01*
X1319936Y9164574D01*
X1322222Y9167977D01*
X1325626Y9170263D01*
X1329690Y9170974D01*
X1333703Y9170009D01*
X1339646Y9167266D01*
X1349095Y9164726D01*
X1358900Y9163862D01*
X1368704Y9164726D01*
X1378153Y9167266D01*
X1387094Y9171381D01*
X1395120Y9177020D01*
X1402080Y9183979D01*
X1407718Y9192006D01*
X1411833Y9200946D01*
X1414373Y9210395D01*
X1415237Y9220200D01*
X1414373Y9230004D01*
X1411833Y9239453D01*
X1407718Y9248394D01*
X1402080Y9256420D01*
X1395120Y9263380D01*
X1387094Y9269018D01*
X1378153Y9273133D01*
X1368704Y9275673D01*
X1358900Y9276537D01*
X1349095Y9275673D01*
X1339646Y9273133D01*
X1330706Y9269018D01*
X1324610Y9264700D01*
X1320546Y9263024D01*
X1316126Y9263227D01*
X1312214Y9265259D01*
X1309573Y9268714D01*
X1308608Y9273032D01*
X1308608Y9435592D01*
X1307795Y9443618D01*
X1305610Y9450832D01*
X1302054Y9457537D01*
X1296974Y9463735D01*
X1239723Y9520986D01*
X1237691Y9523882D01*
X1236776Y9527286D01*
X1236573Y9529572D01*
X1234033Y9539071D01*
X1229918Y9547961D01*
X1224280Y9556038D01*
X1217320Y9562947D01*
X1209294Y9568586D01*
X1200353Y9572752D01*
X1190904Y9575292D01*
X1181100Y9576155D01*
X1171295Y9575292D01*
X1161846Y9572752D01*
X1152906Y9568586D01*
X1144879Y9562947D01*
X1137920Y9556038D01*
X1132281Y9547961D01*
X1128166Y9539071D01*
X1125626Y9529572D01*
X1124762Y9519767D01*
X1125626Y9510014D01*
X1128166Y9500514D01*
X1132281Y9491624D01*
X1137920Y9483547D01*
X1144879Y9476638D01*
X1152906Y9470999D01*
X1161846Y9466834D01*
X1171295Y9464294D01*
X1181100Y9463430D01*
X1182776Y9463582D01*
X1187145Y9463024D01*
X1190853Y9460636D01*
X1228394Y9423095D01*
X1230630Y9419793D01*
X1231392Y9415881D01*
X1231392Y9180068D01*
X1230630Y9176156D01*
X1228394Y9172905D01*
X1225143Y9170670D01*
X1221232Y9169908D01*
X1099108Y9169908D01*
X1095197Y9170670D01*
X1091895Y9172905D01*
X1090320Y9174480D01*
X1082294Y9180118D01*
X1073353Y9184233D01*
X1063904Y9186773D01*
X1055928Y9187484D01*
X1052525Y9188399D01*
X1049629Y9190431D01*
X1018235Y9221774D01*
X1012037Y9226905D01*
X1005382Y9230461D01*
X998118Y9232646D01*
X990092Y9233458D01*
X553618Y9233458D01*
X549706Y9234220D01*
X546404Y9236405D01*
X523341Y9259519D01*
X521157Y9262821D01*
X520344Y9266682D01*
X521157Y9270593D01*
X523341Y9273844D01*
X526643Y9276080D01*
X530504Y9276842D01*
X875792Y9276842D01*
X883005Y9277604D01*
X889406Y9279686D01*
X895350Y9283141D01*
X899414Y9286595D01*
X928471Y9315653D01*
X931367Y9317685D01*
X934770Y9318599D01*
X938276Y9318294D01*
X942695Y9317126D01*
X952500Y9316262D01*
X962304Y9317126D01*
X971753Y9319666D01*
X980694Y9323781D01*
X988720Y9329420D01*
X995680Y9336379D01*
X1001318Y9344406D01*
X1005433Y9353346D01*
X1007973Y9362795D01*
X1008837Y9372600D01*
X1007973Y9382404D01*
X1005433Y9391853D01*
X1001318Y9400794D01*
X995680Y9408820D01*
X988720Y9415780D01*
X980694Y9421418D01*
X971753Y9425533D01*
X962304Y9428073D01*
X952500Y9428937D01*
X942695Y9428073D01*
X939749Y9427311D01*
X936244Y9427006D01*
X932840Y9427921D01*
X929944Y9429953D01*
X927912Y9432798D01*
X925118Y9438894D01*
X919480Y9446920D01*
X912520Y9453880D01*
X904494Y9459518D01*
X895553Y9463633D01*
X886104Y9466173D01*
X876300Y9467037D01*
X865632Y9466122D01*
X862330Y9466376D01*
X855929Y9467951D01*
X850493Y9468358D01*
X508558Y9468358D01*
X501294Y9467596D01*
X494893Y9465513D01*
X488950Y9462058D01*
X484885Y9458604D01*
X470408Y9444126D01*
X466699Y9441789D01*
X462330Y9441180D01*
X457200Y9441637D01*
X447395Y9440773D01*
X437946Y9438233D01*
X429006Y9434118D01*
X420979Y9428480D01*
X414020Y9421520D01*
X408381Y9413494D01*
X404266Y9404553D01*
X401726Y9395104D01*
X400862Y9385300D01*
X401726Y9375495D01*
X404266Y9366046D01*
X408381Y9357106D01*
X411276Y9353042D01*
X412902Y9349232D01*
X412902Y9345168D01*
X411276Y9341358D01*
X408381Y9337294D01*
X404266Y9328353D01*
X401726Y9318904D01*
X400862Y9309100D01*
X401726Y9299295D01*
X404266Y9289846D01*
X408381Y9280906D01*
X411276Y9276842D01*
X412902Y9273032D01*
X412902Y9268968D01*
X411276Y9265158D01*
X408381Y9261094D01*
X404266Y9252153D01*
X401726Y9242704D01*
X400862Y9232900D01*
X401726Y9223095D01*
X404266Y9213646D01*
X408381Y9204706D01*
X414020Y9196679D01*
X420979Y9189720D01*
X429006Y9184081D01*
X437946Y9179966D01*
X447395Y9177426D01*
X457200Y9176562D01*
X467004Y9177426D01*
X476453Y9179966D01*
X481787Y9182404D01*
X485749Y9183370D01*
X489813Y9182658D01*
X493268Y9180372D01*
X505764Y9167876D01*
X511962Y9162796D01*
X518668Y9159240D01*
X525881Y9157004D01*
X533908Y9156242D01*
X697331Y9156242D01*
X700989Y9155582D01*
X704138Y9153601D01*
X706374Y9150705D01*
X707440Y9147149D01*
X707136Y9143441D01*
X706526Y9141104D01*
X705662Y9131300D01*
X706526Y9121495D01*
X709066Y9112046D01*
X713181Y9103106D01*
X718820Y9095079D01*
X725779Y9088120D01*
X733806Y9082481D01*
X742746Y9078366D01*
X752195Y9075826D01*
X762000Y9074962D01*
X767130Y9075420D01*
X771499Y9074810D01*
X775208Y9072473D01*
X840435Y9007246D01*
X846074Y9002674D01*
X852068Y8999626D01*
X858672Y8997848D01*
X864006Y8997442D01*
X1227023Y8997442D01*
X1230934Y8996680D01*
X1234236Y8994444D01*
X1255877Y8972804D01*
X1258163Y8969248D01*
X1258824Y8965082D01*
X1257757Y8961018D01*
X1255064Y8957716D01*
X1241806Y8951518D01*
X1233779Y8945880D01*
X1232204Y8944305D01*
X1228902Y8942070D01*
X1224991Y8941308D01*
X1061262Y8941308D01*
X1057859Y8941917D01*
X1054811Y8943594D01*
X1050137Y8947454D01*
X1043482Y8951010D01*
X1036218Y8953195D01*
X1028700Y8953957D01*
X1021181Y8953195D01*
X1013968Y8951010D01*
X1007262Y8947454D01*
X1002588Y8943594D01*
X999591Y8941917D01*
X996137Y8941308D01*
X648208Y8941308D01*
X640181Y8940495D01*
X632968Y8938310D01*
X626262Y8934754D01*
X620064Y8929624D01*
X461721Y8771331D01*
X458825Y8769299D01*
X455422Y8768384D01*
X447395Y8767673D01*
X437946Y8765133D01*
X429006Y8761018D01*
X420979Y8755380D01*
X414020Y8748420D01*
X408381Y8740394D01*
X404266Y8731453D01*
X401726Y8722004D01*
X400862Y8712200D01*
X401726Y8702395D01*
X404266Y8692946D01*
X408381Y8684006D01*
X414020Y8675979D01*
X415594Y8674404D01*
X417830Y8671102D01*
X418592Y8667191D01*
X418592Y8645550D01*
X417779Y8641588D01*
X415493Y8638235D01*
X412089Y8636050D01*
X408076Y8635390D01*
X404114Y8636355D01*
X400253Y8638133D01*
X390804Y8640673D01*
X382930Y8641384D01*
X379526Y8642299D01*
X376631Y8644331D01*
X374599Y8647226D01*
X373684Y8650630D01*
X372973Y8658504D01*
X370433Y8667953D01*
X366318Y8676894D01*
X360680Y8684920D01*
X353720Y8691880D01*
X345694Y8697518D01*
X336753Y8701633D01*
X327304Y8704173D01*
X318160Y8704986D01*
X313944Y8706307D01*
X310692Y8709304D01*
X309016Y8713368D01*
X309219Y8717737D01*
X311251Y8721648D01*
X314756Y8724341D01*
X320294Y8726881D01*
X328320Y8732520D01*
X335280Y8739479D01*
X340918Y8747506D01*
X345033Y8756446D01*
X347573Y8765895D01*
X348437Y8775700D01*
X347573Y8785504D01*
X345033Y8794953D01*
X340918Y8803894D01*
X335280Y8811920D01*
X331724Y8815476D01*
X329488Y8818880D01*
X328726Y8822944D01*
X329692Y8826957D01*
X332333Y8832646D01*
X334873Y8842095D01*
X335737Y8851900D01*
X334873Y8861704D01*
X332333Y8871153D01*
X328218Y8880094D01*
X322580Y8888120D01*
X315620Y8895080D01*
X307594Y8900718D01*
X298653Y8904833D01*
X289204Y8907373D01*
X279400Y8908237D01*
X274929Y8907881D01*
X270865Y8908338D01*
X267309Y8910421D01*
X264820Y8913723D01*
X263906Y8917736D01*
X264668Y8921800D01*
X266954Y8925204D01*
X271780Y8930030D01*
X277418Y8938006D01*
X281533Y8946946D01*
X284073Y8956395D01*
X284937Y8966200D01*
X284073Y8976004D01*
X281533Y8985453D01*
X277418Y8994394D01*
X271780Y9002420D01*
X264820Y9009380D01*
X256794Y9015018D01*
X247853Y9019133D01*
X238404Y9021673D01*
X228600Y9022537D01*
X218795Y9021673D01*
X209346Y9019133D01*
X200406Y9015018D01*
X192379Y9009380D01*
X185420Y9002420D01*
X179781Y8994394D01*
X175666Y8985453D01*
X173990Y8979255D01*
X172110Y8975547D01*
X169011Y8972905D01*
X165049Y8971737D01*
X155295Y8970873D01*
X153009Y8970264D01*
X149301Y8969959D01*
X145745Y8971026D01*
X142798Y8973312D01*
X140868Y8976461D01*
X140208Y8980068D01*
X140208Y11130991D01*
X140970Y11134902D01*
X143205Y11138204D01*
X144780Y11139779D01*
X150418Y11147806D01*
X154533Y11156746D01*
X157073Y11166195D01*
X157937Y11176000D01*
X157073Y11185804D01*
X154533Y11195253D01*
X150418Y11204194D01*
X144780Y11212220D01*
X137820Y11219180D01*
X129794Y11224818D01*
X120853Y11228933D01*
X111404Y11231473D01*
X101600Y11232337D01*
X91795Y11231473D01*
X82346Y11228933D01*
X73406Y11224818D01*
X65379Y11219180D01*
X58419Y11212220D01*
X52781Y11204194D01*
X48666Y11195253D01*
X45872Y11184940D01*
X43992Y11181232D01*
X40792Y11178590D01*
X36830Y11177422D01*
X32715Y11177981D01*
X29159Y11180114D01*
X26771Y11183518D01*
X25908Y11187582D01*
X25908Y11901932D01*
X26670Y11905843D01*
X28905Y11909094D01*
X32156Y11911330D01*
X36068Y11912092D01*
X4027932Y11912092D01*
X4031843Y11911330D01*
X4035094Y11909094D01*
X4037329Y11905843D01*
X4038092Y11901932D01*
X4038092Y2524760D01*
X4037329Y2520848D01*
X4035094Y2517597D01*
X4031843Y2515362D01*
X4027932Y2514600D01*
X3916070Y2514600D01*
X3912158Y2515362D01*
X3908856Y2517597D01*
X3906672Y2520848D01*
X3905910Y2524760D01*
X3905910Y2614015D01*
X3905199Y2620365D01*
X3903268Y2625801D01*
X3900170Y2630728D01*
X3896106Y2634792D01*
X3891178Y2637891D01*
X3885742Y2639822D01*
X3879443Y2640533D01*
X3858768Y2640533D01*
X3854856Y2641295D01*
X3851605Y2643479D01*
X3849370Y2646781D01*
X3848608Y2650693D01*
X3848608Y5022291D01*
X3849370Y5026202D01*
X3851605Y5029504D01*
X3853179Y5031079D01*
X3858818Y5039106D01*
X3862933Y5048046D01*
X3865473Y5057495D01*
X3866337Y5067300D01*
X3865473Y5077104D01*
X3862933Y5086553D01*
X3858818Y5095494D01*
X3853179Y5103520D01*
X3846220Y5110480D01*
X3838194Y5116118D01*
X3829253Y5120233D01*
X3819804Y5122773D01*
X3810000Y5123637D01*
X3800195Y5122773D01*
X3790746Y5120233D01*
X3781806Y5116118D01*
X3773779Y5110480D01*
X3766820Y5103520D01*
X3761181Y5095494D01*
X3757066Y5086553D01*
X3754526Y5077104D01*
X3753662Y5067300D01*
X3754526Y5057495D01*
X3757066Y5048046D01*
X3761181Y5039106D01*
X3766820Y5031079D01*
X3768394Y5029504D01*
X3770629Y5026202D01*
X3771392Y5022291D01*
X3771392Y2650693D01*
X3770629Y2646781D01*
X3768394Y2643479D01*
X3765143Y2641295D01*
X3761232Y2640533D01*
X3740556Y2640533D01*
X3734257Y2639822D01*
X3728770Y2637891D01*
X3723894Y2634792D01*
X3719779Y2630728D01*
X3716680Y2625801D01*
X3714800Y2620365D01*
X3714089Y2614015D01*
X3714089Y2524760D01*
X3713327Y2520848D01*
X3711092Y2517597D01*
X3707790Y2515362D01*
X3703929Y2514600D01*
X3662070Y2514600D01*
X3658158Y2515362D01*
X3654856Y2517597D01*
X3652672Y2520848D01*
X3651910Y2524760D01*
X3651910Y2614015D01*
X3651199Y2620365D01*
X3649268Y2625801D01*
X3646170Y2630728D01*
X3642106Y2634792D01*
X3637178Y2637891D01*
X3631742Y2639822D01*
X3625443Y2640533D01*
X3604768Y2640533D01*
X3600856Y2641295D01*
X3597605Y2643479D01*
X3595370Y2646781D01*
X3594608Y2650693D01*
X3594608Y4514291D01*
X3595370Y4518202D01*
X3597605Y4521504D01*
X3599179Y4523079D01*
X3604818Y4531106D01*
X3608933Y4540046D01*
X3611473Y4549495D01*
X3612337Y4559300D01*
X3611473Y4569104D01*
X3608933Y4578553D01*
X3604818Y4587494D01*
X3599179Y4595520D01*
X3592220Y4602480D01*
X3584194Y4608118D01*
X3575253Y4612233D01*
X3565804Y4614773D01*
X3556000Y4615637D01*
X3546195Y4614773D01*
X3536746Y4612233D01*
X3527806Y4608118D01*
X3519779Y4602480D01*
X3512820Y4595520D01*
X3507181Y4587494D01*
X3503066Y4578553D01*
X3500526Y4569104D01*
X3499662Y4559300D01*
X3500526Y4549495D01*
X3503066Y4540046D01*
X3507181Y4531106D01*
X3512820Y4523079D01*
X3514394Y4521504D01*
X3516629Y4518202D01*
X3517392Y4514291D01*
X3517392Y2650693D01*
X3516629Y2646781D01*
X3514394Y2643479D01*
X3511143Y2641295D01*
X3507232Y2640533D01*
X3486556Y2640533D01*
X3480257Y2639822D01*
X3474770Y2637891D01*
X3469894Y2634792D01*
X3465779Y2630728D01*
X3462680Y2625801D01*
X3460800Y2620365D01*
X3460089Y2614015D01*
X3460089Y2524760D01*
X3459327Y2520848D01*
X3457092Y2517597D01*
X3453790Y2515362D01*
X3449929Y2514600D01*
X3408070Y2514600D01*
X3404158Y2515362D01*
X3400856Y2517597D01*
X3398672Y2520848D01*
X3397910Y2524760D01*
X3397910Y2614015D01*
X3397199Y2620365D01*
X3395268Y2625801D01*
X3392170Y2630728D01*
X3388106Y2634792D01*
X3383178Y2637891D01*
X3377742Y2639822D01*
X3371443Y2640533D01*
X3350768Y2640533D01*
X3346856Y2641295D01*
X3343605Y2643479D01*
X3341370Y2646781D01*
X3340608Y2650693D01*
X3340608Y4018991D01*
X3341370Y4022902D01*
X3343605Y4026204D01*
X3345179Y4027779D01*
X3350818Y4035806D01*
X3354933Y4044746D01*
X3357473Y4054195D01*
X3358337Y4064000D01*
X3357473Y4073804D01*
X3354933Y4083253D01*
X3350818Y4092194D01*
X3345179Y4100220D01*
X3338220Y4107179D01*
X3330194Y4112818D01*
X3321253Y4116933D01*
X3311804Y4119473D01*
X3302000Y4120337D01*
X3292195Y4119473D01*
X3282746Y4116933D01*
X3273806Y4112818D01*
X3265779Y4107179D01*
X3258820Y4100220D01*
X3253181Y4092194D01*
X3249066Y4083253D01*
X3246526Y4073804D01*
X3245662Y4064000D01*
X3246526Y4054195D01*
X3249066Y4044746D01*
X3253181Y4035806D01*
X3258820Y4027779D01*
X3260394Y4026204D01*
X3262629Y4022902D01*
X3263392Y4018991D01*
X3263392Y2650693D01*
X3262629Y2646781D01*
X3260394Y2643479D01*
X3257143Y2641295D01*
X3253232Y2640533D01*
X3232556Y2640533D01*
X3226257Y2639822D01*
X3220770Y2637891D01*
X3215894Y2634792D01*
X3211779Y2630728D01*
X3208680Y2625801D01*
X3206800Y2620365D01*
X3206089Y2614015D01*
X3206089Y2524760D01*
X3205327Y2520848D01*
X3203092Y2517597D01*
X3199790Y2515362D01*
X3195929Y2514600D01*
X3154070Y2514600D01*
X3150158Y2515362D01*
X3146856Y2517597D01*
X3144672Y2520848D01*
X3143910Y2524760D01*
X3143910Y2614015D01*
X3143199Y2620365D01*
X3141268Y2625801D01*
X3138170Y2630728D01*
X3134106Y2634792D01*
X3129178Y2637891D01*
X3123742Y2639822D01*
X3117443Y2640533D01*
X3096768Y2640533D01*
X3092856Y2641295D01*
X3089605Y2643479D01*
X3087370Y2646781D01*
X3086608Y2650693D01*
X3086608Y2741168D01*
X3087573Y2745486D01*
X3090214Y2748940D01*
X3094126Y2750972D01*
X3098546Y2751175D01*
X3102610Y2749499D01*
X3108706Y2745181D01*
X3117646Y2741066D01*
X3127095Y2738526D01*
X3136900Y2737662D01*
X3146704Y2738526D01*
X3156153Y2741066D01*
X3165094Y2745181D01*
X3173120Y2750820D01*
X3180080Y2757779D01*
X3185718Y2765806D01*
X3189833Y2774746D01*
X3192373Y2784195D01*
X3193237Y2794000D01*
X3192373Y2803804D01*
X3189833Y2813253D01*
X3188766Y2815590D01*
X3187801Y2819908D01*
X3187801Y6743801D01*
X3188563Y6747713D01*
X3190798Y6750964D01*
X3299764Y6859930D01*
X3302914Y6863384D01*
X3305606Y6866890D01*
X3307994Y6870649D01*
X3310026Y6874611D01*
X3311753Y6878675D01*
X3313074Y6882942D01*
X3314039Y6887260D01*
X3314598Y6891680D01*
X3314801Y6896303D01*
X3314801Y7086092D01*
X3315766Y7090409D01*
X3316833Y7092746D01*
X3319373Y7102195D01*
X3320237Y7112000D01*
X3319373Y7121804D01*
X3316833Y7131253D01*
X3315766Y7133590D01*
X3314801Y7137908D01*
X3314801Y7619492D01*
X3315766Y7623809D01*
X3316833Y7626146D01*
X3319373Y7635595D01*
X3320237Y7645400D01*
X3319373Y7655204D01*
X3316833Y7664653D01*
X3315766Y7666990D01*
X3314801Y7671308D01*
X3314801Y8114792D01*
X3315766Y8119109D01*
X3316833Y8121446D01*
X3319373Y8130895D01*
X3320237Y8140700D01*
X3319373Y8150504D01*
X3316833Y8159953D01*
X3315766Y8162290D01*
X3314801Y8166608D01*
X3314801Y8902192D01*
X3315766Y8906510D01*
X3316833Y8908846D01*
X3319373Y8918295D01*
X3320237Y8928100D01*
X3319373Y8937904D01*
X3316833Y8947353D01*
X3315766Y8949690D01*
X3314801Y8954008D01*
X3314801Y9384792D01*
X3315766Y9389110D01*
X3316833Y9391446D01*
X3319373Y9400895D01*
X3320237Y9410700D01*
X3319373Y9420504D01*
X3316833Y9429953D01*
X3315766Y9432290D01*
X3314801Y9436608D01*
X3314801Y10172192D01*
X3315766Y10176510D01*
X3316833Y10178846D01*
X3319373Y10188295D01*
X3320237Y10198100D01*
X3319373Y10207904D01*
X3316833Y10217353D01*
X3312718Y10226294D01*
X3307079Y10234320D01*
X3300120Y10241280D01*
X3292094Y10246918D01*
X3284372Y10250474D01*
X3281476Y10252506D01*
X3114598Y10419435D01*
X3112363Y10422686D01*
X3111601Y10426598D01*
X3111601Y11429492D01*
X3112566Y11433810D01*
X3113633Y11436146D01*
X3116173Y11445595D01*
X3117037Y11455400D01*
X3116173Y11465204D01*
X3113633Y11474653D01*
X3109518Y11483594D01*
X3103880Y11491620D01*
X3096920Y11498580D01*
X3088894Y11504218D01*
X3079953Y11508333D01*
X3070504Y11510873D01*
X3060700Y11511737D01*
X3050895Y11510873D01*
X3041446Y11508333D01*
X3032506Y11504218D01*
X3024479Y11498580D01*
X3017520Y11491620D01*
X3011881Y11483594D01*
X3007766Y11474653D01*
X3005226Y11465204D01*
X3004362Y11455400D01*
X3005226Y11445595D01*
X3007766Y11436146D01*
X3008833Y11433810D01*
X3009798Y11429492D01*
X3009798Y10401503D01*
X3010001Y10396880D01*
X3010560Y10392460D01*
X3011525Y10388142D01*
X3012846Y10383875D01*
X3014573Y10379811D01*
X3016605Y10375849D01*
X3018993Y10372090D01*
X3021685Y10368584D01*
X3024835Y10365130D01*
X3209493Y10180523D01*
X3212033Y10176510D01*
X3212998Y10172192D01*
X3212998Y9436608D01*
X3212033Y9432290D01*
X3210966Y9429953D01*
X3208426Y9420504D01*
X3207562Y9410700D01*
X3208426Y9400895D01*
X3210966Y9391446D01*
X3212033Y9389110D01*
X3212998Y9384792D01*
X3212998Y8954008D01*
X3212033Y8949690D01*
X3210966Y8947353D01*
X3208426Y8937904D01*
X3207562Y8928100D01*
X3208426Y8918295D01*
X3210966Y8908846D01*
X3212033Y8906510D01*
X3212998Y8902192D01*
X3212998Y8166608D01*
X3212033Y8162290D01*
X3210966Y8159953D01*
X3208426Y8150504D01*
X3207562Y8140700D01*
X3208426Y8130895D01*
X3210966Y8121446D01*
X3212033Y8119109D01*
X3212998Y8114792D01*
X3212998Y7671308D01*
X3212033Y7666990D01*
X3210966Y7664653D01*
X3208426Y7655204D01*
X3207562Y7645400D01*
X3208426Y7635595D01*
X3210966Y7626146D01*
X3212033Y7623809D01*
X3212998Y7619492D01*
X3212998Y7137908D01*
X3212033Y7133590D01*
X3210966Y7131253D01*
X3208426Y7121804D01*
X3207562Y7112000D01*
X3208426Y7102195D01*
X3210966Y7092746D01*
X3212033Y7090409D01*
X3212998Y7086092D01*
X3212998Y6921398D01*
X3212236Y6917486D01*
X3210001Y6914235D01*
X3101035Y6805269D01*
X3097885Y6801815D01*
X3095193Y6798309D01*
X3092805Y6794550D01*
X3090773Y6790588D01*
X3089046Y6786524D01*
X3087725Y6782257D01*
X3086760Y6777939D01*
X3086201Y6773519D01*
X3085998Y6768896D01*
X3085998Y5146548D01*
X3085134Y5142484D01*
X3082747Y5139080D01*
X3079191Y5136946D01*
X3075076Y5136438D01*
X3071063Y5137556D01*
X3067913Y5140198D01*
X3066592Y5141874D01*
X3056382Y5151729D01*
X3045002Y5160213D01*
X3032607Y5167223D01*
X3019450Y5172557D01*
X3005683Y5176164D01*
X2991612Y5177942D01*
X2977388Y5177942D01*
X2963316Y5176164D01*
X2949549Y5172557D01*
X2936392Y5167223D01*
X2923997Y5160213D01*
X2912618Y5151729D01*
X2902407Y5141874D01*
X2893568Y5130749D01*
X2886202Y5118608D01*
X2880461Y5105603D01*
X2876397Y5091988D01*
X2874111Y5077968D01*
X2873654Y5063744D01*
X2875026Y5049621D01*
X2878175Y5035753D01*
X2883103Y5022392D01*
X2889656Y5009794D01*
X2897784Y4998161D01*
X2907334Y4987645D01*
X2918155Y4978450D01*
X2930093Y4970678D01*
X2942894Y4964531D01*
X2956356Y4960061D01*
X2970326Y4957318D01*
X2984500Y4956403D01*
X2998673Y4957318D01*
X3012643Y4960061D01*
X3026105Y4964531D01*
X3038906Y4970678D01*
X3050844Y4978450D01*
X3061665Y4987645D01*
X3068320Y4995011D01*
X3071571Y4997399D01*
X3075482Y4998313D01*
X3079496Y4997653D01*
X3082899Y4995468D01*
X3085185Y4992116D01*
X3085998Y4988153D01*
X3085998Y4892548D01*
X3085134Y4888484D01*
X3082747Y4885080D01*
X3079191Y4882946D01*
X3075076Y4882438D01*
X3071063Y4883556D01*
X3067913Y4886198D01*
X3066592Y4887874D01*
X3056382Y4897729D01*
X3045002Y4906213D01*
X3032607Y4913223D01*
X3019450Y4918557D01*
X3005683Y4922164D01*
X2997200Y4923231D01*
X2997200Y4826000D01*
X3075838Y4826000D01*
X3079699Y4825238D01*
X3083001Y4823002D01*
X3085236Y4819751D01*
X3085998Y4815840D01*
X3085998Y4810760D01*
X3085236Y4806848D01*
X3083001Y4803597D01*
X3079699Y4801362D01*
X3075838Y4800600D01*
X2997200Y4800600D01*
X2997200Y4703216D01*
X2998673Y4703318D01*
X3012643Y4706061D01*
X3026105Y4710531D01*
X3038906Y4716678D01*
X3050844Y4724450D01*
X3061665Y4733645D01*
X3068320Y4741011D01*
X3071571Y4743399D01*
X3075482Y4744313D01*
X3079496Y4743653D01*
X3082899Y4741468D01*
X3085185Y4738116D01*
X3085998Y4734153D01*
X3085998Y4638548D01*
X3085134Y4634484D01*
X3082747Y4631080D01*
X3079191Y4628946D01*
X3075076Y4628438D01*
X3071063Y4629556D01*
X3067913Y4632198D01*
X3066592Y4633874D01*
X3056382Y4643729D01*
X3045002Y4652213D01*
X3032607Y4659223D01*
X3019450Y4664557D01*
X3005683Y4668164D01*
X2991612Y4669942D01*
X2977388Y4669942D01*
X2963316Y4668164D01*
X2949549Y4664557D01*
X2936392Y4659223D01*
X2923997Y4652213D01*
X2912618Y4643729D01*
X2902407Y4633874D01*
X2893568Y4622749D01*
X2886202Y4610608D01*
X2880461Y4597603D01*
X2876397Y4583988D01*
X2874111Y4569968D01*
X2873654Y4555744D01*
X2875026Y4541621D01*
X2878175Y4527753D01*
X2883103Y4514392D01*
X2889656Y4501794D01*
X2897784Y4490161D01*
X2907334Y4479645D01*
X2918155Y4470450D01*
X2930093Y4462678D01*
X2942894Y4456531D01*
X2956356Y4452061D01*
X2970326Y4449318D01*
X2984500Y4448403D01*
X2998673Y4449318D01*
X3012643Y4452061D01*
X3026105Y4456531D01*
X3038906Y4462678D01*
X3050844Y4470450D01*
X3061665Y4479645D01*
X3068320Y4487011D01*
X3071571Y4489399D01*
X3075482Y4490313D01*
X3079496Y4489653D01*
X3082899Y4487468D01*
X3085185Y4484116D01*
X3085998Y4480153D01*
X3085998Y4425645D01*
X3085084Y4421479D01*
X3082594Y4418076D01*
X3078937Y4415993D01*
X3074670Y4415536D01*
X3068929Y4416196D01*
X2997200Y4416196D01*
X2997200Y4318000D01*
X3075838Y4318000D01*
X3079699Y4317238D01*
X3083001Y4315002D01*
X3085236Y4311751D01*
X3085998Y4307840D01*
X3085998Y4302760D01*
X3085236Y4298848D01*
X3083001Y4295597D01*
X3079699Y4293362D01*
X3075838Y4292600D01*
X2997200Y4292600D01*
X2997200Y4194403D01*
X3068929Y4194403D01*
X3074670Y4195064D01*
X3078937Y4194606D01*
X3082594Y4192524D01*
X3085084Y4189120D01*
X3085998Y4184954D01*
X3085998Y3997147D01*
X3085185Y3993184D01*
X3082899Y3989882D01*
X3079496Y3987698D01*
X3075482Y3987037D01*
X3071520Y3987952D01*
X3067253Y3989933D01*
X3057804Y3992473D01*
X3048000Y3993337D01*
X3038195Y3992473D01*
X3028746Y3989933D01*
X3019806Y3985818D01*
X3011779Y3980179D01*
X3004820Y3973220D01*
X2999181Y3965194D01*
X2995066Y3956253D01*
X2992526Y3946804D01*
X2991662Y3937000D01*
X2992526Y3927195D01*
X2995066Y3917746D01*
X2999181Y3908806D01*
X3004820Y3900779D01*
X3006394Y3899204D01*
X3008630Y3895902D01*
X3009392Y3891991D01*
X3009392Y2650693D01*
X3008630Y2646781D01*
X3006394Y2643479D01*
X3003143Y2641295D01*
X2999232Y2640533D01*
X2978556Y2640533D01*
X2972257Y2639822D01*
X2966770Y2637891D01*
X2961894Y2634792D01*
X2957779Y2630728D01*
X2954680Y2625801D01*
X2952800Y2620365D01*
X2952089Y2614015D01*
X2952089Y2524760D01*
X2951327Y2520848D01*
X2949092Y2517597D01*
X2945790Y2515362D01*
X2941929Y2514600D01*
X2900070Y2514600D01*
X2896158Y2515362D01*
X2892856Y2517597D01*
X2890672Y2520848D01*
X2889910Y2524760D01*
X2889910Y2614015D01*
X2889199Y2620365D01*
X2887268Y2625801D01*
X2884170Y2630728D01*
X2880106Y2634792D01*
X2875178Y2637891D01*
X2869742Y2639822D01*
X2863443Y2640533D01*
X2842768Y2640533D01*
X2838856Y2641295D01*
X2835605Y2643479D01*
X2833370Y2646781D01*
X2832608Y2650693D01*
X2832608Y3764991D01*
X2833370Y3768902D01*
X2835605Y3772204D01*
X2837180Y3773779D01*
X2842818Y3781806D01*
X2846933Y3790746D01*
X2849473Y3800195D01*
X2850337Y3810000D01*
X2849473Y3819804D01*
X2846933Y3829253D01*
X2842818Y3838194D01*
X2837180Y3846220D01*
X2830220Y3853179D01*
X2822194Y3858818D01*
X2813253Y3862933D01*
X2803804Y3865473D01*
X2794000Y3866337D01*
X2784195Y3865473D01*
X2774746Y3862933D01*
X2765806Y3858818D01*
X2757779Y3853179D01*
X2750820Y3846220D01*
X2745181Y3838194D01*
X2741066Y3829253D01*
X2738526Y3819804D01*
X2738170Y3816146D01*
X2736850Y3811981D01*
X2735072Y3810000D01*
X2736850Y3808018D01*
X2738170Y3803853D01*
X2738526Y3800195D01*
X2741066Y3790746D01*
X2745181Y3781806D01*
X2750820Y3773779D01*
X2752394Y3772204D01*
X2754630Y3768902D01*
X2755392Y3764991D01*
X2755392Y2650693D01*
X2754630Y2646781D01*
X2752394Y2643479D01*
X2749143Y2641295D01*
X2745232Y2640533D01*
X2724556Y2640533D01*
X2718257Y2639822D01*
X2712770Y2637891D01*
X2707894Y2634792D01*
X2703779Y2630728D01*
X2700680Y2625801D01*
X2698800Y2620365D01*
X2698089Y2614015D01*
X2698089Y2524760D01*
X2697327Y2520848D01*
X2695092Y2517597D01*
X2691790Y2515362D01*
X2687929Y2514600D01*
X2646070Y2514600D01*
X2642158Y2515362D01*
X2638856Y2517597D01*
X2636672Y2520848D01*
X2635910Y2524760D01*
X2635910Y2614015D01*
X2635199Y2620365D01*
X2633268Y2625801D01*
X2630170Y2630728D01*
X2626106Y2634792D01*
X2621178Y2637891D01*
X2615742Y2639822D01*
X2609443Y2640533D01*
X2588768Y2640533D01*
X2584856Y2641295D01*
X2581605Y2643479D01*
X2579370Y2646781D01*
X2578608Y2650693D01*
X2578608Y5117592D01*
X2577795Y5125618D01*
X2575610Y5132832D01*
X2572054Y5139537D01*
X2566924Y5145735D01*
X2457399Y5255310D01*
X2455164Y5258612D01*
X2454402Y5262524D01*
X2454402Y6344869D01*
X2455164Y6348679D01*
X2457246Y6351930D01*
X2460447Y6354114D01*
X2467102Y6357061D01*
X2479243Y6364427D01*
X2490368Y6373317D01*
X2500223Y6383528D01*
X2508707Y6394907D01*
X2515717Y6407251D01*
X2521051Y6420459D01*
X2524658Y6434175D01*
X2526436Y6448298D01*
X2526436Y6462471D01*
X2524658Y6476593D01*
X2521051Y6490309D01*
X2515717Y6503517D01*
X2508707Y6515862D01*
X2500223Y6527292D01*
X2490368Y6537452D01*
X2479243Y6546342D01*
X2467102Y6553708D01*
X2454097Y6559448D01*
X2440482Y6563512D01*
X2426462Y6565747D01*
X2412238Y6566204D01*
X2398115Y6564833D01*
X2384247Y6561683D01*
X2370886Y6556806D01*
X2358288Y6550202D01*
X2346655Y6542074D01*
X2336139Y6532524D01*
X2326944Y6521704D01*
X2319172Y6509816D01*
X2313025Y6497015D01*
X2308555Y6483502D01*
X2305812Y6469583D01*
X2304897Y6455410D01*
X2305812Y6441186D01*
X2308555Y6427266D01*
X2313025Y6413754D01*
X2319172Y6400952D01*
X2326944Y6389065D01*
X2336139Y6378244D01*
X2346655Y6368694D01*
X2358288Y6360566D01*
X2371699Y6353606D01*
X2374595Y6351371D01*
X2376525Y6348222D01*
X2377186Y6344615D01*
X2377186Y5271160D01*
X2376424Y5267248D01*
X2374188Y5263946D01*
X2370937Y5261762D01*
X2367026Y5261000D01*
X2363114Y5261762D01*
X2359863Y5263946D01*
X2203399Y5420410D01*
X2201164Y5423712D01*
X2200402Y5427624D01*
X2200402Y6344869D01*
X2201164Y6348679D01*
X2203246Y6351930D01*
X2206447Y6354114D01*
X2213102Y6357061D01*
X2225243Y6364427D01*
X2236368Y6373317D01*
X2246223Y6383528D01*
X2254707Y6394907D01*
X2261717Y6407251D01*
X2267051Y6420459D01*
X2270658Y6434175D01*
X2272436Y6448298D01*
X2272436Y6462471D01*
X2270658Y6476593D01*
X2267051Y6490309D01*
X2261717Y6503517D01*
X2254707Y6515862D01*
X2246223Y6527292D01*
X2236368Y6537452D01*
X2225243Y6546342D01*
X2213102Y6553708D01*
X2200097Y6559448D01*
X2186482Y6563512D01*
X2172462Y6565747D01*
X2158238Y6566204D01*
X2144115Y6564833D01*
X2130247Y6561683D01*
X2116886Y6556806D01*
X2104288Y6550202D01*
X2092655Y6542074D01*
X2082139Y6532524D01*
X2072944Y6521704D01*
X2065172Y6509816D01*
X2059025Y6497015D01*
X2054555Y6483502D01*
X2051812Y6469583D01*
X2050897Y6455410D01*
X2051812Y6441186D01*
X2054555Y6427266D01*
X2059025Y6413754D01*
X2065172Y6400952D01*
X2072944Y6389065D01*
X2082139Y6378244D01*
X2092655Y6368694D01*
X2104288Y6360566D01*
X2117699Y6353606D01*
X2120595Y6351371D01*
X2122525Y6348222D01*
X2123186Y6344615D01*
X2123186Y5407914D01*
X2123998Y5399887D01*
X2126183Y5392674D01*
X2129739Y5385968D01*
X2134870Y5379770D01*
X2447594Y5066995D01*
X2449830Y5063693D01*
X2450592Y5059781D01*
X2450592Y4871974D01*
X2449830Y4868113D01*
X2447645Y4864811D01*
X2444343Y4862626D01*
X2440482Y4861814D01*
X2436622Y4862576D01*
X2433320Y4864760D01*
X2431084Y4868011D01*
X2429865Y4870907D01*
X2416606Y4897069D01*
X2401671Y4922316D01*
X2385110Y4946446D01*
X2366924Y4969459D01*
X2347264Y4991201D01*
X2326182Y5011572D01*
X2303830Y5030520D01*
X2280208Y5047894D01*
X2255520Y5063693D01*
X2229815Y5077764D01*
X2203246Y5090109D01*
X2175865Y5100624D01*
X2147874Y5109311D01*
X2119376Y5116118D01*
X2090470Y5120995D01*
X2061311Y5123942D01*
X2032000Y5124907D01*
X2002688Y5123942D01*
X1973529Y5120995D01*
X1944624Y5116118D01*
X1916125Y5109311D01*
X1888134Y5100624D01*
X1860753Y5090109D01*
X1834184Y5077764D01*
X1808480Y5063693D01*
X1783791Y5047894D01*
X1760169Y5030520D01*
X1737817Y5011572D01*
X1716735Y4991201D01*
X1697075Y4969459D01*
X1678889Y4946446D01*
X1662328Y4922316D01*
X1647393Y4897069D01*
X1634134Y4870907D01*
X1622704Y4843932D01*
X1613103Y4816246D01*
X1607972Y4797552D01*
X1606092Y4793843D01*
X1602892Y4791202D01*
X1598879Y4790084D01*
X1594764Y4790643D01*
X1591259Y4792776D01*
X1588871Y4796180D01*
X1588008Y4800244D01*
X1588008Y5021681D01*
X1588770Y5025593D01*
X1591005Y5028895D01*
X1934718Y5372658D01*
X1939848Y5378856D01*
X1943404Y5385562D01*
X1945589Y5392775D01*
X1946402Y5400802D01*
X1946402Y6344869D01*
X1947164Y6348679D01*
X1949246Y6351930D01*
X1952447Y6354114D01*
X1959102Y6357061D01*
X1971243Y6364427D01*
X1982368Y6373317D01*
X1992223Y6383528D01*
X2000707Y6394907D01*
X2007717Y6407251D01*
X2013051Y6420459D01*
X2016658Y6434175D01*
X2018436Y6448298D01*
X2018436Y6462471D01*
X2016658Y6476593D01*
X2013051Y6490309D01*
X2007717Y6503517D01*
X2000707Y6515862D01*
X1992223Y6527292D01*
X1982368Y6537452D01*
X1971243Y6546342D01*
X1959102Y6553708D01*
X1946097Y6559448D01*
X1932482Y6563512D01*
X1918462Y6565747D01*
X1904238Y6566204D01*
X1890115Y6564833D01*
X1876247Y6561683D01*
X1862886Y6556806D01*
X1850288Y6550202D01*
X1838655Y6542074D01*
X1828139Y6532524D01*
X1818944Y6521704D01*
X1811172Y6509816D01*
X1805025Y6497015D01*
X1800555Y6483502D01*
X1797812Y6469583D01*
X1796897Y6455410D01*
X1797812Y6441186D01*
X1800555Y6427266D01*
X1805025Y6413754D01*
X1811172Y6400952D01*
X1818944Y6389065D01*
X1828139Y6378244D01*
X1838655Y6368694D01*
X1850288Y6360566D01*
X1863699Y6353606D01*
X1866595Y6351371D01*
X1868525Y6348222D01*
X1869186Y6344615D01*
X1869186Y5420512D01*
X1868424Y5416600D01*
X1866188Y5413298D01*
X1709724Y5256834D01*
X1706473Y5254650D01*
X1702562Y5253888D01*
X1698650Y5254650D01*
X1695399Y5256834D01*
X1693164Y5260136D01*
X1692402Y5264048D01*
X1692402Y6344869D01*
X1693164Y6348679D01*
X1695246Y6351930D01*
X1698447Y6354114D01*
X1705102Y6357061D01*
X1717243Y6364427D01*
X1728368Y6373317D01*
X1738223Y6383528D01*
X1746707Y6394907D01*
X1753717Y6407251D01*
X1759051Y6420459D01*
X1762658Y6434175D01*
X1764436Y6448298D01*
X1764436Y6462471D01*
X1762658Y6476593D01*
X1759051Y6490309D01*
X1753717Y6503517D01*
X1746707Y6515862D01*
X1738223Y6527292D01*
X1728368Y6537452D01*
X1717243Y6546342D01*
X1705102Y6553708D01*
X1692097Y6559448D01*
X1678482Y6563512D01*
X1664462Y6565747D01*
X1650238Y6566204D01*
X1636115Y6564833D01*
X1622247Y6561683D01*
X1608886Y6556806D01*
X1596288Y6550202D01*
X1584655Y6542074D01*
X1574139Y6532524D01*
X1564944Y6521704D01*
X1557172Y6509816D01*
X1551025Y6497015D01*
X1546555Y6483502D01*
X1543812Y6469583D01*
X1542897Y6455410D01*
X1543812Y6441186D01*
X1546555Y6427266D01*
X1551025Y6413754D01*
X1557172Y6400952D01*
X1564944Y6389065D01*
X1574139Y6378244D01*
X1584655Y6368694D01*
X1596288Y6360566D01*
X1609699Y6353606D01*
X1612595Y6351371D01*
X1614525Y6348222D01*
X1615186Y6344615D01*
X1615186Y5255412D01*
X1614424Y5251500D01*
X1612188Y5248198D01*
X1455724Y5091734D01*
X1452473Y5089550D01*
X1448562Y5088788D01*
X1444650Y5089550D01*
X1441399Y5091734D01*
X1439164Y5095036D01*
X1438402Y5098948D01*
X1438402Y6344869D01*
X1439164Y6348679D01*
X1441246Y6351930D01*
X1444447Y6354114D01*
X1451102Y6357061D01*
X1463243Y6364427D01*
X1474368Y6373317D01*
X1484223Y6383528D01*
X1492707Y6394907D01*
X1499717Y6407251D01*
X1505051Y6420459D01*
X1508658Y6434175D01*
X1510436Y6448298D01*
X1510436Y6462471D01*
X1508658Y6476593D01*
X1505051Y6490309D01*
X1499717Y6503517D01*
X1492707Y6515862D01*
X1484223Y6527292D01*
X1474368Y6537452D01*
X1463243Y6546342D01*
X1451102Y6553708D01*
X1438097Y6559448D01*
X1424482Y6563512D01*
X1410462Y6565747D01*
X1396238Y6566204D01*
X1382115Y6564833D01*
X1368247Y6561683D01*
X1354886Y6556806D01*
X1342288Y6550202D01*
X1330655Y6542074D01*
X1320139Y6532524D01*
X1310944Y6521704D01*
X1303172Y6509816D01*
X1297025Y6497015D01*
X1292555Y6483502D01*
X1289812Y6469583D01*
X1288897Y6455410D01*
X1289812Y6441186D01*
X1292555Y6427266D01*
X1297025Y6413754D01*
X1303172Y6400952D01*
X1310944Y6389065D01*
X1320139Y6378244D01*
X1330655Y6368694D01*
X1342288Y6360566D01*
X1355699Y6353606D01*
X1358595Y6351371D01*
X1360525Y6348222D01*
X1361186Y6344615D01*
X1361186Y3982008D01*
X1360424Y3978097D01*
X1358188Y3974795D01*
X1356614Y3973220D01*
X1350975Y3965194D01*
X1346860Y3956253D01*
X1344320Y3946804D01*
X1343456Y3937000D01*
X1344320Y3927195D01*
X1346860Y3917746D01*
X1350975Y3908806D01*
X1356614Y3900779D01*
X1363573Y3893820D01*
X1371600Y3888181D01*
X1380540Y3884066D01*
X1389989Y3881526D01*
X1399794Y3880662D01*
X1409598Y3881526D01*
X1424076Y3885488D01*
X1428089Y3884828D01*
X1431493Y3882644D01*
X1433779Y3879291D01*
X1434592Y3875328D01*
X1434592Y3855008D01*
X1433830Y3851097D01*
X1431594Y3847795D01*
X1430020Y3846220D01*
X1424381Y3838194D01*
X1420266Y3829253D01*
X1417726Y3819804D01*
X1416862Y3810000D01*
X1417726Y3800195D01*
X1420266Y3790746D01*
X1424381Y3781806D01*
X1430020Y3773779D01*
X1436979Y3766820D01*
X1445006Y3761181D01*
X1453946Y3757066D01*
X1463395Y3754526D01*
X1478483Y3753256D01*
X1482090Y3751122D01*
X1484528Y3747719D01*
X1485392Y3743604D01*
X1485392Y2650693D01*
X1484630Y2646781D01*
X1482394Y2643479D01*
X1479143Y2641295D01*
X1475232Y2640533D01*
X1454556Y2640533D01*
X1448257Y2639822D01*
X1442770Y2637891D01*
X1437894Y2634792D01*
X1433779Y2630728D01*
X1430680Y2625801D01*
X1428800Y2620365D01*
X1428089Y2614015D01*
X1428089Y2524760D01*
X1427327Y2520848D01*
X1425092Y2517597D01*
X1421790Y2515362D01*
X1417929Y2514600D01*
X1376070Y2514600D01*
X1372158Y2515362D01*
X1368856Y2517597D01*
X1366672Y2520848D01*
X1365910Y2524760D01*
X1365910Y2614015D01*
X1365199Y2620365D01*
X1363268Y2625801D01*
X1360170Y2630728D01*
X1356106Y2634792D01*
X1351178Y2637891D01*
X1345742Y2639822D01*
X1339443Y2640533D01*
X1318768Y2640533D01*
X1314856Y2641295D01*
X1311605Y2643479D01*
X1309370Y2646781D01*
X1308608Y2650693D01*
X1308608Y3256991D01*
X1309370Y3260902D01*
X1311605Y3264204D01*
X1313180Y3265779D01*
X1318818Y3273806D01*
X1322933Y3282746D01*
X1325473Y3292195D01*
X1326337Y3302000D01*
X1325473Y3311804D01*
X1322933Y3321253D01*
X1318818Y3330194D01*
X1313180Y3338220D01*
X1306220Y3345179D01*
X1298194Y3350818D01*
X1289253Y3354933D01*
X1279804Y3357473D01*
X1270000Y3358337D01*
X1260195Y3357473D01*
X1250746Y3354933D01*
X1241806Y3350818D01*
X1233779Y3345179D01*
X1226820Y3338220D01*
X1221181Y3330194D01*
X1217066Y3321253D01*
X1214526Y3311804D01*
X1213662Y3302000D01*
X1214526Y3292195D01*
X1217066Y3282746D01*
X1221181Y3273806D01*
X1226820Y3265779D01*
X1228394Y3264204D01*
X1230630Y3260902D01*
X1231392Y3256991D01*
X1231392Y2650693D01*
X1230630Y2646781D01*
X1228394Y2643479D01*
X1225143Y2641295D01*
X1221232Y2640533D01*
X1200556Y2640533D01*
X1194257Y2639822D01*
X1188770Y2637891D01*
X1183894Y2634792D01*
X1179779Y2630728D01*
X1176680Y2625801D01*
X1174800Y2620365D01*
X1174089Y2614015D01*
X1174089Y2524760D01*
X1173327Y2520848D01*
X1171092Y2517597D01*
X1167790Y2515362D01*
X1163929Y2514600D01*
X1122070Y2514600D01*
X1118158Y2515362D01*
X1114856Y2517597D01*
X1112672Y2520848D01*
X1111910Y2524760D01*
X1111910Y2614015D01*
X1111199Y2620365D01*
X1109268Y2625801D01*
X1106170Y2630728D01*
X1102106Y2634792D01*
X1097178Y2637891D01*
X1091742Y2639822D01*
X1085443Y2640533D01*
X1077061Y2640533D01*
X1073200Y2641295D01*
X1069898Y2643479D01*
X1067663Y2646781D01*
X1066901Y2650693D01*
X1066901Y2768092D01*
X1067866Y2772410D01*
X1068933Y2774746D01*
X1071473Y2784195D01*
X1072337Y2794000D01*
X1071473Y2803804D01*
X1068933Y2813253D01*
X1064818Y2822194D01*
X1059180Y2830220D01*
X1052220Y2837180D01*
X1044194Y2842818D01*
X1035253Y2846933D01*
X1025804Y2849473D01*
X1016000Y2850337D01*
X1006195Y2849473D01*
X996746Y2846933D01*
X987806Y2842818D01*
X979779Y2837180D01*
X972819Y2830220D01*
X967181Y2822194D01*
X963066Y2813253D01*
X960526Y2803804D01*
X959662Y2794000D01*
X960526Y2784195D01*
X963066Y2774746D01*
X964133Y2772410D01*
X965098Y2768092D01*
X965098Y2650693D01*
X964336Y2646781D01*
X962101Y2643479D01*
X958799Y2641295D01*
X954938Y2640533D01*
X946556Y2640533D01*
X940257Y2639822D01*
X934770Y2637891D01*
X929894Y2634792D01*
X925779Y2630728D01*
X922680Y2625801D01*
X920800Y2620365D01*
X920089Y2614015D01*
X920089Y2524760D01*
X919327Y2520848D01*
X917092Y2517597D01*
X913790Y2515362D01*
X909929Y2514600D01*
X868070Y2514600D01*
X864158Y2515362D01*
X860856Y2517597D01*
X858672Y2520848D01*
X857910Y2524760D01*
X857910Y2614015D01*
X857199Y2620365D01*
X855268Y2625801D01*
X852169Y2630728D01*
X848106Y2634792D01*
X843178Y2637891D01*
X837742Y2639822D01*
X831443Y2640533D01*
X823061Y2640533D01*
X819200Y2641295D01*
X815898Y2643479D01*
X813663Y2646781D01*
X812901Y2650693D01*
X812901Y3022092D01*
X813866Y3026410D01*
X814933Y3028746D01*
X817473Y3038195D01*
X818337Y3048000D01*
X817473Y3057804D01*
X814933Y3067253D01*
X810818Y3076194D01*
X805180Y3084220D01*
X798220Y3091180D01*
X790194Y3096818D01*
X781253Y3100933D01*
X771804Y3103473D01*
X762000Y3104337D01*
X752195Y3103473D01*
X742746Y3100933D01*
X733806Y3096818D01*
X725779Y3091180D01*
X718820Y3084220D01*
X713181Y3076194D01*
X709066Y3067253D01*
X706526Y3057804D01*
X705662Y3048000D01*
X706526Y3038195D01*
X709066Y3028746D01*
X710133Y3026410D01*
X711098Y3022092D01*
X711098Y2650693D01*
X710336Y2646781D01*
X708101Y2643479D01*
X704799Y2641295D01*
X700938Y2640533D01*
X692556Y2640533D01*
X686257Y2639822D01*
X680770Y2637891D01*
X675894Y2634792D01*
X671779Y2630728D01*
X668680Y2625801D01*
X666800Y2620365D01*
X666089Y2614015D01*
X666089Y2524760D01*
X665327Y2520848D01*
X663092Y2517597D01*
X659790Y2515362D01*
X655929Y2514600D01*
X614070Y2514600D01*
X610158Y2515362D01*
X606856Y2517597D01*
X604672Y2520848D01*
X603910Y2524760D01*
X603910Y2614015D01*
X603199Y2620365D01*
X601268Y2625801D01*
X598170Y2630728D01*
X594106Y2634792D01*
X589178Y2637891D01*
X583742Y2639822D01*
X577443Y2640533D01*
X520700Y2640533D01*
X520700Y2524760D01*
X519938Y2520848D01*
X517702Y2517597D01*
X514400Y2515362D01*
X510540Y2514600D01*
X505459Y2514600D01*
X501548Y2515362D01*
X498246Y2517597D01*
X496062Y2520848D01*
X495300Y2524760D01*
X495300Y2640533D01*
X438556Y2640533D01*
X432257Y2639822D01*
X426770Y2637891D01*
X421893Y2634792D01*
X417779Y2630728D01*
X414680Y2625801D01*
X412800Y2620365D01*
X412089Y2614015D01*
X412089Y2524760D01*
X411327Y2520848D01*
X409092Y2517597D01*
X405790Y2515362D01*
X401929Y2514600D01*
X360070Y2514600D01*
X356158Y2515362D01*
X352856Y2517597D01*
X350672Y2520848D01*
X349910Y2524760D01*
X349910Y2614015D01*
X349199Y2620365D01*
X347268Y2625801D01*
X344170Y2630728D01*
X340106Y2634792D01*
X335178Y2637891D01*
X329742Y2639822D01*
X323443Y2640533D01*
X315061Y2640533D01*
X311200Y2641295D01*
X307898Y2643479D01*
X305663Y2646781D01*
X304901Y2650693D01*
X304901Y2768092D01*
X305866Y2772410D01*
X306933Y2774746D01*
X309473Y2784195D01*
X310337Y2794000D01*
X309473Y2803804D01*
X306933Y2813253D01*
X302818Y2822194D01*
X297180Y2830220D01*
X290220Y2837180D01*
X282194Y2842818D01*
X273253Y2846933D01*
X263804Y2849473D01*
X254000Y2850337D01*
X244195Y2849473D01*
X234746Y2846933D01*
X225806Y2842818D01*
X217779Y2837180D01*
X210820Y2830220D01*
X205181Y2822194D01*
X201066Y2813253D01*
X198526Y2803804D01*
X197662Y2794000D01*
X198526Y2784195D01*
X201066Y2774746D01*
X202133Y2772410D01*
X203098Y2768092D01*
X203098Y2650693D01*
X202336Y2646781D01*
X200101Y2643479D01*
X196799Y2641295D01*
X192938Y2640533D01*
X184556Y2640533D01*
X178257Y2639822D01*
X172770Y2637891D01*
X167894Y2634792D01*
X163779Y2630728D01*
X160680Y2625801D01*
X158800Y2620365D01*
X158089Y2614015D01*
X158089Y2524760D01*
X157327Y2520848D01*
X155092Y2517597D01*
X151790Y2515362D01*
X147929Y2514600D01*
G37*

%LPC*%
G36*
X228600Y11431117D02*
G01*
X243789Y11432032D01*
X258724Y11434775D01*
X273253Y11439296D01*
X287121Y11445544D01*
X300126Y11453418D01*
X312064Y11462766D01*
X322834Y11473535D01*
X332181Y11485473D01*
X340055Y11498478D01*
X346303Y11512346D01*
X350824Y11526875D01*
X353568Y11541810D01*
X354482Y11557000D01*
X353568Y11572189D01*
X350824Y11587124D01*
X346303Y11601653D01*
X340055Y11615521D01*
X332181Y11628526D01*
X322834Y11640464D01*
X312064Y11651234D01*
X300126Y11660581D01*
X287121Y11668455D01*
X273253Y11674703D01*
X258724Y11679224D01*
X243789Y11681968D01*
X228600Y11682882D01*
X213410Y11681968D01*
X198475Y11679224D01*
X183946Y11674703D01*
X170078Y11668455D01*
X157073Y11660581D01*
X145135Y11651234D01*
X134366Y11640464D01*
X125018Y11628526D01*
X117144Y11615521D01*
X110896Y11601653D01*
X106375Y11587124D01*
X103632Y11572189D01*
X102717Y11557000D01*
X103632Y11541810D01*
X106375Y11526875D01*
X110896Y11512346D01*
X117144Y11498478D01*
X125018Y11485473D01*
X134366Y11473535D01*
X145135Y11462766D01*
X157073Y11453418D01*
X170078Y11445544D01*
X183946Y11439296D01*
X198475Y11434775D01*
X213410Y11432032D01*
G37*
G36*
X3860800Y11431117D02*
G01*
X3875989Y11432032D01*
X3890924Y11434775D01*
X3905453Y11439296D01*
X3919321Y11445544D01*
X3932326Y11453418D01*
X3944264Y11462766D01*
X3955034Y11473535D01*
X3964381Y11485473D01*
X3972255Y11498478D01*
X3978503Y11512346D01*
X3983024Y11526875D01*
X3985768Y11541810D01*
X3986682Y11557000D01*
X3985768Y11572189D01*
X3983024Y11587124D01*
X3978503Y11601653D01*
X3972255Y11615521D01*
X3964381Y11628526D01*
X3955034Y11640464D01*
X3944264Y11651234D01*
X3932326Y11660581D01*
X3919321Y11668455D01*
X3905453Y11674703D01*
X3890924Y11679224D01*
X3875989Y11681968D01*
X3860800Y11682882D01*
X3845610Y11681968D01*
X3830675Y11679224D01*
X3816146Y11674703D01*
X3802278Y11668455D01*
X3789273Y11660581D01*
X3777335Y11651234D01*
X3766565Y11640464D01*
X3757218Y11628526D01*
X3749344Y11615521D01*
X3743096Y11601653D01*
X3738575Y11587124D01*
X3735832Y11572189D01*
X3734917Y11557000D01*
X3735832Y11541810D01*
X3738575Y11526875D01*
X3743096Y11512346D01*
X3749344Y11498478D01*
X3757218Y11485473D01*
X3766565Y11473535D01*
X3777335Y11462766D01*
X3789273Y11453418D01*
X3802278Y11445544D01*
X3816146Y11439296D01*
X3830675Y11434775D01*
X3845610Y11432032D01*
G37*
G36*
X2344674Y11315700D02*
G01*
X2434082Y11315700D01*
X2434082Y11372392D01*
X2433370Y11378742D01*
X2431491Y11384178D01*
X2428392Y11389106D01*
X2424328Y11393170D01*
X2419400Y11396268D01*
X2413965Y11398148D01*
X2407615Y11398859D01*
X2344674Y11398859D01*
G37*
G36*
X1725472Y11207292D02*
G01*
X1738528Y11207292D01*
X1751482Y11209121D01*
X1764080Y11212626D01*
X1776120Y11217859D01*
X1787296Y11224666D01*
X1797456Y11232896D01*
X1806397Y11242446D01*
X1813915Y11253165D01*
X1819960Y11264798D01*
X1822399Y11271758D01*
X1824583Y11275263D01*
X1827936Y11277650D01*
X1832000Y11278514D01*
X1836064Y11277650D01*
X1839417Y11275263D01*
X1841550Y11271758D01*
X1844039Y11264798D01*
X1850085Y11253165D01*
X1857603Y11242446D01*
X1866544Y11232896D01*
X1876704Y11224666D01*
X1887880Y11217859D01*
X1899869Y11212626D01*
X1912467Y11209121D01*
X1919274Y11208156D01*
X1919274Y11290300D01*
X1837893Y11290300D01*
X1833981Y11291062D01*
X1830730Y11293246D01*
X1828495Y11296548D01*
X1827733Y11300460D01*
X1827733Y11305540D01*
X1828495Y11309400D01*
X1830730Y11312702D01*
X1833981Y11314887D01*
X1837893Y11315700D01*
X1919274Y11315700D01*
X1919274Y11397792D01*
X1912467Y11396878D01*
X1899869Y11393322D01*
X1887880Y11388090D01*
X1876704Y11381333D01*
X1866544Y11373053D01*
X1857603Y11363502D01*
X1850085Y11352784D01*
X1844039Y11341201D01*
X1841550Y11334191D01*
X1839417Y11330686D01*
X1836064Y11328298D01*
X1832000Y11327434D01*
X1827936Y11328298D01*
X1824583Y11330686D01*
X1822399Y11334191D01*
X1819960Y11341201D01*
X1813915Y11352784D01*
X1806397Y11363502D01*
X1797456Y11373053D01*
X1786686Y11381790D01*
X1783892Y11385296D01*
X1782927Y11389664D01*
X1782927Y11429492D01*
X1783842Y11433810D01*
X1784959Y11436146D01*
X1787499Y11445595D01*
X1788363Y11455400D01*
X1787499Y11465204D01*
X1784959Y11474653D01*
X1780793Y11483594D01*
X1775155Y11491620D01*
X1768246Y11498580D01*
X1760169Y11504218D01*
X1751279Y11508333D01*
X1741779Y11510873D01*
X1732025Y11511737D01*
X1722221Y11510873D01*
X1712722Y11508333D01*
X1703832Y11504218D01*
X1695754Y11498580D01*
X1688846Y11491620D01*
X1683207Y11483594D01*
X1679041Y11474653D01*
X1676501Y11465204D01*
X1675638Y11455400D01*
X1676501Y11445595D01*
X1679041Y11436146D01*
X1680159Y11433810D01*
X1681073Y11429492D01*
X1681073Y11389715D01*
X1680108Y11385346D01*
X1677314Y11381790D01*
X1666544Y11373053D01*
X1657604Y11363502D01*
X1650085Y11352784D01*
X1644040Y11341201D01*
X1639671Y11328857D01*
X1636979Y11316055D01*
X1636115Y11303000D01*
X1636979Y11289944D01*
X1639671Y11277092D01*
X1644040Y11264798D01*
X1650085Y11253165D01*
X1657604Y11242446D01*
X1666544Y11232896D01*
X1676704Y11224666D01*
X1687880Y11217859D01*
X1699869Y11212626D01*
X1712468Y11209121D01*
G37*
G36*
X2344674Y11207089D02*
G01*
X2407615Y11207089D01*
X2413965Y11207800D01*
X2419400Y11209680D01*
X2424328Y11212779D01*
X2428392Y11216843D01*
X2431491Y11221770D01*
X2433370Y11227206D01*
X2434082Y11233556D01*
X2434082Y11290300D01*
X2344674Y11290300D01*
G37*
G36*
X2132025Y11119662D02*
G01*
X2141778Y11120526D01*
X2151278Y11123066D01*
X2160168Y11127181D01*
X2168245Y11132820D01*
X2175154Y11139779D01*
X2180793Y11147806D01*
X2184958Y11156746D01*
X2187498Y11166195D01*
X2188362Y11176000D01*
X2187498Y11185804D01*
X2184958Y11195253D01*
X2180793Y11204194D01*
X2178913Y11206886D01*
X2177288Y11210696D01*
X2177288Y11214811D01*
X2178913Y11218570D01*
X2181961Y11221415D01*
X2187295Y11224666D01*
X2197455Y11232896D01*
X2206396Y11242446D01*
X2211425Y11249609D01*
X2214524Y11252504D01*
X2218588Y11253876D01*
X2222804Y11253470D01*
X2226513Y11251336D01*
X2229002Y11247932D01*
X2229866Y11243767D01*
X2229866Y11233556D01*
X2230577Y11227206D01*
X2232507Y11221770D01*
X2235606Y11216843D01*
X2239670Y11212779D01*
X2244598Y11209680D01*
X2250033Y11207800D01*
X2256383Y11207089D01*
X2319274Y11207089D01*
X2319274Y11290300D01*
X2237892Y11290300D01*
X2233980Y11291062D01*
X2230729Y11293246D01*
X2228494Y11296548D01*
X2227732Y11300460D01*
X2227732Y11305540D01*
X2228494Y11309400D01*
X2230729Y11312702D01*
X2233980Y11314887D01*
X2237892Y11315700D01*
X2319274Y11315700D01*
X2319274Y11398859D01*
X2256383Y11398859D01*
X2250033Y11398148D01*
X2244598Y11396268D01*
X2239670Y11393170D01*
X2235606Y11389106D01*
X2232507Y11384178D01*
X2230577Y11378742D01*
X2229866Y11372392D01*
X2229866Y11362182D01*
X2229002Y11358016D01*
X2226513Y11354612D01*
X2222804Y11352530D01*
X2218588Y11352072D01*
X2214524Y11353444D01*
X2211425Y11356340D01*
X2206396Y11363502D01*
X2197455Y11373053D01*
X2187295Y11381333D01*
X2176119Y11388090D01*
X2164080Y11393322D01*
X2151481Y11396878D01*
X2138527Y11398656D01*
X2125472Y11398656D01*
X2112467Y11396878D01*
X2099868Y11393322D01*
X2087880Y11388090D01*
X2076704Y11381333D01*
X2066543Y11373053D01*
X2057603Y11363502D01*
X2050084Y11352784D01*
X2044039Y11341201D01*
X2041550Y11334191D01*
X2039416Y11330686D01*
X2036064Y11328298D01*
X2032000Y11327434D01*
X2027936Y11328298D01*
X2024583Y11330686D01*
X2022398Y11334191D01*
X2019960Y11341201D01*
X2013915Y11352784D01*
X2006396Y11363502D01*
X1997456Y11373053D01*
X1987296Y11381333D01*
X1976120Y11388090D01*
X1964080Y11393322D01*
X1951482Y11396878D01*
X1944674Y11397792D01*
X1944674Y11315700D01*
X2026107Y11315700D01*
X2029968Y11314887D01*
X2033270Y11312702D01*
X2035505Y11309400D01*
X2036267Y11305540D01*
X2036267Y11300460D01*
X2035505Y11296548D01*
X2033270Y11293246D01*
X2029968Y11291062D01*
X2026107Y11290300D01*
X1944674Y11290300D01*
X1944674Y11208156D01*
X1951482Y11209121D01*
X1964080Y11212626D01*
X1976120Y11217859D01*
X1987296Y11224666D01*
X1997456Y11232896D01*
X2006396Y11242446D01*
X2013915Y11253165D01*
X2019960Y11264798D01*
X2022398Y11271758D01*
X2024583Y11275263D01*
X2027936Y11277650D01*
X2032000Y11278514D01*
X2036064Y11277650D01*
X2039416Y11275263D01*
X2041550Y11271758D01*
X2044039Y11264798D01*
X2050084Y11253165D01*
X2057603Y11242446D01*
X2066543Y11232896D01*
X2076704Y11224666D01*
X2082038Y11221364D01*
X2085086Y11218570D01*
X2086711Y11214811D01*
X2086711Y11210645D01*
X2085086Y11206886D01*
X2083206Y11204194D01*
X2079040Y11195253D01*
X2076500Y11185804D01*
X2075637Y11176000D01*
X2076500Y11166195D01*
X2079040Y11156746D01*
X2083206Y11147806D01*
X2088845Y11139779D01*
X2095754Y11132820D01*
X2103831Y11127181D01*
X2112721Y11123066D01*
X2122220Y11120526D01*
G37*
G36*
X3873500Y11074400D02*
G01*
X3975760Y11074400D01*
X3974642Y11083391D01*
X3970985Y11097514D01*
X3965651Y11111026D01*
X3958640Y11123777D01*
X3950106Y11135563D01*
X3940098Y11146180D01*
X3928922Y11155476D01*
X3916629Y11163249D01*
X3903472Y11169446D01*
X3889603Y11173968D01*
X3875328Y11176660D01*
X3873500Y11176812D01*
G37*
G36*
X3745839Y11074400D02*
G01*
X3848100Y11074400D01*
X3848100Y11176812D01*
X3846271Y11176660D01*
X3831996Y11173968D01*
X3818128Y11169446D01*
X3804970Y11163249D01*
X3792677Y11155476D01*
X3781450Y11146180D01*
X3771493Y11135563D01*
X3762959Y11123777D01*
X3755948Y11111026D01*
X3750564Y11097514D01*
X3746957Y11083391D01*
G37*
G36*
X3848100Y10946587D02*
G01*
X3848100Y11049000D01*
X3745839Y11049000D01*
X3746957Y11040008D01*
X3750564Y11025886D01*
X3755948Y11012373D01*
X3762959Y10999622D01*
X3771493Y10987836D01*
X3781450Y10977219D01*
X3792677Y10967923D01*
X3804970Y10960150D01*
X3818128Y10953953D01*
X3831996Y10949432D01*
X3846271Y10946739D01*
G37*
G36*
X3873500Y10946587D02*
G01*
X3875328Y10946739D01*
X3889603Y10949432D01*
X3903472Y10953953D01*
X3916629Y10960150D01*
X3928922Y10967923D01*
X3940098Y10977219D01*
X3950106Y10987836D01*
X3958640Y10999622D01*
X3965651Y11012373D01*
X3970985Y11025886D01*
X3974642Y11040008D01*
X3975760Y11049000D01*
X3873500Y11049000D01*
G37*
G36*
X3860800Y10691825D02*
G01*
X3875328Y10692739D01*
X3889603Y10695432D01*
X3903472Y10699953D01*
X3916629Y10706150D01*
X3928922Y10713923D01*
X3940098Y10723219D01*
X3950106Y10733836D01*
X3958640Y10745622D01*
X3965651Y10758373D01*
X3970985Y10771886D01*
X3974642Y10786008D01*
X3976471Y10800435D01*
X3976471Y10814964D01*
X3974642Y10829391D01*
X3970985Y10843514D01*
X3965651Y10857026D01*
X3958640Y10869777D01*
X3950106Y10881563D01*
X3940098Y10892180D01*
X3928922Y10901476D01*
X3916629Y10909249D01*
X3903472Y10915446D01*
X3889603Y10919968D01*
X3875328Y10922660D01*
X3860800Y10923574D01*
X3846271Y10922660D01*
X3831996Y10919968D01*
X3818128Y10915446D01*
X3804970Y10909249D01*
X3792677Y10901476D01*
X3781450Y10892180D01*
X3771493Y10881563D01*
X3762959Y10869777D01*
X3755948Y10857026D01*
X3750564Y10843514D01*
X3746957Y10829391D01*
X3745128Y10814964D01*
X3745128Y10800435D01*
X3746957Y10786008D01*
X3750564Y10771886D01*
X3755948Y10758373D01*
X3762959Y10745622D01*
X3771493Y10733836D01*
X3781450Y10723219D01*
X3792677Y10713923D01*
X3804970Y10706150D01*
X3818128Y10699953D01*
X3831996Y10695432D01*
X3846271Y10692739D01*
G37*
G36*
X3860800Y10437825D02*
G01*
X3875328Y10438739D01*
X3889603Y10441432D01*
X3903472Y10445953D01*
X3916629Y10452150D01*
X3928922Y10459923D01*
X3940098Y10469219D01*
X3950106Y10479836D01*
X3958640Y10491622D01*
X3965651Y10504373D01*
X3970985Y10517886D01*
X3974642Y10532008D01*
X3976471Y10546435D01*
X3976471Y10560964D01*
X3974642Y10575391D01*
X3970985Y10589514D01*
X3965651Y10603026D01*
X3958640Y10615777D01*
X3950106Y10627563D01*
X3940098Y10638180D01*
X3928922Y10647476D01*
X3916629Y10655249D01*
X3903472Y10661446D01*
X3889603Y10665968D01*
X3875328Y10668660D01*
X3860800Y10669574D01*
X3846271Y10668660D01*
X3831996Y10665968D01*
X3818128Y10661446D01*
X3804970Y10655249D01*
X3792677Y10647476D01*
X3781450Y10638180D01*
X3771493Y10627563D01*
X3762959Y10615777D01*
X3755948Y10603026D01*
X3750564Y10589514D01*
X3746957Y10575391D01*
X3745128Y10560964D01*
X3745128Y10546435D01*
X3746957Y10532008D01*
X3750564Y10517886D01*
X3755948Y10504373D01*
X3762959Y10491622D01*
X3771493Y10479836D01*
X3781450Y10469219D01*
X3792677Y10459923D01*
X3804970Y10452150D01*
X3818128Y10445953D01*
X3831996Y10441432D01*
X3846271Y10438739D01*
G37*
G36*
X675894Y10304576D02*
G01*
X691083Y10305491D01*
X706018Y10308234D01*
X720547Y10312755D01*
X734415Y10319004D01*
X747420Y10326878D01*
X759358Y10336276D01*
X770128Y10346994D01*
X779475Y10358983D01*
X787349Y10371988D01*
X793597Y10385856D01*
X798118Y10400334D01*
X800862Y10415320D01*
X801776Y10430459D01*
X800862Y10445648D01*
X798118Y10460634D01*
X793597Y10475112D01*
X787349Y10488980D01*
X779475Y10501985D01*
X770128Y10513974D01*
X759358Y10524693D01*
X747420Y10534091D01*
X734415Y10541965D01*
X720547Y10548213D01*
X706018Y10552734D01*
X691083Y10555478D01*
X675894Y10556392D01*
X660704Y10555478D01*
X645769Y10552734D01*
X631240Y10548213D01*
X617372Y10541965D01*
X604367Y10534091D01*
X592429Y10524693D01*
X581660Y10513974D01*
X572312Y10501985D01*
X564438Y10488980D01*
X558190Y10475112D01*
X553669Y10460634D01*
X550926Y10445648D01*
X550011Y10430459D01*
X550926Y10415320D01*
X553669Y10400334D01*
X558190Y10385856D01*
X564438Y10371988D01*
X572312Y10358983D01*
X581660Y10346994D01*
X592429Y10336276D01*
X604367Y10326878D01*
X617372Y10319004D01*
X631240Y10312755D01*
X645769Y10308234D01*
X660704Y10305491D01*
G37*
G36*
X3390900Y10304576D02*
G01*
X3406089Y10305491D01*
X3421024Y10308234D01*
X3435553Y10312755D01*
X3449421Y10319004D01*
X3462426Y10326878D01*
X3474364Y10336276D01*
X3485134Y10346994D01*
X3494481Y10358983D01*
X3502355Y10371988D01*
X3508603Y10385856D01*
X3513124Y10400334D01*
X3515868Y10415320D01*
X3516782Y10430459D01*
X3515868Y10445648D01*
X3513124Y10460634D01*
X3508603Y10475112D01*
X3502355Y10488980D01*
X3494481Y10501985D01*
X3485134Y10513974D01*
X3474364Y10524693D01*
X3462426Y10534091D01*
X3449421Y10541965D01*
X3435553Y10548213D01*
X3421024Y10552734D01*
X3406089Y10555478D01*
X3390900Y10556392D01*
X3375710Y10555478D01*
X3360775Y10552734D01*
X3346246Y10548213D01*
X3332378Y10541965D01*
X3319373Y10534091D01*
X3307435Y10524693D01*
X3296665Y10513974D01*
X3287318Y10501985D01*
X3279444Y10488980D01*
X3273196Y10475112D01*
X3268675Y10460634D01*
X3265932Y10445648D01*
X3265017Y10430459D01*
X3265932Y10415320D01*
X3268675Y10400334D01*
X3273196Y10385856D01*
X3279444Y10371988D01*
X3287318Y10358983D01*
X3296665Y10346994D01*
X3307435Y10336276D01*
X3319373Y10326878D01*
X3332378Y10319004D01*
X3346246Y10312755D01*
X3360775Y10308234D01*
X3375710Y10305491D01*
G37*
G36*
X3860800Y10183825D02*
G01*
X3875328Y10184739D01*
X3889603Y10187432D01*
X3903472Y10191953D01*
X3916629Y10198150D01*
X3928922Y10205923D01*
X3940098Y10215219D01*
X3950106Y10225836D01*
X3958640Y10237622D01*
X3965651Y10250373D01*
X3970985Y10263886D01*
X3974642Y10278008D01*
X3976471Y10292435D01*
X3976471Y10306964D01*
X3974642Y10321391D01*
X3970985Y10335514D01*
X3965651Y10349026D01*
X3958640Y10361777D01*
X3950106Y10373563D01*
X3940098Y10384180D01*
X3928922Y10393476D01*
X3916629Y10401249D01*
X3903472Y10407446D01*
X3889603Y10411968D01*
X3875328Y10414660D01*
X3860800Y10415574D01*
X3846271Y10414660D01*
X3831996Y10411968D01*
X3818128Y10407446D01*
X3804970Y10401249D01*
X3792677Y10393476D01*
X3781450Y10384180D01*
X3771493Y10373563D01*
X3762959Y10361777D01*
X3755948Y10349026D01*
X3750564Y10335514D01*
X3746957Y10321391D01*
X3745128Y10306964D01*
X3745128Y10292435D01*
X3746957Y10278008D01*
X3750564Y10263886D01*
X3755948Y10250373D01*
X3762959Y10237622D01*
X3771493Y10225836D01*
X3781450Y10215219D01*
X3792677Y10205923D01*
X3804970Y10198150D01*
X3818128Y10191953D01*
X3831996Y10187432D01*
X3846271Y10184739D01*
G37*
G36*
X3860800Y9929825D02*
G01*
X3875328Y9930739D01*
X3889603Y9933432D01*
X3903472Y9937953D01*
X3916629Y9944150D01*
X3928922Y9951923D01*
X3940098Y9961219D01*
X3950106Y9971836D01*
X3958640Y9983622D01*
X3965651Y9996373D01*
X3970985Y10009886D01*
X3974642Y10024008D01*
X3976471Y10038435D01*
X3976471Y10052964D01*
X3974642Y10067391D01*
X3970985Y10081514D01*
X3965651Y10095026D01*
X3958640Y10107777D01*
X3950106Y10119563D01*
X3940098Y10130180D01*
X3928922Y10139476D01*
X3916629Y10147249D01*
X3903472Y10153446D01*
X3889603Y10157968D01*
X3875328Y10160660D01*
X3860800Y10161574D01*
X3846271Y10160660D01*
X3831996Y10157968D01*
X3818128Y10153446D01*
X3804970Y10147249D01*
X3792677Y10139476D01*
X3781450Y10130180D01*
X3771493Y10119563D01*
X3762959Y10107777D01*
X3755948Y10095026D01*
X3750564Y10081514D01*
X3746957Y10067391D01*
X3745128Y10052964D01*
X3745128Y10038435D01*
X3746957Y10024008D01*
X3750564Y10009886D01*
X3755948Y9996373D01*
X3762959Y9983622D01*
X3771493Y9971836D01*
X3781450Y9961219D01*
X3792677Y9951923D01*
X3804970Y9944150D01*
X3818128Y9937953D01*
X3831996Y9933432D01*
X3846271Y9930739D01*
G37*
G36*
X2667000Y2991662D02*
G01*
X2676804Y2992526D01*
X2686253Y2995066D01*
X2695194Y2999181D01*
X2703220Y3004820D01*
X2710180Y3011779D01*
X2715818Y3019806D01*
X2719933Y3028746D01*
X2722473Y3038195D01*
X2723337Y3048000D01*
X2722473Y3057804D01*
X2719933Y3067253D01*
X2718866Y3069590D01*
X2717901Y3073908D01*
X2717901Y3802938D01*
X2718866Y3807256D01*
X2720949Y3810000D01*
X2718866Y3812743D01*
X2717901Y3817061D01*
X2717901Y6349441D01*
X2718511Y6352844D01*
X2720187Y6355842D01*
X2722778Y6358128D01*
X2733243Y6364427D01*
X2744368Y6373317D01*
X2754223Y6383528D01*
X2762707Y6394907D01*
X2769717Y6407251D01*
X2775051Y6420459D01*
X2778658Y6434175D01*
X2780436Y6448298D01*
X2780436Y6462471D01*
X2778658Y6476593D01*
X2775051Y6490309D01*
X2769717Y6503517D01*
X2762707Y6515862D01*
X2754223Y6527292D01*
X2744368Y6537452D01*
X2733243Y6546342D01*
X2723489Y6552234D01*
X2720746Y6554673D01*
X2719070Y6557975D01*
X2718663Y6561632D01*
X2719578Y6565188D01*
X2722727Y6572046D01*
X2725267Y6581495D01*
X2726131Y6591300D01*
X2725267Y6601104D01*
X2722727Y6610553D01*
X2718612Y6619494D01*
X2712974Y6627520D01*
X2706014Y6634480D01*
X2697988Y6640118D01*
X2689047Y6644233D01*
X2679598Y6646773D01*
X2669794Y6647637D01*
X2659989Y6646773D01*
X2650540Y6644233D01*
X2641600Y6640118D01*
X2633573Y6634480D01*
X2626614Y6627520D01*
X2620975Y6619494D01*
X2616860Y6610553D01*
X2614320Y6601104D01*
X2613456Y6591300D01*
X2614320Y6581495D01*
X2616860Y6572046D01*
X2620010Y6565188D01*
X2620975Y6561429D01*
X2620467Y6557619D01*
X2618536Y6554266D01*
X2615539Y6551879D01*
X2612288Y6550202D01*
X2600655Y6542074D01*
X2590139Y6532524D01*
X2580944Y6521704D01*
X2573172Y6509816D01*
X2567025Y6497015D01*
X2562555Y6483502D01*
X2559812Y6469583D01*
X2558897Y6455410D01*
X2559812Y6441186D01*
X2562555Y6427266D01*
X2567025Y6413754D01*
X2573172Y6400952D01*
X2580944Y6389065D01*
X2590139Y6378244D01*
X2600655Y6368694D01*
X2611729Y6360972D01*
X2614066Y6358686D01*
X2615590Y6355842D01*
X2616098Y6352641D01*
X2616098Y3073908D01*
X2615133Y3069590D01*
X2614066Y3067253D01*
X2611526Y3057804D01*
X2610662Y3048000D01*
X2611526Y3038195D01*
X2614066Y3028746D01*
X2618181Y3019806D01*
X2623820Y3011779D01*
X2630779Y3004820D01*
X2638806Y2999181D01*
X2647746Y2995066D01*
X2657195Y2992526D01*
G37*
G36*
X508000Y3245662D02*
G01*
X517804Y3246526D01*
X527253Y3249066D01*
X536194Y3253181D01*
X544220Y3258820D01*
X551180Y3265779D01*
X556818Y3273806D01*
X560933Y3282746D01*
X563473Y3292195D01*
X564337Y3302000D01*
X563473Y3311804D01*
X560933Y3321253D01*
X556818Y3330194D01*
X551180Y3338220D01*
X549605Y3339795D01*
X547370Y3343097D01*
X546608Y3347008D01*
X546608Y5923991D01*
X547370Y5927902D01*
X549605Y5931204D01*
X551180Y5932779D01*
X556818Y5940806D01*
X560933Y5949746D01*
X563473Y5959195D01*
X564337Y5969000D01*
X563473Y5978804D01*
X560933Y5988253D01*
X556818Y5997194D01*
X551180Y6005220D01*
X544220Y6012180D01*
X536194Y6017818D01*
X527253Y6021933D01*
X517804Y6024473D01*
X508000Y6025337D01*
X498195Y6024473D01*
X488746Y6021933D01*
X479806Y6017818D01*
X471779Y6012180D01*
X464820Y6005220D01*
X459181Y5997194D01*
X455066Y5988253D01*
X452526Y5978804D01*
X451662Y5969000D01*
X452526Y5959195D01*
X455066Y5949746D01*
X459181Y5940806D01*
X464820Y5932779D01*
X466394Y5931204D01*
X468630Y5927902D01*
X469392Y5923991D01*
X469392Y3347008D01*
X468630Y3343097D01*
X466394Y3339795D01*
X464820Y3338220D01*
X459181Y3330194D01*
X455066Y3321253D01*
X452526Y3311804D01*
X451662Y3302000D01*
X452526Y3292195D01*
X455066Y3282746D01*
X459181Y3273806D01*
X464820Y3265779D01*
X471779Y3258820D01*
X479806Y3253181D01*
X488746Y3249066D01*
X498195Y3246526D01*
G37*
G36*
X635000Y3372662D02*
G01*
X644804Y3373526D01*
X654253Y3376066D01*
X663194Y3380181D01*
X671220Y3385820D01*
X678180Y3392779D01*
X683818Y3400806D01*
X687933Y3409746D01*
X690473Y3419195D01*
X691337Y3429000D01*
X690473Y3438804D01*
X687933Y3448253D01*
X683818Y3457194D01*
X678180Y3465220D01*
X676605Y3466795D01*
X674370Y3470097D01*
X673608Y3474008D01*
X673608Y6000191D01*
X674370Y6004102D01*
X676605Y6007404D01*
X678180Y6008979D01*
X683818Y6017006D01*
X687933Y6025946D01*
X690473Y6035395D01*
X691337Y6045200D01*
X690473Y6055004D01*
X687933Y6064453D01*
X683818Y6073394D01*
X678180Y6081420D01*
X671220Y6088380D01*
X663194Y6094018D01*
X654253Y6098133D01*
X644804Y6100673D01*
X635000Y6101537D01*
X625195Y6100673D01*
X615746Y6098133D01*
X606806Y6094018D01*
X598779Y6088380D01*
X591820Y6081420D01*
X586181Y6073394D01*
X582066Y6064453D01*
X579526Y6055004D01*
X578662Y6045200D01*
X579526Y6035395D01*
X582066Y6025946D01*
X586181Y6017006D01*
X591820Y6008979D01*
X593394Y6007404D01*
X595630Y6004102D01*
X596392Y6000191D01*
X596392Y3474008D01*
X595630Y3470097D01*
X593394Y3466795D01*
X591820Y3465220D01*
X586181Y3457194D01*
X582066Y3448253D01*
X579526Y3438804D01*
X578662Y3429000D01*
X579526Y3419195D01*
X582066Y3409746D01*
X586181Y3400806D01*
X591820Y3392779D01*
X598779Y3385820D01*
X606806Y3380181D01*
X615746Y3376066D01*
X625195Y3373526D01*
G37*
G36*
X762000Y3499662D02*
G01*
X771804Y3500526D01*
X781253Y3503066D01*
X790194Y3507181D01*
X798220Y3512820D01*
X805180Y3519779D01*
X810818Y3527806D01*
X814933Y3536746D01*
X817473Y3546195D01*
X818337Y3556000D01*
X817473Y3565804D01*
X814933Y3575253D01*
X810818Y3584194D01*
X805180Y3592220D01*
X803605Y3593795D01*
X801370Y3597097D01*
X800608Y3601008D01*
X800608Y6076391D01*
X801370Y6080302D01*
X803605Y6083604D01*
X805180Y6085179D01*
X810818Y6093206D01*
X814933Y6102146D01*
X817473Y6111595D01*
X818337Y6121400D01*
X817473Y6131204D01*
X814933Y6140653D01*
X810818Y6149594D01*
X805180Y6157620D01*
X798220Y6164580D01*
X790194Y6170218D01*
X781253Y6174333D01*
X771804Y6176873D01*
X762000Y6177737D01*
X752195Y6176873D01*
X742746Y6174333D01*
X733806Y6170218D01*
X725779Y6164580D01*
X718820Y6157620D01*
X713181Y6149594D01*
X709066Y6140653D01*
X706526Y6131204D01*
X705662Y6121400D01*
X706526Y6111595D01*
X709066Y6102146D01*
X713181Y6093206D01*
X718820Y6085179D01*
X720394Y6083604D01*
X722630Y6080302D01*
X723392Y6076391D01*
X723392Y3601008D01*
X722630Y3597097D01*
X720394Y3593795D01*
X718820Y3592220D01*
X713181Y3584194D01*
X709066Y3575253D01*
X706526Y3565804D01*
X705662Y3556000D01*
X706526Y3546195D01*
X709066Y3536746D01*
X713181Y3527806D01*
X718820Y3519779D01*
X725779Y3512820D01*
X733806Y3507181D01*
X742746Y3503066D01*
X752195Y3500526D01*
G37*
G36*
X2959100Y9900462D02*
G01*
X2968904Y9901326D01*
X2978353Y9903866D01*
X2987294Y9907981D01*
X2995320Y9913620D01*
X3002280Y9920579D01*
X3007918Y9928606D01*
X3012033Y9937546D01*
X3014573Y9946995D01*
X3015437Y9956800D01*
X3014573Y9966604D01*
X3012033Y9976053D01*
X3010966Y9978390D01*
X3010001Y9982708D01*
X3010001Y10184892D01*
X3010966Y10189210D01*
X3012033Y10191546D01*
X3014573Y10200995D01*
X3015437Y10210800D01*
X3014573Y10220604D01*
X3012033Y10230053D01*
X3007918Y10238994D01*
X3002280Y10247020D01*
X2995320Y10253980D01*
X2987294Y10259618D01*
X2978353Y10263733D01*
X2968904Y10266273D01*
X2959100Y10267137D01*
X2949295Y10266273D01*
X2939846Y10263733D01*
X2930906Y10259618D01*
X2922879Y10253980D01*
X2915920Y10247020D01*
X2910281Y10238994D01*
X2906166Y10230053D01*
X2903626Y10220604D01*
X2902762Y10210800D01*
X2903626Y10200995D01*
X2906166Y10191546D01*
X2907233Y10189210D01*
X2908198Y10184892D01*
X2908198Y9982708D01*
X2907233Y9978390D01*
X2906166Y9976053D01*
X2903626Y9966604D01*
X2902762Y9956800D01*
X2903626Y9946995D01*
X2906166Y9937546D01*
X2910281Y9928606D01*
X2915920Y9920579D01*
X2922879Y9913620D01*
X2930906Y9907981D01*
X2939846Y9903866D01*
X2949295Y9901326D01*
G37*
G36*
X3860800Y9675825D02*
G01*
X3875328Y9676739D01*
X3889603Y9679432D01*
X3903472Y9683953D01*
X3916629Y9690150D01*
X3928922Y9697923D01*
X3940098Y9707219D01*
X3950106Y9717836D01*
X3958640Y9729622D01*
X3965651Y9742373D01*
X3970985Y9755886D01*
X3974642Y9770008D01*
X3976471Y9784435D01*
X3976471Y9798964D01*
X3974642Y9813391D01*
X3970985Y9827514D01*
X3965651Y9841026D01*
X3958640Y9853777D01*
X3950106Y9865563D01*
X3940098Y9876180D01*
X3928922Y9885476D01*
X3916629Y9893249D01*
X3903472Y9899446D01*
X3889603Y9903968D01*
X3875328Y9906660D01*
X3860800Y9907574D01*
X3846271Y9906660D01*
X3831996Y9903968D01*
X3818128Y9899446D01*
X3804970Y9893249D01*
X3792677Y9885476D01*
X3781450Y9876180D01*
X3771493Y9865563D01*
X3762959Y9853777D01*
X3755948Y9841026D01*
X3750564Y9827514D01*
X3746957Y9813391D01*
X3745128Y9798964D01*
X3745128Y9784435D01*
X3746957Y9770008D01*
X3750564Y9755886D01*
X3755948Y9742373D01*
X3762959Y9729622D01*
X3771493Y9717836D01*
X3781450Y9707219D01*
X3792677Y9697923D01*
X3804970Y9690150D01*
X3818128Y9683953D01*
X3831996Y9679432D01*
X3846271Y9676739D01*
G37*
G36*
X1270000Y4007662D02*
G01*
X1279804Y4008526D01*
X1289253Y4011066D01*
X1298194Y4015181D01*
X1306220Y4020820D01*
X1313180Y4027779D01*
X1318818Y4035806D01*
X1322933Y4044746D01*
X1325473Y4054195D01*
X1326337Y4064000D01*
X1325473Y4073804D01*
X1322933Y4083253D01*
X1318818Y4092194D01*
X1313180Y4100220D01*
X1311605Y4101795D01*
X1309370Y4105097D01*
X1308608Y4109008D01*
X1308608Y4514291D01*
X1309370Y4518202D01*
X1311605Y4521504D01*
X1313180Y4523079D01*
X1318818Y4531106D01*
X1322933Y4540046D01*
X1325473Y4549495D01*
X1326337Y4559300D01*
X1325473Y4569104D01*
X1322933Y4578553D01*
X1318818Y4587494D01*
X1313180Y4595520D01*
X1306220Y4602480D01*
X1298194Y4608118D01*
X1289253Y4612233D01*
X1279804Y4614773D01*
X1270000Y4615637D01*
X1260195Y4614773D01*
X1250746Y4612233D01*
X1241806Y4608118D01*
X1233779Y4602480D01*
X1226820Y4595520D01*
X1221181Y4587494D01*
X1217066Y4578553D01*
X1214526Y4569104D01*
X1213662Y4559300D01*
X1214526Y4549495D01*
X1217066Y4540046D01*
X1221181Y4531106D01*
X1226820Y4523079D01*
X1228394Y4521504D01*
X1230630Y4518202D01*
X1231392Y4514291D01*
X1231392Y4109008D01*
X1230630Y4105097D01*
X1228394Y4101795D01*
X1226820Y4100220D01*
X1221181Y4092194D01*
X1217066Y4083253D01*
X1214526Y4073804D01*
X1213662Y4064000D01*
X1214526Y4054195D01*
X1217066Y4044746D01*
X1221181Y4035806D01*
X1226820Y4027779D01*
X1233779Y4020820D01*
X1241806Y4015181D01*
X1250746Y4011066D01*
X1260195Y4008526D01*
G37*
G36*
X2900070Y4194403D02*
G01*
X2971800Y4194403D01*
X2971800Y4292600D01*
X2873603Y4292600D01*
X2873603Y4220870D01*
X2874314Y4214571D01*
X2876194Y4209084D01*
X2879293Y4204208D01*
X2883408Y4200093D01*
X2888284Y4196994D01*
X2893771Y4195114D01*
G37*
G36*
X3860800Y9421825D02*
G01*
X3875328Y9422739D01*
X3889603Y9425432D01*
X3903472Y9429953D01*
X3916629Y9436150D01*
X3928922Y9443923D01*
X3940098Y9453219D01*
X3950106Y9463836D01*
X3958640Y9475622D01*
X3965651Y9488373D01*
X3970985Y9501886D01*
X3974642Y9516008D01*
X3976471Y9530435D01*
X3976471Y9544964D01*
X3974642Y9559391D01*
X3970985Y9573514D01*
X3965651Y9587026D01*
X3958640Y9599777D01*
X3950106Y9611563D01*
X3940098Y9622180D01*
X3928922Y9631476D01*
X3916629Y9639249D01*
X3903472Y9645446D01*
X3889603Y9649968D01*
X3875328Y9652660D01*
X3860800Y9653574D01*
X3846271Y9652660D01*
X3831996Y9649968D01*
X3818128Y9645446D01*
X3804970Y9639249D01*
X3792677Y9631476D01*
X3781450Y9622180D01*
X3771493Y9611563D01*
X3762959Y9599777D01*
X3755948Y9587026D01*
X3750564Y9573514D01*
X3746957Y9559391D01*
X3745128Y9544964D01*
X3745128Y9530435D01*
X3746957Y9516008D01*
X3750564Y9501886D01*
X3755948Y9488373D01*
X3762959Y9475622D01*
X3771493Y9463836D01*
X3781450Y9453219D01*
X3792677Y9443923D01*
X3804970Y9436150D01*
X3818128Y9429953D01*
X3831996Y9425432D01*
X3846271Y9422739D01*
G37*
G36*
X939800Y4195216D02*
G01*
X939800Y4292600D01*
X842568Y4292600D01*
X843026Y4287621D01*
X846175Y4273753D01*
X851103Y4260392D01*
X857656Y4247794D01*
X865784Y4236161D01*
X875334Y4225645D01*
X886155Y4216450D01*
X898093Y4208678D01*
X910894Y4202531D01*
X924356Y4198061D01*
X938326Y4195318D01*
G37*
G36*
X965200Y4195216D02*
G01*
X966673Y4195318D01*
X980643Y4198061D01*
X994105Y4202531D01*
X1006906Y4208678D01*
X1018844Y4216450D01*
X1029665Y4225645D01*
X1039215Y4236161D01*
X1047343Y4247794D01*
X1053896Y4260392D01*
X1058824Y4273753D01*
X1061974Y4287621D01*
X1062431Y4292600D01*
X965200Y4292600D01*
G37*
G36*
X2959100Y9354362D02*
G01*
X2968904Y9355226D01*
X2978353Y9357766D01*
X2987294Y9361881D01*
X2995320Y9367520D01*
X3002280Y9374479D01*
X3007918Y9382506D01*
X3012033Y9391446D01*
X3014573Y9400895D01*
X3015437Y9410700D01*
X3014573Y9420504D01*
X3012033Y9429953D01*
X3010966Y9432290D01*
X3010001Y9436608D01*
X3010001Y9638792D01*
X3010966Y9643110D01*
X3012033Y9645446D01*
X3014573Y9654895D01*
X3015437Y9664700D01*
X3014573Y9674504D01*
X3012033Y9683953D01*
X3007918Y9692894D01*
X3002280Y9700920D01*
X2995320Y9707880D01*
X2987294Y9713518D01*
X2978353Y9717633D01*
X2968904Y9720173D01*
X2959100Y9721037D01*
X2949295Y9720173D01*
X2939846Y9717633D01*
X2930906Y9713518D01*
X2922879Y9707880D01*
X2915920Y9700920D01*
X2910281Y9692894D01*
X2906166Y9683953D01*
X2903626Y9674504D01*
X2902762Y9664700D01*
X2903626Y9654895D01*
X2906166Y9645446D01*
X2907233Y9643110D01*
X2908198Y9638792D01*
X2908198Y9436608D01*
X2907233Y9432290D01*
X2906166Y9429953D01*
X2903626Y9420504D01*
X2902762Y9410700D01*
X2903626Y9400895D01*
X2906166Y9391446D01*
X2910281Y9382506D01*
X2915920Y9374479D01*
X2922879Y9367520D01*
X2930906Y9361881D01*
X2939846Y9357766D01*
X2949295Y9355226D01*
G37*
G36*
X965200Y4318000D02*
G01*
X1062532Y4318000D01*
X1060602Y4329988D01*
X1056538Y4343603D01*
X1050798Y4356608D01*
X1043432Y4368749D01*
X1034592Y4379874D01*
X1024382Y4389729D01*
X1013002Y4398213D01*
X1000607Y4405223D01*
X987450Y4410557D01*
X973683Y4414164D01*
X965200Y4415231D01*
G37*
G36*
X842467Y4318000D02*
G01*
X939800Y4318000D01*
X939800Y4415231D01*
X931316Y4414164D01*
X917549Y4410557D01*
X904392Y4405223D01*
X891997Y4398213D01*
X880618Y4389729D01*
X870407Y4379874D01*
X861568Y4368749D01*
X854202Y4356608D01*
X848461Y4343603D01*
X844397Y4329988D01*
G37*
G36*
X2873603Y4318000D02*
G01*
X2971800Y4318000D01*
X2971800Y4416196D01*
X2900070Y4416196D01*
X2893771Y4415485D01*
X2888284Y4413605D01*
X2883408Y4410506D01*
X2879293Y4406392D01*
X2876194Y4401515D01*
X2874314Y4396028D01*
X2873603Y4389729D01*
G37*
G36*
X2679700Y8986062D02*
G01*
X2689504Y8986926D01*
X2698953Y8989466D01*
X2707894Y8993581D01*
X2715920Y8999220D01*
X2722880Y9006179D01*
X2728518Y9014206D01*
X2732633Y9023146D01*
X2735173Y9032595D01*
X2735884Y9040469D01*
X2736799Y9043873D01*
X2738831Y9046768D01*
X2741726Y9048800D01*
X2745130Y9049715D01*
X2753004Y9050426D01*
X2762453Y9052966D01*
X2771394Y9057081D01*
X2779420Y9062720D01*
X2786380Y9069679D01*
X2792018Y9077706D01*
X2796133Y9086646D01*
X2798673Y9096095D01*
X2799537Y9105900D01*
X2798673Y9115704D01*
X2796133Y9125153D01*
X2792018Y9134094D01*
X2786380Y9142069D01*
X2778455Y9149892D01*
X2776220Y9153194D01*
X2775458Y9157106D01*
X2775458Y10159593D01*
X2776220Y10163505D01*
X2778455Y10166807D01*
X2786380Y10174630D01*
X2792018Y10182606D01*
X2796133Y10191546D01*
X2798673Y10200995D01*
X2799537Y10210800D01*
X2798673Y10220604D01*
X2796133Y10230053D01*
X2792018Y10238994D01*
X2786380Y10247020D01*
X2779420Y10253980D01*
X2771394Y10259618D01*
X2762453Y10263733D01*
X2753004Y10266273D01*
X2743200Y10267137D01*
X2733395Y10266273D01*
X2723946Y10263733D01*
X2715006Y10259618D01*
X2706979Y10253980D01*
X2700020Y10247020D01*
X2694381Y10238994D01*
X2690266Y10230053D01*
X2687726Y10220604D01*
X2686862Y10210800D01*
X2687726Y10200995D01*
X2690266Y10191546D01*
X2694381Y10182606D01*
X2700020Y10174630D01*
X2707944Y10166807D01*
X2710180Y10163505D01*
X2710942Y10159593D01*
X2710942Y9727692D01*
X2710281Y9724034D01*
X2708351Y9720884D01*
X2705404Y9718649D01*
X2701848Y9717582D01*
X2698140Y9717887D01*
X2689504Y9720173D01*
X2679700Y9721037D01*
X2669895Y9720173D01*
X2660446Y9717633D01*
X2651506Y9713518D01*
X2643479Y9707880D01*
X2636520Y9700920D01*
X2630881Y9692894D01*
X2626766Y9683953D01*
X2624226Y9674504D01*
X2623362Y9664700D01*
X2624226Y9654895D01*
X2626766Y9645446D01*
X2630881Y9636506D01*
X2636520Y9628530D01*
X2644444Y9620707D01*
X2646680Y9617405D01*
X2647442Y9613493D01*
X2647442Y9093606D01*
X2646680Y9089694D01*
X2644444Y9086392D01*
X2636520Y9078569D01*
X2630881Y9070594D01*
X2626766Y9061653D01*
X2624226Y9052204D01*
X2623362Y9042400D01*
X2624226Y9032595D01*
X2626766Y9023146D01*
X2630881Y9014206D01*
X2636520Y9006179D01*
X2643479Y8999220D01*
X2651506Y8993581D01*
X2660446Y8989466D01*
X2669895Y8986926D01*
G37*
G36*
X952500Y4448403D02*
G01*
X966673Y4449318D01*
X980643Y4452061D01*
X994105Y4456531D01*
X1006906Y4462678D01*
X1018844Y4470450D01*
X1029665Y4479645D01*
X1039215Y4490161D01*
X1047343Y4501794D01*
X1053896Y4514392D01*
X1058824Y4527753D01*
X1061974Y4541621D01*
X1063345Y4555744D01*
X1062888Y4569968D01*
X1060602Y4583988D01*
X1056538Y4597603D01*
X1050798Y4610608D01*
X1043432Y4622749D01*
X1034592Y4633874D01*
X1024382Y4643729D01*
X1013002Y4652213D01*
X1000607Y4659223D01*
X987450Y4664557D01*
X973683Y4668164D01*
X959612Y4669942D01*
X945387Y4669942D01*
X931316Y4668164D01*
X917549Y4664557D01*
X904392Y4659223D01*
X891997Y4652213D01*
X880618Y4643729D01*
X870407Y4633874D01*
X861568Y4622749D01*
X854202Y4610608D01*
X848461Y4597603D01*
X844397Y4583988D01*
X842111Y4569968D01*
X841654Y4555744D01*
X843026Y4541621D01*
X846175Y4527753D01*
X851103Y4514392D01*
X857656Y4501794D01*
X865784Y4490161D01*
X875334Y4479645D01*
X886155Y4470450D01*
X898093Y4462678D01*
X910894Y4456531D01*
X924356Y4452061D01*
X938326Y4449318D01*
G37*
G36*
X3860800Y8659825D02*
G01*
X3875328Y8660739D01*
X3889603Y8663432D01*
X3903472Y8667953D01*
X3916629Y8674150D01*
X3928922Y8681923D01*
X3940098Y8691219D01*
X3950106Y8701836D01*
X3958640Y8713622D01*
X3965651Y8726373D01*
X3970985Y8739886D01*
X3974642Y8754008D01*
X3976471Y8768435D01*
X3976471Y8782964D01*
X3974642Y8797391D01*
X3970985Y8811514D01*
X3965651Y8825026D01*
X3958640Y8837777D01*
X3950106Y8849563D01*
X3940098Y8860180D01*
X3928922Y8869476D01*
X3916629Y8877249D01*
X3903472Y8883446D01*
X3889603Y8887968D01*
X3875328Y8890660D01*
X3860800Y8891574D01*
X3846271Y8890660D01*
X3831996Y8887968D01*
X3818128Y8883446D01*
X3804970Y8877249D01*
X3792677Y8869476D01*
X3781450Y8860180D01*
X3771493Y8849563D01*
X3762959Y8837777D01*
X3755948Y8825026D01*
X3750564Y8811514D01*
X3746957Y8797391D01*
X3745128Y8782964D01*
X3745128Y8768435D01*
X3746957Y8754008D01*
X3750564Y8739886D01*
X3755948Y8726373D01*
X3762959Y8713622D01*
X3771493Y8701836D01*
X3781450Y8691219D01*
X3792677Y8681923D01*
X3804970Y8674150D01*
X3818128Y8667953D01*
X3831996Y8663432D01*
X3846271Y8660739D01*
G37*
G36*
X2959100Y8630462D02*
G01*
X2968904Y8631326D01*
X2978353Y8633866D01*
X2987294Y8637981D01*
X2995320Y8643620D01*
X3002280Y8650579D01*
X3007918Y8658606D01*
X3012033Y8667546D01*
X3014573Y8676995D01*
X3015437Y8686800D01*
X3014573Y8696604D01*
X3012033Y8706053D01*
X3010966Y8708390D01*
X3010001Y8712708D01*
X3010001Y8914892D01*
X3010966Y8919210D01*
X3012033Y8921546D01*
X3014573Y8930995D01*
X3015437Y8940800D01*
X3014573Y8950604D01*
X3012033Y8960053D01*
X3007918Y8968994D01*
X3002280Y8977020D01*
X2995320Y8983980D01*
X2987294Y8989618D01*
X2978353Y8993733D01*
X2968904Y8996273D01*
X2959100Y8997137D01*
X2949295Y8996273D01*
X2939846Y8993733D01*
X2930906Y8989618D01*
X2922879Y8983980D01*
X2915920Y8977020D01*
X2910281Y8968994D01*
X2906166Y8960053D01*
X2903626Y8950604D01*
X2902762Y8940800D01*
X2903626Y8930995D01*
X2906166Y8921546D01*
X2907233Y8919210D01*
X2908198Y8914892D01*
X2908198Y8712708D01*
X2907233Y8708390D01*
X2906166Y8706053D01*
X2903626Y8696604D01*
X2902762Y8686800D01*
X2903626Y8676995D01*
X2906166Y8667546D01*
X2910281Y8658606D01*
X2915920Y8650579D01*
X2922879Y8643620D01*
X2930906Y8637981D01*
X2939846Y8633866D01*
X2949295Y8631326D01*
G37*
G36*
X939800Y4703216D02*
G01*
X939800Y4800600D01*
X842568Y4800600D01*
X843026Y4795621D01*
X846175Y4781753D01*
X851103Y4768392D01*
X857656Y4755794D01*
X865784Y4744161D01*
X875334Y4733645D01*
X886155Y4724450D01*
X898093Y4716678D01*
X910894Y4710531D01*
X924356Y4706061D01*
X938326Y4703318D01*
G37*
G36*
X965200Y4703216D02*
G01*
X966673Y4703318D01*
X980643Y4706061D01*
X994105Y4710531D01*
X1006906Y4716678D01*
X1018844Y4724450D01*
X1029665Y4733645D01*
X1039215Y4744161D01*
X1047343Y4755794D01*
X1053896Y4768392D01*
X1058824Y4781753D01*
X1061974Y4795621D01*
X1062431Y4800600D01*
X965200Y4800600D01*
G37*
G36*
X2971800Y4703216D02*
G01*
X2971800Y4800600D01*
X2874568Y4800600D01*
X2875026Y4795621D01*
X2878175Y4781753D01*
X2883103Y4768392D01*
X2889656Y4755794D01*
X2897784Y4744161D01*
X2907334Y4733645D01*
X2918155Y4724450D01*
X2930093Y4716678D01*
X2942894Y4710531D01*
X2956356Y4706061D01*
X2970326Y4703318D01*
G37*
G36*
X3860800Y8405825D02*
G01*
X3875328Y8406739D01*
X3889603Y8409432D01*
X3903472Y8413953D01*
X3916629Y8420150D01*
X3928922Y8427923D01*
X3940098Y8437219D01*
X3950106Y8447836D01*
X3958640Y8459622D01*
X3965651Y8472373D01*
X3970985Y8485886D01*
X3974642Y8500008D01*
X3976471Y8514435D01*
X3976471Y8528964D01*
X3974642Y8543391D01*
X3970985Y8557514D01*
X3965651Y8571026D01*
X3958640Y8583777D01*
X3950106Y8595563D01*
X3940098Y8606180D01*
X3928922Y8615476D01*
X3916629Y8623249D01*
X3903472Y8629446D01*
X3889603Y8633968D01*
X3875328Y8636660D01*
X3860800Y8637574D01*
X3846271Y8636660D01*
X3831996Y8633968D01*
X3818128Y8629446D01*
X3804970Y8623249D01*
X3792677Y8615476D01*
X3781450Y8606180D01*
X3771493Y8595563D01*
X3762959Y8583777D01*
X3755948Y8571026D01*
X3750564Y8557514D01*
X3746957Y8543391D01*
X3745128Y8528964D01*
X3745128Y8514435D01*
X3746957Y8500008D01*
X3750564Y8485886D01*
X3755948Y8472373D01*
X3762959Y8459622D01*
X3771493Y8447836D01*
X3781450Y8437219D01*
X3792677Y8427923D01*
X3804970Y8420150D01*
X3818128Y8413953D01*
X3831996Y8409432D01*
X3846271Y8406739D01*
G37*
G36*
X1536700Y8312962D02*
G01*
X1546504Y8313826D01*
X1555953Y8316366D01*
X1564894Y8320481D01*
X1572920Y8326120D01*
X1579880Y8333079D01*
X1585518Y8341106D01*
X1589633Y8350046D01*
X1592173Y8359495D01*
X1593037Y8369300D01*
X1592173Y8379104D01*
X1589633Y8388553D01*
X1585518Y8397494D01*
X1579880Y8405520D01*
X1578305Y8407095D01*
X1576070Y8410397D01*
X1575308Y8414308D01*
X1575308Y8806891D01*
X1576070Y8810802D01*
X1578305Y8814104D01*
X1579880Y8815679D01*
X1585518Y8823706D01*
X1589633Y8832646D01*
X1592173Y8842095D01*
X1593037Y8851900D01*
X1592173Y8861704D01*
X1589633Y8871153D01*
X1585518Y8880094D01*
X1579880Y8888120D01*
X1572920Y8895080D01*
X1564894Y8900718D01*
X1555953Y8904833D01*
X1546504Y8907373D01*
X1536700Y8908237D01*
X1526895Y8907373D01*
X1517446Y8904833D01*
X1508506Y8900718D01*
X1500479Y8895080D01*
X1493520Y8888120D01*
X1487881Y8880094D01*
X1483766Y8871153D01*
X1481226Y8861704D01*
X1480362Y8851900D01*
X1481226Y8842095D01*
X1483766Y8832646D01*
X1487881Y8823706D01*
X1493520Y8815679D01*
X1495094Y8814104D01*
X1497330Y8810802D01*
X1498092Y8806891D01*
X1498092Y8414308D01*
X1497330Y8410397D01*
X1495094Y8407095D01*
X1493520Y8405520D01*
X1487881Y8397494D01*
X1483766Y8388553D01*
X1481226Y8379104D01*
X1480362Y8369300D01*
X1481226Y8359495D01*
X1483766Y8350046D01*
X1487881Y8341106D01*
X1493520Y8333079D01*
X1500479Y8326120D01*
X1508506Y8320481D01*
X1517446Y8316366D01*
X1526895Y8313826D01*
G37*
G36*
X842467Y4826000D02*
G01*
X939800Y4826000D01*
X939800Y4923231D01*
X931316Y4922164D01*
X917549Y4918557D01*
X904392Y4913223D01*
X891997Y4906213D01*
X880618Y4897729D01*
X870407Y4887874D01*
X861568Y4876749D01*
X854202Y4864608D01*
X848461Y4851603D01*
X844397Y4837988D01*
G37*
G36*
X2874467Y4826000D02*
G01*
X2971800Y4826000D01*
X2971800Y4923231D01*
X2963316Y4922164D01*
X2949549Y4918557D01*
X2936392Y4913223D01*
X2923997Y4906213D01*
X2912618Y4897729D01*
X2902407Y4887874D01*
X2893568Y4876749D01*
X2886202Y4864608D01*
X2880461Y4851603D01*
X2876397Y4837988D01*
G37*
G36*
X965200Y4826000D02*
G01*
X1062532Y4826000D01*
X1060602Y4837988D01*
X1056538Y4851603D01*
X1050798Y4864608D01*
X1043432Y4876749D01*
X1034592Y4887874D01*
X1024382Y4897729D01*
X1013002Y4906213D01*
X1000607Y4913223D01*
X987450Y4918557D01*
X973683Y4922164D01*
X965200Y4923231D01*
G37*
G36*
X3860800Y8151825D02*
G01*
X3875328Y8152739D01*
X3889603Y8155431D01*
X3903472Y8159953D01*
X3916629Y8166150D01*
X3928922Y8173923D01*
X3940098Y8183219D01*
X3950106Y8193836D01*
X3958640Y8205622D01*
X3965651Y8218373D01*
X3970985Y8231886D01*
X3974642Y8246008D01*
X3976471Y8260435D01*
X3976471Y8274964D01*
X3974642Y8289391D01*
X3970985Y8303514D01*
X3965651Y8317026D01*
X3958640Y8329777D01*
X3950106Y8341563D01*
X3940098Y8352180D01*
X3928922Y8361476D01*
X3916629Y8369249D01*
X3903472Y8375446D01*
X3889603Y8379968D01*
X3875328Y8382660D01*
X3860800Y8383574D01*
X3846271Y8382660D01*
X3831996Y8379968D01*
X3818128Y8375446D01*
X3804970Y8369249D01*
X3792677Y8361476D01*
X3781450Y8352180D01*
X3771493Y8341563D01*
X3762959Y8329777D01*
X3755948Y8317026D01*
X3750564Y8303514D01*
X3746957Y8289391D01*
X3745128Y8274964D01*
X3745128Y8260435D01*
X3746957Y8246008D01*
X3750564Y8231886D01*
X3755948Y8218373D01*
X3762959Y8205622D01*
X3771493Y8193836D01*
X3781450Y8183219D01*
X3792677Y8173923D01*
X3804970Y8166150D01*
X3818128Y8159953D01*
X3831996Y8155431D01*
X3846271Y8152739D01*
G37*
G36*
X2959100Y8084362D02*
G01*
X2968904Y8085226D01*
X2978353Y8087766D01*
X2987294Y8091881D01*
X2995320Y8097520D01*
X3002280Y8104479D01*
X3007918Y8112506D01*
X3012033Y8121446D01*
X3014573Y8130895D01*
X3015437Y8140700D01*
X3014573Y8150504D01*
X3012033Y8159953D01*
X3010966Y8162290D01*
X3010001Y8166608D01*
X3010001Y8368792D01*
X3010966Y8373109D01*
X3012033Y8375446D01*
X3014573Y8384895D01*
X3015437Y8394700D01*
X3014573Y8404504D01*
X3012033Y8413953D01*
X3007918Y8422894D01*
X3002280Y8430920D01*
X2995320Y8437880D01*
X2987294Y8443518D01*
X2978353Y8447633D01*
X2968904Y8450173D01*
X2959100Y8451037D01*
X2949295Y8450173D01*
X2939846Y8447633D01*
X2930906Y8443518D01*
X2922879Y8437880D01*
X2915920Y8430920D01*
X2910281Y8422894D01*
X2906166Y8413953D01*
X2903626Y8404504D01*
X2902762Y8394700D01*
X2903626Y8384895D01*
X2906166Y8375446D01*
X2907233Y8373109D01*
X2908198Y8368792D01*
X2908198Y8166608D01*
X2907233Y8162290D01*
X2906166Y8159953D01*
X2903626Y8150504D01*
X2902762Y8140700D01*
X2903626Y8130895D01*
X2906166Y8121446D01*
X2910281Y8112506D01*
X2915920Y8104479D01*
X2922879Y8097520D01*
X2930906Y8091881D01*
X2939846Y8087766D01*
X2949295Y8085226D01*
G37*
G36*
X3860800Y7897825D02*
G01*
X3875328Y7898739D01*
X3889603Y7901431D01*
X3903472Y7905953D01*
X3916629Y7912150D01*
X3928922Y7919923D01*
X3940098Y7929219D01*
X3950106Y7939836D01*
X3958640Y7951622D01*
X3965651Y7964373D01*
X3970985Y7977886D01*
X3974642Y7992008D01*
X3976471Y8006435D01*
X3976471Y8020964D01*
X3974642Y8035391D01*
X3970985Y8049514D01*
X3965651Y8063026D01*
X3958640Y8075777D01*
X3950106Y8087563D01*
X3940098Y8098180D01*
X3928922Y8107476D01*
X3916629Y8115249D01*
X3903472Y8121446D01*
X3889603Y8125968D01*
X3875328Y8128660D01*
X3860800Y8129574D01*
X3846271Y8128660D01*
X3831996Y8125968D01*
X3818128Y8121446D01*
X3804970Y8115249D01*
X3792677Y8107476D01*
X3781450Y8098180D01*
X3771493Y8087563D01*
X3762959Y8075777D01*
X3755948Y8063026D01*
X3750564Y8049514D01*
X3746957Y8035391D01*
X3745128Y8020964D01*
X3745128Y8006435D01*
X3746957Y7992008D01*
X3750564Y7977886D01*
X3755948Y7964373D01*
X3762959Y7951622D01*
X3771493Y7939836D01*
X3781450Y7929219D01*
X3792677Y7919923D01*
X3804970Y7912150D01*
X3818128Y7905953D01*
X3831996Y7901431D01*
X3846271Y7898739D01*
G37*
G36*
X939800Y4957216D02*
G01*
X939800Y5054600D01*
X842568Y5054600D01*
X843026Y5049621D01*
X846175Y5035753D01*
X851103Y5022392D01*
X857656Y5009794D01*
X865784Y4998161D01*
X875334Y4987645D01*
X886155Y4978450D01*
X898093Y4970678D01*
X910894Y4964531D01*
X924356Y4960061D01*
X938326Y4957318D01*
G37*
G36*
X965200Y4957216D02*
G01*
X966673Y4957318D01*
X980643Y4960061D01*
X994105Y4964531D01*
X1006906Y4970678D01*
X1018844Y4978450D01*
X1029665Y4987645D01*
X1039215Y4998161D01*
X1047343Y5009794D01*
X1053896Y5022392D01*
X1058824Y5035753D01*
X1061974Y5049621D01*
X1062431Y5054600D01*
X965200Y5054600D01*
G37*
G36*
X842467Y5080000D02*
G01*
X939800Y5080000D01*
X939800Y5177231D01*
X931316Y5176164D01*
X917549Y5172557D01*
X904392Y5167223D01*
X891997Y5160213D01*
X880618Y5151729D01*
X870407Y5141874D01*
X861568Y5130749D01*
X854202Y5118608D01*
X848461Y5105603D01*
X844397Y5091988D01*
G37*
G36*
X965200Y5080000D02*
G01*
X1062532Y5080000D01*
X1060602Y5091988D01*
X1056538Y5105603D01*
X1050798Y5118608D01*
X1043432Y5130749D01*
X1034592Y5141874D01*
X1024382Y5151729D01*
X1013002Y5160213D01*
X1000607Y5167223D01*
X987450Y5172557D01*
X973683Y5176164D01*
X965200Y5177231D01*
G37*
G36*
X3657600Y7893862D02*
G01*
X3667404Y7894726D01*
X3676853Y7897266D01*
X3685794Y7901381D01*
X3693820Y7907020D01*
X3700779Y7913979D01*
X3706418Y7922006D01*
X3710533Y7930946D01*
X3713073Y7940395D01*
X3713937Y7950200D01*
X3713073Y7960004D01*
X3710533Y7969453D01*
X3706418Y7978394D01*
X3700779Y7986369D01*
X3692855Y7994192D01*
X3690620Y7997494D01*
X3689858Y8001406D01*
X3689858Y8808923D01*
X3690620Y8812834D01*
X3692855Y8816136D01*
X3799840Y8923121D01*
X3803294Y8925407D01*
X3807358Y8926118D01*
X3811371Y8925153D01*
X3818128Y8921953D01*
X3831996Y8917432D01*
X3846271Y8914739D01*
X3860800Y8913825D01*
X3875328Y8914739D01*
X3889603Y8917432D01*
X3903472Y8921953D01*
X3916629Y8928150D01*
X3928922Y8935923D01*
X3940098Y8945219D01*
X3950106Y8955836D01*
X3958640Y8967622D01*
X3965651Y8980373D01*
X3970985Y8993886D01*
X3974642Y9008008D01*
X3976471Y9022435D01*
X3976471Y9036964D01*
X3974642Y9051391D01*
X3970985Y9065514D01*
X3965651Y9079026D01*
X3958640Y9091777D01*
X3950106Y9103563D01*
X3940098Y9114180D01*
X3928922Y9123476D01*
X3916629Y9131249D01*
X3903472Y9137446D01*
X3889603Y9141968D01*
X3875328Y9144660D01*
X3860800Y9145574D01*
X3846271Y9144660D01*
X3831996Y9141968D01*
X3818128Y9137446D01*
X3804970Y9131249D01*
X3792677Y9123476D01*
X3781450Y9114180D01*
X3771493Y9103563D01*
X3762959Y9091777D01*
X3755948Y9079026D01*
X3750564Y9065514D01*
X3746957Y9051391D01*
X3745128Y9036964D01*
X3745128Y9022435D01*
X3746957Y9008008D01*
X3750564Y8993886D01*
X3756304Y8979509D01*
X3757015Y8975648D01*
X3756253Y8971838D01*
X3754069Y8968587D01*
X3635146Y8849664D01*
X3630574Y8844026D01*
X3627526Y8838031D01*
X3625748Y8831427D01*
X3625342Y8826093D01*
X3625342Y8001406D01*
X3624579Y7997494D01*
X3622344Y7994192D01*
X3614420Y7986369D01*
X3608781Y7978394D01*
X3604666Y7969453D01*
X3602126Y7960004D01*
X3601262Y7950200D01*
X3602126Y7940395D01*
X3604666Y7930946D01*
X3608781Y7922006D01*
X3614420Y7913979D01*
X3621379Y7907020D01*
X3629406Y7901381D01*
X3638346Y7897266D01*
X3647795Y7894726D01*
G37*
G36*
X3530600Y7779562D02*
G01*
X3540404Y7780426D01*
X3549853Y7782966D01*
X3558794Y7787081D01*
X3566820Y7792720D01*
X3573779Y7799679D01*
X3579418Y7807706D01*
X3583533Y7816646D01*
X3586073Y7826095D01*
X3586937Y7835900D01*
X3586073Y7845704D01*
X3583533Y7855153D01*
X3579418Y7864094D01*
X3573779Y7872069D01*
X3565855Y7879892D01*
X3563620Y7883194D01*
X3562858Y7887106D01*
X3562858Y8935923D01*
X3563620Y8939834D01*
X3565855Y8943136D01*
X3799840Y9177121D01*
X3803294Y9179407D01*
X3807358Y9180118D01*
X3811371Y9179153D01*
X3818128Y9175953D01*
X3831996Y9171432D01*
X3846271Y9168739D01*
X3860800Y9167825D01*
X3875328Y9168739D01*
X3889603Y9171432D01*
X3903472Y9175953D01*
X3916629Y9182150D01*
X3928922Y9189923D01*
X3940098Y9199219D01*
X3950106Y9209836D01*
X3958640Y9221622D01*
X3965651Y9234373D01*
X3970985Y9247886D01*
X3974642Y9262008D01*
X3976471Y9276435D01*
X3976471Y9290964D01*
X3974642Y9305391D01*
X3970985Y9319514D01*
X3965651Y9333026D01*
X3958640Y9345777D01*
X3950106Y9357563D01*
X3940098Y9368180D01*
X3928922Y9377476D01*
X3916629Y9385249D01*
X3903472Y9391446D01*
X3889603Y9395968D01*
X3875328Y9398660D01*
X3860800Y9399574D01*
X3846271Y9398660D01*
X3831996Y9395968D01*
X3818128Y9391446D01*
X3804970Y9385249D01*
X3792677Y9377476D01*
X3781450Y9368180D01*
X3771493Y9357563D01*
X3762959Y9345777D01*
X3755948Y9333026D01*
X3750564Y9319514D01*
X3746957Y9305391D01*
X3745128Y9290964D01*
X3745128Y9276435D01*
X3746957Y9262008D01*
X3750564Y9247886D01*
X3756304Y9233509D01*
X3757015Y9229648D01*
X3756253Y9225838D01*
X3754069Y9222587D01*
X3508146Y8976664D01*
X3503574Y8971026D01*
X3500526Y8965031D01*
X3498748Y8958427D01*
X3498342Y8953093D01*
X3498342Y7887106D01*
X3497579Y7883194D01*
X3495344Y7879892D01*
X3487420Y7872069D01*
X3481781Y7864094D01*
X3477666Y7855153D01*
X3475126Y7845704D01*
X3474262Y7835900D01*
X3475126Y7826095D01*
X3477666Y7816646D01*
X3481781Y7807706D01*
X3487420Y7799679D01*
X3494379Y7792720D01*
X3502406Y7787081D01*
X3511346Y7782966D01*
X3520795Y7780426D01*
G37*
G36*
X3860800Y7643825D02*
G01*
X3875328Y7644739D01*
X3889603Y7647431D01*
X3903472Y7651953D01*
X3916629Y7658150D01*
X3928922Y7665923D01*
X3940098Y7675219D01*
X3950106Y7685836D01*
X3958640Y7697622D01*
X3965651Y7710373D01*
X3970985Y7723886D01*
X3974642Y7738008D01*
X3976471Y7752435D01*
X3976471Y7766964D01*
X3974642Y7781391D01*
X3970985Y7795514D01*
X3965651Y7809026D01*
X3958640Y7821777D01*
X3950106Y7833563D01*
X3940098Y7844180D01*
X3928922Y7853476D01*
X3916629Y7861249D01*
X3903472Y7867446D01*
X3889603Y7871968D01*
X3875328Y7874660D01*
X3860800Y7875574D01*
X3846271Y7874660D01*
X3831996Y7871968D01*
X3818128Y7867446D01*
X3804970Y7861249D01*
X3792677Y7853476D01*
X3781450Y7844180D01*
X3771493Y7833563D01*
X3762959Y7821777D01*
X3755948Y7809026D01*
X3750564Y7795514D01*
X3746957Y7781391D01*
X3745128Y7766964D01*
X3745128Y7752435D01*
X3746957Y7738008D01*
X3750564Y7723886D01*
X3755948Y7710373D01*
X3762959Y7697622D01*
X3771493Y7685836D01*
X3781450Y7675219D01*
X3792677Y7665923D01*
X3804970Y7658150D01*
X3818128Y7651953D01*
X3831996Y7647431D01*
X3846271Y7644739D01*
G37*
G36*
X3860800Y7389825D02*
G01*
X3875328Y7390739D01*
X3889603Y7393431D01*
X3903472Y7397953D01*
X3916629Y7404150D01*
X3928922Y7411923D01*
X3940098Y7421219D01*
X3950106Y7431836D01*
X3958640Y7443622D01*
X3965651Y7456373D01*
X3970985Y7469886D01*
X3974642Y7484008D01*
X3976471Y7498435D01*
X3976471Y7512964D01*
X3974642Y7527391D01*
X3970985Y7541514D01*
X3965651Y7555026D01*
X3958640Y7567777D01*
X3950106Y7579563D01*
X3940098Y7590180D01*
X3928922Y7599476D01*
X3916629Y7607249D01*
X3903472Y7613446D01*
X3889603Y7617968D01*
X3875328Y7620660D01*
X3860800Y7621574D01*
X3846271Y7620660D01*
X3831996Y7617968D01*
X3818128Y7613446D01*
X3804970Y7607249D01*
X3792677Y7599476D01*
X3781450Y7590180D01*
X3771493Y7579563D01*
X3762959Y7567777D01*
X3755948Y7555026D01*
X3750564Y7541514D01*
X3746957Y7527391D01*
X3745128Y7512964D01*
X3745128Y7498435D01*
X3746957Y7484008D01*
X3750564Y7469886D01*
X3755948Y7456373D01*
X3762959Y7443622D01*
X3771493Y7431836D01*
X3781450Y7421219D01*
X3792677Y7411923D01*
X3804970Y7404150D01*
X3818128Y7397953D01*
X3831996Y7393431D01*
X3846271Y7390739D01*
G37*
G36*
X3860800Y5541111D02*
G01*
X3875989Y5542026D01*
X3890924Y5544769D01*
X3905453Y5549290D01*
X3919321Y5555538D01*
X3932326Y5563412D01*
X3944264Y5572810D01*
X3955034Y5583529D01*
X3964381Y5595518D01*
X3972255Y5608523D01*
X3978503Y5622391D01*
X3983024Y5636869D01*
X3985768Y5651855D01*
X3986682Y5666994D01*
X3985768Y5682183D01*
X3983024Y5697169D01*
X3978503Y5711647D01*
X3972255Y5725515D01*
X3964381Y5738520D01*
X3955034Y5750509D01*
X3944264Y5761228D01*
X3932326Y5770626D01*
X3919321Y5778500D01*
X3905453Y5784748D01*
X3890924Y5789269D01*
X3875989Y5792012D01*
X3860800Y5792927D01*
X3845610Y5792012D01*
X3830675Y5789269D01*
X3816146Y5784748D01*
X3802278Y5778500D01*
X3789273Y5770626D01*
X3777335Y5761228D01*
X3766565Y5750509D01*
X3757218Y5738520D01*
X3749344Y5725515D01*
X3743096Y5711647D01*
X3738575Y5697169D01*
X3735832Y5682183D01*
X3734917Y5666994D01*
X3735832Y5651855D01*
X3738575Y5636869D01*
X3743096Y5622391D01*
X3749344Y5608523D01*
X3757218Y5595518D01*
X3766565Y5583529D01*
X3777335Y5572810D01*
X3789273Y5563412D01*
X3802278Y5555538D01*
X3816146Y5549290D01*
X3830675Y5544769D01*
X3845610Y5542026D01*
G37*
G36*
X228600Y5541111D02*
G01*
X243789Y5542026D01*
X258724Y5544769D01*
X273253Y5549290D01*
X287121Y5555538D01*
X300126Y5563412D01*
X312064Y5572810D01*
X322834Y5583529D01*
X332181Y5595518D01*
X340055Y5608523D01*
X346303Y5622391D01*
X350824Y5636869D01*
X353568Y5651855D01*
X354482Y5666994D01*
X353568Y5682183D01*
X350824Y5697169D01*
X346303Y5711647D01*
X340055Y5725515D01*
X332181Y5738520D01*
X322834Y5750509D01*
X312064Y5761228D01*
X300126Y5770626D01*
X287121Y5778500D01*
X273253Y5784748D01*
X258724Y5789269D01*
X243789Y5792012D01*
X228600Y5792927D01*
X213410Y5792012D01*
X198475Y5789269D01*
X183946Y5784748D01*
X170078Y5778500D01*
X157073Y5770626D01*
X145135Y5761228D01*
X134366Y5750509D01*
X125018Y5738520D01*
X117144Y5725515D01*
X110896Y5711647D01*
X106375Y5697169D01*
X103632Y5682183D01*
X102717Y5666994D01*
X103632Y5651855D01*
X106375Y5636869D01*
X110896Y5622391D01*
X117144Y5608523D01*
X125018Y5595518D01*
X134366Y5583529D01*
X145135Y5572810D01*
X157073Y5563412D01*
X170078Y5555538D01*
X183946Y5549290D01*
X198475Y5544769D01*
X213410Y5542026D01*
G37*
G36*
X2959100Y7347762D02*
G01*
X2968904Y7348626D01*
X2978353Y7351166D01*
X2987294Y7355281D01*
X2995320Y7360920D01*
X3002280Y7367879D01*
X3007918Y7375906D01*
X3012033Y7384846D01*
X3014573Y7394295D01*
X3015437Y7404100D01*
X3014573Y7413904D01*
X3012033Y7423353D01*
X3010966Y7425690D01*
X3010001Y7430008D01*
X3010001Y7632192D01*
X3010966Y7636509D01*
X3012033Y7638846D01*
X3014573Y7648295D01*
X3015437Y7658100D01*
X3014573Y7667904D01*
X3012033Y7677353D01*
X3007918Y7686294D01*
X3002280Y7694320D01*
X2995320Y7701280D01*
X2987294Y7706918D01*
X2978353Y7711033D01*
X2968904Y7713573D01*
X2959100Y7714437D01*
X2949295Y7713573D01*
X2939846Y7711033D01*
X2930906Y7706918D01*
X2922879Y7701280D01*
X2915920Y7694320D01*
X2910281Y7686294D01*
X2906166Y7677353D01*
X2903626Y7667904D01*
X2902762Y7658100D01*
X2903626Y7648295D01*
X2906166Y7638846D01*
X2907233Y7636509D01*
X2908198Y7632192D01*
X2908198Y7430008D01*
X2907233Y7425690D01*
X2906166Y7423353D01*
X2903626Y7413904D01*
X2902762Y7404100D01*
X2903626Y7394295D01*
X2906166Y7384846D01*
X2910281Y7375906D01*
X2915920Y7367879D01*
X2922879Y7360920D01*
X2930906Y7355281D01*
X2939846Y7351166D01*
X2949295Y7348626D01*
G37*
G36*
X2679700Y7055662D02*
G01*
X2689504Y7056526D01*
X2698953Y7059066D01*
X2707894Y7063181D01*
X2715920Y7068820D01*
X2722880Y7075779D01*
X2728518Y7083806D01*
X2732633Y7092746D01*
X2735173Y7102195D01*
X2736037Y7112000D01*
X2735173Y7121804D01*
X2732633Y7131253D01*
X2728518Y7140194D01*
X2722880Y7148220D01*
X2715920Y7155180D01*
X2707894Y7160818D01*
X2698953Y7164933D01*
X2689504Y7167473D01*
X2679700Y7168337D01*
X2674874Y7168388D01*
X2671927Y7169556D01*
X2669540Y7171537D01*
X2600502Y7248245D01*
X2598521Y7251446D01*
X2597861Y7255154D01*
X2603296Y7654950D01*
X2604211Y7658862D01*
X2603398Y7662722D01*
X2610205Y8165592D01*
X2611018Y8169452D01*
X2613202Y8172703D01*
X2616504Y8174888D01*
X2620365Y8175650D01*
X2624226Y8174837D01*
X2627528Y8172653D01*
X2644444Y8155736D01*
X2646680Y8152434D01*
X2647442Y8148523D01*
X2647442Y7709306D01*
X2646680Y7705394D01*
X2644444Y7702092D01*
X2636520Y7694269D01*
X2630881Y7686294D01*
X2626766Y7677353D01*
X2624226Y7667904D01*
X2623667Y7661706D01*
X2622651Y7658557D01*
X2623566Y7655661D01*
X2624226Y7648295D01*
X2626766Y7638846D01*
X2630881Y7629906D01*
X2636520Y7621879D01*
X2643479Y7614920D01*
X2651506Y7609281D01*
X2660446Y7605166D01*
X2669895Y7602626D01*
X2679700Y7601762D01*
X2689504Y7602626D01*
X2698953Y7605166D01*
X2707894Y7609281D01*
X2715920Y7614920D01*
X2722880Y7621879D01*
X2728518Y7629906D01*
X2732633Y7638846D01*
X2735173Y7648295D01*
X2736037Y7658100D01*
X2735173Y7667904D01*
X2732633Y7677353D01*
X2728518Y7686294D01*
X2722880Y7694269D01*
X2714955Y7702092D01*
X2712720Y7705394D01*
X2711958Y7709306D01*
X2711958Y8165592D01*
X2711196Y8172805D01*
X2709113Y8179206D01*
X2705709Y8185150D01*
X2702204Y8189214D01*
X2546299Y8345119D01*
X2544114Y8348370D01*
X2543352Y8352281D01*
X2544114Y8356193D01*
X2546299Y8359444D01*
X2549601Y8361680D01*
X2553512Y8362442D01*
X2628493Y8362442D01*
X2632405Y8361680D01*
X2635707Y8359444D01*
X2643530Y8351520D01*
X2651506Y8345881D01*
X2660446Y8341766D01*
X2669895Y8339226D01*
X2679700Y8338362D01*
X2689504Y8339226D01*
X2698953Y8341766D01*
X2707894Y8345881D01*
X2715920Y8351520D01*
X2722880Y8358479D01*
X2728518Y8366506D01*
X2732633Y8375446D01*
X2735173Y8384895D01*
X2736037Y8394700D01*
X2735173Y8404504D01*
X2732633Y8413953D01*
X2728518Y8422894D01*
X2722880Y8430920D01*
X2715920Y8437880D01*
X2707894Y8443518D01*
X2698953Y8447633D01*
X2689504Y8450173D01*
X2679700Y8451037D01*
X2669895Y8450173D01*
X2660446Y8447633D01*
X2651506Y8443518D01*
X2643530Y8437880D01*
X2635707Y8429955D01*
X2632405Y8427720D01*
X2628493Y8426958D01*
X2557576Y8426958D01*
X2553665Y8427720D01*
X2550363Y8429955D01*
X2078126Y8902192D01*
X2075789Y8905900D01*
X2075180Y8910269D01*
X2075637Y8915400D01*
X2074773Y8925204D01*
X2072233Y8934653D01*
X2068118Y8943594D01*
X2062480Y8951620D01*
X2055520Y8958580D01*
X2047493Y8964218D01*
X2038553Y8968333D01*
X2029104Y8970873D01*
X2019300Y8971737D01*
X2009495Y8970873D01*
X2000046Y8968384D01*
X1989886Y8963507D01*
X1985924Y8962542D01*
X1981911Y8963152D01*
X1978507Y8965336D01*
X1976170Y8968689D01*
X1975357Y8972651D01*
X1975357Y9118193D01*
X1976120Y9122105D01*
X1978355Y9125407D01*
X1986280Y9133230D01*
X1991918Y9141206D01*
X1996033Y9150146D01*
X1998573Y9159595D01*
X1999437Y9169400D01*
X1998573Y9179204D01*
X1996033Y9188653D01*
X1991918Y9197594D01*
X1986280Y9205620D01*
X1979320Y9212580D01*
X1971293Y9218218D01*
X1962353Y9222333D01*
X1952904Y9224873D01*
X1945030Y9225584D01*
X1941626Y9226499D01*
X1938731Y9228531D01*
X1936699Y9231426D01*
X1935784Y9234830D01*
X1935073Y9242704D01*
X1932533Y9252153D01*
X1928418Y9261094D01*
X1922780Y9269120D01*
X1915820Y9276080D01*
X1907793Y9281718D01*
X1898853Y9285833D01*
X1889404Y9288373D01*
X1879600Y9289237D01*
X1869795Y9288373D01*
X1861159Y9286087D01*
X1857451Y9285782D01*
X1853895Y9286849D01*
X1850948Y9289084D01*
X1849018Y9292234D01*
X1848357Y9295892D01*
X1848357Y10629493D01*
X1849120Y10633405D01*
X1851355Y10636707D01*
X1859280Y10644530D01*
X1864918Y10652506D01*
X1869033Y10661446D01*
X1871573Y10670895D01*
X1872437Y10680700D01*
X1871573Y10690504D01*
X1869033Y10699953D01*
X1864918Y10708894D01*
X1859280Y10716920D01*
X1852320Y10723880D01*
X1844293Y10729518D01*
X1835353Y10733633D01*
X1825904Y10736173D01*
X1816100Y10737037D01*
X1806295Y10736173D01*
X1797659Y10733887D01*
X1793951Y10733582D01*
X1790395Y10734649D01*
X1787448Y10736884D01*
X1785518Y10740034D01*
X1784857Y10743692D01*
X1784857Y10756493D01*
X1785620Y10760405D01*
X1787855Y10763707D01*
X1795780Y10771530D01*
X1801418Y10779506D01*
X1805533Y10788446D01*
X1808073Y10797895D01*
X1808937Y10807700D01*
X1808073Y10817504D01*
X1805533Y10826953D01*
X1801418Y10835894D01*
X1795780Y10843920D01*
X1788820Y10850880D01*
X1780793Y10856518D01*
X1771853Y10860633D01*
X1762404Y10863173D01*
X1752600Y10864037D01*
X1742795Y10863173D01*
X1733346Y10860633D01*
X1724406Y10856518D01*
X1716379Y10850880D01*
X1709420Y10843920D01*
X1703781Y10835894D01*
X1699666Y10826953D01*
X1697126Y10817504D01*
X1696262Y10807700D01*
X1697126Y10797895D01*
X1699666Y10788446D01*
X1703781Y10779506D01*
X1709420Y10771530D01*
X1717344Y10763707D01*
X1719580Y10760405D01*
X1720342Y10756493D01*
X1720342Y8776106D01*
X1719580Y8772194D01*
X1717344Y8768892D01*
X1709420Y8761069D01*
X1703781Y8753094D01*
X1699666Y8744153D01*
X1697126Y8734704D01*
X1696262Y8724900D01*
X1697126Y8715095D01*
X1699666Y8705646D01*
X1703781Y8696706D01*
X1709420Y8688679D01*
X1716379Y8681720D01*
X1724406Y8676081D01*
X1733346Y8671966D01*
X1742795Y8669426D01*
X1750669Y8668715D01*
X1754073Y8667800D01*
X1756968Y8665768D01*
X1759000Y8662873D01*
X1759915Y8659469D01*
X1760626Y8651595D01*
X1763166Y8642146D01*
X1767281Y8633206D01*
X1772920Y8625179D01*
X1779879Y8618220D01*
X1787906Y8612581D01*
X1796846Y8608466D01*
X1806295Y8605926D01*
X1814169Y8605215D01*
X1817573Y8604300D01*
X1820468Y8602268D01*
X1822500Y8599373D01*
X1823415Y8595969D01*
X1824126Y8588095D01*
X1826666Y8578646D01*
X1830781Y8569706D01*
X1836420Y8561679D01*
X1843379Y8554720D01*
X1851406Y8549081D01*
X1860346Y8544966D01*
X1869795Y8542426D01*
X1877669Y8541715D01*
X1881073Y8540800D01*
X1883968Y8538768D01*
X1886000Y8535873D01*
X1886915Y8532469D01*
X1887626Y8524595D01*
X1890166Y8515146D01*
X1894281Y8506206D01*
X1899920Y8498179D01*
X1906879Y8491220D01*
X1914906Y8485581D01*
X1923846Y8481466D01*
X1933295Y8478926D01*
X1943100Y8478062D01*
X1952904Y8478926D01*
X1962353Y8481466D01*
X1971293Y8485581D01*
X1979320Y8491220D01*
X1986280Y8498179D01*
X1991918Y8506206D01*
X1996033Y8515146D01*
X1998573Y8524595D01*
X1999437Y8534400D01*
X1998573Y8544204D01*
X1996033Y8553653D01*
X1991918Y8562594D01*
X1986280Y8570569D01*
X1978355Y8578392D01*
X1976120Y8581694D01*
X1975357Y8585606D01*
X1975357Y8680348D01*
X1976170Y8684310D01*
X1978507Y8687663D01*
X1981911Y8689848D01*
X1985924Y8690457D01*
X1989886Y8689492D01*
X2000046Y8684615D01*
X2009495Y8682126D01*
X2019300Y8681262D01*
X2024430Y8681720D01*
X2028799Y8681110D01*
X2032507Y8678773D01*
X2542641Y8168640D01*
X2544876Y8165287D01*
X2545588Y8161324D01*
X2533142Y7239711D01*
X2533751Y7232802D01*
X2535732Y7226350D01*
X2539034Y7220458D01*
X2541625Y7217206D01*
X2621534Y7128408D01*
X2623616Y7124801D01*
X2624124Y7120737D01*
X2623362Y7112000D01*
X2624226Y7102195D01*
X2626766Y7092746D01*
X2630881Y7083806D01*
X2636520Y7075779D01*
X2643479Y7068820D01*
X2651506Y7063181D01*
X2660446Y7059066D01*
X2669895Y7056526D01*
G37*
G36*
X3873500Y6119774D02*
G01*
X3950208Y6119774D01*
X3956558Y6120485D01*
X3961993Y6122416D01*
X3966921Y6125514D01*
X3970985Y6129578D01*
X3974084Y6134506D01*
X3975963Y6139942D01*
X3976725Y6146292D01*
X3976725Y6223000D01*
X3873500Y6223000D01*
G37*
G36*
X3771341Y6119774D02*
G01*
X3848100Y6119774D01*
X3848100Y6223000D01*
X3758184Y6223000D01*
X3754424Y6223711D01*
X3751224Y6225794D01*
X3748989Y6228842D01*
X3746601Y6233922D01*
X3745687Y6237884D01*
X3746347Y6241897D01*
X3748532Y6245301D01*
X3751834Y6247587D01*
X3755796Y6248400D01*
X3848100Y6248400D01*
X3848100Y6351625D01*
X3771341Y6351625D01*
X3765042Y6350914D01*
X3759555Y6348984D01*
X3754678Y6345885D01*
X3750614Y6341872D01*
X3746804Y6335572D01*
X3743756Y6332423D01*
X3739743Y6330797D01*
X3735374Y6331051D01*
X3731514Y6333083D01*
X3728872Y6336588D01*
X3727958Y6340856D01*
X3727958Y6461556D01*
X3728821Y6465620D01*
X3731209Y6469024D01*
X3734815Y6471158D01*
X3738930Y6471666D01*
X3742944Y6470497D01*
X3746093Y6467805D01*
X3747973Y6464096D01*
X3750564Y6453886D01*
X3755948Y6440373D01*
X3762959Y6427622D01*
X3771493Y6415836D01*
X3781450Y6405219D01*
X3792677Y6395923D01*
X3804970Y6388150D01*
X3818128Y6381953D01*
X3831996Y6377432D01*
X3846271Y6374739D01*
X3860800Y6373825D01*
X3875328Y6374739D01*
X3889603Y6377432D01*
X3903472Y6381953D01*
X3916629Y6388150D01*
X3928922Y6395923D01*
X3940098Y6405219D01*
X3950106Y6415836D01*
X3958640Y6427622D01*
X3965651Y6440373D01*
X3970985Y6453886D01*
X3974642Y6468008D01*
X3976471Y6482435D01*
X3976471Y6496964D01*
X3974642Y6511391D01*
X3970985Y6525514D01*
X3965651Y6539026D01*
X3958640Y6551777D01*
X3950106Y6563563D01*
X3940098Y6574180D01*
X3928922Y6583476D01*
X3916629Y6591249D01*
X3903472Y6597446D01*
X3889603Y6601968D01*
X3875328Y6604660D01*
X3860800Y6605574D01*
X3846271Y6604660D01*
X3831996Y6601968D01*
X3818128Y6597446D01*
X3804970Y6591249D01*
X3792677Y6583476D01*
X3781450Y6574180D01*
X3771493Y6563563D01*
X3762959Y6551777D01*
X3755948Y6539026D01*
X3750564Y6525514D01*
X3747973Y6515303D01*
X3746093Y6511594D01*
X3742944Y6508902D01*
X3738930Y6507734D01*
X3734815Y6508242D01*
X3731209Y6510375D01*
X3728821Y6513779D01*
X3727958Y6517843D01*
X3727958Y6561023D01*
X3728720Y6564934D01*
X3730955Y6568236D01*
X3799840Y6637121D01*
X3803294Y6639407D01*
X3807358Y6640118D01*
X3811371Y6639153D01*
X3818128Y6635953D01*
X3831996Y6631431D01*
X3846271Y6628739D01*
X3860800Y6627825D01*
X3875328Y6628739D01*
X3889603Y6631431D01*
X3903472Y6635953D01*
X3916629Y6642150D01*
X3928922Y6649923D01*
X3940098Y6659219D01*
X3950106Y6669836D01*
X3958640Y6681622D01*
X3965651Y6694373D01*
X3970985Y6707886D01*
X3974642Y6722008D01*
X3976471Y6736435D01*
X3976471Y6750964D01*
X3974642Y6765391D01*
X3970985Y6779514D01*
X3965651Y6793026D01*
X3958640Y6805777D01*
X3950106Y6817563D01*
X3940098Y6828180D01*
X3928922Y6837476D01*
X3916629Y6845249D01*
X3903472Y6851446D01*
X3889603Y6855968D01*
X3875328Y6858660D01*
X3860800Y6859574D01*
X3846271Y6858660D01*
X3831996Y6855968D01*
X3818128Y6851446D01*
X3804970Y6845249D01*
X3792677Y6837476D01*
X3781450Y6828180D01*
X3771493Y6817563D01*
X3762959Y6805777D01*
X3755948Y6793026D01*
X3750564Y6779514D01*
X3746957Y6765391D01*
X3745128Y6750964D01*
X3745128Y6736435D01*
X3746957Y6722008D01*
X3750564Y6707886D01*
X3756304Y6693509D01*
X3757015Y6689648D01*
X3756253Y6685838D01*
X3754069Y6682587D01*
X3673246Y6601764D01*
X3668674Y6596125D01*
X3665626Y6590131D01*
X3663848Y6583527D01*
X3663442Y6578193D01*
X3663442Y6261506D01*
X3662679Y6257594D01*
X3660444Y6254292D01*
X3652520Y6246469D01*
X3646881Y6238494D01*
X3642766Y6229553D01*
X3640226Y6220104D01*
X3639362Y6210300D01*
X3640226Y6200495D01*
X3642766Y6191046D01*
X3646881Y6182106D01*
X3652520Y6174079D01*
X3659479Y6167120D01*
X3667506Y6161481D01*
X3676446Y6157366D01*
X3685895Y6154826D01*
X3695700Y6153962D01*
X3705504Y6154826D01*
X3714953Y6157366D01*
X3723894Y6161481D01*
X3728872Y6165037D01*
X3732936Y6166713D01*
X3737356Y6166510D01*
X3741267Y6164478D01*
X3743909Y6160973D01*
X3744874Y6156706D01*
X3744874Y6146292D01*
X3745585Y6139942D01*
X3747515Y6134506D01*
X3750564Y6129578D01*
X3754678Y6125514D01*
X3759555Y6122416D01*
X3765042Y6120485D01*
G37*
G36*
X3860800Y6881825D02*
G01*
X3875328Y6882739D01*
X3889603Y6885431D01*
X3903472Y6889953D01*
X3916629Y6896150D01*
X3928922Y6903923D01*
X3940098Y6913219D01*
X3950106Y6923836D01*
X3958640Y6935622D01*
X3965651Y6948373D01*
X3970985Y6961886D01*
X3974642Y6976008D01*
X3976471Y6990435D01*
X3976471Y7004964D01*
X3974642Y7019391D01*
X3970985Y7033514D01*
X3965651Y7047026D01*
X3958640Y7059777D01*
X3950106Y7071563D01*
X3940098Y7082180D01*
X3928922Y7091476D01*
X3916629Y7099249D01*
X3903472Y7105446D01*
X3889603Y7109968D01*
X3875328Y7112660D01*
X3860800Y7113574D01*
X3846271Y7112660D01*
X3831996Y7109968D01*
X3818128Y7105446D01*
X3804970Y7099249D01*
X3792677Y7091476D01*
X3781450Y7082180D01*
X3771493Y7071563D01*
X3762959Y7059777D01*
X3755948Y7047026D01*
X3750564Y7033514D01*
X3746957Y7019391D01*
X3745128Y7004964D01*
X3745128Y6990435D01*
X3746957Y6976008D01*
X3750564Y6961886D01*
X3755948Y6948373D01*
X3762959Y6935622D01*
X3771493Y6923836D01*
X3781450Y6913219D01*
X3792677Y6903923D01*
X3804970Y6896150D01*
X3818128Y6889953D01*
X3831996Y6885431D01*
X3846271Y6882739D01*
G37*
G36*
X3873500Y6248400D02*
G01*
X3976725Y6248400D01*
X3976725Y6325108D01*
X3975963Y6331458D01*
X3974084Y6336893D01*
X3970985Y6341821D01*
X3966921Y6345885D01*
X3961993Y6348984D01*
X3956558Y6350914D01*
X3950208Y6351625D01*
X3873500Y6351625D01*
G37*
G36*
X2959100Y6801662D02*
G01*
X2968904Y6802526D01*
X2978353Y6805066D01*
X2987294Y6809181D01*
X2995320Y6814820D01*
X3002280Y6821779D01*
X3007918Y6829806D01*
X3012033Y6838746D01*
X3014573Y6848195D01*
X3015437Y6858000D01*
X3014573Y6867804D01*
X3012033Y6877253D01*
X3010966Y6879590D01*
X3010001Y6883908D01*
X3010001Y7086092D01*
X3010966Y7090409D01*
X3012033Y7092746D01*
X3014573Y7102195D01*
X3015437Y7112000D01*
X3014573Y7121804D01*
X3012033Y7131253D01*
X3007918Y7140194D01*
X3002280Y7148220D01*
X2995320Y7155180D01*
X2987294Y7160818D01*
X2978353Y7164933D01*
X2968904Y7167473D01*
X2959100Y7168337D01*
X2949295Y7167473D01*
X2939846Y7164933D01*
X2930906Y7160818D01*
X2922879Y7155180D01*
X2915920Y7148220D01*
X2910281Y7140194D01*
X2906166Y7131253D01*
X2903626Y7121804D01*
X2902762Y7112000D01*
X2903626Y7102195D01*
X2906166Y7092746D01*
X2907233Y7090409D01*
X2908198Y7086092D01*
X2908198Y6883908D01*
X2907233Y6879590D01*
X2906166Y6877253D01*
X2903626Y6867804D01*
X2902762Y6858000D01*
X2903626Y6848195D01*
X2906166Y6838746D01*
X2910281Y6829806D01*
X2915920Y6821779D01*
X2922879Y6814820D01*
X2930906Y6809181D01*
X2939846Y6805066D01*
X2949295Y6802526D01*
G37*
G36*
X2839364Y6344462D02*
G01*
X2911094Y6344462D01*
X2911094Y6442710D01*
X2812897Y6442710D01*
X2812897Y6370980D01*
X2813608Y6364630D01*
X2815488Y6359194D01*
X2818587Y6354267D01*
X2822702Y6350203D01*
X2827578Y6347104D01*
X2833065Y6345174D01*
G37*
G36*
X2936494Y6344462D02*
G01*
X3008223Y6344462D01*
X3014522Y6345174D01*
X3020009Y6347104D01*
X3024886Y6350203D01*
X3029000Y6354267D01*
X3032099Y6359194D01*
X3033979Y6364630D01*
X3034690Y6370980D01*
X3034690Y6442710D01*
X2936494Y6442710D01*
G37*
G36*
X2936494Y6468110D02*
G01*
X3034690Y6468110D01*
X3034690Y6539839D01*
X3033979Y6546138D01*
X3032099Y6551625D01*
X3029000Y6556502D01*
X3024886Y6560616D01*
X3020009Y6563664D01*
X3014522Y6565595D01*
X3008223Y6566306D01*
X2936494Y6566306D01*
G37*
G36*
X2812897Y6468110D02*
G01*
X2911094Y6468110D01*
X2911094Y6566306D01*
X2839364Y6566306D01*
X2833065Y6565595D01*
X2827578Y6563664D01*
X2822702Y6560616D01*
X2818587Y6556502D01*
X2815488Y6551625D01*
X2813608Y6546138D01*
X2812897Y6539839D01*
G37*
G36*
X3390900Y6414617D02*
G01*
X3406089Y6415532D01*
X3421024Y6418275D01*
X3435553Y6422796D01*
X3449421Y6429044D01*
X3462426Y6436918D01*
X3474364Y6446266D01*
X3485134Y6457035D01*
X3494481Y6468973D01*
X3502355Y6481978D01*
X3508603Y6495846D01*
X3513124Y6510375D01*
X3515868Y6525310D01*
X3516782Y6540500D01*
X3515868Y6555689D01*
X3513124Y6570624D01*
X3508603Y6585153D01*
X3502355Y6599021D01*
X3494481Y6612026D01*
X3485134Y6623964D01*
X3474364Y6634734D01*
X3462426Y6644081D01*
X3449421Y6651955D01*
X3435553Y6658203D01*
X3421024Y6662724D01*
X3406089Y6665468D01*
X3390900Y6666382D01*
X3375710Y6665468D01*
X3360775Y6662724D01*
X3346246Y6658203D01*
X3332378Y6651955D01*
X3319373Y6644081D01*
X3307435Y6634734D01*
X3296665Y6623964D01*
X3287318Y6612026D01*
X3279444Y6599021D01*
X3273196Y6585153D01*
X3268675Y6570624D01*
X3265932Y6555689D01*
X3265017Y6540500D01*
X3265932Y6525310D01*
X3268675Y6510375D01*
X3273196Y6495846D01*
X3279444Y6481978D01*
X3287318Y6468973D01*
X3296665Y6457035D01*
X3307435Y6446266D01*
X3319373Y6436918D01*
X3332378Y6429044D01*
X3346246Y6422796D01*
X3360775Y6418275D01*
X3375710Y6415532D01*
G37*
G36*
X675894Y6414617D02*
G01*
X691083Y6415532D01*
X706018Y6418275D01*
X720547Y6422796D01*
X734415Y6429044D01*
X747420Y6436918D01*
X759358Y6446266D01*
X770128Y6457035D01*
X779475Y6468973D01*
X787349Y6481978D01*
X793597Y6495846D01*
X798118Y6510375D01*
X800862Y6525310D01*
X801776Y6540500D01*
X800862Y6555689D01*
X798118Y6570624D01*
X793597Y6585153D01*
X787349Y6599021D01*
X779475Y6612026D01*
X770128Y6623964D01*
X759358Y6634734D01*
X747420Y6644081D01*
X734415Y6651955D01*
X720547Y6658203D01*
X706018Y6662724D01*
X691083Y6665468D01*
X675894Y6666382D01*
X660704Y6665468D01*
X645769Y6662724D01*
X631240Y6658203D01*
X617372Y6651955D01*
X604367Y6644081D01*
X592429Y6634734D01*
X581660Y6623964D01*
X572312Y6612026D01*
X564438Y6599021D01*
X558190Y6585153D01*
X553669Y6570624D01*
X550926Y6555689D01*
X550011Y6540500D01*
X550926Y6525310D01*
X553669Y6510375D01*
X558190Y6495846D01*
X564438Y6481978D01*
X572312Y6468973D01*
X581660Y6457035D01*
X592429Y6446266D01*
X604367Y6436918D01*
X617372Y6429044D01*
X631240Y6422796D01*
X645769Y6418275D01*
X660704Y6415532D01*
G37*
G36*
X3860800Y7135825D02*
G01*
X3875328Y7136739D01*
X3889603Y7139431D01*
X3903472Y7143953D01*
X3916629Y7150150D01*
X3928922Y7157923D01*
X3940098Y7167219D01*
X3950106Y7177836D01*
X3958640Y7189622D01*
X3965651Y7202373D01*
X3970985Y7215886D01*
X3974642Y7230008D01*
X3976471Y7244435D01*
X3976471Y7258964D01*
X3974642Y7273391D01*
X3970985Y7287514D01*
X3965651Y7301026D01*
X3958640Y7313777D01*
X3950106Y7325563D01*
X3940098Y7336180D01*
X3928922Y7345476D01*
X3916629Y7353249D01*
X3903472Y7359446D01*
X3889603Y7363968D01*
X3875328Y7366660D01*
X3860800Y7367574D01*
X3846271Y7366660D01*
X3831996Y7363968D01*
X3818128Y7359446D01*
X3804970Y7353249D01*
X3792677Y7345476D01*
X3781450Y7336180D01*
X3771493Y7325563D01*
X3762959Y7313777D01*
X3755948Y7301026D01*
X3750564Y7287514D01*
X3746957Y7273391D01*
X3745128Y7258964D01*
X3745128Y7244435D01*
X3746957Y7230008D01*
X3750564Y7215886D01*
X3755948Y7202373D01*
X3762959Y7189622D01*
X3771493Y7177836D01*
X3781450Y7167219D01*
X3792677Y7157923D01*
X3804970Y7150150D01*
X3818128Y7143953D01*
X3831996Y7139431D01*
X3846271Y7136739D01*
G37*

%LPD*%
G36*
X1630070Y2514600D02*
G01*
X1626158Y2515362D01*
X1622856Y2517597D01*
X1620672Y2520848D01*
X1619910Y2524760D01*
X1619910Y2614015D01*
X1619199Y2620365D01*
X1617268Y2625801D01*
X1614170Y2630728D01*
X1610106Y2634792D01*
X1605178Y2637891D01*
X1599742Y2639822D01*
X1593443Y2640533D01*
X1572768Y2640533D01*
X1568856Y2641295D01*
X1565605Y2643479D01*
X1563370Y2646781D01*
X1562608Y2650693D01*
X1562608Y3738981D01*
X1563370Y3742893D01*
X1565605Y3746195D01*
X1576324Y3756964D01*
X1581454Y3763162D01*
X1585010Y3769868D01*
X1587195Y3777081D01*
X1588008Y3785108D01*
X1588008Y4572355D01*
X1588871Y4576419D01*
X1591259Y4579823D01*
X1594764Y4581956D01*
X1598879Y4582515D01*
X1602892Y4581398D01*
X1606092Y4578756D01*
X1607972Y4575048D01*
X1613103Y4556353D01*
X1622704Y4528667D01*
X1634134Y4501692D01*
X1647393Y4475530D01*
X1662328Y4450283D01*
X1678889Y4426153D01*
X1697075Y4403140D01*
X1716735Y4381398D01*
X1737817Y4361027D01*
X1760169Y4342079D01*
X1783791Y4324705D01*
X1808480Y4308906D01*
X1834184Y4294835D01*
X1860753Y4282490D01*
X1888134Y4271975D01*
X1916125Y4263288D01*
X1944624Y4256481D01*
X1973529Y4251604D01*
X2002688Y4248658D01*
X2032000Y4247692D01*
X2061311Y4248658D01*
X2090470Y4251604D01*
X2119376Y4256481D01*
X2147874Y4263288D01*
X2175865Y4271975D01*
X2203246Y4282490D01*
X2229815Y4294835D01*
X2255520Y4308906D01*
X2280208Y4324705D01*
X2303830Y4342079D01*
X2326182Y4361027D01*
X2347264Y4381398D01*
X2366924Y4403140D01*
X2385110Y4426153D01*
X2401671Y4450283D01*
X2416606Y4475530D01*
X2429865Y4501692D01*
X2431084Y4504588D01*
X2433320Y4507839D01*
X2436622Y4510024D01*
X2440482Y4510786D01*
X2444343Y4509973D01*
X2447645Y4507788D01*
X2449830Y4504486D01*
X2450592Y4500626D01*
X2450592Y4401718D01*
X2449830Y4397806D01*
X2447594Y4394504D01*
X2259076Y4205935D01*
X2253945Y4199737D01*
X2250389Y4193032D01*
X2248204Y4185818D01*
X2247392Y4177792D01*
X2247392Y2650693D01*
X2246630Y2646781D01*
X2244394Y2643479D01*
X2241143Y2641295D01*
X2237232Y2640533D01*
X2216556Y2640533D01*
X2210257Y2639822D01*
X2204770Y2637891D01*
X2199894Y2634792D01*
X2195779Y2630728D01*
X2192680Y2625801D01*
X2190800Y2620365D01*
X2190089Y2614015D01*
X2190089Y2524760D01*
X2189327Y2520848D01*
X2187092Y2517597D01*
X2183790Y2515362D01*
X2179929Y2514600D01*
X2138070Y2514600D01*
X2134158Y2515362D01*
X2130856Y2517597D01*
X2128672Y2520848D01*
X2127910Y2524760D01*
X2127910Y2614015D01*
X2127199Y2620365D01*
X2125268Y2625801D01*
X2122170Y2630728D01*
X2118106Y2634792D01*
X2113178Y2637891D01*
X2107742Y2639822D01*
X2101443Y2640533D01*
X2080768Y2640533D01*
X2076856Y2641295D01*
X2073605Y2643479D01*
X2071370Y2646781D01*
X2070607Y2650693D01*
X2070607Y3510991D01*
X2071370Y3514902D01*
X2073605Y3518204D01*
X2075180Y3519779D01*
X2080818Y3527806D01*
X2084933Y3536746D01*
X2087473Y3546195D01*
X2088337Y3556000D01*
X2087473Y3565804D01*
X2084933Y3575253D01*
X2080818Y3584194D01*
X2075180Y3592220D01*
X2068220Y3599179D01*
X2060193Y3604818D01*
X2051253Y3608933D01*
X2041804Y3611473D01*
X2032000Y3612337D01*
X2022195Y3611473D01*
X2012746Y3608933D01*
X2003806Y3604818D01*
X1995779Y3599179D01*
X1988820Y3592220D01*
X1983181Y3584194D01*
X1979066Y3575253D01*
X1976526Y3565804D01*
X1975662Y3556000D01*
X1976526Y3546195D01*
X1979066Y3536746D01*
X1983181Y3527806D01*
X1988820Y3519779D01*
X1990394Y3518204D01*
X1992630Y3514902D01*
X1993392Y3510991D01*
X1993392Y2650693D01*
X1992630Y2646781D01*
X1990394Y2643479D01*
X1987143Y2641295D01*
X1983232Y2640533D01*
X1962556Y2640533D01*
X1956257Y2639822D01*
X1950770Y2637891D01*
X1945893Y2634792D01*
X1941779Y2630728D01*
X1938680Y2625801D01*
X1936800Y2620365D01*
X1936089Y2614015D01*
X1936089Y2524760D01*
X1935327Y2520848D01*
X1933092Y2517597D01*
X1929790Y2515362D01*
X1925929Y2514600D01*
X1884070Y2514600D01*
X1880158Y2515362D01*
X1876856Y2517597D01*
X1874672Y2520848D01*
X1873910Y2524760D01*
X1873910Y2614015D01*
X1873199Y2620365D01*
X1871268Y2625801D01*
X1868170Y2630728D01*
X1864106Y2634792D01*
X1859178Y2637891D01*
X1853742Y2639822D01*
X1847443Y2640533D01*
X1826768Y2640533D01*
X1822856Y2641295D01*
X1819605Y2643479D01*
X1817370Y2646781D01*
X1816607Y2650693D01*
X1816607Y3383991D01*
X1817370Y3387902D01*
X1819605Y3391204D01*
X1821180Y3392779D01*
X1826818Y3400806D01*
X1830933Y3409746D01*
X1833473Y3419195D01*
X1834337Y3429000D01*
X1833473Y3438804D01*
X1830933Y3448253D01*
X1826818Y3457194D01*
X1821180Y3465220D01*
X1814220Y3472179D01*
X1806193Y3477818D01*
X1797253Y3481933D01*
X1787804Y3484473D01*
X1778000Y3485337D01*
X1768195Y3484473D01*
X1758746Y3481933D01*
X1749806Y3477818D01*
X1741779Y3472179D01*
X1734820Y3465220D01*
X1729181Y3457194D01*
X1725066Y3448253D01*
X1722526Y3438804D01*
X1721662Y3429000D01*
X1722526Y3419195D01*
X1725066Y3409746D01*
X1729181Y3400806D01*
X1734820Y3392779D01*
X1736394Y3391204D01*
X1738630Y3387902D01*
X1739392Y3383991D01*
X1739392Y2650693D01*
X1738630Y2646781D01*
X1736394Y2643479D01*
X1733143Y2641295D01*
X1729232Y2640533D01*
X1708556Y2640533D01*
X1702257Y2639822D01*
X1696770Y2637891D01*
X1691893Y2634792D01*
X1687779Y2630728D01*
X1684680Y2625801D01*
X1682800Y2620365D01*
X1682089Y2614015D01*
X1682089Y2524760D01*
X1681327Y2520848D01*
X1679092Y2517597D01*
X1675790Y2515362D01*
X1671929Y2514600D01*
G37*

%LPD*%
D10*
X1028700Y6591300D02*
G01*
X1028700Y6572483D01*
X1145796Y6455387D01*
D11*
X1732000Y11455400D02*
G01*
X1732000Y11302974D01*
X2959100Y10210800D02*
G01*
X2959100Y9956800D01*
X2959100Y9664700D02*
G01*
X2959100Y9410700D01*
X3263900Y10198100D02*
G01*
X3263900Y9410700D01*
X3263900Y7645400D02*
G01*
X3263900Y7112000D01*
X2959100Y7112000D02*
G01*
X2959100Y6858000D01*
X2959100Y7658100D02*
G01*
X2959100Y7404100D01*
X3263900Y8928100D02*
G01*
X3263900Y8140700D01*
X3263900Y7645400D02*
G01*
X3263900Y8140700D01*
X3263900Y8928100D02*
G01*
X3263900Y9410700D01*
X2959100Y8394700D02*
G01*
X2959100Y8140700D01*
X2959100Y8940800D02*
G01*
X2959100Y8686800D01*
X3263900Y10198100D02*
G01*
X3060700Y10401300D01*
X3060700Y11455400D01*
D12*
X876302Y9410697D02*
G01*
X850902Y9436097D01*
X508002Y9436097D01*
X457202Y9385297D01*
D10*
X1181102Y9524997D02*
G01*
X1270002Y9436097D01*
X1270002Y9131297D01*
D12*
X1435100Y7366000D02*
G01*
X1435100Y8267700D01*
X1422400Y8280400D01*
D10*
X1358902Y9220197D02*
G01*
X1270002Y9220197D01*
X1536700Y8369300D02*
G01*
X1536700Y8851900D01*
X457200Y8712200D02*
G01*
X457200Y8559800D01*
X457202Y9232940D02*
G01*
X495302Y9232940D01*
X533402Y9194840D01*
X990602Y9194840D01*
X1054102Y9131340D01*
X1270000Y8902700D02*
G01*
X1270000Y8788443D01*
X1054102Y9131297D02*
G01*
X1270002Y9131297D01*
X1270002Y8788402D02*
G01*
X1308102Y8750302D01*
X1308102Y8369297D01*
D12*
X952502Y9372597D02*
G01*
X939802Y9372597D01*
X876302Y9309102D01*
X457202Y9309102D01*
D10*
X1028702Y8686802D02*
G01*
X1028702Y8915402D01*
X1028700Y8051800D02*
G01*
X1028700Y6591300D01*
X2669793Y6591300D02*
G01*
X2669793Y6455410D01*
X3810000Y2514600D02*
G01*
X3810000Y5067300D01*
X3556000Y2514600D02*
G01*
X3556000Y4559300D01*
X3302000Y2514600D02*
G01*
X3302000Y4064000D01*
X1270000Y4064000D02*
G01*
X1270000Y4559300D01*
X1399793Y6455384D02*
G01*
X1399793Y3937000D01*
X3048000Y3937000D02*
G01*
X3048000Y2514600D01*
X2794000Y3810000D02*
G01*
X2794000Y2514600D01*
X2286000Y2514600D02*
G01*
X2286000Y4178300D01*
X2489200Y4381500D01*
X2489200Y5080000D01*
X2161793Y5407405D01*
X2161793Y6455410D01*
X2540000Y2514600D02*
G01*
X2540000Y5118100D01*
X2415793Y5242305D01*
X2415793Y6455410D01*
X1653793Y6455410D02*
G01*
X1653793Y5235194D01*
X1473200Y5054600D01*
X1473200Y3810000D01*
X2132075Y11176000D02*
G01*
X2132075Y11303000D01*
D11*
X1016000Y2794000D02*
G01*
X1016000Y2514600D01*
X254000Y2794000D02*
G01*
X254000Y2514600D01*
D10*
X101600Y5969000D02*
G01*
X101600Y11176000D01*
D11*
X762000Y2514600D02*
G01*
X762000Y3048000D01*
X2667000Y3048000D02*
G01*
X2667000Y6452593D01*
X2669791Y6455382D01*
D10*
X1524000Y2514600D02*
G01*
X1524000Y3759200D01*
X1549400Y3784600D01*
X1549400Y3848100D01*
X1549400Y3848100D02*
G01*
X1549400Y5041900D01*
X1907793Y5400294D01*
X1907793Y6455410D01*
X1270000Y2514600D02*
G01*
X1270000Y3302000D01*
X508000Y3302000D02*
G01*
X508000Y5969000D01*
X1778000Y2514600D02*
G01*
X1778000Y3429000D01*
X2032000Y2514600D02*
G01*
X2032000Y3556000D01*
X635000Y3429000D02*
G01*
X635000Y6045200D01*
X762000Y3556000D02*
G01*
X762000Y6121400D01*
D12*
X2679700Y9042400D02*
G01*
X2679700Y9664700D01*
X2743200Y9105900D02*
G01*
X2743200Y10210800D01*
X2019300Y8915400D02*
G01*
X2540000Y8394700D01*
X2679700Y8394700D01*
X2019300Y8826500D02*
G01*
X2679700Y8166100D01*
X2679700Y7658100D01*
X1752600Y8724900D02*
G01*
X1752600Y10807700D01*
X1816100Y8661400D02*
G01*
X1816100Y10680700D01*
X1879600Y8597900D02*
G01*
X1879600Y9232900D01*
X1943100Y8534400D02*
G01*
X1943100Y9169400D01*
D11*
X3263900Y7112000D02*
G01*
X3263900Y6896100D01*
X3136900Y6769100D01*
X3136900Y2794000D01*
D12*
X1371600Y7162800D02*
G01*
X1371600Y8305800D01*
X1155700Y8439782D02*
G01*
X1168400Y8427082D01*
X1168400Y7797800D01*
X863600Y9080500D02*
G01*
X850902Y9093197D01*
X850902Y9131297D01*
X850900Y9042400D02*
G01*
X762002Y9131302D01*
X1422400Y8280400D02*
G01*
X1422400Y8928100D01*
X1282700Y9067800D01*
X876300Y9067800D01*
X863600Y9080500D01*
X1371600Y8305800D02*
G01*
X1371600Y8902700D01*
X1244600Y9029700D01*
X863600Y9029700D01*
X850900Y9042400D01*
X812800Y7874000D02*
G01*
X812800Y8051800D01*
X749300Y7937500D02*
G01*
X749300Y8801100D01*
X787400Y8839200D01*
X3530600Y7835900D02*
G01*
X3530600Y8953500D01*
X3860800Y9283700D01*
X3657600Y7950200D02*
G01*
X3657600Y8826500D01*
X3860800Y9029700D01*
D10*
X457200Y8712200D02*
G01*
X647700Y8902700D01*
X1270000Y8902700D01*
X457200Y8559800D02*
G01*
X457200Y8242300D01*
X508000Y8191500D01*
D12*
X3695700Y6210300D02*
G01*
X3695700Y6210300D01*
X3695700Y6578600D01*
X3860800Y6743700D01*
X317500Y8648700D02*
G01*
X317500Y7670800D01*
X381000Y8585200D02*
G01*
X381000Y7607300D01*
X1130300Y8636000D02*
G01*
X1130300Y8509000D01*
X1092200Y8470900D01*
X1092200Y8013700D01*
X1104900Y8013700D01*
X812800Y8763000D02*
G01*
X812800Y8153400D01*
X876300Y8051800D01*
X876300Y7734300D01*
X292100Y8775700D02*
G01*
X254000Y8737600D01*
X254000Y6311900D01*
X279400Y6286500D01*
X279400Y8851900D02*
G01*
X215900Y8788400D01*
X215900Y6235700D01*
X241300Y6210300D01*
X165100Y6045200D02*
G01*
X139700Y6070600D01*
X139700Y8890000D01*
X165100Y8915400D01*
X215900Y6121400D02*
G01*
X177800Y6159500D01*
X177800Y8839200D01*
X228600Y8890000D01*
X228600Y8966200D01*
X38100Y11201400D02*
G01*
X38100Y11112500D01*
X38100Y5930900D02*
G01*
X38100Y6045200D01*
X2019300Y8737600D02*
G01*
X2578100Y8178800D01*
X2565400Y7239000D01*
X2679700Y7112000D01*
X876300Y8686800D02*
G01*
X876300Y8140700D01*
X939800Y8039100D01*
X939800Y7835900D01*
D13*
G01*
X1524000Y2514600D03*
G01*
X1778000Y2514600D03*
G01*
X3810000Y2514600D03*
G01*
X3556000Y2514600D03*
G01*
X3302000Y2514600D03*
G01*
X3048000Y2514600D03*
G01*
X2794000Y2514600D03*
G01*
X254000Y2514600D03*
G01*
X508000Y2514600D03*
G01*
X762000Y2514600D03*
G01*
X1016000Y2514600D03*
G01*
X1270000Y2514600D03*
G01*
X2032000Y2514600D03*
G01*
X2286000Y2514600D03*
G01*
X2540000Y2514600D03*
D14*
G01*
X3860800Y11061700D03*
D15*
G01*
X3860792Y6235700D03*
D14*
G01*
X3860800Y6489700D03*
G01*
X3860800Y6743700D03*
G01*
X3860800Y6997700D03*
G01*
X3860800Y7251700D03*
G01*
X3860800Y7505700D03*
G01*
X3860800Y7759700D03*
G01*
X3860800Y8013700D03*
G01*
X3860800Y8267700D03*
G01*
X3860800Y8521700D03*
G01*
X3860800Y8775700D03*
G01*
X3860800Y9029700D03*
G01*
X3860800Y9283700D03*
G01*
X3860800Y9537700D03*
G01*
X3860800Y9791700D03*
G01*
X3860800Y10045700D03*
G01*
X3860800Y10299700D03*
G01*
X3860800Y10553700D03*
G01*
X3860800Y10807700D03*
D16*
G01*
X952500Y5067300D03*
G01*
X952500Y4305300D03*
G01*
X952500Y4559300D03*
G01*
X952500Y4813300D03*
D17*
G01*
X2984500Y4305300D03*
D16*
G01*
X2984500Y4559300D03*
G01*
X2984500Y4813300D03*
G01*
X2984500Y5067300D03*
D18*
G01*
X2923796Y6455387D03*
D16*
G01*
X2669793Y6455384D03*
G01*
X2415793Y6455384D03*
G01*
X2161793Y6455384D03*
G01*
X1907793Y6455384D03*
G01*
X1653793Y6455384D03*
G01*
X1399793Y6455384D03*
G01*
X1145793Y6455384D03*
D19*
G01*
X1732000Y11302974D03*
G01*
X1932000Y11302974D03*
G01*
X2131999Y11302974D03*
D20*
G01*
X2331999Y11302974D03*
D21*
G01*
X3263900Y10198100D03*
G01*
X2959100Y10210800D03*
G01*
X2959100Y9956800D03*
G01*
X2959100Y9410700D03*
G01*
X2959100Y9664700D03*
G01*
X3263900Y9410700D03*
G01*
X1732000Y11455400D03*
G01*
X3060700Y11455400D03*
G01*
X3263900Y7112000D03*
G01*
X2959100Y7112000D03*
G01*
X2959100Y6858000D03*
G01*
X2959100Y7404100D03*
G01*
X2959100Y7658100D03*
G01*
X3263900Y7645400D03*
G01*
X3263900Y8140700D03*
G01*
X2959100Y8394700D03*
G01*
X2959100Y8140700D03*
G01*
X2959100Y8686800D03*
G01*
X2959100Y8940800D03*
G01*
X3263900Y8928100D03*
G01*
X787400Y8966200D03*
G01*
X665988Y8540013D03*
G01*
X1231900Y8661400D03*
G01*
X1358900Y9220200D03*
G01*
X1536700Y8369300D03*
G01*
X457200Y8554974D03*
G01*
X1536700Y8851900D03*
G01*
X317500Y9525000D03*
G01*
X952500Y9461500D03*
G01*
X1130300Y8966200D03*
G01*
X901700Y8966200D03*
G01*
X901700Y8775700D03*
G01*
X1130300Y8775700D03*
G01*
X1270000Y8902700D03*
G01*
X457200Y8712200D03*
G01*
X342900Y9055100D03*
G01*
X596900Y9254794D03*
G01*
X850900Y9131300D03*
G01*
X762000Y9131300D03*
G01*
X457200Y9232900D03*
G01*
X584200Y9372600D03*
G01*
X952500Y9372600D03*
G01*
X876300Y9410700D03*
G01*
X457200Y9309100D03*
G01*
X457200Y9385300D03*
G01*
X1028700Y8686800D03*
G01*
X1054100Y9131300D03*
G01*
X1181100Y9519793D03*
G01*
X1155700Y8439785D03*
G01*
X1130300Y8636000D03*
G01*
X1308100Y8369300D03*
G01*
X508000Y8191500D03*
G01*
X1270000Y9131300D03*
G01*
X952500Y8686800D03*
G01*
X939800Y9131300D03*
G01*
X1231900Y8166100D03*
G01*
X1104900Y8013700D03*
G01*
X1168400Y7797800D03*
G01*
X1435100Y7366000D03*
G01*
X1371600Y7162800D03*
G01*
X1028700Y8051800D03*
G01*
X1028700Y6591300D03*
G01*
X2669793Y6591300D03*
G01*
X3810000Y5067300D03*
G01*
X3556000Y4559300D03*
G01*
X1270000Y4559300D03*
G01*
X3302000Y4064000D03*
G01*
X1270000Y4064000D03*
G01*
X1399793Y3937000D03*
G01*
X3048000Y3937000D03*
G01*
X1473200Y3810000D03*
G01*
X2794000Y3810000D03*
G01*
X101600Y11176000D03*
G01*
X2131999Y11176000D03*
G01*
X3136900Y2794000D03*
G01*
X1016000Y2794000D03*
G01*
X254000Y2794000D03*
G01*
X1270000Y3302000D03*
G01*
X508000Y3302000D03*
G01*
X762000Y3048000D03*
G01*
X2667000Y3048000D03*
G01*
X101600Y5969000D03*
G01*
X508000Y5969000D03*
G01*
X1778000Y3429000D03*
G01*
X635000Y3429000D03*
G01*
X2032000Y3556000D03*
G01*
X762000Y3556000D03*
G01*
X228600Y8966200D03*
G01*
X165100Y8915400D03*
G01*
X635000Y6045200D03*
G01*
X165100Y6045200D03*
G01*
X762000Y6121400D03*
G01*
X215900Y6121400D03*
G01*
X2679700Y9042400D03*
G01*
X2679700Y9664700D03*
G01*
X2743200Y9105900D03*
G01*
X2743200Y10210800D03*
G01*
X2019300Y8915400D03*
G01*
X2679700Y8394700D03*
G01*
X2019300Y8826500D03*
G01*
X2679700Y7658100D03*
G01*
X2019300Y8737600D03*
G01*
X1752600Y8724900D03*
G01*
X1752600Y10807700D03*
G01*
X1816100Y8661400D03*
G01*
X1816100Y10680700D03*
G01*
X1879600Y8597900D03*
G01*
X1879600Y9232900D03*
G01*
X1943100Y8534400D03*
G01*
X1943100Y9169400D03*
G01*
X2679700Y7112000D03*
G01*
X787400Y8839200D03*
G01*
X812800Y8763000D03*
G01*
X876300Y8686800D03*
G01*
X812800Y8051800D03*
G01*
X749300Y7937500D03*
G01*
X812800Y7874000D03*
G01*
X876300Y7734300D03*
G01*
X3530600Y7835900D03*
G01*
X939800Y7835900D03*
G01*
X3657600Y7950200D03*
G01*
X279400Y8851900D03*
G01*
X292100Y8775700D03*
G01*
X317500Y8648700D03*
G01*
X381000Y8585200D03*
G01*
X279400Y6286500D03*
G01*
X241300Y6210300D03*
G01*
X3695700Y6210300D03*
G01*
X317500Y7670800D03*
G01*
X381000Y7607300D03*
G01*
X3403600Y10198100D03*
G01*
X3365500Y9410700D03*
G01*
X3365500Y8140700D03*
G01*
X3403600Y8928100D03*
G01*
X3403600Y7645400D03*
G01*
X3403600Y7099300D03*
G01*
X3384397Y6096000D03*
G01*
X876300Y6121400D03*
G01*
X876300Y6388100D03*
G01*
X1536700Y9182100D03*
G01*
X1600200Y8458200D03*
G01*
X381000Y8712200D03*
G01*
X965200Y8102600D03*
G01*
X1143000Y6781800D03*
G01*
X1651000Y2692400D03*
G01*
X1905000Y2692400D03*
G01*
X2159000Y2692400D03*
G01*
X2413000Y2692400D03*
G01*
X2667000Y2692400D03*
G01*
X1397000Y2692400D03*
G01*
X2921000Y2692400D03*
G01*
X3175000Y2692400D03*
G01*
X3429000Y2692400D03*
G01*
X3683000Y2692400D03*
G01*
X1143000Y2692400D03*
G01*
X889000Y2692400D03*
G01*
X635000Y2692400D03*
G01*
X381000Y2692400D03*
G01*
X3937000Y2692400D03*
G01*
X127000Y2692400D03*
M02*
