G04 Layer: BoardOutlineLayer*
G04 EasyEDA v6.5.29, 2023-07-16 15:11:24*
G04 a3ca0482f5684a12bc140179fe400ff7,5a6b42c53f6a479593ecc07194224c93,10*
G04 Gerber Generator version 0.2*
G04 Scale: 100 percent, Rotated: No, Reflected: No *
G04 Dimensions in millimeters *
G04 leading zeros omitted , absolute positions ,4 integer and 5 decimal *
%FSLAX45Y45*%
%MOMM*%

%ADD10C,0.2540*%
D10*
X254000Y11430000D02*
G01*
X13970000Y11430000D01*
X13970000Y1016000D01*
X254000Y1016000D01*
X254000Y11430000D01*
G75*
G01*
X11375202Y9258300D02*
G02*
X13440598Y9258300I1032698J0D01*
G75*
G01*
X13440598Y9258300D02*
G02*
X11375202Y9258300I-1032698J0D01*
X11375202Y9258300D02*
G01*
X11375202Y9258300D01*
G75*
G01*
X11387902Y6972300D02*
G02*
X13453298Y6972300I1032698J0D01*
G75*
G01*
X13453298Y6972300D02*
G02*
X11387902Y6972300I-1032698J0D01*
X11387902Y6972300D02*
G01*
X11387902Y6972300D01*
G75*
G01*
X11375202Y4699000D02*
G02*
X13440598Y4699000I1032698J0D01*
G75*
G01*
X13440598Y4699000D02*
G02*
X11375202Y4699000I-1032698J0D01*
X11375202Y4699000D02*
G01*
X11375202Y4699000D01*
X12039600Y2578100D02*
G01*
X12039600Y2349500D01*
X12039600Y2349500D02*
G01*
X12852400Y2349500D01*
X12852400Y2349500D02*
G01*
X12852400Y2578100D01*
X12852400Y2578100D02*
G01*
X12039600Y2578100D01*
X12039600Y11226800D02*
G01*
X12039600Y10998200D01*
X12039600Y10998200D02*
G01*
X12852400Y10998200D01*
X12852400Y10998200D02*
G01*
X12852400Y11226800D01*
X12852400Y11226800D02*
G01*
X12039600Y11226800D01*
X584200Y5245100D02*
G01*
X584200Y4152900D01*
X584200Y4152900D02*
G01*
X1676400Y4152900D01*
X1676400Y4152900D02*
G01*
X1676400Y5245100D01*
X1676400Y5245100D02*
G01*
X584200Y5245100D01*
X584200Y7518400D02*
G01*
X584200Y6426200D01*
X584200Y6426200D02*
G01*
X1676400Y6426200D01*
X1676400Y6426200D02*
G01*
X1676400Y7518400D01*
X1676400Y7518400D02*
G01*
X584200Y7518400D01*
X584200Y9804400D02*
G01*
X584200Y8712200D01*
X584200Y8712200D02*
G01*
X1676400Y8712200D01*
X1676400Y8712200D02*
G01*
X1676400Y9804400D01*
X1676400Y9804400D02*
G01*
X584200Y9804400D01*
X2171700Y11188700D02*
G01*
X2171700Y2743200D01*
X2171700Y2743200D02*
G01*
X10604500Y2743200D01*
X10604500Y2743200D02*
G01*
X10604500Y11188700D01*
X10604500Y11188700D02*
G01*
X2171700Y11188700D01*

%LPD*%
M02*
