G04 Layer: TopSilkscreenLayer*
G04 EasyEDA v6.5.29, 2023-07-18 11:26:45*
G04 a3e85ac62c814be2af95df0adf1d0fd4,5a6b42c53f6a479593ecc07194224c93,10*
G04 Gerber Generator version 0.2*
G04 Scale: 100 percent, Rotated: No, Reflected: No *
G04 Dimensions in millimeters *
G04 leading zeros omitted , absolute positions ,4 integer and 5 decimal *
%FSLAX45Y45*%
%MOMM*%

%ADD10C,0.2032*%

%LPD*%
D10*
X-2336825Y7309281D02*
G01*
X-2336825Y7194727D01*
X-2336825Y7309281D02*
G01*
X-2293137Y7194727D01*
X-2249449Y7309281D02*
G01*
X-2293137Y7194727D01*
X-2249449Y7309281D02*
G01*
X-2249449Y7194727D01*
X-2115337Y7331125D02*
G01*
X-2213635Y7156627D01*
X-2079269Y7309281D02*
G01*
X-2079269Y7194727D01*
X-2079269Y7309281D02*
G01*
X-2008403Y7309281D01*
X-2079269Y7254671D02*
G01*
X-2035835Y7254671D01*
X-2079269Y7194727D02*
G01*
X-2008403Y7194727D01*
X-1888515Y7309281D02*
G01*
X-1888515Y7194727D01*
X-1888515Y7309281D02*
G01*
X-1839239Y7309281D01*
X-1822983Y7303947D01*
X-1817649Y7298359D01*
X-1812061Y7287437D01*
X-1812061Y7271181D01*
X-1817649Y7260259D01*
X-1822983Y7254671D01*
X-1839239Y7249337D01*
X-1888515Y7249337D01*
X-1743227Y7309281D02*
G01*
X-1754149Y7303947D01*
X-1765071Y7293025D01*
X-1770659Y7282103D01*
X-1775993Y7265593D01*
X-1775993Y7238415D01*
X-1770659Y7221905D01*
X-1765071Y7210983D01*
X-1754149Y7200315D01*
X-1743227Y7194727D01*
X-1721637Y7194727D01*
X-1710715Y7200315D01*
X-1699793Y7210983D01*
X-1694205Y7221905D01*
X-1688871Y7238415D01*
X-1688871Y7265593D01*
X-1694205Y7282103D01*
X-1699793Y7293025D01*
X-1710715Y7303947D01*
X-1721637Y7309281D01*
X-1743227Y7309281D01*
X-1652803Y7309281D02*
G01*
X-1625625Y7194727D01*
X-1598193Y7309281D02*
G01*
X-1625625Y7194727D01*
X-1598193Y7309281D02*
G01*
X-1571015Y7194727D01*
X-1543837Y7309281D02*
G01*
X-1571015Y7194727D01*
X-1507769Y7309281D02*
G01*
X-1507769Y7194727D01*
X-1507769Y7309281D02*
G01*
X-1436903Y7309281D01*
X-1507769Y7254671D02*
G01*
X-1464081Y7254671D01*
X-1507769Y7194727D02*
G01*
X-1436903Y7194727D01*
X-1400835Y7309281D02*
G01*
X-1400835Y7194727D01*
X-1400835Y7309281D02*
G01*
X-1351813Y7309281D01*
X-1335303Y7303947D01*
X-1329969Y7298359D01*
X-1324381Y7287437D01*
X-1324381Y7276515D01*
X-1329969Y7265593D01*
X-1335303Y7260259D01*
X-1351813Y7254671D01*
X-1400835Y7254671D01*
X-1362735Y7254671D02*
G01*
X-1324381Y7194727D01*
X-1204493Y7309281D02*
G01*
X-1204493Y7194727D01*
X-1204493Y7194727D02*
G01*
X-1138961Y7194727D01*
X-1102893Y7309281D02*
G01*
X-1102893Y7194727D01*
X-1102893Y7309281D02*
G01*
X-1032027Y7309281D01*
X-1102893Y7254671D02*
G01*
X-1059459Y7254671D01*
X-1102893Y7194727D02*
G01*
X-1032027Y7194727D01*
X-995959Y7309281D02*
G01*
X-995959Y7194727D01*
X-995959Y7309281D02*
G01*
X-957859Y7309281D01*
X-941603Y7303947D01*
X-930681Y7293025D01*
X-925093Y7282103D01*
X-919759Y7265593D01*
X-919759Y7238415D01*
X-925093Y7221905D01*
X-930681Y7210983D01*
X-941603Y7200315D01*
X-957859Y7194727D01*
X-995959Y7194727D01*
X-723417Y7293025D02*
G01*
X-734339Y7303947D01*
X-750595Y7309281D01*
X-772439Y7309281D01*
X-788695Y7303947D01*
X-799617Y7293025D01*
X-799617Y7282103D01*
X-794283Y7271181D01*
X-788695Y7265593D01*
X-777773Y7260259D01*
X-745261Y7249337D01*
X-734339Y7243749D01*
X-728751Y7238415D01*
X-723417Y7227493D01*
X-723417Y7210983D01*
X-734339Y7200315D01*
X-750595Y7194727D01*
X-772439Y7194727D01*
X-788695Y7200315D01*
X-799617Y7210983D01*
X-687349Y7309281D02*
G01*
X-687349Y7194727D01*
X-687349Y7309281D02*
G01*
X-638327Y7309281D01*
X-621817Y7303947D01*
X-616483Y7298359D01*
X-610895Y7287437D01*
X-610895Y7271181D01*
X-616483Y7260259D01*
X-621817Y7254671D01*
X-638327Y7249337D01*
X-687349Y7249337D01*
X-531393Y7309281D02*
G01*
X-575081Y7194727D01*
X-531393Y7309281D02*
G01*
X-487705Y7194727D01*
X-558571Y7232827D02*
G01*
X-503961Y7232827D01*
X-369849Y7282103D02*
G01*
X-375437Y7293025D01*
X-386359Y7303947D01*
X-397281Y7309281D01*
X-418871Y7309281D01*
X-429793Y7303947D01*
X-440715Y7293025D01*
X-446303Y7282103D01*
X-451637Y7265593D01*
X-451637Y7238415D01*
X-446303Y7221905D01*
X-440715Y7210983D01*
X-429793Y7200315D01*
X-418871Y7194727D01*
X-397281Y7194727D01*
X-386359Y7200315D01*
X-375437Y7210983D01*
X-369849Y7221905D01*
X-333781Y7309281D02*
G01*
X-333781Y7194727D01*
X-333781Y7309281D02*
G01*
X-262915Y7309281D01*
X-333781Y7254671D02*
G01*
X-290347Y7254671D01*
X-333781Y7194727D02*
G01*
X-262915Y7194727D01*
X-227101Y7309281D02*
G01*
X-227101Y7194727D01*
X-227101Y7309281D02*
G01*
X-177825Y7309281D01*
X-161569Y7303947D01*
X-155981Y7298359D01*
X-150647Y7287437D01*
X-150647Y7276515D01*
X-155981Y7265593D01*
X-161569Y7260259D01*
X-177825Y7254671D01*
X-227101Y7254671D01*
X-188747Y7254671D02*
G01*
X-150647Y7194727D01*
X-30505Y7243749D02*
G01*
X67538Y7243749D01*
X225780Y7309281D02*
G01*
X225780Y7194727D01*
X187680Y7309281D02*
G01*
X263880Y7309281D01*
X332714Y7309281D02*
G01*
X321792Y7303947D01*
X310870Y7293025D01*
X305282Y7282103D01*
X299948Y7265593D01*
X299948Y7238415D01*
X305282Y7221905D01*
X310870Y7210983D01*
X321792Y7200315D01*
X332714Y7194727D01*
X354558Y7194727D01*
X365480Y7200315D01*
X376402Y7210983D01*
X381736Y7221905D01*
X387070Y7238415D01*
X387070Y7265593D01*
X381736Y7282103D01*
X376402Y7293025D01*
X365480Y7303947D01*
X354558Y7309281D01*
X332714Y7309281D01*
X423138Y7309281D02*
G01*
X423138Y7194727D01*
X423138Y7309281D02*
G01*
X472160Y7309281D01*
X488670Y7303947D01*
X494004Y7298359D01*
X499592Y7287437D01*
X499592Y7271181D01*
X494004Y7260259D01*
X488670Y7254671D01*
X472160Y7249337D01*
X423138Y7249337D01*
X-2243099Y7115479D02*
G01*
X-2243099Y7000925D01*
X-2243099Y7115479D02*
G01*
X-2194077Y7115479D01*
X-2177567Y7109891D01*
X-2172233Y7104557D01*
X-2166645Y7093635D01*
X-2166645Y7077125D01*
X-2172233Y7066203D01*
X-2177567Y7060869D01*
X-2194077Y7055535D01*
X-2243099Y7055535D01*
X-2087143Y7115479D02*
G01*
X-2130831Y7000925D01*
X-2087143Y7115479D02*
G01*
X-2043455Y7000925D01*
X-2114321Y7039025D02*
G01*
X-2059711Y7039025D01*
X-2007387Y7115479D02*
G01*
X-2007387Y7000925D01*
X-2007387Y7115479D02*
G01*
X-1958365Y7115479D01*
X-1942109Y7109891D01*
X-1936521Y7104557D01*
X-1931187Y7093635D01*
X-1931187Y7082713D01*
X-1936521Y7071791D01*
X-1942109Y7066203D01*
X-1958365Y7060869D01*
X-2007387Y7060869D01*
X-1969287Y7060869D02*
G01*
X-1931187Y7000925D01*
X-1857019Y7115479D02*
G01*
X-1857019Y7000925D01*
X-1895119Y7115479D02*
G01*
X-1818665Y7115479D01*
X-1698777Y7115479D02*
G01*
X-1698777Y7000925D01*
X-1698777Y7115479D02*
G01*
X-1622323Y7000925D01*
X-1622323Y7115479D02*
G01*
X-1622323Y7000925D01*
X-1586255Y7115479D02*
G01*
X-1586255Y7033691D01*
X-1580921Y7017181D01*
X-1569999Y7006259D01*
X-1553743Y7000925D01*
X-1542821Y7000925D01*
X-1526311Y7006259D01*
X-1515389Y7017181D01*
X-1510055Y7033691D01*
X-1510055Y7115479D01*
X-1473987Y7115479D02*
G01*
X-1473987Y7000925D01*
X-1473987Y7115479D02*
G01*
X-1430299Y7000925D01*
X-1386611Y7115479D02*
G01*
X-1430299Y7000925D01*
X-1386611Y7115479D02*
G01*
X-1386611Y7000925D01*
X-1350797Y7115479D02*
G01*
X-1350797Y7000925D01*
X-1350797Y7115479D02*
G01*
X-1301521Y7115479D01*
X-1285265Y7109891D01*
X-1279931Y7104557D01*
X-1274343Y7093635D01*
X-1274343Y7082713D01*
X-1279931Y7071791D01*
X-1285265Y7066203D01*
X-1301521Y7060869D01*
X-1350797Y7060869D02*
G01*
X-1301521Y7060869D01*
X-1285265Y7055535D01*
X-1279931Y7049947D01*
X-1274343Y7039025D01*
X-1274343Y7022769D01*
X-1279931Y7011847D01*
X-1285265Y7006259D01*
X-1301521Y7000925D01*
X-1350797Y7000925D01*
X-1238275Y7115479D02*
G01*
X-1238275Y7000925D01*
X-1238275Y7115479D02*
G01*
X-1167409Y7115479D01*
X-1238275Y7060869D02*
G01*
X-1194841Y7060869D01*
X-1238275Y7000925D02*
G01*
X-1167409Y7000925D01*
X-1131341Y7115479D02*
G01*
X-1131341Y7000925D01*
X-1131341Y7115479D02*
G01*
X-1082319Y7115479D01*
X-1066063Y7109891D01*
X-1060475Y7104557D01*
X-1055141Y7093635D01*
X-1055141Y7082713D01*
X-1060475Y7071791D01*
X-1066063Y7066203D01*
X-1082319Y7060869D01*
X-1131341Y7060869D01*
X-1093241Y7060869D02*
G01*
X-1055141Y7000925D01*
X-929665Y7088047D02*
G01*
X-929665Y7093635D01*
X-924077Y7104557D01*
X-918743Y7109891D01*
X-907821Y7115479D01*
X-885977Y7115479D01*
X-875055Y7109891D01*
X-869721Y7104557D01*
X-864133Y7093635D01*
X-864133Y7082713D01*
X-869721Y7071791D01*
X-880643Y7055535D01*
X-934999Y7000925D01*
X-858799Y7000925D01*
X-795553Y7115479D02*
G01*
X-811809Y7109891D01*
X-817397Y7098969D01*
X-817397Y7088047D01*
X-811809Y7077125D01*
X-800887Y7071791D01*
X-779043Y7066203D01*
X-762787Y7060869D01*
X-751865Y7049947D01*
X-746277Y7039025D01*
X-746277Y7022769D01*
X-751865Y7011847D01*
X-757199Y7006259D01*
X-773709Y7000925D01*
X-795553Y7000925D01*
X-811809Y7006259D01*
X-817397Y7011847D01*
X-822731Y7022769D01*
X-822731Y7039025D01*
X-817397Y7049947D01*
X-806475Y7060869D01*
X-789965Y7066203D01*
X-768121Y7071791D01*
X-757199Y7077125D01*
X-751865Y7088047D01*
X-751865Y7098969D01*
X-757199Y7109891D01*
X-773709Y7115479D01*
X-795553Y7115479D01*
X-639343Y7077125D02*
G01*
X-644931Y7060869D01*
X-655853Y7049947D01*
X-672109Y7044613D01*
X-677697Y7044613D01*
X-693953Y7049947D01*
X-704875Y7060869D01*
X-710463Y7077125D01*
X-710463Y7082713D01*
X-704875Y7098969D01*
X-693953Y7109891D01*
X-677697Y7115479D01*
X-672109Y7115479D01*
X-655853Y7109891D01*
X-644931Y7098969D01*
X-639343Y7077125D01*
X-639343Y7049947D01*
X-644931Y7022769D01*
X-655853Y7006259D01*
X-672109Y7000925D01*
X-683031Y7000925D01*
X-699541Y7006259D01*
X-704875Y7017181D01*
X-570763Y7115479D02*
G01*
X-587019Y7109891D01*
X-597941Y7093635D01*
X-603529Y7066203D01*
X-603529Y7049947D01*
X-597941Y7022769D01*
X-587019Y7006259D01*
X-570763Y7000925D01*
X-559841Y7000925D01*
X-543585Y7006259D01*
X-532663Y7022769D01*
X-527075Y7049947D01*
X-527075Y7066203D01*
X-532663Y7093635D01*
X-543585Y7109891D01*
X-559841Y7115479D01*
X-570763Y7115479D01*
X-491007Y7049947D02*
G01*
X-392963Y7049947D01*
X-324129Y7115479D02*
G01*
X-340639Y7109891D01*
X-351561Y7093635D01*
X-356895Y7066203D01*
X-356895Y7049947D01*
X-351561Y7022769D01*
X-340639Y7006259D01*
X-324129Y7000925D01*
X-313207Y7000925D01*
X-296951Y7006259D01*
X-286029Y7022769D01*
X-280441Y7049947D01*
X-280441Y7066203D01*
X-286029Y7093635D01*
X-296951Y7109891D01*
X-313207Y7115479D01*
X-324129Y7115479D01*
X-239039Y7088047D02*
G01*
X-239039Y7093635D01*
X-233705Y7104557D01*
X-228117Y7109891D01*
X-217195Y7115479D01*
X-195351Y7115479D01*
X-184683Y7109891D01*
X-179095Y7104557D01*
X-173761Y7093635D01*
X-173761Y7082713D01*
X-179095Y7071791D01*
X-190017Y7055535D01*
X-244627Y7000925D01*
X-168173Y7000925D01*
X-99593Y7115479D02*
G01*
X-115849Y7109891D01*
X-126771Y7093635D01*
X-132105Y7066203D01*
X-132105Y7049947D01*
X-126771Y7022769D01*
X-115849Y7006259D01*
X-99593Y7000925D01*
X-88671Y7000925D01*
X-72161Y7006259D01*
X-61239Y7022769D01*
X-55905Y7049947D01*
X-55905Y7066203D01*
X-61239Y7093635D01*
X-72161Y7109891D01*
X-88671Y7115479D01*
X-99593Y7115479D01*
X-19837Y7093635D02*
G01*
X-8915Y7098969D01*
X7340Y7115479D01*
X7340Y7000925D01*
X127482Y7115479D02*
G01*
X171170Y7000925D01*
X214604Y7115479D02*
G01*
X171170Y7000925D01*
X283438Y7115479D02*
G01*
X267182Y7109891D01*
X256260Y7093635D01*
X250672Y7066203D01*
X250672Y7049947D01*
X256260Y7022769D01*
X267182Y7006259D01*
X283438Y7000925D01*
X294360Y7000925D01*
X310616Y7006259D01*
X321538Y7022769D01*
X327126Y7049947D01*
X327126Y7066203D01*
X321538Y7093635D01*
X310616Y7109891D01*
X294360Y7115479D01*
X283438Y7115479D01*
X368528Y7028103D02*
G01*
X363194Y7022769D01*
X368528Y7017181D01*
X373862Y7022769D01*
X368528Y7028103D01*
X409930Y7093635D02*
G01*
X420852Y7098969D01*
X437362Y7115479D01*
X437362Y7000925D01*
M02*
