M48
METRIC,LZ,000.000
;FILE_FORMAT=3:3
;TYPE=PLATED
;Layer: PTH_Through
;EasyEDA v6.5.29, 2023-07-18 11:38:57
;be89d959f12a418793a534216dc81482,5a6b42c53f6a479593ecc07194224c93,10
;Gerber Generator version 0.2
;Holesize 1 = 0.305 mm
T01C0.305
;Holesize 2 = 1.000 mm
T02C1.000
;Holesize 3 = 1.200 mm
T03C1.200
%
G05
G90
T01
X011938Y106807
X023368Y106807
X017526Y091567
X028956Y091567
T02
X038608Y110617
X038608Y062357
X038608Y064897
X038608Y067437
X038608Y069977
X038608Y072517
X038608Y075057
X038608Y077597
X038608Y080137
X038608Y082677
X038608Y085217
X038608Y087757
X038608Y090297
X038608Y092837
X038608Y095377
X038608Y097917
X038608Y100457
X038608Y102997
X038608Y105537
X038608Y108077
T03
X007747Y091567
X010287Y091567
X007747Y094107
X010287Y094107
X007747Y096647
X010287Y096647
X007747Y099187
X010287Y099187
X007747Y101727
X010287Y101727
X007747Y104267
X010287Y104267
X007747Y106807
X010287Y106807
X007747Y109347
X010287Y109347
X007747Y062865
X010287Y062865
X007747Y065405
X010287Y065405
X007747Y067945
X010287Y067945
X007747Y070485
X010287Y070485
X007747Y073025
X010287Y073025
X007747Y075565
X010287Y075565
X007747Y078105
X010287Y078105
X007747Y080645
X010287Y080645
X019177Y091567
X021717Y091567
X019177Y094107
X021717Y094107
X019177Y096647
X021717Y096647
X019177Y099187
X021717Y099187
X019177Y101727
X021717Y101727
X019177Y104267
X021717Y104267
X019177Y106807
X021717Y106807
X019177Y109347
X021717Y109347
X030607Y091567
X033147Y091567
X030607Y094107
X033147Y094107
X030607Y096647
X033147Y096647
X030607Y099187
X033147Y099187
X030607Y101727
X033147Y101727
X030607Y104267
X033147Y104267
X030607Y106807
X033147Y106807
X030607Y109347
X033147Y109347
X019177Y062865
X021717Y062865
X019177Y065405
X021717Y065405
X019177Y067945
X021717Y067945
X019177Y070485
X021717Y070485
X019177Y073025
X021717Y073025
X019177Y075565
X021717Y075565
X019177Y078105
X021717Y078105
X019177Y080645
X021717Y080645
X030607Y062865
X033147Y062865
X030607Y065405
X033147Y065405
X030607Y067945
X033147Y067945
X030607Y070485
X033147Y070485
X030607Y073025
X033147Y073025
X030607Y075565
X033147Y075565
X030607Y078105
X033147Y078105
X030607Y080645
X033147Y080645
M30
