G04 Layer: BottomLayer*
G04 EasyEDA v6.5.29, 2023-07-18 11:38:57*
G04 be89d959f12a418793a534216dc81482,5a6b42c53f6a479593ecc07194224c93,10*
G04 Gerber Generator version 0.2*
G04 Scale: 100 percent, Rotated: No, Reflected: No *
G04 Dimensions in millimeters *
G04 leading zeros omitted , absolute positions ,4 integer and 5 decimal *
%FSLAX45Y45*%
%MOMM*%

%AMMACRO1*21,1,$1,$2,0,0,$3*%
%ADD10C,0.4000*%
%ADD11MACRO1,1.8X1.8X90.0000*%
%ADD12C,1.8000*%
%ADD13R,1.8000X1.8000*%
%ADD14C,0.6096*%
%ADD15C,0.0140*%

%LPD*%
G36*
X36068Y5359908D02*
G01*
X32156Y5360670D01*
X28905Y5362905D01*
X26670Y5366156D01*
X25908Y5370068D01*
X25908Y11901932D01*
X26670Y11905843D01*
X28905Y11909094D01*
X32156Y11911330D01*
X36068Y11912092D01*
X4027932Y11912092D01*
X4031843Y11911330D01*
X4035094Y11909094D01*
X4037329Y11905843D01*
X4038092Y11901932D01*
X4038092Y5370068D01*
X4037329Y5366156D01*
X4035094Y5362905D01*
X4031843Y5360670D01*
X4027932Y5359908D01*
G37*

%LPC*%
G36*
X3860800Y11431117D02*
G01*
X3875989Y11432032D01*
X3890924Y11434775D01*
X3905453Y11439296D01*
X3919321Y11445544D01*
X3932326Y11453418D01*
X3944264Y11462766D01*
X3955034Y11473535D01*
X3964381Y11485473D01*
X3972255Y11498478D01*
X3978503Y11512346D01*
X3983024Y11526875D01*
X3985768Y11541810D01*
X3986682Y11557000D01*
X3985768Y11572189D01*
X3983024Y11587124D01*
X3978503Y11601653D01*
X3972255Y11615521D01*
X3964381Y11628526D01*
X3955034Y11640464D01*
X3944264Y11651234D01*
X3932326Y11660581D01*
X3919321Y11668455D01*
X3905453Y11674703D01*
X3890924Y11679224D01*
X3875989Y11681968D01*
X3860800Y11682882D01*
X3845610Y11681968D01*
X3830675Y11679224D01*
X3816146Y11674703D01*
X3802278Y11668455D01*
X3789273Y11660581D01*
X3777335Y11651234D01*
X3766565Y11640464D01*
X3757218Y11628526D01*
X3749344Y11615521D01*
X3743096Y11601653D01*
X3738575Y11587124D01*
X3735832Y11572189D01*
X3734917Y11557000D01*
X3735832Y11541810D01*
X3738575Y11526875D01*
X3743096Y11512346D01*
X3749344Y11498478D01*
X3757218Y11485473D01*
X3766565Y11473535D01*
X3777335Y11462766D01*
X3789273Y11453418D01*
X3802278Y11445544D01*
X3816146Y11439296D01*
X3830675Y11434775D01*
X3845610Y11432032D01*
G37*
G36*
X228600Y5541111D02*
G01*
X243789Y5542026D01*
X258724Y5544769D01*
X273253Y5549290D01*
X287121Y5555538D01*
X300126Y5563412D01*
X312064Y5572810D01*
X322834Y5583529D01*
X332181Y5595518D01*
X340055Y5608523D01*
X346303Y5622391D01*
X350824Y5636869D01*
X353568Y5651855D01*
X354482Y5666994D01*
X353568Y5682183D01*
X350824Y5697169D01*
X346303Y5711647D01*
X340055Y5725515D01*
X332181Y5738520D01*
X322834Y5750509D01*
X312064Y5761228D01*
X300126Y5770626D01*
X287121Y5778500D01*
X273253Y5784748D01*
X258724Y5789269D01*
X243789Y5792012D01*
X228600Y5792927D01*
X213410Y5792012D01*
X198475Y5789269D01*
X183946Y5784748D01*
X170078Y5778500D01*
X157073Y5770626D01*
X145135Y5761228D01*
X134366Y5750509D01*
X125018Y5738520D01*
X117144Y5725515D01*
X110896Y5711647D01*
X106375Y5697169D01*
X103632Y5682183D01*
X102717Y5666994D01*
X103632Y5651855D01*
X106375Y5636869D01*
X110896Y5622391D01*
X117144Y5608523D01*
X125018Y5595518D01*
X134366Y5583529D01*
X145135Y5572810D01*
X157073Y5563412D01*
X170078Y5555538D01*
X183946Y5549290D01*
X198475Y5544769D01*
X213410Y5542026D01*
G37*
G36*
X3873500Y6119774D02*
G01*
X3950208Y6119774D01*
X3956558Y6120485D01*
X3961993Y6122416D01*
X3966921Y6125514D01*
X3970985Y6129578D01*
X3974084Y6134506D01*
X3975963Y6139942D01*
X3976725Y6146292D01*
X3976725Y6223000D01*
X3873500Y6223000D01*
G37*
G36*
X3771341Y6119774D02*
G01*
X3848100Y6119774D01*
X3848100Y6223000D01*
X3744874Y6223000D01*
X3744874Y6146292D01*
X3745585Y6139942D01*
X3747515Y6134506D01*
X3750564Y6129578D01*
X3754678Y6125514D01*
X3759555Y6122416D01*
X3765042Y6120485D01*
G37*
G36*
X685292Y6170574D02*
G01*
X864108Y6170574D01*
X870458Y6171285D01*
X875893Y6173216D01*
X880821Y6176314D01*
X884885Y6180378D01*
X887984Y6185306D01*
X889914Y6190742D01*
X890625Y6197092D01*
X890625Y6375908D01*
X889914Y6382258D01*
X887984Y6387693D01*
X884885Y6392621D01*
X880821Y6396685D01*
X875893Y6399784D01*
X870458Y6401714D01*
X864108Y6402425D01*
X685292Y6402425D01*
X678942Y6401714D01*
X673506Y6399784D01*
X668578Y6396685D01*
X664514Y6392621D01*
X661416Y6387693D01*
X659485Y6382258D01*
X658774Y6375908D01*
X658774Y6197092D01*
X659485Y6190742D01*
X661416Y6185306D01*
X664514Y6180378D01*
X668578Y6176314D01*
X673506Y6173216D01*
X678942Y6171285D01*
G37*
G36*
X1828292Y6170574D02*
G01*
X2007107Y6170574D01*
X2013457Y6171285D01*
X2018893Y6173216D01*
X2023821Y6176314D01*
X2027885Y6180378D01*
X2030984Y6185306D01*
X2032914Y6190742D01*
X2033625Y6197092D01*
X2033625Y6375908D01*
X2032914Y6382258D01*
X2030984Y6387693D01*
X2027885Y6392621D01*
X2023821Y6396685D01*
X2018893Y6399784D01*
X2013457Y6401714D01*
X2007107Y6402425D01*
X1828292Y6402425D01*
X1821942Y6401714D01*
X1816506Y6399784D01*
X1811578Y6396685D01*
X1807514Y6392621D01*
X1804416Y6387693D01*
X1802485Y6382258D01*
X1801774Y6375908D01*
X1801774Y6197092D01*
X1802485Y6190742D01*
X1804416Y6185306D01*
X1807514Y6180378D01*
X1811578Y6176314D01*
X1816506Y6173216D01*
X1821942Y6171285D01*
G37*
G36*
X2971292Y6170574D02*
G01*
X3150108Y6170574D01*
X3156458Y6171285D01*
X3161893Y6173216D01*
X3166821Y6176314D01*
X3170885Y6180378D01*
X3173984Y6185306D01*
X3175914Y6190742D01*
X3176625Y6197092D01*
X3176625Y6375908D01*
X3175914Y6382258D01*
X3173984Y6387693D01*
X3170885Y6392621D01*
X3166821Y6396685D01*
X3161893Y6399784D01*
X3156458Y6401714D01*
X3150108Y6402425D01*
X2971292Y6402425D01*
X2964942Y6401714D01*
X2959506Y6399784D01*
X2954578Y6396685D01*
X2950514Y6392621D01*
X2947416Y6387693D01*
X2945485Y6382258D01*
X2944774Y6375908D01*
X2944774Y6197092D01*
X2945485Y6190742D01*
X2947416Y6185306D01*
X2950514Y6180378D01*
X2954578Y6176314D01*
X2959506Y6173216D01*
X2964942Y6171285D01*
G37*
G36*
X3314700Y6170625D02*
G01*
X3329228Y6171539D01*
X3343503Y6174232D01*
X3357372Y6178753D01*
X3370529Y6184950D01*
X3382822Y6192723D01*
X3394049Y6202019D01*
X3404006Y6212636D01*
X3412540Y6224422D01*
X3419551Y6237173D01*
X3424936Y6250686D01*
X3428542Y6264808D01*
X3430371Y6279235D01*
X3430371Y6293764D01*
X3428542Y6308191D01*
X3424936Y6322314D01*
X3419551Y6335826D01*
X3412540Y6348577D01*
X3404006Y6360363D01*
X3394049Y6370980D01*
X3382822Y6380276D01*
X3370529Y6388049D01*
X3357372Y6394246D01*
X3343503Y6398768D01*
X3329228Y6401460D01*
X3314700Y6402374D01*
X3300171Y6401460D01*
X3285896Y6398768D01*
X3272028Y6394246D01*
X3258870Y6388049D01*
X3246577Y6380276D01*
X3235350Y6370980D01*
X3225393Y6360363D01*
X3216859Y6348577D01*
X3209848Y6335826D01*
X3204464Y6322314D01*
X3200857Y6308191D01*
X3199028Y6293764D01*
X3199028Y6279235D01*
X3200857Y6264808D01*
X3204464Y6250686D01*
X3209848Y6237173D01*
X3216859Y6224422D01*
X3225393Y6212636D01*
X3235350Y6202019D01*
X3246577Y6192723D01*
X3258870Y6184950D01*
X3272028Y6178753D01*
X3285896Y6174232D01*
X3300171Y6171539D01*
G37*
G36*
X1028700Y6170625D02*
G01*
X1043228Y6171539D01*
X1057503Y6174232D01*
X1071372Y6178753D01*
X1084529Y6184950D01*
X1096822Y6192723D01*
X1108049Y6202019D01*
X1118006Y6212636D01*
X1126540Y6224422D01*
X1133551Y6237173D01*
X1138936Y6250686D01*
X1142542Y6264808D01*
X1144371Y6279235D01*
X1144371Y6293764D01*
X1142542Y6308191D01*
X1138936Y6322314D01*
X1133551Y6335826D01*
X1126540Y6348577D01*
X1118006Y6360363D01*
X1108049Y6370980D01*
X1096822Y6380276D01*
X1084529Y6388049D01*
X1071372Y6394246D01*
X1057503Y6398768D01*
X1043228Y6401460D01*
X1028700Y6402374D01*
X1014171Y6401460D01*
X999896Y6398768D01*
X986028Y6394246D01*
X972870Y6388049D01*
X960577Y6380276D01*
X949350Y6370980D01*
X939393Y6360363D01*
X930859Y6348577D01*
X923848Y6335826D01*
X918464Y6322314D01*
X914857Y6308191D01*
X913028Y6293764D01*
X913028Y6279235D01*
X914857Y6264808D01*
X918464Y6250686D01*
X923848Y6237173D01*
X930859Y6224422D01*
X939393Y6212636D01*
X949350Y6202019D01*
X960577Y6192723D01*
X972870Y6184950D01*
X986028Y6178753D01*
X999896Y6174232D01*
X1014171Y6171539D01*
G37*
G36*
X2171700Y6170625D02*
G01*
X2186228Y6171539D01*
X2200503Y6174232D01*
X2214372Y6178753D01*
X2227529Y6184950D01*
X2239822Y6192723D01*
X2251049Y6202019D01*
X2261006Y6212636D01*
X2269540Y6224422D01*
X2276551Y6237173D01*
X2281936Y6250686D01*
X2285542Y6264808D01*
X2287371Y6279235D01*
X2287371Y6293764D01*
X2285542Y6308191D01*
X2281936Y6322314D01*
X2276551Y6335826D01*
X2269540Y6348577D01*
X2261006Y6360363D01*
X2251049Y6370980D01*
X2239822Y6380276D01*
X2227529Y6388049D01*
X2214372Y6394246D01*
X2200503Y6398768D01*
X2186228Y6401460D01*
X2171700Y6402374D01*
X2157171Y6401460D01*
X2142896Y6398768D01*
X2129028Y6394246D01*
X2115870Y6388049D01*
X2103577Y6380276D01*
X2092350Y6370980D01*
X2082393Y6360363D01*
X2073859Y6348577D01*
X2066848Y6335826D01*
X2061464Y6322314D01*
X2057857Y6308191D01*
X2056028Y6293764D01*
X2056028Y6279235D01*
X2057857Y6264808D01*
X2061464Y6250686D01*
X2066848Y6237173D01*
X2073859Y6224422D01*
X2082393Y6212636D01*
X2092350Y6202019D01*
X2103577Y6192723D01*
X2115870Y6184950D01*
X2129028Y6178753D01*
X2142896Y6174232D01*
X2157171Y6171539D01*
G37*
G36*
X3873500Y6248400D02*
G01*
X3976725Y6248400D01*
X3976725Y6325108D01*
X3975963Y6331458D01*
X3974084Y6336893D01*
X3970985Y6341821D01*
X3966921Y6345885D01*
X3961993Y6348984D01*
X3956558Y6350914D01*
X3950208Y6351625D01*
X3873500Y6351625D01*
G37*
G36*
X3744874Y6248400D02*
G01*
X3848100Y6248400D01*
X3848100Y6351625D01*
X3771341Y6351625D01*
X3765042Y6350914D01*
X3759555Y6348984D01*
X3754678Y6345885D01*
X3750564Y6341821D01*
X3747515Y6336893D01*
X3745585Y6331458D01*
X3744874Y6325108D01*
G37*
G36*
X3860800Y6373825D02*
G01*
X3875328Y6374739D01*
X3889603Y6377432D01*
X3903472Y6381953D01*
X3916629Y6388150D01*
X3928922Y6395923D01*
X3940098Y6405219D01*
X3950106Y6415836D01*
X3958640Y6427622D01*
X3965651Y6440373D01*
X3970985Y6453886D01*
X3974642Y6468008D01*
X3976471Y6482435D01*
X3976471Y6496964D01*
X3974642Y6511391D01*
X3970985Y6525514D01*
X3965651Y6539026D01*
X3958640Y6551777D01*
X3950106Y6563563D01*
X3940098Y6574180D01*
X3928922Y6583476D01*
X3916629Y6591249D01*
X3903472Y6597446D01*
X3889603Y6601968D01*
X3875328Y6604660D01*
X3860800Y6605574D01*
X3846271Y6604660D01*
X3831996Y6601968D01*
X3818128Y6597446D01*
X3804970Y6591249D01*
X3792677Y6583476D01*
X3781450Y6574180D01*
X3771493Y6563563D01*
X3762959Y6551777D01*
X3755948Y6539026D01*
X3750564Y6525514D01*
X3746957Y6511391D01*
X3745128Y6496964D01*
X3745128Y6482435D01*
X3746957Y6468008D01*
X3750564Y6453886D01*
X3755948Y6440373D01*
X3762959Y6427622D01*
X3771493Y6415836D01*
X3781450Y6405219D01*
X3792677Y6395923D01*
X3804970Y6388150D01*
X3818128Y6381953D01*
X3831996Y6377432D01*
X3846271Y6374739D01*
G37*
G36*
X2159000Y6425387D02*
G01*
X2159000Y6527800D01*
X2056739Y6527800D01*
X2057857Y6518808D01*
X2061464Y6504685D01*
X2066848Y6491173D01*
X2073859Y6478422D01*
X2082393Y6466636D01*
X2092350Y6456019D01*
X2103577Y6446723D01*
X2115870Y6438950D01*
X2129028Y6432753D01*
X2142896Y6428232D01*
X2157171Y6425539D01*
G37*
G36*
X1905000Y6425387D02*
G01*
X1905000Y6527800D01*
X1802739Y6527800D01*
X1803857Y6518808D01*
X1807464Y6504685D01*
X1812848Y6491173D01*
X1819859Y6478422D01*
X1828393Y6466636D01*
X1838350Y6456019D01*
X1849577Y6446723D01*
X1861870Y6438950D01*
X1875028Y6432753D01*
X1888896Y6428232D01*
X1903171Y6425539D01*
G37*
G36*
X1041400Y6425387D02*
G01*
X1043228Y6425539D01*
X1057503Y6428232D01*
X1071372Y6432753D01*
X1084529Y6438950D01*
X1096822Y6446723D01*
X1108049Y6456019D01*
X1118006Y6466636D01*
X1126540Y6478422D01*
X1133551Y6491173D01*
X1138936Y6504685D01*
X1142542Y6518808D01*
X1143660Y6527800D01*
X1041400Y6527800D01*
G37*
G36*
X3048000Y6425387D02*
G01*
X3048000Y6527800D01*
X2945739Y6527800D01*
X2946857Y6518808D01*
X2950464Y6504685D01*
X2955848Y6491173D01*
X2962859Y6478422D01*
X2971393Y6466636D01*
X2981350Y6456019D01*
X2992577Y6446723D01*
X3004870Y6438950D01*
X3018028Y6432753D01*
X3031896Y6428232D01*
X3046171Y6425539D01*
G37*
G36*
X3073400Y6425387D02*
G01*
X3075228Y6425539D01*
X3089503Y6428232D01*
X3103372Y6432753D01*
X3116529Y6438950D01*
X3128822Y6446723D01*
X3140049Y6456019D01*
X3150006Y6466636D01*
X3158540Y6478422D01*
X3165551Y6491173D01*
X3170936Y6504685D01*
X3174542Y6518808D01*
X3175660Y6527800D01*
X3073400Y6527800D01*
G37*
G36*
X1930400Y6425387D02*
G01*
X1932228Y6425539D01*
X1946503Y6428232D01*
X1960372Y6432753D01*
X1973529Y6438950D01*
X1985822Y6446723D01*
X1997049Y6456019D01*
X2007006Y6466636D01*
X2015540Y6478422D01*
X2022551Y6491173D01*
X2027936Y6504685D01*
X2031542Y6518808D01*
X2032660Y6527800D01*
X1930400Y6527800D01*
G37*
G36*
X2184400Y6425387D02*
G01*
X2186228Y6425539D01*
X2200503Y6428232D01*
X2214372Y6432753D01*
X2227529Y6438950D01*
X2239822Y6446723D01*
X2251049Y6456019D01*
X2261006Y6466636D01*
X2269540Y6478422D01*
X2276551Y6491173D01*
X2281936Y6504685D01*
X2285542Y6518808D01*
X2286660Y6527800D01*
X2184400Y6527800D01*
G37*
G36*
X3327400Y6425387D02*
G01*
X3329228Y6425539D01*
X3343503Y6428232D01*
X3357372Y6432753D01*
X3370529Y6438950D01*
X3382822Y6446723D01*
X3394049Y6456019D01*
X3404006Y6466636D01*
X3412540Y6478422D01*
X3419551Y6491173D01*
X3424936Y6504685D01*
X3428542Y6518808D01*
X3429660Y6527800D01*
X3327400Y6527800D01*
G37*
G36*
X787400Y6425387D02*
G01*
X789228Y6425539D01*
X803503Y6428232D01*
X817372Y6432753D01*
X830529Y6438950D01*
X842822Y6446723D01*
X854049Y6456019D01*
X864006Y6466636D01*
X872540Y6478422D01*
X879551Y6491173D01*
X884936Y6504685D01*
X888542Y6518808D01*
X889660Y6527800D01*
X787400Y6527800D01*
G37*
G36*
X762000Y6425387D02*
G01*
X762000Y6527800D01*
X659739Y6527800D01*
X660857Y6518808D01*
X664464Y6504685D01*
X669848Y6491173D01*
X676859Y6478422D01*
X685393Y6466636D01*
X695350Y6456019D01*
X706577Y6446723D01*
X718870Y6438950D01*
X732028Y6432753D01*
X745896Y6428232D01*
X760171Y6425539D01*
G37*
G36*
X1016000Y6425387D02*
G01*
X1016000Y6527800D01*
X913739Y6527800D01*
X914857Y6518808D01*
X918464Y6504685D01*
X923848Y6491173D01*
X930859Y6478422D01*
X939393Y6466636D01*
X949350Y6456019D01*
X960577Y6446723D01*
X972870Y6438950D01*
X986028Y6432753D01*
X999896Y6428232D01*
X1014171Y6425539D01*
G37*
G36*
X3302000Y6425387D02*
G01*
X3302000Y6527800D01*
X3199739Y6527800D01*
X3200857Y6518808D01*
X3204464Y6504685D01*
X3209848Y6491173D01*
X3216859Y6478422D01*
X3225393Y6466636D01*
X3235350Y6456019D01*
X3246577Y6446723D01*
X3258870Y6438950D01*
X3272028Y6432753D01*
X3285896Y6428232D01*
X3300171Y6425539D01*
G37*
G36*
X2184400Y6553200D02*
G01*
X2286660Y6553200D01*
X2285542Y6562191D01*
X2281936Y6576314D01*
X2276551Y6589826D01*
X2269540Y6602577D01*
X2261006Y6614363D01*
X2251049Y6624980D01*
X2239822Y6634276D01*
X2227529Y6642049D01*
X2214372Y6648246D01*
X2200503Y6652768D01*
X2186228Y6655460D01*
X2184400Y6655612D01*
G37*
G36*
X2945739Y6553200D02*
G01*
X3048000Y6553200D01*
X3048000Y6655612D01*
X3046171Y6655460D01*
X3031896Y6652768D01*
X3018028Y6648246D01*
X3004870Y6642049D01*
X2992577Y6634276D01*
X2981350Y6624980D01*
X2971393Y6614363D01*
X2962859Y6602577D01*
X2955848Y6589826D01*
X2950464Y6576314D01*
X2946857Y6562191D01*
G37*
G36*
X1802739Y6553200D02*
G01*
X1905000Y6553200D01*
X1905000Y6655612D01*
X1903171Y6655460D01*
X1888896Y6652768D01*
X1875028Y6648246D01*
X1861870Y6642049D01*
X1849577Y6634276D01*
X1838350Y6624980D01*
X1828393Y6614363D01*
X1819859Y6602577D01*
X1812848Y6589826D01*
X1807464Y6576314D01*
X1803857Y6562191D01*
G37*
G36*
X1041400Y6553200D02*
G01*
X1143660Y6553200D01*
X1142542Y6562191D01*
X1138936Y6576314D01*
X1133551Y6589826D01*
X1126540Y6602577D01*
X1118006Y6614363D01*
X1108049Y6624980D01*
X1096822Y6634276D01*
X1084529Y6642049D01*
X1071372Y6648246D01*
X1057503Y6652768D01*
X1043228Y6655460D01*
X1041400Y6655612D01*
G37*
G36*
X2056739Y6553200D02*
G01*
X2159000Y6553200D01*
X2159000Y6655612D01*
X2157171Y6655460D01*
X2142896Y6652768D01*
X2129028Y6648246D01*
X2115870Y6642049D01*
X2103577Y6634276D01*
X2092350Y6624980D01*
X2082393Y6614363D01*
X2073859Y6602577D01*
X2066848Y6589826D01*
X2061464Y6576314D01*
X2057857Y6562191D01*
G37*
G36*
X1930400Y6553200D02*
G01*
X2032660Y6553200D01*
X2031542Y6562191D01*
X2027936Y6576314D01*
X2022551Y6589826D01*
X2015540Y6602577D01*
X2007006Y6614363D01*
X1997049Y6624980D01*
X1985822Y6634276D01*
X1973529Y6642049D01*
X1960372Y6648246D01*
X1946503Y6652768D01*
X1932228Y6655460D01*
X1930400Y6655612D01*
G37*
G36*
X787400Y6553200D02*
G01*
X889660Y6553200D01*
X888542Y6562191D01*
X884936Y6576314D01*
X879551Y6589826D01*
X872540Y6602577D01*
X864006Y6614363D01*
X854049Y6624980D01*
X842822Y6634276D01*
X830529Y6642049D01*
X817372Y6648246D01*
X803503Y6652768D01*
X789228Y6655460D01*
X787400Y6655612D01*
G37*
G36*
X3327400Y6553200D02*
G01*
X3429660Y6553200D01*
X3428542Y6562191D01*
X3424936Y6576314D01*
X3419551Y6589826D01*
X3412540Y6602577D01*
X3404006Y6614363D01*
X3394049Y6624980D01*
X3382822Y6634276D01*
X3370529Y6642049D01*
X3357372Y6648246D01*
X3343503Y6652768D01*
X3329228Y6655460D01*
X3327400Y6655612D01*
G37*
G36*
X3199739Y6553200D02*
G01*
X3302000Y6553200D01*
X3302000Y6655612D01*
X3300171Y6655460D01*
X3285896Y6652768D01*
X3272028Y6648246D01*
X3258870Y6642049D01*
X3246577Y6634276D01*
X3235350Y6624980D01*
X3225393Y6614363D01*
X3216859Y6602577D01*
X3209848Y6589826D01*
X3204464Y6576314D01*
X3200857Y6562191D01*
G37*
G36*
X3073400Y6553200D02*
G01*
X3175660Y6553200D01*
X3174542Y6562191D01*
X3170936Y6576314D01*
X3165551Y6589826D01*
X3158540Y6602577D01*
X3150006Y6614363D01*
X3140049Y6624980D01*
X3128822Y6634276D01*
X3116529Y6642049D01*
X3103372Y6648246D01*
X3089503Y6652768D01*
X3075228Y6655460D01*
X3073400Y6655612D01*
G37*
G36*
X913739Y6553200D02*
G01*
X1016000Y6553200D01*
X1016000Y6655612D01*
X1014171Y6655460D01*
X999896Y6652768D01*
X986028Y6648246D01*
X972870Y6642049D01*
X960577Y6634276D01*
X949350Y6624980D01*
X939393Y6614363D01*
X930859Y6602577D01*
X923848Y6589826D01*
X918464Y6576314D01*
X914857Y6562191D01*
G37*
G36*
X659739Y6553200D02*
G01*
X762000Y6553200D01*
X762000Y6655612D01*
X760171Y6655460D01*
X745896Y6652768D01*
X732028Y6648246D01*
X718870Y6642049D01*
X706577Y6634276D01*
X695350Y6624980D01*
X685393Y6614363D01*
X676859Y6602577D01*
X669848Y6589826D01*
X664464Y6576314D01*
X660857Y6562191D01*
G37*
G36*
X3860800Y6627825D02*
G01*
X3875328Y6628739D01*
X3889603Y6631431D01*
X3903472Y6635953D01*
X3916629Y6642150D01*
X3928922Y6649923D01*
X3940098Y6659219D01*
X3950106Y6669836D01*
X3958640Y6681622D01*
X3965651Y6694373D01*
X3970985Y6707886D01*
X3974642Y6722008D01*
X3976471Y6736435D01*
X3976471Y6750964D01*
X3974642Y6765391D01*
X3970985Y6779514D01*
X3965651Y6793026D01*
X3958640Y6805777D01*
X3950106Y6817563D01*
X3940098Y6828180D01*
X3928922Y6837476D01*
X3916629Y6845249D01*
X3903472Y6851446D01*
X3889603Y6855968D01*
X3875328Y6858660D01*
X3860800Y6859574D01*
X3846271Y6858660D01*
X3831996Y6855968D01*
X3818128Y6851446D01*
X3804970Y6845249D01*
X3792677Y6837476D01*
X3781450Y6828180D01*
X3771493Y6817563D01*
X3762959Y6805777D01*
X3755948Y6793026D01*
X3750564Y6779514D01*
X3746957Y6765391D01*
X3745128Y6750964D01*
X3745128Y6736435D01*
X3746957Y6722008D01*
X3750564Y6707886D01*
X3755948Y6694373D01*
X3762959Y6681622D01*
X3771493Y6669836D01*
X3781450Y6659219D01*
X3792677Y6649923D01*
X3804970Y6642150D01*
X3818128Y6635953D01*
X3831996Y6631431D01*
X3846271Y6628739D01*
G37*
G36*
X2159000Y6679387D02*
G01*
X2159000Y6781800D01*
X2056739Y6781800D01*
X2057857Y6772808D01*
X2061464Y6758686D01*
X2066848Y6745173D01*
X2073859Y6732422D01*
X2082393Y6720636D01*
X2092350Y6710019D01*
X2103577Y6700723D01*
X2115870Y6692950D01*
X2129028Y6686753D01*
X2142896Y6682231D01*
X2157171Y6679539D01*
G37*
G36*
X1905000Y6679387D02*
G01*
X1905000Y6781800D01*
X1802739Y6781800D01*
X1803857Y6772808D01*
X1807464Y6758686D01*
X1812848Y6745173D01*
X1819859Y6732422D01*
X1828393Y6720636D01*
X1838350Y6710019D01*
X1849577Y6700723D01*
X1861870Y6692950D01*
X1875028Y6686753D01*
X1888896Y6682231D01*
X1903171Y6679539D01*
G37*
G36*
X3048000Y6679387D02*
G01*
X3048000Y6781800D01*
X2945739Y6781800D01*
X2946857Y6772808D01*
X2950464Y6758686D01*
X2955848Y6745173D01*
X2962859Y6732422D01*
X2971393Y6720636D01*
X2981350Y6710019D01*
X2992577Y6700723D01*
X3004870Y6692950D01*
X3018028Y6686753D01*
X3031896Y6682231D01*
X3046171Y6679539D01*
G37*
G36*
X1041400Y6679387D02*
G01*
X1043228Y6679539D01*
X1057503Y6682231D01*
X1071372Y6686753D01*
X1084529Y6692950D01*
X1096822Y6700723D01*
X1108049Y6710019D01*
X1118006Y6720636D01*
X1126540Y6732422D01*
X1133551Y6745173D01*
X1138936Y6758686D01*
X1142542Y6772808D01*
X1143660Y6781800D01*
X1041400Y6781800D01*
G37*
G36*
X3073400Y6679387D02*
G01*
X3075228Y6679539D01*
X3089503Y6682231D01*
X3103372Y6686753D01*
X3116529Y6692950D01*
X3128822Y6700723D01*
X3140049Y6710019D01*
X3150006Y6720636D01*
X3158540Y6732422D01*
X3165551Y6745173D01*
X3170936Y6758686D01*
X3174542Y6772808D01*
X3175660Y6781800D01*
X3073400Y6781800D01*
G37*
G36*
X1930400Y6679387D02*
G01*
X1932228Y6679539D01*
X1946503Y6682231D01*
X1960372Y6686753D01*
X1973529Y6692950D01*
X1985822Y6700723D01*
X1997049Y6710019D01*
X2007006Y6720636D01*
X2015540Y6732422D01*
X2022551Y6745173D01*
X2027936Y6758686D01*
X2031542Y6772808D01*
X2032660Y6781800D01*
X1930400Y6781800D01*
G37*
G36*
X2184400Y6679387D02*
G01*
X2186228Y6679539D01*
X2200503Y6682231D01*
X2214372Y6686753D01*
X2227529Y6692950D01*
X2239822Y6700723D01*
X2251049Y6710019D01*
X2261006Y6720636D01*
X2269540Y6732422D01*
X2276551Y6745173D01*
X2281936Y6758686D01*
X2285542Y6772808D01*
X2286660Y6781800D01*
X2184400Y6781800D01*
G37*
G36*
X1016000Y6679387D02*
G01*
X1016000Y6781800D01*
X913739Y6781800D01*
X914857Y6772808D01*
X918464Y6758686D01*
X923848Y6745173D01*
X930859Y6732422D01*
X939393Y6720636D01*
X949350Y6710019D01*
X960577Y6700723D01*
X972870Y6692950D01*
X986028Y6686753D01*
X999896Y6682231D01*
X1014171Y6679539D01*
G37*
G36*
X3302000Y6679387D02*
G01*
X3302000Y6781800D01*
X3199739Y6781800D01*
X3200857Y6772808D01*
X3204464Y6758686D01*
X3209848Y6745173D01*
X3216859Y6732422D01*
X3225393Y6720636D01*
X3235350Y6710019D01*
X3246577Y6700723D01*
X3258870Y6692950D01*
X3272028Y6686753D01*
X3285896Y6682231D01*
X3300171Y6679539D01*
G37*
G36*
X762000Y6679387D02*
G01*
X762000Y6781800D01*
X659739Y6781800D01*
X660857Y6772808D01*
X664464Y6758686D01*
X669848Y6745173D01*
X676859Y6732422D01*
X685393Y6720636D01*
X695350Y6710019D01*
X706577Y6700723D01*
X718870Y6692950D01*
X732028Y6686753D01*
X745896Y6682231D01*
X760171Y6679539D01*
G37*
G36*
X787400Y6679387D02*
G01*
X789228Y6679539D01*
X803503Y6682231D01*
X817372Y6686753D01*
X830529Y6692950D01*
X842822Y6700723D01*
X854049Y6710019D01*
X864006Y6720636D01*
X872540Y6732422D01*
X879551Y6745173D01*
X884936Y6758686D01*
X888542Y6772808D01*
X889660Y6781800D01*
X787400Y6781800D01*
G37*
G36*
X3327400Y6679387D02*
G01*
X3329228Y6679539D01*
X3343503Y6682231D01*
X3357372Y6686753D01*
X3370529Y6692950D01*
X3382822Y6700723D01*
X3394049Y6710019D01*
X3404006Y6720636D01*
X3412540Y6732422D01*
X3419551Y6745173D01*
X3424936Y6758686D01*
X3428542Y6772808D01*
X3429660Y6781800D01*
X3327400Y6781800D01*
G37*
G36*
X2184400Y6807200D02*
G01*
X2286660Y6807200D01*
X2285542Y6816191D01*
X2281936Y6830314D01*
X2276551Y6843826D01*
X2269540Y6856577D01*
X2261006Y6868363D01*
X2251049Y6878980D01*
X2239822Y6888276D01*
X2227529Y6896049D01*
X2214372Y6902246D01*
X2200503Y6906768D01*
X2186228Y6909460D01*
X2184400Y6909612D01*
G37*
G36*
X1802739Y6807200D02*
G01*
X1905000Y6807200D01*
X1905000Y6909612D01*
X1903171Y6909460D01*
X1888896Y6906768D01*
X1875028Y6902246D01*
X1861870Y6896049D01*
X1849577Y6888276D01*
X1838350Y6878980D01*
X1828393Y6868363D01*
X1819859Y6856577D01*
X1812848Y6843826D01*
X1807464Y6830314D01*
X1803857Y6816191D01*
G37*
G36*
X2945739Y6807200D02*
G01*
X3048000Y6807200D01*
X3048000Y6909612D01*
X3046171Y6909460D01*
X3031896Y6906768D01*
X3018028Y6902246D01*
X3004870Y6896049D01*
X2992577Y6888276D01*
X2981350Y6878980D01*
X2971393Y6868363D01*
X2962859Y6856577D01*
X2955848Y6843826D01*
X2950464Y6830314D01*
X2946857Y6816191D01*
G37*
G36*
X2056739Y6807200D02*
G01*
X2159000Y6807200D01*
X2159000Y6909612D01*
X2157171Y6909460D01*
X2142896Y6906768D01*
X2129028Y6902246D01*
X2115870Y6896049D01*
X2103577Y6888276D01*
X2092350Y6878980D01*
X2082393Y6868363D01*
X2073859Y6856577D01*
X2066848Y6843826D01*
X2061464Y6830314D01*
X2057857Y6816191D01*
G37*
G36*
X1041400Y6807200D02*
G01*
X1143660Y6807200D01*
X1142542Y6816191D01*
X1138936Y6830314D01*
X1133551Y6843826D01*
X1126540Y6856577D01*
X1118006Y6868363D01*
X1108049Y6878980D01*
X1096822Y6888276D01*
X1084529Y6896049D01*
X1071372Y6902246D01*
X1057503Y6906768D01*
X1043228Y6909460D01*
X1041400Y6909612D01*
G37*
G36*
X1930400Y6807200D02*
G01*
X2032660Y6807200D01*
X2031542Y6816191D01*
X2027936Y6830314D01*
X2022551Y6843826D01*
X2015540Y6856577D01*
X2007006Y6868363D01*
X1997049Y6878980D01*
X1985822Y6888276D01*
X1973529Y6896049D01*
X1960372Y6902246D01*
X1946503Y6906768D01*
X1932228Y6909460D01*
X1930400Y6909612D01*
G37*
G36*
X3073400Y6807200D02*
G01*
X3175660Y6807200D01*
X3174542Y6816191D01*
X3170936Y6830314D01*
X3165551Y6843826D01*
X3158540Y6856577D01*
X3150006Y6868363D01*
X3140049Y6878980D01*
X3128822Y6888276D01*
X3116529Y6896049D01*
X3103372Y6902246D01*
X3089503Y6906768D01*
X3075228Y6909460D01*
X3073400Y6909612D01*
G37*
G36*
X913739Y6807200D02*
G01*
X1016000Y6807200D01*
X1016000Y6909612D01*
X1014171Y6909460D01*
X999896Y6906768D01*
X986028Y6902246D01*
X972870Y6896049D01*
X960577Y6888276D01*
X949350Y6878980D01*
X939393Y6868363D01*
X930859Y6856577D01*
X923848Y6843826D01*
X918464Y6830314D01*
X914857Y6816191D01*
G37*
G36*
X659739Y6807200D02*
G01*
X762000Y6807200D01*
X762000Y6909612D01*
X760171Y6909460D01*
X745896Y6906768D01*
X732028Y6902246D01*
X718870Y6896049D01*
X706577Y6888276D01*
X695350Y6878980D01*
X685393Y6868363D01*
X676859Y6856577D01*
X669848Y6843826D01*
X664464Y6830314D01*
X660857Y6816191D01*
G37*
G36*
X3327400Y6807200D02*
G01*
X3429660Y6807200D01*
X3428542Y6816191D01*
X3424936Y6830314D01*
X3419551Y6843826D01*
X3412540Y6856577D01*
X3404006Y6868363D01*
X3394049Y6878980D01*
X3382822Y6888276D01*
X3370529Y6896049D01*
X3357372Y6902246D01*
X3343503Y6906768D01*
X3329228Y6909460D01*
X3327400Y6909612D01*
G37*
G36*
X3199739Y6807200D02*
G01*
X3302000Y6807200D01*
X3302000Y6909612D01*
X3300171Y6909460D01*
X3285896Y6906768D01*
X3272028Y6902246D01*
X3258870Y6896049D01*
X3246577Y6888276D01*
X3235350Y6878980D01*
X3225393Y6868363D01*
X3216859Y6856577D01*
X3209848Y6843826D01*
X3204464Y6830314D01*
X3200857Y6816191D01*
G37*
G36*
X787400Y6807200D02*
G01*
X889660Y6807200D01*
X888542Y6816191D01*
X884936Y6830314D01*
X879551Y6843826D01*
X872540Y6856577D01*
X864006Y6868363D01*
X854049Y6878980D01*
X842822Y6888276D01*
X830529Y6896049D01*
X817372Y6902246D01*
X803503Y6906768D01*
X789228Y6909460D01*
X787400Y6909612D01*
G37*
G36*
X3860800Y6881825D02*
G01*
X3875328Y6882739D01*
X3889603Y6885431D01*
X3903472Y6889953D01*
X3916629Y6896150D01*
X3928922Y6903923D01*
X3940098Y6913219D01*
X3950106Y6923836D01*
X3958640Y6935622D01*
X3965651Y6948373D01*
X3970985Y6961886D01*
X3974642Y6976008D01*
X3976471Y6990435D01*
X3976471Y7004964D01*
X3974642Y7019391D01*
X3970985Y7033514D01*
X3965651Y7047026D01*
X3958640Y7059777D01*
X3950106Y7071563D01*
X3940098Y7082180D01*
X3928922Y7091476D01*
X3916629Y7099249D01*
X3903472Y7105446D01*
X3889603Y7109968D01*
X3875328Y7112660D01*
X3860800Y7113574D01*
X3846271Y7112660D01*
X3831996Y7109968D01*
X3818128Y7105446D01*
X3804970Y7099249D01*
X3792677Y7091476D01*
X3781450Y7082180D01*
X3771493Y7071563D01*
X3762959Y7059777D01*
X3756964Y7048855D01*
X3754678Y7046061D01*
X3751579Y7044232D01*
X3748024Y7043623D01*
X3561283Y7043623D01*
X3557371Y7044385D01*
X3554069Y7046569D01*
X3551885Y7049871D01*
X3551123Y7053783D01*
X3551072Y7367778D01*
X3549853Y7376515D01*
X3547160Y7384542D01*
X3543046Y7391958D01*
X3537305Y7398816D01*
X3426968Y7509205D01*
X3424783Y7512456D01*
X3423970Y7516266D01*
X3428542Y7534808D01*
X3430371Y7549235D01*
X3430371Y7563764D01*
X3428542Y7578191D01*
X3424936Y7592314D01*
X3419551Y7605826D01*
X3412540Y7618577D01*
X3404006Y7630363D01*
X3394049Y7640980D01*
X3382822Y7650276D01*
X3370529Y7658049D01*
X3357372Y7664246D01*
X3343503Y7668768D01*
X3329228Y7671460D01*
X3314700Y7672374D01*
X3300171Y7671460D01*
X3285896Y7668768D01*
X3272028Y7664246D01*
X3258870Y7658049D01*
X3246577Y7650276D01*
X3235350Y7640980D01*
X3225393Y7630363D01*
X3216859Y7618577D01*
X3210864Y7607706D01*
X3208578Y7604861D01*
X3205480Y7603032D01*
X3201974Y7602423D01*
X3173425Y7602423D01*
X3169920Y7603032D01*
X3166821Y7604861D01*
X3164535Y7607706D01*
X3158540Y7618577D01*
X3150006Y7630363D01*
X3140049Y7640980D01*
X3128822Y7650276D01*
X3116529Y7658049D01*
X3103372Y7664246D01*
X3089503Y7668768D01*
X3075228Y7671460D01*
X3060700Y7672374D01*
X3046171Y7671460D01*
X3031896Y7668768D01*
X3018028Y7664246D01*
X3004870Y7658049D01*
X2992577Y7650276D01*
X2981350Y7640980D01*
X2971393Y7630363D01*
X2962859Y7618577D01*
X2955848Y7605826D01*
X2950464Y7592314D01*
X2946857Y7578191D01*
X2945028Y7563764D01*
X2945028Y7549235D01*
X2946857Y7534808D01*
X2950464Y7520686D01*
X2955848Y7507173D01*
X2962859Y7494422D01*
X2971393Y7482636D01*
X2981350Y7472019D01*
X2992577Y7462723D01*
X3004870Y7454950D01*
X3018028Y7448753D01*
X3031896Y7444231D01*
X3046171Y7441539D01*
X3060700Y7440625D01*
X3075228Y7441539D01*
X3089503Y7444231D01*
X3103372Y7448753D01*
X3116529Y7454950D01*
X3128822Y7462723D01*
X3140049Y7472019D01*
X3150006Y7482636D01*
X3158540Y7494422D01*
X3164535Y7505344D01*
X3166821Y7508138D01*
X3169920Y7509967D01*
X3173476Y7510576D01*
X3201924Y7510576D01*
X3205480Y7509967D01*
X3208578Y7508138D01*
X3210864Y7505344D01*
X3216859Y7494422D01*
X3225393Y7482636D01*
X3235350Y7472019D01*
X3246577Y7462723D01*
X3258870Y7454950D01*
X3272028Y7448753D01*
X3285896Y7444231D01*
X3300171Y7441539D01*
X3314700Y7440625D01*
X3329228Y7441539D01*
X3343503Y7444231D01*
X3351580Y7446873D01*
X3355238Y7447330D01*
X3358845Y7446467D01*
X3361893Y7444384D01*
X3392271Y7414056D01*
X3394557Y7410500D01*
X3395218Y7406386D01*
X3394151Y7402271D01*
X3391509Y7399020D01*
X3387750Y7397089D01*
X3383584Y7396835D01*
X3379622Y7398308D01*
X3370529Y7404049D01*
X3357372Y7410246D01*
X3343503Y7414768D01*
X3329228Y7417460D01*
X3314700Y7418374D01*
X3300171Y7417460D01*
X3285896Y7414768D01*
X3272028Y7410246D01*
X3258870Y7404049D01*
X3246577Y7396276D01*
X3235350Y7386980D01*
X3225393Y7376363D01*
X3216859Y7364577D01*
X3209848Y7351826D01*
X3204464Y7338314D01*
X3200857Y7324191D01*
X3199028Y7309764D01*
X3199028Y7295235D01*
X3200857Y7280808D01*
X3204464Y7266686D01*
X3209848Y7253173D01*
X3216859Y7240422D01*
X3225393Y7228636D01*
X3235350Y7218019D01*
X3246577Y7208723D01*
X3258870Y7200950D01*
X3272028Y7194753D01*
X3285896Y7190231D01*
X3300171Y7187539D01*
X3314700Y7186625D01*
X3329228Y7187539D01*
X3343503Y7190231D01*
X3357372Y7194753D01*
X3370529Y7200950D01*
X3382822Y7208723D01*
X3394049Y7218019D01*
X3404006Y7228636D01*
X3412540Y7240422D01*
X3419551Y7253173D01*
X3424936Y7266686D01*
X3428542Y7280808D01*
X3430371Y7295235D01*
X3430371Y7309764D01*
X3428542Y7324191D01*
X3424936Y7338314D01*
X3419551Y7351826D01*
X3412540Y7364577D01*
X3410965Y7366762D01*
X3409238Y7370673D01*
X3409289Y7374991D01*
X3411118Y7378903D01*
X3414369Y7381697D01*
X3418535Y7382865D01*
X3422751Y7382256D01*
X3426358Y7379919D01*
X3456330Y7349998D01*
X3458514Y7346696D01*
X3459276Y7342784D01*
X3459327Y7021322D01*
X3460546Y7012584D01*
X3463239Y7004558D01*
X3467354Y6997192D01*
X3473094Y6990283D01*
X3499408Y6964019D01*
X3506470Y6958685D01*
X3514039Y6954926D01*
X3522167Y6952640D01*
X3531057Y6951776D01*
X3748024Y6951776D01*
X3751579Y6951167D01*
X3754678Y6949338D01*
X3756964Y6946544D01*
X3762959Y6935622D01*
X3771493Y6923836D01*
X3781450Y6913219D01*
X3792677Y6903923D01*
X3804970Y6896150D01*
X3818128Y6889953D01*
X3831996Y6885431D01*
X3846271Y6882739D01*
G37*
G36*
X2159000Y6933387D02*
G01*
X2159000Y7035800D01*
X2056739Y7035800D01*
X2057857Y7026808D01*
X2061464Y7012686D01*
X2066848Y6999173D01*
X2073859Y6986422D01*
X2082393Y6974636D01*
X2092350Y6964019D01*
X2103577Y6954723D01*
X2115870Y6946950D01*
X2129028Y6940753D01*
X2142896Y6936231D01*
X2157171Y6933539D01*
G37*
G36*
X1905000Y6933387D02*
G01*
X1905000Y7035800D01*
X1802739Y7035800D01*
X1803857Y7026808D01*
X1807464Y7012686D01*
X1812848Y6999173D01*
X1819859Y6986422D01*
X1828393Y6974636D01*
X1838350Y6964019D01*
X1849577Y6954723D01*
X1861870Y6946950D01*
X1875028Y6940753D01*
X1888896Y6936231D01*
X1903171Y6933539D01*
G37*
G36*
X3048000Y6933387D02*
G01*
X3048000Y7035800D01*
X2945739Y7035800D01*
X2946857Y7026808D01*
X2950464Y7012686D01*
X2955848Y6999173D01*
X2962859Y6986422D01*
X2971393Y6974636D01*
X2981350Y6964019D01*
X2992577Y6954723D01*
X3004870Y6946950D01*
X3018028Y6940753D01*
X3031896Y6936231D01*
X3046171Y6933539D01*
G37*
G36*
X1930400Y6933387D02*
G01*
X1932228Y6933539D01*
X1946503Y6936231D01*
X1960372Y6940753D01*
X1973529Y6946950D01*
X1985822Y6954723D01*
X1997049Y6964019D01*
X2007006Y6974636D01*
X2015540Y6986422D01*
X2022551Y6999173D01*
X2027936Y7012686D01*
X2031542Y7026808D01*
X2032660Y7035800D01*
X1930400Y7035800D01*
G37*
G36*
X2184400Y6933387D02*
G01*
X2186228Y6933539D01*
X2200503Y6936231D01*
X2214372Y6940753D01*
X2227529Y6946950D01*
X2239822Y6954723D01*
X2251049Y6964019D01*
X2261006Y6974636D01*
X2269540Y6986422D01*
X2276551Y6999173D01*
X2281936Y7012686D01*
X2285542Y7026808D01*
X2286660Y7035800D01*
X2184400Y7035800D01*
G37*
G36*
X3073400Y6933387D02*
G01*
X3075228Y6933539D01*
X3089503Y6936231D01*
X3103372Y6940753D01*
X3116529Y6946950D01*
X3128822Y6954723D01*
X3140049Y6964019D01*
X3150006Y6974636D01*
X3158540Y6986422D01*
X3165551Y6999173D01*
X3170936Y7012686D01*
X3174542Y7026808D01*
X3175660Y7035800D01*
X3073400Y7035800D01*
G37*
G36*
X1016000Y6933387D02*
G01*
X1016000Y7035800D01*
X913739Y7035800D01*
X914857Y7026808D01*
X918464Y7012686D01*
X923848Y6999173D01*
X930859Y6986422D01*
X939393Y6974636D01*
X949350Y6964019D01*
X960577Y6954723D01*
X972870Y6946950D01*
X986028Y6940753D01*
X999896Y6936231D01*
X1014171Y6933539D01*
G37*
G36*
X3302000Y6933387D02*
G01*
X3302000Y7035800D01*
X3199739Y7035800D01*
X3200857Y7026808D01*
X3204464Y7012686D01*
X3209848Y6999173D01*
X3216859Y6986422D01*
X3225393Y6974636D01*
X3235350Y6964019D01*
X3246577Y6954723D01*
X3258870Y6946950D01*
X3272028Y6940753D01*
X3285896Y6936231D01*
X3300171Y6933539D01*
G37*
G36*
X787400Y6933387D02*
G01*
X789228Y6933539D01*
X803503Y6936231D01*
X817372Y6940753D01*
X830529Y6946950D01*
X842822Y6954723D01*
X854049Y6964019D01*
X864006Y6974636D01*
X872540Y6986422D01*
X879551Y6999173D01*
X884936Y7012686D01*
X888542Y7026808D01*
X889660Y7035800D01*
X787400Y7035800D01*
G37*
G36*
X3327400Y6933387D02*
G01*
X3329228Y6933539D01*
X3343503Y6936231D01*
X3357372Y6940753D01*
X3370529Y6946950D01*
X3382822Y6954723D01*
X3394049Y6964019D01*
X3404006Y6974636D01*
X3412540Y6986422D01*
X3419551Y6999173D01*
X3424936Y7012686D01*
X3428542Y7026808D01*
X3429660Y7035800D01*
X3327400Y7035800D01*
G37*
G36*
X1041400Y6933387D02*
G01*
X1043228Y6933539D01*
X1057503Y6936231D01*
X1071372Y6940753D01*
X1084529Y6946950D01*
X1096822Y6954723D01*
X1108049Y6964019D01*
X1118006Y6974636D01*
X1126540Y6986422D01*
X1133551Y6999173D01*
X1138936Y7012686D01*
X1142542Y7026808D01*
X1143660Y7035800D01*
X1041400Y7035800D01*
G37*
G36*
X762000Y6933387D02*
G01*
X762000Y7035800D01*
X659739Y7035800D01*
X660857Y7026808D01*
X664464Y7012686D01*
X669848Y6999173D01*
X676859Y6986422D01*
X685393Y6974636D01*
X695350Y6964019D01*
X706577Y6954723D01*
X718870Y6946950D01*
X732028Y6940753D01*
X745896Y6936231D01*
X760171Y6933539D01*
G37*
G36*
X228600Y11431117D02*
G01*
X243789Y11432032D01*
X258724Y11434775D01*
X273253Y11439296D01*
X287121Y11445544D01*
X300126Y11453418D01*
X312064Y11462766D01*
X322834Y11473535D01*
X332181Y11485473D01*
X340055Y11498478D01*
X346303Y11512346D01*
X350824Y11526875D01*
X353568Y11541810D01*
X354482Y11557000D01*
X353568Y11572189D01*
X350824Y11587124D01*
X346303Y11601653D01*
X340055Y11615521D01*
X332181Y11628526D01*
X322834Y11640464D01*
X312064Y11651234D01*
X300126Y11660581D01*
X287121Y11668455D01*
X273253Y11674703D01*
X258724Y11679224D01*
X243789Y11681968D01*
X228600Y11682882D01*
X213410Y11681968D01*
X198475Y11679224D01*
X183946Y11674703D01*
X170078Y11668455D01*
X157073Y11660581D01*
X145135Y11651234D01*
X134366Y11640464D01*
X125018Y11628526D01*
X117144Y11615521D01*
X110896Y11601653D01*
X106375Y11587124D01*
X103632Y11572189D01*
X102717Y11557000D01*
X103632Y11541810D01*
X106375Y11526875D01*
X110896Y11512346D01*
X117144Y11498478D01*
X125018Y11485473D01*
X134366Y11473535D01*
X145135Y11462766D01*
X157073Y11453418D01*
X170078Y11445544D01*
X183946Y11439296D01*
X198475Y11434775D01*
X213410Y11432032D01*
G37*
G36*
X2056739Y7061200D02*
G01*
X2159000Y7061200D01*
X2159000Y7163612D01*
X2157171Y7163460D01*
X2142896Y7160768D01*
X2129028Y7156246D01*
X2115870Y7150049D01*
X2103577Y7142276D01*
X2092350Y7132980D01*
X2082393Y7122363D01*
X2073859Y7110577D01*
X2066848Y7097826D01*
X2061464Y7084314D01*
X2057857Y7070191D01*
G37*
G36*
X1802739Y7061200D02*
G01*
X1905000Y7061200D01*
X1905000Y7163612D01*
X1903171Y7163460D01*
X1888896Y7160768D01*
X1875028Y7156246D01*
X1861870Y7150049D01*
X1849577Y7142276D01*
X1838350Y7132980D01*
X1828393Y7122363D01*
X1819859Y7110577D01*
X1812848Y7097826D01*
X1807464Y7084314D01*
X1803857Y7070191D01*
G37*
G36*
X2945739Y7061200D02*
G01*
X3048000Y7061200D01*
X3048000Y7163612D01*
X3046171Y7163460D01*
X3031896Y7160768D01*
X3018028Y7156246D01*
X3004870Y7150049D01*
X2992577Y7142276D01*
X2981350Y7132980D01*
X2971393Y7122363D01*
X2962859Y7110577D01*
X2955848Y7097826D01*
X2950464Y7084314D01*
X2946857Y7070191D01*
G37*
G36*
X1930400Y7061200D02*
G01*
X2032660Y7061200D01*
X2031542Y7070191D01*
X2027936Y7084314D01*
X2022551Y7097826D01*
X2015540Y7110577D01*
X2007006Y7122363D01*
X1997049Y7132980D01*
X1985822Y7142276D01*
X1973529Y7150049D01*
X1960372Y7156246D01*
X1946503Y7160768D01*
X1932228Y7163460D01*
X1930400Y7163612D01*
G37*
G36*
X2184400Y7061200D02*
G01*
X2286660Y7061200D01*
X2285542Y7070191D01*
X2281936Y7084314D01*
X2276551Y7097826D01*
X2269540Y7110577D01*
X2261006Y7122363D01*
X2251049Y7132980D01*
X2239822Y7142276D01*
X2227529Y7150049D01*
X2214372Y7156246D01*
X2200503Y7160768D01*
X2186228Y7163460D01*
X2184400Y7163612D01*
G37*
G36*
X913739Y7061200D02*
G01*
X1016000Y7061200D01*
X1016000Y7163612D01*
X1014171Y7163460D01*
X999896Y7160768D01*
X986028Y7156246D01*
X972870Y7150049D01*
X960577Y7142276D01*
X949350Y7132980D01*
X939393Y7122363D01*
X930859Y7110577D01*
X923848Y7097826D01*
X918464Y7084314D01*
X914857Y7070191D01*
G37*
G36*
X3199739Y7061200D02*
G01*
X3302000Y7061200D01*
X3302000Y7163612D01*
X3300171Y7163460D01*
X3285896Y7160768D01*
X3272028Y7156246D01*
X3258870Y7150049D01*
X3246577Y7142276D01*
X3235350Y7132980D01*
X3225393Y7122363D01*
X3216859Y7110577D01*
X3209848Y7097826D01*
X3204464Y7084314D01*
X3200857Y7070191D01*
G37*
G36*
X787400Y7061200D02*
G01*
X889660Y7061200D01*
X888542Y7070191D01*
X884936Y7084314D01*
X879551Y7097826D01*
X872540Y7110577D01*
X864006Y7122363D01*
X854049Y7132980D01*
X842822Y7142276D01*
X830529Y7150049D01*
X817372Y7156246D01*
X803503Y7160768D01*
X789228Y7163460D01*
X787400Y7163612D01*
G37*
G36*
X3327400Y7061200D02*
G01*
X3429660Y7061200D01*
X3428542Y7070191D01*
X3424936Y7084314D01*
X3419551Y7097826D01*
X3412540Y7110577D01*
X3404006Y7122363D01*
X3394049Y7132980D01*
X3382822Y7142276D01*
X3370529Y7150049D01*
X3357372Y7156246D01*
X3343503Y7160768D01*
X3329228Y7163460D01*
X3327400Y7163612D01*
G37*
G36*
X659739Y7061200D02*
G01*
X762000Y7061200D01*
X762000Y7163612D01*
X760171Y7163460D01*
X745896Y7160768D01*
X732028Y7156246D01*
X718870Y7150049D01*
X706577Y7142276D01*
X695350Y7132980D01*
X685393Y7122363D01*
X676859Y7110577D01*
X669848Y7097826D01*
X664464Y7084314D01*
X660857Y7070191D01*
G37*
G36*
X1041400Y7061200D02*
G01*
X1143660Y7061200D01*
X1142542Y7070191D01*
X1138936Y7084314D01*
X1133551Y7097826D01*
X1126540Y7110577D01*
X1118006Y7122363D01*
X1108049Y7132980D01*
X1096822Y7142276D01*
X1084529Y7150049D01*
X1071372Y7156246D01*
X1057503Y7160768D01*
X1043228Y7163460D01*
X1041400Y7163612D01*
G37*
G36*
X3073400Y7061200D02*
G01*
X3175660Y7061200D01*
X3174542Y7070191D01*
X3170936Y7084314D01*
X3165551Y7097826D01*
X3158540Y7110577D01*
X3150006Y7122363D01*
X3140049Y7132980D01*
X3128822Y7142276D01*
X3116529Y7150049D01*
X3103372Y7156246D01*
X3089503Y7160768D01*
X3075228Y7163460D01*
X3073400Y7163612D01*
G37*
G36*
X3860800Y7135825D02*
G01*
X3875328Y7136739D01*
X3889603Y7139431D01*
X3903472Y7143953D01*
X3916629Y7150150D01*
X3928922Y7157923D01*
X3940098Y7167219D01*
X3950106Y7177836D01*
X3958640Y7189622D01*
X3965651Y7202373D01*
X3970985Y7215886D01*
X3974642Y7230008D01*
X3976471Y7244435D01*
X3976471Y7258964D01*
X3974642Y7273391D01*
X3970985Y7287514D01*
X3965651Y7301026D01*
X3958640Y7313777D01*
X3950106Y7325563D01*
X3940098Y7336180D01*
X3928922Y7345476D01*
X3916629Y7353249D01*
X3903472Y7359446D01*
X3889603Y7363968D01*
X3875328Y7366660D01*
X3860800Y7367574D01*
X3846271Y7366660D01*
X3831996Y7363968D01*
X3818128Y7359446D01*
X3804970Y7353249D01*
X3792677Y7345476D01*
X3781450Y7336180D01*
X3771493Y7325563D01*
X3762959Y7313777D01*
X3756964Y7302855D01*
X3754678Y7300061D01*
X3751579Y7298232D01*
X3748024Y7297623D01*
X3718915Y7297623D01*
X3715054Y7298385D01*
X3711752Y7300569D01*
X3693769Y7318552D01*
X3691585Y7321854D01*
X3690823Y7325715D01*
X3690772Y8269478D01*
X3689553Y8278215D01*
X3686860Y8286242D01*
X3682746Y8293608D01*
X3677005Y8300516D01*
X3625291Y8352180D01*
X3618229Y8357514D01*
X3610660Y8361273D01*
X3602532Y8363559D01*
X3593642Y8364423D01*
X2411222Y8364372D01*
X2402484Y8363153D01*
X2394458Y8360460D01*
X2387092Y8356346D01*
X2380183Y8350605D01*
X2328519Y8298891D01*
X2323185Y8291830D01*
X2319426Y8284260D01*
X2317140Y8276132D01*
X2316276Y8267242D01*
X2316276Y7770215D01*
X2315514Y7766354D01*
X2313330Y7763052D01*
X2283409Y7733182D01*
X2279802Y7730845D01*
X2275586Y7730185D01*
X2271420Y7731404D01*
X2268169Y7734198D01*
X2266340Y7738059D01*
X2266289Y7742377D01*
X2268016Y7746339D01*
X2269540Y7748422D01*
X2276551Y7761173D01*
X2281936Y7774686D01*
X2285542Y7788808D01*
X2287371Y7803235D01*
X2287371Y7817764D01*
X2285542Y7832191D01*
X2281936Y7846314D01*
X2276551Y7859826D01*
X2269540Y7872577D01*
X2261006Y7884363D01*
X2251049Y7894980D01*
X2239822Y7904276D01*
X2227529Y7912049D01*
X2214372Y7918246D01*
X2200503Y7922768D01*
X2186228Y7925460D01*
X2171700Y7926374D01*
X2157171Y7925460D01*
X2142896Y7922768D01*
X2129028Y7918246D01*
X2115870Y7912049D01*
X2103577Y7904276D01*
X2092350Y7894980D01*
X2082393Y7884363D01*
X2073859Y7872577D01*
X2066848Y7859826D01*
X2061464Y7846314D01*
X2057857Y7832191D01*
X2056028Y7817764D01*
X2056028Y7803235D01*
X2057857Y7788808D01*
X2061464Y7774686D01*
X2066848Y7761173D01*
X2073859Y7748422D01*
X2082393Y7736636D01*
X2092350Y7726019D01*
X2103577Y7716723D01*
X2115870Y7708950D01*
X2129028Y7702753D01*
X2142896Y7698231D01*
X2157171Y7695539D01*
X2171700Y7694625D01*
X2186228Y7695539D01*
X2200503Y7698231D01*
X2214372Y7702753D01*
X2227529Y7708950D01*
X2236571Y7714691D01*
X2240483Y7716164D01*
X2244699Y7715910D01*
X2248458Y7713980D01*
X2251100Y7710678D01*
X2252167Y7706614D01*
X2251506Y7702448D01*
X2249170Y7698892D01*
X2218893Y7668615D01*
X2215845Y7666532D01*
X2212238Y7665669D01*
X2208580Y7666126D01*
X2200503Y7668768D01*
X2186228Y7671460D01*
X2171700Y7672374D01*
X2157171Y7671460D01*
X2142896Y7668768D01*
X2129028Y7664246D01*
X2115870Y7658049D01*
X2103577Y7650276D01*
X2092350Y7640980D01*
X2082393Y7630363D01*
X2073859Y7618577D01*
X2067864Y7607706D01*
X2065578Y7604861D01*
X2062480Y7603032D01*
X2058974Y7602423D01*
X2030425Y7602423D01*
X2026920Y7603032D01*
X2023821Y7604861D01*
X2021535Y7607706D01*
X2015540Y7618577D01*
X2007006Y7630363D01*
X1997049Y7640980D01*
X1985822Y7650276D01*
X1973529Y7658049D01*
X1960372Y7664246D01*
X1946503Y7668768D01*
X1932228Y7671460D01*
X1917700Y7672374D01*
X1903171Y7671460D01*
X1888896Y7668768D01*
X1875028Y7664246D01*
X1861870Y7658049D01*
X1849577Y7650276D01*
X1838350Y7640980D01*
X1828393Y7630363D01*
X1819859Y7618577D01*
X1812848Y7605826D01*
X1807464Y7592314D01*
X1803857Y7578191D01*
X1802028Y7563764D01*
X1802028Y7549235D01*
X1803857Y7534808D01*
X1807464Y7520686D01*
X1812848Y7507173D01*
X1819859Y7494422D01*
X1828393Y7482636D01*
X1838350Y7472019D01*
X1849577Y7462723D01*
X1861870Y7454950D01*
X1875028Y7448753D01*
X1888896Y7444231D01*
X1903171Y7441539D01*
X1917700Y7440625D01*
X1932228Y7441539D01*
X1946503Y7444231D01*
X1960372Y7448753D01*
X1973529Y7454950D01*
X1985822Y7462723D01*
X1997049Y7472019D01*
X2007006Y7482636D01*
X2015540Y7494422D01*
X2021535Y7505344D01*
X2023821Y7508138D01*
X2026920Y7509967D01*
X2030475Y7510576D01*
X2058924Y7510576D01*
X2062480Y7509967D01*
X2065578Y7508138D01*
X2067864Y7505344D01*
X2073859Y7494422D01*
X2082393Y7482636D01*
X2092350Y7472019D01*
X2103577Y7462723D01*
X2115870Y7454950D01*
X2129028Y7448753D01*
X2142896Y7444231D01*
X2157171Y7441539D01*
X2171700Y7440625D01*
X2186228Y7441539D01*
X2200503Y7444231D01*
X2214372Y7448753D01*
X2227529Y7454950D01*
X2239822Y7462723D01*
X2251049Y7472019D01*
X2261006Y7482636D01*
X2269540Y7494422D01*
X2276551Y7507173D01*
X2281936Y7520686D01*
X2285542Y7534808D01*
X2287371Y7549235D01*
X2287371Y7563764D01*
X2285542Y7578191D01*
X2281682Y7592923D01*
X2280970Y7596733D01*
X2281783Y7600594D01*
X2283968Y7603845D01*
X2395880Y7715808D01*
X2401214Y7722870D01*
X2404973Y7730439D01*
X2407259Y7738567D01*
X2408123Y7747457D01*
X2408123Y8244484D01*
X2408885Y8248345D01*
X2411069Y8251647D01*
X2429052Y8269630D01*
X2432354Y8271814D01*
X2436215Y8272576D01*
X3570884Y8272576D01*
X3574745Y8271814D01*
X3578047Y8269630D01*
X3596030Y8251647D01*
X3598214Y8248345D01*
X3598976Y8244484D01*
X3599027Y7300722D01*
X3600246Y7291984D01*
X3602939Y7283958D01*
X3607054Y7276592D01*
X3612794Y7269683D01*
X3664508Y7218019D01*
X3671570Y7212685D01*
X3679139Y7208926D01*
X3687267Y7206640D01*
X3696157Y7205776D01*
X3748024Y7205776D01*
X3751579Y7205167D01*
X3754678Y7203338D01*
X3756964Y7200544D01*
X3762959Y7189622D01*
X3771493Y7177836D01*
X3781450Y7167219D01*
X3792677Y7157923D01*
X3804970Y7150150D01*
X3818128Y7143953D01*
X3831996Y7139431D01*
X3846271Y7136739D01*
G37*
G36*
X774700Y7186625D02*
G01*
X789228Y7187539D01*
X803503Y7190231D01*
X817372Y7194753D01*
X830529Y7200950D01*
X842822Y7208723D01*
X854049Y7218019D01*
X864006Y7228636D01*
X872540Y7240422D01*
X879551Y7253173D01*
X884936Y7266686D01*
X888542Y7280808D01*
X890371Y7295235D01*
X890371Y7309764D01*
X888542Y7324191D01*
X884936Y7338314D01*
X879551Y7351826D01*
X872540Y7364577D01*
X864006Y7376363D01*
X854049Y7386980D01*
X842822Y7396276D01*
X830529Y7404049D01*
X817372Y7410246D01*
X803503Y7414768D01*
X789228Y7417460D01*
X774700Y7418374D01*
X760171Y7417460D01*
X745896Y7414768D01*
X732028Y7410246D01*
X718870Y7404049D01*
X706577Y7396276D01*
X695350Y7386980D01*
X685393Y7376363D01*
X676859Y7364577D01*
X669848Y7351826D01*
X664464Y7338314D01*
X660857Y7324191D01*
X659028Y7309764D01*
X659028Y7295235D01*
X660857Y7280808D01*
X664464Y7266686D01*
X669848Y7253173D01*
X676859Y7240422D01*
X685393Y7228636D01*
X695350Y7218019D01*
X706577Y7208723D01*
X718870Y7200950D01*
X732028Y7194753D01*
X745896Y7190231D01*
X760171Y7187539D01*
G37*
G36*
X3060700Y7186625D02*
G01*
X3075228Y7187539D01*
X3089503Y7190231D01*
X3103372Y7194753D01*
X3116529Y7200950D01*
X3128822Y7208723D01*
X3140049Y7218019D01*
X3150006Y7228636D01*
X3158540Y7240422D01*
X3165551Y7253173D01*
X3170936Y7266686D01*
X3174542Y7280808D01*
X3176371Y7295235D01*
X3176371Y7309764D01*
X3174542Y7324191D01*
X3170936Y7338314D01*
X3165551Y7351826D01*
X3158540Y7364577D01*
X3150006Y7376363D01*
X3140049Y7386980D01*
X3128822Y7396276D01*
X3116529Y7404049D01*
X3103372Y7410246D01*
X3089503Y7414768D01*
X3075228Y7417460D01*
X3060700Y7418374D01*
X3046171Y7417460D01*
X3031896Y7414768D01*
X3018028Y7410246D01*
X3004870Y7404049D01*
X2992577Y7396276D01*
X2981350Y7386980D01*
X2971393Y7376363D01*
X2962859Y7364577D01*
X2955848Y7351826D01*
X2950464Y7338314D01*
X2946857Y7324191D01*
X2945028Y7309764D01*
X2945028Y7295235D01*
X2946857Y7280808D01*
X2950464Y7266686D01*
X2955848Y7253173D01*
X2962859Y7240422D01*
X2971393Y7228636D01*
X2981350Y7218019D01*
X2992577Y7208723D01*
X3004870Y7200950D01*
X3018028Y7194753D01*
X3031896Y7190231D01*
X3046171Y7187539D01*
G37*
G36*
X1028700Y7186625D02*
G01*
X1043228Y7187539D01*
X1057503Y7190231D01*
X1071372Y7194753D01*
X1084529Y7200950D01*
X1096822Y7208723D01*
X1108049Y7218019D01*
X1118006Y7228636D01*
X1126540Y7240422D01*
X1133551Y7253173D01*
X1138936Y7266686D01*
X1142542Y7280808D01*
X1144371Y7295235D01*
X1144371Y7309764D01*
X1142542Y7324191D01*
X1138936Y7338314D01*
X1133551Y7351826D01*
X1126540Y7364577D01*
X1118006Y7376363D01*
X1108049Y7386980D01*
X1096822Y7396276D01*
X1084529Y7404049D01*
X1071372Y7410246D01*
X1057503Y7414768D01*
X1043228Y7417460D01*
X1028700Y7418374D01*
X1014171Y7417460D01*
X999896Y7414768D01*
X986028Y7410246D01*
X972870Y7404049D01*
X960577Y7396276D01*
X949350Y7386980D01*
X939393Y7376363D01*
X930859Y7364577D01*
X923848Y7351826D01*
X918464Y7338314D01*
X914857Y7324191D01*
X913028Y7309764D01*
X913028Y7295235D01*
X914857Y7280808D01*
X918464Y7266686D01*
X923848Y7253173D01*
X930859Y7240422D01*
X939393Y7228636D01*
X949350Y7218019D01*
X960577Y7208723D01*
X972870Y7200950D01*
X986028Y7194753D01*
X999896Y7190231D01*
X1014171Y7187539D01*
G37*
G36*
X2171700Y7186625D02*
G01*
X2186228Y7187539D01*
X2200503Y7190231D01*
X2214372Y7194753D01*
X2227529Y7200950D01*
X2239822Y7208723D01*
X2251049Y7218019D01*
X2261006Y7228636D01*
X2269540Y7240422D01*
X2276551Y7253173D01*
X2281936Y7266686D01*
X2285542Y7280808D01*
X2287371Y7295235D01*
X2287371Y7309764D01*
X2285542Y7324191D01*
X2281936Y7338314D01*
X2276551Y7351826D01*
X2269540Y7364577D01*
X2261006Y7376363D01*
X2251049Y7386980D01*
X2239822Y7396276D01*
X2227529Y7404049D01*
X2214372Y7410246D01*
X2200503Y7414768D01*
X2186228Y7417460D01*
X2171700Y7418374D01*
X2157171Y7417460D01*
X2142896Y7414768D01*
X2129028Y7410246D01*
X2115870Y7404049D01*
X2103577Y7396276D01*
X2092350Y7386980D01*
X2082393Y7376363D01*
X2073859Y7364577D01*
X2066848Y7351826D01*
X2061464Y7338314D01*
X2057857Y7324191D01*
X2056028Y7309764D01*
X2056028Y7295235D01*
X2057857Y7280808D01*
X2061464Y7266686D01*
X2066848Y7253173D01*
X2073859Y7240422D01*
X2082393Y7228636D01*
X2092350Y7218019D01*
X2103577Y7208723D01*
X2115870Y7200950D01*
X2129028Y7194753D01*
X2142896Y7190231D01*
X2157171Y7187539D01*
G37*
G36*
X1917700Y7186625D02*
G01*
X1932228Y7187539D01*
X1946503Y7190231D01*
X1960372Y7194753D01*
X1973529Y7200950D01*
X1985822Y7208723D01*
X1997049Y7218019D01*
X2007006Y7228636D01*
X2015540Y7240422D01*
X2022551Y7253173D01*
X2027936Y7266686D01*
X2031542Y7280808D01*
X2033371Y7295235D01*
X2033371Y7309764D01*
X2031542Y7324191D01*
X2027936Y7338314D01*
X2022551Y7351826D01*
X2015540Y7364577D01*
X2007006Y7376363D01*
X1997049Y7386980D01*
X1985822Y7396276D01*
X1973529Y7404049D01*
X1960372Y7410246D01*
X1946503Y7414768D01*
X1932228Y7417460D01*
X1917700Y7418374D01*
X1903171Y7417460D01*
X1888896Y7414768D01*
X1875028Y7410246D01*
X1861870Y7404049D01*
X1849577Y7396276D01*
X1838350Y7386980D01*
X1828393Y7376363D01*
X1819859Y7364577D01*
X1812848Y7351826D01*
X1807464Y7338314D01*
X1803857Y7324191D01*
X1802028Y7309764D01*
X1802028Y7295235D01*
X1803857Y7280808D01*
X1807464Y7266686D01*
X1812848Y7253173D01*
X1819859Y7240422D01*
X1828393Y7228636D01*
X1838350Y7218019D01*
X1849577Y7208723D01*
X1861870Y7200950D01*
X1875028Y7194753D01*
X1888896Y7190231D01*
X1903171Y7187539D01*
G37*
G36*
X3745839Y11074400D02*
G01*
X3848100Y11074400D01*
X3848100Y11176812D01*
X3846271Y11176660D01*
X3831996Y11173968D01*
X3818128Y11169446D01*
X3804970Y11163249D01*
X3792677Y11155476D01*
X3781450Y11146180D01*
X3771493Y11135563D01*
X3762959Y11123777D01*
X3755948Y11111026D01*
X3750564Y11097514D01*
X3746957Y11083391D01*
G37*
G36*
X3873500Y11074400D02*
G01*
X3975760Y11074400D01*
X3974642Y11083391D01*
X3970985Y11097514D01*
X3965651Y11111026D01*
X3958640Y11123777D01*
X3950106Y11135563D01*
X3940098Y11146180D01*
X3928922Y11155476D01*
X3916629Y11163249D01*
X3903472Y11169446D01*
X3889603Y11173968D01*
X3875328Y11176660D01*
X3873500Y11176812D01*
G37*
G36*
X3860800Y7389825D02*
G01*
X3875328Y7390739D01*
X3889603Y7393431D01*
X3903472Y7397953D01*
X3916629Y7404150D01*
X3928922Y7411923D01*
X3940098Y7421219D01*
X3950106Y7431836D01*
X3958640Y7443622D01*
X3965651Y7456373D01*
X3970985Y7469886D01*
X3974642Y7484008D01*
X3976471Y7498435D01*
X3976471Y7512964D01*
X3974642Y7527391D01*
X3970985Y7541514D01*
X3965651Y7555026D01*
X3958640Y7567777D01*
X3950106Y7579563D01*
X3940098Y7590180D01*
X3928922Y7599476D01*
X3916629Y7607249D01*
X3903472Y7613446D01*
X3889603Y7617968D01*
X3875328Y7620660D01*
X3860800Y7621574D01*
X3846271Y7620660D01*
X3831996Y7617968D01*
X3818128Y7613446D01*
X3804970Y7607249D01*
X3792677Y7599476D01*
X3781450Y7590180D01*
X3771493Y7579563D01*
X3762959Y7567777D01*
X3755948Y7555026D01*
X3750564Y7541514D01*
X3746957Y7527391D01*
X3745128Y7512964D01*
X3745128Y7498435D01*
X3746957Y7484008D01*
X3750564Y7469886D01*
X3755948Y7456373D01*
X3762959Y7443622D01*
X3771493Y7431836D01*
X3781450Y7421219D01*
X3792677Y7411923D01*
X3804970Y7404150D01*
X3818128Y7397953D01*
X3831996Y7393431D01*
X3846271Y7390739D01*
G37*
G36*
X3848100Y10946587D02*
G01*
X3848100Y11049000D01*
X3745839Y11049000D01*
X3746957Y11040008D01*
X3750564Y11025886D01*
X3755948Y11012373D01*
X3762959Y10999622D01*
X3771493Y10987836D01*
X3781450Y10977219D01*
X3792677Y10967923D01*
X3804970Y10960150D01*
X3818128Y10953953D01*
X3831996Y10949432D01*
X3846271Y10946739D01*
G37*
G36*
X3873500Y10946587D02*
G01*
X3875328Y10946739D01*
X3889603Y10949432D01*
X3903472Y10953953D01*
X3916629Y10960150D01*
X3928922Y10967923D01*
X3940098Y10977219D01*
X3950106Y10987836D01*
X3958640Y10999622D01*
X3965651Y11012373D01*
X3970985Y11025886D01*
X3974642Y11040008D01*
X3975760Y11049000D01*
X3873500Y11049000D01*
G37*
G36*
X3314700Y10818825D02*
G01*
X3329228Y10819739D01*
X3343503Y10822432D01*
X3357372Y10826953D01*
X3370529Y10833150D01*
X3382822Y10840923D01*
X3394049Y10850219D01*
X3404006Y10860836D01*
X3412540Y10872622D01*
X3419551Y10885373D01*
X3424936Y10898886D01*
X3428542Y10913008D01*
X3430371Y10927435D01*
X3430371Y10941964D01*
X3428542Y10956391D01*
X3424936Y10970514D01*
X3419551Y10984026D01*
X3412540Y10996777D01*
X3404006Y11008563D01*
X3394049Y11019180D01*
X3382822Y11028476D01*
X3370529Y11036249D01*
X3357372Y11042446D01*
X3343503Y11046968D01*
X3329228Y11049660D01*
X3314700Y11050574D01*
X3300171Y11049660D01*
X3285896Y11046968D01*
X3272028Y11042446D01*
X3258870Y11036249D01*
X3246577Y11028476D01*
X3235350Y11019180D01*
X3225393Y11008563D01*
X3216859Y10996777D01*
X3209848Y10984026D01*
X3204464Y10970514D01*
X3200857Y10956391D01*
X3199028Y10941964D01*
X3199028Y10927435D01*
X3200857Y10913008D01*
X3204464Y10898886D01*
X3209848Y10885373D01*
X3216859Y10872622D01*
X3225393Y10860836D01*
X3235350Y10850219D01*
X3246577Y10840923D01*
X3258870Y10833150D01*
X3272028Y10826953D01*
X3285896Y10822432D01*
X3300171Y10819739D01*
G37*
G36*
X1917700Y10818825D02*
G01*
X1932228Y10819739D01*
X1946503Y10822432D01*
X1960372Y10826953D01*
X1973529Y10833150D01*
X1985822Y10840923D01*
X1997049Y10850219D01*
X2007006Y10860836D01*
X2015540Y10872622D01*
X2022551Y10885373D01*
X2027936Y10898886D01*
X2031542Y10913008D01*
X2033371Y10927435D01*
X2033371Y10941964D01*
X2031542Y10956391D01*
X2027936Y10970514D01*
X2022551Y10984026D01*
X2015540Y10996777D01*
X2007006Y11008563D01*
X1997049Y11019180D01*
X1985822Y11028476D01*
X1973529Y11036249D01*
X1960372Y11042446D01*
X1946503Y11046968D01*
X1932228Y11049660D01*
X1917700Y11050574D01*
X1903171Y11049660D01*
X1888896Y11046968D01*
X1875028Y11042446D01*
X1861870Y11036249D01*
X1849577Y11028476D01*
X1838350Y11019180D01*
X1828393Y11008563D01*
X1819859Y10996777D01*
X1812848Y10984026D01*
X1807464Y10970514D01*
X1803857Y10956391D01*
X1802028Y10941964D01*
X1802028Y10927435D01*
X1803857Y10913008D01*
X1807464Y10898886D01*
X1812848Y10885373D01*
X1819859Y10872622D01*
X1828393Y10860836D01*
X1838350Y10850219D01*
X1849577Y10840923D01*
X1861870Y10833150D01*
X1875028Y10826953D01*
X1888896Y10822432D01*
X1903171Y10819739D01*
G37*
G36*
X2171700Y10818825D02*
G01*
X2186228Y10819739D01*
X2200503Y10822432D01*
X2214372Y10826953D01*
X2227529Y10833150D01*
X2239822Y10840923D01*
X2251049Y10850219D01*
X2261006Y10860836D01*
X2269540Y10872622D01*
X2276551Y10885373D01*
X2281936Y10898886D01*
X2285542Y10913008D01*
X2287371Y10927435D01*
X2287371Y10941964D01*
X2285542Y10956391D01*
X2281936Y10970514D01*
X2276551Y10984026D01*
X2269540Y10996777D01*
X2261006Y11008563D01*
X2251049Y11019180D01*
X2239822Y11028476D01*
X2227529Y11036249D01*
X2214372Y11042446D01*
X2200503Y11046968D01*
X2186228Y11049660D01*
X2171700Y11050574D01*
X2157171Y11049660D01*
X2142896Y11046968D01*
X2129028Y11042446D01*
X2115870Y11036249D01*
X2103577Y11028476D01*
X2092350Y11019180D01*
X2082393Y11008563D01*
X2073859Y10996777D01*
X2066848Y10984026D01*
X2061464Y10970514D01*
X2057857Y10956391D01*
X2056028Y10941964D01*
X2056028Y10927435D01*
X2057857Y10913008D01*
X2061464Y10898886D01*
X2066848Y10885373D01*
X2073859Y10872622D01*
X2082393Y10860836D01*
X2092350Y10850219D01*
X2103577Y10840923D01*
X2115870Y10833150D01*
X2129028Y10826953D01*
X2142896Y10822432D01*
X2157171Y10819739D01*
G37*
G36*
X774700Y7440625D02*
G01*
X789228Y7441539D01*
X803503Y7444231D01*
X817372Y7448753D01*
X830529Y7454950D01*
X842822Y7462723D01*
X854049Y7472019D01*
X864006Y7482636D01*
X872540Y7494422D01*
X878535Y7505344D01*
X880821Y7508138D01*
X883919Y7509967D01*
X887476Y7510576D01*
X915924Y7510576D01*
X919480Y7509967D01*
X922578Y7508138D01*
X924864Y7505344D01*
X930859Y7494422D01*
X939393Y7482636D01*
X949350Y7472019D01*
X960577Y7462723D01*
X972870Y7454950D01*
X986028Y7448753D01*
X999896Y7444231D01*
X1014171Y7441539D01*
X1028700Y7440625D01*
X1043228Y7441539D01*
X1057503Y7444231D01*
X1071372Y7448753D01*
X1084529Y7454950D01*
X1096822Y7462723D01*
X1108049Y7472019D01*
X1118006Y7482636D01*
X1126540Y7494422D01*
X1133551Y7507173D01*
X1138936Y7520686D01*
X1142542Y7534808D01*
X1144371Y7549235D01*
X1144371Y7563764D01*
X1142542Y7578191D01*
X1138682Y7592923D01*
X1137970Y7596733D01*
X1138783Y7600594D01*
X1140968Y7603845D01*
X1240180Y7703108D01*
X1245514Y7710170D01*
X1249273Y7717739D01*
X1251559Y7725867D01*
X1252423Y7734757D01*
X1252423Y8434984D01*
X1253185Y8438845D01*
X1255369Y8442147D01*
X1286052Y8472830D01*
X1289354Y8475014D01*
X1293215Y8475776D01*
X3748024Y8475776D01*
X3751579Y8475167D01*
X3754678Y8473338D01*
X3756964Y8470544D01*
X3762959Y8459622D01*
X3771493Y8447836D01*
X3781450Y8437219D01*
X3792677Y8427923D01*
X3804970Y8420150D01*
X3818128Y8413953D01*
X3831996Y8409432D01*
X3846271Y8406739D01*
X3860800Y8405825D01*
X3875328Y8406739D01*
X3889603Y8409432D01*
X3903472Y8413953D01*
X3916629Y8420150D01*
X3928922Y8427923D01*
X3940098Y8437219D01*
X3950106Y8447836D01*
X3958640Y8459622D01*
X3965651Y8472373D01*
X3970985Y8485886D01*
X3974642Y8500008D01*
X3976471Y8514435D01*
X3976471Y8528964D01*
X3974642Y8543391D01*
X3970985Y8557514D01*
X3965651Y8571026D01*
X3958640Y8583777D01*
X3950106Y8595563D01*
X3940098Y8606180D01*
X3928922Y8615476D01*
X3916629Y8623249D01*
X3903472Y8629446D01*
X3889603Y8633968D01*
X3875328Y8636660D01*
X3860800Y8637574D01*
X3846271Y8636660D01*
X3831996Y8633968D01*
X3818128Y8629446D01*
X3804970Y8623249D01*
X3792677Y8615476D01*
X3781450Y8606180D01*
X3771493Y8595563D01*
X3762959Y8583777D01*
X3756964Y8572855D01*
X3754678Y8570061D01*
X3751579Y8568232D01*
X3748024Y8567623D01*
X1268222Y8567572D01*
X1259484Y8566353D01*
X1251458Y8563660D01*
X1244092Y8559546D01*
X1237183Y8553805D01*
X1172819Y8489391D01*
X1167485Y8482330D01*
X1163726Y8474760D01*
X1161440Y8466632D01*
X1160576Y8457742D01*
X1160576Y8096300D01*
X1159713Y8092236D01*
X1157325Y8088833D01*
X1153769Y8086699D01*
X1149604Y8086191D01*
X1145641Y8087359D01*
X1142441Y8090052D01*
X1140612Y8093760D01*
X1138936Y8100314D01*
X1133551Y8113826D01*
X1126540Y8126577D01*
X1118006Y8138363D01*
X1108049Y8148980D01*
X1096822Y8158276D01*
X1084529Y8166049D01*
X1071372Y8172246D01*
X1057503Y8176768D01*
X1043228Y8179460D01*
X1028700Y8180374D01*
X1014171Y8179460D01*
X999896Y8176768D01*
X986028Y8172246D01*
X972870Y8166049D01*
X960577Y8158276D01*
X949350Y8148980D01*
X939393Y8138363D01*
X930859Y8126577D01*
X923848Y8113826D01*
X918464Y8100314D01*
X914857Y8086191D01*
X913028Y8071764D01*
X913028Y8057235D01*
X914857Y8042808D01*
X918464Y8028686D01*
X923848Y8015173D01*
X930859Y8002422D01*
X939393Y7990636D01*
X949350Y7980019D01*
X960577Y7970723D01*
X972870Y7962950D01*
X986028Y7956753D01*
X999896Y7952231D01*
X1014171Y7949539D01*
X1028700Y7948625D01*
X1043228Y7949539D01*
X1057503Y7952231D01*
X1071372Y7956753D01*
X1084529Y7962950D01*
X1096822Y7970723D01*
X1108049Y7980019D01*
X1118006Y7990636D01*
X1126540Y8002422D01*
X1133551Y8015173D01*
X1138936Y8028686D01*
X1140612Y8035239D01*
X1142441Y8038947D01*
X1145641Y8041640D01*
X1149604Y8042808D01*
X1153769Y8042300D01*
X1157325Y8040166D01*
X1159713Y8036763D01*
X1160576Y8032699D01*
X1160576Y7842300D01*
X1159713Y7838236D01*
X1157325Y7834833D01*
X1153769Y7832699D01*
X1149604Y7832191D01*
X1145641Y7833359D01*
X1142441Y7836052D01*
X1140612Y7839760D01*
X1138936Y7846314D01*
X1133551Y7859826D01*
X1126540Y7872577D01*
X1118006Y7884363D01*
X1108049Y7894980D01*
X1096822Y7904276D01*
X1084529Y7912049D01*
X1071372Y7918246D01*
X1057503Y7922768D01*
X1043228Y7925460D01*
X1028700Y7926374D01*
X1014171Y7925460D01*
X999896Y7922768D01*
X986028Y7918246D01*
X972870Y7912049D01*
X960577Y7904276D01*
X949350Y7894980D01*
X939393Y7884363D01*
X930859Y7872577D01*
X923848Y7859826D01*
X918464Y7846314D01*
X914857Y7832191D01*
X913028Y7817764D01*
X913028Y7803235D01*
X914857Y7788808D01*
X918464Y7774686D01*
X923848Y7761173D01*
X930859Y7748422D01*
X939393Y7736636D01*
X949350Y7726019D01*
X960577Y7716723D01*
X972870Y7708950D01*
X986028Y7702753D01*
X999896Y7698231D01*
X1014171Y7695539D01*
X1028700Y7694625D01*
X1043228Y7695539D01*
X1057503Y7698231D01*
X1071372Y7702753D01*
X1084529Y7708950D01*
X1093571Y7714691D01*
X1097483Y7716164D01*
X1101699Y7715910D01*
X1105458Y7713980D01*
X1108100Y7710678D01*
X1109167Y7706614D01*
X1108506Y7702448D01*
X1106170Y7698892D01*
X1075893Y7668615D01*
X1072845Y7666532D01*
X1069238Y7665669D01*
X1065580Y7666126D01*
X1057503Y7668768D01*
X1043228Y7671460D01*
X1028700Y7672374D01*
X1014171Y7671460D01*
X999896Y7668768D01*
X986028Y7664246D01*
X972870Y7658049D01*
X960577Y7650276D01*
X949350Y7640980D01*
X939393Y7630363D01*
X930859Y7618577D01*
X924864Y7607706D01*
X922578Y7604861D01*
X919480Y7603032D01*
X915974Y7602423D01*
X887425Y7602423D01*
X883919Y7603032D01*
X880821Y7604861D01*
X878535Y7607706D01*
X872540Y7618577D01*
X864006Y7630363D01*
X854049Y7640980D01*
X842822Y7650276D01*
X830529Y7658049D01*
X817372Y7664246D01*
X803503Y7668768D01*
X789228Y7671460D01*
X774700Y7672374D01*
X760171Y7671460D01*
X745896Y7668768D01*
X732028Y7664246D01*
X718870Y7658049D01*
X706577Y7650276D01*
X695350Y7640980D01*
X685393Y7630363D01*
X676859Y7618577D01*
X669848Y7605826D01*
X664464Y7592314D01*
X660857Y7578191D01*
X659028Y7563764D01*
X659028Y7549235D01*
X660857Y7534808D01*
X664464Y7520686D01*
X669848Y7507173D01*
X676859Y7494422D01*
X685393Y7482636D01*
X695350Y7472019D01*
X706577Y7462723D01*
X718870Y7454950D01*
X732028Y7448753D01*
X745896Y7444231D01*
X760171Y7441539D01*
G37*
G36*
X3060700Y10818825D02*
G01*
X3075228Y10819739D01*
X3089503Y10822432D01*
X3103372Y10826953D01*
X3116529Y10833150D01*
X3128822Y10840923D01*
X3140049Y10850219D01*
X3150006Y10860836D01*
X3158540Y10872622D01*
X3165551Y10885373D01*
X3170936Y10898886D01*
X3174542Y10913008D01*
X3176371Y10927435D01*
X3176371Y10941964D01*
X3174542Y10956391D01*
X3170936Y10970514D01*
X3165551Y10984026D01*
X3158540Y10996777D01*
X3150006Y11008563D01*
X3140049Y11019180D01*
X3128822Y11028476D01*
X3116529Y11036249D01*
X3103372Y11042446D01*
X3089503Y11046968D01*
X3075228Y11049660D01*
X3060700Y11050574D01*
X3046171Y11049660D01*
X3031896Y11046968D01*
X3018028Y11042446D01*
X3004870Y11036249D01*
X2992577Y11028476D01*
X2981350Y11019180D01*
X2971393Y11008563D01*
X2962859Y10996777D01*
X2955848Y10984026D01*
X2950464Y10970514D01*
X2946857Y10956391D01*
X2945028Y10941964D01*
X2945028Y10927435D01*
X2946857Y10913008D01*
X2950464Y10898886D01*
X2955848Y10885373D01*
X2962859Y10872622D01*
X2971393Y10860836D01*
X2981350Y10850219D01*
X2992577Y10840923D01*
X3004870Y10833150D01*
X3018028Y10826953D01*
X3031896Y10822432D01*
X3046171Y10819739D01*
G37*
G36*
X1028700Y10818825D02*
G01*
X1043228Y10819739D01*
X1057503Y10822432D01*
X1071372Y10826953D01*
X1084529Y10833150D01*
X1096822Y10840923D01*
X1108049Y10850219D01*
X1118006Y10860836D01*
X1126540Y10872622D01*
X1133551Y10885373D01*
X1138936Y10898886D01*
X1142542Y10913008D01*
X1144371Y10927435D01*
X1144371Y10941964D01*
X1142542Y10956391D01*
X1138936Y10970514D01*
X1133551Y10984026D01*
X1126540Y10996777D01*
X1118006Y11008563D01*
X1108049Y11019180D01*
X1096822Y11028476D01*
X1084529Y11036249D01*
X1071372Y11042446D01*
X1057503Y11046968D01*
X1043228Y11049660D01*
X1028700Y11050574D01*
X1014171Y11049660D01*
X999896Y11046968D01*
X986028Y11042446D01*
X972870Y11036249D01*
X960577Y11028476D01*
X949350Y11019180D01*
X939393Y11008563D01*
X930859Y10996777D01*
X923848Y10984026D01*
X918464Y10970514D01*
X914857Y10956391D01*
X913028Y10941964D01*
X913028Y10927435D01*
X914857Y10913008D01*
X918464Y10898886D01*
X923848Y10885373D01*
X930859Y10872622D01*
X939393Y10860836D01*
X949350Y10850219D01*
X960577Y10840923D01*
X972870Y10833150D01*
X986028Y10826953D01*
X999896Y10822432D01*
X1014171Y10819739D01*
G37*
G36*
X774700Y10818825D02*
G01*
X789228Y10819739D01*
X803503Y10822432D01*
X817372Y10826953D01*
X830529Y10833150D01*
X842822Y10840923D01*
X854049Y10850219D01*
X864006Y10860836D01*
X872540Y10872622D01*
X879551Y10885373D01*
X884936Y10898886D01*
X888542Y10913008D01*
X890371Y10927435D01*
X890371Y10941964D01*
X888542Y10956391D01*
X884936Y10970514D01*
X879551Y10984026D01*
X872540Y10996777D01*
X864006Y11008563D01*
X854049Y11019180D01*
X842822Y11028476D01*
X830529Y11036249D01*
X817372Y11042446D01*
X803503Y11046968D01*
X789228Y11049660D01*
X774700Y11050574D01*
X760171Y11049660D01*
X745896Y11046968D01*
X732028Y11042446D01*
X718870Y11036249D01*
X706577Y11028476D01*
X695350Y11019180D01*
X685393Y11008563D01*
X676859Y10996777D01*
X669848Y10984026D01*
X664464Y10970514D01*
X660857Y10956391D01*
X659028Y10941964D01*
X659028Y10927435D01*
X660857Y10913008D01*
X664464Y10898886D01*
X669848Y10885373D01*
X676859Y10872622D01*
X685393Y10860836D01*
X695350Y10850219D01*
X706577Y10840923D01*
X718870Y10833150D01*
X732028Y10826953D01*
X745896Y10822432D01*
X760171Y10819739D01*
G37*
G36*
X3860800Y10691825D02*
G01*
X3875328Y10692739D01*
X3889603Y10695432D01*
X3903472Y10699953D01*
X3916629Y10706150D01*
X3928922Y10713923D01*
X3940098Y10723219D01*
X3950106Y10733836D01*
X3958640Y10745622D01*
X3965651Y10758373D01*
X3970985Y10771886D01*
X3974642Y10786008D01*
X3976471Y10800435D01*
X3976471Y10814964D01*
X3974642Y10829391D01*
X3970985Y10843514D01*
X3965651Y10857026D01*
X3958640Y10869777D01*
X3950106Y10881563D01*
X3940098Y10892180D01*
X3928922Y10901476D01*
X3916629Y10909249D01*
X3903472Y10915446D01*
X3889603Y10919968D01*
X3875328Y10922660D01*
X3860800Y10923574D01*
X3846271Y10922660D01*
X3831996Y10919968D01*
X3818128Y10915446D01*
X3804970Y10909249D01*
X3792677Y10901476D01*
X3781450Y10892180D01*
X3771493Y10881563D01*
X3762959Y10869777D01*
X3755948Y10857026D01*
X3750564Y10843514D01*
X3746957Y10829391D01*
X3745128Y10814964D01*
X3745128Y10800435D01*
X3746957Y10786008D01*
X3750564Y10771886D01*
X3755948Y10758373D01*
X3762959Y10745622D01*
X3771493Y10733836D01*
X3781450Y10723219D01*
X3792677Y10713923D01*
X3804970Y10706150D01*
X3818128Y10699953D01*
X3831996Y10695432D01*
X3846271Y10692739D01*
G37*
G36*
X3860800Y7643825D02*
G01*
X3875328Y7644739D01*
X3889603Y7647431D01*
X3903472Y7651953D01*
X3916629Y7658150D01*
X3928922Y7665923D01*
X3940098Y7675219D01*
X3950106Y7685836D01*
X3958640Y7697622D01*
X3965651Y7710373D01*
X3970985Y7723886D01*
X3974642Y7738008D01*
X3976471Y7752435D01*
X3976471Y7766964D01*
X3974642Y7781391D01*
X3970985Y7795514D01*
X3965651Y7809026D01*
X3958640Y7821777D01*
X3950106Y7833563D01*
X3940098Y7844180D01*
X3928922Y7853476D01*
X3916629Y7861249D01*
X3903472Y7867446D01*
X3889603Y7871968D01*
X3875328Y7874660D01*
X3860800Y7875574D01*
X3846271Y7874660D01*
X3831996Y7871968D01*
X3818128Y7867446D01*
X3804970Y7861249D01*
X3792677Y7853476D01*
X3781450Y7844180D01*
X3771493Y7833563D01*
X3762959Y7821777D01*
X3755948Y7809026D01*
X3750564Y7795514D01*
X3746957Y7781391D01*
X3745128Y7766964D01*
X3745128Y7752435D01*
X3746957Y7738008D01*
X3750564Y7723886D01*
X3755948Y7710373D01*
X3762959Y7697622D01*
X3771493Y7685836D01*
X3781450Y7675219D01*
X3792677Y7665923D01*
X3804970Y7658150D01*
X3818128Y7651953D01*
X3831996Y7647431D01*
X3846271Y7644739D01*
G37*
G36*
X3060700Y10564825D02*
G01*
X3075228Y10565739D01*
X3089503Y10568432D01*
X3103372Y10572953D01*
X3116529Y10579150D01*
X3128822Y10586923D01*
X3140049Y10596219D01*
X3150006Y10606836D01*
X3158540Y10618622D01*
X3165551Y10631373D01*
X3170936Y10644886D01*
X3174542Y10659008D01*
X3176371Y10673435D01*
X3176371Y10687964D01*
X3174542Y10702391D01*
X3170936Y10716514D01*
X3165551Y10730026D01*
X3158540Y10742777D01*
X3150006Y10754563D01*
X3140049Y10765180D01*
X3128822Y10774476D01*
X3116529Y10782249D01*
X3103372Y10788446D01*
X3089503Y10792968D01*
X3075228Y10795660D01*
X3060700Y10796574D01*
X3046171Y10795660D01*
X3031896Y10792968D01*
X3018028Y10788446D01*
X3004870Y10782249D01*
X2992577Y10774476D01*
X2981350Y10765180D01*
X2971393Y10754563D01*
X2962859Y10742777D01*
X2955848Y10730026D01*
X2950464Y10716514D01*
X2946857Y10702391D01*
X2945028Y10687964D01*
X2945028Y10673435D01*
X2946857Y10659008D01*
X2950464Y10644886D01*
X2955848Y10631373D01*
X2962859Y10618622D01*
X2971393Y10606836D01*
X2981350Y10596219D01*
X2992577Y10586923D01*
X3004870Y10579150D01*
X3018028Y10572953D01*
X3031896Y10568432D01*
X3046171Y10565739D01*
G37*
G36*
X1917700Y10564825D02*
G01*
X1932228Y10565739D01*
X1946503Y10568432D01*
X1960372Y10572953D01*
X1973529Y10579150D01*
X1985822Y10586923D01*
X1997049Y10596219D01*
X2007006Y10606836D01*
X2015540Y10618622D01*
X2022551Y10631373D01*
X2027936Y10644886D01*
X2031542Y10659008D01*
X2033371Y10673435D01*
X2033371Y10687964D01*
X2031542Y10702391D01*
X2027936Y10716514D01*
X2022551Y10730026D01*
X2015540Y10742777D01*
X2007006Y10754563D01*
X1997049Y10765180D01*
X1985822Y10774476D01*
X1973529Y10782249D01*
X1960372Y10788446D01*
X1946503Y10792968D01*
X1932228Y10795660D01*
X1917700Y10796574D01*
X1903171Y10795660D01*
X1888896Y10792968D01*
X1875028Y10788446D01*
X1861870Y10782249D01*
X1849577Y10774476D01*
X1838350Y10765180D01*
X1828393Y10754563D01*
X1819859Y10742777D01*
X1812848Y10730026D01*
X1807464Y10716514D01*
X1803857Y10702391D01*
X1802028Y10687964D01*
X1802028Y10673435D01*
X1803857Y10659008D01*
X1807464Y10644886D01*
X1812848Y10631373D01*
X1819859Y10618622D01*
X1828393Y10606836D01*
X1838350Y10596219D01*
X1849577Y10586923D01*
X1861870Y10579150D01*
X1875028Y10572953D01*
X1888896Y10568432D01*
X1903171Y10565739D01*
G37*
G36*
X774700Y7694625D02*
G01*
X789228Y7695539D01*
X803503Y7698231D01*
X817372Y7702753D01*
X830529Y7708950D01*
X842822Y7716723D01*
X854049Y7726019D01*
X864006Y7736636D01*
X872540Y7748422D01*
X879551Y7761173D01*
X884936Y7774686D01*
X888542Y7788808D01*
X890371Y7803235D01*
X890371Y7817764D01*
X888542Y7832191D01*
X884936Y7846314D01*
X879551Y7859826D01*
X872540Y7872577D01*
X864006Y7884363D01*
X854049Y7894980D01*
X842822Y7904276D01*
X830529Y7912049D01*
X817372Y7918246D01*
X803503Y7922768D01*
X789228Y7925460D01*
X774700Y7926374D01*
X760171Y7925460D01*
X745896Y7922768D01*
X732028Y7918246D01*
X718870Y7912049D01*
X706577Y7904276D01*
X695350Y7894980D01*
X685393Y7884363D01*
X676859Y7872577D01*
X669848Y7859826D01*
X664464Y7846314D01*
X660857Y7832191D01*
X659028Y7817764D01*
X659028Y7803235D01*
X660857Y7788808D01*
X664464Y7774686D01*
X669848Y7761173D01*
X676859Y7748422D01*
X685393Y7736636D01*
X695350Y7726019D01*
X706577Y7716723D01*
X718870Y7708950D01*
X732028Y7702753D01*
X745896Y7698231D01*
X760171Y7695539D01*
G37*
G36*
X1917700Y7694625D02*
G01*
X1932228Y7695539D01*
X1946503Y7698231D01*
X1960372Y7702753D01*
X1973529Y7708950D01*
X1985822Y7716723D01*
X1997049Y7726019D01*
X2007006Y7736636D01*
X2015540Y7748422D01*
X2022551Y7761173D01*
X2027936Y7774686D01*
X2031542Y7788808D01*
X2033371Y7803235D01*
X2033371Y7817764D01*
X2031542Y7832191D01*
X2027936Y7846314D01*
X2022551Y7859826D01*
X2015540Y7872577D01*
X2007006Y7884363D01*
X1997049Y7894980D01*
X1985822Y7904276D01*
X1973529Y7912049D01*
X1960372Y7918246D01*
X1946503Y7922768D01*
X1932228Y7925460D01*
X1917700Y7926374D01*
X1903171Y7925460D01*
X1888896Y7922768D01*
X1875028Y7918246D01*
X1861870Y7912049D01*
X1849577Y7904276D01*
X1838350Y7894980D01*
X1828393Y7884363D01*
X1819859Y7872577D01*
X1812848Y7859826D01*
X1807464Y7846314D01*
X1803857Y7832191D01*
X1802028Y7817764D01*
X1802028Y7803235D01*
X1803857Y7788808D01*
X1807464Y7774686D01*
X1812848Y7761173D01*
X1819859Y7748422D01*
X1828393Y7736636D01*
X1838350Y7726019D01*
X1849577Y7716723D01*
X1861870Y7708950D01*
X1875028Y7702753D01*
X1888896Y7698231D01*
X1903171Y7695539D01*
G37*
G36*
X3314700Y7694625D02*
G01*
X3329228Y7695539D01*
X3343503Y7698231D01*
X3357372Y7702753D01*
X3370529Y7708950D01*
X3382822Y7716723D01*
X3394049Y7726019D01*
X3404006Y7736636D01*
X3412540Y7748422D01*
X3419551Y7761173D01*
X3424936Y7774686D01*
X3428542Y7788808D01*
X3430371Y7803235D01*
X3430371Y7817764D01*
X3428542Y7832191D01*
X3424936Y7846314D01*
X3419551Y7859826D01*
X3412540Y7872577D01*
X3404006Y7884363D01*
X3394049Y7894980D01*
X3382822Y7904276D01*
X3370529Y7912049D01*
X3357372Y7918246D01*
X3343503Y7922768D01*
X3329228Y7925460D01*
X3314700Y7926374D01*
X3300171Y7925460D01*
X3285896Y7922768D01*
X3272028Y7918246D01*
X3258870Y7912049D01*
X3246577Y7904276D01*
X3235350Y7894980D01*
X3225393Y7884363D01*
X3216859Y7872577D01*
X3209848Y7859826D01*
X3204464Y7846314D01*
X3200857Y7832191D01*
X3199028Y7817764D01*
X3199028Y7803235D01*
X3200857Y7788808D01*
X3204464Y7774686D01*
X3209848Y7761173D01*
X3216859Y7748422D01*
X3225393Y7736636D01*
X3235350Y7726019D01*
X3246577Y7716723D01*
X3258870Y7708950D01*
X3272028Y7702753D01*
X3285896Y7698231D01*
X3300171Y7695539D01*
G37*
G36*
X3060700Y7694625D02*
G01*
X3075228Y7695539D01*
X3089503Y7698231D01*
X3103372Y7702753D01*
X3116529Y7708950D01*
X3128822Y7716723D01*
X3140049Y7726019D01*
X3150006Y7736636D01*
X3158540Y7748422D01*
X3165551Y7761173D01*
X3170936Y7774686D01*
X3174542Y7788808D01*
X3176371Y7803235D01*
X3176371Y7817764D01*
X3174542Y7832191D01*
X3170936Y7846314D01*
X3165551Y7859826D01*
X3158540Y7872577D01*
X3150006Y7884363D01*
X3140049Y7894980D01*
X3128822Y7904276D01*
X3116529Y7912049D01*
X3103372Y7918246D01*
X3089503Y7922768D01*
X3075228Y7925460D01*
X3060700Y7926374D01*
X3046171Y7925460D01*
X3031896Y7922768D01*
X3018028Y7918246D01*
X3004870Y7912049D01*
X2992577Y7904276D01*
X2981350Y7894980D01*
X2971393Y7884363D01*
X2962859Y7872577D01*
X2955848Y7859826D01*
X2950464Y7846314D01*
X2946857Y7832191D01*
X2945028Y7817764D01*
X2945028Y7803235D01*
X2946857Y7788808D01*
X2950464Y7774686D01*
X2955848Y7761173D01*
X2962859Y7748422D01*
X2971393Y7736636D01*
X2981350Y7726019D01*
X2992577Y7716723D01*
X3004870Y7708950D01*
X3018028Y7702753D01*
X3031896Y7698231D01*
X3046171Y7695539D01*
G37*
G36*
X3314700Y10564825D02*
G01*
X3329228Y10565739D01*
X3343503Y10568432D01*
X3357372Y10572953D01*
X3370529Y10579150D01*
X3382822Y10586923D01*
X3394049Y10596219D01*
X3404006Y10606836D01*
X3412540Y10618622D01*
X3419551Y10631373D01*
X3424936Y10644886D01*
X3428542Y10659008D01*
X3430371Y10673435D01*
X3430371Y10687964D01*
X3428542Y10702391D01*
X3424936Y10716514D01*
X3419551Y10730026D01*
X3412540Y10742777D01*
X3404006Y10754563D01*
X3394049Y10765180D01*
X3382822Y10774476D01*
X3370529Y10782249D01*
X3357372Y10788446D01*
X3343503Y10792968D01*
X3329228Y10795660D01*
X3314700Y10796574D01*
X3300171Y10795660D01*
X3285896Y10792968D01*
X3272028Y10788446D01*
X3258870Y10782249D01*
X3246577Y10774476D01*
X3235350Y10765180D01*
X3225393Y10754563D01*
X3216859Y10742777D01*
X3209848Y10730026D01*
X3204464Y10716514D01*
X3200857Y10702391D01*
X3199028Y10687964D01*
X3199028Y10673435D01*
X3200857Y10659008D01*
X3204464Y10644886D01*
X3209848Y10631373D01*
X3216859Y10618622D01*
X3225393Y10606836D01*
X3235350Y10596219D01*
X3246577Y10586923D01*
X3258870Y10579150D01*
X3272028Y10572953D01*
X3285896Y10568432D01*
X3300171Y10565739D01*
G37*
G36*
X1028700Y10564825D02*
G01*
X1043228Y10565739D01*
X1057503Y10568432D01*
X1071372Y10572953D01*
X1084529Y10579150D01*
X1096822Y10586923D01*
X1108049Y10596219D01*
X1118006Y10606836D01*
X1126540Y10618622D01*
X1133551Y10631373D01*
X1138936Y10644886D01*
X1142542Y10659008D01*
X1144371Y10673435D01*
X1144371Y10687964D01*
X1142542Y10702391D01*
X1138936Y10716514D01*
X1133551Y10730026D01*
X1126540Y10742777D01*
X1118006Y10754563D01*
X1108049Y10765180D01*
X1096822Y10774476D01*
X1084529Y10782249D01*
X1071372Y10788446D01*
X1057503Y10792968D01*
X1043228Y10795660D01*
X1028700Y10796574D01*
X1014171Y10795660D01*
X999896Y10792968D01*
X986028Y10788446D01*
X972870Y10782249D01*
X960577Y10774476D01*
X949350Y10765180D01*
X939393Y10754563D01*
X930859Y10742777D01*
X923848Y10730026D01*
X918464Y10716514D01*
X914857Y10702391D01*
X913028Y10687964D01*
X913028Y10673435D01*
X914857Y10659008D01*
X918464Y10644886D01*
X923848Y10631373D01*
X930859Y10618622D01*
X939393Y10606836D01*
X949350Y10596219D01*
X960577Y10586923D01*
X972870Y10579150D01*
X986028Y10572953D01*
X999896Y10568432D01*
X1014171Y10565739D01*
G37*
G36*
X2171700Y10564825D02*
G01*
X2186228Y10565739D01*
X2200503Y10568432D01*
X2214372Y10572953D01*
X2227529Y10579150D01*
X2239822Y10586923D01*
X2251049Y10596219D01*
X2261006Y10606836D01*
X2269540Y10618622D01*
X2276551Y10631373D01*
X2281936Y10644886D01*
X2285542Y10659008D01*
X2287371Y10673435D01*
X2287371Y10687964D01*
X2285542Y10702391D01*
X2281936Y10716514D01*
X2276551Y10730026D01*
X2269540Y10742777D01*
X2261006Y10754563D01*
X2251049Y10765180D01*
X2239822Y10774476D01*
X2227529Y10782249D01*
X2214372Y10788446D01*
X2200503Y10792968D01*
X2186228Y10795660D01*
X2171700Y10796574D01*
X2157171Y10795660D01*
X2142896Y10792968D01*
X2129028Y10788446D01*
X2115870Y10782249D01*
X2103577Y10774476D01*
X2092350Y10765180D01*
X2082393Y10754563D01*
X2073859Y10742777D01*
X2066848Y10730026D01*
X2061464Y10716514D01*
X2057857Y10702391D01*
X2056028Y10687964D01*
X2056028Y10673435D01*
X2057857Y10659008D01*
X2061464Y10644886D01*
X2066848Y10631373D01*
X2073859Y10618622D01*
X2082393Y10606836D01*
X2092350Y10596219D01*
X2103577Y10586923D01*
X2115870Y10579150D01*
X2129028Y10572953D01*
X2142896Y10568432D01*
X2157171Y10565739D01*
G37*
G36*
X774700Y10564825D02*
G01*
X789228Y10565739D01*
X803503Y10568432D01*
X817372Y10572953D01*
X830529Y10579150D01*
X842822Y10586923D01*
X854049Y10596219D01*
X864006Y10606836D01*
X872540Y10618622D01*
X879551Y10631373D01*
X884936Y10644886D01*
X888542Y10659008D01*
X890371Y10673435D01*
X890371Y10687964D01*
X888542Y10702391D01*
X884936Y10716514D01*
X879551Y10730026D01*
X872540Y10742777D01*
X864006Y10754563D01*
X854049Y10765180D01*
X842822Y10774476D01*
X830529Y10782249D01*
X817372Y10788446D01*
X803503Y10792968D01*
X789228Y10795660D01*
X774700Y10796574D01*
X760171Y10795660D01*
X745896Y10792968D01*
X732028Y10788446D01*
X718870Y10782249D01*
X706577Y10774476D01*
X695350Y10765180D01*
X685393Y10754563D01*
X676859Y10742777D01*
X669848Y10730026D01*
X664464Y10716514D01*
X660857Y10702391D01*
X659028Y10687964D01*
X659028Y10673435D01*
X660857Y10659008D01*
X664464Y10644886D01*
X669848Y10631373D01*
X676859Y10618622D01*
X685393Y10606836D01*
X695350Y10596219D01*
X706577Y10586923D01*
X718870Y10579150D01*
X732028Y10572953D01*
X745896Y10568432D01*
X760171Y10565739D01*
G37*
G36*
X3860800Y7897825D02*
G01*
X3875328Y7898739D01*
X3889603Y7901431D01*
X3903472Y7905953D01*
X3916629Y7912150D01*
X3928922Y7919923D01*
X3940098Y7929219D01*
X3950106Y7939836D01*
X3958640Y7951622D01*
X3965651Y7964373D01*
X3970985Y7977886D01*
X3974642Y7992008D01*
X3976471Y8006435D01*
X3976471Y8020964D01*
X3974642Y8035391D01*
X3970985Y8049514D01*
X3965651Y8063026D01*
X3958640Y8075777D01*
X3950106Y8087563D01*
X3940098Y8098180D01*
X3928922Y8107476D01*
X3916629Y8115249D01*
X3903472Y8121446D01*
X3889603Y8125968D01*
X3875328Y8128660D01*
X3860800Y8129574D01*
X3846271Y8128660D01*
X3831996Y8125968D01*
X3818128Y8121446D01*
X3804970Y8115249D01*
X3792677Y8107476D01*
X3781450Y8098180D01*
X3771493Y8087563D01*
X3762959Y8075777D01*
X3755948Y8063026D01*
X3750564Y8049514D01*
X3746957Y8035391D01*
X3745128Y8020964D01*
X3745128Y8006435D01*
X3746957Y7992008D01*
X3750564Y7977886D01*
X3755948Y7964373D01*
X3762959Y7951622D01*
X3771493Y7939836D01*
X3781450Y7929219D01*
X3792677Y7919923D01*
X3804970Y7912150D01*
X3818128Y7905953D01*
X3831996Y7901431D01*
X3846271Y7898739D01*
G37*
G36*
X774700Y7948625D02*
G01*
X789228Y7949539D01*
X803503Y7952231D01*
X817372Y7956753D01*
X830529Y7962950D01*
X842822Y7970723D01*
X854049Y7980019D01*
X864006Y7990636D01*
X872540Y8002422D01*
X879551Y8015173D01*
X884936Y8028686D01*
X888542Y8042808D01*
X890371Y8057235D01*
X890371Y8071764D01*
X888542Y8086191D01*
X884936Y8100314D01*
X879551Y8113826D01*
X872540Y8126577D01*
X864006Y8138363D01*
X854049Y8148980D01*
X842822Y8158276D01*
X830529Y8166049D01*
X817372Y8172246D01*
X803503Y8176768D01*
X789228Y8179460D01*
X774700Y8180374D01*
X760171Y8179460D01*
X745896Y8176768D01*
X732028Y8172246D01*
X718870Y8166049D01*
X706577Y8158276D01*
X695350Y8148980D01*
X685393Y8138363D01*
X676859Y8126577D01*
X669848Y8113826D01*
X664464Y8100314D01*
X660857Y8086191D01*
X659028Y8071764D01*
X659028Y8057235D01*
X660857Y8042808D01*
X664464Y8028686D01*
X669848Y8015173D01*
X676859Y8002422D01*
X685393Y7990636D01*
X695350Y7980019D01*
X706577Y7970723D01*
X718870Y7962950D01*
X732028Y7956753D01*
X745896Y7952231D01*
X760171Y7949539D01*
G37*
G36*
X2171700Y7948625D02*
G01*
X2186228Y7949539D01*
X2200503Y7952231D01*
X2214372Y7956753D01*
X2227529Y7962950D01*
X2239822Y7970723D01*
X2251049Y7980019D01*
X2261006Y7990636D01*
X2269540Y8002422D01*
X2276551Y8015173D01*
X2281936Y8028686D01*
X2285542Y8042808D01*
X2287371Y8057235D01*
X2287371Y8071764D01*
X2285542Y8086191D01*
X2281936Y8100314D01*
X2276551Y8113826D01*
X2269540Y8126577D01*
X2261006Y8138363D01*
X2251049Y8148980D01*
X2239822Y8158276D01*
X2227529Y8166049D01*
X2214372Y8172246D01*
X2200503Y8176768D01*
X2186228Y8179460D01*
X2171700Y8180374D01*
X2157171Y8179460D01*
X2142896Y8176768D01*
X2129028Y8172246D01*
X2115870Y8166049D01*
X2103577Y8158276D01*
X2092350Y8148980D01*
X2082393Y8138363D01*
X2073859Y8126577D01*
X2066848Y8113826D01*
X2061464Y8100314D01*
X2057857Y8086191D01*
X2056028Y8071764D01*
X2056028Y8057235D01*
X2057857Y8042808D01*
X2061464Y8028686D01*
X2066848Y8015173D01*
X2073859Y8002422D01*
X2082393Y7990636D01*
X2092350Y7980019D01*
X2103577Y7970723D01*
X2115870Y7962950D01*
X2129028Y7956753D01*
X2142896Y7952231D01*
X2157171Y7949539D01*
G37*
G36*
X3060700Y7948625D02*
G01*
X3075228Y7949539D01*
X3089503Y7952231D01*
X3103372Y7956753D01*
X3116529Y7962950D01*
X3128822Y7970723D01*
X3140049Y7980019D01*
X3150006Y7990636D01*
X3158540Y8002422D01*
X3165551Y8015173D01*
X3170936Y8028686D01*
X3174542Y8042808D01*
X3176371Y8057235D01*
X3176371Y8071764D01*
X3174542Y8086191D01*
X3170936Y8100314D01*
X3165551Y8113826D01*
X3158540Y8126577D01*
X3150006Y8138363D01*
X3140049Y8148980D01*
X3128822Y8158276D01*
X3116529Y8166049D01*
X3103372Y8172246D01*
X3089503Y8176768D01*
X3075228Y8179460D01*
X3060700Y8180374D01*
X3046171Y8179460D01*
X3031896Y8176768D01*
X3018028Y8172246D01*
X3004870Y8166049D01*
X2992577Y8158276D01*
X2981350Y8148980D01*
X2971393Y8138363D01*
X2962859Y8126577D01*
X2955848Y8113826D01*
X2950464Y8100314D01*
X2946857Y8086191D01*
X2945028Y8071764D01*
X2945028Y8057235D01*
X2946857Y8042808D01*
X2950464Y8028686D01*
X2955848Y8015173D01*
X2962859Y8002422D01*
X2971393Y7990636D01*
X2981350Y7980019D01*
X2992577Y7970723D01*
X3004870Y7962950D01*
X3018028Y7956753D01*
X3031896Y7952231D01*
X3046171Y7949539D01*
G37*
G36*
X1917700Y7948625D02*
G01*
X1932228Y7949539D01*
X1946503Y7952231D01*
X1960372Y7956753D01*
X1973529Y7962950D01*
X1985822Y7970723D01*
X1997049Y7980019D01*
X2007006Y7990636D01*
X2015540Y8002422D01*
X2022551Y8015173D01*
X2027936Y8028686D01*
X2031542Y8042808D01*
X2033371Y8057235D01*
X2033371Y8071764D01*
X2031542Y8086191D01*
X2027936Y8100314D01*
X2022551Y8113826D01*
X2015540Y8126577D01*
X2007006Y8138363D01*
X1997049Y8148980D01*
X1985822Y8158276D01*
X1973529Y8166049D01*
X1960372Y8172246D01*
X1946503Y8176768D01*
X1932228Y8179460D01*
X1917700Y8180374D01*
X1903171Y8179460D01*
X1888896Y8176768D01*
X1875028Y8172246D01*
X1861870Y8166049D01*
X1849577Y8158276D01*
X1838350Y8148980D01*
X1828393Y8138363D01*
X1819859Y8126577D01*
X1812848Y8113826D01*
X1807464Y8100314D01*
X1803857Y8086191D01*
X1802028Y8071764D01*
X1802028Y8057235D01*
X1803857Y8042808D01*
X1807464Y8028686D01*
X1812848Y8015173D01*
X1819859Y8002422D01*
X1828393Y7990636D01*
X1838350Y7980019D01*
X1849577Y7970723D01*
X1861870Y7962950D01*
X1875028Y7956753D01*
X1888896Y7952231D01*
X1903171Y7949539D01*
G37*
G36*
X3314700Y7948625D02*
G01*
X3329228Y7949539D01*
X3343503Y7952231D01*
X3357372Y7956753D01*
X3370529Y7962950D01*
X3382822Y7970723D01*
X3394049Y7980019D01*
X3404006Y7990636D01*
X3412540Y8002422D01*
X3419551Y8015173D01*
X3424936Y8028686D01*
X3428542Y8042808D01*
X3430371Y8057235D01*
X3430371Y8071764D01*
X3428542Y8086191D01*
X3424936Y8100314D01*
X3419551Y8113826D01*
X3412540Y8126577D01*
X3404006Y8138363D01*
X3394049Y8148980D01*
X3382822Y8158276D01*
X3370529Y8166049D01*
X3357372Y8172246D01*
X3343503Y8176768D01*
X3329228Y8179460D01*
X3314700Y8180374D01*
X3300171Y8179460D01*
X3285896Y8176768D01*
X3272028Y8172246D01*
X3258870Y8166049D01*
X3246577Y8158276D01*
X3235350Y8148980D01*
X3225393Y8138363D01*
X3216859Y8126577D01*
X3209848Y8113826D01*
X3204464Y8100314D01*
X3200857Y8086191D01*
X3199028Y8071764D01*
X3199028Y8057235D01*
X3200857Y8042808D01*
X3204464Y8028686D01*
X3209848Y8015173D01*
X3216859Y8002422D01*
X3225393Y7990636D01*
X3235350Y7980019D01*
X3246577Y7970723D01*
X3258870Y7962950D01*
X3272028Y7956753D01*
X3285896Y7952231D01*
X3300171Y7949539D01*
G37*
G36*
X3860800Y10437825D02*
G01*
X3875328Y10438739D01*
X3889603Y10441432D01*
X3903472Y10445953D01*
X3916629Y10452150D01*
X3928922Y10459923D01*
X3940098Y10469219D01*
X3950106Y10479836D01*
X3958640Y10491622D01*
X3965651Y10504373D01*
X3970985Y10517886D01*
X3974642Y10532008D01*
X3976471Y10546435D01*
X3976471Y10560964D01*
X3974642Y10575391D01*
X3970985Y10589514D01*
X3965651Y10603026D01*
X3958640Y10615777D01*
X3950106Y10627563D01*
X3940098Y10638180D01*
X3928922Y10647476D01*
X3916629Y10655249D01*
X3903472Y10661446D01*
X3889603Y10665968D01*
X3875328Y10668660D01*
X3860800Y10669574D01*
X3846271Y10668660D01*
X3831996Y10665968D01*
X3818128Y10661446D01*
X3804970Y10655249D01*
X3792677Y10647476D01*
X3781450Y10638180D01*
X3771493Y10627563D01*
X3762959Y10615777D01*
X3755948Y10603026D01*
X3750564Y10589514D01*
X3746957Y10575391D01*
X3745128Y10560964D01*
X3745128Y10546435D01*
X3746957Y10532008D01*
X3750564Y10517886D01*
X3755948Y10504373D01*
X3762959Y10491622D01*
X3771493Y10479836D01*
X3781450Y10469219D01*
X3792677Y10459923D01*
X3804970Y10452150D01*
X3818128Y10445953D01*
X3831996Y10441432D01*
X3846271Y10438739D01*
G37*
G36*
X1917700Y10056825D02*
G01*
X1932228Y10057739D01*
X1946503Y10060432D01*
X1960372Y10064953D01*
X1973529Y10071150D01*
X1985822Y10078923D01*
X1997049Y10088219D01*
X2007006Y10098836D01*
X2015540Y10110622D01*
X2022551Y10123373D01*
X2027936Y10136886D01*
X2031542Y10151008D01*
X2033371Y10165435D01*
X2033371Y10179964D01*
X2031542Y10194391D01*
X2027936Y10208514D01*
X2022551Y10222026D01*
X2015540Y10234777D01*
X2007006Y10246563D01*
X1997049Y10257180D01*
X1985822Y10266476D01*
X1973529Y10274249D01*
X1960372Y10280446D01*
X1946503Y10284968D01*
X1932228Y10287660D01*
X1917700Y10288574D01*
X1903171Y10287660D01*
X1888896Y10284968D01*
X1875028Y10280446D01*
X1861870Y10274249D01*
X1849577Y10266476D01*
X1838350Y10257180D01*
X1828393Y10246563D01*
X1819859Y10234777D01*
X1812848Y10222026D01*
X1807464Y10208514D01*
X1803857Y10194391D01*
X1802028Y10179964D01*
X1802028Y10165435D01*
X1803857Y10151008D01*
X1807464Y10136886D01*
X1812848Y10123373D01*
X1819859Y10110622D01*
X1828393Y10098836D01*
X1838350Y10088219D01*
X1849577Y10078923D01*
X1861870Y10071150D01*
X1875028Y10064953D01*
X1888896Y10060432D01*
X1903171Y10057739D01*
G37*
G36*
X3860800Y8151825D02*
G01*
X3875328Y8152739D01*
X3889603Y8155431D01*
X3903472Y8159953D01*
X3916629Y8166150D01*
X3928922Y8173923D01*
X3940098Y8183219D01*
X3950106Y8193836D01*
X3958640Y8205622D01*
X3965651Y8218373D01*
X3970985Y8231886D01*
X3974642Y8246008D01*
X3976471Y8260435D01*
X3976471Y8274964D01*
X3974642Y8289391D01*
X3970985Y8303514D01*
X3965651Y8317026D01*
X3958640Y8329777D01*
X3950106Y8341563D01*
X3940098Y8352180D01*
X3928922Y8361476D01*
X3916629Y8369249D01*
X3903472Y8375446D01*
X3889603Y8379968D01*
X3875328Y8382660D01*
X3860800Y8383574D01*
X3846271Y8382660D01*
X3831996Y8379968D01*
X3818128Y8375446D01*
X3804970Y8369249D01*
X3792677Y8361476D01*
X3781450Y8352180D01*
X3771493Y8341563D01*
X3762959Y8329777D01*
X3755948Y8317026D01*
X3750564Y8303514D01*
X3746957Y8289391D01*
X3745128Y8274964D01*
X3745128Y8260435D01*
X3746957Y8246008D01*
X3750564Y8231886D01*
X3755948Y8218373D01*
X3762959Y8205622D01*
X3771493Y8193836D01*
X3781450Y8183219D01*
X3792677Y8173923D01*
X3804970Y8166150D01*
X3818128Y8159953D01*
X3831996Y8155431D01*
X3846271Y8152739D01*
G37*
G36*
X3860800Y5541111D02*
G01*
X3875989Y5542026D01*
X3890924Y5544769D01*
X3905453Y5549290D01*
X3919321Y5555538D01*
X3932326Y5563412D01*
X3944264Y5572810D01*
X3955034Y5583529D01*
X3964381Y5595518D01*
X3972255Y5608523D01*
X3978503Y5622391D01*
X3983024Y5636869D01*
X3985768Y5651855D01*
X3986682Y5666994D01*
X3985768Y5682183D01*
X3983024Y5697169D01*
X3978503Y5711647D01*
X3972255Y5725515D01*
X3964381Y5738520D01*
X3955034Y5750509D01*
X3944264Y5761228D01*
X3932326Y5770626D01*
X3919321Y5778500D01*
X3905453Y5784748D01*
X3890924Y5789269D01*
X3875989Y5792012D01*
X3860800Y5792927D01*
X3845610Y5792012D01*
X3830675Y5789269D01*
X3816146Y5784748D01*
X3802278Y5778500D01*
X3789273Y5770626D01*
X3777335Y5761228D01*
X3766565Y5750509D01*
X3757218Y5738520D01*
X3749344Y5725515D01*
X3743096Y5711647D01*
X3738575Y5697169D01*
X3735832Y5682183D01*
X3734917Y5666994D01*
X3735832Y5651855D01*
X3738575Y5636869D01*
X3743096Y5622391D01*
X3749344Y5608523D01*
X3757218Y5595518D01*
X3766565Y5583529D01*
X3777335Y5572810D01*
X3789273Y5563412D01*
X3802278Y5555538D01*
X3816146Y5549290D01*
X3830675Y5544769D01*
X3845610Y5542026D01*
G37*
G36*
X3860800Y8659825D02*
G01*
X3875328Y8660739D01*
X3889603Y8663432D01*
X3903472Y8667953D01*
X3916629Y8674150D01*
X3928922Y8681923D01*
X3940098Y8691219D01*
X3950106Y8701836D01*
X3958640Y8713622D01*
X3965651Y8726373D01*
X3970985Y8739886D01*
X3974642Y8754008D01*
X3976471Y8768435D01*
X3976471Y8782964D01*
X3974642Y8797391D01*
X3970985Y8811514D01*
X3965651Y8825026D01*
X3958640Y8837777D01*
X3950106Y8849563D01*
X3940098Y8860180D01*
X3928922Y8869476D01*
X3916629Y8877249D01*
X3903472Y8883446D01*
X3889603Y8887968D01*
X3875328Y8890660D01*
X3860800Y8891574D01*
X3846271Y8890660D01*
X3831996Y8887968D01*
X3818128Y8883446D01*
X3804970Y8877249D01*
X3792677Y8869476D01*
X3781450Y8860180D01*
X3771493Y8849563D01*
X3762959Y8837777D01*
X3756964Y8826855D01*
X3754678Y8824061D01*
X3751579Y8822232D01*
X3748024Y8821623D01*
X1280515Y8821623D01*
X1276654Y8822385D01*
X1273352Y8824569D01*
X1255369Y8842552D01*
X1253185Y8845854D01*
X1252423Y8849715D01*
X1252372Y10250678D01*
X1251153Y10259415D01*
X1248460Y10267442D01*
X1244346Y10274858D01*
X1238605Y10281716D01*
X1140968Y10379405D01*
X1138783Y10382656D01*
X1137970Y10386466D01*
X1142542Y10405008D01*
X1144371Y10419435D01*
X1144371Y10433964D01*
X1142542Y10448391D01*
X1138936Y10462514D01*
X1133551Y10476026D01*
X1126540Y10488777D01*
X1118006Y10500563D01*
X1108049Y10511180D01*
X1096822Y10520476D01*
X1084529Y10528249D01*
X1071372Y10534446D01*
X1057503Y10538968D01*
X1043228Y10541660D01*
X1028700Y10542574D01*
X1014171Y10541660D01*
X999896Y10538968D01*
X986028Y10534446D01*
X972870Y10528249D01*
X960577Y10520476D01*
X949350Y10511180D01*
X939393Y10500563D01*
X930859Y10488777D01*
X924864Y10477906D01*
X922578Y10475061D01*
X919480Y10473232D01*
X915974Y10472623D01*
X887425Y10472623D01*
X883919Y10473232D01*
X880821Y10475061D01*
X878535Y10477906D01*
X872540Y10488777D01*
X864006Y10500563D01*
X854049Y10511180D01*
X842822Y10520476D01*
X830529Y10528249D01*
X817372Y10534446D01*
X803503Y10538968D01*
X789228Y10541660D01*
X774700Y10542574D01*
X760171Y10541660D01*
X745896Y10538968D01*
X732028Y10534446D01*
X718870Y10528249D01*
X706577Y10520476D01*
X695350Y10511180D01*
X685393Y10500563D01*
X676859Y10488777D01*
X669848Y10476026D01*
X664464Y10462514D01*
X660857Y10448391D01*
X659028Y10433964D01*
X659028Y10419435D01*
X660857Y10405008D01*
X664464Y10390886D01*
X669848Y10377373D01*
X676859Y10364622D01*
X685393Y10352836D01*
X695350Y10342219D01*
X706577Y10332923D01*
X718870Y10325150D01*
X732028Y10318953D01*
X745896Y10314432D01*
X760171Y10311739D01*
X774700Y10310825D01*
X789228Y10311739D01*
X803503Y10314432D01*
X817372Y10318953D01*
X830529Y10325150D01*
X842822Y10332923D01*
X854049Y10342219D01*
X864006Y10352836D01*
X872540Y10364622D01*
X878535Y10375544D01*
X880821Y10378338D01*
X883919Y10380167D01*
X887476Y10380776D01*
X915924Y10380776D01*
X919480Y10380167D01*
X922578Y10378338D01*
X924864Y10375544D01*
X930859Y10364622D01*
X939393Y10352836D01*
X949350Y10342219D01*
X960577Y10332923D01*
X972870Y10325150D01*
X986028Y10318953D01*
X999896Y10314432D01*
X1014171Y10311739D01*
X1028700Y10310825D01*
X1043228Y10311739D01*
X1057503Y10314432D01*
X1065580Y10317073D01*
X1069238Y10317530D01*
X1072845Y10316667D01*
X1075893Y10314584D01*
X1106271Y10284256D01*
X1108557Y10280700D01*
X1109218Y10276586D01*
X1108151Y10272471D01*
X1105509Y10269220D01*
X1101750Y10267289D01*
X1097584Y10267035D01*
X1093622Y10268508D01*
X1084529Y10274249D01*
X1071372Y10280446D01*
X1057503Y10284968D01*
X1043228Y10287660D01*
X1028700Y10288574D01*
X1014171Y10287660D01*
X999896Y10284968D01*
X986028Y10280446D01*
X972870Y10274249D01*
X960577Y10266476D01*
X949350Y10257180D01*
X939393Y10246563D01*
X930859Y10234777D01*
X923848Y10222026D01*
X918464Y10208514D01*
X914857Y10194391D01*
X913028Y10179964D01*
X913028Y10165435D01*
X914857Y10151008D01*
X918464Y10136886D01*
X923848Y10123373D01*
X930859Y10110622D01*
X939393Y10098836D01*
X949350Y10088219D01*
X960577Y10078923D01*
X972870Y10071150D01*
X986028Y10064953D01*
X999896Y10060432D01*
X1014171Y10057739D01*
X1028700Y10056825D01*
X1043228Y10057739D01*
X1057503Y10060432D01*
X1071372Y10064953D01*
X1084529Y10071150D01*
X1096822Y10078923D01*
X1108049Y10088219D01*
X1118006Y10098836D01*
X1126540Y10110622D01*
X1133551Y10123373D01*
X1138936Y10136886D01*
X1140612Y10143439D01*
X1142441Y10147147D01*
X1145641Y10149840D01*
X1149604Y10151008D01*
X1153769Y10150500D01*
X1157325Y10148366D01*
X1159713Y10144963D01*
X1160576Y10140899D01*
X1160576Y9950500D01*
X1159713Y9946436D01*
X1157325Y9943033D01*
X1153769Y9940899D01*
X1149604Y9940391D01*
X1145641Y9941560D01*
X1142441Y9944252D01*
X1140612Y9947960D01*
X1138936Y9954514D01*
X1133551Y9968026D01*
X1126540Y9980777D01*
X1118006Y9992563D01*
X1108049Y10003180D01*
X1096822Y10012476D01*
X1084529Y10020249D01*
X1071372Y10026446D01*
X1057503Y10030968D01*
X1043228Y10033660D01*
X1041400Y10033812D01*
X1041400Y9931400D01*
X1150416Y9931400D01*
X1154328Y9930638D01*
X1157630Y9928402D01*
X1159814Y9925151D01*
X1160576Y9921240D01*
X1160576Y9916160D01*
X1159814Y9912248D01*
X1157630Y9908997D01*
X1154328Y9906762D01*
X1150416Y9906000D01*
X1041400Y9906000D01*
X1041400Y9803587D01*
X1043228Y9803739D01*
X1057503Y9806432D01*
X1071372Y9810953D01*
X1084529Y9817150D01*
X1096822Y9824923D01*
X1108049Y9834219D01*
X1118006Y9844836D01*
X1126540Y9856622D01*
X1133551Y9869373D01*
X1138936Y9882886D01*
X1140612Y9889439D01*
X1142441Y9893147D01*
X1145641Y9895840D01*
X1149604Y9897008D01*
X1153769Y9896500D01*
X1157325Y9894366D01*
X1159713Y9890963D01*
X1160576Y9886899D01*
X1160576Y9696500D01*
X1159713Y9692436D01*
X1157325Y9689033D01*
X1153769Y9686899D01*
X1149604Y9686391D01*
X1145641Y9687560D01*
X1142441Y9690252D01*
X1140612Y9693960D01*
X1138936Y9700514D01*
X1133551Y9714026D01*
X1126540Y9726777D01*
X1118006Y9738563D01*
X1108049Y9749180D01*
X1096822Y9758476D01*
X1084529Y9766249D01*
X1071372Y9772446D01*
X1057503Y9776968D01*
X1043228Y9779660D01*
X1041400Y9779812D01*
X1041400Y9677400D01*
X1150416Y9677400D01*
X1154328Y9676638D01*
X1157630Y9674402D01*
X1159814Y9671151D01*
X1160576Y9667240D01*
X1160576Y9662160D01*
X1159814Y9658248D01*
X1157630Y9654997D01*
X1154328Y9652762D01*
X1150416Y9652000D01*
X1041400Y9652000D01*
X1041400Y9549587D01*
X1043228Y9549739D01*
X1057503Y9552432D01*
X1071372Y9556953D01*
X1084529Y9563150D01*
X1096822Y9570923D01*
X1108049Y9580219D01*
X1118006Y9590836D01*
X1126540Y9602622D01*
X1133551Y9615373D01*
X1138936Y9628886D01*
X1140612Y9635439D01*
X1142441Y9639147D01*
X1145641Y9641840D01*
X1149604Y9643008D01*
X1153769Y9642500D01*
X1157325Y9640366D01*
X1159713Y9636963D01*
X1160576Y9632899D01*
X1160576Y9442500D01*
X1159713Y9438436D01*
X1157325Y9435033D01*
X1153769Y9432899D01*
X1149604Y9432391D01*
X1145641Y9433560D01*
X1142441Y9436252D01*
X1140612Y9439960D01*
X1138936Y9446514D01*
X1133551Y9460026D01*
X1126540Y9472777D01*
X1118006Y9484563D01*
X1108049Y9495180D01*
X1096822Y9504476D01*
X1084529Y9512249D01*
X1071372Y9518446D01*
X1057503Y9522968D01*
X1043228Y9525660D01*
X1041400Y9525812D01*
X1041400Y9423400D01*
X1150416Y9423400D01*
X1154328Y9422638D01*
X1157630Y9420402D01*
X1159814Y9417151D01*
X1160576Y9413240D01*
X1160576Y9408160D01*
X1159814Y9404248D01*
X1157630Y9400997D01*
X1154328Y9398762D01*
X1150416Y9398000D01*
X1041400Y9398000D01*
X1041400Y9295587D01*
X1043228Y9295739D01*
X1057503Y9298432D01*
X1071372Y9302953D01*
X1084529Y9309150D01*
X1096822Y9316923D01*
X1108049Y9326219D01*
X1118006Y9336836D01*
X1126540Y9348622D01*
X1133551Y9361373D01*
X1138936Y9374886D01*
X1140612Y9381439D01*
X1142441Y9385147D01*
X1145641Y9387840D01*
X1149604Y9389008D01*
X1153769Y9388500D01*
X1157325Y9386366D01*
X1159713Y9382963D01*
X1160576Y9378899D01*
X1160576Y9188500D01*
X1159713Y9184436D01*
X1157325Y9181033D01*
X1153769Y9178899D01*
X1149604Y9178391D01*
X1145641Y9179560D01*
X1142441Y9182252D01*
X1140612Y9185960D01*
X1138936Y9192514D01*
X1133551Y9206026D01*
X1126540Y9218777D01*
X1118006Y9230563D01*
X1108049Y9241180D01*
X1096822Y9250476D01*
X1084529Y9258249D01*
X1071372Y9264446D01*
X1057503Y9268968D01*
X1043228Y9271660D01*
X1028700Y9272574D01*
X1014171Y9271660D01*
X999896Y9268968D01*
X986028Y9264446D01*
X972870Y9258249D01*
X960577Y9250476D01*
X949350Y9241180D01*
X939393Y9230563D01*
X930859Y9218777D01*
X923848Y9206026D01*
X918464Y9192514D01*
X914857Y9178391D01*
X913028Y9163964D01*
X913028Y9149435D01*
X914857Y9135008D01*
X918464Y9120886D01*
X923848Y9107373D01*
X930859Y9094622D01*
X939393Y9082836D01*
X949350Y9072219D01*
X960577Y9062923D01*
X972870Y9055150D01*
X986028Y9048953D01*
X999896Y9044432D01*
X1014171Y9041739D01*
X1028700Y9040825D01*
X1043228Y9041739D01*
X1057503Y9044432D01*
X1071372Y9048953D01*
X1084529Y9055150D01*
X1096822Y9062923D01*
X1108049Y9072219D01*
X1118006Y9082836D01*
X1126540Y9094622D01*
X1133551Y9107373D01*
X1138936Y9120886D01*
X1140612Y9127439D01*
X1142441Y9131147D01*
X1145641Y9133840D01*
X1149604Y9135008D01*
X1153769Y9134500D01*
X1157325Y9132366D01*
X1159713Y9128963D01*
X1160576Y9124899D01*
X1160627Y8824722D01*
X1161846Y8815984D01*
X1164539Y8807958D01*
X1168654Y8800592D01*
X1174394Y8793683D01*
X1226108Y8742019D01*
X1233170Y8736685D01*
X1240739Y8732926D01*
X1248867Y8730640D01*
X1257757Y8729776D01*
X3748024Y8729776D01*
X3751579Y8729167D01*
X3754678Y8727338D01*
X3756964Y8724544D01*
X3762959Y8713622D01*
X3771493Y8701836D01*
X3781450Y8691219D01*
X3792677Y8681923D01*
X3804970Y8674150D01*
X3818128Y8667953D01*
X3831996Y8663432D01*
X3846271Y8660739D01*
G37*
G36*
X774700Y10056825D02*
G01*
X789228Y10057739D01*
X803503Y10060432D01*
X817372Y10064953D01*
X830529Y10071150D01*
X842822Y10078923D01*
X854049Y10088219D01*
X864006Y10098836D01*
X872540Y10110622D01*
X879551Y10123373D01*
X884936Y10136886D01*
X888542Y10151008D01*
X890371Y10165435D01*
X890371Y10179964D01*
X888542Y10194391D01*
X884936Y10208514D01*
X879551Y10222026D01*
X872540Y10234777D01*
X864006Y10246563D01*
X854049Y10257180D01*
X842822Y10266476D01*
X830529Y10274249D01*
X817372Y10280446D01*
X803503Y10284968D01*
X789228Y10287660D01*
X774700Y10288574D01*
X760171Y10287660D01*
X745896Y10284968D01*
X732028Y10280446D01*
X718870Y10274249D01*
X706577Y10266476D01*
X695350Y10257180D01*
X685393Y10246563D01*
X676859Y10234777D01*
X669848Y10222026D01*
X664464Y10208514D01*
X660857Y10194391D01*
X659028Y10179964D01*
X659028Y10165435D01*
X660857Y10151008D01*
X664464Y10136886D01*
X669848Y10123373D01*
X676859Y10110622D01*
X685393Y10098836D01*
X695350Y10088219D01*
X706577Y10078923D01*
X718870Y10071150D01*
X732028Y10064953D01*
X745896Y10060432D01*
X760171Y10057739D01*
G37*
G36*
X3860800Y8913825D02*
G01*
X3875328Y8914739D01*
X3889603Y8917432D01*
X3903472Y8921953D01*
X3916629Y8928150D01*
X3928922Y8935923D01*
X3940098Y8945219D01*
X3950106Y8955836D01*
X3958640Y8967622D01*
X3965651Y8980373D01*
X3970985Y8993886D01*
X3974642Y9008008D01*
X3976471Y9022435D01*
X3976471Y9036964D01*
X3974642Y9051391D01*
X3970985Y9065514D01*
X3965651Y9079026D01*
X3958640Y9091777D01*
X3950106Y9103563D01*
X3940098Y9114180D01*
X3928922Y9123476D01*
X3916629Y9131249D01*
X3903472Y9137446D01*
X3889603Y9141968D01*
X3875328Y9144660D01*
X3860800Y9145574D01*
X3846271Y9144660D01*
X3831996Y9141968D01*
X3818128Y9137446D01*
X3804970Y9131249D01*
X3792677Y9123476D01*
X3781450Y9114180D01*
X3771493Y9103563D01*
X3762959Y9091777D01*
X3755948Y9079026D01*
X3750564Y9065514D01*
X3746957Y9051391D01*
X3745128Y9036964D01*
X3745128Y9022435D01*
X3746957Y9008008D01*
X3750564Y8993886D01*
X3755948Y8980373D01*
X3762959Y8967622D01*
X3771493Y8955836D01*
X3781450Y8945219D01*
X3792677Y8935923D01*
X3804970Y8928150D01*
X3818128Y8921953D01*
X3831996Y8917432D01*
X3846271Y8914739D01*
G37*
G36*
X685292Y9040774D02*
G01*
X864108Y9040774D01*
X870458Y9041485D01*
X875893Y9043416D01*
X880821Y9046514D01*
X884885Y9050578D01*
X887984Y9055506D01*
X889914Y9060942D01*
X890625Y9067292D01*
X890625Y9246108D01*
X889914Y9252458D01*
X887984Y9257893D01*
X884885Y9262821D01*
X880821Y9266885D01*
X875893Y9269984D01*
X870458Y9271914D01*
X864108Y9272625D01*
X685292Y9272625D01*
X678942Y9271914D01*
X673506Y9269984D01*
X668578Y9266885D01*
X664514Y9262821D01*
X661416Y9257893D01*
X659485Y9252458D01*
X658774Y9246108D01*
X658774Y9067292D01*
X659485Y9060942D01*
X661416Y9055506D01*
X664514Y9050578D01*
X668578Y9046514D01*
X673506Y9043416D01*
X678942Y9041485D01*
G37*
G36*
X1828292Y9040774D02*
G01*
X2007107Y9040774D01*
X2013457Y9041485D01*
X2018893Y9043416D01*
X2023821Y9046514D01*
X2027885Y9050578D01*
X2030984Y9055506D01*
X2032914Y9060942D01*
X2033625Y9067292D01*
X2033625Y9246108D01*
X2032914Y9252458D01*
X2030984Y9257893D01*
X2027885Y9262821D01*
X2023821Y9266885D01*
X2018893Y9269984D01*
X2013457Y9271914D01*
X2007107Y9272625D01*
X1828292Y9272625D01*
X1821942Y9271914D01*
X1816506Y9269984D01*
X1811578Y9266885D01*
X1807514Y9262821D01*
X1804416Y9257893D01*
X1802485Y9252458D01*
X1801774Y9246108D01*
X1801774Y9067292D01*
X1802485Y9060942D01*
X1804416Y9055506D01*
X1807514Y9050578D01*
X1811578Y9046514D01*
X1816506Y9043416D01*
X1821942Y9041485D01*
G37*
G36*
X2971292Y9040774D02*
G01*
X3150108Y9040774D01*
X3156458Y9041485D01*
X3161893Y9043416D01*
X3166821Y9046514D01*
X3170885Y9050578D01*
X3173984Y9055506D01*
X3175914Y9060942D01*
X3176625Y9067292D01*
X3176625Y9246108D01*
X3175914Y9252458D01*
X3173984Y9257893D01*
X3170885Y9262821D01*
X3166821Y9266885D01*
X3161893Y9269984D01*
X3156458Y9271914D01*
X3150108Y9272625D01*
X2971292Y9272625D01*
X2964942Y9271914D01*
X2959506Y9269984D01*
X2954578Y9266885D01*
X2950514Y9262821D01*
X2947416Y9257893D01*
X2945485Y9252458D01*
X2944774Y9246108D01*
X2944774Y9067292D01*
X2945485Y9060942D01*
X2947416Y9055506D01*
X2950514Y9050578D01*
X2954578Y9046514D01*
X2959506Y9043416D01*
X2964942Y9041485D01*
G37*
G36*
X3314700Y9040825D02*
G01*
X3329228Y9041739D01*
X3343503Y9044432D01*
X3357372Y9048953D01*
X3370529Y9055150D01*
X3382822Y9062923D01*
X3394049Y9072219D01*
X3404006Y9082836D01*
X3412540Y9094622D01*
X3419551Y9107373D01*
X3424936Y9120886D01*
X3428542Y9135008D01*
X3430371Y9149435D01*
X3430371Y9163964D01*
X3428542Y9178391D01*
X3424936Y9192514D01*
X3419551Y9206026D01*
X3412540Y9218777D01*
X3404006Y9230563D01*
X3394049Y9241180D01*
X3382822Y9250476D01*
X3370529Y9258249D01*
X3357372Y9264446D01*
X3343503Y9268968D01*
X3329228Y9271660D01*
X3314700Y9272574D01*
X3300171Y9271660D01*
X3285896Y9268968D01*
X3272028Y9264446D01*
X3258870Y9258249D01*
X3246577Y9250476D01*
X3235350Y9241180D01*
X3225393Y9230563D01*
X3216859Y9218777D01*
X3209848Y9206026D01*
X3204464Y9192514D01*
X3200857Y9178391D01*
X3199028Y9163964D01*
X3199028Y9149435D01*
X3200857Y9135008D01*
X3204464Y9120886D01*
X3209848Y9107373D01*
X3216859Y9094622D01*
X3225393Y9082836D01*
X3235350Y9072219D01*
X3246577Y9062923D01*
X3258870Y9055150D01*
X3272028Y9048953D01*
X3285896Y9044432D01*
X3300171Y9041739D01*
G37*
G36*
X2171700Y9040825D02*
G01*
X2186228Y9041739D01*
X2200503Y9044432D01*
X2214372Y9048953D01*
X2227529Y9055150D01*
X2239822Y9062923D01*
X2251049Y9072219D01*
X2261006Y9082836D01*
X2269540Y9094622D01*
X2276551Y9107373D01*
X2281936Y9120886D01*
X2285542Y9135008D01*
X2287371Y9149435D01*
X2287371Y9163964D01*
X2285542Y9178391D01*
X2281936Y9192514D01*
X2276551Y9206026D01*
X2269540Y9218777D01*
X2261006Y9230563D01*
X2251049Y9241180D01*
X2239822Y9250476D01*
X2227529Y9258249D01*
X2214372Y9264446D01*
X2200503Y9268968D01*
X2186228Y9271660D01*
X2171700Y9272574D01*
X2157171Y9271660D01*
X2142896Y9268968D01*
X2129028Y9264446D01*
X2115870Y9258249D01*
X2103577Y9250476D01*
X2092350Y9241180D01*
X2082393Y9230563D01*
X2073859Y9218777D01*
X2066848Y9206026D01*
X2061464Y9192514D01*
X2057857Y9178391D01*
X2056028Y9163964D01*
X2056028Y9149435D01*
X2057857Y9135008D01*
X2061464Y9120886D01*
X2066848Y9107373D01*
X2073859Y9094622D01*
X2082393Y9082836D01*
X2092350Y9072219D01*
X2103577Y9062923D01*
X2115870Y9055150D01*
X2129028Y9048953D01*
X2142896Y9044432D01*
X2157171Y9041739D01*
G37*
G36*
X1930400Y9931400D02*
G01*
X2032660Y9931400D01*
X2031542Y9940391D01*
X2027936Y9954514D01*
X2022551Y9968026D01*
X2015540Y9980777D01*
X2007006Y9992563D01*
X1997049Y10003180D01*
X1985822Y10012476D01*
X1973529Y10020249D01*
X1960372Y10026446D01*
X1946503Y10030968D01*
X1932228Y10033660D01*
X1930400Y10033812D01*
G37*
G36*
X3860800Y9167825D02*
G01*
X3875328Y9168739D01*
X3889603Y9171432D01*
X3903472Y9175953D01*
X3916629Y9182150D01*
X3928922Y9189923D01*
X3940098Y9199219D01*
X3950106Y9209836D01*
X3958640Y9221622D01*
X3965651Y9234373D01*
X3970985Y9247886D01*
X3974642Y9262008D01*
X3976471Y9276435D01*
X3976471Y9290964D01*
X3974642Y9305391D01*
X3970985Y9319514D01*
X3965651Y9333026D01*
X3958640Y9345777D01*
X3950106Y9357563D01*
X3940098Y9368180D01*
X3928922Y9377476D01*
X3916629Y9385249D01*
X3903472Y9391446D01*
X3889603Y9395968D01*
X3875328Y9398660D01*
X3860800Y9399574D01*
X3846271Y9398660D01*
X3831996Y9395968D01*
X3818128Y9391446D01*
X3804970Y9385249D01*
X3792677Y9377476D01*
X3781450Y9368180D01*
X3771493Y9357563D01*
X3762959Y9345777D01*
X3755948Y9333026D01*
X3750564Y9319514D01*
X3746957Y9305391D01*
X3745128Y9290964D01*
X3745128Y9276435D01*
X3746957Y9262008D01*
X3750564Y9247886D01*
X3755948Y9234373D01*
X3762959Y9221622D01*
X3771493Y9209836D01*
X3781450Y9199219D01*
X3792677Y9189923D01*
X3804970Y9182150D01*
X3818128Y9175953D01*
X3831996Y9171432D01*
X3846271Y9168739D01*
G37*
G36*
X787400Y9931400D02*
G01*
X889660Y9931400D01*
X888542Y9940391D01*
X884936Y9954514D01*
X879551Y9968026D01*
X872540Y9980777D01*
X864006Y9992563D01*
X854049Y10003180D01*
X842822Y10012476D01*
X830529Y10020249D01*
X817372Y10026446D01*
X803503Y10030968D01*
X789228Y10033660D01*
X787400Y10033812D01*
G37*
G36*
X1930400Y9295587D02*
G01*
X1932228Y9295739D01*
X1946503Y9298432D01*
X1960372Y9302953D01*
X1973529Y9309150D01*
X1985822Y9316923D01*
X1997049Y9326219D01*
X2007006Y9336836D01*
X2015540Y9348622D01*
X2022551Y9361373D01*
X2027936Y9374886D01*
X2031542Y9389008D01*
X2032660Y9398000D01*
X1930400Y9398000D01*
G37*
G36*
X787400Y9295587D02*
G01*
X789228Y9295739D01*
X803503Y9298432D01*
X817372Y9302953D01*
X830529Y9309150D01*
X842822Y9316923D01*
X854049Y9326219D01*
X864006Y9336836D01*
X872540Y9348622D01*
X879551Y9361373D01*
X884936Y9374886D01*
X888542Y9389008D01*
X889660Y9398000D01*
X787400Y9398000D01*
G37*
G36*
X3327400Y9295587D02*
G01*
X3329228Y9295739D01*
X3343503Y9298432D01*
X3357372Y9302953D01*
X3370529Y9309150D01*
X3382822Y9316923D01*
X3394049Y9326219D01*
X3404006Y9336836D01*
X3412540Y9348622D01*
X3419551Y9361373D01*
X3424936Y9374886D01*
X3428542Y9389008D01*
X3429660Y9398000D01*
X3327400Y9398000D01*
G37*
G36*
X1016000Y9295587D02*
G01*
X1016000Y9398000D01*
X913739Y9398000D01*
X914857Y9389008D01*
X918464Y9374886D01*
X923848Y9361373D01*
X930859Y9348622D01*
X939393Y9336836D01*
X949350Y9326219D01*
X960577Y9316923D01*
X972870Y9309150D01*
X986028Y9302953D01*
X999896Y9298432D01*
X1014171Y9295739D01*
G37*
G36*
X1905000Y9295587D02*
G01*
X1905000Y9398000D01*
X1802739Y9398000D01*
X1803857Y9389008D01*
X1807464Y9374886D01*
X1812848Y9361373D01*
X1819859Y9348622D01*
X1828393Y9336836D01*
X1838350Y9326219D01*
X1849577Y9316923D01*
X1861870Y9309150D01*
X1875028Y9302953D01*
X1888896Y9298432D01*
X1903171Y9295739D01*
G37*
G36*
X3073400Y9295587D02*
G01*
X3075228Y9295739D01*
X3089503Y9298432D01*
X3103372Y9302953D01*
X3116529Y9309150D01*
X3128822Y9316923D01*
X3140049Y9326219D01*
X3150006Y9336836D01*
X3158540Y9348622D01*
X3165551Y9361373D01*
X3170936Y9374886D01*
X3174542Y9389008D01*
X3175660Y9398000D01*
X3073400Y9398000D01*
G37*
G36*
X3048000Y9295587D02*
G01*
X3048000Y9398000D01*
X2945739Y9398000D01*
X2946857Y9389008D01*
X2950464Y9374886D01*
X2955848Y9361373D01*
X2962859Y9348622D01*
X2971393Y9336836D01*
X2981350Y9326219D01*
X2992577Y9316923D01*
X3004870Y9309150D01*
X3018028Y9302953D01*
X3031896Y9298432D01*
X3046171Y9295739D01*
G37*
G36*
X762000Y9295587D02*
G01*
X762000Y9398000D01*
X659739Y9398000D01*
X660857Y9389008D01*
X664464Y9374886D01*
X669848Y9361373D01*
X676859Y9348622D01*
X685393Y9336836D01*
X695350Y9326219D01*
X706577Y9316923D01*
X718870Y9309150D01*
X732028Y9302953D01*
X745896Y9298432D01*
X760171Y9295739D01*
G37*
G36*
X2159000Y9295587D02*
G01*
X2159000Y9398000D01*
X2056739Y9398000D01*
X2057857Y9389008D01*
X2061464Y9374886D01*
X2066848Y9361373D01*
X2073859Y9348622D01*
X2082393Y9336836D01*
X2092350Y9326219D01*
X2103577Y9316923D01*
X2115870Y9309150D01*
X2129028Y9302953D01*
X2142896Y9298432D01*
X2157171Y9295739D01*
G37*
G36*
X3302000Y9295587D02*
G01*
X3302000Y9398000D01*
X3199739Y9398000D01*
X3200857Y9389008D01*
X3204464Y9374886D01*
X3209848Y9361373D01*
X3216859Y9348622D01*
X3225393Y9336836D01*
X3235350Y9326219D01*
X3246577Y9316923D01*
X3258870Y9309150D01*
X3272028Y9302953D01*
X3285896Y9298432D01*
X3300171Y9295739D01*
G37*
G36*
X2184400Y9295587D02*
G01*
X2186228Y9295739D01*
X2200503Y9298432D01*
X2214372Y9302953D01*
X2227529Y9309150D01*
X2239822Y9316923D01*
X2251049Y9326219D01*
X2261006Y9336836D01*
X2269540Y9348622D01*
X2276551Y9361373D01*
X2281936Y9374886D01*
X2285542Y9389008D01*
X2286660Y9398000D01*
X2184400Y9398000D01*
G37*
G36*
X659739Y9931400D02*
G01*
X762000Y9931400D01*
X762000Y10033812D01*
X760171Y10033660D01*
X745896Y10030968D01*
X732028Y10026446D01*
X718870Y10020249D01*
X706577Y10012476D01*
X695350Y10003180D01*
X685393Y9992563D01*
X676859Y9980777D01*
X669848Y9968026D01*
X664464Y9954514D01*
X660857Y9940391D01*
G37*
G36*
X3860800Y9421825D02*
G01*
X3875328Y9422739D01*
X3889603Y9425432D01*
X3903472Y9429953D01*
X3916629Y9436150D01*
X3928922Y9443923D01*
X3940098Y9453219D01*
X3950106Y9463836D01*
X3958640Y9475622D01*
X3965651Y9488373D01*
X3970985Y9501886D01*
X3974642Y9516008D01*
X3976471Y9530435D01*
X3976471Y9544964D01*
X3974642Y9559391D01*
X3970985Y9573514D01*
X3965651Y9587026D01*
X3958640Y9599777D01*
X3950106Y9611563D01*
X3940098Y9622180D01*
X3928922Y9631476D01*
X3916629Y9639249D01*
X3903472Y9645446D01*
X3889603Y9649968D01*
X3875328Y9652660D01*
X3860800Y9653574D01*
X3846271Y9652660D01*
X3831996Y9649968D01*
X3818128Y9645446D01*
X3804970Y9639249D01*
X3792677Y9631476D01*
X3781450Y9622180D01*
X3771493Y9611563D01*
X3762959Y9599777D01*
X3755948Y9587026D01*
X3750564Y9573514D01*
X3746957Y9559391D01*
X3745128Y9544964D01*
X3745128Y9530435D01*
X3746957Y9516008D01*
X3750564Y9501886D01*
X3755948Y9488373D01*
X3762959Y9475622D01*
X3771493Y9463836D01*
X3781450Y9453219D01*
X3792677Y9443923D01*
X3804970Y9436150D01*
X3818128Y9429953D01*
X3831996Y9425432D01*
X3846271Y9422739D01*
G37*
G36*
X787400Y9423400D02*
G01*
X889660Y9423400D01*
X888542Y9432391D01*
X884936Y9446514D01*
X879551Y9460026D01*
X872540Y9472777D01*
X864006Y9484563D01*
X854049Y9495180D01*
X842822Y9504476D01*
X830529Y9512249D01*
X817372Y9518446D01*
X803503Y9522968D01*
X789228Y9525660D01*
X787400Y9525812D01*
G37*
G36*
X3327400Y9423400D02*
G01*
X3429660Y9423400D01*
X3428542Y9432391D01*
X3424936Y9446514D01*
X3419551Y9460026D01*
X3412540Y9472777D01*
X3404006Y9484563D01*
X3394049Y9495180D01*
X3382822Y9504476D01*
X3370529Y9512249D01*
X3357372Y9518446D01*
X3343503Y9522968D01*
X3329228Y9525660D01*
X3327400Y9525812D01*
G37*
G36*
X1930400Y9423400D02*
G01*
X2032660Y9423400D01*
X2031542Y9432391D01*
X2027936Y9446514D01*
X2022551Y9460026D01*
X2015540Y9472777D01*
X2007006Y9484563D01*
X1997049Y9495180D01*
X1985822Y9504476D01*
X1973529Y9512249D01*
X1960372Y9518446D01*
X1946503Y9522968D01*
X1932228Y9525660D01*
X1930400Y9525812D01*
G37*
G36*
X3073400Y9423400D02*
G01*
X3175660Y9423400D01*
X3174542Y9432391D01*
X3170936Y9446514D01*
X3165551Y9460026D01*
X3158540Y9472777D01*
X3150006Y9484563D01*
X3140049Y9495180D01*
X3128822Y9504476D01*
X3116529Y9512249D01*
X3103372Y9518446D01*
X3089503Y9522968D01*
X3075228Y9525660D01*
X3073400Y9525812D01*
G37*
G36*
X2945739Y9423400D02*
G01*
X3048000Y9423400D01*
X3048000Y9525812D01*
X3046171Y9525660D01*
X3031896Y9522968D01*
X3018028Y9518446D01*
X3004870Y9512249D01*
X2992577Y9504476D01*
X2981350Y9495180D01*
X2971393Y9484563D01*
X2962859Y9472777D01*
X2955848Y9460026D01*
X2950464Y9446514D01*
X2946857Y9432391D01*
G37*
G36*
X2056739Y9423400D02*
G01*
X2159000Y9423400D01*
X2159000Y9525812D01*
X2157171Y9525660D01*
X2142896Y9522968D01*
X2129028Y9518446D01*
X2115870Y9512249D01*
X2103577Y9504476D01*
X2092350Y9495180D01*
X2082393Y9484563D01*
X2073859Y9472777D01*
X2066848Y9460026D01*
X2061464Y9446514D01*
X2057857Y9432391D01*
G37*
G36*
X3199739Y9423400D02*
G01*
X3302000Y9423400D01*
X3302000Y9525812D01*
X3300171Y9525660D01*
X3285896Y9522968D01*
X3272028Y9518446D01*
X3258870Y9512249D01*
X3246577Y9504476D01*
X3235350Y9495180D01*
X3225393Y9484563D01*
X3216859Y9472777D01*
X3209848Y9460026D01*
X3204464Y9446514D01*
X3200857Y9432391D01*
G37*
G36*
X2184400Y9423400D02*
G01*
X2286660Y9423400D01*
X2285542Y9432391D01*
X2281936Y9446514D01*
X2276551Y9460026D01*
X2269540Y9472777D01*
X2261006Y9484563D01*
X2251049Y9495180D01*
X2239822Y9504476D01*
X2227529Y9512249D01*
X2214372Y9518446D01*
X2200503Y9522968D01*
X2186228Y9525660D01*
X2184400Y9525812D01*
G37*
G36*
X1802739Y9423400D02*
G01*
X1905000Y9423400D01*
X1905000Y9525812D01*
X1903171Y9525660D01*
X1888896Y9522968D01*
X1875028Y9518446D01*
X1861870Y9512249D01*
X1849577Y9504476D01*
X1838350Y9495180D01*
X1828393Y9484563D01*
X1819859Y9472777D01*
X1812848Y9460026D01*
X1807464Y9446514D01*
X1803857Y9432391D01*
G37*
G36*
X913739Y9423400D02*
G01*
X1016000Y9423400D01*
X1016000Y9525812D01*
X1014171Y9525660D01*
X999896Y9522968D01*
X986028Y9518446D01*
X972870Y9512249D01*
X960577Y9504476D01*
X949350Y9495180D01*
X939393Y9484563D01*
X930859Y9472777D01*
X923848Y9460026D01*
X918464Y9446514D01*
X914857Y9432391D01*
G37*
G36*
X659739Y9423400D02*
G01*
X762000Y9423400D01*
X762000Y9525812D01*
X760171Y9525660D01*
X745896Y9522968D01*
X732028Y9518446D01*
X718870Y9512249D01*
X706577Y9504476D01*
X695350Y9495180D01*
X685393Y9484563D01*
X676859Y9472777D01*
X669848Y9460026D01*
X664464Y9446514D01*
X660857Y9432391D01*
G37*
G36*
X2056739Y9931400D02*
G01*
X2159000Y9931400D01*
X2159000Y10033812D01*
X2157171Y10033660D01*
X2142896Y10030968D01*
X2129028Y10026446D01*
X2115870Y10020249D01*
X2103577Y10012476D01*
X2092350Y10003180D01*
X2082393Y9992563D01*
X2073859Y9980777D01*
X2066848Y9968026D01*
X2061464Y9954514D01*
X2057857Y9940391D01*
G37*
G36*
X787400Y9549587D02*
G01*
X789228Y9549739D01*
X803503Y9552432D01*
X817372Y9556953D01*
X830529Y9563150D01*
X842822Y9570923D01*
X854049Y9580219D01*
X864006Y9590836D01*
X872540Y9602622D01*
X879551Y9615373D01*
X884936Y9628886D01*
X888542Y9643008D01*
X889660Y9652000D01*
X787400Y9652000D01*
G37*
G36*
X3327400Y9549587D02*
G01*
X3329228Y9549739D01*
X3343503Y9552432D01*
X3357372Y9556953D01*
X3370529Y9563150D01*
X3382822Y9570923D01*
X3394049Y9580219D01*
X3404006Y9590836D01*
X3412540Y9602622D01*
X3419551Y9615373D01*
X3424936Y9628886D01*
X3428542Y9643008D01*
X3429660Y9652000D01*
X3327400Y9652000D01*
G37*
G36*
X3073400Y9549587D02*
G01*
X3075228Y9549739D01*
X3089503Y9552432D01*
X3103372Y9556953D01*
X3116529Y9563150D01*
X3128822Y9570923D01*
X3140049Y9580219D01*
X3150006Y9590836D01*
X3158540Y9602622D01*
X3165551Y9615373D01*
X3170936Y9628886D01*
X3174542Y9643008D01*
X3175660Y9652000D01*
X3073400Y9652000D01*
G37*
G36*
X1930400Y9549587D02*
G01*
X1932228Y9549739D01*
X1946503Y9552432D01*
X1960372Y9556953D01*
X1973529Y9563150D01*
X1985822Y9570923D01*
X1997049Y9580219D01*
X2007006Y9590836D01*
X2015540Y9602622D01*
X2022551Y9615373D01*
X2027936Y9628886D01*
X2031542Y9643008D01*
X2032660Y9652000D01*
X1930400Y9652000D01*
G37*
G36*
X3048000Y9549587D02*
G01*
X3048000Y9652000D01*
X2945739Y9652000D01*
X2946857Y9643008D01*
X2950464Y9628886D01*
X2955848Y9615373D01*
X2962859Y9602622D01*
X2971393Y9590836D01*
X2981350Y9580219D01*
X2992577Y9570923D01*
X3004870Y9563150D01*
X3018028Y9556953D01*
X3031896Y9552432D01*
X3046171Y9549739D01*
G37*
G36*
X2159000Y9549587D02*
G01*
X2159000Y9652000D01*
X2056739Y9652000D01*
X2057857Y9643008D01*
X2061464Y9628886D01*
X2066848Y9615373D01*
X2073859Y9602622D01*
X2082393Y9590836D01*
X2092350Y9580219D01*
X2103577Y9570923D01*
X2115870Y9563150D01*
X2129028Y9556953D01*
X2142896Y9552432D01*
X2157171Y9549739D01*
G37*
G36*
X3302000Y9549587D02*
G01*
X3302000Y9652000D01*
X3199739Y9652000D01*
X3200857Y9643008D01*
X3204464Y9628886D01*
X3209848Y9615373D01*
X3216859Y9602622D01*
X3225393Y9590836D01*
X3235350Y9580219D01*
X3246577Y9570923D01*
X3258870Y9563150D01*
X3272028Y9556953D01*
X3285896Y9552432D01*
X3300171Y9549739D01*
G37*
G36*
X1905000Y9549587D02*
G01*
X1905000Y9652000D01*
X1802739Y9652000D01*
X1803857Y9643008D01*
X1807464Y9628886D01*
X1812848Y9615373D01*
X1819859Y9602622D01*
X1828393Y9590836D01*
X1838350Y9580219D01*
X1849577Y9570923D01*
X1861870Y9563150D01*
X1875028Y9556953D01*
X1888896Y9552432D01*
X1903171Y9549739D01*
G37*
G36*
X2184400Y9549587D02*
G01*
X2186228Y9549739D01*
X2200503Y9552432D01*
X2214372Y9556953D01*
X2227529Y9563150D01*
X2239822Y9570923D01*
X2251049Y9580219D01*
X2261006Y9590836D01*
X2269540Y9602622D01*
X2276551Y9615373D01*
X2281936Y9628886D01*
X2285542Y9643008D01*
X2286660Y9652000D01*
X2184400Y9652000D01*
G37*
G36*
X1016000Y9549587D02*
G01*
X1016000Y9652000D01*
X913739Y9652000D01*
X914857Y9643008D01*
X918464Y9628886D01*
X923848Y9615373D01*
X930859Y9602622D01*
X939393Y9590836D01*
X949350Y9580219D01*
X960577Y9570923D01*
X972870Y9563150D01*
X986028Y9556953D01*
X999896Y9552432D01*
X1014171Y9549739D01*
G37*
G36*
X762000Y9549587D02*
G01*
X762000Y9652000D01*
X659739Y9652000D01*
X660857Y9643008D01*
X664464Y9628886D01*
X669848Y9615373D01*
X676859Y9602622D01*
X685393Y9590836D01*
X695350Y9580219D01*
X706577Y9570923D01*
X718870Y9563150D01*
X732028Y9556953D01*
X745896Y9552432D01*
X760171Y9549739D01*
G37*
G36*
X913739Y9931400D02*
G01*
X1016000Y9931400D01*
X1016000Y10033812D01*
X1014171Y10033660D01*
X999896Y10030968D01*
X986028Y10026446D01*
X972870Y10020249D01*
X960577Y10012476D01*
X949350Y10003180D01*
X939393Y9992563D01*
X930859Y9980777D01*
X923848Y9968026D01*
X918464Y9954514D01*
X914857Y9940391D01*
G37*
G36*
X3860800Y9675825D02*
G01*
X3875328Y9676739D01*
X3889603Y9679432D01*
X3903472Y9683953D01*
X3916629Y9690150D01*
X3928922Y9697923D01*
X3940098Y9707219D01*
X3950106Y9717836D01*
X3958640Y9729622D01*
X3965651Y9742373D01*
X3970985Y9755886D01*
X3974642Y9770008D01*
X3976471Y9784435D01*
X3976471Y9798964D01*
X3974642Y9813391D01*
X3970985Y9827514D01*
X3965651Y9841026D01*
X3958640Y9853777D01*
X3950106Y9865563D01*
X3940098Y9876180D01*
X3928922Y9885476D01*
X3916629Y9893249D01*
X3903472Y9899446D01*
X3889603Y9903968D01*
X3875328Y9906660D01*
X3860800Y9907574D01*
X3846271Y9906660D01*
X3831996Y9903968D01*
X3818128Y9899446D01*
X3804970Y9893249D01*
X3792677Y9885476D01*
X3781450Y9876180D01*
X3771493Y9865563D01*
X3762959Y9853777D01*
X3755948Y9841026D01*
X3750564Y9827514D01*
X3746957Y9813391D01*
X3745128Y9798964D01*
X3745128Y9784435D01*
X3746957Y9770008D01*
X3750564Y9755886D01*
X3755948Y9742373D01*
X3762959Y9729622D01*
X3771493Y9717836D01*
X3781450Y9707219D01*
X3792677Y9697923D01*
X3804970Y9690150D01*
X3818128Y9683953D01*
X3831996Y9679432D01*
X3846271Y9676739D01*
G37*
G36*
X787400Y9677400D02*
G01*
X889660Y9677400D01*
X888542Y9686391D01*
X884936Y9700514D01*
X879551Y9714026D01*
X872540Y9726777D01*
X864006Y9738563D01*
X854049Y9749180D01*
X842822Y9758476D01*
X830529Y9766249D01*
X817372Y9772446D01*
X803503Y9776968D01*
X789228Y9779660D01*
X787400Y9779812D01*
G37*
G36*
X3327400Y9677400D02*
G01*
X3429660Y9677400D01*
X3428542Y9686391D01*
X3424936Y9700514D01*
X3419551Y9714026D01*
X3412540Y9726777D01*
X3404006Y9738563D01*
X3394049Y9749180D01*
X3382822Y9758476D01*
X3370529Y9766249D01*
X3357372Y9772446D01*
X3343503Y9776968D01*
X3329228Y9779660D01*
X3327400Y9779812D01*
G37*
G36*
X3073400Y9677400D02*
G01*
X3175660Y9677400D01*
X3174542Y9686391D01*
X3170936Y9700514D01*
X3165551Y9714026D01*
X3158540Y9726777D01*
X3150006Y9738563D01*
X3140049Y9749180D01*
X3128822Y9758476D01*
X3116529Y9766249D01*
X3103372Y9772446D01*
X3089503Y9776968D01*
X3075228Y9779660D01*
X3073400Y9779812D01*
G37*
G36*
X2945739Y9677400D02*
G01*
X3048000Y9677400D01*
X3048000Y9779812D01*
X3046171Y9779660D01*
X3031896Y9776968D01*
X3018028Y9772446D01*
X3004870Y9766249D01*
X2992577Y9758476D01*
X2981350Y9749180D01*
X2971393Y9738563D01*
X2962859Y9726777D01*
X2955848Y9714026D01*
X2950464Y9700514D01*
X2946857Y9686391D01*
G37*
G36*
X1930400Y9677400D02*
G01*
X2032660Y9677400D01*
X2031542Y9686391D01*
X2027936Y9700514D01*
X2022551Y9714026D01*
X2015540Y9726777D01*
X2007006Y9738563D01*
X1997049Y9749180D01*
X1985822Y9758476D01*
X1973529Y9766249D01*
X1960372Y9772446D01*
X1946503Y9776968D01*
X1932228Y9779660D01*
X1930400Y9779812D01*
G37*
G36*
X2056739Y9677400D02*
G01*
X2159000Y9677400D01*
X2159000Y9779812D01*
X2157171Y9779660D01*
X2142896Y9776968D01*
X2129028Y9772446D01*
X2115870Y9766249D01*
X2103577Y9758476D01*
X2092350Y9749180D01*
X2082393Y9738563D01*
X2073859Y9726777D01*
X2066848Y9714026D01*
X2061464Y9700514D01*
X2057857Y9686391D01*
G37*
G36*
X1802739Y9677400D02*
G01*
X1905000Y9677400D01*
X1905000Y9779812D01*
X1903171Y9779660D01*
X1888896Y9776968D01*
X1875028Y9772446D01*
X1861870Y9766249D01*
X1849577Y9758476D01*
X1838350Y9749180D01*
X1828393Y9738563D01*
X1819859Y9726777D01*
X1812848Y9714026D01*
X1807464Y9700514D01*
X1803857Y9686391D01*
G37*
G36*
X3199739Y9677400D02*
G01*
X3302000Y9677400D01*
X3302000Y9779812D01*
X3300171Y9779660D01*
X3285896Y9776968D01*
X3272028Y9772446D01*
X3258870Y9766249D01*
X3246577Y9758476D01*
X3235350Y9749180D01*
X3225393Y9738563D01*
X3216859Y9726777D01*
X3209848Y9714026D01*
X3204464Y9700514D01*
X3200857Y9686391D01*
G37*
G36*
X913739Y9677400D02*
G01*
X1016000Y9677400D01*
X1016000Y9779812D01*
X1014171Y9779660D01*
X999896Y9776968D01*
X986028Y9772446D01*
X972870Y9766249D01*
X960577Y9758476D01*
X949350Y9749180D01*
X939393Y9738563D01*
X930859Y9726777D01*
X923848Y9714026D01*
X918464Y9700514D01*
X914857Y9686391D01*
G37*
G36*
X2184400Y9677400D02*
G01*
X2286660Y9677400D01*
X2285542Y9686391D01*
X2281936Y9700514D01*
X2276551Y9714026D01*
X2269540Y9726777D01*
X2261006Y9738563D01*
X2251049Y9749180D01*
X2239822Y9758476D01*
X2227529Y9766249D01*
X2214372Y9772446D01*
X2200503Y9776968D01*
X2186228Y9779660D01*
X2184400Y9779812D01*
G37*
G36*
X659739Y9677400D02*
G01*
X762000Y9677400D01*
X762000Y9779812D01*
X760171Y9779660D01*
X745896Y9776968D01*
X732028Y9772446D01*
X718870Y9766249D01*
X706577Y9758476D01*
X695350Y9749180D01*
X685393Y9738563D01*
X676859Y9726777D01*
X669848Y9714026D01*
X664464Y9700514D01*
X660857Y9686391D01*
G37*
G36*
X1802739Y9931400D02*
G01*
X1905000Y9931400D01*
X1905000Y10033812D01*
X1903171Y10033660D01*
X1888896Y10030968D01*
X1875028Y10026446D01*
X1861870Y10020249D01*
X1849577Y10012476D01*
X1838350Y10003180D01*
X1828393Y9992563D01*
X1819859Y9980777D01*
X1812848Y9968026D01*
X1807464Y9954514D01*
X1803857Y9940391D01*
G37*
G36*
X3073400Y9803587D02*
G01*
X3075228Y9803739D01*
X3089503Y9806432D01*
X3103372Y9810953D01*
X3116529Y9817150D01*
X3128822Y9824923D01*
X3140049Y9834219D01*
X3150006Y9844836D01*
X3158540Y9856622D01*
X3165551Y9869373D01*
X3170936Y9882886D01*
X3174542Y9897008D01*
X3175660Y9906000D01*
X3073400Y9906000D01*
G37*
G36*
X3327400Y9803587D02*
G01*
X3329228Y9803739D01*
X3343503Y9806432D01*
X3357372Y9810953D01*
X3370529Y9817150D01*
X3382822Y9824923D01*
X3394049Y9834219D01*
X3404006Y9844836D01*
X3412540Y9856622D01*
X3419551Y9869373D01*
X3424936Y9882886D01*
X3428542Y9897008D01*
X3429660Y9906000D01*
X3327400Y9906000D01*
G37*
G36*
X3048000Y9803587D02*
G01*
X3048000Y9906000D01*
X2945739Y9906000D01*
X2946857Y9897008D01*
X2950464Y9882886D01*
X2955848Y9869373D01*
X2962859Y9856622D01*
X2971393Y9844836D01*
X2981350Y9834219D01*
X2992577Y9824923D01*
X3004870Y9817150D01*
X3018028Y9810953D01*
X3031896Y9806432D01*
X3046171Y9803739D01*
G37*
G36*
X1905000Y9803587D02*
G01*
X1905000Y9906000D01*
X1802739Y9906000D01*
X1803857Y9897008D01*
X1807464Y9882886D01*
X1812848Y9869373D01*
X1819859Y9856622D01*
X1828393Y9844836D01*
X1838350Y9834219D01*
X1849577Y9824923D01*
X1861870Y9817150D01*
X1875028Y9810953D01*
X1888896Y9806432D01*
X1903171Y9803739D01*
G37*
G36*
X2159000Y9803587D02*
G01*
X2159000Y9906000D01*
X2056739Y9906000D01*
X2057857Y9897008D01*
X2061464Y9882886D01*
X2066848Y9869373D01*
X2073859Y9856622D01*
X2082393Y9844836D01*
X2092350Y9834219D01*
X2103577Y9824923D01*
X2115870Y9817150D01*
X2129028Y9810953D01*
X2142896Y9806432D01*
X2157171Y9803739D01*
G37*
G36*
X1016000Y9803587D02*
G01*
X1016000Y9906000D01*
X913739Y9906000D01*
X914857Y9897008D01*
X918464Y9882886D01*
X923848Y9869373D01*
X930859Y9856622D01*
X939393Y9844836D01*
X949350Y9834219D01*
X960577Y9824923D01*
X972870Y9817150D01*
X986028Y9810953D01*
X999896Y9806432D01*
X1014171Y9803739D01*
G37*
G36*
X3302000Y9803587D02*
G01*
X3302000Y9906000D01*
X3199739Y9906000D01*
X3200857Y9897008D01*
X3204464Y9882886D01*
X3209848Y9869373D01*
X3216859Y9856622D01*
X3225393Y9844836D01*
X3235350Y9834219D01*
X3246577Y9824923D01*
X3258870Y9817150D01*
X3272028Y9810953D01*
X3285896Y9806432D01*
X3300171Y9803739D01*
G37*
G36*
X2184400Y9803587D02*
G01*
X2186228Y9803739D01*
X2200503Y9806432D01*
X2214372Y9810953D01*
X2227529Y9817150D01*
X2239822Y9824923D01*
X2251049Y9834219D01*
X2261006Y9844836D01*
X2269540Y9856622D01*
X2276551Y9869373D01*
X2281936Y9882886D01*
X2285542Y9897008D01*
X2286660Y9906000D01*
X2184400Y9906000D01*
G37*
G36*
X762000Y9803587D02*
G01*
X762000Y9906000D01*
X659739Y9906000D01*
X660857Y9897008D01*
X664464Y9882886D01*
X669848Y9869373D01*
X676859Y9856622D01*
X685393Y9844836D01*
X695350Y9834219D01*
X706577Y9824923D01*
X718870Y9817150D01*
X732028Y9810953D01*
X745896Y9806432D01*
X760171Y9803739D01*
G37*
G36*
X787400Y9803587D02*
G01*
X789228Y9803739D01*
X803503Y9806432D01*
X817372Y9810953D01*
X830529Y9817150D01*
X842822Y9824923D01*
X854049Y9834219D01*
X864006Y9844836D01*
X872540Y9856622D01*
X879551Y9869373D01*
X884936Y9882886D01*
X888542Y9897008D01*
X889660Y9906000D01*
X787400Y9906000D01*
G37*
G36*
X1930400Y9803587D02*
G01*
X1932228Y9803739D01*
X1946503Y9806432D01*
X1960372Y9810953D01*
X1973529Y9817150D01*
X1985822Y9824923D01*
X1997049Y9834219D01*
X2007006Y9844836D01*
X2015540Y9856622D01*
X2022551Y9869373D01*
X2027936Y9882886D01*
X2031542Y9897008D01*
X2032660Y9906000D01*
X1930400Y9906000D01*
G37*
G36*
X2184400Y9931400D02*
G01*
X2286660Y9931400D01*
X2285542Y9940391D01*
X2281936Y9954514D01*
X2276551Y9968026D01*
X2269540Y9980777D01*
X2261006Y9992563D01*
X2251049Y10003180D01*
X2239822Y10012476D01*
X2227529Y10020249D01*
X2214372Y10026446D01*
X2200503Y10030968D01*
X2186228Y10033660D01*
X2184400Y10033812D01*
G37*
G36*
X3860800Y9929825D02*
G01*
X3875328Y9930739D01*
X3889603Y9933432D01*
X3903472Y9937953D01*
X3916629Y9944150D01*
X3928922Y9951923D01*
X3940098Y9961219D01*
X3950106Y9971836D01*
X3958640Y9983622D01*
X3965651Y9996373D01*
X3970985Y10009886D01*
X3974642Y10024008D01*
X3976471Y10038435D01*
X3976471Y10052964D01*
X3974642Y10067391D01*
X3970985Y10081514D01*
X3965651Y10095026D01*
X3958640Y10107777D01*
X3950106Y10119563D01*
X3940098Y10130180D01*
X3928922Y10139476D01*
X3916629Y10147249D01*
X3903472Y10153446D01*
X3889603Y10157968D01*
X3875328Y10160660D01*
X3860800Y10161574D01*
X3846271Y10160660D01*
X3831996Y10157968D01*
X3818128Y10153446D01*
X3804970Y10147249D01*
X3792677Y10139476D01*
X3781450Y10130180D01*
X3771493Y10119563D01*
X3762959Y10107777D01*
X3756964Y10096855D01*
X3754678Y10094061D01*
X3751579Y10092232D01*
X3748024Y10091623D01*
X3418687Y10091623D01*
X3414369Y10092588D01*
X3410864Y10095280D01*
X3408832Y10099243D01*
X3408730Y10103662D01*
X3410458Y10107726D01*
X3412540Y10110622D01*
X3419551Y10123373D01*
X3424936Y10136886D01*
X3428542Y10151008D01*
X3430371Y10165435D01*
X3430371Y10179964D01*
X3428542Y10194391D01*
X3424936Y10208514D01*
X3419551Y10222026D01*
X3412540Y10234777D01*
X3404565Y10245750D01*
X3402837Y10249865D01*
X3402990Y10254335D01*
X3405022Y10258298D01*
X3408629Y10260990D01*
X3412998Y10261904D01*
X3417315Y10260838D01*
X3425139Y10256926D01*
X3433267Y10254640D01*
X3442208Y10253776D01*
X3748024Y10253776D01*
X3751579Y10253167D01*
X3754678Y10251338D01*
X3756964Y10248544D01*
X3762959Y10237622D01*
X3771493Y10225836D01*
X3781450Y10215219D01*
X3792677Y10205923D01*
X3804970Y10198150D01*
X3818128Y10191953D01*
X3831996Y10187432D01*
X3846271Y10184739D01*
X3860800Y10183825D01*
X3875328Y10184739D01*
X3889603Y10187432D01*
X3903472Y10191953D01*
X3916629Y10198150D01*
X3928922Y10205923D01*
X3940098Y10215219D01*
X3950106Y10225836D01*
X3958640Y10237622D01*
X3965651Y10250373D01*
X3970985Y10263886D01*
X3974642Y10278008D01*
X3976471Y10292435D01*
X3976471Y10306964D01*
X3974642Y10321391D01*
X3970985Y10335514D01*
X3965651Y10349026D01*
X3958640Y10361777D01*
X3950106Y10373563D01*
X3940098Y10384180D01*
X3928922Y10393476D01*
X3916629Y10401249D01*
X3903472Y10407446D01*
X3889603Y10411968D01*
X3875328Y10414660D01*
X3860800Y10415574D01*
X3846271Y10414660D01*
X3831996Y10411968D01*
X3818128Y10407446D01*
X3804970Y10401249D01*
X3792677Y10393476D01*
X3781450Y10384180D01*
X3771493Y10373563D01*
X3762959Y10361777D01*
X3756964Y10350855D01*
X3754678Y10348061D01*
X3751579Y10346232D01*
X3748024Y10345623D01*
X3464966Y10345623D01*
X3461054Y10346385D01*
X3457752Y10348569D01*
X3426968Y10379405D01*
X3424783Y10382656D01*
X3423970Y10386466D01*
X3428542Y10405008D01*
X3430371Y10419435D01*
X3430371Y10433964D01*
X3428542Y10448391D01*
X3424936Y10462514D01*
X3419551Y10476026D01*
X3412540Y10488777D01*
X3404006Y10500563D01*
X3394049Y10511180D01*
X3382822Y10520476D01*
X3370529Y10528249D01*
X3357372Y10534446D01*
X3343503Y10538968D01*
X3329228Y10541660D01*
X3314700Y10542574D01*
X3300171Y10541660D01*
X3285896Y10538968D01*
X3272028Y10534446D01*
X3258870Y10528249D01*
X3246577Y10520476D01*
X3235350Y10511180D01*
X3225393Y10500563D01*
X3216859Y10488777D01*
X3210864Y10477906D01*
X3208578Y10475061D01*
X3205480Y10473232D01*
X3201974Y10472623D01*
X3173425Y10472623D01*
X3169920Y10473232D01*
X3166821Y10475061D01*
X3164535Y10477906D01*
X3158540Y10488777D01*
X3150006Y10500563D01*
X3140049Y10511180D01*
X3128822Y10520476D01*
X3116529Y10528249D01*
X3103372Y10534446D01*
X3089503Y10538968D01*
X3075228Y10541660D01*
X3060700Y10542574D01*
X3046171Y10541660D01*
X3031896Y10538968D01*
X3018028Y10534446D01*
X3004870Y10528249D01*
X2992577Y10520476D01*
X2981350Y10511180D01*
X2971393Y10500563D01*
X2962859Y10488777D01*
X2955848Y10476026D01*
X2950464Y10462514D01*
X2946857Y10448391D01*
X2945028Y10433964D01*
X2945028Y10419435D01*
X2946857Y10405008D01*
X2950464Y10390886D01*
X2955848Y10377373D01*
X2962859Y10364622D01*
X2971393Y10352836D01*
X2981350Y10342219D01*
X2992577Y10332923D01*
X3004870Y10325150D01*
X3018028Y10318953D01*
X3031896Y10314432D01*
X3046171Y10311739D01*
X3060700Y10310825D01*
X3075228Y10311739D01*
X3089503Y10314432D01*
X3103372Y10318953D01*
X3116529Y10325150D01*
X3128822Y10332923D01*
X3140049Y10342219D01*
X3150006Y10352836D01*
X3158540Y10364622D01*
X3164535Y10375544D01*
X3166821Y10378338D01*
X3169920Y10380167D01*
X3173476Y10380776D01*
X3201924Y10380776D01*
X3205480Y10380167D01*
X3208578Y10378338D01*
X3210864Y10375544D01*
X3216859Y10364622D01*
X3225393Y10352836D01*
X3235350Y10342219D01*
X3246577Y10332923D01*
X3258870Y10325150D01*
X3272028Y10318953D01*
X3285896Y10314432D01*
X3300171Y10311739D01*
X3314700Y10310825D01*
X3329228Y10311739D01*
X3343503Y10314432D01*
X3351580Y10317073D01*
X3355238Y10317530D01*
X3358845Y10316667D01*
X3361893Y10314584D01*
X3392271Y10284256D01*
X3394557Y10280700D01*
X3395218Y10276586D01*
X3394151Y10272471D01*
X3391509Y10269220D01*
X3387750Y10267289D01*
X3383584Y10267035D01*
X3379622Y10268508D01*
X3370529Y10274249D01*
X3357372Y10280446D01*
X3343503Y10284968D01*
X3329228Y10287660D01*
X3314700Y10288574D01*
X3300171Y10287660D01*
X3285896Y10284968D01*
X3272028Y10280446D01*
X3258870Y10274249D01*
X3246577Y10266476D01*
X3235350Y10257180D01*
X3225393Y10246563D01*
X3216859Y10234777D01*
X3209848Y10222026D01*
X3204464Y10208514D01*
X3200857Y10194391D01*
X3199028Y10179964D01*
X3199028Y10165435D01*
X3200857Y10151008D01*
X3204464Y10136886D01*
X3209848Y10123373D01*
X3216859Y10110622D01*
X3218942Y10107726D01*
X3220669Y10103662D01*
X3220567Y10099243D01*
X3218535Y10095280D01*
X3215030Y10092588D01*
X3210712Y10091623D01*
X3164687Y10091623D01*
X3160369Y10092588D01*
X3156864Y10095280D01*
X3154832Y10099243D01*
X3154730Y10103662D01*
X3156458Y10107726D01*
X3158540Y10110622D01*
X3165551Y10123373D01*
X3170936Y10136886D01*
X3174542Y10151008D01*
X3176371Y10165435D01*
X3176371Y10179964D01*
X3174542Y10194391D01*
X3170936Y10208514D01*
X3165551Y10222026D01*
X3158540Y10234777D01*
X3150006Y10246563D01*
X3140049Y10257180D01*
X3128822Y10266476D01*
X3116529Y10274249D01*
X3103372Y10280446D01*
X3089503Y10284968D01*
X3075228Y10287660D01*
X3060700Y10288574D01*
X3046171Y10287660D01*
X3031896Y10284968D01*
X3018028Y10280446D01*
X3004870Y10274249D01*
X2992577Y10266476D01*
X2981350Y10257180D01*
X2971393Y10246563D01*
X2962859Y10234777D01*
X2955848Y10222026D01*
X2950464Y10208514D01*
X2946857Y10194391D01*
X2945028Y10179964D01*
X2945028Y10165435D01*
X2946857Y10151008D01*
X2950464Y10136886D01*
X2955848Y10123373D01*
X2962859Y10110622D01*
X2964942Y10107726D01*
X2966669Y10103662D01*
X2966567Y10099243D01*
X2964535Y10095280D01*
X2961030Y10092588D01*
X2956712Y10091623D01*
X2563215Y10091623D01*
X2559354Y10092385D01*
X2556052Y10094569D01*
X2280361Y10370261D01*
X2278176Y10373512D01*
X2277364Y10377373D01*
X2278075Y10381183D01*
X2281936Y10390886D01*
X2285542Y10405008D01*
X2287371Y10419435D01*
X2287371Y10433964D01*
X2285542Y10448391D01*
X2281936Y10462514D01*
X2276551Y10476026D01*
X2269540Y10488777D01*
X2261006Y10500563D01*
X2251049Y10511180D01*
X2239822Y10520476D01*
X2227529Y10528249D01*
X2214372Y10534446D01*
X2200503Y10538968D01*
X2186228Y10541660D01*
X2171700Y10542574D01*
X2157171Y10541660D01*
X2142896Y10538968D01*
X2129028Y10534446D01*
X2115870Y10528249D01*
X2103577Y10520476D01*
X2092350Y10511180D01*
X2082393Y10500563D01*
X2073859Y10488777D01*
X2067864Y10477906D01*
X2065578Y10475061D01*
X2062480Y10473232D01*
X2058974Y10472623D01*
X2030425Y10472623D01*
X2026920Y10473232D01*
X2023821Y10475061D01*
X2021535Y10477906D01*
X2015540Y10488777D01*
X2007006Y10500563D01*
X1997049Y10511180D01*
X1985822Y10520476D01*
X1973529Y10528249D01*
X1960372Y10534446D01*
X1946503Y10538968D01*
X1932228Y10541660D01*
X1917700Y10542574D01*
X1903171Y10541660D01*
X1888896Y10538968D01*
X1875028Y10534446D01*
X1861870Y10528249D01*
X1849577Y10520476D01*
X1838350Y10511180D01*
X1828393Y10500563D01*
X1819859Y10488777D01*
X1812848Y10476026D01*
X1807464Y10462514D01*
X1803857Y10448391D01*
X1802028Y10433964D01*
X1802028Y10419435D01*
X1803857Y10405008D01*
X1807464Y10390886D01*
X1812848Y10377373D01*
X1819859Y10364622D01*
X1828393Y10352836D01*
X1838350Y10342219D01*
X1849577Y10332923D01*
X1861870Y10325150D01*
X1875028Y10318953D01*
X1888896Y10314432D01*
X1903171Y10311739D01*
X1917700Y10310825D01*
X1932228Y10311739D01*
X1946503Y10314432D01*
X1960372Y10318953D01*
X1973529Y10325150D01*
X1985822Y10332923D01*
X1997049Y10342219D01*
X2007006Y10352836D01*
X2015540Y10364622D01*
X2021535Y10375544D01*
X2023821Y10378338D01*
X2026920Y10380167D01*
X2030475Y10380776D01*
X2058924Y10380776D01*
X2062480Y10380167D01*
X2065578Y10378338D01*
X2067864Y10375544D01*
X2073859Y10364622D01*
X2082393Y10352836D01*
X2092350Y10342219D01*
X2103577Y10332923D01*
X2115870Y10325150D01*
X2129028Y10318953D01*
X2142896Y10314432D01*
X2157171Y10311739D01*
X2171700Y10310825D01*
X2186228Y10311739D01*
X2200097Y10314381D01*
X2203399Y10314482D01*
X2206548Y10313517D01*
X2209190Y10311587D01*
X2222906Y10297871D01*
X2225294Y10294061D01*
X2225802Y10289641D01*
X2224379Y10285374D01*
X2221230Y10282174D01*
X2217064Y10280599D01*
X2212594Y10281005D01*
X2200503Y10284968D01*
X2186228Y10287660D01*
X2171700Y10288574D01*
X2157171Y10287660D01*
X2142896Y10284968D01*
X2129028Y10280446D01*
X2115870Y10274249D01*
X2103577Y10266476D01*
X2092350Y10257180D01*
X2082393Y10246563D01*
X2073859Y10234777D01*
X2066848Y10222026D01*
X2061464Y10208514D01*
X2057857Y10194391D01*
X2056028Y10179964D01*
X2056028Y10165435D01*
X2057857Y10151008D01*
X2061464Y10136886D01*
X2066848Y10123373D01*
X2073859Y10110622D01*
X2082393Y10098836D01*
X2092350Y10088219D01*
X2103577Y10078923D01*
X2115870Y10071150D01*
X2129028Y10064953D01*
X2142896Y10060432D01*
X2157171Y10057739D01*
X2171700Y10056825D01*
X2186228Y10057739D01*
X2200503Y10060432D01*
X2214372Y10064953D01*
X2227529Y10071150D01*
X2239822Y10078923D01*
X2251049Y10088219D01*
X2261006Y10098836D01*
X2269540Y10110622D01*
X2276551Y10123373D01*
X2281936Y10136886D01*
X2285542Y10151008D01*
X2287371Y10165435D01*
X2287371Y10179964D01*
X2285542Y10194391D01*
X2281936Y10208514D01*
X2280107Y10213136D01*
X2279396Y10216997D01*
X2280208Y10220858D01*
X2282393Y10224109D01*
X2285695Y10226294D01*
X2289556Y10227056D01*
X2293416Y10226243D01*
X2296718Y10224058D01*
X2508808Y10012019D01*
X2515870Y10006685D01*
X2523439Y10002926D01*
X2531567Y10000640D01*
X2540457Y9999776D01*
X2956712Y9999776D01*
X2961030Y9998811D01*
X2964535Y9996119D01*
X2966567Y9992156D01*
X2966669Y9987737D01*
X2964942Y9983673D01*
X2962859Y9980777D01*
X2955848Y9968026D01*
X2950464Y9954514D01*
X2946857Y9940391D01*
X2945739Y9931400D01*
X3048000Y9931400D01*
X3048000Y9989616D01*
X3048762Y9993528D01*
X3050997Y9996830D01*
X3054248Y9999014D01*
X3058160Y9999776D01*
X3063240Y9999776D01*
X3067151Y9999014D01*
X3070402Y9996830D01*
X3072638Y9993528D01*
X3073400Y9989616D01*
X3073400Y9931400D01*
X3175660Y9931400D01*
X3174542Y9940391D01*
X3170936Y9954514D01*
X3165551Y9968026D01*
X3158540Y9980777D01*
X3156458Y9983673D01*
X3154730Y9987737D01*
X3154832Y9992156D01*
X3156864Y9996119D01*
X3160369Y9998811D01*
X3164687Y9999776D01*
X3210712Y9999776D01*
X3215030Y9998811D01*
X3218535Y9996119D01*
X3220567Y9992156D01*
X3220669Y9987737D01*
X3218942Y9983673D01*
X3216859Y9980777D01*
X3209848Y9968026D01*
X3204464Y9954514D01*
X3200857Y9940391D01*
X3199739Y9931400D01*
X3302000Y9931400D01*
X3302000Y9989616D01*
X3302762Y9993528D01*
X3304997Y9996830D01*
X3308248Y9999014D01*
X3312160Y9999776D01*
X3317240Y9999776D01*
X3321151Y9999014D01*
X3324402Y9996830D01*
X3326637Y9993528D01*
X3327400Y9989616D01*
X3327400Y9931400D01*
X3429660Y9931400D01*
X3428542Y9940391D01*
X3424936Y9954514D01*
X3419551Y9968026D01*
X3412540Y9980777D01*
X3410458Y9983673D01*
X3408730Y9987737D01*
X3408832Y9992156D01*
X3410864Y9996119D01*
X3414369Y9998811D01*
X3418687Y9999776D01*
X3748024Y9999776D01*
X3751579Y9999167D01*
X3754678Y9997338D01*
X3756964Y9994544D01*
X3762959Y9983622D01*
X3771493Y9971836D01*
X3781450Y9961219D01*
X3792677Y9951923D01*
X3804970Y9944150D01*
X3818128Y9937953D01*
X3831996Y9933432D01*
X3846271Y9930739D01*
G37*

%LPD*%
D10*
X3860800Y10045700D02*
G01*
X2540000Y10045700D01*
X2171700Y10414000D01*
X3860784Y10299700D02*
G01*
X3441717Y10299700D01*
X3314707Y10426710D01*
X3314707Y10426710D02*
G01*
X3060707Y10426710D01*
X2171707Y10426710D02*
G01*
X1917707Y10426710D01*
X3860784Y8775700D02*
G01*
X1257300Y8775700D01*
X1206500Y8826500D01*
X1206500Y10248917D01*
X1028707Y10426710D01*
X1028707Y10426710D02*
G01*
X774707Y10426710D01*
X3860784Y8521700D02*
G01*
X1270000Y8521700D01*
X1206500Y8458200D01*
X1206500Y7734302D01*
X1028707Y7556510D01*
X1028707Y7556510D02*
G01*
X774707Y7556510D01*
X3860784Y7251700D02*
G01*
X3695700Y7251700D01*
X3644900Y7302500D01*
X3644900Y8267700D01*
X3594100Y8318500D01*
X2413000Y8318500D01*
X2362200Y8267700D01*
X2362200Y7747002D01*
X2171707Y7556510D01*
X2171707Y7556510D02*
G01*
X1917707Y7556510D01*
X3860784Y6997700D02*
G01*
X3530600Y6997700D01*
X3505200Y7023100D01*
X3505200Y7366017D01*
X3314707Y7556510D01*
X3314707Y7556510D02*
G01*
X3060707Y7556510D01*
D11*
G01*
X774700Y9156700D03*
D12*
G01*
X1028700Y9156700D03*
G01*
X774700Y9410700D03*
G01*
X1028700Y9410700D03*
G01*
X774700Y9664700D03*
G01*
X1028700Y9664700D03*
G01*
X774700Y9918700D03*
G01*
X1028700Y9918700D03*
G01*
X774700Y10172700D03*
G01*
X1028700Y10172700D03*
G01*
X774700Y10426700D03*
G01*
X1028700Y10426700D03*
G01*
X774700Y10680700D03*
G01*
X1028700Y10680700D03*
G01*
X774700Y10934700D03*
G01*
X1028700Y10934700D03*
D11*
G01*
X774700Y6286500D03*
D12*
G01*
X1028700Y6286500D03*
G01*
X774700Y6540500D03*
G01*
X1028700Y6540500D03*
G01*
X774700Y6794500D03*
G01*
X1028700Y6794500D03*
G01*
X774700Y7048500D03*
G01*
X1028700Y7048500D03*
G01*
X774700Y7302500D03*
G01*
X1028700Y7302500D03*
G01*
X774700Y7556500D03*
G01*
X1028700Y7556500D03*
G01*
X774700Y7810500D03*
G01*
X1028700Y7810500D03*
G01*
X774700Y8064500D03*
G01*
X1028700Y8064500D03*
D11*
G01*
X1917700Y9156700D03*
D12*
G01*
X2171700Y9156700D03*
G01*
X1917700Y9410700D03*
G01*
X2171700Y9410700D03*
G01*
X1917700Y9664700D03*
G01*
X2171700Y9664700D03*
G01*
X1917700Y9918700D03*
G01*
X2171700Y9918700D03*
G01*
X1917700Y10172700D03*
G01*
X2171700Y10172700D03*
G01*
X1917700Y10426700D03*
G01*
X2171700Y10426700D03*
G01*
X1917700Y10680700D03*
G01*
X2171700Y10680700D03*
G01*
X1917700Y10934700D03*
G01*
X2171700Y10934700D03*
D11*
G01*
X3060700Y9156700D03*
D12*
G01*
X3314700Y9156700D03*
G01*
X3060700Y9410700D03*
G01*
X3314700Y9410700D03*
G01*
X3060700Y9664700D03*
G01*
X3314700Y9664700D03*
G01*
X3060700Y9918700D03*
G01*
X3314700Y9918700D03*
G01*
X3060700Y10172700D03*
G01*
X3314700Y10172700D03*
G01*
X3060700Y10426700D03*
G01*
X3314700Y10426700D03*
G01*
X3060700Y10680700D03*
G01*
X3314700Y10680700D03*
G01*
X3060700Y10934700D03*
G01*
X3314700Y10934700D03*
D11*
G01*
X1917700Y6286500D03*
D12*
G01*
X2171700Y6286500D03*
G01*
X1917700Y6540500D03*
G01*
X2171700Y6540500D03*
G01*
X1917700Y6794500D03*
G01*
X2171700Y6794500D03*
G01*
X1917700Y7048500D03*
G01*
X2171700Y7048500D03*
G01*
X1917700Y7302500D03*
G01*
X2171700Y7302500D03*
G01*
X1917700Y7556500D03*
G01*
X2171700Y7556500D03*
G01*
X1917700Y7810500D03*
G01*
X2171700Y7810500D03*
G01*
X1917700Y8064500D03*
G01*
X2171700Y8064500D03*
D11*
G01*
X3060700Y6286500D03*
D12*
G01*
X3314700Y6286500D03*
G01*
X3060700Y6540500D03*
G01*
X3314700Y6540500D03*
G01*
X3060700Y6794500D03*
G01*
X3314700Y6794500D03*
G01*
X3060700Y7048500D03*
G01*
X3314700Y7048500D03*
G01*
X3060700Y7302500D03*
G01*
X3314700Y7302500D03*
G01*
X3060700Y7556500D03*
G01*
X3314700Y7556500D03*
G01*
X3060700Y7810500D03*
G01*
X3314700Y7810500D03*
G01*
X3060700Y8064500D03*
G01*
X3314700Y8064500D03*
G01*
X3860774Y11061700D03*
D13*
G01*
X3860800Y6235700D03*
D12*
G01*
X3860774Y6489700D03*
G01*
X3860774Y6743700D03*
G01*
X3860774Y6997700D03*
G01*
X3860774Y7251700D03*
G01*
X3860774Y7505700D03*
G01*
X3860774Y7759700D03*
G01*
X3860774Y8013700D03*
G01*
X3860774Y8267700D03*
G01*
X3860774Y8521700D03*
G01*
X3860774Y8775700D03*
G01*
X3860774Y9029700D03*
G01*
X3860774Y9283700D03*
G01*
X3860774Y9537700D03*
G01*
X3860774Y9791700D03*
G01*
X3860774Y10045700D03*
G01*
X3860774Y10299700D03*
G01*
X3860774Y10553700D03*
G01*
X3860774Y10807700D03*
D14*
G01*
X1193800Y10680700D03*
G01*
X2336800Y10680700D03*
G01*
X1752625Y9156725D03*
G01*
X2895625Y9156725D03*
M02*
