M48
METRIC,LZ,000.000
;FILE_FORMAT=3:3
;TYPE=PLATED
;Layer: PTH_Through
;EasyEDA v6.5.29, 2023-07-18 11:22:46
;d896c42b98474c1f997fee1a3b510d80,5a6b42c53f6a479593ecc07194224c93,10
;Gerber Generator version 0.2
;Holesize 1 = 0.305 mm
T01C0.305
;Holesize 2 = 0.901 mm
T02C0.901
%
G05
G90
T01
X130937Y092138
X131064Y069278
X130937Y046545
X130937Y048387
X127762Y043053
X120269Y043053
X120269Y050673
X127762Y050673
X131064Y071120
X130937Y093980
X127889Y073406
X120396Y073406
X127762Y096266
X120269Y096266
X120396Y065786
X127889Y065786
X120269Y088646
X127762Y088646
T02
X127460Y111125
X125460Y111125
X123460Y111125
X121460Y111125
X127460Y024638
X125460Y024638
X123460Y024638
X121460Y024638
M30
