G04 Layer: BottomSilkscreenLayer*
G04 EasyEDA v6.5.29, 2023-07-18 11:22:46*
G04 d896c42b98474c1f997fee1a3b510d80,5a6b42c53f6a479593ecc07194224c93,10*
G04 Gerber Generator version 0.2*
G04 Scale: 100 percent, Rotated: No, Reflected: No *
G04 Dimensions in millimeters *
G04 leading zeros omitted , absolute positions ,4 integer and 5 decimal *
%FSLAX45Y45*%
%MOMM*%

%ADD10C,0.2032*%
%ADD11C,0.1524*%
%ADD12C,0.2540*%

%LPD*%
D10*
X13500100Y10877989D02*
G01*
X13500100Y10763445D01*
X13500100Y10877989D02*
G01*
X13456462Y10763445D01*
X13412828Y10877989D02*
G01*
X13456462Y10763445D01*
X13412828Y10877989D02*
G01*
X13412828Y10763445D01*
X13278645Y10899808D02*
G01*
X13376828Y10725264D01*
X13242645Y10877989D02*
G01*
X13242645Y10763445D01*
X13242645Y10877989D02*
G01*
X13171736Y10877989D01*
X13242645Y10823445D02*
G01*
X13199010Y10823445D01*
X13242645Y10763445D02*
G01*
X13171736Y10763445D01*
X13013555Y10877989D02*
G01*
X13013555Y10763445D01*
X13051736Y10877989D02*
G01*
X12975374Y10877989D01*
X12906646Y10877989D02*
G01*
X12917556Y10872536D01*
X12928465Y10861626D01*
X12933918Y10850717D01*
X12939374Y10834354D01*
X12939374Y10807082D01*
X12933918Y10790717D01*
X12928465Y10779808D01*
X12917556Y10768898D01*
X12906646Y10763445D01*
X12884828Y10763445D01*
X12873918Y10768898D01*
X12863009Y10779808D01*
X12857556Y10790717D01*
X12852100Y10807082D01*
X12852100Y10834354D01*
X12857556Y10850717D01*
X12863009Y10861626D01*
X12873918Y10872536D01*
X12884828Y10877989D01*
X12906646Y10877989D01*
X12816100Y10877989D02*
G01*
X12816100Y10796173D01*
X12810647Y10779808D01*
X12799738Y10768898D01*
X12783372Y10763445D01*
X12772466Y10763445D01*
X12756100Y10768898D01*
X12745191Y10779808D01*
X12739738Y10796173D01*
X12739738Y10877989D01*
X12621920Y10850717D02*
G01*
X12627373Y10861626D01*
X12638283Y10872536D01*
X12649192Y10877989D01*
X12671010Y10877989D01*
X12681920Y10872536D01*
X12692829Y10861626D01*
X12698282Y10850717D01*
X12703738Y10834354D01*
X12703738Y10807082D01*
X12698282Y10790717D01*
X12692829Y10779808D01*
X12681920Y10768898D01*
X12671010Y10763445D01*
X12649192Y10763445D01*
X12638283Y10768898D01*
X12627373Y10779808D01*
X12621920Y10790717D01*
X12585920Y10877989D02*
G01*
X12585920Y10763445D01*
X12509555Y10877989D02*
G01*
X12509555Y10763445D01*
X12585920Y10823445D02*
G01*
X12509555Y10823445D01*
X12307737Y10850717D02*
G01*
X12313193Y10861626D01*
X12324102Y10872536D01*
X12335012Y10877989D01*
X12356830Y10877989D01*
X12367737Y10872536D01*
X12378646Y10861626D01*
X12384102Y10850717D01*
X12389556Y10834354D01*
X12389556Y10807082D01*
X12384102Y10790717D01*
X12378646Y10779808D01*
X12367737Y10768898D01*
X12356830Y10763445D01*
X12335012Y10763445D01*
X12324102Y10768898D01*
X12313193Y10779808D01*
X12307737Y10790717D01*
X12239012Y10877989D02*
G01*
X12249919Y10872536D01*
X12260828Y10861626D01*
X12266284Y10850717D01*
X12271738Y10834354D01*
X12271738Y10807082D01*
X12266284Y10790717D01*
X12260828Y10779808D01*
X12249919Y10768898D01*
X12239012Y10763445D01*
X12217194Y10763445D01*
X12206284Y10768898D01*
X12195375Y10779808D01*
X12189919Y10790717D01*
X12184466Y10807082D01*
X12184466Y10834354D01*
X12189919Y10850717D01*
X12195375Y10861626D01*
X12206284Y10872536D01*
X12217194Y10877989D01*
X12239012Y10877989D01*
X12148466Y10877989D02*
G01*
X12148466Y10763445D01*
X12148466Y10877989D02*
G01*
X12072101Y10763445D01*
X12072101Y10877989D02*
G01*
X12072101Y10763445D01*
X11997921Y10877989D02*
G01*
X11997921Y10763445D01*
X12036102Y10877989D02*
G01*
X11959739Y10877989D01*
X11923740Y10877989D02*
G01*
X11923740Y10763445D01*
X11923740Y10877989D02*
G01*
X11874649Y10877989D01*
X11858284Y10872536D01*
X11852831Y10867082D01*
X11847375Y10856173D01*
X11847375Y10845264D01*
X11852831Y10834354D01*
X11858284Y10828898D01*
X11874649Y10823445D01*
X11923740Y10823445D01*
X11885556Y10823445D02*
G01*
X11847375Y10763445D01*
X11778648Y10877989D02*
G01*
X11789557Y10872536D01*
X11800466Y10861626D01*
X11805922Y10850717D01*
X11811375Y10834354D01*
X11811375Y10807082D01*
X11805922Y10790717D01*
X11800466Y10779808D01*
X11789557Y10768898D01*
X11778648Y10763445D01*
X11756831Y10763445D01*
X11745922Y10768898D01*
X11735013Y10779808D01*
X11729557Y10790717D01*
X11724104Y10807082D01*
X11724104Y10834354D01*
X11729557Y10850717D01*
X11735013Y10861626D01*
X11745922Y10872536D01*
X11756831Y10877989D01*
X11778648Y10877989D01*
X11688104Y10877989D02*
G01*
X11688104Y10763445D01*
X11688104Y10763445D02*
G01*
X11622648Y10763445D01*
X11586649Y10877989D02*
G01*
X11586649Y10763445D01*
X11586649Y10763445D02*
G01*
X11521193Y10763445D01*
X11485194Y10877989D02*
G01*
X11485194Y10763445D01*
X11485194Y10877989D02*
G01*
X11414285Y10877989D01*
X11485194Y10823445D02*
G01*
X11441559Y10823445D01*
X11485194Y10763445D02*
G01*
X11414285Y10763445D01*
X11378285Y10877989D02*
G01*
X11378285Y10763445D01*
X11378285Y10877989D02*
G01*
X11329195Y10877989D01*
X11312832Y10872536D01*
X11307376Y10867082D01*
X11301923Y10856173D01*
X11301923Y10845264D01*
X11307376Y10834354D01*
X11312832Y10828898D01*
X11329195Y10823445D01*
X11378285Y10823445D01*
X11340104Y10823445D02*
G01*
X11301923Y10763445D01*
X13804900Y10522389D02*
G01*
X13804900Y10407845D01*
X13804900Y10522389D02*
G01*
X13755809Y10522389D01*
X13739446Y10516936D01*
X13733990Y10511482D01*
X13728537Y10500573D01*
X13728537Y10484208D01*
X13733990Y10473298D01*
X13739446Y10467845D01*
X13755809Y10462389D01*
X13804900Y10462389D01*
X13648900Y10522389D02*
G01*
X13692535Y10407845D01*
X13648900Y10522389D02*
G01*
X13605263Y10407845D01*
X13676172Y10446026D02*
G01*
X13621628Y10446026D01*
X13569264Y10522389D02*
G01*
X13569264Y10407845D01*
X13569264Y10522389D02*
G01*
X13520173Y10522389D01*
X13503810Y10516936D01*
X13498355Y10511482D01*
X13492901Y10500573D01*
X13492901Y10489664D01*
X13498355Y10478754D01*
X13503810Y10473298D01*
X13520173Y10467845D01*
X13569264Y10467845D01*
X13531082Y10467845D02*
G01*
X13492901Y10407845D01*
X13418718Y10522389D02*
G01*
X13418718Y10407845D01*
X13456899Y10522389D02*
G01*
X13380537Y10522389D01*
X13260537Y10522389D02*
G01*
X13260537Y10407845D01*
X13260537Y10522389D02*
G01*
X13184174Y10407845D01*
X13184174Y10522389D02*
G01*
X13184174Y10407845D01*
X13148172Y10522389D02*
G01*
X13148172Y10440573D01*
X13142719Y10424208D01*
X13131810Y10413298D01*
X13115447Y10407845D01*
X13104538Y10407845D01*
X13088172Y10413298D01*
X13077266Y10424208D01*
X13071810Y10440573D01*
X13071810Y10522389D01*
X13035810Y10522389D02*
G01*
X13035810Y10407845D01*
X13035810Y10522389D02*
G01*
X12992173Y10407845D01*
X12948538Y10522389D02*
G01*
X12992173Y10407845D01*
X12948538Y10522389D02*
G01*
X12948538Y10407845D01*
X12912537Y10522389D02*
G01*
X12912537Y10407845D01*
X12912537Y10522389D02*
G01*
X12863446Y10522389D01*
X12847083Y10516936D01*
X12841630Y10511482D01*
X12836174Y10500573D01*
X12836174Y10489664D01*
X12841630Y10478754D01*
X12847083Y10473298D01*
X12863446Y10467845D01*
X12912537Y10467845D02*
G01*
X12863446Y10467845D01*
X12847083Y10462389D01*
X12841630Y10456936D01*
X12836174Y10446026D01*
X12836174Y10429664D01*
X12841630Y10418754D01*
X12847083Y10413298D01*
X12863446Y10407845D01*
X12912537Y10407845D01*
X12800175Y10522389D02*
G01*
X12800175Y10407845D01*
X12800175Y10522389D02*
G01*
X12729265Y10522389D01*
X12800175Y10467845D02*
G01*
X12756537Y10467845D01*
X12800175Y10407845D02*
G01*
X12729265Y10407845D01*
X12693266Y10522389D02*
G01*
X12693266Y10407845D01*
X12693266Y10522389D02*
G01*
X12644175Y10522389D01*
X12627810Y10516936D01*
X12622357Y10511482D01*
X12616901Y10500573D01*
X12616901Y10489664D01*
X12622357Y10478754D01*
X12627810Y10473298D01*
X12644175Y10467845D01*
X12693266Y10467845D01*
X12655085Y10467845D02*
G01*
X12616901Y10407845D01*
X12491448Y10495117D02*
G01*
X12491448Y10500573D01*
X12485992Y10511482D01*
X12480538Y10516936D01*
X12469629Y10522389D01*
X12447811Y10522389D01*
X12436901Y10516936D01*
X12431448Y10511482D01*
X12425992Y10500573D01*
X12425992Y10489664D01*
X12431448Y10478754D01*
X12442357Y10462389D01*
X12496901Y10407845D01*
X12420539Y10407845D01*
X12357267Y10522389D02*
G01*
X12373630Y10516936D01*
X12379083Y10506026D01*
X12379083Y10495117D01*
X12373630Y10484208D01*
X12362721Y10478754D01*
X12340902Y10473298D01*
X12324539Y10467845D01*
X12313630Y10456936D01*
X12308174Y10446026D01*
X12308174Y10429664D01*
X12313630Y10418754D01*
X12319083Y10413298D01*
X12335449Y10407845D01*
X12357267Y10407845D01*
X12373630Y10413298D01*
X12379083Y10418754D01*
X12384539Y10429664D01*
X12384539Y10446026D01*
X12379083Y10456936D01*
X12368174Y10467845D01*
X12351811Y10473298D01*
X12329993Y10478754D01*
X12319083Y10484208D01*
X12313630Y10495117D01*
X12313630Y10506026D01*
X12319083Y10516936D01*
X12335449Y10522389D01*
X12357267Y10522389D01*
X12244903Y10522389D02*
G01*
X12261265Y10516936D01*
X12266721Y10506026D01*
X12266721Y10495117D01*
X12261265Y10484208D01*
X12250356Y10478754D01*
X12228540Y10473298D01*
X12212175Y10467845D01*
X12201265Y10456936D01*
X12195812Y10446026D01*
X12195812Y10429664D01*
X12201265Y10418754D01*
X12206721Y10413298D01*
X12223084Y10407845D01*
X12244903Y10407845D01*
X12261265Y10413298D01*
X12266721Y10418754D01*
X12272175Y10429664D01*
X12272175Y10446026D01*
X12266721Y10456936D01*
X12255812Y10467845D01*
X12239449Y10473298D01*
X12217631Y10478754D01*
X12206721Y10484208D01*
X12201265Y10495117D01*
X12201265Y10506026D01*
X12206721Y10516936D01*
X12223084Y10522389D01*
X12244903Y10522389D01*
X12127085Y10522389D02*
G01*
X12143447Y10516936D01*
X12154357Y10500573D01*
X12159813Y10473298D01*
X12159813Y10456936D01*
X12154357Y10429664D01*
X12143447Y10413298D01*
X12127085Y10407845D01*
X12116175Y10407845D01*
X12099813Y10413298D01*
X12088903Y10429664D01*
X12083448Y10456936D01*
X12083448Y10473298D01*
X12088903Y10500573D01*
X12099813Y10516936D01*
X12116175Y10522389D01*
X12127085Y10522389D01*
X12047448Y10456936D02*
G01*
X11949267Y10456936D01*
X11880540Y10522389D02*
G01*
X11896902Y10516936D01*
X11907812Y10500573D01*
X11913268Y10473298D01*
X11913268Y10456936D01*
X11907812Y10429664D01*
X11896902Y10413298D01*
X11880540Y10407845D01*
X11869630Y10407845D01*
X11853268Y10413298D01*
X11842358Y10429664D01*
X11836902Y10456936D01*
X11836902Y10473298D01*
X11842358Y10500573D01*
X11853268Y10516936D01*
X11869630Y10522389D01*
X11880540Y10522389D01*
X11789994Y10522389D02*
G01*
X11729994Y10522389D01*
X11762722Y10478754D01*
X11746359Y10478754D01*
X11735450Y10473298D01*
X11729994Y10467845D01*
X11724540Y10451482D01*
X11724540Y10440573D01*
X11729994Y10424208D01*
X11740903Y10413298D01*
X11757268Y10407845D01*
X11773631Y10407845D01*
X11789994Y10413298D01*
X11795450Y10418754D01*
X11800903Y10429664D01*
X11655813Y10522389D02*
G01*
X11672176Y10516936D01*
X11683085Y10500573D01*
X11688541Y10473298D01*
X11688541Y10456936D01*
X11683085Y10429664D01*
X11672176Y10413298D01*
X11655813Y10407845D01*
X11644904Y10407845D01*
X11628541Y10413298D01*
X11617632Y10429664D01*
X11612176Y10456936D01*
X11612176Y10473298D01*
X11617632Y10500573D01*
X11628541Y10516936D01*
X11644904Y10522389D01*
X11655813Y10522389D01*
X11576177Y10500573D02*
G01*
X11565267Y10506026D01*
X11548905Y10522389D01*
X11548905Y10407845D01*
X11428905Y10522389D02*
G01*
X11385268Y10407845D01*
X11341633Y10522389D02*
G01*
X11385268Y10407845D01*
X11272906Y10522389D02*
G01*
X11289268Y10516936D01*
X11300178Y10500573D01*
X11305631Y10473298D01*
X11305631Y10456936D01*
X11300178Y10429664D01*
X11289268Y10413298D01*
X11272906Y10407845D01*
X11261996Y10407845D01*
X11245631Y10413298D01*
X11234722Y10429664D01*
X11229268Y10456936D01*
X11229268Y10473298D01*
X11234722Y10500573D01*
X11245631Y10516936D01*
X11261996Y10522389D01*
X11272906Y10522389D01*
X11187813Y10435117D02*
G01*
X11193269Y10429664D01*
X11187813Y10424208D01*
X11182360Y10429664D01*
X11187813Y10435117D01*
X11140904Y10495117D02*
G01*
X11140904Y10500573D01*
X11135451Y10511482D01*
X11129995Y10516936D01*
X11119086Y10522389D01*
X11097270Y10522389D01*
X11086360Y10516936D01*
X11080904Y10511482D01*
X11075451Y10500573D01*
X11075451Y10489664D01*
X11080904Y10478754D01*
X11091814Y10462389D01*
X11146360Y10407845D01*
X11069995Y10407845D01*
X13013690Y2800857D02*
G01*
X13013690Y2713481D01*
X13019277Y2697226D01*
X13024611Y2691637D01*
X13035534Y2686304D01*
X13046456Y2686304D01*
X13057377Y2691637D01*
X13062965Y2697226D01*
X13068300Y2713481D01*
X13068300Y2724404D01*
X12977875Y2800857D02*
G01*
X12977875Y2686304D01*
X12977875Y2686304D02*
G01*
X12912343Y2686304D01*
X12794488Y2773426D02*
G01*
X12799822Y2784347D01*
X12810743Y2795270D01*
X12821665Y2800857D01*
X12843509Y2800857D01*
X12854431Y2795270D01*
X12865354Y2784347D01*
X12870941Y2773426D01*
X12876275Y2757170D01*
X12876275Y2729992D01*
X12870941Y2713481D01*
X12865354Y2702560D01*
X12854431Y2691637D01*
X12843509Y2686304D01*
X12821665Y2686304D01*
X12810743Y2691637D01*
X12799822Y2702560D01*
X12794488Y2713481D01*
X12704063Y2800857D02*
G01*
X12704063Y2713481D01*
X12709397Y2697226D01*
X12714731Y2691637D01*
X12725654Y2686304D01*
X12736575Y2686304D01*
X12747497Y2691637D01*
X12753086Y2697226D01*
X12758420Y2713481D01*
X12758420Y2724404D01*
X12667995Y2800857D02*
G01*
X12667995Y2686304D01*
X12667995Y2686304D02*
G01*
X12602463Y2686304D01*
X12484608Y2773426D02*
G01*
X12490195Y2784347D01*
X12501118Y2795270D01*
X12512040Y2800857D01*
X12533629Y2800857D01*
X12544552Y2795270D01*
X12555474Y2784347D01*
X12561061Y2773426D01*
X12566395Y2757170D01*
X12566395Y2729992D01*
X12561061Y2713481D01*
X12555474Y2702560D01*
X12544552Y2691637D01*
X12533629Y2686304D01*
X12512040Y2686304D01*
X12501118Y2691637D01*
X12490195Y2702560D01*
X12484608Y2713481D01*
X12394184Y2800857D02*
G01*
X12394184Y2713481D01*
X12399518Y2697226D01*
X12405106Y2691637D01*
X12416027Y2686304D01*
X12426950Y2686304D01*
X12437872Y2691637D01*
X12443206Y2697226D01*
X12448540Y2713481D01*
X12448540Y2724404D01*
X12358115Y2800857D02*
G01*
X12358115Y2686304D01*
X12358115Y2686304D02*
G01*
X12292584Y2686304D01*
X12174727Y2773426D02*
G01*
X12180315Y2784347D01*
X12191238Y2795270D01*
X12202159Y2800857D01*
X12224004Y2800857D01*
X12234925Y2795270D01*
X12245847Y2784347D01*
X12251181Y2773426D01*
X12256770Y2757170D01*
X12256770Y2729992D01*
X12251181Y2713481D01*
X12245847Y2702560D01*
X12234925Y2691637D01*
X12224004Y2686304D01*
X12202159Y2686304D01*
X12191238Y2691637D01*
X12180315Y2702560D01*
X12174727Y2713481D01*
X12084304Y2800857D02*
G01*
X12084304Y2713481D01*
X12089638Y2697226D01*
X12095225Y2691637D01*
X12106147Y2686304D01*
X12117070Y2686304D01*
X12127991Y2691637D01*
X12133325Y2697226D01*
X12138913Y2713481D01*
X12138913Y2724404D01*
X12048236Y2800857D02*
G01*
X12048236Y2686304D01*
X12048236Y2686304D02*
G01*
X11982958Y2686304D01*
X11865102Y2773426D02*
G01*
X11870436Y2784347D01*
X11881358Y2795270D01*
X11892279Y2800857D01*
X11914124Y2800857D01*
X11925045Y2795270D01*
X11935968Y2784347D01*
X11941302Y2773426D01*
X11946890Y2757170D01*
X11946890Y2729992D01*
X11941302Y2713481D01*
X11935968Y2702560D01*
X11925045Y2691637D01*
X11914124Y2686304D01*
X11892279Y2686304D01*
X11881358Y2691637D01*
X11870436Y2702560D01*
X11865102Y2713481D01*
X13436600Y10700189D02*
G01*
X13436600Y10585645D01*
X13436600Y10585645D02*
G01*
X13371146Y10585645D01*
X13335144Y10700189D02*
G01*
X13335144Y10585645D01*
X13335144Y10700189D02*
G01*
X13264235Y10700189D01*
X13335144Y10645645D02*
G01*
X13291510Y10645645D01*
X13335144Y10585645D02*
G01*
X13264235Y10585645D01*
X13228236Y10700189D02*
G01*
X13228236Y10585645D01*
X13228236Y10700189D02*
G01*
X13190054Y10700189D01*
X13173692Y10694736D01*
X13162782Y10683826D01*
X13157327Y10672917D01*
X13151873Y10656554D01*
X13151873Y10629282D01*
X13157327Y10612917D01*
X13162782Y10602008D01*
X13173692Y10591098D01*
X13190054Y10585645D01*
X13228236Y10585645D01*
X13031873Y10700189D02*
G01*
X13031873Y10585645D01*
X13031873Y10700189D02*
G01*
X12982783Y10700189D01*
X12966418Y10694736D01*
X12960964Y10689282D01*
X12955511Y10678373D01*
X12955511Y10667464D01*
X12960964Y10656554D01*
X12966418Y10651098D01*
X12982783Y10645645D01*
X13031873Y10645645D02*
G01*
X12982783Y10645645D01*
X12966418Y10640189D01*
X12960964Y10634736D01*
X12955511Y10623826D01*
X12955511Y10607464D01*
X12960964Y10596554D01*
X12966418Y10591098D01*
X12982783Y10585645D01*
X13031873Y10585645D01*
X12886783Y10700189D02*
G01*
X12897690Y10694736D01*
X12908600Y10683826D01*
X12914055Y10672917D01*
X12919509Y10656554D01*
X12919509Y10629282D01*
X12914055Y10612917D01*
X12908600Y10602008D01*
X12897690Y10591098D01*
X12886783Y10585645D01*
X12864965Y10585645D01*
X12854056Y10591098D01*
X12843146Y10602008D01*
X12837690Y10612917D01*
X12832237Y10629282D01*
X12832237Y10656554D01*
X12837690Y10672917D01*
X12843146Y10683826D01*
X12854056Y10694736D01*
X12864965Y10700189D01*
X12886783Y10700189D01*
X12752600Y10700189D02*
G01*
X12796238Y10585645D01*
X12752600Y10700189D02*
G01*
X12708966Y10585645D01*
X12779872Y10623826D02*
G01*
X12725328Y10623826D01*
X12672964Y10700189D02*
G01*
X12672964Y10585645D01*
X12672964Y10700189D02*
G01*
X12623873Y10700189D01*
X12607510Y10694736D01*
X12602055Y10689282D01*
X12596601Y10678373D01*
X12596601Y10667464D01*
X12602055Y10656554D01*
X12607510Y10651098D01*
X12623873Y10645645D01*
X12672964Y10645645D01*
X12634782Y10645645D02*
G01*
X12596601Y10585645D01*
X12560602Y10700189D02*
G01*
X12560602Y10585645D01*
X12560602Y10700189D02*
G01*
X12522420Y10700189D01*
X12506055Y10694736D01*
X12495146Y10683826D01*
X12489693Y10672917D01*
X12484237Y10656554D01*
X12484237Y10629282D01*
X12489693Y10612917D01*
X12495146Y10602008D01*
X12506055Y10591098D01*
X12522420Y10585645D01*
X12560602Y10585645D01*
X12364237Y10634736D02*
G01*
X12266056Y10634736D01*
X12062056Y10700189D02*
G01*
X12062056Y10585645D01*
X12062056Y10700189D02*
G01*
X12012965Y10700189D01*
X11996602Y10694736D01*
X11991149Y10689282D01*
X11985693Y10678373D01*
X11985693Y10667464D01*
X11991149Y10656554D01*
X11996602Y10651098D01*
X12012965Y10645645D01*
X12062056Y10645645D02*
G01*
X12012965Y10645645D01*
X11996602Y10640189D01*
X11991149Y10634736D01*
X11985693Y10623826D01*
X11985693Y10607464D01*
X11991149Y10596554D01*
X11996602Y10591098D01*
X12012965Y10585645D01*
X12062056Y10585645D01*
X11916966Y10700189D02*
G01*
X11927875Y10694736D01*
X11938784Y10683826D01*
X11944238Y10672917D01*
X11949694Y10656554D01*
X11949694Y10629282D01*
X11944238Y10612917D01*
X11938784Y10602008D01*
X11927875Y10591098D01*
X11916966Y10585645D01*
X11895147Y10585645D01*
X11884238Y10591098D01*
X11873331Y10602008D01*
X11867875Y10612917D01*
X11862422Y10629282D01*
X11862422Y10656554D01*
X11867875Y10672917D01*
X11873331Y10683826D01*
X11884238Y10694736D01*
X11895147Y10700189D01*
X11916966Y10700189D01*
X11788239Y10700189D02*
G01*
X11788239Y10585645D01*
X11826420Y10700189D02*
G01*
X11750057Y10700189D01*
X11675877Y10700189D02*
G01*
X11675877Y10585645D01*
X11714058Y10700189D02*
G01*
X11637693Y10700189D01*
X11568968Y10700189D02*
G01*
X11579875Y10694736D01*
X11590784Y10683826D01*
X11596240Y10672917D01*
X11601693Y10656554D01*
X11601693Y10629282D01*
X11596240Y10612917D01*
X11590784Y10602008D01*
X11579875Y10591098D01*
X11568968Y10585645D01*
X11547149Y10585645D01*
X11536240Y10591098D01*
X11525331Y10602008D01*
X11519875Y10612917D01*
X11514421Y10629282D01*
X11514421Y10656554D01*
X11519875Y10672917D01*
X11525331Y10683826D01*
X11536240Y10694736D01*
X11547149Y10700189D01*
X11568968Y10700189D01*
X11478422Y10700189D02*
G01*
X11478422Y10585645D01*
X11478422Y10700189D02*
G01*
X11434785Y10585645D01*
X11391150Y10700189D02*
G01*
X11434785Y10585645D01*
X11391150Y10700189D02*
G01*
X11391150Y10585645D01*
D11*
X12997446Y11162609D02*
G01*
X12997446Y11089881D01*
X13001990Y11076246D01*
X13006537Y11071699D01*
X13015628Y11067153D01*
X13024718Y11067153D01*
X13033809Y11071699D01*
X13038353Y11076246D01*
X13042900Y11089881D01*
X13042900Y11098971D01*
X12967446Y11144427D02*
G01*
X12958353Y11148971D01*
X12944718Y11162609D01*
X12944718Y11067153D01*
X12997446Y2513909D02*
G01*
X12997446Y2441181D01*
X13001990Y2427546D01*
X13006537Y2422999D01*
X13015628Y2418453D01*
X13024718Y2418453D01*
X13033809Y2422999D01*
X13038353Y2427546D01*
X13042900Y2441181D01*
X13042900Y2450271D01*
X12962900Y2491181D02*
G01*
X12962900Y2495727D01*
X12958353Y2504818D01*
X12953809Y2509362D01*
X12944718Y2513909D01*
X12926537Y2513909D01*
X12917446Y2509362D01*
X12912900Y2504818D01*
X12908353Y2495727D01*
X12908353Y2486637D01*
X12912900Y2477546D01*
X12921990Y2463909D01*
X12967446Y2418453D01*
X12903809Y2418453D01*
D12*
X12249099Y11010900D02*
G01*
X12249099Y11201400D01*
X12046000Y11012500D02*
G01*
X12845999Y11012500D01*
X12845999Y11212499D01*
X12046000Y11212499D01*
X12046000Y11012500D01*
X12249099Y2362200D02*
G01*
X12249099Y2552700D01*
X12046000Y2363800D02*
G01*
X12845999Y2363800D01*
X12845999Y2563799D01*
X12046000Y2563799D01*
X12046000Y2363800D01*
M02*
