G04 Layer: TopSolderMaskLayer*
G04 EasyEDA v6.5.29, 2023-07-18 11:22:46*
G04 d896c42b98474c1f997fee1a3b510d80,5a6b42c53f6a479593ecc07194224c93,10*
G04 Gerber Generator version 0.2*
G04 Scale: 100 percent, Rotated: No, Reflected: No *
G04 Dimensions in millimeters *
G04 leading zeros omitted , absolute positions ,4 integer and 5 decimal *
%FSLAX45Y45*%
%MOMM*%

%AMMACRO1*1,1,$1,$2,$3*1,1,$1,$4,$5*1,1,$1,0-$2,0-$3*1,1,$1,0-$4,0-$5*20,1,$1,$2,$3,$4,$5,0*20,1,$1,$4,$5,0-$2,0-$3,0*20,1,$1,0-$2,0-$3,0-$4,0-$5,0*20,1,$1,0-$4,0-$5,$2,$3,0*4,1,4,$2,$3,$4,$5,0-$2,0-$3,0-$4,0-$5,$2,$3,0*%
%ADD10C,1.5016*%
%ADD11MACRO1,0.1016X-0.762X-0.7X0.762X-0.7*%
%ADD12MACRO1,0.1016X-0.275X0.275X0.275X0.275*%
%ADD13MACRO1,0.1016X-0.3262X0.2118X0.2118X0.3262*%
%ADD14MACRO1,0.1016X-0.3631X0.1394X0.1394X0.3631*%
%ADD15MACRO1,0.1016X-0.3631X0.1394X0.1393X0.3631*%
%ADD16MACRO1,0.1016X-0.3841X0.0608X0.0608X0.3841*%
%ADD17MACRO1,0.1016X-0.3841X0.0609X0.0608X0.3841*%
%ADD18MACRO1,0.1016X-0.3884X-0.0204X-0.0204X0.3884*%
%ADD19MACRO1,0.1016X-0.3884X-0.0203X-0.0204X0.3884*%
%ADD20MACRO1,0.1016X-0.3757X-0.1007X-0.1007X0.3757*%
%ADD21MACRO1,0.1016X-0.3757X-0.1006X-0.1007X0.3757*%
%ADD22MACRO1,0.1016X-0.3465X-0.1766X-0.1766X0.3465*%
%ADD23MACRO1,0.1016X-0.3465X-0.1765X-0.1766X0.3465*%
%ADD24MACRO1,0.1016X-0.3022X-0.2448X-0.2448X0.3022*%
%ADD25MACRO1,0.1016X-0.3022X-0.2447X-0.2448X0.3022*%
%ADD26MACRO1,0.1016X-0.2447X-0.3022X-0.3022X0.2448*%
%ADD27MACRO1,0.1016X-0.2448X-0.3022X-0.3022X0.2447*%
%ADD28MACRO1,0.1016X-0.1765X-0.3465X-0.3465X0.1765*%
%ADD29MACRO1,0.1016X-0.1766X-0.3465X-0.3465X0.1765*%
%ADD30MACRO1,0.1016X-0.1006X-0.3757X-0.3756X0.1007*%
%ADD31MACRO1,0.1016X-0.1006X-0.3757X-0.3757X0.1006*%
%ADD32MACRO1,0.1016X-0.1007X-0.3757X-0.3757X0.1006*%
%ADD33MACRO1,0.1016X-0.0203X-0.3884X-0.3884X0.0203*%
%ADD34MACRO1,0.1016X-0.0204X-0.3884X-0.3884X0.0204*%
%ADD35MACRO1,0.1016X-0.0204X-0.3884X-0.3884X0.0203*%
%ADD36MACRO1,0.1016X0.0608X-0.3841X-0.3841X-0.0608*%
%ADD37MACRO1,0.1016X0.0608X-0.3841X-0.3841X-0.0609*%
%ADD38MACRO1,0.1016X0.1394X-0.3631X-0.3631X-0.1394*%
%ADD39MACRO1,0.1016X0.1393X-0.3631X-0.3631X-0.1394*%
%ADD40MACRO1,0.1016X0.2118X-0.3262X-0.3262X-0.2118*%
%ADD41MACRO1,0.1016X-0.2118X0.3262X0.3262X0.2118*%
%ADD42MACRO1,0.1016X-0.1394X0.3631X0.3631X0.1394*%
%ADD43MACRO1,0.1016X-0.1393X0.3631X0.3631X0.1394*%
%ADD44MACRO1,0.1016X-0.0608X0.3841X0.3841X0.0608*%
%ADD45MACRO1,0.1016X-0.0608X0.3841X0.3841X0.0609*%
%ADD46MACRO1,0.1016X0.0203X0.3884X0.3884X-0.0203*%
%ADD47MACRO1,0.1016X0.0204X0.3884X0.3884X-0.0204*%
%ADD48MACRO1,0.1016X0.0204X0.3884X0.3884X-0.0203*%
%ADD49MACRO1,0.1016X0.1006X0.3757X0.3756X-0.1007*%
%ADD50MACRO1,0.1016X0.1006X0.3757X0.3757X-0.1006*%
%ADD51MACRO1,0.1016X0.1007X0.3757X0.3757X-0.1006*%
%ADD52MACRO1,0.1016X0.1765X0.3465X0.3465X-0.1765*%
%ADD53MACRO1,0.1016X0.1766X0.3465X0.3465X-0.1765*%
%ADD54MACRO1,0.1016X0.2447X0.3022X0.3022X-0.2448*%
%ADD55MACRO1,0.1016X0.2448X0.3022X0.3022X-0.2447*%
%ADD56MACRO1,0.1016X0.3022X0.2448X0.2448X-0.3022*%
%ADD57MACRO1,0.1016X0.3022X0.2447X0.2448X-0.3022*%
%ADD58MACRO1,0.1016X0.3465X0.1766X0.1766X-0.3465*%
%ADD59MACRO1,0.1016X0.3465X0.1765X0.1766X-0.3465*%
%ADD60MACRO1,0.1016X0.3757X0.1007X0.1007X-0.3757*%
%ADD61MACRO1,0.1016X0.3757X0.1006X0.1007X-0.3757*%
%ADD62MACRO1,0.1016X0.3884X0.0204X0.0204X-0.3884*%
%ADD63MACRO1,0.1016X0.3884X0.0203X0.0204X-0.3884*%
%ADD64MACRO1,0.1016X0.3841X-0.0608X-0.0608X-0.3841*%
%ADD65MACRO1,0.1016X0.3841X-0.0609X-0.0608X-0.3841*%
%ADD66MACRO1,0.1016X0.3631X-0.1394X-0.1394X-0.3631*%
%ADD67MACRO1,0.1016X0.3631X-0.1394X-0.1393X-0.3631*%
%ADD68MACRO1,0.1016X0.3262X-0.2118X-0.2118X-0.3262*%
%ADD69MACRO1,0.1016X0.275X-0.275X-0.275X-0.275*%
%ADD70MACRO1,0.1016X0.0609X-0.3841X-0.3841X-0.0608*%
%ADD71MACRO1,0.1016X-0.1006X-0.3757X-0.3756X0.1006*%
%ADD72MACRO1,0.1016X-0.1765X-0.3465X-0.3465X0.1766*%
%ADD73MACRO1,0.1016X-0.1766X-0.3465X-0.3465X0.1766*%
%ADD74MACRO1,0.1016X-0.2448X-0.3022X-0.3022X0.2448*%
%ADD75MACRO1,0.1016X-0.2447X-0.3022X-0.3022X0.2447*%
%ADD76MACRO1,0.1016X-0.3261X0.2118X0.2118X0.3262*%
%ADD77C,0.0121*%

%LPD*%
D10*
G01*
X12745999Y11112500D03*
G01*
X12545999Y11112500D03*
G01*
X12346000Y11112500D03*
D11*
G01*
X12146000Y11112500D03*
D10*
G01*
X12745999Y2463800D03*
G01*
X12545999Y2463800D03*
G01*
X12346000Y2463800D03*
D11*
G01*
X12146000Y2463800D03*
D12*
G01*
X13262098Y9308823D03*
G01*
X13262098Y9213806D03*
G01*
X13357120Y9213801D03*
G01*
X13357119Y9308823D03*
D13*
G01*
X13233587Y9485028D03*
G01*
X13253344Y9392088D03*
G01*
X13346291Y9411839D03*
G01*
X13326534Y9504782D03*
D14*
G01*
X13169066Y9651456D03*
G01*
X13207714Y9564655D03*
D15*
G01*
X13294525Y9603299D03*
D14*
G01*
X13255875Y9690103D03*
D16*
G01*
X13071353Y9800832D03*
G01*
X13127202Y9723963D03*
D17*
G01*
X13204080Y9779810D03*
G01*
X13148227Y9856683D03*
D18*
G01*
X12944717Y9926629D03*
G01*
X13015328Y9863052D03*
D19*
G01*
X13078914Y9933661D03*
G01*
X13008300Y9997243D03*
D20*
G01*
X12794695Y10023346D03*
G01*
X12876980Y9975838D03*
D21*
G01*
X12924496Y10058125D03*
G01*
X12842205Y10105635D03*
D22*
G01*
X12627842Y10086757D03*
G01*
X12718206Y10057397D03*
D23*
G01*
X12747575Y10147766D03*
G01*
X12657204Y10177128D03*
D24*
G01*
X12451452Y10114094D03*
G01*
X12545947Y10104163D03*
D25*
G01*
X12555884Y10198661D03*
G01*
X12461383Y10208595D03*
D26*
G01*
X12273226Y10104158D03*
G01*
X12367723Y10114092D03*
D27*
G01*
X12357795Y10208595D03*
G01*
X12263296Y10198660D03*
D28*
G01*
X12100967Y10057387D03*
G01*
X12191333Y10086750D03*
D29*
G01*
X12161975Y10177123D03*
G01*
X12071606Y10147758D03*
D30*
G01*
X11942196Y9975822D03*
D31*
G01*
X12024481Y10023331D03*
D32*
G01*
X11976977Y10105626D03*
G01*
X11894687Y10058114D03*
D33*
G01*
X11803852Y9863030D03*
D34*
G01*
X11874463Y9926608D03*
D35*
G01*
X11810886Y9997227D03*
G01*
X11740272Y9933645D03*
D36*
G01*
X11691984Y9723937D03*
D37*
G01*
X11747832Y9800808D03*
G01*
X11670962Y9856665D03*
G01*
X11615110Y9779791D03*
D38*
G01*
X11611476Y9564627D03*
G01*
X11650122Y9651429D03*
D39*
G01*
X11563319Y9690083D03*
G01*
X11524670Y9603276D03*
D40*
G01*
X11565854Y9392060D03*
G01*
X11585608Y9484998D03*
G01*
X11492664Y9504760D03*
G01*
X11472908Y9411816D03*
D41*
G01*
X13249945Y9130539D03*
G01*
X13230191Y9037600D03*
G01*
X13323135Y9017839D03*
G01*
X13342891Y9110783D03*
D42*
G01*
X13204323Y8957971D03*
G01*
X13165677Y8871169D03*
D43*
G01*
X13252480Y8832515D03*
G01*
X13291129Y8919323D03*
D44*
G01*
X13123815Y8798661D03*
D45*
G01*
X13067967Y8721791D03*
G01*
X13144837Y8665933D03*
G01*
X13200689Y8742808D03*
D46*
G01*
X13011947Y8659568D03*
D47*
G01*
X12941336Y8595991D03*
D48*
G01*
X13004913Y8525371D03*
G01*
X13075527Y8588954D03*
D49*
G01*
X12873603Y8546777D03*
D50*
G01*
X12791318Y8499267D03*
D51*
G01*
X12838822Y8416973D03*
G01*
X12921112Y8464485D03*
D52*
G01*
X12714832Y8465211D03*
G01*
X12624466Y8435849D03*
D53*
G01*
X12653824Y8345476D03*
G01*
X12744193Y8374841D03*
D54*
G01*
X12542573Y8418441D03*
G01*
X12448076Y8408507D03*
D55*
G01*
X12458004Y8314004D03*
G01*
X12552503Y8323939D03*
D56*
G01*
X12364347Y8408504D03*
G01*
X12269852Y8418436D03*
D57*
G01*
X12259915Y8323938D03*
G01*
X12354416Y8314004D03*
D58*
G01*
X12187957Y8435841D03*
G01*
X12097593Y8465201D03*
D59*
G01*
X12068224Y8374833D03*
G01*
X12158595Y8345470D03*
D60*
G01*
X12021104Y8499252D03*
G01*
X11938819Y8546760D03*
D61*
G01*
X11891303Y8464473D03*
G01*
X11973594Y8416964D03*
D62*
G01*
X11871082Y8595969D03*
G01*
X11800471Y8659547D03*
D63*
G01*
X11736885Y8588937D03*
G01*
X11807499Y8525356D03*
D64*
G01*
X11744446Y8721766D03*
G01*
X11688597Y8798636D03*
D65*
G01*
X11611719Y8742789D03*
G01*
X11667572Y8665916D03*
D66*
G01*
X11646733Y8871143D03*
G01*
X11608085Y8957943D03*
D67*
G01*
X11521274Y8919300D03*
D66*
G01*
X11559924Y8832495D03*
D68*
G01*
X11582212Y9037571D03*
G01*
X11562455Y9130511D03*
G01*
X11469508Y9110760D03*
G01*
X11489265Y9017816D03*
D69*
G01*
X11553701Y9213776D03*
G01*
X11553701Y9308792D03*
G01*
X11458679Y9308797D03*
G01*
X11458680Y9213776D03*
G01*
X11553590Y6927776D03*
G01*
X11553590Y7022792D03*
G01*
X11458567Y7022797D03*
G01*
X11458568Y6927776D03*
D68*
G01*
X11582100Y6751571D03*
G01*
X11562344Y6844511D03*
G01*
X11469396Y6824760D03*
G01*
X11489154Y6731816D03*
D66*
G01*
X11646621Y6585143D03*
G01*
X11607973Y6671943D03*
D67*
G01*
X11521163Y6633300D03*
D66*
G01*
X11559813Y6546495D03*
D64*
G01*
X11744335Y6435766D03*
G01*
X11688485Y6512636D03*
D65*
G01*
X11611607Y6456789D03*
G01*
X11667460Y6379916D03*
D62*
G01*
X11870970Y6309969D03*
G01*
X11800359Y6373547D03*
D63*
G01*
X11736773Y6302937D03*
G01*
X11807388Y6239356D03*
D60*
G01*
X12020993Y6213252D03*
G01*
X11938707Y6260760D03*
D61*
G01*
X11891191Y6178473D03*
G01*
X11973482Y6130964D03*
D58*
G01*
X12187845Y6149841D03*
G01*
X12097481Y6179201D03*
D59*
G01*
X12068112Y6088833D03*
G01*
X12158483Y6059470D03*
D56*
G01*
X12364236Y6122504D03*
G01*
X12269740Y6132436D03*
D57*
G01*
X12259804Y6037938D03*
G01*
X12354304Y6028004D03*
D54*
G01*
X12542461Y6132441D03*
G01*
X12447964Y6122507D03*
D55*
G01*
X12457892Y6028004D03*
G01*
X12552391Y6037939D03*
D52*
G01*
X12714720Y6179211D03*
G01*
X12624354Y6149849D03*
D53*
G01*
X12653712Y6059476D03*
G01*
X12744081Y6088841D03*
D49*
G01*
X12873492Y6260777D03*
D50*
G01*
X12791206Y6213267D03*
D51*
G01*
X12838710Y6130973D03*
G01*
X12921000Y6178485D03*
D46*
G01*
X13011835Y6373568D03*
D47*
G01*
X12941225Y6309991D03*
D48*
G01*
X13004801Y6239371D03*
G01*
X13075415Y6302954D03*
D44*
G01*
X13123703Y6512661D03*
D45*
G01*
X13067855Y6435791D03*
G01*
X13144726Y6379933D03*
G01*
X13200578Y6456808D03*
D42*
G01*
X13204211Y6671971D03*
G01*
X13165565Y6585169D03*
D43*
G01*
X13252368Y6546515D03*
G01*
X13291017Y6633323D03*
D41*
G01*
X13249833Y6844539D03*
G01*
X13230080Y6751600D03*
G01*
X13323023Y6731839D03*
G01*
X13342780Y6824783D03*
D40*
G01*
X11565741Y7106060D03*
G01*
X11585494Y7198998D03*
G01*
X11492552Y7218760D03*
G01*
X11472796Y7125816D03*
D38*
G01*
X11611364Y7278627D03*
G01*
X11650009Y7365429D03*
G01*
X11563206Y7404083D03*
D39*
G01*
X11524559Y7317276D03*
D70*
G01*
X11691871Y7437939D03*
D36*
G01*
X11747719Y7514808D03*
D37*
G01*
X11670850Y7570665D03*
D36*
G01*
X11614998Y7493791D03*
D33*
G01*
X11803740Y7577032D03*
D35*
G01*
X11874351Y7640610D03*
G01*
X11810775Y7711229D03*
G01*
X11740160Y7647646D03*
D71*
G01*
X11942084Y7689823D03*
D32*
G01*
X12024370Y7737331D03*
G01*
X11976864Y7819626D03*
G01*
X11894574Y7772114D03*
D72*
G01*
X12100854Y7771387D03*
D73*
G01*
X12191221Y7800750D03*
D29*
G01*
X12161862Y7891123D03*
G01*
X12071494Y7861759D03*
D26*
G01*
X12273114Y7818158D03*
D74*
G01*
X12367610Y7828092D03*
D75*
G01*
X12357682Y7922595D03*
D27*
G01*
X12263184Y7912660D03*
D24*
G01*
X12451340Y7828094D03*
G01*
X12545833Y7818163D03*
D25*
G01*
X12555772Y7912662D03*
G01*
X12461271Y7922595D03*
D22*
G01*
X12627729Y7800757D03*
G01*
X12718094Y7771397D03*
D23*
G01*
X12747462Y7861766D03*
D22*
G01*
X12657093Y7891129D03*
D20*
G01*
X12794581Y7737346D03*
G01*
X12876867Y7689839D03*
D21*
G01*
X12924383Y7772126D03*
G01*
X12842093Y7819637D03*
D18*
G01*
X12944605Y7640629D03*
G01*
X13015215Y7577052D03*
D19*
G01*
X13078801Y7647661D03*
G01*
X13008187Y7711243D03*
D16*
G01*
X13071240Y7514832D03*
D17*
G01*
X13127089Y7437963D03*
D16*
G01*
X13203967Y7493811D03*
D17*
G01*
X13148114Y7570683D03*
D14*
G01*
X13168955Y7365456D03*
G01*
X13207602Y7278655D03*
G01*
X13294412Y7317299D03*
G01*
X13255762Y7404103D03*
D13*
G01*
X13233476Y7199028D03*
D76*
G01*
X13253231Y7106088D03*
D13*
G01*
X13346177Y7125839D03*
G01*
X13326419Y7218784D03*
D12*
G01*
X13261986Y7022823D03*
G01*
X13261986Y6927806D03*
G01*
X13357009Y6927801D03*
G01*
X13357007Y7022823D03*
G01*
X13262098Y4749523D03*
G01*
X13262098Y4654506D03*
G01*
X13357120Y4654501D03*
G01*
X13357119Y4749523D03*
D13*
G01*
X13233587Y4925728D03*
D76*
G01*
X13253342Y4832788D03*
D13*
G01*
X13346289Y4852539D03*
G01*
X13326531Y4945484D03*
D14*
G01*
X13169066Y5092156D03*
G01*
X13207714Y5005355D03*
G01*
X13294523Y5043999D03*
G01*
X13255873Y5130803D03*
D16*
G01*
X13071351Y5241532D03*
D17*
G01*
X13127201Y5164663D03*
D16*
G01*
X13204079Y5220511D03*
D17*
G01*
X13148226Y5297383D03*
D18*
G01*
X12944717Y5367329D03*
G01*
X13015327Y5303752D03*
D19*
G01*
X13078913Y5374361D03*
G01*
X13008298Y5437943D03*
D20*
G01*
X12794693Y5464046D03*
G01*
X12876979Y5416539D03*
D21*
G01*
X12924495Y5498826D03*
G01*
X12842205Y5546337D03*
D22*
G01*
X12627841Y5527457D03*
G01*
X12718206Y5498097D03*
D23*
G01*
X12747574Y5588466D03*
D22*
G01*
X12657204Y5617829D03*
D24*
G01*
X12451452Y5554794D03*
G01*
X12545945Y5544863D03*
D25*
G01*
X12555884Y5639362D03*
G01*
X12461383Y5649295D03*
D26*
G01*
X12273226Y5544858D03*
D74*
G01*
X12367722Y5554792D03*
D75*
G01*
X12357794Y5649295D03*
D27*
G01*
X12263296Y5639360D03*
D72*
G01*
X12100966Y5498087D03*
D73*
G01*
X12191333Y5527450D03*
D29*
G01*
X12161974Y5617823D03*
G01*
X12071606Y5588459D03*
D71*
G01*
X11942196Y5416523D03*
D32*
G01*
X12024481Y5464031D03*
G01*
X11976976Y5546326D03*
G01*
X11894686Y5498814D03*
D33*
G01*
X11803852Y5303732D03*
D35*
G01*
X11874463Y5367310D03*
G01*
X11810886Y5437929D03*
G01*
X11740272Y5374346D03*
D70*
G01*
X11691983Y5164639D03*
D36*
G01*
X11747831Y5241508D03*
D37*
G01*
X11670962Y5297365D03*
D36*
G01*
X11615110Y5220491D03*
D38*
G01*
X11611476Y5005327D03*
G01*
X11650121Y5092129D03*
G01*
X11563318Y5130783D03*
D39*
G01*
X11524670Y5043976D03*
D40*
G01*
X11565853Y4832760D03*
G01*
X11585606Y4925698D03*
G01*
X11492664Y4945460D03*
G01*
X11472908Y4852516D03*
D41*
G01*
X13249945Y4571239D03*
G01*
X13230191Y4478300D03*
G01*
X13323135Y4458539D03*
G01*
X13342891Y4551483D03*
D42*
G01*
X13204323Y4398671D03*
G01*
X13165677Y4311869D03*
D43*
G01*
X13252480Y4273215D03*
G01*
X13291129Y4360023D03*
D44*
G01*
X13123815Y4239361D03*
D45*
G01*
X13067967Y4162491D03*
G01*
X13144837Y4106633D03*
G01*
X13200689Y4183508D03*
D46*
G01*
X13011947Y4100268D03*
D47*
G01*
X12941336Y4036691D03*
D48*
G01*
X13004913Y3966071D03*
G01*
X13075527Y4029654D03*
D49*
G01*
X12873603Y3987477D03*
D50*
G01*
X12791318Y3939967D03*
D51*
G01*
X12838822Y3857673D03*
G01*
X12921112Y3905185D03*
D52*
G01*
X12714832Y3905911D03*
G01*
X12624466Y3876549D03*
D53*
G01*
X12653824Y3786176D03*
G01*
X12744193Y3815541D03*
D54*
G01*
X12542573Y3859141D03*
G01*
X12448076Y3849207D03*
D55*
G01*
X12458004Y3754704D03*
G01*
X12552503Y3764639D03*
D56*
G01*
X12364347Y3849204D03*
G01*
X12269852Y3859136D03*
D57*
G01*
X12259915Y3764638D03*
G01*
X12354416Y3754704D03*
D58*
G01*
X12187957Y3876541D03*
G01*
X12097593Y3905901D03*
D59*
G01*
X12068224Y3815533D03*
G01*
X12158595Y3786170D03*
D60*
G01*
X12021104Y3939952D03*
G01*
X11938819Y3987460D03*
D61*
G01*
X11891303Y3905173D03*
G01*
X11973594Y3857664D03*
D62*
G01*
X11871082Y4036669D03*
G01*
X11800471Y4100247D03*
D63*
G01*
X11736885Y4029637D03*
G01*
X11807499Y3966056D03*
D64*
G01*
X11744446Y4162466D03*
G01*
X11688597Y4239336D03*
D65*
G01*
X11611719Y4183489D03*
G01*
X11667572Y4106616D03*
D66*
G01*
X11646733Y4311843D03*
G01*
X11608085Y4398643D03*
D67*
G01*
X11521274Y4360000D03*
D66*
G01*
X11559924Y4273195D03*
D68*
G01*
X11582212Y4478271D03*
G01*
X11562455Y4571211D03*
G01*
X11469508Y4551460D03*
G01*
X11489265Y4458516D03*
D69*
G01*
X11553701Y4654476D03*
G01*
X11553701Y4749492D03*
G01*
X11458679Y4749497D03*
G01*
X11458680Y4654476D03*
M02*
