M48
METRIC,LZ,000.000
;FILE_FORMAT=3:3
;TYPE=PLATED
;Layer: PTH_Through_Via
;EasyEDA v6.5.29, 2023-07-18 11:29:47
;d241b5e9eba042f2855d0ef1ce65199e,5a6b42c53f6a479593ecc07194224c93,10
;Gerber Generator version 0.2
;Holesize 1 = 0.305 mm
T01C0.305
%
G05
G90
T01
X-011566Y020767
X-017916Y015687
X-017916Y012446
X-032521Y020955
X-032521Y052324
X-031886Y008763
X-031886Y053594
X-033156Y029972
X-033156Y051054
X-033791Y042164
X-033791Y049784
X-026171Y072390
X-026171Y048514
X-026806Y084455
X-026806Y047244
X-028076Y051689
X-028076Y044704
X-027441Y063246
X-027441Y045974
X-036449Y026670
X-017272Y026670
X-017281Y049784
X-017916Y038989
X-017916Y051054
X-017916Y059491
X-017916Y052324
X-017281Y080700
X-017281Y053594
X-006486Y038354
X-005724Y039624
X-001406Y021717
X-018796Y040894
X-018796Y021717
X031614Y026670
X072517Y081026
X058284Y026670
X058293Y081026
X-025536Y017587
X-025536Y014605
X-024774Y015687
X-024774Y012065
X-005715Y028702
X-041529Y028702
X-006477Y028067
X-044831Y028067
X-021980Y016637
X-021980Y021717
X-021980Y029972
X-011123Y042127
X-011123Y029972
X-021971Y019558
X023994Y019558
X-030480Y017272
X-006477Y029972
X-005715Y031623
X034154Y012700
X031614Y013335
X026534Y013970
X023994Y018415
X021454Y020447
X018914Y021082
X013834Y014605
X011294Y015240
X008754Y015875
X006214Y016510
X001134Y017145
X-001406Y017780
X076524Y013970
X074525Y013335
X072524Y012700
X060451Y018415
X060451Y068199
X059816Y020447
X059816Y045339
X059181Y021082
X059181Y022606
X081152Y014605
X081152Y073279
X080517Y015240
X080517Y068199
X079882Y015875
X079882Y050419
X079247Y016510
X079247Y045339
X078612Y017145
X078612Y027686
X077977Y017780
X077977Y022606
X-019685Y021717
M30
