G04 Layer: BottomSolderMaskLayer*
G04 EasyEDA v6.5.29, 2023-07-18 11:29:47*
G04 d241b5e9eba042f2855d0ef1ce65199e,5a6b42c53f6a479593ecc07194224c93,10*
G04 Gerber Generator version 0.2*
G04 Scale: 100 percent, Rotated: No, Reflected: No *
G04 Dimensions in millimeters *
G04 leading zeros omitted , absolute positions ,4 integer and 5 decimal *
%FSLAX45Y45*%
%MOMM*%

%AMMACRO1*1,1,$1,$2,$3*1,1,$1,$4,$5*1,1,$1,0-$2,0-$3*1,1,$1,0-$4,0-$5*20,1,$1,$2,$3,$4,$5,0*20,1,$1,$4,$5,0-$2,0-$3,0*20,1,$1,0-$2,0-$3,0-$4,0-$5,0*20,1,$1,0-$4,0-$5,$2,$3,0*4,1,4,$2,$3,$4,$5,0-$2,0-$3,0-$4,0-$5,$2,$3,0*%
%ADD10C,0.2032*%
%ADD11MACRO1,0.1016X1.1038X-1.296X1.1038X1.296*%
%ADD12MACRO1,0.1016X-1.1038X-1.296X-1.1038X1.296*%
%ADD13MACRO1,0.1016X-0.4X-0.4X0.4X-0.4*%
%ADD14MACRO1,0.1016X-0.432X-0.4032X0.432X-0.4032*%
%ADD15MACRO1,0.1016X-0.432X0.4032X0.432X0.4032*%
%ADD16MACRO1,0.1016X0.4032X-0.432X0.4032X0.432*%
%ADD17MACRO1,0.1016X-0.4032X-0.432X-0.4032X0.432*%
%ADD18O,2.4896064X0.6755891999999999*%
%ADD19MACRO1,0.1016X-0.4032X0.432X-0.4032X-0.432*%
%ADD20MACRO1,0.1016X0.4032X0.432X0.4032X-0.432*%
%ADD21MACRO1,0.1016X-0.4X-0.45X0.4X-0.45*%
%ADD22C,1.9016*%
%ADD23MACRO1,0.1016X-0.85X-0.9X-0.85X0.9*%
%ADD24MACRO1,0.1016X-0.536X0.266X-0.536X-0.266*%
%ADD25MACRO1,0.1016X0.85X-0.85X0.85X0.85*%
%ADD26C,1.8016*%
%ADD27C,1.8532*%
%ADD28C,1.5016*%
%ADD29MACRO1,0.1016X-0.762X0.7X0.762X0.7*%
%ADD30C,0.0129*%

%LPD*%
D10*
X4587773Y926063D02*
G01*
X4587773Y782881D01*
X4635500Y926063D02*
G01*
X4540044Y926063D01*
X4495045Y926063D02*
G01*
X4495045Y782881D01*
X4495045Y926063D02*
G01*
X4433681Y926063D01*
X4413227Y919246D01*
X4406409Y912426D01*
X4399589Y898791D01*
X4399589Y885154D01*
X4406409Y871517D01*
X4413227Y864699D01*
X4433681Y857882D01*
X4495045Y857882D01*
X4447319Y857882D02*
G01*
X4399589Y782881D01*
X4300044Y926063D02*
G01*
X4354591Y782881D01*
X4300044Y926063D02*
G01*
X4245500Y782881D01*
X4334136Y830607D02*
G01*
X4265955Y830607D01*
X4200499Y926063D02*
G01*
X4200499Y782881D01*
X4200499Y926063D02*
G01*
X4105046Y782881D01*
X4105046Y926063D02*
G01*
X4105046Y782881D01*
X3964592Y905609D02*
G01*
X3978226Y919246D01*
X3998681Y926063D01*
X4025953Y926063D01*
X4046407Y919246D01*
X4060045Y905609D01*
X4060045Y891971D01*
X4053227Y878337D01*
X4046407Y871517D01*
X4032773Y864699D01*
X3991864Y851062D01*
X3978226Y844245D01*
X3971409Y837427D01*
X3964592Y823790D01*
X3964592Y803335D01*
X3978226Y789701D01*
X3998681Y782881D01*
X4025953Y782881D01*
X4046407Y789701D01*
X4060045Y803335D01*
X4648200Y697463D02*
G01*
X4648200Y554281D01*
X4648200Y697463D02*
G01*
X4586836Y697463D01*
X4566381Y690646D01*
X4559564Y683826D01*
X4552744Y670191D01*
X4552744Y656554D01*
X4559564Y642917D01*
X4566381Y636099D01*
X4586836Y629282D01*
X4648200Y629282D01*
X4600473Y629282D02*
G01*
X4552744Y554281D01*
X4507745Y697463D02*
G01*
X4507745Y554281D01*
X4360473Y663371D02*
G01*
X4367291Y677009D01*
X4380928Y690646D01*
X4394563Y697463D01*
X4421835Y697463D01*
X4435472Y690646D01*
X4449109Y677009D01*
X4455927Y663371D01*
X4462744Y642917D01*
X4462744Y608827D01*
X4455927Y588373D01*
X4449109Y574735D01*
X4435472Y561101D01*
X4421835Y554281D01*
X4394563Y554281D01*
X4380928Y561101D01*
X4367291Y574735D01*
X4360473Y588373D01*
X4360473Y608827D01*
X4394563Y608827D02*
G01*
X4360473Y608827D01*
X4315472Y697463D02*
G01*
X4315472Y554281D01*
X4220016Y697463D02*
G01*
X4220016Y554281D01*
X4315472Y629282D02*
G01*
X4220016Y629282D01*
X4127291Y697463D02*
G01*
X4127291Y554281D01*
X4175018Y697463D02*
G01*
X4079562Y697463D01*
X3939108Y677009D02*
G01*
X3952745Y690646D01*
X3973200Y697463D01*
X4000472Y697463D01*
X4020926Y690646D01*
X4034563Y677009D01*
X4034563Y663371D01*
X4027746Y649737D01*
X4020926Y642917D01*
X4007291Y636099D01*
X3966382Y622462D01*
X3952745Y615645D01*
X3945928Y608827D01*
X3939108Y595190D01*
X3939108Y574735D01*
X3952745Y561101D01*
X3973200Y554281D01*
X4000472Y554281D01*
X4020926Y561101D01*
X4034563Y574735D01*
D11*
G01*
X7522875Y8102600D03*
D12*
G01*
X8225124Y8102600D03*
D13*
G01*
X-3340099Y1888489D03*
G01*
X-3340099Y1718310D03*
D14*
G01*
X-3162299Y1878724D03*
D15*
G01*
X-3162299Y1728075D03*
D16*
G01*
X-989724Y3162300D03*
D17*
G01*
X-839075Y3162300D03*
D16*
G01*
X-989724Y2997200D03*
D17*
G01*
X-839075Y2997200D03*
D18*
G01*
X-1456867Y5359400D03*
G01*
X-1456867Y5232400D03*
G01*
X-1456867Y5105400D03*
G01*
X-1456867Y4978400D03*
G01*
X-1456867Y4851400D03*
G01*
X-1456867Y4724400D03*
G01*
X-1456867Y4597400D03*
G01*
X-1456867Y4470400D03*
G01*
X-1456867Y4343400D03*
G01*
X-1456867Y4216400D03*
G01*
X-1456867Y4089400D03*
G01*
X-1456867Y3962400D03*
G01*
X-1456867Y3835400D03*
G01*
X-1456867Y3708400D03*
G01*
X-2405659Y5359400D03*
G01*
X-2405659Y5232400D03*
G01*
X-2405659Y5105400D03*
G01*
X-2405659Y4978400D03*
G01*
X-2405659Y4851400D03*
G01*
X-2405659Y4724400D03*
G01*
X-2405659Y4597400D03*
G01*
X-2405659Y4470400D03*
G01*
X-2405659Y4343400D03*
G01*
X-2405659Y4216400D03*
G01*
X-2405659Y4089400D03*
G01*
X-2405659Y3962400D03*
G01*
X-2405659Y3835400D03*
G01*
X-2405659Y3708400D03*
D16*
G01*
X-3949688Y7239000D03*
D17*
G01*
X-3799038Y7239000D03*
D19*
G01*
X-3799038Y8445500D03*
D20*
G01*
X-3949688Y8445500D03*
D16*
G01*
X-3949688Y6324600D03*
D17*
G01*
X-3799038Y6324600D03*
D16*
G01*
X-3949688Y5118100D03*
D17*
G01*
X-3799038Y5118100D03*
D16*
G01*
X-3949688Y2997200D03*
D17*
G01*
X-3799038Y2997200D03*
D16*
G01*
X-3949688Y4216400D03*
D17*
G01*
X-3799038Y4216400D03*
D16*
G01*
X-3949688Y876300D03*
D17*
G01*
X-3799038Y876300D03*
D16*
G01*
X-3949688Y2095500D03*
D17*
G01*
X-3799038Y2095500D03*
D21*
G01*
X-972263Y4343400D03*
G01*
X-1112263Y4343400D03*
D22*
G01*
X-2807563Y1727200D03*
D23*
G01*
X-2807562Y2489200D03*
D22*
G01*
X-2807563Y2235200D03*
G01*
X-2807563Y1981200D03*
D24*
G01*
X-2083053Y2266696D03*
G01*
X-2083053Y2171700D03*
G01*
X-2083053Y2076703D03*
G01*
X-2312873Y2076703D03*
G01*
X-2312873Y2171700D03*
G01*
X-2312873Y2266696D03*
G01*
X-2083053Y1758696D03*
G01*
X-2083053Y1663700D03*
G01*
X-2083053Y1568703D03*
G01*
X-2312873Y1568703D03*
G01*
X-2312873Y1663700D03*
G01*
X-2312873Y1758696D03*
D25*
G01*
X8266836Y6565900D03*
D26*
G01*
X8266836Y6819900D03*
G01*
X8266836Y7073900D03*
G01*
X8266836Y7327900D03*
G01*
X6234836Y7327900D03*
G01*
X6234836Y6565900D03*
G01*
X6234836Y6819900D03*
G01*
X6234836Y7073900D03*
G01*
X6234836Y5041900D03*
G01*
X6234836Y4279900D03*
G01*
X6234836Y4533900D03*
G01*
X6234836Y4787900D03*
D25*
G01*
X8266836Y4279900D03*
D26*
G01*
X8266836Y4533900D03*
G01*
X8266836Y4787900D03*
G01*
X8266836Y5041900D03*
G01*
X6234836Y2768600D03*
G01*
X6234836Y2006600D03*
G01*
X6234836Y2260600D03*
G01*
X6234836Y2514600D03*
D25*
G01*
X8266836Y2006600D03*
D26*
G01*
X8266836Y2260600D03*
G01*
X8266836Y2514600D03*
G01*
X8266836Y2768600D03*
D27*
G01*
X-3645763Y7620000D03*
G01*
X-4295775Y7620000D03*
G01*
X-3645763Y8070011D03*
G01*
X-4295775Y8070011D03*
G01*
X-3970756Y8204987D03*
G01*
X-3610762Y7844993D03*
G01*
X-3950563Y7493000D03*
G01*
X-4331563Y7848600D03*
G01*
X-3645763Y5499100D03*
G01*
X-4295775Y5499100D03*
G01*
X-3645763Y5949111D03*
G01*
X-4295775Y5949111D03*
G01*
X-3970756Y6084087D03*
G01*
X-3610762Y5724093D03*
G01*
X-3950563Y5372100D03*
G01*
X-4331563Y5727700D03*
G01*
X-3645763Y3378200D03*
G01*
X-4295775Y3378200D03*
G01*
X-3645763Y3828211D03*
G01*
X-4295775Y3828211D03*
G01*
X-3970756Y3963187D03*
G01*
X-3610762Y3603193D03*
G01*
X-3950563Y3251200D03*
G01*
X-4331563Y3606800D03*
G01*
X-3645763Y1257300D03*
G01*
X-4295775Y1257300D03*
G01*
X-3645763Y1707311D03*
G01*
X-4295775Y1707311D03*
G01*
X-3970756Y1842287D03*
G01*
X-3610762Y1482293D03*
G01*
X-3950563Y1130300D03*
G01*
X-4331563Y1485900D03*
D28*
G01*
X7652486Y8801074D03*
G01*
X7452487Y8801074D03*
G01*
X7252487Y8801074D03*
D29*
G01*
X7052485Y8801082D03*
D28*
G01*
X7652486Y152400D03*
G01*
X7452487Y152400D03*
G01*
X7252487Y152400D03*
D29*
G01*
X7052485Y152400D03*
D26*
G01*
X3415411Y2374900D03*
G01*
X3415411Y596900D03*
G01*
X3161411Y2374900D03*
G01*
X2907411Y2374900D03*
G01*
X2653411Y2374900D03*
G01*
X2399411Y2374900D03*
G01*
X2145411Y2374900D03*
G01*
X1891411Y2374900D03*
G01*
X1637436Y2374900D03*
G01*
X1383436Y2374900D03*
G01*
X1129436Y2374900D03*
G01*
X875436Y2374900D03*
G01*
X621436Y2374900D03*
G01*
X367436Y2374900D03*
G01*
X113436Y2374900D03*
G01*
X-140563Y2374900D03*
G01*
X-394563Y2374900D03*
G01*
X-648563Y2374900D03*
G01*
X-902563Y2374900D03*
G01*
X-1156563Y2374900D03*
G01*
X-1410563Y2374900D03*
G01*
X3161411Y596900D03*
G01*
X2907411Y596900D03*
G01*
X2653411Y596900D03*
G01*
X2399411Y596900D03*
G01*
X2145411Y596900D03*
G01*
X1891411Y596900D03*
G01*
X1637436Y596900D03*
G01*
X1383436Y596900D03*
G01*
X1129436Y596900D03*
G01*
X875436Y596900D03*
G01*
X621436Y596900D03*
G01*
X367436Y596900D03*
G01*
X113436Y596900D03*
G01*
X-140563Y596900D03*
G01*
X-394563Y596900D03*
G01*
X-648563Y596900D03*
G01*
X-902563Y596900D03*
G01*
X-1156563Y596900D03*
G01*
X-1410563Y596900D03*
G01*
X-1410563Y1485900D03*
G01*
X-1410563Y1739900D03*
G01*
X-1410563Y1231900D03*
G01*
X-2807563Y1206500D03*
G01*
X-2807563Y1460500D03*
G36*
X3315106Y589279D02*
G01*
X3515766Y589279D01*
X3515766Y325119D01*
X3315106Y325119D01*
G37*
G36*
X3061106Y589279D02*
G01*
X3261766Y589279D01*
X3261766Y325119D01*
X3061106Y325119D01*
G37*
G36*
X2807106Y589279D02*
G01*
X3007766Y589279D01*
X3007766Y325119D01*
X2807106Y325119D01*
G37*
G36*
X2553106Y589279D02*
G01*
X2753766Y589279D01*
X2753766Y325119D01*
X2553106Y325119D01*
G37*
G36*
X2299106Y589279D02*
G01*
X2499766Y589279D01*
X2499766Y325119D01*
X2299106Y325119D01*
G37*
G36*
X2045106Y589279D02*
G01*
X2245766Y589279D01*
X2245766Y325119D01*
X2045106Y325119D01*
G37*
G36*
X1791106Y589279D02*
G01*
X1991766Y589279D01*
X1991766Y325119D01*
X1791106Y325119D01*
G37*
G36*
X1537106Y589279D02*
G01*
X1737766Y589279D01*
X1737766Y325119D01*
X1537106Y325119D01*
G37*
G36*
X1283106Y589279D02*
G01*
X1483766Y589279D01*
X1483766Y325119D01*
X1283106Y325119D01*
G37*
G36*
X1029106Y589279D02*
G01*
X1229766Y589279D01*
X1229766Y325119D01*
X1029106Y325119D01*
G37*
G36*
X775106Y589279D02*
G01*
X975766Y589279D01*
X975766Y325119D01*
X775106Y325119D01*
G37*
G36*
X521106Y589279D02*
G01*
X721766Y589279D01*
X721766Y325119D01*
X521106Y325119D01*
G37*
G36*
X267106Y589279D02*
G01*
X467766Y589279D01*
X467766Y325119D01*
X267106Y325119D01*
G37*
G36*
X13106Y589279D02*
G01*
X213766Y589279D01*
X213766Y325119D01*
X13106Y325119D01*
G37*
G36*
X-240893Y589279D02*
G01*
X-40233Y589279D01*
X-40233Y325119D01*
X-240893Y325119D01*
G37*
G36*
X-494893Y589279D02*
G01*
X-294233Y589279D01*
X-294233Y325119D01*
X-494893Y325119D01*
G37*
G36*
X-748893Y589279D02*
G01*
X-548233Y589279D01*
X-548233Y325119D01*
X-748893Y325119D01*
G37*
G36*
X-1002893Y589279D02*
G01*
X-802233Y589279D01*
X-802233Y325119D01*
X-1002893Y325119D01*
G37*
G36*
X-1256893Y589279D02*
G01*
X-1056233Y589279D01*
X-1056233Y325119D01*
X-1256893Y325119D01*
G37*
G36*
X-1510893Y589279D02*
G01*
X-1310233Y589279D01*
X-1310233Y325119D01*
X-1510893Y325119D01*
G37*
G36*
X-1510893Y2621279D02*
G01*
X-1310233Y2621279D01*
X-1310233Y2357119D01*
X-1510893Y2357119D01*
G37*
G36*
X-1256893Y2621279D02*
G01*
X-1056233Y2621279D01*
X-1056233Y2357119D01*
X-1256893Y2357119D01*
G37*
G36*
X-1002893Y2621279D02*
G01*
X-802233Y2621279D01*
X-802233Y2357119D01*
X-1002893Y2357119D01*
G37*
G36*
X-748893Y2621279D02*
G01*
X-548233Y2621279D01*
X-548233Y2357119D01*
X-748893Y2357119D01*
G37*
G36*
X-494893Y2621279D02*
G01*
X-294233Y2621279D01*
X-294233Y2357119D01*
X-494893Y2357119D01*
G37*
G36*
X-240893Y2621279D02*
G01*
X-40233Y2621279D01*
X-40233Y2357119D01*
X-240893Y2357119D01*
G37*
G36*
X13106Y2621279D02*
G01*
X213766Y2621279D01*
X213766Y2357119D01*
X13106Y2357119D01*
G37*
G36*
X267106Y2621279D02*
G01*
X467766Y2621279D01*
X467766Y2357119D01*
X267106Y2357119D01*
G37*
G36*
X521106Y2621279D02*
G01*
X721766Y2621279D01*
X721766Y2357119D01*
X521106Y2357119D01*
G37*
G36*
X775106Y2621279D02*
G01*
X975766Y2621279D01*
X975766Y2357119D01*
X775106Y2357119D01*
G37*
G36*
X1029106Y2621279D02*
G01*
X1229766Y2621279D01*
X1229766Y2357119D01*
X1029106Y2357119D01*
G37*
G36*
X1283106Y2621279D02*
G01*
X1483766Y2621279D01*
X1483766Y2357119D01*
X1283106Y2357119D01*
G37*
G36*
X1537106Y2621279D02*
G01*
X1737766Y2621279D01*
X1737766Y2357119D01*
X1537106Y2357119D01*
G37*
G36*
X1791106Y2621279D02*
G01*
X1991766Y2621279D01*
X1991766Y2357119D01*
X1791106Y2357119D01*
G37*
G36*
X2045106Y2621279D02*
G01*
X2245766Y2621279D01*
X2245766Y2357119D01*
X2045106Y2357119D01*
G37*
G36*
X2299106Y2621279D02*
G01*
X2499766Y2621279D01*
X2499766Y2357119D01*
X2299106Y2357119D01*
G37*
G36*
X2553106Y2621279D02*
G01*
X2753766Y2621279D01*
X2753766Y2357119D01*
X2553106Y2357119D01*
G37*
G36*
X2807106Y2621279D02*
G01*
X3007766Y2621279D01*
X3007766Y2357119D01*
X2807106Y2357119D01*
G37*
G36*
X3061106Y2621279D02*
G01*
X3261766Y2621279D01*
X3261766Y2357119D01*
X3061106Y2357119D01*
G37*
G36*
X3315106Y2621279D02*
G01*
X3515766Y2621279D01*
X3515766Y2357119D01*
X3315106Y2357119D01*
G37*
G36*
X-1656943Y1331493D02*
G01*
X-1392783Y1331493D01*
X-1392783Y1130833D01*
X-1656943Y1130833D01*
G37*
G36*
X-1656943Y1585493D02*
G01*
X-1392783Y1585493D01*
X-1392783Y1384833D01*
X-1656943Y1384833D01*
G37*
G36*
X-1656943Y1839493D02*
G01*
X-1392783Y1839493D01*
X-1392783Y1638833D01*
X-1656943Y1638833D01*
G37*
M02*
