G04 Layer: TopSilkscreenLayer*
G04 EasyEDA v6.5.29, 2023-07-16 15:11:24*
G04 5560f084906b45179d65adef9f10eb2a,5a6b42c53f6a479593ecc07194224c93,10*
G04 Gerber Generator version 0.2*
G04 Scale: 100 percent, Rotated: No, Reflected: No *
G04 Dimensions in millimeters *
G04 leading zeros omitted , absolute positions ,4 integer and 5 decimal *
%FSLAX45Y45*%
%MOMM*%

%ADD10C,0.2030*%
%ADD11C,0.2032*%
%ADD12C,0.2540*%

%LPD*%
D10*
X923544Y6599428D02*
G01*
X918210Y6610350D01*
X907287Y6621271D01*
X896365Y6626860D01*
X874521Y6626860D01*
X863600Y6621271D01*
X852678Y6610350D01*
X847344Y6599428D01*
X841755Y6583171D01*
X841755Y6555994D01*
X847344Y6539484D01*
X852678Y6528562D01*
X863600Y6517639D01*
X874521Y6512305D01*
X896365Y6512305D01*
X907287Y6517639D01*
X918210Y6528562D01*
X923544Y6539484D01*
X992378Y6626860D02*
G01*
X981455Y6621271D01*
X970534Y6610350D01*
X965200Y6599428D01*
X959612Y6583171D01*
X959612Y6555994D01*
X965200Y6539484D01*
X970534Y6528562D01*
X981455Y6517639D01*
X992378Y6512305D01*
X1014221Y6512305D01*
X1025144Y6517639D01*
X1036065Y6528562D01*
X1041400Y6539484D01*
X1046987Y6555994D01*
X1046987Y6583171D01*
X1041400Y6599428D01*
X1036065Y6610350D01*
X1025144Y6621271D01*
X1014221Y6626860D01*
X992378Y6626860D01*
X1082802Y6626860D02*
G01*
X1082802Y6512305D01*
X1082802Y6626860D02*
G01*
X1132078Y6626860D01*
X1148334Y6621271D01*
X1153921Y6615937D01*
X1159255Y6605015D01*
X1159255Y6588505D01*
X1153921Y6577584D01*
X1148334Y6572250D01*
X1132078Y6566662D01*
X1082802Y6566662D01*
X1195323Y6626860D02*
G01*
X1239012Y6572250D01*
X1239012Y6512305D01*
X1282445Y6626860D02*
G01*
X1239012Y6572250D01*
X1318513Y6626860D02*
G01*
X1318513Y6512305D01*
X1318513Y6626860D02*
G01*
X1367536Y6626860D01*
X1384045Y6621271D01*
X1389379Y6615937D01*
X1394968Y6605015D01*
X1394968Y6594094D01*
X1389379Y6583171D01*
X1384045Y6577584D01*
X1367536Y6572250D01*
X1318513Y6572250D01*
X1356613Y6572250D02*
G01*
X1394968Y6512305D01*
X1430781Y6626860D02*
G01*
X1430781Y6512305D01*
X1548637Y6599428D02*
G01*
X1543304Y6610350D01*
X1532381Y6621271D01*
X1521460Y6626860D01*
X1499615Y6626860D01*
X1488694Y6621271D01*
X1477771Y6610350D01*
X1472437Y6599428D01*
X1466850Y6583171D01*
X1466850Y6555994D01*
X1472437Y6539484D01*
X1477771Y6528562D01*
X1488694Y6517639D01*
X1499615Y6512305D01*
X1521460Y6512305D01*
X1532381Y6517639D01*
X1543304Y6528562D01*
X1548637Y6539484D01*
X1548637Y6555994D01*
X1521460Y6555994D02*
G01*
X1548637Y6555994D01*
X1584705Y6626860D02*
G01*
X1584705Y6512305D01*
X1661160Y6626860D02*
G01*
X1661160Y6512305D01*
X1584705Y6572250D02*
G01*
X1661160Y6572250D01*
X1735328Y6626860D02*
G01*
X1735328Y6512305D01*
X1696973Y6626860D02*
G01*
X1773428Y6626860D01*
X1898904Y6599428D02*
G01*
X1898904Y6605015D01*
X1904237Y6615937D01*
X1909826Y6621271D01*
X1920747Y6626860D01*
X1942591Y6626860D01*
X1953513Y6621271D01*
X1958847Y6615937D01*
X1964436Y6605015D01*
X1964436Y6594094D01*
X1958847Y6583171D01*
X1947925Y6566662D01*
X1893570Y6512305D01*
X1969770Y6512305D01*
X2038604Y6626860D02*
G01*
X2022093Y6621271D01*
X2011172Y6605015D01*
X2005838Y6577584D01*
X2005838Y6561328D01*
X2011172Y6534150D01*
X2022093Y6517639D01*
X2038604Y6512305D01*
X2049525Y6512305D01*
X2065781Y6517639D01*
X2076704Y6534150D01*
X2082291Y6561328D01*
X2082291Y6577584D01*
X2076704Y6605015D01*
X2065781Y6621271D01*
X2049525Y6626860D01*
X2038604Y6626860D01*
X2123693Y6599428D02*
G01*
X2123693Y6605015D01*
X2129027Y6615937D01*
X2134615Y6621271D01*
X2145538Y6626860D01*
X2167381Y6626860D01*
X2178050Y6621271D01*
X2183638Y6615937D01*
X2188972Y6605015D01*
X2188972Y6594094D01*
X2183638Y6583171D01*
X2172715Y6566662D01*
X2118106Y6512305D01*
X2194559Y6512305D01*
X2241550Y6626860D02*
G01*
X2301493Y6626860D01*
X2268727Y6583171D01*
X2284984Y6583171D01*
X2295906Y6577584D01*
X2301493Y6572250D01*
X2306827Y6555994D01*
X2306827Y6545071D01*
X2301493Y6528562D01*
X2290572Y6517639D01*
X2274061Y6512305D01*
X2257806Y6512305D01*
X2241550Y6517639D01*
X2235961Y6523228D01*
X2230627Y6534150D01*
X2426970Y6626860D02*
G01*
X2470658Y6512305D01*
X2514091Y6626860D02*
G01*
X2470658Y6512305D01*
X2550159Y6626860D02*
G01*
X2550159Y6512305D01*
X2550159Y6626860D02*
G01*
X2621025Y6626860D01*
X2550159Y6572250D02*
G01*
X2593847Y6572250D01*
X2550159Y6512305D02*
G01*
X2621025Y6512305D01*
X2733547Y6626860D02*
G01*
X2678938Y6512305D01*
X2657093Y6626860D02*
G01*
X2733547Y6626860D01*
X2769361Y6626860D02*
G01*
X2769361Y6512305D01*
X2769361Y6626860D02*
G01*
X2840227Y6626860D01*
X2769361Y6572250D02*
G01*
X2813050Y6572250D01*
X2876295Y6626860D02*
G01*
X2876295Y6512305D01*
X2912363Y6626860D02*
G01*
X2912363Y6512305D01*
X2912363Y6626860D02*
G01*
X2956052Y6512305D01*
X2999740Y6626860D02*
G01*
X2956052Y6512305D01*
X2999740Y6626860D02*
G01*
X2999740Y6512305D01*
X3119627Y6561328D02*
G01*
X3217925Y6561328D01*
X3381502Y6626860D02*
G01*
X3337813Y6512305D01*
X3381502Y6626860D02*
G01*
X3425190Y6512305D01*
X3354070Y6550405D02*
G01*
X3408679Y6550405D01*
X3461004Y6626860D02*
G01*
X3461004Y6512305D01*
X3461004Y6512305D02*
G01*
X3526536Y6512305D01*
X3562604Y6626860D02*
G01*
X3562604Y6512305D01*
X3562604Y6512305D02*
G01*
X3627881Y6512305D01*
X3748024Y6626860D02*
G01*
X3748024Y6512305D01*
X3748024Y6626860D02*
G01*
X3797045Y6626860D01*
X3813556Y6621271D01*
X3818890Y6615937D01*
X3824477Y6605015D01*
X3824477Y6594094D01*
X3818890Y6583171D01*
X3813556Y6577584D01*
X3797045Y6572250D01*
X3748024Y6572250D01*
X3786124Y6572250D02*
G01*
X3824477Y6512305D01*
X3860291Y6626860D02*
G01*
X3860291Y6512305D01*
X3978147Y6599428D02*
G01*
X3972813Y6610350D01*
X3961891Y6621271D01*
X3950970Y6626860D01*
X3929125Y6626860D01*
X3918204Y6621271D01*
X3907281Y6610350D01*
X3901693Y6599428D01*
X3896359Y6583171D01*
X3896359Y6555994D01*
X3901693Y6539484D01*
X3907281Y6528562D01*
X3918204Y6517639D01*
X3929125Y6512305D01*
X3950970Y6512305D01*
X3961891Y6517639D01*
X3972813Y6528562D01*
X3978147Y6539484D01*
X3978147Y6555994D01*
X3950970Y6555994D02*
G01*
X3978147Y6555994D01*
X4014215Y6626860D02*
G01*
X4014215Y6512305D01*
X4090415Y6626860D02*
G01*
X4090415Y6512305D01*
X4014215Y6572250D02*
G01*
X4090415Y6572250D01*
X4164838Y6626860D02*
G01*
X4164838Y6512305D01*
X4126484Y6626860D02*
G01*
X4202938Y6626860D01*
X4315206Y6610350D02*
G01*
X4304284Y6621271D01*
X4288027Y6626860D01*
X4266184Y6626860D01*
X4249927Y6621271D01*
X4239006Y6610350D01*
X4239006Y6599428D01*
X4244340Y6588505D01*
X4249927Y6583171D01*
X4260595Y6577584D01*
X4293361Y6566662D01*
X4304284Y6561328D01*
X4309872Y6555994D01*
X4315206Y6545071D01*
X4315206Y6528562D01*
X4304284Y6517639D01*
X4288027Y6512305D01*
X4266184Y6512305D01*
X4249927Y6517639D01*
X4239006Y6528562D01*
X4435347Y6626860D02*
G01*
X4435347Y6512305D01*
X4435347Y6626860D02*
G01*
X4484370Y6626860D01*
X4500625Y6621271D01*
X4506213Y6615937D01*
X4511547Y6605015D01*
X4511547Y6594094D01*
X4506213Y6583171D01*
X4500625Y6577584D01*
X4484370Y6572250D01*
X4435347Y6572250D01*
X4473447Y6572250D02*
G01*
X4511547Y6512305D01*
X4547615Y6626860D02*
G01*
X4547615Y6512305D01*
X4547615Y6626860D02*
G01*
X4618481Y6626860D01*
X4547615Y6572250D02*
G01*
X4591304Y6572250D01*
X4547615Y6512305D02*
G01*
X4618481Y6512305D01*
X4731004Y6610350D02*
G01*
X4720081Y6621271D01*
X4703572Y6626860D01*
X4681727Y6626860D01*
X4665472Y6621271D01*
X4654550Y6610350D01*
X4654550Y6599428D01*
X4659884Y6588505D01*
X4665472Y6583171D01*
X4676393Y6577584D01*
X4709159Y6566662D01*
X4720081Y6561328D01*
X4725415Y6555994D01*
X4731004Y6545071D01*
X4731004Y6528562D01*
X4720081Y6517639D01*
X4703572Y6512305D01*
X4681727Y6512305D01*
X4665472Y6517639D01*
X4654550Y6528562D01*
X4766818Y6626860D02*
G01*
X4766818Y6512305D01*
X4766818Y6626860D02*
G01*
X4837684Y6626860D01*
X4766818Y6572250D02*
G01*
X4810506Y6572250D01*
X4766818Y6512305D02*
G01*
X4837684Y6512305D01*
X4873752Y6626860D02*
G01*
X4873752Y6512305D01*
X4873752Y6626860D02*
G01*
X4922774Y6626860D01*
X4939284Y6621271D01*
X4944618Y6615937D01*
X4950206Y6605015D01*
X4950206Y6594094D01*
X4944618Y6583171D01*
X4939284Y6577584D01*
X4922774Y6572250D01*
X4873752Y6572250D01*
X4912106Y6572250D02*
G01*
X4950206Y6512305D01*
X4986274Y6626860D02*
G01*
X5029708Y6512305D01*
X5073395Y6626860D02*
G01*
X5029708Y6512305D01*
X5109463Y6626860D02*
G01*
X5109463Y6512305D01*
X5109463Y6626860D02*
G01*
X5180329Y6626860D01*
X5109463Y6572250D02*
G01*
X5153152Y6572250D01*
X5109463Y6512305D02*
G01*
X5180329Y6512305D01*
X5216397Y6626860D02*
G01*
X5216397Y6512305D01*
X5216397Y6626860D02*
G01*
X5254497Y6626860D01*
X5271008Y6621271D01*
X5281675Y6610350D01*
X5287263Y6599428D01*
X5292597Y6583171D01*
X5292597Y6555994D01*
X5287263Y6539484D01*
X5281675Y6528562D01*
X5271008Y6517639D01*
X5254497Y6512305D01*
X5216397Y6512305D01*
D11*
X2623614Y3728925D02*
G01*
X2623614Y3641549D01*
X2618026Y3625293D01*
X2612692Y3619705D01*
X2601770Y3614371D01*
X2590848Y3614371D01*
X2579926Y3619705D01*
X2574338Y3625293D01*
X2569004Y3641549D01*
X2569004Y3652471D01*
X2659428Y3728925D02*
G01*
X2659428Y3614371D01*
X2659428Y3614371D02*
G01*
X2724960Y3614371D01*
X2842816Y3701493D02*
G01*
X2837482Y3712415D01*
X2826560Y3723337D01*
X2815638Y3728925D01*
X2793794Y3728925D01*
X2782872Y3723337D01*
X2771950Y3712415D01*
X2766362Y3701493D01*
X2761028Y3685237D01*
X2761028Y3658059D01*
X2766362Y3641549D01*
X2771950Y3630627D01*
X2782872Y3619705D01*
X2793794Y3614371D01*
X2815638Y3614371D01*
X2826560Y3619705D01*
X2837482Y3630627D01*
X2842816Y3641549D01*
X2933240Y3728925D02*
G01*
X2933240Y3641549D01*
X2927906Y3625293D01*
X2922572Y3619705D01*
X2911650Y3614371D01*
X2900728Y3614371D01*
X2889806Y3619705D01*
X2884218Y3625293D01*
X2878884Y3641549D01*
X2878884Y3652471D01*
X2969308Y3728925D02*
G01*
X2969308Y3614371D01*
X2969308Y3614371D02*
G01*
X3034840Y3614371D01*
X3152696Y3701493D02*
G01*
X3147108Y3712415D01*
X3136186Y3723337D01*
X3125264Y3728925D01*
X3103674Y3728925D01*
X3092752Y3723337D01*
X3081830Y3712415D01*
X3076242Y3701493D01*
X3070908Y3685237D01*
X3070908Y3658059D01*
X3076242Y3641549D01*
X3081830Y3630627D01*
X3092752Y3619705D01*
X3103674Y3614371D01*
X3125264Y3614371D01*
X3136186Y3619705D01*
X3147108Y3630627D01*
X3152696Y3641549D01*
X3243120Y3728925D02*
G01*
X3243120Y3641549D01*
X3237786Y3625293D01*
X3232198Y3619705D01*
X3221276Y3614371D01*
X3210354Y3614371D01*
X3199432Y3619705D01*
X3194098Y3625293D01*
X3188764Y3641549D01*
X3188764Y3652471D01*
X3279188Y3728925D02*
G01*
X3279188Y3614371D01*
X3279188Y3614371D02*
G01*
X3344720Y3614371D01*
X3462576Y3701493D02*
G01*
X3456988Y3712415D01*
X3446066Y3723337D01*
X3435144Y3728925D01*
X3413300Y3728925D01*
X3402378Y3723337D01*
X3391456Y3712415D01*
X3386122Y3701493D01*
X3380534Y3685237D01*
X3380534Y3658059D01*
X3386122Y3641549D01*
X3391456Y3630627D01*
X3402378Y3619705D01*
X3413300Y3614371D01*
X3435144Y3614371D01*
X3446066Y3619705D01*
X3456988Y3630627D01*
X3462576Y3641549D01*
X3553000Y3728925D02*
G01*
X3553000Y3641549D01*
X3547666Y3625293D01*
X3542078Y3619705D01*
X3531156Y3614371D01*
X3520234Y3614371D01*
X3509312Y3619705D01*
X3503978Y3625293D01*
X3498390Y3641549D01*
X3498390Y3652471D01*
X3589068Y3728925D02*
G01*
X3589068Y3614371D01*
X3589068Y3614371D02*
G01*
X3654346Y3614371D01*
X3772202Y3701493D02*
G01*
X3766868Y3712415D01*
X3755946Y3723337D01*
X3745024Y3728925D01*
X3723180Y3728925D01*
X3712258Y3723337D01*
X3701336Y3712415D01*
X3696002Y3701493D01*
X3690414Y3685237D01*
X3690414Y3658059D01*
X3696002Y3641549D01*
X3701336Y3630627D01*
X3712258Y3619705D01*
X3723180Y3614371D01*
X3745024Y3614371D01*
X3755946Y3619705D01*
X3766868Y3630627D01*
X3772202Y3641549D01*
X575104Y9939154D02*
G01*
X575104Y9824610D01*
X575104Y9939154D02*
G01*
X624194Y9939154D01*
X640557Y9933701D01*
X646013Y9928247D01*
X651466Y9917338D01*
X651466Y9900973D01*
X646013Y9890064D01*
X640557Y9884610D01*
X624194Y9879154D01*
X575104Y9879154D01*
X687468Y9939154D02*
G01*
X687468Y9824610D01*
X805286Y9911882D02*
G01*
X799830Y9922791D01*
X788921Y9933701D01*
X778012Y9939154D01*
X756193Y9939154D01*
X745286Y9933701D01*
X734377Y9922791D01*
X728921Y9911882D01*
X723468Y9895519D01*
X723468Y9868247D01*
X728921Y9851882D01*
X734377Y9840973D01*
X745286Y9830064D01*
X756193Y9824610D01*
X778012Y9824610D01*
X788921Y9830064D01*
X799830Y9840973D01*
X805286Y9851882D01*
X874013Y9939154D02*
G01*
X863104Y9933701D01*
X852195Y9922791D01*
X846739Y9911882D01*
X841286Y9895519D01*
X841286Y9868247D01*
X846739Y9851882D01*
X852195Y9840973D01*
X863104Y9830064D01*
X874013Y9824610D01*
X895830Y9824610D01*
X906739Y9830064D01*
X917648Y9840973D01*
X923104Y9851882D01*
X928557Y9868247D01*
X928557Y9895519D01*
X923104Y9911882D01*
X917648Y9922791D01*
X906739Y9933701D01*
X895830Y9939154D01*
X874013Y9939154D01*
X964557Y9873701D02*
G01*
X1062738Y9873701D01*
X1098740Y9939154D02*
G01*
X1098740Y9824610D01*
X1098740Y9939154D02*
G01*
X1147831Y9939154D01*
X1164193Y9933701D01*
X1169649Y9928247D01*
X1175103Y9917338D01*
X1175103Y9906429D01*
X1169649Y9895519D01*
X1164193Y9890064D01*
X1147831Y9884610D01*
X1098740Y9884610D01*
X1136921Y9884610D02*
G01*
X1175103Y9824610D01*
X1211102Y9939154D02*
G01*
X1211102Y9824610D01*
X1211102Y9939154D02*
G01*
X1282011Y9939154D01*
X1211102Y9884610D02*
G01*
X1254739Y9884610D01*
X1211102Y9824610D02*
G01*
X1282011Y9824610D01*
X1394376Y9922791D02*
G01*
X1383466Y9933701D01*
X1367101Y9939154D01*
X1345285Y9939154D01*
X1328920Y9933701D01*
X1318011Y9922791D01*
X1318011Y9911882D01*
X1323467Y9900973D01*
X1328920Y9895519D01*
X1339829Y9890064D01*
X1372557Y9879154D01*
X1383466Y9873701D01*
X1388920Y9868247D01*
X1394376Y9857338D01*
X1394376Y9840973D01*
X1383466Y9830064D01*
X1367101Y9824610D01*
X1345285Y9824610D01*
X1328920Y9830064D01*
X1318011Y9840973D01*
X1468556Y9939154D02*
G01*
X1468556Y9824610D01*
X1430375Y9939154D02*
G01*
X1506738Y9939154D01*
X1575465Y9939154D02*
G01*
X1564556Y9933701D01*
X1553646Y9922791D01*
X1548193Y9911882D01*
X1542737Y9895519D01*
X1542737Y9868247D01*
X1548193Y9851882D01*
X1553646Y9840973D01*
X1564556Y9830064D01*
X1575465Y9824610D01*
X1597284Y9824610D01*
X1608193Y9830064D01*
X1619102Y9840973D01*
X1624556Y9851882D01*
X1630011Y9868247D01*
X1630011Y9895519D01*
X1624556Y9911882D01*
X1619102Y9922791D01*
X1608193Y9933701D01*
X1597284Y9939154D01*
X1575465Y9939154D01*
X1666011Y9939154D02*
G01*
X1666011Y9857338D01*
X1671464Y9840973D01*
X1682374Y9830064D01*
X1698739Y9824610D01*
X1709648Y9824610D01*
X1726011Y9830064D01*
X1736920Y9840973D01*
X1742373Y9857338D01*
X1742373Y9939154D01*
X1860191Y9911882D02*
G01*
X1854738Y9922791D01*
X1843829Y9933701D01*
X1832919Y9939154D01*
X1811101Y9939154D01*
X1800191Y9933701D01*
X1789282Y9922791D01*
X1783829Y9911882D01*
X1778373Y9895519D01*
X1778373Y9868247D01*
X1783829Y9851882D01*
X1789282Y9840973D01*
X1800191Y9830064D01*
X1811101Y9824610D01*
X1832919Y9824610D01*
X1843829Y9830064D01*
X1854738Y9840973D01*
X1860191Y9851882D01*
X1896191Y9939154D02*
G01*
X1896191Y9824610D01*
X1972556Y9939154D02*
G01*
X1972556Y9824610D01*
X1896191Y9884610D02*
G01*
X1972556Y9884610D01*
X2008555Y9873701D02*
G01*
X2106736Y9873701D01*
X2142736Y9939154D02*
G01*
X2142736Y9824610D01*
X2142736Y9824610D02*
G01*
X2208192Y9824610D01*
X2326010Y9911882D02*
G01*
X2320554Y9922791D01*
X2309647Y9933701D01*
X2298738Y9939154D01*
X2276919Y9939154D01*
X2266010Y9933701D01*
X2255100Y9922791D01*
X2249647Y9911882D01*
X2244191Y9895519D01*
X2244191Y9868247D01*
X2249647Y9851882D01*
X2255100Y9840973D01*
X2266010Y9830064D01*
X2276919Y9824610D01*
X2298738Y9824610D01*
X2309647Y9830064D01*
X2320554Y9840973D01*
X2326010Y9851882D01*
X2362009Y9939154D02*
G01*
X2362009Y9824610D01*
X2362009Y9939154D02*
G01*
X2400190Y9939154D01*
X2416556Y9933701D01*
X2427465Y9922791D01*
X2432918Y9911882D01*
X2438372Y9895519D01*
X2438372Y9868247D01*
X2432918Y9851882D01*
X2427465Y9840973D01*
X2416556Y9830064D01*
X2400190Y9824610D01*
X2362009Y9824610D01*
X2474374Y9873701D02*
G01*
X2572555Y9873701D01*
X2619463Y9939154D02*
G01*
X2679463Y9939154D01*
X2646735Y9895519D01*
X2663101Y9895519D01*
X2674010Y9890064D01*
X2679463Y9884610D01*
X2684917Y9868247D01*
X2684917Y9857338D01*
X2679463Y9840973D01*
X2668554Y9830064D01*
X2652191Y9824610D01*
X2635826Y9824610D01*
X2619463Y9830064D01*
X2614010Y9835520D01*
X2608554Y9846429D01*
X2726372Y9851882D02*
G01*
X2720919Y9846429D01*
X2726372Y9840973D01*
X2731828Y9846429D01*
X2726372Y9851882D01*
X2833281Y9939154D02*
G01*
X2778737Y9939154D01*
X2773281Y9890064D01*
X2778737Y9895519D01*
X2795099Y9900973D01*
X2811462Y9900973D01*
X2827827Y9895519D01*
X2838737Y9884610D01*
X2844190Y9868247D01*
X2844190Y9857338D01*
X2838737Y9840973D01*
X2827827Y9830064D01*
X2811462Y9824610D01*
X2795099Y9824610D01*
X2778737Y9830064D01*
X2773281Y9835520D01*
X2767827Y9846429D01*
X1765297Y5683747D02*
G01*
X1765297Y5569193D01*
X1765297Y5683747D02*
G01*
X1808985Y5569193D01*
X1852673Y5683747D02*
G01*
X1808985Y5569193D01*
X1852673Y5683747D02*
G01*
X1852673Y5569193D01*
X1986785Y5705591D02*
G01*
X1888487Y5530839D01*
X2022853Y5683747D02*
G01*
X2022853Y5569193D01*
X2022853Y5683747D02*
G01*
X2093719Y5683747D01*
X2022853Y5629137D02*
G01*
X2066287Y5629137D01*
X2022853Y5569193D02*
G01*
X2093719Y5569193D01*
X2251961Y5683747D02*
G01*
X2251961Y5569193D01*
X2213607Y5683747D02*
G01*
X2290061Y5683747D01*
X2326129Y5683747D02*
G01*
X2326129Y5569193D01*
X2326129Y5683747D02*
G01*
X2375151Y5683747D01*
X2391407Y5678159D01*
X2396995Y5672825D01*
X2402329Y5661903D01*
X2402329Y5650981D01*
X2396995Y5640059D01*
X2391407Y5634471D01*
X2375151Y5629137D01*
X2326129Y5629137D01*
X2364229Y5629137D02*
G01*
X2402329Y5569193D01*
X2482085Y5683747D02*
G01*
X2438397Y5569193D01*
X2482085Y5683747D02*
G01*
X2525773Y5569193D01*
X2454653Y5607293D02*
G01*
X2509263Y5607293D01*
X2561587Y5683747D02*
G01*
X2561587Y5569193D01*
X2561587Y5683747D02*
G01*
X2638041Y5569193D01*
X2638041Y5683747D02*
G01*
X2638041Y5569193D01*
X2750309Y5667237D02*
G01*
X2739387Y5678159D01*
X2723131Y5683747D01*
X2701287Y5683747D01*
X2685031Y5678159D01*
X2674109Y5667237D01*
X2674109Y5656315D01*
X2679443Y5645393D01*
X2685031Y5640059D01*
X2695953Y5634471D01*
X2728465Y5623803D01*
X2739387Y5618215D01*
X2744975Y5612881D01*
X2750309Y5601959D01*
X2750309Y5585449D01*
X2739387Y5574527D01*
X2723131Y5569193D01*
X2701287Y5569193D01*
X2685031Y5574527D01*
X2674109Y5585449D01*
X2786377Y5683747D02*
G01*
X2786377Y5569193D01*
X2860545Y5683747D02*
G01*
X2860545Y5569193D01*
X2822445Y5683747D02*
G01*
X2898645Y5683747D01*
X2934713Y5683747D02*
G01*
X2934713Y5569193D01*
X3003547Y5683747D02*
G01*
X2992625Y5678159D01*
X2981703Y5667237D01*
X2976115Y5656315D01*
X2970781Y5640059D01*
X2970781Y5612881D01*
X2976115Y5596371D01*
X2981703Y5585449D01*
X2992625Y5574527D01*
X3003547Y5569193D01*
X3025391Y5569193D01*
X3036313Y5574527D01*
X3047235Y5585449D01*
X3052569Y5596371D01*
X3057903Y5612881D01*
X3057903Y5640059D01*
X3052569Y5656315D01*
X3047235Y5667237D01*
X3036313Y5678159D01*
X3025391Y5683747D01*
X3003547Y5683747D01*
X3093971Y5683747D02*
G01*
X3093971Y5569193D01*
X3093971Y5683747D02*
G01*
X3170425Y5569193D01*
X3170425Y5683747D02*
G01*
X3170425Y5569193D01*
X3372101Y5656315D02*
G01*
X3366767Y5667237D01*
X3355845Y5678159D01*
X3344923Y5683747D01*
X3323079Y5683747D01*
X3312157Y5678159D01*
X3301235Y5667237D01*
X3295901Y5656315D01*
X3290313Y5640059D01*
X3290313Y5612881D01*
X3295901Y5596371D01*
X3301235Y5585449D01*
X3312157Y5574527D01*
X3323079Y5569193D01*
X3344923Y5569193D01*
X3355845Y5574527D01*
X3366767Y5585449D01*
X3372101Y5596371D01*
X3440935Y5683747D02*
G01*
X3430013Y5678159D01*
X3419091Y5667237D01*
X3413757Y5656315D01*
X3408169Y5640059D01*
X3408169Y5612881D01*
X3413757Y5596371D01*
X3419091Y5585449D01*
X3430013Y5574527D01*
X3440935Y5569193D01*
X3462779Y5569193D01*
X3473701Y5574527D01*
X3484623Y5585449D01*
X3489957Y5596371D01*
X3495545Y5612881D01*
X3495545Y5640059D01*
X3489957Y5656315D01*
X3484623Y5667237D01*
X3473701Y5678159D01*
X3462779Y5683747D01*
X3440935Y5683747D01*
X3531359Y5683747D02*
G01*
X3531359Y5569193D01*
X3531359Y5683747D02*
G01*
X3607813Y5569193D01*
X3607813Y5683747D02*
G01*
X3607813Y5569193D01*
X3681981Y5683747D02*
G01*
X3681981Y5569193D01*
X3643881Y5683747D02*
G01*
X3720081Y5683747D01*
X3756149Y5683747D02*
G01*
X3756149Y5569193D01*
X3756149Y5683747D02*
G01*
X3805171Y5683747D01*
X3821681Y5678159D01*
X3827015Y5672825D01*
X3832603Y5661903D01*
X3832603Y5650981D01*
X3827015Y5640059D01*
X3821681Y5634471D01*
X3805171Y5629137D01*
X3756149Y5629137D01*
X3794503Y5629137D02*
G01*
X3832603Y5569193D01*
X3901183Y5683747D02*
G01*
X3890261Y5678159D01*
X3879593Y5667237D01*
X3874005Y5656315D01*
X3868671Y5640059D01*
X3868671Y5612881D01*
X3874005Y5596371D01*
X3879593Y5585449D01*
X3890261Y5574527D01*
X3901183Y5569193D01*
X3923027Y5569193D01*
X3933949Y5574527D01*
X3944871Y5585449D01*
X3950459Y5596371D01*
X3955793Y5612881D01*
X3955793Y5640059D01*
X3950459Y5656315D01*
X3944871Y5667237D01*
X3933949Y5678159D01*
X3923027Y5683747D01*
X3901183Y5683747D01*
X3991861Y5683747D02*
G01*
X3991861Y5569193D01*
X3991861Y5569193D02*
G01*
X4057393Y5569193D01*
X4093207Y5683747D02*
G01*
X4093207Y5569193D01*
X4093207Y5569193D02*
G01*
X4158739Y5569193D01*
X4194807Y5683747D02*
G01*
X4194807Y5569193D01*
X4194807Y5683747D02*
G01*
X4265673Y5683747D01*
X4194807Y5629137D02*
G01*
X4238495Y5629137D01*
X4194807Y5569193D02*
G01*
X4265673Y5569193D01*
X4301741Y5683747D02*
G01*
X4301741Y5569193D01*
X4301741Y5683747D02*
G01*
X4350763Y5683747D01*
X4367019Y5678159D01*
X4372607Y5672825D01*
X4377941Y5661903D01*
X4377941Y5650981D01*
X4372607Y5640059D01*
X4367019Y5634471D01*
X4350763Y5629137D01*
X4301741Y5629137D01*
X4339841Y5629137D02*
G01*
X4377941Y5569193D01*
X1955800Y5175757D02*
G01*
X1955800Y5061204D01*
X1955800Y5175757D02*
G01*
X2004822Y5175757D01*
X2021331Y5170170D01*
X2026665Y5164836D01*
X2032254Y5153913D01*
X2032254Y5137404D01*
X2026665Y5126481D01*
X2021331Y5121147D01*
X2004822Y5115813D01*
X1955800Y5115813D01*
X2111756Y5175757D02*
G01*
X2068068Y5061204D01*
X2111756Y5175757D02*
G01*
X2155443Y5061204D01*
X2084577Y5099304D02*
G01*
X2139188Y5099304D01*
X2191511Y5175757D02*
G01*
X2191511Y5061204D01*
X2191511Y5175757D02*
G01*
X2240534Y5175757D01*
X2256790Y5170170D01*
X2262377Y5164836D01*
X2267711Y5153913D01*
X2267711Y5142992D01*
X2262377Y5132070D01*
X2256790Y5126481D01*
X2240534Y5121147D01*
X2191511Y5121147D01*
X2229611Y5121147D02*
G01*
X2267711Y5061204D01*
X2341879Y5175757D02*
G01*
X2341879Y5061204D01*
X2303779Y5175757D02*
G01*
X2380234Y5175757D01*
X2500122Y5175757D02*
G01*
X2500122Y5061204D01*
X2500122Y5175757D02*
G01*
X2576575Y5061204D01*
X2576575Y5175757D02*
G01*
X2576575Y5061204D01*
X2612643Y5175757D02*
G01*
X2612643Y5093970D01*
X2617977Y5077460D01*
X2628900Y5066537D01*
X2645156Y5061204D01*
X2656077Y5061204D01*
X2672588Y5066537D01*
X2683509Y5077460D01*
X2688843Y5093970D01*
X2688843Y5175757D01*
X2724911Y5175757D02*
G01*
X2724911Y5061204D01*
X2724911Y5175757D02*
G01*
X2768600Y5061204D01*
X2812288Y5175757D02*
G01*
X2768600Y5061204D01*
X2812288Y5175757D02*
G01*
X2812288Y5061204D01*
X2848102Y5175757D02*
G01*
X2848102Y5061204D01*
X2848102Y5175757D02*
G01*
X2897377Y5175757D01*
X2913634Y5170170D01*
X2918968Y5164836D01*
X2924556Y5153913D01*
X2924556Y5142992D01*
X2918968Y5132070D01*
X2913634Y5126481D01*
X2897377Y5121147D01*
X2848102Y5121147D02*
G01*
X2897377Y5121147D01*
X2913634Y5115813D01*
X2918968Y5110226D01*
X2924556Y5099304D01*
X2924556Y5083047D01*
X2918968Y5072126D01*
X2913634Y5066537D01*
X2897377Y5061204D01*
X2848102Y5061204D01*
X2960624Y5175757D02*
G01*
X2960624Y5061204D01*
X2960624Y5175757D02*
G01*
X3031490Y5175757D01*
X2960624Y5121147D02*
G01*
X3004058Y5121147D01*
X2960624Y5061204D02*
G01*
X3031490Y5061204D01*
X3067558Y5175757D02*
G01*
X3067558Y5061204D01*
X3067558Y5175757D02*
G01*
X3116579Y5175757D01*
X3132836Y5170170D01*
X3138424Y5164836D01*
X3143758Y5153913D01*
X3143758Y5142992D01*
X3138424Y5132070D01*
X3132836Y5126481D01*
X3116579Y5121147D01*
X3067558Y5121147D01*
X3105658Y5121147D02*
G01*
X3143758Y5061204D01*
X3269234Y5148326D02*
G01*
X3269234Y5153913D01*
X3274822Y5164836D01*
X3280156Y5170170D01*
X3291077Y5175757D01*
X3312922Y5175757D01*
X3323843Y5170170D01*
X3329177Y5164836D01*
X3334765Y5153913D01*
X3334765Y5142992D01*
X3329177Y5132070D01*
X3318256Y5115813D01*
X3263900Y5061204D01*
X3340100Y5061204D01*
X3403345Y5175757D02*
G01*
X3387090Y5170170D01*
X3381502Y5159247D01*
X3381502Y5148326D01*
X3387090Y5137404D01*
X3398011Y5132070D01*
X3419856Y5126481D01*
X3436111Y5121147D01*
X3447034Y5110226D01*
X3452622Y5099304D01*
X3452622Y5083047D01*
X3447034Y5072126D01*
X3441700Y5066537D01*
X3425190Y5061204D01*
X3403345Y5061204D01*
X3387090Y5066537D01*
X3381502Y5072126D01*
X3376168Y5083047D01*
X3376168Y5099304D01*
X3381502Y5110226D01*
X3392424Y5121147D01*
X3408934Y5126481D01*
X3430777Y5132070D01*
X3441700Y5137404D01*
X3447034Y5148326D01*
X3447034Y5159247D01*
X3441700Y5170170D01*
X3425190Y5175757D01*
X3403345Y5175757D01*
X3494024Y5148326D02*
G01*
X3494024Y5153913D01*
X3499358Y5164836D01*
X3504945Y5170170D01*
X3515868Y5175757D01*
X3537711Y5175757D01*
X3548634Y5170170D01*
X3553968Y5164836D01*
X3559556Y5153913D01*
X3559556Y5142992D01*
X3553968Y5132070D01*
X3543045Y5115813D01*
X3488436Y5061204D01*
X3564890Y5061204D01*
X3633724Y5175757D02*
G01*
X3617213Y5170170D01*
X3606291Y5153913D01*
X3600958Y5126481D01*
X3600958Y5110226D01*
X3606291Y5083047D01*
X3617213Y5066537D01*
X3633724Y5061204D01*
X3644645Y5061204D01*
X3660902Y5066537D01*
X3671824Y5083047D01*
X3677158Y5110226D01*
X3677158Y5126481D01*
X3671824Y5153913D01*
X3660902Y5170170D01*
X3644645Y5175757D01*
X3633724Y5175757D01*
X3713225Y5110226D02*
G01*
X3811524Y5110226D01*
X3880104Y5175757D02*
G01*
X3863847Y5170170D01*
X3852925Y5153913D01*
X3847338Y5126481D01*
X3847338Y5110226D01*
X3852925Y5083047D01*
X3863847Y5066537D01*
X3880104Y5061204D01*
X3891025Y5061204D01*
X3907536Y5066537D01*
X3918458Y5083047D01*
X3923791Y5110226D01*
X3923791Y5126481D01*
X3918458Y5153913D01*
X3907536Y5170170D01*
X3891025Y5175757D01*
X3880104Y5175757D01*
X3965193Y5148326D02*
G01*
X3965193Y5153913D01*
X3970781Y5164836D01*
X3976115Y5170170D01*
X3987038Y5175757D01*
X4008881Y5175757D01*
X4019804Y5170170D01*
X4025138Y5164836D01*
X4030725Y5153913D01*
X4030725Y5142992D01*
X4025138Y5132070D01*
X4014215Y5115813D01*
X3959859Y5061204D01*
X4036059Y5061204D01*
X4104893Y5175757D02*
G01*
X4088638Y5170170D01*
X4077715Y5153913D01*
X4072127Y5126481D01*
X4072127Y5110226D01*
X4077715Y5083047D01*
X4088638Y5066537D01*
X4104893Y5061204D01*
X4115815Y5061204D01*
X4132072Y5066537D01*
X4142993Y5083047D01*
X4148581Y5110226D01*
X4148581Y5126481D01*
X4142993Y5153913D01*
X4132072Y5170170D01*
X4115815Y5175757D01*
X4104893Y5175757D01*
X4189984Y5148326D02*
G01*
X4189984Y5153913D01*
X4195318Y5164836D01*
X4200906Y5170170D01*
X4211827Y5175757D01*
X4233672Y5175757D01*
X4244593Y5170170D01*
X4249927Y5164836D01*
X4255515Y5153913D01*
X4255515Y5142992D01*
X4249927Y5132070D01*
X4239006Y5115813D01*
X4184395Y5061204D01*
X4260850Y5061204D01*
X1562097Y5429747D02*
G01*
X1562097Y5315193D01*
X1562097Y5315193D02*
G01*
X1627629Y5315193D01*
X1745485Y5402315D02*
G01*
X1739897Y5413237D01*
X1728975Y5424159D01*
X1718053Y5429747D01*
X1696209Y5429747D01*
X1685287Y5424159D01*
X1674365Y5413237D01*
X1669031Y5402315D01*
X1663443Y5386059D01*
X1663443Y5358881D01*
X1669031Y5342371D01*
X1674365Y5331449D01*
X1685287Y5320527D01*
X1696209Y5315193D01*
X1718053Y5315193D01*
X1728975Y5320527D01*
X1739897Y5331449D01*
X1745485Y5342371D01*
X1781299Y5429747D02*
G01*
X1781299Y5315193D01*
X1781299Y5429747D02*
G01*
X1819653Y5429747D01*
X1835909Y5424159D01*
X1846831Y5413237D01*
X1852165Y5402315D01*
X1857753Y5386059D01*
X1857753Y5358881D01*
X1852165Y5342371D01*
X1846831Y5331449D01*
X1835909Y5320527D01*
X1819653Y5315193D01*
X1781299Y5315193D01*
X2054095Y5413237D02*
G01*
X2043173Y5424159D01*
X2026917Y5429747D01*
X2005073Y5429747D01*
X1988563Y5424159D01*
X1977641Y5413237D01*
X1977641Y5402315D01*
X1983229Y5391393D01*
X1988563Y5386059D01*
X1999485Y5380471D01*
X2032251Y5369803D01*
X2043173Y5364215D01*
X2048761Y5358881D01*
X2054095Y5347959D01*
X2054095Y5331449D01*
X2043173Y5320527D01*
X2026917Y5315193D01*
X2005073Y5315193D01*
X1988563Y5320527D01*
X1977641Y5331449D01*
X2090163Y5429747D02*
G01*
X2090163Y5315193D01*
X2090163Y5429747D02*
G01*
X2139185Y5429747D01*
X2155441Y5424159D01*
X2161029Y5418825D01*
X2166363Y5407903D01*
X2166363Y5391393D01*
X2161029Y5380471D01*
X2155441Y5375137D01*
X2139185Y5369803D01*
X2090163Y5369803D01*
X2246119Y5429747D02*
G01*
X2202431Y5315193D01*
X2246119Y5429747D02*
G01*
X2289807Y5315193D01*
X2218941Y5353293D02*
G01*
X2273297Y5353293D01*
X2407663Y5402315D02*
G01*
X2402075Y5413237D01*
X2391153Y5424159D01*
X2380231Y5429747D01*
X2358387Y5429747D01*
X2347465Y5424159D01*
X2336543Y5413237D01*
X2331209Y5402315D01*
X2325621Y5386059D01*
X2325621Y5358881D01*
X2331209Y5342371D01*
X2336543Y5331449D01*
X2347465Y5320527D01*
X2358387Y5315193D01*
X2380231Y5315193D01*
X2391153Y5320527D01*
X2402075Y5331449D01*
X2407663Y5342371D01*
X2443477Y5429747D02*
G01*
X2443477Y5315193D01*
X2443477Y5429747D02*
G01*
X2514343Y5429747D01*
X2443477Y5375137D02*
G01*
X2487165Y5375137D01*
X2443477Y5315193D02*
G01*
X2514343Y5315193D01*
X2550411Y5429747D02*
G01*
X2550411Y5315193D01*
X2550411Y5429747D02*
G01*
X2599433Y5429747D01*
X2615943Y5424159D01*
X2621277Y5418825D01*
X2626865Y5407903D01*
X2626865Y5396981D01*
X2621277Y5386059D01*
X2615943Y5380471D01*
X2599433Y5375137D01*
X2550411Y5375137D01*
X2588765Y5375137D02*
G01*
X2626865Y5315193D01*
X2746753Y5429747D02*
G01*
X2746753Y5315193D01*
X2746753Y5429747D02*
G01*
X2796029Y5429747D01*
X2812285Y5424159D01*
X2817619Y5418825D01*
X2823207Y5407903D01*
X2823207Y5396981D01*
X2817619Y5386059D01*
X2812285Y5380471D01*
X2796029Y5375137D01*
X2746753Y5375137D02*
G01*
X2796029Y5375137D01*
X2812285Y5369803D01*
X2817619Y5364215D01*
X2823207Y5353293D01*
X2823207Y5337037D01*
X2817619Y5326115D01*
X2812285Y5320527D01*
X2796029Y5315193D01*
X2746753Y5315193D01*
X2891787Y5429747D02*
G01*
X2881119Y5424159D01*
X2870197Y5413237D01*
X2864609Y5402315D01*
X2859275Y5386059D01*
X2859275Y5358881D01*
X2864609Y5342371D01*
X2870197Y5331449D01*
X2881119Y5320527D01*
X2891787Y5315193D01*
X2913631Y5315193D01*
X2924553Y5320527D01*
X2935475Y5331449D01*
X2941063Y5342371D01*
X2946397Y5358881D01*
X2946397Y5386059D01*
X2941063Y5402315D01*
X2935475Y5413237D01*
X2924553Y5424159D01*
X2913631Y5429747D01*
X2891787Y5429747D01*
X3026153Y5429747D02*
G01*
X2982465Y5315193D01*
X3026153Y5429747D02*
G01*
X3069841Y5315193D01*
X2998721Y5353293D02*
G01*
X3053331Y5353293D01*
X3105655Y5429747D02*
G01*
X3105655Y5315193D01*
X3105655Y5429747D02*
G01*
X3154931Y5429747D01*
X3171187Y5424159D01*
X3176521Y5418825D01*
X3182109Y5407903D01*
X3182109Y5396981D01*
X3176521Y5386059D01*
X3171187Y5380471D01*
X3154931Y5375137D01*
X3105655Y5375137D01*
X3144009Y5375137D02*
G01*
X3182109Y5315193D01*
X3218177Y5429747D02*
G01*
X3218177Y5315193D01*
X3218177Y5429747D02*
G01*
X3256277Y5429747D01*
X3272533Y5424159D01*
X3283455Y5413237D01*
X3289043Y5402315D01*
X3294377Y5386059D01*
X3294377Y5358881D01*
X3289043Y5342371D01*
X3283455Y5331449D01*
X3272533Y5320527D01*
X3256277Y5315193D01*
X3218177Y5315193D01*
X3414519Y5429747D02*
G01*
X3458207Y5315193D01*
X3501641Y5429747D02*
G01*
X3458207Y5315193D01*
X3537709Y5407903D02*
G01*
X3548631Y5413237D01*
X3564887Y5429747D01*
X3564887Y5315193D01*
X3606543Y5342371D02*
G01*
X3600955Y5337037D01*
X3606543Y5331449D01*
X3611877Y5337037D01*
X3606543Y5342371D01*
X3647945Y5407903D02*
G01*
X3658867Y5413237D01*
X3675123Y5429747D01*
X3675123Y5315193D01*
X3795265Y5364215D02*
G01*
X3893309Y5364215D01*
X4013451Y5429747D02*
G01*
X4013451Y5315193D01*
X4013451Y5429747D02*
G01*
X4084317Y5429747D01*
X4013451Y5375137D02*
G01*
X4056885Y5375137D01*
X4120385Y5429747D02*
G01*
X4120385Y5315193D01*
X4120385Y5429747D02*
G01*
X4169407Y5429747D01*
X4185663Y5424159D01*
X4191251Y5418825D01*
X4196585Y5407903D01*
X4196585Y5396981D01*
X4191251Y5386059D01*
X4185663Y5380471D01*
X4169407Y5375137D01*
X4120385Y5375137D01*
X4158485Y5375137D02*
G01*
X4196585Y5315193D01*
X4265419Y5429747D02*
G01*
X4254497Y5424159D01*
X4243575Y5413237D01*
X4237987Y5402315D01*
X4232653Y5386059D01*
X4232653Y5358881D01*
X4237987Y5342371D01*
X4243575Y5331449D01*
X4254497Y5320527D01*
X4265419Y5315193D01*
X4287263Y5315193D01*
X4298185Y5320527D01*
X4309107Y5331449D01*
X4314441Y5342371D01*
X4320029Y5358881D01*
X4320029Y5386059D01*
X4314441Y5402315D01*
X4309107Y5413237D01*
X4298185Y5424159D01*
X4287263Y5429747D01*
X4265419Y5429747D01*
X4355843Y5429747D02*
G01*
X4355843Y5315193D01*
X4355843Y5429747D02*
G01*
X4432297Y5315193D01*
X4432297Y5429747D02*
G01*
X4432297Y5315193D01*
X4506465Y5429747D02*
G01*
X4506465Y5315193D01*
X4468365Y5429747D02*
G01*
X4544565Y5429747D01*
D12*
X510895Y10002799D02*
G01*
X5630875Y10002799D01*
X5630875Y2992399D01*
X510895Y2992399D01*
X510895Y10002799D01*
M02*
