G04 Layer: BottomLayer*
G04 EasyEDA v6.5.29, 2023-07-18 10:20:05*
G04 5756727701dd48799c60270c1c1368c4,5a6b42c53f6a479593ecc07194224c93,10*
G04 Gerber Generator version 0.2*
G04 Scale: 100 percent, Rotated: No, Reflected: No *
G04 Dimensions in millimeters *
G04 leading zeros omitted , absolute positions ,4 integer and 5 decimal *
%FSLAX45Y45*%
%MOMM*%

%AMMACRO1*21,1,$1,$2,0,0,$3*%
%ADD10C,0.2540*%
%ADD11MACRO1,0.95X1.15X90.0000*%
%ADD12MACRO1,1.7X1.7X0.0000*%
%ADD13C,1.7000*%
%ADD14MACRO1,1.7X1.7X90.0000*%
%ADD15C,1.6500*%
%ADD16C,0.6096*%
%ADD17C,0.0145*%

%LPD*%
G36*
X-1415846Y-1371092D02*
G01*
X-1419758Y-1370330D01*
X-1423060Y-1368094D01*
X-1425244Y-1364843D01*
X-1426057Y-1360932D01*
X-1426057Y-763270D01*
X-1425092Y-758952D01*
X-1422247Y-755446D01*
X-1418285Y-753414D01*
X-1413865Y-753313D01*
X-1409801Y-755192D01*
X-1406906Y-758596D01*
X-1405686Y-762863D01*
X-1405331Y-773328D01*
X-1402435Y-797204D01*
X-1397609Y-820775D01*
X-1390904Y-843838D01*
X-1382420Y-866343D01*
X-1372108Y-888085D01*
X-1360068Y-908913D01*
X-1346403Y-928674D01*
X-1331214Y-947318D01*
X-1314551Y-964641D01*
X-1296517Y-980592D01*
X-1277264Y-995019D01*
X-1256995Y-1007871D01*
X-1235659Y-1019048D01*
X-1213561Y-1028496D01*
X-1190701Y-1036116D01*
X-1167384Y-1041857D01*
X-1143711Y-1045718D01*
X-1119733Y-1047648D01*
X-1095654Y-1047648D01*
X-1071626Y-1045718D01*
X-1047953Y-1041857D01*
X-1024585Y-1036116D01*
X-1001776Y-1028496D01*
X-979627Y-1019048D01*
X-958392Y-1007871D01*
X-938072Y-995019D01*
X-918870Y-980592D01*
X-900836Y-964641D01*
X-884174Y-947318D01*
X-868934Y-928674D01*
X-855319Y-908913D01*
X-843280Y-888085D01*
X-832967Y-866343D01*
X-824433Y-843838D01*
X-817778Y-820775D01*
X-812952Y-797204D01*
X-810056Y-773328D01*
X-809091Y-749300D01*
X-810056Y-725271D01*
X-812952Y-701395D01*
X-817778Y-677824D01*
X-824433Y-654761D01*
X-832967Y-632256D01*
X-843280Y-610514D01*
X-855319Y-589686D01*
X-868934Y-569925D01*
X-884174Y-551281D01*
X-900836Y-533958D01*
X-918870Y-518007D01*
X-938072Y-503580D01*
X-958392Y-490728D01*
X-979627Y-479551D01*
X-1001776Y-470103D01*
X-1024585Y-462483D01*
X-1047953Y-456742D01*
X-1071626Y-452882D01*
X-1095654Y-450951D01*
X-1119733Y-450951D01*
X-1143711Y-452882D01*
X-1167384Y-456742D01*
X-1190701Y-462483D01*
X-1213561Y-470103D01*
X-1235659Y-479551D01*
X-1256995Y-490728D01*
X-1277264Y-503580D01*
X-1296517Y-518007D01*
X-1314551Y-533958D01*
X-1331214Y-551281D01*
X-1346403Y-569925D01*
X-1360068Y-589686D01*
X-1372108Y-610514D01*
X-1382420Y-632256D01*
X-1390904Y-654761D01*
X-1397609Y-677824D01*
X-1402435Y-701395D01*
X-1405331Y-725271D01*
X-1405686Y-735736D01*
X-1406906Y-740054D01*
X-1409801Y-743407D01*
X-1413865Y-745286D01*
X-1418285Y-745185D01*
X-1422247Y-743153D01*
X-1425092Y-739648D01*
X-1426057Y-735330D01*
X-1426057Y713232D01*
X-1425244Y717092D01*
X-1423060Y720394D01*
X-1419758Y722630D01*
X-1415846Y723392D01*
X-591769Y723392D01*
X-587857Y722630D01*
X-584555Y720394D01*
X-582422Y717092D01*
X-581609Y713232D01*
X-582422Y709320D01*
X-584555Y706018D01*
X-791870Y498805D01*
X-795121Y496570D01*
X-799033Y495808D01*
X-833424Y495808D01*
X-837184Y496570D01*
X-840435Y498652D01*
X-842721Y501853D01*
X-845667Y508508D01*
X-853033Y520649D01*
X-861872Y531723D01*
X-872083Y541629D01*
X-883412Y550113D01*
X-895858Y557123D01*
X-908964Y562457D01*
X-922782Y566013D01*
X-936802Y567842D01*
X-951077Y567842D01*
X-965098Y566013D01*
X-978916Y562457D01*
X-992022Y557123D01*
X-1004468Y550113D01*
X-1015796Y541629D01*
X-1026007Y531723D01*
X-1034846Y520649D01*
X-1042212Y508508D01*
X-1048003Y495503D01*
X-1052017Y481888D01*
X-1054354Y467817D01*
X-1054811Y453643D01*
X-1053388Y439521D01*
X-1050290Y425653D01*
X-1045362Y412292D01*
X-1038758Y399694D01*
X-1030681Y388061D01*
X-1021130Y377545D01*
X-1010310Y368350D01*
X-998321Y360578D01*
X-985519Y354431D01*
X-972108Y349910D01*
X-958087Y347218D01*
X-943965Y346303D01*
X-929792Y347218D01*
X-915771Y349910D01*
X-902360Y354431D01*
X-889558Y360578D01*
X-877620Y368350D01*
X-866800Y377545D01*
X-857300Y388061D01*
X-849172Y399694D01*
X-842213Y413105D01*
X-839927Y416001D01*
X-836777Y417931D01*
X-833119Y418592D01*
X-779322Y418592D01*
X-771347Y419404D01*
X-764133Y421589D01*
X-757377Y425145D01*
X-751179Y430276D01*
X-537210Y644194D01*
X-533958Y646430D01*
X-530047Y647192D01*
X-379323Y647192D01*
X-375412Y646430D01*
X-372110Y644194D01*
X-370535Y642620D01*
X-362559Y636981D01*
X-353568Y632866D01*
X-344119Y630326D01*
X-334365Y629462D01*
X-324561Y630326D01*
X-315112Y632866D01*
X-306120Y636981D01*
X-298145Y642620D01*
X-291185Y649579D01*
X-287324Y655116D01*
X-284327Y657961D01*
X-280111Y659333D01*
X-281482Y663143D01*
X-281178Y667207D01*
X-278841Y675995D01*
X-278028Y685800D01*
X-278841Y695604D01*
X-281432Y705053D01*
X-283159Y708914D01*
X-284124Y712876D01*
X-283514Y716889D01*
X-281279Y720293D01*
X-277977Y722579D01*
X-273964Y723392D01*
X-216306Y723392D01*
X-211886Y722376D01*
X-208381Y719582D01*
X-206400Y715518D01*
X-206349Y711047D01*
X-208330Y706932D01*
X-211785Y704138D01*
X-223418Y698398D01*
X-235204Y690524D01*
X-245871Y681177D01*
X-255219Y670509D01*
X-262991Y658926D01*
X-265836Y656082D01*
X-269646Y654558D01*
X-269951Y654100D01*
X-268884Y650138D01*
X-269392Y646023D01*
X-273862Y632561D01*
X-276707Y618693D01*
X-277622Y604520D01*
X-276707Y590397D01*
X-273862Y576478D01*
X-269392Y563067D01*
X-263042Y550316D01*
X-255219Y538530D01*
X-245871Y527913D01*
X-235204Y518566D01*
X-223418Y510641D01*
X-210718Y504393D01*
X-197256Y499821D01*
X-183388Y497078D01*
X-169265Y496163D01*
X-155092Y497078D01*
X-141122Y499821D01*
X-127711Y504393D01*
X-115011Y510641D01*
X-103276Y518566D01*
X-92557Y527913D01*
X-83261Y538530D01*
X-75387Y550316D01*
X-69088Y563067D01*
X-64566Y576478D01*
X-61772Y590397D01*
X-60807Y604520D01*
X-61772Y618693D01*
X-64566Y632561D01*
X-69088Y646023D01*
X-75387Y658723D01*
X-83261Y670509D01*
X-92557Y681177D01*
X-103276Y690524D01*
X-115011Y698398D01*
X-126644Y704138D01*
X-130149Y706932D01*
X-132080Y711047D01*
X-132029Y715518D01*
X-130098Y719582D01*
X-126542Y722376D01*
X-122174Y723392D01*
X913942Y723392D01*
X918362Y722376D01*
X921867Y719582D01*
X923899Y715518D01*
X923899Y711047D01*
X922019Y706932D01*
X918464Y704138D01*
X906932Y698398D01*
X895146Y690524D01*
X884478Y681177D01*
X875080Y670509D01*
X867206Y658723D01*
X860907Y646023D01*
X856335Y632561D01*
X853643Y618693D01*
X852728Y604520D01*
X853643Y590397D01*
X856335Y576478D01*
X860907Y563067D01*
X867206Y550316D01*
X875080Y538530D01*
X884478Y527913D01*
X895146Y518566D01*
X906932Y510641D01*
X919632Y504393D01*
X932992Y499821D01*
X946962Y497078D01*
X961034Y496163D01*
X975207Y497078D01*
X989126Y499821D01*
X1002588Y504393D01*
X1015288Y510641D01*
X1027023Y518566D01*
X1037742Y527913D01*
X1047089Y538530D01*
X1054912Y550316D01*
X1061262Y563067D01*
X1065784Y576478D01*
X1068527Y590397D01*
X1069492Y604520D01*
X1068527Y618693D01*
X1065784Y632561D01*
X1061262Y646023D01*
X1054912Y658723D01*
X1047089Y670509D01*
X1037742Y681177D01*
X1027023Y690524D01*
X1015288Y698398D01*
X1003655Y704138D01*
X1000150Y706932D01*
X998219Y711047D01*
X998219Y715518D01*
X1000252Y719582D01*
X1003757Y722376D01*
X1008176Y723392D01*
X1065580Y723392D01*
X1069289Y722731D01*
X1072438Y720801D01*
X1074623Y717854D01*
X1075740Y714298D01*
X1075436Y710590D01*
X1074826Y708304D01*
X1073962Y698500D01*
X1074826Y688695D01*
X1077366Y679246D01*
X1081532Y670306D01*
X1087120Y662279D01*
X1094028Y655320D01*
X1102156Y649681D01*
X1111046Y645566D01*
X1120546Y643026D01*
X1130300Y642162D01*
X1140053Y643026D01*
X1149553Y645566D01*
X1158443Y649681D01*
X1166571Y655320D01*
X1173480Y662279D01*
X1179068Y670306D01*
X1183386Y679399D01*
X1185621Y682498D01*
X1188821Y684580D01*
X1192530Y685292D01*
X1996287Y685292D01*
X2000504Y684377D01*
X2004009Y681736D01*
X2006041Y677875D01*
X2006244Y673557D01*
X2004669Y669493D01*
X1997506Y658723D01*
X1991207Y646023D01*
X1986635Y632561D01*
X1983943Y618693D01*
X1983028Y604520D01*
X1983943Y590397D01*
X1986635Y576478D01*
X1991207Y563067D01*
X1997506Y550316D01*
X2005380Y538530D01*
X2014778Y527913D01*
X2025446Y518566D01*
X2037232Y510641D01*
X2049932Y504393D01*
X2063292Y499821D01*
X2077262Y497078D01*
X2091334Y496163D01*
X2105507Y497078D01*
X2119426Y499821D01*
X2132888Y504393D01*
X2145588Y510641D01*
X2157323Y518566D01*
X2168042Y527913D01*
X2177389Y538530D01*
X2185212Y550316D01*
X2191562Y563067D01*
X2196084Y576478D01*
X2198827Y590397D01*
X2199792Y604520D01*
X2198827Y618693D01*
X2196084Y632561D01*
X2191562Y646023D01*
X2185212Y658723D01*
X2178050Y669493D01*
X2176475Y673557D01*
X2176678Y677875D01*
X2178812Y681736D01*
X2182266Y684377D01*
X2186533Y685292D01*
X2598166Y685292D01*
X2601772Y684631D01*
X2604973Y682701D01*
X2607259Y679754D01*
X2608275Y676198D01*
X2608021Y672490D01*
X2607360Y670204D01*
X2606548Y660400D01*
X2607360Y650595D01*
X2609951Y641146D01*
X2614066Y632206D01*
X2619705Y624179D01*
X2626614Y617220D01*
X2634691Y611581D01*
X2643632Y607466D01*
X2653030Y604926D01*
X2662834Y604062D01*
X2672689Y604926D01*
X2682087Y607466D01*
X2691028Y611581D01*
X2699105Y617220D01*
X2700680Y618794D01*
X2703982Y621030D01*
X2707843Y621792D01*
X2960116Y621792D01*
X2964078Y621030D01*
X2967380Y618794D01*
X3130448Y455625D01*
X3136696Y450545D01*
X3143351Y446989D01*
X3150616Y444754D01*
X3158693Y443992D01*
X3208426Y443992D01*
X3212287Y443230D01*
X3215589Y440994D01*
X3217773Y437692D01*
X3218535Y433832D01*
X3218535Y350926D01*
X3219246Y344576D01*
X3221177Y339140D01*
X3224326Y334213D01*
X3228390Y330149D01*
X3233267Y327050D01*
X3238703Y325170D01*
X3245053Y324459D01*
X3358946Y324459D01*
X3365246Y325170D01*
X3370732Y327050D01*
X3375609Y330149D01*
X3379673Y334213D01*
X3382822Y339140D01*
X3384651Y344576D01*
X3385362Y350926D01*
X3385362Y420827D01*
X3386124Y424688D01*
X3388410Y427990D01*
X3391712Y430174D01*
X3395522Y430987D01*
X3438855Y430987D01*
X3442512Y430276D01*
X3445662Y428294D01*
X3447948Y425297D01*
X3452825Y415442D01*
X3460648Y403656D01*
X3470046Y393039D01*
X3480714Y383692D01*
X3492500Y375767D01*
X3505200Y369519D01*
X3518662Y364947D01*
X3532733Y362204D01*
X3536950Y360934D01*
X3540251Y358038D01*
X3542029Y354025D01*
X3541928Y349605D01*
X3539998Y345694D01*
X3536594Y342950D01*
X3527551Y338480D01*
X3515766Y330606D01*
X3505098Y321259D01*
X3495700Y310591D01*
X3487826Y298805D01*
X3481628Y286105D01*
X3477056Y272643D01*
X3474262Y258775D01*
X3473348Y244602D01*
X3474262Y230479D01*
X3477056Y216560D01*
X3481628Y203149D01*
X3487826Y190398D01*
X3495700Y178612D01*
X3505098Y167995D01*
X3515766Y158648D01*
X3527551Y150723D01*
X3536594Y146304D01*
X3539998Y143560D01*
X3541928Y139598D01*
X3542029Y135178D01*
X3540251Y131165D01*
X3536950Y128270D01*
X3532530Y127050D01*
X3518662Y124256D01*
X3505200Y119684D01*
X3492500Y113436D01*
X3480714Y105562D01*
X3470046Y96215D01*
X3460648Y85547D01*
X3452825Y73761D01*
X3446576Y61061D01*
X3442258Y48463D01*
X3440429Y45161D01*
X3437483Y42824D01*
X3433978Y41656D01*
X3430219Y41859D01*
X3426815Y43383D01*
X3419043Y48818D01*
X3410153Y52933D01*
X3400653Y55473D01*
X3394659Y56032D01*
X3391103Y57048D01*
X3388055Y59283D01*
X3386124Y62433D01*
X3385362Y66141D01*
X3385362Y106273D01*
X3384651Y112623D01*
X3382822Y118059D01*
X3379673Y122986D01*
X3375609Y127050D01*
X3370732Y130149D01*
X3365246Y132029D01*
X3358946Y132740D01*
X3245053Y132740D01*
X3238703Y132029D01*
X3233267Y130149D01*
X3228390Y127050D01*
X3224326Y122986D01*
X3221177Y118059D01*
X3219246Y112623D01*
X3218535Y106273D01*
X3218535Y12395D01*
X3219094Y7518D01*
X3218891Y4064D01*
X3217621Y914D01*
X3215284Y-1625D01*
X3212287Y-3251D01*
X3200400Y-7315D01*
X3187700Y-13563D01*
X3175914Y-21437D01*
X3165246Y-30784D01*
X3155848Y-41452D01*
X3148025Y-53238D01*
X3143148Y-63144D01*
X3140862Y-66141D01*
X3137712Y-68122D01*
X3133953Y-68834D01*
X2985414Y-68834D01*
X2981655Y-68072D01*
X2978404Y-65989D01*
X2976219Y-62839D01*
X2975305Y-59131D01*
X2975864Y-55270D01*
X2977794Y-51968D01*
X2982671Y-46431D01*
X2990596Y-34645D01*
X2996844Y-21894D01*
X3001416Y-8483D01*
X3004108Y5435D01*
X3005023Y19558D01*
X3004108Y33731D01*
X3001416Y47599D01*
X2996844Y61061D01*
X2990596Y73761D01*
X2982671Y85547D01*
X2973273Y96215D01*
X2962706Y105562D01*
X2950921Y113436D01*
X2938119Y119684D01*
X2924759Y124256D01*
X2910789Y127050D01*
X2902864Y127558D01*
X2899003Y128574D01*
X2895803Y131013D01*
X2893872Y134416D01*
X2893314Y138379D01*
X2894330Y142189D01*
X2896819Y145338D01*
X2900222Y147320D01*
X2902305Y148031D01*
X2915107Y154279D01*
X2926892Y162204D01*
X2937459Y171551D01*
X2946857Y182168D01*
X2954782Y193954D01*
X2961030Y206705D01*
X2965551Y220116D01*
X2968294Y234035D01*
X2969209Y248158D01*
X2968294Y262331D01*
X2965551Y276199D01*
X2961030Y289661D01*
X2954782Y302361D01*
X2946857Y314147D01*
X2937459Y324815D01*
X2926892Y334162D01*
X2915107Y342036D01*
X2911500Y343763D01*
X2908300Y346354D01*
X2906268Y350012D01*
X2906014Y354177D01*
X2907385Y358140D01*
X2910230Y361188D01*
X2914091Y362864D01*
X2924759Y364947D01*
X2938119Y369519D01*
X2950921Y375767D01*
X2962706Y383692D01*
X2973374Y393039D01*
X2982671Y403656D01*
X2990596Y415442D01*
X2996844Y428193D01*
X3001416Y441604D01*
X3004108Y455523D01*
X3005023Y469646D01*
X3004108Y483819D01*
X3001416Y497687D01*
X2996844Y511149D01*
X2990596Y523849D01*
X2982671Y535635D01*
X2973374Y546303D01*
X2962706Y555650D01*
X2950921Y563524D01*
X2938119Y569772D01*
X2924759Y574344D01*
X2910789Y577138D01*
X2896717Y578053D01*
X2882544Y577138D01*
X2868625Y574344D01*
X2855214Y569772D01*
X2842514Y563524D01*
X2830728Y555650D01*
X2820060Y546303D01*
X2810662Y535635D01*
X2802839Y523849D01*
X2796590Y511149D01*
X2791968Y497687D01*
X2789224Y483819D01*
X2788310Y469646D01*
X2789224Y455523D01*
X2791968Y441604D01*
X2796590Y428193D01*
X2802839Y415442D01*
X2810662Y403656D01*
X2820060Y393039D01*
X2830728Y383692D01*
X2842514Y375767D01*
X2846019Y374040D01*
X2849321Y371500D01*
X2851251Y367792D01*
X2851607Y363626D01*
X2850235Y359664D01*
X2847289Y356616D01*
X2843530Y354990D01*
X2832862Y352856D01*
X2819400Y348284D01*
X2806700Y342036D01*
X2794914Y334162D01*
X2784246Y324815D01*
X2774848Y314147D01*
X2767025Y302361D01*
X2760776Y289661D01*
X2756154Y276199D01*
X2753410Y262331D01*
X2752496Y248158D01*
X2753410Y234035D01*
X2756154Y220116D01*
X2760776Y206705D01*
X2767025Y193954D01*
X2774848Y182168D01*
X2784246Y171551D01*
X2794914Y162204D01*
X2806700Y154279D01*
X2819400Y148031D01*
X2832862Y143459D01*
X2846730Y140716D01*
X2854756Y140208D01*
X2858516Y139141D01*
X2861716Y136753D01*
X2863646Y133299D01*
X2864205Y129387D01*
X2863189Y125577D01*
X2860802Y122428D01*
X2857296Y120446D01*
X2855214Y119684D01*
X2842514Y113436D01*
X2830728Y105562D01*
X2820060Y96215D01*
X2810662Y85547D01*
X2802839Y73761D01*
X2796590Y61061D01*
X2791968Y47599D01*
X2789224Y33731D01*
X2788310Y19558D01*
X2789224Y5435D01*
X2791968Y-8483D01*
X2796590Y-21894D01*
X2802839Y-34645D01*
X2810662Y-46431D01*
X2815539Y-51968D01*
X2817469Y-55270D01*
X2818028Y-59131D01*
X2817215Y-62839D01*
X2814980Y-65989D01*
X2811678Y-68072D01*
X2807970Y-68834D01*
X2563571Y-68834D01*
X2559710Y-68072D01*
X2556357Y-65836D01*
X2519934Y-29413D01*
X2517800Y-26314D01*
X2516987Y-22656D01*
X2517546Y-18948D01*
X2521051Y-8483D01*
X2523794Y5435D01*
X2524709Y19558D01*
X2523794Y33731D01*
X2521051Y47599D01*
X2516530Y61061D01*
X2510282Y73761D01*
X2502357Y85547D01*
X2492959Y96215D01*
X2482392Y105562D01*
X2470607Y113436D01*
X2461514Y117906D01*
X2458110Y120650D01*
X2456180Y124561D01*
X2456078Y128981D01*
X2457805Y132994D01*
X2461107Y135890D01*
X2465527Y137160D01*
X2479446Y139903D01*
X2492857Y144475D01*
X2505659Y150723D01*
X2517444Y158648D01*
X2528112Y167995D01*
X2537409Y178612D01*
X2545334Y190398D01*
X2548534Y197002D01*
X2550769Y199999D01*
X2553970Y201980D01*
X2557678Y202692D01*
X2617876Y202692D01*
X2621737Y201930D01*
X2625039Y199694D01*
X2626614Y198120D01*
X2634691Y192481D01*
X2643632Y188366D01*
X2653030Y185826D01*
X2662834Y184962D01*
X2672689Y185826D01*
X2682087Y188366D01*
X2691028Y192481D01*
X2699105Y198120D01*
X2706014Y205079D01*
X2711653Y213106D01*
X2715768Y222046D01*
X2718358Y231495D01*
X2719171Y241300D01*
X2718358Y251104D01*
X2715768Y260553D01*
X2711653Y269494D01*
X2706014Y277520D01*
X2699105Y284480D01*
X2691028Y290118D01*
X2682087Y294233D01*
X2672689Y296773D01*
X2662834Y297637D01*
X2653030Y296773D01*
X2643632Y294233D01*
X2634691Y290118D01*
X2626614Y284480D01*
X2625039Y282854D01*
X2621737Y280670D01*
X2617876Y279908D01*
X2560878Y279908D01*
X2557221Y280568D01*
X2554071Y282549D01*
X2551785Y285546D01*
X2545334Y298805D01*
X2537409Y310591D01*
X2528112Y321259D01*
X2517444Y330606D01*
X2505659Y338480D01*
X2492857Y344728D01*
X2479446Y349300D01*
X2465374Y352094D01*
X2461107Y353314D01*
X2457805Y356209D01*
X2456078Y360222D01*
X2456180Y364642D01*
X2458110Y368604D01*
X2461514Y371348D01*
X2470607Y375767D01*
X2482392Y383692D01*
X2493060Y393039D01*
X2502357Y403656D01*
X2510282Y415442D01*
X2516530Y428193D01*
X2521051Y441604D01*
X2523794Y455523D01*
X2524709Y469646D01*
X2523794Y483819D01*
X2521051Y497687D01*
X2516530Y511149D01*
X2510282Y523849D01*
X2502357Y535635D01*
X2493060Y546303D01*
X2482392Y555650D01*
X2470607Y563524D01*
X2457805Y569772D01*
X2444394Y574344D01*
X2430475Y577138D01*
X2416403Y578053D01*
X2402230Y577138D01*
X2388362Y574344D01*
X2374900Y569772D01*
X2362200Y563524D01*
X2350414Y555650D01*
X2339746Y546303D01*
X2330348Y535635D01*
X2322525Y523849D01*
X2317546Y513842D01*
X2315362Y510844D01*
X2312162Y508863D01*
X2308453Y508203D01*
X2243937Y508203D01*
X2235860Y507390D01*
X2228646Y505206D01*
X2222042Y501650D01*
X2215794Y496519D01*
X2193493Y474218D01*
X2190191Y472033D01*
X2186330Y471271D01*
X2114753Y471271D01*
X2108403Y470560D01*
X2102967Y468630D01*
X2098090Y465531D01*
X2094026Y461467D01*
X2090877Y456539D01*
X2088946Y451104D01*
X2088235Y444804D01*
X2088235Y350926D01*
X2088946Y344576D01*
X2090877Y339140D01*
X2094026Y334213D01*
X2098090Y330149D01*
X2102967Y327050D01*
X2108403Y325170D01*
X2114753Y324459D01*
X2228646Y324459D01*
X2234946Y325170D01*
X2240432Y327050D01*
X2245309Y330149D01*
X2249373Y334213D01*
X2252522Y339140D01*
X2254351Y344576D01*
X2255062Y350926D01*
X2255062Y420827D01*
X2255824Y424688D01*
X2258110Y427990D01*
X2261412Y430174D01*
X2265222Y430987D01*
X2308555Y430987D01*
X2312212Y430276D01*
X2315362Y428294D01*
X2317648Y425297D01*
X2322525Y415442D01*
X2330348Y403656D01*
X2339746Y393039D01*
X2350414Y383692D01*
X2362200Y375767D01*
X2374900Y369519D01*
X2388362Y364947D01*
X2402433Y362204D01*
X2406650Y360934D01*
X2409952Y358038D01*
X2411730Y354025D01*
X2411628Y349605D01*
X2409698Y345694D01*
X2406294Y342950D01*
X2397252Y338480D01*
X2385466Y330606D01*
X2374798Y321259D01*
X2365400Y310591D01*
X2357526Y298805D01*
X2351328Y286105D01*
X2346756Y272643D01*
X2343962Y258775D01*
X2343048Y244602D01*
X2343962Y230479D01*
X2346756Y216560D01*
X2351328Y203149D01*
X2357526Y190398D01*
X2365400Y178612D01*
X2374798Y167995D01*
X2385466Y158648D01*
X2397252Y150723D01*
X2406294Y146304D01*
X2409698Y143560D01*
X2411628Y139598D01*
X2411730Y135178D01*
X2409952Y131165D01*
X2406650Y128270D01*
X2402230Y127050D01*
X2388362Y124256D01*
X2374900Y119684D01*
X2362200Y113436D01*
X2350414Y105562D01*
X2339746Y96215D01*
X2330348Y85547D01*
X2322525Y73761D01*
X2316276Y61061D01*
X2311958Y48463D01*
X2310130Y45161D01*
X2307183Y42824D01*
X2303678Y41656D01*
X2299970Y41859D01*
X2296515Y43383D01*
X2288743Y48818D01*
X2279853Y52933D01*
X2270353Y55473D01*
X2264359Y56032D01*
X2260803Y57048D01*
X2257755Y59283D01*
X2255824Y62433D01*
X2255062Y66141D01*
X2255062Y106273D01*
X2254351Y112623D01*
X2252522Y118059D01*
X2249373Y122986D01*
X2245309Y127050D01*
X2240432Y130149D01*
X2234946Y132029D01*
X2228646Y132740D01*
X2114753Y132740D01*
X2108403Y132029D01*
X2102967Y130149D01*
X2098090Y127050D01*
X2094026Y122986D01*
X2090877Y118059D01*
X2088946Y112623D01*
X2088235Y106273D01*
X2088235Y12395D01*
X2088794Y7518D01*
X2088591Y4064D01*
X2087321Y914D01*
X2084984Y-1625D01*
X2081987Y-3251D01*
X2070100Y-7315D01*
X2057400Y-13563D01*
X2045614Y-21437D01*
X2034946Y-30784D01*
X2025548Y-41452D01*
X2017725Y-53238D01*
X2012848Y-63144D01*
X2010562Y-66141D01*
X2007412Y-68122D01*
X2003653Y-68834D01*
X1855114Y-68834D01*
X1851355Y-68072D01*
X1848104Y-65989D01*
X1845919Y-62839D01*
X1845005Y-59131D01*
X1845564Y-55270D01*
X1847494Y-51968D01*
X1852371Y-46431D01*
X1860296Y-34645D01*
X1866544Y-21894D01*
X1871116Y-8483D01*
X1873808Y5435D01*
X1874723Y19558D01*
X1873808Y33731D01*
X1871116Y47599D01*
X1866544Y61061D01*
X1860296Y73761D01*
X1852371Y85547D01*
X1843074Y96215D01*
X1832406Y105562D01*
X1820621Y113436D01*
X1807819Y119684D01*
X1794459Y124256D01*
X1780489Y127050D01*
X1772564Y127558D01*
X1768703Y128574D01*
X1765503Y131013D01*
X1763572Y134416D01*
X1763014Y138379D01*
X1764030Y142189D01*
X1766519Y145338D01*
X1769922Y147320D01*
X1772005Y148031D01*
X1784807Y154279D01*
X1796592Y162204D01*
X1807260Y171551D01*
X1816557Y182168D01*
X1824482Y193954D01*
X1830730Y206705D01*
X1835251Y220116D01*
X1837994Y234035D01*
X1838909Y248158D01*
X1837994Y262331D01*
X1835251Y276199D01*
X1830730Y289661D01*
X1824482Y302361D01*
X1816557Y314147D01*
X1807260Y324815D01*
X1796592Y334162D01*
X1784807Y342036D01*
X1781302Y343763D01*
X1778000Y346354D01*
X1775968Y350012D01*
X1775714Y354177D01*
X1777085Y358140D01*
X1779930Y361188D01*
X1783791Y362864D01*
X1794459Y364947D01*
X1807819Y369519D01*
X1820621Y375767D01*
X1832406Y383692D01*
X1843074Y393039D01*
X1852371Y403656D01*
X1860296Y415442D01*
X1866544Y428193D01*
X1871116Y441604D01*
X1873808Y455523D01*
X1874723Y469646D01*
X1873808Y483819D01*
X1871116Y497687D01*
X1866544Y511149D01*
X1860296Y523849D01*
X1852371Y535635D01*
X1843074Y546303D01*
X1832406Y555650D01*
X1820621Y563524D01*
X1807819Y569772D01*
X1794459Y574344D01*
X1780489Y577138D01*
X1766417Y578053D01*
X1752244Y577138D01*
X1738325Y574344D01*
X1724914Y569772D01*
X1712214Y563524D01*
X1700428Y555650D01*
X1689760Y546303D01*
X1680362Y535635D01*
X1672539Y523849D01*
X1666290Y511149D01*
X1661668Y497687D01*
X1658924Y483819D01*
X1658010Y469646D01*
X1658924Y455523D01*
X1661668Y441604D01*
X1666290Y428193D01*
X1672539Y415442D01*
X1680362Y403656D01*
X1689760Y393039D01*
X1700428Y383692D01*
X1712214Y375767D01*
X1715719Y374040D01*
X1719021Y371500D01*
X1720951Y367792D01*
X1721307Y363626D01*
X1719935Y359664D01*
X1716989Y356616D01*
X1713230Y354990D01*
X1702562Y352856D01*
X1689100Y348284D01*
X1676400Y342036D01*
X1664614Y334162D01*
X1653946Y324815D01*
X1644548Y314147D01*
X1636725Y302361D01*
X1630476Y289661D01*
X1629460Y286816D01*
X1627327Y283210D01*
X1623923Y280771D01*
X1619808Y279908D01*
X1615643Y279908D01*
X1611782Y280670D01*
X1608480Y282905D01*
X1606905Y284480D01*
X1598828Y290118D01*
X1589887Y294233D01*
X1580489Y296773D01*
X1570634Y297637D01*
X1560830Y296773D01*
X1551432Y294233D01*
X1542491Y290118D01*
X1534414Y284480D01*
X1530146Y281228D01*
X1526184Y280466D01*
X1522272Y281228D01*
X1518005Y284480D01*
X1509928Y290118D01*
X1500987Y294233D01*
X1491589Y296773D01*
X1481734Y297637D01*
X1471930Y296773D01*
X1462532Y294233D01*
X1453591Y290118D01*
X1445514Y284480D01*
X1443939Y282854D01*
X1440637Y280670D01*
X1436776Y279908D01*
X1430578Y279908D01*
X1426921Y280568D01*
X1423771Y282549D01*
X1421485Y285546D01*
X1415034Y298805D01*
X1407109Y310591D01*
X1397812Y321259D01*
X1387144Y330606D01*
X1375359Y338480D01*
X1362557Y344728D01*
X1349146Y349300D01*
X1335074Y352094D01*
X1330807Y353314D01*
X1327505Y356209D01*
X1325778Y360222D01*
X1325880Y364642D01*
X1327810Y368604D01*
X1331214Y371348D01*
X1340307Y375767D01*
X1352092Y383692D01*
X1362760Y393039D01*
X1372057Y403656D01*
X1379982Y415442D01*
X1386230Y428193D01*
X1390751Y441604D01*
X1393494Y455523D01*
X1394409Y469646D01*
X1393494Y483819D01*
X1390751Y497687D01*
X1386230Y511149D01*
X1379982Y523849D01*
X1372057Y535635D01*
X1362760Y546303D01*
X1352092Y555650D01*
X1340307Y563524D01*
X1327505Y569772D01*
X1314094Y574344D01*
X1300175Y577138D01*
X1286103Y578053D01*
X1271930Y577138D01*
X1258062Y574344D01*
X1244600Y569772D01*
X1231900Y563524D01*
X1220114Y555650D01*
X1209446Y546303D01*
X1200048Y535635D01*
X1192225Y523849D01*
X1187246Y513842D01*
X1185062Y510844D01*
X1181862Y508863D01*
X1178153Y508203D01*
X1113637Y508203D01*
X1105560Y507390D01*
X1098346Y505206D01*
X1091742Y501650D01*
X1085494Y496519D01*
X1063193Y474218D01*
X1059891Y472033D01*
X1056030Y471271D01*
X984453Y471271D01*
X978103Y470560D01*
X972667Y468630D01*
X967790Y465531D01*
X963726Y461467D01*
X960577Y456539D01*
X958646Y451104D01*
X957935Y444804D01*
X957935Y350926D01*
X958646Y344576D01*
X960577Y339140D01*
X963726Y334213D01*
X967790Y330149D01*
X972667Y327050D01*
X978103Y325170D01*
X984453Y324459D01*
X1098346Y324459D01*
X1104646Y325170D01*
X1110132Y327050D01*
X1115009Y330149D01*
X1119073Y334213D01*
X1122222Y339140D01*
X1124051Y344576D01*
X1124762Y350926D01*
X1124762Y420827D01*
X1125524Y424688D01*
X1127810Y427990D01*
X1131112Y430174D01*
X1134922Y430987D01*
X1178255Y430987D01*
X1181912Y430276D01*
X1185062Y428294D01*
X1187348Y425297D01*
X1192225Y415442D01*
X1200048Y403656D01*
X1209446Y393039D01*
X1220114Y383692D01*
X1231900Y375767D01*
X1244600Y369519D01*
X1258062Y364947D01*
X1272133Y362204D01*
X1276350Y360934D01*
X1279652Y358038D01*
X1281430Y354025D01*
X1281328Y349605D01*
X1279398Y345694D01*
X1275994Y342950D01*
X1266952Y338480D01*
X1255166Y330606D01*
X1244498Y321259D01*
X1235100Y310591D01*
X1227226Y298805D01*
X1221028Y286105D01*
X1216456Y272643D01*
X1213662Y258775D01*
X1212748Y244602D01*
X1213662Y230479D01*
X1216456Y216560D01*
X1221028Y203149D01*
X1227226Y190398D01*
X1235100Y178612D01*
X1244498Y167995D01*
X1255166Y158648D01*
X1266952Y150723D01*
X1275994Y146304D01*
X1279398Y143560D01*
X1281328Y139598D01*
X1281430Y135178D01*
X1279652Y131165D01*
X1276350Y128270D01*
X1271930Y127050D01*
X1258062Y124256D01*
X1244600Y119684D01*
X1231900Y113436D01*
X1220114Y105562D01*
X1209446Y96215D01*
X1200048Y85547D01*
X1192225Y73761D01*
X1185976Y61061D01*
X1181658Y48463D01*
X1179830Y45161D01*
X1176883Y42824D01*
X1173378Y41656D01*
X1169670Y41859D01*
X1166215Y43383D01*
X1158443Y48818D01*
X1149553Y52933D01*
X1140053Y55473D01*
X1134059Y56032D01*
X1130503Y57048D01*
X1127455Y59283D01*
X1125524Y62433D01*
X1124762Y66141D01*
X1124762Y106273D01*
X1124051Y112623D01*
X1122222Y118059D01*
X1119073Y122986D01*
X1115009Y127050D01*
X1110132Y130149D01*
X1104646Y132029D01*
X1098346Y132740D01*
X984453Y132740D01*
X978103Y132029D01*
X972667Y130149D01*
X967790Y127050D01*
X963726Y122986D01*
X960577Y118059D01*
X958646Y112623D01*
X957935Y106273D01*
X957935Y12395D01*
X958494Y7518D01*
X958291Y4064D01*
X957021Y914D01*
X954684Y-1625D01*
X951687Y-3251D01*
X939800Y-7315D01*
X927100Y-13563D01*
X915314Y-21437D01*
X904646Y-30784D01*
X895248Y-41452D01*
X887425Y-53238D01*
X882548Y-63144D01*
X880262Y-66141D01*
X877112Y-68122D01*
X873353Y-68834D01*
X724814Y-68834D01*
X721055Y-68072D01*
X717804Y-65989D01*
X715619Y-62839D01*
X714705Y-59131D01*
X715264Y-55270D01*
X717194Y-51968D01*
X722071Y-46431D01*
X729996Y-34645D01*
X736244Y-21894D01*
X740816Y-8483D01*
X743508Y5435D01*
X744423Y19558D01*
X743508Y33731D01*
X740816Y47599D01*
X736244Y61061D01*
X729996Y73761D01*
X722071Y85547D01*
X712774Y96215D01*
X702106Y105562D01*
X690321Y113436D01*
X677519Y119684D01*
X664159Y124256D01*
X650189Y127050D01*
X642264Y127558D01*
X638403Y128574D01*
X635203Y131013D01*
X633272Y134416D01*
X632714Y138379D01*
X633730Y142189D01*
X636219Y145338D01*
X639622Y147320D01*
X641705Y148031D01*
X654507Y154279D01*
X666292Y162204D01*
X676960Y171551D01*
X686257Y182168D01*
X694182Y193954D01*
X700430Y206705D01*
X704951Y220116D01*
X707694Y234035D01*
X708609Y248158D01*
X707694Y262331D01*
X704951Y276199D01*
X700430Y289661D01*
X694182Y302361D01*
X686257Y314147D01*
X676960Y324815D01*
X666292Y334162D01*
X654507Y342036D01*
X651002Y343763D01*
X647700Y346354D01*
X645668Y350012D01*
X645414Y354177D01*
X646785Y358140D01*
X649630Y361188D01*
X653491Y362864D01*
X664159Y364947D01*
X677519Y369519D01*
X690321Y375767D01*
X702106Y383692D01*
X712774Y393039D01*
X722071Y403656D01*
X729996Y415442D01*
X736244Y428193D01*
X740816Y441604D01*
X743508Y455523D01*
X744423Y469646D01*
X743508Y483819D01*
X740816Y497687D01*
X736244Y511149D01*
X729996Y523849D01*
X722071Y535635D01*
X712774Y546303D01*
X702106Y555650D01*
X690321Y563524D01*
X677519Y569772D01*
X664159Y574344D01*
X650189Y577138D01*
X636117Y578053D01*
X621944Y577138D01*
X608025Y574344D01*
X594614Y569772D01*
X581914Y563524D01*
X570128Y555650D01*
X559460Y546303D01*
X550062Y535635D01*
X542239Y523849D01*
X535990Y511149D01*
X531368Y497687D01*
X528624Y483819D01*
X527710Y469646D01*
X528624Y455523D01*
X531368Y441604D01*
X535990Y428193D01*
X542239Y415442D01*
X550062Y403656D01*
X559460Y393039D01*
X570128Y383692D01*
X581914Y375767D01*
X585419Y374040D01*
X588721Y371500D01*
X590651Y367792D01*
X591007Y363626D01*
X589635Y359664D01*
X586689Y356616D01*
X582930Y354990D01*
X572211Y352856D01*
X558800Y348284D01*
X546100Y342036D01*
X534314Y334162D01*
X523646Y324815D01*
X514248Y314147D01*
X506425Y302361D01*
X500176Y289661D01*
X499160Y286816D01*
X497027Y283210D01*
X493623Y280771D01*
X489508Y279908D01*
X447243Y279908D01*
X443382Y280670D01*
X440080Y282854D01*
X438505Y284480D01*
X430428Y290118D01*
X421487Y294233D01*
X412089Y296773D01*
X402234Y297637D01*
X392430Y296773D01*
X383032Y294233D01*
X374091Y290118D01*
X366014Y284480D01*
X359105Y277520D01*
X353466Y269494D01*
X349351Y260553D01*
X346760Y251104D01*
X345948Y241300D01*
X346760Y231495D01*
X349351Y222046D01*
X353466Y213106D01*
X359105Y205079D01*
X366014Y198120D01*
X374091Y192481D01*
X383032Y188366D01*
X392430Y185826D01*
X402234Y184962D01*
X412089Y185826D01*
X421487Y188366D01*
X430428Y192481D01*
X438505Y198120D01*
X440080Y199694D01*
X443382Y201930D01*
X447243Y202692D01*
X495757Y202692D01*
X499516Y201980D01*
X502666Y199999D01*
X504951Y197002D01*
X506425Y193954D01*
X514248Y182168D01*
X523646Y171551D01*
X534314Y162204D01*
X546100Y154279D01*
X558800Y148031D01*
X572211Y143459D01*
X586130Y140716D01*
X594156Y140208D01*
X597916Y139141D01*
X601116Y136753D01*
X603046Y133299D01*
X603605Y129387D01*
X602589Y125577D01*
X600202Y122428D01*
X596696Y120446D01*
X594614Y119684D01*
X581914Y113436D01*
X570128Y105562D01*
X559460Y96215D01*
X550062Y85547D01*
X542239Y73761D01*
X535990Y61061D01*
X531368Y47599D01*
X528624Y33731D01*
X527710Y19558D01*
X528624Y5435D01*
X531368Y-8483D01*
X535990Y-21894D01*
X542239Y-34645D01*
X550062Y-46431D01*
X554939Y-51968D01*
X556869Y-55270D01*
X557530Y-59131D01*
X556615Y-62839D01*
X554380Y-65989D01*
X551078Y-68072D01*
X547370Y-68834D01*
X303022Y-68834D01*
X299110Y-68072D01*
X295757Y-65836D01*
X259334Y-29413D01*
X257200Y-26314D01*
X256336Y-22656D01*
X256895Y-18948D01*
X260502Y-8483D01*
X263194Y5435D01*
X264109Y19558D01*
X263194Y33731D01*
X260502Y47599D01*
X255879Y61061D01*
X249682Y73761D01*
X241757Y85547D01*
X232410Y96215D01*
X221742Y105562D01*
X209956Y113436D01*
X200964Y117906D01*
X197510Y120650D01*
X195580Y124561D01*
X195478Y128981D01*
X197205Y132994D01*
X200507Y135890D01*
X204927Y137160D01*
X218897Y139903D01*
X232257Y144475D01*
X245008Y150723D01*
X256794Y158648D01*
X267462Y167995D01*
X276809Y178612D01*
X284683Y190398D01*
X290931Y203149D01*
X295503Y216560D01*
X298246Y230479D01*
X299161Y244602D01*
X298246Y258775D01*
X295503Y272643D01*
X290931Y286105D01*
X284683Y298805D01*
X276809Y310591D01*
X267462Y321259D01*
X256794Y330606D01*
X245008Y338480D01*
X232257Y344728D01*
X218897Y349300D01*
X204774Y352094D01*
X200507Y353314D01*
X197205Y356209D01*
X195478Y360222D01*
X195580Y364642D01*
X197510Y368604D01*
X200964Y371348D01*
X209956Y375767D01*
X221742Y383692D01*
X232410Y393039D01*
X241757Y403656D01*
X249682Y415442D01*
X255879Y428193D01*
X260502Y441604D01*
X263194Y455523D01*
X264109Y469646D01*
X263194Y483819D01*
X260502Y497687D01*
X255879Y511149D01*
X249682Y523849D01*
X241757Y535635D01*
X232410Y546303D01*
X221742Y555650D01*
X209956Y563524D01*
X197205Y569772D01*
X183845Y574344D01*
X169875Y577138D01*
X155752Y578053D01*
X141579Y577138D01*
X127711Y574344D01*
X114249Y569772D01*
X101549Y563524D01*
X89763Y555650D01*
X79095Y546303D01*
X69748Y535635D01*
X61874Y523849D01*
X56946Y513842D01*
X54762Y510844D01*
X51511Y508863D01*
X47853Y508203D01*
X-16713Y508203D01*
X-24688Y507390D01*
X-31953Y505206D01*
X-38608Y501650D01*
X-44805Y496519D01*
X-67106Y474218D01*
X-70408Y472033D01*
X-74320Y471271D01*
X-145796Y471271D01*
X-152146Y470560D01*
X-157581Y468630D01*
X-162509Y465531D01*
X-166624Y461467D01*
X-169722Y456539D01*
X-171602Y451104D01*
X-172262Y444804D01*
X-172262Y350926D01*
X-171602Y344576D01*
X-169722Y339140D01*
X-166624Y334213D01*
X-162509Y330149D01*
X-157581Y327050D01*
X-152146Y325170D01*
X-145796Y324459D01*
X-32004Y324459D01*
X-25654Y325170D01*
X-20218Y327050D01*
X-15341Y330149D01*
X-11176Y334213D01*
X-8077Y339140D01*
X-6197Y344576D01*
X-5537Y350926D01*
X-5537Y420827D01*
X-4673Y424688D01*
X-2540Y427990D01*
X762Y430174D01*
X4622Y430987D01*
X47955Y430987D01*
X51612Y430276D01*
X54813Y428294D01*
X57048Y425297D01*
X61874Y415442D01*
X69748Y403656D01*
X79095Y393039D01*
X89763Y383692D01*
X101549Y375767D01*
X114249Y369519D01*
X127711Y364947D01*
X141884Y362204D01*
X146100Y360934D01*
X149352Y358038D01*
X151180Y354025D01*
X151079Y349605D01*
X149148Y345694D01*
X145694Y342950D01*
X136601Y338480D01*
X124815Y330606D01*
X114147Y321259D01*
X104800Y310591D01*
X96977Y298805D01*
X90474Y285546D01*
X88188Y282549D01*
X85039Y280568D01*
X81330Y279908D01*
X-289356Y279908D01*
X-293268Y280670D01*
X-296570Y282854D01*
X-298145Y284480D01*
X-306120Y290118D01*
X-315112Y294233D01*
X-324561Y296773D01*
X-334365Y297637D01*
X-344119Y296773D01*
X-353568Y294233D01*
X-362559Y290118D01*
X-370535Y284480D01*
X-377494Y277520D01*
X-383184Y269494D01*
X-387248Y260553D01*
X-389839Y251104D01*
X-390652Y241300D01*
X-389839Y231495D01*
X-387248Y222046D01*
X-383184Y213106D01*
X-377494Y205079D01*
X-370535Y198120D01*
X-362559Y192481D01*
X-353568Y188366D01*
X-344119Y185826D01*
X-334365Y184962D01*
X-324561Y185826D01*
X-315112Y188366D01*
X-306120Y192481D01*
X-298145Y198120D01*
X-296570Y199694D01*
X-293268Y201930D01*
X-289407Y202692D01*
X84632Y202692D01*
X88239Y201980D01*
X91490Y199999D01*
X93675Y197002D01*
X96977Y190398D01*
X104800Y178612D01*
X114147Y167995D01*
X124815Y158648D01*
X136601Y150723D01*
X145694Y146304D01*
X149148Y143560D01*
X151079Y139598D01*
X151180Y135178D01*
X149352Y131165D01*
X146100Y128270D01*
X141579Y127050D01*
X127711Y124256D01*
X114249Y119684D01*
X101549Y113436D01*
X89763Y105562D01*
X79095Y96215D01*
X69748Y85547D01*
X61874Y73761D01*
X55626Y61061D01*
X51409Y48463D01*
X49530Y45161D01*
X46634Y42773D01*
X43078Y41656D01*
X39319Y41859D01*
X35915Y43383D01*
X28143Y48818D01*
X19304Y52933D01*
X9753Y55473D01*
X3759Y56032D01*
X203Y57048D01*
X-2794Y59283D01*
X-4775Y62433D01*
X-5537Y66141D01*
X-5537Y106273D01*
X-6197Y112623D01*
X-8077Y118059D01*
X-11176Y122986D01*
X-15341Y127050D01*
X-20218Y130149D01*
X-25654Y132029D01*
X-32004Y132740D01*
X-145796Y132740D01*
X-152146Y132029D01*
X-157581Y130149D01*
X-162509Y127050D01*
X-166624Y122986D01*
X-169722Y118059D01*
X-171602Y112623D01*
X-172262Y106273D01*
X-172262Y12395D01*
X-171754Y7518D01*
X-171958Y4064D01*
X-173228Y914D01*
X-175615Y-1625D01*
X-178562Y-3251D01*
X-190550Y-7315D01*
X-203250Y-13563D01*
X-215036Y-21437D01*
X-225704Y-30784D01*
X-235051Y-41452D01*
X-242925Y-53238D01*
X-249174Y-65938D01*
X-250139Y-68783D01*
X-252272Y-72390D01*
X-255676Y-74828D01*
X-259740Y-75692D01*
X-411835Y-75692D01*
X-415848Y-74879D01*
X-419201Y-72542D01*
X-421284Y-69138D01*
X-421944Y-65074D01*
X-420928Y-61163D01*
X-408178Y-46431D01*
X-400304Y-34645D01*
X-394055Y-21894D01*
X-389534Y-8483D01*
X-386740Y5435D01*
X-385826Y19558D01*
X-386740Y33731D01*
X-389534Y47599D01*
X-394055Y61061D01*
X-400304Y73761D01*
X-408178Y85547D01*
X-417525Y96215D01*
X-428193Y105562D01*
X-439978Y113436D01*
X-452729Y119684D01*
X-466191Y124256D01*
X-480059Y127050D01*
X-488086Y127558D01*
X-491947Y128574D01*
X-495046Y131013D01*
X-497027Y134416D01*
X-497535Y138379D01*
X-496519Y142189D01*
X-494080Y145338D01*
X-490677Y147320D01*
X-488594Y148031D01*
X-475843Y154279D01*
X-464058Y162204D01*
X-453390Y171551D01*
X-444042Y182168D01*
X-436118Y193954D01*
X-429920Y206705D01*
X-425297Y220116D01*
X-422605Y234035D01*
X-421690Y248158D01*
X-422605Y262331D01*
X-425297Y276199D01*
X-429920Y289661D01*
X-436118Y302361D01*
X-444042Y314147D01*
X-453390Y324815D01*
X-464058Y334162D01*
X-475843Y342036D01*
X-479348Y343763D01*
X-482650Y346354D01*
X-484632Y350012D01*
X-484885Y354177D01*
X-483514Y358140D01*
X-480720Y361188D01*
X-476859Y362864D01*
X-466191Y364947D01*
X-452729Y369519D01*
X-439978Y375767D01*
X-428193Y383692D01*
X-417525Y393039D01*
X-408178Y403656D01*
X-400304Y415442D01*
X-394055Y428193D01*
X-389534Y441604D01*
X-386740Y455523D01*
X-385826Y469646D01*
X-386740Y483819D01*
X-389534Y497687D01*
X-394055Y511149D01*
X-400304Y523849D01*
X-408178Y535635D01*
X-417525Y546303D01*
X-428193Y555650D01*
X-439978Y563524D01*
X-452729Y569772D01*
X-466191Y574344D01*
X-480059Y577138D01*
X-494182Y578053D01*
X-508355Y577138D01*
X-522274Y574344D01*
X-535686Y569772D01*
X-548386Y563524D01*
X-560171Y555650D01*
X-570839Y546303D01*
X-580186Y535635D01*
X-588060Y523849D01*
X-594309Y511149D01*
X-598932Y497687D01*
X-601624Y483819D01*
X-602589Y469646D01*
X-601624Y455523D01*
X-598932Y441604D01*
X-594309Y428193D01*
X-588060Y415442D01*
X-580186Y403656D01*
X-570839Y393039D01*
X-560171Y383692D01*
X-548386Y375767D01*
X-544880Y374040D01*
X-541578Y371500D01*
X-539597Y367792D01*
X-539343Y363626D01*
X-540664Y359664D01*
X-543560Y356616D01*
X-547370Y354990D01*
X-558088Y352856D01*
X-571550Y348284D01*
X-584250Y342036D01*
X-596036Y334162D01*
X-606704Y324815D01*
X-616051Y314147D01*
X-623925Y302361D01*
X-630174Y289661D01*
X-634746Y276199D01*
X-637489Y262331D01*
X-638200Y251307D01*
X-639165Y247599D01*
X-641400Y244551D01*
X-644601Y242519D01*
X-648360Y241808D01*
X-833424Y241808D01*
X-837184Y242570D01*
X-840435Y244652D01*
X-842721Y247853D01*
X-845667Y254508D01*
X-853033Y266649D01*
X-861872Y277723D01*
X-872083Y287629D01*
X-883412Y296113D01*
X-895858Y303123D01*
X-908964Y308457D01*
X-922782Y312013D01*
X-936802Y313842D01*
X-951077Y313842D01*
X-965098Y312013D01*
X-978916Y308457D01*
X-992022Y303123D01*
X-1004468Y296113D01*
X-1015796Y287629D01*
X-1026007Y277723D01*
X-1034846Y266649D01*
X-1042212Y254508D01*
X-1048003Y241503D01*
X-1052017Y227888D01*
X-1054354Y213817D01*
X-1054811Y199644D01*
X-1053388Y185521D01*
X-1050290Y171653D01*
X-1045362Y158292D01*
X-1038758Y145694D01*
X-1030681Y134061D01*
X-1021130Y123545D01*
X-1010310Y114350D01*
X-998321Y106578D01*
X-985519Y100431D01*
X-972108Y95910D01*
X-958087Y93218D01*
X-943965Y92303D01*
X-929792Y93218D01*
X-915771Y95910D01*
X-902360Y100431D01*
X-889558Y106578D01*
X-877620Y114350D01*
X-866800Y123545D01*
X-857300Y134061D01*
X-849172Y145694D01*
X-842213Y159105D01*
X-839927Y162001D01*
X-836777Y163931D01*
X-833119Y164592D01*
X-602538Y164592D01*
X-599592Y164134D01*
X-596950Y162864D01*
X-584250Y154279D01*
X-571550Y148031D01*
X-558088Y143459D01*
X-544220Y140716D01*
X-536143Y140208D01*
X-532333Y139141D01*
X-529234Y136753D01*
X-527253Y133299D01*
X-526694Y129387D01*
X-527761Y125577D01*
X-530148Y122428D01*
X-533603Y120446D01*
X-535686Y119684D01*
X-548386Y113436D01*
X-560171Y105562D01*
X-570839Y96215D01*
X-580186Y85547D01*
X-588060Y73761D01*
X-594309Y61061D01*
X-598932Y47599D01*
X-601624Y33731D01*
X-602589Y19558D01*
X-601624Y5435D01*
X-598932Y-8483D01*
X-594309Y-21894D01*
X-588060Y-34645D01*
X-580186Y-46431D01*
X-567436Y-61163D01*
X-566420Y-65074D01*
X-567131Y-69138D01*
X-569315Y-72542D01*
X-572668Y-74879D01*
X-576630Y-75692D01*
X-644956Y-75692D01*
X-648868Y-74930D01*
X-652170Y-72745D01*
X-653745Y-71120D01*
X-661720Y-65481D01*
X-670712Y-61366D01*
X-680161Y-58826D01*
X-687984Y-58115D01*
X-691438Y-57200D01*
X-694334Y-55168D01*
X-696315Y-52273D01*
X-697280Y-48869D01*
X-697941Y-40995D01*
X-700532Y-31546D01*
X-704596Y-22606D01*
X-710285Y-14579D01*
X-717245Y-7620D01*
X-725220Y-1981D01*
X-734212Y2133D01*
X-743661Y4673D01*
X-753465Y5537D01*
X-763219Y4673D01*
X-772668Y2133D01*
X-781659Y-1981D01*
X-789635Y-7620D01*
X-791210Y-9194D01*
X-794512Y-11430D01*
X-798423Y-12192D01*
X-833424Y-12192D01*
X-837184Y-11430D01*
X-840435Y-9347D01*
X-842721Y-6146D01*
X-845667Y508D01*
X-853033Y12649D01*
X-861872Y23723D01*
X-872083Y33629D01*
X-883412Y42113D01*
X-895858Y49123D01*
X-908964Y54457D01*
X-922782Y58013D01*
X-936802Y59842D01*
X-951077Y59842D01*
X-965098Y58013D01*
X-978916Y54457D01*
X-992022Y49123D01*
X-1004468Y42113D01*
X-1015796Y33629D01*
X-1026007Y23723D01*
X-1034846Y12649D01*
X-1042212Y508D01*
X-1048003Y-12496D01*
X-1052017Y-26111D01*
X-1054354Y-40182D01*
X-1054811Y-54356D01*
X-1053388Y-68478D01*
X-1050290Y-82346D01*
X-1045362Y-95707D01*
X-1038758Y-108305D01*
X-1030681Y-119938D01*
X-1021130Y-130454D01*
X-1010310Y-139649D01*
X-998321Y-147421D01*
X-985519Y-153568D01*
X-972108Y-158089D01*
X-958087Y-160782D01*
X-943965Y-161696D01*
X-929792Y-160782D01*
X-915771Y-158089D01*
X-902360Y-153568D01*
X-889558Y-147421D01*
X-877620Y-139649D01*
X-866800Y-130454D01*
X-857300Y-119938D01*
X-849172Y-108305D01*
X-842213Y-94894D01*
X-839927Y-91998D01*
X-836777Y-90068D01*
X-833119Y-89408D01*
X-798423Y-89408D01*
X-794512Y-90170D01*
X-791210Y-92405D01*
X-789635Y-93980D01*
X-781659Y-99618D01*
X-772668Y-103733D01*
X-763219Y-106273D01*
X-755396Y-106984D01*
X-751992Y-107899D01*
X-749046Y-109931D01*
X-747064Y-112826D01*
X-746099Y-116230D01*
X-745439Y-124104D01*
X-742848Y-133553D01*
X-738784Y-142494D01*
X-733094Y-150520D01*
X-726135Y-157480D01*
X-718159Y-163118D01*
X-709168Y-167233D01*
X-699719Y-169773D01*
X-689965Y-170637D01*
X-680161Y-169773D01*
X-670712Y-167233D01*
X-661720Y-163118D01*
X-653745Y-157480D01*
X-652170Y-155905D01*
X-648868Y-153670D01*
X-645007Y-152908D01*
X-253542Y-152908D01*
X-249834Y-153619D01*
X-246634Y-155600D01*
X-244398Y-158597D01*
X-242925Y-161645D01*
X-235051Y-173431D01*
X-225704Y-184048D01*
X-215036Y-193395D01*
X-203250Y-201320D01*
X-190550Y-207568D01*
X-177088Y-212140D01*
X-163220Y-214884D01*
X-149047Y-215798D01*
X-134924Y-214884D01*
X-120954Y-212140D01*
X-107594Y-207568D01*
X-94843Y-201320D01*
X-83058Y-193395D01*
X-72390Y-184048D01*
X-63042Y-173431D01*
X-55117Y-161645D01*
X-50241Y-151688D01*
X-48056Y-148691D01*
X-44805Y-146710D01*
X-41198Y-146050D01*
X28244Y-146050D01*
X36322Y-145237D01*
X43535Y-143052D01*
X50190Y-139496D01*
X56438Y-134366D01*
X106781Y-84023D01*
X109880Y-81889D01*
X113588Y-81026D01*
X117297Y-81584D01*
X127711Y-85140D01*
X141579Y-87884D01*
X155752Y-88798D01*
X169875Y-87884D01*
X183845Y-85140D01*
X194259Y-81584D01*
X198018Y-81026D01*
X201625Y-81889D01*
X204774Y-84023D01*
X255168Y-134366D01*
X261366Y-139496D01*
X267970Y-143052D01*
X275234Y-145237D01*
X283260Y-146050D01*
X873353Y-146050D01*
X877112Y-146710D01*
X880262Y-148691D01*
X882548Y-151688D01*
X887425Y-161645D01*
X895248Y-173431D01*
X904646Y-184048D01*
X915314Y-193395D01*
X927100Y-201320D01*
X939800Y-207568D01*
X953262Y-212140D01*
X967130Y-214884D01*
X981303Y-215798D01*
X995375Y-214884D01*
X1009294Y-212140D01*
X1022705Y-207568D01*
X1035507Y-201320D01*
X1047292Y-193395D01*
X1057960Y-184048D01*
X1067257Y-173431D01*
X1075182Y-161645D01*
X1080058Y-151688D01*
X1082243Y-148691D01*
X1085494Y-146710D01*
X1089152Y-146050D01*
X1158544Y-146050D01*
X1166571Y-145237D01*
X1173835Y-143052D01*
X1180541Y-139496D01*
X1186738Y-134366D01*
X1237132Y-84023D01*
X1240180Y-81889D01*
X1243787Y-81026D01*
X1247546Y-81584D01*
X1258062Y-85140D01*
X1271930Y-87884D01*
X1286103Y-88798D01*
X1300175Y-87884D01*
X1314094Y-85140D01*
X1324559Y-81584D01*
X1328267Y-81026D01*
X1331925Y-81889D01*
X1335074Y-84023D01*
X1385417Y-134366D01*
X1391666Y-139496D01*
X1398270Y-143052D01*
X1405534Y-145237D01*
X1413560Y-146050D01*
X2003653Y-146050D01*
X2007412Y-146710D01*
X2010562Y-148691D01*
X2012848Y-151688D01*
X2017725Y-161645D01*
X2025548Y-173431D01*
X2034946Y-184048D01*
X2045614Y-193395D01*
X2057400Y-201320D01*
X2070100Y-207568D01*
X2083562Y-212140D01*
X2097430Y-214884D01*
X2111603Y-215798D01*
X2125675Y-214884D01*
X2139594Y-212140D01*
X2153005Y-207568D01*
X2165807Y-201320D01*
X2177592Y-193446D01*
X2188819Y-183489D01*
X2192426Y-181457D01*
X2196439Y-181000D01*
X2200402Y-182168D01*
X2203551Y-184810D01*
X2205380Y-188468D01*
X2207666Y-196951D01*
X2211832Y-205892D01*
X2217420Y-213918D01*
X2224328Y-220878D01*
X2226462Y-222300D01*
X2229307Y-225399D01*
X2230678Y-229463D01*
X2230323Y-233679D01*
X2228189Y-237388D01*
X2224786Y-239877D01*
X2220569Y-240792D01*
X1615643Y-240792D01*
X1611782Y-240029D01*
X1608480Y-237794D01*
X1606905Y-236220D01*
X1598828Y-230581D01*
X1589887Y-226466D01*
X1580489Y-223926D01*
X1570634Y-223062D01*
X1560830Y-223926D01*
X1551432Y-226466D01*
X1542491Y-230581D01*
X1534414Y-236220D01*
X1530146Y-239471D01*
X1526184Y-240233D01*
X1522272Y-239471D01*
X1518005Y-236220D01*
X1509928Y-230581D01*
X1500987Y-226466D01*
X1491589Y-223926D01*
X1481734Y-223062D01*
X1471930Y-223926D01*
X1462532Y-226466D01*
X1453591Y-230581D01*
X1445514Y-236220D01*
X1443939Y-237794D01*
X1440637Y-240029D01*
X1436776Y-240792D01*
X-708456Y-240792D01*
X-712368Y-240029D01*
X-715670Y-237794D01*
X-717245Y-236220D01*
X-725220Y-230581D01*
X-734212Y-226466D01*
X-743661Y-223926D01*
X-753465Y-223062D01*
X-763219Y-223926D01*
X-772668Y-226466D01*
X-781659Y-230581D01*
X-789635Y-236220D01*
X-796594Y-243179D01*
X-802284Y-251206D01*
X-806348Y-260146D01*
X-808939Y-269595D01*
X-809752Y-279400D01*
X-808939Y-289204D01*
X-808278Y-291490D01*
X-808024Y-295198D01*
X-809091Y-298754D01*
X-811377Y-301701D01*
X-814527Y-303631D01*
X-818083Y-304292D01*
X-822858Y-304292D01*
X-826719Y-303530D01*
X-830071Y-301294D01*
X-832256Y-298043D01*
X-833069Y-294132D01*
X-833069Y-220370D01*
X-833729Y-214071D01*
X-835660Y-208584D01*
X-838758Y-203708D01*
X-842822Y-199593D01*
X-847699Y-196545D01*
X-853186Y-194614D01*
X-859485Y-193903D01*
X-1028395Y-193903D01*
X-1034745Y-194614D01*
X-1040180Y-196545D01*
X-1045057Y-199593D01*
X-1049121Y-203708D01*
X-1052271Y-208584D01*
X-1054150Y-214071D01*
X-1054811Y-220370D01*
X-1054811Y-389229D01*
X-1054150Y-395579D01*
X-1052271Y-401015D01*
X-1049121Y-405942D01*
X-1045057Y-410006D01*
X-1040180Y-413105D01*
X-1034745Y-414985D01*
X-1028395Y-415696D01*
X-859485Y-415696D01*
X-853186Y-414985D01*
X-847699Y-413105D01*
X-842822Y-410006D01*
X-838758Y-405942D01*
X-835660Y-401015D01*
X-833729Y-395579D01*
X-833170Y-390550D01*
X-832103Y-386994D01*
X-829818Y-384098D01*
X-826719Y-382168D01*
X-823112Y-381508D01*
X-64719Y-381508D01*
X-61163Y-382168D01*
X-57962Y-384098D01*
X-55727Y-387045D01*
X-54610Y-390601D01*
X-54965Y-394309D01*
X-55524Y-396595D01*
X-56438Y-406400D01*
X-55524Y-416204D01*
X-52984Y-425653D01*
X-48920Y-434593D01*
X-43230Y-442620D01*
X-36322Y-449580D01*
X-28244Y-455218D01*
X-19304Y-459333D01*
X-9906Y-461873D01*
X-101Y-462737D01*
X9702Y-461873D01*
X19202Y-459333D01*
X28092Y-455218D01*
X36118Y-449580D01*
X37744Y-448005D01*
X40995Y-445770D01*
X44907Y-445008D01*
X865987Y-445008D01*
X870203Y-445922D01*
X873709Y-448564D01*
X875741Y-452424D01*
X875944Y-456742D01*
X874369Y-460806D01*
X867206Y-471576D01*
X860907Y-484276D01*
X856335Y-497738D01*
X853643Y-511606D01*
X852728Y-525780D01*
X853643Y-539902D01*
X856335Y-553821D01*
X860907Y-567232D01*
X867206Y-579983D01*
X875080Y-591769D01*
X884478Y-602386D01*
X895146Y-611733D01*
X906932Y-619607D01*
X919632Y-625906D01*
X932992Y-630478D01*
X946962Y-633222D01*
X961034Y-634136D01*
X975207Y-633222D01*
X989126Y-630478D01*
X1002588Y-625906D01*
X1015288Y-619607D01*
X1027023Y-611733D01*
X1037742Y-602386D01*
X1047089Y-591769D01*
X1054912Y-579983D01*
X1061262Y-567232D01*
X1065784Y-553821D01*
X1068527Y-539902D01*
X1069492Y-525780D01*
X1068527Y-511606D01*
X1065784Y-497738D01*
X1061262Y-484276D01*
X1054912Y-471576D01*
X1047750Y-460806D01*
X1046175Y-456742D01*
X1046378Y-452424D01*
X1048512Y-448564D01*
X1051966Y-445922D01*
X1056233Y-445008D01*
X1996287Y-445008D01*
X2000504Y-445922D01*
X2004009Y-448564D01*
X2006041Y-452424D01*
X2006244Y-456742D01*
X2004669Y-460806D01*
X1997506Y-471576D01*
X1991207Y-484276D01*
X1986737Y-497738D01*
X1983943Y-511606D01*
X1983028Y-525780D01*
X1983943Y-539902D01*
X1986737Y-553821D01*
X1991207Y-567232D01*
X1997506Y-579983D01*
X2005380Y-591769D01*
X2014778Y-602386D01*
X2025446Y-611733D01*
X2037232Y-619607D01*
X2049932Y-625906D01*
X2063292Y-630478D01*
X2077262Y-633222D01*
X2091334Y-634136D01*
X2105507Y-633222D01*
X2119426Y-630478D01*
X2132888Y-625906D01*
X2145588Y-619607D01*
X2157323Y-611733D01*
X2168042Y-602386D01*
X2177389Y-591769D01*
X2185212Y-579983D01*
X2191562Y-567232D01*
X2196084Y-553821D01*
X2198827Y-539902D01*
X2199792Y-525780D01*
X2198827Y-511606D01*
X2196084Y-497738D01*
X2191562Y-484276D01*
X2185212Y-471576D01*
X2178050Y-460806D01*
X2176475Y-456742D01*
X2176678Y-452424D01*
X2178812Y-448564D01*
X2182266Y-445922D01*
X2186533Y-445008D01*
X3126587Y-445008D01*
X3130804Y-445922D01*
X3134309Y-448564D01*
X3136341Y-452424D01*
X3136544Y-456742D01*
X3134969Y-460806D01*
X3127806Y-471576D01*
X3121507Y-484276D01*
X3117037Y-497738D01*
X3114243Y-511606D01*
X3113328Y-525780D01*
X3114243Y-539902D01*
X3117037Y-553821D01*
X3121507Y-567232D01*
X3127806Y-579983D01*
X3135680Y-591769D01*
X3145078Y-602386D01*
X3155746Y-611733D01*
X3167532Y-619607D01*
X3180232Y-625906D01*
X3193592Y-630478D01*
X3207562Y-633222D01*
X3221634Y-634136D01*
X3235807Y-633222D01*
X3249726Y-630478D01*
X3263188Y-625906D01*
X3275888Y-619607D01*
X3287623Y-611733D01*
X3298342Y-602386D01*
X3307689Y-591769D01*
X3315512Y-579983D01*
X3321862Y-567232D01*
X3326384Y-553821D01*
X3329127Y-539902D01*
X3330092Y-525780D01*
X3329127Y-511606D01*
X3326384Y-497738D01*
X3321862Y-484276D01*
X3315512Y-471576D01*
X3308350Y-460806D01*
X3306775Y-456742D01*
X3306978Y-452424D01*
X3309112Y-448564D01*
X3312566Y-445922D01*
X3316833Y-445008D01*
X3747515Y-445008D01*
X3751478Y-445770D01*
X3754780Y-448005D01*
X3790848Y-484124D01*
X3797096Y-489254D01*
X3803751Y-492810D01*
X3811015Y-494995D01*
X3819093Y-495808D01*
X3968546Y-495808D01*
X3972610Y-496671D01*
X3976014Y-499109D01*
X3978148Y-502767D01*
X3978605Y-506933D01*
X3977386Y-510946D01*
X3974642Y-514096D01*
X3969410Y-518007D01*
X3951376Y-533958D01*
X3934714Y-551281D01*
X3919524Y-569925D01*
X3905910Y-589686D01*
X3893820Y-610514D01*
X3883507Y-632256D01*
X3875074Y-654761D01*
X3868369Y-677824D01*
X3863543Y-701395D01*
X3860596Y-725271D01*
X3859682Y-749300D01*
X3860596Y-773328D01*
X3863543Y-797204D01*
X3868369Y-820775D01*
X3875074Y-843838D01*
X3883507Y-866343D01*
X3893820Y-888085D01*
X3905910Y-908913D01*
X3919524Y-928674D01*
X3934714Y-947318D01*
X3951376Y-964641D01*
X3969410Y-980592D01*
X3988612Y-995019D01*
X4008983Y-1007871D01*
X4030218Y-1019048D01*
X4052417Y-1028496D01*
X4075226Y-1036116D01*
X4098493Y-1041857D01*
X4122267Y-1045718D01*
X4146194Y-1047648D01*
X4170273Y-1047648D01*
X4194301Y-1045718D01*
X4217974Y-1041857D01*
X4241342Y-1036116D01*
X4264152Y-1028496D01*
X4286250Y-1019048D01*
X4307586Y-1007871D01*
X4327855Y-995019D01*
X4347057Y-980592D01*
X4365142Y-964641D01*
X4381754Y-947318D01*
X4396943Y-928674D01*
X4410659Y-908913D01*
X4422648Y-888085D01*
X4432960Y-866343D01*
X4441494Y-843838D01*
X4448149Y-820775D01*
X4453026Y-797204D01*
X4455871Y-773328D01*
X4456887Y-749300D01*
X4455871Y-725271D01*
X4453026Y-701395D01*
X4448149Y-677824D01*
X4441494Y-654761D01*
X4432960Y-632256D01*
X4422648Y-610514D01*
X4410659Y-589686D01*
X4396943Y-569925D01*
X4381754Y-551281D01*
X4365142Y-533958D01*
X4347057Y-518007D01*
X4327855Y-503580D01*
X4307586Y-490728D01*
X4286250Y-479551D01*
X4264152Y-470103D01*
X4241342Y-462483D01*
X4217974Y-456742D01*
X4194301Y-452882D01*
X4170273Y-450951D01*
X4146194Y-450951D01*
X4132173Y-452069D01*
X4128160Y-451561D01*
X4124553Y-449529D01*
X4122165Y-446227D01*
X4121251Y-442214D01*
X4121962Y-438200D01*
X4124198Y-434746D01*
X4131564Y-427431D01*
X4134408Y-425399D01*
X4137812Y-424484D01*
X4145889Y-423773D01*
X4155287Y-421233D01*
X4164228Y-417118D01*
X4172305Y-411480D01*
X4179214Y-404520D01*
X4184853Y-396494D01*
X4188968Y-387553D01*
X4191558Y-378104D01*
X4192371Y-368300D01*
X4191558Y-358495D01*
X4188968Y-349046D01*
X4184853Y-340106D01*
X4179214Y-332079D01*
X4172305Y-325120D01*
X4164228Y-319481D01*
X4155287Y-315366D01*
X4145889Y-312826D01*
X4136085Y-311962D01*
X4126229Y-312826D01*
X4116832Y-315366D01*
X4107891Y-319481D01*
X4099814Y-325120D01*
X4092905Y-332079D01*
X4087266Y-340106D01*
X4083151Y-349046D01*
X4080560Y-358495D01*
X4079849Y-366522D01*
X4078986Y-369925D01*
X4076903Y-372821D01*
X4047794Y-401929D01*
X4044391Y-404215D01*
X4040276Y-404876D01*
X4036212Y-403910D01*
X4032910Y-401370D01*
X4030979Y-397713D01*
X4030522Y-393598D01*
X4031030Y-389229D01*
X4031030Y-226567D01*
X4031792Y-222656D01*
X4033977Y-219405D01*
X4037329Y-217170D01*
X4041190Y-216408D01*
X4154576Y-216408D01*
X4158437Y-217170D01*
X4161739Y-219405D01*
X4163314Y-220979D01*
X4171391Y-226618D01*
X4180332Y-230733D01*
X4189729Y-233273D01*
X4199585Y-234137D01*
X4209389Y-233273D01*
X4218787Y-230733D01*
X4226610Y-227126D01*
X4230471Y-226212D01*
X4234535Y-226872D01*
X4237939Y-229057D01*
X4240225Y-232359D01*
X4240987Y-236372D01*
X4240987Y-389229D01*
X4241698Y-395579D01*
X4243628Y-401015D01*
X4246778Y-405942D01*
X4250842Y-410006D01*
X4255770Y-413105D01*
X4261205Y-414985D01*
X4267555Y-415696D01*
X4436364Y-415696D01*
X4442714Y-414985D01*
X4448149Y-413105D01*
X4453026Y-410006D01*
X4457141Y-405942D01*
X4460189Y-401015D01*
X4462119Y-395579D01*
X4462830Y-389229D01*
X4462830Y-220370D01*
X4462119Y-214071D01*
X4460189Y-208584D01*
X4457141Y-203708D01*
X4453026Y-199593D01*
X4448149Y-196545D01*
X4442714Y-194614D01*
X4436364Y-193903D01*
X4267555Y-193903D01*
X4262323Y-193497D01*
X4258462Y-191160D01*
X4256074Y-187401D01*
X4255414Y-182981D01*
X4255871Y-177800D01*
X4255058Y-167995D01*
X4252468Y-158546D01*
X4248353Y-149606D01*
X4242714Y-141579D01*
X4235805Y-134620D01*
X4227728Y-128981D01*
X4218787Y-124866D01*
X4216044Y-124104D01*
X4212183Y-122072D01*
X4209491Y-118618D01*
X4208576Y-114300D01*
X4209491Y-109982D01*
X4212183Y-106527D01*
X4216044Y-104495D01*
X4218787Y-103733D01*
X4227728Y-99618D01*
X4236466Y-93472D01*
X4240428Y-91846D01*
X4244644Y-91948D01*
X4248505Y-93827D01*
X4251299Y-97129D01*
X4257090Y-108305D01*
X4265269Y-119938D01*
X4274820Y-130454D01*
X4285589Y-139649D01*
X4297476Y-147421D01*
X4310278Y-153568D01*
X4323791Y-158089D01*
X4337710Y-160782D01*
X4351985Y-161696D01*
X4366107Y-160782D01*
X4380026Y-158089D01*
X4393539Y-153568D01*
X4406341Y-147421D01*
X4418228Y-139649D01*
X4429099Y-130454D01*
X4438650Y-119938D01*
X4446727Y-108305D01*
X4453382Y-95707D01*
X4458258Y-82346D01*
X4461357Y-68478D01*
X4462780Y-54356D01*
X4462322Y-40182D01*
X4460087Y-26111D01*
X4455972Y-12496D01*
X4450232Y508D01*
X4442866Y12649D01*
X4433976Y23723D01*
X4423816Y33629D01*
X4412437Y42113D01*
X4400092Y49123D01*
X4386834Y54457D01*
X4373118Y58013D01*
X4359046Y59842D01*
X4344873Y59842D01*
X4330700Y58013D01*
X4316984Y54457D01*
X4303826Y49123D01*
X4291482Y42113D01*
X4280103Y33629D01*
X4269892Y23723D01*
X4260951Y12649D01*
X4253585Y508D01*
X4251655Y-3962D01*
X4248962Y-7518D01*
X4245102Y-9652D01*
X4240682Y-9855D01*
X4236567Y-8178D01*
X4227728Y-1981D01*
X4218787Y2133D01*
X4209389Y4673D01*
X4199585Y5537D01*
X4189729Y4673D01*
X4180332Y2133D01*
X4171391Y-1981D01*
X4163314Y-7620D01*
X4156405Y-14579D01*
X4150766Y-22606D01*
X4146651Y-31546D01*
X4144060Y-40995D01*
X4143248Y-50800D01*
X4144060Y-60604D01*
X4146651Y-70053D01*
X4150766Y-78994D01*
X4156405Y-87020D01*
X4163314Y-93980D01*
X4171391Y-99618D01*
X4180332Y-103733D01*
X4183075Y-104495D01*
X4186936Y-106527D01*
X4189628Y-109982D01*
X4190542Y-114300D01*
X4189628Y-118618D01*
X4186936Y-122072D01*
X4183075Y-124104D01*
X4180332Y-124866D01*
X4171391Y-128981D01*
X4163314Y-134620D01*
X4161739Y-136194D01*
X4158437Y-138430D01*
X4154576Y-139192D01*
X4012285Y-139192D01*
X4008526Y-138430D01*
X4005275Y-136347D01*
X4002989Y-133146D01*
X4002176Y-129336D01*
X4002786Y-125526D01*
X4004818Y-122224D01*
X4006850Y-119938D01*
X4014927Y-108305D01*
X4021582Y-95707D01*
X4026458Y-82346D01*
X4029557Y-68478D01*
X4030979Y-54356D01*
X4030522Y-40182D01*
X4028287Y-26111D01*
X4024172Y-12496D01*
X4018432Y508D01*
X4011066Y12649D01*
X4002227Y23723D01*
X3992016Y33629D01*
X3980637Y42113D01*
X3968292Y49123D01*
X3955034Y54457D01*
X3941318Y58013D01*
X3927246Y59842D01*
X3913073Y59842D01*
X3898900Y58013D01*
X3885184Y54457D01*
X3872026Y49123D01*
X3859682Y42113D01*
X3854653Y38455D01*
X3851503Y36830D01*
X3847896Y36423D01*
X3844442Y37338D01*
X3841394Y39370D01*
X3751122Y129743D01*
X3748887Y132892D01*
X3748074Y136652D01*
X3748735Y140411D01*
X3750716Y143662D01*
X3753662Y145999D01*
X3757371Y147066D01*
X3764889Y147726D01*
X3774287Y150266D01*
X3783228Y154381D01*
X3791305Y160020D01*
X3792880Y161594D01*
X3796182Y163830D01*
X3800043Y164592D01*
X3809339Y164592D01*
X3812946Y163931D01*
X3816146Y162001D01*
X3818382Y159105D01*
X3825290Y145694D01*
X3833469Y134061D01*
X3843020Y123545D01*
X3853789Y114350D01*
X3865778Y106578D01*
X3878579Y100431D01*
X3891991Y95910D01*
X3906012Y93218D01*
X3920185Y92303D01*
X3934307Y93218D01*
X3948226Y95910D01*
X3961739Y100431D01*
X3974541Y106578D01*
X3986428Y114350D01*
X3997299Y123545D01*
X4006850Y134061D01*
X4014927Y145694D01*
X4021582Y158292D01*
X4026458Y171653D01*
X4029557Y185521D01*
X4030979Y199644D01*
X4030522Y213817D01*
X4028287Y227888D01*
X4024172Y241503D01*
X4018432Y254508D01*
X4011066Y266649D01*
X4002227Y277723D01*
X3992016Y287629D01*
X3980637Y296113D01*
X3968292Y303123D01*
X3955034Y308457D01*
X3941318Y312013D01*
X3927246Y313842D01*
X3913073Y313842D01*
X3898900Y312013D01*
X3885184Y308457D01*
X3872026Y303123D01*
X3859682Y296113D01*
X3848303Y287629D01*
X3838092Y277723D01*
X3829151Y266649D01*
X3821785Y254508D01*
X3818940Y247853D01*
X3816705Y244652D01*
X3813403Y242570D01*
X3809644Y241808D01*
X3800043Y241808D01*
X3796182Y242570D01*
X3792880Y244805D01*
X3791305Y246379D01*
X3783228Y252018D01*
X3774287Y256133D01*
X3764889Y258673D01*
X3755085Y259537D01*
X3745229Y258673D01*
X3735832Y256133D01*
X3726891Y252018D01*
X3718814Y246379D01*
X3711905Y239420D01*
X3708298Y234289D01*
X3705098Y231343D01*
X3700932Y230022D01*
X3696614Y230581D01*
X3692956Y232867D01*
X3690467Y236474D01*
X3689807Y240792D01*
X3690112Y244602D01*
X3689146Y258775D01*
X3686403Y272643D01*
X3681882Y286105D01*
X3675634Y298805D01*
X3667709Y310591D01*
X3658362Y321259D01*
X3647744Y330606D01*
X3635959Y338480D01*
X3623157Y344728D01*
X3609746Y349300D01*
X3595674Y352094D01*
X3591407Y353314D01*
X3588105Y356209D01*
X3586378Y360222D01*
X3586479Y364642D01*
X3588410Y368604D01*
X3591814Y371348D01*
X3600907Y375767D01*
X3612692Y383692D01*
X3623259Y393039D01*
X3632657Y403656D01*
X3640582Y415442D01*
X3646830Y428193D01*
X3651351Y441604D01*
X3654094Y455523D01*
X3655009Y469646D01*
X3654094Y483819D01*
X3651351Y497687D01*
X3646830Y511149D01*
X3640582Y523849D01*
X3632657Y535635D01*
X3623259Y546303D01*
X3612692Y555650D01*
X3600907Y563524D01*
X3588105Y569772D01*
X3574694Y574344D01*
X3560775Y577138D01*
X3546703Y578053D01*
X3532530Y577138D01*
X3518662Y574344D01*
X3505200Y569772D01*
X3492500Y563524D01*
X3480714Y555650D01*
X3470046Y546303D01*
X3460648Y535635D01*
X3452825Y523849D01*
X3447846Y513842D01*
X3445662Y510844D01*
X3442462Y508863D01*
X3438753Y508203D01*
X3389884Y508203D01*
X3386023Y508965D01*
X3382721Y511149D01*
X3380486Y514451D01*
X3379673Y518363D01*
X3380486Y522224D01*
X3382721Y525526D01*
X3463239Y606094D01*
X3466541Y608330D01*
X3470503Y609092D01*
X3875176Y609092D01*
X3879037Y608330D01*
X3882339Y606094D01*
X3883914Y604520D01*
X3891991Y598881D01*
X3900932Y594766D01*
X3910329Y592226D01*
X3920185Y591362D01*
X3929989Y592226D01*
X3939387Y594766D01*
X3948328Y598881D01*
X3956405Y604520D01*
X3963314Y611479D01*
X3968953Y619506D01*
X3973068Y628446D01*
X3975658Y637895D01*
X3976471Y647700D01*
X3975658Y657504D01*
X3973068Y666953D01*
X3971340Y670814D01*
X3970324Y674776D01*
X3971036Y678789D01*
X3973169Y682193D01*
X3976573Y684479D01*
X3980535Y685292D01*
X4137355Y685292D01*
X4141012Y684580D01*
X4144264Y682498D01*
X4146550Y679399D01*
X4150766Y670306D01*
X4156405Y662279D01*
X4163314Y655320D01*
X4171391Y649681D01*
X4180332Y645566D01*
X4189729Y643026D01*
X4199585Y642162D01*
X4209389Y643026D01*
X4218787Y645566D01*
X4227728Y649681D01*
X4235805Y655320D01*
X4242714Y662279D01*
X4248353Y670306D01*
X4252468Y679246D01*
X4255058Y688695D01*
X4255871Y698500D01*
X4255058Y708304D01*
X4254398Y710590D01*
X4254144Y714298D01*
X4255160Y717854D01*
X4257446Y720801D01*
X4260646Y722731D01*
X4264253Y723392D01*
X4480966Y723392D01*
X4484827Y722630D01*
X4488180Y720394D01*
X4490364Y717092D01*
X4491126Y713232D01*
X4491126Y-1256131D01*
X4490466Y-1259738D01*
X4488535Y-1262888D01*
X4485589Y-1265174D01*
X4482084Y-1266240D01*
X4478324Y-1265936D01*
X4476089Y-1265326D01*
X4466285Y-1264462D01*
X4456430Y-1265326D01*
X4447032Y-1267866D01*
X4438091Y-1271981D01*
X4430014Y-1277620D01*
X4428439Y-1279194D01*
X4425137Y-1281430D01*
X4421276Y-1282192D01*
X4295190Y-1282192D01*
X4291330Y-1281430D01*
X4288078Y-1279194D01*
X4285792Y-1275943D01*
X4285030Y-1272032D01*
X4285030Y-1206500D01*
X4186885Y-1206500D01*
X4186885Y-1272032D01*
X4186123Y-1275943D01*
X4183837Y-1279194D01*
X4180586Y-1281430D01*
X4176725Y-1282192D01*
X4171594Y-1282192D01*
X4167733Y-1281430D01*
X4164380Y-1279194D01*
X4162196Y-1275943D01*
X4161485Y-1272032D01*
X4161485Y-1206500D01*
X4063288Y-1206500D01*
X4063288Y-1272032D01*
X4062425Y-1275943D01*
X4060240Y-1279194D01*
X4056989Y-1281430D01*
X4053128Y-1282192D01*
X4012184Y-1282192D01*
X4008424Y-1281480D01*
X4005275Y-1279398D01*
X4002989Y-1276299D01*
X4002074Y-1272590D01*
X4002633Y-1268780D01*
X4004462Y-1265428D01*
X4008983Y-1260144D01*
X4016806Y-1248206D01*
X4022953Y-1235405D01*
X4027373Y-1221943D01*
X4030116Y-1207973D01*
X4031030Y-1193800D01*
X4030116Y-1179626D01*
X4027373Y-1165656D01*
X4022953Y-1152194D01*
X4016806Y-1139393D01*
X4008983Y-1127455D01*
X3999839Y-1116685D01*
X3989273Y-1107084D01*
X3977589Y-1098956D01*
X3964990Y-1092403D01*
X3951732Y-1087475D01*
X3937812Y-1084326D01*
X3923741Y-1082954D01*
X3909466Y-1083411D01*
X3895496Y-1085697D01*
X3881882Y-1089761D01*
X3868826Y-1095502D01*
X3856736Y-1102868D01*
X3845610Y-1111707D01*
X3835755Y-1121918D01*
X3827221Y-1133297D01*
X3820210Y-1145692D01*
X3818940Y-1148842D01*
X3816807Y-1152194D01*
X3813505Y-1154430D01*
X3809542Y-1155192D01*
X3659987Y-1155192D01*
X3656228Y-1154480D01*
X3652926Y-1152398D01*
X3650792Y-1149299D01*
X3649776Y-1145540D01*
X3650335Y-1141780D01*
X3651351Y-1138783D01*
X3654094Y-1124864D01*
X3655009Y-1110742D01*
X3654094Y-1096568D01*
X3651351Y-1082700D01*
X3646830Y-1069238D01*
X3640582Y-1056538D01*
X3632657Y-1044752D01*
X3623360Y-1034084D01*
X3612692Y-1024737D01*
X3600907Y-1016863D01*
X3591814Y-1012393D01*
X3588410Y-1009650D01*
X3586479Y-1005687D01*
X3586378Y-1001318D01*
X3588105Y-997305D01*
X3591407Y-994410D01*
X3595827Y-993140D01*
X3609746Y-990396D01*
X3623157Y-985824D01*
X3635959Y-979525D01*
X3647744Y-971651D01*
X3658362Y-962304D01*
X3667709Y-951687D01*
X3675634Y-939901D01*
X3681882Y-927150D01*
X3686403Y-913739D01*
X3689146Y-899820D01*
X3690112Y-885698D01*
X3689146Y-871524D01*
X3686403Y-857656D01*
X3681882Y-844194D01*
X3675634Y-831494D01*
X3667709Y-819708D01*
X3658362Y-809040D01*
X3647744Y-799693D01*
X3635959Y-791819D01*
X3623157Y-785571D01*
X3609746Y-780999D01*
X3595674Y-778205D01*
X3591407Y-776986D01*
X3588105Y-774090D01*
X3586378Y-770077D01*
X3586479Y-765657D01*
X3588410Y-761695D01*
X3591814Y-758952D01*
X3600907Y-754481D01*
X3612692Y-746607D01*
X3623360Y-737260D01*
X3632657Y-726643D01*
X3640582Y-714857D01*
X3646830Y-702106D01*
X3651351Y-688695D01*
X3654094Y-674776D01*
X3655009Y-660654D01*
X3654094Y-646480D01*
X3651351Y-632612D01*
X3646830Y-619150D01*
X3640582Y-606450D01*
X3632657Y-594664D01*
X3623360Y-583996D01*
X3612692Y-574649D01*
X3600907Y-566775D01*
X3588105Y-560527D01*
X3574694Y-555955D01*
X3560775Y-553161D01*
X3546703Y-552246D01*
X3532530Y-553161D01*
X3518662Y-555955D01*
X3505200Y-560527D01*
X3492500Y-566775D01*
X3480714Y-574649D01*
X3470046Y-583996D01*
X3460648Y-594664D01*
X3452825Y-606450D01*
X3447846Y-616458D01*
X3445662Y-619455D01*
X3442462Y-621436D01*
X3438753Y-622096D01*
X3374237Y-622096D01*
X3366160Y-622909D01*
X3358946Y-625094D01*
X3352342Y-628650D01*
X3346094Y-633780D01*
X3323793Y-656082D01*
X3320491Y-658266D01*
X3316630Y-659028D01*
X3245053Y-659028D01*
X3238703Y-659739D01*
X3233267Y-661670D01*
X3228390Y-664718D01*
X3224326Y-668832D01*
X3221177Y-673709D01*
X3219246Y-679196D01*
X3218535Y-685495D01*
X3218535Y-779373D01*
X3219246Y-785723D01*
X3221177Y-791159D01*
X3224326Y-796036D01*
X3228390Y-800150D01*
X3233267Y-803249D01*
X3238703Y-805129D01*
X3245053Y-805840D01*
X3358946Y-805840D01*
X3365246Y-805129D01*
X3370732Y-803249D01*
X3375609Y-800150D01*
X3379673Y-796036D01*
X3382822Y-791159D01*
X3384651Y-785723D01*
X3385362Y-779373D01*
X3385362Y-709472D01*
X3386124Y-705612D01*
X3388410Y-702310D01*
X3391712Y-700125D01*
X3395522Y-699312D01*
X3438855Y-699312D01*
X3442512Y-700024D01*
X3445662Y-702005D01*
X3447948Y-705002D01*
X3452825Y-714857D01*
X3460648Y-726643D01*
X3470046Y-737260D01*
X3480714Y-746607D01*
X3492500Y-754481D01*
X3505200Y-760780D01*
X3518662Y-765352D01*
X3532733Y-768096D01*
X3536950Y-769366D01*
X3540251Y-772261D01*
X3542029Y-776274D01*
X3541928Y-780643D01*
X3539998Y-784606D01*
X3536594Y-787349D01*
X3527551Y-791819D01*
X3515766Y-799693D01*
X3505098Y-809040D01*
X3495700Y-819708D01*
X3487826Y-831494D01*
X3481628Y-844194D01*
X3477056Y-857656D01*
X3474262Y-871524D01*
X3473348Y-885698D01*
X3474262Y-899820D01*
X3477056Y-913739D01*
X3481628Y-927150D01*
X3487826Y-939901D01*
X3495700Y-951687D01*
X3505098Y-962304D01*
X3515766Y-971651D01*
X3527551Y-979525D01*
X3536594Y-983996D01*
X3539998Y-986739D01*
X3541928Y-990701D01*
X3542029Y-995121D01*
X3540251Y-999134D01*
X3536950Y-1002030D01*
X3532530Y-1003249D01*
X3518662Y-1006043D01*
X3505200Y-1010615D01*
X3492500Y-1016863D01*
X3480714Y-1024737D01*
X3470046Y-1034084D01*
X3460648Y-1044752D01*
X3452825Y-1056538D01*
X3446576Y-1069238D01*
X3442258Y-1081836D01*
X3440429Y-1085138D01*
X3437483Y-1087475D01*
X3433978Y-1088644D01*
X3430270Y-1088440D01*
X3426815Y-1086916D01*
X3419043Y-1081481D01*
X3410153Y-1077366D01*
X3400653Y-1074826D01*
X3394659Y-1074267D01*
X3391103Y-1073251D01*
X3388055Y-1071016D01*
X3386124Y-1067866D01*
X3385362Y-1064158D01*
X3385362Y-1024026D01*
X3384651Y-1017676D01*
X3382822Y-1012240D01*
X3379673Y-1007313D01*
X3375609Y-1003249D01*
X3370732Y-1000150D01*
X3365246Y-998270D01*
X3358946Y-997559D01*
X3245053Y-997559D01*
X3238703Y-998270D01*
X3233267Y-1000150D01*
X3228390Y-1003249D01*
X3224326Y-1007313D01*
X3221177Y-1012240D01*
X3219246Y-1017676D01*
X3218535Y-1024026D01*
X3218535Y-1117854D01*
X3219094Y-1122781D01*
X3218891Y-1126236D01*
X3217621Y-1129385D01*
X3215284Y-1131925D01*
X3212287Y-1133551D01*
X3200400Y-1137615D01*
X3187700Y-1143863D01*
X3175914Y-1151737D01*
X3165246Y-1161084D01*
X3155848Y-1171752D01*
X3148025Y-1183538D01*
X3143148Y-1193444D01*
X3140862Y-1196441D01*
X3137712Y-1198422D01*
X3133953Y-1199134D01*
X2985414Y-1199134D01*
X2981655Y-1198372D01*
X2978404Y-1196289D01*
X2976219Y-1193139D01*
X2975305Y-1189380D01*
X2975864Y-1185570D01*
X2977794Y-1182268D01*
X2982671Y-1176731D01*
X2990596Y-1164945D01*
X2996844Y-1152194D01*
X3001416Y-1138783D01*
X3004108Y-1124864D01*
X3005023Y-1110742D01*
X3004108Y-1096568D01*
X3001416Y-1082700D01*
X2996844Y-1069238D01*
X2990596Y-1056538D01*
X2982671Y-1044752D01*
X2973374Y-1034084D01*
X2962706Y-1024737D01*
X2950921Y-1016863D01*
X2938119Y-1010615D01*
X2924759Y-1006043D01*
X2910789Y-1003249D01*
X2902864Y-1002741D01*
X2899003Y-1001725D01*
X2895803Y-999286D01*
X2893872Y-995883D01*
X2893314Y-991920D01*
X2894330Y-988110D01*
X2896819Y-984961D01*
X2900222Y-982980D01*
X2902305Y-982268D01*
X2915107Y-975969D01*
X2926892Y-968095D01*
X2937459Y-958748D01*
X2946857Y-948131D01*
X2954782Y-936345D01*
X2956255Y-933297D01*
X2958439Y-930300D01*
X2961690Y-928319D01*
X2965348Y-927608D01*
X2986176Y-927608D01*
X2990037Y-928369D01*
X2993339Y-930605D01*
X2994914Y-932180D01*
X3002991Y-937818D01*
X3011932Y-941933D01*
X3021330Y-944473D01*
X3031134Y-945337D01*
X3040989Y-944473D01*
X3050387Y-941933D01*
X3059328Y-937818D01*
X3067405Y-932180D01*
X3074314Y-925220D01*
X3079953Y-917194D01*
X3084068Y-908253D01*
X3086658Y-898804D01*
X3087471Y-889000D01*
X3086658Y-879195D01*
X3084068Y-869746D01*
X3079953Y-860806D01*
X3074314Y-852779D01*
X3067405Y-845819D01*
X3059328Y-840181D01*
X3050387Y-836066D01*
X3040989Y-833526D01*
X3031134Y-832662D01*
X3021330Y-833526D01*
X3011932Y-836066D01*
X3002991Y-840181D01*
X2994914Y-845819D01*
X2993339Y-847394D01*
X2990037Y-849630D01*
X2986176Y-850392D01*
X2971596Y-850392D01*
X2967482Y-849528D01*
X2964078Y-847090D01*
X2961944Y-843483D01*
X2961030Y-840638D01*
X2954782Y-827938D01*
X2946857Y-816152D01*
X2937459Y-805484D01*
X2926892Y-796137D01*
X2915107Y-788263D01*
X2911602Y-786536D01*
X2908300Y-783945D01*
X2906268Y-780288D01*
X2906014Y-776071D01*
X2907385Y-772160D01*
X2910230Y-769112D01*
X2914091Y-767435D01*
X2924759Y-765352D01*
X2938119Y-760780D01*
X2950921Y-754481D01*
X2962706Y-746607D01*
X2973374Y-737260D01*
X2982671Y-726643D01*
X2990596Y-714857D01*
X2996844Y-702106D01*
X3001416Y-688695D01*
X3004108Y-674776D01*
X3005023Y-660654D01*
X3004108Y-646480D01*
X3001416Y-632612D01*
X2996844Y-619150D01*
X2990596Y-606450D01*
X2982671Y-594664D01*
X2973374Y-583996D01*
X2962706Y-574649D01*
X2950921Y-566775D01*
X2938119Y-560527D01*
X2924759Y-555955D01*
X2910789Y-553161D01*
X2896717Y-552246D01*
X2882544Y-553161D01*
X2868625Y-555955D01*
X2855214Y-560527D01*
X2842514Y-566775D01*
X2830728Y-574649D01*
X2820060Y-583996D01*
X2810662Y-594664D01*
X2802839Y-606450D01*
X2796590Y-619150D01*
X2791968Y-632612D01*
X2789224Y-646480D01*
X2788310Y-660654D01*
X2789224Y-674776D01*
X2791968Y-688695D01*
X2796590Y-702106D01*
X2802839Y-714857D01*
X2810662Y-726643D01*
X2820060Y-737260D01*
X2830728Y-746607D01*
X2842514Y-754481D01*
X2846019Y-756259D01*
X2849321Y-758799D01*
X2851251Y-762508D01*
X2851607Y-766673D01*
X2850235Y-770636D01*
X2847289Y-773684D01*
X2843530Y-775309D01*
X2832862Y-777443D01*
X2819400Y-782015D01*
X2806700Y-788263D01*
X2794914Y-796137D01*
X2784246Y-805484D01*
X2774848Y-816152D01*
X2767025Y-827938D01*
X2760776Y-840638D01*
X2756154Y-854100D01*
X2753410Y-867968D01*
X2752496Y-882142D01*
X2753410Y-896264D01*
X2756154Y-910183D01*
X2760776Y-923594D01*
X2767025Y-936345D01*
X2774848Y-948131D01*
X2784246Y-958748D01*
X2794914Y-968095D01*
X2806700Y-975969D01*
X2819400Y-982268D01*
X2832862Y-986840D01*
X2846730Y-989584D01*
X2854756Y-990092D01*
X2858516Y-991158D01*
X2861716Y-993546D01*
X2863646Y-997000D01*
X2864205Y-1000912D01*
X2863189Y-1004722D01*
X2860802Y-1007871D01*
X2857296Y-1009853D01*
X2855214Y-1010615D01*
X2842514Y-1016863D01*
X2830728Y-1024737D01*
X2820060Y-1034084D01*
X2810662Y-1044752D01*
X2802839Y-1056538D01*
X2796590Y-1069238D01*
X2791968Y-1082700D01*
X2789224Y-1096568D01*
X2788310Y-1110742D01*
X2789224Y-1124864D01*
X2791968Y-1138783D01*
X2796590Y-1152194D01*
X2802839Y-1164945D01*
X2810662Y-1176731D01*
X2815539Y-1182268D01*
X2817469Y-1185570D01*
X2818028Y-1189380D01*
X2817215Y-1193139D01*
X2814980Y-1196289D01*
X2811678Y-1198372D01*
X2807970Y-1199134D01*
X2563571Y-1199134D01*
X2559710Y-1198372D01*
X2556357Y-1196136D01*
X2519934Y-1159713D01*
X2517800Y-1156614D01*
X2516987Y-1152956D01*
X2517546Y-1149248D01*
X2521051Y-1138783D01*
X2523794Y-1124864D01*
X2524709Y-1110742D01*
X2523794Y-1096568D01*
X2521051Y-1082700D01*
X2516530Y-1069238D01*
X2510282Y-1056538D01*
X2502357Y-1044752D01*
X2493060Y-1034084D01*
X2482392Y-1024737D01*
X2470607Y-1016863D01*
X2461514Y-1012393D01*
X2458110Y-1009650D01*
X2456180Y-1005687D01*
X2456078Y-1001318D01*
X2457805Y-997305D01*
X2461107Y-994410D01*
X2465527Y-993140D01*
X2479446Y-990396D01*
X2492857Y-985824D01*
X2505659Y-979525D01*
X2517444Y-971651D01*
X2528062Y-962304D01*
X2537409Y-951687D01*
X2545334Y-939901D01*
X2548534Y-933297D01*
X2550769Y-930300D01*
X2553970Y-928319D01*
X2557678Y-927608D01*
X2617876Y-927608D01*
X2621737Y-928369D01*
X2625039Y-930605D01*
X2626614Y-932180D01*
X2634691Y-937818D01*
X2643632Y-941933D01*
X2653030Y-944473D01*
X2662834Y-945337D01*
X2672689Y-944473D01*
X2682087Y-941933D01*
X2691028Y-937818D01*
X2699105Y-932180D01*
X2706014Y-925220D01*
X2711653Y-917194D01*
X2715768Y-908253D01*
X2718358Y-898804D01*
X2719171Y-889000D01*
X2718358Y-879195D01*
X2715768Y-869746D01*
X2711653Y-860806D01*
X2706014Y-852779D01*
X2699105Y-845819D01*
X2691028Y-840181D01*
X2682087Y-836066D01*
X2672689Y-833526D01*
X2662834Y-832662D01*
X2653030Y-833526D01*
X2643632Y-836066D01*
X2634691Y-840181D01*
X2626614Y-845819D01*
X2625039Y-847394D01*
X2621737Y-849630D01*
X2617876Y-850392D01*
X2560878Y-850392D01*
X2557221Y-849680D01*
X2554071Y-847750D01*
X2551785Y-844753D01*
X2545334Y-831494D01*
X2537409Y-819708D01*
X2528062Y-809040D01*
X2517444Y-799693D01*
X2505659Y-791819D01*
X2492857Y-785571D01*
X2479446Y-780999D01*
X2465374Y-778205D01*
X2461107Y-776986D01*
X2457805Y-774090D01*
X2456078Y-770077D01*
X2456180Y-765657D01*
X2458110Y-761695D01*
X2461514Y-758952D01*
X2470607Y-754481D01*
X2482392Y-746607D01*
X2493060Y-737260D01*
X2502357Y-726643D01*
X2510282Y-714857D01*
X2516530Y-702106D01*
X2521051Y-688695D01*
X2523794Y-674776D01*
X2524709Y-660654D01*
X2523794Y-646480D01*
X2521051Y-632612D01*
X2516530Y-619150D01*
X2510282Y-606450D01*
X2502357Y-594664D01*
X2493060Y-583996D01*
X2482392Y-574649D01*
X2470607Y-566775D01*
X2457805Y-560527D01*
X2444394Y-555955D01*
X2430475Y-553161D01*
X2416403Y-552246D01*
X2402230Y-553161D01*
X2388362Y-555955D01*
X2374900Y-560527D01*
X2362200Y-566775D01*
X2350414Y-574649D01*
X2339746Y-583996D01*
X2330348Y-594664D01*
X2322525Y-606450D01*
X2317546Y-616458D01*
X2315362Y-619455D01*
X2312162Y-621436D01*
X2308453Y-622096D01*
X2243937Y-622096D01*
X2235860Y-622909D01*
X2228646Y-625094D01*
X2222042Y-628650D01*
X2215794Y-633780D01*
X2193493Y-656082D01*
X2190191Y-658266D01*
X2186330Y-659028D01*
X2114753Y-659028D01*
X2108403Y-659739D01*
X2102967Y-661670D01*
X2098090Y-664718D01*
X2094026Y-668832D01*
X2090877Y-673709D01*
X2088946Y-679196D01*
X2088235Y-685495D01*
X2088235Y-779373D01*
X2088946Y-785723D01*
X2090877Y-791159D01*
X2094026Y-796036D01*
X2098090Y-800150D01*
X2102967Y-803249D01*
X2108403Y-805129D01*
X2114753Y-805840D01*
X2228646Y-805840D01*
X2234946Y-805129D01*
X2240432Y-803249D01*
X2245309Y-800150D01*
X2249373Y-796036D01*
X2252522Y-791159D01*
X2254351Y-785723D01*
X2255062Y-779373D01*
X2255062Y-709472D01*
X2255824Y-705612D01*
X2258110Y-702310D01*
X2261412Y-700125D01*
X2265222Y-699312D01*
X2308555Y-699312D01*
X2312212Y-700024D01*
X2315362Y-702005D01*
X2317648Y-705002D01*
X2322525Y-714857D01*
X2330348Y-726643D01*
X2339746Y-737260D01*
X2350414Y-746607D01*
X2362200Y-754481D01*
X2374900Y-760780D01*
X2388362Y-765352D01*
X2402433Y-768096D01*
X2406650Y-769366D01*
X2409952Y-772261D01*
X2411730Y-776274D01*
X2411628Y-780643D01*
X2409698Y-784606D01*
X2406294Y-787349D01*
X2397252Y-791819D01*
X2385466Y-799693D01*
X2374798Y-809040D01*
X2365400Y-819708D01*
X2357526Y-831494D01*
X2351328Y-844194D01*
X2346756Y-857656D01*
X2343962Y-871524D01*
X2343048Y-885698D01*
X2343962Y-899820D01*
X2346756Y-913739D01*
X2351328Y-927150D01*
X2357526Y-939901D01*
X2365400Y-951687D01*
X2374798Y-962304D01*
X2385466Y-971651D01*
X2397252Y-979525D01*
X2406294Y-983996D01*
X2409698Y-986739D01*
X2411628Y-990701D01*
X2411730Y-995121D01*
X2409952Y-999134D01*
X2406650Y-1002030D01*
X2402230Y-1003249D01*
X2388362Y-1006043D01*
X2374900Y-1010615D01*
X2362200Y-1016863D01*
X2350414Y-1024737D01*
X2339746Y-1034084D01*
X2330348Y-1044752D01*
X2322525Y-1056538D01*
X2316276Y-1069238D01*
X2311958Y-1081836D01*
X2310130Y-1085138D01*
X2307183Y-1087475D01*
X2303678Y-1088644D01*
X2299970Y-1088440D01*
X2296515Y-1086916D01*
X2288743Y-1081481D01*
X2279853Y-1077366D01*
X2270353Y-1074826D01*
X2264359Y-1074267D01*
X2260803Y-1073251D01*
X2257755Y-1071016D01*
X2255824Y-1067866D01*
X2255062Y-1064158D01*
X2255062Y-1024026D01*
X2254351Y-1017676D01*
X2252522Y-1012240D01*
X2249373Y-1007313D01*
X2245309Y-1003249D01*
X2240432Y-1000150D01*
X2234946Y-998270D01*
X2228646Y-997559D01*
X2114753Y-997559D01*
X2108403Y-998270D01*
X2102967Y-1000150D01*
X2098090Y-1003249D01*
X2094026Y-1007313D01*
X2090877Y-1012240D01*
X2088946Y-1017676D01*
X2088235Y-1024026D01*
X2088235Y-1117854D01*
X2088794Y-1122781D01*
X2088591Y-1126236D01*
X2087321Y-1129385D01*
X2084984Y-1131925D01*
X2081987Y-1133551D01*
X2070100Y-1137615D01*
X2057400Y-1143863D01*
X2045614Y-1151737D01*
X2034946Y-1161084D01*
X2025548Y-1171752D01*
X2017725Y-1183538D01*
X2012848Y-1193444D01*
X2010562Y-1196441D01*
X2007412Y-1198422D01*
X2003653Y-1199134D01*
X1855114Y-1199134D01*
X1851355Y-1198372D01*
X1848104Y-1196289D01*
X1845919Y-1193139D01*
X1845005Y-1189380D01*
X1845564Y-1185570D01*
X1847494Y-1182268D01*
X1852371Y-1176731D01*
X1860296Y-1164945D01*
X1866544Y-1152194D01*
X1871116Y-1138783D01*
X1873808Y-1124864D01*
X1874723Y-1110742D01*
X1873808Y-1096568D01*
X1871116Y-1082700D01*
X1866544Y-1069238D01*
X1860296Y-1056538D01*
X1852371Y-1044752D01*
X1843074Y-1034084D01*
X1832406Y-1024737D01*
X1820621Y-1016863D01*
X1807819Y-1010615D01*
X1794459Y-1006043D01*
X1780489Y-1003249D01*
X1772564Y-1002741D01*
X1768703Y-1001725D01*
X1765503Y-999286D01*
X1763572Y-995883D01*
X1763014Y-991920D01*
X1764030Y-988110D01*
X1766519Y-984961D01*
X1769922Y-982980D01*
X1772005Y-982268D01*
X1784807Y-975969D01*
X1796592Y-968095D01*
X1807159Y-958748D01*
X1816557Y-948131D01*
X1824482Y-936345D01*
X1830730Y-923594D01*
X1835251Y-910183D01*
X1837994Y-896264D01*
X1838909Y-882142D01*
X1837994Y-867968D01*
X1835251Y-854100D01*
X1830730Y-840638D01*
X1824482Y-827938D01*
X1816557Y-816152D01*
X1807159Y-805484D01*
X1796592Y-796137D01*
X1784807Y-788263D01*
X1781302Y-786536D01*
X1778000Y-783945D01*
X1775968Y-780288D01*
X1775714Y-776071D01*
X1777085Y-772160D01*
X1779930Y-769112D01*
X1783791Y-767435D01*
X1794459Y-765352D01*
X1807819Y-760780D01*
X1820621Y-754481D01*
X1832406Y-746607D01*
X1843074Y-737260D01*
X1852371Y-726643D01*
X1860296Y-714857D01*
X1866544Y-702106D01*
X1871116Y-688695D01*
X1873808Y-674776D01*
X1874723Y-660654D01*
X1873808Y-646480D01*
X1871116Y-632612D01*
X1866544Y-619150D01*
X1860296Y-606450D01*
X1852371Y-594664D01*
X1843074Y-583996D01*
X1832406Y-574649D01*
X1820621Y-566775D01*
X1807819Y-560527D01*
X1794459Y-555955D01*
X1780489Y-553161D01*
X1766417Y-552246D01*
X1752244Y-553161D01*
X1738325Y-555955D01*
X1724914Y-560527D01*
X1712214Y-566775D01*
X1700428Y-574649D01*
X1689760Y-583996D01*
X1680362Y-594664D01*
X1672539Y-606450D01*
X1666290Y-619150D01*
X1661668Y-632612D01*
X1658924Y-646480D01*
X1658010Y-660654D01*
X1658924Y-674776D01*
X1661668Y-688695D01*
X1666290Y-702106D01*
X1672539Y-714857D01*
X1680362Y-726643D01*
X1689760Y-737260D01*
X1700428Y-746607D01*
X1712214Y-754481D01*
X1715719Y-756259D01*
X1719021Y-758799D01*
X1720951Y-762508D01*
X1721307Y-766673D01*
X1719935Y-770636D01*
X1716989Y-773684D01*
X1713230Y-775309D01*
X1702562Y-777443D01*
X1689100Y-782015D01*
X1676400Y-788263D01*
X1664614Y-796137D01*
X1653946Y-805484D01*
X1644548Y-816152D01*
X1636725Y-827938D01*
X1630476Y-840638D01*
X1629460Y-843483D01*
X1627327Y-847090D01*
X1623923Y-849528D01*
X1619808Y-850392D01*
X1615643Y-850392D01*
X1611782Y-849630D01*
X1608480Y-847394D01*
X1606905Y-845819D01*
X1598828Y-840181D01*
X1589887Y-836066D01*
X1580489Y-833526D01*
X1570634Y-832662D01*
X1560830Y-833526D01*
X1551432Y-836066D01*
X1542491Y-840181D01*
X1534414Y-845819D01*
X1530146Y-849071D01*
X1526184Y-849833D01*
X1522272Y-849071D01*
X1518005Y-845819D01*
X1509928Y-840181D01*
X1500987Y-836066D01*
X1491589Y-833526D01*
X1481734Y-832662D01*
X1471930Y-833526D01*
X1462532Y-836066D01*
X1453591Y-840181D01*
X1445514Y-845819D01*
X1443939Y-847394D01*
X1440637Y-849630D01*
X1436776Y-850392D01*
X1430578Y-850392D01*
X1426921Y-849680D01*
X1423771Y-847750D01*
X1421485Y-844753D01*
X1415034Y-831494D01*
X1407109Y-819708D01*
X1397812Y-809040D01*
X1387144Y-799693D01*
X1375359Y-791819D01*
X1362557Y-785571D01*
X1349146Y-780999D01*
X1335074Y-778205D01*
X1330807Y-776986D01*
X1327505Y-774090D01*
X1325778Y-770077D01*
X1325880Y-765657D01*
X1327810Y-761695D01*
X1331214Y-758952D01*
X1340307Y-754481D01*
X1352092Y-746607D01*
X1362760Y-737260D01*
X1372057Y-726643D01*
X1379982Y-714857D01*
X1386230Y-702106D01*
X1390751Y-688695D01*
X1393494Y-674776D01*
X1394409Y-660654D01*
X1393494Y-646480D01*
X1390751Y-632612D01*
X1386230Y-619150D01*
X1379982Y-606450D01*
X1372057Y-594664D01*
X1362760Y-583996D01*
X1352092Y-574649D01*
X1340307Y-566775D01*
X1327505Y-560527D01*
X1314094Y-555955D01*
X1300175Y-553161D01*
X1286103Y-552246D01*
X1271930Y-553161D01*
X1258062Y-555955D01*
X1244600Y-560527D01*
X1231900Y-566775D01*
X1220114Y-574649D01*
X1209446Y-583996D01*
X1200048Y-594664D01*
X1192225Y-606450D01*
X1187246Y-616458D01*
X1185062Y-619455D01*
X1181862Y-621436D01*
X1178153Y-622096D01*
X1113637Y-622096D01*
X1105560Y-622909D01*
X1098346Y-625094D01*
X1091742Y-628650D01*
X1085494Y-633780D01*
X1063193Y-656082D01*
X1059891Y-658266D01*
X1056030Y-659028D01*
X984453Y-659028D01*
X978103Y-659739D01*
X972667Y-661670D01*
X967790Y-664718D01*
X963726Y-668832D01*
X960577Y-673709D01*
X958646Y-679196D01*
X957935Y-685495D01*
X957935Y-779373D01*
X958646Y-785723D01*
X960577Y-791159D01*
X963726Y-796036D01*
X967790Y-800150D01*
X972667Y-803249D01*
X978103Y-805129D01*
X984453Y-805840D01*
X1098346Y-805840D01*
X1104646Y-805129D01*
X1110132Y-803249D01*
X1115009Y-800150D01*
X1119073Y-796036D01*
X1122222Y-791159D01*
X1124051Y-785723D01*
X1124762Y-779373D01*
X1124762Y-709472D01*
X1125524Y-705612D01*
X1127810Y-702310D01*
X1131112Y-700125D01*
X1134922Y-699312D01*
X1178255Y-699312D01*
X1181912Y-700024D01*
X1185062Y-702005D01*
X1187348Y-705002D01*
X1192225Y-714857D01*
X1200048Y-726643D01*
X1209446Y-737260D01*
X1220114Y-746607D01*
X1231900Y-754481D01*
X1244600Y-760780D01*
X1258062Y-765352D01*
X1272133Y-768096D01*
X1276350Y-769366D01*
X1279652Y-772261D01*
X1281430Y-776274D01*
X1281328Y-780643D01*
X1279398Y-784606D01*
X1275994Y-787349D01*
X1266952Y-791819D01*
X1255166Y-799693D01*
X1244498Y-809040D01*
X1235100Y-819708D01*
X1227226Y-831494D01*
X1221028Y-844194D01*
X1216456Y-857656D01*
X1213662Y-871524D01*
X1212748Y-885698D01*
X1213662Y-899820D01*
X1216456Y-913739D01*
X1221028Y-927150D01*
X1227226Y-939901D01*
X1235100Y-951687D01*
X1244498Y-962304D01*
X1255166Y-971651D01*
X1266952Y-979525D01*
X1275994Y-983996D01*
X1279398Y-986739D01*
X1281328Y-990701D01*
X1281430Y-995121D01*
X1279652Y-999134D01*
X1276350Y-1002030D01*
X1271930Y-1003249D01*
X1258062Y-1006043D01*
X1244600Y-1010615D01*
X1231900Y-1016863D01*
X1220114Y-1024737D01*
X1209446Y-1034084D01*
X1200048Y-1044752D01*
X1192225Y-1056538D01*
X1185976Y-1069238D01*
X1181658Y-1081836D01*
X1179830Y-1085138D01*
X1176883Y-1087475D01*
X1173378Y-1088644D01*
X1169670Y-1088440D01*
X1166215Y-1086916D01*
X1158443Y-1081481D01*
X1149553Y-1077366D01*
X1140053Y-1074826D01*
X1134059Y-1074267D01*
X1130503Y-1073251D01*
X1127455Y-1071016D01*
X1125524Y-1067866D01*
X1124762Y-1064158D01*
X1124762Y-1024026D01*
X1124051Y-1017676D01*
X1122222Y-1012240D01*
X1119073Y-1007313D01*
X1115009Y-1003249D01*
X1110132Y-1000150D01*
X1104646Y-998270D01*
X1098346Y-997559D01*
X984453Y-997559D01*
X978103Y-998270D01*
X972667Y-1000150D01*
X967790Y-1003249D01*
X963726Y-1007313D01*
X960577Y-1012240D01*
X958646Y-1017676D01*
X957935Y-1024026D01*
X957935Y-1117854D01*
X958494Y-1122781D01*
X958291Y-1126236D01*
X957021Y-1129385D01*
X954684Y-1131925D01*
X951687Y-1133551D01*
X939800Y-1137615D01*
X927100Y-1143863D01*
X915314Y-1151737D01*
X904646Y-1161084D01*
X895248Y-1171752D01*
X887425Y-1183538D01*
X882548Y-1193444D01*
X880262Y-1196441D01*
X877112Y-1198422D01*
X873353Y-1199134D01*
X724814Y-1199134D01*
X721055Y-1198372D01*
X717804Y-1196289D01*
X715619Y-1193139D01*
X714705Y-1189380D01*
X715264Y-1185570D01*
X717194Y-1182268D01*
X722071Y-1176731D01*
X729996Y-1164945D01*
X736244Y-1152194D01*
X740816Y-1138783D01*
X743508Y-1124864D01*
X744423Y-1110742D01*
X743508Y-1096568D01*
X740816Y-1082700D01*
X736244Y-1069238D01*
X729996Y-1056538D01*
X722071Y-1044752D01*
X712774Y-1034084D01*
X702106Y-1024737D01*
X690321Y-1016863D01*
X677519Y-1010615D01*
X664159Y-1006043D01*
X650189Y-1003249D01*
X642264Y-1002741D01*
X638403Y-1001725D01*
X635203Y-999286D01*
X633272Y-995883D01*
X632714Y-991920D01*
X633730Y-988110D01*
X636219Y-984961D01*
X639622Y-982980D01*
X641705Y-982268D01*
X654507Y-975969D01*
X666292Y-968095D01*
X676960Y-958748D01*
X686257Y-948131D01*
X694182Y-936345D01*
X700430Y-923594D01*
X704951Y-910183D01*
X707694Y-896264D01*
X708609Y-882142D01*
X707694Y-867968D01*
X704951Y-854100D01*
X700430Y-840638D01*
X694182Y-827938D01*
X686257Y-816152D01*
X676960Y-805484D01*
X666292Y-796137D01*
X654507Y-788263D01*
X651002Y-786536D01*
X647700Y-783945D01*
X645668Y-780288D01*
X645414Y-776071D01*
X646785Y-772160D01*
X649630Y-769112D01*
X653491Y-767435D01*
X664159Y-765352D01*
X677519Y-760780D01*
X690321Y-754481D01*
X702106Y-746607D01*
X712774Y-737260D01*
X722071Y-726643D01*
X729996Y-714857D01*
X736244Y-702106D01*
X740816Y-688695D01*
X743508Y-674776D01*
X744423Y-660654D01*
X743508Y-646480D01*
X740816Y-632612D01*
X736244Y-619150D01*
X729996Y-606450D01*
X722071Y-594664D01*
X712774Y-583996D01*
X702106Y-574649D01*
X690321Y-566775D01*
X677519Y-560527D01*
X664159Y-555955D01*
X650189Y-553161D01*
X636117Y-552246D01*
X621944Y-553161D01*
X608025Y-555955D01*
X594614Y-560527D01*
X581914Y-566775D01*
X570128Y-574649D01*
X559460Y-583996D01*
X550062Y-594664D01*
X542239Y-606450D01*
X535990Y-619150D01*
X531368Y-632612D01*
X528624Y-646480D01*
X527710Y-660654D01*
X528624Y-674776D01*
X531368Y-688695D01*
X535990Y-702106D01*
X542239Y-714857D01*
X550062Y-726643D01*
X559460Y-737260D01*
X570128Y-746607D01*
X581914Y-754481D01*
X585419Y-756259D01*
X588721Y-758799D01*
X590651Y-762508D01*
X591007Y-766673D01*
X589635Y-770636D01*
X586689Y-773684D01*
X582930Y-775309D01*
X572211Y-777443D01*
X558800Y-782015D01*
X546100Y-788263D01*
X534314Y-796137D01*
X523646Y-805484D01*
X514248Y-816152D01*
X506425Y-827938D01*
X500176Y-840638D01*
X499160Y-843483D01*
X497027Y-847090D01*
X493623Y-849528D01*
X489508Y-850392D01*
X447243Y-850392D01*
X443382Y-849630D01*
X440080Y-847394D01*
X438505Y-845819D01*
X430428Y-840181D01*
X421487Y-836066D01*
X412089Y-833526D01*
X402234Y-832662D01*
X392430Y-833526D01*
X383032Y-836066D01*
X374091Y-840181D01*
X366014Y-845819D01*
X359105Y-852779D01*
X353466Y-860806D01*
X349351Y-869746D01*
X346760Y-879195D01*
X345948Y-889000D01*
X346760Y-898804D01*
X349351Y-908253D01*
X353466Y-917194D01*
X359105Y-925220D01*
X366014Y-932180D01*
X374091Y-937818D01*
X383032Y-941933D01*
X392430Y-944473D01*
X402234Y-945337D01*
X412089Y-944473D01*
X421487Y-941933D01*
X430428Y-937818D01*
X438505Y-932180D01*
X440080Y-930605D01*
X443382Y-928369D01*
X447243Y-927608D01*
X495757Y-927608D01*
X499516Y-928319D01*
X502666Y-930300D01*
X504951Y-933297D01*
X506425Y-936345D01*
X514248Y-948131D01*
X523646Y-958748D01*
X534314Y-968095D01*
X546100Y-975969D01*
X558800Y-982268D01*
X572211Y-986840D01*
X586130Y-989584D01*
X594156Y-990092D01*
X597916Y-991158D01*
X601116Y-993546D01*
X603046Y-997000D01*
X603605Y-1000912D01*
X602589Y-1004722D01*
X600202Y-1007871D01*
X596696Y-1009853D01*
X594614Y-1010615D01*
X581914Y-1016863D01*
X570128Y-1024737D01*
X559460Y-1034084D01*
X550062Y-1044752D01*
X542239Y-1056538D01*
X535990Y-1069238D01*
X531368Y-1082700D01*
X528624Y-1096568D01*
X527710Y-1110742D01*
X528624Y-1124864D01*
X531368Y-1138783D01*
X535990Y-1152194D01*
X542239Y-1164945D01*
X550062Y-1176731D01*
X554939Y-1182268D01*
X556869Y-1185570D01*
X557428Y-1189380D01*
X556615Y-1193139D01*
X554380Y-1196289D01*
X551078Y-1198372D01*
X547370Y-1199134D01*
X303022Y-1199134D01*
X299110Y-1198372D01*
X295757Y-1196136D01*
X259334Y-1159713D01*
X257200Y-1156614D01*
X256336Y-1152956D01*
X256895Y-1149248D01*
X260502Y-1138783D01*
X263194Y-1124864D01*
X264109Y-1110742D01*
X263194Y-1096568D01*
X260502Y-1082700D01*
X255879Y-1069238D01*
X249682Y-1056538D01*
X241757Y-1044752D01*
X232410Y-1034084D01*
X221742Y-1024737D01*
X209956Y-1016863D01*
X200964Y-1012393D01*
X197510Y-1009650D01*
X195580Y-1005687D01*
X195478Y-1001318D01*
X197205Y-997305D01*
X200507Y-994410D01*
X204927Y-993140D01*
X218897Y-990396D01*
X232257Y-985824D01*
X245008Y-979525D01*
X256794Y-971651D01*
X267462Y-962304D01*
X276809Y-951687D01*
X284683Y-939901D01*
X290931Y-927150D01*
X295503Y-913739D01*
X298246Y-899820D01*
X299161Y-885698D01*
X298246Y-871524D01*
X295503Y-857656D01*
X290931Y-844194D01*
X284683Y-831494D01*
X276809Y-819708D01*
X267462Y-809040D01*
X256794Y-799693D01*
X245008Y-791819D01*
X232257Y-785571D01*
X218897Y-780999D01*
X204774Y-778205D01*
X200507Y-776986D01*
X197205Y-774090D01*
X195478Y-770077D01*
X195580Y-765657D01*
X197510Y-761695D01*
X200964Y-758952D01*
X209956Y-754481D01*
X221742Y-746607D01*
X232410Y-737260D01*
X241757Y-726643D01*
X249682Y-714857D01*
X255879Y-702106D01*
X260502Y-688695D01*
X263194Y-674776D01*
X264109Y-660654D01*
X263194Y-646480D01*
X260502Y-632612D01*
X255879Y-619150D01*
X249682Y-606450D01*
X241757Y-594664D01*
X232410Y-583996D01*
X221742Y-574649D01*
X209956Y-566775D01*
X197205Y-560527D01*
X183845Y-555955D01*
X169875Y-553161D01*
X155752Y-552246D01*
X141579Y-553161D01*
X127711Y-555955D01*
X114249Y-560527D01*
X101549Y-566775D01*
X89763Y-574649D01*
X79095Y-583996D01*
X69748Y-594664D01*
X61874Y-606450D01*
X56946Y-616458D01*
X54762Y-619455D01*
X51511Y-621436D01*
X47853Y-622096D01*
X-16713Y-622096D01*
X-24688Y-622909D01*
X-31953Y-625094D01*
X-38608Y-628650D01*
X-44805Y-633780D01*
X-67106Y-656082D01*
X-70408Y-658266D01*
X-74320Y-659028D01*
X-145796Y-659028D01*
X-152146Y-659739D01*
X-157581Y-661670D01*
X-162509Y-664718D01*
X-166624Y-668832D01*
X-169722Y-673709D01*
X-171602Y-679196D01*
X-172262Y-685495D01*
X-172262Y-779373D01*
X-171602Y-785723D01*
X-169722Y-791159D01*
X-166624Y-796036D01*
X-162509Y-800150D01*
X-157581Y-803249D01*
X-152146Y-805129D01*
X-145796Y-805840D01*
X-32004Y-805840D01*
X-25654Y-805129D01*
X-20218Y-803249D01*
X-15341Y-800150D01*
X-11176Y-796036D01*
X-8077Y-791159D01*
X-6197Y-785723D01*
X-5537Y-779373D01*
X-5537Y-709472D01*
X-4673Y-705612D01*
X-2540Y-702310D01*
X762Y-700125D01*
X4622Y-699312D01*
X47955Y-699312D01*
X51612Y-700024D01*
X54813Y-702005D01*
X57048Y-705002D01*
X61874Y-714857D01*
X69748Y-726643D01*
X79095Y-737260D01*
X89763Y-746607D01*
X101549Y-754481D01*
X114249Y-760780D01*
X127711Y-765352D01*
X141884Y-768096D01*
X146100Y-769366D01*
X149352Y-772261D01*
X151180Y-776274D01*
X151079Y-780643D01*
X149148Y-784606D01*
X145694Y-787349D01*
X136601Y-791819D01*
X124815Y-799693D01*
X114147Y-809040D01*
X104800Y-819708D01*
X96977Y-831494D01*
X90474Y-844753D01*
X88188Y-847750D01*
X85039Y-849680D01*
X81330Y-850392D01*
X-289356Y-850392D01*
X-293268Y-849630D01*
X-296570Y-847394D01*
X-298145Y-845819D01*
X-306120Y-840181D01*
X-315112Y-836066D01*
X-324561Y-833526D01*
X-334365Y-832662D01*
X-344119Y-833526D01*
X-353568Y-836066D01*
X-362559Y-840181D01*
X-370535Y-845819D01*
X-377494Y-852779D01*
X-383184Y-860806D01*
X-387248Y-869746D01*
X-389839Y-879195D01*
X-390652Y-889000D01*
X-389839Y-898804D01*
X-387248Y-908253D01*
X-383184Y-917194D01*
X-377494Y-925220D01*
X-370535Y-932180D01*
X-362559Y-937818D01*
X-353568Y-941933D01*
X-344119Y-944473D01*
X-334365Y-945337D01*
X-324561Y-944473D01*
X-315112Y-941933D01*
X-306120Y-937818D01*
X-298145Y-932180D01*
X-296570Y-930605D01*
X-293268Y-928369D01*
X-289356Y-927608D01*
X84632Y-927608D01*
X88239Y-928319D01*
X91490Y-930300D01*
X93675Y-933297D01*
X96977Y-939901D01*
X104800Y-951687D01*
X114147Y-962304D01*
X124815Y-971651D01*
X136601Y-979525D01*
X145694Y-983996D01*
X149148Y-986739D01*
X151079Y-990701D01*
X151180Y-995121D01*
X149352Y-999134D01*
X146100Y-1002030D01*
X141579Y-1003249D01*
X127711Y-1006043D01*
X114249Y-1010615D01*
X101549Y-1016863D01*
X89763Y-1024737D01*
X79095Y-1034084D01*
X69748Y-1044752D01*
X61874Y-1056538D01*
X55626Y-1069238D01*
X51358Y-1081836D01*
X49530Y-1085138D01*
X46634Y-1087526D01*
X43078Y-1088644D01*
X39319Y-1088440D01*
X35915Y-1086916D01*
X28143Y-1081481D01*
X19304Y-1077366D01*
X9753Y-1074826D01*
X3759Y-1074267D01*
X203Y-1073251D01*
X-2794Y-1071016D01*
X-4775Y-1067866D01*
X-5537Y-1064158D01*
X-5537Y-1024026D01*
X-6197Y-1017676D01*
X-8077Y-1012240D01*
X-11176Y-1007313D01*
X-15341Y-1003249D01*
X-20218Y-1000150D01*
X-25654Y-998270D01*
X-32004Y-997559D01*
X-145796Y-997559D01*
X-152146Y-998270D01*
X-157581Y-1000150D01*
X-162509Y-1003249D01*
X-166624Y-1007313D01*
X-169722Y-1012240D01*
X-171602Y-1017676D01*
X-172262Y-1024026D01*
X-172262Y-1117854D01*
X-171754Y-1122781D01*
X-171958Y-1126236D01*
X-173228Y-1129385D01*
X-175615Y-1131925D01*
X-178562Y-1133551D01*
X-190550Y-1137615D01*
X-203250Y-1143863D01*
X-215036Y-1151737D01*
X-225704Y-1161084D01*
X-235051Y-1171752D01*
X-242925Y-1183538D01*
X-249174Y-1196238D01*
X-253746Y-1209700D01*
X-256489Y-1223568D01*
X-257454Y-1237742D01*
X-256489Y-1251864D01*
X-253746Y-1265783D01*
X-249174Y-1279194D01*
X-242925Y-1291945D01*
X-235051Y-1303731D01*
X-225704Y-1314348D01*
X-215036Y-1323695D01*
X-203250Y-1331569D01*
X-190550Y-1337868D01*
X-177088Y-1342440D01*
X-163220Y-1345184D01*
X-149047Y-1346098D01*
X-134924Y-1345184D01*
X-120954Y-1342440D01*
X-107594Y-1337868D01*
X-94843Y-1331569D01*
X-83058Y-1323695D01*
X-72390Y-1314348D01*
X-63042Y-1303731D01*
X-55117Y-1291945D01*
X-50241Y-1281988D01*
X-48056Y-1278991D01*
X-44805Y-1277010D01*
X-41198Y-1276350D01*
X28244Y-1276350D01*
X36322Y-1275537D01*
X43535Y-1273352D01*
X50190Y-1269796D01*
X56438Y-1264666D01*
X106781Y-1214323D01*
X109880Y-1212189D01*
X113588Y-1211326D01*
X117297Y-1211884D01*
X127711Y-1215440D01*
X141579Y-1218184D01*
X155752Y-1219098D01*
X169875Y-1218184D01*
X183845Y-1215440D01*
X194259Y-1211884D01*
X198018Y-1211326D01*
X201625Y-1212189D01*
X204774Y-1214323D01*
X255168Y-1264666D01*
X261366Y-1269796D01*
X267970Y-1273352D01*
X275234Y-1275537D01*
X283260Y-1276350D01*
X873353Y-1276350D01*
X877112Y-1277010D01*
X880262Y-1278991D01*
X882548Y-1281988D01*
X887425Y-1291945D01*
X895248Y-1303731D01*
X904646Y-1314348D01*
X915314Y-1323695D01*
X927100Y-1331569D01*
X939800Y-1337868D01*
X953262Y-1342440D01*
X967130Y-1345184D01*
X981303Y-1346098D01*
X995375Y-1345184D01*
X1009294Y-1342440D01*
X1022705Y-1337868D01*
X1035507Y-1331569D01*
X1047292Y-1323695D01*
X1057960Y-1314348D01*
X1067257Y-1303731D01*
X1075182Y-1291945D01*
X1080058Y-1281988D01*
X1082243Y-1278991D01*
X1085494Y-1277010D01*
X1089152Y-1276350D01*
X1158544Y-1276350D01*
X1166571Y-1275537D01*
X1173835Y-1273352D01*
X1180541Y-1269796D01*
X1186738Y-1264666D01*
X1237132Y-1214323D01*
X1240180Y-1212189D01*
X1243787Y-1211326D01*
X1247546Y-1211884D01*
X1258062Y-1215440D01*
X1271930Y-1218184D01*
X1286103Y-1219098D01*
X1300175Y-1218184D01*
X1314094Y-1215440D01*
X1324559Y-1211884D01*
X1328267Y-1211326D01*
X1331925Y-1212189D01*
X1335074Y-1214323D01*
X1385417Y-1264666D01*
X1391666Y-1269796D01*
X1398270Y-1273352D01*
X1405534Y-1275537D01*
X1413560Y-1276350D01*
X2003653Y-1276350D01*
X2007412Y-1277010D01*
X2010562Y-1278991D01*
X2012848Y-1281988D01*
X2017725Y-1291945D01*
X2025548Y-1303731D01*
X2034946Y-1314348D01*
X2045614Y-1323695D01*
X2057400Y-1331569D01*
X2070100Y-1337868D01*
X2083562Y-1342440D01*
X2097430Y-1345184D01*
X2111603Y-1346098D01*
X2125675Y-1345184D01*
X2139594Y-1342440D01*
X2153005Y-1337868D01*
X2165807Y-1331569D01*
X2177592Y-1323695D01*
X2188159Y-1314348D01*
X2197557Y-1303731D01*
X2205482Y-1291945D01*
X2210358Y-1281988D01*
X2212543Y-1278991D01*
X2215794Y-1277010D01*
X2219452Y-1276350D01*
X2288844Y-1276350D01*
X2296871Y-1275537D01*
X2304135Y-1273352D01*
X2310841Y-1269796D01*
X2317038Y-1264666D01*
X2367432Y-1214323D01*
X2370480Y-1212189D01*
X2374087Y-1211326D01*
X2377846Y-1211884D01*
X2388362Y-1215440D01*
X2402230Y-1218184D01*
X2416403Y-1219098D01*
X2430475Y-1218184D01*
X2444394Y-1215440D01*
X2454859Y-1211884D01*
X2458567Y-1211326D01*
X2462225Y-1212189D01*
X2465374Y-1214323D01*
X2515717Y-1264666D01*
X2521966Y-1269796D01*
X2528570Y-1273352D01*
X2535834Y-1275537D01*
X2543860Y-1276350D01*
X3133953Y-1276350D01*
X3137712Y-1277010D01*
X3140862Y-1278991D01*
X3143148Y-1281988D01*
X3148025Y-1291945D01*
X3155848Y-1303731D01*
X3165246Y-1314348D01*
X3175914Y-1323695D01*
X3187700Y-1331569D01*
X3200400Y-1337868D01*
X3213862Y-1342440D01*
X3227730Y-1345184D01*
X3241903Y-1346098D01*
X3255975Y-1345184D01*
X3269894Y-1342440D01*
X3283305Y-1337868D01*
X3296107Y-1331569D01*
X3307892Y-1323695D01*
X3317849Y-1314958D01*
X3321710Y-1312875D01*
X3326129Y-1312570D01*
X3330244Y-1314246D01*
X3333292Y-1317498D01*
X3334664Y-1321714D01*
X3335426Y-1330604D01*
X3337966Y-1340053D01*
X3342132Y-1348994D01*
X3346348Y-1355090D01*
X3348024Y-1359154D01*
X3347923Y-1363573D01*
X3345891Y-1367485D01*
X3342386Y-1370126D01*
X3338068Y-1371092D01*
G37*

%LPC*%
G36*
X4351985Y346303D02*
G01*
X4366107Y347218D01*
X4380026Y349910D01*
X4393539Y354431D01*
X4406341Y360578D01*
X4418228Y368350D01*
X4429099Y377545D01*
X4438650Y388061D01*
X4446727Y399694D01*
X4453382Y412292D01*
X4458258Y425653D01*
X4461357Y439521D01*
X4462780Y453643D01*
X4462322Y467817D01*
X4460087Y481888D01*
X4455972Y495503D01*
X4450232Y508508D01*
X4442866Y520649D01*
X4433976Y531723D01*
X4423816Y541629D01*
X4412437Y550113D01*
X4400092Y557123D01*
X4386834Y562457D01*
X4373118Y566013D01*
X4359046Y567842D01*
X4344873Y567842D01*
X4330700Y566013D01*
X4316984Y562457D01*
X4303826Y557123D01*
X4291482Y550113D01*
X4280103Y541629D01*
X4269892Y531723D01*
X4260951Y520649D01*
X4253585Y508508D01*
X4250740Y501853D01*
X4248505Y498652D01*
X4245203Y496570D01*
X4241444Y495808D01*
X4181043Y495808D01*
X4177182Y496570D01*
X4173880Y498805D01*
X4172305Y500380D01*
X4164228Y506018D01*
X4155287Y510133D01*
X4145889Y512673D01*
X4136085Y513537D01*
X4126229Y512673D01*
X4116832Y510133D01*
X4107891Y506018D01*
X4099814Y500380D01*
X4092905Y493420D01*
X4087266Y485393D01*
X4083151Y476453D01*
X4080560Y467004D01*
X4079748Y457200D01*
X4080560Y447395D01*
X4083151Y437946D01*
X4087266Y429006D01*
X4092905Y420979D01*
X4099814Y414020D01*
X4107891Y408381D01*
X4116832Y404266D01*
X4126229Y401726D01*
X4136085Y400862D01*
X4145889Y401726D01*
X4155287Y404266D01*
X4164228Y408381D01*
X4172305Y414020D01*
X4173880Y415594D01*
X4177182Y417830D01*
X4181043Y418592D01*
X4241139Y418592D01*
X4244746Y417931D01*
X4247946Y416001D01*
X4250182Y413105D01*
X4257090Y399694D01*
X4265269Y388061D01*
X4274820Y377545D01*
X4285589Y368350D01*
X4297476Y360578D01*
X4310278Y354431D01*
X4323791Y349910D01*
X4337710Y347218D01*
G37*
G36*
X-1282395Y-1304696D02*
G01*
X-1210665Y-1304696D01*
X-1210665Y-1206500D01*
X-1308811Y-1206500D01*
X-1308811Y-1278229D01*
X-1308150Y-1284528D01*
X-1306271Y-1290015D01*
X-1303121Y-1294892D01*
X-1299057Y-1299006D01*
X-1294180Y-1302105D01*
X-1288694Y-1303985D01*
G37*
G36*
X-947470Y-1304645D02*
G01*
X-933246Y-1304188D01*
X-919226Y-1301902D01*
X-905662Y-1297889D01*
X-892657Y-1292098D01*
X-880465Y-1284732D01*
X-869340Y-1275892D01*
X-859485Y-1265682D01*
X-851052Y-1254302D01*
X-843991Y-1241907D01*
X-842771Y-1238758D01*
X-840536Y-1235405D01*
X-837285Y-1233170D01*
X-833374Y-1232408D01*
X-734923Y-1232408D01*
X-731012Y-1233170D01*
X-727710Y-1235405D01*
X-726135Y-1236980D01*
X-718159Y-1242618D01*
X-709168Y-1246733D01*
X-699719Y-1249273D01*
X-689965Y-1250137D01*
X-680161Y-1249273D01*
X-670712Y-1246733D01*
X-661720Y-1242618D01*
X-653745Y-1236980D01*
X-646785Y-1230020D01*
X-641096Y-1221994D01*
X-637032Y-1213053D01*
X-634441Y-1203604D01*
X-633628Y-1193800D01*
X-634441Y-1183995D01*
X-637032Y-1174546D01*
X-641096Y-1165606D01*
X-646785Y-1157579D01*
X-653745Y-1150620D01*
X-661720Y-1144981D01*
X-670712Y-1140866D01*
X-680161Y-1138326D01*
X-689965Y-1137462D01*
X-699719Y-1138326D01*
X-709168Y-1140866D01*
X-718159Y-1144981D01*
X-726135Y-1150620D01*
X-727710Y-1152194D01*
X-731012Y-1154430D01*
X-734923Y-1155192D01*
X-833374Y-1155192D01*
X-837285Y-1154430D01*
X-840536Y-1152194D01*
X-842771Y-1148842D01*
X-843991Y-1145692D01*
X-851052Y-1133297D01*
X-859485Y-1121918D01*
X-869340Y-1111707D01*
X-880465Y-1102868D01*
X-892657Y-1095502D01*
X-905662Y-1089761D01*
X-919226Y-1085697D01*
X-933246Y-1083411D01*
X-947470Y-1082954D01*
X-961593Y-1084326D01*
X-975512Y-1087475D01*
X-988872Y-1092403D01*
X-1001471Y-1098956D01*
X-1013104Y-1107084D01*
X-1023569Y-1116685D01*
X-1032814Y-1127455D01*
X-1040587Y-1139393D01*
X-1046683Y-1152194D01*
X-1051204Y-1165656D01*
X-1053896Y-1179626D01*
X-1054811Y-1193800D01*
X-1053896Y-1207973D01*
X-1051204Y-1221943D01*
X-1046683Y-1235405D01*
X-1040587Y-1248206D01*
X-1032814Y-1260144D01*
X-1023569Y-1270965D01*
X-1013104Y-1280515D01*
X-1001471Y-1288643D01*
X-988872Y-1295196D01*
X-975512Y-1300124D01*
X-961593Y-1303274D01*
G37*
G36*
X-494182Y-1219098D02*
G01*
X-480059Y-1218184D01*
X-466191Y-1215440D01*
X-452729Y-1210868D01*
X-439978Y-1204569D01*
X-428193Y-1196695D01*
X-417525Y-1187348D01*
X-408178Y-1176731D01*
X-400304Y-1164945D01*
X-394055Y-1152194D01*
X-389534Y-1138783D01*
X-386740Y-1124864D01*
X-385826Y-1110742D01*
X-386740Y-1096568D01*
X-389534Y-1082700D01*
X-394055Y-1069238D01*
X-400304Y-1056538D01*
X-408178Y-1044752D01*
X-417525Y-1034084D01*
X-428193Y-1024737D01*
X-439978Y-1016863D01*
X-452729Y-1010615D01*
X-466191Y-1006043D01*
X-480059Y-1003249D01*
X-488086Y-1002741D01*
X-491947Y-1001725D01*
X-495046Y-999286D01*
X-497027Y-995883D01*
X-497535Y-991920D01*
X-496519Y-988110D01*
X-494080Y-984961D01*
X-490677Y-982980D01*
X-488594Y-982268D01*
X-475843Y-975969D01*
X-464058Y-968095D01*
X-453390Y-958748D01*
X-444042Y-948131D01*
X-436118Y-936345D01*
X-429920Y-923594D01*
X-425297Y-910183D01*
X-422605Y-896264D01*
X-421690Y-882142D01*
X-422605Y-867968D01*
X-425297Y-854100D01*
X-429920Y-840638D01*
X-436118Y-827938D01*
X-444042Y-816152D01*
X-453390Y-805484D01*
X-464058Y-796137D01*
X-475843Y-788263D01*
X-479348Y-786536D01*
X-482650Y-783945D01*
X-484632Y-780288D01*
X-484885Y-776071D01*
X-483514Y-772160D01*
X-480720Y-769112D01*
X-476859Y-767435D01*
X-466191Y-765352D01*
X-452729Y-760780D01*
X-439978Y-754481D01*
X-428193Y-746607D01*
X-417525Y-737260D01*
X-408178Y-726643D01*
X-400304Y-714857D01*
X-394055Y-702106D01*
X-389534Y-688695D01*
X-386740Y-674776D01*
X-385826Y-660654D01*
X-386740Y-646480D01*
X-389534Y-632612D01*
X-394055Y-619150D01*
X-400304Y-606450D01*
X-408178Y-594664D01*
X-417525Y-583996D01*
X-428193Y-574649D01*
X-439978Y-566775D01*
X-452729Y-560527D01*
X-466191Y-555955D01*
X-480059Y-553161D01*
X-494182Y-552246D01*
X-508355Y-553161D01*
X-522274Y-555955D01*
X-535686Y-560527D01*
X-548386Y-566775D01*
X-560171Y-574649D01*
X-570839Y-583996D01*
X-580186Y-594664D01*
X-588060Y-606450D01*
X-594309Y-619150D01*
X-598932Y-632612D01*
X-601624Y-646480D01*
X-602589Y-660654D01*
X-601624Y-674776D01*
X-598932Y-688695D01*
X-594309Y-702106D01*
X-588060Y-714857D01*
X-580186Y-726643D01*
X-570839Y-737260D01*
X-560171Y-746607D01*
X-548386Y-754481D01*
X-544880Y-756259D01*
X-541578Y-758799D01*
X-539597Y-762508D01*
X-539343Y-766673D01*
X-540664Y-770636D01*
X-543560Y-773684D01*
X-547370Y-775309D01*
X-558088Y-777443D01*
X-571550Y-782015D01*
X-584250Y-788263D01*
X-596036Y-796137D01*
X-606704Y-805484D01*
X-616051Y-816152D01*
X-623925Y-827938D01*
X-630174Y-840638D01*
X-634746Y-854100D01*
X-637489Y-867968D01*
X-638454Y-882142D01*
X-637489Y-896264D01*
X-634746Y-910183D01*
X-630174Y-923594D01*
X-623925Y-936345D01*
X-616051Y-948131D01*
X-606704Y-958748D01*
X-596036Y-968095D01*
X-584250Y-975969D01*
X-571550Y-982268D01*
X-558088Y-986840D01*
X-544220Y-989584D01*
X-536143Y-990092D01*
X-532333Y-991158D01*
X-529234Y-993546D01*
X-527253Y-997000D01*
X-526694Y-1000912D01*
X-527761Y-1004722D01*
X-530148Y-1007871D01*
X-533603Y-1009853D01*
X-535686Y-1010615D01*
X-548386Y-1016863D01*
X-560171Y-1024737D01*
X-570839Y-1034084D01*
X-580186Y-1044752D01*
X-588060Y-1056538D01*
X-594309Y-1069238D01*
X-598932Y-1082700D01*
X-601624Y-1096568D01*
X-602589Y-1110742D01*
X-601624Y-1124864D01*
X-598932Y-1138783D01*
X-594309Y-1152194D01*
X-588060Y-1164945D01*
X-580186Y-1176731D01*
X-570839Y-1187348D01*
X-560171Y-1196695D01*
X-548386Y-1204569D01*
X-535686Y-1210868D01*
X-522274Y-1215440D01*
X-508355Y-1218184D01*
G37*
G36*
X-1185265Y-1181100D02*
G01*
X-1087069Y-1181100D01*
X-1087069Y-1109370D01*
X-1087729Y-1103071D01*
X-1089609Y-1097584D01*
X-1092758Y-1092708D01*
X-1096822Y-1088593D01*
X-1101699Y-1085494D01*
X-1107186Y-1083614D01*
X-1113485Y-1082903D01*
X-1185265Y-1082903D01*
G37*
G36*
X-1185265Y-1304696D02*
G01*
X-1113485Y-1304696D01*
X-1107186Y-1303985D01*
X-1101699Y-1302105D01*
X-1096822Y-1299006D01*
X-1092758Y-1294892D01*
X-1089609Y-1290015D01*
X-1087729Y-1284528D01*
X-1087069Y-1278229D01*
X-1087069Y-1206500D01*
X-1185265Y-1206500D01*
G37*
G36*
X4063288Y-1181100D02*
G01*
X4161485Y-1181100D01*
X4161485Y-1082903D01*
X4089755Y-1082903D01*
X4083405Y-1083614D01*
X4077970Y-1085494D01*
X4073042Y-1088593D01*
X4068978Y-1092708D01*
X4065828Y-1097584D01*
X4064000Y-1103071D01*
X4063288Y-1109370D01*
G37*
G36*
X4186885Y-1181100D02*
G01*
X4285030Y-1181100D01*
X4285030Y-1109370D01*
X4284319Y-1103071D01*
X4282389Y-1097584D01*
X4279341Y-1092708D01*
X4275226Y-1088593D01*
X4270349Y-1085494D01*
X4264914Y-1083614D01*
X4258564Y-1082903D01*
X4186885Y-1082903D01*
G37*
G36*
X-169265Y-634136D02*
G01*
X-155092Y-633222D01*
X-141122Y-630478D01*
X-127711Y-625906D01*
X-115011Y-619607D01*
X-103276Y-611733D01*
X-92557Y-602386D01*
X-83261Y-591769D01*
X-75387Y-579983D01*
X-69088Y-567232D01*
X-64566Y-553821D01*
X-61772Y-539902D01*
X-60807Y-525780D01*
X-61772Y-511606D01*
X-64566Y-497738D01*
X-69088Y-484276D01*
X-75387Y-471576D01*
X-83261Y-459790D01*
X-92557Y-449122D01*
X-103276Y-439775D01*
X-115011Y-431901D01*
X-127711Y-425653D01*
X-141122Y-421081D01*
X-155092Y-418287D01*
X-169265Y-417372D01*
X-183388Y-418287D01*
X-197256Y-421081D01*
X-210718Y-425653D01*
X-223418Y-431901D01*
X-235204Y-439775D01*
X-245871Y-449122D01*
X-255219Y-459790D01*
X-263042Y-471576D01*
X-269392Y-484276D01*
X-273862Y-497738D01*
X-276707Y-511606D01*
X-277622Y-525780D01*
X-276707Y-539902D01*
X-273862Y-553821D01*
X-269392Y-567232D01*
X-263042Y-579983D01*
X-255219Y-591769D01*
X-245871Y-602386D01*
X-235204Y-611733D01*
X-223418Y-619607D01*
X-210718Y-625906D01*
X-197256Y-630478D01*
X-183388Y-633222D01*
G37*
G36*
X4351985Y92303D02*
G01*
X4366107Y93218D01*
X4380026Y95910D01*
X4393539Y100431D01*
X4406341Y106578D01*
X4418228Y114350D01*
X4429099Y123545D01*
X4438650Y134061D01*
X4446727Y145694D01*
X4453382Y158292D01*
X4458258Y171653D01*
X4461357Y185521D01*
X4462780Y199644D01*
X4462322Y213817D01*
X4460087Y227888D01*
X4455972Y241503D01*
X4450232Y254508D01*
X4442866Y266649D01*
X4433976Y277723D01*
X4423816Y287629D01*
X4412437Y296113D01*
X4400092Y303123D01*
X4386834Y308457D01*
X4373118Y312013D01*
X4359046Y313842D01*
X4344873Y313842D01*
X4330700Y312013D01*
X4316984Y308457D01*
X4303826Y303123D01*
X4291482Y296113D01*
X4280103Y287629D01*
X4269892Y277723D01*
X4260951Y266649D01*
X4253585Y254508D01*
X4251655Y250037D01*
X4248962Y246481D01*
X4245102Y244348D01*
X4240682Y244144D01*
X4236567Y245821D01*
X4227728Y252018D01*
X4218787Y256133D01*
X4209389Y258673D01*
X4199585Y259537D01*
X4189729Y258673D01*
X4180332Y256133D01*
X4171391Y252018D01*
X4163314Y246379D01*
X4156405Y239420D01*
X4150766Y231394D01*
X4146651Y222453D01*
X4144060Y213004D01*
X4143248Y203200D01*
X4144060Y193395D01*
X4146651Y183946D01*
X4150766Y175006D01*
X4156405Y166979D01*
X4163314Y160020D01*
X4171391Y154381D01*
X4180332Y150266D01*
X4189729Y147726D01*
X4199585Y146862D01*
X4209389Y147726D01*
X4218787Y150266D01*
X4227728Y154381D01*
X4236466Y160528D01*
X4240428Y162153D01*
X4244644Y162052D01*
X4248505Y160172D01*
X4251299Y156870D01*
X4257090Y145694D01*
X4265269Y134061D01*
X4274820Y123545D01*
X4285589Y114350D01*
X4297476Y106578D01*
X4310278Y100431D01*
X4323791Y95910D01*
X4337710Y93218D01*
G37*
G36*
X3920185Y346303D02*
G01*
X3934307Y347218D01*
X3948226Y349910D01*
X3961739Y354431D01*
X3974541Y360578D01*
X3986428Y368350D01*
X3997299Y377545D01*
X4006850Y388061D01*
X4014927Y399694D01*
X4021582Y412292D01*
X4026458Y425653D01*
X4029557Y439521D01*
X4030979Y453643D01*
X4030522Y467817D01*
X4028287Y481888D01*
X4024172Y495503D01*
X4018432Y508508D01*
X4011066Y520649D01*
X4002227Y531723D01*
X3992016Y541629D01*
X3980637Y550113D01*
X3968292Y557123D01*
X3955034Y562457D01*
X3941318Y566013D01*
X3927246Y567842D01*
X3913073Y567842D01*
X3898900Y566013D01*
X3885184Y562457D01*
X3872026Y557123D01*
X3859682Y550113D01*
X3848303Y541629D01*
X3838092Y531723D01*
X3829151Y520649D01*
X3821785Y508508D01*
X3816096Y495503D01*
X3812032Y481888D01*
X3809796Y467817D01*
X3809339Y453643D01*
X3810660Y439521D01*
X3813860Y425653D01*
X3818737Y412292D01*
X3825290Y399694D01*
X3833469Y388061D01*
X3843020Y377545D01*
X3853789Y368350D01*
X3865778Y360578D01*
X3878579Y354431D01*
X3891991Y349910D01*
X3906012Y347218D01*
G37*
G36*
X-1308811Y-1181100D02*
G01*
X-1210665Y-1181100D01*
X-1210665Y-1082903D01*
X-1282395Y-1082903D01*
X-1288694Y-1083614D01*
X-1294180Y-1085494D01*
X-1299057Y-1088593D01*
X-1303121Y-1092708D01*
X-1306271Y-1097584D01*
X-1308150Y-1103071D01*
X-1308811Y-1109370D01*
G37*

%LPD*%
D10*
X-943940Y457200D02*
G01*
X-778840Y457200D01*
X-550240Y685800D01*
X-334340Y685800D01*
X2662859Y660400D02*
G01*
X2980347Y660400D01*
X3158147Y482594D01*
X3285159Y482594D01*
X3450264Y647700D01*
X3920159Y647700D01*
X3241868Y-107431D02*
G01*
X2543370Y-107431D01*
X2416370Y19568D01*
X4199534Y-177800D02*
G01*
X3374059Y-177800D01*
X3323259Y-228600D01*
X3158147Y-228600D01*
X3107347Y-177805D01*
X2260602Y-177688D01*
X4351959Y-50800D02*
G01*
X4199534Y-50800D01*
X4199559Y698500D02*
G01*
X4174164Y723894D01*
X1155702Y723894D01*
X1130302Y698494D01*
X4351959Y203200D02*
G01*
X4199559Y203200D01*
X3390902Y-1320800D02*
G01*
X4466247Y-1320800D01*
X4351959Y457200D02*
G01*
X4136059Y457200D01*
X-78Y-406400D02*
G01*
X3767747Y-406400D01*
X3818547Y-457200D01*
X4047159Y-457200D01*
X4136059Y-368300D01*
X3031147Y-889002D02*
G01*
X2867743Y-889002D01*
X2860870Y-882129D01*
X3920139Y-1193800D02*
G01*
X3629741Y-1193800D01*
X3546670Y-1110729D01*
X3241870Y-1237729D02*
G01*
X3419670Y-1237729D01*
X3546670Y-1110729D01*
X3241870Y-1237729D02*
G01*
X2543370Y-1237729D01*
X2416370Y-1110729D01*
X2111570Y-1237729D02*
G01*
X2289370Y-1237729D01*
X2416370Y-1110729D01*
X2111570Y-1237729D02*
G01*
X1413070Y-1237729D01*
X1286070Y-1110729D01*
X2662847Y-889002D02*
G01*
X2454640Y-889002D01*
X2451374Y-885736D01*
X1570659Y-889002D02*
G01*
X1723697Y-889002D01*
X1730570Y-882129D01*
X402259Y-889002D02*
G01*
X593397Y-889002D01*
X600270Y-882129D01*
X981270Y-1237729D02*
G01*
X1159070Y-1237729D01*
X1286070Y-1110729D01*
X981270Y-1237729D02*
G01*
X282773Y-1237729D01*
X155773Y-1110729D01*
X1481759Y-889002D02*
G01*
X1324338Y-889002D01*
X1321071Y-885736D01*
X-334340Y-889002D02*
G01*
X187507Y-889002D01*
X190774Y-885736D01*
X-149026Y-1237729D02*
G01*
X28773Y-1237729D01*
X155773Y-1110729D01*
X3755059Y-279400D02*
G01*
X1570659Y-279400D01*
X3920159Y203200D02*
G01*
X3755059Y203200D01*
X1570659Y241300D02*
G01*
X1723567Y241300D01*
X1730679Y248157D01*
X2662852Y241294D02*
G01*
X2454638Y241294D01*
X2451371Y244561D01*
X-689942Y-114305D02*
G01*
X-155900Y-114305D01*
X-149026Y-107431D01*
X-943940Y-1193800D02*
G01*
X-689942Y-1193800D01*
X-753440Y-279400D02*
G01*
X1481759Y-279400D01*
X-943940Y-50800D02*
G01*
X-753442Y-50800D01*
X1481754Y241294D02*
G01*
X1324338Y241294D01*
X1321071Y244561D01*
X402254Y241294D02*
G01*
X593399Y241294D01*
X600273Y248168D01*
X-943940Y-304800D02*
G01*
X-905840Y-342900D01*
X402259Y-342900D01*
X-334342Y241294D02*
G01*
X187507Y241294D01*
X190774Y244561D01*
X-943940Y203200D02*
G01*
X-695426Y203200D01*
X-695426Y203200D02*
G01*
X-574995Y203200D01*
X-530026Y248168D01*
X3920134Y-304800D02*
G01*
X3882034Y-342900D01*
X3031159Y-342900D01*
X3920139Y-50800D02*
G01*
X3877030Y-50800D01*
X3581669Y244561D01*
X-149026Y-107431D02*
G01*
X28773Y-107431D01*
X155773Y19568D01*
X981270Y-107431D02*
G01*
X282773Y-107431D01*
X155773Y19568D01*
X981270Y-107431D02*
G01*
X1159070Y-107431D01*
X1286070Y19568D01*
X2111570Y-107431D02*
G01*
X1413070Y-107431D01*
X1286070Y19568D01*
X2111570Y-107431D02*
G01*
X2289370Y-107431D01*
X2416370Y19568D01*
X3241868Y-107431D02*
G01*
X3419668Y-107431D01*
X3546668Y19568D01*
X3390902Y-1130300D02*
G01*
X3331542Y-1070940D01*
X3301999Y-1070940D01*
X3546675Y-660727D02*
G01*
X3373732Y-660727D01*
X3301999Y-732459D01*
X2Y0D02*
G01*
X-59357Y59359D01*
X-88900Y59359D01*
X1130302Y0D02*
G01*
X1070942Y59359D01*
X1041399Y59359D01*
X2260602Y0D02*
G01*
X2201242Y59359D01*
X2171699Y59359D01*
X3390902Y0D02*
G01*
X3331542Y59359D01*
X3301999Y59359D01*
X2260602Y-1130300D02*
G01*
X2201242Y-1070940D01*
X2171699Y-1070940D01*
X1130302Y-1130300D02*
G01*
X1070942Y-1070940D01*
X1041399Y-1070940D01*
X2Y-1130300D02*
G01*
X-59357Y-1070940D01*
X-88900Y-1070940D01*
X-88900Y-732459D02*
G01*
X-17167Y-660727D01*
X155775Y-660727D01*
X3301999Y397840D02*
G01*
X3373732Y469572D01*
X3546675Y469572D01*
X2171699Y397840D02*
G01*
X2243432Y469572D01*
X2416375Y469572D01*
X1041399Y397840D02*
G01*
X1113132Y469572D01*
X1286075Y469572D01*
X-88900Y397840D02*
G01*
X-17167Y469572D01*
X155775Y469572D01*
X1041399Y-732459D02*
G01*
X1113132Y-660727D01*
X1286075Y-660727D01*
X2171699Y-732459D02*
G01*
X2243432Y-660727D01*
X2416375Y-660727D01*
D11*
G01*
X-88900Y59359D03*
G01*
X-88900Y397840D03*
G01*
X1041397Y59359D03*
G01*
X1041397Y397840D03*
G01*
X2171694Y59359D03*
G01*
X2171694Y397840D03*
G01*
X3301992Y59359D03*
G01*
X3301992Y397840D03*
G01*
X-88900Y-1070937D03*
G01*
X-88900Y-732457D03*
G01*
X1041397Y-1070937D03*
G01*
X1041397Y-732457D03*
G01*
X2171694Y-1070937D03*
G01*
X2171694Y-732457D03*
G01*
X3301992Y-1070937D03*
G01*
X3301992Y-732457D03*
D12*
G01*
X-1197941Y-1193803D03*
D13*
G01*
X-943940Y-1193800D03*
G01*
X3920134Y-1193800D03*
D12*
G01*
X4174148Y-1193803D03*
D14*
G01*
X-943940Y-304806D03*
D13*
G01*
X-943940Y-50800D03*
G01*
X-943940Y203200D03*
G01*
X-943940Y457200D03*
D14*
G01*
X3920148Y-304806D03*
D13*
G01*
X3920134Y-50800D03*
G01*
X3920134Y203200D03*
G01*
X3920134Y457200D03*
D14*
G01*
X4351945Y-304806D03*
D13*
G01*
X4351934Y-50800D03*
G01*
X4351934Y203200D03*
G01*
X4351934Y457200D03*
D15*
G01*
X3546678Y-1110742D03*
G01*
X2896666Y-1110742D03*
G01*
X3546678Y-660730D03*
G01*
X2896666Y-660730D03*
G01*
X3221685Y-525754D03*
G01*
X3581679Y-885748D03*
G01*
X3241878Y-1237742D03*
G01*
X2860878Y-882142D03*
G01*
X2416378Y-1110742D03*
G01*
X1766366Y-1110742D03*
G01*
X2416378Y-660730D03*
G01*
X1766366Y-660730D03*
G01*
X2091385Y-525754D03*
G01*
X2451379Y-885748D03*
G01*
X2111578Y-1237742D03*
G01*
X1730578Y-882142D03*
G01*
X1286078Y-1110742D03*
G01*
X636066Y-1110742D03*
G01*
X1286078Y-660730D03*
G01*
X636066Y-660730D03*
G01*
X961085Y-525754D03*
G01*
X1321079Y-885748D03*
G01*
X981278Y-1237742D03*
G01*
X600278Y-882142D03*
G01*
X155778Y-1110742D03*
G01*
X-494233Y-1110742D03*
G01*
X155778Y-660730D03*
G01*
X-494233Y-660730D03*
G01*
X-169214Y-525754D03*
G01*
X190779Y-885748D03*
G01*
X-149021Y-1237742D03*
G01*
X-530021Y-882142D03*
G01*
X155778Y19557D03*
G01*
X-494233Y19557D03*
G01*
X155778Y469569D03*
G01*
X-494233Y469569D03*
G01*
X-169214Y604545D03*
G01*
X190779Y244551D03*
G01*
X-149021Y-107442D03*
G01*
X-530021Y248157D03*
G01*
X1286078Y19557D03*
G01*
X636066Y19557D03*
G01*
X1286078Y469569D03*
G01*
X636066Y469569D03*
G01*
X961085Y604545D03*
G01*
X1321079Y244551D03*
G01*
X981278Y-107442D03*
G01*
X600278Y248157D03*
G01*
X2416378Y19557D03*
G01*
X1766366Y19557D03*
G01*
X2416378Y469569D03*
G01*
X1766366Y469569D03*
G01*
X2091385Y604545D03*
G01*
X2451379Y244551D03*
G01*
X2111578Y-107442D03*
G01*
X1730578Y248157D03*
G01*
X3546678Y19557D03*
G01*
X2896666Y19557D03*
G01*
X3546678Y469569D03*
G01*
X2896666Y469569D03*
G01*
X3221685Y604545D03*
G01*
X3581679Y244551D03*
G01*
X3241878Y-107442D03*
G01*
X2860878Y248157D03*
D16*
G01*
X3031159Y-342900D03*
G01*
X-334340Y685800D03*
G01*
X-334340Y241300D03*
G01*
X402259Y-342900D03*
G01*
X402259Y241300D03*
G01*
X1481759Y-279400D03*
G01*
X1481759Y241300D03*
G01*
X-753440Y-50800D03*
G01*
X-753440Y-279400D03*
G01*
X-689940Y-1193800D03*
G01*
X-689940Y-114300D03*
G01*
X2662859Y660400D03*
G01*
X2662859Y241300D03*
G01*
X3920159Y647700D03*
G01*
X1570659Y-279400D03*
G01*
X1570659Y241300D03*
G01*
X3755059Y203200D03*
G01*
X3755059Y-279400D03*
G01*
X-334340Y-889000D03*
G01*
X1481759Y-889000D03*
G01*
X402259Y-889000D03*
G01*
X1570659Y-889000D03*
G01*
X2662859Y-889000D03*
G01*
X3031159Y-889000D03*
G01*
X0Y-1130300D03*
G01*
X0Y0D03*
G01*
X4136059Y-368300D03*
G01*
X-76Y-406400D03*
G01*
X4136059Y457200D03*
G01*
X3390899Y0D03*
G01*
X3390899Y-1130300D03*
G01*
X3390899Y-1320800D03*
G01*
X4466259Y-1320800D03*
G01*
X2260599Y0D03*
G01*
X2260599Y-1130300D03*
G01*
X1130299Y-1130300D03*
G01*
X1130299Y0D03*
G01*
X4199559Y203200D03*
G01*
X4199559Y698500D03*
G01*
X1130299Y698500D03*
G01*
X4199559Y-50800D03*
G01*
X4199559Y-177800D03*
G01*
X2260599Y-177698D03*
M02*
