G04 Layer: TopSilkscreenLayer*
G04 EasyEDA v6.5.29, 2023-07-18 10:20:05*
G04 5756727701dd48799c60270c1c1368c4,5a6b42c53f6a479593ecc07194224c93,10*
G04 Gerber Generator version 0.2*
G04 Scale: 100 percent, Rotated: No, Reflected: No *
G04 Dimensions in millimeters *
G04 leading zeros omitted , absolute positions ,4 integer and 5 decimal *
%FSLAX45Y45*%
%MOMM*%

%ADD10C,0.2032*%
%ADD11C,0.1524*%
%ADD12C,0.1999*%

%LPD*%
D10*
X-1408973Y-437085D02*
G01*
X-1321597Y-437085D01*
X-1305341Y-442673D01*
X-1299753Y-448007D01*
X-1294419Y-458929D01*
X-1294419Y-469851D01*
X-1299753Y-480773D01*
X-1305341Y-486361D01*
X-1321597Y-491695D01*
X-1332519Y-491695D01*
X-1408973Y-401271D02*
G01*
X-1294419Y-401271D01*
X-1294419Y-401271D02*
G01*
X-1294419Y-335739D01*
X-1381541Y-217883D02*
G01*
X-1392463Y-223217D01*
X-1403385Y-234139D01*
X-1408973Y-245061D01*
X-1408973Y-266905D01*
X-1403385Y-277827D01*
X-1392463Y-288749D01*
X-1381541Y-294337D01*
X-1365285Y-299671D01*
X-1338107Y-299671D01*
X-1321597Y-294337D01*
X-1310675Y-288749D01*
X-1299753Y-277827D01*
X-1294419Y-266905D01*
X-1294419Y-245061D01*
X-1299753Y-234139D01*
X-1310675Y-223217D01*
X-1321597Y-217883D01*
X-1408973Y-127459D02*
G01*
X-1321597Y-127459D01*
X-1305341Y-132793D01*
X-1299753Y-138127D01*
X-1294419Y-149049D01*
X-1294419Y-159971D01*
X-1299753Y-170893D01*
X-1305341Y-176481D01*
X-1321597Y-181815D01*
X-1332519Y-181815D01*
X-1408973Y-91391D02*
G01*
X-1294419Y-91391D01*
X-1294419Y-91391D02*
G01*
X-1294419Y-25859D01*
X-1381541Y91996D02*
G01*
X-1392463Y86408D01*
X-1403385Y75486D01*
X-1408973Y64564D01*
X-1408973Y42974D01*
X-1403385Y32052D01*
X-1392463Y21130D01*
X-1381541Y15542D01*
X-1365285Y10208D01*
X-1338107Y10208D01*
X-1321597Y15542D01*
X-1310675Y21130D01*
X-1299753Y32052D01*
X-1294419Y42974D01*
X-1294419Y64564D01*
X-1299753Y75486D01*
X-1310675Y86408D01*
X-1321597Y91996D01*
X-1408973Y182420D02*
G01*
X-1321597Y182420D01*
X-1305341Y177086D01*
X-1299753Y171498D01*
X-1294419Y160576D01*
X-1294419Y149654D01*
X-1299753Y138732D01*
X-1305341Y133398D01*
X-1321597Y128064D01*
X-1332519Y128064D01*
X-1408973Y218488D02*
G01*
X-1294419Y218488D01*
X-1294419Y218488D02*
G01*
X-1294419Y284020D01*
X-1381541Y401876D02*
G01*
X-1392463Y396288D01*
X-1403385Y385366D01*
X-1408973Y374444D01*
X-1408973Y352600D01*
X-1403385Y341678D01*
X-1392463Y330756D01*
X-1381541Y325422D01*
X-1365285Y319834D01*
X-1338107Y319834D01*
X-1321597Y325422D01*
X-1310675Y330756D01*
X-1299753Y341678D01*
X-1294419Y352600D01*
X-1294419Y374444D01*
X-1299753Y385366D01*
X-1310675Y396288D01*
X-1321597Y401876D01*
X-1408973Y492300D02*
G01*
X-1321597Y492300D01*
X-1305341Y486966D01*
X-1299753Y481378D01*
X-1294419Y470456D01*
X-1294419Y459534D01*
X-1299753Y448612D01*
X-1305341Y443278D01*
X-1321597Y437690D01*
X-1332519Y437690D01*
X-1408973Y528368D02*
G01*
X-1294419Y528368D01*
X-1294419Y528368D02*
G01*
X-1294419Y593646D01*
X-1381541Y711502D02*
G01*
X-1392463Y706168D01*
X-1403385Y695246D01*
X-1408973Y684324D01*
X-1408973Y662480D01*
X-1403385Y651558D01*
X-1392463Y640636D01*
X-1381541Y635302D01*
X-1365285Y629714D01*
X-1338107Y629714D01*
X-1321597Y635302D01*
X-1310675Y640636D01*
X-1299753Y651558D01*
X-1294419Y662480D01*
X-1294419Y684324D01*
X-1299753Y695246D01*
X-1310675Y706168D01*
X-1321597Y711502D01*
D11*
X2626278Y-558543D02*
G01*
X2617388Y-567687D01*
X2612816Y-581403D01*
X2612816Y-599691D01*
X2617388Y-613153D01*
X2626278Y-622297D01*
X2635422Y-622297D01*
X2644566Y-617725D01*
X2649138Y-613153D01*
X2653710Y-604009D01*
X2662854Y-576831D01*
X2667172Y-567687D01*
X2671744Y-563115D01*
X2680888Y-558543D01*
X2694604Y-558543D01*
X2703748Y-567687D01*
X2708320Y-581403D01*
X2708320Y-599691D01*
X2703748Y-613153D01*
X2694604Y-622297D01*
X2630850Y-528571D02*
G01*
X2626278Y-519681D01*
X2612816Y-505965D01*
X2708320Y-505965D01*
X2635422Y-471421D02*
G01*
X2630850Y-471421D01*
X2621960Y-466849D01*
X2617388Y-462277D01*
X2612816Y-453133D01*
X2612816Y-435099D01*
X2617388Y-425955D01*
X2621960Y-421383D01*
X2630850Y-416811D01*
X2639994Y-416811D01*
X2649138Y-421383D01*
X2662854Y-430527D01*
X2708320Y-475993D01*
X2708320Y-412239D01*
X1495973Y-558543D02*
G01*
X1487088Y-567687D01*
X1482511Y-581403D01*
X1482511Y-599691D01*
X1487088Y-613153D01*
X1495973Y-622297D01*
X1505122Y-622297D01*
X1514261Y-617725D01*
X1518838Y-613153D01*
X1523408Y-604009D01*
X1532554Y-576831D01*
X1536872Y-567687D01*
X1541439Y-563115D01*
X1550588Y-558543D01*
X1564304Y-558543D01*
X1573443Y-567687D01*
X1578020Y-581403D01*
X1578020Y-599691D01*
X1573443Y-613153D01*
X1564304Y-622297D01*
X1500545Y-528571D02*
G01*
X1495973Y-519681D01*
X1482511Y-505965D01*
X1578020Y-505965D01*
X1500545Y-475993D02*
G01*
X1495973Y-466849D01*
X1482511Y-453133D01*
X1578020Y-453133D01*
X365676Y-558545D02*
G01*
X356786Y-567689D01*
X352214Y-581405D01*
X352214Y-599694D01*
X356786Y-613155D01*
X365676Y-622300D01*
X374820Y-622300D01*
X383964Y-617728D01*
X388536Y-613155D01*
X393108Y-604012D01*
X402252Y-576834D01*
X406570Y-567689D01*
X411142Y-563118D01*
X420286Y-558545D01*
X434002Y-558545D01*
X443146Y-567689D01*
X447718Y-581405D01*
X447718Y-599694D01*
X443146Y-613155D01*
X434002Y-622300D01*
X370248Y-528573D02*
G01*
X365676Y-519684D01*
X352214Y-505968D01*
X447718Y-505968D01*
X352214Y-448563D02*
G01*
X356786Y-462279D01*
X370248Y-471423D01*
X393108Y-475995D01*
X406570Y-475995D01*
X429430Y-471423D01*
X443146Y-462279D01*
X447718Y-448563D01*
X447718Y-439673D01*
X443146Y-425957D01*
X429430Y-416813D01*
X406570Y-412242D01*
X393108Y-412242D01*
X370248Y-416813D01*
X356786Y-425957D01*
X352214Y-439673D01*
X352214Y-448563D01*
X-764623Y-507745D02*
G01*
X-773513Y-516889D01*
X-778085Y-530605D01*
X-778085Y-548894D01*
X-773513Y-562355D01*
X-764623Y-571500D01*
X-755479Y-571500D01*
X-746335Y-566928D01*
X-741763Y-562355D01*
X-737191Y-553212D01*
X-728047Y-526034D01*
X-723729Y-516889D01*
X-719157Y-512318D01*
X-710013Y-507745D01*
X-696297Y-507745D01*
X-687153Y-516889D01*
X-682581Y-530605D01*
X-682581Y-548894D01*
X-687153Y-562355D01*
X-696297Y-571500D01*
X-746335Y-418845D02*
G01*
X-732619Y-423418D01*
X-723729Y-432307D01*
X-719157Y-446023D01*
X-719157Y-450595D01*
X-723729Y-464312D01*
X-732619Y-473202D01*
X-746335Y-477773D01*
X-750907Y-477773D01*
X-764623Y-473202D01*
X-773513Y-464312D01*
X-778085Y-450595D01*
X-778085Y-446023D01*
X-773513Y-432307D01*
X-764623Y-423418D01*
X-746335Y-418845D01*
X-723729Y-418845D01*
X-700869Y-423418D01*
X-687153Y-432307D01*
X-682581Y-446023D01*
X-682581Y-455168D01*
X-687153Y-468884D01*
X-696297Y-473202D01*
X-764608Y622401D02*
G01*
X-773498Y613257D01*
X-778070Y599795D01*
X-778070Y581507D01*
X-773498Y567791D01*
X-764608Y558901D01*
X-755464Y558901D01*
X-746320Y563219D01*
X-741748Y567791D01*
X-737176Y576935D01*
X-728032Y604367D01*
X-723714Y613257D01*
X-719142Y617829D01*
X-709998Y622401D01*
X-696282Y622401D01*
X-687138Y613257D01*
X-682820Y599795D01*
X-682820Y581507D01*
X-687138Y567791D01*
X-696282Y558901D01*
X-778070Y706983D02*
G01*
X-778070Y661517D01*
X-737176Y656945D01*
X-741748Y661517D01*
X-746320Y675233D01*
X-746320Y688695D01*
X-741748Y702411D01*
X-732604Y711555D01*
X-719142Y716127D01*
X-709998Y716127D01*
X-696282Y711555D01*
X-687138Y702411D01*
X-682820Y688695D01*
X-682820Y675233D01*
X-687138Y661517D01*
X-691710Y656945D01*
X-700854Y652373D01*
X365673Y622551D02*
G01*
X356783Y613407D01*
X352211Y599691D01*
X352211Y581403D01*
X356783Y567941D01*
X365673Y558797D01*
X374817Y558797D01*
X383961Y563369D01*
X388533Y567941D01*
X393105Y577085D01*
X402249Y604263D01*
X406567Y613407D01*
X411139Y617979D01*
X420283Y622551D01*
X433999Y622551D01*
X443143Y613407D01*
X447715Y599691D01*
X447715Y581403D01*
X443143Y567941D01*
X433999Y558797D01*
X365673Y706879D02*
G01*
X356783Y702307D01*
X352211Y688845D01*
X352211Y679701D01*
X356783Y665985D01*
X370245Y657095D01*
X393105Y652523D01*
X415711Y652523D01*
X433999Y657095D01*
X443143Y665985D01*
X447715Y679701D01*
X447715Y684273D01*
X443143Y697989D01*
X433999Y706879D01*
X420283Y711451D01*
X415711Y711451D01*
X402249Y706879D01*
X393105Y697989D01*
X388533Y684273D01*
X388533Y679701D01*
X393105Y665985D01*
X402249Y657095D01*
X415711Y652523D01*
X1495973Y622554D02*
G01*
X1487081Y613410D01*
X1482509Y599694D01*
X1482509Y581405D01*
X1487081Y567944D01*
X1495973Y558800D01*
X1505115Y558800D01*
X1514259Y563371D01*
X1518831Y567944D01*
X1523405Y577087D01*
X1532547Y604265D01*
X1536865Y613410D01*
X1541439Y617981D01*
X1550581Y622554D01*
X1564297Y622554D01*
X1573441Y613410D01*
X1578013Y599694D01*
X1578013Y581405D01*
X1573441Y567944D01*
X1564297Y558800D01*
X1482509Y716026D02*
G01*
X1578013Y670560D01*
X1482509Y652526D02*
G01*
X1482509Y716026D01*
X2626271Y622554D02*
G01*
X2617381Y613410D01*
X2612809Y599694D01*
X2612809Y581405D01*
X2617381Y567944D01*
X2626271Y558800D01*
X2635415Y558800D01*
X2644559Y563371D01*
X2649131Y567944D01*
X2653703Y577087D01*
X2662847Y604265D01*
X2667165Y613410D01*
X2671737Y617981D01*
X2680881Y622554D01*
X2694597Y622554D01*
X2703741Y613410D01*
X2708313Y599694D01*
X2708313Y581405D01*
X2703741Y567944D01*
X2694597Y558800D01*
X2612809Y675131D02*
G01*
X2617381Y661415D01*
X2626271Y657097D01*
X2635415Y657097D01*
X2644559Y661415D01*
X2649131Y670560D01*
X2653703Y688847D01*
X2658275Y702310D01*
X2667165Y711454D01*
X2676309Y716026D01*
X2690025Y716026D01*
X2699169Y711454D01*
X2703741Y706881D01*
X2708313Y693420D01*
X2708313Y675131D01*
X2703741Y661415D01*
X2699169Y657097D01*
X2690025Y652526D01*
X2676309Y652526D01*
X2667165Y657097D01*
X2658275Y665987D01*
X2653703Y679704D01*
X2649131Y697992D01*
X2644559Y706881D01*
X2635415Y711454D01*
X2626271Y711454D01*
X2617381Y706881D01*
X2612809Y693420D01*
X2612809Y675131D01*
D12*
X2721676Y-385813D02*
G01*
X2721676Y-1385811D01*
X3721674Y-1385811D01*
X3721674Y-385813D01*
X2721676Y-385813D01*
X1591376Y-385813D02*
G01*
X1591376Y-1385811D01*
X2591374Y-1385811D01*
X2591374Y-385813D01*
X1591376Y-385813D01*
X461078Y-385813D02*
G01*
X461078Y-1385811D01*
X1461076Y-1385811D01*
X1461076Y-385813D01*
X461078Y-385813D01*
X-669218Y-385813D02*
G01*
X-669218Y-1385811D01*
X330779Y-1385811D01*
X330779Y-385813D01*
X-669218Y-385813D01*
X-669218Y744484D02*
G01*
X-669218Y-255513D01*
X330779Y-255513D01*
X330779Y744484D01*
X-669218Y744484D01*
X461081Y744484D02*
G01*
X461081Y-255513D01*
X1461079Y-255513D01*
X1461079Y744484D01*
X461081Y744484D01*
X1591381Y744484D02*
G01*
X1591381Y-255513D01*
X2591379Y-255513D01*
X2591379Y744484D01*
X1591381Y744484D01*
X2721678Y744484D02*
G01*
X2721678Y-255513D01*
X3721676Y-255513D01*
X3721676Y744484D01*
X2721678Y744484D01*
M02*
