G04 Layer: TopSilkscreenLayer*
G04 EasyEDA v6.5.29, 2023-07-18 11:37:26*
G04 44a429887d2946ba859a18da238e0ce0,5a6b42c53f6a479593ecc07194224c93,10*
G04 Gerber Generator version 0.2*
G04 Scale: 100 percent, Rotated: No, Reflected: No *
G04 Dimensions in millimeters *
G04 leading zeros omitted , absolute positions ,4 integer and 5 decimal *
%FSLAX45Y45*%
%MOMM*%

%ADD10C,0.2032*%
%ADD11C,0.1524*%
%ADD12C,0.2540*%
%ADD13C,0.2030*%
%ADD14C,0.1270*%
%ADD15C,0.2000*%
%ADD16C,0.0122*%

%LPD*%
D10*
X317500Y11843258D02*
G01*
X317500Y11728704D01*
X317500Y11843258D02*
G01*
X361187Y11728704D01*
X404876Y11843258D02*
G01*
X361187Y11728704D01*
X404876Y11843258D02*
G01*
X404876Y11728704D01*
X538987Y11865102D02*
G01*
X440689Y11690350D01*
X575055Y11843258D02*
G01*
X575055Y11728704D01*
X575055Y11843258D02*
G01*
X645921Y11843258D01*
X575055Y11788647D02*
G01*
X618489Y11788647D01*
X575055Y11728704D02*
G01*
X645921Y11728704D01*
X765809Y11843258D02*
G01*
X765809Y11728704D01*
X765809Y11843258D02*
G01*
X814831Y11843258D01*
X831341Y11837670D01*
X836675Y11832336D01*
X842263Y11821413D01*
X842263Y11804904D01*
X836675Y11793981D01*
X831341Y11788647D01*
X814831Y11783313D01*
X765809Y11783313D01*
X910843Y11843258D02*
G01*
X899922Y11837670D01*
X889254Y11826747D01*
X883665Y11815826D01*
X878331Y11799570D01*
X878331Y11772392D01*
X883665Y11755881D01*
X889254Y11744960D01*
X899922Y11734037D01*
X910843Y11728704D01*
X932688Y11728704D01*
X943609Y11734037D01*
X954531Y11744960D01*
X960120Y11755881D01*
X965454Y11772392D01*
X965454Y11799570D01*
X960120Y11815826D01*
X954531Y11826747D01*
X943609Y11837670D01*
X932688Y11843258D01*
X910843Y11843258D01*
X1001522Y11843258D02*
G01*
X1028700Y11728704D01*
X1056131Y11843258D02*
G01*
X1028700Y11728704D01*
X1056131Y11843258D02*
G01*
X1083309Y11728704D01*
X1110488Y11843258D02*
G01*
X1083309Y11728704D01*
X1146556Y11843258D02*
G01*
X1146556Y11728704D01*
X1146556Y11843258D02*
G01*
X1217422Y11843258D01*
X1146556Y11788647D02*
G01*
X1190243Y11788647D01*
X1146556Y11728704D02*
G01*
X1217422Y11728704D01*
X1253490Y11843258D02*
G01*
X1253490Y11728704D01*
X1253490Y11843258D02*
G01*
X1302511Y11843258D01*
X1319022Y11837670D01*
X1324356Y11832336D01*
X1329943Y11821413D01*
X1329943Y11810492D01*
X1324356Y11799570D01*
X1319022Y11793981D01*
X1302511Y11788647D01*
X1253490Y11788647D01*
X1291590Y11788647D02*
G01*
X1329943Y11728704D01*
X1449831Y11843258D02*
G01*
X1449831Y11728704D01*
X1449831Y11843258D02*
G01*
X1498854Y11843258D01*
X1515363Y11837670D01*
X1520697Y11832336D01*
X1526286Y11821413D01*
X1526286Y11804904D01*
X1520697Y11793981D01*
X1515363Y11788647D01*
X1498854Y11783313D01*
X1449831Y11783313D01*
X1562100Y11843258D02*
G01*
X1562100Y11728704D01*
X1562100Y11843258D02*
G01*
X1611375Y11843258D01*
X1627631Y11837670D01*
X1633220Y11832336D01*
X1638554Y11821413D01*
X1638554Y11810492D01*
X1633220Y11799570D01*
X1627631Y11793981D01*
X1611375Y11788647D01*
X1562100Y11788647D01*
X1600454Y11788647D02*
G01*
X1638554Y11728704D01*
X1707388Y11843258D02*
G01*
X1696465Y11837670D01*
X1685543Y11826747D01*
X1679956Y11815826D01*
X1674622Y11799570D01*
X1674622Y11772392D01*
X1679956Y11755881D01*
X1685543Y11744960D01*
X1696465Y11734037D01*
X1707388Y11728704D01*
X1729231Y11728704D01*
X1740154Y11734037D01*
X1751075Y11744960D01*
X1756409Y11755881D01*
X1761743Y11772392D01*
X1761743Y11799570D01*
X1756409Y11815826D01*
X1751075Y11826747D01*
X1740154Y11837670D01*
X1729231Y11843258D01*
X1707388Y11843258D01*
X1879600Y11815826D02*
G01*
X1874265Y11826747D01*
X1863343Y11837670D01*
X1852422Y11843258D01*
X1830577Y11843258D01*
X1819656Y11837670D01*
X1808734Y11826747D01*
X1803400Y11815826D01*
X1797811Y11799570D01*
X1797811Y11772392D01*
X1803400Y11755881D01*
X1808734Y11744960D01*
X1819656Y11734037D01*
X1830577Y11728704D01*
X1852422Y11728704D01*
X1863343Y11734037D01*
X1874265Y11744960D01*
X1879600Y11755881D01*
X1915668Y11843258D02*
G01*
X1915668Y11728704D01*
X1915668Y11843258D02*
G01*
X1986534Y11843258D01*
X1915668Y11788647D02*
G01*
X1959356Y11788647D01*
X1915668Y11728704D02*
G01*
X1986534Y11728704D01*
X2099056Y11826747D02*
G01*
X2088134Y11837670D01*
X2071624Y11843258D01*
X2049779Y11843258D01*
X2033524Y11837670D01*
X2022602Y11826747D01*
X2022602Y11815826D01*
X2027936Y11804904D01*
X2033524Y11799570D01*
X2044445Y11793981D01*
X2077211Y11783313D01*
X2088134Y11777726D01*
X2093468Y11772392D01*
X2099056Y11761470D01*
X2099056Y11744960D01*
X2088134Y11734037D01*
X2071624Y11728704D01*
X2049779Y11728704D01*
X2033524Y11734037D01*
X2022602Y11744960D01*
X2211324Y11826747D02*
G01*
X2200402Y11837670D01*
X2184145Y11843258D01*
X2162302Y11843258D01*
X2145791Y11837670D01*
X2134870Y11826747D01*
X2134870Y11815826D01*
X2140458Y11804904D01*
X2145791Y11799570D01*
X2156713Y11793981D01*
X2189479Y11783313D01*
X2200402Y11777726D01*
X2205736Y11772392D01*
X2211324Y11761470D01*
X2211324Y11744960D01*
X2200402Y11734037D01*
X2184145Y11728704D01*
X2162302Y11728704D01*
X2145791Y11734037D01*
X2134870Y11744960D01*
X2280158Y11843258D02*
G01*
X2269236Y11837670D01*
X2258313Y11826747D01*
X2252725Y11815826D01*
X2247391Y11799570D01*
X2247391Y11772392D01*
X2252725Y11755881D01*
X2258313Y11744960D01*
X2269236Y11734037D01*
X2280158Y11728704D01*
X2301747Y11728704D01*
X2312670Y11734037D01*
X2323591Y11744960D01*
X2329179Y11755881D01*
X2334513Y11772392D01*
X2334513Y11799570D01*
X2329179Y11815826D01*
X2323591Y11826747D01*
X2312670Y11837670D01*
X2301747Y11843258D01*
X2280158Y11843258D01*
X2370581Y11843258D02*
G01*
X2370581Y11728704D01*
X2370581Y11843258D02*
G01*
X2419604Y11843258D01*
X2436113Y11837670D01*
X2441447Y11832336D01*
X2447036Y11821413D01*
X2447036Y11810492D01*
X2441447Y11799570D01*
X2436113Y11793981D01*
X2419604Y11788647D01*
X2370581Y11788647D01*
X2408681Y11788647D02*
G01*
X2447036Y11728704D01*
X2566924Y11843258D02*
G01*
X2566924Y11728704D01*
X2566924Y11843258D02*
G01*
X2615945Y11843258D01*
X2632456Y11837670D01*
X2637790Y11832336D01*
X2643377Y11821413D01*
X2643377Y11810492D01*
X2637790Y11799570D01*
X2632456Y11793981D01*
X2615945Y11788647D01*
X2566924Y11788647D02*
G01*
X2615945Y11788647D01*
X2632456Y11783313D01*
X2637790Y11777726D01*
X2643377Y11766804D01*
X2643377Y11750547D01*
X2637790Y11739626D01*
X2632456Y11734037D01*
X2615945Y11728704D01*
X2566924Y11728704D01*
X2711958Y11843258D02*
G01*
X2701036Y11837670D01*
X2690113Y11826747D01*
X2684779Y11815826D01*
X2679191Y11799570D01*
X2679191Y11772392D01*
X2684779Y11755881D01*
X2690113Y11744960D01*
X2701036Y11734037D01*
X2711958Y11728704D01*
X2733802Y11728704D01*
X2744724Y11734037D01*
X2755645Y11744960D01*
X2761234Y11755881D01*
X2766568Y11772392D01*
X2766568Y11799570D01*
X2761234Y11815826D01*
X2755645Y11826747D01*
X2744724Y11837670D01*
X2733802Y11843258D01*
X2711958Y11843258D01*
X2846324Y11843258D02*
G01*
X2802636Y11728704D01*
X2846324Y11843258D02*
G01*
X2889758Y11728704D01*
X2818891Y11766804D02*
G01*
X2873502Y11766804D01*
X2925825Y11843258D02*
G01*
X2925825Y11728704D01*
X2925825Y11843258D02*
G01*
X2974847Y11843258D01*
X2991358Y11837670D01*
X2996691Y11832336D01*
X3002279Y11821413D01*
X3002279Y11810492D01*
X2996691Y11799570D01*
X2991358Y11793981D01*
X2974847Y11788647D01*
X2925825Y11788647D01*
X2963925Y11788647D02*
G01*
X3002279Y11728704D01*
X3038347Y11843258D02*
G01*
X3038347Y11728704D01*
X3038347Y11843258D02*
G01*
X3076447Y11843258D01*
X3092704Y11837670D01*
X3103625Y11826747D01*
X3109213Y11815826D01*
X3114547Y11799570D01*
X3114547Y11772392D01*
X3109213Y11755881D01*
X3103625Y11744960D01*
X3092704Y11734037D01*
X3076447Y11728704D01*
X3038347Y11728704D01*
X3234690Y11777726D02*
G01*
X3332734Y11777726D01*
X3490975Y11843258D02*
G01*
X3490975Y11728704D01*
X3452875Y11843258D02*
G01*
X3529075Y11843258D01*
X3597909Y11843258D02*
G01*
X3586988Y11837670D01*
X3576065Y11826747D01*
X3570477Y11815826D01*
X3565143Y11799570D01*
X3565143Y11772392D01*
X3570477Y11755881D01*
X3576065Y11744960D01*
X3586988Y11734037D01*
X3597909Y11728704D01*
X3619754Y11728704D01*
X3630675Y11734037D01*
X3641597Y11744960D01*
X3646931Y11755881D01*
X3652520Y11772392D01*
X3652520Y11799570D01*
X3646931Y11815826D01*
X3641597Y11826747D01*
X3630675Y11837670D01*
X3619754Y11843258D01*
X3597909Y11843258D01*
X3688334Y11843258D02*
G01*
X3688334Y11728704D01*
X3688334Y11843258D02*
G01*
X3737609Y11843258D01*
X3753865Y11837670D01*
X3759200Y11832336D01*
X3764788Y11821413D01*
X3764788Y11804904D01*
X3759200Y11793981D01*
X3753865Y11788647D01*
X3737609Y11783313D01*
X3688334Y11783313D01*
X711200Y11652758D02*
G01*
X711200Y11538204D01*
X711200Y11652758D02*
G01*
X760222Y11652758D01*
X776731Y11647170D01*
X782065Y11641836D01*
X787654Y11630913D01*
X787654Y11614404D01*
X782065Y11603481D01*
X776731Y11598147D01*
X760222Y11592813D01*
X711200Y11592813D01*
X867156Y11652758D02*
G01*
X823468Y11538204D01*
X867156Y11652758D02*
G01*
X910843Y11538204D01*
X839977Y11576304D02*
G01*
X894588Y11576304D01*
X946911Y11652758D02*
G01*
X946911Y11538204D01*
X946911Y11652758D02*
G01*
X995934Y11652758D01*
X1012190Y11647170D01*
X1017777Y11641836D01*
X1023111Y11630913D01*
X1023111Y11619992D01*
X1017777Y11609070D01*
X1012190Y11603481D01*
X995934Y11598147D01*
X946911Y11598147D01*
X985011Y11598147D02*
G01*
X1023111Y11538204D01*
X1097279Y11652758D02*
G01*
X1097279Y11538204D01*
X1059179Y11652758D02*
G01*
X1135634Y11652758D01*
X1255522Y11652758D02*
G01*
X1255522Y11538204D01*
X1255522Y11652758D02*
G01*
X1331975Y11538204D01*
X1331975Y11652758D02*
G01*
X1331975Y11538204D01*
X1368043Y11652758D02*
G01*
X1368043Y11570970D01*
X1373377Y11554460D01*
X1384300Y11543537D01*
X1400556Y11538204D01*
X1411477Y11538204D01*
X1427988Y11543537D01*
X1438909Y11554460D01*
X1444243Y11570970D01*
X1444243Y11652758D01*
X1480311Y11652758D02*
G01*
X1480311Y11538204D01*
X1480311Y11652758D02*
G01*
X1524000Y11538204D01*
X1567688Y11652758D02*
G01*
X1524000Y11538204D01*
X1567688Y11652758D02*
G01*
X1567688Y11538204D01*
X1603502Y11652758D02*
G01*
X1603502Y11538204D01*
X1603502Y11652758D02*
G01*
X1652777Y11652758D01*
X1669034Y11647170D01*
X1674368Y11641836D01*
X1679956Y11630913D01*
X1679956Y11619992D01*
X1674368Y11609070D01*
X1669034Y11603481D01*
X1652777Y11598147D01*
X1603502Y11598147D02*
G01*
X1652777Y11598147D01*
X1669034Y11592813D01*
X1674368Y11587226D01*
X1679956Y11576304D01*
X1679956Y11560047D01*
X1674368Y11549126D01*
X1669034Y11543537D01*
X1652777Y11538204D01*
X1603502Y11538204D01*
X1716024Y11652758D02*
G01*
X1716024Y11538204D01*
X1716024Y11652758D02*
G01*
X1786890Y11652758D01*
X1716024Y11598147D02*
G01*
X1759458Y11598147D01*
X1716024Y11538204D02*
G01*
X1786890Y11538204D01*
X1822958Y11652758D02*
G01*
X1822958Y11538204D01*
X1822958Y11652758D02*
G01*
X1871979Y11652758D01*
X1888236Y11647170D01*
X1893824Y11641836D01*
X1899158Y11630913D01*
X1899158Y11619992D01*
X1893824Y11609070D01*
X1888236Y11603481D01*
X1871979Y11598147D01*
X1822958Y11598147D01*
X1861058Y11598147D02*
G01*
X1899158Y11538204D01*
X2024634Y11625326D02*
G01*
X2024634Y11630913D01*
X2030222Y11641836D01*
X2035556Y11647170D01*
X2046477Y11652758D01*
X2068322Y11652758D01*
X2079243Y11647170D01*
X2084577Y11641836D01*
X2090165Y11630913D01*
X2090165Y11619992D01*
X2084577Y11609070D01*
X2073656Y11592813D01*
X2019300Y11538204D01*
X2095500Y11538204D01*
X2158745Y11652758D02*
G01*
X2142490Y11647170D01*
X2136902Y11636247D01*
X2136902Y11625326D01*
X2142490Y11614404D01*
X2153411Y11609070D01*
X2175256Y11603481D01*
X2191511Y11598147D01*
X2202434Y11587226D01*
X2208022Y11576304D01*
X2208022Y11560047D01*
X2202434Y11549126D01*
X2197100Y11543537D01*
X2180590Y11538204D01*
X2158745Y11538204D01*
X2142490Y11543537D01*
X2136902Y11549126D01*
X2131568Y11560047D01*
X2131568Y11576304D01*
X2136902Y11587226D01*
X2147824Y11598147D01*
X2164334Y11603481D01*
X2186177Y11609070D01*
X2197100Y11614404D01*
X2202434Y11625326D01*
X2202434Y11636247D01*
X2197100Y11647170D01*
X2180590Y11652758D01*
X2158745Y11652758D01*
X2314956Y11614404D02*
G01*
X2309368Y11598147D01*
X2298445Y11587226D01*
X2282190Y11581892D01*
X2276602Y11581892D01*
X2260345Y11587226D01*
X2249424Y11598147D01*
X2243836Y11614404D01*
X2243836Y11619992D01*
X2249424Y11636247D01*
X2260345Y11647170D01*
X2276602Y11652758D01*
X2282190Y11652758D01*
X2298445Y11647170D01*
X2309368Y11636247D01*
X2314956Y11614404D01*
X2314956Y11587226D01*
X2309368Y11560047D01*
X2298445Y11543537D01*
X2282190Y11538204D01*
X2271268Y11538204D01*
X2254758Y11543537D01*
X2249424Y11554460D01*
X2383536Y11652758D02*
G01*
X2367279Y11647170D01*
X2356358Y11630913D01*
X2350770Y11603481D01*
X2350770Y11587226D01*
X2356358Y11560047D01*
X2367279Y11543537D01*
X2383536Y11538204D01*
X2394458Y11538204D01*
X2410713Y11543537D01*
X2421636Y11560047D01*
X2427224Y11587226D01*
X2427224Y11603481D01*
X2421636Y11630913D01*
X2410713Y11647170D01*
X2394458Y11652758D01*
X2383536Y11652758D01*
X2463291Y11587226D02*
G01*
X2561336Y11587226D01*
X2630170Y11652758D02*
G01*
X2613659Y11647170D01*
X2602738Y11630913D01*
X2597404Y11603481D01*
X2597404Y11587226D01*
X2602738Y11560047D01*
X2613659Y11543537D01*
X2630170Y11538204D01*
X2641091Y11538204D01*
X2657347Y11543537D01*
X2668270Y11560047D01*
X2673858Y11587226D01*
X2673858Y11603481D01*
X2668270Y11630913D01*
X2657347Y11647170D01*
X2641091Y11652758D01*
X2630170Y11652758D01*
X2764281Y11652758D02*
G01*
X2709672Y11576304D01*
X2791459Y11576304D01*
X2764281Y11652758D02*
G01*
X2764281Y11538204D01*
X2860293Y11652758D02*
G01*
X2844038Y11647170D01*
X2833115Y11630913D01*
X2827527Y11603481D01*
X2827527Y11587226D01*
X2833115Y11560047D01*
X2844038Y11543537D01*
X2860293Y11538204D01*
X2871215Y11538204D01*
X2887472Y11543537D01*
X2898393Y11560047D01*
X2903981Y11587226D01*
X2903981Y11603481D01*
X2898393Y11630913D01*
X2887472Y11647170D01*
X2871215Y11652758D01*
X2860293Y11652758D01*
X2939795Y11630913D02*
G01*
X2950718Y11636247D01*
X2967227Y11652758D01*
X2967227Y11538204D01*
X3087115Y11652758D02*
G01*
X3130804Y11538204D01*
X3174491Y11652758D02*
G01*
X3130804Y11538204D01*
X3243072Y11652758D02*
G01*
X3226815Y11647170D01*
X3215893Y11630913D01*
X3210559Y11603481D01*
X3210559Y11587226D01*
X3215893Y11560047D01*
X3226815Y11543537D01*
X3243072Y11538204D01*
X3253993Y11538204D01*
X3270504Y11543537D01*
X3281425Y11560047D01*
X3286759Y11587226D01*
X3286759Y11603481D01*
X3281425Y11630913D01*
X3270504Y11647170D01*
X3253993Y11652758D01*
X3243072Y11652758D01*
X3328161Y11565381D02*
G01*
X3322827Y11560047D01*
X3328161Y11554460D01*
X3333750Y11560047D01*
X3328161Y11565381D01*
X3369818Y11630913D02*
G01*
X3380740Y11636247D01*
X3396995Y11652758D01*
X3396995Y11538204D01*
D11*
X698756Y7910367D02*
G01*
X689612Y7919511D01*
X675896Y7924083D01*
X657608Y7924083D01*
X644146Y7919511D01*
X635002Y7910367D01*
X635002Y7901477D01*
X639574Y7892333D01*
X644146Y7887761D01*
X653290Y7883189D01*
X680468Y7874045D01*
X689612Y7869473D01*
X694184Y7864901D01*
X698756Y7856011D01*
X698756Y7842295D01*
X689612Y7833151D01*
X675896Y7828579D01*
X657608Y7828579D01*
X644146Y7833151D01*
X635002Y7842295D01*
X728728Y7924083D02*
G01*
X751334Y7828579D01*
X774194Y7924083D02*
G01*
X751334Y7828579D01*
X774194Y7924083D02*
G01*
X796800Y7828579D01*
X819660Y7924083D02*
G01*
X796800Y7828579D01*
X849632Y7924083D02*
G01*
X849632Y7828579D01*
X849632Y7924083D02*
G01*
X881382Y7924083D01*
X895098Y7919511D01*
X903988Y7910367D01*
X908560Y7901477D01*
X913132Y7887761D01*
X913132Y7864901D01*
X908560Y7851439D01*
X903988Y7842295D01*
X895098Y7833151D01*
X881382Y7828579D01*
X849632Y7828579D01*
X635000Y7314437D02*
G01*
X635000Y7246365D01*
X639571Y7232650D01*
X648715Y7223505D01*
X662177Y7218934D01*
X671322Y7218934D01*
X685038Y7223505D01*
X694181Y7232650D01*
X698754Y7246365D01*
X698754Y7314437D01*
X765047Y7314437D02*
G01*
X728725Y7218934D01*
X765047Y7314437D02*
G01*
X801370Y7218934D01*
X742188Y7250937D02*
G01*
X787654Y7250937D01*
X831341Y7314437D02*
G01*
X831341Y7218934D01*
X831341Y7314437D02*
G01*
X872236Y7314437D01*
X885952Y7309865D01*
X890524Y7305294D01*
X895095Y7296404D01*
X895095Y7287260D01*
X890524Y7278115D01*
X885952Y7273544D01*
X872236Y7268971D01*
X831341Y7268971D01*
X863091Y7268971D02*
G01*
X895095Y7218934D01*
X956818Y7314437D02*
G01*
X956818Y7218934D01*
X925068Y7314437D02*
G01*
X988568Y7314437D01*
X1854200Y10413237D02*
G01*
X1854200Y10317734D01*
X1854200Y10413237D02*
G01*
X1890522Y10317734D01*
X1926843Y10413237D02*
G01*
X1890522Y10317734D01*
X1926843Y10413237D02*
G01*
X1926843Y10317734D01*
X1956815Y10413237D02*
G01*
X1956815Y10317734D01*
X2055113Y10390631D02*
G01*
X2050541Y10399776D01*
X2041397Y10408665D01*
X2032508Y10413237D01*
X2014220Y10413237D01*
X2005075Y10408665D01*
X1995931Y10399776D01*
X1991359Y10390631D01*
X1987041Y10376915D01*
X1987041Y10354310D01*
X1991359Y10340594D01*
X1995931Y10331450D01*
X2005075Y10322305D01*
X2014220Y10317734D01*
X2032508Y10317734D01*
X2041397Y10322305D01*
X2050541Y10331450D01*
X2055113Y10340594D01*
X2089658Y10390631D02*
G01*
X2089658Y10395204D01*
X2094229Y10404094D01*
X2098802Y10408665D01*
X2107945Y10413237D01*
X2125979Y10413237D01*
X2135124Y10408665D01*
X2139695Y10404094D01*
X2144268Y10395204D01*
X2144268Y10386060D01*
X2139695Y10376915D01*
X2130552Y10363200D01*
X2085086Y10317734D01*
X2148840Y10317734D01*
X2233168Y10413237D02*
G01*
X2187956Y10413237D01*
X2183384Y10372344D01*
X2187956Y10376915D01*
X2201418Y10381487D01*
X2215134Y10381487D01*
X2228850Y10376915D01*
X2237740Y10367771D01*
X2242311Y10354310D01*
X2242311Y10345165D01*
X2237740Y10331450D01*
X2228850Y10322305D01*
X2215134Y10317734D01*
X2201418Y10317734D01*
X2187956Y10322305D01*
X2183384Y10326878D01*
X2178811Y10336021D01*
X2317750Y10413237D02*
G01*
X2272284Y10349737D01*
X2340609Y10349737D01*
X2317750Y10413237D02*
G01*
X2317750Y10317734D01*
X2416047Y10413237D02*
G01*
X2370581Y10349737D01*
X2438654Y10349737D01*
X2416047Y10413237D02*
G01*
X2416047Y10317734D01*
X2468625Y10358881D02*
G01*
X2550668Y10358881D01*
X2580640Y10395204D02*
G01*
X2589529Y10399776D01*
X2603245Y10413237D01*
X2603245Y10317734D01*
X2633218Y10413237D02*
G01*
X2669540Y10367771D01*
X2669540Y10317734D01*
X2706115Y10413237D02*
G01*
X2669540Y10367771D01*
X2736088Y10413237D02*
G01*
X2736088Y10317734D01*
X2736088Y10413237D02*
G01*
X2772409Y10317734D01*
X2808731Y10413237D02*
G01*
X2772409Y10317734D01*
X2808731Y10413237D02*
G01*
X2808731Y10317734D01*
X1231823Y8089137D02*
G01*
X1231823Y7993634D01*
X1231823Y8089137D02*
G01*
X1272717Y8089137D01*
X1286433Y8084565D01*
X1291005Y8079994D01*
X1295577Y8071104D01*
X1295577Y8061960D01*
X1291005Y8052815D01*
X1286433Y8048244D01*
X1272717Y8043671D01*
X1231823Y8043671D01*
X1263827Y8043671D02*
G01*
X1295577Y7993634D01*
X1325549Y8089137D02*
G01*
X1325549Y7993634D01*
X1325549Y8089137D02*
G01*
X1366443Y8089137D01*
X1380159Y8084565D01*
X1384731Y8079994D01*
X1389049Y8071104D01*
X1389049Y8057387D01*
X1384731Y8048244D01*
X1380159Y8043671D01*
X1366443Y8039100D01*
X1325549Y8039100D01*
X1423593Y8066531D02*
G01*
X1423593Y8071104D01*
X1428165Y8079994D01*
X1432737Y8084565D01*
X1441881Y8089137D01*
X1460169Y8089137D01*
X1469059Y8084565D01*
X1473631Y8079994D01*
X1478203Y8071104D01*
X1478203Y8061960D01*
X1473631Y8052815D01*
X1464741Y8039100D01*
X1419275Y7993634D01*
X1482775Y7993634D01*
X1540179Y8089137D02*
G01*
X1526463Y8084565D01*
X1517319Y8071104D01*
X1512747Y8048244D01*
X1512747Y8034781D01*
X1517319Y8011921D01*
X1526463Y7998205D01*
X1540179Y7993634D01*
X1549069Y7993634D01*
X1562785Y7998205D01*
X1571929Y8011921D01*
X1576501Y8034781D01*
X1576501Y8048244D01*
X1571929Y8071104D01*
X1562785Y8084565D01*
X1549069Y8089137D01*
X1540179Y8089137D01*
X1651939Y8089137D02*
G01*
X1606473Y8025637D01*
X1674545Y8025637D01*
X1651939Y8089137D02*
G01*
X1651939Y7993634D01*
X1731949Y8089137D02*
G01*
X1718233Y8084565D01*
X1709089Y8071104D01*
X1704517Y8048244D01*
X1704517Y8034781D01*
X1709089Y8011921D01*
X1718233Y7998205D01*
X1731949Y7993634D01*
X1741093Y7993634D01*
X1754555Y7998205D01*
X1763699Y8011921D01*
X1768271Y8034781D01*
X1768271Y8048244D01*
X1763699Y8071104D01*
X1754555Y8084565D01*
X1741093Y8089137D01*
X1731949Y8089137D01*
X1854200Y10552937D02*
G01*
X1854200Y10457434D01*
X1854200Y10552937D02*
G01*
X1895093Y10552937D01*
X1908809Y10548365D01*
X1913381Y10543794D01*
X1917954Y10534904D01*
X1917954Y10521187D01*
X1913381Y10512044D01*
X1908809Y10507471D01*
X1895093Y10502900D01*
X1854200Y10502900D01*
X1975104Y10552937D02*
G01*
X1965959Y10548365D01*
X1956815Y10539476D01*
X1952497Y10530331D01*
X1947925Y10516615D01*
X1947925Y10494010D01*
X1952497Y10480294D01*
X1956815Y10471150D01*
X1965959Y10462005D01*
X1975104Y10457434D01*
X1993391Y10457434D01*
X2002281Y10462005D01*
X2011425Y10471150D01*
X2015997Y10480294D01*
X2020570Y10494010D01*
X2020570Y10516615D01*
X2015997Y10530331D01*
X2011425Y10539476D01*
X2002281Y10548365D01*
X1993391Y10552937D01*
X1975104Y10552937D01*
X2050541Y10552937D02*
G01*
X2073402Y10457434D01*
X2096008Y10552937D02*
G01*
X2073402Y10457434D01*
X2096008Y10552937D02*
G01*
X2118868Y10457434D01*
X2141474Y10552937D02*
G01*
X2118868Y10457434D01*
X2171445Y10552937D02*
G01*
X2171445Y10457434D01*
X2171445Y10552937D02*
G01*
X2230627Y10552937D01*
X2171445Y10507471D02*
G01*
X2207768Y10507471D01*
X2171445Y10457434D02*
G01*
X2230627Y10457434D01*
X2260600Y10552937D02*
G01*
X2260600Y10457434D01*
X2260600Y10552937D02*
G01*
X2301493Y10552937D01*
X2315209Y10548365D01*
X2319527Y10543794D01*
X2324100Y10534904D01*
X2324100Y10525760D01*
X2319527Y10516615D01*
X2315209Y10512044D01*
X2301493Y10507471D01*
X2260600Y10507471D01*
X2292350Y10507471D02*
G01*
X2324100Y10457434D01*
X2487929Y10539476D02*
G01*
X2478786Y10548365D01*
X2465070Y10552937D01*
X2447036Y10552937D01*
X2433320Y10548365D01*
X2424175Y10539476D01*
X2424175Y10530331D01*
X2428747Y10521187D01*
X2433320Y10516615D01*
X2442463Y10512044D01*
X2469641Y10502900D01*
X2478786Y10498581D01*
X2483358Y10494010D01*
X2487929Y10484865D01*
X2487929Y10471150D01*
X2478786Y10462005D01*
X2465070Y10457434D01*
X2447036Y10457434D01*
X2433320Y10462005D01*
X2424175Y10471150D01*
X2517902Y10552937D02*
G01*
X2540508Y10457434D01*
X2563368Y10552937D02*
G01*
X2540508Y10457434D01*
X2563368Y10552937D02*
G01*
X2585974Y10457434D01*
X2608834Y10552937D02*
G01*
X2585974Y10457434D01*
X2638806Y10552937D02*
G01*
X2638806Y10457434D01*
X2700527Y10552937D02*
G01*
X2700527Y10457434D01*
X2668777Y10552937D02*
G01*
X2732277Y10552937D01*
X2830575Y10530331D02*
G01*
X2826004Y10539476D01*
X2816859Y10548365D01*
X2807715Y10552937D01*
X2789681Y10552937D01*
X2780538Y10548365D01*
X2771393Y10539476D01*
X2766822Y10530331D01*
X2762504Y10516615D01*
X2762504Y10494010D01*
X2766822Y10480294D01*
X2771393Y10471150D01*
X2780538Y10462005D01*
X2789681Y10457434D01*
X2807715Y10457434D01*
X2816859Y10462005D01*
X2826004Y10471150D01*
X2830575Y10480294D01*
X2860547Y10552937D02*
G01*
X2860547Y10457434D01*
X2924302Y10552937D02*
G01*
X2924302Y10457434D01*
X2860547Y10507471D02*
G01*
X2924302Y10507471D01*
X2954274Y10552937D02*
G01*
X2954274Y10457434D01*
X2984245Y10552937D02*
G01*
X2984245Y10457434D01*
X2984245Y10552937D02*
G01*
X3047745Y10457434D01*
X3047745Y10552937D02*
G01*
X3047745Y10457434D01*
X3146043Y10530331D02*
G01*
X3141472Y10539476D01*
X3132327Y10548365D01*
X3123184Y10552937D01*
X3105150Y10552937D01*
X3096006Y10548365D01*
X3086861Y10539476D01*
X3082290Y10530331D01*
X3077718Y10516615D01*
X3077718Y10494010D01*
X3082290Y10480294D01*
X3086861Y10471150D01*
X3096006Y10462005D01*
X3105150Y10457434D01*
X3123184Y10457434D01*
X3132327Y10462005D01*
X3141472Y10471150D01*
X3146043Y10480294D01*
X3146043Y10494010D01*
X3123184Y10494010D02*
G01*
X3146043Y10494010D01*
X868172Y9654031D02*
G01*
X863854Y9663176D01*
X854709Y9672065D01*
X845565Y9676637D01*
X827277Y9676637D01*
X818388Y9672065D01*
X809243Y9663176D01*
X804672Y9654031D01*
X800100Y9640315D01*
X800100Y9617710D01*
X804672Y9603994D01*
X809243Y9594850D01*
X818388Y9585705D01*
X827277Y9581134D01*
X845565Y9581134D01*
X854709Y9585705D01*
X863854Y9594850D01*
X868172Y9603994D01*
X902715Y9654031D02*
G01*
X902715Y9658604D01*
X907288Y9667494D01*
X911859Y9672065D01*
X921004Y9676637D01*
X939291Y9676637D01*
X948181Y9672065D01*
X952754Y9667494D01*
X957325Y9658604D01*
X957325Y9649460D01*
X952754Y9640315D01*
X943609Y9626600D01*
X898397Y9581134D01*
X961897Y9581134D01*
X1019302Y9676637D02*
G01*
X1005586Y9672065D01*
X996441Y9658604D01*
X991870Y9635744D01*
X991870Y9622281D01*
X996441Y9599421D01*
X1005586Y9585705D01*
X1019302Y9581134D01*
X1028191Y9581134D01*
X1041908Y9585705D01*
X1051052Y9599421D01*
X1055624Y9622281D01*
X1055624Y9635744D01*
X1051052Y9658604D01*
X1041908Y9672065D01*
X1028191Y9676637D01*
X1019302Y9676637D01*
X1854200Y8990837D02*
G01*
X1854200Y8895334D01*
X1854200Y8990837D02*
G01*
X1895093Y8990837D01*
X1908809Y8986265D01*
X1913381Y8981694D01*
X1917954Y8972804D01*
X1917954Y8963660D01*
X1913381Y8954515D01*
X1908809Y8949944D01*
X1895093Y8945371D01*
X1854200Y8945371D01*
X1885950Y8945371D02*
G01*
X1917954Y8895334D01*
X2011425Y8990837D02*
G01*
X1965959Y8895334D01*
X1947925Y8990837D02*
G01*
X2011425Y8990837D01*
X1854200Y8800337D02*
G01*
X1854200Y8704834D01*
X1854200Y8800337D02*
G01*
X1885950Y8800337D01*
X1899665Y8795765D01*
X1908809Y8786876D01*
X1913381Y8777731D01*
X1917954Y8764015D01*
X1917954Y8741410D01*
X1913381Y8727694D01*
X1908809Y8718550D01*
X1899665Y8709405D01*
X1885950Y8704834D01*
X1854200Y8704834D01*
X1947925Y8782304D02*
G01*
X1956815Y8786876D01*
X1970531Y8800337D01*
X1970531Y8704834D01*
X1854200Y8444737D02*
G01*
X1854200Y8349234D01*
X1854200Y8444737D02*
G01*
X1895093Y8444737D01*
X1908809Y8440165D01*
X1913381Y8435594D01*
X1917954Y8426704D01*
X1917954Y8417560D01*
X1913381Y8408415D01*
X1908809Y8403844D01*
X1895093Y8399271D01*
X1854200Y8399271D01*
X1885950Y8399271D02*
G01*
X1917954Y8349234D01*
X1947925Y8426704D02*
G01*
X1956815Y8431276D01*
X1970531Y8444737D01*
X1970531Y8349234D01*
X2027936Y8444737D02*
G01*
X2014220Y8440165D01*
X2005075Y8426704D01*
X2000504Y8403844D01*
X2000504Y8390381D01*
X2005075Y8367521D01*
X2014220Y8353805D01*
X2027936Y8349234D01*
X2036825Y8349234D01*
X2050541Y8353805D01*
X2059686Y8367521D01*
X2064258Y8390381D01*
X2064258Y8403844D01*
X2059686Y8426704D01*
X2050541Y8440165D01*
X2036825Y8444737D01*
X2027936Y8444737D01*
X1854200Y8254237D02*
G01*
X1854200Y8158734D01*
X1854200Y8254237D02*
G01*
X1885950Y8254237D01*
X1899665Y8249665D01*
X1908809Y8240776D01*
X1913381Y8231631D01*
X1917954Y8217915D01*
X1917954Y8195310D01*
X1913381Y8181594D01*
X1908809Y8172450D01*
X1899665Y8163305D01*
X1885950Y8158734D01*
X1854200Y8158734D01*
X1993391Y8254237D02*
G01*
X1947925Y8190737D01*
X2015997Y8190737D01*
X1993391Y8254237D02*
G01*
X1993391Y8158734D01*
X1854200Y7708137D02*
G01*
X1854200Y7612634D01*
X1854200Y7708137D02*
G01*
X1895093Y7708137D01*
X1908809Y7703565D01*
X1913381Y7698994D01*
X1917954Y7690104D01*
X1917954Y7680960D01*
X1913381Y7671815D01*
X1908809Y7667244D01*
X1895093Y7662671D01*
X1854200Y7662671D01*
X1885950Y7662671D02*
G01*
X1917954Y7612634D01*
X1947925Y7690104D02*
G01*
X1956815Y7694676D01*
X1970531Y7708137D01*
X1970531Y7612634D01*
X2000504Y7690104D02*
G01*
X2009647Y7694676D01*
X2023363Y7708137D01*
X2023363Y7612634D01*
X1854200Y7517637D02*
G01*
X1854200Y7422134D01*
X1854200Y7517637D02*
G01*
X1885950Y7517637D01*
X1899665Y7513065D01*
X1908809Y7504176D01*
X1913381Y7495031D01*
X1917954Y7481315D01*
X1917954Y7458710D01*
X1913381Y7444994D01*
X1908809Y7435850D01*
X1899665Y7426705D01*
X1885950Y7422134D01*
X1854200Y7422134D01*
X2002281Y7517637D02*
G01*
X1956815Y7517637D01*
X1952497Y7476744D01*
X1956815Y7481315D01*
X1970531Y7485887D01*
X1984247Y7485887D01*
X1997709Y7481315D01*
X2006854Y7472171D01*
X2011425Y7458710D01*
X2011425Y7449565D01*
X2006854Y7435850D01*
X1997709Y7426705D01*
X1984247Y7422134D01*
X1970531Y7422134D01*
X1956815Y7426705D01*
X1952497Y7431278D01*
X1947925Y7440421D01*
X1854200Y7162037D02*
G01*
X1854200Y7066534D01*
X1854200Y7162037D02*
G01*
X1895093Y7162037D01*
X1908809Y7157465D01*
X1913381Y7152894D01*
X1917954Y7144004D01*
X1917954Y7134860D01*
X1913381Y7125715D01*
X1908809Y7121144D01*
X1895093Y7116571D01*
X1854200Y7116571D01*
X1885950Y7116571D02*
G01*
X1917954Y7066534D01*
X1947925Y7144004D02*
G01*
X1956815Y7148576D01*
X1970531Y7162037D01*
X1970531Y7066534D01*
X2005075Y7139431D02*
G01*
X2005075Y7144004D01*
X2009647Y7152894D01*
X2014220Y7157465D01*
X2023363Y7162037D01*
X2041397Y7162037D01*
X2050541Y7157465D01*
X2055113Y7152894D01*
X2059686Y7144004D01*
X2059686Y7134860D01*
X2055113Y7125715D01*
X2045970Y7112000D01*
X2000504Y7066534D01*
X2064258Y7066534D01*
X1854200Y6971537D02*
G01*
X1854200Y6876034D01*
X1854200Y6971537D02*
G01*
X1885950Y6971537D01*
X1899665Y6966965D01*
X1908809Y6958076D01*
X1913381Y6948931D01*
X1917954Y6935215D01*
X1917954Y6912610D01*
X1913381Y6898894D01*
X1908809Y6889750D01*
X1899665Y6880605D01*
X1885950Y6876034D01*
X1854200Y6876034D01*
X2002281Y6958076D02*
G01*
X1997709Y6966965D01*
X1984247Y6971537D01*
X1975104Y6971537D01*
X1961388Y6966965D01*
X1952497Y6953504D01*
X1947925Y6930644D01*
X1947925Y6908037D01*
X1952497Y6889750D01*
X1961388Y6880605D01*
X1975104Y6876034D01*
X1979675Y6876034D01*
X1993391Y6880605D01*
X2002281Y6889750D01*
X2006854Y6903465D01*
X2006854Y6908037D01*
X2002281Y6921500D01*
X1993391Y6930644D01*
X1979675Y6935215D01*
X1975104Y6935215D01*
X1961388Y6930644D01*
X1952497Y6921500D01*
X1947925Y6908037D01*
X1854200Y10260837D02*
G01*
X1854200Y10165334D01*
X1854200Y10260837D02*
G01*
X1895093Y10260837D01*
X1908809Y10256265D01*
X1913381Y10251694D01*
X1917954Y10242804D01*
X1917954Y10233660D01*
X1913381Y10224515D01*
X1908809Y10219944D01*
X1895093Y10215371D01*
X1854200Y10215371D01*
X1885950Y10215371D02*
G01*
X1917954Y10165334D01*
X2006854Y10229087D02*
G01*
X2002281Y10215371D01*
X1993391Y10206481D01*
X1979675Y10201910D01*
X1975104Y10201910D01*
X1961388Y10206481D01*
X1952497Y10215371D01*
X1947925Y10229087D01*
X1947925Y10233660D01*
X1952497Y10247376D01*
X1961388Y10256265D01*
X1975104Y10260837D01*
X1979675Y10260837D01*
X1993391Y10256265D01*
X2002281Y10247376D01*
X2006854Y10229087D01*
X2006854Y10206481D01*
X2002281Y10183621D01*
X1993391Y10169905D01*
X1979675Y10165334D01*
X1970531Y10165334D01*
X1956815Y10169905D01*
X1952497Y10179050D01*
X1854200Y8609837D02*
G01*
X1854200Y8514334D01*
X1854200Y8609837D02*
G01*
X1895093Y8609837D01*
X1908809Y8605265D01*
X1913381Y8600694D01*
X1917954Y8591804D01*
X1917954Y8582660D01*
X1913381Y8573515D01*
X1908809Y8568944D01*
X1895093Y8564371D01*
X1854200Y8564371D01*
X1885950Y8564371D02*
G01*
X1917954Y8514334D01*
X1947925Y8591804D02*
G01*
X1956815Y8596376D01*
X1970531Y8609837D01*
X1970531Y8514334D01*
X1854200Y9333737D02*
G01*
X1854200Y9238234D01*
X1854200Y9333737D02*
G01*
X1895093Y9333737D01*
X1908809Y9329165D01*
X1913381Y9324594D01*
X1917954Y9315704D01*
X1917954Y9306560D01*
X1913381Y9297415D01*
X1908809Y9292844D01*
X1895093Y9288271D01*
X1854200Y9288271D01*
X1885950Y9288271D02*
G01*
X1917954Y9238234D01*
X1952497Y9311131D02*
G01*
X1952497Y9315704D01*
X1956815Y9324594D01*
X1961388Y9329165D01*
X1970531Y9333737D01*
X1988820Y9333737D01*
X1997709Y9329165D01*
X2002281Y9324594D01*
X2006854Y9315704D01*
X2006854Y9306560D01*
X2002281Y9297415D01*
X1993391Y9283700D01*
X1947925Y9238234D01*
X2011425Y9238234D01*
X1854200Y9879837D02*
G01*
X1854200Y9784334D01*
X1854200Y9879837D02*
G01*
X1895093Y9879837D01*
X1908809Y9875265D01*
X1913381Y9870694D01*
X1917954Y9861804D01*
X1917954Y9852660D01*
X1913381Y9843515D01*
X1908809Y9838944D01*
X1895093Y9834371D01*
X1854200Y9834371D01*
X1885950Y9834371D02*
G01*
X1917954Y9784334D01*
X1956815Y9879837D02*
G01*
X2006854Y9879837D01*
X1979675Y9843515D01*
X1993391Y9843515D01*
X2002281Y9838944D01*
X2006854Y9834371D01*
X2011425Y9820910D01*
X2011425Y9811765D01*
X2006854Y9798050D01*
X1997709Y9788905D01*
X1984247Y9784334D01*
X1970531Y9784334D01*
X1956815Y9788905D01*
X1952497Y9793478D01*
X1947925Y9802621D01*
X1854200Y8063737D02*
G01*
X1854200Y7968234D01*
X1854200Y8063737D02*
G01*
X1895093Y8063737D01*
X1908809Y8059165D01*
X1913381Y8054594D01*
X1917954Y8045704D01*
X1917954Y8036560D01*
X1913381Y8027415D01*
X1908809Y8022844D01*
X1895093Y8018271D01*
X1854200Y8018271D01*
X1885950Y8018271D02*
G01*
X1917954Y7968234D01*
X1993391Y8063737D02*
G01*
X1947925Y8000237D01*
X2015997Y8000237D01*
X1993391Y8063737D02*
G01*
X1993391Y7968234D01*
X1854200Y7327137D02*
G01*
X1854200Y7231634D01*
X1854200Y7327137D02*
G01*
X1895093Y7327137D01*
X1908809Y7322565D01*
X1913381Y7317994D01*
X1917954Y7309104D01*
X1917954Y7299960D01*
X1913381Y7290815D01*
X1908809Y7286244D01*
X1895093Y7281671D01*
X1854200Y7281671D01*
X1885950Y7281671D02*
G01*
X1917954Y7231634D01*
X2002281Y7327137D02*
G01*
X1956815Y7327137D01*
X1952497Y7286244D01*
X1956815Y7290815D01*
X1970531Y7295387D01*
X1984247Y7295387D01*
X1997709Y7290815D01*
X2006854Y7281671D01*
X2011425Y7268210D01*
X2011425Y7259065D01*
X2006854Y7245350D01*
X1997709Y7236205D01*
X1984247Y7231634D01*
X1970531Y7231634D01*
X1956815Y7236205D01*
X1952497Y7240778D01*
X1947925Y7249921D01*
X1854200Y6781037D02*
G01*
X1854200Y6685534D01*
X1854200Y6781037D02*
G01*
X1895093Y6781037D01*
X1908809Y6776465D01*
X1913381Y6771894D01*
X1917954Y6763004D01*
X1917954Y6753860D01*
X1913381Y6744715D01*
X1908809Y6740144D01*
X1895093Y6735571D01*
X1854200Y6735571D01*
X1885950Y6735571D02*
G01*
X1917954Y6685534D01*
X2002281Y6767576D02*
G01*
X1997709Y6776465D01*
X1984247Y6781037D01*
X1975104Y6781037D01*
X1961388Y6776465D01*
X1952497Y6763004D01*
X1947925Y6740144D01*
X1947925Y6717537D01*
X1952497Y6699250D01*
X1961388Y6690105D01*
X1975104Y6685534D01*
X1979675Y6685534D01*
X1993391Y6690105D01*
X2002281Y6699250D01*
X2006854Y6712965D01*
X2006854Y6717537D01*
X2002281Y6731000D01*
X1993391Y6740144D01*
X1979675Y6744715D01*
X1975104Y6744715D01*
X1961388Y6740144D01*
X1952497Y6731000D01*
X1947925Y6717537D01*
X1854200Y9714737D02*
G01*
X1854200Y9619234D01*
X1854200Y9714737D02*
G01*
X1895093Y9714737D01*
X1908809Y9710165D01*
X1913381Y9705594D01*
X1917954Y9696704D01*
X1917954Y9687560D01*
X1913381Y9678415D01*
X1908809Y9673844D01*
X1895093Y9669271D01*
X1854200Y9669271D01*
X1885950Y9669271D02*
G01*
X1917954Y9619234D01*
X1970531Y9714737D02*
G01*
X1956815Y9710165D01*
X1952497Y9701276D01*
X1952497Y9692131D01*
X1956815Y9682987D01*
X1965959Y9678415D01*
X1984247Y9673844D01*
X1997709Y9669271D01*
X2006854Y9660381D01*
X2011425Y9651237D01*
X2011425Y9637521D01*
X2006854Y9628378D01*
X2002281Y9623805D01*
X1988820Y9619234D01*
X1970531Y9619234D01*
X1956815Y9623805D01*
X1952497Y9628378D01*
X1947925Y9637521D01*
X1947925Y9651237D01*
X1952497Y9660381D01*
X1961388Y9669271D01*
X1975104Y9673844D01*
X1993391Y9678415D01*
X2002281Y9682987D01*
X2006854Y9692131D01*
X2006854Y9701276D01*
X2002281Y9710165D01*
X1988820Y9714737D01*
X1970531Y9714737D01*
X1854200Y10070337D02*
G01*
X1854200Y9974834D01*
X1854200Y10070337D02*
G01*
X1885950Y10070337D01*
X1899665Y10065765D01*
X1908809Y10056876D01*
X1913381Y10047731D01*
X1917954Y10034015D01*
X1917954Y10011410D01*
X1913381Y9997694D01*
X1908809Y9988550D01*
X1899665Y9979405D01*
X1885950Y9974834D01*
X1854200Y9974834D01*
X1956815Y10070337D02*
G01*
X2006854Y10070337D01*
X1979675Y10034015D01*
X1993391Y10034015D01*
X2002281Y10029444D01*
X2006854Y10024871D01*
X2011425Y10011410D01*
X2011425Y10002265D01*
X2006854Y9988550D01*
X1997709Y9979405D01*
X1984247Y9974834D01*
X1970531Y9974834D01*
X1956815Y9979405D01*
X1952497Y9983978D01*
X1947925Y9993121D01*
X1854200Y9524237D02*
G01*
X1854200Y9428734D01*
X1854200Y9524237D02*
G01*
X1885950Y9524237D01*
X1899665Y9519665D01*
X1908809Y9510776D01*
X1913381Y9501631D01*
X1917954Y9487915D01*
X1917954Y9465310D01*
X1913381Y9451594D01*
X1908809Y9442450D01*
X1899665Y9433305D01*
X1885950Y9428734D01*
X1854200Y9428734D01*
X1952497Y9501631D02*
G01*
X1952497Y9506204D01*
X1956815Y9515094D01*
X1961388Y9519665D01*
X1970531Y9524237D01*
X1988820Y9524237D01*
X1997709Y9519665D01*
X2002281Y9515094D01*
X2006854Y9506204D01*
X2006854Y9497060D01*
X2002281Y9487915D01*
X1993391Y9474200D01*
X1947925Y9428734D01*
X2011425Y9428734D01*
X3583940Y10102850D02*
G01*
X3579368Y10111739D01*
X3570477Y10120884D01*
X3561334Y10125455D01*
X3543045Y10125455D01*
X3533902Y10120884D01*
X3525011Y10111739D01*
X3520440Y10102850D01*
X3515868Y10089134D01*
X3515868Y10066274D01*
X3520440Y10052812D01*
X3525011Y10043668D01*
X3533902Y10034524D01*
X3543045Y10029952D01*
X3561334Y10029952D01*
X3570477Y10034524D01*
X3579368Y10043668D01*
X3583940Y10052812D01*
X3623056Y10125455D02*
G01*
X3673093Y10125455D01*
X3645915Y10089134D01*
X3659377Y10089134D01*
X3668522Y10084562D01*
X3673093Y10079989D01*
X3677665Y10066274D01*
X3677665Y10057384D01*
X3673093Y10043668D01*
X3663950Y10034524D01*
X3650488Y10029952D01*
X3636772Y10029952D01*
X3623056Y10034524D01*
X3618484Y10039095D01*
X3613911Y10048239D01*
X3583940Y9569450D02*
G01*
X3579368Y9578339D01*
X3570477Y9587484D01*
X3561334Y9592055D01*
X3543045Y9592055D01*
X3533902Y9587484D01*
X3525011Y9578339D01*
X3520440Y9569450D01*
X3515868Y9555734D01*
X3515868Y9532874D01*
X3520440Y9519412D01*
X3525011Y9510268D01*
X3533902Y9501124D01*
X3543045Y9496552D01*
X3561334Y9496552D01*
X3570477Y9501124D01*
X3579368Y9510268D01*
X3583940Y9519412D01*
X3618484Y9569450D02*
G01*
X3618484Y9573768D01*
X3623056Y9582912D01*
X3627627Y9587484D01*
X3636772Y9592055D01*
X3655059Y9592055D01*
X3663950Y9587484D01*
X3668522Y9582912D01*
X3673093Y9573768D01*
X3673093Y9564878D01*
X3668522Y9555734D01*
X3659377Y9542018D01*
X3613911Y9496552D01*
X3677665Y9496552D01*
X3222543Y6869925D02*
G01*
X3222543Y6801853D01*
X3227115Y6788137D01*
X3236259Y6778993D01*
X3249721Y6774421D01*
X3258865Y6774421D01*
X3272581Y6778993D01*
X3281725Y6788137D01*
X3286297Y6801853D01*
X3286297Y6869925D01*
X3370625Y6856463D02*
G01*
X3366053Y6865353D01*
X3352591Y6869925D01*
X3343447Y6869925D01*
X3329731Y6865353D01*
X3320841Y6851891D01*
X3316269Y6829031D01*
X3316269Y6806425D01*
X3320841Y6788137D01*
X3329731Y6778993D01*
X3343447Y6774421D01*
X3348019Y6774421D01*
X3361735Y6778993D01*
X3370625Y6788137D01*
X3375197Y6801853D01*
X3375197Y6806425D01*
X3370625Y6819887D01*
X3361735Y6829031D01*
X3348019Y6833603D01*
X3343447Y6833603D01*
X3329731Y6829031D01*
X3320841Y6819887D01*
X3316269Y6806425D01*
X3222543Y7416022D02*
G01*
X3222543Y7347950D01*
X3227115Y7334234D01*
X3236259Y7325090D01*
X3249721Y7320518D01*
X3258865Y7320518D01*
X3272581Y7325090D01*
X3281725Y7334234D01*
X3286297Y7347950D01*
X3286297Y7416022D01*
X3370625Y7416022D02*
G01*
X3325159Y7416022D01*
X3320841Y7375128D01*
X3325159Y7379700D01*
X3338875Y7384272D01*
X3352591Y7384272D01*
X3366053Y7379700D01*
X3375197Y7370556D01*
X3379769Y7357094D01*
X3379769Y7347950D01*
X3375197Y7334234D01*
X3366053Y7325090D01*
X3352591Y7320518D01*
X3338875Y7320518D01*
X3325159Y7325090D01*
X3320841Y7329662D01*
X3316269Y7338806D01*
X3583940Y7016750D02*
G01*
X3579368Y7025639D01*
X3570477Y7034784D01*
X3561334Y7039355D01*
X3543045Y7039355D01*
X3533902Y7034784D01*
X3525011Y7025639D01*
X3520440Y7016750D01*
X3515868Y7003034D01*
X3515868Y6980173D01*
X3520440Y6966712D01*
X3525011Y6957568D01*
X3533902Y6948423D01*
X3543045Y6943852D01*
X3561334Y6943852D01*
X3570477Y6948423D01*
X3579368Y6957568D01*
X3583940Y6966712D01*
X3668522Y7025639D02*
G01*
X3663950Y7034784D01*
X3650488Y7039355D01*
X3641343Y7039355D01*
X3627627Y7034784D01*
X3618484Y7021068D01*
X3613911Y6998462D01*
X3613911Y6975855D01*
X3618484Y6957568D01*
X3627627Y6948423D01*
X3641343Y6943852D01*
X3645915Y6943852D01*
X3659377Y6948423D01*
X3668522Y6957568D01*
X3673093Y6971284D01*
X3673093Y6975855D01*
X3668522Y6989318D01*
X3659377Y6998462D01*
X3645915Y7003034D01*
X3641343Y7003034D01*
X3627627Y6998462D01*
X3618484Y6989318D01*
X3613911Y6975855D01*
X3583940Y7550150D02*
G01*
X3579368Y7559039D01*
X3570477Y7568184D01*
X3561334Y7572755D01*
X3543045Y7572755D01*
X3533902Y7568184D01*
X3525011Y7559039D01*
X3520440Y7550150D01*
X3515868Y7536434D01*
X3515868Y7513573D01*
X3520440Y7500112D01*
X3525011Y7490968D01*
X3533902Y7481823D01*
X3543045Y7477252D01*
X3561334Y7477252D01*
X3570477Y7481823D01*
X3579368Y7490968D01*
X3583940Y7500112D01*
X3668522Y7572755D02*
G01*
X3623056Y7572755D01*
X3618484Y7531862D01*
X3623056Y7536434D01*
X3636772Y7541005D01*
X3650488Y7541005D01*
X3663950Y7536434D01*
X3673093Y7527289D01*
X3677665Y7513573D01*
X3677665Y7504684D01*
X3673093Y7490968D01*
X3663950Y7481823D01*
X3650488Y7477252D01*
X3636772Y7477252D01*
X3623056Y7481823D01*
X3618484Y7486395D01*
X3613911Y7495539D01*
X3222543Y8152622D02*
G01*
X3222543Y8084550D01*
X3227115Y8070834D01*
X3236259Y8061690D01*
X3249721Y8057118D01*
X3258865Y8057118D01*
X3272581Y8061690D01*
X3281725Y8070834D01*
X3286297Y8084550D01*
X3286297Y8152622D01*
X3361735Y8152622D02*
G01*
X3316269Y8089122D01*
X3384341Y8089122D01*
X3361735Y8152622D02*
G01*
X3361735Y8057118D01*
X3235243Y8698720D02*
G01*
X3235243Y8630648D01*
X3239815Y8616932D01*
X3248959Y8607788D01*
X3262421Y8603216D01*
X3271565Y8603216D01*
X3285281Y8607788D01*
X3294425Y8616932D01*
X3298997Y8630648D01*
X3298997Y8698720D01*
X3328969Y8680686D02*
G01*
X3337859Y8685258D01*
X3351575Y8698720D01*
X3351575Y8603216D01*
X3583940Y8299450D02*
G01*
X3579368Y8308339D01*
X3570477Y8317484D01*
X3561334Y8322055D01*
X3543045Y8322055D01*
X3533902Y8317484D01*
X3525011Y8308339D01*
X3520440Y8299450D01*
X3515868Y8285734D01*
X3515868Y8262873D01*
X3520440Y8249412D01*
X3525011Y8240268D01*
X3533902Y8231123D01*
X3543045Y8226552D01*
X3561334Y8226552D01*
X3570477Y8231123D01*
X3579368Y8240268D01*
X3583940Y8249412D01*
X3659377Y8322055D02*
G01*
X3613911Y8258555D01*
X3682238Y8258555D01*
X3659377Y8322055D02*
G01*
X3659377Y8226552D01*
X3583940Y8832850D02*
G01*
X3579368Y8841739D01*
X3570477Y8850884D01*
X3561334Y8855455D01*
X3543045Y8855455D01*
X3533902Y8850884D01*
X3525011Y8841739D01*
X3520440Y8832850D01*
X3515868Y8819134D01*
X3515868Y8796274D01*
X3520440Y8782812D01*
X3525011Y8773668D01*
X3533902Y8764524D01*
X3543045Y8759952D01*
X3561334Y8759952D01*
X3570477Y8764524D01*
X3579368Y8773668D01*
X3583940Y8782812D01*
X3613911Y8837168D02*
G01*
X3623056Y8841739D01*
X3636772Y8855455D01*
X3636772Y8759952D01*
X1401572Y9615931D02*
G01*
X1397254Y9625076D01*
X1388109Y9633965D01*
X1378965Y9638537D01*
X1360677Y9638537D01*
X1351788Y9633965D01*
X1342643Y9625076D01*
X1338072Y9615931D01*
X1333500Y9602215D01*
X1333500Y9579610D01*
X1338072Y9565894D01*
X1342643Y9556750D01*
X1351788Y9547605D01*
X1360677Y9543034D01*
X1378965Y9543034D01*
X1388109Y9547605D01*
X1397254Y9556750D01*
X1401572Y9565894D01*
X1490725Y9606787D02*
G01*
X1486154Y9593071D01*
X1477009Y9584181D01*
X1463547Y9579610D01*
X1458975Y9579610D01*
X1445259Y9584181D01*
X1436115Y9593071D01*
X1431797Y9606787D01*
X1431797Y9611360D01*
X1436115Y9625076D01*
X1445259Y9633965D01*
X1458975Y9638537D01*
X1463547Y9638537D01*
X1477009Y9633965D01*
X1486154Y9625076D01*
X1490725Y9606787D01*
X1490725Y9584181D01*
X1486154Y9561321D01*
X1477009Y9547605D01*
X1463547Y9543034D01*
X1454404Y9543034D01*
X1440688Y9547605D01*
X1436115Y9556750D01*
X868172Y9400031D02*
G01*
X863854Y9409176D01*
X854709Y9418065D01*
X845565Y9422637D01*
X827277Y9422637D01*
X818388Y9418065D01*
X809243Y9409176D01*
X804672Y9400031D01*
X800100Y9386315D01*
X800100Y9363710D01*
X804672Y9349994D01*
X809243Y9340850D01*
X818388Y9331705D01*
X827277Y9327134D01*
X845565Y9327134D01*
X854709Y9331705D01*
X863854Y9340850D01*
X868172Y9349994D01*
X921004Y9422637D02*
G01*
X907288Y9418065D01*
X902715Y9409176D01*
X902715Y9400031D01*
X907288Y9390887D01*
X916431Y9386315D01*
X934720Y9381744D01*
X948181Y9377171D01*
X957325Y9368281D01*
X961897Y9359137D01*
X961897Y9345421D01*
X957325Y9336278D01*
X952754Y9331705D01*
X939291Y9327134D01*
X921004Y9327134D01*
X907288Y9331705D01*
X902715Y9336278D01*
X898397Y9345421D01*
X898397Y9359137D01*
X902715Y9368281D01*
X911859Y9377171D01*
X925575Y9381744D01*
X943609Y9386315D01*
X952754Y9390887D01*
X957325Y9400031D01*
X957325Y9409176D01*
X952754Y9418065D01*
X939291Y9422637D01*
X921004Y9422637D01*
X1604772Y9412731D02*
G01*
X1600454Y9421876D01*
X1591309Y9430765D01*
X1582165Y9435337D01*
X1563877Y9435337D01*
X1554988Y9430765D01*
X1545843Y9421876D01*
X1541272Y9412731D01*
X1536700Y9399015D01*
X1536700Y9376410D01*
X1541272Y9362694D01*
X1545843Y9353550D01*
X1554988Y9344405D01*
X1563877Y9339834D01*
X1582165Y9339834D01*
X1591309Y9344405D01*
X1600454Y9353550D01*
X1604772Y9362694D01*
X1634997Y9417304D02*
G01*
X1643888Y9421876D01*
X1657604Y9435337D01*
X1657604Y9339834D01*
X1715008Y9435337D02*
G01*
X1701291Y9430765D01*
X1692147Y9417304D01*
X1687575Y9394444D01*
X1687575Y9380981D01*
X1692147Y9358121D01*
X1701291Y9344405D01*
X1715008Y9339834D01*
X1723897Y9339834D01*
X1737613Y9344405D01*
X1746758Y9358121D01*
X1751329Y9380981D01*
X1751329Y9394444D01*
X1746758Y9417304D01*
X1737613Y9430765D01*
X1723897Y9435337D01*
X1715008Y9435337D01*
X876274Y8089214D02*
G01*
X940028Y7993710D01*
X940028Y8089214D02*
G01*
X876274Y7993710D01*
X970000Y8070926D02*
G01*
X979144Y8075498D01*
X992606Y8089214D01*
X992606Y7993710D01*
X144271Y8295131D02*
G01*
X139954Y8304276D01*
X130810Y8313165D01*
X121665Y8317737D01*
X103378Y8317737D01*
X94487Y8313165D01*
X85344Y8304276D01*
X80771Y8295131D01*
X76200Y8281415D01*
X76200Y8258810D01*
X80771Y8245094D01*
X85344Y8235950D01*
X94487Y8226805D01*
X103378Y8222234D01*
X121665Y8222234D01*
X130810Y8226805D01*
X139954Y8235950D01*
X144271Y8245094D01*
X174497Y8299704D02*
G01*
X183387Y8304276D01*
X197104Y8317737D01*
X197104Y8222234D01*
X290829Y8317737D02*
G01*
X245363Y8222234D01*
X227076Y8317737D02*
G01*
X290829Y8317737D01*
X1388872Y8218931D02*
G01*
X1384554Y8228076D01*
X1375409Y8236965D01*
X1366265Y8241537D01*
X1347977Y8241537D01*
X1339088Y8236965D01*
X1329943Y8228076D01*
X1325372Y8218931D01*
X1320800Y8205215D01*
X1320800Y8182610D01*
X1325372Y8168894D01*
X1329943Y8159750D01*
X1339088Y8150605D01*
X1347977Y8146034D01*
X1366265Y8146034D01*
X1375409Y8150605D01*
X1384554Y8159750D01*
X1388872Y8168894D01*
X1419097Y8223504D02*
G01*
X1427988Y8228076D01*
X1441704Y8241537D01*
X1441704Y8146034D01*
X1530858Y8209787D02*
G01*
X1526286Y8196071D01*
X1517141Y8187181D01*
X1503425Y8182610D01*
X1499108Y8182610D01*
X1485391Y8187181D01*
X1476247Y8196071D01*
X1471675Y8209787D01*
X1471675Y8214360D01*
X1476247Y8228076D01*
X1485391Y8236965D01*
X1499108Y8241537D01*
X1503425Y8241537D01*
X1517141Y8236965D01*
X1526286Y8228076D01*
X1530858Y8209787D01*
X1530858Y8187181D01*
X1526286Y8164321D01*
X1517141Y8150605D01*
X1503425Y8146034D01*
X1494536Y8146034D01*
X1480820Y8150605D01*
X1476247Y8159750D01*
X1388872Y8345931D02*
G01*
X1384554Y8355076D01*
X1375409Y8363965D01*
X1366265Y8368537D01*
X1347977Y8368537D01*
X1339088Y8363965D01*
X1329943Y8355076D01*
X1325372Y8345931D01*
X1320800Y8332215D01*
X1320800Y8309610D01*
X1325372Y8295894D01*
X1329943Y8286750D01*
X1339088Y8277605D01*
X1347977Y8273034D01*
X1366265Y8273034D01*
X1375409Y8277605D01*
X1384554Y8286750D01*
X1388872Y8295894D01*
X1419097Y8350504D02*
G01*
X1427988Y8355076D01*
X1441704Y8368537D01*
X1441704Y8273034D01*
X1494536Y8368537D02*
G01*
X1480820Y8363965D01*
X1476247Y8355076D01*
X1476247Y8345931D01*
X1480820Y8336787D01*
X1489963Y8332215D01*
X1507997Y8327644D01*
X1521713Y8323071D01*
X1530858Y8314181D01*
X1535429Y8305037D01*
X1535429Y8291321D01*
X1530858Y8282178D01*
X1526286Y8277605D01*
X1512570Y8273034D01*
X1494536Y8273034D01*
X1480820Y8277605D01*
X1476247Y8282178D01*
X1471675Y8291321D01*
X1471675Y8305037D01*
X1476247Y8314181D01*
X1485391Y8323071D01*
X1499108Y8327644D01*
X1517141Y8332215D01*
X1526286Y8336787D01*
X1530858Y8345931D01*
X1530858Y8355076D01*
X1526286Y8363965D01*
X1512570Y8368537D01*
X1494536Y8368537D01*
X1473200Y9155937D02*
G01*
X1473200Y9087865D01*
X1477772Y9074150D01*
X1486915Y9065005D01*
X1500377Y9060434D01*
X1509522Y9060434D01*
X1523238Y9065005D01*
X1532381Y9074150D01*
X1536954Y9087865D01*
X1536954Y9155937D01*
X1630425Y9155937D02*
G01*
X1584959Y9060434D01*
X1566925Y9155937D02*
G01*
X1630425Y9155937D01*
X868172Y9527031D02*
G01*
X863854Y9536176D01*
X854709Y9545065D01*
X845565Y9549637D01*
X827277Y9549637D01*
X818388Y9545065D01*
X809243Y9536176D01*
X804672Y9527031D01*
X800100Y9513315D01*
X800100Y9490710D01*
X804672Y9476994D01*
X809243Y9467850D01*
X818388Y9458705D01*
X827277Y9454134D01*
X845565Y9454134D01*
X854709Y9458705D01*
X863854Y9467850D01*
X868172Y9476994D01*
X961897Y9549637D02*
G01*
X916431Y9454134D01*
X898397Y9549637D02*
G01*
X961897Y9549637D01*
X1630172Y8485631D02*
G01*
X1625854Y8494776D01*
X1616709Y8503665D01*
X1607565Y8508237D01*
X1589277Y8508237D01*
X1580388Y8503665D01*
X1571243Y8494776D01*
X1566672Y8485631D01*
X1562100Y8471915D01*
X1562100Y8449310D01*
X1566672Y8435594D01*
X1571243Y8426450D01*
X1580388Y8417305D01*
X1589277Y8412734D01*
X1607565Y8412734D01*
X1616709Y8417305D01*
X1625854Y8426450D01*
X1630172Y8435594D01*
X1660397Y8490204D02*
G01*
X1669288Y8494776D01*
X1683004Y8508237D01*
X1683004Y8412734D01*
X1767586Y8494776D02*
G01*
X1763013Y8503665D01*
X1749297Y8508237D01*
X1740408Y8508237D01*
X1726691Y8503665D01*
X1717547Y8490204D01*
X1712975Y8467344D01*
X1712975Y8444737D01*
X1717547Y8426450D01*
X1726691Y8417305D01*
X1740408Y8412734D01*
X1744725Y8412734D01*
X1758441Y8417305D01*
X1767586Y8426450D01*
X1772158Y8440165D01*
X1772158Y8444737D01*
X1767586Y8458200D01*
X1758441Y8467344D01*
X1744725Y8471915D01*
X1740408Y8471915D01*
X1726691Y8467344D01*
X1717547Y8458200D01*
X1712975Y8444737D01*
X1541272Y8942831D02*
G01*
X1536954Y8951976D01*
X1527809Y8960865D01*
X1518665Y8965437D01*
X1500377Y8965437D01*
X1491488Y8960865D01*
X1482343Y8951976D01*
X1477772Y8942831D01*
X1473200Y8929115D01*
X1473200Y8906510D01*
X1477772Y8892794D01*
X1482343Y8883650D01*
X1491488Y8874505D01*
X1500377Y8869934D01*
X1518665Y8869934D01*
X1527809Y8874505D01*
X1536954Y8883650D01*
X1541272Y8892794D01*
X1571497Y8947404D02*
G01*
X1580388Y8951976D01*
X1594104Y8965437D01*
X1594104Y8869934D01*
X1633220Y8965437D02*
G01*
X1683258Y8965437D01*
X1655825Y8929115D01*
X1669541Y8929115D01*
X1678686Y8924544D01*
X1683258Y8919971D01*
X1687829Y8906510D01*
X1687829Y8897365D01*
X1683258Y8883650D01*
X1674113Y8874505D01*
X1660397Y8869934D01*
X1646936Y8869934D01*
X1633220Y8874505D01*
X1628647Y8879078D01*
X1624075Y8888221D01*
X152400Y9460737D02*
G01*
X152400Y9392665D01*
X156971Y9378950D01*
X166115Y9369805D01*
X179578Y9365234D01*
X188721Y9365234D01*
X202437Y9369805D01*
X211581Y9378950D01*
X216154Y9392665D01*
X216154Y9460737D01*
X268731Y9460737D02*
G01*
X255015Y9456165D01*
X250697Y9447276D01*
X250697Y9438131D01*
X255015Y9428987D01*
X264160Y9424415D01*
X282447Y9419844D01*
X295910Y9415271D01*
X305054Y9406381D01*
X309626Y9397237D01*
X309626Y9383521D01*
X305054Y9374378D01*
X300481Y9369805D01*
X287020Y9365234D01*
X268731Y9365234D01*
X255015Y9369805D01*
X250697Y9374378D01*
X246126Y9383521D01*
X246126Y9397237D01*
X250697Y9406381D01*
X259587Y9415271D01*
X273304Y9419844D01*
X291592Y9424415D01*
X300481Y9428987D01*
X305054Y9438131D01*
X305054Y9447276D01*
X300481Y9456165D01*
X287020Y9460737D01*
X268731Y9460737D01*
X182371Y9057131D02*
G01*
X178054Y9066276D01*
X168910Y9075165D01*
X159765Y9079737D01*
X141478Y9079737D01*
X132587Y9075165D01*
X123444Y9066276D01*
X118871Y9057131D01*
X114300Y9043415D01*
X114300Y9020810D01*
X118871Y9007094D01*
X123444Y8997950D01*
X132587Y8988805D01*
X141478Y8984234D01*
X159765Y8984234D01*
X168910Y8988805D01*
X178054Y8997950D01*
X182371Y9007094D01*
X212597Y9061704D02*
G01*
X221487Y9066276D01*
X235204Y9079737D01*
X235204Y8984234D01*
X269747Y9057131D02*
G01*
X269747Y9061704D01*
X274320Y9070594D01*
X278892Y9075165D01*
X288036Y9079737D01*
X306070Y9079737D01*
X315213Y9075165D01*
X319786Y9070594D01*
X324357Y9061704D01*
X324357Y9052560D01*
X319786Y9043415D01*
X310642Y9029700D01*
X265176Y8984234D01*
X328929Y8984234D01*
X207771Y9196831D02*
G01*
X203454Y9205976D01*
X194310Y9214865D01*
X185165Y9219437D01*
X166878Y9219437D01*
X157987Y9214865D01*
X148844Y9205976D01*
X144271Y9196831D01*
X139700Y9183115D01*
X139700Y9160510D01*
X144271Y9146794D01*
X148844Y9137650D01*
X157987Y9128505D01*
X166878Y9123934D01*
X185165Y9123934D01*
X194310Y9128505D01*
X203454Y9137650D01*
X207771Y9146794D01*
X237997Y9201404D02*
G01*
X246887Y9205976D01*
X260604Y9219437D01*
X260604Y9123934D01*
X290576Y9201404D02*
G01*
X299720Y9205976D01*
X313436Y9219437D01*
X313436Y9123934D01*
X131571Y8803131D02*
G01*
X127254Y8812276D01*
X118110Y8821165D01*
X108965Y8825737D01*
X90678Y8825737D01*
X81787Y8821165D01*
X72644Y8812276D01*
X68071Y8803131D01*
X63500Y8789415D01*
X63500Y8766810D01*
X68071Y8753094D01*
X72644Y8743950D01*
X81787Y8734805D01*
X90678Y8730234D01*
X108965Y8730234D01*
X118110Y8734805D01*
X127254Y8743950D01*
X131571Y8753094D01*
X161797Y8807704D02*
G01*
X170687Y8812276D01*
X184404Y8825737D01*
X184404Y8730234D01*
X259842Y8825737D02*
G01*
X214376Y8762237D01*
X282702Y8762237D01*
X259842Y8825737D02*
G01*
X259842Y8730234D01*
X207771Y8650731D02*
G01*
X203454Y8659876D01*
X194310Y8668765D01*
X185165Y8673337D01*
X166878Y8673337D01*
X157987Y8668765D01*
X148844Y8659876D01*
X144271Y8650731D01*
X139700Y8637015D01*
X139700Y8614410D01*
X144271Y8600694D01*
X148844Y8591550D01*
X157987Y8582405D01*
X166878Y8577834D01*
X185165Y8577834D01*
X194310Y8582405D01*
X203454Y8591550D01*
X207771Y8600694D01*
X237997Y8655304D02*
G01*
X246887Y8659876D01*
X260604Y8673337D01*
X260604Y8577834D01*
X345186Y8673337D02*
G01*
X299720Y8673337D01*
X295147Y8632444D01*
X299720Y8637015D01*
X313436Y8641587D01*
X326897Y8641587D01*
X340613Y8637015D01*
X349757Y8627871D01*
X354329Y8614410D01*
X354329Y8605265D01*
X349757Y8591550D01*
X340613Y8582405D01*
X326897Y8577834D01*
X313436Y8577834D01*
X299720Y8582405D01*
X295147Y8586978D01*
X290576Y8596121D01*
X419100Y8673337D02*
G01*
X419100Y8577834D01*
X419100Y8673337D02*
G01*
X450850Y8673337D01*
X464565Y8668765D01*
X473710Y8659876D01*
X478281Y8650731D01*
X482854Y8637015D01*
X482854Y8614410D01*
X478281Y8600694D01*
X473710Y8591550D01*
X464565Y8582405D01*
X450850Y8577834D01*
X419100Y8577834D01*
X576326Y8673337D02*
G01*
X530860Y8577834D01*
X512826Y8673337D02*
G01*
X576326Y8673337D01*
X616965Y7720837D02*
G01*
X616965Y7648194D01*
X612394Y7634478D01*
X607821Y7629905D01*
X598678Y7625334D01*
X589787Y7625334D01*
X580644Y7629905D01*
X576071Y7634478D01*
X571500Y7648194D01*
X571500Y7657337D01*
X701547Y7707376D02*
G01*
X696975Y7716265D01*
X683259Y7720837D01*
X674115Y7720837D01*
X660654Y7716265D01*
X651510Y7702804D01*
X646937Y7679944D01*
X646937Y7657337D01*
X651510Y7639050D01*
X660654Y7629905D01*
X674115Y7625334D01*
X678688Y7625334D01*
X692404Y7629905D01*
X701547Y7639050D01*
X706120Y7652765D01*
X706120Y7657337D01*
X701547Y7670800D01*
X692404Y7679944D01*
X678688Y7684515D01*
X674115Y7684515D01*
X660654Y7679944D01*
X651510Y7670800D01*
X646937Y7657337D01*
X616965Y7543037D02*
G01*
X616965Y7470394D01*
X612394Y7456678D01*
X607821Y7452105D01*
X598678Y7447534D01*
X589787Y7447534D01*
X580644Y7452105D01*
X576071Y7456678D01*
X571500Y7470394D01*
X571500Y7479537D01*
X710691Y7543037D02*
G01*
X665225Y7447534D01*
X646937Y7543037D02*
G01*
X710691Y7543037D01*
X3147062Y6505450D02*
G01*
X3147062Y6432806D01*
X3142490Y6419090D01*
X3137918Y6414518D01*
X3128774Y6409946D01*
X3119884Y6409946D01*
X3110740Y6414518D01*
X3106168Y6419090D01*
X3101596Y6432806D01*
X3101596Y6441950D01*
X3181606Y6482844D02*
G01*
X3181606Y6487416D01*
X3186178Y6496306D01*
X3190750Y6500878D01*
X3199894Y6505450D01*
X3217928Y6505450D01*
X3227072Y6500878D01*
X3231644Y6496306D01*
X3236216Y6487416D01*
X3236216Y6478272D01*
X3231644Y6469128D01*
X3222500Y6455412D01*
X3177034Y6409946D01*
X3240788Y6409946D01*
X3222543Y9968717D02*
G01*
X3222543Y9900645D01*
X3227115Y9886929D01*
X3236259Y9877785D01*
X3249721Y9873213D01*
X3258865Y9873213D01*
X3272581Y9877785D01*
X3281725Y9886929D01*
X3286297Y9900645D01*
X3286297Y9968717D01*
X3325159Y9968717D02*
G01*
X3375197Y9968717D01*
X3348019Y9932395D01*
X3361735Y9932395D01*
X3370625Y9927823D01*
X3375197Y9923251D01*
X3379769Y9909789D01*
X3379769Y9900645D01*
X3375197Y9886929D01*
X3366053Y9877785D01*
X3352591Y9873213D01*
X3338875Y9873213D01*
X3325159Y9877785D01*
X3320841Y9882357D01*
X3316269Y9891501D01*
X3222543Y9422620D02*
G01*
X3222543Y9354548D01*
X3227115Y9340832D01*
X3236259Y9331688D01*
X3249721Y9327116D01*
X3258865Y9327116D01*
X3272581Y9331688D01*
X3281725Y9340832D01*
X3286297Y9354548D01*
X3286297Y9422620D01*
X3320841Y9400014D02*
G01*
X3320841Y9404586D01*
X3325159Y9413476D01*
X3329731Y9418048D01*
X3338875Y9422620D01*
X3357163Y9422620D01*
X3366053Y9418048D01*
X3370625Y9413476D01*
X3375197Y9404586D01*
X3375197Y9395442D01*
X3370625Y9386298D01*
X3361735Y9372582D01*
X3316269Y9327116D01*
X3379769Y9327116D01*
X1499750Y11367515D02*
G01*
X1499750Y11284389D01*
X1494553Y11268801D01*
X1489359Y11263607D01*
X1478968Y11258412D01*
X1468577Y11258412D01*
X1458186Y11263607D01*
X1452989Y11268801D01*
X1447794Y11284389D01*
X1447794Y11294780D01*
X1534040Y11346733D02*
G01*
X1544429Y11351930D01*
X1560017Y11367515D01*
X1560017Y11258412D01*
G36*
X435101Y8455507D02*
G01*
X412597Y8433003D01*
X457606Y8433003D01*
G37*
X1216423Y9551339D02*
G01*
X1295430Y9551339D01*
X1295430Y9651060D02*
G01*
X1216421Y9651057D01*
X1310670Y9566582D02*
G01*
X1310667Y9635820D01*
X1092169Y9651060D02*
G01*
X1171176Y9651060D01*
X1171178Y9551342D02*
G01*
X1092169Y9551339D01*
X1076932Y9566579D02*
G01*
X1076929Y9635817D01*
X2277821Y8874739D02*
G01*
X2373708Y8874739D01*
X2373708Y9006860D01*
X2277821Y9006860D01*
X2192578Y8874739D02*
G01*
X2096691Y8874739D01*
X2096691Y9006860D01*
X2192578Y9006860D01*
D12*
X2058670Y8836660D02*
G01*
X2058670Y8663939D01*
X2058670Y8663939D02*
G01*
X2205990Y8663939D01*
X2058670Y8836660D02*
G01*
X2205990Y8836660D01*
X2264409Y8663939D02*
G01*
X2381250Y8663939D01*
X2266950Y8836660D02*
G01*
X2381250Y8836660D01*
X2381250Y8836660D02*
G01*
X2416809Y8801100D01*
X2416809Y8699500D01*
X2381250Y8663939D01*
D13*
X2227579Y8790939D02*
G01*
X2227579Y8712200D01*
X2227579Y8751095D02*
G01*
X2245116Y8751095D01*
D11*
X2277821Y8328639D02*
G01*
X2373708Y8328639D01*
X2373708Y8460760D01*
X2277821Y8460760D01*
X2192578Y8328639D02*
G01*
X2096691Y8328639D01*
X2096691Y8460760D01*
X2192578Y8460760D01*
D12*
X2058670Y8290560D02*
G01*
X2058670Y8117839D01*
X2058670Y8117839D02*
G01*
X2205990Y8117839D01*
X2058670Y8290560D02*
G01*
X2205990Y8290560D01*
X2264409Y8117839D02*
G01*
X2381250Y8117839D01*
X2266950Y8290560D02*
G01*
X2381250Y8290560D01*
X2381250Y8290560D02*
G01*
X2416809Y8255000D01*
X2416809Y8153400D01*
X2381250Y8117839D01*
D13*
X2227579Y8244839D02*
G01*
X2227579Y8166100D01*
X2227579Y8204995D02*
G01*
X2245116Y8204995D01*
D11*
X2277821Y7592039D02*
G01*
X2373708Y7592039D01*
X2373708Y7724160D01*
X2277821Y7724160D01*
X2192578Y7592039D02*
G01*
X2096691Y7592039D01*
X2096691Y7724160D01*
X2192578Y7724160D01*
D12*
X2058670Y7553960D02*
G01*
X2058670Y7381239D01*
X2058670Y7381239D02*
G01*
X2205990Y7381239D01*
X2058670Y7553960D02*
G01*
X2205990Y7553960D01*
X2264409Y7381239D02*
G01*
X2381250Y7381239D01*
X2266950Y7553960D02*
G01*
X2381250Y7553960D01*
X2381250Y7553960D02*
G01*
X2416809Y7518400D01*
X2416809Y7416800D01*
X2381250Y7381239D01*
D13*
X2227579Y7508239D02*
G01*
X2227579Y7429500D01*
X2227579Y7468395D02*
G01*
X2245116Y7468395D01*
D11*
X2277821Y7045939D02*
G01*
X2373708Y7045939D01*
X2373708Y7178060D01*
X2277821Y7178060D01*
X2192578Y7045939D02*
G01*
X2096691Y7045939D01*
X2096691Y7178060D01*
X2192578Y7178060D01*
D12*
X2058670Y7007860D02*
G01*
X2058670Y6835139D01*
X2058670Y6835139D02*
G01*
X2205990Y6835139D01*
X2058670Y7007860D02*
G01*
X2205990Y7007860D01*
X2264409Y6835139D02*
G01*
X2381250Y6835139D01*
X2266950Y7007860D02*
G01*
X2381250Y7007860D01*
X2381250Y7007860D02*
G01*
X2416809Y6972300D01*
X2416809Y6870700D01*
X2381250Y6835139D01*
D13*
X2227579Y6962139D02*
G01*
X2227579Y6883400D01*
X2227579Y6922295D02*
G01*
X2245116Y6922295D01*
D11*
X2277821Y10144739D02*
G01*
X2373708Y10144739D01*
X2373708Y10276860D01*
X2277821Y10276860D01*
X2192578Y10144739D02*
G01*
X2096691Y10144739D01*
X2096691Y10276860D01*
X2192578Y10276860D01*
X2277821Y8493739D02*
G01*
X2373708Y8493739D01*
X2373708Y8625860D01*
X2277821Y8625860D01*
X2192578Y8493739D02*
G01*
X2096691Y8493739D01*
X2096691Y8625860D01*
X2192578Y8625860D01*
X2277821Y9217639D02*
G01*
X2373708Y9217639D01*
X2373708Y9349760D01*
X2277821Y9349760D01*
X2192578Y9217639D02*
G01*
X2096691Y9217639D01*
X2096691Y9349760D01*
X2192578Y9349760D01*
X2277821Y9763739D02*
G01*
X2373708Y9763739D01*
X2373708Y9895860D01*
X2277821Y9895860D01*
X2192578Y9763739D02*
G01*
X2096691Y9763739D01*
X2096691Y9895860D01*
X2192578Y9895860D01*
X2277821Y7947639D02*
G01*
X2373708Y7947639D01*
X2373708Y8079760D01*
X2277821Y8079760D01*
X2192578Y7947639D02*
G01*
X2096691Y7947639D01*
X2096691Y8079760D01*
X2192578Y8079760D01*
X2277821Y7211039D02*
G01*
X2373708Y7211039D01*
X2373708Y7343160D01*
X2277821Y7343160D01*
X2192578Y7211039D02*
G01*
X2096691Y7211039D01*
X2096691Y7343160D01*
X2192578Y7343160D01*
X2277821Y6664939D02*
G01*
X2373708Y6664939D01*
X2373708Y6797060D01*
X2277821Y6797060D01*
X2192578Y6664939D02*
G01*
X2096691Y6664939D01*
X2096691Y6797060D01*
X2192578Y6797060D01*
X2277821Y9598639D02*
G01*
X2373708Y9598639D01*
X2373708Y9730760D01*
X2277821Y9730760D01*
X2192578Y9598639D02*
G01*
X2096691Y9598639D01*
X2096691Y9730760D01*
X2192578Y9730760D01*
D12*
X2058670Y10106660D02*
G01*
X2058670Y9933939D01*
X2058670Y9933939D02*
G01*
X2205990Y9933939D01*
X2058670Y10106660D02*
G01*
X2205990Y10106660D01*
X2264409Y9933939D02*
G01*
X2381250Y9933939D01*
X2266950Y10106660D02*
G01*
X2381250Y10106660D01*
X2381250Y10106660D02*
G01*
X2416809Y10071100D01*
X2416809Y9969500D01*
X2381250Y9933939D01*
D13*
X2227579Y10060939D02*
G01*
X2227579Y9982200D01*
X2227579Y10021095D02*
G01*
X2245116Y10021095D01*
D12*
X2058670Y9560560D02*
G01*
X2058670Y9387839D01*
X2058670Y9387839D02*
G01*
X2205990Y9387839D01*
X2058670Y9560560D02*
G01*
X2205990Y9560560D01*
X2264409Y9387839D02*
G01*
X2381250Y9387839D01*
X2266950Y9560560D02*
G01*
X2381250Y9560560D01*
X2381250Y9560560D02*
G01*
X2416809Y9525000D01*
X2416809Y9423400D01*
X2381250Y9387839D01*
D13*
X2227579Y9514839D02*
G01*
X2227579Y9436100D01*
X2227579Y9474995D02*
G01*
X2245116Y9474995D01*
D12*
X3479101Y10123777D02*
G01*
X3479101Y10043774D01*
X3368126Y10154762D02*
G01*
X3448123Y10154762D01*
X3368126Y10012796D02*
G01*
X3448123Y10012796D01*
X3310536Y10155344D02*
G01*
X3230537Y10155344D01*
X3199554Y10124361D02*
G01*
X3199554Y10044363D01*
X3310536Y10013383D02*
G01*
X3230537Y10013383D01*
X3479101Y9577677D02*
G01*
X3479101Y9497674D01*
X3368126Y9608662D02*
G01*
X3448123Y9608662D01*
X3368126Y9466696D02*
G01*
X3448123Y9466696D01*
X3310536Y9609244D02*
G01*
X3230537Y9609244D01*
X3199554Y9578261D02*
G01*
X3199554Y9498263D01*
X3310536Y9467283D02*
G01*
X3230537Y9467283D01*
X2619397Y7171486D02*
G01*
X2619397Y7157074D01*
X2619397Y7066899D02*
G01*
X2619397Y7030074D01*
X3019397Y7171486D02*
G01*
X3019397Y7157074D01*
X3019397Y7066899D02*
G01*
X3019397Y7030074D01*
X3019397Y6939899D02*
G01*
X3019397Y6903074D01*
X3019397Y6812899D02*
G01*
X3019397Y6776074D01*
X2761399Y7171486D02*
G01*
X2619397Y7171486D01*
X2619397Y6939899D02*
G01*
X2619397Y6903074D01*
X2619397Y6812899D02*
G01*
X2619397Y6776074D01*
X2619397Y6685899D02*
G01*
X2619397Y6671487D01*
X3019397Y7171486D02*
G01*
X2879394Y7171486D01*
X3019397Y6671487D02*
G01*
X2619397Y6671487D01*
X3019397Y6685899D02*
G01*
X3019397Y6671487D01*
X2619397Y7717584D02*
G01*
X2619397Y7703172D01*
X2619397Y7612997D02*
G01*
X2619397Y7576172D01*
X3019397Y7717584D02*
G01*
X3019397Y7703172D01*
X3019397Y7612997D02*
G01*
X3019397Y7576172D01*
X3019397Y7485997D02*
G01*
X3019397Y7449172D01*
X3019397Y7358997D02*
G01*
X3019397Y7322172D01*
X2761399Y7717584D02*
G01*
X2619397Y7717584D01*
X2619397Y7485997D02*
G01*
X2619397Y7449172D01*
X2619397Y7358997D02*
G01*
X2619397Y7322172D01*
X2619397Y7231997D02*
G01*
X2619397Y7217585D01*
X3019397Y7717584D02*
G01*
X2879394Y7717584D01*
X3019397Y7217585D02*
G01*
X2619397Y7217585D01*
X3019397Y7231997D02*
G01*
X3019397Y7217585D01*
X3479101Y7024977D02*
G01*
X3479101Y6944974D01*
X3368126Y7055962D02*
G01*
X3448123Y7055962D01*
X3368126Y6913996D02*
G01*
X3448123Y6913996D01*
X3310536Y7056544D02*
G01*
X3230537Y7056544D01*
X3199554Y7025561D02*
G01*
X3199554Y6945563D01*
X3310536Y6914583D02*
G01*
X3230537Y6914583D01*
X3479101Y7571077D02*
G01*
X3479101Y7491074D01*
X3368126Y7602062D02*
G01*
X3448123Y7602062D01*
X3368126Y7460096D02*
G01*
X3448123Y7460096D01*
X3310536Y7602644D02*
G01*
X3230537Y7602644D01*
X3199554Y7571661D02*
G01*
X3199554Y7491663D01*
X3310536Y7460683D02*
G01*
X3230537Y7460683D01*
X2619397Y8454184D02*
G01*
X2619397Y8439772D01*
X2619397Y8349597D02*
G01*
X2619397Y8312772D01*
X3019397Y8454184D02*
G01*
X3019397Y8439772D01*
X3019397Y8349597D02*
G01*
X3019397Y8312772D01*
X3019397Y8222597D02*
G01*
X3019397Y8185772D01*
X3019397Y8095597D02*
G01*
X3019397Y8058772D01*
X2761399Y8454184D02*
G01*
X2619397Y8454184D01*
X2619397Y8222597D02*
G01*
X2619397Y8185772D01*
X2619397Y8095597D02*
G01*
X2619397Y8058772D01*
X2619397Y7968597D02*
G01*
X2619397Y7954185D01*
X3019397Y8454184D02*
G01*
X2879394Y8454184D01*
X3019397Y7954185D02*
G01*
X2619397Y7954185D01*
X3019397Y7968597D02*
G01*
X3019397Y7954185D01*
X2619397Y9000281D02*
G01*
X2619397Y8985869D01*
X2619397Y8895694D02*
G01*
X2619397Y8858869D01*
X3019397Y9000281D02*
G01*
X3019397Y8985869D01*
X3019397Y8895694D02*
G01*
X3019397Y8858869D01*
X3019397Y8768694D02*
G01*
X3019397Y8731869D01*
X3019397Y8641694D02*
G01*
X3019397Y8604869D01*
X2761399Y9000281D02*
G01*
X2619397Y9000281D01*
X2619397Y8768694D02*
G01*
X2619397Y8731869D01*
X2619397Y8641694D02*
G01*
X2619397Y8604869D01*
X2619397Y8514694D02*
G01*
X2619397Y8500282D01*
X3019397Y9000281D02*
G01*
X2879394Y9000281D01*
X3019397Y8500282D02*
G01*
X2619397Y8500282D01*
X3019397Y8514694D02*
G01*
X3019397Y8500282D01*
X3479101Y8307677D02*
G01*
X3479101Y8227674D01*
X3368126Y8338662D02*
G01*
X3448123Y8338662D01*
X3368126Y8196696D02*
G01*
X3448123Y8196696D01*
X3310536Y8339244D02*
G01*
X3230537Y8339244D01*
X3199554Y8308261D02*
G01*
X3199554Y8228263D01*
X3310536Y8197283D02*
G01*
X3230537Y8197283D01*
X3479101Y8853777D02*
G01*
X3479101Y8773774D01*
X3368126Y8884762D02*
G01*
X3448123Y8884762D01*
X3368126Y8742796D02*
G01*
X3448123Y8742796D01*
X3310536Y8885344D02*
G01*
X3230537Y8885344D01*
X3199554Y8854361D02*
G01*
X3199554Y8774363D01*
X3310536Y8743383D02*
G01*
X3230537Y8743383D01*
D11*
X1309039Y9499630D02*
G01*
X1309039Y9420621D01*
X1408760Y9420621D02*
G01*
X1408760Y9499630D01*
X1393520Y9514870D02*
G01*
X1324279Y9514870D01*
X1309039Y9296369D02*
G01*
X1309039Y9375378D01*
X1408760Y9375378D02*
G01*
X1408760Y9296369D01*
X1393520Y9281129D02*
G01*
X1324279Y9281129D01*
X1003269Y9310039D02*
G01*
X1082278Y9310039D01*
X1082278Y9409760D02*
G01*
X1003269Y9409760D01*
X988029Y9394520D02*
G01*
X988029Y9325279D01*
X1206530Y9310039D02*
G01*
X1127521Y9310039D01*
X1127521Y9409760D02*
G01*
X1206530Y9409760D01*
X1221770Y9394520D02*
G01*
X1221770Y9325279D01*
X1410639Y9375376D02*
G01*
X1410639Y9296369D01*
X1510360Y9296369D02*
G01*
X1510357Y9375378D01*
X1425882Y9281129D02*
G01*
X1495120Y9281132D01*
X1510360Y9499630D02*
G01*
X1510360Y9420623D01*
X1410642Y9420621D02*
G01*
X1410639Y9499630D01*
X1425879Y9514867D02*
G01*
X1495117Y9514870D01*
X609942Y8125249D02*
G01*
X609942Y8460971D01*
X1015662Y8460971D01*
X1015662Y8125249D01*
X609942Y8125249D01*
X587082Y8268108D02*
G01*
X587082Y8102389D01*
X772802Y8102389D01*
X421881Y8317557D02*
G01*
X342872Y8317557D01*
X342872Y8217837D02*
G01*
X421881Y8217839D01*
X327632Y8302315D02*
G01*
X327634Y8233077D01*
X546133Y8217837D02*
G01*
X467123Y8217837D01*
X467123Y8317555D02*
G01*
X546133Y8317557D01*
X561370Y8302317D02*
G01*
X561373Y8233079D01*
X1145776Y8304860D02*
G01*
X1066769Y8304860D01*
X1066769Y8205139D02*
G01*
X1145778Y8205142D01*
X1051529Y8289617D02*
G01*
X1051532Y8220379D01*
X1270030Y8205139D02*
G01*
X1191023Y8205139D01*
X1191021Y8304857D02*
G01*
X1270030Y8304860D01*
X1285267Y8289620D02*
G01*
X1285270Y8220382D01*
X1145776Y8406460D02*
G01*
X1066769Y8406460D01*
X1066769Y8306739D02*
G01*
X1145778Y8306742D01*
X1051529Y8391217D02*
G01*
X1051532Y8321979D01*
X1270030Y8306739D02*
G01*
X1191023Y8306739D01*
X1191021Y8406457D02*
G01*
X1270030Y8406460D01*
X1285267Y8391220D02*
G01*
X1285270Y8321982D01*
D12*
X691903Y9239999D02*
G01*
X691903Y9230314D01*
X665995Y9204406D01*
X665995Y9183115D02*
G01*
X722884Y9239999D01*
X665995Y9183115D02*
G01*
X665995Y9239999D01*
X722884Y8540005D02*
G01*
X675998Y8540005D01*
X665995Y8540005D01*
X665995Y8596889D01*
X1365994Y8596889D02*
G01*
X1365994Y8540005D01*
X1309110Y8540005D01*
X1309110Y9239999D02*
G01*
X1365994Y9239999D01*
X1365994Y9183115D01*
X665995Y9239999D02*
G01*
X722884Y9239999D01*
D11*
X1127523Y9411639D02*
G01*
X1206530Y9411639D01*
X1206530Y9511360D02*
G01*
X1127521Y9511357D01*
X1221770Y9426882D02*
G01*
X1221767Y9496120D01*
X1003269Y9511360D02*
G01*
X1082276Y9511360D01*
X1082278Y9411642D02*
G01*
X1003269Y9411639D01*
X988032Y9426879D02*
G01*
X988029Y9496117D01*
X1387076Y8508060D02*
G01*
X1308069Y8508060D01*
X1308069Y8408339D02*
G01*
X1387078Y8408342D01*
X1292829Y8492817D02*
G01*
X1292832Y8423579D01*
X1511330Y8408339D02*
G01*
X1432323Y8408339D01*
X1432321Y8508057D02*
G01*
X1511330Y8508060D01*
X1526567Y8492820D02*
G01*
X1526570Y8423582D01*
X1564876Y8838260D02*
G01*
X1485869Y8838260D01*
X1485869Y8738539D02*
G01*
X1564878Y8738542D01*
X1470629Y8823017D02*
G01*
X1470632Y8753779D01*
X1689130Y8738539D02*
G01*
X1610123Y8738539D01*
X1610121Y8838257D02*
G01*
X1689130Y8838260D01*
X1704367Y8823020D02*
G01*
X1704370Y8753782D01*
X678309Y9480229D02*
G01*
X363072Y9480229D01*
X363072Y9264982D02*
G01*
X678309Y9264982D01*
X570562Y9128518D02*
G01*
X570562Y9207525D01*
X470842Y9207525D02*
G01*
X470844Y9128516D01*
X555320Y9222765D02*
G01*
X486082Y9222762D01*
X470842Y9004264D02*
G01*
X470842Y9083271D01*
X570560Y9083273D02*
G01*
X570562Y9004264D01*
X555322Y8989026D02*
G01*
X486084Y8989024D01*
X468962Y9128518D02*
G01*
X468962Y9207525D01*
X369242Y9207525D02*
G01*
X369244Y9128516D01*
X453720Y9222765D02*
G01*
X384482Y9222762D01*
X369242Y9004264D02*
G01*
X369242Y9083271D01*
X468960Y9083273D02*
G01*
X468962Y9004264D01*
X453722Y8989026D02*
G01*
X384484Y8989024D01*
X454423Y8725839D02*
G01*
X533430Y8725839D01*
X533430Y8825560D02*
G01*
X454421Y8825557D01*
X548670Y8741082D02*
G01*
X548667Y8810320D01*
X330169Y8825560D02*
G01*
X409176Y8825560D01*
X409178Y8725842D02*
G01*
X330169Y8725839D01*
X314932Y8741079D02*
G01*
X314929Y8810317D01*
X276623Y8446439D02*
G01*
X355630Y8446439D01*
X355630Y8546160D02*
G01*
X276621Y8546157D01*
X370870Y8461682D02*
G01*
X370867Y8530920D01*
X152369Y8546160D02*
G01*
X231376Y8546160D01*
X231378Y8446442D02*
G01*
X152369Y8446439D01*
X137132Y8461679D02*
G01*
X137129Y8530917D01*
D14*
X592597Y8495548D02*
G01*
X592597Y8555492D01*
X537479Y8555492D01*
X572582Y8355492D02*
G01*
X392572Y8355492D01*
X392572Y8535502D01*
X572582Y8535502D01*
X572582Y8355492D01*
D12*
X453351Y8149402D02*
G01*
X453351Y8052513D01*
X453351Y7746286D02*
G01*
X453351Y7649408D01*
X453351Y7649408D02*
G01*
X221465Y7649408D01*
X453351Y8136376D02*
G01*
X453351Y8149402D01*
X453351Y8149402D02*
G01*
X221465Y8149402D01*
X28354Y8031284D02*
G01*
X28354Y7767513D01*
X453351Y7514402D02*
G01*
X453351Y7417513D01*
X453351Y7111286D02*
G01*
X453351Y7014408D01*
X453351Y7014408D02*
G01*
X221465Y7014408D01*
X453351Y7501376D02*
G01*
X453351Y7514402D01*
X453351Y7514402D02*
G01*
X221465Y7514402D01*
X28354Y7396284D02*
G01*
X28354Y7132513D01*
X1018799Y6328387D02*
G01*
X1018799Y6582387D01*
X3050793Y6582387D01*
X3050793Y6328387D01*
X1018799Y6328387D01*
X2794444Y6328387D02*
G01*
X2794444Y6582387D01*
X2619397Y10270279D02*
G01*
X2619397Y10255867D01*
X2619397Y10165692D02*
G01*
X2619397Y10128867D01*
X3019397Y10270279D02*
G01*
X3019397Y10255867D01*
X3019397Y10165692D02*
G01*
X3019397Y10128867D01*
X3019397Y10038692D02*
G01*
X3019397Y10001867D01*
X3019397Y9911692D02*
G01*
X3019397Y9874867D01*
X2761399Y10270279D02*
G01*
X2619397Y10270279D01*
X2619397Y10038692D02*
G01*
X2619397Y10001867D01*
X2619397Y9911692D02*
G01*
X2619397Y9874867D01*
X2619397Y9784692D02*
G01*
X2619397Y9770280D01*
X3019397Y10270279D02*
G01*
X2879394Y10270279D01*
X3019397Y9770280D02*
G01*
X2619397Y9770280D01*
X3019397Y9784692D02*
G01*
X3019397Y9770280D01*
X2619397Y9724181D02*
G01*
X2619397Y9709769D01*
X2619397Y9619594D02*
G01*
X2619397Y9582769D01*
X3019397Y9724181D02*
G01*
X3019397Y9709769D01*
X3019397Y9619594D02*
G01*
X3019397Y9582769D01*
X3019397Y9492594D02*
G01*
X3019397Y9455769D01*
X3019397Y9365594D02*
G01*
X3019397Y9328769D01*
X2761399Y9724181D02*
G01*
X2619397Y9724181D01*
X2619397Y9492594D02*
G01*
X2619397Y9455769D01*
X2619397Y9365594D02*
G01*
X2619397Y9328769D01*
X2619397Y9238594D02*
G01*
X2619397Y9224182D01*
X3019397Y9724181D02*
G01*
X2879394Y9724181D01*
X3019397Y9224182D02*
G01*
X2619397Y9224182D01*
X3019397Y9238594D02*
G01*
X3019397Y9224182D01*
X2228895Y11201377D02*
G01*
X2228895Y11391877D01*
X2431994Y11202977D02*
G01*
X1631995Y11202977D01*
X1631995Y11402976D01*
X2431994Y11402976D01*
X2431994Y11202977D01*
D11*
G75*
G01*
X1295430Y9551340D02*
G03*
X1310670Y9566582I0J15240D01*
G75*
G01*
X1310668Y9635820D02*
G03*
X1295430Y9651060I-15240J0D01*
G75*
G01*
X1092170Y9551340D02*
G02*
X1076932Y9566580I2J15240D01*
G75*
G01*
X1076930Y9635818D02*
G02*
X1092170Y9651060I15240J2D01*
D12*
G75*
G01*
X3199549Y10124361D02*
G02*
X3230532Y10155344I30983J0D01*
G75*
G01*
X3230532Y10013378D02*
G02*
X3199549Y10044364I0J30983D01*
G75*
G01*
X3448119Y10154763D02*
G02*
X3479101Y10123777I0J-30983D01*
G75*
G01*
X3479101Y10043780D02*
G02*
X3448119Y10012797I-30982J0D01*
G75*
G01*
X3199549Y9578261D02*
G02*
X3230532Y9609244I30983J0D01*
G75*
G01*
X3230532Y9467278D02*
G02*
X3199549Y9498264I0J30983D01*
G75*
G01*
X3448119Y9608663D02*
G02*
X3479101Y9577677I0J-30983D01*
G75*
G01*
X3479101Y9497680D02*
G02*
X3448119Y9466697I-30982J0D01*
G75*
G01*
X2879395Y7170486D02*
G02*
X2761394Y7170486I-59001J-4468D01*
G75*
G01*
X2879395Y7716583D02*
G02*
X2761394Y7716583I-59001J-4467D01*
G75*
G01*
X3199549Y7025561D02*
G02*
X3230532Y7056544I30983J0D01*
G75*
G01*
X3230532Y6914578D02*
G02*
X3199549Y6945564I0J30983D01*
G75*
G01*
X3448119Y7055963D02*
G02*
X3479101Y7024977I0J-30983D01*
G75*
G01*
X3479101Y6944980D02*
G02*
X3448119Y6913997I-30982J0D01*
G75*
G01*
X3199549Y7571661D02*
G02*
X3230532Y7602644I30983J0D01*
G75*
G01*
X3230532Y7460678D02*
G02*
X3199549Y7491664I0J30983D01*
G75*
G01*
X3448119Y7602063D02*
G02*
X3479101Y7571077I0J-30983D01*
G75*
G01*
X3479101Y7491080D02*
G02*
X3448119Y7460097I-30982J0D01*
G75*
G01*
X2879395Y8453183D02*
G02*
X2761394Y8453183I-59001J-4467D01*
G75*
G01*
X2879395Y8999281D02*
G02*
X2761394Y8999281I-59001J-4468D01*
G75*
G01*
X3199549Y8308261D02*
G02*
X3230532Y8339244I30983J0D01*
G75*
G01*
X3230532Y8197278D02*
G02*
X3199549Y8228264I0J30983D01*
G75*
G01*
X3448119Y8338663D02*
G02*
X3479101Y8307677I0J-30983D01*
G75*
G01*
X3479101Y8227680D02*
G02*
X3448119Y8196697I-30982J0D01*
G75*
G01*
X3199549Y8854361D02*
G02*
X3230532Y8885344I30983J0D01*
G75*
G01*
X3230532Y8743378D02*
G02*
X3199549Y8774364I0J30983D01*
G75*
G01*
X3448119Y8884763D02*
G02*
X3479101Y8853777I0J-30983D01*
G75*
G01*
X3479101Y8773780D02*
G02*
X3448119Y8742797I-30982J0D01*
D11*
G75*
G01*
X1408760Y9499630D02*
G03*
X1393520Y9514870I-15240J0D01*
G75*
G01*
X1324280Y9514870D02*
G03*
X1309040Y9499630I0J-15240D01*
G75*
G01*
X1408760Y9296370D02*
G02*
X1393520Y9281130I-15240J0D01*
G75*
G01*
X1324280Y9281130D02*
G02*
X1309040Y9296370I0J15240D01*
G75*
G01*
X1003270Y9409760D02*
G03*
X988030Y9394520I0J-15240D01*
G75*
G01*
X988030Y9325280D02*
G03*
X1003270Y9310040I15240J0D01*
G75*
G01*
X1206530Y9409760D02*
G02*
X1221770Y9394520I0J-15240D01*
G75*
G01*
X1221770Y9325280D02*
G02*
X1206530Y9310040I-15240J0D01*
G75*
G01*
X1410640Y9296370D02*
G03*
X1425882Y9281130I15240J0D01*
G75*
G01*
X1495120Y9281132D02*
G03*
X1510360Y9296370I0J15240D01*
G75*
G01*
X1410640Y9499630D02*
G02*
X1425880Y9514868I15240J-2D01*
G75*
G01*
X1495118Y9514870D02*
G02*
X1510360Y9499630I2J-15240D01*
G75*
G01*
X342872Y8317558D02*
G03*
X327632Y8302315I0J-15240D01*
G75*
G01*
X327635Y8233077D02*
G03*
X342872Y8217837I15240J0D01*
G75*
G01*
X546133Y8317558D02*
G02*
X561370Y8302318I-3J-15240D01*
G75*
G01*
X561373Y8233080D02*
G02*
X546133Y8217837I-15240J-3D01*
G75*
G01*
X1066770Y8304860D02*
G03*
X1051530Y8289618I0J-15240D01*
G75*
G01*
X1051532Y8220380D02*
G03*
X1066770Y8205140I15240J0D01*
G75*
G01*
X1270030Y8304860D02*
G02*
X1285268Y8289620I-2J-15240D01*
G75*
G01*
X1285270Y8220382D02*
G02*
X1270030Y8205140I-15240J-2D01*
G75*
G01*
X1066770Y8406460D02*
G03*
X1051530Y8391218I0J-15240D01*
G75*
G01*
X1051532Y8321980D02*
G03*
X1066770Y8306740I15240J0D01*
G75*
G01*
X1270030Y8406460D02*
G02*
X1285268Y8391220I-2J-15240D01*
G75*
G01*
X1285270Y8321982D02*
G02*
X1270030Y8306740I-15240J-2D01*
G75*
G01*
X1206530Y9411640D02*
G03*
X1221770Y9426882I0J15240D01*
G75*
G01*
X1221768Y9496120D02*
G03*
X1206530Y9511360I-15240J0D01*
G75*
G01*
X1003270Y9411640D02*
G02*
X988032Y9426880I2J15240D01*
G75*
G01*
X988030Y9496118D02*
G02*
X1003270Y9511360I15240J2D01*
G75*
G01*
X1308070Y8508060D02*
G03*
X1292830Y8492818I0J-15240D01*
G75*
G01*
X1292832Y8423580D02*
G03*
X1308070Y8408340I15240J0D01*
G75*
G01*
X1511330Y8508060D02*
G02*
X1526568Y8492820I-2J-15240D01*
G75*
G01*
X1526570Y8423582D02*
G02*
X1511330Y8408340I-15240J-2D01*
G75*
G01*
X1485870Y8838260D02*
G03*
X1470630Y8823018I0J-15240D01*
G75*
G01*
X1470632Y8753780D02*
G03*
X1485870Y8738540I15240J0D01*
G75*
G01*
X1689130Y8838260D02*
G02*
X1704368Y8823020I-2J-15240D01*
G75*
G01*
X1704370Y8753782D02*
G02*
X1689130Y8738540I-15240J-2D01*
G75*
G01*
X570563Y9207525D02*
G03*
X555320Y9222765I-15240J0D01*
G75*
G01*
X486082Y9222763D02*
G03*
X470842Y9207525I0J-15240D01*
G75*
G01*
X570563Y9004264D02*
G02*
X555323Y8989027I-15240J3D01*
G75*
G01*
X486085Y8989024D02*
G02*
X470842Y9004264I-3J15240D01*
G75*
G01*
X468963Y9207525D02*
G03*
X453720Y9222765I-15240J0D01*
G75*
G01*
X384482Y9222763D02*
G03*
X369242Y9207525I0J-15240D01*
G75*
G01*
X468963Y9004264D02*
G02*
X453723Y8989027I-15240J3D01*
G75*
G01*
X384485Y8989024D02*
G02*
X369242Y9004264I-3J15240D01*
G75*
G01*
X533430Y8725840D02*
G03*
X548670Y8741082I0J15240D01*
G75*
G01*
X548668Y8810320D02*
G03*
X533430Y8825560I-15240J0D01*
G75*
G01*
X330170Y8725840D02*
G02*
X314932Y8741080I2J15240D01*
G75*
G01*
X314930Y8810318D02*
G02*
X330170Y8825560I15240J2D01*
G75*
G01*
X355630Y8446440D02*
G03*
X370870Y8461682I0J15240D01*
G75*
G01*
X370868Y8530920D02*
G03*
X355630Y8546160I-15240J0D01*
G75*
G01*
X152370Y8446440D02*
G02*
X137132Y8461680I2J15240D01*
G75*
G01*
X137130Y8530918D02*
G02*
X152370Y8546160I15240J2D01*
D12*
G75*
G01*
X2879395Y10269278D02*
G02*
X2761394Y10269278I-59001J-4467D01*
G75*
G01*
X2879395Y9723181D02*
G02*
X2761394Y9723181I-59001J-4468D01*
G75*
G01
X2571750Y7188175D02*
G03X2571750Y7188175I-19050J0D01*
G75*
G01
X2571750Y7734275D02*
G03X2571750Y7734275I-19050J0D01*
G75*
G01
X2571750Y8470875D02*
G03X2571750Y8470875I-19050J0D01*
G75*
G01
X2571750Y9016975D02*
G03X2571750Y9016975I-19050J0D01*
G75*
G01
X628701Y9260002D02*
G03X628701Y9260002I-12700J0D01*
D15*
G75*
G01
X733908Y9296400D02*
G03X733908Y9296400I-10008J0D01*
D12*
G75*
G01
X523723Y8099374D02*
G03X523723Y8099374I-31623J0D01*
G75*
G01
X523723Y7464374D02*
G03X523723Y7464374I-31623J0D01*
G75*
G01
X2571750Y10286975D02*
G03X2571750Y10286975I-19050J0D01*
G75*
G01
X2571750Y9740875D02*
G03X2571750Y9740875I-19050J0D01*
X29311Y9728200D02*
G01*
X1803400Y9728200D01*
X1803400Y7962900D01*
X29311Y7962900D01*
X29311Y9728200D01*
X1803400Y10591800D02*
G01*
X3708400Y10591800D01*
X3708400Y6629400D01*
X1803400Y6629400D01*
X1803400Y10591800D01*
M02*
