G04 Layer: BottomSolderMaskLayer*
G04 EasyEDA v6.5.29, 2023-07-18 11:37:26*
G04 44a429887d2946ba859a18da238e0ce0,5a6b42c53f6a479593ecc07194224c93,10*
G04 Gerber Generator version 0.2*
G04 Scale: 100 percent, Rotated: No, Reflected: No *
G04 Dimensions in millimeters *
G04 leading zeros omitted , absolute positions ,4 integer and 5 decimal *
%FSLAX45Y45*%
%MOMM*%

%AMMACRO1*1,1,$1,$2,$3*1,1,$1,$4,$5*1,1,$1,0-$2,0-$3*1,1,$1,0-$4,0-$5*20,1,$1,$2,$3,$4,$5,0*20,1,$1,$4,$5,0-$2,0-$3,0*20,1,$1,0-$2,0-$3,0-$4,0-$5,0*20,1,$1,0-$4,0-$5,$2,$3,0*4,1,4,$2,$3,$4,$5,0-$2,0-$3,0-$4,0-$5,$2,$3,0*%
%ADD10MACRO1,0.1016X0.7X-1X-0.7X-1*%
%ADD11C,1.9016*%
%ADD12MACRO1,0.1016X0.9X-0.9X0.9X0.9*%
%ADD13C,1.8016*%
%ADD14MACRO1,0.1016X0.85X-0.85X0.85X0.85*%
%ADD15MACRO1,0.1016X-0.85X-0.85X0.85X-0.85*%
%ADD16C,1.5016*%
%ADD17MACRO1,0.1016X0.762X-0.7X-0.762X-0.7*%

%LPD*%
D10*
G01*
X1524000Y2514600D03*
G01*
X1778000Y2514600D03*
G01*
X3810000Y2514600D03*
G01*
X3556000Y2514600D03*
G01*
X3302000Y2514600D03*
G01*
X3048000Y2514600D03*
G01*
X2794000Y2514600D03*
G01*
X254000Y2514600D03*
G01*
X508000Y2514600D03*
G01*
X762000Y2514600D03*
G01*
X1016000Y2514600D03*
G01*
X1270000Y2514600D03*
G01*
X2032000Y2514600D03*
G01*
X2286000Y2514600D03*
G01*
X2540000Y2514600D03*
D11*
G01*
X3860800Y11061700D03*
D12*
G01*
X3860792Y6235700D03*
D11*
G01*
X3860800Y6489700D03*
G01*
X3860800Y6743700D03*
G01*
X3860800Y6997700D03*
G01*
X3860800Y7251700D03*
G01*
X3860800Y7505700D03*
G01*
X3860800Y7759700D03*
G01*
X3860800Y8013700D03*
G01*
X3860800Y8267700D03*
G01*
X3860800Y8521700D03*
G01*
X3860800Y8775700D03*
G01*
X3860800Y9029700D03*
G01*
X3860800Y9283700D03*
G01*
X3860800Y9537700D03*
G01*
X3860800Y9791700D03*
G01*
X3860800Y10045700D03*
G01*
X3860800Y10299700D03*
G01*
X3860800Y10553700D03*
G01*
X3860800Y10807700D03*
D13*
G01*
X952500Y5067300D03*
G01*
X952500Y4305300D03*
G01*
X952500Y4559300D03*
G01*
X952500Y4813300D03*
D14*
G01*
X2984500Y4305300D03*
D13*
G01*
X2984500Y4559300D03*
G01*
X2984500Y4813300D03*
G01*
X2984500Y5067300D03*
D15*
G01*
X2923796Y6455387D03*
D13*
G01*
X2669793Y6455384D03*
G01*
X2415793Y6455384D03*
G01*
X2161793Y6455384D03*
G01*
X1907793Y6455384D03*
G01*
X1653793Y6455384D03*
G01*
X1399793Y6455384D03*
G01*
X1145793Y6455384D03*
D16*
G01*
X1732000Y11302974D03*
G01*
X1932000Y11302974D03*
G01*
X2131999Y11302974D03*
D17*
G01*
X2331994Y11302977D03*
M02*
