G04 Layer: BottomSolderMaskLayer*
G04 EasyEDA v6.5.29, 2023-07-18 10:18:03*
G04 90495d7994f342159c24a82f0dd90fb3,5a6b42c53f6a479593ecc07194224c93,10*
G04 Gerber Generator version 0.2*
G04 Scale: 100 percent, Rotated: No, Reflected: No *
G04 Dimensions in millimeters *
G04 leading zeros omitted , absolute positions ,4 integer and 5 decimal *
%FSLAX45Y45*%
%MOMM*%

%AMMACRO1*1,1,$1,$2,$3*1,1,$1,$4,$5*1,1,$1,0-$2,0-$3*1,1,$1,0-$4,0-$5*20,1,$1,$2,$3,$4,$5,0*20,1,$1,$4,$5,0-$2,0-$3,0*20,1,$1,0-$2,0-$3,0-$4,0-$5,0*20,1,$1,0-$4,0-$5,$2,$3,0*4,1,4,$2,$3,$4,$5,0-$2,0-$3,0-$4,0-$5,$2,$3,0*%
%ADD10MACRO1,0.1016X-0.475X-0.575X0.475X-0.575*%
%ADD11C,1.9016*%
%ADD12MACRO1,0.1016X0.9X-0.9X0.9X0.9*%
%ADD13MACRO1,0.1016X-0.85X0.85X0.85X0.85*%
%ADD14C,1.8016*%
%ADD15MACRO1,0.1016X0.85X-0.85X-0.85X-0.85*%
%ADD16MACRO1,0.1016X-0.85X-0.85X-0.85X0.85*%
%ADD17C,5.2032*%
%ADD18C,1.9032*%
%ADD19C,2.7032*%
%ADD20C,2.6016*%

%LPD*%
D10*
G01*
X8377842Y2501894D03*
G01*
X8716322Y2501894D03*
G01*
X8377842Y2743194D03*
G01*
X8716322Y2743194D03*
D11*
G01*
X5930900Y7937500D03*
D12*
G01*
X5930886Y3111489D03*
D11*
G01*
X5930900Y3365500D03*
G01*
X5930900Y3619500D03*
G01*
X5930900Y3873500D03*
G01*
X5930900Y4127500D03*
G01*
X5930900Y4381500D03*
G01*
X5930900Y4635500D03*
G01*
X5930900Y4889500D03*
G01*
X5930900Y5143500D03*
G01*
X5930900Y5397500D03*
G01*
X5930900Y5651500D03*
G01*
X5930900Y5905500D03*
G01*
X5930900Y6159500D03*
G01*
X5930900Y6413500D03*
G01*
X5930900Y6667500D03*
G01*
X5930900Y6921500D03*
G01*
X5930900Y7175500D03*
G01*
X5930900Y7429500D03*
G01*
X5930900Y7683500D03*
D10*
G01*
X2980359Y10566400D03*
G01*
X3318840Y10566400D03*
G01*
X2980359Y10325100D03*
G01*
X3318840Y10325100D03*
D13*
G01*
X381001Y1015996D03*
D14*
G01*
X635000Y1016000D03*
D15*
G01*
X5753091Y1015996D03*
D14*
G01*
X5499100Y1016000D03*
D16*
G01*
X635000Y1904993D03*
D14*
G01*
X635000Y2159000D03*
G01*
X635000Y2413000D03*
G01*
X635000Y2667000D03*
D16*
G01*
X5499091Y1904993D03*
D14*
G01*
X5499100Y2159000D03*
G01*
X5499100Y2413000D03*
G01*
X5499100Y2667000D03*
D16*
G01*
X5930888Y1904993D03*
D14*
G01*
X5930900Y2159000D03*
G01*
X5930900Y2413000D03*
G01*
X5930900Y2667000D03*
D17*
G01*
X469900Y10858500D03*
D18*
G01*
X1435100Y10960100D03*
G01*
X1435100Y10706100D03*
G01*
X1943100Y10960100D03*
G01*
X1943100Y10706100D03*
D19*
G01*
X1687093Y10325100D03*
D20*
G01*
X2197100Y10325100D03*
D19*
G01*
X1179093Y10325100D03*
D14*
G01*
X4267200Y10960100D03*
G01*
X4267200Y10706100D03*
G01*
X4775200Y10960100D03*
G01*
X4775200Y10706100D03*
D20*
G01*
X4519193Y10325100D03*
G01*
X5029200Y10325100D03*
G01*
X4011193Y10325100D03*
D17*
G01*
X5737199Y10858500D03*
G01*
X471271Y1460500D03*
G01*
X5737199Y1460500D03*
G01*
X5285206Y9543313D03*
G01*
X990600Y9543313D03*
G01*
X5285206Y3352800D03*
G01*
X990600Y3352800D03*
G01*
X10714888Y1461211D03*
D20*
G01*
X7059168Y1054100D03*
G01*
X8077174Y1054100D03*
G01*
X7567168Y1054100D03*
D14*
G01*
X7823174Y1435100D03*
G01*
X7823174Y1689100D03*
G01*
X7315174Y1435100D03*
G01*
X7315174Y1689100D03*
G01*
X9234881Y1689100D03*
G01*
X9234881Y1435100D03*
G01*
X9742881Y1689100D03*
G01*
X9742881Y1435100D03*
D20*
G01*
X9486874Y1054100D03*
G01*
X9996881Y1054100D03*
G01*
X8978874Y1054100D03*
M02*
