G04 Layer: TopSilkscreenLayer*
G04 EasyEDA v6.5.29, 2023-07-18 10:18:03*
G04 90495d7994f342159c24a82f0dd90fb3,5a6b42c53f6a479593ecc07194224c93,10*
G04 Gerber Generator version 0.2*
G04 Scale: 100 percent, Rotated: No, Reflected: No *
G04 Dimensions in millimeters *
G04 leading zeros omitted , absolute positions ,4 integer and 5 decimal *
%FSLAX45Y45*%
%MOMM*%

%ADD10C,0.1524*%
%ADD11C,0.2030*%
%ADD12C,0.2032*%
%ADD13C,0.2540*%
%ADD14C,0.2030*%
%ADD15C,0.0198*%

%LPD*%
D10*
X2603754Y10247376D02*
G01*
X2594609Y10256265D01*
X2580893Y10260837D01*
X2562606Y10260837D01*
X2549143Y10256265D01*
X2540000Y10247376D01*
X2540000Y10238231D01*
X2544572Y10229087D01*
X2549143Y10224515D01*
X2558288Y10219944D01*
X2585465Y10210800D01*
X2594609Y10206481D01*
X2599181Y10201910D01*
X2603754Y10192765D01*
X2603754Y10179050D01*
X2594609Y10169905D01*
X2580893Y10165334D01*
X2562606Y10165334D01*
X2549143Y10169905D01*
X2540000Y10179050D01*
X2633725Y10242804D02*
G01*
X2642615Y10247376D01*
X2656331Y10260837D01*
X2656331Y10165334D01*
X5423154Y10247376D02*
G01*
X5414009Y10256265D01*
X5400293Y10260837D01*
X5382006Y10260837D01*
X5368543Y10256265D01*
X5359400Y10247376D01*
X5359400Y10238231D01*
X5363972Y10229087D01*
X5368543Y10224515D01*
X5377688Y10219944D01*
X5404865Y10210800D01*
X5414009Y10206481D01*
X5418581Y10201910D01*
X5423154Y10192765D01*
X5423154Y10179050D01*
X5414009Y10169905D01*
X5400293Y10165334D01*
X5382006Y10165334D01*
X5368543Y10169905D01*
X5359400Y10179050D01*
X5457697Y10238231D02*
G01*
X5457697Y10242804D01*
X5462015Y10251694D01*
X5466588Y10256265D01*
X5475731Y10260837D01*
X5494020Y10260837D01*
X5502909Y10256265D01*
X5507481Y10251694D01*
X5512054Y10242804D01*
X5512054Y10233660D01*
X5507481Y10224515D01*
X5498591Y10210800D01*
X5453125Y10165334D01*
X5516625Y10165334D01*
X5914666Y8230615D02*
G01*
X5914666Y8147558D01*
X5909586Y8131810D01*
X5904506Y8126729D01*
X5894092Y8121395D01*
X5883678Y8121395D01*
X5873264Y8126729D01*
X5867930Y8131810D01*
X5862850Y8147558D01*
X5862850Y8157971D01*
X5948956Y8209787D02*
G01*
X5959370Y8215121D01*
X5975118Y8230615D01*
X5975118Y8121395D01*
D11*
X923544Y6599428D02*
G01*
X918210Y6610350D01*
X907287Y6621271D01*
X896365Y6626860D01*
X874521Y6626860D01*
X863600Y6621271D01*
X852678Y6610350D01*
X847344Y6599428D01*
X841755Y6583171D01*
X841755Y6555994D01*
X847344Y6539484D01*
X852678Y6528562D01*
X863600Y6517639D01*
X874521Y6512305D01*
X896365Y6512305D01*
X907287Y6517639D01*
X918210Y6528562D01*
X923544Y6539484D01*
X992378Y6626860D02*
G01*
X981455Y6621271D01*
X970534Y6610350D01*
X965200Y6599428D01*
X959612Y6583171D01*
X959612Y6555994D01*
X965200Y6539484D01*
X970534Y6528562D01*
X981455Y6517639D01*
X992378Y6512305D01*
X1014221Y6512305D01*
X1025144Y6517639D01*
X1036065Y6528562D01*
X1041400Y6539484D01*
X1046987Y6555994D01*
X1046987Y6583171D01*
X1041400Y6599428D01*
X1036065Y6610350D01*
X1025144Y6621271D01*
X1014221Y6626860D01*
X992378Y6626860D01*
X1082802Y6626860D02*
G01*
X1082802Y6512305D01*
X1082802Y6626860D02*
G01*
X1132078Y6626860D01*
X1148334Y6621271D01*
X1153921Y6615937D01*
X1159255Y6605015D01*
X1159255Y6588505D01*
X1153921Y6577584D01*
X1148334Y6572250D01*
X1132078Y6566662D01*
X1082802Y6566662D01*
X1195323Y6626860D02*
G01*
X1239012Y6572250D01*
X1239012Y6512305D01*
X1282445Y6626860D02*
G01*
X1239012Y6572250D01*
X1318513Y6626860D02*
G01*
X1318513Y6512305D01*
X1318513Y6626860D02*
G01*
X1367536Y6626860D01*
X1384045Y6621271D01*
X1389379Y6615937D01*
X1394968Y6605015D01*
X1394968Y6594094D01*
X1389379Y6583171D01*
X1384045Y6577584D01*
X1367536Y6572250D01*
X1318513Y6572250D01*
X1356613Y6572250D02*
G01*
X1394968Y6512305D01*
X1430781Y6626860D02*
G01*
X1430781Y6512305D01*
X1548637Y6599428D02*
G01*
X1543304Y6610350D01*
X1532381Y6621271D01*
X1521460Y6626860D01*
X1499615Y6626860D01*
X1488694Y6621271D01*
X1477771Y6610350D01*
X1472437Y6599428D01*
X1466850Y6583171D01*
X1466850Y6555994D01*
X1472437Y6539484D01*
X1477771Y6528562D01*
X1488694Y6517639D01*
X1499615Y6512305D01*
X1521460Y6512305D01*
X1532381Y6517639D01*
X1543304Y6528562D01*
X1548637Y6539484D01*
X1548637Y6555994D01*
X1521460Y6555994D02*
G01*
X1548637Y6555994D01*
X1584705Y6626860D02*
G01*
X1584705Y6512305D01*
X1661160Y6626860D02*
G01*
X1661160Y6512305D01*
X1584705Y6572250D02*
G01*
X1661160Y6572250D01*
X1735328Y6626860D02*
G01*
X1735328Y6512305D01*
X1696973Y6626860D02*
G01*
X1773428Y6626860D01*
X1898904Y6599428D02*
G01*
X1898904Y6605015D01*
X1904237Y6615937D01*
X1909826Y6621271D01*
X1920747Y6626860D01*
X1942591Y6626860D01*
X1953513Y6621271D01*
X1958847Y6615937D01*
X1964436Y6605015D01*
X1964436Y6594094D01*
X1958847Y6583171D01*
X1947925Y6566662D01*
X1893570Y6512305D01*
X1969770Y6512305D01*
X2038604Y6626860D02*
G01*
X2022093Y6621271D01*
X2011172Y6605015D01*
X2005838Y6577584D01*
X2005838Y6561328D01*
X2011172Y6534150D01*
X2022093Y6517639D01*
X2038604Y6512305D01*
X2049525Y6512305D01*
X2065781Y6517639D01*
X2076704Y6534150D01*
X2082291Y6561328D01*
X2082291Y6577584D01*
X2076704Y6605015D01*
X2065781Y6621271D01*
X2049525Y6626860D01*
X2038604Y6626860D01*
X2123693Y6599428D02*
G01*
X2123693Y6605015D01*
X2129027Y6615937D01*
X2134615Y6621271D01*
X2145538Y6626860D01*
X2167381Y6626860D01*
X2178050Y6621271D01*
X2183638Y6615937D01*
X2188972Y6605015D01*
X2188972Y6594094D01*
X2183638Y6583171D01*
X2172715Y6566662D01*
X2118106Y6512305D01*
X2194559Y6512305D01*
X2241550Y6626860D02*
G01*
X2301493Y6626860D01*
X2268727Y6583171D01*
X2284984Y6583171D01*
X2295906Y6577584D01*
X2301493Y6572250D01*
X2306827Y6555994D01*
X2306827Y6545071D01*
X2301493Y6528562D01*
X2290572Y6517639D01*
X2274061Y6512305D01*
X2257806Y6512305D01*
X2241550Y6517639D01*
X2235961Y6523228D01*
X2230627Y6534150D01*
X2426970Y6626860D02*
G01*
X2470658Y6512305D01*
X2514091Y6626860D02*
G01*
X2470658Y6512305D01*
X2550159Y6626860D02*
G01*
X2550159Y6512305D01*
X2550159Y6626860D02*
G01*
X2621025Y6626860D01*
X2550159Y6572250D02*
G01*
X2593847Y6572250D01*
X2550159Y6512305D02*
G01*
X2621025Y6512305D01*
X2733547Y6626860D02*
G01*
X2678938Y6512305D01*
X2657093Y6626860D02*
G01*
X2733547Y6626860D01*
X2769361Y6626860D02*
G01*
X2769361Y6512305D01*
X2769361Y6626860D02*
G01*
X2840227Y6626860D01*
X2769361Y6572250D02*
G01*
X2813050Y6572250D01*
X2876295Y6626860D02*
G01*
X2876295Y6512305D01*
X2912363Y6626860D02*
G01*
X2912363Y6512305D01*
X2912363Y6626860D02*
G01*
X2956052Y6512305D01*
X2999740Y6626860D02*
G01*
X2956052Y6512305D01*
X2999740Y6626860D02*
G01*
X2999740Y6512305D01*
X3119627Y6561328D02*
G01*
X3217925Y6561328D01*
X3381502Y6626860D02*
G01*
X3337813Y6512305D01*
X3381502Y6626860D02*
G01*
X3425190Y6512305D01*
X3354070Y6550405D02*
G01*
X3408679Y6550405D01*
X3461004Y6626860D02*
G01*
X3461004Y6512305D01*
X3461004Y6512305D02*
G01*
X3526536Y6512305D01*
X3562604Y6626860D02*
G01*
X3562604Y6512305D01*
X3562604Y6512305D02*
G01*
X3627881Y6512305D01*
X3748024Y6626860D02*
G01*
X3748024Y6512305D01*
X3748024Y6626860D02*
G01*
X3797045Y6626860D01*
X3813556Y6621271D01*
X3818890Y6615937D01*
X3824477Y6605015D01*
X3824477Y6594094D01*
X3818890Y6583171D01*
X3813556Y6577584D01*
X3797045Y6572250D01*
X3748024Y6572250D01*
X3786124Y6572250D02*
G01*
X3824477Y6512305D01*
X3860291Y6626860D02*
G01*
X3860291Y6512305D01*
X3978147Y6599428D02*
G01*
X3972813Y6610350D01*
X3961891Y6621271D01*
X3950970Y6626860D01*
X3929125Y6626860D01*
X3918204Y6621271D01*
X3907281Y6610350D01*
X3901693Y6599428D01*
X3896359Y6583171D01*
X3896359Y6555994D01*
X3901693Y6539484D01*
X3907281Y6528562D01*
X3918204Y6517639D01*
X3929125Y6512305D01*
X3950970Y6512305D01*
X3961891Y6517639D01*
X3972813Y6528562D01*
X3978147Y6539484D01*
X3978147Y6555994D01*
X3950970Y6555994D02*
G01*
X3978147Y6555994D01*
X4014215Y6626860D02*
G01*
X4014215Y6512305D01*
X4090415Y6626860D02*
G01*
X4090415Y6512305D01*
X4014215Y6572250D02*
G01*
X4090415Y6572250D01*
X4164838Y6626860D02*
G01*
X4164838Y6512305D01*
X4126484Y6626860D02*
G01*
X4202938Y6626860D01*
X4315206Y6610350D02*
G01*
X4304284Y6621271D01*
X4288027Y6626860D01*
X4266184Y6626860D01*
X4249927Y6621271D01*
X4239006Y6610350D01*
X4239006Y6599428D01*
X4244340Y6588505D01*
X4249927Y6583171D01*
X4260595Y6577584D01*
X4293361Y6566662D01*
X4304284Y6561328D01*
X4309872Y6555994D01*
X4315206Y6545071D01*
X4315206Y6528562D01*
X4304284Y6517639D01*
X4288027Y6512305D01*
X4266184Y6512305D01*
X4249927Y6517639D01*
X4239006Y6528562D01*
X4435347Y6626860D02*
G01*
X4435347Y6512305D01*
X4435347Y6626860D02*
G01*
X4484370Y6626860D01*
X4500625Y6621271D01*
X4506213Y6615937D01*
X4511547Y6605015D01*
X4511547Y6594094D01*
X4506213Y6583171D01*
X4500625Y6577584D01*
X4484370Y6572250D01*
X4435347Y6572250D01*
X4473447Y6572250D02*
G01*
X4511547Y6512305D01*
X4547615Y6626860D02*
G01*
X4547615Y6512305D01*
X4547615Y6626860D02*
G01*
X4618481Y6626860D01*
X4547615Y6572250D02*
G01*
X4591304Y6572250D01*
X4547615Y6512305D02*
G01*
X4618481Y6512305D01*
X4731004Y6610350D02*
G01*
X4720081Y6621271D01*
X4703572Y6626860D01*
X4681727Y6626860D01*
X4665472Y6621271D01*
X4654550Y6610350D01*
X4654550Y6599428D01*
X4659884Y6588505D01*
X4665472Y6583171D01*
X4676393Y6577584D01*
X4709159Y6566662D01*
X4720081Y6561328D01*
X4725415Y6555994D01*
X4731004Y6545071D01*
X4731004Y6528562D01*
X4720081Y6517639D01*
X4703572Y6512305D01*
X4681727Y6512305D01*
X4665472Y6517639D01*
X4654550Y6528562D01*
X4766818Y6626860D02*
G01*
X4766818Y6512305D01*
X4766818Y6626860D02*
G01*
X4837684Y6626860D01*
X4766818Y6572250D02*
G01*
X4810506Y6572250D01*
X4766818Y6512305D02*
G01*
X4837684Y6512305D01*
X4873752Y6626860D02*
G01*
X4873752Y6512305D01*
X4873752Y6626860D02*
G01*
X4922774Y6626860D01*
X4939284Y6621271D01*
X4944618Y6615937D01*
X4950206Y6605015D01*
X4950206Y6594094D01*
X4944618Y6583171D01*
X4939284Y6577584D01*
X4922774Y6572250D01*
X4873752Y6572250D01*
X4912106Y6572250D02*
G01*
X4950206Y6512305D01*
X4986274Y6626860D02*
G01*
X5029708Y6512305D01*
X5073395Y6626860D02*
G01*
X5029708Y6512305D01*
X5109463Y6626860D02*
G01*
X5109463Y6512305D01*
X5109463Y6626860D02*
G01*
X5180329Y6626860D01*
X5109463Y6572250D02*
G01*
X5153152Y6572250D01*
X5109463Y6512305D02*
G01*
X5180329Y6512305D01*
X5216397Y6626860D02*
G01*
X5216397Y6512305D01*
X5216397Y6626860D02*
G01*
X5254497Y6626860D01*
X5271008Y6621271D01*
X5281675Y6610350D01*
X5287263Y6599428D01*
X5292597Y6583171D01*
X5292597Y6555994D01*
X5287263Y6539484D01*
X5281675Y6528562D01*
X5271008Y6517639D01*
X5254497Y6512305D01*
X5216397Y6512305D01*
D12*
X2623614Y3728925D02*
G01*
X2623614Y3641549D01*
X2618026Y3625293D01*
X2612692Y3619705D01*
X2601770Y3614371D01*
X2590848Y3614371D01*
X2579926Y3619705D01*
X2574338Y3625293D01*
X2569004Y3641549D01*
X2569004Y3652471D01*
X2659428Y3728925D02*
G01*
X2659428Y3614371D01*
X2659428Y3614371D02*
G01*
X2724960Y3614371D01*
X2842816Y3701493D02*
G01*
X2837482Y3712415D01*
X2826560Y3723337D01*
X2815638Y3728925D01*
X2793794Y3728925D01*
X2782872Y3723337D01*
X2771950Y3712415D01*
X2766362Y3701493D01*
X2761028Y3685237D01*
X2761028Y3658059D01*
X2766362Y3641549D01*
X2771950Y3630627D01*
X2782872Y3619705D01*
X2793794Y3614371D01*
X2815638Y3614371D01*
X2826560Y3619705D01*
X2837482Y3630627D01*
X2842816Y3641549D01*
X2933240Y3728925D02*
G01*
X2933240Y3641549D01*
X2927906Y3625293D01*
X2922572Y3619705D01*
X2911650Y3614371D01*
X2900728Y3614371D01*
X2889806Y3619705D01*
X2884218Y3625293D01*
X2878884Y3641549D01*
X2878884Y3652471D01*
X2969308Y3728925D02*
G01*
X2969308Y3614371D01*
X2969308Y3614371D02*
G01*
X3034840Y3614371D01*
X3152696Y3701493D02*
G01*
X3147108Y3712415D01*
X3136186Y3723337D01*
X3125264Y3728925D01*
X3103674Y3728925D01*
X3092752Y3723337D01*
X3081830Y3712415D01*
X3076242Y3701493D01*
X3070908Y3685237D01*
X3070908Y3658059D01*
X3076242Y3641549D01*
X3081830Y3630627D01*
X3092752Y3619705D01*
X3103674Y3614371D01*
X3125264Y3614371D01*
X3136186Y3619705D01*
X3147108Y3630627D01*
X3152696Y3641549D01*
X3243120Y3728925D02*
G01*
X3243120Y3641549D01*
X3237786Y3625293D01*
X3232198Y3619705D01*
X3221276Y3614371D01*
X3210354Y3614371D01*
X3199432Y3619705D01*
X3194098Y3625293D01*
X3188764Y3641549D01*
X3188764Y3652471D01*
X3279188Y3728925D02*
G01*
X3279188Y3614371D01*
X3279188Y3614371D02*
G01*
X3344720Y3614371D01*
X3462576Y3701493D02*
G01*
X3456988Y3712415D01*
X3446066Y3723337D01*
X3435144Y3728925D01*
X3413300Y3728925D01*
X3402378Y3723337D01*
X3391456Y3712415D01*
X3386122Y3701493D01*
X3380534Y3685237D01*
X3380534Y3658059D01*
X3386122Y3641549D01*
X3391456Y3630627D01*
X3402378Y3619705D01*
X3413300Y3614371D01*
X3435144Y3614371D01*
X3446066Y3619705D01*
X3456988Y3630627D01*
X3462576Y3641549D01*
X3553000Y3728925D02*
G01*
X3553000Y3641549D01*
X3547666Y3625293D01*
X3542078Y3619705D01*
X3531156Y3614371D01*
X3520234Y3614371D01*
X3509312Y3619705D01*
X3503978Y3625293D01*
X3498390Y3641549D01*
X3498390Y3652471D01*
X3589068Y3728925D02*
G01*
X3589068Y3614371D01*
X3589068Y3614371D02*
G01*
X3654346Y3614371D01*
X3772202Y3701493D02*
G01*
X3766868Y3712415D01*
X3755946Y3723337D01*
X3745024Y3728925D01*
X3723180Y3728925D01*
X3712258Y3723337D01*
X3701336Y3712415D01*
X3696002Y3701493D01*
X3690414Y3685237D01*
X3690414Y3658059D01*
X3696002Y3641549D01*
X3701336Y3630627D01*
X3712258Y3619705D01*
X3723180Y3614371D01*
X3745024Y3614371D01*
X3755946Y3619705D01*
X3766868Y3630627D01*
X3772202Y3641549D01*
X575104Y9939154D02*
G01*
X575104Y9824610D01*
X575104Y9939154D02*
G01*
X624194Y9939154D01*
X640557Y9933701D01*
X646013Y9928247D01*
X651466Y9917338D01*
X651466Y9900973D01*
X646013Y9890064D01*
X640557Y9884610D01*
X624194Y9879154D01*
X575104Y9879154D01*
X687468Y9939154D02*
G01*
X687468Y9824610D01*
X805286Y9911882D02*
G01*
X799830Y9922791D01*
X788921Y9933701D01*
X778012Y9939154D01*
X756193Y9939154D01*
X745286Y9933701D01*
X734377Y9922791D01*
X728921Y9911882D01*
X723468Y9895519D01*
X723468Y9868247D01*
X728921Y9851882D01*
X734377Y9840973D01*
X745286Y9830064D01*
X756193Y9824610D01*
X778012Y9824610D01*
X788921Y9830064D01*
X799830Y9840973D01*
X805286Y9851882D01*
X874013Y9939154D02*
G01*
X863104Y9933701D01*
X852195Y9922791D01*
X846739Y9911882D01*
X841286Y9895519D01*
X841286Y9868247D01*
X846739Y9851882D01*
X852195Y9840973D01*
X863104Y9830064D01*
X874013Y9824610D01*
X895830Y9824610D01*
X906739Y9830064D01*
X917648Y9840973D01*
X923104Y9851882D01*
X928557Y9868247D01*
X928557Y9895519D01*
X923104Y9911882D01*
X917648Y9922791D01*
X906739Y9933701D01*
X895830Y9939154D01*
X874013Y9939154D01*
X964557Y9873701D02*
G01*
X1062738Y9873701D01*
X1098740Y9939154D02*
G01*
X1098740Y9824610D01*
X1098740Y9939154D02*
G01*
X1147831Y9939154D01*
X1164193Y9933701D01*
X1169649Y9928247D01*
X1175103Y9917338D01*
X1175103Y9906429D01*
X1169649Y9895519D01*
X1164193Y9890064D01*
X1147831Y9884610D01*
X1098740Y9884610D01*
X1136921Y9884610D02*
G01*
X1175103Y9824610D01*
X1211102Y9939154D02*
G01*
X1211102Y9824610D01*
X1211102Y9939154D02*
G01*
X1282011Y9939154D01*
X1211102Y9884610D02*
G01*
X1254739Y9884610D01*
X1211102Y9824610D02*
G01*
X1282011Y9824610D01*
X1394376Y9922791D02*
G01*
X1383466Y9933701D01*
X1367101Y9939154D01*
X1345285Y9939154D01*
X1328920Y9933701D01*
X1318011Y9922791D01*
X1318011Y9911882D01*
X1323467Y9900973D01*
X1328920Y9895519D01*
X1339829Y9890064D01*
X1372557Y9879154D01*
X1383466Y9873701D01*
X1388920Y9868247D01*
X1394376Y9857338D01*
X1394376Y9840973D01*
X1383466Y9830064D01*
X1367101Y9824610D01*
X1345285Y9824610D01*
X1328920Y9830064D01*
X1318011Y9840973D01*
X1468556Y9939154D02*
G01*
X1468556Y9824610D01*
X1430375Y9939154D02*
G01*
X1506738Y9939154D01*
X1575465Y9939154D02*
G01*
X1564556Y9933701D01*
X1553646Y9922791D01*
X1548193Y9911882D01*
X1542737Y9895519D01*
X1542737Y9868247D01*
X1548193Y9851882D01*
X1553646Y9840973D01*
X1564556Y9830064D01*
X1575465Y9824610D01*
X1597284Y9824610D01*
X1608193Y9830064D01*
X1619102Y9840973D01*
X1624556Y9851882D01*
X1630011Y9868247D01*
X1630011Y9895519D01*
X1624556Y9911882D01*
X1619102Y9922791D01*
X1608193Y9933701D01*
X1597284Y9939154D01*
X1575465Y9939154D01*
X1666011Y9939154D02*
G01*
X1666011Y9857338D01*
X1671464Y9840973D01*
X1682374Y9830064D01*
X1698739Y9824610D01*
X1709648Y9824610D01*
X1726011Y9830064D01*
X1736920Y9840973D01*
X1742373Y9857338D01*
X1742373Y9939154D01*
X1860191Y9911882D02*
G01*
X1854738Y9922791D01*
X1843829Y9933701D01*
X1832919Y9939154D01*
X1811101Y9939154D01*
X1800191Y9933701D01*
X1789282Y9922791D01*
X1783829Y9911882D01*
X1778373Y9895519D01*
X1778373Y9868247D01*
X1783829Y9851882D01*
X1789282Y9840973D01*
X1800191Y9830064D01*
X1811101Y9824610D01*
X1832919Y9824610D01*
X1843829Y9830064D01*
X1854738Y9840973D01*
X1860191Y9851882D01*
X1896191Y9939154D02*
G01*
X1896191Y9824610D01*
X1972556Y9939154D02*
G01*
X1972556Y9824610D01*
X1896191Y9884610D02*
G01*
X1972556Y9884610D01*
X2008555Y9873701D02*
G01*
X2106736Y9873701D01*
X2142736Y9939154D02*
G01*
X2142736Y9824610D01*
X2142736Y9824610D02*
G01*
X2208192Y9824610D01*
X2326010Y9911882D02*
G01*
X2320554Y9922791D01*
X2309647Y9933701D01*
X2298738Y9939154D01*
X2276919Y9939154D01*
X2266010Y9933701D01*
X2255100Y9922791D01*
X2249647Y9911882D01*
X2244191Y9895519D01*
X2244191Y9868247D01*
X2249647Y9851882D01*
X2255100Y9840973D01*
X2266010Y9830064D01*
X2276919Y9824610D01*
X2298738Y9824610D01*
X2309647Y9830064D01*
X2320554Y9840973D01*
X2326010Y9851882D01*
X2362009Y9939154D02*
G01*
X2362009Y9824610D01*
X2362009Y9939154D02*
G01*
X2400190Y9939154D01*
X2416556Y9933701D01*
X2427465Y9922791D01*
X2432918Y9911882D01*
X2438372Y9895519D01*
X2438372Y9868247D01*
X2432918Y9851882D01*
X2427465Y9840973D01*
X2416556Y9830064D01*
X2400190Y9824610D01*
X2362009Y9824610D01*
X2474374Y9873701D02*
G01*
X2572555Y9873701D01*
X2619463Y9939154D02*
G01*
X2679463Y9939154D01*
X2646735Y9895519D01*
X2663101Y9895519D01*
X2674010Y9890064D01*
X2679463Y9884610D01*
X2684917Y9868247D01*
X2684917Y9857338D01*
X2679463Y9840973D01*
X2668554Y9830064D01*
X2652191Y9824610D01*
X2635826Y9824610D01*
X2619463Y9830064D01*
X2614010Y9835520D01*
X2608554Y9846429D01*
X2726372Y9851882D02*
G01*
X2720919Y9846429D01*
X2726372Y9840973D01*
X2731828Y9846429D01*
X2726372Y9851882D01*
X2833281Y9939154D02*
G01*
X2778737Y9939154D01*
X2773281Y9890064D01*
X2778737Y9895519D01*
X2795099Y9900973D01*
X2811462Y9900973D01*
X2827827Y9895519D01*
X2838737Y9884610D01*
X2844190Y9868247D01*
X2844190Y9857338D01*
X2838737Y9840973D01*
X2827827Y9830064D01*
X2811462Y9824610D01*
X2795099Y9824610D01*
X2778737Y9830064D01*
X2773281Y9835520D01*
X2767827Y9846429D01*
D10*
X8483594Y976363D02*
G01*
X8474704Y985253D01*
X8460988Y989825D01*
X8442700Y989825D01*
X8429238Y985253D01*
X8420094Y976363D01*
X8420094Y967219D01*
X8424666Y958075D01*
X8429238Y953503D01*
X8438382Y948931D01*
X8465560Y939787D01*
X8474704Y935469D01*
X8479276Y930897D01*
X8483594Y921753D01*
X8483594Y908037D01*
X8474704Y898893D01*
X8460988Y894575D01*
X8442700Y894575D01*
X8429238Y898893D01*
X8420094Y908037D01*
X8522710Y989825D02*
G01*
X8572748Y989825D01*
X8545570Y953503D01*
X8559286Y953503D01*
X8568176Y948931D01*
X8572748Y944359D01*
X8577320Y930897D01*
X8577320Y921753D01*
X8572748Y908037D01*
X8563604Y898893D01*
X8550142Y894575D01*
X8536426Y894575D01*
X8522710Y898893D01*
X8518392Y903465D01*
X8513820Y912609D01*
X10403339Y976386D02*
G01*
X10394449Y985276D01*
X10380733Y989848D01*
X10362445Y989848D01*
X10348983Y985276D01*
X10339839Y976386D01*
X10339839Y967242D01*
X10344411Y958098D01*
X10348983Y953526D01*
X10357873Y948954D01*
X10385305Y939810D01*
X10394449Y935238D01*
X10398767Y930920D01*
X10403339Y921776D01*
X10403339Y908060D01*
X10394449Y898916D01*
X10380733Y894344D01*
X10362445Y894344D01*
X10348983Y898916D01*
X10339839Y908060D01*
X10478777Y989848D02*
G01*
X10433311Y926348D01*
X10501637Y926348D01*
X10478777Y989848D02*
G01*
X10478777Y894344D01*
X848771Y1060457D02*
G01*
X848771Y977399D01*
X843437Y961651D01*
X838357Y956571D01*
X827943Y951491D01*
X817529Y951491D01*
X807115Y956571D01*
X801781Y961651D01*
X796701Y977399D01*
X796701Y987813D01*
X945291Y1060457D02*
G01*
X893221Y1060457D01*
X888141Y1013721D01*
X893221Y1018801D01*
X908969Y1024135D01*
X924463Y1024135D01*
X940211Y1018801D01*
X950371Y1008641D01*
X955705Y992893D01*
X955705Y982479D01*
X950371Y966985D01*
X940211Y956571D01*
X924463Y951491D01*
X908969Y951491D01*
X893221Y956571D01*
X888141Y961651D01*
X883061Y972065D01*
X5972210Y1073157D02*
G01*
X5972210Y990099D01*
X5966876Y974351D01*
X5961796Y969271D01*
X5951382Y964191D01*
X5940968Y964191D01*
X5930554Y969271D01*
X5925220Y974351D01*
X5920140Y990099D01*
X5920140Y1000513D01*
X6068730Y1057663D02*
G01*
X6063650Y1068077D01*
X6047902Y1073157D01*
X6037488Y1073157D01*
X6021994Y1068077D01*
X6011580Y1052329D01*
X6006500Y1026421D01*
X6006500Y1000513D01*
X6011580Y979685D01*
X6021994Y969271D01*
X6037488Y964191D01*
X6042822Y964191D01*
X6058316Y969271D01*
X6068730Y979685D01*
X6073810Y995179D01*
X6073810Y1000513D01*
X6068730Y1016007D01*
X6058316Y1026421D01*
X6042822Y1031501D01*
X6037488Y1031501D01*
X6021994Y1026421D01*
X6011580Y1016007D01*
X6006500Y1000513D01*
X610870Y2960115D02*
G01*
X610870Y2877057D01*
X605536Y2861310D01*
X600455Y2856229D01*
X590042Y2851150D01*
X579628Y2851150D01*
X569213Y2856229D01*
X563879Y2861310D01*
X558800Y2877057D01*
X558800Y2887471D01*
X650239Y2934207D02*
G01*
X650239Y2939287D01*
X655320Y2949702D01*
X660654Y2955036D01*
X671068Y2960115D01*
X691895Y2960115D01*
X702310Y2955036D01*
X707389Y2949702D01*
X712470Y2939287D01*
X712470Y2928873D01*
X707389Y2918460D01*
X696976Y2902965D01*
X645160Y2851150D01*
X717804Y2851150D01*
X5474962Y2960115D02*
G01*
X5474962Y2877057D01*
X5469630Y2861310D01*
X5464548Y2856229D01*
X5454134Y2851150D01*
X5443720Y2851150D01*
X5433306Y2856229D01*
X5427972Y2861310D01*
X5422894Y2877057D01*
X5422894Y2887471D01*
X5519412Y2960115D02*
G01*
X5576562Y2960115D01*
X5545576Y2918460D01*
X5561068Y2918460D01*
X5571482Y2913379D01*
X5576562Y2908300D01*
X5581896Y2892552D01*
X5581896Y2882137D01*
X5576562Y2866644D01*
X5566402Y2856229D01*
X5550654Y2851150D01*
X5535162Y2851150D01*
X5519412Y2856229D01*
X5514332Y2861310D01*
X5509252Y2871723D01*
X5906515Y2960115D02*
G01*
X5906515Y2877057D01*
X5901436Y2861310D01*
X5896356Y2856229D01*
X5885941Y2851150D01*
X5875527Y2851150D01*
X5865113Y2856229D01*
X5859779Y2861310D01*
X5854700Y2877057D01*
X5854700Y2887471D01*
X5992875Y2960115D02*
G01*
X5940806Y2887471D01*
X6018784Y2887471D01*
X5992875Y2960115D02*
G01*
X5992875Y2851150D01*
D13*
X10248894Y838197D02*
G01*
X10250891Y2349497D01*
X8739591Y838197D02*
G01*
X10250891Y838197D01*
X8737594Y2349497D02*
G01*
X10250891Y2349497D01*
X8737594Y838197D02*
G01*
X8737594Y2337498D01*
X8329185Y838200D02*
G01*
X8331182Y2349500D01*
X6819882Y838200D02*
G01*
X8331182Y838200D01*
X6817885Y2349500D02*
G01*
X8331182Y2349500D01*
X6817885Y838200D02*
G01*
X6817885Y2337501D01*
X5281203Y10109200D02*
G01*
X5283200Y11620500D01*
X3771900Y10109200D02*
G01*
X5283200Y10109200D01*
X3769903Y11620500D02*
G01*
X5283200Y11620500D01*
X3769903Y10109200D02*
G01*
X3769903Y11608501D01*
X2449103Y10109200D02*
G01*
X2451100Y11620500D01*
X939800Y10109200D02*
G01*
X2451100Y10109200D01*
X937803Y11620500D02*
G01*
X2451100Y11620500D01*
X937803Y10109200D02*
G01*
X937803Y11608501D01*
D12*
X762000Y1142997D02*
G01*
X762000Y888997D01*
X254000Y888997D01*
X254000Y1142997D01*
X444500Y1142997D01*
D14*
X762000Y1142997D02*
G01*
X444500Y1142997D01*
D12*
X5372089Y888997D02*
G01*
X5372089Y1142997D01*
X5880089Y1142997D01*
X5880089Y888997D01*
X5689589Y888997D01*
D14*
X5372089Y888997D02*
G01*
X5689589Y888997D01*
D13*
X508000Y2814993D02*
G01*
X762000Y2814993D01*
X508000Y1756991D02*
G01*
X508000Y2814993D01*
X508000Y2034341D02*
G01*
X762000Y2034341D01*
X762000Y1756991D02*
G01*
X762000Y2814993D01*
X508000Y1756991D02*
G01*
X762000Y1756991D01*
X5372089Y2814993D02*
G01*
X5626089Y2814993D01*
X5372089Y1756991D02*
G01*
X5372089Y2814993D01*
X5372089Y2034341D02*
G01*
X5626089Y2034341D01*
X5626089Y1756991D02*
G01*
X5626089Y2814993D01*
X5372089Y1756991D02*
G01*
X5626089Y1756991D01*
X5803887Y2814993D02*
G01*
X6057887Y2814993D01*
X5803887Y1756991D02*
G01*
X5803887Y2814993D01*
X5803887Y2034341D02*
G01*
X6057887Y2034341D01*
X6057887Y1756991D02*
G01*
X6057887Y2814993D01*
X5803887Y1756991D02*
G01*
X6057887Y1756991D01*
X510895Y10002799D02*
G01*
X5630875Y10002799D01*
X5630875Y2992399D01*
X510895Y2992399D01*
X510895Y10002799D01*
M02*
