G04 Layer: TopLayer*
G04 EasyEDA v6.5.29, 2023-07-18 10:18:03*
G04 90495d7994f342159c24a82f0dd90fb3,5a6b42c53f6a479593ecc07194224c93,10*
G04 Gerber Generator version 0.2*
G04 Scale: 100 percent, Rotated: No, Reflected: No *
G04 Dimensions in millimeters *
G04 leading zeros omitted , absolute positions ,4 integer and 5 decimal *
%FSLAX45Y45*%
%MOMM*%

%AMMACRO1*21,1,$1,$2,0,0,$3*%
%ADD10C,0.2540*%
%ADD11C,1.8000*%
%ADD12MACRO1,1.8X1.8X90.0000*%
%ADD13R,1.7000X1.7000*%
%ADD14C,1.7000*%
%ADD15C,5.0000*%
%ADD16C,2.5000*%
%ADD17C,0.6096*%
%ADD18C,0.0176*%

%LPD*%
G36*
X5751068Y7575194D02*
G01*
X5747156Y7575956D01*
X5743905Y7578140D01*
X5741670Y7581442D01*
X5740908Y7585354D01*
X5740908Y9810191D01*
X5741670Y9814102D01*
X5743905Y9817404D01*
X5745480Y9818979D01*
X5751068Y9827006D01*
X5755233Y9835896D01*
X5757773Y9845395D01*
X5758637Y9855200D01*
X5757773Y9864953D01*
X5755233Y9874453D01*
X5751068Y9883343D01*
X5745480Y9891420D01*
X5738520Y9898329D01*
X5730443Y9903968D01*
X5721553Y9908133D01*
X5712053Y9910673D01*
X5702300Y9911537D01*
X5692495Y9910673D01*
X5682996Y9908133D01*
X5674106Y9903968D01*
X5666079Y9898329D01*
X5659120Y9891420D01*
X5653481Y9883343D01*
X5649315Y9874453D01*
X5646775Y9864953D01*
X5645962Y9855200D01*
X5646775Y9845395D01*
X5649315Y9835896D01*
X5653481Y9827006D01*
X5659120Y9818979D01*
X5660694Y9817354D01*
X5662930Y9814052D01*
X5663692Y9810191D01*
X5663692Y9094774D01*
X5662980Y9091015D01*
X5660898Y9087764D01*
X5657748Y9085529D01*
X5653989Y9084614D01*
X5650179Y9085173D01*
X5648147Y9085884D01*
X5641848Y9086596D01*
X4901488Y9086596D01*
X4897831Y9087307D01*
X4894681Y9089237D01*
X4892446Y9092184D01*
X4891379Y9095689D01*
X4891684Y9099397D01*
X4894173Y9108795D01*
X4895037Y9118600D01*
X4894173Y9128353D01*
X4891633Y9137853D01*
X4887468Y9146743D01*
X4881880Y9154820D01*
X4880305Y9156395D01*
X4878070Y9159646D01*
X4877308Y9163558D01*
X4877308Y10249103D01*
X4878273Y10253421D01*
X4880965Y10256926D01*
X4884928Y10258907D01*
X4889347Y10259060D01*
X4893411Y10257332D01*
X4896358Y10253980D01*
X4901438Y10244836D01*
X4911242Y10231018D01*
X4922520Y10218420D01*
X4935118Y10207142D01*
X4948936Y10197338D01*
X4963718Y10189159D01*
X4979365Y10182656D01*
X4995621Y10177983D01*
X5012283Y10175138D01*
X5029200Y10174224D01*
X5046116Y10175138D01*
X5062778Y10177983D01*
X5079034Y10182656D01*
X5094681Y10189159D01*
X5109464Y10197338D01*
X5123281Y10207142D01*
X5135880Y10218420D01*
X5147157Y10231018D01*
X5156962Y10244836D01*
X5165140Y10259618D01*
X5171643Y10275265D01*
X5176316Y10291521D01*
X5179161Y10308183D01*
X5180076Y10325100D01*
X5179161Y10342016D01*
X5176316Y10358678D01*
X5171643Y10374934D01*
X5165140Y10390581D01*
X5156962Y10405364D01*
X5147157Y10419181D01*
X5135880Y10431780D01*
X5123281Y10443057D01*
X5109464Y10452862D01*
X5094681Y10461040D01*
X5079034Y10467543D01*
X5062778Y10472216D01*
X5046116Y10475061D01*
X5029200Y10475976D01*
X5012283Y10475061D01*
X4995621Y10472216D01*
X4979365Y10467543D01*
X4963718Y10461040D01*
X4948936Y10452862D01*
X4935118Y10443057D01*
X4922520Y10431780D01*
X4911242Y10419181D01*
X4901438Y10405364D01*
X4896358Y10396220D01*
X4893411Y10392867D01*
X4889347Y10391140D01*
X4884928Y10391292D01*
X4880965Y10393273D01*
X4878273Y10396778D01*
X4877308Y10401096D01*
X4877308Y10533481D01*
X4878070Y10537393D01*
X4880305Y10540695D01*
X4941824Y10602264D01*
X4946954Y10608462D01*
X4950510Y10615168D01*
X4952695Y10622381D01*
X4953508Y10630408D01*
X4953508Y10819892D01*
X4952695Y10827918D01*
X4950510Y10835132D01*
X4946954Y10841837D01*
X4941824Y10848035D01*
X4880762Y10909096D01*
X4878679Y10912195D01*
X4877816Y10915802D01*
X4878324Y10919510D01*
X4882438Y10931956D01*
X4885182Y10945926D01*
X4886096Y10960100D01*
X4885182Y10974273D01*
X4882438Y10988243D01*
X4877968Y11001705D01*
X4871821Y11014506D01*
X4864049Y11026444D01*
X4854854Y11037265D01*
X4844338Y11046815D01*
X4832705Y11054943D01*
X4820107Y11061496D01*
X4806746Y11066424D01*
X4792878Y11069574D01*
X4778756Y11070945D01*
X4764532Y11070488D01*
X4750511Y11068202D01*
X4736896Y11064138D01*
X4723892Y11058398D01*
X4711750Y11051032D01*
X4700625Y11042192D01*
X4690770Y11031982D01*
X4682286Y11020602D01*
X4675276Y11008207D01*
X4669942Y10995050D01*
X4666335Y10981283D01*
X4664557Y10967212D01*
X4664557Y10952988D01*
X4666335Y10938916D01*
X4669942Y10925149D01*
X4675276Y10911992D01*
X4682286Y10899597D01*
X4690770Y10888218D01*
X4700625Y10878007D01*
X4711750Y10869168D01*
X4723892Y10861802D01*
X4736896Y10856010D01*
X4750511Y10851997D01*
X4764532Y10849711D01*
X4778756Y10849254D01*
X4792878Y10850626D01*
X4806746Y10853775D01*
X4815382Y10856976D01*
X4819142Y10857585D01*
X4822901Y10856772D01*
X4826101Y10854639D01*
X4873294Y10807395D01*
X4875530Y10804093D01*
X4876292Y10800181D01*
X4876292Y10785652D01*
X4875479Y10781639D01*
X4873142Y10778286D01*
X4869637Y10776153D01*
X4865573Y10775543D01*
X4861610Y10776559D01*
X4858410Y10779099D01*
X4854854Y10783265D01*
X4844338Y10792815D01*
X4832705Y10800943D01*
X4820107Y10807496D01*
X4806746Y10812424D01*
X4792878Y10815574D01*
X4778756Y10816945D01*
X4764532Y10816488D01*
X4750511Y10814202D01*
X4736896Y10810138D01*
X4723892Y10804398D01*
X4711750Y10797032D01*
X4700625Y10788192D01*
X4690770Y10777982D01*
X4682286Y10766602D01*
X4675276Y10754207D01*
X4669942Y10741050D01*
X4666335Y10727283D01*
X4664557Y10713212D01*
X4664557Y10698988D01*
X4666335Y10684916D01*
X4669942Y10671149D01*
X4675276Y10657992D01*
X4682286Y10645597D01*
X4690770Y10634218D01*
X4700625Y10624007D01*
X4711750Y10615168D01*
X4723892Y10607802D01*
X4730546Y10604855D01*
X4733747Y10602620D01*
X4735830Y10599369D01*
X4736592Y10595559D01*
X4736592Y9227058D01*
X4735830Y9223197D01*
X4733594Y9219895D01*
X4732020Y9218320D01*
X4726381Y9210243D01*
X4722215Y9201353D01*
X4719675Y9191853D01*
X4718862Y9182100D01*
X4719675Y9172295D01*
X4722215Y9162796D01*
X4726381Y9153906D01*
X4732020Y9145879D01*
X4738979Y9138920D01*
X4747006Y9133281D01*
X4755896Y9129115D01*
X4765395Y9126575D01*
X4773269Y9125915D01*
X4776673Y9125000D01*
X4779568Y9122968D01*
X4781600Y9120073D01*
X4782515Y9116669D01*
X4783175Y9108795D01*
X4785715Y9099397D01*
X4786020Y9095689D01*
X4784953Y9092184D01*
X4782718Y9089237D01*
X4779518Y9087307D01*
X4775911Y9086596D01*
X507288Y9086596D01*
X503631Y9087307D01*
X500481Y9089237D01*
X498246Y9092184D01*
X497179Y9095689D01*
X497484Y9099397D01*
X499973Y9108795D01*
X500837Y9118600D01*
X499973Y9128353D01*
X497433Y9137853D01*
X493318Y9146743D01*
X487680Y9154820D01*
X480720Y9161729D01*
X472693Y9167368D01*
X463753Y9171533D01*
X454304Y9174073D01*
X446430Y9174784D01*
X443026Y9175699D01*
X440131Y9177680D01*
X438099Y9180576D01*
X437184Y9183979D01*
X436473Y9191853D01*
X433933Y9201353D01*
X429818Y9210243D01*
X424180Y9218320D01*
X417220Y9225229D01*
X409194Y9230868D01*
X400253Y9235033D01*
X390804Y9237573D01*
X382930Y9238284D01*
X379526Y9239199D01*
X376631Y9241180D01*
X374599Y9244076D01*
X373684Y9247479D01*
X372973Y9255353D01*
X370433Y9264853D01*
X366318Y9273743D01*
X360680Y9281820D01*
X353720Y9288729D01*
X345694Y9294368D01*
X336753Y9298533D01*
X327304Y9301073D01*
X317500Y9301937D01*
X307695Y9301073D01*
X305409Y9300464D01*
X301701Y9300159D01*
X298145Y9301226D01*
X295198Y9303461D01*
X293268Y9306610D01*
X292608Y9310268D01*
X292608Y9396780D01*
X293268Y9400438D01*
X295198Y9403588D01*
X298145Y9405874D01*
X301701Y9406890D01*
X305409Y9406585D01*
X307695Y9405975D01*
X315569Y9405315D01*
X318973Y9404400D01*
X321868Y9402368D01*
X323900Y9399473D01*
X324815Y9396069D01*
X325526Y9388195D01*
X328066Y9378696D01*
X332181Y9369806D01*
X337820Y9361779D01*
X344779Y9354820D01*
X352806Y9349181D01*
X361746Y9345015D01*
X371195Y9342475D01*
X381000Y9341612D01*
X390804Y9342475D01*
X400253Y9345015D01*
X409194Y9349181D01*
X417220Y9354820D01*
X424180Y9361779D01*
X429818Y9369806D01*
X433933Y9378696D01*
X436473Y9388195D01*
X437337Y9398000D01*
X436473Y9407753D01*
X433933Y9417253D01*
X429818Y9426143D01*
X424180Y9434220D01*
X422605Y9435795D01*
X420370Y9439097D01*
X419608Y9442958D01*
X419608Y10064191D01*
X420370Y10068102D01*
X422605Y10071354D01*
X424180Y10072979D01*
X429818Y10081006D01*
X433933Y10089896D01*
X436473Y10099395D01*
X437337Y10109200D01*
X436473Y10118953D01*
X433933Y10128453D01*
X429818Y10137343D01*
X424180Y10145420D01*
X417220Y10152329D01*
X409194Y10157968D01*
X400253Y10162133D01*
X390804Y10164673D01*
X381000Y10165537D01*
X371195Y10164673D01*
X361746Y10162133D01*
X352806Y10157968D01*
X344779Y10152329D01*
X337820Y10145420D01*
X332181Y10137343D01*
X328066Y10128453D01*
X325526Y10118953D01*
X324815Y10111079D01*
X323900Y10107676D01*
X321868Y10104780D01*
X318973Y10102799D01*
X315569Y10101884D01*
X307695Y10101173D01*
X298246Y10098633D01*
X289306Y10094468D01*
X281279Y10088829D01*
X274320Y10081920D01*
X268681Y10073843D01*
X264566Y10064953D01*
X262026Y10055453D01*
X261162Y10045700D01*
X262026Y10035895D01*
X264566Y10026396D01*
X268681Y10017506D01*
X274320Y10009479D01*
X275894Y10007854D01*
X278130Y10004602D01*
X278892Y10000691D01*
X278892Y9983368D01*
X278231Y9979710D01*
X276301Y9976561D01*
X273354Y9974326D01*
X269798Y9973259D01*
X266090Y9973564D01*
X263804Y9974173D01*
X255930Y9974884D01*
X252526Y9975799D01*
X249631Y9977780D01*
X247599Y9980676D01*
X246684Y9984079D01*
X245973Y9991953D01*
X243433Y10001453D01*
X239318Y10010343D01*
X233679Y10018420D01*
X226720Y10025329D01*
X218694Y10030968D01*
X209753Y10035133D01*
X200304Y10037673D01*
X190500Y10038537D01*
X180695Y10037673D01*
X171246Y10035133D01*
X167386Y10033304D01*
X163423Y10032390D01*
X159410Y10033050D01*
X156006Y10035235D01*
X153720Y10038588D01*
X152908Y10042550D01*
X152908Y11597132D01*
X153670Y11600992D01*
X155905Y11604294D01*
X159156Y11606479D01*
X163068Y11607292D01*
X6059932Y11607292D01*
X6063792Y11606479D01*
X6067094Y11604294D01*
X6069330Y11600992D01*
X6070092Y11597132D01*
X6070092Y7877403D01*
X6069330Y7873542D01*
X6067094Y7870240D01*
X6063792Y7868056D01*
X6059932Y7867243D01*
X6056020Y7868056D01*
X6052718Y7870240D01*
X6040221Y7882788D01*
X6038037Y7886039D01*
X6037224Y7889849D01*
X6037935Y7893710D01*
X6041085Y7901686D01*
X6044742Y7915757D01*
X6046520Y7930235D01*
X6046520Y7944764D01*
X6044742Y7959191D01*
X6041085Y7973314D01*
X6035751Y7986826D01*
X6028740Y7999577D01*
X6020155Y8011363D01*
X6010198Y8021980D01*
X5999022Y8031225D01*
X5986729Y8039049D01*
X5975350Y8044383D01*
X5972251Y8046618D01*
X5970219Y8049869D01*
X5969508Y8053578D01*
X5969508Y10470591D01*
X5970270Y10474502D01*
X5972454Y10477754D01*
X5974029Y10479379D01*
X5979668Y10487406D01*
X5983833Y10496296D01*
X5986373Y10505795D01*
X5987237Y10515600D01*
X5986373Y10525353D01*
X5983833Y10534853D01*
X5979668Y10543743D01*
X5974029Y10551820D01*
X5967120Y10558729D01*
X5959043Y10564368D01*
X5950153Y10568533D01*
X5940653Y10571073D01*
X5930900Y10571937D01*
X5921095Y10571073D01*
X5911596Y10568533D01*
X5902706Y10564368D01*
X5894679Y10558729D01*
X5887720Y10551820D01*
X5882081Y10543743D01*
X5877915Y10534853D01*
X5875375Y10525353D01*
X5874562Y10515600D01*
X5875375Y10505795D01*
X5877915Y10496296D01*
X5882081Y10487406D01*
X5887720Y10479379D01*
X5889294Y10477754D01*
X5891530Y10474502D01*
X5892292Y10470591D01*
X5892292Y8053578D01*
X5891580Y8049869D01*
X5889548Y8046618D01*
X5886450Y8044383D01*
X5875070Y8039049D01*
X5862777Y8031225D01*
X5851550Y8021980D01*
X5841593Y8011363D01*
X5833059Y7999577D01*
X5826048Y7986826D01*
X5820664Y7973314D01*
X5817057Y7959191D01*
X5815228Y7944764D01*
X5815228Y7930235D01*
X5817057Y7915757D01*
X5820664Y7901686D01*
X5826048Y7888173D01*
X5833059Y7875371D01*
X5841593Y7863636D01*
X5851550Y7853019D01*
X5862777Y7843723D01*
X5875070Y7835950D01*
X5888228Y7829753D01*
X5902045Y7825231D01*
X5916371Y7822539D01*
X5930900Y7821625D01*
X5945428Y7822539D01*
X5959703Y7825231D01*
X5973521Y7829753D01*
X5978245Y7831023D01*
X5982258Y7830312D01*
X5985713Y7828025D01*
X6028994Y7784795D01*
X6031230Y7781493D01*
X6031992Y7777581D01*
X6031992Y7770469D01*
X6031179Y7766507D01*
X6028944Y7763205D01*
X6025540Y7761020D01*
X6021628Y7760309D01*
X6017666Y7761173D01*
X6014415Y7763509D01*
X6010198Y7767980D01*
X5999022Y7777225D01*
X5986729Y7785049D01*
X5973521Y7791246D01*
X5959703Y7795717D01*
X5945428Y7798460D01*
X5930900Y7799374D01*
X5916371Y7798460D01*
X5902045Y7795717D01*
X5888228Y7791246D01*
X5875070Y7785049D01*
X5862777Y7777225D01*
X5851550Y7767980D01*
X5841593Y7757363D01*
X5833059Y7745577D01*
X5826048Y7732826D01*
X5820664Y7719314D01*
X5817057Y7705191D01*
X5815228Y7690764D01*
X5815228Y7676235D01*
X5817057Y7661757D01*
X5820664Y7647635D01*
X5820968Y7644130D01*
X5820054Y7640777D01*
X5818022Y7637932D01*
X5758230Y7578140D01*
X5754979Y7575956D01*
G37*

%LPC*%
G36*
X1435100Y9798812D02*
G01*
X1444904Y9799675D01*
X1454353Y9802215D01*
X1463294Y9806381D01*
X1471320Y9812020D01*
X1478280Y9818979D01*
X1483918Y9827006D01*
X1488033Y9835896D01*
X1490573Y9845395D01*
X1491437Y9855200D01*
X1490573Y9864953D01*
X1488033Y9874453D01*
X1483918Y9883343D01*
X1478280Y9891420D01*
X1476705Y9892995D01*
X1474470Y9896297D01*
X1473708Y9900158D01*
X1473708Y10444581D01*
X1474470Y10448493D01*
X1476705Y10451795D01*
X1627124Y10602214D01*
X1630476Y10606328D01*
X1633677Y10608919D01*
X1637690Y10609986D01*
X1641754Y10609427D01*
X1645259Y10607294D01*
X1647647Y10603890D01*
X1648510Y10599877D01*
X1648510Y10478414D01*
X1647545Y10474147D01*
X1644954Y10470692D01*
X1641144Y10468660D01*
X1637283Y10467543D01*
X1621637Y10461040D01*
X1606804Y10452862D01*
X1593037Y10443057D01*
X1580388Y10431780D01*
X1569110Y10419181D01*
X1559356Y10405364D01*
X1551127Y10390581D01*
X1544675Y10374934D01*
X1540002Y10358678D01*
X1537157Y10342016D01*
X1536192Y10325100D01*
X1537157Y10308183D01*
X1540002Y10291521D01*
X1544675Y10275265D01*
X1551127Y10259618D01*
X1559356Y10244836D01*
X1569110Y10231018D01*
X1580388Y10218420D01*
X1593037Y10207142D01*
X1606804Y10197338D01*
X1621637Y10189159D01*
X1637283Y10182656D01*
X1653539Y10177983D01*
X1670202Y10175138D01*
X1687118Y10174224D01*
X1703984Y10175138D01*
X1720697Y10177983D01*
X1736953Y10182656D01*
X1752549Y10189159D01*
X1767382Y10197338D01*
X1781200Y10207142D01*
X1793798Y10218420D01*
X1805076Y10231018D01*
X1814880Y10244836D01*
X1823059Y10259618D01*
X1829511Y10275265D01*
X1834184Y10291521D01*
X1837029Y10308183D01*
X1837994Y10325100D01*
X1837029Y10342016D01*
X1834184Y10358678D01*
X1829511Y10374934D01*
X1823059Y10390581D01*
X1814880Y10405364D01*
X1805076Y10419181D01*
X1793798Y10431780D01*
X1781200Y10443057D01*
X1767382Y10452862D01*
X1752549Y10461040D01*
X1736953Y10467543D01*
X1733042Y10468660D01*
X1729232Y10470692D01*
X1726641Y10474147D01*
X1725726Y10478414D01*
X1725726Y10661091D01*
X1726488Y10665002D01*
X1728673Y10668304D01*
X1730248Y10669879D01*
X1735886Y10677906D01*
X1740052Y10686846D01*
X1742592Y10696295D01*
X1743456Y10706100D01*
X1742592Y10715904D01*
X1740052Y10725353D01*
X1735886Y10734294D01*
X1730248Y10742320D01*
X1723339Y10749280D01*
X1715262Y10754918D01*
X1706372Y10759033D01*
X1696872Y10761573D01*
X1687118Y10762437D01*
X1677314Y10761573D01*
X1667814Y10759033D01*
X1658924Y10754918D01*
X1654759Y10751972D01*
X1650695Y10750296D01*
X1646326Y10750499D01*
X1642414Y10752531D01*
X1639722Y10756036D01*
X1638807Y10760303D01*
X1638807Y10794492D01*
X1637995Y10802518D01*
X1635810Y10809782D01*
X1632254Y10816437D01*
X1627124Y10822635D01*
X1540662Y10909096D01*
X1538579Y10912195D01*
X1537716Y10915802D01*
X1538224Y10919510D01*
X1542338Y10931956D01*
X1545082Y10945926D01*
X1545996Y10960100D01*
X1545082Y10974273D01*
X1542338Y10988243D01*
X1537868Y11001705D01*
X1531721Y11014506D01*
X1523949Y11026444D01*
X1514754Y11037265D01*
X1504238Y11046815D01*
X1492605Y11054943D01*
X1480007Y11061496D01*
X1466646Y11066424D01*
X1452778Y11069574D01*
X1438656Y11070945D01*
X1424432Y11070488D01*
X1410411Y11068202D01*
X1396796Y11064138D01*
X1383792Y11058398D01*
X1371650Y11051032D01*
X1360525Y11042192D01*
X1350670Y11031982D01*
X1342186Y11020602D01*
X1335176Y11008207D01*
X1329842Y10995050D01*
X1326235Y10981283D01*
X1324457Y10967212D01*
X1324457Y10952988D01*
X1326235Y10938916D01*
X1329842Y10925149D01*
X1335176Y10911992D01*
X1342186Y10899597D01*
X1350670Y10888218D01*
X1360525Y10878007D01*
X1371650Y10869168D01*
X1383792Y10861802D01*
X1396796Y10856010D01*
X1410411Y10851997D01*
X1424432Y10849711D01*
X1438656Y10849254D01*
X1452778Y10850626D01*
X1466646Y10853775D01*
X1475282Y10856976D01*
X1479042Y10857585D01*
X1482801Y10856772D01*
X1485950Y10854639D01*
X1558594Y10781995D01*
X1560830Y10778693D01*
X1561592Y10774781D01*
X1561592Y10739170D01*
X1560779Y10735208D01*
X1558442Y10731855D01*
X1555038Y10729671D01*
X1551025Y10729010D01*
X1547063Y10730026D01*
X1543812Y10732465D01*
X1541780Y10735970D01*
X1537868Y10747705D01*
X1531721Y10760506D01*
X1523949Y10772444D01*
X1514754Y10783265D01*
X1504238Y10792815D01*
X1492605Y10800943D01*
X1480007Y10807496D01*
X1466646Y10812424D01*
X1452778Y10815574D01*
X1438656Y10816945D01*
X1424432Y10816488D01*
X1410411Y10814202D01*
X1396796Y10810138D01*
X1383792Y10804398D01*
X1371650Y10797032D01*
X1360525Y10788192D01*
X1350670Y10777982D01*
X1342186Y10766602D01*
X1335176Y10754207D01*
X1329842Y10741050D01*
X1326235Y10727283D01*
X1324457Y10713212D01*
X1324457Y10698988D01*
X1326235Y10684916D01*
X1329842Y10671149D01*
X1335176Y10657992D01*
X1342186Y10645597D01*
X1350670Y10634218D01*
X1360525Y10624007D01*
X1371650Y10615168D01*
X1383792Y10607802D01*
X1396796Y10602010D01*
X1410411Y10597997D01*
X1424432Y10595711D01*
X1438656Y10595254D01*
X1452778Y10596626D01*
X1466646Y10599775D01*
X1480007Y10604703D01*
X1492605Y10611256D01*
X1504238Y10619384D01*
X1514754Y10628934D01*
X1523949Y10639755D01*
X1531721Y10651693D01*
X1537868Y10664494D01*
X1541780Y10676229D01*
X1543812Y10679734D01*
X1547063Y10682173D01*
X1551025Y10683189D01*
X1555038Y10682528D01*
X1558442Y10680344D01*
X1560779Y10676991D01*
X1561592Y10673029D01*
X1561592Y10650067D01*
X1560830Y10646206D01*
X1558594Y10642904D01*
X1408176Y10492435D01*
X1403045Y10486237D01*
X1399489Y10479532D01*
X1397304Y10472318D01*
X1396492Y10464292D01*
X1396492Y9900158D01*
X1395730Y9896297D01*
X1393494Y9892995D01*
X1391920Y9891420D01*
X1386281Y9883343D01*
X1382166Y9874453D01*
X1379626Y9864953D01*
X1378762Y9855200D01*
X1379626Y9845395D01*
X1382166Y9835896D01*
X1386281Y9827006D01*
X1391920Y9818979D01*
X1398879Y9812020D01*
X1406906Y9806381D01*
X1415846Y9802215D01*
X1425295Y9799675D01*
G37*
G36*
X715060Y9555988D02*
G01*
X977900Y9555988D01*
X977900Y9818725D01*
X961745Y9817709D01*
X938885Y9814306D01*
X916381Y9809022D01*
X894435Y9801910D01*
X873150Y9792970D01*
X852627Y9782251D01*
X833119Y9769856D01*
X814730Y9755886D01*
X797560Y9740442D01*
X781761Y9723577D01*
X767384Y9705492D01*
X754583Y9686239D01*
X743458Y9665970D01*
X734060Y9644888D01*
X726490Y9623044D01*
X720750Y9600692D01*
X716889Y9577882D01*
G37*
G36*
X5009642Y9555988D02*
G01*
X5272481Y9555988D01*
X5272481Y9818725D01*
X5256377Y9817709D01*
X5233517Y9814306D01*
X5211013Y9809022D01*
X5189016Y9801910D01*
X5167731Y9792970D01*
X5147259Y9782251D01*
X5127752Y9769856D01*
X5109362Y9755886D01*
X5092192Y9740442D01*
X5076342Y9723577D01*
X5062016Y9705492D01*
X5049215Y9686239D01*
X5038090Y9665970D01*
X5028692Y9644888D01*
X5021072Y9623044D01*
X5015331Y9600692D01*
X5011470Y9577882D01*
G37*
G36*
X5297881Y9555988D02*
G01*
X5560568Y9555988D01*
X5560110Y9566402D01*
X5557215Y9589312D01*
X5552440Y9611918D01*
X5545734Y9634016D01*
X5537250Y9655505D01*
X5526989Y9676231D01*
X5515000Y9695992D01*
X5501436Y9714687D01*
X5486349Y9732162D01*
X5469839Y9748316D01*
X5452008Y9763048D01*
X5433060Y9776256D01*
X5413044Y9787788D01*
X5392115Y9797643D01*
X5370474Y9805720D01*
X5348224Y9811918D01*
X5325516Y9816236D01*
X5302504Y9818674D01*
X5297881Y9818776D01*
G37*
G36*
X5724499Y10583113D02*
G01*
X5724499Y10845800D01*
X5461609Y10845800D01*
X5463489Y10823905D01*
X5467350Y10801146D01*
X5473090Y10778744D01*
X5480659Y10756950D01*
X5490057Y10735818D01*
X5501182Y10715599D01*
X5513984Y10696346D01*
X5528360Y10678210D01*
X5544159Y10661396D01*
X5561330Y10645902D01*
X5579719Y10631932D01*
X5599226Y10619587D01*
X5619699Y10608868D01*
X5641035Y10599928D01*
X5662980Y10592765D01*
X5685485Y10587482D01*
X5708345Y10584129D01*
G37*
G36*
X1003300Y9555988D02*
G01*
X1265986Y9555988D01*
X1265529Y9566402D01*
X1262634Y9589312D01*
X1257808Y9611918D01*
X1251153Y9634016D01*
X1242669Y9655505D01*
X1232357Y9676231D01*
X1220419Y9695992D01*
X1206804Y9714687D01*
X1191717Y9732162D01*
X1175207Y9748316D01*
X1157427Y9763048D01*
X1138428Y9776256D01*
X1118412Y9787788D01*
X1097534Y9797643D01*
X1075842Y9805720D01*
X1053592Y9811918D01*
X1030884Y9816236D01*
X1007922Y9818674D01*
X1003300Y9818776D01*
G37*
G36*
X977900Y9267901D02*
G01*
X977900Y9530588D01*
X715060Y9530588D01*
X716889Y9508744D01*
X720750Y9485934D01*
X726490Y9463582D01*
X734060Y9441738D01*
X743458Y9420656D01*
X754583Y9400387D01*
X767384Y9381134D01*
X781761Y9363049D01*
X797560Y9346184D01*
X814730Y9330740D01*
X833119Y9316770D01*
X852627Y9304375D01*
X873150Y9293656D01*
X894435Y9284716D01*
X916381Y9277553D01*
X938885Y9272270D01*
X961745Y9268917D01*
G37*
G36*
X5272481Y9267901D02*
G01*
X5272481Y9530588D01*
X5009642Y9530588D01*
X5011470Y9508744D01*
X5015331Y9485934D01*
X5021072Y9463582D01*
X5028692Y9441738D01*
X5038090Y9420656D01*
X5049215Y9400387D01*
X5062016Y9381134D01*
X5076342Y9363049D01*
X5092192Y9346184D01*
X5109362Y9330740D01*
X5127752Y9316770D01*
X5147259Y9304375D01*
X5167731Y9293656D01*
X5189016Y9284716D01*
X5211013Y9277553D01*
X5233517Y9272270D01*
X5256377Y9268917D01*
G37*
G36*
X1003300Y9267850D02*
G01*
X1007922Y9267952D01*
X1030884Y9270390D01*
X1053592Y9274708D01*
X1075842Y9280906D01*
X1097534Y9288983D01*
X1118412Y9298787D01*
X1138428Y9310370D01*
X1157427Y9323527D01*
X1175207Y9338259D01*
X1191717Y9354464D01*
X1206804Y9371939D01*
X1220419Y9390634D01*
X1232357Y9410395D01*
X1242669Y9431070D01*
X1251153Y9452559D01*
X1257808Y9474708D01*
X1262634Y9497314D01*
X1265529Y9520224D01*
X1265986Y9530588D01*
X1003300Y9530588D01*
G37*
G36*
X5297881Y9267850D02*
G01*
X5302504Y9267952D01*
X5325516Y9270390D01*
X5348224Y9274708D01*
X5370474Y9280906D01*
X5392115Y9288983D01*
X5413044Y9298787D01*
X5433060Y9310370D01*
X5452008Y9323527D01*
X5469839Y9338259D01*
X5486349Y9354464D01*
X5501436Y9371939D01*
X5515000Y9390634D01*
X5526989Y9410395D01*
X5537250Y9431070D01*
X5545734Y9452559D01*
X5552440Y9474708D01*
X5557215Y9497314D01*
X5560110Y9520224D01*
X5560568Y9530588D01*
X5297881Y9530588D01*
G37*
G36*
X482600Y10583062D02*
G01*
X487222Y10583164D01*
X510184Y10585551D01*
X532892Y10589869D01*
X555142Y10596118D01*
X576834Y10604144D01*
X597712Y10613999D01*
X617728Y10625531D01*
X636727Y10638739D01*
X654507Y10653471D01*
X671017Y10669625D01*
X686104Y10687100D01*
X699719Y10705795D01*
X711657Y10725607D01*
X721969Y10746282D01*
X730453Y10767771D01*
X737108Y10789869D01*
X741934Y10812475D01*
X744829Y10835436D01*
X745286Y10845800D01*
X482600Y10845800D01*
G37*
G36*
X4267200Y9189212D02*
G01*
X4276953Y9190075D01*
X4286453Y9192615D01*
X4295343Y9196781D01*
X4303420Y9202420D01*
X4310380Y9209379D01*
X4315968Y9217406D01*
X4320133Y9226296D01*
X4322673Y9235795D01*
X4323537Y9245600D01*
X4322673Y9255353D01*
X4320133Y9264853D01*
X4315968Y9273743D01*
X4310380Y9281820D01*
X4308805Y9283395D01*
X4306570Y9286697D01*
X4305808Y9290558D01*
X4305808Y10444581D01*
X4306570Y10448493D01*
X4308805Y10451795D01*
X4459224Y10602214D01*
X4462576Y10606328D01*
X4465777Y10608919D01*
X4469790Y10609986D01*
X4473854Y10609427D01*
X4477359Y10607294D01*
X4479747Y10603890D01*
X4480610Y10599877D01*
X4480610Y10478414D01*
X4479645Y10474147D01*
X4477054Y10470692D01*
X4473244Y10468660D01*
X4469384Y10467543D01*
X4453737Y10461040D01*
X4438904Y10452862D01*
X4425137Y10443057D01*
X4412488Y10431780D01*
X4401210Y10419181D01*
X4391456Y10405364D01*
X4383227Y10390581D01*
X4376775Y10374934D01*
X4372102Y10358678D01*
X4369257Y10342016D01*
X4368292Y10325100D01*
X4369257Y10308183D01*
X4372102Y10291521D01*
X4376775Y10275265D01*
X4383227Y10259618D01*
X4391456Y10244836D01*
X4401210Y10231018D01*
X4412488Y10218420D01*
X4425137Y10207142D01*
X4438904Y10197338D01*
X4453737Y10189159D01*
X4469384Y10182656D01*
X4485640Y10177983D01*
X4502302Y10175138D01*
X4519218Y10174224D01*
X4536084Y10175138D01*
X4552797Y10177983D01*
X4569053Y10182656D01*
X4584649Y10189159D01*
X4599482Y10197338D01*
X4613300Y10207142D01*
X4625898Y10218420D01*
X4637176Y10231018D01*
X4646980Y10244836D01*
X4655159Y10259618D01*
X4661611Y10275265D01*
X4666284Y10291521D01*
X4669129Y10308183D01*
X4670094Y10325100D01*
X4669129Y10342016D01*
X4666284Y10358678D01*
X4661611Y10374934D01*
X4655159Y10390581D01*
X4646980Y10405364D01*
X4637176Y10419181D01*
X4625898Y10431780D01*
X4613300Y10443057D01*
X4599482Y10452862D01*
X4584649Y10461040D01*
X4569053Y10467543D01*
X4565142Y10468660D01*
X4561332Y10470692D01*
X4558741Y10474147D01*
X4557826Y10478414D01*
X4557826Y10661091D01*
X4558588Y10665002D01*
X4560773Y10668304D01*
X4562348Y10669879D01*
X4567986Y10677906D01*
X4572152Y10686846D01*
X4574692Y10696295D01*
X4575556Y10706100D01*
X4574692Y10715904D01*
X4572152Y10725353D01*
X4567986Y10734294D01*
X4562348Y10742320D01*
X4555439Y10749280D01*
X4547362Y10754918D01*
X4538472Y10759033D01*
X4528972Y10761573D01*
X4519218Y10762437D01*
X4509414Y10761573D01*
X4499914Y10759033D01*
X4491024Y10754918D01*
X4486859Y10751972D01*
X4482795Y10750296D01*
X4478426Y10750499D01*
X4474514Y10752531D01*
X4471822Y10756036D01*
X4470908Y10760303D01*
X4470908Y10794492D01*
X4470095Y10802518D01*
X4467910Y10809782D01*
X4464354Y10816437D01*
X4459224Y10822635D01*
X4372762Y10909096D01*
X4370679Y10912195D01*
X4369816Y10915802D01*
X4370324Y10919510D01*
X4374438Y10931956D01*
X4377182Y10945926D01*
X4378096Y10960100D01*
X4377182Y10974273D01*
X4374438Y10988243D01*
X4369968Y11001705D01*
X4363821Y11014506D01*
X4356049Y11026444D01*
X4346854Y11037265D01*
X4336338Y11046815D01*
X4324705Y11054943D01*
X4312107Y11061496D01*
X4298746Y11066424D01*
X4284878Y11069574D01*
X4270756Y11070945D01*
X4256532Y11070488D01*
X4242511Y11068202D01*
X4228896Y11064138D01*
X4215892Y11058398D01*
X4203750Y11051032D01*
X4192625Y11042192D01*
X4182770Y11031982D01*
X4174286Y11020602D01*
X4167276Y11008207D01*
X4161942Y10995050D01*
X4158335Y10981283D01*
X4156557Y10967212D01*
X4156557Y10952988D01*
X4158335Y10938916D01*
X4161942Y10925149D01*
X4167276Y10911992D01*
X4174286Y10899597D01*
X4182770Y10888218D01*
X4192625Y10878007D01*
X4203750Y10869168D01*
X4215892Y10861802D01*
X4228896Y10856010D01*
X4242511Y10851997D01*
X4256532Y10849711D01*
X4270756Y10849254D01*
X4284878Y10850626D01*
X4298746Y10853775D01*
X4307382Y10856976D01*
X4311142Y10857585D01*
X4314901Y10856772D01*
X4318050Y10854639D01*
X4390694Y10781995D01*
X4392930Y10778693D01*
X4393692Y10774781D01*
X4393692Y10739170D01*
X4392879Y10735208D01*
X4390542Y10731855D01*
X4387138Y10729671D01*
X4383125Y10729010D01*
X4379163Y10730026D01*
X4375912Y10732465D01*
X4373880Y10735970D01*
X4369968Y10747705D01*
X4363821Y10760506D01*
X4356049Y10772444D01*
X4346854Y10783265D01*
X4336338Y10792815D01*
X4324705Y10800943D01*
X4312107Y10807496D01*
X4298746Y10812424D01*
X4284878Y10815574D01*
X4270756Y10816945D01*
X4256532Y10816488D01*
X4242511Y10814202D01*
X4228896Y10810138D01*
X4215892Y10804398D01*
X4203750Y10797032D01*
X4192625Y10788192D01*
X4182770Y10777982D01*
X4174286Y10766602D01*
X4167276Y10754207D01*
X4161942Y10741050D01*
X4158335Y10727283D01*
X4156557Y10713212D01*
X4156557Y10698988D01*
X4158335Y10684916D01*
X4161942Y10671149D01*
X4167276Y10657992D01*
X4174286Y10645597D01*
X4182770Y10634218D01*
X4192625Y10624007D01*
X4203750Y10615168D01*
X4215892Y10607802D01*
X4228896Y10602010D01*
X4242511Y10597997D01*
X4256532Y10595711D01*
X4270756Y10595254D01*
X4284878Y10596626D01*
X4298746Y10599775D01*
X4312107Y10604703D01*
X4324705Y10611256D01*
X4336338Y10619384D01*
X4346854Y10628934D01*
X4356049Y10639755D01*
X4363821Y10651693D01*
X4369968Y10664494D01*
X4373880Y10676229D01*
X4375912Y10679734D01*
X4379163Y10682173D01*
X4383125Y10683189D01*
X4387138Y10682528D01*
X4390542Y10680344D01*
X4392879Y10676991D01*
X4393692Y10673029D01*
X4393692Y10650067D01*
X4392930Y10646206D01*
X4390694Y10642904D01*
X4240276Y10492435D01*
X4235145Y10486237D01*
X4231589Y10479532D01*
X4229404Y10472318D01*
X4228592Y10464292D01*
X4228592Y9290558D01*
X4227830Y9286697D01*
X4225594Y9283395D01*
X4224020Y9281820D01*
X4218381Y9273743D01*
X4214266Y9264853D01*
X4211675Y9255353D01*
X4210862Y9245600D01*
X4211675Y9235795D01*
X4214266Y9226296D01*
X4218381Y9217406D01*
X4224020Y9209379D01*
X4230979Y9202420D01*
X4239006Y9196781D01*
X4247896Y9192615D01*
X4257395Y9190075D01*
G37*
G36*
X3454400Y10510012D02*
G01*
X3464153Y10510875D01*
X3473653Y10513415D01*
X3482543Y10517581D01*
X3490620Y10523220D01*
X3497579Y10530179D01*
X3503168Y10538206D01*
X3507333Y10547096D01*
X3509873Y10556595D01*
X3510737Y10566400D01*
X3509873Y10576153D01*
X3507333Y10585653D01*
X3503168Y10594543D01*
X3497579Y10602620D01*
X3496005Y10604195D01*
X3493770Y10607446D01*
X3493008Y10611358D01*
X3493008Y11130991D01*
X3493770Y11134902D01*
X3496005Y11138204D01*
X3497579Y11139779D01*
X3503168Y11147806D01*
X3507333Y11156696D01*
X3509873Y11166195D01*
X3510737Y11176000D01*
X3509873Y11185753D01*
X3507333Y11195253D01*
X3503168Y11204143D01*
X3497579Y11212220D01*
X3490620Y11219129D01*
X3482543Y11224768D01*
X3473653Y11228933D01*
X3464153Y11231473D01*
X3454400Y11232337D01*
X3444595Y11231473D01*
X3435096Y11228933D01*
X3426206Y11224768D01*
X3418179Y11219129D01*
X3411220Y11212220D01*
X3405581Y11204143D01*
X3401466Y11195253D01*
X3398875Y11185753D01*
X3398062Y11176000D01*
X3398875Y11166195D01*
X3401466Y11156696D01*
X3405581Y11147806D01*
X3411220Y11139779D01*
X3412794Y11138154D01*
X3415029Y11134852D01*
X3415792Y11130991D01*
X3415792Y10611358D01*
X3415029Y10607497D01*
X3412794Y10604195D01*
X3411220Y10602620D01*
X3405581Y10594543D01*
X3401466Y10585653D01*
X3398875Y10576153D01*
X3398062Y10566400D01*
X3398875Y10556595D01*
X3401466Y10547096D01*
X3405581Y10538206D01*
X3411220Y10530179D01*
X3418179Y10523220D01*
X3426206Y10517581D01*
X3435096Y10513415D01*
X3444595Y10510875D01*
G37*
G36*
X1179118Y10174224D02*
G01*
X1195984Y10175138D01*
X1212697Y10177983D01*
X1228953Y10182656D01*
X1244549Y10189159D01*
X1259382Y10197338D01*
X1273200Y10207142D01*
X1285798Y10218420D01*
X1297076Y10231018D01*
X1306880Y10244836D01*
X1315059Y10259618D01*
X1321511Y10275265D01*
X1326184Y10291521D01*
X1329029Y10308183D01*
X1329994Y10325100D01*
X1329029Y10342016D01*
X1326184Y10358678D01*
X1321511Y10374934D01*
X1315059Y10390581D01*
X1306880Y10405364D01*
X1297076Y10419181D01*
X1285798Y10431780D01*
X1273200Y10443057D01*
X1259382Y10452862D01*
X1244549Y10461040D01*
X1228953Y10467543D01*
X1227074Y10468051D01*
X1223264Y10470134D01*
X1220622Y10473588D01*
X1219708Y10477804D01*
X1219708Y11130991D01*
X1220470Y11134902D01*
X1222705Y11138154D01*
X1224280Y11139779D01*
X1229918Y11147806D01*
X1234033Y11156696D01*
X1236573Y11166195D01*
X1237437Y11176000D01*
X1236573Y11185753D01*
X1234033Y11195253D01*
X1229918Y11204143D01*
X1224280Y11212220D01*
X1217320Y11219129D01*
X1209294Y11224768D01*
X1200353Y11228933D01*
X1190904Y11231473D01*
X1181100Y11232337D01*
X1171295Y11231473D01*
X1161846Y11228933D01*
X1152906Y11224768D01*
X1144879Y11219129D01*
X1137920Y11212220D01*
X1132281Y11204143D01*
X1128166Y11195253D01*
X1125626Y11185753D01*
X1124762Y11176000D01*
X1125626Y11166195D01*
X1128166Y11156696D01*
X1132281Y11147806D01*
X1137920Y11139779D01*
X1139494Y11138154D01*
X1141730Y11134852D01*
X1142492Y11130991D01*
X1142492Y10478973D01*
X1141577Y10474756D01*
X1138936Y10471302D01*
X1135126Y10469219D01*
X1129284Y10467543D01*
X1113637Y10461040D01*
X1098804Y10452862D01*
X1085037Y10443057D01*
X1072388Y10431780D01*
X1061110Y10419181D01*
X1051356Y10405364D01*
X1043127Y10390581D01*
X1036675Y10374934D01*
X1032002Y10358678D01*
X1029157Y10342016D01*
X1028192Y10325100D01*
X1029157Y10308183D01*
X1032002Y10291521D01*
X1036675Y10275265D01*
X1043127Y10259618D01*
X1051356Y10244836D01*
X1061110Y10231018D01*
X1072388Y10218420D01*
X1085037Y10207142D01*
X1098804Y10197338D01*
X1113637Y10189159D01*
X1129284Y10182656D01*
X1145540Y10177983D01*
X1162202Y10175138D01*
G37*
G36*
X4011218Y10174224D02*
G01*
X4028084Y10175138D01*
X4044797Y10177983D01*
X4061053Y10182656D01*
X4076649Y10189159D01*
X4091482Y10197338D01*
X4105300Y10207142D01*
X4117898Y10218420D01*
X4129176Y10231018D01*
X4138980Y10244836D01*
X4147159Y10259618D01*
X4153611Y10275265D01*
X4158284Y10291521D01*
X4161129Y10308183D01*
X4162094Y10325100D01*
X4161129Y10342016D01*
X4158284Y10358678D01*
X4153611Y10374934D01*
X4147159Y10390581D01*
X4138980Y10405364D01*
X4129176Y10419181D01*
X4117898Y10431780D01*
X4105300Y10443057D01*
X4091482Y10452862D01*
X4076649Y10461040D01*
X4061053Y10467543D01*
X4044797Y10472216D01*
X4028084Y10475061D01*
X4011218Y10475976D01*
X3994302Y10475061D01*
X3977640Y10472216D01*
X3961384Y10467543D01*
X3945737Y10461040D01*
X3930904Y10452862D01*
X3917137Y10443057D01*
X3904487Y10431780D01*
X3893210Y10419181D01*
X3883456Y10405364D01*
X3875227Y10390581D01*
X3868775Y10374934D01*
X3864101Y10358678D01*
X3861257Y10342016D01*
X3860292Y10325100D01*
X3861257Y10308183D01*
X3864101Y10291521D01*
X3868775Y10275265D01*
X3875227Y10259618D01*
X3883456Y10244836D01*
X3893210Y10231018D01*
X3904487Y10218420D01*
X3917137Y10207142D01*
X3930904Y10197338D01*
X3945737Y10189159D01*
X3961384Y10182656D01*
X3977640Y10177983D01*
X3994302Y10175138D01*
G37*
G36*
X194360Y10871200D02*
G01*
X457200Y10871200D01*
X457200Y11133886D01*
X441045Y11132870D01*
X418185Y11129518D01*
X395681Y11124234D01*
X373735Y11117072D01*
X352450Y11108131D01*
X331927Y11097412D01*
X312420Y11085068D01*
X294030Y11071098D01*
X276860Y11055604D01*
X261061Y11038789D01*
X246684Y11020653D01*
X233883Y11001400D01*
X222758Y10981182D01*
X213360Y10960049D01*
X205790Y10938256D01*
X200050Y10915853D01*
X196189Y10893094D01*
G37*
G36*
X5461609Y10871200D02*
G01*
X5724499Y10871200D01*
X5724499Y11133886D01*
X5708345Y11132870D01*
X5685485Y11129518D01*
X5662980Y11124234D01*
X5641035Y11117072D01*
X5619699Y11108131D01*
X5599226Y11097412D01*
X5579719Y11085068D01*
X5561330Y11071098D01*
X5544159Y11055604D01*
X5528360Y11038789D01*
X5513984Y11020653D01*
X5501182Y11001400D01*
X5490057Y10981182D01*
X5480659Y10960049D01*
X5473090Y10938256D01*
X5467350Y10915853D01*
X5463489Y10893094D01*
G37*
G36*
X2590800Y9989312D02*
G01*
X2600604Y9990175D01*
X2610053Y9992715D01*
X2618994Y9996881D01*
X2627020Y10002520D01*
X2633980Y10009479D01*
X2639618Y10017506D01*
X2643733Y10026396D01*
X2646273Y10035895D01*
X2647137Y10045700D01*
X2646273Y10055453D01*
X2643733Y10064953D01*
X2639618Y10073843D01*
X2633980Y10081920D01*
X2632405Y10083495D01*
X2630170Y10086797D01*
X2629408Y10090658D01*
X2629408Y10280091D01*
X2630170Y10284002D01*
X2632405Y10287304D01*
X2633980Y10288879D01*
X2639618Y10296906D01*
X2643733Y10305846D01*
X2646273Y10315295D01*
X2647137Y10325100D01*
X2646273Y10334904D01*
X2643733Y10344353D01*
X2639618Y10353294D01*
X2633980Y10361320D01*
X2627020Y10368280D01*
X2618994Y10373918D01*
X2610053Y10378033D01*
X2600604Y10380573D01*
X2590800Y10381437D01*
X2580995Y10380573D01*
X2578709Y10379964D01*
X2575001Y10379659D01*
X2571445Y10380726D01*
X2568498Y10383012D01*
X2566568Y10386161D01*
X2565908Y10389768D01*
X2565908Y10521391D01*
X2566670Y10525302D01*
X2568905Y10528604D01*
X2570480Y10530179D01*
X2576118Y10538206D01*
X2580233Y10547146D01*
X2582773Y10556595D01*
X2583637Y10566400D01*
X2582773Y10576204D01*
X2580233Y10585653D01*
X2576118Y10594594D01*
X2570480Y10602620D01*
X2563520Y10609580D01*
X2555494Y10615218D01*
X2546553Y10619333D01*
X2537104Y10621873D01*
X2527300Y10622737D01*
X2517495Y10621873D01*
X2508046Y10619333D01*
X2499106Y10615218D01*
X2491079Y10609580D01*
X2484120Y10602620D01*
X2478481Y10594594D01*
X2474366Y10585653D01*
X2471826Y10576204D01*
X2470962Y10566400D01*
X2471826Y10556595D01*
X2474366Y10547146D01*
X2478481Y10538206D01*
X2484120Y10530179D01*
X2485694Y10528604D01*
X2487930Y10525302D01*
X2488692Y10521391D01*
X2488692Y10154158D01*
X2487930Y10150297D01*
X2485694Y10146995D01*
X2484120Y10145420D01*
X2478481Y10137343D01*
X2474366Y10128453D01*
X2471826Y10118953D01*
X2470962Y10109200D01*
X2471826Y10099395D01*
X2474366Y10089896D01*
X2478481Y10081006D01*
X2484120Y10072979D01*
X2491079Y10066020D01*
X2499106Y10060381D01*
X2508046Y10056215D01*
X2517495Y10053675D01*
X2525369Y10053015D01*
X2528773Y10052100D01*
X2531668Y10050068D01*
X2533700Y10047173D01*
X2534615Y10043769D01*
X2535326Y10035895D01*
X2537866Y10026396D01*
X2541981Y10017506D01*
X2547620Y10009479D01*
X2554579Y10002520D01*
X2562606Y9996881D01*
X2571546Y9992715D01*
X2580995Y9990175D01*
G37*
G36*
X482600Y10871200D02*
G01*
X745286Y10871200D01*
X744829Y10881563D01*
X741934Y10904524D01*
X737108Y10927130D01*
X730453Y10949228D01*
X721969Y10970717D01*
X711657Y10991392D01*
X699719Y11011204D01*
X686104Y11029848D01*
X671017Y11047374D01*
X654507Y11063528D01*
X636727Y11078260D01*
X617728Y11091468D01*
X597712Y11103000D01*
X576834Y11112855D01*
X555142Y11120882D01*
X532892Y11127130D01*
X510184Y11131448D01*
X487222Y11133836D01*
X482600Y11133937D01*
G37*
G36*
X2006600Y9862312D02*
G01*
X2016404Y9863175D01*
X2025853Y9865715D01*
X2034793Y9869881D01*
X2042820Y9875520D01*
X2049780Y9882479D01*
X2055418Y9890506D01*
X2059533Y9899396D01*
X2062073Y9908895D01*
X2062937Y9918700D01*
X2062073Y9928453D01*
X2059533Y9937953D01*
X2055418Y9946843D01*
X2049780Y9954920D01*
X2048205Y9956495D01*
X2045970Y9959797D01*
X2045207Y9963658D01*
X2045207Y10249103D01*
X2046173Y10253421D01*
X2048865Y10256926D01*
X2052828Y10258907D01*
X2057247Y10259060D01*
X2061311Y10257332D01*
X2064257Y10253980D01*
X2069338Y10244836D01*
X2079142Y10231018D01*
X2090420Y10218420D01*
X2103018Y10207142D01*
X2116836Y10197338D01*
X2131618Y10189159D01*
X2147265Y10182656D01*
X2163521Y10177983D01*
X2180183Y10175138D01*
X2197100Y10174224D01*
X2214016Y10175138D01*
X2230678Y10177983D01*
X2246934Y10182656D01*
X2262581Y10189159D01*
X2277364Y10197338D01*
X2291181Y10207142D01*
X2303780Y10218420D01*
X2315057Y10231018D01*
X2324862Y10244836D01*
X2333040Y10259618D01*
X2339543Y10275265D01*
X2344216Y10291521D01*
X2347061Y10308183D01*
X2347976Y10325100D01*
X2347061Y10342016D01*
X2344216Y10358678D01*
X2339543Y10374934D01*
X2333040Y10390581D01*
X2324862Y10405364D01*
X2315057Y10419181D01*
X2303780Y10431780D01*
X2291181Y10443057D01*
X2277364Y10452862D01*
X2262581Y10461040D01*
X2246934Y10467543D01*
X2230678Y10472216D01*
X2214016Y10475061D01*
X2197100Y10475976D01*
X2180183Y10475061D01*
X2163521Y10472216D01*
X2147265Y10467543D01*
X2131618Y10461040D01*
X2116836Y10452862D01*
X2103018Y10443057D01*
X2090420Y10431780D01*
X2079142Y10419181D01*
X2069338Y10405364D01*
X2064257Y10396220D01*
X2061311Y10392867D01*
X2057247Y10391140D01*
X2052828Y10391292D01*
X2048865Y10393273D01*
X2046173Y10396778D01*
X2045207Y10401096D01*
X2045207Y10520781D01*
X2045970Y10524693D01*
X2048205Y10527944D01*
X2109724Y10589514D01*
X2114854Y10595762D01*
X2118410Y10602417D01*
X2120595Y10609681D01*
X2121408Y10617657D01*
X2121408Y10819892D01*
X2120595Y10827918D01*
X2118410Y10835182D01*
X2114854Y10841837D01*
X2109724Y10848035D01*
X2048662Y10909147D01*
X2046579Y10912195D01*
X2045716Y10915802D01*
X2046224Y10919510D01*
X2050338Y10931956D01*
X2053082Y10945926D01*
X2053996Y10960100D01*
X2053082Y10974273D01*
X2050338Y10988243D01*
X2045868Y11001705D01*
X2039721Y11014506D01*
X2031949Y11026444D01*
X2022754Y11037265D01*
X2012238Y11046815D01*
X2000605Y11054943D01*
X1988007Y11061496D01*
X1974646Y11066424D01*
X1960778Y11069574D01*
X1946656Y11070945D01*
X1932432Y11070488D01*
X1918411Y11068202D01*
X1904796Y11064138D01*
X1891792Y11058398D01*
X1879650Y11051032D01*
X1868525Y11042192D01*
X1858670Y11031982D01*
X1850186Y11020602D01*
X1843176Y11008207D01*
X1837842Y10995050D01*
X1834235Y10981283D01*
X1832457Y10967212D01*
X1832457Y10952988D01*
X1834235Y10938916D01*
X1837842Y10925149D01*
X1843176Y10911992D01*
X1850186Y10899597D01*
X1858670Y10888218D01*
X1868525Y10878007D01*
X1879650Y10869168D01*
X1891792Y10861802D01*
X1904796Y10856010D01*
X1918411Y10851997D01*
X1932432Y10849711D01*
X1946656Y10849254D01*
X1960778Y10850626D01*
X1974646Y10853775D01*
X1983282Y10856976D01*
X1987042Y10857585D01*
X1990801Y10856772D01*
X1994001Y10854639D01*
X2041194Y10807395D01*
X2043430Y10804093D01*
X2044192Y10800181D01*
X2044192Y10785652D01*
X2043379Y10781639D01*
X2041042Y10778286D01*
X2037537Y10776153D01*
X2033473Y10775543D01*
X2029510Y10776559D01*
X2026310Y10779099D01*
X2022754Y10783265D01*
X2012238Y10792815D01*
X2000605Y10800943D01*
X1988007Y10807496D01*
X1974646Y10812424D01*
X1960778Y10815574D01*
X1946656Y10816945D01*
X1932432Y10816488D01*
X1918411Y10814202D01*
X1904796Y10810138D01*
X1891792Y10804398D01*
X1879650Y10797032D01*
X1868525Y10788192D01*
X1858670Y10777982D01*
X1850186Y10766602D01*
X1843176Y10754207D01*
X1837842Y10741050D01*
X1834235Y10727283D01*
X1832457Y10713212D01*
X1832457Y10698988D01*
X1834235Y10684916D01*
X1837842Y10671149D01*
X1843176Y10657992D01*
X1850186Y10645597D01*
X1858670Y10634218D01*
X1868525Y10624007D01*
X1879650Y10615168D01*
X1891792Y10607802D01*
X1898446Y10604855D01*
X1901647Y10602620D01*
X1903730Y10599369D01*
X1904492Y10595559D01*
X1904492Y10027158D01*
X1903730Y10023297D01*
X1901494Y10019995D01*
X1899920Y10018420D01*
X1894281Y10010343D01*
X1890166Y10001453D01*
X1887626Y9991953D01*
X1886762Y9982200D01*
X1887626Y9972395D01*
X1890166Y9962896D01*
X1894281Y9954006D01*
X1899920Y9945979D01*
X1906879Y9939020D01*
X1914906Y9933381D01*
X1923846Y9929215D01*
X1933295Y9926675D01*
X1941169Y9926015D01*
X1944573Y9925100D01*
X1947468Y9923068D01*
X1949500Y9920173D01*
X1950415Y9916769D01*
X1951126Y9908895D01*
X1953666Y9899396D01*
X1957781Y9890506D01*
X1963420Y9882479D01*
X1970379Y9875520D01*
X1978406Y9869881D01*
X1987346Y9865715D01*
X1996795Y9863175D01*
G37*
G36*
X5749899Y10871200D02*
G01*
X6012535Y10871200D01*
X6012129Y10881563D01*
X6009233Y10904524D01*
X6004407Y10927130D01*
X5997752Y10949228D01*
X5989218Y10970717D01*
X5978956Y10991392D01*
X5967018Y11011204D01*
X5953404Y11029848D01*
X5938316Y11047374D01*
X5921806Y11063528D01*
X5904026Y11078260D01*
X5885027Y11091468D01*
X5865012Y11103000D01*
X5844133Y11112855D01*
X5822442Y11120882D01*
X5800191Y11127130D01*
X5777484Y11131448D01*
X5754522Y11133836D01*
X5749899Y11133937D01*
G37*
G36*
X457200Y10583113D02*
G01*
X457200Y10845800D01*
X194360Y10845800D01*
X196189Y10823905D01*
X200050Y10801146D01*
X205790Y10778744D01*
X213360Y10756950D01*
X222758Y10735818D01*
X233883Y10715599D01*
X246684Y10696346D01*
X261061Y10678210D01*
X276860Y10661396D01*
X294030Y10645902D01*
X312420Y10631932D01*
X331927Y10619587D01*
X352450Y10608868D01*
X373735Y10599928D01*
X395681Y10592765D01*
X418185Y10587482D01*
X441045Y10584129D01*
G37*
G36*
X5749899Y10583062D02*
G01*
X5754522Y10583164D01*
X5777484Y10585551D01*
X5800191Y10589869D01*
X5822442Y10596118D01*
X5844133Y10604144D01*
X5865012Y10613999D01*
X5885027Y10625531D01*
X5904026Y10638739D01*
X5921806Y10653471D01*
X5938316Y10669625D01*
X5953404Y10687100D01*
X5967018Y10705795D01*
X5978956Y10725607D01*
X5989218Y10746282D01*
X5997752Y10767771D01*
X6004407Y10789869D01*
X6009233Y10812475D01*
X6012129Y10835436D01*
X6012535Y10845800D01*
X5749899Y10845800D01*
G37*

%LPD*%
G36*
X6021476Y2736443D02*
G01*
X6017564Y2737358D01*
X6014313Y2739745D01*
X6008014Y2746654D01*
X5997194Y2755849D01*
X5985306Y2763621D01*
X5972505Y2769768D01*
X5959043Y2774238D01*
X5945073Y2776982D01*
X5930900Y2777896D01*
X5916726Y2776982D01*
X5902756Y2774238D01*
X5889294Y2769768D01*
X5876493Y2763621D01*
X5864555Y2755849D01*
X5859221Y2751328D01*
X5855919Y2749448D01*
X5852109Y2748889D01*
X5848400Y2749804D01*
X5845251Y2752039D01*
X5843219Y2755290D01*
X5842508Y2759049D01*
X5842508Y2985414D01*
X5843270Y2989326D01*
X5845454Y2992628D01*
X5848756Y2994812D01*
X5852668Y2995574D01*
X5918200Y2995574D01*
X5918200Y3098800D01*
X5852668Y3098800D01*
X5848756Y3099562D01*
X5845454Y3101746D01*
X5843270Y3105048D01*
X5842508Y3108960D01*
X5842508Y3114040D01*
X5843270Y3117900D01*
X5845454Y3121202D01*
X5848756Y3123438D01*
X5852668Y3124200D01*
X5918200Y3124200D01*
X5918200Y3227374D01*
X5852668Y3227374D01*
X5848756Y3228187D01*
X5845454Y3230372D01*
X5843270Y3233674D01*
X5842508Y3237534D01*
X5842508Y3266948D01*
X5843219Y3270656D01*
X5845251Y3273907D01*
X5848299Y3276142D01*
X5852007Y3277057D01*
X5855766Y3276600D01*
X5859119Y3274771D01*
X5862777Y3271723D01*
X5875070Y3263950D01*
X5888228Y3257753D01*
X5902045Y3253232D01*
X5916371Y3250539D01*
X5930900Y3249625D01*
X5945428Y3250539D01*
X5959703Y3253232D01*
X5973521Y3257753D01*
X5986729Y3263950D01*
X5999022Y3271723D01*
X6010198Y3281019D01*
X6014415Y3285490D01*
X6017666Y3287826D01*
X6021628Y3288690D01*
X6025540Y3287979D01*
X6028944Y3285794D01*
X6031179Y3282442D01*
X6031992Y3278530D01*
X6031992Y3237433D01*
X6031077Y3233318D01*
X6028588Y3229864D01*
X6024880Y3227781D01*
X6020308Y3227374D01*
X5943600Y3227374D01*
X5943600Y3124200D01*
X6021832Y3124200D01*
X6025692Y3123438D01*
X6028994Y3121202D01*
X6031230Y3117900D01*
X6031992Y3114040D01*
X6031992Y3108960D01*
X6031230Y3105048D01*
X6028994Y3101746D01*
X6025692Y3099562D01*
X6021832Y3098800D01*
X5943600Y3098800D01*
X5943600Y2995574D01*
X6020308Y2995574D01*
X6024880Y2995218D01*
X6028588Y2993085D01*
X6031077Y2989681D01*
X6031992Y2985516D01*
X6031992Y2746603D01*
X6031179Y2742641D01*
X6028893Y2739288D01*
X6025489Y2737104D01*
G37*

%LPD*%
G36*
X163068Y838708D02*
G01*
X159156Y839469D01*
X155905Y841705D01*
X153670Y844956D01*
X152908Y848868D01*
X152908Y2606649D01*
X153720Y2610612D01*
X156006Y2613964D01*
X159410Y2616098D01*
X163423Y2616809D01*
X167386Y2615844D01*
X171246Y2614066D01*
X180695Y2611526D01*
X190500Y2610662D01*
X200304Y2611526D01*
X202590Y2612136D01*
X206298Y2612390D01*
X209854Y2611374D01*
X212801Y2609088D01*
X214731Y2605938D01*
X215392Y2602331D01*
X215392Y2457958D01*
X214629Y2454097D01*
X212394Y2450795D01*
X210820Y2449220D01*
X205181Y2441194D01*
X201066Y2432253D01*
X198526Y2422804D01*
X197662Y2413000D01*
X198526Y2403195D01*
X201066Y2393746D01*
X205181Y2384806D01*
X210820Y2376779D01*
X217779Y2369820D01*
X225806Y2364181D01*
X234746Y2360066D01*
X244195Y2357526D01*
X254000Y2356662D01*
X263804Y2357526D01*
X273253Y2360066D01*
X282194Y2364181D01*
X290220Y2369820D01*
X297180Y2376779D01*
X302818Y2384806D01*
X306933Y2393746D01*
X309473Y2403195D01*
X310337Y2413000D01*
X309473Y2422804D01*
X306933Y2432253D01*
X302818Y2441194D01*
X297180Y2449220D01*
X295605Y2450795D01*
X293370Y2454097D01*
X292608Y2457958D01*
X292608Y5840780D01*
X293268Y5844438D01*
X295198Y5847588D01*
X298145Y5849874D01*
X301701Y5850890D01*
X305409Y5850636D01*
X307695Y5849975D01*
X317500Y5849162D01*
X327304Y5849975D01*
X329590Y5850636D01*
X333298Y5850890D01*
X336854Y5849874D01*
X339801Y5847588D01*
X341731Y5844438D01*
X342392Y5840780D01*
X342392Y2203958D01*
X341630Y2200097D01*
X339394Y2196795D01*
X337820Y2195220D01*
X332181Y2187194D01*
X328066Y2178253D01*
X325526Y2168804D01*
X324662Y2159000D01*
X325526Y2149195D01*
X328066Y2139746D01*
X332181Y2130806D01*
X337820Y2122779D01*
X344779Y2115820D01*
X352806Y2110181D01*
X361746Y2106066D01*
X371195Y2103526D01*
X381000Y2102662D01*
X390804Y2103526D01*
X393090Y2104136D01*
X396798Y2104390D01*
X400354Y2103374D01*
X403301Y2101088D01*
X405231Y2097938D01*
X405892Y2094331D01*
X405892Y1949957D01*
X405130Y1946097D01*
X402894Y1942795D01*
X401320Y1941220D01*
X395681Y1933193D01*
X391566Y1924253D01*
X389026Y1914804D01*
X388162Y1905000D01*
X389026Y1895195D01*
X391566Y1885746D01*
X395681Y1876806D01*
X401320Y1868779D01*
X408279Y1861820D01*
X416306Y1856181D01*
X425246Y1852066D01*
X434695Y1849526D01*
X444500Y1848662D01*
X454304Y1849526D01*
X463753Y1852066D01*
X472693Y1856181D01*
X480720Y1861820D01*
X487680Y1868779D01*
X493318Y1876806D01*
X497433Y1885746D01*
X499973Y1895195D01*
X500837Y1905000D01*
X499973Y1914804D01*
X497433Y1924253D01*
X493318Y1933193D01*
X487680Y1941220D01*
X486105Y1942795D01*
X483870Y1946097D01*
X483108Y1949957D01*
X483108Y6114491D01*
X483870Y6118402D01*
X486105Y6121704D01*
X487680Y6123279D01*
X493318Y6131306D01*
X497433Y6140196D01*
X499973Y6149695D01*
X500837Y6159500D01*
X499973Y6169253D01*
X497433Y6178753D01*
X493318Y6187643D01*
X487680Y6195720D01*
X486105Y6197295D01*
X483870Y6200597D01*
X483108Y6204458D01*
X483108Y6802780D01*
X483971Y6806946D01*
X486511Y6810349D01*
X490169Y6812432D01*
X494385Y6812889D01*
X499465Y6812280D01*
X5641848Y6812280D01*
X5648147Y6812991D01*
X5650179Y6813702D01*
X5653989Y6814261D01*
X5657748Y6813397D01*
X5660898Y6811162D01*
X5662980Y6807911D01*
X5663692Y6804152D01*
X5663692Y6560718D01*
X5662930Y6556806D01*
X5660694Y6553504D01*
X5643321Y6536131D01*
X5640425Y6534099D01*
X5637022Y6533184D01*
X5628995Y6532473D01*
X5619496Y6529933D01*
X5610606Y6525768D01*
X5602579Y6520129D01*
X5595620Y6513220D01*
X5589981Y6505143D01*
X5585815Y6496253D01*
X5583275Y6486753D01*
X5582462Y6477000D01*
X5583275Y6467195D01*
X5585815Y6457696D01*
X5589981Y6448806D01*
X5595620Y6440779D01*
X5602579Y6433820D01*
X5610606Y6428181D01*
X5619496Y6424015D01*
X5628995Y6421475D01*
X5638800Y6420662D01*
X5648553Y6421475D01*
X5658053Y6424015D01*
X5666943Y6428181D01*
X5675020Y6433820D01*
X5681980Y6440779D01*
X5687568Y6448806D01*
X5691733Y6457696D01*
X5694527Y6468008D01*
X5696356Y6471716D01*
X5699556Y6474409D01*
X5703570Y6475526D01*
X5707684Y6474968D01*
X5711240Y6472834D01*
X5713628Y6469481D01*
X5714492Y6465417D01*
X5714492Y6357467D01*
X5713730Y6353606D01*
X5711494Y6350304D01*
X5706821Y6345631D01*
X5703925Y6343599D01*
X5700522Y6342684D01*
X5692495Y6341973D01*
X5682996Y6339433D01*
X5674106Y6335268D01*
X5666079Y6329629D01*
X5659120Y6322720D01*
X5653481Y6314643D01*
X5649315Y6305753D01*
X5646775Y6296253D01*
X5645962Y6286500D01*
X5646775Y6276695D01*
X5649315Y6267196D01*
X5653481Y6258306D01*
X5659120Y6250279D01*
X5666079Y6243320D01*
X5674106Y6237681D01*
X5682996Y6233515D01*
X5692495Y6230975D01*
X5702300Y6230162D01*
X5712053Y6230975D01*
X5721553Y6233515D01*
X5730443Y6237681D01*
X5738520Y6243320D01*
X5745480Y6250279D01*
X5746800Y6252210D01*
X5749899Y6255105D01*
X5753963Y6256477D01*
X5758180Y6256070D01*
X5761888Y6253937D01*
X5764377Y6250533D01*
X5765292Y6246368D01*
X5765292Y6154318D01*
X5764530Y6150406D01*
X5762294Y6147104D01*
X5706821Y6091631D01*
X5703925Y6089599D01*
X5700522Y6088684D01*
X5692495Y6087973D01*
X5683046Y6085433D01*
X5674106Y6081318D01*
X5666079Y6075680D01*
X5659120Y6068720D01*
X5653481Y6060694D01*
X5649366Y6051753D01*
X5646826Y6042304D01*
X5645962Y6032500D01*
X5646826Y6022695D01*
X5649366Y6013246D01*
X5653481Y6004306D01*
X5659120Y5996279D01*
X5666079Y5989320D01*
X5674106Y5983681D01*
X5683046Y5979566D01*
X5692495Y5977026D01*
X5702300Y5976162D01*
X5712104Y5977026D01*
X5721553Y5979566D01*
X5730494Y5983681D01*
X5738520Y5989320D01*
X5745480Y5996279D01*
X5751118Y6004306D01*
X5755233Y6013246D01*
X5757773Y6022695D01*
X5758484Y6030722D01*
X5759399Y6034125D01*
X5761431Y6037021D01*
X5819902Y6095492D01*
X5823559Y6097828D01*
X5827877Y6098438D01*
X5832043Y6097168D01*
X5835294Y6094272D01*
X5841593Y6085636D01*
X5851550Y6075019D01*
X5862777Y6065723D01*
X5875070Y6057950D01*
X5888228Y6051753D01*
X5902045Y6047232D01*
X5916371Y6044539D01*
X5930900Y6043625D01*
X5945428Y6044539D01*
X5959703Y6047232D01*
X5973521Y6051753D01*
X5986729Y6057950D01*
X5999022Y6065723D01*
X6010198Y6075019D01*
X6014415Y6079490D01*
X6017666Y6081826D01*
X6021628Y6082690D01*
X6025540Y6081979D01*
X6028944Y6079794D01*
X6031179Y6076442D01*
X6031992Y6072530D01*
X6031992Y5992469D01*
X6031179Y5988507D01*
X6028944Y5985205D01*
X6025540Y5983020D01*
X6021628Y5982309D01*
X6017666Y5983173D01*
X6014415Y5985510D01*
X6010198Y5989980D01*
X5999022Y5999226D01*
X5986729Y6007049D01*
X5973521Y6013246D01*
X5959703Y6017717D01*
X5945428Y6020460D01*
X5930900Y6021374D01*
X5916371Y6020460D01*
X5902045Y6017717D01*
X5888228Y6013246D01*
X5875070Y6007049D01*
X5862777Y5999226D01*
X5851550Y5989980D01*
X5841593Y5979363D01*
X5833059Y5967577D01*
X5826048Y5954826D01*
X5820664Y5941314D01*
X5817057Y5927191D01*
X5815228Y5912764D01*
X5815228Y5898235D01*
X5817057Y5883757D01*
X5820664Y5869686D01*
X5826048Y5856173D01*
X5833059Y5843371D01*
X5841593Y5831636D01*
X5851550Y5821019D01*
X5862777Y5811723D01*
X5875070Y5803950D01*
X5888228Y5797753D01*
X5902045Y5793232D01*
X5916371Y5790539D01*
X5930900Y5789625D01*
X5945428Y5790539D01*
X5959703Y5793232D01*
X5973521Y5797753D01*
X5986729Y5803950D01*
X5999022Y5811723D01*
X6010198Y5821019D01*
X6014415Y5825490D01*
X6017666Y5827826D01*
X6021628Y5828690D01*
X6025540Y5827979D01*
X6028944Y5825794D01*
X6031179Y5822442D01*
X6031992Y5818530D01*
X6031992Y5738469D01*
X6031179Y5734507D01*
X6028944Y5731205D01*
X6025540Y5729020D01*
X6021628Y5728309D01*
X6017666Y5729173D01*
X6014415Y5731510D01*
X6010198Y5735980D01*
X5999022Y5745226D01*
X5986729Y5753049D01*
X5973521Y5759246D01*
X5959703Y5763717D01*
X5945428Y5766460D01*
X5930900Y5767374D01*
X5916371Y5766460D01*
X5902045Y5763717D01*
X5888228Y5759246D01*
X5875070Y5753049D01*
X5862777Y5745226D01*
X5851550Y5735980D01*
X5841593Y5725363D01*
X5833059Y5713577D01*
X5826048Y5700826D01*
X5820664Y5687314D01*
X5817057Y5673191D01*
X5815228Y5658764D01*
X5815228Y5644235D01*
X5817057Y5629757D01*
X5820664Y5615686D01*
X5826048Y5602173D01*
X5833059Y5589371D01*
X5841593Y5577636D01*
X5851550Y5567019D01*
X5862777Y5557723D01*
X5875070Y5549950D01*
X5888228Y5543753D01*
X5902045Y5539232D01*
X5916371Y5536539D01*
X5930900Y5535625D01*
X5945428Y5536539D01*
X5959703Y5539232D01*
X5973521Y5543753D01*
X5986729Y5549950D01*
X5999022Y5557723D01*
X6010198Y5567019D01*
X6014415Y5571490D01*
X6017666Y5573826D01*
X6021628Y5574690D01*
X6025540Y5573979D01*
X6028944Y5571794D01*
X6031179Y5568442D01*
X6031992Y5564530D01*
X6031992Y5484469D01*
X6031179Y5480507D01*
X6028944Y5477205D01*
X6025540Y5475020D01*
X6021628Y5474309D01*
X6017666Y5475173D01*
X6014415Y5477510D01*
X6010198Y5481980D01*
X5999022Y5491226D01*
X5986729Y5499049D01*
X5973521Y5505246D01*
X5959703Y5509717D01*
X5945428Y5512460D01*
X5930900Y5513374D01*
X5916371Y5512460D01*
X5902045Y5509717D01*
X5888228Y5505246D01*
X5875070Y5499049D01*
X5862777Y5491226D01*
X5851550Y5481980D01*
X5841593Y5471363D01*
X5833059Y5459577D01*
X5826048Y5446826D01*
X5820664Y5433314D01*
X5817057Y5419191D01*
X5815228Y5404764D01*
X5815228Y5390235D01*
X5817057Y5375757D01*
X5820664Y5361686D01*
X5826048Y5348173D01*
X5833059Y5335371D01*
X5841593Y5323636D01*
X5851550Y5313019D01*
X5862777Y5303723D01*
X5875070Y5295950D01*
X5888228Y5289753D01*
X5902045Y5285232D01*
X5916371Y5282539D01*
X5930900Y5281625D01*
X5945428Y5282539D01*
X5959703Y5285232D01*
X5973521Y5289753D01*
X5986729Y5295950D01*
X5999022Y5303723D01*
X6010198Y5313019D01*
X6014415Y5317490D01*
X6017666Y5319826D01*
X6021628Y5320690D01*
X6025540Y5319979D01*
X6028944Y5317794D01*
X6031179Y5314442D01*
X6031992Y5310530D01*
X6031992Y5230469D01*
X6031179Y5226507D01*
X6028944Y5223205D01*
X6025540Y5221020D01*
X6021628Y5220309D01*
X6017666Y5221173D01*
X6014415Y5223510D01*
X6010198Y5227980D01*
X5999022Y5237226D01*
X5986729Y5245049D01*
X5973521Y5251246D01*
X5959703Y5255717D01*
X5945428Y5258460D01*
X5930900Y5259374D01*
X5916371Y5258460D01*
X5902045Y5255717D01*
X5888228Y5251246D01*
X5875070Y5245049D01*
X5862777Y5237226D01*
X5851550Y5227980D01*
X5841593Y5217363D01*
X5833059Y5205577D01*
X5826048Y5192826D01*
X5820664Y5179314D01*
X5817057Y5165191D01*
X5815228Y5150764D01*
X5815228Y5136235D01*
X5817057Y5121757D01*
X5820664Y5107686D01*
X5826048Y5094173D01*
X5833059Y5081371D01*
X5841593Y5069636D01*
X5851550Y5059019D01*
X5862777Y5049723D01*
X5875070Y5041950D01*
X5888228Y5035753D01*
X5902045Y5031232D01*
X5916371Y5028539D01*
X5930900Y5027625D01*
X5945428Y5028539D01*
X5959703Y5031232D01*
X5973521Y5035753D01*
X5986729Y5041950D01*
X5999022Y5049723D01*
X6010198Y5059019D01*
X6014415Y5063490D01*
X6017666Y5065826D01*
X6021628Y5066690D01*
X6025540Y5065979D01*
X6028944Y5063794D01*
X6031179Y5060442D01*
X6031992Y5056530D01*
X6031992Y4976469D01*
X6031179Y4972507D01*
X6028944Y4969205D01*
X6025540Y4967020D01*
X6021628Y4966309D01*
X6017666Y4967173D01*
X6014415Y4969510D01*
X6010198Y4973980D01*
X5999022Y4983226D01*
X5986729Y4991049D01*
X5973521Y4997246D01*
X5959703Y5001717D01*
X5945428Y5004460D01*
X5930900Y5005374D01*
X5916371Y5004460D01*
X5902045Y5001717D01*
X5888228Y4997246D01*
X5875070Y4991049D01*
X5862777Y4983226D01*
X5851550Y4973980D01*
X5841593Y4963363D01*
X5833059Y4951577D01*
X5826048Y4938826D01*
X5820664Y4925314D01*
X5817057Y4911191D01*
X5815228Y4896764D01*
X5815228Y4882235D01*
X5817057Y4867757D01*
X5820664Y4853686D01*
X5826048Y4840173D01*
X5833059Y4827371D01*
X5841593Y4815636D01*
X5851550Y4805019D01*
X5862777Y4795723D01*
X5875070Y4787950D01*
X5888228Y4781753D01*
X5902045Y4777232D01*
X5916371Y4774539D01*
X5930900Y4773625D01*
X5945428Y4774539D01*
X5959703Y4777232D01*
X5973521Y4781753D01*
X5986729Y4787950D01*
X5999022Y4795723D01*
X6010198Y4805019D01*
X6014415Y4809490D01*
X6017666Y4811826D01*
X6021628Y4812690D01*
X6025540Y4811979D01*
X6028944Y4809794D01*
X6031179Y4806442D01*
X6031992Y4802530D01*
X6031992Y4722469D01*
X6031179Y4718507D01*
X6028944Y4715205D01*
X6025540Y4713020D01*
X6021628Y4712309D01*
X6017666Y4713173D01*
X6014415Y4715510D01*
X6010198Y4719980D01*
X5999022Y4729226D01*
X5986729Y4737049D01*
X5973521Y4743246D01*
X5959703Y4747717D01*
X5945428Y4750460D01*
X5930900Y4751374D01*
X5916371Y4750460D01*
X5902045Y4747717D01*
X5888228Y4743246D01*
X5875070Y4737049D01*
X5862777Y4729226D01*
X5851550Y4719980D01*
X5841593Y4709363D01*
X5833059Y4697577D01*
X5826048Y4684826D01*
X5820664Y4671314D01*
X5817057Y4657191D01*
X5815228Y4642764D01*
X5815228Y4628235D01*
X5817057Y4613757D01*
X5820664Y4599686D01*
X5826048Y4586173D01*
X5833059Y4573371D01*
X5841593Y4561636D01*
X5851550Y4551019D01*
X5862777Y4541723D01*
X5875070Y4533950D01*
X5888228Y4527753D01*
X5902045Y4523232D01*
X5916371Y4520539D01*
X5930900Y4519625D01*
X5945428Y4520539D01*
X5959703Y4523232D01*
X5973521Y4527753D01*
X5986729Y4533950D01*
X5999022Y4541723D01*
X6010198Y4551019D01*
X6014415Y4555490D01*
X6017666Y4557826D01*
X6021628Y4558690D01*
X6025540Y4557979D01*
X6028944Y4555794D01*
X6031179Y4552442D01*
X6031992Y4548530D01*
X6031992Y4468469D01*
X6031179Y4464507D01*
X6028944Y4461205D01*
X6025540Y4459020D01*
X6021628Y4458309D01*
X6017666Y4459173D01*
X6014415Y4461510D01*
X6010198Y4465980D01*
X5999022Y4475226D01*
X5986729Y4483049D01*
X5973521Y4489246D01*
X5959703Y4493717D01*
X5945428Y4496460D01*
X5930900Y4497374D01*
X5916371Y4496460D01*
X5902045Y4493717D01*
X5888228Y4489246D01*
X5875070Y4483049D01*
X5862777Y4475226D01*
X5851550Y4465980D01*
X5841593Y4455363D01*
X5833059Y4443577D01*
X5826048Y4430826D01*
X5820664Y4417314D01*
X5817057Y4403191D01*
X5815228Y4388764D01*
X5815228Y4374235D01*
X5817057Y4359757D01*
X5820664Y4345686D01*
X5826048Y4332173D01*
X5833059Y4319371D01*
X5841593Y4307636D01*
X5851550Y4297019D01*
X5862777Y4287723D01*
X5875070Y4279950D01*
X5888228Y4273753D01*
X5902045Y4269232D01*
X5916371Y4266539D01*
X5930900Y4265625D01*
X5945428Y4266539D01*
X5959703Y4269232D01*
X5973521Y4273753D01*
X5986729Y4279950D01*
X5999022Y4287723D01*
X6010198Y4297019D01*
X6014415Y4301490D01*
X6017666Y4303826D01*
X6021628Y4304690D01*
X6025540Y4303979D01*
X6028944Y4301794D01*
X6031179Y4298442D01*
X6031992Y4294530D01*
X6031992Y4214469D01*
X6031179Y4210507D01*
X6028944Y4207205D01*
X6025540Y4205020D01*
X6021628Y4204309D01*
X6017666Y4205173D01*
X6014415Y4207510D01*
X6010198Y4211980D01*
X5999022Y4221226D01*
X5986729Y4229049D01*
X5973521Y4235246D01*
X5959703Y4239717D01*
X5945428Y4242460D01*
X5930900Y4243374D01*
X5916371Y4242460D01*
X5902045Y4239717D01*
X5888228Y4235246D01*
X5875070Y4229049D01*
X5862777Y4221226D01*
X5851550Y4211980D01*
X5841593Y4201363D01*
X5833059Y4189577D01*
X5826048Y4176826D01*
X5820664Y4163314D01*
X5817057Y4149191D01*
X5815228Y4134764D01*
X5815228Y4120235D01*
X5817057Y4105757D01*
X5820664Y4091686D01*
X5826048Y4078173D01*
X5833059Y4065371D01*
X5841593Y4053636D01*
X5851550Y4043019D01*
X5862777Y4033723D01*
X5875070Y4025950D01*
X5888228Y4019753D01*
X5902045Y4015232D01*
X5916371Y4012539D01*
X5930900Y4011625D01*
X5945428Y4012539D01*
X5959703Y4015232D01*
X5973521Y4019753D01*
X5986729Y4025950D01*
X5999022Y4033723D01*
X6010198Y4043019D01*
X6014415Y4047490D01*
X6017666Y4049826D01*
X6021628Y4050690D01*
X6025540Y4049979D01*
X6028944Y4047794D01*
X6031179Y4044442D01*
X6031992Y4040530D01*
X6031992Y3960469D01*
X6031179Y3956507D01*
X6028944Y3953205D01*
X6025540Y3951020D01*
X6021628Y3950309D01*
X6017666Y3951173D01*
X6014415Y3953510D01*
X6010198Y3957980D01*
X5999022Y3967226D01*
X5986729Y3975049D01*
X5973521Y3981246D01*
X5959703Y3985717D01*
X5945428Y3988460D01*
X5930900Y3989374D01*
X5916371Y3988460D01*
X5902045Y3985717D01*
X5888228Y3981246D01*
X5875070Y3975049D01*
X5862777Y3967226D01*
X5851550Y3957980D01*
X5841593Y3947363D01*
X5833059Y3935577D01*
X5826048Y3922826D01*
X5820664Y3909314D01*
X5817057Y3895191D01*
X5815228Y3880764D01*
X5815228Y3866235D01*
X5817057Y3851757D01*
X5820664Y3837686D01*
X5826048Y3824173D01*
X5833059Y3811371D01*
X5841593Y3799636D01*
X5851550Y3789019D01*
X5862777Y3779723D01*
X5875070Y3771950D01*
X5888228Y3765753D01*
X5902045Y3761232D01*
X5916371Y3758539D01*
X5930900Y3757625D01*
X5945428Y3758539D01*
X5959703Y3761232D01*
X5973521Y3765753D01*
X5986729Y3771950D01*
X5999022Y3779723D01*
X6010198Y3789019D01*
X6014415Y3793490D01*
X6017666Y3795826D01*
X6021628Y3796690D01*
X6025540Y3795979D01*
X6028944Y3793794D01*
X6031179Y3790442D01*
X6031992Y3786530D01*
X6031992Y3706469D01*
X6031179Y3702507D01*
X6028944Y3699205D01*
X6025540Y3697020D01*
X6021628Y3696309D01*
X6017666Y3697173D01*
X6014415Y3699510D01*
X6010198Y3703980D01*
X5999022Y3713226D01*
X5986729Y3721049D01*
X5973521Y3727246D01*
X5959703Y3731717D01*
X5945428Y3734460D01*
X5930900Y3735374D01*
X5916371Y3734460D01*
X5902045Y3731717D01*
X5888228Y3727246D01*
X5875070Y3721049D01*
X5862777Y3713226D01*
X5851550Y3703980D01*
X5841593Y3693363D01*
X5833059Y3681577D01*
X5826048Y3668826D01*
X5820664Y3655314D01*
X5817057Y3641191D01*
X5815736Y3630777D01*
X5814466Y3627018D01*
X5811875Y3624021D01*
X5808319Y3622243D01*
X5804357Y3621989D01*
X5800598Y3623259D01*
X5797600Y3625850D01*
X5795822Y3629406D01*
X5793333Y3638753D01*
X5789168Y3647643D01*
X5783529Y3655720D01*
X5776620Y3662679D01*
X5768543Y3668268D01*
X5759653Y3672433D01*
X5750153Y3674973D01*
X5740400Y3675837D01*
X5730595Y3674973D01*
X5728309Y3674364D01*
X5724601Y3674059D01*
X5721045Y3675126D01*
X5718098Y3677361D01*
X5716168Y3680561D01*
X5715508Y3684168D01*
X5715508Y3828491D01*
X5716270Y3832402D01*
X5718505Y3835704D01*
X5720080Y3837279D01*
X5725668Y3845306D01*
X5729833Y3854196D01*
X5732373Y3863695D01*
X5733237Y3873500D01*
X5732373Y3883253D01*
X5729833Y3892753D01*
X5725668Y3901643D01*
X5720080Y3909720D01*
X5713120Y3916679D01*
X5705043Y3922268D01*
X5696153Y3926433D01*
X5686653Y3928973D01*
X5676900Y3929837D01*
X5667095Y3928973D01*
X5664809Y3928364D01*
X5661101Y3928059D01*
X5657545Y3929126D01*
X5654598Y3931361D01*
X5652668Y3934561D01*
X5652008Y3938168D01*
X5652008Y4082491D01*
X5652770Y4086402D01*
X5655005Y4089704D01*
X5656580Y4091279D01*
X5662218Y4099306D01*
X5666333Y4108246D01*
X5668873Y4117695D01*
X5669737Y4127500D01*
X5668873Y4137304D01*
X5666333Y4146753D01*
X5662218Y4155694D01*
X5656580Y4163720D01*
X5649620Y4170679D01*
X5641594Y4176318D01*
X5632653Y4180433D01*
X5623204Y4182973D01*
X5613400Y4183837D01*
X5603595Y4182973D01*
X5594146Y4180433D01*
X5585206Y4176318D01*
X5577179Y4170679D01*
X5570220Y4163720D01*
X5564581Y4155694D01*
X5560466Y4146753D01*
X5557926Y4137304D01*
X5557062Y4127500D01*
X5557926Y4117695D01*
X5560466Y4108246D01*
X5564581Y4099306D01*
X5570220Y4091279D01*
X5571794Y4089704D01*
X5574030Y4086402D01*
X5574792Y4082491D01*
X5574792Y3412896D01*
X5573928Y3408781D01*
X5571439Y3405327D01*
X5567781Y3403244D01*
X5563565Y3402787D01*
X5559552Y3404108D01*
X5556402Y3406901D01*
X5554675Y3410762D01*
X5552440Y3421430D01*
X5545734Y3443528D01*
X5537250Y3465017D01*
X5526989Y3485692D01*
X5515000Y3505504D01*
X5501436Y3524148D01*
X5486349Y3541674D01*
X5469839Y3557828D01*
X5452008Y3572560D01*
X5433060Y3585768D01*
X5413044Y3597300D01*
X5392115Y3607155D01*
X5370474Y3615182D01*
X5348224Y3621430D01*
X5325516Y3625748D01*
X5302504Y3628136D01*
X5297881Y3628237D01*
X5297881Y3365500D01*
X5564632Y3365500D01*
X5568543Y3364737D01*
X5571794Y3362502D01*
X5574030Y3359251D01*
X5574792Y3355340D01*
X5574792Y3350260D01*
X5574030Y3346348D01*
X5571794Y3343097D01*
X5568543Y3340862D01*
X5564632Y3340100D01*
X5297881Y3340100D01*
X5297881Y3077362D01*
X5302504Y3077464D01*
X5325516Y3079851D01*
X5348224Y3084169D01*
X5370474Y3090418D01*
X5392115Y3098444D01*
X5413044Y3108299D01*
X5433060Y3119831D01*
X5452008Y3133039D01*
X5469839Y3147771D01*
X5486349Y3163925D01*
X5501436Y3181400D01*
X5515000Y3200095D01*
X5526989Y3219907D01*
X5537250Y3240582D01*
X5545734Y3262071D01*
X5552440Y3284169D01*
X5554675Y3294837D01*
X5556402Y3298698D01*
X5559552Y3301492D01*
X5563565Y3302812D01*
X5567781Y3302355D01*
X5571439Y3300272D01*
X5573928Y3296818D01*
X5574792Y3292703D01*
X5574792Y2826308D01*
X5574030Y2822397D01*
X5571794Y2819095D01*
X5570220Y2817520D01*
X5564581Y2809494D01*
X5560466Y2800553D01*
X5557926Y2791104D01*
X5557062Y2781300D01*
X5557266Y2778861D01*
X5556758Y2774645D01*
X5554522Y2770987D01*
X5551068Y2768549D01*
X5546852Y2767787D01*
X5542737Y2768803D01*
X5540705Y2769768D01*
X5527243Y2774238D01*
X5513273Y2776982D01*
X5499100Y2777896D01*
X5484926Y2776982D01*
X5470956Y2774238D01*
X5457494Y2769768D01*
X5444693Y2763621D01*
X5432755Y2755849D01*
X5421934Y2746654D01*
X5412384Y2736138D01*
X5404256Y2724454D01*
X5397703Y2711856D01*
X5392775Y2698546D01*
X5389626Y2684678D01*
X5388254Y2670556D01*
X5388711Y2656332D01*
X5390997Y2642311D01*
X5395010Y2628696D01*
X5400802Y2615692D01*
X5408168Y2603550D01*
X5417007Y2592425D01*
X5427218Y2582570D01*
X5438597Y2574086D01*
X5450992Y2567076D01*
X5464149Y2561742D01*
X5477916Y2558135D01*
X5491988Y2556357D01*
X5506212Y2556357D01*
X5520283Y2558135D01*
X5534050Y2561742D01*
X5547207Y2567076D01*
X5559602Y2574086D01*
X5570982Y2582570D01*
X5581192Y2592425D01*
X5590032Y2603550D01*
X5597398Y2615692D01*
X5603138Y2628696D01*
X5607202Y2642311D01*
X5609488Y2656332D01*
X5609945Y2670556D01*
X5608574Y2684678D01*
X5605424Y2698546D01*
X5600649Y2711551D01*
X5599988Y2715514D01*
X5601004Y2719476D01*
X5603494Y2722676D01*
X5606999Y2724708D01*
X5611063Y2725166D01*
X5613400Y2724962D01*
X5623204Y2725826D01*
X5625490Y2726436D01*
X5629198Y2726740D01*
X5632754Y2725674D01*
X5635701Y2723388D01*
X5637631Y2720238D01*
X5638292Y2716631D01*
X5638292Y2457958D01*
X5637530Y2454097D01*
X5635294Y2450795D01*
X5633720Y2449220D01*
X5628081Y2441194D01*
X5625896Y2436469D01*
X5623407Y2433116D01*
X5619750Y2431034D01*
X5615635Y2430627D01*
X5611622Y2431897D01*
X5608523Y2434691D01*
X5606796Y2438501D01*
X5605424Y2444546D01*
X5600496Y2457856D01*
X5593943Y2470454D01*
X5585815Y2482138D01*
X5576214Y2492654D01*
X5565444Y2501849D01*
X5553506Y2509621D01*
X5540705Y2515768D01*
X5527243Y2520238D01*
X5513273Y2522982D01*
X5499100Y2523896D01*
X5484926Y2522982D01*
X5470956Y2520238D01*
X5457494Y2515768D01*
X5444693Y2509621D01*
X5432755Y2501849D01*
X5421934Y2492654D01*
X5412384Y2482138D01*
X5404256Y2470454D01*
X5397703Y2457856D01*
X5392775Y2444546D01*
X5389626Y2430678D01*
X5388254Y2416556D01*
X5388711Y2402332D01*
X5390997Y2388311D01*
X5395010Y2374696D01*
X5400802Y2361692D01*
X5408168Y2349550D01*
X5417007Y2338425D01*
X5427218Y2328570D01*
X5438597Y2320086D01*
X5450992Y2313076D01*
X5464149Y2307742D01*
X5477916Y2304135D01*
X5491988Y2302357D01*
X5506212Y2302357D01*
X5520283Y2304135D01*
X5534050Y2307742D01*
X5547207Y2313076D01*
X5559602Y2320086D01*
X5570982Y2328570D01*
X5581192Y2338425D01*
X5590032Y2349550D01*
X5597398Y2361692D01*
X5603138Y2374696D01*
X5607050Y2387854D01*
X5608980Y2391460D01*
X5612130Y2394000D01*
X5616041Y2395118D01*
X5620105Y2394610D01*
X5623610Y2392527D01*
X5625998Y2389276D01*
X5628081Y2384806D01*
X5633720Y2376779D01*
X5640679Y2369820D01*
X5648706Y2364181D01*
X5657646Y2360066D01*
X5667095Y2357526D01*
X5676900Y2356662D01*
X5686704Y2357526D01*
X5688990Y2358136D01*
X5692698Y2358390D01*
X5696254Y2357374D01*
X5699201Y2355088D01*
X5701131Y2351938D01*
X5701792Y2348331D01*
X5701792Y2203958D01*
X5701030Y2200097D01*
X5698794Y2196795D01*
X5697220Y2195220D01*
X5691581Y2187194D01*
X5687466Y2178253D01*
X5684926Y2168804D01*
X5684062Y2159000D01*
X5684926Y2149195D01*
X5687466Y2139746D01*
X5691581Y2130806D01*
X5697220Y2122779D01*
X5704179Y2115820D01*
X5712206Y2110181D01*
X5721146Y2106066D01*
X5730595Y2103526D01*
X5740400Y2102662D01*
X5750204Y2103526D01*
X5752490Y2104136D01*
X5756148Y2104390D01*
X5759704Y2103374D01*
X5762650Y2101088D01*
X5764580Y2097938D01*
X5765292Y2094280D01*
X5765292Y2032507D01*
X5766054Y2024481D01*
X5768238Y2017268D01*
X5771794Y2010562D01*
X5776925Y2004364D01*
X5817006Y1964283D01*
X5819190Y1960981D01*
X5820003Y1957070D01*
X5820003Y1820570D01*
X5820714Y1814220D01*
X5822594Y1808784D01*
X5825693Y1803857D01*
X5829757Y1799793D01*
X5834684Y1796694D01*
X5840120Y1794814D01*
X5846470Y1794103D01*
X6015329Y1794103D01*
X6020663Y1794713D01*
X6024880Y1794256D01*
X6028588Y1792173D01*
X6031077Y1788769D01*
X6031992Y1784604D01*
X6031992Y1487932D01*
X6031026Y1483664D01*
X6028436Y1480210D01*
X6024626Y1478178D01*
X6020257Y1477873D01*
X6016244Y1479448D01*
X6013196Y1482547D01*
X6011722Y1486662D01*
X6009233Y1506524D01*
X6004407Y1529130D01*
X5997752Y1551228D01*
X5989218Y1572717D01*
X5978956Y1593443D01*
X5967018Y1613204D01*
X5953404Y1631899D01*
X5938316Y1649374D01*
X5921806Y1665528D01*
X5904026Y1680260D01*
X5885027Y1693468D01*
X5865012Y1705000D01*
X5844133Y1714855D01*
X5822442Y1722882D01*
X5800191Y1729130D01*
X5777484Y1733448D01*
X5754522Y1735886D01*
X5749899Y1735937D01*
X5749899Y1473200D01*
X6010452Y1473200D01*
X6014466Y1472387D01*
X6017768Y1470101D01*
X6019952Y1466697D01*
X6020612Y1462684D01*
X6019698Y1458772D01*
X6017310Y1453692D01*
X6015075Y1450594D01*
X6011875Y1448511D01*
X6008116Y1447800D01*
X5749899Y1447800D01*
X5749899Y1185062D01*
X5754522Y1185164D01*
X5777484Y1187551D01*
X5800191Y1191920D01*
X5822442Y1198118D01*
X5844133Y1206144D01*
X5865012Y1215999D01*
X5885027Y1227582D01*
X5904026Y1240739D01*
X5921806Y1255471D01*
X5938316Y1271625D01*
X5953404Y1289151D01*
X5967018Y1307846D01*
X5978956Y1327607D01*
X5989218Y1348282D01*
X5997752Y1369771D01*
X6004407Y1391920D01*
X6006084Y1399590D01*
X6007608Y1403197D01*
X6010351Y1405940D01*
X6013958Y1407414D01*
X6017869Y1407464D01*
X6021527Y1405991D01*
X6024321Y1403299D01*
X6027420Y1398879D01*
X6034379Y1391920D01*
X6042406Y1386281D01*
X6051296Y1382166D01*
X6060795Y1379626D01*
X6070600Y1378762D01*
X6080353Y1379626D01*
X6089853Y1382166D01*
X6098743Y1386281D01*
X6106820Y1391920D01*
X6113729Y1398879D01*
X6119368Y1406906D01*
X6123533Y1415846D01*
X6126073Y1425295D01*
X6126937Y1435100D01*
X6126073Y1444904D01*
X6123533Y1454353D01*
X6119368Y1463294D01*
X6113729Y1471320D01*
X6112154Y1472895D01*
X6109970Y1476197D01*
X6109208Y1480108D01*
X6109208Y2948432D01*
X6109970Y2952292D01*
X6112154Y2955594D01*
X6115456Y2957830D01*
X6119368Y2958592D01*
X9174530Y2958592D01*
X9178493Y2957779D01*
X9181846Y2955493D01*
X9184030Y2952089D01*
X9184690Y2948076D01*
X9183725Y2944114D01*
X9181947Y2940253D01*
X9179407Y2930804D01*
X9178544Y2921000D01*
X9179407Y2911195D01*
X9181947Y2901746D01*
X9186062Y2892806D01*
X9191701Y2884779D01*
X9193276Y2883204D01*
X9195511Y2879902D01*
X9196273Y2875991D01*
X9196273Y1799640D01*
X9195511Y1795830D01*
X9193428Y1792579D01*
X9190228Y1790344D01*
X9183573Y1787398D01*
X9171432Y1780032D01*
X9160357Y1771192D01*
X9150451Y1760982D01*
X9141968Y1749602D01*
X9134957Y1737207D01*
X9129623Y1724050D01*
X9126016Y1710283D01*
X9124238Y1696212D01*
X9124238Y1681988D01*
X9126016Y1667916D01*
X9129623Y1654149D01*
X9134957Y1640992D01*
X9141968Y1628597D01*
X9150451Y1617218D01*
X9160357Y1607007D01*
X9171432Y1598168D01*
X9183573Y1590802D01*
X9196578Y1585010D01*
X9210192Y1580997D01*
X9224213Y1578711D01*
X9238437Y1578254D01*
X9252559Y1579626D01*
X9266428Y1582775D01*
X9279788Y1587703D01*
X9292386Y1594256D01*
X9304020Y1602384D01*
X9314535Y1611934D01*
X9323730Y1622755D01*
X9331502Y1634693D01*
X9337649Y1647494D01*
X9342120Y1660956D01*
X9344863Y1674926D01*
X9345777Y1689100D01*
X9344863Y1703273D01*
X9342120Y1717243D01*
X9337649Y1730705D01*
X9331502Y1743506D01*
X9323730Y1755444D01*
X9314535Y1766265D01*
X9304020Y1775815D01*
X9292386Y1783892D01*
X9278975Y1790852D01*
X9276080Y1793138D01*
X9274149Y1796288D01*
X9273489Y1799894D01*
X9273489Y2875991D01*
X9274251Y2879902D01*
X9276486Y2883204D01*
X9278061Y2884779D01*
X9283700Y2892806D01*
X9287814Y2901746D01*
X9290354Y2911195D01*
X9291218Y2921000D01*
X9290354Y2930804D01*
X9287814Y2940253D01*
X9286036Y2944114D01*
X9285071Y2948076D01*
X9285732Y2952089D01*
X9287916Y2955493D01*
X9291269Y2957779D01*
X9295231Y2958592D01*
X11038332Y2958592D01*
X11042192Y2957830D01*
X11045494Y2955594D01*
X11047679Y2952292D01*
X11048492Y2948432D01*
X11048492Y848868D01*
X11047679Y844956D01*
X11045494Y841705D01*
X11042192Y839469D01*
X11038332Y838708D01*
G37*

%LPC*%
G36*
X5272481Y3077413D02*
G01*
X5272481Y3340100D01*
X5009642Y3340100D01*
X5011470Y3318205D01*
X5015331Y3295446D01*
X5021072Y3273044D01*
X5028692Y3251250D01*
X5038090Y3230118D01*
X5049215Y3209899D01*
X5062016Y3190646D01*
X5076342Y3172510D01*
X5092192Y3155696D01*
X5109362Y3140202D01*
X5127752Y3126232D01*
X5147259Y3113887D01*
X5167731Y3103168D01*
X5189016Y3094228D01*
X5211013Y3087065D01*
X5233517Y3081782D01*
X5256377Y3078429D01*
G37*
G36*
X7567168Y903224D02*
G01*
X7584084Y904138D01*
X7600746Y906983D01*
X7617002Y911656D01*
X7632649Y918159D01*
X7647482Y926337D01*
X7661249Y936142D01*
X7673898Y947419D01*
X7685176Y960018D01*
X7694930Y973836D01*
X7703108Y988618D01*
X7709611Y1004265D01*
X7714284Y1020521D01*
X7717129Y1037183D01*
X7718094Y1054100D01*
X7717129Y1071016D01*
X7714284Y1087678D01*
X7709611Y1103934D01*
X7703108Y1119581D01*
X7694930Y1134364D01*
X7685176Y1148181D01*
X7673898Y1160780D01*
X7661249Y1172057D01*
X7647482Y1181862D01*
X7632649Y1190040D01*
X7617002Y1196543D01*
X7602423Y1200708D01*
X7598613Y1202791D01*
X7596022Y1206246D01*
X7595108Y1210462D01*
X7595108Y1390091D01*
X7595870Y1394002D01*
X7598054Y1397304D01*
X7599629Y1398879D01*
X7605268Y1406906D01*
X7609433Y1415846D01*
X7611973Y1425295D01*
X7612837Y1435100D01*
X7611973Y1444904D01*
X7609433Y1454353D01*
X7605268Y1463294D01*
X7599629Y1471320D01*
X7592720Y1478280D01*
X7584643Y1483918D01*
X7575753Y1488033D01*
X7566253Y1490573D01*
X7556500Y1491437D01*
X7546695Y1490573D01*
X7537196Y1488033D01*
X7528306Y1483918D01*
X7520279Y1478280D01*
X7513320Y1471320D01*
X7507681Y1463294D01*
X7503515Y1454353D01*
X7500975Y1444904D01*
X7500162Y1435100D01*
X7500975Y1425295D01*
X7503515Y1415846D01*
X7507681Y1406906D01*
X7513320Y1398879D01*
X7514894Y1397304D01*
X7517079Y1394002D01*
X7517892Y1390091D01*
X7517892Y1203553D01*
X7517079Y1199642D01*
X7514894Y1196340D01*
X7511592Y1194155D01*
X7501686Y1190040D01*
X7486903Y1181862D01*
X7473086Y1172057D01*
X7460488Y1160780D01*
X7449210Y1148181D01*
X7439406Y1134364D01*
X7431227Y1119581D01*
X7424775Y1103934D01*
X7420051Y1087678D01*
X7417257Y1071016D01*
X7416292Y1054100D01*
X7417257Y1037183D01*
X7420051Y1020521D01*
X7424775Y1004265D01*
X7431227Y988618D01*
X7439406Y973836D01*
X7449210Y960018D01*
X7460488Y947419D01*
X7473086Y936142D01*
X7486903Y926337D01*
X7501686Y918159D01*
X7517333Y911656D01*
X7533589Y906983D01*
X7550302Y904138D01*
G37*
G36*
X9486900Y903224D02*
G01*
X9503765Y904138D01*
X9520478Y906983D01*
X9536734Y911656D01*
X9552330Y918159D01*
X9567164Y926337D01*
X9580981Y936142D01*
X9593580Y947419D01*
X9604857Y960018D01*
X9614662Y973836D01*
X9622840Y988618D01*
X9629292Y1004265D01*
X9634016Y1020521D01*
X9636810Y1037183D01*
X9637776Y1054100D01*
X9636810Y1071016D01*
X9634016Y1087678D01*
X9629292Y1103934D01*
X9622840Y1119581D01*
X9614662Y1134364D01*
X9604857Y1148181D01*
X9593580Y1160780D01*
X9580981Y1172057D01*
X9567164Y1181862D01*
X9552330Y1190040D01*
X9536734Y1196543D01*
X9532823Y1197660D01*
X9529013Y1199692D01*
X9526422Y1203147D01*
X9525508Y1207414D01*
X9525508Y1390091D01*
X9526270Y1394002D01*
X9528454Y1397304D01*
X9530029Y1398879D01*
X9535668Y1406906D01*
X9539833Y1415846D01*
X9542373Y1425295D01*
X9543237Y1435100D01*
X9542373Y1444904D01*
X9539833Y1454353D01*
X9535668Y1463294D01*
X9530029Y1471320D01*
X9523120Y1478280D01*
X9515043Y1483918D01*
X9506153Y1488033D01*
X9496653Y1490573D01*
X9486900Y1491437D01*
X9477095Y1490573D01*
X9467596Y1488033D01*
X9458706Y1483918D01*
X9450679Y1478280D01*
X9443720Y1471320D01*
X9438081Y1463294D01*
X9433915Y1454353D01*
X9431375Y1444904D01*
X9430562Y1435100D01*
X9431375Y1425295D01*
X9433915Y1415846D01*
X9438081Y1406906D01*
X9443720Y1398879D01*
X9445294Y1397304D01*
X9447479Y1394002D01*
X9448292Y1390142D01*
X9448292Y1207414D01*
X9447326Y1203147D01*
X9444736Y1199692D01*
X9440926Y1197660D01*
X9437065Y1196543D01*
X9421418Y1190040D01*
X9406585Y1181862D01*
X9392818Y1172057D01*
X9380169Y1160780D01*
X9368891Y1148181D01*
X9359138Y1134364D01*
X9350959Y1119581D01*
X9344456Y1103934D01*
X9339783Y1087678D01*
X9336938Y1071016D01*
X9335973Y1054100D01*
X9336938Y1037183D01*
X9339783Y1020521D01*
X9344456Y1004265D01*
X9350959Y988618D01*
X9359138Y973836D01*
X9368891Y960018D01*
X9380169Y947419D01*
X9392818Y936142D01*
X9406585Y926337D01*
X9421418Y918159D01*
X9437065Y911656D01*
X9453321Y906983D01*
X9469983Y904138D01*
G37*
G36*
X7059168Y903224D02*
G01*
X7076084Y904138D01*
X7092746Y906983D01*
X7109002Y911656D01*
X7124649Y918159D01*
X7139482Y926337D01*
X7153249Y936142D01*
X7165898Y947419D01*
X7177176Y960018D01*
X7186930Y973836D01*
X7195108Y988618D01*
X7201611Y1004265D01*
X7206284Y1020521D01*
X7209129Y1037183D01*
X7210094Y1054100D01*
X7209129Y1071016D01*
X7206284Y1087678D01*
X7201611Y1103934D01*
X7195108Y1119581D01*
X7186930Y1134364D01*
X7177176Y1148181D01*
X7165898Y1160780D01*
X7153249Y1172057D01*
X7139482Y1181862D01*
X7124649Y1190040D01*
X7109002Y1196543D01*
X7107123Y1197051D01*
X7103313Y1199134D01*
X7100722Y1202588D01*
X7099808Y1206855D01*
X7099808Y2113991D01*
X7100570Y2117902D01*
X7102754Y2121204D01*
X7104329Y2122779D01*
X7109968Y2130806D01*
X7114133Y2139746D01*
X7116673Y2149195D01*
X7117537Y2159000D01*
X7116673Y2168804D01*
X7114133Y2178253D01*
X7109968Y2187194D01*
X7104329Y2195220D01*
X7097420Y2202180D01*
X7089343Y2207818D01*
X7080453Y2211933D01*
X7070953Y2214473D01*
X7061200Y2215337D01*
X7051395Y2214473D01*
X7041896Y2211933D01*
X7033006Y2207818D01*
X7024979Y2202180D01*
X7018020Y2195220D01*
X7012381Y2187194D01*
X7008215Y2178253D01*
X7005675Y2168804D01*
X7004812Y2159000D01*
X7005675Y2149195D01*
X7008215Y2139746D01*
X7012381Y2130806D01*
X7018020Y2122779D01*
X7019594Y2121204D01*
X7021779Y2117902D01*
X7022592Y2114042D01*
X7022592Y1207973D01*
X7021626Y1203756D01*
X7019036Y1200302D01*
X7015225Y1198219D01*
X7009333Y1196543D01*
X6993686Y1190040D01*
X6978903Y1181862D01*
X6965086Y1172057D01*
X6952488Y1160780D01*
X6941210Y1148181D01*
X6931406Y1134364D01*
X6923227Y1119581D01*
X6916775Y1103934D01*
X6912051Y1087678D01*
X6909257Y1071016D01*
X6908292Y1054100D01*
X6909257Y1037183D01*
X6912051Y1020521D01*
X6916775Y1004265D01*
X6923227Y988618D01*
X6931406Y973836D01*
X6941210Y960018D01*
X6952488Y947419D01*
X6965086Y936142D01*
X6978903Y926337D01*
X6993686Y918159D01*
X7009333Y911656D01*
X7025589Y906983D01*
X7042302Y904138D01*
G37*
G36*
X8978900Y903224D02*
G01*
X8995765Y904138D01*
X9012478Y906983D01*
X9028734Y911656D01*
X9044330Y918159D01*
X9059164Y926337D01*
X9072981Y936142D01*
X9085580Y947419D01*
X9096857Y960018D01*
X9106662Y973836D01*
X9114840Y988618D01*
X9121292Y1004265D01*
X9126016Y1020521D01*
X9128810Y1037183D01*
X9129776Y1054100D01*
X9128810Y1071016D01*
X9126016Y1087678D01*
X9121292Y1103934D01*
X9114840Y1119581D01*
X9106662Y1134364D01*
X9096857Y1148181D01*
X9085580Y1160780D01*
X9072981Y1172057D01*
X9059164Y1181862D01*
X9044330Y1190040D01*
X9028734Y1196543D01*
X9024823Y1197660D01*
X9021013Y1199692D01*
X9018422Y1203147D01*
X9017508Y1207414D01*
X9017508Y2456891D01*
X9018270Y2460802D01*
X9020454Y2464104D01*
X9022029Y2465679D01*
X9027668Y2473706D01*
X9031833Y2482646D01*
X9034373Y2492095D01*
X9035237Y2501900D01*
X9034373Y2511704D01*
X9031833Y2521153D01*
X9027668Y2530094D01*
X9022029Y2538120D01*
X9015120Y2545080D01*
X9007043Y2550718D01*
X8998153Y2554833D01*
X8988653Y2557373D01*
X8978900Y2558237D01*
X8969095Y2557373D01*
X8966758Y2556764D01*
X8963101Y2556459D01*
X8959545Y2557526D01*
X8956598Y2559761D01*
X8954668Y2562961D01*
X8954008Y2566568D01*
X8954008Y2698191D01*
X8954770Y2702102D01*
X8956954Y2705354D01*
X8958529Y2706979D01*
X8964168Y2715006D01*
X8968333Y2723946D01*
X8970873Y2733395D01*
X8971737Y2743200D01*
X8970873Y2753004D01*
X8968333Y2762453D01*
X8964168Y2771394D01*
X8958529Y2779420D01*
X8951620Y2786380D01*
X8943543Y2792018D01*
X8934653Y2796133D01*
X8925153Y2798673D01*
X8915400Y2799537D01*
X8905595Y2798673D01*
X8896096Y2796133D01*
X8887206Y2792018D01*
X8879179Y2786380D01*
X8872220Y2779420D01*
X8866581Y2771394D01*
X8862415Y2762453D01*
X8859875Y2753004D01*
X8859062Y2743200D01*
X8859875Y2733395D01*
X8862415Y2723946D01*
X8866581Y2715006D01*
X8872220Y2706979D01*
X8873794Y2705404D01*
X8875979Y2702102D01*
X8876792Y2698242D01*
X8876792Y2203958D01*
X8875979Y2200097D01*
X8873794Y2196795D01*
X8872220Y2195220D01*
X8866581Y2187194D01*
X8862415Y2178253D01*
X8859875Y2168804D01*
X8859012Y2159000D01*
X8859875Y2149195D01*
X8862415Y2139746D01*
X8866581Y2130806D01*
X8872220Y2122779D01*
X8879179Y2115820D01*
X8887206Y2110181D01*
X8896096Y2106066D01*
X8905595Y2103526D01*
X8915400Y2102662D01*
X8925153Y2103526D01*
X8927490Y2104136D01*
X8931198Y2104390D01*
X8934704Y2103374D01*
X8937650Y2101088D01*
X8939580Y2097938D01*
X8940292Y2094331D01*
X8940292Y1207414D01*
X8939326Y1203147D01*
X8936736Y1199692D01*
X8932926Y1197660D01*
X8929065Y1196543D01*
X8913418Y1190040D01*
X8898585Y1181862D01*
X8884818Y1172057D01*
X8872169Y1160780D01*
X8860891Y1148181D01*
X8851138Y1134364D01*
X8842959Y1119581D01*
X8836456Y1103934D01*
X8831783Y1087678D01*
X8828938Y1071016D01*
X8827973Y1054100D01*
X8828938Y1037183D01*
X8831783Y1020521D01*
X8836456Y1004265D01*
X8842959Y988618D01*
X8851138Y973836D01*
X8860891Y960018D01*
X8872169Y947419D01*
X8884818Y936142D01*
X8898585Y926337D01*
X8913418Y918159D01*
X8929065Y911656D01*
X8945321Y906983D01*
X8961983Y904138D01*
G37*
G36*
X296570Y905103D02*
G01*
X368300Y905103D01*
X368300Y1003300D01*
X270103Y1003300D01*
X270103Y931570D01*
X270814Y925271D01*
X272694Y919784D01*
X275793Y914908D01*
X279908Y910793D01*
X284784Y907694D01*
X290271Y905814D01*
G37*
G36*
X393700Y905103D02*
G01*
X465429Y905103D01*
X471728Y905814D01*
X477215Y907694D01*
X482092Y910793D01*
X486206Y914908D01*
X489305Y919784D01*
X491185Y925271D01*
X491896Y931570D01*
X491896Y1003300D01*
X393700Y1003300D01*
G37*
G36*
X5668670Y905103D02*
G01*
X5740400Y905103D01*
X5740400Y1003300D01*
X5642203Y1003300D01*
X5642203Y931570D01*
X5642914Y925271D01*
X5644794Y919784D01*
X5647893Y914908D01*
X5651957Y910793D01*
X5656884Y907694D01*
X5662320Y905814D01*
G37*
G36*
X5765800Y905103D02*
G01*
X5837529Y905103D01*
X5843828Y905814D01*
X5849315Y907694D01*
X5854192Y910793D01*
X5858306Y914908D01*
X5861354Y919784D01*
X5863285Y925271D01*
X5863996Y931570D01*
X5863996Y1003300D01*
X5765800Y1003300D01*
G37*
G36*
X638556Y905154D02*
G01*
X652678Y906526D01*
X666546Y909675D01*
X679907Y914603D01*
X692505Y921156D01*
X704138Y929284D01*
X714654Y938834D01*
X723849Y949655D01*
X731621Y961593D01*
X737768Y974394D01*
X742238Y987856D01*
X744982Y1001826D01*
X745896Y1016000D01*
X744982Y1030173D01*
X742238Y1044143D01*
X737768Y1057605D01*
X731621Y1070406D01*
X723849Y1082344D01*
X714654Y1093114D01*
X704138Y1102715D01*
X692505Y1110843D01*
X679907Y1117396D01*
X666546Y1122324D01*
X652678Y1125474D01*
X638556Y1126845D01*
X624332Y1126388D01*
X610311Y1124102D01*
X596696Y1120038D01*
X583692Y1114298D01*
X571550Y1106932D01*
X560425Y1098092D01*
X550570Y1087882D01*
X542086Y1076502D01*
X535076Y1064107D01*
X529742Y1050950D01*
X526135Y1037183D01*
X524357Y1023112D01*
X524357Y1008887D01*
X526135Y994816D01*
X529742Y981049D01*
X535076Y967892D01*
X542086Y955497D01*
X550570Y944118D01*
X560425Y933907D01*
X571550Y925068D01*
X583692Y917702D01*
X596696Y911910D01*
X610311Y907897D01*
X624332Y905611D01*
G37*
G36*
X5495544Y905154D02*
G01*
X5509717Y905611D01*
X5523788Y907897D01*
X5537403Y911910D01*
X5550357Y917702D01*
X5562549Y925068D01*
X5573623Y933907D01*
X5583529Y944118D01*
X5592013Y955497D01*
X5598972Y967892D01*
X5604306Y981049D01*
X5607913Y994816D01*
X5609742Y1008887D01*
X5609742Y1023112D01*
X5607913Y1037183D01*
X5604306Y1050950D01*
X5598972Y1064107D01*
X5592013Y1076502D01*
X5583529Y1087882D01*
X5573623Y1098092D01*
X5562549Y1106932D01*
X5550357Y1114298D01*
X5537403Y1120038D01*
X5523788Y1124102D01*
X5509717Y1126388D01*
X5495544Y1126845D01*
X5481370Y1125474D01*
X5467553Y1122324D01*
X5454192Y1117396D01*
X5441594Y1110843D01*
X5429961Y1102715D01*
X5419445Y1093114D01*
X5410200Y1082344D01*
X5402478Y1070406D01*
X5396331Y1057605D01*
X5391810Y1044143D01*
X5389118Y1030173D01*
X5388203Y1016000D01*
X5389118Y1001826D01*
X5391810Y987856D01*
X5396331Y974394D01*
X5402478Y961593D01*
X5410200Y949655D01*
X5419445Y938834D01*
X5429961Y929284D01*
X5441594Y921156D01*
X5454192Y914603D01*
X5467553Y909675D01*
X5481370Y906526D01*
G37*
G36*
X393700Y1028700D02*
G01*
X491896Y1028700D01*
X491896Y1100429D01*
X491185Y1106728D01*
X489305Y1112215D01*
X486206Y1117092D01*
X482092Y1121206D01*
X477215Y1124305D01*
X471728Y1126185D01*
X465429Y1126896D01*
X393700Y1126896D01*
G37*
G36*
X270103Y1028700D02*
G01*
X368300Y1028700D01*
X368300Y1126896D01*
X296570Y1126896D01*
X290271Y1126185D01*
X284784Y1124305D01*
X279908Y1121206D01*
X275793Y1117092D01*
X272694Y1112215D01*
X270814Y1106728D01*
X270103Y1100429D01*
G37*
G36*
X5642203Y1028700D02*
G01*
X5740400Y1028700D01*
X5740400Y1126896D01*
X5668670Y1126896D01*
X5662320Y1126185D01*
X5656884Y1124305D01*
X5651957Y1121206D01*
X5647893Y1117092D01*
X5644794Y1112215D01*
X5642914Y1106728D01*
X5642203Y1100429D01*
G37*
G36*
X5765800Y1028700D02*
G01*
X5863996Y1028700D01*
X5863996Y1100429D01*
X5863285Y1106728D01*
X5861354Y1112215D01*
X5858306Y1117092D01*
X5854192Y1121206D01*
X5849315Y1124305D01*
X5843828Y1126185D01*
X5837529Y1126896D01*
X5765800Y1126896D01*
G37*
G36*
X1574800Y1086662D02*
G01*
X1584604Y1087526D01*
X1594053Y1090066D01*
X1602994Y1094181D01*
X1611020Y1099820D01*
X1617980Y1106779D01*
X1623618Y1114806D01*
X1627733Y1123746D01*
X1630273Y1133195D01*
X1631137Y1143000D01*
X1630273Y1152804D01*
X1627733Y1162253D01*
X1623618Y1171194D01*
X1617980Y1179220D01*
X1616405Y1180795D01*
X1614170Y1184097D01*
X1613408Y1188008D01*
X1613408Y5987491D01*
X1614170Y5991402D01*
X1616405Y5994704D01*
X1617980Y5996279D01*
X1623618Y6004306D01*
X1627733Y6013196D01*
X1630273Y6022695D01*
X1631137Y6032500D01*
X1630273Y6042253D01*
X1627733Y6051753D01*
X1623618Y6060643D01*
X1617980Y6068720D01*
X1611020Y6075629D01*
X1602994Y6081268D01*
X1594053Y6085433D01*
X1584604Y6087973D01*
X1574800Y6088837D01*
X1564995Y6087973D01*
X1555546Y6085433D01*
X1546606Y6081268D01*
X1538579Y6075629D01*
X1531620Y6068720D01*
X1525981Y6060643D01*
X1521866Y6051753D01*
X1519326Y6042253D01*
X1518462Y6032500D01*
X1519326Y6022695D01*
X1521866Y6013196D01*
X1525981Y6004306D01*
X1531620Y5996279D01*
X1533194Y5994704D01*
X1535430Y5991402D01*
X1536192Y5987491D01*
X1536192Y1188008D01*
X1535430Y1184097D01*
X1533194Y1180795D01*
X1531620Y1179220D01*
X1525981Y1171194D01*
X1521866Y1162253D01*
X1519326Y1152804D01*
X1518462Y1143000D01*
X1519326Y1133195D01*
X1521866Y1123746D01*
X1525981Y1114806D01*
X1531620Y1106779D01*
X1538579Y1099820D01*
X1546606Y1094181D01*
X1555546Y1090066D01*
X1564995Y1087526D01*
G37*
G36*
X1422400Y1086662D02*
G01*
X1432204Y1087526D01*
X1441653Y1090066D01*
X1450594Y1094181D01*
X1458620Y1099820D01*
X1465580Y1106779D01*
X1471218Y1114806D01*
X1475333Y1123746D01*
X1477873Y1133195D01*
X1478737Y1143000D01*
X1477873Y1152804D01*
X1475333Y1162253D01*
X1471218Y1171194D01*
X1465580Y1179220D01*
X1464005Y1180795D01*
X1461770Y1184097D01*
X1461008Y1188008D01*
X1461008Y6241491D01*
X1461770Y6245402D01*
X1464005Y6248704D01*
X1465580Y6250279D01*
X1471218Y6258306D01*
X1475333Y6267196D01*
X1477873Y6276695D01*
X1478737Y6286500D01*
X1477873Y6296253D01*
X1475333Y6305753D01*
X1471218Y6314643D01*
X1465580Y6322720D01*
X1458620Y6329629D01*
X1450594Y6335268D01*
X1441653Y6339433D01*
X1432204Y6341973D01*
X1422400Y6342837D01*
X1412595Y6341973D01*
X1403146Y6339433D01*
X1394206Y6335268D01*
X1386179Y6329629D01*
X1379220Y6322720D01*
X1373581Y6314643D01*
X1369466Y6305753D01*
X1366926Y6296253D01*
X1366062Y6286500D01*
X1366926Y6276695D01*
X1369466Y6267196D01*
X1373581Y6258306D01*
X1379220Y6250279D01*
X1380794Y6248704D01*
X1383030Y6245402D01*
X1383792Y6241491D01*
X1383792Y1188008D01*
X1383030Y1184097D01*
X1380794Y1180795D01*
X1379220Y1179220D01*
X1373581Y1171194D01*
X1369466Y1162253D01*
X1366926Y1152804D01*
X1366062Y1143000D01*
X1366926Y1133195D01*
X1369466Y1123746D01*
X1373581Y1114806D01*
X1379220Y1106779D01*
X1386179Y1099820D01*
X1394206Y1094181D01*
X1403146Y1090066D01*
X1412595Y1087526D01*
G37*
G36*
X483971Y1185062D02*
G01*
X488594Y1185164D01*
X511556Y1187551D01*
X534263Y1191920D01*
X556514Y1198118D01*
X578154Y1206144D01*
X599084Y1215999D01*
X619099Y1227582D01*
X638048Y1240739D01*
X655878Y1255471D01*
X672388Y1271625D01*
X687476Y1289151D01*
X701040Y1307846D01*
X713028Y1327607D01*
X723290Y1348282D01*
X731824Y1369771D01*
X738479Y1391920D01*
X743305Y1414475D01*
X746201Y1437436D01*
X746607Y1447800D01*
X483971Y1447800D01*
G37*
G36*
X5724499Y1185113D02*
G01*
X5724499Y1447800D01*
X5461609Y1447800D01*
X5463489Y1425956D01*
X5467350Y1403146D01*
X5473090Y1380744D01*
X5480659Y1358950D01*
X5490057Y1337818D01*
X5501182Y1317599D01*
X5513984Y1298346D01*
X5528360Y1280210D01*
X5544159Y1263396D01*
X5561330Y1247902D01*
X5579719Y1233932D01*
X5599226Y1221587D01*
X5619699Y1210868D01*
X5641035Y1201928D01*
X5662980Y1194765D01*
X5685485Y1189482D01*
X5708345Y1186129D01*
G37*
G36*
X458571Y1185113D02*
G01*
X458571Y1447800D01*
X195681Y1447800D01*
X197561Y1425956D01*
X201371Y1403146D01*
X207111Y1380744D01*
X214731Y1358950D01*
X224129Y1337818D01*
X235254Y1317599D01*
X248056Y1298346D01*
X262382Y1280210D01*
X278231Y1263396D01*
X295402Y1247902D01*
X313791Y1233932D01*
X333298Y1221587D01*
X353771Y1210868D01*
X375107Y1201928D01*
X397052Y1194765D01*
X419557Y1189482D01*
X442417Y1186129D01*
G37*
G36*
X10727588Y1185773D02*
G01*
X10732211Y1185875D01*
X10755172Y1188262D01*
X10777880Y1192580D01*
X10800130Y1198829D01*
X10821822Y1206855D01*
X10842701Y1216710D01*
X10862716Y1228242D01*
X10881715Y1241450D01*
X10899495Y1256182D01*
X10916005Y1272336D01*
X10931093Y1289862D01*
X10944707Y1308557D01*
X10956645Y1328318D01*
X10966958Y1348994D01*
X10975441Y1370482D01*
X10982147Y1392580D01*
X10986922Y1415186D01*
X10989818Y1438148D01*
X10990275Y1448511D01*
X10727588Y1448511D01*
G37*
G36*
X10702188Y1185824D02*
G01*
X10702188Y1448511D01*
X10439349Y1448511D01*
X10441178Y1426616D01*
X10445038Y1403858D01*
X10450779Y1381455D01*
X10458348Y1359662D01*
X10467746Y1338529D01*
X10478922Y1318310D01*
X10491673Y1299057D01*
X10506049Y1280922D01*
X10521848Y1264107D01*
X10539018Y1248613D01*
X10557459Y1234643D01*
X10576966Y1222298D01*
X10597438Y1211580D01*
X10618724Y1202639D01*
X10640720Y1195476D01*
X10663174Y1190193D01*
X10686034Y1186840D01*
G37*
G36*
X7318756Y1324254D02*
G01*
X7332878Y1325626D01*
X7346746Y1328775D01*
X7360056Y1333703D01*
X7372654Y1340256D01*
X7384338Y1348384D01*
X7394854Y1357934D01*
X7404049Y1368755D01*
X7411821Y1380693D01*
X7417968Y1393494D01*
X7422438Y1406956D01*
X7425131Y1420926D01*
X7426045Y1435100D01*
X7425131Y1449273D01*
X7422438Y1463243D01*
X7417968Y1476705D01*
X7411821Y1489506D01*
X7404049Y1501444D01*
X7394854Y1512265D01*
X7384338Y1521815D01*
X7372654Y1529943D01*
X7360056Y1536496D01*
X7346746Y1541424D01*
X7332878Y1544574D01*
X7318756Y1545945D01*
X7304531Y1545488D01*
X7290511Y1543202D01*
X7276896Y1539138D01*
X7263892Y1533398D01*
X7251750Y1526032D01*
X7240625Y1517192D01*
X7230770Y1506982D01*
X7222236Y1495602D01*
X7215276Y1483207D01*
X7209942Y1470050D01*
X7206335Y1456283D01*
X7204506Y1442212D01*
X7204506Y1427988D01*
X7206335Y1413916D01*
X7209942Y1400149D01*
X7215276Y1386992D01*
X7222236Y1374597D01*
X7230770Y1363218D01*
X7240625Y1353007D01*
X7251750Y1344168D01*
X7263892Y1336802D01*
X7276896Y1331010D01*
X7290511Y1326997D01*
X7304531Y1324711D01*
G37*
G36*
X9238437Y1324254D02*
G01*
X9252559Y1325626D01*
X9266428Y1328775D01*
X9279788Y1333703D01*
X9292386Y1340256D01*
X9304020Y1348384D01*
X9314535Y1357934D01*
X9323730Y1368755D01*
X9331502Y1380693D01*
X9337649Y1393494D01*
X9342120Y1406956D01*
X9344863Y1420926D01*
X9345777Y1435100D01*
X9344863Y1449273D01*
X9342120Y1463243D01*
X9337649Y1476705D01*
X9331502Y1489506D01*
X9323730Y1501444D01*
X9314535Y1512265D01*
X9304020Y1521815D01*
X9292386Y1529943D01*
X9279788Y1536496D01*
X9266428Y1541424D01*
X9252559Y1544574D01*
X9238437Y1545945D01*
X9224213Y1545488D01*
X9210192Y1543202D01*
X9196578Y1539138D01*
X9183573Y1533398D01*
X9171432Y1526032D01*
X9160357Y1517192D01*
X9150451Y1506982D01*
X9141968Y1495602D01*
X9134957Y1483207D01*
X9129623Y1470050D01*
X9126016Y1456283D01*
X9124238Y1442212D01*
X9124238Y1427988D01*
X9126016Y1413916D01*
X9129623Y1400149D01*
X9134957Y1386992D01*
X9141968Y1374597D01*
X9150451Y1363218D01*
X9160357Y1353007D01*
X9171432Y1344168D01*
X9183573Y1336802D01*
X9196578Y1331010D01*
X9210192Y1326997D01*
X9224213Y1324711D01*
G37*
G36*
X9746437Y1324254D02*
G01*
X9760559Y1325626D01*
X9774428Y1328775D01*
X9787788Y1333703D01*
X9800386Y1340256D01*
X9812020Y1348384D01*
X9822535Y1357934D01*
X9831730Y1368755D01*
X9839502Y1380693D01*
X9845649Y1393494D01*
X9850272Y1407414D01*
X9852304Y1410919D01*
X9855454Y1413357D01*
X9859365Y1414373D01*
X9863328Y1413814D01*
X9866782Y1411732D01*
X9869119Y1408531D01*
X9869881Y1406906D01*
X9875520Y1398879D01*
X9882479Y1391920D01*
X9890506Y1386281D01*
X9899396Y1382166D01*
X9908895Y1379626D01*
X9918700Y1378762D01*
X9928453Y1379626D01*
X9937953Y1382166D01*
X9946843Y1386281D01*
X9954920Y1391920D01*
X9961829Y1398879D01*
X9967468Y1406906D01*
X9971633Y1415846D01*
X9974173Y1425295D01*
X9975037Y1435100D01*
X9974173Y1444904D01*
X9971633Y1454353D01*
X9967468Y1463294D01*
X9961829Y1471320D01*
X9960254Y1472895D01*
X9958070Y1476197D01*
X9957308Y1480108D01*
X9957308Y1986991D01*
X9958070Y1990902D01*
X9960254Y1994204D01*
X9961829Y1995779D01*
X9967468Y2003806D01*
X9971633Y2012746D01*
X9974173Y2022195D01*
X9975037Y2032000D01*
X9974173Y2041804D01*
X9971633Y2051253D01*
X9967468Y2060193D01*
X9961829Y2068220D01*
X9954920Y2075180D01*
X9946843Y2080818D01*
X9937953Y2084933D01*
X9928453Y2087473D01*
X9918700Y2088337D01*
X9908895Y2087473D01*
X9899396Y2084933D01*
X9890506Y2080818D01*
X9882479Y2075180D01*
X9875520Y2068220D01*
X9869881Y2060193D01*
X9865715Y2051253D01*
X9863175Y2041804D01*
X9862312Y2032000D01*
X9863175Y2022195D01*
X9865715Y2012746D01*
X9869881Y2003806D01*
X9875520Y1995779D01*
X9877094Y1994204D01*
X9879279Y1990902D01*
X9880092Y1986991D01*
X9880092Y1480058D01*
X9879279Y1476197D01*
X9877094Y1472895D01*
X9875520Y1471320D01*
X9869881Y1463294D01*
X9869119Y1461668D01*
X9866782Y1458468D01*
X9863328Y1456385D01*
X9859365Y1455826D01*
X9855454Y1456842D01*
X9852304Y1459280D01*
X9850272Y1462786D01*
X9845649Y1476705D01*
X9839502Y1489506D01*
X9831730Y1501444D01*
X9822535Y1512265D01*
X9812020Y1521815D01*
X9800386Y1529943D01*
X9787788Y1536496D01*
X9774428Y1541424D01*
X9760559Y1544574D01*
X9746437Y1545945D01*
X9732213Y1545488D01*
X9718192Y1543202D01*
X9704578Y1539138D01*
X9691573Y1533398D01*
X9679432Y1526032D01*
X9668357Y1517192D01*
X9658451Y1506982D01*
X9649968Y1495602D01*
X9642957Y1483207D01*
X9637623Y1470050D01*
X9634016Y1456283D01*
X9632238Y1442212D01*
X9632238Y1427988D01*
X9634016Y1413916D01*
X9637623Y1400149D01*
X9642957Y1386992D01*
X9649968Y1374597D01*
X9658451Y1363218D01*
X9668357Y1353007D01*
X9679432Y1344168D01*
X9691573Y1336802D01*
X9704578Y1331010D01*
X9718192Y1326997D01*
X9732213Y1324711D01*
G37*
G36*
X9996881Y903224D02*
G01*
X10013797Y904138D01*
X10030460Y906983D01*
X10046716Y911656D01*
X10062362Y918159D01*
X10077145Y926337D01*
X10090962Y936142D01*
X10103561Y947419D01*
X10114838Y960018D01*
X10124643Y973836D01*
X10132822Y988618D01*
X10139324Y1004265D01*
X10143998Y1020521D01*
X10146842Y1037183D01*
X10147757Y1054100D01*
X10146842Y1071016D01*
X10143998Y1087678D01*
X10139324Y1103934D01*
X10132822Y1119581D01*
X10124643Y1134364D01*
X10114838Y1148181D01*
X10103561Y1160780D01*
X10090962Y1172057D01*
X10077145Y1181862D01*
X10062362Y1190040D01*
X10046716Y1196543D01*
X10030460Y1201216D01*
X10013797Y1204061D01*
X9996881Y1204976D01*
X9979964Y1204061D01*
X9963302Y1201216D01*
X9947046Y1196543D01*
X9931400Y1190040D01*
X9916617Y1181862D01*
X9902799Y1172057D01*
X9890201Y1160780D01*
X9878923Y1148181D01*
X9869119Y1134364D01*
X9860940Y1119581D01*
X9854438Y1103934D01*
X9849764Y1087678D01*
X9846919Y1071016D01*
X9846005Y1054100D01*
X9846919Y1037183D01*
X9849764Y1020521D01*
X9854438Y1004265D01*
X9860940Y988618D01*
X9869119Y973836D01*
X9878923Y960018D01*
X9890201Y947419D01*
X9902799Y936142D01*
X9916617Y926337D01*
X9931400Y918159D01*
X9947046Y911656D01*
X9963302Y906983D01*
X9979964Y904138D01*
G37*
G36*
X483971Y1473200D02*
G01*
X746607Y1473200D01*
X746201Y1483614D01*
X743305Y1506524D01*
X738479Y1529130D01*
X731824Y1551228D01*
X723290Y1572717D01*
X713028Y1593443D01*
X701040Y1613204D01*
X687476Y1631899D01*
X672388Y1649374D01*
X655878Y1665528D01*
X638048Y1680260D01*
X619099Y1693468D01*
X599084Y1705000D01*
X578154Y1714855D01*
X556514Y1722882D01*
X534263Y1729130D01*
X511556Y1733448D01*
X488594Y1735886D01*
X483971Y1735937D01*
G37*
G36*
X5461609Y1473200D02*
G01*
X5724499Y1473200D01*
X5724499Y1735937D01*
X5708345Y1734921D01*
X5685485Y1731518D01*
X5662980Y1726234D01*
X5641035Y1719122D01*
X5619699Y1710131D01*
X5599226Y1699463D01*
X5579719Y1687068D01*
X5561330Y1673098D01*
X5544159Y1657654D01*
X5528360Y1640789D01*
X5513984Y1622704D01*
X5501182Y1603451D01*
X5490057Y1583182D01*
X5480659Y1562100D01*
X5473090Y1540256D01*
X5467350Y1517853D01*
X5463489Y1495094D01*
G37*
G36*
X195681Y1473200D02*
G01*
X458571Y1473200D01*
X458571Y1735937D01*
X442417Y1734921D01*
X419557Y1731518D01*
X397052Y1726234D01*
X375107Y1719122D01*
X353771Y1710131D01*
X333298Y1699463D01*
X313791Y1687068D01*
X295402Y1673098D01*
X278231Y1657654D01*
X262382Y1640789D01*
X248056Y1622704D01*
X235254Y1603451D01*
X224129Y1583182D01*
X214731Y1562100D01*
X207111Y1540256D01*
X201371Y1517853D01*
X197561Y1495094D01*
G37*
G36*
X10727588Y1473911D02*
G01*
X10990275Y1473911D01*
X10989818Y1484325D01*
X10986922Y1507236D01*
X10982147Y1529842D01*
X10975441Y1551940D01*
X10966958Y1573428D01*
X10956645Y1594104D01*
X10944707Y1613916D01*
X10931093Y1632610D01*
X10916005Y1650085D01*
X10899495Y1666239D01*
X10881715Y1680972D01*
X10862716Y1694180D01*
X10842701Y1705711D01*
X10821822Y1715566D01*
X10800130Y1723593D01*
X10777880Y1729841D01*
X10755172Y1734159D01*
X10732211Y1736547D01*
X10727588Y1736648D01*
G37*
G36*
X10439349Y1473911D02*
G01*
X10702188Y1473911D01*
X10702188Y1736598D01*
X10686034Y1735582D01*
X10663174Y1732229D01*
X10640720Y1726946D01*
X10618724Y1719783D01*
X10597438Y1710842D01*
X10576966Y1700123D01*
X10557459Y1687779D01*
X10539018Y1673809D01*
X10521848Y1658315D01*
X10506049Y1641500D01*
X10491673Y1623364D01*
X10478922Y1604111D01*
X10467746Y1583893D01*
X10458348Y1562760D01*
X10450779Y1540967D01*
X10445038Y1518564D01*
X10441178Y1495806D01*
G37*
G36*
X9746437Y1578254D02*
G01*
X9760559Y1579626D01*
X9774428Y1582775D01*
X9787788Y1587703D01*
X9800386Y1594256D01*
X9812020Y1602384D01*
X9822535Y1611934D01*
X9831730Y1622755D01*
X9839502Y1634693D01*
X9845649Y1647494D01*
X9850120Y1660956D01*
X9852863Y1674926D01*
X9853777Y1689100D01*
X9852863Y1703273D01*
X9850120Y1717243D01*
X9845649Y1730705D01*
X9839502Y1743506D01*
X9831730Y1755444D01*
X9822535Y1766265D01*
X9812020Y1775815D01*
X9800386Y1783943D01*
X9787788Y1790496D01*
X9774428Y1795424D01*
X9760559Y1798574D01*
X9746437Y1799945D01*
X9732213Y1799488D01*
X9718192Y1797202D01*
X9704578Y1793138D01*
X9691573Y1787398D01*
X9679432Y1780032D01*
X9668357Y1771192D01*
X9658451Y1760982D01*
X9649968Y1749602D01*
X9642957Y1737207D01*
X9637623Y1724050D01*
X9634016Y1710283D01*
X9632238Y1696212D01*
X9632238Y1681988D01*
X9634016Y1667916D01*
X9637623Y1654149D01*
X9642957Y1640992D01*
X9649968Y1628597D01*
X9658451Y1617218D01*
X9668357Y1607007D01*
X9679432Y1598168D01*
X9691573Y1590802D01*
X9704578Y1585010D01*
X9718192Y1580997D01*
X9732213Y1578711D01*
G37*
G36*
X7318756Y1578254D02*
G01*
X7332878Y1579626D01*
X7346746Y1582775D01*
X7360056Y1587703D01*
X7372654Y1594256D01*
X7384338Y1602384D01*
X7394854Y1611934D01*
X7404049Y1622755D01*
X7411821Y1634693D01*
X7417968Y1647494D01*
X7422438Y1660956D01*
X7425131Y1674926D01*
X7426045Y1689100D01*
X7425131Y1703273D01*
X7422438Y1717243D01*
X7417968Y1730705D01*
X7411821Y1743506D01*
X7404049Y1755444D01*
X7394854Y1766265D01*
X7384338Y1775815D01*
X7372654Y1783892D01*
X7359294Y1790852D01*
X7356348Y1793138D01*
X7354468Y1796288D01*
X7353808Y1799894D01*
X7353808Y2799791D01*
X7354570Y2803702D01*
X7356754Y2807004D01*
X7358329Y2808579D01*
X7363968Y2816606D01*
X7368133Y2825546D01*
X7370673Y2834995D01*
X7371537Y2844800D01*
X7370673Y2854604D01*
X7368133Y2864053D01*
X7363968Y2872994D01*
X7358329Y2881020D01*
X7351420Y2887980D01*
X7343343Y2893618D01*
X7334453Y2897733D01*
X7324953Y2900273D01*
X7315200Y2901137D01*
X7305395Y2900273D01*
X7295896Y2897733D01*
X7287006Y2893618D01*
X7278979Y2887980D01*
X7272020Y2881020D01*
X7266381Y2872994D01*
X7262215Y2864053D01*
X7259675Y2854604D01*
X7258862Y2844800D01*
X7259675Y2834995D01*
X7262215Y2825546D01*
X7266381Y2816606D01*
X7272020Y2808579D01*
X7273594Y2807004D01*
X7275830Y2803702D01*
X7276592Y2799791D01*
X7276592Y1799640D01*
X7275830Y1795830D01*
X7273696Y1792579D01*
X7270546Y1790344D01*
X7263892Y1787398D01*
X7251750Y1780032D01*
X7240625Y1771192D01*
X7230770Y1760982D01*
X7222236Y1749602D01*
X7215276Y1737207D01*
X7209942Y1724050D01*
X7206335Y1710283D01*
X7204506Y1696212D01*
X7204506Y1681988D01*
X7206335Y1667916D01*
X7209942Y1654149D01*
X7215276Y1640992D01*
X7222236Y1628597D01*
X7230770Y1617218D01*
X7240625Y1607007D01*
X7251750Y1598168D01*
X7263892Y1590802D01*
X7276896Y1585010D01*
X7290511Y1580997D01*
X7304531Y1578711D01*
G37*
G36*
X550570Y1794103D02*
G01*
X719429Y1794103D01*
X725779Y1794814D01*
X731215Y1796694D01*
X736142Y1799793D01*
X740206Y1803857D01*
X743305Y1808784D01*
X745185Y1814220D01*
X745896Y1820570D01*
X745896Y1989429D01*
X745185Y1995728D01*
X743305Y2001215D01*
X740206Y2006092D01*
X736142Y2010206D01*
X731215Y2013254D01*
X725779Y2015185D01*
X719429Y2015896D01*
X550570Y2015896D01*
X544271Y2015185D01*
X538784Y2013254D01*
X533908Y2010206D01*
X529793Y2006092D01*
X526745Y2001215D01*
X524814Y1995728D01*
X524103Y1989429D01*
X524103Y1820570D01*
X524814Y1814220D01*
X526745Y1808784D01*
X529793Y1803857D01*
X533908Y1799793D01*
X538784Y1796694D01*
X544271Y1794814D01*
G37*
G36*
X5414670Y1794103D02*
G01*
X5583529Y1794103D01*
X5589828Y1794814D01*
X5595315Y1796694D01*
X5600192Y1799793D01*
X5604306Y1803857D01*
X5607405Y1808784D01*
X5609285Y1814220D01*
X5609996Y1820570D01*
X5609996Y1989429D01*
X5609285Y1995728D01*
X5607405Y2001215D01*
X5604306Y2006092D01*
X5600192Y2010206D01*
X5595315Y2013254D01*
X5589828Y2015185D01*
X5583529Y2015896D01*
X5414670Y2015896D01*
X5408371Y2015185D01*
X5402884Y2013254D01*
X5398008Y2010206D01*
X5393893Y2006092D01*
X5390794Y2001215D01*
X5388914Y1995728D01*
X5388203Y1989429D01*
X5388203Y1820570D01*
X5388914Y1814220D01*
X5390794Y1808784D01*
X5393893Y1803857D01*
X5398008Y1799793D01*
X5402884Y1796694D01*
X5408371Y1794814D01*
G37*
G36*
X4660900Y1848662D02*
G01*
X4670653Y1849526D01*
X4680153Y1852066D01*
X4689043Y1856181D01*
X4697120Y1861820D01*
X4704029Y1868779D01*
X4709668Y1876806D01*
X4713833Y1885746D01*
X4716373Y1895195D01*
X4717237Y1905000D01*
X4716373Y1914804D01*
X4713833Y1924253D01*
X4709668Y1933193D01*
X4704029Y1941220D01*
X4702454Y1942795D01*
X4700270Y1946097D01*
X4699508Y1949957D01*
X4699508Y4590491D01*
X4700270Y4594402D01*
X4702454Y4597704D01*
X4704029Y4599279D01*
X4709668Y4607306D01*
X4713833Y4616196D01*
X4716373Y4625695D01*
X4717237Y4635500D01*
X4716373Y4645253D01*
X4713833Y4654753D01*
X4709668Y4663643D01*
X4704029Y4671720D01*
X4697120Y4678629D01*
X4689043Y4684268D01*
X4680153Y4688433D01*
X4670653Y4690973D01*
X4660900Y4691837D01*
X4651095Y4690973D01*
X4648809Y4690364D01*
X4645101Y4690059D01*
X4641545Y4691126D01*
X4638598Y4693361D01*
X4636668Y4696510D01*
X4636008Y4700168D01*
X4636008Y4844491D01*
X4636770Y4848402D01*
X4638954Y4851704D01*
X4640529Y4853279D01*
X4646168Y4861306D01*
X4650333Y4870196D01*
X4652873Y4879695D01*
X4653737Y4889500D01*
X4652873Y4899253D01*
X4650333Y4908753D01*
X4646168Y4917643D01*
X4640529Y4925720D01*
X4633620Y4932629D01*
X4625543Y4938268D01*
X4616653Y4942433D01*
X4607153Y4944973D01*
X4597400Y4945837D01*
X4587595Y4944973D01*
X4585309Y4944364D01*
X4581601Y4944059D01*
X4578045Y4945126D01*
X4575098Y4947361D01*
X4573168Y4950510D01*
X4572508Y4954168D01*
X4572508Y5352491D01*
X4573270Y5356402D01*
X4575454Y5359704D01*
X4577029Y5361279D01*
X4582668Y5369306D01*
X4586833Y5378196D01*
X4589373Y5387695D01*
X4590237Y5397500D01*
X4589373Y5407253D01*
X4586833Y5416753D01*
X4582668Y5425643D01*
X4577029Y5433720D01*
X4570120Y5440629D01*
X4562043Y5446268D01*
X4553153Y5450433D01*
X4543653Y5452973D01*
X4533900Y5453837D01*
X4524095Y5452973D01*
X4521809Y5452364D01*
X4518101Y5452059D01*
X4514545Y5453126D01*
X4511598Y5455361D01*
X4509668Y5458510D01*
X4509008Y5462168D01*
X4509008Y5606491D01*
X4509770Y5610402D01*
X4511954Y5613704D01*
X4513529Y5615279D01*
X4519168Y5623306D01*
X4523333Y5632196D01*
X4525873Y5641695D01*
X4526737Y5651500D01*
X4525873Y5661253D01*
X4523333Y5670753D01*
X4519168Y5679643D01*
X4513529Y5687720D01*
X4506620Y5694629D01*
X4498543Y5700268D01*
X4489653Y5704433D01*
X4480153Y5706973D01*
X4470400Y5707837D01*
X4460595Y5706973D01*
X4451096Y5704433D01*
X4442206Y5700268D01*
X4434179Y5694629D01*
X4427220Y5687720D01*
X4421581Y5679643D01*
X4417415Y5670753D01*
X4414875Y5661253D01*
X4414062Y5651500D01*
X4414875Y5641695D01*
X4417415Y5632196D01*
X4421581Y5623306D01*
X4427220Y5615279D01*
X4428794Y5613704D01*
X4431030Y5610402D01*
X4431792Y5606491D01*
X4431792Y2711958D01*
X4431030Y2708097D01*
X4428794Y2704795D01*
X4427220Y2703220D01*
X4421581Y2695194D01*
X4417415Y2686253D01*
X4414875Y2676804D01*
X4414062Y2667000D01*
X4414875Y2657195D01*
X4417415Y2647746D01*
X4421581Y2638806D01*
X4427220Y2630779D01*
X4434179Y2623820D01*
X4442206Y2618181D01*
X4451096Y2614066D01*
X4460595Y2611526D01*
X4470400Y2610662D01*
X4480153Y2611526D01*
X4482490Y2612136D01*
X4486198Y2612390D01*
X4489754Y2611374D01*
X4492650Y2609088D01*
X4494580Y2605938D01*
X4495292Y2602331D01*
X4495292Y2457958D01*
X4494530Y2454097D01*
X4492294Y2450795D01*
X4490720Y2449220D01*
X4485081Y2441194D01*
X4480915Y2432253D01*
X4478375Y2422804D01*
X4477562Y2413000D01*
X4478375Y2403195D01*
X4480915Y2393746D01*
X4485081Y2384806D01*
X4490720Y2376779D01*
X4497679Y2369820D01*
X4505706Y2364181D01*
X4514596Y2360066D01*
X4524095Y2357526D01*
X4533900Y2356662D01*
X4543653Y2357526D01*
X4545990Y2358136D01*
X4549698Y2358390D01*
X4553254Y2357374D01*
X4556150Y2355088D01*
X4558080Y2351938D01*
X4558792Y2348331D01*
X4558792Y2203958D01*
X4558030Y2200097D01*
X4555794Y2196795D01*
X4554220Y2195220D01*
X4548581Y2187194D01*
X4544415Y2178253D01*
X4541875Y2168804D01*
X4541062Y2159000D01*
X4541875Y2149195D01*
X4544415Y2139746D01*
X4548581Y2130806D01*
X4554220Y2122779D01*
X4561179Y2115820D01*
X4569206Y2110181D01*
X4578096Y2106066D01*
X4587595Y2103526D01*
X4597400Y2102662D01*
X4607153Y2103526D01*
X4609490Y2104136D01*
X4613198Y2104390D01*
X4616754Y2103374D01*
X4619650Y2101088D01*
X4621580Y2097938D01*
X4622292Y2094331D01*
X4622292Y1949957D01*
X4621530Y1946097D01*
X4619294Y1942795D01*
X4617720Y1941220D01*
X4612081Y1933193D01*
X4607915Y1924253D01*
X4605375Y1914804D01*
X4604562Y1905000D01*
X4605375Y1895195D01*
X4607915Y1885746D01*
X4612081Y1876806D01*
X4617720Y1868779D01*
X4624679Y1861820D01*
X4632706Y1856181D01*
X4641596Y1852066D01*
X4651095Y1849526D01*
G37*
G36*
X627888Y2048357D02*
G01*
X642112Y2048357D01*
X656183Y2050135D01*
X669950Y2053742D01*
X683107Y2059076D01*
X695502Y2066086D01*
X706882Y2074570D01*
X717092Y2084425D01*
X725932Y2095550D01*
X733298Y2107692D01*
X739089Y2120696D01*
X743102Y2134311D01*
X745388Y2148332D01*
X745845Y2162556D01*
X744474Y2176678D01*
X741324Y2190546D01*
X736396Y2203856D01*
X729843Y2216454D01*
X721715Y2228138D01*
X712165Y2238654D01*
X701344Y2247849D01*
X689406Y2255621D01*
X676605Y2261768D01*
X663143Y2266238D01*
X649173Y2268982D01*
X635000Y2269896D01*
X620826Y2268982D01*
X606856Y2266238D01*
X593394Y2261768D01*
X580593Y2255621D01*
X568706Y2247849D01*
X557885Y2238654D01*
X548335Y2228138D01*
X540207Y2216454D01*
X533603Y2203856D01*
X528726Y2190546D01*
X525526Y2176678D01*
X524154Y2162556D01*
X524611Y2148332D01*
X526897Y2134311D01*
X530961Y2120696D01*
X536702Y2107692D01*
X544068Y2095550D01*
X552907Y2084425D01*
X563118Y2074570D01*
X574497Y2066086D01*
X586892Y2059076D01*
X600049Y2053742D01*
X613816Y2050135D01*
G37*
G36*
X5491988Y2048357D02*
G01*
X5506212Y2048357D01*
X5520283Y2050135D01*
X5534050Y2053742D01*
X5547207Y2059076D01*
X5559602Y2066086D01*
X5570982Y2074570D01*
X5581192Y2084425D01*
X5590032Y2095550D01*
X5597398Y2107692D01*
X5603138Y2120696D01*
X5607202Y2134311D01*
X5609488Y2148332D01*
X5609945Y2162556D01*
X5608574Y2176678D01*
X5605424Y2190546D01*
X5600496Y2203856D01*
X5593943Y2216454D01*
X5585815Y2228138D01*
X5576214Y2238654D01*
X5565444Y2247849D01*
X5553506Y2255621D01*
X5540705Y2261768D01*
X5527243Y2266238D01*
X5513273Y2268982D01*
X5499100Y2269896D01*
X5484926Y2268982D01*
X5470956Y2266238D01*
X5457494Y2261768D01*
X5444693Y2255621D01*
X5432755Y2247849D01*
X5421934Y2238654D01*
X5412384Y2228138D01*
X5404256Y2216454D01*
X5397703Y2203856D01*
X5392775Y2190546D01*
X5389626Y2176678D01*
X5388254Y2162556D01*
X5388711Y2148332D01*
X5390997Y2134311D01*
X5395010Y2120696D01*
X5400802Y2107692D01*
X5408168Y2095550D01*
X5417007Y2084425D01*
X5427218Y2074570D01*
X5438597Y2066086D01*
X5450992Y2059076D01*
X5464149Y2053742D01*
X5477916Y2050135D01*
G37*
G36*
X6477000Y2102662D02*
G01*
X6486753Y2103526D01*
X6496253Y2106066D01*
X6505143Y2110181D01*
X6513220Y2115820D01*
X6520129Y2122779D01*
X6525768Y2130806D01*
X6529933Y2139746D01*
X6532473Y2149195D01*
X6533337Y2159000D01*
X6532473Y2168804D01*
X6529933Y2178253D01*
X6525768Y2187194D01*
X6520129Y2195220D01*
X6518554Y2196795D01*
X6516370Y2200097D01*
X6515607Y2203958D01*
X6515607Y2698191D01*
X6516370Y2702102D01*
X6518554Y2705404D01*
X6520129Y2706979D01*
X6525768Y2715006D01*
X6529933Y2723946D01*
X6532473Y2733395D01*
X6533337Y2743200D01*
X6532473Y2753004D01*
X6529933Y2762453D01*
X6525768Y2771394D01*
X6520129Y2779420D01*
X6513220Y2786380D01*
X6505143Y2792018D01*
X6496253Y2796133D01*
X6486753Y2798673D01*
X6477000Y2799537D01*
X6467195Y2798673D01*
X6457696Y2796133D01*
X6448806Y2792018D01*
X6440779Y2786380D01*
X6433820Y2779420D01*
X6428181Y2771394D01*
X6424015Y2762453D01*
X6421475Y2753004D01*
X6420662Y2743200D01*
X6421475Y2733395D01*
X6424015Y2723946D01*
X6428181Y2715006D01*
X6433820Y2706979D01*
X6435394Y2705404D01*
X6437630Y2702102D01*
X6438392Y2698191D01*
X6438392Y2203958D01*
X6437630Y2200097D01*
X6435394Y2196795D01*
X6433820Y2195220D01*
X6428181Y2187194D01*
X6424015Y2178253D01*
X6421475Y2168804D01*
X6420662Y2159000D01*
X6421475Y2149195D01*
X6424015Y2139746D01*
X6428181Y2130806D01*
X6433820Y2122779D01*
X6440779Y2115820D01*
X6448806Y2110181D01*
X6457696Y2106066D01*
X6467195Y2103526D01*
G37*
G36*
X627888Y2302357D02*
G01*
X642112Y2302357D01*
X656183Y2304135D01*
X669950Y2307742D01*
X683107Y2313076D01*
X695502Y2320086D01*
X706882Y2328570D01*
X717092Y2338425D01*
X725932Y2349550D01*
X733298Y2361692D01*
X739089Y2374696D01*
X743102Y2388311D01*
X745388Y2402332D01*
X745845Y2416556D01*
X744474Y2430678D01*
X741324Y2444546D01*
X736396Y2457856D01*
X729843Y2470454D01*
X721715Y2482138D01*
X712165Y2492654D01*
X701344Y2501849D01*
X689406Y2509621D01*
X676605Y2515768D01*
X663143Y2520238D01*
X649173Y2522982D01*
X635000Y2523896D01*
X620826Y2522982D01*
X606856Y2520238D01*
X593394Y2515768D01*
X580593Y2509621D01*
X568706Y2501849D01*
X557885Y2492654D01*
X548335Y2482138D01*
X540207Y2470454D01*
X533603Y2457856D01*
X528726Y2444546D01*
X525526Y2430678D01*
X524154Y2416556D01*
X524611Y2402332D01*
X526897Y2388311D01*
X530961Y2374696D01*
X536702Y2361692D01*
X544068Y2349550D01*
X552907Y2338425D01*
X563118Y2328570D01*
X574497Y2320086D01*
X586892Y2313076D01*
X600049Y2307742D01*
X613816Y2304135D01*
G37*
G36*
X627888Y2556357D02*
G01*
X642112Y2556357D01*
X656183Y2558135D01*
X669950Y2561742D01*
X683107Y2567076D01*
X695502Y2574086D01*
X706882Y2582570D01*
X717092Y2592425D01*
X725932Y2603550D01*
X733298Y2615692D01*
X739089Y2628696D01*
X743102Y2642311D01*
X745388Y2656332D01*
X745845Y2670556D01*
X744474Y2684678D01*
X741324Y2698546D01*
X736396Y2711856D01*
X729843Y2724454D01*
X721715Y2736138D01*
X712165Y2746654D01*
X701344Y2755849D01*
X689406Y2763621D01*
X676605Y2769768D01*
X663143Y2774238D01*
X649173Y2776982D01*
X635000Y2777896D01*
X620826Y2776982D01*
X606856Y2774238D01*
X593394Y2769768D01*
X580593Y2763621D01*
X568706Y2755849D01*
X557885Y2746654D01*
X548335Y2736138D01*
X540207Y2724454D01*
X533603Y2711856D01*
X528726Y2698546D01*
X525526Y2684678D01*
X524154Y2670556D01*
X524611Y2656332D01*
X526897Y2642311D01*
X530961Y2628696D01*
X536702Y2615692D01*
X544068Y2603550D01*
X552907Y2592425D01*
X563118Y2582570D01*
X574497Y2574086D01*
X586892Y2567076D01*
X600049Y2561742D01*
X613816Y2558135D01*
G37*
G36*
X977900Y3077413D02*
G01*
X977900Y3340100D01*
X715060Y3340100D01*
X716889Y3318205D01*
X720750Y3295446D01*
X726490Y3273044D01*
X734060Y3251250D01*
X743458Y3230118D01*
X754583Y3209899D01*
X767384Y3190646D01*
X781761Y3172510D01*
X797560Y3155696D01*
X814730Y3140202D01*
X833119Y3126232D01*
X852627Y3113887D01*
X873150Y3103168D01*
X894435Y3094228D01*
X916381Y3087065D01*
X938885Y3081782D01*
X961745Y3078429D01*
G37*
G36*
X685800Y3817162D02*
G01*
X695604Y3818026D01*
X705053Y3820566D01*
X713994Y3824681D01*
X722020Y3830320D01*
X728980Y3837279D01*
X734618Y3845306D01*
X738733Y3854246D01*
X741273Y3863695D01*
X742137Y3873500D01*
X741273Y3883304D01*
X738733Y3892753D01*
X734618Y3901694D01*
X728980Y3909720D01*
X727405Y3911295D01*
X725170Y3914597D01*
X724408Y3918508D01*
X724408Y4062780D01*
X725068Y4066438D01*
X726998Y4069587D01*
X729945Y4071874D01*
X733501Y4072890D01*
X737209Y4072636D01*
X739495Y4071975D01*
X749300Y4071162D01*
X759104Y4071975D01*
X768553Y4074515D01*
X777494Y4078681D01*
X785520Y4084320D01*
X792480Y4091279D01*
X798118Y4099306D01*
X802233Y4108196D01*
X804773Y4117695D01*
X805637Y4127500D01*
X804773Y4137253D01*
X802233Y4146753D01*
X798118Y4155643D01*
X792480Y4163720D01*
X790905Y4165295D01*
X788670Y4168597D01*
X787908Y4172458D01*
X787908Y6673291D01*
X788670Y6677202D01*
X790905Y6680504D01*
X792480Y6682079D01*
X798118Y6690106D01*
X802233Y6698996D01*
X804773Y6708495D01*
X805637Y6718300D01*
X804773Y6728053D01*
X802233Y6737553D01*
X798118Y6746443D01*
X792480Y6754520D01*
X785520Y6761429D01*
X777494Y6767068D01*
X768553Y6771233D01*
X759104Y6773773D01*
X749300Y6774637D01*
X739495Y6773773D01*
X730046Y6771233D01*
X721106Y6767068D01*
X713079Y6761429D01*
X706120Y6754520D01*
X700481Y6746443D01*
X696366Y6737553D01*
X693826Y6728053D01*
X693115Y6720179D01*
X692200Y6716775D01*
X690168Y6713880D01*
X687273Y6711899D01*
X683869Y6710984D01*
X675995Y6710273D01*
X666546Y6707733D01*
X657606Y6703568D01*
X649579Y6697929D01*
X642620Y6691020D01*
X636981Y6682943D01*
X632866Y6674053D01*
X630326Y6664553D01*
X629462Y6654800D01*
X630326Y6644995D01*
X632866Y6635496D01*
X636981Y6626606D01*
X642620Y6618579D01*
X644194Y6617004D01*
X646430Y6613702D01*
X647192Y6609791D01*
X647192Y3918508D01*
X646430Y3914597D01*
X644194Y3911295D01*
X642620Y3909720D01*
X636981Y3901694D01*
X632866Y3892753D01*
X630326Y3883304D01*
X629462Y3873500D01*
X630326Y3863695D01*
X632866Y3854246D01*
X636981Y3845306D01*
X642620Y3837279D01*
X649579Y3830320D01*
X657606Y3824681D01*
X666546Y3820566D01*
X675995Y3818026D01*
G37*
G36*
X8077200Y903224D02*
G01*
X8094065Y904138D01*
X8110778Y906983D01*
X8127034Y911656D01*
X8142630Y918159D01*
X8157464Y926337D01*
X8171281Y936142D01*
X8183880Y947419D01*
X8195157Y960018D01*
X8204962Y973836D01*
X8213140Y988618D01*
X8219592Y1004265D01*
X8224266Y1020521D01*
X8227110Y1037183D01*
X8228075Y1054100D01*
X8227110Y1071016D01*
X8224266Y1087678D01*
X8219592Y1103934D01*
X8213140Y1119581D01*
X8204962Y1134364D01*
X8195157Y1148181D01*
X8183880Y1160780D01*
X8171281Y1172057D01*
X8157464Y1181862D01*
X8142630Y1190040D01*
X8127034Y1196543D01*
X8110778Y1201216D01*
X8094065Y1204061D01*
X8077200Y1204976D01*
X8060283Y1204061D01*
X8043621Y1201216D01*
X8027365Y1196543D01*
X8011718Y1190040D01*
X7996885Y1181862D01*
X7983118Y1172057D01*
X7970469Y1160780D01*
X7959191Y1148181D01*
X7949438Y1134364D01*
X7941208Y1119581D01*
X7934756Y1103934D01*
X7930083Y1087678D01*
X7927238Y1071016D01*
X7926273Y1054100D01*
X7927238Y1037183D01*
X7930083Y1020521D01*
X7934756Y1004265D01*
X7941208Y988618D01*
X7949438Y973836D01*
X7959191Y960018D01*
X7970469Y947419D01*
X7983118Y936142D01*
X7996885Y926337D01*
X8011718Y918159D01*
X8027365Y911656D01*
X8043621Y906983D01*
X8060283Y904138D01*
G37*
G36*
X715060Y3365500D02*
G01*
X977900Y3365500D01*
X977900Y3628186D01*
X961745Y3627170D01*
X938885Y3623818D01*
X916381Y3618534D01*
X894435Y3611372D01*
X873150Y3602431D01*
X852627Y3591712D01*
X833119Y3579368D01*
X814730Y3565398D01*
X797560Y3549904D01*
X781761Y3533089D01*
X767384Y3514953D01*
X754583Y3495700D01*
X743458Y3475482D01*
X734060Y3454349D01*
X726490Y3432556D01*
X720750Y3410153D01*
X716889Y3387394D01*
G37*
G36*
X1003300Y3077362D02*
G01*
X1007922Y3077464D01*
X1030884Y3079851D01*
X1053592Y3084169D01*
X1075842Y3090418D01*
X1097534Y3098444D01*
X1118412Y3108299D01*
X1138428Y3119831D01*
X1157427Y3133039D01*
X1175207Y3147771D01*
X1191717Y3163925D01*
X1206804Y3181400D01*
X1220419Y3200095D01*
X1232357Y3219907D01*
X1242669Y3240582D01*
X1251153Y3262071D01*
X1257808Y3284169D01*
X1262634Y3306775D01*
X1265529Y3329736D01*
X1265986Y3340100D01*
X1003300Y3340100D01*
G37*
G36*
X5009642Y3365500D02*
G01*
X5272481Y3365500D01*
X5272481Y3628186D01*
X5256377Y3627170D01*
X5233517Y3623818D01*
X5211013Y3618534D01*
X5189016Y3611372D01*
X5167731Y3602431D01*
X5147259Y3591712D01*
X5127752Y3579368D01*
X5109362Y3565398D01*
X5092192Y3549904D01*
X5076342Y3533089D01*
X5062016Y3514953D01*
X5049215Y3495700D01*
X5038090Y3475482D01*
X5028692Y3454349D01*
X5021072Y3432556D01*
X5015331Y3410153D01*
X5011470Y3387394D01*
G37*
G36*
X1003300Y3365500D02*
G01*
X1265986Y3365500D01*
X1265529Y3375863D01*
X1262634Y3398824D01*
X1257808Y3421430D01*
X1251153Y3443528D01*
X1242669Y3465017D01*
X1232357Y3485692D01*
X1220419Y3505504D01*
X1206804Y3524148D01*
X1191717Y3541674D01*
X1175207Y3557828D01*
X1157427Y3572560D01*
X1138428Y3585768D01*
X1118412Y3597300D01*
X1097534Y3607155D01*
X1075842Y3615182D01*
X1053592Y3621430D01*
X1030884Y3625748D01*
X1007922Y3628136D01*
X1003300Y3628237D01*
G37*
G36*
X4914900Y2788462D02*
G01*
X4924653Y2789326D01*
X4934153Y2791866D01*
X4943043Y2795981D01*
X4951120Y2801620D01*
X4958029Y2808579D01*
X4963668Y2816606D01*
X4967833Y2825546D01*
X4970373Y2834995D01*
X4971237Y2844800D01*
X4970373Y2854604D01*
X4967833Y2864053D01*
X4963668Y2872994D01*
X4958029Y2881020D01*
X4956454Y2882595D01*
X4954270Y2885897D01*
X4953508Y2889758D01*
X4953508Y5098491D01*
X4954270Y5102402D01*
X4956454Y5105704D01*
X4958029Y5107279D01*
X4963668Y5115306D01*
X4967833Y5124196D01*
X4970373Y5133695D01*
X4971237Y5143500D01*
X4970373Y5153253D01*
X4967833Y5162753D01*
X4963668Y5171643D01*
X4958029Y5179720D01*
X4951120Y5186629D01*
X4943043Y5192268D01*
X4934153Y5196433D01*
X4924653Y5198973D01*
X4914900Y5199837D01*
X4905095Y5198973D01*
X4895596Y5196433D01*
X4886706Y5192268D01*
X4878679Y5186629D01*
X4871720Y5179720D01*
X4866081Y5171643D01*
X4861915Y5162753D01*
X4859375Y5153253D01*
X4858562Y5143500D01*
X4859375Y5133695D01*
X4861915Y5124196D01*
X4866081Y5115306D01*
X4871720Y5107279D01*
X4873294Y5105704D01*
X4875530Y5102402D01*
X4876292Y5098491D01*
X4876292Y4446168D01*
X4875580Y4442561D01*
X4873650Y4439361D01*
X4870754Y4437126D01*
X4867198Y4436059D01*
X4863490Y4436364D01*
X4861153Y4436973D01*
X4851400Y4437837D01*
X4841595Y4436973D01*
X4832096Y4434433D01*
X4823206Y4430268D01*
X4815179Y4424680D01*
X4808220Y4417720D01*
X4802581Y4409643D01*
X4798415Y4400753D01*
X4795875Y4391253D01*
X4795062Y4381500D01*
X4795875Y4371695D01*
X4798415Y4362196D01*
X4802581Y4353306D01*
X4808220Y4345279D01*
X4809794Y4343654D01*
X4812030Y4340402D01*
X4812792Y4336491D01*
X4812792Y2966008D01*
X4812030Y2962097D01*
X4809794Y2958795D01*
X4808220Y2957220D01*
X4802581Y2949194D01*
X4798415Y2940253D01*
X4795875Y2930804D01*
X4795062Y2921000D01*
X4795875Y2911195D01*
X4798415Y2901746D01*
X4802581Y2892806D01*
X4808220Y2884779D01*
X4815179Y2877820D01*
X4823206Y2872181D01*
X4832096Y2868066D01*
X4841595Y2865526D01*
X4850079Y2864764D01*
X4853889Y2863646D01*
X4856988Y2861157D01*
X4858867Y2857703D01*
X4859324Y2853740D01*
X4858562Y2844800D01*
X4859375Y2834995D01*
X4861915Y2825546D01*
X4866081Y2816606D01*
X4871720Y2808579D01*
X4878679Y2801620D01*
X4886706Y2795981D01*
X4895596Y2791866D01*
X4905095Y2789326D01*
G37*
G36*
X7826756Y1324254D02*
G01*
X7840878Y1325626D01*
X7854746Y1328775D01*
X7868056Y1333703D01*
X7880654Y1340256D01*
X7892338Y1348384D01*
X7902854Y1357934D01*
X7912049Y1368755D01*
X7919821Y1380693D01*
X7925968Y1393494D01*
X7926984Y1396492D01*
X7929270Y1400352D01*
X7932978Y1402791D01*
X7937398Y1403451D01*
X7941665Y1402130D01*
X7952079Y1391920D01*
X7960106Y1386281D01*
X7968996Y1382166D01*
X7978495Y1379626D01*
X7988300Y1378762D01*
X7998053Y1379626D01*
X8007553Y1382166D01*
X8016443Y1386281D01*
X8024520Y1391920D01*
X8031429Y1398879D01*
X8037068Y1406906D01*
X8041233Y1415846D01*
X8043773Y1425295D01*
X8044637Y1435100D01*
X8043773Y1444904D01*
X8041233Y1454353D01*
X8037068Y1463294D01*
X8031429Y1471320D01*
X8029854Y1472895D01*
X8027670Y1476197D01*
X8026908Y1480108D01*
X8026908Y2494991D01*
X8027670Y2498902D01*
X8029854Y2502154D01*
X8031429Y2503779D01*
X8037068Y2511806D01*
X8041233Y2520746D01*
X8043773Y2530195D01*
X8044637Y2540000D01*
X8043773Y2549804D01*
X8041233Y2559253D01*
X8037068Y2568194D01*
X8031429Y2576220D01*
X8024520Y2583180D01*
X8016443Y2588818D01*
X8007553Y2592933D01*
X7998053Y2595473D01*
X7988300Y2596337D01*
X7978495Y2595473D01*
X7968996Y2592933D01*
X7960106Y2588818D01*
X7952079Y2583180D01*
X7945120Y2576220D01*
X7939481Y2568194D01*
X7935315Y2559253D01*
X7932775Y2549804D01*
X7931962Y2540000D01*
X7932775Y2530195D01*
X7935315Y2520746D01*
X7939481Y2511806D01*
X7945120Y2503779D01*
X7946694Y2502204D01*
X7948879Y2498902D01*
X7949692Y2495042D01*
X7949692Y1722170D01*
X7948828Y1718157D01*
X7946542Y1714855D01*
X7943088Y1712671D01*
X7939074Y1712010D01*
X7935163Y1712975D01*
X7931912Y1715414D01*
X7929880Y1718970D01*
X7925968Y1730705D01*
X7919821Y1743506D01*
X7912049Y1755444D01*
X7902854Y1766265D01*
X7892338Y1775815D01*
X7880654Y1783892D01*
X7867294Y1790852D01*
X7864348Y1793138D01*
X7862468Y1796288D01*
X7861808Y1799894D01*
X7861808Y2240991D01*
X7862570Y2244902D01*
X7864754Y2248204D01*
X7866329Y2249779D01*
X7871968Y2257806D01*
X7876133Y2266746D01*
X7878673Y2276195D01*
X7879537Y2286000D01*
X7878673Y2295804D01*
X7876133Y2305253D01*
X7871968Y2314194D01*
X7866329Y2322220D01*
X7859420Y2329180D01*
X7851343Y2334818D01*
X7842453Y2338933D01*
X7832953Y2341473D01*
X7823200Y2342337D01*
X7813395Y2341473D01*
X7803896Y2338933D01*
X7795006Y2334818D01*
X7786979Y2329180D01*
X7780020Y2322220D01*
X7774381Y2314194D01*
X7770215Y2305253D01*
X7767675Y2295804D01*
X7766862Y2286000D01*
X7767675Y2276195D01*
X7770215Y2266746D01*
X7774381Y2257806D01*
X7780020Y2249779D01*
X7781594Y2248204D01*
X7783830Y2244902D01*
X7784592Y2240991D01*
X7784592Y1799640D01*
X7783830Y1795830D01*
X7781696Y1792579D01*
X7778546Y1790344D01*
X7771892Y1787398D01*
X7759750Y1780032D01*
X7748625Y1771192D01*
X7738770Y1760982D01*
X7730236Y1749602D01*
X7723276Y1737207D01*
X7717942Y1724050D01*
X7714335Y1710283D01*
X7712506Y1696212D01*
X7712506Y1681988D01*
X7714335Y1667916D01*
X7717942Y1654149D01*
X7723276Y1640992D01*
X7730236Y1628597D01*
X7738770Y1617218D01*
X7748625Y1607007D01*
X7759750Y1598168D01*
X7771892Y1590802D01*
X7784896Y1585010D01*
X7798511Y1580997D01*
X7812531Y1578711D01*
X7826756Y1578254D01*
X7840878Y1579626D01*
X7854746Y1582775D01*
X7868056Y1587703D01*
X7880654Y1594256D01*
X7892338Y1602384D01*
X7902854Y1611934D01*
X7912049Y1622755D01*
X7919821Y1634693D01*
X7925968Y1647494D01*
X7929880Y1659229D01*
X7931912Y1662785D01*
X7935163Y1665224D01*
X7939074Y1666189D01*
X7943088Y1665528D01*
X7946542Y1663344D01*
X7948828Y1660042D01*
X7949692Y1656029D01*
X7949692Y1480058D01*
X7948980Y1476400D01*
X7947050Y1473250D01*
X7944154Y1470050D01*
X7940751Y1467612D01*
X7936636Y1466697D01*
X7932521Y1467612D01*
X7929067Y1470050D01*
X7926984Y1473657D01*
X7925968Y1476705D01*
X7919821Y1489506D01*
X7912049Y1501444D01*
X7902854Y1512265D01*
X7892338Y1521815D01*
X7880654Y1529943D01*
X7868056Y1536496D01*
X7854746Y1541424D01*
X7840878Y1544574D01*
X7826756Y1545945D01*
X7812531Y1545488D01*
X7798511Y1543202D01*
X7784896Y1539138D01*
X7771892Y1533398D01*
X7759750Y1526032D01*
X7748625Y1517192D01*
X7738770Y1506982D01*
X7730236Y1495602D01*
X7723276Y1483207D01*
X7717942Y1470050D01*
X7714335Y1456283D01*
X7712506Y1442212D01*
X7712506Y1427988D01*
X7714335Y1413916D01*
X7717942Y1400149D01*
X7723276Y1386992D01*
X7730236Y1374597D01*
X7738770Y1363218D01*
X7748625Y1353007D01*
X7759750Y1344168D01*
X7771892Y1336802D01*
X7784896Y1331010D01*
X7798511Y1326997D01*
X7812531Y1324711D01*
G37*

%LPD*%
D10*
X444500Y1905000D02*
G01*
X444500Y6159474D01*
X444500Y6159474D02*
G01*
X444500Y9118574D01*
X381000Y2159000D02*
G01*
X381000Y6413474D01*
X381000Y6413474D02*
G01*
X381000Y9182074D01*
X4775200Y9182074D02*
G01*
X4775200Y10706074D01*
X4775187Y10706087D01*
X317500Y5905474D02*
G01*
X317500Y9245574D01*
X254000Y2413000D02*
G01*
X254000Y6476974D01*
X1687103Y10706100D02*
G01*
X1687103Y10325100D01*
X4519203Y10706100D02*
G01*
X4519203Y10325100D01*
X1179065Y10325100D02*
G01*
X1181100Y10327134D01*
X1181100Y11175974D01*
X254000Y6476974D02*
G01*
X254000Y9918674D01*
X2006600Y9918674D02*
G01*
X2006600Y10540982D01*
X2082800Y10617182D01*
X2082800Y10820405D01*
X1943100Y10960100D01*
X190500Y2667000D02*
G01*
X190500Y6540474D01*
X190500Y6540474D02*
G01*
X190500Y9982174D01*
X1943100Y9982174D02*
G01*
X1943100Y10706094D01*
X4838700Y9118600D02*
G01*
X4838700Y10553700D01*
X4914900Y10629900D01*
X4914900Y10820400D01*
X4775200Y10960100D01*
X5930887Y7937487D02*
G01*
X5930887Y10515582D01*
X4267200Y9245574D02*
G01*
X4267200Y10464794D01*
X4432287Y10629882D01*
X4432287Y10795005D01*
X4267200Y10960100D01*
X1435100Y10960100D02*
G01*
X1600187Y10795005D01*
X1600187Y10629882D01*
X1435100Y10464794D01*
X1435100Y9855179D01*
X3454400Y11175974D02*
G01*
X3454400Y10566374D01*
X3454400Y11175974D02*
G01*
X3454400Y10566394D01*
X3454387Y10566382D01*
X2590800Y10325100D02*
G01*
X2590800Y10045682D01*
X381000Y10109182D02*
G01*
X381000Y9397974D01*
X2527300Y10566400D02*
G01*
X2527300Y10109182D01*
X317500Y10045682D02*
G01*
X317500Y9461474D01*
X749300Y4127487D02*
G01*
X749300Y6718274D01*
X685800Y3873500D02*
G01*
X685800Y6654774D01*
X5930887Y7683489D02*
G01*
X5918192Y7683489D01*
X5753087Y7518384D01*
X5753087Y6337284D01*
X5702289Y6286487D01*
X5930900Y7429500D02*
G01*
X5803900Y7302500D01*
X5803900Y6134100D01*
X5702300Y6032500D01*
X5930887Y7937487D02*
G01*
X6070587Y7797787D01*
X6070587Y1435100D01*
X6070574Y1435100D01*
X1422400Y1143000D02*
G01*
X1422400Y6286487D01*
X1574800Y1143000D02*
G01*
X1574800Y6032487D01*
X5930887Y1904994D02*
G01*
X5803874Y2032007D01*
X5803874Y3365500D01*
X5740400Y2159000D02*
G01*
X5740400Y3619500D01*
X5676900Y2413000D02*
G01*
X5676900Y3873500D01*
X5613400Y2781300D02*
G01*
X5613400Y2781300D01*
X5613400Y4127500D01*
X7988287Y2539994D02*
G01*
X7988274Y2539979D01*
X7988274Y1435100D01*
X7823187Y2285994D02*
G01*
X7823187Y1689100D01*
X9918674Y2032000D02*
G01*
X9918674Y2032000D01*
X9918674Y1435100D01*
X9486882Y1435097D02*
G01*
X9486882Y1054097D01*
X7556484Y1435097D02*
G01*
X7556484Y1064790D01*
X7567178Y1054097D01*
X7315187Y1689100D02*
G01*
X7315187Y2844794D01*
X4914887Y2844794D02*
G01*
X4914887Y5143487D01*
X9234883Y1689100D02*
G01*
X9234883Y2920994D01*
X4851400Y2921000D02*
G01*
X4851400Y4381500D01*
X4470387Y2666994D02*
G01*
X4470387Y5651487D01*
X4533887Y2412994D02*
G01*
X4533887Y5397487D01*
X4597387Y2158994D02*
G01*
X4597387Y4889487D01*
X4660887Y1904994D02*
G01*
X4660887Y4635487D01*
X8978882Y1054097D02*
G01*
X8978882Y2501894D01*
X8915374Y2159000D02*
G01*
X8915374Y2743179D01*
X8915387Y2743194D01*
X7059178Y1054100D02*
G01*
X7061174Y1056096D01*
X7061174Y2159000D01*
X6476987Y2743194D02*
G01*
X6476987Y2158994D01*
X5702300Y9855200D02*
G01*
X5702300Y6540500D01*
X5638800Y6477000D01*
X5638800Y6476974D01*
D11*
G01*
X5930900Y7937500D03*
D12*
G01*
X5930886Y3111489D03*
D11*
G01*
X5930900Y3365500D03*
G01*
X5930900Y3619500D03*
G01*
X5930900Y3873500D03*
G01*
X5930900Y4127500D03*
G01*
X5930900Y4381500D03*
G01*
X5930900Y4635500D03*
G01*
X5930900Y4889500D03*
G01*
X5930900Y5143500D03*
G01*
X5930900Y5397500D03*
G01*
X5930900Y5651500D03*
G01*
X5930900Y5905500D03*
G01*
X5930900Y6159500D03*
G01*
X5930900Y6413500D03*
G01*
X5930900Y6667500D03*
G01*
X5930900Y6921500D03*
G01*
X5930900Y7175500D03*
G01*
X5930900Y7429500D03*
G01*
X5930900Y7683500D03*
D13*
G01*
X381000Y1016000D03*
D14*
G01*
X635000Y1016000D03*
D13*
G01*
X5753100Y1016000D03*
D14*
G01*
X5499100Y1016000D03*
D13*
G01*
X635000Y1905000D03*
D14*
G01*
X635000Y2159000D03*
G01*
X635000Y2413000D03*
G01*
X635000Y2667000D03*
D13*
G01*
X5499100Y1905000D03*
D14*
G01*
X5499100Y2159000D03*
G01*
X5499100Y2413000D03*
G01*
X5499100Y2667000D03*
D13*
G01*
X5930900Y1905000D03*
D14*
G01*
X5930900Y2159000D03*
G01*
X5930900Y2413000D03*
G01*
X5930900Y2667000D03*
D15*
G01*
X469900Y10858500D03*
D14*
G01*
X1435100Y10960100D03*
G01*
X1435100Y10706100D03*
G01*
X1943100Y10960100D03*
G01*
X1943100Y10706100D03*
D16*
G01*
X1687093Y10325100D03*
G01*
X2197100Y10325100D03*
G01*
X1179093Y10325100D03*
D14*
G01*
X4267200Y10960100D03*
G01*
X4267200Y10706100D03*
G01*
X4775200Y10960100D03*
G01*
X4775200Y10706100D03*
D16*
G01*
X4519193Y10325100D03*
G01*
X5029200Y10325100D03*
G01*
X4011193Y10325100D03*
D15*
G01*
X5737199Y10858500D03*
G01*
X471271Y1460500D03*
G01*
X5737199Y1460500D03*
G01*
X5285206Y9543313D03*
G01*
X990600Y9543313D03*
G01*
X5285206Y3352800D03*
G01*
X990600Y3352800D03*
G01*
X10714888Y1461211D03*
D16*
G01*
X7059168Y1054100D03*
G01*
X8077174Y1054100D03*
G01*
X7567168Y1054100D03*
D14*
G01*
X7823174Y1435100D03*
G01*
X7823174Y1689100D03*
G01*
X7315174Y1435100D03*
G01*
X7315174Y1689100D03*
G01*
X9234881Y1689100D03*
G01*
X9234881Y1435100D03*
G01*
X9742881Y1689100D03*
G01*
X9742881Y1435100D03*
D16*
G01*
X9486874Y1054100D03*
G01*
X9996881Y1054100D03*
G01*
X8978874Y1054100D03*
D17*
G01*
X3454400Y10566374D03*
G01*
X444500Y1905000D03*
G01*
X444500Y6159474D03*
G01*
X444500Y9118574D03*
G01*
X4838700Y9118574D03*
G01*
X381000Y6413474D03*
G01*
X381000Y2159000D03*
G01*
X381000Y9182074D03*
G01*
X4775200Y9182074D03*
G01*
X317500Y9245574D03*
G01*
X4267200Y9245574D03*
G01*
X317500Y5905474D03*
G01*
X254000Y2413000D03*
G01*
X254000Y6476974D03*
G01*
X1687093Y10706100D03*
G01*
X4519193Y10706100D03*
G01*
X3454400Y11175974D03*
G01*
X1181100Y11175974D03*
G01*
X254000Y9918674D03*
G01*
X2006600Y9918674D03*
G01*
X190500Y2667000D03*
G01*
X190500Y6540474D03*
G01*
X190500Y9982174D03*
G01*
X1943100Y9982174D03*
G01*
X5930900Y10515574D03*
G01*
X1435100Y9855174D03*
G01*
X5702300Y9855174D03*
G01*
X5638800Y6476974D03*
G01*
X6070600Y1435100D03*
G01*
X317500Y10045674D03*
G01*
X2590800Y10325100D03*
G01*
X2590800Y10045674D03*
G01*
X381000Y10109174D03*
G01*
X2527300Y10566400D03*
G01*
X2527300Y10109174D03*
G01*
X317500Y9461474D03*
G01*
X381000Y9397974D03*
G01*
X685800Y6654774D03*
G01*
X749300Y4127474D03*
G01*
X685800Y3873500D03*
G01*
X749300Y6718274D03*
G01*
X5702300Y6286474D03*
G01*
X5702300Y6032500D03*
G01*
X1422400Y6286474D03*
G01*
X1422400Y1143000D03*
G01*
X1574800Y1143000D03*
G01*
X1574800Y6032474D03*
G01*
X5676900Y3873500D03*
G01*
X5740400Y3619500D03*
G01*
X5803900Y3365500D03*
G01*
X5740400Y2159000D03*
G01*
X5676900Y2413000D03*
G01*
X5613400Y4127500D03*
G01*
X5613400Y2781300D03*
G01*
X7988300Y2540000D03*
G01*
X7988274Y1435100D03*
G01*
X7823200Y2286000D03*
G01*
X9918674Y2032000D03*
G01*
X9918674Y1435100D03*
G01*
X9486900Y1435100D03*
G01*
X7556500Y1435100D03*
G01*
X7315200Y2844800D03*
G01*
X4914900Y2844800D03*
G01*
X4914900Y5143474D03*
G01*
X9234881Y2921000D03*
G01*
X4851400Y2921000D03*
G01*
X4851400Y4381500D03*
G01*
X4470400Y2667000D03*
G01*
X4470400Y5651474D03*
G01*
X4533900Y2413000D03*
G01*
X4533900Y5397474D03*
G01*
X4597400Y2159000D03*
G01*
X4597400Y4889474D03*
G01*
X4660900Y1905000D03*
G01*
X4660900Y4635474D03*
G01*
X8978874Y2501900D03*
G01*
X8915374Y2159000D03*
G01*
X8915400Y2743200D03*
G01*
X7061174Y2159000D03*
G01*
X6477000Y2743200D03*
G01*
X6477000Y2159000D03*
M02*
