G04 Layer: BottomSilkscreenLayer*
G04 EasyEDA v6.5.29, 2023-07-18 10:18:03*
G04 90495d7994f342159c24a82f0dd90fb3,5a6b42c53f6a479593ecc07194224c93,10*
G04 Gerber Generator version 0.2*
G04 Scale: 100 percent, Rotated: No, Reflected: No *
G04 Dimensions in millimeters *
G04 leading zeros omitted , absolute positions ,4 integer and 5 decimal *
%FSLAX45Y45*%
%MOMM*%

%ADD10C,0.2032*%
%ADD11C,0.1524*%

%LPD*%
D10*
X6007087Y11551066D02*
G01*
X6007087Y11436522D01*
X6007087Y11551066D02*
G01*
X5963450Y11436522D01*
X5919815Y11551066D02*
G01*
X5963450Y11436522D01*
X5919815Y11551066D02*
G01*
X5919815Y11436522D01*
X5785632Y11572885D02*
G01*
X5883816Y11398341D01*
X5749632Y11551066D02*
G01*
X5749632Y11436522D01*
X5749632Y11551066D02*
G01*
X5678723Y11551066D01*
X5749632Y11496522D02*
G01*
X5705998Y11496522D01*
X5749632Y11436522D02*
G01*
X5678723Y11436522D01*
X5520542Y11551066D02*
G01*
X5520542Y11436522D01*
X5558723Y11551066D02*
G01*
X5482361Y11551066D01*
X5446361Y11551066D02*
G01*
X5446361Y11436522D01*
X5446361Y11551066D02*
G01*
X5397271Y11551066D01*
X5380906Y11545613D01*
X5375452Y11540159D01*
X5369996Y11529250D01*
X5369996Y11518341D01*
X5375452Y11507431D01*
X5380906Y11501976D01*
X5397271Y11496522D01*
X5446361Y11496522D01*
X5408178Y11496522D02*
G01*
X5369996Y11436522D01*
X5290360Y11551066D02*
G01*
X5333997Y11436522D01*
X5290360Y11551066D02*
G01*
X5246725Y11436522D01*
X5317634Y11474704D02*
G01*
X5263088Y11474704D01*
X5210726Y11551066D02*
G01*
X5210726Y11436522D01*
X5210726Y11551066D02*
G01*
X5134361Y11436522D01*
X5134361Y11551066D02*
G01*
X5134361Y11436522D01*
X5021999Y11534703D02*
G01*
X5032908Y11545613D01*
X5049271Y11551066D01*
X5071089Y11551066D01*
X5087452Y11545613D01*
X5098361Y11534703D01*
X5098361Y11523794D01*
X5092908Y11512885D01*
X5087452Y11507431D01*
X5076543Y11501976D01*
X5043817Y11491066D01*
X5032908Y11485613D01*
X5027452Y11480159D01*
X5021999Y11469250D01*
X5021999Y11452885D01*
X5032908Y11441977D01*
X5049271Y11436522D01*
X5071089Y11436522D01*
X5087452Y11441977D01*
X5098361Y11452885D01*
X4985999Y11551066D02*
G01*
X4985999Y11436522D01*
X4911816Y11551066D02*
G01*
X4911816Y11436522D01*
X4949997Y11551066D02*
G01*
X4873635Y11551066D01*
X4837635Y11551066D02*
G01*
X4837635Y11436522D01*
X4768908Y11551066D02*
G01*
X4779817Y11545613D01*
X4790727Y11534703D01*
X4796180Y11523794D01*
X4801636Y11507431D01*
X4801636Y11480159D01*
X4796180Y11463794D01*
X4790727Y11452885D01*
X4779817Y11441977D01*
X4768908Y11436522D01*
X4747089Y11436522D01*
X4736180Y11441977D01*
X4725271Y11452885D01*
X4719817Y11463794D01*
X4714361Y11480159D01*
X4714361Y11507431D01*
X4719817Y11523794D01*
X4725271Y11534703D01*
X4736180Y11545613D01*
X4747089Y11551066D01*
X4768908Y11551066D01*
X4678362Y11551066D02*
G01*
X4678362Y11436522D01*
X4678362Y11551066D02*
G01*
X4601999Y11436522D01*
X4601999Y11551066D02*
G01*
X4601999Y11436522D01*
X4400181Y11523794D02*
G01*
X4405635Y11534703D01*
X4416544Y11545613D01*
X4427453Y11551066D01*
X4449272Y11551066D01*
X4460181Y11545613D01*
X4471090Y11534703D01*
X4476544Y11523794D01*
X4482000Y11507431D01*
X4482000Y11480159D01*
X4476544Y11463794D01*
X4471090Y11452885D01*
X4460181Y11441977D01*
X4449272Y11436522D01*
X4427453Y11436522D01*
X4416544Y11441977D01*
X4405635Y11452885D01*
X4400181Y11463794D01*
X4331454Y11551066D02*
G01*
X4342363Y11545613D01*
X4353272Y11534703D01*
X4358726Y11523794D01*
X4364182Y11507431D01*
X4364182Y11480159D01*
X4358726Y11463794D01*
X4353272Y11452885D01*
X4342363Y11441977D01*
X4331454Y11436522D01*
X4309635Y11436522D01*
X4298726Y11441977D01*
X4287817Y11452885D01*
X4282363Y11463794D01*
X4276907Y11480159D01*
X4276907Y11507431D01*
X4282363Y11523794D01*
X4287817Y11534703D01*
X4298726Y11545613D01*
X4309635Y11551066D01*
X4331454Y11551066D01*
X4240908Y11551066D02*
G01*
X4240908Y11436522D01*
X4240908Y11551066D02*
G01*
X4164545Y11436522D01*
X4164545Y11551066D02*
G01*
X4164545Y11436522D01*
X4090362Y11551066D02*
G01*
X4090362Y11436522D01*
X4128546Y11551066D02*
G01*
X4052181Y11551066D01*
X4016181Y11551066D02*
G01*
X4016181Y11436522D01*
X4016181Y11551066D02*
G01*
X3967091Y11551066D01*
X3950728Y11545613D01*
X3945272Y11540159D01*
X3939819Y11529250D01*
X3939819Y11518341D01*
X3945272Y11507431D01*
X3950728Y11501976D01*
X3967091Y11496522D01*
X4016181Y11496522D01*
X3978000Y11496522D02*
G01*
X3939819Y11436522D01*
X3871092Y11551066D02*
G01*
X3882001Y11545613D01*
X3892910Y11534703D01*
X3898364Y11523794D01*
X3903819Y11507431D01*
X3903819Y11480159D01*
X3898364Y11463794D01*
X3892910Y11452885D01*
X3882001Y11441977D01*
X3871092Y11436522D01*
X3849273Y11436522D01*
X3838364Y11441977D01*
X3827454Y11452885D01*
X3822001Y11463794D01*
X3816545Y11480159D01*
X3816545Y11507431D01*
X3822001Y11523794D01*
X3827454Y11534703D01*
X3838364Y11545613D01*
X3849273Y11551066D01*
X3871092Y11551066D01*
X3780546Y11551066D02*
G01*
X3780546Y11436522D01*
X3780546Y11436522D02*
G01*
X3715092Y11436522D01*
X3679090Y11551066D02*
G01*
X3679090Y11436522D01*
X3679090Y11436522D02*
G01*
X3613637Y11436522D01*
X3577638Y11551066D02*
G01*
X3577638Y11436522D01*
X3577638Y11551066D02*
G01*
X3506729Y11551066D01*
X3577638Y11496522D02*
G01*
X3534001Y11496522D01*
X3577638Y11436522D02*
G01*
X3506729Y11436522D01*
X3470729Y11551066D02*
G01*
X3470729Y11436522D01*
X3470729Y11551066D02*
G01*
X3421639Y11551066D01*
X3405273Y11545613D01*
X3399820Y11540159D01*
X3394364Y11529250D01*
X3394364Y11518341D01*
X3399820Y11507431D01*
X3405273Y11501976D01*
X3421639Y11496522D01*
X3470729Y11496522D01*
X3432545Y11496522D02*
G01*
X3394364Y11436522D01*
X3274364Y11551066D02*
G01*
X3274364Y11436522D01*
X3274364Y11551066D02*
G01*
X3225274Y11551066D01*
X3208911Y11545613D01*
X3203455Y11540159D01*
X3198002Y11529250D01*
X3198002Y11518341D01*
X3203455Y11507431D01*
X3208911Y11501976D01*
X3225274Y11496522D01*
X3274364Y11496522D02*
G01*
X3225274Y11496522D01*
X3208911Y11491066D01*
X3203455Y11485613D01*
X3198002Y11474704D01*
X3198002Y11458341D01*
X3203455Y11447432D01*
X3208911Y11441977D01*
X3225274Y11436522D01*
X3274364Y11436522D01*
X3162002Y11551066D02*
G01*
X3162002Y11469250D01*
X3156546Y11452885D01*
X3145637Y11441977D01*
X3129274Y11436522D01*
X3118365Y11436522D01*
X3102002Y11441977D01*
X3091093Y11452885D01*
X3085637Y11469250D01*
X3085637Y11551066D01*
X3011457Y11551066D02*
G01*
X3011457Y11436522D01*
X3049638Y11551066D02*
G01*
X2973275Y11551066D01*
X2899092Y11551066D02*
G01*
X2899092Y11436522D01*
X2937276Y11551066D02*
G01*
X2860911Y11551066D01*
X2792183Y11551066D02*
G01*
X2803093Y11545613D01*
X2814002Y11534703D01*
X2819458Y11523794D01*
X2824911Y11507431D01*
X2824911Y11480159D01*
X2819458Y11463794D01*
X2814002Y11452885D01*
X2803093Y11441977D01*
X2792183Y11436522D01*
X2770365Y11436522D01*
X2759458Y11441977D01*
X2748549Y11452885D01*
X2743093Y11463794D01*
X2737639Y11480159D01*
X2737639Y11507431D01*
X2743093Y11523794D01*
X2748549Y11534703D01*
X2759458Y11545613D01*
X2770365Y11551066D01*
X2792183Y11551066D01*
X2701640Y11551066D02*
G01*
X2701640Y11436522D01*
X2701640Y11551066D02*
G01*
X2625275Y11436522D01*
X2625275Y11551066D02*
G01*
X2625275Y11436522D01*
X2505275Y11551066D02*
G01*
X2505275Y11436522D01*
X2505275Y11551066D02*
G01*
X2456185Y11551066D01*
X2439822Y11545613D01*
X2434366Y11540159D01*
X2428913Y11529250D01*
X2428913Y11518341D01*
X2434366Y11507431D01*
X2439822Y11501976D01*
X2456185Y11496522D01*
X2505275Y11496522D02*
G01*
X2456185Y11496522D01*
X2439822Y11491066D01*
X2434366Y11485613D01*
X2428913Y11474704D01*
X2428913Y11458341D01*
X2434366Y11447432D01*
X2439822Y11441977D01*
X2456185Y11436522D01*
X2505275Y11436522D01*
X2360185Y11551066D02*
G01*
X2371095Y11545613D01*
X2382004Y11534703D01*
X2387457Y11523794D01*
X2392913Y11507431D01*
X2392913Y11480159D01*
X2387457Y11463794D01*
X2382004Y11452885D01*
X2371095Y11441977D01*
X2360185Y11436522D01*
X2338367Y11436522D01*
X2327457Y11441977D01*
X2316548Y11452885D01*
X2311095Y11463794D01*
X2305639Y11480159D01*
X2305639Y11507431D01*
X2311095Y11523794D01*
X2316548Y11534703D01*
X2327457Y11545613D01*
X2338367Y11551066D01*
X2360185Y11551066D01*
X2226005Y11551066D02*
G01*
X2269639Y11436522D01*
X2226005Y11551066D02*
G01*
X2182368Y11436522D01*
X2253277Y11474704D02*
G01*
X2198730Y11474704D01*
X2146368Y11551066D02*
G01*
X2146368Y11436522D01*
X2146368Y11551066D02*
G01*
X2097277Y11551066D01*
X2080912Y11545613D01*
X2075459Y11540159D01*
X2070003Y11529250D01*
X2070003Y11518341D01*
X2075459Y11507431D01*
X2080912Y11501976D01*
X2097277Y11496522D01*
X2146368Y11496522D01*
X2108184Y11496522D02*
G01*
X2070003Y11436522D01*
X2034004Y11551066D02*
G01*
X2034004Y11436522D01*
X2034004Y11551066D02*
G01*
X1995822Y11551066D01*
X1979460Y11545613D01*
X1968550Y11534703D01*
X1963094Y11523794D01*
X1957641Y11507431D01*
X1957641Y11480159D01*
X1963094Y11463794D01*
X1968550Y11452885D01*
X1979460Y11441977D01*
X1995822Y11436522D01*
X2034004Y11436522D01*
X1837641Y11551066D02*
G01*
X1794004Y11436522D01*
X1750367Y11551066D02*
G01*
X1794004Y11436522D01*
X1714367Y11529250D02*
G01*
X1703458Y11534703D01*
X1687095Y11551066D01*
X1687095Y11436522D01*
X1645640Y11463794D02*
G01*
X1651096Y11458341D01*
X1645640Y11452885D01*
X1640187Y11458341D01*
X1645640Y11463794D01*
X1604187Y11529250D02*
G01*
X1593278Y11534703D01*
X1576913Y11551066D01*
X1576913Y11436522D01*
X1456913Y11485613D02*
G01*
X1358732Y11485613D01*
X1238732Y11551066D02*
G01*
X1238732Y11436522D01*
X1238732Y11551066D02*
G01*
X1189642Y11551066D01*
X1173279Y11545613D01*
X1167823Y11540159D01*
X1162370Y11529250D01*
X1162370Y11518341D01*
X1167823Y11507431D01*
X1173279Y11501976D01*
X1189642Y11496522D01*
X1238732Y11496522D01*
X1200551Y11496522D02*
G01*
X1162370Y11436522D01*
X1126370Y11551066D02*
G01*
X1126370Y11436522D01*
X1126370Y11551066D02*
G01*
X1055461Y11551066D01*
X1126370Y11496522D02*
G01*
X1082733Y11496522D01*
X1126370Y11436522D02*
G01*
X1055461Y11436522D01*
X975824Y11551066D02*
G01*
X1019462Y11436522D01*
X975824Y11551066D02*
G01*
X932187Y11436522D01*
X1003096Y11474704D02*
G01*
X948552Y11474704D01*
X896188Y11551066D02*
G01*
X896188Y11436522D01*
X896188Y11551066D02*
G01*
X847097Y11551066D01*
X830734Y11545613D01*
X825279Y11540159D01*
X819825Y11529250D01*
X819825Y11518341D01*
X825279Y11507431D01*
X830734Y11501976D01*
X847097Y11496522D01*
X896188Y11496522D01*
X858006Y11496522D02*
G01*
X819825Y11436522D01*
X6007087Y11322466D02*
G01*
X6007087Y11207922D01*
X6007087Y11322466D02*
G01*
X5957996Y11322466D01*
X5941634Y11317013D01*
X5936178Y11311559D01*
X5930724Y11300650D01*
X5930724Y11284285D01*
X5936178Y11273375D01*
X5941634Y11267922D01*
X5957996Y11262466D01*
X6007087Y11262466D01*
X5851088Y11322466D02*
G01*
X5894722Y11207922D01*
X5851088Y11322466D02*
G01*
X5807450Y11207922D01*
X5878360Y11246104D02*
G01*
X5823816Y11246104D01*
X5771451Y11322466D02*
G01*
X5771451Y11207922D01*
X5771451Y11322466D02*
G01*
X5722360Y11322466D01*
X5705998Y11317013D01*
X5700542Y11311559D01*
X5695088Y11300650D01*
X5695088Y11289741D01*
X5700542Y11278831D01*
X5705998Y11273375D01*
X5722360Y11267922D01*
X5771451Y11267922D01*
X5733270Y11267922D02*
G01*
X5695088Y11207922D01*
X5620905Y11322466D02*
G01*
X5620905Y11207922D01*
X5659086Y11322466D02*
G01*
X5582724Y11322466D01*
X5462724Y11322466D02*
G01*
X5462724Y11207922D01*
X5462724Y11322466D02*
G01*
X5386362Y11207922D01*
X5386362Y11322466D02*
G01*
X5386362Y11207922D01*
X5350360Y11322466D02*
G01*
X5350360Y11240650D01*
X5344906Y11224285D01*
X5333997Y11213376D01*
X5317634Y11207922D01*
X5306725Y11207922D01*
X5290360Y11213376D01*
X5279453Y11224285D01*
X5273997Y11240650D01*
X5273997Y11322466D01*
X5237998Y11322466D02*
G01*
X5237998Y11207922D01*
X5237998Y11322466D02*
G01*
X5194360Y11207922D01*
X5150726Y11322466D02*
G01*
X5194360Y11207922D01*
X5150726Y11322466D02*
G01*
X5150726Y11207922D01*
X5114724Y11322466D02*
G01*
X5114724Y11207922D01*
X5114724Y11322466D02*
G01*
X5065633Y11322466D01*
X5049271Y11317013D01*
X5043817Y11311559D01*
X5038361Y11300650D01*
X5038361Y11289741D01*
X5043817Y11278831D01*
X5049271Y11273375D01*
X5065633Y11267922D01*
X5114724Y11267922D02*
G01*
X5065633Y11267922D01*
X5049271Y11262466D01*
X5043817Y11257013D01*
X5038361Y11246104D01*
X5038361Y11229741D01*
X5043817Y11218832D01*
X5049271Y11213376D01*
X5065633Y11207922D01*
X5114724Y11207922D01*
X5002362Y11322466D02*
G01*
X5002362Y11207922D01*
X5002362Y11322466D02*
G01*
X4931453Y11322466D01*
X5002362Y11267922D02*
G01*
X4958725Y11267922D01*
X5002362Y11207922D02*
G01*
X4931453Y11207922D01*
X4895453Y11322466D02*
G01*
X4895453Y11207922D01*
X4895453Y11322466D02*
G01*
X4846363Y11322466D01*
X4829997Y11317013D01*
X4824544Y11311559D01*
X4819088Y11300650D01*
X4819088Y11289741D01*
X4824544Y11278831D01*
X4829997Y11273375D01*
X4846363Y11267922D01*
X4895453Y11267922D01*
X4857272Y11267922D02*
G01*
X4819088Y11207922D01*
X4693635Y11295194D02*
G01*
X4693635Y11300650D01*
X4688179Y11311559D01*
X4682726Y11317013D01*
X4671816Y11322466D01*
X4649998Y11322466D01*
X4639089Y11317013D01*
X4633635Y11311559D01*
X4628179Y11300650D01*
X4628179Y11289741D01*
X4633635Y11278831D01*
X4644544Y11262466D01*
X4699088Y11207922D01*
X4622726Y11207922D01*
X4559454Y11322466D02*
G01*
X4575817Y11317013D01*
X4581270Y11306103D01*
X4581270Y11295194D01*
X4575817Y11284285D01*
X4564908Y11278831D01*
X4543089Y11273375D01*
X4526727Y11267922D01*
X4515817Y11257013D01*
X4510361Y11246104D01*
X4510361Y11229741D01*
X4515817Y11218832D01*
X4521271Y11213376D01*
X4537636Y11207922D01*
X4559454Y11207922D01*
X4575817Y11213376D01*
X4581270Y11218832D01*
X4586726Y11229741D01*
X4586726Y11246104D01*
X4581270Y11257013D01*
X4570361Y11267922D01*
X4553999Y11273375D01*
X4532180Y11278831D01*
X4521271Y11284285D01*
X4515817Y11295194D01*
X4515817Y11306103D01*
X4521271Y11317013D01*
X4537636Y11322466D01*
X4559454Y11322466D01*
X4468909Y11295194D02*
G01*
X4468909Y11300650D01*
X4463453Y11311559D01*
X4457999Y11317013D01*
X4447090Y11322466D01*
X4425271Y11322466D01*
X4414362Y11317013D01*
X4408909Y11311559D01*
X4403453Y11300650D01*
X4403453Y11289741D01*
X4408909Y11278831D01*
X4419818Y11262466D01*
X4474362Y11207922D01*
X4397999Y11207922D01*
X4329272Y11322466D02*
G01*
X4345635Y11317013D01*
X4356544Y11300650D01*
X4362000Y11273375D01*
X4362000Y11257013D01*
X4356544Y11229741D01*
X4345635Y11213376D01*
X4329272Y11207922D01*
X4318363Y11207922D01*
X4302000Y11213376D01*
X4291091Y11229741D01*
X4285635Y11257013D01*
X4285635Y11273375D01*
X4291091Y11300650D01*
X4302000Y11317013D01*
X4318363Y11322466D01*
X4329272Y11322466D01*
X4249635Y11257013D02*
G01*
X4151454Y11257013D01*
X4082727Y11322466D02*
G01*
X4099090Y11317013D01*
X4109999Y11300650D01*
X4115455Y11273375D01*
X4115455Y11257013D01*
X4109999Y11229741D01*
X4099090Y11213376D01*
X4082727Y11207922D01*
X4071818Y11207922D01*
X4055455Y11213376D01*
X4044546Y11229741D01*
X4039090Y11257013D01*
X4039090Y11273375D01*
X4044546Y11300650D01*
X4055455Y11317013D01*
X4071818Y11322466D01*
X4082727Y11322466D01*
X3992181Y11322466D02*
G01*
X3932181Y11322466D01*
X3964909Y11278831D01*
X3948546Y11278831D01*
X3937637Y11273375D01*
X3932181Y11267922D01*
X3926728Y11251559D01*
X3926728Y11240650D01*
X3932181Y11224285D01*
X3943090Y11213376D01*
X3959456Y11207922D01*
X3975818Y11207922D01*
X3992181Y11213376D01*
X3997637Y11218832D01*
X4003090Y11229741D01*
X3858000Y11322466D02*
G01*
X3874363Y11317013D01*
X3885272Y11300650D01*
X3890728Y11273375D01*
X3890728Y11257013D01*
X3885272Y11229741D01*
X3874363Y11213376D01*
X3858000Y11207922D01*
X3847091Y11207922D01*
X3830728Y11213376D01*
X3819819Y11229741D01*
X3814363Y11257013D01*
X3814363Y11273375D01*
X3819819Y11300650D01*
X3830728Y11317013D01*
X3847091Y11322466D01*
X3858000Y11322466D01*
X3778364Y11300650D02*
G01*
X3767454Y11306103D01*
X3751092Y11322466D01*
X3751092Y11207922D01*
D11*
X8977149Y2527757D02*
G01*
X8982346Y2538148D01*
X8992737Y2548539D01*
X9003126Y2553733D01*
X9023908Y2553733D01*
X9034299Y2548539D01*
X9044691Y2538148D01*
X9049887Y2527757D01*
X9055082Y2512169D01*
X9055082Y2486192D01*
X9049887Y2470607D01*
X9044691Y2460216D01*
X9034299Y2449824D01*
X9023908Y2444630D01*
X9003126Y2444630D01*
X8992737Y2449824D01*
X8982346Y2460216D01*
X8977149Y2470607D01*
X8890906Y2553733D02*
G01*
X8942859Y2480998D01*
X8864927Y2480998D01*
X8890906Y2553733D02*
G01*
X8890906Y2444630D01*
X9055082Y2795033D02*
G01*
X9055082Y2685930D01*
X9055082Y2795033D02*
G01*
X9018714Y2795033D01*
X9003126Y2789839D01*
X8992737Y2779448D01*
X8987541Y2769057D01*
X8982346Y2753469D01*
X8982346Y2727492D01*
X8987541Y2711907D01*
X8992737Y2701516D01*
X9003126Y2691124D01*
X9018714Y2685930D01*
X9055082Y2685930D01*
X8937665Y2795033D02*
G01*
X8880515Y2795033D01*
X8911686Y2753469D01*
X8896101Y2753469D01*
X8885709Y2748274D01*
X8880515Y2743080D01*
X8875318Y2727492D01*
X8875318Y2717101D01*
X8880515Y2701516D01*
X8890906Y2691124D01*
X8906492Y2685930D01*
X8922077Y2685930D01*
X8937665Y2691124D01*
X8942859Y2696319D01*
X8948056Y2706710D01*
X5942431Y8230623D02*
G01*
X5942431Y8147497D01*
X5947628Y8131909D01*
X5952822Y8126714D01*
X5963213Y8121520D01*
X5973605Y8121520D01*
X5983996Y8126714D01*
X5989193Y8131909D01*
X5994387Y8147497D01*
X5994387Y8157888D01*
X5908141Y8209841D02*
G01*
X5897752Y8215038D01*
X5882165Y8230623D01*
X5882165Y8121520D01*
X3657600Y10618238D02*
G01*
X3657600Y10509135D01*
X3657600Y10618238D02*
G01*
X3621232Y10618238D01*
X3605644Y10613044D01*
X3595255Y10602653D01*
X3590058Y10592262D01*
X3584864Y10576674D01*
X3584864Y10550697D01*
X3590058Y10535112D01*
X3595255Y10524721D01*
X3605644Y10514329D01*
X3621232Y10509135D01*
X3657600Y10509135D01*
X3550574Y10597456D02*
G01*
X3540183Y10602653D01*
X3524595Y10618238D01*
X3524595Y10509135D01*
X3657600Y10376938D02*
G01*
X3657600Y10267835D01*
X3657600Y10376938D02*
G01*
X3621232Y10376938D01*
X3605644Y10371744D01*
X3595255Y10361353D01*
X3590058Y10350962D01*
X3584864Y10335374D01*
X3584864Y10309397D01*
X3590058Y10293812D01*
X3595255Y10283421D01*
X3605644Y10273029D01*
X3621232Y10267835D01*
X3657600Y10267835D01*
X3545377Y10350962D02*
G01*
X3545377Y10356156D01*
X3540183Y10366547D01*
X3534986Y10371744D01*
X3524595Y10376938D01*
X3503815Y10376938D01*
X3493424Y10371744D01*
X3488227Y10366547D01*
X3483033Y10356156D01*
X3483033Y10345765D01*
X3488227Y10335374D01*
X3498618Y10319788D01*
X3550574Y10267835D01*
X3477836Y10267835D01*
G36*
X8383625Y2437180D02*
G01*
X8383625Y2407666D01*
X8414105Y2407666D01*
X8414105Y2437180D01*
G37*
G36*
X8383625Y2596134D02*
G01*
X8383625Y2566619D01*
X8414105Y2566619D01*
X8414105Y2596134D01*
G37*
G36*
X8383625Y2678480D02*
G01*
X8383625Y2648966D01*
X8414105Y2648966D01*
X8414105Y2678480D01*
G37*
G36*
X8383625Y2837434D02*
G01*
X8383625Y2807919D01*
X8414105Y2807919D01*
X8414105Y2837434D01*
G37*
G36*
X2986125Y10501680D02*
G01*
X2986125Y10472166D01*
X3016605Y10472166D01*
X3016605Y10501680D01*
G37*
G36*
X2986125Y10660634D02*
G01*
X2986125Y10631119D01*
X3016605Y10631119D01*
X3016605Y10660634D01*
G37*
G36*
X2986125Y10260380D02*
G01*
X2986125Y10230866D01*
X3016605Y10230866D01*
X3016605Y10260380D01*
G37*
G36*
X2986125Y10419334D02*
G01*
X2986125Y10389819D01*
X3016605Y10389819D01*
X3016605Y10419334D01*
G37*
X8406462Y2415275D02*
G01*
X8687701Y2415275D01*
X8687701Y2415275D02*
G01*
X8687701Y2432075D01*
X8406462Y2588513D02*
G01*
X8687701Y2588513D01*
X8687701Y2588513D02*
G01*
X8687701Y2571714D01*
X8442152Y2415275D02*
G01*
X8442152Y2588513D01*
X8406462Y2656575D02*
G01*
X8687701Y2656575D01*
X8687701Y2656575D02*
G01*
X8687701Y2673375D01*
X8406462Y2829813D02*
G01*
X8687701Y2829813D01*
X8687701Y2829813D02*
G01*
X8687701Y2813014D01*
X8442152Y2656575D02*
G01*
X8442152Y2829813D01*
D10*
X6057887Y8064489D02*
G01*
X6070587Y8064489D01*
X6070587Y2984489D01*
X5803887Y2984489D01*
X5803887Y8064489D01*
X6057887Y8064489D01*
D11*
X3008980Y10479780D02*
G01*
X3290219Y10479780D01*
X3290219Y10479780D02*
G01*
X3290219Y10496580D01*
X3008980Y10653019D02*
G01*
X3290219Y10653019D01*
X3290219Y10653019D02*
G01*
X3290219Y10636219D01*
X3044670Y10479780D02*
G01*
X3044670Y10653019D01*
X3008980Y10238480D02*
G01*
X3290219Y10238480D01*
X3290219Y10238480D02*
G01*
X3290219Y10255280D01*
X3008980Y10411719D02*
G01*
X3290219Y10411719D01*
X3290219Y10411719D02*
G01*
X3290219Y10394919D01*
X3044670Y10238480D02*
G01*
X3044670Y10411719D01*
M02*
