G04 Layer: TopSilkscreenLayer*
G04 EasyEDA v6.5.29, 2023-07-16 15:11:24*
G04 08c5cc99871a4756a8ffc771c65a72c4,5a6b42c53f6a479593ecc07194224c93,10*
G04 Gerber Generator version 0.2*
G04 Scale: 100 percent, Rotated: No, Reflected: No *
G04 Dimensions in millimeters *
G04 leading zeros omitted , absolute positions ,4 integer and 5 decimal *
%FSLAX45Y45*%
%MOMM*%

%ADD10C,0.2030*%
%ADD11C,0.2032*%
%ADD12C,0.2540*%

%LPD*%
D10*
X923544Y6599428D02*
G01*
X918210Y6610350D01*
X907287Y6621271D01*
X896365Y6626860D01*
X874521Y6626860D01*
X863600Y6621271D01*
X852678Y6610350D01*
X847344Y6599428D01*
X841755Y6583171D01*
X841755Y6555994D01*
X847344Y6539484D01*
X852678Y6528562D01*
X863600Y6517639D01*
X874521Y6512305D01*
X896365Y6512305D01*
X907287Y6517639D01*
X918210Y6528562D01*
X923544Y6539484D01*
X992378Y6626860D02*
G01*
X981455Y6621271D01*
X970534Y6610350D01*
X965200Y6599428D01*
X959612Y6583171D01*
X959612Y6555994D01*
X965200Y6539484D01*
X970534Y6528562D01*
X981455Y6517639D01*
X992378Y6512305D01*
X1014221Y6512305D01*
X1025144Y6517639D01*
X1036065Y6528562D01*
X1041400Y6539484D01*
X1046987Y6555994D01*
X1046987Y6583171D01*
X1041400Y6599428D01*
X1036065Y6610350D01*
X1025144Y6621271D01*
X1014221Y6626860D01*
X992378Y6626860D01*
X1082802Y6626860D02*
G01*
X1082802Y6512305D01*
X1082802Y6626860D02*
G01*
X1132078Y6626860D01*
X1148334Y6621271D01*
X1153921Y6615937D01*
X1159255Y6605015D01*
X1159255Y6588505D01*
X1153921Y6577584D01*
X1148334Y6572250D01*
X1132078Y6566662D01*
X1082802Y6566662D01*
X1195323Y6626860D02*
G01*
X1239012Y6572250D01*
X1239012Y6512305D01*
X1282445Y6626860D02*
G01*
X1239012Y6572250D01*
X1318513Y6626860D02*
G01*
X1318513Y6512305D01*
X1318513Y6626860D02*
G01*
X1367536Y6626860D01*
X1384045Y6621271D01*
X1389379Y6615937D01*
X1394968Y6605015D01*
X1394968Y6594094D01*
X1389379Y6583171D01*
X1384045Y6577584D01*
X1367536Y6572250D01*
X1318513Y6572250D01*
X1356613Y6572250D02*
G01*
X1394968Y6512305D01*
X1430781Y6626860D02*
G01*
X1430781Y6512305D01*
X1548637Y6599428D02*
G01*
X1543304Y6610350D01*
X1532381Y6621271D01*
X1521460Y6626860D01*
X1499615Y6626860D01*
X1488694Y6621271D01*
X1477771Y6610350D01*
X1472437Y6599428D01*
X1466850Y6583171D01*
X1466850Y6555994D01*
X1472437Y6539484D01*
X1477771Y6528562D01*
X1488694Y6517639D01*
X1499615Y6512305D01*
X1521460Y6512305D01*
X1532381Y6517639D01*
X1543304Y6528562D01*
X1548637Y6539484D01*
X1548637Y6555994D01*
X1521460Y6555994D02*
G01*
X1548637Y6555994D01*
X1584705Y6626860D02*
G01*
X1584705Y6512305D01*
X1661160Y6626860D02*
G01*
X1661160Y6512305D01*
X1584705Y6572250D02*
G01*
X1661160Y6572250D01*
X1735328Y6626860D02*
G01*
X1735328Y6512305D01*
X1696973Y6626860D02*
G01*
X1773428Y6626860D01*
X1898904Y6599428D02*
G01*
X1898904Y6605015D01*
X1904237Y6615937D01*
X1909826Y6621271D01*
X1920747Y6626860D01*
X1942591Y6626860D01*
X1953513Y6621271D01*
X1958847Y6615937D01*
X1964436Y6605015D01*
X1964436Y6594094D01*
X1958847Y6583171D01*
X1947925Y6566662D01*
X1893570Y6512305D01*
X1969770Y6512305D01*
X2038604Y6626860D02*
G01*
X2022093Y6621271D01*
X2011172Y6605015D01*
X2005838Y6577584D01*
X2005838Y6561328D01*
X2011172Y6534150D01*
X2022093Y6517639D01*
X2038604Y6512305D01*
X2049525Y6512305D01*
X2065781Y6517639D01*
X2076704Y6534150D01*
X2082291Y6561328D01*
X2082291Y6577584D01*
X2076704Y6605015D01*
X2065781Y6621271D01*
X2049525Y6626860D01*
X2038604Y6626860D01*
X2123693Y6599428D02*
G01*
X2123693Y6605015D01*
X2129027Y6615937D01*
X2134615Y6621271D01*
X2145538Y6626860D01*
X2167381Y6626860D01*
X2178050Y6621271D01*
X2183638Y6615937D01*
X2188972Y6605015D01*
X2188972Y6594094D01*
X2183638Y6583171D01*
X2172715Y6566662D01*
X2118106Y6512305D01*
X2194559Y6512305D01*
X2241550Y6626860D02*
G01*
X2301493Y6626860D01*
X2268727Y6583171D01*
X2284984Y6583171D01*
X2295906Y6577584D01*
X2301493Y6572250D01*
X2306827Y6555994D01*
X2306827Y6545071D01*
X2301493Y6528562D01*
X2290572Y6517639D01*
X2274061Y6512305D01*
X2257806Y6512305D01*
X2241550Y6517639D01*
X2235961Y6523228D01*
X2230627Y6534150D01*
X2426970Y6626860D02*
G01*
X2470658Y6512305D01*
X2514091Y6626860D02*
G01*
X2470658Y6512305D01*
X2550159Y6626860D02*
G01*
X2550159Y6512305D01*
X2550159Y6626860D02*
G01*
X2621025Y6626860D01*
X2550159Y6572250D02*
G01*
X2593847Y6572250D01*
X2550159Y6512305D02*
G01*
X2621025Y6512305D01*
X2733547Y6626860D02*
G01*
X2678938Y6512305D01*
X2657093Y6626860D02*
G01*
X2733547Y6626860D01*
X2769361Y6626860D02*
G01*
X2769361Y6512305D01*
X2769361Y6626860D02*
G01*
X2840227Y6626860D01*
X2769361Y6572250D02*
G01*
X2813050Y6572250D01*
X2876295Y6626860D02*
G01*
X2876295Y6512305D01*
X2912363Y6626860D02*
G01*
X2912363Y6512305D01*
X2912363Y6626860D02*
G01*
X2956052Y6512305D01*
X2999740Y6626860D02*
G01*
X2956052Y6512305D01*
X2999740Y6626860D02*
G01*
X2999740Y6512305D01*
X3119627Y6561328D02*
G01*
X3217925Y6561328D01*
X3381502Y6626860D02*
G01*
X3337813Y6512305D01*
X3381502Y6626860D02*
G01*
X3425190Y6512305D01*
X3354070Y6550405D02*
G01*
X3408679Y6550405D01*
X3461004Y6626860D02*
G01*
X3461004Y6512305D01*
X3461004Y6512305D02*
G01*
X3526536Y6512305D01*
X3562604Y6626860D02*
G01*
X3562604Y6512305D01*
X3562604Y6512305D02*
G01*
X3627881Y6512305D01*
X3748024Y6626860D02*
G01*
X3748024Y6512305D01*
X3748024Y6626860D02*
G01*
X3797045Y6626860D01*
X3813556Y6621271D01*
X3818890Y6615937D01*
X3824477Y6605015D01*
X3824477Y6594094D01*
X3818890Y6583171D01*
X3813556Y6577584D01*
X3797045Y6572250D01*
X3748024Y6572250D01*
X3786124Y6572250D02*
G01*
X3824477Y6512305D01*
X3860291Y6626860D02*
G01*
X3860291Y6512305D01*
X3978147Y6599428D02*
G01*
X3972813Y6610350D01*
X3961891Y6621271D01*
X3950970Y6626860D01*
X3929125Y6626860D01*
X3918204Y6621271D01*
X3907281Y6610350D01*
X3901693Y6599428D01*
X3896359Y6583171D01*
X3896359Y6555994D01*
X3901693Y6539484D01*
X3907281Y6528562D01*
X3918204Y6517639D01*
X3929125Y6512305D01*
X3950970Y6512305D01*
X3961891Y6517639D01*
X3972813Y6528562D01*
X3978147Y6539484D01*
X3978147Y6555994D01*
X3950970Y6555994D02*
G01*
X3978147Y6555994D01*
X4014215Y6626860D02*
G01*
X4014215Y6512305D01*
X4090415Y6626860D02*
G01*
X4090415Y6512305D01*
X4014215Y6572250D02*
G01*
X4090415Y6572250D01*
X4164838Y6626860D02*
G01*
X4164838Y6512305D01*
X4126484Y6626860D02*
G01*
X4202938Y6626860D01*
X4315206Y6610350D02*
G01*
X4304284Y6621271D01*
X4288027Y6626860D01*
X4266184Y6626860D01*
X4249927Y6621271D01*
X4239006Y6610350D01*
X4239006Y6599428D01*
X4244340Y6588505D01*
X4249927Y6583171D01*
X4260595Y6577584D01*
X4293361Y6566662D01*
X4304284Y6561328D01*
X4309872Y6555994D01*
X4315206Y6545071D01*
X4315206Y6528562D01*
X4304284Y6517639D01*
X4288027Y6512305D01*
X4266184Y6512305D01*
X4249927Y6517639D01*
X4239006Y6528562D01*
X4435347Y6626860D02*
G01*
X4435347Y6512305D01*
X4435347Y6626860D02*
G01*
X4484370Y6626860D01*
X4500625Y6621271D01*
X4506213Y6615937D01*
X4511547Y6605015D01*
X4511547Y6594094D01*
X4506213Y6583171D01*
X4500625Y6577584D01*
X4484370Y6572250D01*
X4435347Y6572250D01*
X4473447Y6572250D02*
G01*
X4511547Y6512305D01*
X4547615Y6626860D02*
G01*
X4547615Y6512305D01*
X4547615Y6626860D02*
G01*
X4618481Y6626860D01*
X4547615Y6572250D02*
G01*
X4591304Y6572250D01*
X4547615Y6512305D02*
G01*
X4618481Y6512305D01*
X4731004Y6610350D02*
G01*
X4720081Y6621271D01*
X4703572Y6626860D01*
X4681727Y6626860D01*
X4665472Y6621271D01*
X4654550Y6610350D01*
X4654550Y6599428D01*
X4659884Y6588505D01*
X4665472Y6583171D01*
X4676393Y6577584D01*
X4709159Y6566662D01*
X4720081Y6561328D01*
X4725415Y6555994D01*
X4731004Y6545071D01*
X4731004Y6528562D01*
X4720081Y6517639D01*
X4703572Y6512305D01*
X4681727Y6512305D01*
X4665472Y6517639D01*
X4654550Y6528562D01*
X4766818Y6626860D02*
G01*
X4766818Y6512305D01*
X4766818Y6626860D02*
G01*
X4837684Y6626860D01*
X4766818Y6572250D02*
G01*
X4810506Y6572250D01*
X4766818Y6512305D02*
G01*
X4837684Y6512305D01*
X4873752Y6626860D02*
G01*
X4873752Y6512305D01*
X4873752Y6626860D02*
G01*
X4922774Y6626860D01*
X4939284Y6621271D01*
X4944618Y6615937D01*
X4950206Y6605015D01*
X4950206Y6594094D01*
X4944618Y6583171D01*
X4939284Y6577584D01*
X4922774Y6572250D01*
X4873752Y6572250D01*
X4912106Y6572250D02*
G01*
X4950206Y6512305D01*
X4986274Y6626860D02*
G01*
X5029708Y6512305D01*
X5073395Y6626860D02*
G01*
X5029708Y6512305D01*
X5109463Y6626860D02*
G01*
X5109463Y6512305D01*
X5109463Y6626860D02*
G01*
X5180329Y6626860D01*
X5109463Y6572250D02*
G01*
X5153152Y6572250D01*
X5109463Y6512305D02*
G01*
X5180329Y6512305D01*
X5216397Y6626860D02*
G01*
X5216397Y6512305D01*
X5216397Y6626860D02*
G01*
X5254497Y6626860D01*
X5271008Y6621271D01*
X5281675Y6610350D01*
X5287263Y6599428D01*
X5292597Y6583171D01*
X5292597Y6555994D01*
X5287263Y6539484D01*
X5281675Y6528562D01*
X5271008Y6517639D01*
X5254497Y6512305D01*
X5216397Y6512305D01*
D11*
X2623614Y3728925D02*
G01*
X2623614Y3641549D01*
X2618026Y3625293D01*
X2612692Y3619705D01*
X2601770Y3614371D01*
X2590848Y3614371D01*
X2579926Y3619705D01*
X2574338Y3625293D01*
X2569004Y3641549D01*
X2569004Y3652471D01*
X2659428Y3728925D02*
G01*
X2659428Y3614371D01*
X2659428Y3614371D02*
G01*
X2724960Y3614371D01*
X2842816Y3701493D02*
G01*
X2837482Y3712415D01*
X2826560Y3723337D01*
X2815638Y3728925D01*
X2793794Y3728925D01*
X2782872Y3723337D01*
X2771950Y3712415D01*
X2766362Y3701493D01*
X2761028Y3685237D01*
X2761028Y3658059D01*
X2766362Y3641549D01*
X2771950Y3630627D01*
X2782872Y3619705D01*
X2793794Y3614371D01*
X2815638Y3614371D01*
X2826560Y3619705D01*
X2837482Y3630627D01*
X2842816Y3641549D01*
X2933240Y3728925D02*
G01*
X2933240Y3641549D01*
X2927906Y3625293D01*
X2922572Y3619705D01*
X2911650Y3614371D01*
X2900728Y3614371D01*
X2889806Y3619705D01*
X2884218Y3625293D01*
X2878884Y3641549D01*
X2878884Y3652471D01*
X2969308Y3728925D02*
G01*
X2969308Y3614371D01*
X2969308Y3614371D02*
G01*
X3034840Y3614371D01*
X3152696Y3701493D02*
G01*
X3147108Y3712415D01*
X3136186Y3723337D01*
X3125264Y3728925D01*
X3103674Y3728925D01*
X3092752Y3723337D01*
X3081830Y3712415D01*
X3076242Y3701493D01*
X3070908Y3685237D01*
X3070908Y3658059D01*
X3076242Y3641549D01*
X3081830Y3630627D01*
X3092752Y3619705D01*
X3103674Y3614371D01*
X3125264Y3614371D01*
X3136186Y3619705D01*
X3147108Y3630627D01*
X3152696Y3641549D01*
X3243120Y3728925D02*
G01*
X3243120Y3641549D01*
X3237786Y3625293D01*
X3232198Y3619705D01*
X3221276Y3614371D01*
X3210354Y3614371D01*
X3199432Y3619705D01*
X3194098Y3625293D01*
X3188764Y3641549D01*
X3188764Y3652471D01*
X3279188Y3728925D02*
G01*
X3279188Y3614371D01*
X3279188Y3614371D02*
G01*
X3344720Y3614371D01*
X3462576Y3701493D02*
G01*
X3456988Y3712415D01*
X3446066Y3723337D01*
X3435144Y3728925D01*
X3413300Y3728925D01*
X3402378Y3723337D01*
X3391456Y3712415D01*
X3386122Y3701493D01*
X3380534Y3685237D01*
X3380534Y3658059D01*
X3386122Y3641549D01*
X3391456Y3630627D01*
X3402378Y3619705D01*
X3413300Y3614371D01*
X3435144Y3614371D01*
X3446066Y3619705D01*
X3456988Y3630627D01*
X3462576Y3641549D01*
X3553000Y3728925D02*
G01*
X3553000Y3641549D01*
X3547666Y3625293D01*
X3542078Y3619705D01*
X3531156Y3614371D01*
X3520234Y3614371D01*
X3509312Y3619705D01*
X3503978Y3625293D01*
X3498390Y3641549D01*
X3498390Y3652471D01*
X3589068Y3728925D02*
G01*
X3589068Y3614371D01*
X3589068Y3614371D02*
G01*
X3654346Y3614371D01*
X3772202Y3701493D02*
G01*
X3766868Y3712415D01*
X3755946Y3723337D01*
X3745024Y3728925D01*
X3723180Y3728925D01*
X3712258Y3723337D01*
X3701336Y3712415D01*
X3696002Y3701493D01*
X3690414Y3685237D01*
X3690414Y3658059D01*
X3696002Y3641549D01*
X3701336Y3630627D01*
X3712258Y3619705D01*
X3723180Y3614371D01*
X3745024Y3614371D01*
X3755946Y3619705D01*
X3766868Y3630627D01*
X3772202Y3641549D01*
X575104Y9939154D02*
G01*
X575104Y9824610D01*
X575104Y9939154D02*
G01*
X624194Y9939154D01*
X640557Y9933701D01*
X646013Y9928247D01*
X651466Y9917338D01*
X651466Y9900973D01*
X646013Y9890064D01*
X640557Y9884610D01*
X624194Y9879154D01*
X575104Y9879154D01*
X687468Y9939154D02*
G01*
X687468Y9824610D01*
X805286Y9911882D02*
G01*
X799830Y9922791D01*
X788921Y9933701D01*
X778012Y9939154D01*
X756193Y9939154D01*
X745286Y9933701D01*
X734377Y9922791D01*
X728921Y9911882D01*
X723468Y9895519D01*
X723468Y9868247D01*
X728921Y9851882D01*
X734377Y9840973D01*
X745286Y9830064D01*
X756193Y9824610D01*
X778012Y9824610D01*
X788921Y9830064D01*
X799830Y9840973D01*
X805286Y9851882D01*
X874013Y9939154D02*
G01*
X863104Y9933701D01*
X852195Y9922791D01*
X846739Y9911882D01*
X841286Y9895519D01*
X841286Y9868247D01*
X846739Y9851882D01*
X852195Y9840973D01*
X863104Y9830064D01*
X874013Y9824610D01*
X895830Y9824610D01*
X906739Y9830064D01*
X917648Y9840973D01*
X923104Y9851882D01*
X928557Y9868247D01*
X928557Y9895519D01*
X923104Y9911882D01*
X917648Y9922791D01*
X906739Y9933701D01*
X895830Y9939154D01*
X874013Y9939154D01*
X964557Y9873701D02*
G01*
X1062738Y9873701D01*
X1098740Y9939154D02*
G01*
X1098740Y9824610D01*
X1098740Y9939154D02*
G01*
X1147831Y9939154D01*
X1164193Y9933701D01*
X1169649Y9928247D01*
X1175103Y9917338D01*
X1175103Y9906429D01*
X1169649Y9895519D01*
X1164193Y9890064D01*
X1147831Y9884610D01*
X1098740Y9884610D01*
X1136921Y9884610D02*
G01*
X1175103Y9824610D01*
X1211102Y9939154D02*
G01*
X1211102Y9824610D01*
X1211102Y9939154D02*
G01*
X1282011Y9939154D01*
X1211102Y9884610D02*
G01*
X1254739Y9884610D01*
X1211102Y9824610D02*
G01*
X1282011Y9824610D01*
X1394376Y9922791D02*
G01*
X1383466Y9933701D01*
X1367101Y9939154D01*
X1345285Y9939154D01*
X1328920Y9933701D01*
X1318011Y9922791D01*
X1318011Y9911882D01*
X1323467Y9900973D01*
X1328920Y9895519D01*
X1339829Y9890064D01*
X1372557Y9879154D01*
X1383466Y9873701D01*
X1388920Y9868247D01*
X1394376Y9857338D01*
X1394376Y9840973D01*
X1383466Y9830064D01*
X1367101Y9824610D01*
X1345285Y9824610D01*
X1328920Y9830064D01*
X1318011Y9840973D01*
X1468556Y9939154D02*
G01*
X1468556Y9824610D01*
X1430375Y9939154D02*
G01*
X1506738Y9939154D01*
X1575465Y9939154D02*
G01*
X1564556Y9933701D01*
X1553646Y9922791D01*
X1548193Y9911882D01*
X1542737Y9895519D01*
X1542737Y9868247D01*
X1548193Y9851882D01*
X1553646Y9840973D01*
X1564556Y9830064D01*
X1575465Y9824610D01*
X1597284Y9824610D01*
X1608193Y9830064D01*
X1619102Y9840973D01*
X1624556Y9851882D01*
X1630011Y9868247D01*
X1630011Y9895519D01*
X1624556Y9911882D01*
X1619102Y9922791D01*
X1608193Y9933701D01*
X1597284Y9939154D01*
X1575465Y9939154D01*
X1666011Y9939154D02*
G01*
X1666011Y9857338D01*
X1671464Y9840973D01*
X1682374Y9830064D01*
X1698739Y9824610D01*
X1709648Y9824610D01*
X1726011Y9830064D01*
X1736920Y9840973D01*
X1742373Y9857338D01*
X1742373Y9939154D01*
X1860191Y9911882D02*
G01*
X1854738Y9922791D01*
X1843829Y9933701D01*
X1832919Y9939154D01*
X1811101Y9939154D01*
X1800191Y9933701D01*
X1789282Y9922791D01*
X1783829Y9911882D01*
X1778373Y9895519D01*
X1778373Y9868247D01*
X1783829Y9851882D01*
X1789282Y9840973D01*
X1800191Y9830064D01*
X1811101Y9824610D01*
X1832919Y9824610D01*
X1843829Y9830064D01*
X1854738Y9840973D01*
X1860191Y9851882D01*
X1896191Y9939154D02*
G01*
X1896191Y9824610D01*
X1972556Y9939154D02*
G01*
X1972556Y9824610D01*
X1896191Y9884610D02*
G01*
X1972556Y9884610D01*
X2008555Y9873701D02*
G01*
X2106736Y9873701D01*
X2142736Y9939154D02*
G01*
X2142736Y9824610D01*
X2142736Y9824610D02*
G01*
X2208192Y9824610D01*
X2326010Y9911882D02*
G01*
X2320554Y9922791D01*
X2309647Y9933701D01*
X2298738Y9939154D01*
X2276919Y9939154D01*
X2266010Y9933701D01*
X2255100Y9922791D01*
X2249647Y9911882D01*
X2244191Y9895519D01*
X2244191Y9868247D01*
X2249647Y9851882D01*
X2255100Y9840973D01*
X2266010Y9830064D01*
X2276919Y9824610D01*
X2298738Y9824610D01*
X2309647Y9830064D01*
X2320554Y9840973D01*
X2326010Y9851882D01*
X2362009Y9939154D02*
G01*
X2362009Y9824610D01*
X2362009Y9939154D02*
G01*
X2400190Y9939154D01*
X2416556Y9933701D01*
X2427465Y9922791D01*
X2432918Y9911882D01*
X2438372Y9895519D01*
X2438372Y9868247D01*
X2432918Y9851882D01*
X2427465Y9840973D01*
X2416556Y9830064D01*
X2400190Y9824610D01*
X2362009Y9824610D01*
X2474374Y9873701D02*
G01*
X2572555Y9873701D01*
X2619463Y9939154D02*
G01*
X2679463Y9939154D01*
X2646735Y9895519D01*
X2663101Y9895519D01*
X2674010Y9890064D01*
X2679463Y9884610D01*
X2684917Y9868247D01*
X2684917Y9857338D01*
X2679463Y9840973D01*
X2668554Y9830064D01*
X2652191Y9824610D01*
X2635826Y9824610D01*
X2619463Y9830064D01*
X2614010Y9835520D01*
X2608554Y9846429D01*
X2726372Y9851882D02*
G01*
X2720919Y9846429D01*
X2726372Y9840973D01*
X2731828Y9846429D01*
X2726372Y9851882D01*
X2833281Y9939154D02*
G01*
X2778737Y9939154D01*
X2773281Y9890064D01*
X2778737Y9895519D01*
X2795099Y9900973D01*
X2811462Y9900973D01*
X2827827Y9895519D01*
X2838737Y9884610D01*
X2844190Y9868247D01*
X2844190Y9857338D01*
X2838737Y9840973D01*
X2827827Y9830064D01*
X2811462Y9824610D01*
X2795099Y9824610D01*
X2778737Y9830064D01*
X2773281Y9835520D01*
X2767827Y9846429D01*
X1231897Y5683747D02*
G01*
X1231897Y5569193D01*
X1231897Y5683747D02*
G01*
X1275585Y5569193D01*
X1319273Y5683747D02*
G01*
X1275585Y5569193D01*
X1319273Y5683747D02*
G01*
X1319273Y5569193D01*
X1453385Y5705591D02*
G01*
X1355087Y5530839D01*
X1489453Y5683747D02*
G01*
X1489453Y5569193D01*
X1489453Y5683747D02*
G01*
X1560319Y5683747D01*
X1489453Y5629137D02*
G01*
X1532887Y5629137D01*
X1489453Y5569193D02*
G01*
X1560319Y5569193D01*
X1718561Y5683747D02*
G01*
X1718561Y5569193D01*
X1680207Y5683747D02*
G01*
X1756661Y5683747D01*
X1792729Y5683747D02*
G01*
X1792729Y5569193D01*
X1792729Y5683747D02*
G01*
X1841751Y5683747D01*
X1858007Y5678159D01*
X1863595Y5672825D01*
X1868929Y5661903D01*
X1868929Y5650981D01*
X1863595Y5640059D01*
X1858007Y5634471D01*
X1841751Y5629137D01*
X1792729Y5629137D01*
X1830829Y5629137D02*
G01*
X1868929Y5569193D01*
X1948685Y5683747D02*
G01*
X1904997Y5569193D01*
X1948685Y5683747D02*
G01*
X1992373Y5569193D01*
X1921253Y5607293D02*
G01*
X1975863Y5607293D01*
X2028187Y5683747D02*
G01*
X2028187Y5569193D01*
X2028187Y5683747D02*
G01*
X2104641Y5569193D01*
X2104641Y5683747D02*
G01*
X2104641Y5569193D01*
X2216909Y5667237D02*
G01*
X2205987Y5678159D01*
X2189731Y5683747D01*
X2167887Y5683747D01*
X2151631Y5678159D01*
X2140709Y5667237D01*
X2140709Y5656315D01*
X2146043Y5645393D01*
X2151631Y5640059D01*
X2162553Y5634471D01*
X2195065Y5623803D01*
X2205987Y5618215D01*
X2211575Y5612881D01*
X2216909Y5601959D01*
X2216909Y5585449D01*
X2205987Y5574527D01*
X2189731Y5569193D01*
X2167887Y5569193D01*
X2151631Y5574527D01*
X2140709Y5585449D01*
X2252977Y5683747D02*
G01*
X2252977Y5569193D01*
X2327145Y5683747D02*
G01*
X2327145Y5569193D01*
X2289045Y5683747D02*
G01*
X2365245Y5683747D01*
X2401313Y5683747D02*
G01*
X2401313Y5569193D01*
X2470147Y5683747D02*
G01*
X2459225Y5678159D01*
X2448303Y5667237D01*
X2442715Y5656315D01*
X2437381Y5640059D01*
X2437381Y5612881D01*
X2442715Y5596371D01*
X2448303Y5585449D01*
X2459225Y5574527D01*
X2470147Y5569193D01*
X2491991Y5569193D01*
X2502913Y5574527D01*
X2513835Y5585449D01*
X2519169Y5596371D01*
X2524503Y5612881D01*
X2524503Y5640059D01*
X2519169Y5656315D01*
X2513835Y5667237D01*
X2502913Y5678159D01*
X2491991Y5683747D01*
X2470147Y5683747D01*
X2560571Y5683747D02*
G01*
X2560571Y5569193D01*
X2560571Y5683747D02*
G01*
X2637025Y5569193D01*
X2637025Y5683747D02*
G01*
X2637025Y5569193D01*
X2838701Y5656315D02*
G01*
X2833367Y5667237D01*
X2822445Y5678159D01*
X2811523Y5683747D01*
X2789679Y5683747D01*
X2778757Y5678159D01*
X2767835Y5667237D01*
X2762501Y5656315D01*
X2756913Y5640059D01*
X2756913Y5612881D01*
X2762501Y5596371D01*
X2767835Y5585449D01*
X2778757Y5574527D01*
X2789679Y5569193D01*
X2811523Y5569193D01*
X2822445Y5574527D01*
X2833367Y5585449D01*
X2838701Y5596371D01*
X2907535Y5683747D02*
G01*
X2896613Y5678159D01*
X2885691Y5667237D01*
X2880357Y5656315D01*
X2874769Y5640059D01*
X2874769Y5612881D01*
X2880357Y5596371D01*
X2885691Y5585449D01*
X2896613Y5574527D01*
X2907535Y5569193D01*
X2929379Y5569193D01*
X2940301Y5574527D01*
X2951223Y5585449D01*
X2956557Y5596371D01*
X2962145Y5612881D01*
X2962145Y5640059D01*
X2956557Y5656315D01*
X2951223Y5667237D01*
X2940301Y5678159D01*
X2929379Y5683747D01*
X2907535Y5683747D01*
X2997959Y5683747D02*
G01*
X2997959Y5569193D01*
X2997959Y5683747D02*
G01*
X3074413Y5569193D01*
X3074413Y5683747D02*
G01*
X3074413Y5569193D01*
X3148581Y5683747D02*
G01*
X3148581Y5569193D01*
X3110481Y5683747D02*
G01*
X3186681Y5683747D01*
X3222749Y5683747D02*
G01*
X3222749Y5569193D01*
X3222749Y5683747D02*
G01*
X3271771Y5683747D01*
X3288281Y5678159D01*
X3293615Y5672825D01*
X3299203Y5661903D01*
X3299203Y5650981D01*
X3293615Y5640059D01*
X3288281Y5634471D01*
X3271771Y5629137D01*
X3222749Y5629137D01*
X3261103Y5629137D02*
G01*
X3299203Y5569193D01*
X3367783Y5683747D02*
G01*
X3356861Y5678159D01*
X3346193Y5667237D01*
X3340605Y5656315D01*
X3335271Y5640059D01*
X3335271Y5612881D01*
X3340605Y5596371D01*
X3346193Y5585449D01*
X3356861Y5574527D01*
X3367783Y5569193D01*
X3389627Y5569193D01*
X3400549Y5574527D01*
X3411471Y5585449D01*
X3417059Y5596371D01*
X3422393Y5612881D01*
X3422393Y5640059D01*
X3417059Y5656315D01*
X3411471Y5667237D01*
X3400549Y5678159D01*
X3389627Y5683747D01*
X3367783Y5683747D01*
X3458461Y5683747D02*
G01*
X3458461Y5569193D01*
X3458461Y5569193D02*
G01*
X3523993Y5569193D01*
X3559807Y5683747D02*
G01*
X3559807Y5569193D01*
X3559807Y5569193D02*
G01*
X3625339Y5569193D01*
X3661407Y5683747D02*
G01*
X3661407Y5569193D01*
X3661407Y5683747D02*
G01*
X3732273Y5683747D01*
X3661407Y5629137D02*
G01*
X3705095Y5629137D01*
X3661407Y5569193D02*
G01*
X3732273Y5569193D01*
X3768341Y5683747D02*
G01*
X3768341Y5569193D01*
X3768341Y5683747D02*
G01*
X3817363Y5683747D01*
X3833619Y5678159D01*
X3839207Y5672825D01*
X3844541Y5661903D01*
X3844541Y5650981D01*
X3839207Y5640059D01*
X3833619Y5634471D01*
X3817363Y5629137D01*
X3768341Y5629137D01*
X3806441Y5629137D02*
G01*
X3844541Y5569193D01*
X3964683Y5683747D02*
G01*
X3964683Y5569193D01*
X3964683Y5683747D02*
G01*
X4035549Y5683747D01*
X3964683Y5629137D02*
G01*
X4008371Y5629137D01*
X3964683Y5569193D02*
G01*
X4035549Y5569193D01*
X4071617Y5683747D02*
G01*
X4147817Y5569193D01*
X4147817Y5683747D02*
G01*
X4071617Y5569193D01*
X4183885Y5683747D02*
G01*
X4183885Y5569193D01*
X4183885Y5683747D02*
G01*
X4232907Y5683747D01*
X4249417Y5678159D01*
X4254751Y5672825D01*
X4260339Y5661903D01*
X4260339Y5645393D01*
X4254751Y5634471D01*
X4249417Y5629137D01*
X4232907Y5623803D01*
X4183885Y5623803D01*
X4339841Y5683747D02*
G01*
X4296153Y5569193D01*
X4339841Y5683747D02*
G01*
X4383529Y5569193D01*
X4312663Y5607293D02*
G01*
X4367273Y5607293D01*
X4419597Y5683747D02*
G01*
X4419597Y5569193D01*
X4419597Y5683747D02*
G01*
X4495797Y5569193D01*
X4495797Y5683747D02*
G01*
X4495797Y5569193D01*
X4531865Y5683747D02*
G01*
X4531865Y5569193D01*
X4531865Y5683747D02*
G01*
X4569965Y5683747D01*
X4586475Y5678159D01*
X4597397Y5667237D01*
X4602731Y5656315D01*
X4608319Y5640059D01*
X4608319Y5612881D01*
X4602731Y5596371D01*
X4597397Y5585449D01*
X4586475Y5574527D01*
X4569965Y5569193D01*
X4531865Y5569193D01*
X4644133Y5683747D02*
G01*
X4644133Y5569193D01*
X4644133Y5683747D02*
G01*
X4715253Y5683747D01*
X4644133Y5629137D02*
G01*
X4687821Y5629137D01*
X4644133Y5569193D02*
G01*
X4715253Y5569193D01*
X4751067Y5683747D02*
G01*
X4751067Y5569193D01*
X4751067Y5683747D02*
G01*
X4800343Y5683747D01*
X4816599Y5678159D01*
X4822187Y5672825D01*
X4827521Y5661903D01*
X4827521Y5650981D01*
X4822187Y5640059D01*
X4816599Y5634471D01*
X4800343Y5629137D01*
X4751067Y5629137D01*
X4789421Y5629137D02*
G01*
X4827521Y5569193D01*
X1955800Y5175757D02*
G01*
X1955800Y5061204D01*
X1955800Y5175757D02*
G01*
X2004822Y5175757D01*
X2021331Y5170170D01*
X2026665Y5164836D01*
X2032254Y5153913D01*
X2032254Y5137404D01*
X2026665Y5126481D01*
X2021331Y5121147D01*
X2004822Y5115813D01*
X1955800Y5115813D01*
X2111756Y5175757D02*
G01*
X2068068Y5061204D01*
X2111756Y5175757D02*
G01*
X2155443Y5061204D01*
X2084577Y5099304D02*
G01*
X2139188Y5099304D01*
X2191511Y5175757D02*
G01*
X2191511Y5061204D01*
X2191511Y5175757D02*
G01*
X2240534Y5175757D01*
X2256790Y5170170D01*
X2262377Y5164836D01*
X2267711Y5153913D01*
X2267711Y5142992D01*
X2262377Y5132070D01*
X2256790Y5126481D01*
X2240534Y5121147D01*
X2191511Y5121147D01*
X2229611Y5121147D02*
G01*
X2267711Y5061204D01*
X2341879Y5175757D02*
G01*
X2341879Y5061204D01*
X2303779Y5175757D02*
G01*
X2380234Y5175757D01*
X2500122Y5175757D02*
G01*
X2500122Y5061204D01*
X2500122Y5175757D02*
G01*
X2576575Y5061204D01*
X2576575Y5175757D02*
G01*
X2576575Y5061204D01*
X2612643Y5175757D02*
G01*
X2612643Y5093970D01*
X2617977Y5077460D01*
X2628900Y5066537D01*
X2645156Y5061204D01*
X2656077Y5061204D01*
X2672588Y5066537D01*
X2683509Y5077460D01*
X2688843Y5093970D01*
X2688843Y5175757D01*
X2724911Y5175757D02*
G01*
X2724911Y5061204D01*
X2724911Y5175757D02*
G01*
X2768600Y5061204D01*
X2812288Y5175757D02*
G01*
X2768600Y5061204D01*
X2812288Y5175757D02*
G01*
X2812288Y5061204D01*
X2848102Y5175757D02*
G01*
X2848102Y5061204D01*
X2848102Y5175757D02*
G01*
X2897377Y5175757D01*
X2913634Y5170170D01*
X2918968Y5164836D01*
X2924556Y5153913D01*
X2924556Y5142992D01*
X2918968Y5132070D01*
X2913634Y5126481D01*
X2897377Y5121147D01*
X2848102Y5121147D02*
G01*
X2897377Y5121147D01*
X2913634Y5115813D01*
X2918968Y5110226D01*
X2924556Y5099304D01*
X2924556Y5083047D01*
X2918968Y5072126D01*
X2913634Y5066537D01*
X2897377Y5061204D01*
X2848102Y5061204D01*
X2960624Y5175757D02*
G01*
X2960624Y5061204D01*
X2960624Y5175757D02*
G01*
X3031490Y5175757D01*
X2960624Y5121147D02*
G01*
X3004058Y5121147D01*
X2960624Y5061204D02*
G01*
X3031490Y5061204D01*
X3067558Y5175757D02*
G01*
X3067558Y5061204D01*
X3067558Y5175757D02*
G01*
X3116579Y5175757D01*
X3132836Y5170170D01*
X3138424Y5164836D01*
X3143758Y5153913D01*
X3143758Y5142992D01*
X3138424Y5132070D01*
X3132836Y5126481D01*
X3116579Y5121147D01*
X3067558Y5121147D01*
X3105658Y5121147D02*
G01*
X3143758Y5061204D01*
X3269234Y5148326D02*
G01*
X3269234Y5153913D01*
X3274822Y5164836D01*
X3280156Y5170170D01*
X3291077Y5175757D01*
X3312922Y5175757D01*
X3323843Y5170170D01*
X3329177Y5164836D01*
X3334765Y5153913D01*
X3334765Y5142992D01*
X3329177Y5132070D01*
X3318256Y5115813D01*
X3263900Y5061204D01*
X3340100Y5061204D01*
X3403345Y5175757D02*
G01*
X3387090Y5170170D01*
X3381502Y5159247D01*
X3381502Y5148326D01*
X3387090Y5137404D01*
X3398011Y5132070D01*
X3419856Y5126481D01*
X3436111Y5121147D01*
X3447034Y5110226D01*
X3452622Y5099304D01*
X3452622Y5083047D01*
X3447034Y5072126D01*
X3441700Y5066537D01*
X3425190Y5061204D01*
X3403345Y5061204D01*
X3387090Y5066537D01*
X3381502Y5072126D01*
X3376168Y5083047D01*
X3376168Y5099304D01*
X3381502Y5110226D01*
X3392424Y5121147D01*
X3408934Y5126481D01*
X3430777Y5132070D01*
X3441700Y5137404D01*
X3447034Y5148326D01*
X3447034Y5159247D01*
X3441700Y5170170D01*
X3425190Y5175757D01*
X3403345Y5175757D01*
X3494024Y5148326D02*
G01*
X3494024Y5153913D01*
X3499358Y5164836D01*
X3504945Y5170170D01*
X3515868Y5175757D01*
X3537711Y5175757D01*
X3548634Y5170170D01*
X3553968Y5164836D01*
X3559556Y5153913D01*
X3559556Y5142992D01*
X3553968Y5132070D01*
X3543045Y5115813D01*
X3488436Y5061204D01*
X3564890Y5061204D01*
X3600958Y5153913D02*
G01*
X3611879Y5159247D01*
X3628136Y5175757D01*
X3628136Y5061204D01*
X3664204Y5110226D02*
G01*
X3762247Y5110226D01*
X3831081Y5175757D02*
G01*
X3814825Y5170170D01*
X3803904Y5153913D01*
X3798315Y5126481D01*
X3798315Y5110226D01*
X3803904Y5083047D01*
X3814825Y5066537D01*
X3831081Y5061204D01*
X3842004Y5061204D01*
X3858259Y5066537D01*
X3869181Y5083047D01*
X3874770Y5110226D01*
X3874770Y5126481D01*
X3869181Y5153913D01*
X3858259Y5170170D01*
X3842004Y5175757D01*
X3831081Y5175757D01*
X3916172Y5148326D02*
G01*
X3916172Y5153913D01*
X3921506Y5164836D01*
X3927093Y5170170D01*
X3938015Y5175757D01*
X3959859Y5175757D01*
X3970781Y5170170D01*
X3976115Y5164836D01*
X3981704Y5153913D01*
X3981704Y5142992D01*
X3976115Y5132070D01*
X3965193Y5115813D01*
X3910584Y5061204D01*
X3987038Y5061204D01*
X4055872Y5175757D02*
G01*
X4039361Y5170170D01*
X4028440Y5153913D01*
X4023106Y5126481D01*
X4023106Y5110226D01*
X4028440Y5083047D01*
X4039361Y5066537D01*
X4055872Y5061204D01*
X4066793Y5061204D01*
X4083050Y5066537D01*
X4093972Y5083047D01*
X4099306Y5110226D01*
X4099306Y5126481D01*
X4093972Y5153913D01*
X4083050Y5170170D01*
X4066793Y5175757D01*
X4055872Y5175757D01*
X4135374Y5153913D02*
G01*
X4146295Y5159247D01*
X4162806Y5175757D01*
X4162806Y5061204D01*
X1867154Y5413247D02*
G01*
X1856231Y5424170D01*
X1839721Y5429757D01*
X1817878Y5429757D01*
X1801621Y5424170D01*
X1790700Y5413247D01*
X1790700Y5402326D01*
X1796034Y5391404D01*
X1801621Y5386070D01*
X1812544Y5380481D01*
X1845310Y5369560D01*
X1856231Y5364226D01*
X1861565Y5358892D01*
X1867154Y5347970D01*
X1867154Y5331460D01*
X1856231Y5320537D01*
X1839721Y5315204D01*
X1817878Y5315204D01*
X1801621Y5320537D01*
X1790700Y5331460D01*
X1902968Y5429757D02*
G01*
X1902968Y5315204D01*
X1902968Y5429757D02*
G01*
X1952243Y5429757D01*
X1968500Y5424170D01*
X1974088Y5418836D01*
X1979422Y5407913D01*
X1979422Y5391404D01*
X1974088Y5380481D01*
X1968500Y5375147D01*
X1952243Y5369560D01*
X1902968Y5369560D01*
X2059177Y5429757D02*
G01*
X2015490Y5315204D01*
X2059177Y5429757D02*
G01*
X2102611Y5315204D01*
X2031745Y5353304D02*
G01*
X2086356Y5353304D01*
X2220468Y5402326D02*
G01*
X2215134Y5413247D01*
X2204211Y5424170D01*
X2193290Y5429757D01*
X2171445Y5429757D01*
X2160524Y5424170D01*
X2149602Y5413247D01*
X2144268Y5402326D01*
X2138679Y5386070D01*
X2138679Y5358892D01*
X2144268Y5342381D01*
X2149602Y5331460D01*
X2160524Y5320537D01*
X2171445Y5315204D01*
X2193290Y5315204D01*
X2204211Y5320537D01*
X2215134Y5331460D01*
X2220468Y5342381D01*
X2256536Y5429757D02*
G01*
X2256536Y5315204D01*
X2256536Y5429757D02*
G01*
X2327402Y5429757D01*
X2256536Y5375147D02*
G01*
X2300224Y5375147D01*
X2256536Y5315204D02*
G01*
X2327402Y5315204D01*
X2363470Y5429757D02*
G01*
X2363470Y5315204D01*
X2363470Y5429757D02*
G01*
X2412491Y5429757D01*
X2429002Y5424170D01*
X2434336Y5418836D01*
X2439670Y5407913D01*
X2439670Y5396992D01*
X2434336Y5386070D01*
X2429002Y5380481D01*
X2412491Y5375147D01*
X2363470Y5375147D01*
X2401570Y5375147D02*
G01*
X2439670Y5315204D01*
X2559811Y5429757D02*
G01*
X2559811Y5315204D01*
X2559811Y5429757D02*
G01*
X2608834Y5429757D01*
X2625343Y5424170D01*
X2630677Y5418836D01*
X2636265Y5407913D01*
X2636265Y5396992D01*
X2630677Y5386070D01*
X2625343Y5380481D01*
X2608834Y5375147D01*
X2559811Y5375147D02*
G01*
X2608834Y5375147D01*
X2625343Y5369560D01*
X2630677Y5364226D01*
X2636265Y5353304D01*
X2636265Y5337047D01*
X2630677Y5326126D01*
X2625343Y5320537D01*
X2608834Y5315204D01*
X2559811Y5315204D01*
X2704845Y5429757D02*
G01*
X2693924Y5424170D01*
X2683002Y5413247D01*
X2677668Y5402326D01*
X2672079Y5386070D01*
X2672079Y5358892D01*
X2677668Y5342381D01*
X2683002Y5331460D01*
X2693924Y5320537D01*
X2704845Y5315204D01*
X2726690Y5315204D01*
X2737611Y5320537D01*
X2748534Y5331460D01*
X2753868Y5342381D01*
X2759456Y5358892D01*
X2759456Y5386070D01*
X2753868Y5402326D01*
X2748534Y5413247D01*
X2737611Y5424170D01*
X2726690Y5429757D01*
X2704845Y5429757D01*
X2838958Y5429757D02*
G01*
X2795524Y5315204D01*
X2838958Y5429757D02*
G01*
X2882645Y5315204D01*
X2811779Y5353304D02*
G01*
X2866390Y5353304D01*
X2918713Y5429757D02*
G01*
X2918713Y5315204D01*
X2918713Y5429757D02*
G01*
X2967736Y5429757D01*
X2984245Y5424170D01*
X2989579Y5418836D01*
X2995168Y5407913D01*
X2995168Y5396992D01*
X2989579Y5386070D01*
X2984245Y5380481D01*
X2967736Y5375147D01*
X2918713Y5375147D01*
X2956813Y5375147D02*
G01*
X2995168Y5315204D01*
X3030981Y5429757D02*
G01*
X3030981Y5315204D01*
X3030981Y5429757D02*
G01*
X3069336Y5429757D01*
X3085591Y5424170D01*
X3096513Y5413247D01*
X3101847Y5402326D01*
X3107436Y5386070D01*
X3107436Y5358892D01*
X3101847Y5342381D01*
X3096513Y5331460D01*
X3085591Y5320537D01*
X3069336Y5315204D01*
X3030981Y5315204D01*
X3227324Y5429757D02*
G01*
X3271011Y5315204D01*
X3314700Y5429757D02*
G01*
X3271011Y5315204D01*
X3350768Y5407913D02*
G01*
X3361690Y5413247D01*
X3377945Y5429757D01*
X3377945Y5315204D01*
X3419347Y5342381D02*
G01*
X3414013Y5337047D01*
X3419347Y5331460D01*
X3424936Y5337047D01*
X3419347Y5342381D01*
X3460750Y5407913D02*
G01*
X3471672Y5413247D01*
X3488181Y5429757D01*
X3488181Y5315204D01*
X3608070Y5364226D02*
G01*
X3706368Y5364226D01*
X3826256Y5429757D02*
G01*
X3826256Y5315204D01*
X3826256Y5429757D02*
G01*
X3897122Y5429757D01*
X3826256Y5375147D02*
G01*
X3869943Y5375147D01*
X3933190Y5429757D02*
G01*
X3933190Y5315204D01*
X3933190Y5429757D02*
G01*
X3982211Y5429757D01*
X3998722Y5424170D01*
X4004056Y5418836D01*
X4009643Y5407913D01*
X4009643Y5396992D01*
X4004056Y5386070D01*
X3998722Y5380481D01*
X3982211Y5375147D01*
X3933190Y5375147D01*
X3971543Y5375147D02*
G01*
X4009643Y5315204D01*
X4078224Y5429757D02*
G01*
X4067302Y5424170D01*
X4056634Y5413247D01*
X4051045Y5402326D01*
X4045711Y5386070D01*
X4045711Y5358892D01*
X4051045Y5342381D01*
X4056634Y5331460D01*
X4067302Y5320537D01*
X4078224Y5315204D01*
X4100068Y5315204D01*
X4110990Y5320537D01*
X4121911Y5331460D01*
X4127500Y5342381D01*
X4132834Y5358892D01*
X4132834Y5386070D01*
X4127500Y5402326D01*
X4121911Y5413247D01*
X4110990Y5424170D01*
X4100068Y5429757D01*
X4078224Y5429757D01*
X4168902Y5429757D02*
G01*
X4168902Y5315204D01*
X4168902Y5429757D02*
G01*
X4245356Y5315204D01*
X4245356Y5429757D02*
G01*
X4245356Y5315204D01*
X4319524Y5429757D02*
G01*
X4319524Y5315204D01*
X4281170Y5429757D02*
G01*
X4357624Y5429757D01*
D12*
X510895Y10002799D02*
G01*
X5630875Y10002799D01*
X5630875Y2992399D01*
X510895Y2992399D01*
X510895Y10002799D01*
M02*
