G04 Layer: TopSolderMaskLayer*
G04 EasyEDA v6.5.29, 2023-07-18 10:21:49*
G04 75acb9ef74904ca4b51824f4bde05f2a,5a6b42c53f6a479593ecc07194224c93,10*
G04 Gerber Generator version 0.2*
G04 Scale: 100 percent, Rotated: No, Reflected: No *
G04 Dimensions in millimeters *
G04 leading zeros omitted , absolute positions ,4 integer and 5 decimal *
%FSLAX45Y45*%
%MOMM*%

%AMMACRO1*1,1,$1,$2,$3*1,1,$1,$4,$5*1,1,$1,0-$2,0-$3*1,1,$1,0-$4,0-$5*20,1,$1,$2,$3,$4,$5,0*20,1,$1,$4,$5,0-$2,0-$3,0*20,1,$1,0-$2,0-$3,0-$4,0-$5,0*20,1,$1,0-$4,0-$5,$2,$3,0*4,1,4,$2,$3,$4,$5,0-$2,0-$3,0-$4,0-$5,$2,$3,0*%
%ADD10MACRO1,0.1016X0.9X0.9X-0.9X0.9*%
%ADD11C,1.9016*%
%ADD12MACRO1,0.1016X0.9X-0.85X-0.9X-0.85*%
%ADD13MACRO1,0.1016X-0.8X-0.8X0.8X-0.8*%
%ADD14C,1.7016*%
%ADD15MACRO1,0.1016X0.9X-0.9X-0.9X-0.9*%
%ADD16MACRO1,0.1016X-0.9X-0.9X-0.9X0.9*%
%ADD17C,5.2032*%
%ADD18C,1.8016*%

%LPD*%
D10*
G01*
X4013194Y8775682D03*
D11*
G01*
X4013200Y9029674D03*
G01*
X3759200Y8775674D03*
G01*
X3759200Y9029674D03*
G01*
X3505200Y8775674D03*
G01*
X3505200Y9029674D03*
G01*
X3251200Y8775674D03*
G01*
X3251200Y9029674D03*
G01*
X2997200Y8775674D03*
G01*
X2997200Y9029674D03*
G01*
X2743200Y8775674D03*
G01*
X2743200Y9029674D03*
G01*
X2489200Y8775674D03*
G01*
X2489200Y9029674D03*
G01*
X2235200Y8775674D03*
G01*
X2235200Y9029674D03*
G01*
X3937000Y1651000D03*
D12*
G01*
X3174989Y1650996D03*
D11*
G01*
X3429000Y1651000D03*
G01*
X3683000Y1651000D03*
D13*
G01*
X5799089Y1752597D03*
D14*
G01*
X5599074Y1752600D03*
G01*
X5399074Y1752600D03*
G01*
X5199075Y1752600D03*
D11*
G01*
X660400Y8077200D03*
D15*
G01*
X5486401Y8077202D03*
D11*
G01*
X5232400Y8077200D03*
G01*
X4978400Y8077200D03*
G01*
X4724400Y8077200D03*
G01*
X4470400Y8077200D03*
G01*
X4216400Y8077200D03*
G01*
X3962400Y8077200D03*
G01*
X3708400Y8077200D03*
G01*
X3454400Y8077200D03*
G01*
X3200400Y8077200D03*
G01*
X2946400Y8077200D03*
G01*
X2692400Y8077200D03*
G01*
X2438400Y8077200D03*
G01*
X2184400Y8077200D03*
G01*
X1930400Y8077200D03*
G01*
X1676400Y8077200D03*
G01*
X1422400Y8077200D03*
G01*
X1168400Y8077200D03*
G01*
X914400Y8077200D03*
G01*
X660400Y6324600D03*
D15*
G01*
X5486402Y6324605D03*
D11*
G01*
X5232400Y6324600D03*
G01*
X4978400Y6324600D03*
G01*
X4724400Y6324600D03*
G01*
X4470400Y6324600D03*
G01*
X4216400Y6324600D03*
G01*
X3962400Y6324600D03*
G01*
X3708400Y6324600D03*
G01*
X3454400Y6324600D03*
G01*
X3200400Y6324600D03*
G01*
X2946400Y6324600D03*
G01*
X2692400Y6324600D03*
G01*
X2438400Y6324600D03*
G01*
X2184400Y6324600D03*
G01*
X1930400Y6324600D03*
G01*
X1676400Y6324600D03*
G01*
X1422400Y6324600D03*
G01*
X1168400Y6324600D03*
G01*
X914400Y6324600D03*
G01*
X5939993Y7284186D03*
D16*
G01*
X5939984Y2458184D03*
D11*
G01*
X5939993Y2712186D03*
G01*
X5939993Y2966186D03*
G01*
X5939993Y3220186D03*
G01*
X5939993Y3474186D03*
G01*
X5939993Y3728186D03*
G01*
X5939993Y3982186D03*
G01*
X5939993Y4236186D03*
G01*
X5939993Y4490186D03*
G01*
X5939993Y4744186D03*
G01*
X5939993Y4998186D03*
G01*
X5939993Y5252186D03*
G01*
X5939993Y5506186D03*
G01*
X5939993Y5760186D03*
G01*
X5939993Y6014186D03*
G01*
X5939993Y6268186D03*
G01*
X5939993Y6522186D03*
G01*
X5939993Y6776186D03*
G01*
X5939993Y7030186D03*
D17*
G01*
X999693Y2699486D03*
G01*
X999693Y8890000D03*
G01*
X5294299Y8890000D03*
G01*
X5294299Y2699486D03*
D18*
G01*
X5079974Y4445000D03*
G01*
X5079974Y3937000D03*
G01*
X5079974Y4191000D03*
G01*
X5079974Y5080000D03*
G01*
X4825974Y5080000D03*
G01*
X4571974Y5080000D03*
G01*
X4317974Y5080000D03*
G01*
X4063974Y5080000D03*
G01*
X3809974Y5080000D03*
G01*
X3555974Y5080000D03*
G01*
X3301974Y5080000D03*
G01*
X3047974Y5080000D03*
G01*
X2793974Y5080000D03*
G01*
X2539974Y5080000D03*
G01*
X2285974Y5080000D03*
G01*
X2031974Y5080000D03*
G01*
X1778000Y5080000D03*
G01*
X1524000Y5080000D03*
G01*
X1270000Y5080000D03*
G01*
X1016000Y5080000D03*
G01*
X762000Y5080000D03*
G01*
X508000Y5080000D03*
G01*
X5079974Y3302000D03*
G01*
X4825974Y3302000D03*
G01*
X4571974Y3302000D03*
G01*
X4317974Y3302000D03*
G01*
X4063974Y3302000D03*
G01*
X3809974Y3302000D03*
G01*
X3555974Y3302000D03*
G01*
X3301974Y3302000D03*
G01*
X3047974Y3302000D03*
G01*
X2793974Y3302000D03*
G01*
X2539974Y3302000D03*
G01*
X2285974Y3302000D03*
G01*
X2031974Y3302000D03*
G01*
X1778000Y3302000D03*
G01*
X1524000Y3302000D03*
G01*
X1270000Y3302000D03*
G01*
X1016000Y3302000D03*
G01*
X762000Y3302000D03*
G01*
X508000Y3302000D03*
G01*
X254000Y5080000D03*
G01*
X254000Y3302000D03*
G01*
X4445000Y1651000D03*
G01*
X4191000Y1651000D03*
M02*
