G04 Layer: BoardOutlineLayer*
G04 EasyEDA v6.5.29, 2023-07-18 11:19:17*
G04 5f2044cace3448bf888c74a195837e88,5a6b42c53f6a479593ecc07194224c93,10*
G04 Gerber Generator version 0.2*
G04 Scale: 100 percent, Rotated: No, Reflected: No *
G04 Dimensions in millimeters *
G04 leading zeros omitted , absolute positions ,4 integer and 5 decimal *
%FSLAX45Y45*%
%MOMM*%

%ADD10C,0.2540*%
D10*
X0Y12852400D02*
G01*
X14236700Y12852400D01*
X14224000Y-12700D01*
X0Y0D01*
X0Y12852400D01*
X2603500Y10782300D02*
G01*
X2603500Y3187700D01*
X2603500Y3187700D02*
G01*
X10172700Y3187700D01*
X10172700Y3187700D02*
G01*
X10172700Y10782300D01*
X10172700Y10782300D02*
G01*
X2603500Y10782300D01*
G75*
G01*
X12035206Y9263680D02*
G02*
X12780604Y9263680I372699J0D01*
G75*
G01*
X12780604Y9263680D02*
G02*
X12035206Y9263680I-372699J0D01*
X12035205Y9263679D02*
G01*
X12035205Y9263679D01*
G75*
G01*
X12039600Y6972300D02*
G02*
X12784999Y6972300I372699J0D01*
G75*
G01*
X12784999Y6972300D02*
G02*
X12039600Y6972300I-372700J0D01*
X12039600Y6972300D02*
G01*
X12039600Y6972300D01*
G75*
G01*
X12035208Y4693623D02*
G02*
X12780607Y4693623I372700J0D01*
G75*
G01*
X12780607Y4693623D02*
G02*
X12035208Y4693623I-372699J0D01*
X12035208Y4693622D02*
G01*
X12035208Y4693622D01*
X622300Y5207000D02*
G01*
X622300Y4186999D01*
X622300Y4186999D02*
G01*
X1642300Y4186999D01*
X1642300Y4186999D02*
G01*
X1642300Y5207000D01*
X1642300Y5207000D02*
G01*
X622300Y5207000D01*
X622300Y7480300D02*
G01*
X622300Y6460299D01*
X622300Y6460299D02*
G01*
X1642300Y6460299D01*
X1642300Y6460299D02*
G01*
X1642300Y7480300D01*
X1642300Y7480300D02*
G01*
X622300Y7480300D01*
X622300Y9766300D02*
G01*
X622300Y8746299D01*
X622300Y8746299D02*
G01*
X1642300Y8746299D01*
X1642300Y8746299D02*
G01*
X1642300Y9766300D01*
X1642300Y9766300D02*
G01*
X622300Y9766300D01*

%LPD*%
M02*
