M48
METRIC,LZ,000.000
;FILE_FORMAT=3:3
;TYPE=PLATED
;Layer: PTH_Through_Via
;EasyEDA v6.5.29, 2023-07-18 10:21:49
;75acb9ef74904ca4b51824f4bde05f2a,5a6b42c53f6a479593ecc07194224c93,10
;Gerber Generator version 0.2
;Holesize 1 = 0.305 mm
T01C0.305
%
G05
G90
T01
X025400Y027559
X053975Y020320
X055880Y019685
X014097Y013843
X039370Y013843
X029210Y021971
X029210Y013843
X029210Y024003
X034290Y021971
X036830Y024003
X048260Y024003
X049276Y021971
X041910Y039370
X044450Y044450
X041912Y027552
X044452Y025652
X028194Y078740
X032004Y078740
X030734Y077470
X034544Y077470
X038354Y077470
X042164Y077470
X014097Y028575
X015240Y027051
X014097Y022733
X031750Y026924
X031750Y019685
X032385Y020320
X032385Y027559
X011811Y013843
X011811Y016383
X005080Y013843
X036830Y025659
X034290Y027559
X050673Y013843
X050673Y023368
X017780Y035560
X043180Y037211
X038100Y049276
X015494Y071882
X012954Y075057
X010414Y078105
X002540Y068199
X005080Y066548
X024130Y057912
X017780Y059563
X022860Y056261
X025400Y054610
X040640Y045974
X053848Y034925
X053848Y041148
X043180Y034925
X003810Y034798
X008890Y034417
X007620Y049276
X003810Y049276
X007620Y035560
X003810Y083566
X027432Y083566
X048514Y085471
X022352Y085471
X051054Y084836
X024892Y084836
X033274Y083566
X054864Y083566
X044196Y088834
X044196Y084836
X045212Y086934
X045212Y085471
X040640Y047625
X053848Y048514
X053848Y050927
X035560Y049403
X056007Y024892
X057150Y073279
X003810Y020218
X025654Y082423
X039624Y082423
X030480Y048260
X026670Y048260
M30
