G04 Layer: BottomPasteMaskLayer*
G04 EasyEDA v6.5.29, 2023-07-18 10:21:49*
G04 75acb9ef74904ca4b51824f4bde05f2a,5a6b42c53f6a479593ecc07194224c93,10*
G04 Gerber Generator version 0.2*
G04 Scale: 100 percent, Rotated: No, Reflected: No *
G04 Dimensions in millimeters *
G04 leading zeros omitted , absolute positions ,4 integer and 5 decimal *
%FSLAX45Y45*%
%MOMM*%

%AMMACRO1*21,1,$1,$2,0,0,$3*%
%ADD10MACRO1,1X0.55X0.0000*%
%ADD11MACRO1,1X0.8999X-90.0000*%
%ADD12MACRO1,2.592X2.2074X90.0000*%
%ADD13MACRO1,2.592X2.2075X90.0000*%
%ADD14MACRO1,0.9501X1.15X0.0000*%
%ADD15MACRO1,0.532X1.0375X0.0000*%
%ADD16MACRO1,1X1.1X0.0000*%
%ADD17MACRO1,1X1.1X90.0000*%
%ADD18MACRO1,1.25X0.7X0.0000*%

%LPD*%
G36*
X1166723Y1961134D02*
G01*
X1128217Y1914347D01*
X1128217Y1870252D01*
X1166723Y1823466D01*
X1235456Y1823466D01*
X1245463Y1833422D01*
X1245463Y1951126D01*
X1235456Y1961134D01*
G37*
G36*
X948944Y1961134D02*
G01*
X938936Y1951126D01*
X938936Y1833422D01*
X948944Y1823466D01*
X1017676Y1823466D01*
X1056182Y1870252D01*
X1056182Y1914347D01*
X1017676Y1961134D01*
G37*
G36*
X709218Y1940255D02*
G01*
X699211Y1930247D01*
X699211Y1834794D01*
X709218Y1824786D01*
X737006Y1824786D01*
X747014Y1814779D01*
X747014Y1715820D01*
X737006Y1705813D01*
X709218Y1705813D01*
X699211Y1695805D01*
X699211Y1600352D01*
X709218Y1590344D01*
X829868Y1590344D01*
X839876Y1600352D01*
X839876Y1930247D01*
X829868Y1940255D01*
G37*
G36*
X338531Y1940255D02*
G01*
X328523Y1930247D01*
X328523Y1600352D01*
X338531Y1590344D01*
X459181Y1590344D01*
X469188Y1600352D01*
X469188Y1695805D01*
X459181Y1705813D01*
X431393Y1705813D01*
X421385Y1715820D01*
X421385Y1814779D01*
X431393Y1824786D01*
X459181Y1824786D01*
X469188Y1834794D01*
X469188Y1930247D01*
X459181Y1940255D01*
G37*
G36*
X2433218Y1683308D02*
G01*
X2428189Y1678279D01*
X2428189Y1598320D01*
X2433218Y1593291D01*
X2513177Y1593291D01*
X2518206Y1598320D01*
X2518206Y1622501D01*
X2481224Y1622501D01*
X2481224Y1655521D01*
X2518206Y1655521D01*
X2518206Y1678279D01*
X2513177Y1683308D01*
G37*
G36*
X2593187Y1683308D02*
G01*
X2588209Y1678279D01*
X2588209Y1655521D01*
X2626207Y1655521D01*
X2626207Y1622501D01*
X2588209Y1622501D01*
X2588209Y1598320D01*
X2593187Y1593291D01*
X2672181Y1593291D01*
X2677210Y1598320D01*
X2677210Y1678279D01*
X2672181Y1683308D01*
G37*
G36*
X2433218Y2191308D02*
G01*
X2428189Y2186330D01*
X2428189Y2106320D01*
X2433218Y2101291D01*
X2513228Y2101291D01*
X2518206Y2106320D01*
X2518206Y2130501D01*
X2481224Y2130501D01*
X2481224Y2163521D01*
X2518206Y2163521D01*
X2518206Y2186330D01*
X2513228Y2191308D01*
G37*
G36*
X2593187Y2191308D02*
G01*
X2588209Y2186330D01*
X2588209Y2163521D01*
X2626207Y2163521D01*
X2626207Y2130501D01*
X2588209Y2130501D01*
X2588209Y2106320D01*
X2593187Y2101291D01*
X2672181Y2101291D01*
X2677210Y2106320D01*
X2677210Y2186330D01*
X2672181Y2191308D01*
G37*
D10*
G01*
X4927892Y8693378D03*
G01*
X4927892Y8788374D03*
G01*
X4927892Y8883370D03*
G01*
X4647882Y8883370D03*
G01*
X4647882Y8788374D03*
G01*
X4647882Y8693378D03*
G01*
X3822997Y2565897D03*
G01*
X3822997Y2660893D03*
G01*
X3822997Y2755889D03*
G01*
X3542990Y2755889D03*
G01*
X3542990Y2660893D03*
G01*
X3542990Y2565897D03*
G01*
X4597895Y2565184D03*
G01*
X4597895Y2660180D03*
G01*
X4597895Y2755176D03*
G01*
X4317885Y2755176D03*
G01*
X4317885Y2660180D03*
G01*
X4317885Y2565184D03*
D11*
G01*
X2467690Y1892305D03*
G01*
X2637689Y1892305D03*
D12*
G01*
X1566575Y1765297D03*
D13*
G01*
X2268823Y1765297D03*
D14*
G01*
X1324938Y1638297D03*
G01*
X986458Y1638297D03*
D13*
G01*
X2268835Y2273315D03*
D12*
G01*
X1566588Y2273315D03*
D11*
G01*
X2467702Y2400322D03*
G01*
X2637702Y2400322D03*
D15*
G01*
X5791187Y7586059D03*
G01*
X5696187Y7806310D03*
G01*
X5886187Y7806310D03*
G01*
X5499089Y7281259D03*
G01*
X5404090Y7501510D03*
G01*
X5594089Y7501510D03*
G01*
X5206989Y6963759D03*
G01*
X5111990Y7184010D03*
G01*
X5301989Y7184010D03*
D16*
G01*
X5667997Y5956287D03*
G01*
X5507997Y5956287D03*
G01*
X5667997Y5791187D03*
G01*
X5507997Y5791187D03*
G01*
X5667997Y5092689D03*
G01*
X5507997Y5092689D03*
G01*
X5667997Y5460989D03*
G01*
X5507997Y5460989D03*
G01*
X5667997Y4927589D03*
G01*
X5507997Y4927589D03*
G01*
X5667997Y4762489D03*
G01*
X5507997Y4762489D03*
G01*
X5667997Y4114792D03*
G01*
X5507997Y4114792D03*
G01*
X5667997Y4597389D03*
G01*
X5507997Y4597389D03*
G01*
X5667997Y3721092D03*
G01*
X5507997Y3721092D03*
G01*
X4880597Y7188184D03*
G01*
X4720597Y7188184D03*
G01*
X4880597Y7505684D03*
G01*
X4720597Y7505684D03*
G01*
X4880597Y7810484D03*
G01*
X4720597Y7810484D03*
G01*
X5667997Y6819887D03*
G01*
X5507997Y6819887D03*
G01*
X5667997Y6654787D03*
G01*
X5507997Y6654787D03*
G01*
X5667997Y5626089D03*
G01*
X5507997Y5626089D03*
G01*
X5507982Y3060694D03*
G01*
X5667982Y3060694D03*
G01*
X5507982Y3225792D03*
G01*
X5667982Y3225792D03*
G01*
X5507982Y3390892D03*
G01*
X5667982Y3390892D03*
G01*
X5507982Y3555992D03*
G01*
X5667982Y3555992D03*
G01*
X5667997Y2336794D03*
G01*
X5507997Y2336794D03*
G01*
X5667997Y2171694D03*
G01*
X5507997Y2171694D03*
G01*
X3229602Y2400297D03*
G01*
X3069602Y2400297D03*
G01*
X3229602Y2197097D03*
G01*
X3069602Y2197097D03*
D17*
G01*
X1676397Y2861302D03*
G01*
X1676397Y2701302D03*
D18*
G01*
X1893895Y2698998D03*
G01*
X1893895Y2888989D03*
G01*
X2093894Y2793993D03*
M02*
