M48
METRIC,LZ,000.000
;FILE_FORMAT=3:3
;TYPE=PLATED
;Layer: PTH_Through_Via
;EasyEDA v6.5.29, 2023-07-18 10:57:26
;0569b9fd0f0c4a709173e771a03f3b8e,5a6b42c53f6a479593ecc07194224c93,10
;Gerber Generator version 0.2
;Holesize 1 = 0.305 mm
T01C0.305
%
G05
G90
T01
X036195Y067987
X036195Y039920
X036195Y042079
X036195Y044238
X036195Y046397
X036195Y048556
X036195Y050715
X036195Y052874
X036195Y055033
X036195Y057192
X036195Y059351
X036195Y061510
X036195Y063669
X036195Y065828
X036195Y098213
X036195Y096054
X036195Y093895
X036195Y091736
X036195Y089577
X036195Y087418
X036195Y085259
X036195Y083100
X036195Y080941
X036195Y078782
X036195Y076623
X036195Y074464
X036195Y072305
X036195Y100372
X036195Y070146
X036195Y102531
X036195Y104690
X036195Y106849
X041148Y059309
X041148Y057150
X041148Y054991
X041148Y052832
X041148Y050673
X041148Y048514
X041148Y046355
X041148Y044196
X041148Y042037
X041148Y039878
X041148Y061468
X041148Y089535
X041148Y087376
X041148Y085217
X041148Y083058
X041148Y080899
X041148Y078740
X041148Y076581
X041148Y074422
X041148Y072263
X041148Y070104
X041148Y067945
X041148Y065786
X041148Y063627
X041148Y091694
X041148Y093853
X041148Y096012
X041148Y098171
X041148Y100330
X041148Y102489
X041148Y104648
X041148Y106807
X031115Y106849
X041148Y038735
X041148Y111675
X036195Y111675
X074422Y067987
X074422Y039920
X074422Y042079
X074422Y044238
X074422Y046397
X074422Y048556
X074422Y050715
X074422Y052874
X074422Y055033
X074422Y057192
X074422Y059351
X074422Y061510
X074422Y063669
X074422Y065828
X074422Y098213
X074422Y096054
X074422Y093895
X074422Y091736
X074422Y089577
X074422Y087418
X074422Y085259
X074422Y083100
X074422Y080941
X074422Y078782
X074422Y076623
X074422Y074464
X074422Y072305
X074422Y100372
X074422Y070146
X074422Y102531
X074422Y104690
X074422Y106849
X079375Y059309
X079375Y057150
X079375Y054991
X079375Y052832
X079375Y050673
X079375Y048514
X079375Y046355
X079375Y044196
X079375Y042037
X079375Y039878
X079375Y061468
X079375Y089535
X079375Y087376
X079375Y085217
X079375Y083058
X079375Y080899
X079375Y078740
X079375Y076581
X079375Y074422
X079375Y072263
X079375Y070104
X079375Y067945
X079375Y065786
X079375Y063627
X079375Y091694
X079375Y093853
X079375Y096012
X079375Y098171
X079375Y100330
X079375Y102489
X079375Y104648
X079375Y106807
X069342Y106849
X079375Y038735
X079375Y111675
X074422Y111675
X017018Y067987
X017018Y039920
X017018Y042079
X017018Y044238
X017018Y046397
X017018Y048556
X017018Y050715
X017018Y052874
X017018Y055033
X017018Y057192
X017018Y059351
X017018Y061510
X017018Y063669
X017018Y065828
X017018Y098213
X017018Y096054
X017018Y093895
X017018Y091736
X017018Y089577
X017018Y087418
X017018Y085259
X017018Y083100
X017018Y080941
X017018Y078782
X017018Y076623
X017018Y074464
X017018Y072305
X017018Y100372
X017018Y070146
X017018Y102531
X017018Y104690
X017018Y106849
X021971Y059309
X021971Y057150
X021971Y054991
X021971Y052832
X021971Y050673
X021971Y048514
X021971Y046355
X021971Y044196
X021971Y042037
X021971Y039878
X021971Y061468
X021971Y089535
X021971Y087376
X021971Y085217
X021971Y083058
X021971Y080899
X021971Y078740
X021971Y076581
X021971Y074422
X021971Y072263
X021971Y070104
X021971Y067945
X021971Y065786
X021971Y063627
X021971Y091694
X021971Y093853
X021971Y096012
X021971Y098171
X021971Y100330
X021971Y102489
X021971Y104648
X021971Y106807
X011938Y106849
X021971Y038735
X021971Y111675
X017018Y111675
X015367Y037973
X034544Y037973
X072771Y037973
M30
