G04 Layer: BottomSilkscreenLayer*
G04 EasyEDA v6.5.29, 2023-07-18 11:38:57*
G04 be89d959f12a418793a534216dc81482,5a6b42c53f6a479593ecc07194224c93,10*
G04 Gerber Generator version 0.2*
G04 Scale: 100 percent, Rotated: No, Reflected: No *
G04 Dimensions in millimeters *
G04 leading zeros omitted , absolute positions ,4 integer and 5 decimal *
%FSLAX45Y45*%
%MOMM*%

%ADD10C,0.2032*%
%ADD11C,0.1524*%
%ADD12C,0.2540*%

%LPD*%
D10*
X3949700Y11843189D02*
G01*
X3949700Y11728645D01*
X3949700Y11843189D02*
G01*
X3906062Y11728645D01*
X3862428Y11843189D02*
G01*
X3906062Y11728645D01*
X3862428Y11843189D02*
G01*
X3862428Y11728645D01*
X3728245Y11865008D02*
G01*
X3826428Y11690464D01*
X3692245Y11843189D02*
G01*
X3692245Y11728645D01*
X3692245Y11843189D02*
G01*
X3621336Y11843189D01*
X3692245Y11788645D02*
G01*
X3648610Y11788645D01*
X3692245Y11728645D02*
G01*
X3621336Y11728645D01*
X3501336Y11843189D02*
G01*
X3501336Y11728645D01*
X3501336Y11843189D02*
G01*
X3452246Y11843189D01*
X3435883Y11837736D01*
X3430427Y11832282D01*
X3424974Y11821373D01*
X3424974Y11805008D01*
X3430427Y11794098D01*
X3435883Y11788645D01*
X3452246Y11783189D01*
X3501336Y11783189D01*
X3356246Y11843189D02*
G01*
X3367156Y11837736D01*
X3378065Y11826826D01*
X3383518Y11815917D01*
X3388974Y11799554D01*
X3388974Y11772282D01*
X3383518Y11755917D01*
X3378065Y11745008D01*
X3367156Y11734098D01*
X3356246Y11728645D01*
X3334428Y11728645D01*
X3323518Y11734098D01*
X3312609Y11745008D01*
X3307156Y11755917D01*
X3301700Y11772282D01*
X3301700Y11799554D01*
X3307156Y11815917D01*
X3312609Y11826826D01*
X3323518Y11837736D01*
X3334428Y11843189D01*
X3356246Y11843189D01*
X3265700Y11843189D02*
G01*
X3238428Y11728645D01*
X3211156Y11843189D02*
G01*
X3238428Y11728645D01*
X3211156Y11843189D02*
G01*
X3183882Y11728645D01*
X3156610Y11843189D02*
G01*
X3183882Y11728645D01*
X3120610Y11843189D02*
G01*
X3120610Y11728645D01*
X3120610Y11843189D02*
G01*
X3049701Y11843189D01*
X3120610Y11788645D02*
G01*
X3076973Y11788645D01*
X3120610Y11728645D02*
G01*
X3049701Y11728645D01*
X3013702Y11843189D02*
G01*
X3013702Y11728645D01*
X3013702Y11843189D02*
G01*
X2964611Y11843189D01*
X2948246Y11837736D01*
X2942793Y11832282D01*
X2937337Y11821373D01*
X2937337Y11810464D01*
X2942793Y11799554D01*
X2948246Y11794098D01*
X2964611Y11788645D01*
X3013702Y11788645D01*
X2975521Y11788645D02*
G01*
X2937337Y11728645D01*
X2735521Y11815917D02*
G01*
X2740974Y11826826D01*
X2751884Y11837736D01*
X2762793Y11843189D01*
X2784612Y11843189D01*
X2795521Y11837736D01*
X2806430Y11826826D01*
X2811884Y11815917D01*
X2817337Y11799554D01*
X2817337Y11772282D01*
X2811884Y11755917D01*
X2806430Y11745008D01*
X2795521Y11734098D01*
X2784612Y11728645D01*
X2762793Y11728645D01*
X2751884Y11734098D01*
X2740974Y11745008D01*
X2735521Y11755917D01*
X2666794Y11843189D02*
G01*
X2677703Y11837736D01*
X2688612Y11826826D01*
X2694066Y11815917D01*
X2699519Y11799554D01*
X2699519Y11772282D01*
X2694066Y11755917D01*
X2688612Y11745008D01*
X2677703Y11734098D01*
X2666794Y11728645D01*
X2644975Y11728645D01*
X2634066Y11734098D01*
X2623157Y11745008D01*
X2617703Y11755917D01*
X2612247Y11772282D01*
X2612247Y11799554D01*
X2617703Y11815917D01*
X2623157Y11826826D01*
X2634066Y11837736D01*
X2644975Y11843189D01*
X2666794Y11843189D01*
X2576248Y11843189D02*
G01*
X2576248Y11728645D01*
X2576248Y11843189D02*
G01*
X2499885Y11728645D01*
X2499885Y11843189D02*
G01*
X2499885Y11728645D01*
X2463883Y11843189D02*
G01*
X2463883Y11728645D01*
X2463883Y11843189D02*
G01*
X2387521Y11728645D01*
X2387521Y11843189D02*
G01*
X2387521Y11728645D01*
X2351521Y11843189D02*
G01*
X2351521Y11728645D01*
X2351521Y11843189D02*
G01*
X2280612Y11843189D01*
X2351521Y11788645D02*
G01*
X2307884Y11788645D01*
X2351521Y11728645D02*
G01*
X2280612Y11728645D01*
X2162794Y11815917D02*
G01*
X2168248Y11826826D01*
X2179157Y11837736D01*
X2190066Y11843189D01*
X2211885Y11843189D01*
X2222794Y11837736D01*
X2233703Y11826826D01*
X2239157Y11815917D01*
X2244613Y11799554D01*
X2244613Y11772282D01*
X2239157Y11755917D01*
X2233703Y11745008D01*
X2222794Y11734098D01*
X2211885Y11728645D01*
X2190066Y11728645D01*
X2179157Y11734098D01*
X2168248Y11745008D01*
X2162794Y11755917D01*
X2088614Y11843189D02*
G01*
X2088614Y11728645D01*
X2126795Y11843189D02*
G01*
X2050430Y11843189D01*
X1981702Y11843189D02*
G01*
X1992612Y11837736D01*
X2003521Y11826826D01*
X2008977Y11815917D01*
X2014430Y11799554D01*
X2014430Y11772282D01*
X2008977Y11755917D01*
X2003521Y11745008D01*
X1992612Y11734098D01*
X1981702Y11728645D01*
X1959886Y11728645D01*
X1948977Y11734098D01*
X1938068Y11745008D01*
X1932612Y11755917D01*
X1927158Y11772282D01*
X1927158Y11799554D01*
X1932612Y11815917D01*
X1938068Y11826826D01*
X1948977Y11837736D01*
X1959886Y11843189D01*
X1981702Y11843189D01*
X1891159Y11843189D02*
G01*
X1891159Y11728645D01*
X1891159Y11843189D02*
G01*
X1842068Y11843189D01*
X1825703Y11837736D01*
X1820250Y11832282D01*
X1814794Y11821373D01*
X1814794Y11810464D01*
X1820250Y11799554D01*
X1825703Y11794098D01*
X1842068Y11788645D01*
X1891159Y11788645D01*
X1852975Y11788645D02*
G01*
X1814794Y11728645D01*
X1694794Y11843189D02*
G01*
X1694794Y11728645D01*
X1694794Y11843189D02*
G01*
X1645704Y11843189D01*
X1629341Y11837736D01*
X1623885Y11832282D01*
X1618432Y11821373D01*
X1618432Y11810464D01*
X1623885Y11799554D01*
X1629341Y11794098D01*
X1645704Y11788645D01*
X1694794Y11788645D02*
G01*
X1645704Y11788645D01*
X1629341Y11783189D01*
X1623885Y11777736D01*
X1618432Y11766826D01*
X1618432Y11750464D01*
X1623885Y11739554D01*
X1629341Y11734098D01*
X1645704Y11728645D01*
X1694794Y11728645D01*
X1549704Y11843189D02*
G01*
X1560614Y11837736D01*
X1571523Y11826826D01*
X1576976Y11815917D01*
X1582432Y11799554D01*
X1582432Y11772282D01*
X1576976Y11755917D01*
X1571523Y11745008D01*
X1560614Y11734098D01*
X1549704Y11728645D01*
X1527886Y11728645D01*
X1516976Y11734098D01*
X1506067Y11745008D01*
X1500614Y11755917D01*
X1495158Y11772282D01*
X1495158Y11799554D01*
X1500614Y11815917D01*
X1506067Y11826826D01*
X1516976Y11837736D01*
X1527886Y11843189D01*
X1549704Y11843189D01*
X1415524Y11843189D02*
G01*
X1459158Y11728645D01*
X1415524Y11843189D02*
G01*
X1371887Y11728645D01*
X1442796Y11766826D02*
G01*
X1388249Y11766826D01*
X1335887Y11843189D02*
G01*
X1335887Y11728645D01*
X1335887Y11843189D02*
G01*
X1286797Y11843189D01*
X1270431Y11837736D01*
X1264978Y11832282D01*
X1259522Y11821373D01*
X1259522Y11810464D01*
X1264978Y11799554D01*
X1270431Y11794098D01*
X1286797Y11788645D01*
X1335887Y11788645D01*
X1297706Y11788645D02*
G01*
X1259522Y11728645D01*
X1223523Y11843189D02*
G01*
X1223523Y11728645D01*
X1223523Y11843189D02*
G01*
X1185341Y11843189D01*
X1168979Y11837736D01*
X1158069Y11826826D01*
X1152613Y11815917D01*
X1147160Y11799554D01*
X1147160Y11772282D01*
X1152613Y11755917D01*
X1158069Y11745008D01*
X1168979Y11734098D01*
X1185341Y11728645D01*
X1223523Y11728645D01*
X1027160Y11777736D02*
G01*
X928979Y11777736D01*
X808979Y11843189D02*
G01*
X808979Y11728645D01*
X808979Y11843189D02*
G01*
X759889Y11843189D01*
X743524Y11837736D01*
X738070Y11832282D01*
X732614Y11821373D01*
X732614Y11810464D01*
X738070Y11799554D01*
X743524Y11794098D01*
X759889Y11788645D01*
X808979Y11788645D02*
G01*
X759889Y11788645D01*
X743524Y11783189D01*
X738070Y11777736D01*
X732614Y11766826D01*
X732614Y11750464D01*
X738070Y11739554D01*
X743524Y11734098D01*
X759889Y11728645D01*
X808979Y11728645D01*
X663887Y11843189D02*
G01*
X674796Y11837736D01*
X685706Y11826826D01*
X691161Y11815917D01*
X696615Y11799554D01*
X696615Y11772282D01*
X691161Y11755917D01*
X685706Y11745008D01*
X674796Y11734098D01*
X663887Y11728645D01*
X642071Y11728645D01*
X631162Y11734098D01*
X620252Y11745008D01*
X614796Y11755917D01*
X609343Y11772282D01*
X609343Y11799554D01*
X614796Y11815917D01*
X620252Y11826826D01*
X631162Y11837736D01*
X642071Y11843189D01*
X663887Y11843189D01*
X535160Y11843189D02*
G01*
X535160Y11728645D01*
X573344Y11843189D02*
G01*
X496978Y11843189D01*
X422798Y11843189D02*
G01*
X422798Y11728645D01*
X460979Y11843189D02*
G01*
X384616Y11843189D01*
X315889Y11843189D02*
G01*
X326798Y11837736D01*
X337708Y11826826D01*
X343161Y11815917D01*
X348617Y11799554D01*
X348617Y11772282D01*
X343161Y11755917D01*
X337708Y11745008D01*
X326798Y11734098D01*
X315889Y11728645D01*
X294071Y11728645D01*
X283161Y11734098D01*
X272252Y11745008D01*
X266799Y11755917D01*
X261343Y11772282D01*
X261343Y11799554D01*
X266799Y11815917D01*
X272252Y11826826D01*
X283161Y11837736D01*
X294071Y11843189D01*
X315889Y11843189D01*
X225343Y11843189D02*
G01*
X225343Y11728645D01*
X225343Y11843189D02*
G01*
X181706Y11728645D01*
X138071Y11843189D02*
G01*
X181706Y11728645D01*
X138071Y11843189D02*
G01*
X138071Y11728645D01*
X3403600Y11652689D02*
G01*
X3403600Y11538145D01*
X3403600Y11652689D02*
G01*
X3354509Y11652689D01*
X3338146Y11647236D01*
X3332690Y11641782D01*
X3327237Y11630873D01*
X3327237Y11614508D01*
X3332690Y11603599D01*
X3338146Y11598145D01*
X3354509Y11592689D01*
X3403600Y11592689D01*
X3247600Y11652689D02*
G01*
X3291235Y11538145D01*
X3247600Y11652689D02*
G01*
X3203963Y11538145D01*
X3274872Y11576326D02*
G01*
X3220328Y11576326D01*
X3167964Y11652689D02*
G01*
X3167964Y11538145D01*
X3167964Y11652689D02*
G01*
X3118873Y11652689D01*
X3102510Y11647236D01*
X3097055Y11641782D01*
X3091600Y11630873D01*
X3091600Y11619964D01*
X3097055Y11609054D01*
X3102510Y11603599D01*
X3118873Y11598145D01*
X3167964Y11598145D01*
X3129782Y11598145D02*
G01*
X3091600Y11538145D01*
X3017418Y11652689D02*
G01*
X3017418Y11538145D01*
X3055600Y11652689D02*
G01*
X2979237Y11652689D01*
X2859237Y11652689D02*
G01*
X2859237Y11538145D01*
X2859237Y11652689D02*
G01*
X2782874Y11538145D01*
X2782874Y11652689D02*
G01*
X2782874Y11538145D01*
X2746872Y11652689D02*
G01*
X2746872Y11570873D01*
X2741419Y11554508D01*
X2730510Y11543599D01*
X2714147Y11538145D01*
X2703238Y11538145D01*
X2686872Y11543599D01*
X2675966Y11554508D01*
X2670510Y11570873D01*
X2670510Y11652689D01*
X2634510Y11652689D02*
G01*
X2634510Y11538145D01*
X2634510Y11652689D02*
G01*
X2590873Y11538145D01*
X2547238Y11652689D02*
G01*
X2590873Y11538145D01*
X2547238Y11652689D02*
G01*
X2547238Y11538145D01*
X2511237Y11652689D02*
G01*
X2511237Y11538145D01*
X2511237Y11652689D02*
G01*
X2462146Y11652689D01*
X2445783Y11647236D01*
X2440330Y11641782D01*
X2434874Y11630873D01*
X2434874Y11619964D01*
X2440330Y11609054D01*
X2445783Y11603599D01*
X2462146Y11598145D01*
X2511237Y11598145D02*
G01*
X2462146Y11598145D01*
X2445783Y11592689D01*
X2440330Y11587236D01*
X2434874Y11576326D01*
X2434874Y11559964D01*
X2440330Y11549054D01*
X2445783Y11543599D01*
X2462146Y11538145D01*
X2511237Y11538145D01*
X2398875Y11652689D02*
G01*
X2398875Y11538145D01*
X2398875Y11652689D02*
G01*
X2327965Y11652689D01*
X2398875Y11598145D02*
G01*
X2355237Y11598145D01*
X2398875Y11538145D02*
G01*
X2327965Y11538145D01*
X2291966Y11652689D02*
G01*
X2291966Y11538145D01*
X2291966Y11652689D02*
G01*
X2242875Y11652689D01*
X2226510Y11647236D01*
X2221057Y11641782D01*
X2215601Y11630873D01*
X2215601Y11619964D01*
X2221057Y11609054D01*
X2226510Y11603599D01*
X2242875Y11598145D01*
X2291966Y11598145D01*
X2253785Y11598145D02*
G01*
X2215601Y11538145D01*
X2090148Y11625417D02*
G01*
X2090148Y11630873D01*
X2084692Y11641782D01*
X2079238Y11647236D01*
X2068329Y11652689D01*
X2046511Y11652689D01*
X2035601Y11647236D01*
X2030148Y11641782D01*
X2024692Y11630873D01*
X2024692Y11619964D01*
X2030148Y11609054D01*
X2041057Y11592689D01*
X2095601Y11538145D01*
X2019239Y11538145D01*
X1955967Y11652689D02*
G01*
X1972330Y11647236D01*
X1977783Y11636326D01*
X1977783Y11625417D01*
X1972330Y11614508D01*
X1961421Y11609054D01*
X1939602Y11603599D01*
X1923239Y11598145D01*
X1912330Y11587236D01*
X1906874Y11576326D01*
X1906874Y11559964D01*
X1912330Y11549054D01*
X1917783Y11543599D01*
X1934149Y11538145D01*
X1955967Y11538145D01*
X1972330Y11543599D01*
X1977783Y11549054D01*
X1983239Y11559964D01*
X1983239Y11576326D01*
X1977783Y11587236D01*
X1966874Y11598145D01*
X1950511Y11603599D01*
X1928693Y11609054D01*
X1917783Y11614508D01*
X1912330Y11625417D01*
X1912330Y11636326D01*
X1917783Y11647236D01*
X1934149Y11652689D01*
X1955967Y11652689D01*
X1799965Y11614508D02*
G01*
X1805421Y11598145D01*
X1816331Y11587236D01*
X1832693Y11581782D01*
X1838149Y11581782D01*
X1854512Y11587236D01*
X1865421Y11598145D01*
X1870875Y11614508D01*
X1870875Y11619964D01*
X1865421Y11636326D01*
X1854512Y11647236D01*
X1838149Y11652689D01*
X1832693Y11652689D01*
X1816331Y11647236D01*
X1805421Y11636326D01*
X1799965Y11614508D01*
X1799965Y11587236D01*
X1805421Y11559964D01*
X1816331Y11543599D01*
X1832693Y11538145D01*
X1843603Y11538145D01*
X1859965Y11543599D01*
X1865421Y11554508D01*
X1731238Y11652689D02*
G01*
X1747603Y11647236D01*
X1758513Y11630873D01*
X1763966Y11603599D01*
X1763966Y11587236D01*
X1758513Y11559964D01*
X1747603Y11543599D01*
X1731238Y11538145D01*
X1720331Y11538145D01*
X1703966Y11543599D01*
X1693057Y11559964D01*
X1687603Y11587236D01*
X1687603Y11603599D01*
X1693057Y11630873D01*
X1703966Y11647236D01*
X1720331Y11652689D01*
X1731238Y11652689D01*
X1651604Y11587236D02*
G01*
X1553420Y11587236D01*
X1484693Y11652689D02*
G01*
X1501058Y11647236D01*
X1511968Y11630873D01*
X1517421Y11603599D01*
X1517421Y11587236D01*
X1511968Y11559964D01*
X1501058Y11543599D01*
X1484693Y11538145D01*
X1473786Y11538145D01*
X1457421Y11543599D01*
X1446512Y11559964D01*
X1441058Y11587236D01*
X1441058Y11603599D01*
X1446512Y11630873D01*
X1457421Y11647236D01*
X1473786Y11652689D01*
X1484693Y11652689D01*
X1339603Y11652689D02*
G01*
X1394150Y11652689D01*
X1399603Y11603599D01*
X1394150Y11609054D01*
X1377784Y11614508D01*
X1361422Y11614508D01*
X1345059Y11609054D01*
X1334150Y11598145D01*
X1328694Y11581782D01*
X1328694Y11570873D01*
X1334150Y11554508D01*
X1345059Y11543599D01*
X1361422Y11538145D01*
X1377784Y11538145D01*
X1394150Y11543599D01*
X1399603Y11549054D01*
X1405059Y11559964D01*
X1259966Y11652689D02*
G01*
X1276332Y11647236D01*
X1287241Y11630873D01*
X1292694Y11603599D01*
X1292694Y11587236D01*
X1287241Y11559964D01*
X1276332Y11543599D01*
X1259966Y11538145D01*
X1249057Y11538145D01*
X1232695Y11543599D01*
X1221785Y11559964D01*
X1216332Y11587236D01*
X1216332Y11603599D01*
X1221785Y11630873D01*
X1232695Y11647236D01*
X1249057Y11652689D01*
X1259966Y11652689D01*
X1180332Y11630873D02*
G01*
X1169423Y11636326D01*
X1153058Y11652689D01*
X1153058Y11538145D01*
X1033058Y11652689D02*
G01*
X989423Y11538145D01*
X945786Y11652689D02*
G01*
X989423Y11538145D01*
X877059Y11652689D02*
G01*
X893422Y11647236D01*
X904331Y11630873D01*
X909787Y11603599D01*
X909787Y11587236D01*
X904331Y11559964D01*
X893422Y11543599D01*
X877059Y11538145D01*
X866150Y11538145D01*
X849787Y11543599D01*
X838878Y11559964D01*
X833422Y11587236D01*
X833422Y11603599D01*
X838878Y11630873D01*
X849787Y11647236D01*
X866150Y11652689D01*
X877059Y11652689D01*
X791969Y11565417D02*
G01*
X797422Y11559964D01*
X791969Y11554508D01*
X786513Y11559964D01*
X791969Y11565417D01*
X750514Y11630873D02*
G01*
X739604Y11636326D01*
X723242Y11652689D01*
X723242Y11538145D01*
D11*
X367037Y10110205D02*
G01*
X367037Y10027147D01*
X372371Y10011399D01*
X377451Y10006319D01*
X387865Y10001239D01*
X398279Y10001239D01*
X408693Y10006319D01*
X414027Y10011399D01*
X419107Y10027147D01*
X419107Y10037561D01*
X332747Y10089377D02*
G01*
X322587Y10094711D01*
X306839Y10110205D01*
X306839Y10001239D01*
X1497444Y10110238D02*
G01*
X1497444Y10027112D01*
X1502641Y10011524D01*
X1507835Y10006329D01*
X1518226Y10001135D01*
X1528617Y10001135D01*
X1539008Y10006329D01*
X1544205Y10011524D01*
X1549400Y10027112D01*
X1549400Y10037503D01*
X1457959Y10084262D02*
G01*
X1457959Y10089456D01*
X1452765Y10099847D01*
X1447568Y10105044D01*
X1437177Y10110238D01*
X1416395Y10110238D01*
X1406004Y10105044D01*
X1400809Y10099847D01*
X1395615Y10089456D01*
X1395615Y10079065D01*
X1400809Y10068674D01*
X1411201Y10053088D01*
X1463154Y10001135D01*
X1390418Y10001135D01*
X2640444Y10110238D02*
G01*
X2640444Y10027112D01*
X2645641Y10011524D01*
X2650835Y10006329D01*
X2661226Y10001135D01*
X2671617Y10001135D01*
X2682008Y10006329D01*
X2687205Y10011524D01*
X2692400Y10027112D01*
X2692400Y10037503D01*
X2595765Y10110238D02*
G01*
X2538615Y10110238D01*
X2569786Y10068674D01*
X2554201Y10068674D01*
X2543809Y10063479D01*
X2538615Y10058285D01*
X2533418Y10042697D01*
X2533418Y10032306D01*
X2538615Y10016721D01*
X2549004Y10006329D01*
X2564592Y10001135D01*
X2580177Y10001135D01*
X2595765Y10006329D01*
X2600959Y10011524D01*
X2606154Y10021915D01*
X354444Y7240038D02*
G01*
X354444Y7156912D01*
X359641Y7141324D01*
X364835Y7136129D01*
X375226Y7130935D01*
X385617Y7130935D01*
X396008Y7136129D01*
X401205Y7141324D01*
X406400Y7156912D01*
X406400Y7167303D01*
X268201Y7240038D02*
G01*
X320154Y7167303D01*
X242224Y7167303D01*
X268201Y7240038D02*
G01*
X268201Y7130935D01*
X1497444Y7240038D02*
G01*
X1497444Y7156912D01*
X1502641Y7141324D01*
X1507835Y7136129D01*
X1518226Y7130935D01*
X1528617Y7130935D01*
X1539008Y7136129D01*
X1544205Y7141324D01*
X1549400Y7156912D01*
X1549400Y7167303D01*
X1400809Y7240038D02*
G01*
X1452765Y7240038D01*
X1457959Y7193279D01*
X1452765Y7198474D01*
X1437177Y7203671D01*
X1421592Y7203671D01*
X1406004Y7198474D01*
X1395615Y7188085D01*
X1390418Y7172497D01*
X1390418Y7162106D01*
X1395615Y7146521D01*
X1406004Y7136129D01*
X1421592Y7130935D01*
X1437177Y7130935D01*
X1452765Y7136129D01*
X1457959Y7141324D01*
X1463154Y7151715D01*
X2640444Y7240038D02*
G01*
X2640444Y7156912D01*
X2645641Y7141324D01*
X2650835Y7136129D01*
X2661226Y7130935D01*
X2671617Y7130935D01*
X2682008Y7136129D01*
X2687205Y7141324D01*
X2692400Y7156912D01*
X2692400Y7167303D01*
X2543809Y7224453D02*
G01*
X2549004Y7234844D01*
X2564592Y7240038D01*
X2574983Y7240038D01*
X2590568Y7234844D01*
X2600959Y7219256D01*
X2606154Y7193279D01*
X2606154Y7167303D01*
X2600959Y7146521D01*
X2590568Y7136129D01*
X2574983Y7130935D01*
X2569786Y7130935D01*
X2554201Y7136129D01*
X2543809Y7146521D01*
X2538615Y7162106D01*
X2538615Y7167303D01*
X2543809Y7182888D01*
X2554201Y7193279D01*
X2569786Y7198474D01*
X2574983Y7198474D01*
X2590568Y7193279D01*
X2600959Y7182888D01*
X2606154Y7167303D01*
D12*
X519572Y8792723D02*
G01*
X673100Y8877300D01*
X519572Y8970523D01*
X1341699Y8649705D02*
G01*
X1341699Y11441696D01*
X1341699Y11441694D02*
G01*
X461700Y11441696D01*
X461700Y11441696D02*
G01*
X461700Y8649705D01*
X461700Y8649705D02*
G01*
X1341699Y8649705D01*
X469900Y9791700D02*
G01*
X596900Y9791700D01*
X596900Y10299700D01*
X469900Y10299700D01*
X520700Y8699500D02*
G01*
X1282700Y8699500D01*
X1282700Y11391900D01*
X520700Y11391900D01*
X520700Y10299700D01*
X520700Y9791700D02*
G01*
X520700Y8699500D01*
X519572Y5922523D02*
G01*
X673100Y6007100D01*
X519572Y6100323D01*
X1341699Y5779505D02*
G01*
X1341699Y8571496D01*
X1341699Y8571494D02*
G01*
X461700Y8571496D01*
X461700Y8571496D02*
G01*
X461700Y5779505D01*
X461700Y5779505D02*
G01*
X1341699Y5779505D01*
X469900Y6921500D02*
G01*
X596900Y6921500D01*
X596900Y7429500D01*
X469900Y7429500D01*
X520700Y5829300D02*
G01*
X1282700Y5829300D01*
X1282700Y8521700D01*
X520700Y8521700D01*
X520700Y7429500D01*
X520700Y6921500D02*
G01*
X520700Y5829300D01*
X1662572Y8792723D02*
G01*
X1816100Y8877300D01*
X1662572Y8970523D01*
X2484699Y8649705D02*
G01*
X2484699Y11441696D01*
X2484699Y11441694D02*
G01*
X1604700Y11441696D01*
X1604700Y11441696D02*
G01*
X1604700Y8649705D01*
X1604700Y8649705D02*
G01*
X2484699Y8649705D01*
X1612900Y9791700D02*
G01*
X1739900Y9791700D01*
X1739900Y10299700D01*
X1612900Y10299700D01*
X1663700Y8699500D02*
G01*
X2425700Y8699500D01*
X2425700Y11391900D01*
X1663700Y11391900D01*
X1663700Y10299700D01*
X1663700Y9791700D02*
G01*
X1663700Y8699500D01*
X2805572Y8792723D02*
G01*
X2959100Y8877300D01*
X2805572Y8970523D01*
X3627699Y8649705D02*
G01*
X3627699Y11441696D01*
X3627699Y11441694D02*
G01*
X2747700Y11441696D01*
X2747700Y11441696D02*
G01*
X2747700Y8649705D01*
X2747700Y8649705D02*
G01*
X3627699Y8649705D01*
X2755900Y9791700D02*
G01*
X2882900Y9791700D01*
X2882900Y10299700D01*
X2755900Y10299700D01*
X2806700Y8699500D02*
G01*
X3568700Y8699500D01*
X3568700Y11391900D01*
X2806700Y11391900D01*
X2806700Y10299700D01*
X2806700Y9791700D02*
G01*
X2806700Y8699500D01*
X1662572Y5922523D02*
G01*
X1816100Y6007100D01*
X1662572Y6100323D01*
X2484699Y5779505D02*
G01*
X2484699Y8571496D01*
X2484699Y8571494D02*
G01*
X1604700Y8571496D01*
X1604700Y8571496D02*
G01*
X1604700Y5779505D01*
X1604700Y5779505D02*
G01*
X2484699Y5779505D01*
X1612900Y6921500D02*
G01*
X1739900Y6921500D01*
X1739900Y7429500D01*
X1612900Y7429500D01*
X1663700Y5829300D02*
G01*
X2425700Y5829300D01*
X2425700Y8521700D01*
X1663700Y8521700D01*
X1663700Y7429500D01*
X1663700Y6921500D02*
G01*
X1663700Y5829300D01*
X2805572Y5922523D02*
G01*
X2959100Y6007100D01*
X2805572Y6100323D01*
X3627699Y5779505D02*
G01*
X3627699Y8571496D01*
X3627699Y8571494D02*
G01*
X2747700Y8571496D01*
X2747700Y8571496D02*
G01*
X2747700Y5779505D01*
X2747700Y5779505D02*
G01*
X3627699Y5779505D01*
X2755900Y6921500D02*
G01*
X2882900Y6921500D01*
X2882900Y7429500D01*
X2755900Y7429500D01*
X2806700Y5829300D02*
G01*
X3568700Y5829300D01*
X3568700Y8521700D01*
X2806700Y8521700D01*
X2806700Y7429500D01*
X2806700Y6921500D02*
G01*
X2806700Y5829300D01*
M02*
