G04 Layer: TopSolderMaskLayer*
G04 EasyEDA v6.5.29, 2023-07-16 15:11:24*
G04 b1c9531ddfa049bd996740377cd84ce5,5a6b42c53f6a479593ecc07194224c93,10*
G04 Gerber Generator version 0.2*
G04 Scale: 100 percent, Rotated: No, Reflected: No *
G04 Dimensions in millimeters *
G04 leading zeros omitted , absolute positions ,4 integer and 5 decimal *
%FSLAX45Y45*%
%MOMM*%

%ADD10C,0.3556*%
%ADD11O,6.6032126X3.4031936000000003*%

%LPD*%
D10*
X812800Y12084850D02*
G01*
X821270Y11935414D01*
X2006600Y11979666D02*
G01*
X2015070Y12112396D01*
X313270Y12121040D02*
G01*
X321729Y11978840D01*
X6045200Y12152584D02*
G01*
X6053670Y12160163D01*
X6036729Y11941403D02*
G01*
X6045200Y11895137D01*
X6028270Y11927197D02*
G01*
X6036729Y11979412D01*
X6019800Y12156968D02*
G01*
X6028270Y12136610D01*
X6002870Y12001505D02*
G01*
X6011329Y12056275D01*
X5994400Y12125281D02*
G01*
X6002870Y12083188D01*
X5985929Y11846664D02*
G01*
X5994400Y11844144D01*
X5977470Y12069757D02*
G01*
X5985929Y12115528D01*
X5969000Y12072566D02*
G01*
X5977470Y12018248D01*
X5960529Y11845709D02*
G01*
X5969000Y11866438D01*
X5952070Y12120338D02*
G01*
X5960529Y12149886D01*
X5943600Y12013704D02*
G01*
X5952070Y11956689D01*
X5935129Y11867517D02*
G01*
X5943600Y11906697D01*
X5926670Y12149714D02*
G01*
X5935129Y12160250D01*
X5918200Y11959579D02*
G01*
X5926670Y11907334D01*
X5909729Y11902318D02*
G01*
X5918200Y11953750D01*
X5901270Y12160044D02*
G01*
X5909729Y12152195D01*
X5892800Y11916067D02*
G01*
X5901270Y11873240D01*
X5884329Y11941411D02*
G01*
X5892800Y11999236D01*
X5875870Y12156381D02*
G01*
X5884329Y12132810D01*
X5867400Y11884781D02*
G01*
X5875870Y11853367D01*
X5858929Y11978581D02*
G01*
X5867400Y12038266D01*
X5850470Y12144430D02*
G01*
X5858929Y12108601D01*
X5842000Y11864558D02*
G01*
X5850470Y11844505D01*
X5833529Y12010237D02*
G01*
X5842000Y12068868D01*
X5825070Y12129244D02*
G01*
X5833529Y12084527D01*
X5816600Y11852894D02*
G01*
X5825070Y11842805D01*
X5808129Y12034824D02*
G01*
X5816600Y12091045D01*
X5799670Y12114629D02*
G01*
X5808129Y12063884D01*
X5791200Y11847004D02*
G01*
X5799670Y11844746D01*
X5782729Y12052094D02*
G01*
X5791200Y12105792D01*
X5774270Y12103155D02*
G01*
X5782729Y12048561D01*
X5765800Y11844492D02*
G01*
X5774270Y11847573D01*
X5757329Y12062371D02*
G01*
X5765800Y12114324D01*
X5748870Y12096353D02*
G01*
X5757329Y12039518D01*
X5740400Y11843679D02*
G01*
X5748870Y11849460D01*
X5731929Y12066066D02*
G01*
X5740400Y12117616D01*
X5723470Y12094982D02*
G01*
X5731929Y12037156D01*
X5715000Y11843748D02*
G01*
X5723470Y11849491D01*
X5706529Y12063361D02*
G01*
X5715000Y12116092D01*
X5698070Y12099193D02*
G01*
X5706529Y12041571D01*
X5689600Y11844784D02*
G01*
X5698070Y11847649D01*
X5681129Y12054098D02*
G01*
X5689600Y12109531D01*
X5672670Y12108555D02*
G01*
X5681129Y12052622D01*
X5664200Y11847766D02*
G01*
X5672670Y11844820D01*
X5655729Y12037857D02*
G01*
X5664200Y12097115D01*
X5647270Y12121956D02*
G01*
X5655729Y12069787D01*
X5638800Y11854555D02*
G01*
X5647270Y11842818D01*
X5630329Y12014225D02*
G01*
X5638800Y12077618D01*
X5621870Y12137354D02*
G01*
X5630329Y12091880D01*
X5613400Y11867715D02*
G01*
X5621870Y11844431D01*
X5604929Y11983305D02*
G01*
X5613400Y12049856D01*
X5596470Y12151481D02*
G01*
X5604929Y12116600D01*
X5588000Y11890120D02*
G01*
X5596470Y11853255D01*
X5579529Y11946420D02*
G01*
X5588000Y12013331D01*
X5571070Y12159747D02*
G01*
X5579529Y12140046D01*
X5562600Y11924202D02*
G01*
X5571070Y11873260D01*
X5554129Y11906920D02*
G01*
X5562600Y11969211D01*
X5545670Y12156455D02*
G01*
X5554129Y12156567D01*
X5537200Y11970748D02*
G01*
X5545670Y11907799D01*
X5528729Y11870847D02*
G01*
X5537200Y11921418D01*
X5520270Y12135792D02*
G01*
X5528729Y12159046D01*
X5511800Y12027296D02*
G01*
X5520270Y11957979D01*
X5503329Y11846966D02*
G01*
X5511800Y11877408D01*
X5494870Y12093785D02*
G01*
X5503329Y12140313D01*
X5486400Y12086643D02*
G01*
X5494870Y12020610D01*
X5477929Y11845508D02*
G01*
X5486400Y11848089D01*
X5469470Y12031124D02*
G01*
X5477929Y12095800D01*
X5461000Y12136244D02*
G01*
X5469470Y12086338D01*
X5452529Y11875046D02*
G01*
X5461000Y11845851D01*
X5444070Y11956138D02*
G01*
X5452529Y12027265D01*
X5435600Y12159914D02*
G01*
X5444070Y12139345D01*
X5427129Y11937616D02*
G01*
X5435600Y11880166D01*
X5418670Y11886283D02*
G01*
X5427129Y11946333D01*
X5410200Y12142843D02*
G01*
X5418670Y12160237D01*
X5401729Y12023364D02*
G01*
X5410200Y11951251D01*
X5393270Y11845645D02*
G01*
X5401729Y11875411D01*
X5384800Y12079803D02*
G01*
X5393270Y12133249D01*
X5376329Y12108017D02*
G01*
X5384800Y12043971D01*
X5367870Y11856615D02*
G01*
X5376329Y11842910D01*
X5359400Y11983821D02*
G01*
X5367870Y12056833D01*
X5350929Y12157303D02*
G01*
X5359400Y12126719D01*
X5342470Y11926470D02*
G01*
X5350929Y11871195D01*
X5334000Y11889389D02*
G01*
X5342470Y11952759D01*
X5325529Y12141212D02*
G01*
X5334000Y12160211D01*
X5317070Y12034652D02*
G01*
X5325529Y11959983D01*
X5308600Y11843128D02*
G01*
X5317070Y11865780D01*
X5300129Y12054928D02*
G01*
X5308600Y12117697D01*
X5291670Y12131390D02*
G01*
X5300129Y12074649D01*
X5283200Y11879473D02*
G01*
X5291670Y11846346D01*
X5274729Y11934626D02*
G01*
X5283200Y12009028D01*
X5266270Y12157664D02*
G01*
X5274729Y12153013D01*
X5257800Y11990641D02*
G01*
X5266270Y11918025D01*
X5249329Y11850438D02*
G01*
X5257800Y11890809D01*
X5240870Y12084687D02*
G01*
X5249329Y12138378D01*
X5232400Y12113734D02*
G01*
X5240870Y12047761D01*
X5223929Y11866686D02*
G01*
X5232400Y11843085D01*
X5215470Y11949689D02*
G01*
X5223929Y12026793D01*
X5207000Y12159226D02*
G01*
X5215470Y12148908D01*
X5198529Y11985630D02*
G01*
X5207000Y11912450D01*
X5190070Y11850260D02*
G01*
X5198529Y11891540D01*
X5181600Y12079343D02*
G01*
X5190070Y12135998D01*
X5173129Y12121784D02*
G01*
X5181600Y12057428D01*
X5164670Y11876702D02*
G01*
X5173129Y11844909D01*
X5156200Y11928505D02*
G01*
X5164670Y12005431D01*
X5147729Y12153417D02*
G01*
X5156200Y12156777D01*
X5139270Y12019899D02*
G01*
X5147729Y11941243D01*
X5130800Y11843011D02*
G01*
X5139270Y11867337D01*
X5122329Y12036953D02*
G01*
X5130800Y12107788D01*
X5113870Y12148431D02*
G01*
X5122329Y12100420D01*
X5105400Y11919031D02*
G01*
X5113870Y11863207D01*
X5096929Y11879994D02*
G01*
X5105400Y11945726D01*
X5088470Y12120450D02*
G01*
X5096929Y12156770D01*
X5080000Y12088644D02*
G01*
X5088470Y12011906D01*
X5071529Y11858104D02*
G01*
X5080000Y11843176D01*
X5063070Y11952937D02*
G01*
X5071529Y12034199D01*
X5054600Y12157583D02*
G01*
X5063070Y12151357D01*
X5046129Y12011192D02*
G01*
X5054600Y11931004D01*
X5037670Y11843004D02*
G01*
X5046129Y11868609D01*
X5029200Y12028103D02*
G01*
X5037670Y12102845D01*
X5020729Y12154265D02*
G01*
X5029200Y12111997D01*
X5012270Y11942998D02*
G01*
X5020729Y11876725D01*
X5003800Y11860268D02*
G01*
X5012270Y11916072D01*
X4995329Y12086635D02*
G01*
X5003800Y12142670D01*
X4986870Y12127618D02*
G01*
X4995329Y12061416D01*
X4978400Y11895137D02*
G01*
X4986870Y11850029D01*
X4969929Y11892117D02*
G01*
X4978400Y11965899D01*
X4961470Y12124054D02*
G01*
X4969929Y12158383D01*
X4953000Y12094077D02*
G01*
X4961470Y12015111D01*
X4944529Y11867126D02*
G01*
X4953000Y11842793D01*
X4936070Y11924624D02*
G01*
X4944529Y12006907D01*
X4927600Y12144120D02*
G01*
X4936070Y12159660D01*
X4919129Y12064621D02*
G01*
X4927600Y11980379D01*
X4910670Y11853397D02*
G01*
X4919129Y11845185D01*
X4902200Y11949640D02*
G01*
X4910670Y12034961D01*
X4893729Y12153044D02*
G01*
X4902200Y12155543D01*
X4885270Y12044939D02*
G01*
X4893729Y11959033D01*
X4876800Y11847964D02*
G01*
X4885270Y11849483D01*
X4868329Y11963450D02*
G01*
X4876800Y12049732D01*
X4859870Y12155990D02*
G01*
X4868329Y12152195D01*
X4851400Y12037293D02*
G01*
X4859870Y11950644D01*
X4842929Y11846854D02*
G01*
X4851400Y11851165D01*
X4834470Y11964789D02*
G01*
X4842929Y12051883D01*
X4826000Y12155548D02*
G01*
X4834470Y12152505D01*
X4817529Y12042279D02*
G01*
X4826000Y11954700D01*
X4809070Y11848962D02*
G01*
X4817529Y11848919D01*
X4800600Y11953557D02*
G01*
X4809070Y12041548D01*
X4792129Y12151271D02*
G01*
X4800600Y12156244D01*
X4783670Y12059549D02*
G01*
X4792129Y11971479D01*
X4775200Y11856280D02*
G01*
X4783670Y11844535D01*
X4766729Y11930669D02*
G01*
X4775200Y12018114D01*
X4758270Y12139719D02*
G01*
X4766729Y12160013D01*
X4749800Y12087324D02*
G01*
X4758270Y12001672D01*
X4741329Y11873532D02*
G01*
X4749800Y11843054D01*
X4732870Y11899173D02*
G01*
X4741329Y11981289D01*
X4724400Y12115154D02*
G01*
X4732870Y12157130D01*
X4715929Y12120798D02*
G01*
X4724400Y12044573D01*
X4707470Y11906976D02*
G01*
X4715929Y11852709D01*
X4699000Y11866158D02*
G01*
X4707470Y11933516D01*
X4690529Y12071555D02*
G01*
X4699000Y12138136D01*
X4682070Y12150135D02*
G01*
X4690529Y12095137D01*
X4673600Y11961352D02*
G01*
X4682070Y11883496D01*
X4665129Y11844467D02*
G01*
X4673600Y11883306D01*
X4656670Y12006844D02*
G01*
X4665129Y12093575D01*
X4648200Y12159673D02*
G01*
X4656670Y12140717D01*
X4639729Y12034428D02*
G01*
X4648200Y11942792D01*
X4631270Y11851728D02*
G01*
X4639729Y11847728D01*
X4622800Y11929292D02*
G01*
X4631270Y12020227D01*
X4614329Y12131476D02*
G01*
X4622800Y12160219D01*
X4605870Y12110410D02*
G01*
X4614329Y12027253D01*
X4597400Y11903534D02*
G01*
X4605870Y11850377D01*
X4588929Y11862965D02*
G01*
X4597400Y11930341D01*
X4580470Y12055965D02*
G01*
X4588929Y12130384D01*
X4572000Y12157539D02*
G01*
X4580470Y12113963D01*
X4563529Y11999163D02*
G01*
X4572000Y11909971D01*
X4555070Y11844797D02*
G01*
X4563529Y11857893D01*
X4546600Y11948342D02*
G01*
X4555070Y12042470D01*
X4538129Y12138687D02*
G01*
X4546600Y12159785D01*
X4529670Y12105965D02*
G01*
X4538129Y12019414D01*
X4521200Y11904619D02*
G01*
X4529670Y11850215D01*
X4512729Y11858909D02*
G01*
X4521200Y11924289D01*
X4504270Y12040567D02*
G01*
X4512729Y12121573D01*
X4495800Y12160138D02*
G01*
X4504270Y12128129D01*
X4487329Y12029894D02*
G01*
X4495800Y11935040D01*
X4478870Y11855394D02*
G01*
X4487329Y11846278D01*
X4470400Y11908109D02*
G01*
X4478870Y11999186D01*
X4461929Y12104923D02*
G01*
X4470400Y12155487D01*
X4453470Y12142886D02*
G01*
X4461929Y12075053D01*
X4445000Y11965396D02*
G01*
X4453470Y11882475D01*
X4436529Y11842780D02*
G01*
X4445000Y11870585D01*
X4428070Y11958942D02*
G01*
X4436529Y12055866D01*
X4419600Y12138507D02*
G01*
X4428070Y12159566D01*
X4411129Y12114590D02*
G01*
X4419600Y12028251D01*
X4402670Y11924078D02*
G01*
X4411129Y11857639D01*
X4394200Y11847141D02*
G01*
X4402670Y11898157D01*
X4385729Y11994667D02*
G01*
X4394200Y12089079D01*
X4377270Y12151834D02*
G01*
X4385729Y12153082D01*
X4368800Y12093252D02*
G01*
X4377270Y11999310D01*
X4360329Y11904141D02*
G01*
X4368800Y11848901D01*
X4351870Y11852963D02*
G01*
X4360329Y11914832D01*
X4343400Y12010387D02*
G01*
X4351870Y12102541D01*
X4334929Y12155164D02*
G01*
X4343400Y12148845D01*
X4326470Y12087014D02*
G01*
X4334929Y11990771D01*
X4318000Y11901462D02*
G01*
X4326470Y11847736D01*
X4309529Y11852722D02*
G01*
X4318000Y11915117D01*
X4301070Y12005604D02*
G01*
X4309529Y12099602D01*
X4292600Y12152690D02*
G01*
X4301070Y12151593D01*
X4284129Y12097666D02*
G01*
X4292600Y12002747D01*
X4275670Y11915297D02*
G01*
X4284129Y11852516D01*
X4267200Y11846674D02*
G01*
X4275670Y11898919D01*
X4258729Y11980359D02*
G01*
X4267200Y12079429D01*
X4250270Y12141187D02*
G01*
X4258729Y12158395D01*
X4241800Y12121995D02*
G01*
X4250270Y12034992D01*
X4233329Y11948995D02*
G01*
X4241800Y11868993D01*
X4224870Y11842874D02*
G01*
X4233329Y11871548D01*
X4216400Y11936450D02*
G01*
X4224870Y12037819D01*
X4207929Y12111007D02*
G01*
X4216400Y12158339D01*
X4199470Y12149584D02*
G01*
X4207929Y12084011D01*
X4191000Y12006112D02*
G01*
X4199470Y11908259D01*
X4182529Y11857334D02*
G01*
X4191000Y11846793D01*
X4174070Y11883285D02*
G01*
X4182529Y11972975D01*
X4165600Y12051073D02*
G01*
X4174070Y12133176D01*
X4157129Y12159444D02*
G01*
X4165600Y12135916D01*
X4148670Y12080981D02*
G01*
X4157129Y11979546D01*
X4140200Y11909554D02*
G01*
X4148670Y11849323D01*
X4131729Y11845422D02*
G01*
X4140200Y11896656D01*
X4123270Y11961421D02*
G01*
X4131729Y12065012D01*
X4114800Y12122980D02*
G01*
X4123270Y12160168D01*
X4106329Y12146323D02*
G01*
X4114800Y12074735D01*
X4097870Y12006658D02*
G01*
X4106329Y11906943D01*
X4089400Y11861594D02*
G01*
X4097870Y11845305D01*
X4080929Y11871721D02*
G01*
X4089400Y11957011D01*
X4072470Y12024245D02*
G01*
X4080929Y12117349D01*
X4064000Y12151611D02*
G01*
X4072470Y12150948D01*
X4055529Y12116668D02*
G01*
X4064000Y12022869D01*
X4047070Y11958607D02*
G01*
X4055529Y11872229D01*
X4038600Y11846471D02*
G01*
X4047070Y11859399D01*
X4030129Y11897680D02*
G01*
X4038600Y11996346D01*
X4021670Y12056976D02*
G01*
X4030129Y12138291D01*
X4013200Y12158489D02*
G01*
X4021670Y12138174D01*
X4004729Y12098875D02*
G01*
X4013200Y11997743D01*
X3996270Y11940555D02*
G01*
X4004729Y11861545D01*
X3987800Y11844040D02*
G01*
X3996270Y11866910D01*
X3979329Y11904891D02*
G01*
X3987800Y12006808D01*
X3970870Y12061080D02*
G01*
X3979329Y12141027D01*
X3962400Y12158413D02*
G01*
X3970870Y12137844D01*
X3953929Y12103094D02*
G01*
X3962400Y12002002D01*
X3945470Y11950204D02*
G01*
X3953929Y11866097D01*
X3937000Y11846694D02*
G01*
X3945470Y11859983D01*
X3928529Y11889742D02*
G01*
X3937000Y11987844D01*
X3920070Y12037237D02*
G01*
X3928529Y12128103D01*
X3911600Y12151116D02*
G01*
X3920070Y12150272D01*
X3903129Y12127209D02*
G01*
X3911600Y12035426D01*
X3894670Y11989005D02*
G01*
X3903129Y11890027D01*
X3886200Y11862531D02*
G01*
X3894670Y11845800D01*
X3877729Y11860535D02*
G01*
X3886200Y11941014D01*
X3869270Y11983168D02*
G01*
X3877729Y12089495D01*
X3860800Y12121431D02*
G01*
X3869270Y12160244D01*
X3852329Y12155215D02*
G01*
X3860800Y12092792D01*
X3843870Y12056894D02*
G01*
X3852329Y11947017D01*
X3835400Y11911837D02*
G01*
X3843870Y11848195D01*
X3826929Y11842780D02*
G01*
X3835400Y11879077D01*
X3818470Y11906262D02*
G01*
X3826929Y12012109D01*
X3810000Y12048096D02*
G01*
X3818470Y12135878D01*
X3801529Y12151332D02*
G01*
X3810000Y12149167D01*
X3793070Y12133026D02*
G01*
X3801529Y12042719D01*
X3784600Y12009523D02*
G01*
X3793070Y11903613D01*
X3776129Y11880136D02*
G01*
X3784600Y11842767D01*
X3767670Y11846407D02*
G01*
X3776129Y11906900D01*
X3759200Y11933143D02*
G01*
X3767670Y12044349D01*
X3750729Y12072020D02*
G01*
X3759200Y12148276D01*
X3742270Y12156757D02*
G01*
X3750729Y12140003D01*
X3733800Y12124438D02*
G01*
X3742270Y12027390D01*
X3725329Y12000811D02*
G01*
X3733800Y11895942D01*
X3716870Y11878208D02*
G01*
X3725329Y11842892D01*
X3708400Y11845864D02*
G01*
X3716870Y11905802D01*
X3699929Y11925716D02*
G01*
X3708400Y12037517D01*
X3691470Y12059196D02*
G01*
X3699929Y12142955D01*
X3683000Y12151464D02*
G01*
X3691470Y12148058D01*
X3674529Y12138855D02*
G01*
X3683000Y12050786D01*
X3666070Y12031687D02*
G01*
X3674529Y11919910D01*
X3657600Y11904426D02*
G01*
X3666070Y11845335D01*
X3649129Y11843128D02*
G01*
X3657600Y11876539D01*
X3640670Y11887565D02*
G01*
X3649129Y11991032D01*
X3632200Y12006808D02*
G01*
X3640670Y12111906D01*
X3623729Y12122043D02*
G01*
X3632200Y12160189D01*
X3615270Y12159195D02*
G01*
X3623729Y12105896D01*
X3606800Y12095906D02*
G01*
X3615270Y11985315D01*
X3598329Y11973600D02*
G01*
X3606800Y11875505D01*
X3589870Y11869204D02*
G01*
X3598329Y11844665D01*
X3581400Y11846501D02*
G01*
X3589870Y11910474D01*
X3572929Y11917890D02*
G01*
X3581400Y12031291D01*
X3564470Y12039010D02*
G01*
X3572929Y12133615D01*
X3556000Y12137323D02*
G01*
X3564470Y12157031D01*
X3547529Y12155741D02*
G01*
X3556000Y12089165D01*
X3539070Y12084992D02*
G01*
X3547529Y11970877D01*
X3530600Y11966996D02*
G01*
X3539070Y11870717D01*
X3522129Y11869044D02*
G01*
X3530600Y11844939D01*
X3513670Y11845287D02*
G01*
X3522129Y11906620D01*
X3505200Y11907446D02*
G01*
X3513670Y12020227D01*
X3496729Y12020278D02*
G01*
X3505200Y12123036D01*
X3488270Y12122442D02*
G01*
X3496729Y12160051D01*
X3479800Y12160138D02*
G01*
X3488270Y12112835D01*
X3471329Y12114870D02*
G01*
X3479800Y12007644D01*
X3462870Y12011497D02*
G01*
X3471329Y11899861D01*
X3454400Y11903621D02*
G01*
X3462870Y11844474D01*
X3445929Y11845434D02*
G01*
X3454400Y11868348D01*
X3437470Y11864781D02*
G01*
X3445929Y11958147D01*
X3429000Y11950743D02*
G01*
X3437470Y12068639D01*
X3420529Y12060633D02*
G01*
X3429000Y12146069D01*
X3412070Y12141794D02*
G01*
X3420529Y12154184D01*
X3403600Y12156757D02*
G01*
X3412070Y12090524D01*
X3395129Y12099912D02*
G01*
X3403600Y11985995D01*
X3386670Y11998579D02*
G01*
X3395129Y11889196D01*
X3378200Y11899186D02*
G01*
X3386670Y11843575D01*
X3369729Y11845714D02*
G01*
X3378200Y11868373D01*
X3361270Y11860573D02*
G01*
X3369729Y11951307D01*
X3352800Y11935973D02*
G01*
X3361270Y12055375D01*
X3344329Y12038675D02*
G01*
X3352800Y12135865D01*
X3335870Y12125182D02*
G01*
X3344329Y12159518D01*
X3327400Y12160194D02*
G01*
X3335870Y12117748D01*
X3318929Y12130608D02*
G01*
X3327400Y12028952D01*
X3310470Y12049620D02*
G01*
X3318929Y11929739D01*
X3302000Y11950235D02*
G01*
X3310470Y11859529D01*
X3293529Y11871398D02*
G01*
X3302000Y11845008D01*
X3285070Y11842775D02*
G01*
X3293529Y11890524D01*
X3276600Y11874004D02*
G01*
X3285070Y11977570D01*
X3268129Y11952201D02*
G01*
X3276600Y12072894D01*
X3259670Y12047804D02*
G01*
X3268129Y12141454D01*
X3251200Y12126125D02*
G01*
X3259670Y12159178D01*
X3242729Y12159902D02*
G01*
X3251200Y12120946D01*
X3234270Y12138433D02*
G01*
X3242729Y12041380D01*
X3225800Y12070339D02*
G01*
X3234270Y11948728D01*
X3217329Y11979615D02*
G01*
X3225800Y11874555D01*
X3208870Y11896811D02*
G01*
X3217329Y11843047D01*
X3200400Y11848665D02*
G01*
X3208870Y11863468D01*
X3191929Y11849745D02*
G01*
X3200400Y11928010D01*
X3183470Y11898510D02*
G01*
X3191929Y12015228D01*
X3175000Y11978716D02*
G01*
X3183470Y12097512D01*
X3166529Y12065205D02*
G01*
X3175000Y12149886D01*
X3158070Y12131992D02*
G01*
X3166529Y12157402D01*
X3149600Y12159978D02*
G01*
X3158070Y12118980D01*
X3141129Y12142073D02*
G01*
X3149600Y12046905D01*
X3132670Y12084545D02*
G01*
X3141129Y11962526D01*
X3124200Y12004420D02*
G01*
X3132670Y11889717D01*
X3115729Y11924164D02*
G01*
X3124200Y11848144D01*
X3107270Y11865315D02*
G01*
X3115729Y11848157D01*
X3098800Y11842793D02*
G01*
X3107270Y11888657D01*
X3090329Y11861421D02*
G01*
X3098800Y11958035D01*
X3081870Y11915366D02*
G01*
X3090329Y12037857D01*
X3073400Y11990237D02*
G01*
X3081870Y12107905D01*
X3064929Y12067176D02*
G01*
X3073400Y12151283D01*
X3056470Y12127717D02*
G01*
X3064929Y12158327D01*
X3048000Y12158124D02*
G01*
X3056470Y12128400D01*
X3039529Y12152251D02*
G01*
X3048000Y12069478D01*
X3031070Y12112482D02*
G01*
X3039529Y11995739D01*
X3022600Y12048596D02*
G01*
X3031070Y11923974D01*
X3014129Y11975144D02*
G01*
X3022600Y11869732D01*
X3005670Y11907987D02*
G01*
X3014129Y11844040D01*
X2997200Y11860888D02*
G01*
X3005670Y11851401D01*
X2988729Y11842818D02*
G01*
X2997200Y11889303D01*
X2980270Y11856478D02*
G01*
X2988729Y11949224D01*
X2971800Y11898218D02*
G01*
X2980270Y12018751D01*
X2963329Y11959196D02*
G01*
X2971800Y12084265D01*
X2954870Y12027408D02*
G01*
X2963329Y12133615D01*
X2946400Y12090189D02*
G01*
X2954870Y12158271D01*
X2937929Y12136493D02*
G01*
X2946400Y12154626D01*
X2929470Y12158804D02*
G01*
X2937929Y12124245D01*
X2921000Y12154105D02*
G01*
X2929470Y12073216D01*
X2912529Y12124098D02*
G01*
X2921000Y12010783D01*
X2904070Y12074519D02*
G01*
X2912529Y11947530D01*
X2895600Y12013933D02*
G01*
X2904070Y11893593D01*
X2887129Y11952119D02*
G01*
X2895600Y11857055D01*
X2878670Y11898492D02*
G01*
X2887129Y11842861D01*
X2870200Y11860672D02*
G01*
X2878670Y11852313D01*
X2861729Y11843537D02*
G01*
X2870200Y11883194D01*
X2853270Y11848746D02*
G01*
X2861729Y11930359D01*
X2844800Y11874748D02*
G01*
X2853270Y11986704D01*
X2836329Y11917293D02*
G01*
X2844800Y12044332D01*
X2827870Y11970214D02*
G01*
X2836329Y12095645D01*
X2819400Y12026404D02*
G01*
X2827870Y12134367D01*
X2810929Y12078804D02*
G01*
X2819400Y12156175D01*
X2802470Y12121268D02*
G01*
X2810929Y12159109D01*
X2794000Y12149244D02*
G01*
X2802470Y12143579D01*
X2785529Y12160138D02*
G01*
X2794000Y12112117D01*
X2777070Y12153447D02*
G01*
X2785529Y12068863D01*
X2768600Y12130625D02*
G01*
X2777070Y12018987D01*
X2760129Y12094745D02*
G01*
X2768600Y11967989D01*
X2751670Y12049998D02*
G01*
X2760129Y11921114D01*
X2743200Y12001172D02*
G01*
X2751670Y11882821D01*
X2734729Y11953100D02*
G01*
X2743200Y11856405D01*
X2726270Y11910199D02*
G01*
X2734729Y11843778D01*
X2717800Y11876074D02*
G01*
X2726270Y11845460D01*
X2709329Y11853290D02*
G01*
X2717800Y11860646D01*
X2700870Y11843227D02*
G01*
X2709329Y11887410D01*
X2692400Y11846105D02*
G01*
X2700870Y11923011D01*
X2683929Y11861055D02*
G01*
X2692400Y11964187D01*
X2675470Y11886351D02*
G01*
X2683929Y12007514D01*
X2667000Y11919600D02*
G01*
X2675470Y12049663D01*
X2658529Y11958035D02*
G01*
X2667000Y12087684D01*
X2650070Y11998746D02*
G01*
X2658529Y12119155D01*
X2641600Y12038911D02*
G01*
X2650070Y12142309D01*
X2633129Y12075982D02*
G01*
X2641600Y12156119D01*
X2624670Y12107849D02*
G01*
X2633129Y12160224D01*
X2616200Y12132901D02*
G01*
X2624670Y12154923D01*
X2607729Y12150105D02*
G01*
X2616200Y12141050D01*
X2599270Y12158954D02*
G01*
X2607729Y12119874D01*
X2590800Y12159475D02*
G01*
X2599270Y12092947D01*
X2582329Y12152152D02*
G01*
X2590800Y12061997D01*
X2573870Y12137814D02*
G01*
X2582329Y12028797D01*
X2565400Y12117567D02*
G01*
X2573870Y11995050D01*
X2556929Y12092719D02*
G01*
X2565400Y11962320D01*
X2548470Y12064621D02*
G01*
X2556929Y11931959D01*
X2540000Y12034664D02*
G01*
X2548470Y11905079D01*
X2531529Y12004146D02*
G01*
X2540000Y11882511D01*
X2523070Y11974271D02*
G01*
X2531529Y11864814D01*
X2514600Y11946054D02*
G01*
X2523070Y11852280D01*
X2506129Y11920364D02*
G01*
X2514600Y11844982D01*
X2497670Y11897840D02*
G01*
X2506129Y11842755D01*
X2489200Y11878965D02*
G01*
X2497670Y11845292D01*
X2480729Y11863994D02*
G01*
X2489200Y11852145D01*
X2472270Y11853057D02*
G01*
X2480729Y11862760D01*
X2463800Y11846105D02*
G01*
X2472270Y11876547D01*
X2455329Y11842986D02*
G01*
X2463800Y11892861D01*
X2446870Y11843433D02*
G01*
X2455329Y11911098D01*
X2438400Y11847108D02*
G01*
X2446870Y11930639D01*
X2429929Y11853646D02*
G01*
X2438400Y11950928D01*
X2421470Y11862617D02*
G01*
X2429929Y11971467D01*
X2413000Y11873613D02*
G01*
X2421470Y11991807D01*
X2404529Y11886201D02*
G01*
X2413000Y12011571D01*
X2396070Y11899986D02*
G01*
X2404529Y12030453D01*
X2387600Y11914604D02*
G01*
X2396070Y12048220D01*
X2379129Y11929696D02*
G01*
X2387600Y12064690D01*
X2370670Y11944969D02*
G01*
X2379129Y12079752D01*
X2362200Y11960164D02*
G01*
X2370670Y12093338D01*
X2353729Y11975050D02*
G01*
X2362200Y12105431D01*
X2345270Y11989457D02*
G01*
X2353729Y12116041D01*
X2336800Y12003237D02*
G01*
X2345270Y12125225D01*
X2328329Y12016270D02*
G01*
X2336800Y12133046D01*
X2319870Y12028487D02*
G01*
X2328329Y12139607D01*
X2311400Y12039841D02*
G01*
X2319870Y12145007D01*
X2302929Y12050290D02*
G01*
X2311400Y12149361D01*
X2294470Y12059846D02*
G01*
X2302929Y12152790D01*
X2286000Y12068497D02*
G01*
X2294470Y12155401D01*
X2277529Y12076280D02*
G01*
X2286000Y12157329D01*
X2269070Y12083219D02*
G01*
X2277529Y12158667D01*
X2260600Y12089345D02*
G01*
X2269070Y12159536D01*
X2252129Y12094702D02*
G01*
X2260600Y12160026D01*
X2243670Y12099343D02*
G01*
X2252129Y12160232D01*
X2235200Y12103293D02*
G01*
X2243670Y12160224D01*
X2226729Y12106602D02*
G01*
X2235200Y12160082D01*
X2218270Y12109307D02*
G01*
X2226729Y12159871D01*
X2209800Y12111433D02*
G01*
X2218270Y12159630D01*
X2201329Y12113016D02*
G01*
X2209800Y12159406D01*
X2192870Y12114070D02*
G01*
X2201329Y12159234D01*
X2184400Y12114621D02*
G01*
X2192870Y12159134D01*
X2175929Y12114659D02*
G01*
X2184400Y12159109D01*
X2167470Y12114199D02*
G01*
X2175929Y12159178D01*
X2159000Y12113226D02*
G01*
X2167470Y12159312D01*
X2150529Y12111738D02*
G01*
X2159000Y12159518D01*
X2142070Y12109711D02*
G01*
X2150529Y12159754D01*
X2133600Y12107118D02*
G01*
X2142070Y12159983D01*
X2125129Y12103930D02*
G01*
X2133600Y12160168D01*
X2116670Y12100118D02*
G01*
X2125129Y12160250D01*
X2108200Y12095640D02*
G01*
X2116670Y12160163D01*
X2099729Y12090455D02*
G01*
X2108200Y12159833D01*
X2091270Y12084527D02*
G01*
X2099729Y12159183D01*
X2082800Y12077811D02*
G01*
X2091270Y12158116D01*
X2074329Y12070283D02*
G01*
X2082800Y12156528D01*
X2065870Y12061911D02*
G01*
X2074329Y12154334D01*
X2057400Y12052665D02*
G01*
X2065870Y12151400D01*
X2048929Y12042546D02*
G01*
X2057400Y12147636D01*
X2040470Y12031550D02*
G01*
X2048929Y12142911D01*
X2032000Y12019706D02*
G01*
X2040470Y12137125D01*
X2023529Y12007062D02*
G01*
X2032000Y12130173D01*
X2015070Y11993686D02*
G01*
X2023529Y12121951D01*
X1998129Y11965142D02*
G01*
X2006600Y12101438D01*
X1989670Y11950265D02*
G01*
X1998129Y12089048D01*
X1981200Y11935246D02*
G01*
X1989670Y12075213D01*
X1972729Y11920313D02*
G01*
X1981200Y12059983D01*
X1964270Y11905747D02*
G01*
X1972729Y12043432D01*
X1955800Y11891845D02*
G01*
X1964270Y12025683D01*
X1947329Y11878952D02*
G01*
X1955800Y12006925D01*
X1938870Y11867431D02*
G01*
X1947329Y11987405D01*
X1930400Y11857669D02*
G01*
X1938870Y11967418D01*
X1921929Y11850055D02*
G01*
X1930400Y11947339D01*
X1913470Y11844975D02*
G01*
X1921929Y11927580D01*
X1905000Y11842805D02*
G01*
X1913470Y11908637D01*
X1896529Y11843872D02*
G01*
X1905000Y11891025D01*
X1888070Y11848449D02*
G01*
X1896529Y11875305D01*
X1879600Y11856740D02*
G01*
X1888070Y11862066D01*
X1871129Y11868833D02*
G01*
X1879600Y11851871D01*
X1862670Y11884713D02*
G01*
X1871129Y11845274D01*
X1854200Y11904228D02*
G01*
X1862670Y11842762D01*
X1845729Y11927047D02*
G01*
X1854200Y11844746D01*
X1837270Y11952704D02*
G01*
X1845729Y11851512D01*
X1828800Y11980527D02*
G01*
X1837270Y11863189D01*
X1820329Y12009716D02*
G01*
X1828800Y11879745D01*
X1811870Y12039282D02*
G01*
X1820329Y11900923D01*
X1803400Y12068131D02*
G01*
X1811870Y11926229D01*
X1794929Y12095050D02*
G01*
X1803400Y11954967D01*
X1786470Y12118814D02*
G01*
X1794929Y11986158D01*
X1778000Y12138179D02*
G01*
X1786470Y12018639D01*
X1769529Y12152002D02*
G01*
X1778000Y12051047D01*
X1761070Y12159294D02*
G01*
X1769529Y12081880D01*
X1752600Y12159312D02*
G01*
X1761070Y12109549D01*
X1744129Y12151624D02*
G01*
X1752600Y12132505D01*
X1735670Y12136170D02*
G01*
X1744129Y12149274D01*
X1727200Y12113351D02*
G01*
X1735670Y12158619D01*
X1718729Y12084011D02*
G01*
X1727200Y12159592D01*
X1710270Y12049490D02*
G01*
X1718729Y12151692D01*
X1701800Y12011571D02*
G01*
X1710270Y12134905D01*
X1693329Y11972396D02*
G01*
X1701800Y12109785D01*
X1684870Y11934403D02*
G01*
X1693329Y12077494D01*
X1676400Y11900128D02*
G01*
X1684870Y12039785D01*
X1667929Y11872094D02*
G01*
X1676400Y11998919D01*
X1659470Y11852546D02*
G01*
X1667929Y11957588D01*
X1651000Y11843313D02*
G01*
X1659470Y11918739D01*
X1642529Y11845559D02*
G01*
X1651000Y11885350D01*
X1634070Y11859640D02*
G01*
X1642529Y11860217D01*
X1625600Y11884992D02*
G01*
X1634070Y11845696D01*
X1617129Y11920059D02*
G01*
X1625600Y11843420D01*
X1608670Y11962345D02*
G01*
X1617129Y11854124D01*
X1600200Y12008551D02*
G01*
X1608670Y11877451D01*
X1591729Y12054768D02*
G01*
X1600200Y11911898D01*
X1583270Y12096818D02*
G01*
X1591729Y11954830D01*
X1574800Y12130633D02*
G01*
X1583270Y12002615D01*
X1566329Y12152652D02*
G01*
X1574800Y12050923D01*
X1557870Y12160250D02*
G01*
X1566329Y12095055D01*
X1549400Y12152101D02*
G01*
X1557870Y12130440D01*
X1540929Y12128431D02*
G01*
X1549400Y12153112D01*
X1532470Y12091144D02*
G01*
X1540929Y12160199D01*
X1524000Y12043773D02*
G01*
X1532470Y12150354D01*
X1515529Y11991174D02*
G01*
X1524000Y12124029D01*
X1507070Y11939122D02*
G01*
X1515529Y12083602D01*
X1498600Y11893692D02*
G01*
X1507070Y12033250D01*
X1490129Y11860504D02*
G01*
X1498600Y11978573D01*
X1481670Y11844020D02*
G01*
X1490129Y11926056D01*
X1473200Y11846867D02*
G01*
X1481670Y11882277D01*
X1464729Y11869341D02*
G01*
X1473200Y11853080D01*
X1456270Y11909176D02*
G01*
X1464729Y11842750D01*
X1447800Y11961657D02*
G01*
X1456270Y11853273D01*
X1439329Y12020085D02*
G01*
X1447800Y11883900D01*
X1430870Y12076534D02*
G01*
X1439329Y11931060D01*
X1422400Y12122975D02*
G01*
X1430870Y11988614D01*
X1413929Y12152368D02*
G01*
X1422400Y12048596D01*
X1405470Y12159858D02*
G01*
X1413929Y12102269D01*
X1397000Y12143643D02*
G01*
X1405470Y12141372D01*
X1388529Y12105505D02*
G01*
X1397000Y12159487D01*
X1380070Y12050755D02*
G01*
X1388529Y12153150D01*
X1371600Y11987639D02*
G01*
X1380070Y12122645D01*
X1363129Y11926194D02*
G01*
X1371600Y12072231D01*
X1354670Y11876651D02*
G01*
X1363129Y12009673D01*
X1346200Y11847723D02*
G01*
X1354670Y11945162D01*
X1337729Y11844975D02*
G01*
X1346200Y11889747D01*
X1329270Y11869613D02*
G01*
X1337729Y11853359D01*
X1320800Y11917982D02*
G01*
X1329270Y11843016D01*
X1312329Y11981942D02*
G01*
X1320800Y11861304D01*
X1303870Y12050054D02*
G01*
X1312329Y11905604D01*
X1295400Y12109604D02*
G01*
X1303870Y11968286D01*
X1286929Y12148957D02*
G01*
X1295400Y12037832D01*
X1278470Y12159896D02*
G01*
X1286929Y12100892D01*
X1270000Y12139543D02*
G01*
X1278470Y12144801D01*
X1261529Y12091200D02*
G01*
X1270000Y12160244D01*
X1253070Y12024085D02*
G01*
X1261529Y12143333D01*
X1244600Y11951741D02*
G01*
X1253070Y12096793D01*
X1236129Y11889376D02*
G01*
X1244600Y12029739D01*
X1227670Y11850674D02*
G01*
X1236129Y11956107D01*
X1219200Y11844672D02*
G01*
X1227670Y11891825D01*
X1210729Y11873489D02*
G01*
X1219200Y11851401D01*
X1202270Y11931426D02*
G01*
X1210729Y11844505D01*
X1193800Y12005858D02*
G01*
X1202270Y11873501D01*
X1185329Y12079820D02*
G01*
X1193800Y11932480D01*
X1176870Y12135779D02*
G01*
X1185329Y12008172D01*
X1168400Y12159896D02*
G01*
X1176870Y12082802D01*
X1159929Y12145578D02*
G01*
X1168400Y12138174D01*
X1151470Y12095515D02*
G01*
X1159929Y12160176D01*
X1143000Y12021505D02*
G01*
X1151470Y12142558D01*
X1134529Y11941893D02*
G01*
X1143000Y12088949D01*
X1126070Y11877154D02*
G01*
X1134529Y12012414D01*
X1117600Y11844586D02*
G01*
X1126070Y11932511D01*
X1109129Y11853514D02*
G01*
X1117600Y11870400D01*
X1100670Y11902404D02*
G01*
X1109129Y11843176D01*
X1092200Y11978703D02*
G01*
X1100670Y11858995D01*
X1083729Y12061807D02*
G01*
X1092200Y11914360D01*
X1075270Y12128487D02*
G01*
X1083729Y11994522D01*
X1066800Y12159419D02*
G01*
X1075270Y12077171D01*
X1058329Y12144956D02*
G01*
X1066800Y12138520D01*
X1049870Y12088446D02*
G01*
X1058329Y12160219D01*
X1041400Y12005828D02*
G01*
X1049870Y12135078D01*
X1032929Y11921411D02*
G01*
X1041400Y12069732D01*
X1024470Y11860857D02*
G01*
X1032929Y11983275D01*
X1016000Y11843270D02*
G01*
X1024470Y11901914D01*
X1007529Y11874952D02*
G01*
X1016000Y11851109D01*
X999070Y11946798D02*
G01*
X1007529Y11847469D01*
X990600Y12036554D02*
G01*
X999070Y11893021D01*
X982129Y12115464D02*
G01*
X990600Y11973923D01*
X973670Y12157440D02*
G01*
X982129Y12064306D01*
X965200Y12147903D02*
G01*
X973670Y12134372D01*
X956729Y12089129D02*
G01*
X965200Y12160244D01*
X948270Y12000247D02*
G01*
X956729Y12132350D01*
X939800Y11911322D02*
G01*
X948270Y12059351D01*
X931329Y11853311D02*
G01*
X939800Y11965843D01*
X922870Y11847177D02*
G01*
X931329Y11884390D01*
X914400Y11895985D02*
G01*
X922870Y11844182D01*
X905929Y11983069D02*
G01*
X914400Y11860392D01*
X897470Y12077316D02*
G01*
X905929Y11928053D01*
X889000Y12144095D02*
G01*
X897470Y12023105D01*
X880529Y12158060D02*
G01*
X889000Y12110585D01*
X872070Y12113089D02*
G01*
X880529Y12157435D01*
X863600Y12025381D02*
G01*
X872070Y12145157D01*
X855129Y11928040D02*
G01*
X863600Y12077539D01*
X846670Y11858840D02*
G01*
X855129Y11980006D01*
X838200Y11845460D02*
G01*
X846670Y11890461D01*
X829729Y11894088D02*
G01*
X838200Y11844621D01*
X821270Y11986140D02*
G01*
X829729Y11861584D01*
X804329Y12149800D02*
G01*
X812800Y12036686D01*
X795870Y12153534D02*
G01*
X804329Y12123844D01*
X787400Y12093575D02*
G01*
X795870Y12160176D01*
X778929Y11994362D02*
G01*
X787400Y12129554D01*
X770470Y11897766D02*
G01*
X778929Y12044083D01*
X762000Y11845546D02*
G01*
X770470Y11939866D01*
X753529Y11861129D02*
G01*
X762000Y11862054D01*
X745070Y11938619D02*
G01*
X753529Y11845287D01*
X736600Y12044413D02*
G01*
X745070Y11897885D01*
X728129Y12131377D02*
G01*
X736600Y11997215D01*
X719670Y12159802D02*
G01*
X728129Y12098901D01*
X711200Y12115855D02*
G01*
X719670Y12156447D01*
X702729Y12018863D02*
G01*
X711200Y12142663D01*
X694270Y11913374D02*
G01*
X702729Y12062995D01*
X685800Y11848970D02*
G01*
X694270Y11954060D01*
X677329Y11856813D02*
G01*
X685800Y11867225D01*
X668870Y11934111D02*
G01*
X677329Y11844423D01*
X660400Y12044344D02*
G01*
X668870Y11897530D01*
X651929Y12134075D02*
G01*
X660400Y12001611D01*
X643470Y12158786D02*
G01*
X651929Y12106038D01*
X635000Y12105350D02*
G01*
X643470Y12158903D01*
X626529Y11999589D02*
G01*
X635000Y12133021D01*
X618070Y11894398D02*
G01*
X626529Y12040494D01*
X609600Y11843519D02*
G01*
X618070Y11927718D01*
X601129Y11873842D02*
G01*
X609600Y11852516D01*
X592670Y11970618D02*
G01*
X601129Y11854408D01*
X584200Y12083933D02*
G01*
X592670Y11933361D01*
X575729Y12154080D02*
G01*
X584200Y12048591D01*
X567270Y12143135D02*
G01*
X575729Y12139147D01*
X558800Y12056013D02*
G01*
X567270Y12156069D01*
X550329Y11939041D02*
G01*
X558800Y12089320D01*
X541870Y11855797D02*
G01*
X550329Y11974357D01*
X533400Y11852554D02*
G01*
X541870Y11873953D01*
X524929Y11932046D02*
G01*
X533400Y11844020D01*
X516470Y12050712D02*
G01*
X524929Y11902137D01*
X508000Y12141987D02*
G01*
X516470Y12016519D01*
X499529Y12153620D02*
G01*
X508000Y12122731D01*
X491070Y12078035D02*
G01*
X499529Y12159797D01*
X482600Y11957954D02*
G01*
X491070Y12105512D01*
X474129Y11862859D02*
G01*
X482600Y11990481D01*
X465670Y11848871D02*
G01*
X474129Y11881543D01*
X457200Y11925145D02*
G01*
X465670Y11843209D01*
X448729Y12047197D02*
G01*
X457200Y11899094D01*
X440270Y12142167D02*
G01*
X448729Y12016648D01*
X431800Y12152282D02*
G01*
X440270Y12125406D01*
X423329Y12070463D02*
G01*
X431800Y12158959D01*
X414870Y11946023D02*
G01*
X423329Y12095906D01*
X406400Y11855549D02*
G01*
X414870Y11974250D01*
X397929Y11855810D02*
G01*
X406400Y11869216D01*
X389470Y11947585D02*
G01*
X397929Y11846923D01*
X381000Y12073742D02*
G01*
X389470Y11922330D01*
X372529Y12154227D02*
G01*
X381000Y12048380D01*
X364070Y12136927D02*
G01*
X372529Y12144722D01*
X355600Y12032033D02*
G01*
X364070Y12148802D01*
X347129Y11906968D02*
G01*
X355600Y12057037D01*
X338670Y11843519D02*
G01*
X347129Y11928629D01*
X330200Y11884167D02*
G01*
X338670Y11847939D01*
X321729Y12002919D02*
G01*
X330200Y11869061D01*
X304800Y12158941D02*
G01*
X313270Y12104179D01*
X296329Y12090133D02*
G01*
X304800Y12160224D01*
X287870Y11960616D02*
G01*
X296329Y12108055D01*
X279400Y11858861D02*
G01*
X287870Y11982505D01*
X270929Y11855561D02*
G01*
X279400Y11869775D01*
X262470Y11953925D02*
G01*
X270929Y11848485D01*
X254000Y12085904D02*
G01*
X262470Y11934416D01*
X245529Y12158649D02*
G01*
X254000Y12067895D01*
X237070Y12119935D02*
G01*
X245529Y12154562D01*
X228600Y11996453D02*
G01*
X237070Y12132040D01*
X220129Y11876293D02*
G01*
X228600Y12015558D01*
X211670Y11846501D02*
G01*
X220129Y11888607D01*
X203200Y11929579D02*
G01*
X211670Y11843593D01*
X194729Y12065594D02*
G01*
X203200Y11914225D01*
X186270Y12154649D02*
G01*
X194729Y12049404D01*
X177800Y12130217D02*
G01*
X186270Y12149353D01*
X169329Y12009579D02*
G01*
X177800Y12139122D01*
X160870Y11882592D02*
G01*
X169329Y12025467D01*
X152400Y11845206D02*
G01*
X160870Y11893433D01*
X143929Y11926620D02*
G01*
X152400Y11843270D01*
X135470Y12065515D02*
G01*
X143929Y11914050D01*
X127000Y12155444D02*
G01*
X135470Y12052287D01*
X118529Y12126379D02*
G01*
X127000Y12151517D01*
X110070Y11999986D02*
G01*
X118529Y12134148D01*
X101600Y11874500D02*
G01*
X110070Y12012841D01*
X93129Y11848802D02*
G01*
X101600Y11882338D01*
X84670Y11944065D02*
G01*
X93129Y11845968D01*
X76200Y12085302D02*
G01*
X84670Y11933461D01*
X67729Y12159668D02*
G01*
X76200Y12075673D01*
X59270Y12106696D02*
G01*
X67729Y12158400D01*
X50800Y11968342D02*
G01*
X59270Y12114138D01*
X42329Y11856727D02*
G01*
X50800Y11977979D01*
X33870Y11863547D02*
G01*
X42329Y11860814D01*
X25400Y11984075D02*
G01*
X33870Y11859351D01*
X16929Y12119284D02*
G01*
X25400Y11975665D01*
X8470Y12156627D02*
G01*
X16929Y12113734D01*
X0Y12064100D02*
G01*
X8470Y12158073D01*
X-8470Y11918665D02*
G01*
X0Y12070648D01*
X6011329Y11878177D02*
G01*
X6019800Y11851345D01*
D11*
G01*
X736600Y12573000D03*
G01*
X736600Y330200D03*
G01*
X5308600Y12573000D03*
G01*
X5308600Y330200D03*
M02*
