G04 Layer: TopSilkscreenLayer*
G04 EasyEDA v6.5.29, 2023-07-16 15:11:24*
G04 b1c9531ddfa049bd996740377cd84ce5,5a6b42c53f6a479593ecc07194224c93,10*
G04 Gerber Generator version 0.2*
G04 Scale: 100 percent, Rotated: No, Reflected: No *
G04 Dimensions in millimeters *
G04 leading zeros omitted , absolute positions ,4 integer and 5 decimal *
%FSLAX45Y45*%
%MOMM*%

%ADD10C,0.2540*%

%LPD*%
G36*
X1760474Y12709499D02*
G01*
X1753819Y12709347D01*
X1746605Y12708788D01*
X1739036Y12707772D01*
X1731365Y12706400D01*
X1723898Y12704622D01*
X1716786Y12702489D01*
X1710334Y12700000D01*
X1702206Y12695834D01*
X1692859Y12690144D01*
X1682699Y12683134D01*
X1672132Y12675260D01*
X1661566Y12666675D01*
X1651355Y12657836D01*
X1641906Y12648946D01*
X1633677Y12640310D01*
X1626514Y12631572D01*
X1596339Y12592253D01*
X1552346Y12533833D01*
X1532636Y12508280D01*
X1517904Y12489942D01*
X1512417Y12483490D01*
X1508150Y12478867D01*
X1505153Y12476022D01*
X1503426Y12475006D01*
X1503019Y12475210D01*
X1503172Y12476886D01*
X1540306Y12578334D01*
X1550568Y12605308D01*
X1559560Y12627864D01*
X1567332Y12645440D01*
X1570532Y12651028D01*
X1574546Y12656921D01*
X1579168Y12663017D01*
X1584299Y12669113D01*
X1589684Y12675057D01*
X1595272Y12680696D01*
X1600860Y12685928D01*
X1606296Y12690551D01*
X1611376Y12694361D01*
X1615998Y12697307D01*
X1620012Y12699187D01*
X1625955Y12700203D01*
X1628241Y12701270D01*
X1629765Y12702743D01*
X1630324Y12704622D01*
X1629562Y12707264D01*
X1627174Y12708788D01*
X1623263Y12709194D01*
X1617929Y12708432D01*
X1611071Y12706553D01*
X1602841Y12703505D01*
X1593240Y12699390D01*
X1582318Y12694208D01*
X1573631Y12689586D01*
X1565097Y12684404D01*
X1556613Y12678664D01*
X1548180Y12672364D01*
X1539798Y12665405D01*
X1531518Y12657886D01*
X1523187Y12649708D01*
X1514856Y12640818D01*
X1506575Y12631318D01*
X1498193Y12621107D01*
X1489811Y12610185D01*
X1481328Y12598552D01*
X1472793Y12586208D01*
X1428394Y12518491D01*
X1419148Y12504877D01*
X1410919Y12493193D01*
X1403654Y12483338D01*
X1397152Y12475006D01*
X1391310Y12468047D01*
X1385925Y12462306D01*
X1380845Y12457531D01*
X1375968Y12453569D01*
X1371142Y12450165D01*
X1362557Y12444933D01*
X1355191Y12441224D01*
X1348994Y12438989D01*
X1343964Y12438227D01*
X1340104Y12438938D01*
X1337360Y12441123D01*
X1335735Y12444831D01*
X1334668Y12454890D01*
X1333296Y12458954D01*
X1331112Y12462103D01*
X1328267Y12464288D01*
X1325016Y12465456D01*
X1321358Y12465456D01*
X1317548Y12464237D01*
X1313738Y12461748D01*
X1308506Y12456312D01*
X1307134Y12451181D01*
X1309674Y12445390D01*
X1316177Y12437973D01*
X1320901Y12434011D01*
X1326083Y12431166D01*
X1331772Y12429490D01*
X1337919Y12428880D01*
X1344625Y12429439D01*
X1351889Y12431115D01*
X1359763Y12433909D01*
X1368196Y12437821D01*
X1375511Y12442037D01*
X1382826Y12447219D01*
X1390192Y12453569D01*
X1397762Y12461189D01*
X1405636Y12470130D01*
X1413916Y12480594D01*
X1422654Y12492685D01*
X1432001Y12506502D01*
X1442059Y12522200D01*
X1461262Y12553442D01*
X1469440Y12566396D01*
X1477467Y12578638D01*
X1493164Y12601092D01*
X1500784Y12611354D01*
X1508252Y12620904D01*
X1515618Y12629845D01*
X1522780Y12638074D01*
X1529892Y12645694D01*
X1536801Y12652603D01*
X1543608Y12658852D01*
X1556562Y12669977D01*
X1565656Y12677190D01*
X1568754Y12679324D01*
X1570786Y12680442D01*
X1571853Y12680543D01*
X1571802Y12679629D01*
X1570634Y12677698D01*
X1565046Y12670688D01*
X1551940Y12655854D01*
X1546910Y12649606D01*
X1542288Y12643307D01*
X1538020Y12636703D01*
X1533956Y12629591D01*
X1530045Y12621768D01*
X1526133Y12612979D01*
X1522171Y12603022D01*
X1513636Y12578537D01*
X1503527Y12546533D01*
X1492707Y12510566D01*
X1486814Y12492431D01*
X1478889Y12470536D01*
X1475384Y12461849D01*
X1468983Y12448032D01*
X1466392Y12441174D01*
X1464919Y12435636D01*
X1464818Y12432284D01*
X1465580Y12431471D01*
X1466951Y12431471D01*
X1468932Y12432233D01*
X1471472Y12433655D01*
X1478026Y12438430D01*
X1486154Y12445441D01*
X1495501Y12454280D01*
X1505712Y12464542D01*
X1516329Y12475921D01*
X1527048Y12487960D01*
X1537360Y12500305D01*
X1553108Y12520726D01*
X1609547Y12595504D01*
X1618691Y12606883D01*
X1627987Y12617958D01*
X1646529Y12638582D01*
X1655622Y12647930D01*
X1664360Y12656464D01*
X1672691Y12664135D01*
X1680514Y12670739D01*
X1687728Y12676276D01*
X1703476Y12687452D01*
X1681734Y12658547D01*
X1676755Y12650825D01*
X1671015Y12641072D01*
X1658010Y12617196D01*
X1651203Y12603784D01*
X1637893Y12575844D01*
X1619097Y12534747D01*
X1607007Y12510211D01*
X1596898Y12491110D01*
X1591513Y12482169D01*
X1586941Y12475921D01*
X1582166Y12469977D01*
X1577238Y12464389D01*
X1572158Y12459208D01*
X1567129Y12454534D01*
X1562100Y12450419D01*
X1557274Y12446914D01*
X1552651Y12444069D01*
X1548333Y12441986D01*
X1544421Y12440716D01*
X1541018Y12440259D01*
X1529791Y12442139D01*
X1522323Y12440666D01*
X1518107Y12437313D01*
X1519224Y12432893D01*
X1520850Y12431979D01*
X1523492Y12431268D01*
X1531518Y12430607D01*
X1542440Y12430810D01*
X1555496Y12431776D01*
X1569923Y12433401D01*
X1584960Y12435586D01*
X1599692Y12438227D01*
X1613458Y12441224D01*
X1625396Y12444476D01*
X1634744Y12447828D01*
X1639722Y12450267D01*
X1644954Y12453213D01*
X1650339Y12456617D01*
X1655876Y12460427D01*
X1667052Y12469114D01*
X1678076Y12478867D01*
X1688541Y12489281D01*
X1693367Y12494564D01*
X1702054Y12505131D01*
X1705762Y12510312D01*
X1709013Y12515291D01*
X1711756Y12520117D01*
X1716481Y12530226D01*
X1717649Y12533630D01*
X1718056Y12535966D01*
X1717802Y12537186D01*
X1716887Y12537389D01*
X1715363Y12536474D01*
X1713331Y12534595D01*
X1707642Y12527686D01*
X1696618Y12511227D01*
X1688642Y12500610D01*
X1679905Y12490704D01*
X1670456Y12481509D01*
X1660448Y12473178D01*
X1649933Y12465710D01*
X1639011Y12459208D01*
X1633474Y12456363D01*
X1622145Y12451435D01*
X1616405Y12449403D01*
X1604924Y12446203D01*
X1591106Y12443663D01*
X1570837Y12439396D01*
X1568551Y12439497D01*
X1569567Y12441682D01*
X1573580Y12445695D01*
X1592834Y12460986D01*
X1600403Y12467793D01*
X1607413Y12474905D01*
X1614068Y12482423D01*
X1620316Y12490450D01*
X1626362Y12499136D01*
X1632204Y12508636D01*
X1637944Y12518999D01*
X1643684Y12530429D01*
X1649526Y12542926D01*
X1668881Y12588290D01*
X1675688Y12603378D01*
X1682496Y12617500D01*
X1689201Y12630658D01*
X1695805Y12642799D01*
X1702257Y12653822D01*
X1708556Y12663678D01*
X1714601Y12672314D01*
X1720392Y12679730D01*
X1728063Y12688062D01*
X1732280Y12692075D01*
X1736089Y12695123D01*
X1739696Y12697256D01*
X1743354Y12698577D01*
X1747316Y12699238D01*
X1751787Y12699390D01*
X1764588Y12698780D01*
X1770532Y12699492D01*
X1774596Y12701016D01*
X1776679Y12703403D01*
X1776526Y12705588D01*
X1774596Y12707264D01*
X1771091Y12708483D01*
X1766316Y12709194D01*
G37*
G36*
X1826717Y12709398D02*
G01*
X1824837Y12709093D01*
X1822957Y12708229D01*
X1821027Y12706654D01*
X1818944Y12704216D01*
X1816760Y12700914D01*
X1814322Y12696596D01*
X1808581Y12684556D01*
X1801368Y12667234D01*
X1726590Y12474600D01*
X1719783Y12456515D01*
X1715465Y12443917D01*
X1713331Y12435789D01*
X1713026Y12433096D01*
X1713179Y12431166D01*
X1713788Y12429845D01*
X1714754Y12429032D01*
X1716074Y12428626D01*
X1719681Y12428474D01*
X1723898Y12429439D01*
X1727707Y12432334D01*
X1731010Y12437211D01*
X1733854Y12443917D01*
X1740204Y12461849D01*
X1832813Y12701066D01*
X1833829Y12704978D01*
X1833270Y12707518D01*
X1830933Y12708940D01*
G37*
G36*
X3919778Y12709347D02*
G01*
X3915867Y12709093D01*
X3911295Y12708432D01*
X3900830Y12705892D01*
X3895191Y12704114D01*
X3884117Y12699898D01*
X3878986Y12697510D01*
X3873652Y12694615D01*
X3868674Y12691567D01*
X3864051Y12688316D01*
X3859733Y12684810D01*
X3855720Y12681051D01*
X3852062Y12676987D01*
X3848709Y12672720D01*
X3845661Y12668148D01*
X3842918Y12663271D01*
X3840479Y12658090D01*
X3838295Y12652552D01*
X3836365Y12646710D01*
X3834739Y12640513D01*
X3833317Y12633960D01*
X3831285Y12619685D01*
X3828287Y12590830D01*
X3794556Y12574727D01*
X3787749Y12571171D01*
X3775151Y12563703D01*
X3769360Y12559893D01*
X3758844Y12552019D01*
X3754069Y12548006D01*
X3749649Y12543942D01*
X3741928Y12535611D01*
X3738575Y12531394D01*
X3735628Y12527127D01*
X3732987Y12522809D01*
X3730751Y12518491D01*
X3728872Y12514122D01*
X3727348Y12509754D01*
X3726179Y12505334D01*
X3725418Y12500914D01*
X3725011Y12496495D01*
X3725011Y12492075D01*
X3725367Y12487656D01*
X3726129Y12483185D01*
X3727246Y12478766D01*
X3728770Y12474397D01*
X3730701Y12469977D01*
X3733037Y12465608D01*
X3735730Y12461290D01*
X3738676Y12457176D01*
X3741826Y12453366D01*
X3745128Y12449860D01*
X3748633Y12446660D01*
X3752392Y12443714D01*
X3756355Y12441072D01*
X3760571Y12438684D01*
X3764991Y12436551D01*
X3769715Y12434722D01*
X3774744Y12433147D01*
X3780028Y12431776D01*
X3785615Y12430709D01*
X3791559Y12429845D01*
X3804412Y12428829D01*
X3811320Y12428677D01*
X3818483Y12428829D01*
X3825595Y12429286D01*
X3832606Y12430099D01*
X3839565Y12431217D01*
X3846423Y12432690D01*
X3853129Y12434468D01*
X3859682Y12436551D01*
X3866083Y12438888D01*
X3872280Y12441529D01*
X3878275Y12444425D01*
X3884066Y12447574D01*
X3889603Y12450978D01*
X3894836Y12454636D01*
X3899814Y12458496D01*
X3904487Y12462611D01*
X3908856Y12466878D01*
X3912870Y12471400D01*
X3916476Y12476073D01*
X3919728Y12480899D01*
X3922572Y12485928D01*
X3925773Y12492685D01*
X3927906Y12498578D01*
X3928922Y12503861D01*
X3928719Y12508738D01*
X3927348Y12513462D01*
X3924757Y12518186D01*
X3920845Y12523266D01*
X3915613Y12528804D01*
X3911447Y12532461D01*
X3906926Y12535560D01*
X3901998Y12537998D01*
X3896868Y12539878D01*
X3891483Y12541199D01*
X3885895Y12541910D01*
X3880154Y12542062D01*
X3874363Y12541656D01*
X3868470Y12540640D01*
X3862628Y12539116D01*
X3856837Y12537033D01*
X3851148Y12534442D01*
X3845610Y12531242D01*
X3840226Y12527584D01*
X3835095Y12523317D01*
X3830320Y12518593D01*
X3825494Y12513056D01*
X3822750Y12509093D01*
X3821937Y12506706D01*
X3822903Y12505893D01*
X3825443Y12506604D01*
X3829507Y12508941D01*
X3834892Y12512802D01*
X3846322Y12522149D01*
X3851351Y12525451D01*
X3856482Y12528194D01*
X3861714Y12530378D01*
X3866896Y12532004D01*
X3872026Y12533020D01*
X3876903Y12533426D01*
X3881577Y12533274D01*
X3885895Y12532461D01*
X3889857Y12530988D01*
X3893261Y12528905D01*
X3896106Y12526213D01*
X3898950Y12521387D01*
X3900779Y12515189D01*
X3901694Y12508026D01*
X3901643Y12500305D01*
X3900678Y12492431D01*
X3898849Y12484811D01*
X3896207Y12477800D01*
X3892702Y12471908D01*
X3888892Y12467234D01*
X3884676Y12462865D01*
X3880104Y12458852D01*
X3875227Y12455144D01*
X3870045Y12451791D01*
X3864559Y12448743D01*
X3858920Y12446101D01*
X3853078Y12443815D01*
X3847084Y12441885D01*
X3840987Y12440310D01*
X3834790Y12439142D01*
X3828643Y12438380D01*
X3822446Y12438024D01*
X3816350Y12438075D01*
X3810304Y12438583D01*
X3804412Y12439497D01*
X3798671Y12440818D01*
X3793185Y12442647D01*
X3787901Y12444882D01*
X3782872Y12447625D01*
X3778097Y12450927D01*
X3773678Y12454737D01*
X3769664Y12459055D01*
X3766058Y12463780D01*
X3762959Y12468809D01*
X3760266Y12474143D01*
X3758133Y12479731D01*
X3756507Y12485471D01*
X3755440Y12491313D01*
X3754932Y12497206D01*
X3755085Y12503150D01*
X3755796Y12508992D01*
X3756964Y12514529D01*
X3758336Y12519761D01*
X3759962Y12524689D01*
X3761790Y12529362D01*
X3763975Y12533782D01*
X3766464Y12537998D01*
X3769309Y12542062D01*
X3772509Y12545974D01*
X3776116Y12549733D01*
X3780129Y12553442D01*
X3789629Y12560706D01*
X3801110Y12567970D01*
X3828287Y12582906D01*
X3833977Y12586309D01*
X3839057Y12589662D01*
X3843528Y12592964D01*
X3847439Y12596266D01*
X3850843Y12599619D01*
X3853687Y12603022D01*
X3856126Y12606578D01*
X3858107Y12610287D01*
X3859733Y12614198D01*
X3860952Y12618364D01*
X3861866Y12622834D01*
X3862476Y12627660D01*
X3863136Y12643967D01*
X3863848Y12649301D01*
X3865016Y12654483D01*
X3866591Y12659461D01*
X3868521Y12664236D01*
X3870858Y12668808D01*
X3873500Y12673126D01*
X3876446Y12677190D01*
X3879697Y12681000D01*
X3883151Y12684506D01*
X3886860Y12687655D01*
X3890772Y12690551D01*
X3894836Y12693040D01*
X3899052Y12695224D01*
X3903370Y12696952D01*
X3907739Y12698323D01*
X3912209Y12699238D01*
X3916679Y12699746D01*
X3921201Y12699796D01*
X3925671Y12699339D01*
X3930091Y12698425D01*
X3934409Y12696952D01*
X3938676Y12694970D01*
X3942740Y12692430D01*
X3946753Y12688824D01*
X3949801Y12684353D01*
X3951884Y12679070D01*
X3953052Y12673126D01*
X3953256Y12666675D01*
X3952494Y12659868D01*
X3950715Y12652756D01*
X3947922Y12645542D01*
X3944721Y12640564D01*
X3939895Y12635585D01*
X3933901Y12630861D01*
X3927246Y12626695D01*
X3920337Y12623342D01*
X3913733Y12621056D01*
X3907840Y12620091D01*
X3903167Y12620701D01*
X3900424Y12621361D01*
X3897731Y12621310D01*
X3895547Y12620599D01*
X3894023Y12619228D01*
X3893565Y12616942D01*
X3895039Y12615062D01*
X3898087Y12613640D01*
X3902405Y12612674D01*
X3907790Y12612268D01*
X3913835Y12612420D01*
X3920236Y12613182D01*
X3926738Y12614656D01*
X3932986Y12616637D01*
X3938930Y12619126D01*
X3944569Y12622072D01*
X3949852Y12625374D01*
X3954729Y12628981D01*
X3959148Y12632944D01*
X3963162Y12637109D01*
X3966667Y12641529D01*
X3969664Y12646050D01*
X3972051Y12650724D01*
X3973931Y12655448D01*
X3975150Y12660223D01*
X3975709Y12664998D01*
X3975557Y12669672D01*
X3974744Y12674244D01*
X3973169Y12678664D01*
X3970985Y12682626D01*
X3968089Y12686487D01*
X3964635Y12690195D01*
X3960622Y12693700D01*
X3956202Y12697002D01*
X3951427Y12700000D01*
X3946347Y12702641D01*
X3941114Y12704927D01*
X3935729Y12706807D01*
X3930345Y12708178D01*
X3924960Y12709042D01*
G37*
G36*
X2004314Y12709093D02*
G01*
X1997710Y12708839D01*
X1990953Y12707975D01*
X1984146Y12706502D01*
X1977237Y12704470D01*
X1970328Y12701879D01*
X1963420Y12698679D01*
X1957171Y12695224D01*
X1951329Y12691364D01*
X1945944Y12687198D01*
X1941068Y12682626D01*
X1936597Y12677749D01*
X1932584Y12672517D01*
X1929028Y12666929D01*
X1925929Y12660985D01*
X1923338Y12654737D01*
X1921154Y12648184D01*
X1919528Y12641275D01*
X1918309Y12634010D01*
X1915820Y12615926D01*
X1914601Y12609068D01*
X1913178Y12603327D01*
X1911400Y12598501D01*
X1909216Y12594488D01*
X1906473Y12590983D01*
X1902968Y12587782D01*
X1898599Y12584684D01*
X1893214Y12581534D01*
X1878990Y12574117D01*
X1864360Y12566192D01*
X1857756Y12562179D01*
X1851609Y12558115D01*
X1845919Y12554000D01*
X1840687Y12549886D01*
X1835861Y12545669D01*
X1831543Y12541453D01*
X1827631Y12537186D01*
X1824177Y12532817D01*
X1821180Y12528448D01*
X1818639Y12523978D01*
X1816455Y12519456D01*
X1814779Y12514884D01*
X1813509Y12510211D01*
X1812645Y12505486D01*
X1811934Y12499289D01*
X1811629Y12493345D01*
X1811629Y12487757D01*
X1812036Y12482474D01*
X1812798Y12477445D01*
X1813966Y12472670D01*
X1815490Y12468148D01*
X1817420Y12463881D01*
X1819706Y12459817D01*
X1822450Y12455956D01*
X1825599Y12452248D01*
X1829206Y12448794D01*
X1833219Y12445441D01*
X1837639Y12442240D01*
X1842516Y12439243D01*
X1847900Y12436297D01*
X1851609Y12434671D01*
X1856028Y12433198D01*
X1861007Y12431928D01*
X1866493Y12430861D01*
X1878634Y12429337D01*
X1891741Y12428575D01*
X1905152Y12428626D01*
X1918157Y12429540D01*
X1924304Y12430302D01*
X1935429Y12432487D01*
X1940255Y12433909D01*
X1945741Y12436043D01*
X1951532Y12438684D01*
X1957476Y12441783D01*
X1963470Y12445288D01*
X1975307Y12453264D01*
X1986229Y12462002D01*
X1991106Y12466472D01*
X1995525Y12470942D01*
X1999284Y12475311D01*
X2002383Y12479528D01*
X2005482Y12484709D01*
X2007870Y12489840D01*
X2009546Y12494920D01*
X2010562Y12499797D01*
X2010968Y12504572D01*
X2010816Y12509195D01*
X2010054Y12513614D01*
X2008733Y12517780D01*
X2006955Y12521742D01*
X2004618Y12525400D01*
X2001875Y12528804D01*
X1998675Y12531852D01*
X1995119Y12534595D01*
X1991156Y12536982D01*
X1986838Y12538913D01*
X1982216Y12540488D01*
X1977339Y12541605D01*
X1972157Y12542316D01*
X1966772Y12542469D01*
X1961184Y12542164D01*
X1955393Y12541300D01*
X1949500Y12539878D01*
X1943455Y12537846D01*
X1937359Y12535255D01*
X1930704Y12531750D01*
X1924507Y12527737D01*
X1918919Y12523520D01*
X1914194Y12519253D01*
X1910537Y12515138D01*
X1908149Y12511481D01*
X1907286Y12508382D01*
X1908098Y12506147D01*
X1909825Y12505486D01*
X1912061Y12506045D01*
X1914652Y12507671D01*
X1921459Y12514884D01*
X1926336Y12519253D01*
X1931670Y12523165D01*
X1937257Y12526518D01*
X1943049Y12529312D01*
X1948789Y12531394D01*
X1954326Y12532715D01*
X1959508Y12533223D01*
X1964588Y12532868D01*
X1969160Y12531953D01*
X1973224Y12530429D01*
X1976729Y12528448D01*
X1979726Y12525908D01*
X1982216Y12523012D01*
X1984197Y12519660D01*
X1985721Y12516002D01*
X1986737Y12512090D01*
X1987245Y12507874D01*
X1987296Y12503454D01*
X1986889Y12498882D01*
X1986025Y12494209D01*
X1984705Y12489434D01*
X1982927Y12484658D01*
X1980692Y12479883D01*
X1977999Y12475159D01*
X1974900Y12470587D01*
X1971395Y12466116D01*
X1967433Y12461900D01*
X1963064Y12457887D01*
X1958339Y12454178D01*
X1953158Y12450826D01*
X1947570Y12447828D01*
X1941982Y12445339D01*
X1936343Y12443206D01*
X1930755Y12441428D01*
X1925167Y12440056D01*
X1919579Y12439040D01*
X1914093Y12438329D01*
X1908657Y12438024D01*
X1903323Y12438075D01*
X1898091Y12438430D01*
X1893011Y12439091D01*
X1888032Y12440107D01*
X1883206Y12441377D01*
X1878533Y12443002D01*
X1874062Y12444933D01*
X1869795Y12447117D01*
X1865731Y12449556D01*
X1861921Y12452299D01*
X1858365Y12455347D01*
X1855012Y12458598D01*
X1852015Y12462103D01*
X1849272Y12465862D01*
X1846834Y12469876D01*
X1844751Y12474092D01*
X1843024Y12478562D01*
X1841601Y12483185D01*
X1840636Y12488062D01*
X1839975Y12493142D01*
X1839772Y12498374D01*
X1839975Y12505080D01*
X1840484Y12511379D01*
X1841398Y12517323D01*
X1842719Y12522911D01*
X1844446Y12528143D01*
X1846681Y12533172D01*
X1849374Y12537948D01*
X1852625Y12542469D01*
X1856384Y12546888D01*
X1860753Y12551156D01*
X1865680Y12555270D01*
X1871268Y12559385D01*
X1877517Y12563449D01*
X1884425Y12567513D01*
X1892046Y12571628D01*
X1908302Y12579807D01*
X1915261Y12583668D01*
X1921357Y12587528D01*
X1926691Y12591338D01*
X1931162Y12595250D01*
X1934972Y12599263D01*
X1938070Y12603429D01*
X1940509Y12607798D01*
X1942338Y12612420D01*
X1943607Y12617348D01*
X1944370Y12622631D01*
X1944979Y12634569D01*
X1945893Y12641021D01*
X1947418Y12647523D01*
X1949399Y12653975D01*
X1951837Y12660274D01*
X1954682Y12666370D01*
X1957832Y12672110D01*
X1961337Y12677394D01*
X1965045Y12682169D01*
X1968957Y12686334D01*
X1973021Y12689789D01*
X1977237Y12692380D01*
X1984044Y12695428D01*
X1991004Y12697612D01*
X1997862Y12698933D01*
X2004618Y12699390D01*
X2011070Y12698933D01*
X2017166Y12697663D01*
X2022754Y12695478D01*
X2027732Y12692430D01*
X2031390Y12688265D01*
X2034133Y12682423D01*
X2035962Y12675412D01*
X2036775Y12667691D01*
X2036622Y12659817D01*
X2035454Y12652197D01*
X2033219Y12645491D01*
X2029968Y12640056D01*
X2025802Y12635788D01*
X2020620Y12631775D01*
X2014728Y12628118D01*
X2008530Y12624968D01*
X2002332Y12622479D01*
X1996439Y12620802D01*
X1991156Y12620040D01*
X1986788Y12620447D01*
X1983333Y12621056D01*
X1980488Y12621006D01*
X1978558Y12620294D01*
X1977847Y12619024D01*
X1978660Y12616688D01*
X1981098Y12614808D01*
X1984756Y12613487D01*
X1989531Y12612624D01*
X1995119Y12612319D01*
X2001266Y12612624D01*
X2007819Y12613487D01*
X2014474Y12615011D01*
X2022297Y12617958D01*
X2030780Y12622428D01*
X2038857Y12627813D01*
X2045563Y12633553D01*
X2049475Y12637617D01*
X2052523Y12641326D01*
X2054860Y12644882D01*
X2056485Y12648488D01*
X2057552Y12652349D01*
X2058060Y12656667D01*
X2058162Y12661595D01*
X2057857Y12667488D01*
X2057298Y12673279D01*
X2056485Y12678156D01*
X2055266Y12682321D01*
X2053640Y12685877D01*
X2051405Y12689128D01*
X2048510Y12692176D01*
X2044801Y12695275D01*
X2040229Y12698526D01*
X2034844Y12701727D01*
X2029155Y12704368D01*
X2023262Y12706451D01*
X2017115Y12707924D01*
X2010816Y12708788D01*
G37*
G36*
X2573528Y12695072D02*
G01*
X2446121Y12694412D01*
X2413000Y12693548D01*
X2399233Y12692938D01*
X2387041Y12692126D01*
X2376068Y12691110D01*
X2366213Y12689890D01*
X2357069Y12688468D01*
X2348534Y12686792D01*
X2335377Y12683642D01*
X2318359Y12678918D01*
X2310333Y12676428D01*
X2295245Y12671094D01*
X2281529Y12665354D01*
X2275128Y12662357D01*
X2263292Y12656007D01*
X2252827Y12649250D01*
X2248052Y12645745D01*
X2239518Y12638379D01*
X2235758Y12634569D01*
X2232304Y12630607D01*
X2229154Y12626594D01*
X2226360Y12622479D01*
X2223922Y12618262D01*
X2221788Y12613944D01*
X2219960Y12609525D01*
X2218486Y12605004D01*
X2217318Y12600381D01*
X2216505Y12595656D01*
X2215997Y12590830D01*
X2215845Y12585903D01*
X2216251Y12577419D01*
X2217267Y12569088D01*
X2218842Y12561874D01*
X2220772Y12556744D01*
X2222906Y12553340D01*
X2225548Y12550190D01*
X2228646Y12547295D01*
X2232202Y12544704D01*
X2236114Y12542418D01*
X2240381Y12540386D01*
X2244953Y12538608D01*
X2249830Y12537084D01*
X2254961Y12535865D01*
X2260346Y12534900D01*
X2265883Y12534188D01*
X2271572Y12533731D01*
X2277364Y12533579D01*
X2289251Y12534036D01*
X2301189Y12535509D01*
X2307082Y12536627D01*
X2312924Y12537998D01*
X2318664Y12539624D01*
X2329637Y12543688D01*
X2334768Y12546076D01*
X2339695Y12548717D01*
X2344369Y12551613D01*
X2348687Y12554762D01*
X2352649Y12558115D01*
X2356256Y12561773D01*
X2359710Y12566294D01*
X2363216Y12572339D01*
X2366772Y12579451D01*
X2370023Y12587224D01*
X2372918Y12595098D01*
X2375255Y12602718D01*
X2376830Y12609626D01*
X2377490Y12615316D01*
X2377236Y12620294D01*
X2376322Y12623088D01*
X2374950Y12624003D01*
X2373223Y12623139D01*
X2371293Y12620650D01*
X2369464Y12616688D01*
X2367737Y12611404D01*
X2365298Y12599466D01*
X2363774Y12594132D01*
X2361844Y12589002D01*
X2359507Y12584074D01*
X2356815Y12579400D01*
X2353716Y12574930D01*
X2350312Y12570663D01*
X2346502Y12566700D01*
X2342438Y12562941D01*
X2337968Y12559436D01*
X2333244Y12556236D01*
X2328265Y12553340D01*
X2322931Y12550698D01*
X2317394Y12548362D01*
X2311552Y12546330D01*
X2305507Y12544653D01*
X2299208Y12543282D01*
X2292705Y12542215D01*
X2285949Y12541554D01*
X2279040Y12541199D01*
X2270658Y12541300D01*
X2263038Y12541910D01*
X2256231Y12543129D01*
X2250135Y12544907D01*
X2244801Y12547346D01*
X2240178Y12550343D01*
X2236266Y12554051D01*
X2233015Y12558369D01*
X2230424Y12563348D01*
X2228443Y12569037D01*
X2227072Y12575438D01*
X2226310Y12582550D01*
X2226106Y12593624D01*
X2227326Y12602768D01*
X2229967Y12610693D01*
X2234285Y12618059D01*
X2236673Y12621056D01*
X2239619Y12624206D01*
X2246934Y12630556D01*
X2255875Y12636957D01*
X2265984Y12643154D01*
X2277008Y12648895D01*
X2288438Y12654076D01*
X2299970Y12658394D01*
X2311247Y12661696D01*
X2322322Y12664033D01*
X2335479Y12666218D01*
X2350058Y12668199D01*
X2365603Y12669977D01*
X2381554Y12671399D01*
X2397302Y12672517D01*
X2412390Y12673279D01*
X2426157Y12673634D01*
X2438146Y12673482D01*
X2447747Y12672822D01*
X2472588Y12670028D01*
X2450998Y12654280D01*
X2443734Y12648336D01*
X2436418Y12641630D01*
X2429052Y12634163D01*
X2421585Y12625984D01*
X2414066Y12616992D01*
X2406446Y12607239D01*
X2398725Y12596672D01*
X2390952Y12585293D01*
X2382977Y12573101D01*
X2373223Y12557455D01*
X2362200Y12540284D01*
X2351836Y12524638D01*
X2342083Y12510617D01*
X2332786Y12498019D01*
X2323896Y12486792D01*
X2315413Y12476937D01*
X2307183Y12468301D01*
X2299258Y12460884D01*
X2291435Y12454585D01*
X2283764Y12449302D01*
X2276094Y12444984D01*
X2268372Y12441580D01*
X2260600Y12439040D01*
X2256637Y12438024D01*
X2251049Y12437059D01*
X2245360Y12436500D01*
X2239518Y12436348D01*
X2233726Y12436652D01*
X2227935Y12437364D01*
X2222296Y12438430D01*
X2216861Y12439904D01*
X2211679Y12441682D01*
X2206802Y12443866D01*
X2202383Y12446304D01*
X2198370Y12449098D01*
X2194915Y12452146D01*
X2189581Y12457836D01*
X2187651Y12461494D01*
X2188921Y12464186D01*
X2193239Y12467031D01*
X2197049Y12470079D01*
X2199690Y12474092D01*
X2201164Y12478613D01*
X2201468Y12483338D01*
X2200706Y12487960D01*
X2198827Y12492075D01*
X2195880Y12495428D01*
X2191816Y12497562D01*
X2186889Y12498527D01*
X2182418Y12498222D01*
X2178405Y12496749D01*
X2174951Y12494158D01*
X2172157Y12490551D01*
X2170074Y12485979D01*
X2168804Y12480544D01*
X2168398Y12474295D01*
X2168702Y12468809D01*
X2169566Y12463678D01*
X2170988Y12458852D01*
X2172919Y12454432D01*
X2175357Y12450318D01*
X2178304Y12446558D01*
X2181809Y12443155D01*
X2185822Y12440056D01*
X2190343Y12437364D01*
X2195423Y12435027D01*
X2200960Y12432995D01*
X2207006Y12431369D01*
X2213559Y12430099D01*
X2220620Y12429185D01*
X2228189Y12428626D01*
X2241499Y12428524D01*
X2251760Y12429185D01*
X2261666Y12430506D01*
X2271318Y12432487D01*
X2280666Y12435281D01*
X2289860Y12438786D01*
X2298852Y12443155D01*
X2307691Y12448336D01*
X2316480Y12454331D01*
X2325217Y12461290D01*
X2333955Y12469164D01*
X2342743Y12478004D01*
X2351582Y12487808D01*
X2360523Y12498679D01*
X2369616Y12510617D01*
X2378913Y12523622D01*
X2388463Y12537744D01*
X2398318Y12553035D01*
X2420924Y12589357D01*
X2431135Y12605156D01*
X2440381Y12618669D01*
X2448864Y12630150D01*
X2456840Y12639751D01*
X2460650Y12643916D01*
X2464460Y12647676D01*
X2471928Y12654076D01*
X2479548Y12659156D01*
X2483408Y12661239D01*
X2487422Y12663068D01*
X2491536Y12664643D01*
X2500223Y12667132D01*
X2509774Y12668961D01*
X2520340Y12670231D01*
X2553055Y12672822D01*
X2559862Y12673736D01*
X2564790Y12674955D01*
X2568092Y12676479D01*
X2570175Y12678460D01*
X2571343Y12681102D01*
X2572004Y12684404D01*
G37*
G36*
X4260342Y12642697D02*
G01*
X4256938Y12642443D01*
X4253687Y12641478D01*
X4250537Y12639700D01*
X4247286Y12637109D01*
X4243832Y12633452D01*
X4240072Y12628676D01*
X4235856Y12622682D01*
X4215841Y12591440D01*
X4196588Y12562535D01*
X4178503Y12536982D01*
X4169918Y12525400D01*
X4153458Y12504623D01*
X4145584Y12495377D01*
X4137964Y12486894D01*
X4130497Y12479121D01*
X4123283Y12472111D01*
X4116222Y12465761D01*
X4109364Y12460122D01*
X4102658Y12455144D01*
X4096054Y12450826D01*
X4089654Y12447117D01*
X4083304Y12444069D01*
X4074058Y12440666D01*
X4068470Y12439802D01*
X4063441Y12440462D01*
X4059021Y12442545D01*
X4055364Y12445847D01*
X4052620Y12450216D01*
X4050944Y12455550D01*
X4050385Y12461646D01*
X4051147Y12468301D01*
X4052570Y12473889D01*
X4054449Y12479680D01*
X4056837Y12485522D01*
X4059631Y12491516D01*
X4062780Y12497511D01*
X4066286Y12503505D01*
X4070096Y12509449D01*
X4078427Y12520930D01*
X4082846Y12526365D01*
X4092041Y12536424D01*
X4096765Y12540945D01*
X4106113Y12548666D01*
X4110736Y12551816D01*
X4115206Y12554407D01*
X4119524Y12556388D01*
X4123639Y12557760D01*
X4127500Y12558369D01*
X4134916Y12558522D01*
X4138929Y12557099D01*
X4140301Y12553137D01*
X4139590Y12538964D01*
X4140708Y12535103D01*
X4143806Y12533680D01*
X4149445Y12534036D01*
X4154576Y12535458D01*
X4158234Y12538202D01*
X4160621Y12542418D01*
X4161891Y12548362D01*
X4161993Y12552934D01*
X4161231Y12556998D01*
X4159656Y12560503D01*
X4157370Y12563449D01*
X4154373Y12565888D01*
X4150817Y12567767D01*
X4146651Y12569088D01*
X4142028Y12569850D01*
X4136948Y12570053D01*
X4131513Y12569698D01*
X4125772Y12568732D01*
X4119829Y12567208D01*
X4113682Y12565024D01*
X4107434Y12562332D01*
X4101084Y12558979D01*
X4094784Y12555016D01*
X4078173Y12543739D01*
X4072229Y12554813D01*
X4068724Y12560096D01*
X4064203Y12564668D01*
X4059021Y12568377D01*
X4053230Y12571222D01*
X4047134Y12573050D01*
X4040936Y12573812D01*
X4034739Y12573457D01*
X4028795Y12571933D01*
X4023512Y12569088D01*
X4017416Y12564618D01*
X4011015Y12559030D01*
X4004868Y12552934D01*
X3999484Y12546838D01*
X3995420Y12541351D01*
X3993235Y12537033D01*
X3993387Y12534392D01*
X3995572Y12534849D01*
X3999839Y12537795D01*
X4005478Y12542774D01*
X4018483Y12555728D01*
X4024325Y12560604D01*
X4029557Y12563906D01*
X4034231Y12565684D01*
X4038447Y12565888D01*
X4042156Y12564567D01*
X4045458Y12561722D01*
X4048353Y12557404D01*
X4049877Y12553696D01*
X4050792Y12549530D01*
X4051096Y12544907D01*
X4050893Y12539878D01*
X4050131Y12534442D01*
X4048810Y12528753D01*
X4047032Y12522758D01*
X4044746Y12516612D01*
X4041952Y12510211D01*
X4038752Y12503759D01*
X4035094Y12497206D01*
X4031030Y12490602D01*
X4026611Y12484049D01*
X4021785Y12477546D01*
X4016603Y12471146D01*
X4011066Y12464948D01*
X4004970Y12458801D01*
X3998671Y12453467D01*
X3992270Y12448844D01*
X3985768Y12445034D01*
X3979367Y12442037D01*
X3973068Y12439904D01*
X3966921Y12438532D01*
X3961079Y12438126D01*
X3955542Y12438532D01*
X3950462Y12439904D01*
X3945839Y12442190D01*
X3941775Y12445441D01*
X3936187Y12452248D01*
X3934815Y12457226D01*
X3937762Y12460630D01*
X3949395Y12464034D01*
X3952951Y12466624D01*
X3955542Y12470079D01*
X3957116Y12473990D01*
X3957523Y12478004D01*
X3956761Y12481814D01*
X3954678Y12485014D01*
X3951224Y12487198D01*
X3947007Y12488265D01*
X3942892Y12488316D01*
X3938981Y12487452D01*
X3935323Y12485725D01*
X3932021Y12483236D01*
X3929176Y12480137D01*
X3926789Y12476480D01*
X3925011Y12472416D01*
X3923842Y12467996D01*
X3923436Y12463322D01*
X3923842Y12458547D01*
X3925163Y12453721D01*
X3927500Y12448489D01*
X3930446Y12443968D01*
X3933901Y12440005D01*
X3937812Y12436703D01*
X3942232Y12434062D01*
X3947058Y12432080D01*
X3952290Y12430709D01*
X3957828Y12430048D01*
X3963670Y12429998D01*
X3969765Y12430607D01*
X3976115Y12431877D01*
X3982669Y12433808D01*
X3989324Y12436398D01*
X3996080Y12439700D01*
X4002938Y12443612D01*
X4017873Y12453772D01*
X4023969Y12457582D01*
X4027576Y12459258D01*
X4028033Y12458496D01*
X4027271Y12454839D01*
X4028490Y12450318D01*
X4031284Y12445390D01*
X4035298Y12440412D01*
X4040174Y12435789D01*
X4045458Y12431979D01*
X4050792Y12429388D01*
X4055821Y12428474D01*
X4061510Y12428829D01*
X4067657Y12429998D01*
X4074109Y12431928D01*
X4080865Y12434620D01*
X4087926Y12438024D01*
X4095191Y12442139D01*
X4102709Y12446914D01*
X4127042Y12464389D01*
X4130395Y12466370D01*
X4132681Y12467386D01*
X4134002Y12467386D01*
X4134307Y12466269D01*
X4133646Y12464135D01*
X4129582Y12456566D01*
X4087418Y12390577D01*
X4054652Y12338710D01*
X4044797Y12322556D01*
X4039666Y12313615D01*
X4039006Y12312040D01*
X4040073Y12311024D01*
X4042867Y12310211D01*
X4047032Y12309652D01*
X4052112Y12309500D01*
X4056024Y12309805D01*
X4059529Y12310719D01*
X4062882Y12312548D01*
X4066235Y12315393D01*
X4069791Y12319558D01*
X4073753Y12325146D01*
X4078376Y12332462D01*
X4092041Y12355474D01*
X4104944Y12376404D01*
X4119575Y12399365D01*
X4135170Y12423241D01*
X4151122Y12447066D01*
X4166666Y12469825D01*
X4181144Y12490450D01*
X4193895Y12508026D01*
X4204258Y12521539D01*
X4212031Y12530632D01*
X4217517Y12536474D01*
X4222851Y12541605D01*
X4227982Y12546126D01*
X4232960Y12549936D01*
X4237634Y12553086D01*
X4242054Y12555575D01*
X4246219Y12557404D01*
X4250029Y12558572D01*
X4253484Y12559030D01*
X4256582Y12558826D01*
X4259275Y12557963D01*
X4261510Y12556388D01*
X4263339Y12554153D01*
X4264609Y12551257D01*
X4265422Y12547650D01*
X4265676Y12543383D01*
X4265320Y12538456D01*
X4264406Y12532817D01*
X4262882Y12526467D01*
X4260240Y12517628D01*
X4257649Y12509804D01*
X4254906Y12502997D01*
X4252010Y12497054D01*
X4248861Y12491974D01*
X4245457Y12487554D01*
X4241596Y12483846D01*
X4237329Y12480645D01*
X4232554Y12478004D01*
X4227118Y12475718D01*
X4221073Y12473736D01*
X4203344Y12469317D01*
X4193844Y12466269D01*
X4185869Y12462967D01*
X4179265Y12459360D01*
X4174134Y12455499D01*
X4170476Y12451384D01*
X4168292Y12446965D01*
X4167967Y12444831D01*
X4181703Y12444831D01*
X4182668Y12447879D01*
X4184802Y12450978D01*
X4187901Y12454026D01*
X4191812Y12456820D01*
X4196537Y12459258D01*
X4201871Y12461138D01*
X4210558Y12463576D01*
X4217365Y12465202D01*
X4222292Y12466015D01*
X4225493Y12466015D01*
X4227068Y12465151D01*
X4227068Y12463475D01*
X4225544Y12460884D01*
X4222699Y12457430D01*
X4218482Y12453518D01*
X4213199Y12449657D01*
X4207256Y12446101D01*
X4201109Y12443002D01*
X4195216Y12440615D01*
X4190034Y12439091D01*
X4185970Y12438634D01*
X4183481Y12439497D01*
X4181906Y12441986D01*
X4181703Y12444831D01*
X4167967Y12444831D01*
X4167581Y12442291D01*
X4167835Y12438684D01*
X4168698Y12435636D01*
X4170070Y12433096D01*
X4172000Y12431166D01*
X4174439Y12429794D01*
X4177334Y12428931D01*
X4180738Y12428626D01*
X4184599Y12428931D01*
X4188917Y12429744D01*
X4193641Y12431064D01*
X4198772Y12432944D01*
X4204309Y12435382D01*
X4210253Y12438380D01*
X4216501Y12441885D01*
X4223156Y12445949D01*
X4235653Y12454128D01*
X4241647Y12457785D01*
X4254195Y12464643D01*
X4266285Y12470434D01*
X4276344Y12474295D01*
X4285589Y12477496D01*
X4295394Y12481509D01*
X4304588Y12485827D01*
X4312056Y12489942D01*
X4317034Y12493294D01*
X4322267Y12497206D01*
X4332986Y12506299D01*
X4342993Y12516002D01*
X4347362Y12520625D01*
X4351121Y12524994D01*
X4354068Y12528854D01*
X4356100Y12532106D01*
X4357065Y12534544D01*
X4356760Y12536017D01*
X4354372Y12535763D01*
X4350156Y12532969D01*
X4344670Y12528042D01*
X4334611Y12517374D01*
X4330496Y12513360D01*
X4326077Y12509449D01*
X4321403Y12505740D01*
X4311396Y12498832D01*
X4306112Y12495682D01*
X4295038Y12489992D01*
X4289298Y12487503D01*
X4283456Y12485268D01*
X4266082Y12479731D01*
X4277106Y12495174D01*
X4279442Y12498832D01*
X4281627Y12503048D01*
X4283710Y12507671D01*
X4285589Y12512649D01*
X4287215Y12517780D01*
X4289602Y12528143D01*
X4290263Y12533172D01*
X4290974Y12545212D01*
X4290110Y12553137D01*
X4287012Y12558674D01*
X4281271Y12563500D01*
X4275836Y12566853D01*
X4270552Y12569190D01*
X4265218Y12570510D01*
X4259783Y12570815D01*
X4254144Y12570053D01*
X4248200Y12568224D01*
X4241800Y12565380D01*
X4234840Y12561468D01*
X4218838Y12551714D01*
X4232452Y12573914D01*
X4245965Y12594590D01*
X4262831Y12618923D01*
X4267352Y12626187D01*
X4270197Y12631928D01*
X4271467Y12636246D01*
X4271060Y12639294D01*
X4269079Y12641326D01*
X4265472Y12642392D01*
G37*
G36*
X3287979Y12637719D02*
G01*
X3281273Y12637566D01*
X3275787Y12634772D01*
X3272891Y12628930D01*
X3272942Y12621666D01*
X3275584Y12615011D01*
X3280460Y12610846D01*
X3284016Y12610287D01*
X3287623Y12611150D01*
X3291078Y12613132D01*
X3294126Y12616027D01*
X3296564Y12619532D01*
X3298139Y12623393D01*
X3298698Y12627406D01*
X3297986Y12631267D01*
X3294176Y12635534D01*
G37*
G36*
X3094431Y12637312D02*
G01*
X3090570Y12636296D01*
X3087319Y12633960D01*
X3085033Y12630200D01*
X3084220Y12626187D01*
X3084779Y12622225D01*
X3086404Y12618466D01*
X3088894Y12615214D01*
X3092094Y12612624D01*
X3095752Y12610896D01*
X3099663Y12610338D01*
X3103626Y12611100D01*
X3106775Y12613081D01*
X3108909Y12616180D01*
X3110026Y12620142D01*
X3109925Y12624816D01*
X3108502Y12629388D01*
X3105861Y12632994D01*
X3102406Y12635585D01*
X3098495Y12637008D01*
G37*
G36*
X3171494Y12614148D02*
G01*
X3168650Y12613792D01*
X3165703Y12612776D01*
X3162655Y12610998D01*
X3159455Y12608509D01*
X3156102Y12605207D01*
X3152495Y12601092D01*
X3148634Y12596164D01*
X3140354Y12584379D01*
X3136442Y12579350D01*
X3132886Y12575235D01*
X3129483Y12571984D01*
X3126282Y12569545D01*
X3123184Y12567818D01*
X3120186Y12566853D01*
X3112820Y12566142D01*
X3109315Y12565126D01*
X3106877Y12563602D01*
X3106013Y12561773D01*
X3106572Y12559944D01*
X3108096Y12558420D01*
X3110382Y12557404D01*
X3118205Y12556490D01*
X3119729Y12555880D01*
X3120288Y12555169D01*
X3119831Y12553696D01*
X3116427Y12547447D01*
X3110331Y12537795D01*
X3102457Y12525959D01*
X3084372Y12500305D01*
X3075838Y12488875D01*
X3065983Y12476734D01*
X3060954Y12471501D01*
X3055670Y12466523D01*
X3050286Y12461798D01*
X3039364Y12453366D01*
X3028797Y12446508D01*
X3023819Y12443815D01*
X3019145Y12441580D01*
X3014878Y12439904D01*
X3011017Y12438786D01*
X3007715Y12438329D01*
X3005023Y12438532D01*
X3002991Y12439446D01*
X3001721Y12441072D01*
X3001314Y12443510D01*
X3001518Y12445238D01*
X3002229Y12447625D01*
X3005023Y12454026D01*
X3009392Y12462408D01*
X3015183Y12472517D01*
X3022193Y12483998D01*
X3030321Y12496546D01*
X3039313Y12509906D01*
X3062173Y12542113D01*
X3070453Y12554305D01*
X3072942Y12558522D01*
X3074365Y12561570D01*
X3074822Y12563754D01*
X3074314Y12565176D01*
X3072942Y12566040D01*
X3070758Y12566396D01*
X3064154Y12566548D01*
X3060039Y12566294D01*
X3056280Y12565380D01*
X3052673Y12563703D01*
X3048965Y12561011D01*
X3045002Y12557150D01*
X3040583Y12551918D01*
X3035452Y12545212D01*
X3024073Y12529210D01*
X3013608Y12515189D01*
X3003499Y12502438D01*
X2993644Y12491059D01*
X2984042Y12480950D01*
X2974644Y12472060D01*
X2965399Y12464338D01*
X2956306Y12457785D01*
X2947263Y12452350D01*
X2938272Y12448032D01*
X2933801Y12446254D01*
X2929890Y12445187D01*
X2928772Y12446508D01*
X2930499Y12450927D01*
X2938272Y12464542D01*
X2940456Y12468860D01*
X2941726Y12472771D01*
X2942183Y12476784D01*
X2941675Y12481407D01*
X2940304Y12487097D01*
X2929382Y12521488D01*
X2927502Y12528753D01*
X2926232Y12535103D01*
X2925470Y12540538D01*
X2925368Y12545212D01*
X2925775Y12549124D01*
X2926791Y12552375D01*
X2928416Y12555016D01*
X2930601Y12557048D01*
X2933395Y12558623D01*
X2936748Y12559741D01*
X2942691Y12560858D01*
X2947568Y12561062D01*
X2951480Y12560198D01*
X2954375Y12558268D01*
X2956356Y12555321D01*
X2957423Y12551257D01*
X2957576Y12546076D01*
X2956306Y12533680D01*
X2956610Y12529007D01*
X2957830Y12525705D01*
X2959862Y12523825D01*
X2962605Y12523419D01*
X2966059Y12524486D01*
X2970123Y12527026D01*
X2974746Y12531140D01*
X2977896Y12534900D01*
X2980029Y12538710D01*
X2981147Y12542570D01*
X2981401Y12546380D01*
X2980740Y12550089D01*
X2979318Y12553645D01*
X2977134Y12556998D01*
X2974289Y12560096D01*
X2970834Y12562890D01*
X2966821Y12565278D01*
X2962300Y12567259D01*
X2957322Y12568783D01*
X2951988Y12569748D01*
X2946349Y12570104D01*
X2940456Y12569850D01*
X2934309Y12568834D01*
X2928416Y12567005D01*
X2922574Y12564211D01*
X2916986Y12560706D01*
X2911957Y12556642D01*
X2907639Y12552222D01*
X2904286Y12547650D01*
X2902102Y12543180D01*
X2900781Y12535712D01*
X2899206Y12531852D01*
X2896768Y12527483D01*
X2893669Y12522758D01*
X2889961Y12517882D01*
X2885846Y12513005D01*
X2881477Y12508280D01*
X2876956Y12503912D01*
X2872486Y12500051D01*
X2868218Y12496850D01*
X2864205Y12494463D01*
X2855112Y12490958D01*
X2850896Y12487503D01*
X2847848Y12482677D01*
X2844546Y12472162D01*
X2842158Y12467894D01*
X2838907Y12463475D01*
X2836721Y12461036D01*
X2858465Y12461036D01*
X2859024Y12465812D01*
X2860802Y12468758D01*
X2864053Y12470079D01*
X2874467Y12470130D01*
X2878124Y12472009D01*
X2880563Y12476226D01*
X2883560Y12488824D01*
X2885541Y12494818D01*
X2888030Y12500813D01*
X2890875Y12506452D01*
X2893822Y12511379D01*
X2896768Y12515342D01*
X2899460Y12517983D01*
X2901696Y12518898D01*
X2903270Y12517475D01*
X2905353Y12513513D01*
X2907741Y12507671D01*
X2910078Y12500508D01*
X2912516Y12491618D01*
X2914192Y12483642D01*
X2915107Y12476429D01*
X2915259Y12469926D01*
X2914650Y12463983D01*
X2913278Y12458496D01*
X2911094Y12453366D01*
X2908198Y12448540D01*
X2904439Y12444374D01*
X2899867Y12441326D01*
X2894787Y12439345D01*
X2889402Y12438380D01*
X2883814Y12438380D01*
X2878328Y12439294D01*
X2873146Y12441072D01*
X2868422Y12443663D01*
X2864358Y12446965D01*
X2861259Y12451029D01*
X2859227Y12455753D01*
X2858465Y12461036D01*
X2836721Y12461036D01*
X2834944Y12459055D01*
X2830474Y12454788D01*
X2825546Y12450775D01*
X2820466Y12447117D01*
X2815336Y12444018D01*
X2810256Y12441478D01*
X2805531Y12439751D01*
X2801162Y12438938D01*
X2797454Y12439091D01*
X2794508Y12440056D01*
X2792425Y12441682D01*
X2791104Y12443917D01*
X2790647Y12446812D01*
X2791002Y12450419D01*
X2792222Y12454737D01*
X2794254Y12459817D01*
X2797200Y12465659D01*
X2801061Y12472365D01*
X2805734Y12479832D01*
X2823972Y12506198D01*
X2829255Y12514224D01*
X2833776Y12521641D01*
X2837484Y12528346D01*
X2840431Y12534290D01*
X2842514Y12539573D01*
X2843784Y12544094D01*
X2844190Y12547803D01*
X2843784Y12552781D01*
X2842666Y12557099D01*
X2840786Y12560808D01*
X2838246Y12563906D01*
X2835097Y12566345D01*
X2831439Y12568123D01*
X2827223Y12569291D01*
X2822549Y12569799D01*
X2817520Y12569647D01*
X2812135Y12568834D01*
X2806446Y12567412D01*
X2800502Y12565329D01*
X2794355Y12562586D01*
X2788056Y12559233D01*
X2781655Y12555169D01*
X2775254Y12550444D01*
X2756306Y12535560D01*
X2778201Y12566548D01*
X2764028Y12566548D01*
X2759710Y12566294D01*
X2755950Y12565430D01*
X2752344Y12563754D01*
X2748788Y12560960D01*
X2744978Y12556845D01*
X2740660Y12551257D01*
X2735630Y12543840D01*
X2725521Y12528194D01*
X2716987Y12515799D01*
X2708046Y12503810D01*
X2698800Y12492380D01*
X2689453Y12481661D01*
X2680106Y12471806D01*
X2670962Y12462916D01*
X2662123Y12455144D01*
X2653741Y12448641D01*
X2645968Y12443561D01*
X2642362Y12441580D01*
X2635808Y12438888D01*
X2632862Y12438227D01*
X2630220Y12437973D01*
X2628290Y12438278D01*
X2626766Y12439091D01*
X2625750Y12440513D01*
X2625191Y12442444D01*
X2625090Y12444882D01*
X2625445Y12447778D01*
X2626258Y12451232D01*
X2629103Y12459462D01*
X2633675Y12469418D01*
X2639822Y12481052D01*
X2647543Y12494158D01*
X2656789Y12508636D01*
X2667457Y12524384D01*
X2680563Y12543028D01*
X2686456Y12552121D01*
X2690418Y12558979D01*
X2691892Y12562535D01*
X2690825Y12565024D01*
X2688082Y12566396D01*
X2684068Y12566802D01*
X2679293Y12566243D01*
X2674213Y12564872D01*
X2669286Y12562789D01*
X2664968Y12560096D01*
X2661818Y12556794D01*
X2658211Y12552070D01*
X2655722Y12550190D01*
X2653842Y12551003D01*
X2652115Y12554458D01*
X2650134Y12557709D01*
X2646832Y12561163D01*
X2642666Y12564414D01*
X2638044Y12566954D01*
X2634538Y12568326D01*
X2630830Y12569190D01*
X2626868Y12569647D01*
X2622702Y12569698D01*
X2618384Y12569291D01*
X2613863Y12568478D01*
X2609189Y12567259D01*
X2604363Y12565583D01*
X2599436Y12563551D01*
X2594305Y12561062D01*
X2589072Y12558217D01*
X2583738Y12554966D01*
X2578303Y12551308D01*
X2567127Y12542824D01*
X2554528Y12532004D01*
X2542946Y12522809D01*
X2538222Y12519609D01*
X2534056Y12517221D01*
X2530449Y12515697D01*
X2527300Y12514986D01*
X2524556Y12515088D01*
X2522118Y12515951D01*
X2519934Y12517577D01*
X2517952Y12519964D01*
X2516073Y12523012D01*
X2514346Y12528143D01*
X2514498Y12533985D01*
X2516581Y12541199D01*
X2520696Y12550241D01*
X2527096Y12562992D01*
X2528671Y12566751D01*
X2529128Y12569190D01*
X2528417Y12570561D01*
X2526538Y12571171D01*
X2519273Y12571272D01*
X2516327Y12570764D01*
X2512466Y12569190D01*
X2507843Y12566650D01*
X2502458Y12563195D01*
X2496464Y12558928D01*
X2489911Y12553848D01*
X2482951Y12548108D01*
X2442819Y12512040D01*
X2467000Y12545923D01*
X2472537Y12554305D01*
X2476296Y12560452D01*
X2477668Y12563551D01*
X2476652Y12564668D01*
X2473807Y12565634D01*
X2469642Y12566243D01*
X2464562Y12566446D01*
X2461768Y12566243D01*
X2459126Y12565634D01*
X2456434Y12564465D01*
X2453640Y12562586D01*
X2450642Y12559842D01*
X2447239Y12556185D01*
X2443429Y12551410D01*
X2439009Y12545415D01*
X2428036Y12529108D01*
X2385314Y12461849D01*
X2371344Y12439345D01*
X2370023Y12436043D01*
X2371242Y12434214D01*
X2375408Y12433604D01*
X2382875Y12434062D01*
X2387346Y12434671D01*
X2391206Y12435687D01*
X2394559Y12437160D01*
X2397556Y12439294D01*
X2400452Y12442139D01*
X2403297Y12445898D01*
X2406243Y12450673D01*
X2411374Y12459766D01*
X2416962Y12467894D01*
X2424633Y12477699D01*
X2433777Y12488672D01*
X2443784Y12500152D01*
X2454148Y12511532D01*
X2464308Y12522149D01*
X2473604Y12531394D01*
X2481529Y12538659D01*
X2487472Y12543231D01*
X2489555Y12544399D01*
X2491486Y12544145D01*
X2493162Y12542113D01*
X2494432Y12538557D01*
X2496159Y12528346D01*
X2498648Y12522911D01*
X2502154Y12517831D01*
X2506522Y12513360D01*
X2511399Y12509703D01*
X2516530Y12507214D01*
X2521661Y12505994D01*
X2526538Y12506350D01*
X2530754Y12507112D01*
X2532938Y12506553D01*
X2533345Y12504470D01*
X2532126Y12500711D01*
X2528214Y12490958D01*
X2525217Y12482068D01*
X2523083Y12473990D01*
X2521864Y12466675D01*
X2521714Y12464237D01*
X2549042Y12464237D01*
X2549296Y12469317D01*
X2550058Y12474549D01*
X2551226Y12479883D01*
X2552852Y12485370D01*
X2554884Y12490958D01*
X2557272Y12496546D01*
X2559964Y12502134D01*
X2562961Y12507671D01*
X2569768Y12518542D01*
X2577439Y12528753D01*
X2581503Y12533528D01*
X2589987Y12542316D01*
X2594356Y12546177D01*
X2598724Y12549682D01*
X2603093Y12552781D01*
X2607411Y12555474D01*
X2611678Y12557607D01*
X2615895Y12559233D01*
X2619959Y12560350D01*
X2623870Y12560808D01*
X2627630Y12560655D01*
X2632100Y12559233D01*
X2635300Y12556185D01*
X2637383Y12551257D01*
X2638602Y12544196D01*
X2638755Y12540234D01*
X2638399Y12535916D01*
X2637637Y12531394D01*
X2636418Y12526619D01*
X2634843Y12521742D01*
X2630576Y12511481D01*
X2627934Y12506248D01*
X2621788Y12495784D01*
X2618333Y12490551D01*
X2610713Y12480442D01*
X2602433Y12470993D01*
X2598064Y12466574D01*
X2589022Y12458649D01*
X2584348Y12455144D01*
X2579725Y12452096D01*
X2572207Y12447879D01*
X2565857Y12445288D01*
X2560574Y12444323D01*
X2556306Y12444984D01*
X2553106Y12447320D01*
X2550820Y12451283D01*
X2549499Y12456922D01*
X2549042Y12464237D01*
X2521714Y12464237D01*
X2521458Y12460071D01*
X2521966Y12454026D01*
X2523337Y12448590D01*
X2525572Y12443663D01*
X2529128Y12438532D01*
X2533599Y12434163D01*
X2538425Y12430912D01*
X2542946Y12429337D01*
X2547823Y12429337D01*
X2553665Y12430404D01*
X2560167Y12432436D01*
X2567127Y12435332D01*
X2574188Y12438989D01*
X2581198Y12443206D01*
X2587853Y12447981D01*
X2599639Y12458293D01*
X2602738Y12459868D01*
X2604363Y12457633D01*
X2606700Y12445390D01*
X2608580Y12440310D01*
X2611018Y12436144D01*
X2614015Y12432893D01*
X2617571Y12430556D01*
X2621635Y12429134D01*
X2626156Y12428626D01*
X2631186Y12429083D01*
X2636672Y12430506D01*
X2642616Y12432842D01*
X2648966Y12436094D01*
X2667711Y12447981D01*
X2672130Y12450368D01*
X2675280Y12451740D01*
X2677160Y12452096D01*
X2677566Y12451384D01*
X2676499Y12449505D01*
X2673756Y12446558D01*
X2669133Y12440615D01*
X2668778Y12436500D01*
X2672791Y12434062D01*
X2681173Y12433350D01*
X2684932Y12433604D01*
X2688336Y12434468D01*
X2691536Y12435992D01*
X2694635Y12438329D01*
X2697835Y12441580D01*
X2701239Y12445949D01*
X2705049Y12451537D01*
X2712364Y12463272D01*
X2719730Y12473838D01*
X2728417Y12485319D01*
X2738069Y12497155D01*
X2748280Y12509042D01*
X2758694Y12520422D01*
X2768803Y12530988D01*
X2778353Y12540234D01*
X2786888Y12547752D01*
X2794050Y12553086D01*
X2796946Y12554813D01*
X2806700Y12559385D01*
X2810764Y12560858D01*
X2814320Y12561874D01*
X2817368Y12562332D01*
X2819806Y12562332D01*
X2821787Y12561773D01*
X2823210Y12560757D01*
X2824124Y12559233D01*
X2824480Y12557252D01*
X2824327Y12554762D01*
X2823616Y12551765D01*
X2822397Y12548311D01*
X2818333Y12539980D01*
X2812135Y12529769D01*
X2803804Y12517729D01*
X2793492Y12503708D01*
X2784398Y12490551D01*
X2780639Y12484608D01*
X2777439Y12479070D01*
X2774797Y12473940D01*
X2772613Y12469114D01*
X2770987Y12464643D01*
X2769870Y12460478D01*
X2769209Y12456617D01*
X2769057Y12452959D01*
X2769362Y12449556D01*
X2770174Y12446355D01*
X2771394Y12443358D01*
X2773121Y12440564D01*
X2775305Y12437821D01*
X2779318Y12434214D01*
X2783941Y12431217D01*
X2788615Y12429185D01*
X2792780Y12428474D01*
X2797556Y12429185D01*
X2804058Y12431115D01*
X2811526Y12434011D01*
X2819349Y12437567D01*
X2826918Y12441377D01*
X2833522Y12445238D01*
X2838653Y12448844D01*
X2841548Y12451791D01*
X2843682Y12452400D01*
X2847543Y12450826D01*
X2852521Y12447371D01*
X2865526Y12435890D01*
X2872740Y12431572D01*
X2880360Y12429185D01*
X2888996Y12428474D01*
X2893517Y12428626D01*
X2898394Y12429134D01*
X2903524Y12429998D01*
X2914446Y12432639D01*
X2925876Y12436297D01*
X2937510Y12440920D01*
X2948940Y12446355D01*
X2959760Y12452350D01*
X2969615Y12458852D01*
X2983382Y12469571D01*
X2988259Y12472568D01*
X2989275Y12471552D01*
X2984754Y12461036D01*
X2983636Y12455296D01*
X2983636Y12449657D01*
X2984703Y12444323D01*
X2986786Y12439548D01*
X2989834Y12435535D01*
X2993745Y12432436D01*
X2998470Y12430506D01*
X3001975Y12429998D01*
X3005886Y12429998D01*
X3010103Y12430607D01*
X3014675Y12431725D01*
X3019450Y12433300D01*
X3024378Y12435332D01*
X3029508Y12437821D01*
X3034639Y12440767D01*
X3039821Y12444069D01*
X3044952Y12447727D01*
X3049981Y12451740D01*
X3062071Y12462560D01*
X3065983Y12465050D01*
X3067608Y12463729D01*
X3067913Y12458750D01*
X3068777Y12453721D01*
X3071164Y12448540D01*
X3074822Y12443460D01*
X3079445Y12438735D01*
X3084728Y12434620D01*
X3090418Y12431369D01*
X3096209Y12429236D01*
X3101797Y12428474D01*
X3105302Y12428880D01*
X3109823Y12430201D01*
X3115056Y12432182D01*
X3120847Y12434722D01*
X3133242Y12441123D01*
X3145129Y12448336D01*
X3150362Y12451943D01*
X3154781Y12455398D01*
X3158236Y12458547D01*
X3160471Y12461290D01*
X3164789Y12465964D01*
X3168650Y12465710D01*
X3171698Y12460833D01*
X3173577Y12451537D01*
X3174339Y12446254D01*
X3175609Y12441682D01*
X3177336Y12437821D01*
X3179521Y12434671D01*
X3182112Y12432182D01*
X3185210Y12430455D01*
X3188665Y12429388D01*
X3192576Y12429032D01*
X3196894Y12429388D01*
X3201568Y12430404D01*
X3206699Y12432182D01*
X3212185Y12434620D01*
X3218027Y12437821D01*
X3224276Y12441682D01*
X3230880Y12446254D01*
X3261004Y12469876D01*
X3265271Y12459919D01*
X3291687Y12459919D01*
X3291890Y12464592D01*
X3292449Y12469368D01*
X3293414Y12474295D01*
X3294735Y12479375D01*
X3296412Y12484455D01*
X3298444Y12489637D01*
X3303524Y12500152D01*
X3306521Y12505385D01*
X3313480Y12515900D01*
X3321558Y12526162D01*
X3325977Y12531191D01*
X3330651Y12536119D01*
X3335629Y12540894D01*
X3342335Y12546888D01*
X3348482Y12551867D01*
X3354171Y12555778D01*
X3359302Y12558623D01*
X3363925Y12560452D01*
X3367989Y12561265D01*
X3371545Y12560960D01*
X3374542Y12559690D01*
X3377031Y12557353D01*
X3378962Y12553950D01*
X3380384Y12549530D01*
X3381197Y12544044D01*
X3381349Y12539370D01*
X3380994Y12534239D01*
X3380079Y12528804D01*
X3378657Y12523114D01*
X3376879Y12517221D01*
X3374644Y12511125D01*
X3369106Y12498781D01*
X3365855Y12492583D01*
X3362350Y12486487D01*
X3354679Y12474803D01*
X3350564Y12469266D01*
X3346348Y12464084D01*
X3342081Y12459258D01*
X3337712Y12454890D01*
X3333343Y12450978D01*
X3328974Y12447625D01*
X3324656Y12444882D01*
X3320389Y12442799D01*
X3313277Y12440259D01*
X3307232Y12438989D01*
X3302304Y12439040D01*
X3298342Y12440412D01*
X3295345Y12443155D01*
X3293262Y12447320D01*
X3292043Y12452858D01*
X3291687Y12459919D01*
X3265271Y12459919D01*
X3268776Y12451740D01*
X3271215Y12446660D01*
X3273907Y12442240D01*
X3276955Y12438481D01*
X3280257Y12435382D01*
X3283915Y12432893D01*
X3287979Y12431064D01*
X3292398Y12429845D01*
X3297224Y12429286D01*
X3302508Y12429286D01*
X3308197Y12429896D01*
X3314446Y12431115D01*
X3321100Y12432893D01*
X3325520Y12434468D01*
X3330194Y12436551D01*
X3335020Y12439091D01*
X3345027Y12445441D01*
X3350158Y12449200D01*
X3360318Y12457633D01*
X3370224Y12467082D01*
X3374999Y12472060D01*
X3379520Y12477191D01*
X3387801Y12487706D01*
X3391458Y12492990D01*
X3401720Y12509754D01*
X3406597Y12514935D01*
X3411423Y12515037D01*
X3418179Y12511074D01*
X3423412Y12508331D01*
X3429152Y12506452D01*
X3434638Y12505639D01*
X3439261Y12505994D01*
X3442817Y12506756D01*
X3445459Y12506858D01*
X3446881Y12506401D01*
X3446932Y12505385D01*
X3425545Y12470028D01*
X3411677Y12446609D01*
X3407460Y12438938D01*
X3405936Y12435484D01*
X3406952Y12434620D01*
X3409746Y12433909D01*
X3413912Y12433452D01*
X3418992Y12433350D01*
X3422802Y12433655D01*
X3426256Y12434519D01*
X3429508Y12436144D01*
X3432708Y12438634D01*
X3436061Y12442139D01*
X3439668Y12446863D01*
X3443732Y12452858D01*
X3450894Y12464338D01*
X3457295Y12473533D01*
X3465118Y12483947D01*
X3474008Y12495072D01*
X3483356Y12506198D01*
X3492754Y12516764D01*
X3504996Y12529515D01*
X3512210Y12536525D01*
X3519017Y12542672D01*
X3525367Y12547904D01*
X3531209Y12552222D01*
X3536645Y12555728D01*
X3541623Y12558268D01*
X3546144Y12559995D01*
X3550158Y12560757D01*
X3553714Y12560655D01*
X3556762Y12559690D01*
X3559352Y12557760D01*
X3560572Y12556236D01*
X3561232Y12554407D01*
X3561384Y12552273D01*
X3560876Y12549632D01*
X3559759Y12546482D01*
X3557930Y12542723D01*
X3551986Y12532969D01*
X3542639Y12519660D01*
X3523691Y12494056D01*
X3518662Y12486589D01*
X3514496Y12479680D01*
X3511143Y12473228D01*
X3508603Y12467234D01*
X3506927Y12461697D01*
X3506012Y12456515D01*
X3505911Y12451791D01*
X3506571Y12447371D01*
X3508044Y12443256D01*
X3510330Y12439446D01*
X3513378Y12435941D01*
X3517696Y12432385D01*
X3522472Y12430048D01*
X3527755Y12428982D01*
X3533648Y12429134D01*
X3540099Y12430556D01*
X3547313Y12433249D01*
X3555237Y12437160D01*
X3564026Y12442393D01*
X3567684Y12444831D01*
X3575913Y12451486D01*
X3585210Y12459919D01*
X3595065Y12469672D01*
X3605123Y12480290D01*
X3614978Y12491262D01*
X3624224Y12502083D01*
X3632403Y12512344D01*
X3639159Y12521488D01*
X3643985Y12529058D01*
X3645611Y12532106D01*
X3646576Y12534544D01*
X3646881Y12536373D01*
X3646474Y12537541D01*
X3645306Y12537897D01*
X3643985Y12537186D01*
X3641648Y12535103D01*
X3634486Y12527432D01*
X3624834Y12516154D01*
X3603802Y12490348D01*
X3593642Y12479223D01*
X3583432Y12469164D01*
X3573424Y12460224D01*
X3563772Y12452604D01*
X3554729Y12446457D01*
X3550513Y12443917D01*
X3542741Y12440107D01*
X3539286Y12438888D01*
X3536137Y12438075D01*
X3533343Y12437770D01*
X3530854Y12437973D01*
X3528822Y12438634D01*
X3527145Y12439853D01*
X3525926Y12441580D01*
X3525164Y12443866D01*
X3524910Y12446762D01*
X3525520Y12449352D01*
X3527196Y12453315D01*
X3533292Y12464592D01*
X3542385Y12479070D01*
X3566261Y12513564D01*
X3571138Y12521387D01*
X3574999Y12528346D01*
X3577945Y12534544D01*
X3579977Y12540081D01*
X3581095Y12545060D01*
X3581298Y12549530D01*
X3580688Y12553594D01*
X3579266Y12557353D01*
X3577082Y12560909D01*
X3574084Y12564313D01*
X3570986Y12566802D01*
X3567379Y12568631D01*
X3563315Y12569799D01*
X3558844Y12570256D01*
X3554069Y12570104D01*
X3548938Y12569291D01*
X3543554Y12567818D01*
X3537915Y12565735D01*
X3532124Y12563043D01*
X3526231Y12559741D01*
X3520186Y12555829D01*
X3514140Y12551308D01*
X3494125Y12535560D01*
X3516071Y12566548D01*
X3501796Y12566548D01*
X3497630Y12566345D01*
X3493922Y12565583D01*
X3490569Y12564211D01*
X3487267Y12562027D01*
X3483965Y12558928D01*
X3480460Y12554762D01*
X3476498Y12549378D01*
X3468522Y12537490D01*
X3464915Y12532715D01*
X3461258Y12528397D01*
X3457651Y12524587D01*
X3454146Y12521336D01*
X3450844Y12518694D01*
X3447846Y12516866D01*
X3445154Y12515799D01*
X3439566Y12515037D01*
X3433724Y12515240D01*
X3427933Y12516408D01*
X3422548Y12518339D01*
X3417824Y12520879D01*
X3414064Y12523927D01*
X3411575Y12527330D01*
X3410661Y12530937D01*
X3410102Y12534950D01*
X3408578Y12540234D01*
X3406343Y12546177D01*
X3403600Y12552070D01*
X3401415Y12555829D01*
X3398875Y12559131D01*
X3396132Y12561976D01*
X3393033Y12564414D01*
X3389731Y12566446D01*
X3386175Y12568021D01*
X3382416Y12569139D01*
X3378454Y12569901D01*
X3374288Y12570256D01*
X3369919Y12570206D01*
X3365398Y12569748D01*
X3360775Y12568885D01*
X3355949Y12567666D01*
X3351072Y12566040D01*
X3346043Y12564059D01*
X3335832Y12558979D01*
X3325317Y12552476D01*
X3314750Y12544602D01*
X3304235Y12535357D01*
X3299002Y12530277D01*
X3288741Y12519152D01*
X3283712Y12513106D01*
X3275076Y12501930D01*
X3266948Y12492177D01*
X3258261Y12482525D01*
X3249269Y12473228D01*
X3240227Y12464643D01*
X3231388Y12456922D01*
X3223107Y12450419D01*
X3215589Y12445339D01*
X3212236Y12443409D01*
X3203803Y12439548D01*
X3200400Y12438532D01*
X3197555Y12438075D01*
X3195269Y12438176D01*
X3193542Y12438888D01*
X3192322Y12440158D01*
X3191713Y12442037D01*
X3191662Y12444476D01*
X3192119Y12447524D01*
X3193135Y12451130D01*
X3196894Y12460122D01*
X3202838Y12471400D01*
X3211017Y12484963D01*
X3221380Y12500864D01*
X3241243Y12529972D01*
X3255619Y12551562D01*
X3262782Y12563094D01*
X3263087Y12563957D01*
X3262071Y12564922D01*
X3259277Y12565735D01*
X3255111Y12566243D01*
X3250031Y12566396D01*
X3246272Y12566142D01*
X3242818Y12565227D01*
X3239516Y12563703D01*
X3236214Y12561316D01*
X3232759Y12558014D01*
X3229051Y12553645D01*
X3224936Y12548158D01*
X3215690Y12534747D01*
X3205988Y12521590D01*
X3195675Y12508839D01*
X3184956Y12496647D01*
X3174034Y12485166D01*
X3163062Y12474549D01*
X3152190Y12464999D01*
X3141675Y12456617D01*
X3131616Y12449556D01*
X3122269Y12444069D01*
X3117900Y12441936D01*
X3113786Y12440208D01*
X3109925Y12438989D01*
X3106369Y12438227D01*
X3103118Y12437973D01*
X3099206Y12438176D01*
X3095955Y12438837D01*
X3093364Y12439954D01*
X3091484Y12441580D01*
X3090214Y12443815D01*
X3089656Y12446609D01*
X3089808Y12450013D01*
X3090621Y12454077D01*
X3092196Y12458903D01*
X3094482Y12464440D01*
X3097479Y12470739D01*
X3105759Y12485827D01*
X3117088Y12504521D01*
X3150768Y12556998D01*
X3175711Y12556998D01*
X3183280Y12557201D01*
X3189681Y12557658D01*
X3194862Y12558369D01*
X3198825Y12559284D01*
X3201517Y12560350D01*
X3202940Y12561519D01*
X3202990Y12562738D01*
X3201720Y12563906D01*
X3199028Y12565024D01*
X3194913Y12566040D01*
X3189325Y12566853D01*
X3182213Y12567462D01*
X3158185Y12568936D01*
X3175050Y12593929D01*
X3178556Y12599974D01*
X3180740Y12604800D01*
X3181553Y12608458D01*
X3180994Y12611100D01*
X3179165Y12612878D01*
X3175965Y12613843D01*
G37*
D10*
X4096268Y384047D02*
G01*
X4096268Y390905D01*
X4103126Y404368D01*
X4109984Y411226D01*
X4123446Y418084D01*
X4150878Y418084D01*
X4164340Y411226D01*
X4171198Y404368D01*
X4178056Y390905D01*
X4178056Y377189D01*
X4171198Y363473D01*
X4157482Y343154D01*
X4089410Y274828D01*
X4184914Y274828D01*
X4263908Y418084D02*
G01*
X4243588Y411226D01*
X4236730Y397510D01*
X4236730Y384047D01*
X4243588Y370331D01*
X4257050Y363473D01*
X4284482Y356615D01*
X4304802Y349757D01*
X4318518Y336295D01*
X4325376Y322579D01*
X4325376Y302260D01*
X4318518Y288544D01*
X4311660Y281686D01*
X4291340Y274828D01*
X4263908Y274828D01*
X4243588Y281686D01*
X4236730Y288544D01*
X4229872Y302260D01*
X4229872Y322579D01*
X4236730Y336295D01*
X4250192Y349757D01*
X4270766Y356615D01*
X4297944Y363473D01*
X4311660Y370331D01*
X4318518Y384047D01*
X4318518Y397510D01*
X4311660Y411226D01*
X4291340Y418084D01*
X4263908Y418084D01*
X4377192Y384047D02*
G01*
X4377192Y390905D01*
X4384050Y404368D01*
X4390654Y411226D01*
X4404370Y418084D01*
X4431802Y418084D01*
X4445264Y411226D01*
X4452122Y404368D01*
X4458980Y390905D01*
X4458980Y377189D01*
X4452122Y363473D01*
X4438406Y343154D01*
X4370334Y274828D01*
X4465838Y274828D01*
X4510796Y390905D02*
G01*
X4524512Y397510D01*
X4544832Y418084D01*
X4544832Y274828D01*
X4644400Y418084D02*
G01*
X4589790Y274828D01*
X4644400Y418084D02*
G01*
X4699010Y274828D01*
X4610364Y322579D02*
G01*
X4678436Y322579D01*
X941801Y3376929D02*
G01*
X941801Y3185921D01*
X1069055Y3376929D02*
G01*
X941801Y3249421D01*
X987267Y3294887D02*
G01*
X1069055Y3185921D01*
X1128999Y3376929D02*
G01*
X1128999Y3185921D01*
X1128999Y3376929D02*
G01*
X1247363Y3376929D01*
X1128999Y3285997D02*
G01*
X1201897Y3285997D01*
X1128999Y3185921D02*
G01*
X1247363Y3185921D01*
X1307307Y3376929D02*
G01*
X1379951Y3285997D01*
X1379951Y3185921D01*
X1452595Y3376929D02*
G01*
X1379951Y3285997D01*
X1743679Y3376929D02*
G01*
X1652747Y3249421D01*
X1789145Y3249421D01*
X1743679Y3376929D02*
G01*
X1743679Y3185921D01*
X2059401Y3376929D02*
G01*
X2059401Y3185921D01*
X2186655Y3376929D02*
G01*
X2059401Y3249421D01*
X2104867Y3294887D02*
G01*
X2186655Y3185921D01*
X2246599Y3376929D02*
G01*
X2246599Y3185921D01*
X2246599Y3376929D02*
G01*
X2364963Y3376929D01*
X2246599Y3285997D02*
G01*
X2319497Y3285997D01*
X2246599Y3185921D02*
G01*
X2364963Y3185921D01*
X2424907Y3376929D02*
G01*
X2497551Y3285997D01*
X2497551Y3185921D01*
X2570195Y3376929D02*
G01*
X2497551Y3285997D01*
X2879313Y3376929D02*
G01*
X2788381Y3376929D01*
X2779491Y3294887D01*
X2788381Y3304031D01*
X2815813Y3313176D01*
X2842991Y3313176D01*
X2870423Y3304031D01*
X2888457Y3285997D01*
X2897601Y3258565D01*
X2897601Y3240531D01*
X2888457Y3213100D01*
X2870423Y3195065D01*
X2842991Y3185921D01*
X2815813Y3185921D01*
X2788381Y3195065D01*
X2779491Y3204210D01*
X2770347Y3222244D01*
X3189701Y3376929D02*
G01*
X3189701Y3185921D01*
X3316955Y3376929D02*
G01*
X3189701Y3249421D01*
X3235167Y3294887D02*
G01*
X3316955Y3185921D01*
X3376899Y3376929D02*
G01*
X3376899Y3185921D01*
X3376899Y3376929D02*
G01*
X3495263Y3376929D01*
X3376899Y3285997D02*
G01*
X3449797Y3285997D01*
X3376899Y3185921D02*
G01*
X3495263Y3185921D01*
X3555207Y3376929D02*
G01*
X3627851Y3285997D01*
X3627851Y3185921D01*
X3700495Y3376929D02*
G01*
X3627851Y3285997D01*
X4009613Y3349497D02*
G01*
X4000723Y3367786D01*
X3973291Y3376929D01*
X3955257Y3376929D01*
X3927825Y3367786D01*
X3909791Y3340354D01*
X3900647Y3294887D01*
X3900647Y3249421D01*
X3909791Y3213100D01*
X3927825Y3195065D01*
X3955257Y3185921D01*
X3964147Y3185921D01*
X3991579Y3195065D01*
X4009613Y3213100D01*
X4018757Y3240531D01*
X4018757Y3249421D01*
X4009613Y3276854D01*
X3991579Y3294887D01*
X3964147Y3304031D01*
X3955257Y3304031D01*
X3927825Y3294887D01*
X3909791Y3276854D01*
X3900647Y3249421D01*
X4370801Y3376929D02*
G01*
X4370801Y3185921D01*
X4370801Y3376929D02*
G01*
X4434555Y3376929D01*
X4461733Y3367786D01*
X4479767Y3349497D01*
X4488911Y3331463D01*
X4498055Y3304031D01*
X4498055Y3258565D01*
X4488911Y3231387D01*
X4479767Y3213100D01*
X4461733Y3195065D01*
X4434555Y3185921D01*
X4370801Y3185921D01*
X4685253Y3349497D02*
G01*
X4667219Y3367786D01*
X4639787Y3376929D01*
X4603465Y3376929D01*
X4576287Y3367786D01*
X4557999Y3349497D01*
X4557999Y3331463D01*
X4567143Y3313176D01*
X4576287Y3304031D01*
X4594321Y3294887D01*
X4648931Y3276854D01*
X4667219Y3267710D01*
X4676363Y3258565D01*
X4685253Y3240531D01*
X4685253Y3213100D01*
X4667219Y3195065D01*
X4639787Y3185921D01*
X4603465Y3185921D01*
X4576287Y3195065D01*
X4557999Y3213100D01*
X4808951Y3376929D02*
G01*
X4808951Y3185921D01*
X4745451Y3376929D02*
G01*
X4872705Y3376929D01*
X4932649Y3376929D02*
G01*
X4932649Y3185921D01*
X4932649Y3376929D02*
G01*
X5014437Y3376929D01*
X5041615Y3367786D01*
X5050759Y3358642D01*
X5059903Y3340354D01*
X5059903Y3322320D01*
X5050759Y3304031D01*
X5041615Y3294887D01*
X5014437Y3285997D01*
X4932649Y3285997D01*
X4996149Y3285997D02*
G01*
X5059903Y3185921D01*
X0Y12179300D02*
G01*
X6059992Y12179300D01*
X0Y11823700D02*
G01*
X6059985Y11823700D01*
G36*
X1259306Y4572000D02*
G01*
X1310106Y4572000D01*
X1310106Y3556000D01*
X1259306Y3556000D01*
G37*
G36*
X1360906Y4572000D02*
G01*
X1411706Y4572000D01*
X1411706Y3556000D01*
X1360906Y3556000D01*
G37*
G36*
X2491206Y4572000D02*
G01*
X2542006Y4572000D01*
X2542006Y3556000D01*
X2491206Y3556000D01*
G37*
G36*
X2389606Y4572000D02*
G01*
X2440406Y4572000D01*
X2440406Y3556000D01*
X2389606Y3556000D01*
G37*
G36*
X3621506Y4572000D02*
G01*
X3672306Y4572000D01*
X3672306Y3556000D01*
X3621506Y3556000D01*
G37*
G36*
X3519906Y4572000D02*
G01*
X3570706Y4572000D01*
X3570706Y3556000D01*
X3519906Y3556000D01*
G37*
G36*
X4751806Y4572000D02*
G01*
X4802606Y4572000D01*
X4802606Y3556000D01*
X4751806Y3556000D01*
G37*
G36*
X4650206Y4572000D02*
G01*
X4701006Y4572000D01*
X4701006Y3556000D01*
X4650206Y3556000D01*
G37*
M02*
