G04 Layer: TopLayer*
G04 EasyEDA v6.5.29, 2023-07-18 11:22:46*
G04 d896c42b98474c1f997fee1a3b510d80,5a6b42c53f6a479593ecc07194224c93,10*
G04 Gerber Generator version 0.2*
G04 Scale: 100 percent, Rotated: No, Reflected: No *
G04 Dimensions in millimeters *
G04 leading zeros omitted , absolute positions ,4 integer and 5 decimal *
%FSLAX45Y45*%
%MOMM*%

%AMMACRO1*21,1,$1,$2,0,0,$3*%
%ADD10C,0.6350*%
%ADD11C,0.2540*%
%ADD12C,0.1500*%
%ADD13R,0.5500X0.5500*%
%ADD14MACRO1,0.55X0.55X12.0001*%
%ADD15MACRO1,0.55X0.55X23.9998*%
%ADD16MACRO1,0.55X0.55X23.9988*%
%ADD17MACRO1,0.55X0.55X36.0009*%
%ADD18MACRO1,0.55X0.55X36.0003*%
%ADD19MACRO1,0.55X0.55X48.0006*%
%ADD20MACRO1,0.55X0.55X47.9988*%
%ADD21MACRO1,0.55X0.55X48.0008*%
%ADD22MACRO1,0.55X0.55X60.0024*%
%ADD23MACRO1,0.55X0.55X60.0011*%
%ADD24MACRO1,0.55X0.55X59.9998*%
%ADD25MACRO1,0.55X0.55X72.0010*%
%ADD26MACRO1,0.55X0.55X72.0027*%
%ADD27MACRO1,0.55X0.55X72.0002*%
%ADD28MACRO1,0.55X0.55X84.0011*%
%ADD29MACRO1,0.55X0.55X84.0006*%
%ADD30MACRO1,0.55X0.55X84.0008*%
%ADD31MACRO1,0.55X0.55X96.0015*%
%ADD32MACRO1,0.55X0.55X95.9994*%
%ADD33MACRO1,0.55X0.55X95.9992*%
%ADD34MACRO1,0.55X0.55X108.0023*%
%ADD35MACRO1,0.55X0.55X108.0006*%
%ADD36MACRO1,0.55X0.55X119.9999*%
%ADD37MACRO1,0.55X0.55X120.0035*%
%ADD38MACRO1,0.55X0.55X119.9989*%
%ADD39MACRO1,0.55X0.55X132.0014*%
%ADD40MACRO1,0.55X0.55X131.9994*%
%ADD41MACRO1,0.55X0.55X131.9992*%
%ADD42MACRO1,0.55X0.55X143.9991*%
%ADD43MACRO1,0.55X0.55X144.0012*%
%ADD44MACRO1,0.55X0.55X143.9997*%
%ADD45MACRO1,0.55X0.55X144.0034*%
%ADD46MACRO1,0.55X0.55X156.0012*%
%ADD47MACRO1,0.55X0.55X156.0015*%
%ADD48MACRO1,0.55X0.55X155.9991*%
%ADD49MACRO1,0.55X0.55X167.9999*%
%ADD50MACRO1,0.55X0.55X167.9993*%
%ADD51MACRO1,0.55X0.55X168.0025*%
%ADD52MACRO1,0.55X0.55X-12.0001*%
%ADD53MACRO1,0.55X0.55X-12.0007*%
%ADD54MACRO1,0.55X0.55X-11.9975*%
%ADD55MACRO1,0.55X0.55X-23.9988*%
%ADD56MACRO1,0.55X0.55X-23.9985*%
%ADD57MACRO1,0.55X0.55X-24.0009*%
%ADD58MACRO1,0.55X0.55X-36.0009*%
%ADD59MACRO1,0.55X0.55X-35.9988*%
%ADD60MACRO1,0.55X0.55X-36.0003*%
%ADD61MACRO1,0.55X0.55X-35.9966*%
%ADD62MACRO1,0.55X0.55X-47.9986*%
%ADD63MACRO1,0.55X0.55X-48.0006*%
%ADD64MACRO1,0.55X0.55X-48.0008*%
%ADD65MACRO1,0.55X0.55X-60.0001*%
%ADD66MACRO1,0.55X0.55X-59.9965*%
%ADD67MACRO1,0.55X0.55X-60.0011*%
%ADD68MACRO1,0.55X0.55X-71.9977*%
%ADD69MACRO1,0.55X0.55X-71.9994*%
%ADD70MACRO1,0.55X0.55X-83.9985*%
%ADD71MACRO1,0.55X0.55X-84.0006*%
%ADD72MACRO1,0.55X0.55X-84.0008*%
%ADD73MACRO1,0.55X0.55X-95.9989*%
%ADD74MACRO1,0.55X0.55X-95.9994*%
%ADD75MACRO1,0.55X0.55X-95.9992*%
%ADD76MACRO1,0.55X0.55X-107.9990*%
%ADD77MACRO1,0.55X0.55X-107.9973*%
%ADD78MACRO1,0.55X0.55X-107.9998*%
%ADD79MACRO1,0.55X0.55X-119.9976*%
%ADD80MACRO1,0.55X0.55X-119.9989*%
%ADD81MACRO1,0.55X0.55X-120.0002*%
%ADD82MACRO1,0.55X0.55X-131.9994*%
%ADD83MACRO1,0.55X0.55X-132.0012*%
%ADD84MACRO1,0.55X0.55X-131.9992*%
%ADD85MACRO1,0.55X0.55X-143.9991*%
%ADD86MACRO1,0.55X0.55X-143.9997*%
%ADD87MACRO1,0.55X0.55X-156.0002*%
%ADD88MACRO1,0.55X0.55X-156.0012*%
%ADD89MACRO1,0.55X0.55X-167.9999*%
%ADD90MACRO1,0.55X0.55X168.0004*%
%ADD91MACRO1,0.55X0.55X156.0002*%
%ADD92MACRO1,0.55X0.55X156.0026*%
%ADD93MACRO1,0.55X0.55X144.0006*%
%ADD94MACRO1,0.55X0.55X132.0012*%
%ADD95MACRO1,0.55X0.55X120.0012*%
%ADD96MACRO1,0.55X0.55X108.0015*%
%ADD97MACRO1,0.55X0.55X107.9990*%
%ADD98MACRO1,0.55X0.55X95.9989*%
%ADD99MACRO1,0.55X0.55X96.0021*%
%ADD100MACRO1,0.55X0.55X60.0001*%
%ADD101MACRO1,0.55X0.55X35.9988*%
%ADD102MACRO1,0.55X0.55X11.9975*%
%ADD103MACRO1,0.55X0.55X12.0007*%
%ADD104MACRO1,0.55X0.55X11.9996*%
%ADD105C,0.5000*%
%ADD106C,1.4000*%
%ADD107MACRO1,1.524X1.4X0.0000*%
%ADD108C,0.6096*%
%ADD109C,0.0122*%

%LPD*%
G36*
X290068Y1041908D02*
G01*
X286156Y1042669D01*
X282905Y1044905D01*
X280670Y1048156D01*
X279908Y1052068D01*
X279908Y11393932D01*
X280670Y11397843D01*
X282905Y11401094D01*
X286156Y11403330D01*
X290068Y11404092D01*
X13933932Y11404092D01*
X13937843Y11403330D01*
X13941094Y11401094D01*
X13943330Y11397843D01*
X13944092Y11393932D01*
X13944092Y1052068D01*
X13943330Y1048156D01*
X13941094Y1044905D01*
X13937843Y1042669D01*
X13933932Y1041908D01*
G37*

%LPC*%
G36*
X12043918Y11125200D02*
G01*
X12133326Y11125200D01*
X12133326Y11208410D01*
X12070384Y11208410D01*
X12064034Y11207699D01*
X12058599Y11205768D01*
X12053671Y11202720D01*
X12049607Y11198606D01*
X12046508Y11193729D01*
X12044629Y11188242D01*
X12043918Y11181943D01*
G37*
G36*
X584200Y1766417D02*
G01*
X599389Y1767332D01*
X614324Y1770075D01*
X628853Y1774596D01*
X642721Y1780844D01*
X655726Y1788718D01*
X667664Y1798066D01*
X678434Y1808835D01*
X687781Y1820773D01*
X695655Y1833778D01*
X701903Y1847646D01*
X706424Y1862175D01*
X709168Y1877110D01*
X710082Y1892300D01*
X709168Y1907489D01*
X706424Y1922424D01*
X701903Y1936953D01*
X695655Y1950821D01*
X687781Y1963826D01*
X678434Y1975764D01*
X667664Y1986534D01*
X655726Y1995881D01*
X642721Y2003755D01*
X628853Y2010003D01*
X614324Y2014524D01*
X599389Y2017268D01*
X584200Y2018182D01*
X569010Y2017268D01*
X554075Y2014524D01*
X539546Y2010003D01*
X525678Y2003755D01*
X512673Y1995881D01*
X500735Y1986534D01*
X489966Y1975764D01*
X480618Y1963826D01*
X472744Y1950821D01*
X466496Y1936953D01*
X461975Y1922424D01*
X459232Y1907489D01*
X458317Y1892300D01*
X459232Y1877110D01*
X461975Y1862175D01*
X466496Y1847646D01*
X472744Y1833778D01*
X480618Y1820773D01*
X489966Y1808835D01*
X500735Y1798066D01*
X512673Y1788718D01*
X525678Y1780844D01*
X539546Y1774596D01*
X554075Y1770075D01*
X569010Y1767332D01*
G37*
G36*
X12070384Y2367889D02*
G01*
X12133326Y2367889D01*
X12133326Y2451100D01*
X12043918Y2451100D01*
X12043918Y2394356D01*
X12044629Y2388057D01*
X12046508Y2382570D01*
X12049607Y2377694D01*
X12053671Y2373579D01*
X12058599Y2370531D01*
X12064034Y2368600D01*
G37*
G36*
X12158726Y2367889D02*
G01*
X12221616Y2367889D01*
X12227966Y2368600D01*
X12233402Y2370531D01*
X12238329Y2373579D01*
X12242393Y2377694D01*
X12245492Y2382570D01*
X12247372Y2388057D01*
X12248134Y2394356D01*
X12248134Y2404567D01*
X12248997Y2408732D01*
X12251486Y2412187D01*
X12255195Y2414270D01*
X12259411Y2414676D01*
X12263424Y2413304D01*
X12266574Y2410460D01*
X12271603Y2403297D01*
X12280544Y2393746D01*
X12290704Y2385466D01*
X12301880Y2378659D01*
X12313869Y2373426D01*
X12326467Y2369921D01*
X12339472Y2368143D01*
X12352528Y2368143D01*
X12365532Y2369921D01*
X12378131Y2373426D01*
X12390120Y2378659D01*
X12401296Y2385466D01*
X12411456Y2393746D01*
X12420396Y2403297D01*
X12427915Y2413965D01*
X12433960Y2425598D01*
X12436449Y2432558D01*
X12438583Y2436114D01*
X12441936Y2438501D01*
X12446000Y2439314D01*
X12450064Y2438501D01*
X12453416Y2436114D01*
X12455550Y2432558D01*
X12458039Y2425598D01*
X12464084Y2413965D01*
X12471603Y2403297D01*
X12480544Y2393746D01*
X12490704Y2385466D01*
X12501880Y2378659D01*
X12513868Y2373426D01*
X12526467Y2369921D01*
X12539472Y2368143D01*
X12552527Y2368143D01*
X12565532Y2369921D01*
X12578130Y2373426D01*
X12590119Y2378659D01*
X12601295Y2385466D01*
X12611455Y2393746D01*
X12620396Y2403297D01*
X12627914Y2413965D01*
X12633960Y2425598D01*
X12636449Y2432558D01*
X12638582Y2436114D01*
X12641935Y2438501D01*
X12645999Y2439314D01*
X12650063Y2438501D01*
X12653416Y2436114D01*
X12655550Y2432558D01*
X12658039Y2425598D01*
X12664084Y2413965D01*
X12671602Y2403297D01*
X12680543Y2393746D01*
X12690703Y2385466D01*
X12701879Y2378659D01*
X12713868Y2373426D01*
X12726466Y2369921D01*
X12739471Y2368143D01*
X12752527Y2368143D01*
X12765532Y2369921D01*
X12778130Y2373426D01*
X12790119Y2378659D01*
X12801295Y2385466D01*
X12811455Y2393746D01*
X12820396Y2403297D01*
X12827914Y2413965D01*
X12833959Y2425598D01*
X12838328Y2437942D01*
X12840970Y2450744D01*
X12841884Y2463800D01*
X12840970Y2476855D01*
X12838328Y2489657D01*
X12833959Y2502001D01*
X12827914Y2513634D01*
X12820396Y2524302D01*
X12811455Y2533853D01*
X12801295Y2542133D01*
X12790119Y2548940D01*
X12778130Y2554122D01*
X12765532Y2557678D01*
X12752527Y2559456D01*
X12739471Y2559456D01*
X12726466Y2557678D01*
X12713868Y2554122D01*
X12701879Y2548940D01*
X12690703Y2542133D01*
X12680543Y2533853D01*
X12671602Y2524302D01*
X12664084Y2513634D01*
X12658039Y2502001D01*
X12655550Y2495042D01*
X12653416Y2491486D01*
X12650063Y2489098D01*
X12645999Y2488285D01*
X12641935Y2489098D01*
X12638582Y2491486D01*
X12636449Y2495042D01*
X12633960Y2502001D01*
X12627914Y2513634D01*
X12620396Y2524302D01*
X12611455Y2533853D01*
X12601295Y2542133D01*
X12590119Y2548940D01*
X12578130Y2554122D01*
X12565532Y2557678D01*
X12552527Y2559456D01*
X12539472Y2559456D01*
X12526467Y2557678D01*
X12513868Y2554122D01*
X12501880Y2548940D01*
X12490704Y2542133D01*
X12480544Y2533853D01*
X12471603Y2524302D01*
X12464084Y2513634D01*
X12458039Y2502001D01*
X12455550Y2495042D01*
X12453416Y2491486D01*
X12450064Y2489098D01*
X12446000Y2488285D01*
X12441936Y2489098D01*
X12438583Y2491486D01*
X12436449Y2495042D01*
X12433960Y2502001D01*
X12427915Y2513634D01*
X12420396Y2524302D01*
X12411456Y2533853D01*
X12401296Y2542133D01*
X12390120Y2548940D01*
X12378131Y2554122D01*
X12365532Y2557678D01*
X12352528Y2559456D01*
X12339472Y2559456D01*
X12326467Y2557678D01*
X12313869Y2554122D01*
X12301880Y2548940D01*
X12290704Y2542133D01*
X12280544Y2533853D01*
X12271603Y2524302D01*
X12266574Y2517140D01*
X12263424Y2514295D01*
X12259411Y2512923D01*
X12255195Y2513330D01*
X12251486Y2515412D01*
X12248997Y2518867D01*
X12248134Y2523032D01*
X12248134Y2533243D01*
X12247372Y2539542D01*
X12245492Y2545029D01*
X12242393Y2549906D01*
X12238329Y2554020D01*
X12233402Y2557068D01*
X12227966Y2558999D01*
X12221616Y2559710D01*
X12158726Y2559710D01*
X12158726Y2476500D01*
X12240107Y2476500D01*
X12244019Y2475738D01*
X12247270Y2473502D01*
X12249505Y2470251D01*
X12250267Y2466340D01*
X12250267Y2461260D01*
X12249505Y2457348D01*
X12247270Y2454097D01*
X12244019Y2451862D01*
X12240107Y2451100D01*
X12158726Y2451100D01*
G37*
G36*
X12043918Y2476500D02*
G01*
X12133326Y2476500D01*
X12133326Y2559710D01*
X12070384Y2559710D01*
X12064034Y2558999D01*
X12058599Y2557068D01*
X12053671Y2554020D01*
X12049607Y2549906D01*
X12046508Y2545029D01*
X12044629Y2539542D01*
X12043918Y2533243D01*
G37*
G36*
X2581757Y2742692D02*
G01*
X10180624Y2742692D01*
X10186974Y2743403D01*
X10192410Y2745333D01*
X10197338Y2748381D01*
X10201402Y2752496D01*
X10204500Y2757373D01*
X10206380Y2762859D01*
X10207091Y2769158D01*
X10207091Y10794441D01*
X10206380Y10800740D01*
X10204500Y10806226D01*
X10201402Y10811103D01*
X10197338Y10815218D01*
X10192410Y10818266D01*
X10186974Y10820196D01*
X10180624Y10820908D01*
X2581757Y10820908D01*
X2575458Y10820196D01*
X2569972Y10818266D01*
X2565095Y10815218D01*
X2560980Y10811103D01*
X2557932Y10806226D01*
X2556002Y10800740D01*
X2555290Y10794441D01*
X2555290Y2769158D01*
X2556002Y2762859D01*
X2557932Y2757373D01*
X2560980Y2752496D01*
X2565095Y2748381D01*
X2569972Y2745333D01*
X2575458Y2743403D01*
G37*
G36*
X12396114Y3601161D02*
G01*
X12443206Y3601669D01*
X12490196Y3604158D01*
X12536982Y3608679D01*
X12583617Y3615182D01*
X12629896Y3623716D01*
X12675768Y3634181D01*
X12721132Y3646576D01*
X12765938Y3660952D01*
X12810134Y3677158D01*
X12853517Y3695293D01*
X12896138Y3715258D01*
X12937845Y3737051D01*
X12978587Y3760571D01*
X13018312Y3785819D01*
X13056920Y3812743D01*
X13094309Y3841242D01*
X13130479Y3871366D01*
X13165277Y3903014D01*
X13198754Y3936085D01*
X13230758Y3970578D01*
X13261238Y4006443D01*
X13290194Y4043527D01*
X13317524Y4081830D01*
X13343178Y4121251D01*
X13367156Y4161739D01*
X13389356Y4203242D01*
X13409777Y4245610D01*
X13428370Y4288840D01*
X13445083Y4332833D01*
X13459917Y4377486D01*
X13472820Y4422749D01*
X13483793Y4468520D01*
X13492784Y4514697D01*
X13499795Y4561230D01*
X13501928Y4581448D01*
X13502995Y4585004D01*
X13505281Y4587951D01*
X13508431Y4589881D01*
X13512038Y4590542D01*
X13715796Y4590542D01*
X13720775Y4590745D01*
X13725499Y4591354D01*
X13730173Y4592320D01*
X13734694Y4593691D01*
X13739164Y4595418D01*
X13743432Y4597501D01*
X13747546Y4599940D01*
X13751407Y4602683D01*
X13755065Y4605782D01*
X13758418Y4609134D01*
X13761516Y4612792D01*
X13764260Y4616653D01*
X13766698Y4620768D01*
X13768781Y4625035D01*
X13770508Y4629505D01*
X13771880Y4634026D01*
X13772845Y4638700D01*
X13773454Y4643424D01*
X13773657Y4648403D01*
X13773657Y10159593D01*
X13772845Y10169499D01*
X13770508Y10178694D01*
X13766698Y10187432D01*
X13761415Y10195458D01*
X13756538Y10200995D01*
X12844322Y11113211D01*
X12842290Y11116157D01*
X12841376Y11119662D01*
X12840970Y11125555D01*
X12838328Y11138357D01*
X12833959Y11150701D01*
X12827914Y11162334D01*
X12820396Y11173002D01*
X12811455Y11182553D01*
X12801295Y11190833D01*
X12790119Y11197640D01*
X12778130Y11202822D01*
X12765532Y11206378D01*
X12752527Y11208156D01*
X12739471Y11208156D01*
X12726466Y11206378D01*
X12713868Y11202822D01*
X12701879Y11197640D01*
X12690703Y11190833D01*
X12680543Y11182553D01*
X12671958Y11173358D01*
X12668605Y11171021D01*
X12664541Y11170158D01*
X12627457Y11170158D01*
X12623393Y11171021D01*
X12620040Y11173358D01*
X12611455Y11182553D01*
X12601295Y11190833D01*
X12590119Y11197640D01*
X12578130Y11202822D01*
X12565532Y11206378D01*
X12552527Y11208156D01*
X12539472Y11208156D01*
X12526467Y11206378D01*
X12513868Y11202822D01*
X12501880Y11197640D01*
X12490704Y11190833D01*
X12480544Y11182553D01*
X12471958Y11173358D01*
X12468606Y11171021D01*
X12464542Y11170158D01*
X12427458Y11170158D01*
X12423394Y11171021D01*
X12420041Y11173358D01*
X12411456Y11182553D01*
X12401296Y11190833D01*
X12390120Y11197640D01*
X12378131Y11202822D01*
X12365532Y11206378D01*
X12352528Y11208156D01*
X12339472Y11208156D01*
X12326467Y11206378D01*
X12313869Y11202822D01*
X12301880Y11197640D01*
X12290704Y11190833D01*
X12280544Y11182553D01*
X12271603Y11173002D01*
X12266574Y11165840D01*
X12263424Y11162995D01*
X12259411Y11161623D01*
X12255195Y11162030D01*
X12251486Y11164112D01*
X12248997Y11167567D01*
X12248134Y11171732D01*
X12248134Y11181943D01*
X12247372Y11188242D01*
X12245492Y11193729D01*
X12242393Y11198606D01*
X12238329Y11202720D01*
X12233402Y11205768D01*
X12227966Y11207699D01*
X12221616Y11208410D01*
X12158726Y11208410D01*
X12158726Y11125200D01*
X12240107Y11125200D01*
X12244019Y11124438D01*
X12247270Y11122202D01*
X12249505Y11118951D01*
X12250267Y11115040D01*
X12250267Y11109960D01*
X12249505Y11106048D01*
X12247270Y11102797D01*
X12244019Y11100562D01*
X12240107Y11099800D01*
X12158726Y11099800D01*
X12158726Y11016589D01*
X12221616Y11016589D01*
X12227966Y11017300D01*
X12233402Y11019231D01*
X12238329Y11022279D01*
X12242393Y11026394D01*
X12245492Y11031270D01*
X12247372Y11036757D01*
X12248134Y11043056D01*
X12248134Y11053267D01*
X12248997Y11057432D01*
X12251486Y11060887D01*
X12255195Y11062970D01*
X12259411Y11063376D01*
X12263424Y11062004D01*
X12266574Y11059160D01*
X12271603Y11051997D01*
X12280544Y11042446D01*
X12290704Y11034166D01*
X12301880Y11027359D01*
X12313869Y11022126D01*
X12326467Y11018621D01*
X12339472Y11016843D01*
X12352528Y11016843D01*
X12365532Y11018621D01*
X12378131Y11022126D01*
X12390120Y11027359D01*
X12401296Y11034166D01*
X12411456Y11042446D01*
X12420041Y11051641D01*
X12423394Y11053978D01*
X12427458Y11054842D01*
X12464542Y11054842D01*
X12468606Y11053978D01*
X12471958Y11051641D01*
X12480544Y11042446D01*
X12490704Y11034166D01*
X12501880Y11027359D01*
X12513868Y11022126D01*
X12526467Y11018621D01*
X12539472Y11016843D01*
X12552527Y11016843D01*
X12565532Y11018621D01*
X12578130Y11022126D01*
X12590119Y11027359D01*
X12601295Y11034166D01*
X12611455Y11042446D01*
X12620040Y11051641D01*
X12623393Y11053978D01*
X12627457Y11054842D01*
X12664541Y11054842D01*
X12668605Y11053978D01*
X12671958Y11051641D01*
X12680543Y11042446D01*
X12690703Y11034166D01*
X12701879Y11027359D01*
X12713868Y11022126D01*
X12726466Y11018621D01*
X12739471Y11016843D01*
X12752527Y11016843D01*
X12765532Y11018621D01*
X12767868Y11019282D01*
X12771424Y11019637D01*
X12774879Y11018723D01*
X12777774Y11016691D01*
X13655344Y10139070D01*
X13657580Y10135819D01*
X13658342Y10131907D01*
X13658342Y9285630D01*
X13657580Y9281718D01*
X13655344Y9278416D01*
X13651992Y9276232D01*
X13648080Y9275470D01*
X13518337Y9276740D01*
X13514527Y9277553D01*
X13511276Y9279686D01*
X13509091Y9282887D01*
X13508278Y9286697D01*
X13507821Y9308338D01*
X13504773Y9355277D01*
X13499795Y9402064D01*
X13492784Y9448596D01*
X13483793Y9494774D01*
X13472820Y9540544D01*
X13459917Y9585807D01*
X13445083Y9630460D01*
X13428370Y9674453D01*
X13409777Y9717684D01*
X13389356Y9760051D01*
X13367156Y9801555D01*
X13343178Y9842042D01*
X13317524Y9881463D01*
X13290194Y9919766D01*
X13261238Y9956850D01*
X13230758Y9992715D01*
X13198754Y10027208D01*
X13165277Y10060279D01*
X13130479Y10091928D01*
X13094309Y10122052D01*
X13056920Y10150551D01*
X13018312Y10177475D01*
X12978587Y10202722D01*
X12937845Y10226243D01*
X12896138Y10248036D01*
X12853517Y10268000D01*
X12810134Y10286136D01*
X12765938Y10302341D01*
X12721132Y10316718D01*
X12675768Y10329113D01*
X12629896Y10339578D01*
X12583617Y10348112D01*
X12536982Y10354614D01*
X12490196Y10359136D01*
X12443206Y10361625D01*
X12396114Y10362133D01*
X12349124Y10360660D01*
X12302185Y10357104D01*
X12255449Y10351617D01*
X12209018Y10344099D01*
X12162942Y10334599D01*
X12117273Y10323169D01*
X12072162Y10309758D01*
X12027662Y10294467D01*
X11983872Y10277297D01*
X11940844Y10258247D01*
X11898680Y10237368D01*
X11857431Y10214711D01*
X11817197Y10190327D01*
X11778030Y10164216D01*
X11740032Y10136479D01*
X11703253Y10107168D01*
X11667744Y10076281D01*
X11633606Y10043922D01*
X11600891Y10010089D01*
X11569598Y9974935D01*
X11539880Y9938461D01*
X11511737Y9900767D01*
X11485219Y9861905D01*
X11460429Y9821926D01*
X11437315Y9780930D01*
X11416030Y9738969D01*
X11396522Y9696145D01*
X11378844Y9652508D01*
X11363045Y9608210D01*
X11349177Y9563252D01*
X11337290Y9517735D01*
X11327282Y9471761D01*
X11319256Y9425381D01*
X11313261Y9378696D01*
X11309248Y9331858D01*
X11307216Y9284817D01*
X11307216Y9237776D01*
X11309248Y9190736D01*
X11313261Y9143898D01*
X11319256Y9097213D01*
X11327282Y9050832D01*
X11337290Y9004858D01*
X11349177Y8959342D01*
X11363045Y8914384D01*
X11378844Y8870035D01*
X11396522Y8826449D01*
X11416030Y8783624D01*
X11437315Y8741664D01*
X11460429Y8700668D01*
X11485219Y8660688D01*
X11511737Y8621826D01*
X11539880Y8584133D01*
X11569598Y8547658D01*
X11600891Y8512505D01*
X11633606Y8478672D01*
X11667744Y8446312D01*
X11703253Y8415426D01*
X11740032Y8386114D01*
X11778030Y8358378D01*
X11817197Y8332266D01*
X11857431Y8307882D01*
X11898680Y8285225D01*
X11940844Y8264347D01*
X11983872Y8245297D01*
X12027662Y8228126D01*
X12072162Y8212836D01*
X12117273Y8199424D01*
X12162942Y8187994D01*
X12209018Y8178495D01*
X12255449Y8170976D01*
X12302185Y8165490D01*
X12349124Y8161934D01*
X12396114Y8160461D01*
X12443206Y8160969D01*
X12490196Y8163458D01*
X12536982Y8167979D01*
X12583617Y8174481D01*
X12629896Y8183016D01*
X12675768Y8193481D01*
X12721132Y8205876D01*
X12765938Y8220252D01*
X12810134Y8236458D01*
X12853517Y8254593D01*
X12896138Y8274558D01*
X12937845Y8296351D01*
X12978587Y8319871D01*
X13018312Y8345119D01*
X13056920Y8372043D01*
X13094309Y8400542D01*
X13130479Y8430666D01*
X13165277Y8462314D01*
X13198754Y8495385D01*
X13230758Y8529878D01*
X13261238Y8565743D01*
X13290194Y8602827D01*
X13317524Y8641130D01*
X13343178Y8680551D01*
X13367156Y8721039D01*
X13389356Y8762542D01*
X13409777Y8804910D01*
X13428370Y8848140D01*
X13445083Y8892133D01*
X13459917Y8936786D01*
X13472820Y8982049D01*
X13483793Y9027820D01*
X13492784Y9073997D01*
X13499795Y9120530D01*
X13503198Y9152382D01*
X13504265Y9155988D01*
X13506551Y9158935D01*
X13509751Y9160814D01*
X13513409Y9161475D01*
X13648283Y9160154D01*
X13652144Y9159341D01*
X13655395Y9157157D01*
X13657580Y9153855D01*
X13658342Y9149994D01*
X13658342Y7001611D01*
X13657580Y6997700D01*
X13655344Y6994398D01*
X13652093Y6992213D01*
X13648182Y6991451D01*
X13518337Y6991451D01*
X13514476Y6992162D01*
X13511225Y6994347D01*
X13508990Y6997547D01*
X13508177Y7001357D01*
X13507719Y7022338D01*
X13504672Y7069277D01*
X13499693Y7116064D01*
X13492683Y7162596D01*
X13483691Y7208774D01*
X13472718Y7254544D01*
X13459815Y7299807D01*
X13444982Y7344460D01*
X13428268Y7388453D01*
X13409676Y7431684D01*
X13389254Y7474051D01*
X13367054Y7515555D01*
X13343077Y7556042D01*
X13317423Y7595463D01*
X13290092Y7633766D01*
X13261136Y7670850D01*
X13230656Y7706715D01*
X13198652Y7741208D01*
X13165175Y7774279D01*
X13130377Y7805928D01*
X13094208Y7836052D01*
X13056819Y7864551D01*
X13018211Y7891475D01*
X12978485Y7916722D01*
X12937744Y7940243D01*
X12896037Y7962036D01*
X12853416Y7982000D01*
X12810032Y8000136D01*
X12765836Y8016341D01*
X12721031Y8030718D01*
X12675666Y8043113D01*
X12629794Y8053578D01*
X12583515Y8062112D01*
X12536881Y8068614D01*
X12490094Y8073136D01*
X12443104Y8075625D01*
X12396012Y8076133D01*
X12349022Y8074659D01*
X12302083Y8071103D01*
X12255347Y8065617D01*
X12208916Y8058099D01*
X12162840Y8048599D01*
X12117171Y8037169D01*
X12072061Y8023758D01*
X12027560Y8008467D01*
X11983770Y7991297D01*
X11940743Y7972247D01*
X11898579Y7951368D01*
X11857329Y7928711D01*
X11817096Y7904327D01*
X11777929Y7878216D01*
X11739930Y7850479D01*
X11703151Y7821168D01*
X11667642Y7790281D01*
X11633504Y7757922D01*
X11600789Y7724089D01*
X11569496Y7688935D01*
X11539778Y7652461D01*
X11511635Y7614767D01*
X11485118Y7575905D01*
X11460327Y7535925D01*
X11437213Y7494930D01*
X11415928Y7452969D01*
X11396421Y7410145D01*
X11378742Y7366508D01*
X11362944Y7322210D01*
X11349075Y7277252D01*
X11337188Y7231735D01*
X11327180Y7185761D01*
X11319154Y7139381D01*
X11313160Y7092696D01*
X11309146Y7045858D01*
X11307114Y6998817D01*
X11307114Y6951776D01*
X11309146Y6904736D01*
X11313160Y6857898D01*
X11319154Y6811213D01*
X11327180Y6764832D01*
X11337188Y6718858D01*
X11349075Y6673342D01*
X11362944Y6628384D01*
X11378742Y6584035D01*
X11396421Y6540449D01*
X11415928Y6497624D01*
X11437213Y6455664D01*
X11460327Y6414668D01*
X11485118Y6374688D01*
X11511635Y6335826D01*
X11539778Y6298133D01*
X11569496Y6261658D01*
X11600789Y6226505D01*
X11633504Y6192672D01*
X11667642Y6160312D01*
X11703151Y6129426D01*
X11739930Y6100114D01*
X11777929Y6072378D01*
X11817096Y6046266D01*
X11857329Y6021882D01*
X11898579Y5999226D01*
X11940743Y5978347D01*
X11983770Y5959297D01*
X12027560Y5942126D01*
X12072061Y5926836D01*
X12117171Y5913424D01*
X12162840Y5901994D01*
X12208916Y5892495D01*
X12255347Y5884976D01*
X12302083Y5879490D01*
X12349022Y5875934D01*
X12396012Y5874461D01*
X12443104Y5874969D01*
X12490094Y5877458D01*
X12536881Y5881979D01*
X12583515Y5888482D01*
X12629794Y5897016D01*
X12675666Y5907481D01*
X12721031Y5919876D01*
X12765836Y5934252D01*
X12810032Y5950458D01*
X12853416Y5968593D01*
X12896037Y5988558D01*
X12937744Y6010351D01*
X12978485Y6033871D01*
X13018211Y6059119D01*
X13056819Y6086043D01*
X13094208Y6114542D01*
X13130377Y6144666D01*
X13165175Y6176314D01*
X13198652Y6209385D01*
X13230656Y6243878D01*
X13261136Y6279743D01*
X13290092Y6316827D01*
X13317423Y6355130D01*
X13343077Y6394551D01*
X13367054Y6435039D01*
X13389254Y6476542D01*
X13409676Y6518909D01*
X13428268Y6562140D01*
X13444982Y6606133D01*
X13459815Y6650786D01*
X13472718Y6696049D01*
X13483691Y6741820D01*
X13492683Y6787997D01*
X13499693Y6834530D01*
X13503148Y6867042D01*
X13504214Y6870598D01*
X13506500Y6873494D01*
X13509650Y6875424D01*
X13513257Y6876135D01*
X13648182Y6876135D01*
X13652093Y6875322D01*
X13655344Y6873138D01*
X13657580Y6869836D01*
X13658342Y6865975D01*
X13658342Y4716018D01*
X13657580Y4712106D01*
X13655344Y4708855D01*
X13652093Y4706620D01*
X13648182Y4705858D01*
X13518692Y4705858D01*
X13514832Y4706620D01*
X13511580Y4708753D01*
X13509345Y4712004D01*
X13508532Y4715814D01*
X13507821Y4749038D01*
X13504773Y4795977D01*
X13499795Y4842764D01*
X13492784Y4889296D01*
X13483793Y4935474D01*
X13472820Y4981244D01*
X13459917Y5026507D01*
X13445083Y5071160D01*
X13428370Y5115153D01*
X13409777Y5158384D01*
X13389356Y5200751D01*
X13367156Y5242255D01*
X13343178Y5282742D01*
X13317524Y5322163D01*
X13290194Y5360466D01*
X13261238Y5397550D01*
X13230758Y5433415D01*
X13198754Y5467908D01*
X13165277Y5500979D01*
X13130479Y5532628D01*
X13094309Y5562752D01*
X13056920Y5591251D01*
X13018312Y5618175D01*
X12978587Y5643422D01*
X12937845Y5666943D01*
X12896138Y5688736D01*
X12853517Y5708700D01*
X12810134Y5726836D01*
X12765938Y5743041D01*
X12721132Y5757418D01*
X12675768Y5769813D01*
X12629896Y5780278D01*
X12583617Y5788812D01*
X12536982Y5795314D01*
X12490196Y5799836D01*
X12443206Y5802325D01*
X12396114Y5802833D01*
X12349124Y5801360D01*
X12302185Y5797804D01*
X12255449Y5792317D01*
X12209018Y5784799D01*
X12162942Y5775299D01*
X12117273Y5763869D01*
X12072162Y5750458D01*
X12027662Y5735167D01*
X11983872Y5717997D01*
X11940844Y5698947D01*
X11898680Y5678068D01*
X11857431Y5655411D01*
X11817197Y5631027D01*
X11778030Y5604916D01*
X11740032Y5577179D01*
X11703253Y5547868D01*
X11667744Y5516981D01*
X11633606Y5484622D01*
X11600891Y5450789D01*
X11569598Y5415635D01*
X11539880Y5379161D01*
X11511737Y5341467D01*
X11485219Y5302605D01*
X11460429Y5262626D01*
X11437315Y5221630D01*
X11416030Y5179669D01*
X11396522Y5136845D01*
X11378844Y5093208D01*
X11363045Y5048910D01*
X11349177Y5003952D01*
X11337290Y4958435D01*
X11327282Y4912461D01*
X11319256Y4866081D01*
X11313261Y4819396D01*
X11309248Y4772558D01*
X11307216Y4725517D01*
X11307216Y4678476D01*
X11309248Y4631436D01*
X11313261Y4584598D01*
X11319256Y4537913D01*
X11327282Y4491532D01*
X11337290Y4445558D01*
X11349177Y4400042D01*
X11363045Y4355084D01*
X11378844Y4310735D01*
X11396522Y4267149D01*
X11416030Y4224324D01*
X11437315Y4182364D01*
X11460429Y4141368D01*
X11485219Y4101388D01*
X11511737Y4062526D01*
X11539880Y4024833D01*
X11569598Y3988358D01*
X11600891Y3953205D01*
X11633606Y3919372D01*
X11667744Y3887012D01*
X11703253Y3856126D01*
X11740032Y3826814D01*
X11778030Y3799078D01*
X11817197Y3772966D01*
X11857431Y3748582D01*
X11898680Y3725926D01*
X11940844Y3705047D01*
X11983872Y3685997D01*
X12027662Y3668826D01*
X12072162Y3653536D01*
X12117273Y3640124D01*
X12162942Y3628694D01*
X12209018Y3619195D01*
X12255449Y3611676D01*
X12302185Y3606190D01*
X12349124Y3602634D01*
G37*
G36*
X12070384Y11016589D02*
G01*
X12133326Y11016589D01*
X12133326Y11099800D01*
X12043918Y11099800D01*
X12043918Y11043056D01*
X12044629Y11036757D01*
X12046508Y11031270D01*
X12049607Y11026394D01*
X12053671Y11022279D01*
X12058599Y11019231D01*
X12064034Y11017300D01*
G37*
G36*
X584758Y4126992D02*
G01*
X1675841Y4126992D01*
X1682140Y4127703D01*
X1687626Y4129633D01*
X1692503Y4132681D01*
X1696618Y4136796D01*
X1699666Y4141673D01*
X1701596Y4147159D01*
X1702307Y4153458D01*
X1702307Y5244541D01*
X1701596Y5250840D01*
X1699666Y5256326D01*
X1696618Y5261203D01*
X1692503Y5265318D01*
X1687626Y5268366D01*
X1682140Y5270296D01*
X1675841Y5271008D01*
X584758Y5271008D01*
X578459Y5270296D01*
X572973Y5268366D01*
X568096Y5265318D01*
X563981Y5261203D01*
X560933Y5256326D01*
X559003Y5250840D01*
X558292Y5244541D01*
X558292Y4153458D01*
X559003Y4147159D01*
X560933Y4141673D01*
X563981Y4136796D01*
X568096Y4132681D01*
X572973Y4129633D01*
X578459Y4127703D01*
G37*
G36*
X11391900Y10999317D02*
G01*
X11407089Y11000232D01*
X11422024Y11002975D01*
X11436553Y11007496D01*
X11450421Y11013744D01*
X11463426Y11021618D01*
X11475364Y11030966D01*
X11486134Y11041735D01*
X11495481Y11053673D01*
X11503355Y11066678D01*
X11509603Y11080546D01*
X11514124Y11095075D01*
X11516868Y11110010D01*
X11517782Y11125200D01*
X11516868Y11140389D01*
X11514124Y11155324D01*
X11509603Y11169853D01*
X11503355Y11183721D01*
X11495481Y11196726D01*
X11486134Y11208664D01*
X11475364Y11219434D01*
X11463426Y11228781D01*
X11450421Y11236655D01*
X11436553Y11242903D01*
X11422024Y11247424D01*
X11407089Y11250168D01*
X11391900Y11251082D01*
X11376710Y11250168D01*
X11361775Y11247424D01*
X11347246Y11242903D01*
X11333378Y11236655D01*
X11320373Y11228781D01*
X11308435Y11219434D01*
X11297666Y11208664D01*
X11288318Y11196726D01*
X11280444Y11183721D01*
X11274196Y11169853D01*
X11269675Y11155324D01*
X11266932Y11140389D01*
X11266017Y11125200D01*
X11266932Y11110010D01*
X11269675Y11095075D01*
X11274196Y11080546D01*
X11280444Y11066678D01*
X11288318Y11053673D01*
X11297666Y11041735D01*
X11308435Y11030966D01*
X11320373Y11021618D01*
X11333378Y11013744D01*
X11347246Y11007496D01*
X11361775Y11002975D01*
X11376710Y11000232D01*
G37*
G36*
X13423900Y1766417D02*
G01*
X13439089Y1767332D01*
X13454024Y1770075D01*
X13468553Y1774596D01*
X13482421Y1780844D01*
X13495426Y1788718D01*
X13507364Y1798066D01*
X13518134Y1808835D01*
X13527481Y1820773D01*
X13535355Y1833778D01*
X13541603Y1847646D01*
X13546124Y1862175D01*
X13548868Y1877110D01*
X13549782Y1892300D01*
X13548868Y1907489D01*
X13546124Y1922424D01*
X13541603Y1936953D01*
X13535355Y1950821D01*
X13527481Y1963826D01*
X13518134Y1975764D01*
X13507364Y1986534D01*
X13495426Y1995881D01*
X13482421Y2003755D01*
X13468553Y2010003D01*
X13454024Y2014524D01*
X13439089Y2017268D01*
X13423900Y2018182D01*
X13408710Y2017268D01*
X13393775Y2014524D01*
X13379246Y2010003D01*
X13365378Y2003755D01*
X13352373Y1995881D01*
X13340435Y1986534D01*
X13329666Y1975764D01*
X13320318Y1963826D01*
X13312444Y1950821D01*
X13306196Y1936953D01*
X13301675Y1922424D01*
X13298932Y1907489D01*
X13298017Y1892300D01*
X13298932Y1877110D01*
X13301675Y1862175D01*
X13306196Y1847646D01*
X13312444Y1833778D01*
X13320318Y1820773D01*
X13329666Y1808835D01*
X13340435Y1798066D01*
X13352373Y1788718D01*
X13365378Y1780844D01*
X13379246Y1774596D01*
X13393775Y1770075D01*
X13408710Y1767332D01*
G37*
G36*
X584758Y6400292D02*
G01*
X1675841Y6400292D01*
X1682140Y6401003D01*
X1687626Y6402933D01*
X1692503Y6405981D01*
X1696618Y6410096D01*
X1699666Y6414973D01*
X1701596Y6420459D01*
X1702307Y6426758D01*
X1702307Y7517841D01*
X1701596Y7524140D01*
X1699666Y7529626D01*
X1696618Y7534503D01*
X1692503Y7538618D01*
X1687626Y7541666D01*
X1682140Y7543596D01*
X1675841Y7544308D01*
X584758Y7544308D01*
X578459Y7543596D01*
X572973Y7541666D01*
X568096Y7538618D01*
X563981Y7534503D01*
X560933Y7529626D01*
X559003Y7524140D01*
X558292Y7517841D01*
X558292Y6426758D01*
X559003Y6420459D01*
X560933Y6414973D01*
X563981Y6410096D01*
X568096Y6405981D01*
X572973Y6402933D01*
X578459Y6401003D01*
G37*
G36*
X584200Y10999317D02*
G01*
X599389Y11000232D01*
X614324Y11002975D01*
X628853Y11007496D01*
X642721Y11013744D01*
X655726Y11021618D01*
X667664Y11030966D01*
X678434Y11041735D01*
X687781Y11053673D01*
X695655Y11066678D01*
X701903Y11080546D01*
X706424Y11095075D01*
X709168Y11110010D01*
X710082Y11125200D01*
X709168Y11140389D01*
X706424Y11155324D01*
X701903Y11169853D01*
X695655Y11183721D01*
X687781Y11196726D01*
X678434Y11208664D01*
X667664Y11219434D01*
X655726Y11228781D01*
X642721Y11236655D01*
X628853Y11242903D01*
X614324Y11247424D01*
X599389Y11250168D01*
X584200Y11251082D01*
X569010Y11250168D01*
X554075Y11247424D01*
X539546Y11242903D01*
X525678Y11236655D01*
X512673Y11228781D01*
X500735Y11219434D01*
X489966Y11208664D01*
X480618Y11196726D01*
X472744Y11183721D01*
X466496Y11169853D01*
X461975Y11155324D01*
X459232Y11140389D01*
X458317Y11125200D01*
X459232Y11110010D01*
X461975Y11095075D01*
X466496Y11080546D01*
X472744Y11066678D01*
X480618Y11053673D01*
X489966Y11041735D01*
X500735Y11030966D01*
X512673Y11021618D01*
X525678Y11013744D01*
X539546Y11007496D01*
X554075Y11002975D01*
X569010Y11000232D01*
G37*
G36*
X11391900Y1766417D02*
G01*
X11407089Y1767332D01*
X11422024Y1770075D01*
X11436553Y1774596D01*
X11450421Y1780844D01*
X11463426Y1788718D01*
X11475364Y1798066D01*
X11486134Y1808835D01*
X11495481Y1820773D01*
X11503355Y1833778D01*
X11509603Y1847646D01*
X11514124Y1862175D01*
X11516868Y1877110D01*
X11517782Y1892300D01*
X11516868Y1907489D01*
X11514124Y1922424D01*
X11509603Y1936953D01*
X11503355Y1950821D01*
X11495481Y1963826D01*
X11486134Y1975764D01*
X11475364Y1986534D01*
X11463426Y1995881D01*
X11450421Y2003755D01*
X11436553Y2010003D01*
X11422024Y2014524D01*
X11407089Y2017268D01*
X11391900Y2018182D01*
X11376710Y2017268D01*
X11361775Y2014524D01*
X11347246Y2010003D01*
X11333378Y2003755D01*
X11320373Y1995881D01*
X11308435Y1986534D01*
X11297666Y1975764D01*
X11288318Y1963826D01*
X11280444Y1950821D01*
X11274196Y1936953D01*
X11269675Y1922424D01*
X11266932Y1907489D01*
X11266017Y1892300D01*
X11266932Y1877110D01*
X11269675Y1862175D01*
X11274196Y1847646D01*
X11280444Y1833778D01*
X11288318Y1820773D01*
X11297666Y1808835D01*
X11308435Y1798066D01*
X11320373Y1788718D01*
X11333378Y1780844D01*
X11347246Y1774596D01*
X11361775Y1770075D01*
X11376710Y1767332D01*
G37*
G36*
X13423900Y10999317D02*
G01*
X13439089Y11000232D01*
X13454024Y11002975D01*
X13468553Y11007496D01*
X13482421Y11013744D01*
X13495426Y11021618D01*
X13507364Y11030966D01*
X13518134Y11041735D01*
X13527481Y11053673D01*
X13535355Y11066678D01*
X13541603Y11080546D01*
X13546124Y11095075D01*
X13548868Y11110010D01*
X13549782Y11125200D01*
X13548868Y11140389D01*
X13546124Y11155324D01*
X13541603Y11169853D01*
X13535355Y11183721D01*
X13527481Y11196726D01*
X13518134Y11208664D01*
X13507364Y11219434D01*
X13495426Y11228781D01*
X13482421Y11236655D01*
X13468553Y11242903D01*
X13454024Y11247424D01*
X13439089Y11250168D01*
X13423900Y11251082D01*
X13408710Y11250168D01*
X13393775Y11247424D01*
X13379246Y11242903D01*
X13365378Y11236655D01*
X13352373Y11228781D01*
X13340435Y11219434D01*
X13329666Y11208664D01*
X13320318Y11196726D01*
X13312444Y11183721D01*
X13306196Y11169853D01*
X13301675Y11155324D01*
X13298932Y11140389D01*
X13298017Y11125200D01*
X13298932Y11110010D01*
X13301675Y11095075D01*
X13306196Y11080546D01*
X13312444Y11066678D01*
X13320318Y11053673D01*
X13329666Y11041735D01*
X13340435Y11030966D01*
X13352373Y11021618D01*
X13365378Y11013744D01*
X13379246Y11007496D01*
X13393775Y11002975D01*
X13408710Y11000232D01*
G37*
G36*
X584758Y8686292D02*
G01*
X1675841Y8686292D01*
X1682140Y8687003D01*
X1687626Y8688933D01*
X1692503Y8691981D01*
X1696618Y8696096D01*
X1699666Y8700973D01*
X1701596Y8706459D01*
X1702307Y8712758D01*
X1702307Y9803841D01*
X1701596Y9810140D01*
X1699666Y9815626D01*
X1696618Y9820503D01*
X1692503Y9824618D01*
X1687626Y9827666D01*
X1682140Y9829596D01*
X1675841Y9830308D01*
X584758Y9830308D01*
X578459Y9829596D01*
X572973Y9827666D01*
X568096Y9824618D01*
X563981Y9820503D01*
X560933Y9815626D01*
X559003Y9810140D01*
X558292Y9803841D01*
X558292Y8712758D01*
X559003Y8706459D01*
X560933Y8700973D01*
X563981Y8696096D01*
X568096Y8691981D01*
X572973Y8688933D01*
X578459Y8687003D01*
G37*

%LPD*%
G36*
X12360249Y8367115D02*
G01*
X12357455Y8367369D01*
X12353645Y8368588D01*
X12350597Y8371128D01*
X12348768Y8374634D01*
X12348413Y8378545D01*
X12350343Y8397189D01*
X12331750Y8399119D01*
X12327940Y8400338D01*
X12324892Y8402828D01*
X12323064Y8406333D01*
X12322708Y8410295D01*
X12323216Y8415375D01*
X12324384Y8419134D01*
X12326924Y8422182D01*
X12330430Y8424011D01*
X12334392Y8424418D01*
X12352985Y8422436D01*
X12357252Y8462924D01*
X12343130Y8464397D01*
X12336729Y8464346D01*
X12331090Y8463026D01*
X12327534Y8461298D01*
X12323876Y8460282D01*
X12320117Y8460689D01*
X12316764Y8462416D01*
X12313666Y8464854D01*
X12308433Y8467344D01*
X12302185Y8468715D01*
X12248642Y8474354D01*
X12241123Y8474303D01*
X12236856Y8475218D01*
X12230049Y8478316D01*
X12216485Y8482685D01*
X12203938Y8443976D01*
X12210491Y8441842D01*
X12213539Y8440216D01*
X12215876Y8437727D01*
X12217247Y8434527D01*
X12217450Y8431123D01*
X12216942Y8425942D01*
X12215469Y8421725D01*
X12212370Y8418474D01*
X12208154Y8416950D01*
X12203684Y8417356D01*
X12196064Y8419846D01*
X12190272Y8402015D01*
X12188342Y8398560D01*
X12185243Y8396122D01*
X12181433Y8395004D01*
X12177471Y8395512D01*
X12172645Y8397087D01*
X12169190Y8399018D01*
X12166752Y8402116D01*
X12165634Y8405926D01*
X12166142Y8409889D01*
X12171934Y8427669D01*
X12154103Y8433460D01*
X12150648Y8435390D01*
X12148210Y8438489D01*
X12147092Y8442350D01*
X12147600Y8446262D01*
X12149175Y8451088D01*
X12151106Y8454542D01*
X12154204Y8457031D01*
X12158014Y8458098D01*
X12161977Y8457641D01*
X12179757Y8451850D01*
X12192355Y8490559D01*
X12178792Y8494928D01*
X12172594Y8496198D01*
X12166803Y8496096D01*
X12162942Y8495131D01*
X12159132Y8494877D01*
X12155576Y8496046D01*
X12152630Y8498484D01*
X12150090Y8501532D01*
X12145467Y8505037D01*
X12139676Y8507679D01*
X12088469Y8524290D01*
X12081103Y8525814D01*
X12077141Y8527592D01*
X12071096Y8532063D01*
X12058751Y8539175D01*
X12038431Y8503920D01*
X12044426Y8500414D01*
X12047067Y8498230D01*
X12048794Y8495284D01*
X12049506Y8491880D01*
X12048998Y8488476D01*
X12047372Y8483549D01*
X12045086Y8479688D01*
X12041378Y8477199D01*
X12036907Y8476589D01*
X12032640Y8477910D01*
X12025731Y8481923D01*
X12017146Y8467140D01*
X12014606Y8464194D01*
X12011152Y8462416D01*
X12008967Y8461806D01*
X12004903Y8461502D01*
X12001093Y8462772D01*
X11998045Y8464499D01*
X11995099Y8467140D01*
X11993321Y8470696D01*
X11993067Y8474608D01*
X11994337Y8478367D01*
X12003684Y8494623D01*
X11987479Y8503970D01*
X11984532Y8506561D01*
X11982754Y8510117D01*
X11982500Y8514080D01*
X11983770Y8517839D01*
X11986310Y8522258D01*
X11988952Y8525205D01*
X11992508Y8526983D01*
X11996420Y8527237D01*
X12000179Y8525967D01*
X12016384Y8516620D01*
X12036755Y8551875D01*
X12024461Y8558987D01*
X12018619Y8561527D01*
X12012930Y8562594D01*
X12008916Y8562441D01*
X12005208Y8563000D01*
X12001957Y8564880D01*
X11999569Y8567826D01*
X11997690Y8571382D01*
X11993930Y8575751D01*
X11988800Y8579510D01*
X11942165Y8606485D01*
X11935307Y8609482D01*
X11931751Y8612022D01*
X11926773Y8617661D01*
X11916206Y8627160D01*
X11888978Y8596934D01*
X11894108Y8592261D01*
X11896242Y8589568D01*
X11897360Y8586317D01*
X11897309Y8582863D01*
X11896140Y8579662D01*
X11893550Y8575141D01*
X11890502Y8571839D01*
X11886336Y8570214D01*
X11881866Y8570468D01*
X11877903Y8572703D01*
X11871960Y8578037D01*
X11859463Y8564118D01*
X11856262Y8561781D01*
X11852402Y8560765D01*
X11848490Y8561324D01*
X11845086Y8563356D01*
X11841327Y8566759D01*
X11838940Y8569960D01*
X11837974Y8573770D01*
X11838533Y8577732D01*
X11840565Y8581136D01*
X11853113Y8595055D01*
X11839194Y8607552D01*
X11836806Y8610752D01*
X11835841Y8614562D01*
X11836400Y8618524D01*
X11838432Y8621928D01*
X11841835Y8625687D01*
X11845036Y8628075D01*
X11848846Y8629040D01*
X11852757Y8628481D01*
X11856161Y8626449D01*
X11870080Y8613902D01*
X11897360Y8644178D01*
X11886742Y8653678D01*
X11881561Y8657386D01*
X11876227Y8659622D01*
X11872315Y8660282D01*
X11868759Y8661654D01*
X11865965Y8664143D01*
X11864289Y8667546D01*
X11863222Y8671356D01*
X11860428Y8676436D01*
X11856212Y8681212D01*
X11816181Y8717229D01*
X11810085Y8721598D01*
X11807139Y8724849D01*
X11803430Y8731402D01*
X11795099Y8742883D01*
X11762130Y8718956D01*
X11766194Y8713368D01*
X11767718Y8710269D01*
X11768124Y8706866D01*
X11767362Y8703513D01*
X11765534Y8700617D01*
X11762079Y8696756D01*
X11758422Y8694166D01*
X11754002Y8693404D01*
X11749684Y8694623D01*
X11746280Y8697569D01*
X11741607Y8704021D01*
X11726418Y8693048D01*
X11722862Y8691372D01*
X11718899Y8691219D01*
X11715140Y8692591D01*
X11712244Y8695283D01*
X11709247Y8699398D01*
X11707622Y8703005D01*
X11707469Y8706967D01*
X11708841Y8710676D01*
X11711533Y8713571D01*
X11726672Y8724595D01*
X11715648Y8739733D01*
X11714022Y8743340D01*
X11713819Y8747302D01*
X11715191Y8751011D01*
X11717883Y8753906D01*
X11721998Y8756904D01*
X11725605Y8758580D01*
X11729567Y8758732D01*
X11733276Y8757361D01*
X11736222Y8754668D01*
X11747195Y8739530D01*
X11780164Y8763457D01*
X11771782Y8774988D01*
X11767464Y8779662D01*
X11762740Y8782964D01*
X11759031Y8784437D01*
X11755831Y8786469D01*
X11753646Y8789517D01*
X11752681Y8793175D01*
X11752427Y8797188D01*
X11750751Y8802725D01*
X11747601Y8808262D01*
X11715953Y8851798D01*
X11710873Y8857335D01*
X11708688Y8861145D01*
X11706453Y8868308D01*
X11700662Y8881313D01*
X11663476Y8864752D01*
X11666270Y8858402D01*
X11667134Y8854998D01*
X11666778Y8851493D01*
X11665254Y8848344D01*
X11662714Y8845905D01*
X11658447Y8842959D01*
X11654383Y8841333D01*
X11649964Y8841587D01*
X11646103Y8843670D01*
X11643461Y8847226D01*
X11640261Y8854389D01*
X11627408Y8848699D01*
X11624157Y8847836D01*
X11620754Y8848140D01*
X11614962Y8849614D01*
X11612168Y8850833D01*
X11609832Y8852763D01*
X11607647Y8856573D01*
X11606784Y8860434D01*
X11607444Y8864346D01*
X11609578Y8867698D01*
X11612829Y8869984D01*
X11629948Y8877604D01*
X11622328Y8894724D01*
X11621414Y8898585D01*
X11622125Y8902496D01*
X11624208Y8905849D01*
X11627459Y8908135D01*
X11632082Y8910167D01*
X11635943Y8911082D01*
X11639854Y8910370D01*
X11643207Y8908288D01*
X11645493Y8905036D01*
X11653113Y8887917D01*
X11690299Y8904478D01*
X11684508Y8917482D01*
X11681307Y8922969D01*
X11677345Y8927185D01*
X11674043Y8929420D01*
X11671350Y8932062D01*
X11669826Y8935516D01*
X11669623Y8939276D01*
X11670182Y8943238D01*
X11669725Y8949029D01*
X11667794Y8955074D01*
X11645900Y9004249D01*
X11642090Y9010751D01*
X11640769Y9014917D01*
X11640007Y9022384D01*
X11637060Y9036304D01*
X11597233Y9027820D01*
X11598656Y9021064D01*
X11598808Y9017609D01*
X11597792Y9014307D01*
X11595760Y9011564D01*
X11592864Y9009634D01*
X11588140Y9007551D01*
X11583720Y9006687D01*
X11579402Y9007754D01*
X11575948Y9010650D01*
X11574068Y9014714D01*
X11572392Y9022537D01*
X11554460Y9018727D01*
X11550497Y9018676D01*
X11546332Y9020454D01*
X11543487Y9023248D01*
X11541963Y9026855D01*
X11540998Y9031427D01*
X11540947Y9035389D01*
X11542369Y9039098D01*
X11545163Y9041942D01*
X11548821Y9043517D01*
X11567109Y9047378D01*
X11563197Y9065717D01*
X11563146Y9069679D01*
X11564620Y9073337D01*
X11567414Y9076182D01*
X11571071Y9077756D01*
X11575999Y9078823D01*
X11579961Y9078874D01*
X11583670Y9077401D01*
X11586514Y9074607D01*
X11588089Y9071000D01*
X11591950Y9052661D01*
X11631777Y9061145D01*
X11628831Y9075064D01*
X11626799Y9081109D01*
X11623802Y9086037D01*
X11621008Y9088882D01*
X11618925Y9092031D01*
X11618163Y9095740D01*
X11618772Y9099448D01*
X11620144Y9103207D01*
X11620906Y9108948D01*
X11620246Y9115298D01*
X11609070Y9167977D01*
X11606682Y9175089D01*
X11606225Y9179407D01*
X11607088Y9186875D01*
X11607088Y9201099D01*
X11566398Y9201099D01*
X11566398Y9194190D01*
X11565788Y9190786D01*
X11564112Y9187789D01*
X11561521Y9185503D01*
X11558320Y9184233D01*
X11553240Y9183166D01*
X11548770Y9183217D01*
X11544757Y9185198D01*
X11541963Y9188754D01*
X11540998Y9193123D01*
X11540998Y9201099D01*
X11522811Y9201099D01*
X11518900Y9201912D01*
X11515090Y9204655D01*
X11512854Y9207957D01*
X11512092Y9211818D01*
X11512092Y9216339D01*
X11512854Y9220250D01*
X11515090Y9223552D01*
X11518341Y9225737D01*
X11522252Y9226499D01*
X11540998Y9226499D01*
X11540998Y9245244D01*
X11541760Y9249105D01*
X11543944Y9252407D01*
X11547246Y9254642D01*
X11551158Y9255404D01*
X11556238Y9255404D01*
X11560098Y9254642D01*
X11563400Y9252407D01*
X11565585Y9249105D01*
X11566398Y9245244D01*
X11566398Y9226499D01*
X11607088Y9226499D01*
X11607088Y9240723D01*
X11606377Y9247073D01*
X11604447Y9252508D01*
X11602364Y9255912D01*
X11600942Y9259417D01*
X11600942Y9263176D01*
X11602364Y9266732D01*
X11604447Y9270085D01*
X11606377Y9275572D01*
X11607088Y9281871D01*
X11607088Y9335719D01*
X11606784Y9338462D01*
X11606936Y9341764D01*
X11608206Y9344863D01*
X11610492Y9348622D01*
X11612473Y9354667D01*
X11615420Y9368586D01*
X11575643Y9377019D01*
X11574170Y9370263D01*
X11572900Y9367062D01*
X11570614Y9364472D01*
X11567617Y9362795D01*
X11564264Y9362236D01*
X11559032Y9362236D01*
X11554663Y9363202D01*
X11551158Y9365996D01*
X11549176Y9370009D01*
X11549126Y9374479D01*
X11550751Y9382302D01*
X11534444Y9385808D01*
X11530888Y9387281D01*
X11528145Y9390024D01*
X11526570Y9392361D01*
X11524996Y9396120D01*
X11525046Y9400184D01*
X11525707Y9403232D01*
X11527231Y9406890D01*
X11530076Y9409633D01*
X11533784Y9411106D01*
X11537746Y9411055D01*
X11556034Y9407144D01*
X11559946Y9425482D01*
X11561521Y9429140D01*
X11564366Y9431883D01*
X11568023Y9433356D01*
X11571986Y9433306D01*
X11576964Y9432239D01*
X11580622Y9430664D01*
X11583365Y9427819D01*
X11584838Y9424162D01*
X11584787Y9420199D01*
X11580876Y9401911D01*
X11620703Y9393428D01*
X11623700Y9407347D01*
X11624310Y9413697D01*
X11623548Y9419437D01*
X11622176Y9423146D01*
X11621566Y9426905D01*
X11622379Y9430562D01*
X11624411Y9433712D01*
X11627205Y9436608D01*
X11630202Y9441535D01*
X11632234Y9447580D01*
X11643410Y9500260D01*
X11644172Y9507728D01*
X11645493Y9511893D01*
X11649303Y9518345D01*
X11655094Y9531350D01*
X11617909Y9547910D01*
X11615064Y9541560D01*
X11613184Y9538716D01*
X11610441Y9536633D01*
X11607139Y9535617D01*
X11603685Y9535769D01*
X11598605Y9536836D01*
X11594541Y9538716D01*
X11591696Y9542170D01*
X11590578Y9546539D01*
X11591442Y9550908D01*
X11594693Y9558223D01*
X11578590Y9565386D01*
X11575389Y9567672D01*
X11572697Y9572396D01*
X11572036Y9576358D01*
X11572900Y9580270D01*
X11574526Y9583928D01*
X11576812Y9587128D01*
X11580164Y9589262D01*
X11584076Y9589922D01*
X11587937Y9589058D01*
X11605056Y9581438D01*
X11612626Y9598558D01*
X11614912Y9601758D01*
X11618264Y9603892D01*
X11622176Y9604552D01*
X11626037Y9603689D01*
X11630710Y9601606D01*
X11633962Y9599320D01*
X11636044Y9595967D01*
X11636705Y9592056D01*
X11635841Y9588195D01*
X11628221Y9571126D01*
X11665407Y9554565D01*
X11671198Y9567570D01*
X11673128Y9573615D01*
X11673586Y9579406D01*
X11673027Y9583318D01*
X11673230Y9587128D01*
X11674754Y9590582D01*
X11677446Y9593224D01*
X11680748Y9595408D01*
X11684711Y9599625D01*
X11687962Y9605111D01*
X11709857Y9654336D01*
X11712092Y9661499D01*
X11714276Y9665258D01*
X11719356Y9670796D01*
X11727738Y9682327D01*
X11694820Y9706254D01*
X11690705Y9700615D01*
X11688267Y9698228D01*
X11685117Y9696805D01*
X11681714Y9696500D01*
X11678361Y9697313D01*
X11673636Y9699447D01*
X11670030Y9702139D01*
X11667947Y9706102D01*
X11667744Y9710572D01*
X11669522Y9714687D01*
X11674246Y9721189D01*
X11659108Y9732162D01*
X11656415Y9735108D01*
X11655044Y9738817D01*
X11655196Y9742779D01*
X11656872Y9746386D01*
X11659819Y9750501D01*
X11662765Y9753193D01*
X11666474Y9754565D01*
X11670436Y9754412D01*
X11674043Y9752736D01*
X11689181Y9741712D01*
X11700205Y9756851D01*
X11703100Y9759543D01*
X11706809Y9760915D01*
X11710771Y9760762D01*
X11714378Y9759137D01*
X11718493Y9756140D01*
X11721185Y9753244D01*
X11722557Y9749485D01*
X11722404Y9745522D01*
X11720728Y9741916D01*
X11709704Y9726777D01*
X11742674Y9702850D01*
X11751005Y9714382D01*
X11754154Y9719919D01*
X11755831Y9725456D01*
X11756085Y9729419D01*
X11757050Y9733076D01*
X11759285Y9736124D01*
X11762435Y9738156D01*
X11766143Y9739680D01*
X11770918Y9742982D01*
X11775186Y9747656D01*
X11806834Y9791242D01*
X11810542Y9797745D01*
X11813489Y9800996D01*
X11819585Y9805365D01*
X11830151Y9814864D01*
X11802922Y9845141D01*
X11797792Y9840518D01*
X11794845Y9838690D01*
X11791492Y9837928D01*
X11788089Y9838334D01*
X11784990Y9839858D01*
X11780824Y9842906D01*
X11777827Y9846259D01*
X11776608Y9850577D01*
X11777370Y9854996D01*
X11779961Y9858654D01*
X11785904Y9864039D01*
X11776303Y9874707D01*
X11774373Y9877856D01*
X11773712Y9881514D01*
X11773712Y9887356D01*
X11774576Y9891471D01*
X11777929Y9895687D01*
X11781332Y9897719D01*
X11785244Y9898278D01*
X11789105Y9897313D01*
X11792254Y9894925D01*
X11804802Y9881006D01*
X11818721Y9893554D01*
X11822125Y9895586D01*
X11826036Y9896144D01*
X11829897Y9895179D01*
X11833047Y9892792D01*
X11836450Y9889032D01*
X11838482Y9885629D01*
X11839041Y9881666D01*
X11838076Y9877856D01*
X11835739Y9874656D01*
X11821820Y9862159D01*
X11849049Y9831882D01*
X11859615Y9841382D01*
X11863832Y9846157D01*
X11866626Y9851237D01*
X11867692Y9855098D01*
X11869420Y9858451D01*
X11872214Y9860991D01*
X11875719Y9862312D01*
X11879681Y9862972D01*
X11885015Y9865207D01*
X11890197Y9868916D01*
X11930227Y9904984D01*
X11935206Y9910572D01*
X11938711Y9913162D01*
X11945620Y9916160D01*
X11957913Y9923272D01*
X11937593Y9958527D01*
X11931548Y9955072D01*
X11928348Y9953853D01*
X11924893Y9953802D01*
X11921642Y9954920D01*
X11918950Y9957054D01*
X11915444Y9960914D01*
X11913260Y9964826D01*
X11912955Y9969296D01*
X11914632Y9973462D01*
X11917934Y9976510D01*
X11924893Y9980523D01*
X11915495Y9996728D01*
X11914225Y10000488D01*
X11914479Y10004450D01*
X11916257Y10008006D01*
X11919204Y10010597D01*
X11923623Y10013137D01*
X11927382Y10014407D01*
X11931345Y10014153D01*
X11934901Y10012426D01*
X11937492Y10009428D01*
X11946890Y9993223D01*
X11963095Y10002570D01*
X11966854Y10003840D01*
X11970766Y10003586D01*
X11974322Y10001859D01*
X11976963Y9998862D01*
X11979503Y9994442D01*
X11980773Y9990683D01*
X11980519Y9986721D01*
X11978741Y9983216D01*
X11975795Y9980574D01*
X11959590Y9971227D01*
X11979910Y9935972D01*
X11992254Y9943084D01*
X11997385Y9946843D01*
X12001144Y9951262D01*
X12003024Y9954768D01*
X12005360Y9957714D01*
X12008612Y9959594D01*
X12012371Y9960152D01*
X12016333Y9960000D01*
X12022023Y9961118D01*
X12027865Y9963658D01*
X12074499Y9990582D01*
X12080544Y9995001D01*
X12084558Y9996779D01*
X12091873Y9998303D01*
X12105436Y10002723D01*
X12092838Y10041432D01*
X12086234Y10039299D01*
X12082830Y10038791D01*
X12079478Y10039451D01*
X12076531Y10041229D01*
X12074296Y10043871D01*
X12071705Y10048341D01*
X12070384Y10052659D01*
X12071045Y10057079D01*
X12073534Y10060787D01*
X12077395Y10063124D01*
X12085015Y10065562D01*
X12079224Y10083393D01*
X12078766Y10087305D01*
X12079833Y10091115D01*
X12082272Y10094264D01*
X12085726Y10096195D01*
X12090552Y10097770D01*
X12094514Y10098227D01*
X12098324Y10097160D01*
X12101423Y10094671D01*
X12103354Y10091216D01*
X12109145Y10073436D01*
X12126976Y10079228D01*
X12130887Y10079685D01*
X12134697Y10078618D01*
X12137796Y10076129D01*
X12139777Y10072674D01*
X12141352Y10067848D01*
X12141809Y10063937D01*
X12140742Y10060127D01*
X12138253Y10056977D01*
X12134799Y10055047D01*
X12117019Y10049256D01*
X12129566Y10010546D01*
X12143130Y10014966D01*
X12148921Y10017607D01*
X12153493Y10021112D01*
X12156084Y10024160D01*
X12158980Y10026548D01*
X12162586Y10027716D01*
X12166346Y10027513D01*
X12170206Y10026497D01*
X12175998Y10026396D01*
X12182246Y10027666D01*
X12233452Y10044328D01*
X12240260Y10047427D01*
X12244578Y10048290D01*
X12252045Y10048240D01*
X12266218Y10049764D01*
X12261951Y10090251D01*
X12255093Y10089489D01*
X12251639Y10089743D01*
X12248489Y10091115D01*
X12245949Y10093452D01*
X12244324Y10096449D01*
X12242749Y10101427D01*
X12242342Y10105898D01*
X12243866Y10110063D01*
X12247118Y10113213D01*
X12251334Y10114635D01*
X12259310Y10115499D01*
X12257684Y10131044D01*
X12257989Y10134803D01*
X12259665Y10138206D01*
X12262205Y10141559D01*
X12265304Y10144302D01*
X12269266Y10145572D01*
X12271451Y10145826D01*
X12275413Y10145471D01*
X12278918Y10143591D01*
X12281458Y10140543D01*
X12282627Y10136784D01*
X12284557Y10118140D01*
X12303201Y10120122D01*
X12307112Y10119766D01*
X12310618Y10117886D01*
X12313158Y10114838D01*
X12314326Y10111079D01*
X12314885Y10105999D01*
X12314529Y10102088D01*
X12312650Y10098532D01*
X12309602Y10096042D01*
X12305842Y10094823D01*
X12287199Y10092893D01*
X12291466Y10052405D01*
X12305639Y10053878D01*
X12311837Y10055250D01*
X12317069Y10057739D01*
X12320219Y10060178D01*
X12323572Y10061956D01*
X12327331Y10062311D01*
X12330938Y10061346D01*
X12334544Y10059568D01*
X12340183Y10058247D01*
X12346533Y10058196D01*
X12400076Y10063835D01*
X12407442Y10065410D01*
X12411811Y10065410D01*
X12419126Y10063835D01*
X12433300Y10062311D01*
X12437516Y10102799D01*
X12430658Y10103561D01*
X12427305Y10104475D01*
X12424511Y10106456D01*
X12422530Y10109250D01*
X12421616Y10112603D01*
X12421057Y10117734D01*
X12421565Y10122204D01*
X12423952Y10126014D01*
X12427762Y10128402D01*
X12432233Y10128910D01*
X12440208Y10128097D01*
X12441885Y10144353D01*
X12443002Y10148011D01*
X12445441Y10151008D01*
X12447930Y10153142D01*
X12451486Y10155123D01*
X12455550Y10155478D01*
X12458344Y10155224D01*
X12462154Y10154056D01*
X12465202Y10151516D01*
X12467031Y10148011D01*
X12467386Y10144048D01*
X12465456Y10125405D01*
X12484049Y10123474D01*
X12487859Y10122306D01*
X12490907Y10119766D01*
X12492736Y10116261D01*
X12493091Y10112298D01*
X12492583Y10107269D01*
X12491415Y10103459D01*
X12488875Y10100411D01*
X12485370Y10098582D01*
X12481407Y10098227D01*
X12462814Y10100157D01*
X12458547Y10059670D01*
X12472670Y10058196D01*
X12479070Y10058247D01*
X12484709Y10059568D01*
X12488265Y10061295D01*
X12491923Y10062311D01*
X12495682Y10061905D01*
X12499035Y10060178D01*
X12502134Y10057739D01*
X12507366Y10055250D01*
X12513614Y10053878D01*
X12567158Y10048240D01*
X12574676Y10048290D01*
X12578943Y10047427D01*
X12585750Y10044277D01*
X12599314Y10039908D01*
X12611862Y10078618D01*
X12605308Y10080752D01*
X12602260Y10082377D01*
X12599924Y10084866D01*
X12598552Y10088067D01*
X12598349Y10091470D01*
X12598857Y10096652D01*
X12600330Y10100919D01*
X12603429Y10104120D01*
X12607645Y10105644D01*
X12612116Y10105237D01*
X12619736Y10102799D01*
X12625527Y10120579D01*
X12627457Y10124033D01*
X12630556Y10126472D01*
X12634366Y10127589D01*
X12638328Y10127081D01*
X12643154Y10125557D01*
X12646609Y10123576D01*
X12649047Y10120477D01*
X12650165Y10116667D01*
X12649657Y10112756D01*
X12643866Y10094925D01*
X12661696Y10089134D01*
X12665151Y10087203D01*
X12667589Y10084104D01*
X12668707Y10080294D01*
X12668199Y10076332D01*
X12666624Y10071506D01*
X12664694Y10068052D01*
X12661595Y10065613D01*
X12657785Y10064496D01*
X12653822Y10065004D01*
X12636042Y10070744D01*
X12623444Y10032034D01*
X12637008Y10027666D01*
X12643205Y10026396D01*
X12648996Y10026497D01*
X12652857Y10027462D01*
X12656667Y10027716D01*
X12660223Y10026548D01*
X12663170Y10024160D01*
X12665710Y10021062D01*
X12670332Y10017556D01*
X12676124Y10014966D01*
X12727330Y9998303D01*
X12734696Y9996779D01*
X12738658Y9995001D01*
X12744704Y9990582D01*
X12757048Y9983470D01*
X12777368Y10018674D01*
X12771374Y10022179D01*
X12768732Y10024364D01*
X12767005Y10027310D01*
X12766294Y10030714D01*
X12766802Y10034117D01*
X12768427Y10039045D01*
X12770713Y10042906D01*
X12774422Y10045395D01*
X12778892Y10046055D01*
X12783159Y10044684D01*
X12790068Y10040721D01*
X12798653Y10055504D01*
X12801193Y10058400D01*
X12804648Y10060178D01*
X12806832Y10060787D01*
X12810896Y10061092D01*
X12814706Y10059822D01*
X12817754Y10058095D01*
X12820700Y10055504D01*
X12822478Y10051948D01*
X12822732Y10047986D01*
X12821462Y10044226D01*
X12812115Y10028021D01*
X12828320Y10018623D01*
X12831267Y10016032D01*
X12833045Y10012476D01*
X12833299Y10008514D01*
X12832029Y10004755D01*
X12829489Y10000335D01*
X12826847Y9997389D01*
X12823291Y9995611D01*
X12819380Y9995357D01*
X12815620Y9996627D01*
X12799415Y10005974D01*
X12779044Y9970770D01*
X12791338Y9963607D01*
X12797180Y9961067D01*
X12802870Y9960000D01*
X12806883Y9960152D01*
X12810591Y9959594D01*
X12813893Y9957714D01*
X12816230Y9954768D01*
X12818110Y9951212D01*
X12821869Y9946843D01*
X12827000Y9943084D01*
X12873634Y9916160D01*
X12880492Y9913112D01*
X12884048Y9910572D01*
X12889026Y9904933D01*
X12899593Y9895433D01*
X12926822Y9925659D01*
X12921691Y9930333D01*
X12919557Y9933025D01*
X12918440Y9936276D01*
X12918490Y9939731D01*
X12919659Y9942931D01*
X12922250Y9947452D01*
X12925298Y9950754D01*
X12929463Y9952380D01*
X12933934Y9952126D01*
X12937896Y9949942D01*
X12943840Y9944557D01*
X12956336Y9958476D01*
X12959537Y9960864D01*
X12963398Y9961829D01*
X12967309Y9961270D01*
X12970713Y9959238D01*
X12974472Y9955834D01*
X12976860Y9952634D01*
X12977825Y9948824D01*
X12977266Y9944862D01*
X12975234Y9941458D01*
X12962686Y9927539D01*
X12976606Y9915042D01*
X12978993Y9911842D01*
X12979958Y9908032D01*
X12979400Y9904069D01*
X12977368Y9900666D01*
X12973964Y9896906D01*
X12970764Y9894519D01*
X12966954Y9893554D01*
X12963042Y9894112D01*
X12959638Y9896144D01*
X12945719Y9908692D01*
X12918440Y9878415D01*
X12929057Y9868916D01*
X12934238Y9865207D01*
X12939572Y9862972D01*
X12943484Y9862312D01*
X12947040Y9860991D01*
X12949834Y9858451D01*
X12951510Y9855047D01*
X12952577Y9851237D01*
X12955371Y9846157D01*
X12959588Y9841382D01*
X12999618Y9805365D01*
X13005714Y9800996D01*
X13008660Y9797745D01*
X13012369Y9791192D01*
X13020700Y9779711D01*
X13053669Y9803638D01*
X13049605Y9809226D01*
X13048081Y9812324D01*
X13047675Y9815728D01*
X13048437Y9819081D01*
X13050265Y9822027D01*
X13053720Y9825888D01*
X13057378Y9828428D01*
X13061797Y9829190D01*
X13066115Y9827971D01*
X13069519Y9825024D01*
X13074192Y9818573D01*
X13089331Y9829546D01*
X13092938Y9831222D01*
X13096900Y9831374D01*
X13100659Y9830003D01*
X13103555Y9827310D01*
X13106552Y9823196D01*
X13108178Y9819589D01*
X13108330Y9815626D01*
X13106958Y9811918D01*
X13104266Y9809022D01*
X13089128Y9797999D01*
X13100151Y9782860D01*
X13101777Y9779254D01*
X13101980Y9775291D01*
X13100608Y9771583D01*
X13097916Y9768687D01*
X13093801Y9765690D01*
X13090194Y9764014D01*
X13086232Y9763861D01*
X13082524Y9765233D01*
X13079577Y9767925D01*
X13068604Y9783064D01*
X13035635Y9759137D01*
X13044017Y9747656D01*
X13048335Y9742932D01*
X13053060Y9739630D01*
X13056768Y9738156D01*
X13059968Y9736124D01*
X13062153Y9733076D01*
X13063118Y9729419D01*
X13063372Y9725456D01*
X13065048Y9719919D01*
X13068198Y9714382D01*
X13099846Y9670796D01*
X13104926Y9665258D01*
X13107111Y9661448D01*
X13109346Y9654286D01*
X13115137Y9641332D01*
X13152323Y9657842D01*
X13149529Y9664192D01*
X13148665Y9667544D01*
X13148970Y9670948D01*
X13150443Y9674098D01*
X13152831Y9676536D01*
X13157047Y9679584D01*
X13161162Y9681362D01*
X13165632Y9681210D01*
X13169595Y9679127D01*
X13172287Y9675520D01*
X13175538Y9668205D01*
X13192658Y9675825D01*
X13196519Y9676688D01*
X13200430Y9676028D01*
X13203783Y9673894D01*
X13206069Y9670643D01*
X13208152Y9666020D01*
X13209016Y9662160D01*
X13208355Y9658248D01*
X13206222Y9654895D01*
X13202970Y9652609D01*
X13185851Y9644989D01*
X13193471Y9627870D01*
X13194385Y9624009D01*
X13193674Y9620097D01*
X13191591Y9616744D01*
X13188340Y9614458D01*
X13183717Y9612426D01*
X13179856Y9611512D01*
X13175945Y9612223D01*
X13172592Y9614306D01*
X13170306Y9617557D01*
X13162686Y9634677D01*
X13125500Y9618116D01*
X13131292Y9605111D01*
X13134492Y9599625D01*
X13138454Y9595408D01*
X13141756Y9593173D01*
X13144449Y9590532D01*
X13145973Y9587077D01*
X13146176Y9583318D01*
X13145617Y9579356D01*
X13146074Y9573615D01*
X13148005Y9567519D01*
X13169900Y9518345D01*
X13173710Y9511842D01*
X13175030Y9507728D01*
X13175792Y9500209D01*
X13178739Y9486290D01*
X13218566Y9494774D01*
X13217144Y9501581D01*
X13216991Y9504984D01*
X13218007Y9508286D01*
X13220039Y9511030D01*
X13222935Y9512960D01*
X13227659Y9515043D01*
X13232079Y9515957D01*
X13236397Y9514840D01*
X13239851Y9511944D01*
X13241731Y9507880D01*
X13243407Y9500057D01*
X13255751Y9502698D01*
X13259104Y9502800D01*
X13262305Y9501886D01*
X13265048Y9499904D01*
X13269315Y9495637D01*
X13271652Y9491980D01*
X13272262Y9487712D01*
X13271042Y9483547D01*
X13268198Y9480296D01*
X13264235Y9478518D01*
X13248690Y9475216D01*
X13252602Y9456877D01*
X13252653Y9452914D01*
X13251180Y9449257D01*
X13248386Y9446412D01*
X13244728Y9444837D01*
X13239800Y9443770D01*
X13235838Y9443720D01*
X13232130Y9445193D01*
X13229285Y9447987D01*
X13227710Y9451644D01*
X13223849Y9469932D01*
X13184022Y9461449D01*
X13186968Y9447530D01*
X13189000Y9441535D01*
X13191998Y9436557D01*
X13194792Y9433712D01*
X13196874Y9430562D01*
X13197636Y9426854D01*
X13197027Y9423146D01*
X13195655Y9419386D01*
X13194893Y9413646D01*
X13195554Y9407296D01*
X13206730Y9354616D01*
X13209117Y9347504D01*
X13209574Y9343186D01*
X13208711Y9335719D01*
X13208711Y9321495D01*
X13249401Y9321495D01*
X13249401Y9328404D01*
X13250011Y9331807D01*
X13251688Y9334804D01*
X13254278Y9337090D01*
X13257479Y9338360D01*
X13262559Y9339427D01*
X13267029Y9339376D01*
X13271042Y9337395D01*
X13273836Y9333890D01*
X13274801Y9329470D01*
X13274801Y9321495D01*
X13292988Y9321495D01*
X13296900Y9320733D01*
X13300710Y9317939D01*
X13302945Y9314637D01*
X13303707Y9310776D01*
X13303707Y9306255D01*
X13302945Y9302343D01*
X13300710Y9299041D01*
X13297458Y9296857D01*
X13293547Y9296095D01*
X13274801Y9296095D01*
X13274801Y9277350D01*
X13274040Y9273489D01*
X13271855Y9270187D01*
X13268553Y9267952D01*
X13264642Y9267190D01*
X13259562Y9267190D01*
X13255701Y9267952D01*
X13252399Y9270187D01*
X13250214Y9273489D01*
X13249401Y9277350D01*
X13249401Y9296095D01*
X13208711Y9296095D01*
X13208711Y9281871D01*
X13209422Y9275521D01*
X13211352Y9270085D01*
X13212673Y9267952D01*
X13214146Y9263938D01*
X13213791Y9259620D01*
X13211708Y9255861D01*
X13208254Y9253321D01*
X13204037Y9252407D01*
X13138708Y9252407D01*
X13134797Y9253169D01*
X13131495Y9255404D01*
X13129920Y9256979D01*
X13121894Y9262618D01*
X13112953Y9266732D01*
X13103504Y9269272D01*
X13093700Y9270136D01*
X13083895Y9269272D01*
X13074446Y9266732D01*
X13065506Y9262618D01*
X13057479Y9256979D01*
X13050519Y9250019D01*
X13044881Y9241993D01*
X13040766Y9233052D01*
X13038226Y9223603D01*
X13037362Y9213799D01*
X13038226Y9203994D01*
X13040766Y9194546D01*
X13044881Y9185605D01*
X13050519Y9177578D01*
X13057479Y9170619D01*
X13065506Y9164980D01*
X13074446Y9160865D01*
X13083895Y9158325D01*
X13093700Y9157462D01*
X13103504Y9158325D01*
X13112953Y9160865D01*
X13121894Y9164980D01*
X13129920Y9170619D01*
X13131495Y9172194D01*
X13134797Y9174429D01*
X13138708Y9175191D01*
X13192302Y9175191D01*
X13196671Y9174226D01*
X13200227Y9171432D01*
X13202208Y9167418D01*
X13202259Y9162897D01*
X13200380Y9154007D01*
X13240156Y9145574D01*
X13241629Y9152331D01*
X13242899Y9155531D01*
X13245185Y9158122D01*
X13248182Y9159798D01*
X13251535Y9160408D01*
X13256768Y9160408D01*
X13261136Y9159392D01*
X13264642Y9156598D01*
X13266623Y9152585D01*
X13266674Y9148114D01*
X13265048Y9140291D01*
X13283336Y9136380D01*
X13286994Y9134805D01*
X13289737Y9131960D01*
X13291210Y9128302D01*
X13291159Y9124340D01*
X13290092Y9119362D01*
X13288568Y9115704D01*
X13285724Y9112961D01*
X13282015Y9111488D01*
X13278053Y9111538D01*
X13259765Y9115450D01*
X13255853Y9097111D01*
X13254278Y9093504D01*
X13251434Y9090710D01*
X13247776Y9089237D01*
X13243813Y9089288D01*
X13238835Y9090355D01*
X13235178Y9091930D01*
X13232434Y9094774D01*
X13230961Y9098432D01*
X13231012Y9102394D01*
X13234924Y9120733D01*
X13195096Y9129166D01*
X13192099Y9115247D01*
X13191490Y9108948D01*
X13192251Y9103207D01*
X13193623Y9099448D01*
X13194233Y9095740D01*
X13193420Y9092031D01*
X13191388Y9088882D01*
X13188594Y9085986D01*
X13185597Y9081058D01*
X13183565Y9075013D01*
X13172389Y9022334D01*
X13171627Y9014866D01*
X13170306Y9010700D01*
X13166496Y9004249D01*
X13160705Y8991244D01*
X13197890Y8974683D01*
X13200735Y8981033D01*
X13202615Y8983878D01*
X13205358Y8985961D01*
X13208660Y8986977D01*
X13212114Y8986824D01*
X13217194Y8985758D01*
X13221258Y8983878D01*
X13224103Y8980424D01*
X13225221Y8976055D01*
X13224357Y8971686D01*
X13221106Y8964371D01*
X13238226Y8956751D01*
X13241426Y8954465D01*
X13243560Y8951112D01*
X13244220Y8947200D01*
X13243356Y8943340D01*
X13241274Y8938666D01*
X13238988Y8935466D01*
X13235635Y8933332D01*
X13231723Y8932672D01*
X13227862Y8933535D01*
X13210743Y8941155D01*
X13203174Y8924036D01*
X13200888Y8920835D01*
X13197535Y8918702D01*
X13193623Y8918041D01*
X13189762Y8918905D01*
X13185089Y8920988D01*
X13181838Y8923274D01*
X13179755Y8926626D01*
X13179094Y8930538D01*
X13179958Y8934399D01*
X13187578Y8951468D01*
X13150392Y8968028D01*
X13144601Y8955024D01*
X13142671Y8948978D01*
X13142213Y8943238D01*
X13142772Y8939276D01*
X13142569Y8935516D01*
X13141045Y8932062D01*
X13138353Y8929370D01*
X13135051Y8927185D01*
X13131088Y8922969D01*
X13127837Y8917482D01*
X13105942Y8868257D01*
X13103707Y8861094D01*
X13101523Y8857335D01*
X13096443Y8851798D01*
X13088061Y8840266D01*
X13120979Y8816340D01*
X13125094Y8821978D01*
X13127532Y8824366D01*
X13130682Y8825788D01*
X13134086Y8826093D01*
X13137438Y8825280D01*
X13142163Y8823147D01*
X13145769Y8820454D01*
X13147852Y8816492D01*
X13148056Y8812022D01*
X13146278Y8807907D01*
X13141553Y8801404D01*
X13156692Y8790432D01*
X13159384Y8787485D01*
X13160756Y8783777D01*
X13160603Y8779814D01*
X13158927Y8776208D01*
X13155980Y8772093D01*
X13153034Y8769400D01*
X13149326Y8768029D01*
X13145363Y8768232D01*
X13141756Y8769858D01*
X13126618Y8780881D01*
X13115645Y8765743D01*
X13112699Y8763050D01*
X13108990Y8761679D01*
X13105028Y8761831D01*
X13101421Y8763457D01*
X13097306Y8766454D01*
X13094614Y8769400D01*
X13093242Y8773109D01*
X13093395Y8777071D01*
X13095071Y8780678D01*
X13106095Y8795816D01*
X13073126Y8819743D01*
X13064794Y8808212D01*
X13061645Y8802674D01*
X13059968Y8797137D01*
X13059714Y8793175D01*
X13058749Y8789517D01*
X13056514Y8786469D01*
X13053364Y8784437D01*
X13049656Y8782913D01*
X13044881Y8779662D01*
X13040613Y8774938D01*
X13008965Y8731351D01*
X13005257Y8724849D01*
X13002310Y8721598D01*
X12996214Y8717229D01*
X12985648Y8707729D01*
X13012877Y8677452D01*
X13018008Y8682075D01*
X13020954Y8683955D01*
X13024307Y8684717D01*
X13027710Y8684310D01*
X13030809Y8682786D01*
X13034975Y8679738D01*
X13037972Y8676335D01*
X13039191Y8672017D01*
X13038429Y8667597D01*
X13035838Y8663940D01*
X13029895Y8658606D01*
X13042392Y8644686D01*
X13044424Y8641283D01*
X13044982Y8637320D01*
X13044017Y8633510D01*
X13041630Y8630310D01*
X13037870Y8626906D01*
X13034467Y8624874D01*
X13030555Y8624316D01*
X13026694Y8625281D01*
X13023545Y8627668D01*
X13010997Y8641588D01*
X12997078Y8629040D01*
X12993674Y8627059D01*
X12989763Y8626449D01*
X12985902Y8627465D01*
X12982752Y8629802D01*
X12979349Y8633612D01*
X12977317Y8637016D01*
X12976758Y8640927D01*
X12977723Y8644737D01*
X12980111Y8647938D01*
X12993979Y8660485D01*
X12966750Y8690711D01*
X12956184Y8681212D01*
X12951968Y8676436D01*
X12949174Y8671356D01*
X12948107Y8667546D01*
X12946380Y8664143D01*
X12943586Y8661603D01*
X12940080Y8660282D01*
X12936118Y8659622D01*
X12930784Y8657386D01*
X12925602Y8653678D01*
X12885572Y8617610D01*
X12880594Y8612022D01*
X12877088Y8609431D01*
X12870180Y8606434D01*
X12857886Y8599322D01*
X12878206Y8564067D01*
X12884251Y8567572D01*
X12887452Y8568740D01*
X12890906Y8568791D01*
X12894157Y8567674D01*
X12896850Y8565540D01*
X12900355Y8561679D01*
X12902539Y8557768D01*
X12902844Y8553297D01*
X12901168Y8549132D01*
X12897866Y8546084D01*
X12890906Y8542070D01*
X12894919Y8535212D01*
X12896189Y8531352D01*
X12895884Y8527338D01*
X12892125Y8520633D01*
X12889382Y8517280D01*
X12885470Y8515400D01*
X12881152Y8515248D01*
X12877190Y8516975D01*
X12874244Y8520176D01*
X12868910Y8529370D01*
X12852704Y8520023D01*
X12848945Y8518753D01*
X12845034Y8519007D01*
X12841478Y8520785D01*
X12838836Y8523732D01*
X12836296Y8528151D01*
X12835026Y8531910D01*
X12835280Y8535873D01*
X12837058Y8539429D01*
X12840004Y8542020D01*
X12856210Y8551367D01*
X12835890Y8586622D01*
X12823545Y8579510D01*
X12818414Y8575751D01*
X12814655Y8571382D01*
X12812776Y8567826D01*
X12810439Y8564880D01*
X12807188Y8563000D01*
X12803428Y8562441D01*
X12799466Y8562594D01*
X12793776Y8561527D01*
X12787934Y8558936D01*
X12741300Y8532012D01*
X12735255Y8527592D01*
X12731242Y8525814D01*
X12723926Y8524290D01*
X12710363Y8519871D01*
X12722961Y8481161D01*
X12729565Y8483295D01*
X12732969Y8483803D01*
X12736322Y8483142D01*
X12739268Y8481364D01*
X12741503Y8478723D01*
X12744094Y8474252D01*
X12745415Y8469934D01*
X12744754Y8465515D01*
X12742265Y8461806D01*
X12738404Y8459520D01*
X12730784Y8457031D01*
X12736576Y8439200D01*
X12737033Y8435289D01*
X12735966Y8431479D01*
X12733528Y8428329D01*
X12730073Y8426399D01*
X12725247Y8424824D01*
X12721285Y8424367D01*
X12717475Y8425434D01*
X12714376Y8427923D01*
X12712446Y8431377D01*
X12706654Y8449157D01*
X12688824Y8443366D01*
X12684912Y8442909D01*
X12681102Y8443976D01*
X12678003Y8446465D01*
X12676022Y8449919D01*
X12674447Y8454745D01*
X12673990Y8458657D01*
X12675108Y8462518D01*
X12677546Y8465616D01*
X12681000Y8467547D01*
X12698780Y8473338D01*
X12686233Y8512048D01*
X12672669Y8507628D01*
X12666878Y8505037D01*
X12662306Y8501532D01*
X12659715Y8498433D01*
X12656820Y8496046D01*
X12653213Y8494877D01*
X12649454Y8495131D01*
X12645593Y8496096D01*
X12639802Y8496198D01*
X12633553Y8494928D01*
X12582347Y8478316D01*
X12575540Y8475218D01*
X12571222Y8474303D01*
X12563754Y8474354D01*
X12549581Y8472830D01*
X12553848Y8432393D01*
X12560706Y8433104D01*
X12564160Y8432850D01*
X12567310Y8431530D01*
X12569850Y8429193D01*
X12571476Y8426145D01*
X12573050Y8421166D01*
X12573457Y8416747D01*
X12571933Y8412530D01*
X12568682Y8409381D01*
X12564465Y8407958D01*
X12556490Y8407095D01*
X12558115Y8391550D01*
X12557810Y8387791D01*
X12556134Y8384387D01*
X12553594Y8381034D01*
X12550495Y8378291D01*
X12546533Y8377021D01*
X12544348Y8376767D01*
X12540386Y8377174D01*
X12536881Y8379002D01*
X12534341Y8382050D01*
X12533172Y8385809D01*
X12531242Y8404453D01*
X12512598Y8402472D01*
X12508687Y8402878D01*
X12505182Y8404707D01*
X12502642Y8407755D01*
X12501473Y8411514D01*
X12500914Y8416594D01*
X12501270Y8420557D01*
X12503150Y8424062D01*
X12506198Y8426602D01*
X12509957Y8427770D01*
X12528600Y8429701D01*
X12524333Y8470188D01*
X12510160Y8468715D01*
X12503962Y8467344D01*
X12498730Y8464854D01*
X12495580Y8462416D01*
X12492228Y8460689D01*
X12488468Y8460282D01*
X12484862Y8461298D01*
X12481255Y8463026D01*
X12475616Y8464346D01*
X12469266Y8464397D01*
X12415723Y8458758D01*
X12408357Y8457184D01*
X12403988Y8457184D01*
X12396673Y8458809D01*
X12382500Y8460282D01*
X12378283Y8419795D01*
X12385141Y8419084D01*
X12388494Y8418118D01*
X12391288Y8416137D01*
X12393269Y8413343D01*
X12394184Y8410041D01*
X12394742Y8404860D01*
X12394234Y8400389D01*
X12391847Y8396630D01*
X12388037Y8394192D01*
X12383566Y8393684D01*
X12375591Y8394547D01*
X12373914Y8378240D01*
X12372797Y8374583D01*
X12370358Y8371586D01*
X12367869Y8369452D01*
X12364313Y8367471D01*
G37*

%LPC*%
G36*
X12393980Y8865311D02*
G01*
X12421819Y8865311D01*
X12449556Y8867241D01*
X12477140Y8871153D01*
X12504318Y8876893D01*
X12531090Y8884564D01*
X12557201Y8894114D01*
X12582652Y8905443D01*
X12607188Y8918498D01*
X12630810Y8933230D01*
X12653314Y8949588D01*
X12674600Y8967470D01*
X12694615Y8986774D01*
X12713258Y9007449D01*
X12730378Y9029395D01*
X12745923Y9052458D01*
X12759842Y9076537D01*
X12772034Y9101531D01*
X12782448Y9127337D01*
X12791084Y9153804D01*
X12797790Y9180830D01*
X12802616Y9208211D01*
X12805511Y9235897D01*
X12806527Y9263684D01*
X12805511Y9291472D01*
X12802616Y9319158D01*
X12797790Y9346539D01*
X12791084Y9373565D01*
X12782448Y9400032D01*
X12772034Y9425787D01*
X12759842Y9450832D01*
X12745923Y9474911D01*
X12730378Y9497974D01*
X12713258Y9519920D01*
X12694615Y9540595D01*
X12674600Y9559899D01*
X12653314Y9577781D01*
X12630810Y9594138D01*
X12607188Y9608870D01*
X12582652Y9621926D01*
X12557201Y9633254D01*
X12531090Y9642754D01*
X12504318Y9650425D01*
X12477140Y9656216D01*
X12449556Y9660077D01*
X12421819Y9662058D01*
X12393980Y9662058D01*
X12366244Y9660077D01*
X12338710Y9656216D01*
X12311481Y9650425D01*
X12284710Y9642754D01*
X12258598Y9633254D01*
X12233148Y9621926D01*
X12208611Y9608870D01*
X12184989Y9594138D01*
X12162485Y9577781D01*
X12141200Y9559899D01*
X12121184Y9540595D01*
X12102541Y9519920D01*
X12085421Y9497974D01*
X12069876Y9474911D01*
X12055957Y9450832D01*
X12043765Y9425787D01*
X12033351Y9400032D01*
X12024766Y9373565D01*
X12018010Y9346539D01*
X12013184Y9319158D01*
X12010288Y9291472D01*
X12009323Y9263684D01*
X12010288Y9235897D01*
X12013184Y9208211D01*
X12018010Y9180830D01*
X12024766Y9153804D01*
X12033351Y9127337D01*
X12043765Y9101531D01*
X12055957Y9076537D01*
X12069876Y9052458D01*
X12085421Y9029395D01*
X12102541Y9007449D01*
X12121184Y8986774D01*
X12141200Y8967470D01*
X12162485Y8949588D01*
X12184989Y8933230D01*
X12208611Y8918498D01*
X12233148Y8905443D01*
X12258598Y8894114D01*
X12284710Y8884564D01*
X12311481Y8876893D01*
X12338710Y8871153D01*
X12366244Y8867241D01*
G37*

%LPD*%
G36*
X12359081Y6081217D02*
G01*
X12357303Y6081369D01*
X12353544Y6082588D01*
X12350496Y6085128D01*
X12348667Y6088634D01*
X12348260Y6092545D01*
X12350242Y6111189D01*
X12331598Y6113119D01*
X12327839Y6114338D01*
X12324791Y6116828D01*
X12322962Y6120333D01*
X12322556Y6124295D01*
X12323114Y6129375D01*
X12324283Y6133134D01*
X12326823Y6136182D01*
X12330328Y6138011D01*
X12334290Y6138418D01*
X12352883Y6136436D01*
X12357150Y6176924D01*
X12342977Y6178397D01*
X12336627Y6178346D01*
X12330988Y6177026D01*
X12327432Y6175298D01*
X12323775Y6174282D01*
X12320016Y6174689D01*
X12316663Y6176416D01*
X12313513Y6178854D01*
X12308281Y6181344D01*
X12302083Y6182715D01*
X12248540Y6188354D01*
X12241022Y6188303D01*
X12236754Y6189218D01*
X12229896Y6192316D01*
X12216384Y6196685D01*
X12203785Y6157976D01*
X12210389Y6155842D01*
X12213437Y6154216D01*
X12215774Y6151727D01*
X12217146Y6148527D01*
X12217349Y6145123D01*
X12216841Y6139942D01*
X12215368Y6135725D01*
X12212269Y6132474D01*
X12208052Y6130950D01*
X12203582Y6131356D01*
X12195962Y6133846D01*
X12190171Y6116015D01*
X12188240Y6112560D01*
X12185142Y6110122D01*
X12181281Y6109004D01*
X12177369Y6109512D01*
X12172543Y6111087D01*
X12169089Y6113018D01*
X12166600Y6116116D01*
X12165533Y6119926D01*
X12165990Y6123889D01*
X12171781Y6141669D01*
X12154001Y6147460D01*
X12150547Y6149390D01*
X12148058Y6152489D01*
X12146991Y6156350D01*
X12147448Y6160262D01*
X12149023Y6165088D01*
X12150953Y6168542D01*
X12154103Y6171031D01*
X12157913Y6172098D01*
X12161824Y6171641D01*
X12179655Y6165850D01*
X12192203Y6204559D01*
X12178690Y6208928D01*
X12172442Y6210198D01*
X12166650Y6210096D01*
X12162790Y6209131D01*
X12159030Y6208877D01*
X12155424Y6210046D01*
X12152528Y6212484D01*
X12149988Y6215532D01*
X12145365Y6219037D01*
X12139574Y6221679D01*
X12088368Y6238290D01*
X12081002Y6239814D01*
X12076988Y6241592D01*
X12070994Y6246063D01*
X12058650Y6253175D01*
X12038279Y6217920D01*
X12044273Y6214414D01*
X12046966Y6212230D01*
X12048693Y6209284D01*
X12049353Y6205880D01*
X12048896Y6202476D01*
X12047270Y6197549D01*
X12044984Y6193688D01*
X12041276Y6191199D01*
X12036806Y6190589D01*
X12032538Y6191910D01*
X12025579Y6195923D01*
X12017044Y6181090D01*
X12014504Y6178194D01*
X12011050Y6176416D01*
X12008866Y6175806D01*
X12004802Y6175502D01*
X12000992Y6176772D01*
X11997944Y6178499D01*
X11994997Y6181140D01*
X11993219Y6184696D01*
X11992965Y6188608D01*
X11994235Y6192367D01*
X12003582Y6208623D01*
X11987377Y6217970D01*
X11984380Y6220561D01*
X11982653Y6224117D01*
X11982399Y6228080D01*
X11983669Y6231839D01*
X11986209Y6236258D01*
X11988800Y6239205D01*
X11992356Y6240983D01*
X11996318Y6241237D01*
X12000077Y6239967D01*
X12016282Y6230620D01*
X12036653Y6265875D01*
X12024309Y6272987D01*
X12018518Y6275527D01*
X12012828Y6276594D01*
X12008815Y6276441D01*
X12005106Y6277000D01*
X12001804Y6278880D01*
X11999468Y6281826D01*
X11997588Y6285382D01*
X11993829Y6289751D01*
X11988698Y6293510D01*
X11942064Y6320485D01*
X11935206Y6323482D01*
X11931650Y6326022D01*
X11926671Y6331661D01*
X11916105Y6341160D01*
X11888876Y6310934D01*
X11894007Y6306261D01*
X11896140Y6303568D01*
X11897258Y6300317D01*
X11897207Y6296863D01*
X11895988Y6293662D01*
X11893397Y6289141D01*
X11890349Y6285839D01*
X11886184Y6284214D01*
X11881713Y6284468D01*
X11877802Y6286703D01*
X11871858Y6292037D01*
X11859310Y6278118D01*
X11856161Y6275781D01*
X11852300Y6274765D01*
X11848388Y6275324D01*
X11844985Y6277356D01*
X11841226Y6280759D01*
X11838838Y6283960D01*
X11837873Y6287770D01*
X11838432Y6291732D01*
X11840464Y6295136D01*
X11853011Y6309055D01*
X11839092Y6321552D01*
X11836704Y6324752D01*
X11835739Y6328562D01*
X11836298Y6332524D01*
X11838330Y6335928D01*
X11841734Y6339687D01*
X11844883Y6342075D01*
X11848744Y6343040D01*
X11852656Y6342481D01*
X11856059Y6340449D01*
X11869978Y6327902D01*
X11897207Y6358178D01*
X11886641Y6367678D01*
X11881459Y6371386D01*
X11876125Y6373622D01*
X11872214Y6374282D01*
X11868658Y6375654D01*
X11865864Y6378143D01*
X11864187Y6381546D01*
X11863070Y6385356D01*
X11860326Y6390436D01*
X11856059Y6395212D01*
X11816080Y6431229D01*
X11809933Y6435598D01*
X11807037Y6438849D01*
X11803329Y6445402D01*
X11794947Y6456883D01*
X11762028Y6432956D01*
X11766092Y6427368D01*
X11767616Y6424269D01*
X11768023Y6420866D01*
X11767261Y6417513D01*
X11765432Y6414617D01*
X11761978Y6410756D01*
X11758320Y6408166D01*
X11753900Y6407404D01*
X11749582Y6408623D01*
X11746179Y6411569D01*
X11741454Y6418021D01*
X11726316Y6407048D01*
X11722709Y6405372D01*
X11718747Y6405219D01*
X11715038Y6406591D01*
X11712143Y6409283D01*
X11709146Y6413398D01*
X11707469Y6417005D01*
X11707317Y6420967D01*
X11708688Y6424676D01*
X11711381Y6427571D01*
X11726570Y6438595D01*
X11715546Y6453733D01*
X11713870Y6457340D01*
X11713718Y6461302D01*
X11715089Y6465011D01*
X11717782Y6467906D01*
X11721896Y6470904D01*
X11725503Y6472580D01*
X11729466Y6472732D01*
X11733174Y6471361D01*
X11736120Y6468668D01*
X11747093Y6453530D01*
X11780012Y6477457D01*
X11771680Y6488988D01*
X11767362Y6493662D01*
X11762638Y6496964D01*
X11758930Y6498437D01*
X11755729Y6500469D01*
X11753494Y6503517D01*
X11752580Y6507175D01*
X11752275Y6511188D01*
X11750649Y6516725D01*
X11747500Y6522262D01*
X11715851Y6565798D01*
X11710771Y6571335D01*
X11708587Y6575145D01*
X11706301Y6582308D01*
X11700510Y6595313D01*
X11663324Y6578752D01*
X11666169Y6572402D01*
X11667032Y6569049D01*
X11666677Y6565646D01*
X11665254Y6562496D01*
X11662867Y6560058D01*
X11658650Y6557009D01*
X11654536Y6555231D01*
X11650065Y6555384D01*
X11646103Y6557467D01*
X11643410Y6561074D01*
X11640159Y6568389D01*
X11623040Y6560769D01*
X11619179Y6559905D01*
X11615267Y6560566D01*
X11611914Y6562699D01*
X11609628Y6565950D01*
X11607546Y6570573D01*
X11606682Y6574434D01*
X11607342Y6578346D01*
X11609476Y6581698D01*
X11612727Y6583984D01*
X11629796Y6591604D01*
X11622176Y6608724D01*
X11621312Y6612585D01*
X11621973Y6616496D01*
X11624106Y6619849D01*
X11627358Y6622135D01*
X11631980Y6624167D01*
X11635841Y6625081D01*
X11639753Y6624370D01*
X11643106Y6622288D01*
X11645392Y6619036D01*
X11653012Y6601917D01*
X11690197Y6618478D01*
X11684406Y6631482D01*
X11681206Y6636969D01*
X11677243Y6641185D01*
X11673941Y6643420D01*
X11671249Y6646062D01*
X11669674Y6649516D01*
X11669522Y6653275D01*
X11670080Y6657238D01*
X11669623Y6663029D01*
X11667693Y6669074D01*
X11645798Y6718249D01*
X11641988Y6724751D01*
X11640616Y6728917D01*
X11639905Y6736384D01*
X11636959Y6750303D01*
X11597132Y6741820D01*
X11598554Y6735064D01*
X11598706Y6731609D01*
X11597690Y6728307D01*
X11595608Y6725564D01*
X11592763Y6723634D01*
X11588038Y6721551D01*
X11583619Y6720687D01*
X11579250Y6721754D01*
X11575846Y6724650D01*
X11573967Y6728714D01*
X11572290Y6736537D01*
X11554358Y6732727D01*
X11550396Y6732676D01*
X11546230Y6734454D01*
X11543385Y6737248D01*
X11541810Y6740855D01*
X11540845Y6745427D01*
X11540794Y6749389D01*
X11542268Y6753098D01*
X11545062Y6755942D01*
X11548668Y6757517D01*
X11567007Y6761378D01*
X11563096Y6779717D01*
X11563045Y6783679D01*
X11564518Y6787337D01*
X11567312Y6790181D01*
X11570919Y6791756D01*
X11575897Y6792823D01*
X11579860Y6792874D01*
X11583568Y6791401D01*
X11586413Y6788607D01*
X11587937Y6785000D01*
X11591848Y6766661D01*
X11631676Y6775145D01*
X11628729Y6789064D01*
X11626697Y6795109D01*
X11623700Y6800037D01*
X11620906Y6802881D01*
X11618823Y6806031D01*
X11618061Y6809740D01*
X11618671Y6813448D01*
X11620042Y6817207D01*
X11620754Y6822948D01*
X11620144Y6829298D01*
X11608968Y6881977D01*
X11606580Y6889089D01*
X11606123Y6893407D01*
X11606987Y6900875D01*
X11606987Y6915099D01*
X11566245Y6915099D01*
X11566245Y6908190D01*
X11565686Y6904786D01*
X11564010Y6901789D01*
X11561419Y6899503D01*
X11558219Y6898233D01*
X11553139Y6897166D01*
X11548668Y6897217D01*
X11544604Y6899198D01*
X11541861Y6902754D01*
X11540845Y6907123D01*
X11540845Y6915099D01*
X11522659Y6915099D01*
X11518798Y6915912D01*
X11514937Y6918655D01*
X11512753Y6921957D01*
X11511991Y6925818D01*
X11511991Y6930339D01*
X11512753Y6934250D01*
X11514937Y6937552D01*
X11518239Y6939737D01*
X11522151Y6940499D01*
X11540845Y6940499D01*
X11540845Y6959244D01*
X11541658Y6963105D01*
X11543842Y6966407D01*
X11547144Y6968642D01*
X11551005Y6969404D01*
X11556085Y6969404D01*
X11559997Y6968642D01*
X11563299Y6966407D01*
X11565483Y6963105D01*
X11566245Y6959244D01*
X11566245Y6940499D01*
X11606987Y6940499D01*
X11606987Y6954774D01*
X11606276Y6961073D01*
X11604345Y6966508D01*
X11602212Y6969912D01*
X11600840Y6973417D01*
X11600840Y6977227D01*
X11602212Y6980732D01*
X11604345Y6984085D01*
X11606276Y6989572D01*
X11606987Y6995871D01*
X11606987Y7049719D01*
X11606682Y7052462D01*
X11606834Y7055764D01*
X11608054Y7058863D01*
X11610340Y7062622D01*
X11612372Y7068667D01*
X11615318Y7082586D01*
X11575491Y7091019D01*
X11574068Y7084263D01*
X11572798Y7081062D01*
X11570512Y7078472D01*
X11567515Y7076795D01*
X11564112Y7076236D01*
X11558930Y7076236D01*
X11554561Y7077202D01*
X11551056Y7079996D01*
X11549075Y7084009D01*
X11548973Y7088479D01*
X11550650Y7096302D01*
X11534343Y7099808D01*
X11530787Y7101281D01*
X11528044Y7104024D01*
X11526469Y7106361D01*
X11524894Y7110120D01*
X11524945Y7114184D01*
X11525554Y7117232D01*
X11527129Y7120890D01*
X11529974Y7123633D01*
X11533682Y7125106D01*
X11537645Y7125055D01*
X11555933Y7121144D01*
X11559844Y7139482D01*
X11561419Y7143140D01*
X11564264Y7145883D01*
X11567922Y7147356D01*
X11571884Y7147306D01*
X11576862Y7146239D01*
X11580520Y7144664D01*
X11583263Y7141819D01*
X11584736Y7138162D01*
X11584686Y7134199D01*
X11580774Y7115911D01*
X11620601Y7107428D01*
X11623548Y7121347D01*
X11624208Y7127697D01*
X11623446Y7133437D01*
X11622074Y7137146D01*
X11621465Y7140905D01*
X11622227Y7144562D01*
X11624310Y7147712D01*
X11627104Y7150608D01*
X11630101Y7155535D01*
X11632133Y7161580D01*
X11643309Y7214260D01*
X11644020Y7221728D01*
X11645392Y7225893D01*
X11649202Y7232345D01*
X11654993Y7245350D01*
X11617807Y7261910D01*
X11614962Y7255560D01*
X11613083Y7252716D01*
X11610289Y7250633D01*
X11607038Y7249617D01*
X11603583Y7249769D01*
X11598503Y7250836D01*
X11594439Y7252716D01*
X11591544Y7256170D01*
X11590477Y7260539D01*
X11591340Y7264908D01*
X11594592Y7272223D01*
X11578488Y7279386D01*
X11575288Y7281672D01*
X11572595Y7286396D01*
X11571884Y7290358D01*
X11572798Y7294270D01*
X11574424Y7297928D01*
X11576710Y7301128D01*
X11580063Y7303262D01*
X11583924Y7303922D01*
X11587835Y7303058D01*
X11604904Y7295438D01*
X11612524Y7312558D01*
X11614810Y7315758D01*
X11618163Y7317892D01*
X11622074Y7318552D01*
X11625935Y7317689D01*
X11630609Y7315606D01*
X11633809Y7313320D01*
X11635943Y7309967D01*
X11636603Y7306056D01*
X11635740Y7302195D01*
X11628120Y7285126D01*
X11665305Y7268565D01*
X11671096Y7281570D01*
X11673027Y7287615D01*
X11673484Y7293406D01*
X11672925Y7297318D01*
X11673078Y7301128D01*
X11674652Y7304531D01*
X11677345Y7307224D01*
X11680647Y7309408D01*
X11684609Y7313625D01*
X11687810Y7319111D01*
X11709755Y7368336D01*
X11711990Y7375499D01*
X11714175Y7379258D01*
X11719255Y7384796D01*
X11727637Y7396327D01*
X11694668Y7420254D01*
X11690604Y7414615D01*
X11688165Y7412228D01*
X11685016Y7410805D01*
X11681612Y7410500D01*
X11678259Y7411313D01*
X11673535Y7413447D01*
X11669928Y7416139D01*
X11667845Y7420102D01*
X11667642Y7424572D01*
X11669420Y7428687D01*
X11674144Y7435189D01*
X11659006Y7446162D01*
X11656314Y7449108D01*
X11654942Y7452817D01*
X11655094Y7456779D01*
X11656720Y7460386D01*
X11659717Y7464501D01*
X11662613Y7467193D01*
X11666372Y7468565D01*
X11670334Y7468412D01*
X11673890Y7466736D01*
X11689080Y7455712D01*
X11700052Y7470851D01*
X11702999Y7473543D01*
X11706707Y7474915D01*
X11710670Y7474762D01*
X11714276Y7473137D01*
X11718391Y7470140D01*
X11721084Y7467244D01*
X11722455Y7463485D01*
X11722252Y7459522D01*
X11720626Y7455916D01*
X11709603Y7440777D01*
X11742572Y7416850D01*
X11750903Y7428382D01*
X11754053Y7433919D01*
X11755729Y7439456D01*
X11755983Y7443419D01*
X11756948Y7447076D01*
X11759133Y7450124D01*
X11762333Y7452156D01*
X11766042Y7453680D01*
X11770817Y7456982D01*
X11775084Y7461656D01*
X11806732Y7505242D01*
X11810441Y7511745D01*
X11813387Y7514996D01*
X11819483Y7519365D01*
X11830050Y7528915D01*
X11802821Y7559141D01*
X11797639Y7554518D01*
X11794744Y7552690D01*
X11791391Y7551928D01*
X11787987Y7552334D01*
X11784888Y7553858D01*
X11780672Y7556906D01*
X11777726Y7560259D01*
X11776506Y7564577D01*
X11777268Y7568996D01*
X11779859Y7572654D01*
X11785803Y7578039D01*
X11773306Y7591958D01*
X11771274Y7595362D01*
X11770715Y7599273D01*
X11771680Y7603083D01*
X11774017Y7606284D01*
X11777827Y7609687D01*
X11781231Y7611719D01*
X11785142Y7612278D01*
X11789003Y7611313D01*
X11792153Y7608925D01*
X11804700Y7595006D01*
X11818620Y7607553D01*
X11822023Y7609586D01*
X11825935Y7610144D01*
X11829796Y7609179D01*
X11832945Y7606792D01*
X11836349Y7603032D01*
X11838381Y7599629D01*
X11838940Y7595666D01*
X11837974Y7591856D01*
X11835587Y7588656D01*
X11821668Y7576159D01*
X11848947Y7545882D01*
X11859514Y7555433D01*
X11863730Y7560157D01*
X11866524Y7565237D01*
X11867591Y7569098D01*
X11869267Y7572451D01*
X11872112Y7574991D01*
X11875617Y7576312D01*
X11879580Y7576972D01*
X11884914Y7579207D01*
X11890044Y7582916D01*
X11930075Y7618984D01*
X11935053Y7624572D01*
X11938609Y7627162D01*
X11945467Y7630159D01*
X11957812Y7637272D01*
X11937441Y7672527D01*
X11931446Y7669072D01*
X11928246Y7667853D01*
X11924792Y7667802D01*
X11921540Y7668920D01*
X11918848Y7671053D01*
X11915343Y7674914D01*
X11913158Y7678826D01*
X11912854Y7683296D01*
X11914530Y7687462D01*
X11917832Y7690510D01*
X11924741Y7694523D01*
X11915394Y7710728D01*
X11914124Y7714488D01*
X11914378Y7718450D01*
X11916156Y7722006D01*
X11919102Y7724597D01*
X11923522Y7727137D01*
X11927281Y7728407D01*
X11931243Y7728153D01*
X11934799Y7726425D01*
X11937390Y7723428D01*
X11946737Y7707223D01*
X11962942Y7716570D01*
X11966702Y7717840D01*
X11970664Y7717586D01*
X11974220Y7715859D01*
X11976862Y7712862D01*
X11979402Y7708442D01*
X11980672Y7704683D01*
X11980418Y7700772D01*
X11978640Y7697216D01*
X11975642Y7694574D01*
X11959437Y7685227D01*
X11979808Y7649972D01*
X11992152Y7657084D01*
X11997232Y7660843D01*
X12001042Y7665262D01*
X12002871Y7668768D01*
X12005259Y7671714D01*
X12008510Y7673594D01*
X12012269Y7674152D01*
X12016232Y7674000D01*
X12021921Y7675118D01*
X12027763Y7677658D01*
X12074398Y7704581D01*
X12080443Y7709001D01*
X12084405Y7710830D01*
X12091771Y7712303D01*
X12105335Y7716723D01*
X12092736Y7755432D01*
X12086132Y7753299D01*
X12082729Y7752791D01*
X12079376Y7753451D01*
X12076379Y7755229D01*
X12074194Y7757871D01*
X12071604Y7762341D01*
X12070283Y7766659D01*
X12070943Y7771079D01*
X12073432Y7774787D01*
X12077242Y7777124D01*
X12084862Y7779562D01*
X12079122Y7797393D01*
X12078614Y7801305D01*
X12079732Y7805115D01*
X12082170Y7808264D01*
X12085624Y7810195D01*
X12090450Y7811770D01*
X12094413Y7812227D01*
X12098223Y7811160D01*
X12101322Y7808671D01*
X12103252Y7805216D01*
X12109043Y7787436D01*
X12126823Y7793228D01*
X12130786Y7793685D01*
X12134596Y7792618D01*
X12137694Y7790129D01*
X12139625Y7786674D01*
X12141200Y7781848D01*
X12141657Y7777937D01*
X12140590Y7774127D01*
X12138152Y7770977D01*
X12134697Y7769047D01*
X12116866Y7763256D01*
X12129465Y7724546D01*
X12143028Y7728966D01*
X12148820Y7731607D01*
X12153392Y7735112D01*
X12155932Y7738160D01*
X12158878Y7740548D01*
X12162485Y7741716D01*
X12166244Y7741513D01*
X12170105Y7740497D01*
X12175896Y7740396D01*
X12182094Y7741666D01*
X12233351Y7758328D01*
X12240158Y7761427D01*
X12244425Y7762290D01*
X12251944Y7762240D01*
X12266117Y7763764D01*
X12261850Y7804251D01*
X12254941Y7803489D01*
X12251537Y7803743D01*
X12248337Y7805115D01*
X12245848Y7807452D01*
X12244222Y7810449D01*
X12242647Y7815427D01*
X12242241Y7819898D01*
X12243765Y7824063D01*
X12246965Y7827213D01*
X12251232Y7828635D01*
X12259208Y7829499D01*
X12257227Y7848092D01*
X12257582Y7852054D01*
X12259462Y7855559D01*
X12262510Y7858099D01*
X12266269Y7859268D01*
X12271349Y7859826D01*
X12275261Y7859471D01*
X12278766Y7857591D01*
X12281306Y7854543D01*
X12282474Y7850784D01*
X12284456Y7832140D01*
X12303048Y7834122D01*
X12307011Y7833766D01*
X12310516Y7831886D01*
X12313056Y7828838D01*
X12314224Y7825079D01*
X12314783Y7819999D01*
X12314428Y7816088D01*
X12312548Y7812531D01*
X12309500Y7810042D01*
X12305741Y7808823D01*
X12287097Y7806893D01*
X12291364Y7766405D01*
X12305538Y7767878D01*
X12311735Y7769250D01*
X12316968Y7771739D01*
X12320117Y7774178D01*
X12323470Y7775956D01*
X12327229Y7776311D01*
X12330836Y7775346D01*
X12334443Y7773568D01*
X12340082Y7772247D01*
X12346432Y7772196D01*
X12399975Y7777835D01*
X12407290Y7779410D01*
X12411659Y7779410D01*
X12419025Y7777835D01*
X12433147Y7776311D01*
X12437414Y7816799D01*
X12430506Y7817561D01*
X12427204Y7818475D01*
X12424410Y7820456D01*
X12422428Y7823250D01*
X12421463Y7826603D01*
X12420955Y7831734D01*
X12421463Y7836204D01*
X12423851Y7840014D01*
X12427661Y7842402D01*
X12432131Y7842910D01*
X12440056Y7842097D01*
X12441986Y7860284D01*
X12443155Y7864094D01*
X12446152Y7867497D01*
X12449657Y7869326D01*
X12453620Y7869681D01*
X12458242Y7869224D01*
X12462052Y7868056D01*
X12465100Y7865516D01*
X12466929Y7862011D01*
X12467285Y7858048D01*
X12465354Y7839405D01*
X12483947Y7837474D01*
X12487757Y7836306D01*
X12490805Y7833766D01*
X12492634Y7830261D01*
X12492990Y7826298D01*
X12492482Y7821269D01*
X12491313Y7817459D01*
X12488773Y7814411D01*
X12485268Y7812582D01*
X12481306Y7812227D01*
X12462662Y7814157D01*
X12458446Y7773670D01*
X12472568Y7772196D01*
X12478918Y7772247D01*
X12484557Y7773568D01*
X12488164Y7775295D01*
X12491770Y7776311D01*
X12495530Y7775956D01*
X12498882Y7774178D01*
X12502032Y7771739D01*
X12507264Y7769250D01*
X12513462Y7767878D01*
X12567056Y7762240D01*
X12574524Y7762290D01*
X12578842Y7761427D01*
X12585649Y7758277D01*
X12599212Y7753908D01*
X12611760Y7792618D01*
X12605207Y7794752D01*
X12602057Y7796428D01*
X12599720Y7799019D01*
X12598400Y7802321D01*
X12598247Y7805826D01*
X12598958Y7810957D01*
X12600533Y7815072D01*
X12603683Y7818170D01*
X12607798Y7819593D01*
X12612166Y7819186D01*
X12619634Y7816799D01*
X12623952Y7830058D01*
X12625628Y7833258D01*
X12628321Y7835595D01*
X12633706Y7838846D01*
X12637820Y7840268D01*
X12643053Y7839557D01*
X12646507Y7837576D01*
X12648946Y7834477D01*
X12650012Y7830667D01*
X12649555Y7826756D01*
X12643764Y7808925D01*
X12661595Y7803134D01*
X12665049Y7801203D01*
X12667488Y7798104D01*
X12668554Y7794294D01*
X12668097Y7790332D01*
X12666522Y7785506D01*
X12664592Y7782052D01*
X12661493Y7779613D01*
X12657683Y7778496D01*
X12653721Y7779003D01*
X12635941Y7784744D01*
X12623342Y7746034D01*
X12636906Y7741666D01*
X12643104Y7740396D01*
X12648895Y7740497D01*
X12652756Y7741462D01*
X12656515Y7741716D01*
X12660122Y7740548D01*
X12663068Y7738160D01*
X12665608Y7735062D01*
X12670231Y7731556D01*
X12676022Y7728966D01*
X12727228Y7712303D01*
X12734594Y7710779D01*
X12738557Y7709001D01*
X12744602Y7704581D01*
X12756946Y7697470D01*
X12777266Y7732725D01*
X12771272Y7736179D01*
X12768630Y7738364D01*
X12766852Y7741310D01*
X12766192Y7744714D01*
X12766700Y7748117D01*
X12768326Y7753045D01*
X12770612Y7756906D01*
X12774320Y7759395D01*
X12778740Y7760055D01*
X12783058Y7758684D01*
X12789966Y7754721D01*
X12798501Y7769504D01*
X12801041Y7772400D01*
X12804546Y7774178D01*
X12806730Y7774787D01*
X12810794Y7775092D01*
X12814604Y7773822D01*
X12817602Y7772095D01*
X12820599Y7769453D01*
X12822377Y7765948D01*
X12822631Y7761986D01*
X12821361Y7758226D01*
X12811963Y7742021D01*
X12828168Y7732623D01*
X12831165Y7730032D01*
X12832943Y7726476D01*
X12833197Y7722514D01*
X12831927Y7718755D01*
X12829387Y7714335D01*
X12826746Y7711389D01*
X12823190Y7709611D01*
X12819227Y7709357D01*
X12815468Y7710627D01*
X12799263Y7720025D01*
X12778943Y7684770D01*
X12791236Y7677607D01*
X12797078Y7675067D01*
X12802768Y7674000D01*
X12806730Y7674152D01*
X12810490Y7673594D01*
X12813741Y7671714D01*
X12816128Y7668768D01*
X12817957Y7665212D01*
X12821767Y7660843D01*
X12826847Y7657084D01*
X12873532Y7630159D01*
X12880390Y7627112D01*
X12883946Y7624572D01*
X12888925Y7618933D01*
X12899491Y7609433D01*
X12926720Y7639659D01*
X12921589Y7644333D01*
X12919456Y7647025D01*
X12918338Y7650276D01*
X12918389Y7653731D01*
X12919557Y7656931D01*
X12922148Y7661452D01*
X12925196Y7664754D01*
X12929362Y7666380D01*
X12933832Y7666126D01*
X12937744Y7663942D01*
X12943687Y7658557D01*
X12956235Y7672476D01*
X12959435Y7674864D01*
X12963245Y7675829D01*
X12967208Y7675270D01*
X12970611Y7673238D01*
X12974370Y7669834D01*
X12976758Y7666634D01*
X12977723Y7662824D01*
X12977164Y7658862D01*
X12975132Y7655458D01*
X12962585Y7641539D01*
X12976504Y7629042D01*
X12978892Y7625842D01*
X12979857Y7622031D01*
X12979298Y7618120D01*
X12977266Y7614666D01*
X12973862Y7610906D01*
X12970662Y7608519D01*
X12966852Y7607553D01*
X12962890Y7608112D01*
X12959486Y7610144D01*
X12945618Y7622692D01*
X12918338Y7592415D01*
X12928904Y7582916D01*
X12934086Y7579207D01*
X12939420Y7576972D01*
X12943382Y7576312D01*
X12946888Y7574991D01*
X12949732Y7572451D01*
X12951409Y7569047D01*
X12952476Y7565237D01*
X12955270Y7560157D01*
X12959486Y7555382D01*
X12999516Y7519365D01*
X13005612Y7514996D01*
X13008559Y7511745D01*
X13012267Y7505192D01*
X13020598Y7493711D01*
X13053568Y7517638D01*
X13049453Y7523225D01*
X13047929Y7526324D01*
X13047522Y7529728D01*
X13048284Y7533081D01*
X13050164Y7536027D01*
X13053618Y7539888D01*
X13057276Y7542428D01*
X13061696Y7543190D01*
X13066013Y7541971D01*
X13069366Y7539024D01*
X13074091Y7532573D01*
X13089229Y7543546D01*
X13092836Y7545222D01*
X13096798Y7545374D01*
X13100507Y7544003D01*
X13103453Y7541310D01*
X13106400Y7537196D01*
X13108076Y7533589D01*
X13108228Y7529626D01*
X13106857Y7525918D01*
X13104164Y7523022D01*
X13089026Y7511999D01*
X13100050Y7496860D01*
X13101675Y7493253D01*
X13101828Y7489291D01*
X13100456Y7485583D01*
X13097763Y7482687D01*
X13093649Y7479690D01*
X13090093Y7478014D01*
X13086130Y7477861D01*
X13082371Y7479233D01*
X13079476Y7481925D01*
X13068452Y7497064D01*
X13035534Y7473137D01*
X13043915Y7461656D01*
X13048183Y7456931D01*
X13052958Y7453630D01*
X13056666Y7452156D01*
X13059816Y7450124D01*
X13062051Y7447076D01*
X13063016Y7443419D01*
X13063270Y7439456D01*
X13064947Y7433919D01*
X13068096Y7428382D01*
X13099745Y7384796D01*
X13104774Y7379258D01*
X13107009Y7375448D01*
X13109244Y7368286D01*
X13115036Y7355331D01*
X13152221Y7371842D01*
X13149427Y7378192D01*
X13148563Y7381595D01*
X13148919Y7385100D01*
X13150443Y7388250D01*
X13152983Y7390739D01*
X13157250Y7393635D01*
X13161314Y7395260D01*
X13165734Y7395006D01*
X13169595Y7392924D01*
X13172236Y7389368D01*
X13175437Y7382205D01*
X13188238Y7387894D01*
X13191540Y7388758D01*
X13194944Y7388453D01*
X13200735Y7386980D01*
X13203529Y7385761D01*
X13205815Y7383830D01*
X13208000Y7380020D01*
X13208914Y7376159D01*
X13208203Y7372248D01*
X13206120Y7368895D01*
X13202869Y7366609D01*
X13185749Y7358989D01*
X13193369Y7341870D01*
X13194233Y7338009D01*
X13193572Y7334097D01*
X13191490Y7330744D01*
X13188238Y7328458D01*
X13183565Y7326426D01*
X13179704Y7325512D01*
X13175792Y7326223D01*
X13172440Y7328306D01*
X13170154Y7331557D01*
X13162584Y7348677D01*
X13125348Y7332116D01*
X13131139Y7319111D01*
X13134390Y7313625D01*
X13138353Y7309408D01*
X13141655Y7307173D01*
X13144347Y7304531D01*
X13145871Y7301077D01*
X13146074Y7297318D01*
X13145516Y7293356D01*
X13145973Y7287615D01*
X13147903Y7281519D01*
X13169798Y7232345D01*
X13173608Y7225842D01*
X13174929Y7221728D01*
X13175691Y7214209D01*
X13178637Y7200290D01*
X13218464Y7208774D01*
X13216991Y7215581D01*
X13216890Y7218984D01*
X13217906Y7222286D01*
X13219938Y7225030D01*
X13222833Y7226960D01*
X13227557Y7229043D01*
X13231977Y7229957D01*
X13236295Y7228840D01*
X13239750Y7225944D01*
X13241629Y7221880D01*
X13243306Y7214057D01*
X13261238Y7217867D01*
X13265200Y7217918D01*
X13269366Y7216140D01*
X13272160Y7213346D01*
X13273735Y7209739D01*
X13274700Y7205167D01*
X13274751Y7201204D01*
X13273278Y7197496D01*
X13270534Y7194651D01*
X13266877Y7193127D01*
X13248589Y7189216D01*
X13252450Y7170877D01*
X13252500Y7166914D01*
X13251027Y7163257D01*
X13248284Y7160412D01*
X13244626Y7158837D01*
X13239648Y7157770D01*
X13235686Y7157720D01*
X13232028Y7159193D01*
X13229183Y7161987D01*
X13227608Y7165644D01*
X13223748Y7183932D01*
X13183920Y7175449D01*
X13186867Y7161530D01*
X13188899Y7155535D01*
X13191896Y7150557D01*
X13194639Y7147712D01*
X13196722Y7144562D01*
X13197535Y7140854D01*
X13196925Y7137146D01*
X13195554Y7133386D01*
X13194792Y7127646D01*
X13195401Y7121296D01*
X13206628Y7068616D01*
X13208965Y7061504D01*
X13209422Y7057186D01*
X13208609Y7049719D01*
X13208609Y7035495D01*
X13249300Y7035495D01*
X13249300Y7042403D01*
X13249910Y7045807D01*
X13251586Y7048804D01*
X13254177Y7051090D01*
X13257377Y7052360D01*
X13262457Y7053427D01*
X13266928Y7053376D01*
X13270941Y7051395D01*
X13273735Y7047890D01*
X13274700Y7043470D01*
X13274700Y7035495D01*
X13292886Y7035495D01*
X13296798Y7034733D01*
X13300608Y7031939D01*
X13302843Y7028637D01*
X13303605Y7024776D01*
X13303605Y7020255D01*
X13302843Y7016343D01*
X13300608Y7013041D01*
X13297306Y7010857D01*
X13293445Y7010095D01*
X13274700Y7010095D01*
X13274700Y6991350D01*
X13273938Y6987489D01*
X13271754Y6984187D01*
X13268451Y6982002D01*
X13264540Y6981190D01*
X13259460Y6981190D01*
X13255599Y6982002D01*
X13252297Y6984187D01*
X13250062Y6987489D01*
X13249300Y6991350D01*
X13249300Y7010095D01*
X13208609Y7010095D01*
X13208609Y6995871D01*
X13209320Y6989521D01*
X13211251Y6984085D01*
X13212572Y6981952D01*
X13213994Y6977938D01*
X13213689Y6973620D01*
X13211606Y6969861D01*
X13208152Y6967321D01*
X13203936Y6966407D01*
X13151408Y6966407D01*
X13147497Y6967169D01*
X13144195Y6969404D01*
X13142620Y6970979D01*
X13134594Y6976618D01*
X13125653Y6980732D01*
X13116204Y6983272D01*
X13106400Y6984136D01*
X13096595Y6983272D01*
X13087146Y6980732D01*
X13078206Y6976618D01*
X13070179Y6970979D01*
X13063219Y6964019D01*
X13057581Y6955993D01*
X13053466Y6947052D01*
X13050926Y6937603D01*
X13050062Y6927799D01*
X13050926Y6917994D01*
X13053466Y6908546D01*
X13057581Y6899605D01*
X13063219Y6891578D01*
X13070179Y6884619D01*
X13078206Y6878980D01*
X13087146Y6874865D01*
X13096595Y6872325D01*
X13106400Y6871462D01*
X13116204Y6872325D01*
X13125653Y6874865D01*
X13134594Y6878980D01*
X13142620Y6884619D01*
X13144195Y6886194D01*
X13147497Y6888429D01*
X13151408Y6889191D01*
X13192201Y6889191D01*
X13196569Y6888175D01*
X13200075Y6885431D01*
X13202107Y6881418D01*
X13202157Y6876897D01*
X13200227Y6868007D01*
X13240054Y6859574D01*
X13241528Y6866331D01*
X13242798Y6869531D01*
X13245033Y6872122D01*
X13248081Y6873798D01*
X13251434Y6874408D01*
X13256666Y6874408D01*
X13261035Y6873392D01*
X13264540Y6870598D01*
X13266521Y6866585D01*
X13266572Y6862114D01*
X13264896Y6854291D01*
X13283234Y6850380D01*
X13286892Y6848805D01*
X13289635Y6845960D01*
X13291108Y6842302D01*
X13291057Y6838340D01*
X13289991Y6833362D01*
X13288416Y6829704D01*
X13285571Y6826961D01*
X13281913Y6825488D01*
X13277951Y6825538D01*
X13259612Y6829450D01*
X13255751Y6811111D01*
X13254177Y6807504D01*
X13251332Y6804710D01*
X13247674Y6803237D01*
X13243712Y6803288D01*
X13238734Y6804355D01*
X13235076Y6805930D01*
X13232333Y6808774D01*
X13230860Y6812432D01*
X13230910Y6816394D01*
X13234771Y6834733D01*
X13194944Y6843166D01*
X13191998Y6829247D01*
X13191388Y6822948D01*
X13192150Y6817207D01*
X13193522Y6813448D01*
X13194131Y6809740D01*
X13193318Y6806031D01*
X13191236Y6802881D01*
X13188492Y6799986D01*
X13185495Y6795058D01*
X13183463Y6789013D01*
X13172287Y6736334D01*
X13171525Y6728866D01*
X13170204Y6724700D01*
X13166394Y6718249D01*
X13160603Y6705244D01*
X13197789Y6688683D01*
X13200583Y6695033D01*
X13202513Y6697878D01*
X13205256Y6699961D01*
X13208558Y6700977D01*
X13212013Y6700824D01*
X13217093Y6699758D01*
X13221157Y6697878D01*
X13224001Y6694424D01*
X13225119Y6690055D01*
X13224256Y6685686D01*
X13221004Y6678371D01*
X13235076Y6672072D01*
X13238175Y6669938D01*
X13240257Y6666839D01*
X13242036Y6662674D01*
X13242899Y6658609D01*
X13241985Y6654546D01*
X13241172Y6652717D01*
X13238886Y6649466D01*
X13235533Y6647332D01*
X13231622Y6646672D01*
X13227761Y6647535D01*
X13210641Y6655155D01*
X13203021Y6638036D01*
X13200735Y6634835D01*
X13197382Y6632702D01*
X13193471Y6632041D01*
X13189610Y6632905D01*
X13184987Y6634988D01*
X13181736Y6637274D01*
X13179653Y6640626D01*
X13178942Y6644538D01*
X13179856Y6648399D01*
X13187426Y6665468D01*
X13150240Y6682028D01*
X13144449Y6669024D01*
X13142569Y6662978D01*
X13142061Y6657238D01*
X13142620Y6653275D01*
X13142468Y6649516D01*
X13140944Y6646062D01*
X13138251Y6643370D01*
X13134949Y6641185D01*
X13130987Y6636969D01*
X13127736Y6631482D01*
X13105841Y6582257D01*
X13103555Y6575145D01*
X13101370Y6571335D01*
X13096341Y6565798D01*
X13087959Y6554266D01*
X13120878Y6530340D01*
X13124942Y6535978D01*
X13127431Y6538366D01*
X13130580Y6539788D01*
X13133984Y6540144D01*
X13137337Y6539280D01*
X13142061Y6537147D01*
X13145668Y6534454D01*
X13147751Y6530492D01*
X13147903Y6526022D01*
X13146125Y6521907D01*
X13141451Y6515404D01*
X13156590Y6504431D01*
X13159282Y6501485D01*
X13160654Y6497777D01*
X13160501Y6493814D01*
X13158825Y6490208D01*
X13155828Y6486093D01*
X13152932Y6483451D01*
X13149224Y6482080D01*
X13145262Y6482232D01*
X13141655Y6483858D01*
X13126516Y6494881D01*
X13115493Y6479743D01*
X13112597Y6477050D01*
X13108889Y6475679D01*
X13104926Y6475831D01*
X13101319Y6477508D01*
X13097205Y6480454D01*
X13094512Y6483400D01*
X13093141Y6487109D01*
X13093293Y6491071D01*
X13094969Y6494678D01*
X13105942Y6509816D01*
X13073024Y6533743D01*
X13064642Y6522212D01*
X13061543Y6516674D01*
X13059867Y6511137D01*
X13059613Y6507175D01*
X13058648Y6503517D01*
X13056412Y6500469D01*
X13053263Y6498437D01*
X13049554Y6496913D01*
X13044779Y6493662D01*
X13040512Y6488938D01*
X13008813Y6445351D01*
X13005104Y6438849D01*
X13002209Y6435598D01*
X12996113Y6431229D01*
X12985496Y6421729D01*
X13012775Y6391452D01*
X13017906Y6396075D01*
X13020802Y6397955D01*
X13024154Y6398717D01*
X13027609Y6398310D01*
X13030708Y6396786D01*
X13034873Y6393738D01*
X13037819Y6390335D01*
X13039039Y6386017D01*
X13038277Y6381597D01*
X13035737Y6377940D01*
X13029742Y6372606D01*
X13039394Y6361887D01*
X13041325Y6358737D01*
X13041985Y6355080D01*
X13041985Y6349288D01*
X13041121Y6345123D01*
X13037769Y6340906D01*
X13034365Y6338874D01*
X13030403Y6338316D01*
X13026593Y6339281D01*
X13023392Y6341668D01*
X13010896Y6355588D01*
X12996976Y6343040D01*
X12993573Y6341059D01*
X12989661Y6340449D01*
X12985800Y6341465D01*
X12982600Y6343802D01*
X12979247Y6347612D01*
X12977215Y6351016D01*
X12976606Y6354927D01*
X12977622Y6358737D01*
X12979958Y6361938D01*
X12993878Y6374485D01*
X12966649Y6404711D01*
X12956082Y6395212D01*
X12951866Y6390436D01*
X12949072Y6385356D01*
X12947954Y6381546D01*
X12946278Y6378143D01*
X12943484Y6375603D01*
X12939928Y6374282D01*
X12936016Y6373622D01*
X12930682Y6371386D01*
X12925501Y6367678D01*
X12885470Y6331610D01*
X12880492Y6326022D01*
X12876987Y6323431D01*
X12870078Y6320434D01*
X12857784Y6313322D01*
X12878104Y6278067D01*
X12884099Y6281572D01*
X12887350Y6282740D01*
X12890804Y6282791D01*
X12894056Y6281674D01*
X12896748Y6279540D01*
X12900202Y6275679D01*
X12902438Y6271768D01*
X12902692Y6267297D01*
X12901066Y6263132D01*
X12897764Y6260084D01*
X12890804Y6256070D01*
X12900202Y6239865D01*
X12901472Y6236106D01*
X12901218Y6232144D01*
X12899440Y6228588D01*
X12896443Y6225997D01*
X12892074Y6223457D01*
X12888315Y6222187D01*
X12884353Y6222441D01*
X12880797Y6224168D01*
X12878206Y6227165D01*
X12868808Y6243370D01*
X12852603Y6234023D01*
X12848844Y6232753D01*
X12844881Y6233007D01*
X12841325Y6234785D01*
X12838734Y6237732D01*
X12836194Y6242151D01*
X12834924Y6245910D01*
X12835178Y6249873D01*
X12836906Y6253429D01*
X12839903Y6256020D01*
X12856108Y6265367D01*
X12835788Y6300622D01*
X12823444Y6293510D01*
X12818313Y6289751D01*
X12814554Y6285382D01*
X12812674Y6281826D01*
X12810337Y6278880D01*
X12807086Y6277000D01*
X12803327Y6276441D01*
X12799364Y6276594D01*
X12793675Y6275527D01*
X12787833Y6272936D01*
X12741198Y6246012D01*
X12735153Y6241592D01*
X12731140Y6239814D01*
X12723774Y6238290D01*
X12710261Y6233871D01*
X12722860Y6195161D01*
X12729413Y6197295D01*
X12732816Y6197803D01*
X12736220Y6197142D01*
X12739166Y6195364D01*
X12741351Y6192723D01*
X12743992Y6188252D01*
X12745313Y6183934D01*
X12744653Y6179515D01*
X12742164Y6175806D01*
X12738303Y6173520D01*
X12730683Y6171031D01*
X12736474Y6153200D01*
X12736931Y6149289D01*
X12735864Y6145479D01*
X12733426Y6142329D01*
X12729972Y6140399D01*
X12725146Y6138824D01*
X12721183Y6138367D01*
X12717373Y6139434D01*
X12714274Y6141923D01*
X12712344Y6145377D01*
X12706553Y6163157D01*
X12688722Y6157366D01*
X12684810Y6156909D01*
X12681000Y6157976D01*
X12677851Y6160465D01*
X12675920Y6163919D01*
X12674346Y6168745D01*
X12673888Y6172657D01*
X12674955Y6176518D01*
X12677444Y6179616D01*
X12680899Y6181547D01*
X12698679Y6187338D01*
X12686131Y6226048D01*
X12672568Y6221628D01*
X12666776Y6219037D01*
X12662154Y6215532D01*
X12659614Y6212433D01*
X12656718Y6210046D01*
X12653111Y6208877D01*
X12649352Y6209131D01*
X12645491Y6210096D01*
X12639700Y6210198D01*
X12633452Y6208928D01*
X12582245Y6192316D01*
X12575387Y6189218D01*
X12571120Y6188303D01*
X12563602Y6188354D01*
X12549479Y6186830D01*
X12553746Y6146393D01*
X12560604Y6147104D01*
X12564059Y6146850D01*
X12567208Y6145530D01*
X12569748Y6143193D01*
X12571323Y6140145D01*
X12572949Y6135166D01*
X12573355Y6130747D01*
X12571780Y6126530D01*
X12568580Y6123381D01*
X12564364Y6121958D01*
X12556388Y6121095D01*
X12558318Y6102502D01*
X12557963Y6098540D01*
X12556134Y6095034D01*
X12553086Y6092494D01*
X12549276Y6091326D01*
X12544247Y6090767D01*
X12540284Y6091174D01*
X12536779Y6093002D01*
X12534239Y6096050D01*
X12533071Y6099810D01*
X12531140Y6118453D01*
X12512497Y6116472D01*
X12508534Y6116878D01*
X12505029Y6118707D01*
X12502489Y6121755D01*
X12501321Y6125514D01*
X12500813Y6130594D01*
X12501168Y6134557D01*
X12502997Y6138062D01*
X12506045Y6140602D01*
X12509855Y6141770D01*
X12528448Y6143701D01*
X12524232Y6184188D01*
X12510058Y6182715D01*
X12503861Y6181344D01*
X12498628Y6178854D01*
X12495479Y6176416D01*
X12492126Y6174689D01*
X12488367Y6174282D01*
X12484709Y6175298D01*
X12481153Y6177026D01*
X12475514Y6178346D01*
X12469164Y6178397D01*
X12415570Y6172758D01*
X12408255Y6171184D01*
X12403886Y6171184D01*
X12396571Y6172809D01*
X12382398Y6174282D01*
X12378131Y6133795D01*
X12385040Y6133084D01*
X12388342Y6132118D01*
X12391186Y6130137D01*
X12393168Y6127343D01*
X12394082Y6124041D01*
X12394641Y6118860D01*
X12394082Y6114389D01*
X12391694Y6110630D01*
X12387935Y6108192D01*
X12383465Y6107684D01*
X12375489Y6108547D01*
X12373914Y6093460D01*
X12372848Y6089853D01*
X12370511Y6086906D01*
X12366853Y6083655D01*
X12363246Y6081623D01*
G37*

%LPC*%
G36*
X12398400Y6573926D02*
G01*
X12426188Y6573926D01*
X12453975Y6575907D01*
X12481509Y6579768D01*
X12508738Y6585559D01*
X12535458Y6593230D01*
X12561620Y6602730D01*
X12587020Y6614058D01*
X12611608Y6627114D01*
X12635179Y6641846D01*
X12657683Y6658203D01*
X12679019Y6676085D01*
X12699034Y6695389D01*
X12717627Y6716064D01*
X12734798Y6738010D01*
X12750342Y6761073D01*
X12764262Y6785152D01*
X12776454Y6810197D01*
X12786868Y6835952D01*
X12795453Y6862419D01*
X12802209Y6889445D01*
X12807035Y6916826D01*
X12809931Y6944512D01*
X12810896Y6972300D01*
X12809931Y7000087D01*
X12807035Y7027773D01*
X12802209Y7055154D01*
X12795453Y7082180D01*
X12786868Y7108647D01*
X12776454Y7134402D01*
X12764262Y7159447D01*
X12750342Y7183526D01*
X12734798Y7206589D01*
X12717627Y7228535D01*
X12699034Y7249210D01*
X12679019Y7268514D01*
X12657683Y7286396D01*
X12635179Y7302753D01*
X12611608Y7317486D01*
X12587020Y7330541D01*
X12561620Y7341870D01*
X12535458Y7351369D01*
X12508738Y7359040D01*
X12481509Y7364831D01*
X12453975Y7368692D01*
X12426188Y7370673D01*
X12398400Y7370673D01*
X12370612Y7368692D01*
X12343079Y7364831D01*
X12315850Y7359040D01*
X12289129Y7351369D01*
X12262967Y7341870D01*
X12237567Y7330541D01*
X12212980Y7317486D01*
X12189409Y7302753D01*
X12166904Y7286396D01*
X12145568Y7268514D01*
X12125553Y7249210D01*
X12106960Y7228535D01*
X12089841Y7206589D01*
X12074245Y7183526D01*
X12060377Y7159447D01*
X12048134Y7134402D01*
X12037720Y7108647D01*
X12029135Y7082180D01*
X12022429Y7055154D01*
X12017552Y7027773D01*
X12014657Y7000087D01*
X12013692Y6972300D01*
X12014657Y6944512D01*
X12017552Y6916826D01*
X12022429Y6889445D01*
X12029135Y6862419D01*
X12037720Y6835952D01*
X12048134Y6810197D01*
X12060377Y6785152D01*
X12074245Y6761073D01*
X12089841Y6738010D01*
X12106960Y6716064D01*
X12125553Y6695389D01*
X12145568Y6676085D01*
X12166904Y6658203D01*
X12189409Y6641846D01*
X12212980Y6627114D01*
X12237567Y6614058D01*
X12262967Y6602730D01*
X12289129Y6593230D01*
X12315850Y6585559D01*
X12343079Y6579768D01*
X12370612Y6575907D01*
G37*

%LPD*%
G36*
X12360249Y3807815D02*
G01*
X12357455Y3808069D01*
X12353645Y3809288D01*
X12350597Y3811828D01*
X12348768Y3815334D01*
X12348413Y3819245D01*
X12350343Y3837889D01*
X12331750Y3839819D01*
X12327940Y3841038D01*
X12324892Y3843528D01*
X12323064Y3847033D01*
X12322708Y3850995D01*
X12323216Y3856075D01*
X12324384Y3859834D01*
X12326924Y3862882D01*
X12330430Y3864711D01*
X12334392Y3865118D01*
X12352985Y3863136D01*
X12357252Y3903624D01*
X12343130Y3905097D01*
X12336729Y3905046D01*
X12331090Y3903726D01*
X12327534Y3901998D01*
X12323876Y3900982D01*
X12320117Y3901389D01*
X12316764Y3903116D01*
X12313666Y3905554D01*
X12308433Y3908044D01*
X12302185Y3909415D01*
X12248642Y3915054D01*
X12241123Y3915003D01*
X12236856Y3915918D01*
X12230049Y3919016D01*
X12216485Y3923385D01*
X12203938Y3884676D01*
X12210491Y3882542D01*
X12213539Y3880916D01*
X12215876Y3878427D01*
X12217247Y3875227D01*
X12217450Y3871823D01*
X12216942Y3866642D01*
X12215469Y3862425D01*
X12212370Y3859174D01*
X12208154Y3857650D01*
X12203684Y3858056D01*
X12196064Y3860546D01*
X12190272Y3842715D01*
X12188342Y3839260D01*
X12185243Y3836822D01*
X12181433Y3835755D01*
X12177471Y3836212D01*
X12172645Y3837787D01*
X12169190Y3839718D01*
X12166752Y3842816D01*
X12165634Y3846626D01*
X12166142Y3850589D01*
X12171883Y3868369D01*
X12154103Y3874160D01*
X12150648Y3876090D01*
X12148210Y3879189D01*
X12147092Y3883050D01*
X12147600Y3886962D01*
X12149175Y3891787D01*
X12151106Y3895242D01*
X12154204Y3897731D01*
X12158014Y3898798D01*
X12161977Y3898341D01*
X12179757Y3892550D01*
X12192355Y3931259D01*
X12178792Y3935628D01*
X12172594Y3936898D01*
X12166803Y3936796D01*
X12162942Y3935831D01*
X12159132Y3935577D01*
X12155576Y3936746D01*
X12152630Y3939184D01*
X12150090Y3942232D01*
X12145467Y3945737D01*
X12139676Y3948379D01*
X12088469Y3964990D01*
X12081103Y3966514D01*
X12077141Y3968292D01*
X12071096Y3972763D01*
X12058751Y3979875D01*
X12038431Y3944620D01*
X12044426Y3941114D01*
X12047067Y3938930D01*
X12048794Y3935984D01*
X12049506Y3932580D01*
X12048998Y3929176D01*
X12047372Y3924249D01*
X12045086Y3920388D01*
X12041378Y3917899D01*
X12036907Y3917289D01*
X12032640Y3918610D01*
X12025731Y3922623D01*
X12017146Y3907790D01*
X12014606Y3904894D01*
X12011152Y3903116D01*
X12008967Y3902506D01*
X12004903Y3902201D01*
X12001093Y3903472D01*
X11998045Y3905199D01*
X11995099Y3907840D01*
X11993321Y3911396D01*
X11993067Y3915308D01*
X11994337Y3919067D01*
X12003684Y3935323D01*
X11987479Y3944670D01*
X11984532Y3947261D01*
X11982754Y3950817D01*
X11982500Y3954779D01*
X11983770Y3958539D01*
X11986310Y3962958D01*
X11988952Y3965905D01*
X11992508Y3967683D01*
X11996420Y3967937D01*
X12000179Y3966667D01*
X12016384Y3957320D01*
X12036755Y3992575D01*
X12024461Y3999687D01*
X12018619Y4002227D01*
X12012930Y4003294D01*
X12008916Y4003141D01*
X12005208Y4003700D01*
X12001957Y4005579D01*
X11999569Y4008526D01*
X11997690Y4012082D01*
X11993930Y4016451D01*
X11988800Y4020210D01*
X11942165Y4047185D01*
X11935307Y4050182D01*
X11931751Y4052722D01*
X11926773Y4058361D01*
X11916206Y4067860D01*
X11888978Y4037634D01*
X11894108Y4032961D01*
X11896242Y4030268D01*
X11897360Y4027017D01*
X11897309Y4023563D01*
X11896140Y4020362D01*
X11893550Y4015841D01*
X11890502Y4012539D01*
X11886336Y4010914D01*
X11881866Y4011168D01*
X11877903Y4013403D01*
X11871960Y4018737D01*
X11859463Y4004818D01*
X11856262Y4002481D01*
X11852402Y4001465D01*
X11848490Y4002024D01*
X11845086Y4004056D01*
X11841327Y4007459D01*
X11838940Y4010660D01*
X11837974Y4014470D01*
X11838533Y4018432D01*
X11840565Y4021836D01*
X11853113Y4035755D01*
X11839194Y4048251D01*
X11836806Y4051452D01*
X11835841Y4055262D01*
X11836400Y4059224D01*
X11838432Y4062628D01*
X11841835Y4066387D01*
X11844985Y4068775D01*
X11848846Y4069740D01*
X11852757Y4069181D01*
X11856161Y4067149D01*
X11870080Y4054601D01*
X11897360Y4084878D01*
X11886742Y4094378D01*
X11881561Y4098086D01*
X11876227Y4100322D01*
X11872315Y4100982D01*
X11868759Y4102354D01*
X11865965Y4104843D01*
X11864289Y4108246D01*
X11863171Y4112056D01*
X11860428Y4117136D01*
X11856212Y4121912D01*
X11816181Y4157929D01*
X11810085Y4162298D01*
X11807139Y4165549D01*
X11803430Y4172102D01*
X11795099Y4183583D01*
X11762130Y4159656D01*
X11766194Y4154068D01*
X11767718Y4150969D01*
X11768124Y4147565D01*
X11767362Y4144213D01*
X11765534Y4141317D01*
X11762079Y4137456D01*
X11758422Y4134865D01*
X11754002Y4134104D01*
X11749684Y4135323D01*
X11746280Y4138269D01*
X11741607Y4144721D01*
X11726468Y4133748D01*
X11722862Y4132072D01*
X11718899Y4131919D01*
X11715140Y4133291D01*
X11712244Y4135983D01*
X11709247Y4140098D01*
X11707622Y4143705D01*
X11707469Y4147667D01*
X11708841Y4151376D01*
X11711533Y4154271D01*
X11726672Y4165295D01*
X11715648Y4180433D01*
X11714022Y4184040D01*
X11713819Y4188002D01*
X11715191Y4191711D01*
X11717883Y4194606D01*
X11721998Y4197604D01*
X11725605Y4199280D01*
X11729567Y4199432D01*
X11733276Y4198061D01*
X11736222Y4195368D01*
X11747195Y4180230D01*
X11780164Y4204157D01*
X11771782Y4215688D01*
X11767464Y4220362D01*
X11762740Y4223664D01*
X11759031Y4225137D01*
X11755831Y4227169D01*
X11753646Y4230217D01*
X11752681Y4233875D01*
X11752427Y4237888D01*
X11750751Y4243425D01*
X11747601Y4248962D01*
X11715953Y4292498D01*
X11710873Y4298035D01*
X11708688Y4301845D01*
X11706453Y4309008D01*
X11700662Y4322013D01*
X11663476Y4305452D01*
X11666270Y4299102D01*
X11667134Y4295749D01*
X11666829Y4292346D01*
X11665356Y4289196D01*
X11662968Y4286758D01*
X11658752Y4283710D01*
X11654637Y4281932D01*
X11650167Y4282084D01*
X11646204Y4284167D01*
X11643512Y4287774D01*
X11640261Y4295089D01*
X11623446Y4287621D01*
X11619585Y4286758D01*
X11615216Y4287621D01*
X11611864Y4289704D01*
X11609578Y4292955D01*
X11607647Y4297273D01*
X11606784Y4301134D01*
X11607444Y4305046D01*
X11609578Y4308398D01*
X11612829Y4310684D01*
X11629898Y4318304D01*
X11622328Y4335424D01*
X11621414Y4339285D01*
X11622125Y4343196D01*
X11624208Y4346549D01*
X11627459Y4348835D01*
X11632082Y4350867D01*
X11635943Y4351782D01*
X11639854Y4351070D01*
X11643207Y4348988D01*
X11645493Y4345736D01*
X11653113Y4328617D01*
X11690299Y4345178D01*
X11684508Y4358182D01*
X11681307Y4363669D01*
X11677345Y4367885D01*
X11674043Y4370120D01*
X11671350Y4372762D01*
X11669776Y4376216D01*
X11669623Y4379976D01*
X11670182Y4383938D01*
X11669725Y4389729D01*
X11667794Y4395774D01*
X11645900Y4444949D01*
X11642090Y4451451D01*
X11640769Y4455617D01*
X11640007Y4463084D01*
X11637060Y4477004D01*
X11597233Y4468520D01*
X11598656Y4461764D01*
X11598808Y4458309D01*
X11597792Y4455007D01*
X11595760Y4452264D01*
X11592864Y4450334D01*
X11588140Y4448251D01*
X11583720Y4447387D01*
X11579402Y4448454D01*
X11575948Y4451350D01*
X11574068Y4455414D01*
X11572392Y4463237D01*
X11554460Y4459427D01*
X11550497Y4459376D01*
X11546332Y4461154D01*
X11543487Y4463948D01*
X11541963Y4467555D01*
X11540947Y4472127D01*
X11540896Y4476089D01*
X11542369Y4479798D01*
X11545163Y4482642D01*
X11548821Y4484217D01*
X11567109Y4488078D01*
X11563197Y4506417D01*
X11563146Y4510379D01*
X11564620Y4514037D01*
X11567414Y4516882D01*
X11571071Y4518456D01*
X11575999Y4519523D01*
X11579961Y4519574D01*
X11583670Y4518101D01*
X11586514Y4515307D01*
X11588089Y4511700D01*
X11591950Y4493361D01*
X11631777Y4501845D01*
X11628831Y4515764D01*
X11626799Y4521809D01*
X11623802Y4526737D01*
X11621008Y4529582D01*
X11618925Y4532731D01*
X11618163Y4536440D01*
X11618772Y4540148D01*
X11620144Y4543907D01*
X11620906Y4549648D01*
X11620246Y4555998D01*
X11609070Y4608677D01*
X11606682Y4615789D01*
X11606225Y4620107D01*
X11607088Y4627575D01*
X11607088Y4641799D01*
X11566398Y4641799D01*
X11566398Y4634890D01*
X11565788Y4631436D01*
X11564010Y4628388D01*
X11561318Y4626102D01*
X11558016Y4624882D01*
X11552936Y4623968D01*
X11548567Y4624120D01*
X11544604Y4626152D01*
X11541912Y4629658D01*
X11540998Y4633976D01*
X11540998Y4641799D01*
X11527891Y4641799D01*
X11524234Y4642510D01*
X11521084Y4644440D01*
X11515445Y4649520D01*
X11513058Y4652772D01*
X11512092Y4656683D01*
X11512753Y4660696D01*
X11514937Y4664100D01*
X11518290Y4666386D01*
X11522252Y4667199D01*
X11540998Y4667199D01*
X11540998Y4685944D01*
X11541760Y4689805D01*
X11543944Y4693107D01*
X11547246Y4695342D01*
X11551158Y4696104D01*
X11556238Y4696104D01*
X11560098Y4695342D01*
X11563400Y4693107D01*
X11565585Y4689805D01*
X11566398Y4685944D01*
X11566398Y4667199D01*
X11607088Y4667199D01*
X11607088Y4681474D01*
X11606377Y4687773D01*
X11604447Y4693208D01*
X11602364Y4696612D01*
X11600942Y4700117D01*
X11600942Y4703927D01*
X11602364Y4707432D01*
X11604447Y4710785D01*
X11606377Y4716272D01*
X11607088Y4722571D01*
X11607088Y4776419D01*
X11606784Y4779162D01*
X11606936Y4782464D01*
X11608206Y4785563D01*
X11610441Y4789322D01*
X11612473Y4795367D01*
X11615420Y4809286D01*
X11575592Y4817719D01*
X11574170Y4810963D01*
X11572900Y4807762D01*
X11570614Y4805172D01*
X11567617Y4803495D01*
X11564213Y4802936D01*
X11559032Y4802936D01*
X11554663Y4803902D01*
X11551158Y4806696D01*
X11549176Y4810709D01*
X11549126Y4815179D01*
X11550751Y4823002D01*
X11532463Y4826914D01*
X11528806Y4828489D01*
X11526062Y4831334D01*
X11524589Y4834991D01*
X11524640Y4838954D01*
X11525707Y4843932D01*
X11527231Y4847590D01*
X11530076Y4850333D01*
X11533784Y4851806D01*
X11537746Y4851755D01*
X11556034Y4847844D01*
X11559946Y4866182D01*
X11561521Y4869840D01*
X11564366Y4872583D01*
X11568023Y4874056D01*
X11571986Y4874006D01*
X11576964Y4872939D01*
X11580622Y4871364D01*
X11583365Y4868519D01*
X11584838Y4864862D01*
X11584787Y4860899D01*
X11580876Y4842611D01*
X11620703Y4834128D01*
X11623649Y4848047D01*
X11624310Y4854397D01*
X11623548Y4860137D01*
X11622176Y4863846D01*
X11621566Y4867605D01*
X11622328Y4871262D01*
X11624411Y4874412D01*
X11627205Y4877308D01*
X11630202Y4882235D01*
X11632234Y4888280D01*
X11643410Y4940960D01*
X11644172Y4948428D01*
X11645493Y4952593D01*
X11649303Y4959045D01*
X11655094Y4972050D01*
X11617909Y4988610D01*
X11615064Y4982260D01*
X11613184Y4979416D01*
X11610390Y4977333D01*
X11607139Y4976317D01*
X11603685Y4976469D01*
X11598605Y4977536D01*
X11594541Y4979416D01*
X11591645Y4982870D01*
X11590578Y4987239D01*
X11591442Y4991608D01*
X11594693Y4998923D01*
X11580622Y5005222D01*
X11577523Y5007356D01*
X11575440Y5010505D01*
X11573662Y5014620D01*
X11572798Y5018684D01*
X11573713Y5022748D01*
X11574526Y5024628D01*
X11576812Y5027828D01*
X11580164Y5029962D01*
X11584076Y5030622D01*
X11587937Y5029758D01*
X11605056Y5022138D01*
X11612626Y5039258D01*
X11614912Y5042458D01*
X11618264Y5044592D01*
X11622176Y5045252D01*
X11626037Y5044389D01*
X11630710Y5042306D01*
X11633962Y5040020D01*
X11636044Y5036667D01*
X11636705Y5032756D01*
X11635841Y5028895D01*
X11628221Y5011826D01*
X11665407Y4995265D01*
X11671198Y5008270D01*
X11673128Y5014315D01*
X11673586Y5020106D01*
X11673027Y5024018D01*
X11673230Y5027828D01*
X11674754Y5031232D01*
X11677446Y5033924D01*
X11680748Y5036108D01*
X11684711Y5040325D01*
X11687962Y5045811D01*
X11709857Y5095036D01*
X11712092Y5102199D01*
X11714276Y5105958D01*
X11719356Y5111496D01*
X11727738Y5123027D01*
X11694820Y5146954D01*
X11690705Y5141315D01*
X11688267Y5138928D01*
X11685117Y5137505D01*
X11681714Y5137200D01*
X11678361Y5138013D01*
X11673636Y5140147D01*
X11670030Y5142839D01*
X11667947Y5146802D01*
X11667744Y5151272D01*
X11669522Y5155387D01*
X11674246Y5161889D01*
X11659108Y5172862D01*
X11656415Y5175808D01*
X11655044Y5179517D01*
X11655196Y5183479D01*
X11656872Y5187086D01*
X11659819Y5191201D01*
X11662765Y5193893D01*
X11666474Y5195265D01*
X11670436Y5195112D01*
X11674043Y5193436D01*
X11689181Y5182412D01*
X11700154Y5197551D01*
X11703100Y5200243D01*
X11706809Y5201615D01*
X11710771Y5201462D01*
X11714378Y5199837D01*
X11718493Y5196840D01*
X11721185Y5193944D01*
X11722557Y5190185D01*
X11722404Y5186222D01*
X11720728Y5182666D01*
X11709704Y5167477D01*
X11742674Y5143550D01*
X11751005Y5155082D01*
X11754154Y5160619D01*
X11755831Y5166156D01*
X11756085Y5170119D01*
X11757050Y5173776D01*
X11759285Y5176824D01*
X11762435Y5178856D01*
X11766143Y5180380D01*
X11770918Y5183682D01*
X11775186Y5188356D01*
X11806834Y5231942D01*
X11810542Y5238445D01*
X11813489Y5241696D01*
X11819585Y5246065D01*
X11830151Y5255615D01*
X11802922Y5285841D01*
X11797792Y5281218D01*
X11794845Y5279390D01*
X11791492Y5278628D01*
X11788089Y5279034D01*
X11784990Y5280558D01*
X11780824Y5283606D01*
X11777827Y5286959D01*
X11776608Y5291277D01*
X11777370Y5295696D01*
X11779961Y5299354D01*
X11785904Y5304739D01*
X11773408Y5318658D01*
X11771376Y5322062D01*
X11770817Y5325973D01*
X11771782Y5329783D01*
X11774170Y5332984D01*
X11777929Y5336387D01*
X11781332Y5338419D01*
X11785244Y5338978D01*
X11789105Y5338013D01*
X11792254Y5335625D01*
X11804802Y5321706D01*
X11818721Y5334254D01*
X11822125Y5336286D01*
X11826036Y5336844D01*
X11829897Y5335879D01*
X11833047Y5333492D01*
X11836450Y5329732D01*
X11838482Y5326329D01*
X11839041Y5322366D01*
X11838076Y5318556D01*
X11835688Y5315356D01*
X11821820Y5302859D01*
X11849049Y5272582D01*
X11859615Y5282133D01*
X11863832Y5286857D01*
X11866626Y5291937D01*
X11867692Y5295798D01*
X11869420Y5299151D01*
X11872214Y5301691D01*
X11875719Y5303012D01*
X11879681Y5303672D01*
X11885015Y5305907D01*
X11890197Y5309616D01*
X11930227Y5345684D01*
X11935206Y5351272D01*
X11938711Y5353862D01*
X11945620Y5356860D01*
X11957913Y5363972D01*
X11937593Y5399227D01*
X11931548Y5395772D01*
X11928348Y5394553D01*
X11924893Y5394502D01*
X11921642Y5395620D01*
X11918950Y5397754D01*
X11915444Y5401614D01*
X11913260Y5405526D01*
X11912955Y5409996D01*
X11914632Y5414162D01*
X11917934Y5417210D01*
X11924893Y5421223D01*
X11915495Y5437428D01*
X11914225Y5441188D01*
X11914479Y5445150D01*
X11916257Y5448706D01*
X11919204Y5451297D01*
X11923623Y5453837D01*
X11927382Y5455107D01*
X11931345Y5454853D01*
X11934901Y5453126D01*
X11937492Y5450128D01*
X11946890Y5433923D01*
X11963095Y5443270D01*
X11966854Y5444540D01*
X11970766Y5444286D01*
X11974322Y5442559D01*
X11976963Y5439562D01*
X11979503Y5435142D01*
X11980773Y5431383D01*
X11980519Y5427472D01*
X11978741Y5423916D01*
X11975795Y5421274D01*
X11959590Y5411927D01*
X11979910Y5376672D01*
X11992254Y5383784D01*
X11997385Y5387543D01*
X12001144Y5391962D01*
X12003024Y5395468D01*
X12005360Y5398414D01*
X12008612Y5400294D01*
X12012371Y5400852D01*
X12016333Y5400700D01*
X12022023Y5401818D01*
X12027865Y5404358D01*
X12074499Y5431282D01*
X12080544Y5435701D01*
X12084558Y5437530D01*
X12091873Y5439003D01*
X12105436Y5443423D01*
X12092838Y5482132D01*
X12086234Y5479999D01*
X12082830Y5479491D01*
X12079478Y5480151D01*
X12076531Y5481929D01*
X12074296Y5484571D01*
X12071705Y5489041D01*
X12070384Y5493359D01*
X12071045Y5497779D01*
X12073534Y5501487D01*
X12077395Y5503824D01*
X12085015Y5506262D01*
X12079732Y5522417D01*
X12079224Y5525516D01*
X12080341Y5530646D01*
X12081764Y5533542D01*
X12084050Y5535828D01*
X12086894Y5537250D01*
X12090552Y5538470D01*
X12094514Y5538927D01*
X12098324Y5537860D01*
X12101423Y5535371D01*
X12103354Y5531916D01*
X12109145Y5514136D01*
X12126976Y5519928D01*
X12130887Y5520385D01*
X12134697Y5519318D01*
X12137796Y5516829D01*
X12139777Y5513374D01*
X12141352Y5508548D01*
X12141809Y5504637D01*
X12140692Y5500827D01*
X12138253Y5497677D01*
X12134799Y5495747D01*
X12117019Y5489956D01*
X12129566Y5451246D01*
X12143130Y5455666D01*
X12148921Y5458307D01*
X12153493Y5461812D01*
X12156084Y5464860D01*
X12158980Y5467248D01*
X12162586Y5468416D01*
X12166346Y5468213D01*
X12170206Y5467197D01*
X12175998Y5467096D01*
X12182246Y5468366D01*
X12233452Y5485028D01*
X12240260Y5488127D01*
X12244578Y5488990D01*
X12252045Y5488940D01*
X12266218Y5490464D01*
X12261951Y5530951D01*
X12255093Y5530189D01*
X12251639Y5530443D01*
X12248489Y5531815D01*
X12245949Y5534152D01*
X12244324Y5537149D01*
X12242749Y5542127D01*
X12242342Y5546598D01*
X12243866Y5550763D01*
X12247118Y5553913D01*
X12251334Y5555335D01*
X12259310Y5556199D01*
X12257684Y5571744D01*
X12257989Y5575503D01*
X12259665Y5578906D01*
X12262205Y5582259D01*
X12265304Y5585002D01*
X12269266Y5586272D01*
X12271451Y5586526D01*
X12275413Y5586171D01*
X12278918Y5584291D01*
X12281458Y5581243D01*
X12282627Y5577484D01*
X12284557Y5558840D01*
X12303201Y5560822D01*
X12307112Y5560466D01*
X12310618Y5558586D01*
X12313158Y5555538D01*
X12314326Y5551779D01*
X12314885Y5546699D01*
X12314529Y5542788D01*
X12312650Y5539232D01*
X12309602Y5536742D01*
X12305842Y5535523D01*
X12287199Y5533593D01*
X12291466Y5493105D01*
X12305639Y5494578D01*
X12311837Y5495950D01*
X12317069Y5498439D01*
X12320219Y5500878D01*
X12323572Y5502656D01*
X12327331Y5503011D01*
X12330938Y5502046D01*
X12334544Y5500268D01*
X12340183Y5498947D01*
X12346533Y5498896D01*
X12400076Y5504535D01*
X12407442Y5506110D01*
X12411811Y5506110D01*
X12419126Y5504535D01*
X12433300Y5503011D01*
X12437516Y5543499D01*
X12430658Y5544261D01*
X12427305Y5545175D01*
X12424511Y5547156D01*
X12422530Y5549950D01*
X12421616Y5553303D01*
X12421057Y5558434D01*
X12421565Y5562904D01*
X12423952Y5566714D01*
X12427762Y5569102D01*
X12432233Y5569610D01*
X12440208Y5568797D01*
X12441885Y5585104D01*
X12443002Y5588762D01*
X12445441Y5591759D01*
X12447828Y5593842D01*
X12451384Y5595823D01*
X12455499Y5596229D01*
X12458344Y5595924D01*
X12462154Y5594756D01*
X12465202Y5592216D01*
X12467031Y5588711D01*
X12467386Y5584748D01*
X12465456Y5566105D01*
X12484049Y5564174D01*
X12487859Y5563006D01*
X12490907Y5560466D01*
X12492736Y5556961D01*
X12493091Y5552998D01*
X12492583Y5547969D01*
X12491415Y5544159D01*
X12488875Y5541111D01*
X12485370Y5539282D01*
X12481407Y5538927D01*
X12462814Y5540857D01*
X12458547Y5500370D01*
X12472670Y5498896D01*
X12479070Y5498947D01*
X12484709Y5500268D01*
X12488265Y5501995D01*
X12491923Y5503011D01*
X12495682Y5502605D01*
X12499035Y5500878D01*
X12502134Y5498439D01*
X12507366Y5495950D01*
X12513614Y5494578D01*
X12567158Y5488940D01*
X12574676Y5488990D01*
X12578943Y5488127D01*
X12585750Y5484977D01*
X12599314Y5480608D01*
X12611862Y5519318D01*
X12605308Y5521452D01*
X12602260Y5523077D01*
X12599924Y5525566D01*
X12598552Y5528767D01*
X12598349Y5532170D01*
X12598857Y5537352D01*
X12600330Y5541619D01*
X12603429Y5544820D01*
X12607645Y5546344D01*
X12612116Y5545937D01*
X12619736Y5543499D01*
X12624612Y5558485D01*
X12626441Y5561838D01*
X12629388Y5564276D01*
X12632842Y5566206D01*
X12636804Y5567426D01*
X12640919Y5566968D01*
X12643154Y5566257D01*
X12646609Y5564276D01*
X12649047Y5561177D01*
X12650165Y5557367D01*
X12649657Y5553456D01*
X12643866Y5535625D01*
X12661696Y5529834D01*
X12665151Y5527903D01*
X12667589Y5524804D01*
X12668656Y5520994D01*
X12668199Y5517032D01*
X12666624Y5512206D01*
X12664694Y5508752D01*
X12661595Y5506313D01*
X12657785Y5505196D01*
X12653822Y5505704D01*
X12636042Y5511444D01*
X12623444Y5472734D01*
X12637008Y5468366D01*
X12643205Y5467096D01*
X12648996Y5467197D01*
X12652857Y5468162D01*
X12656667Y5468416D01*
X12660223Y5467248D01*
X12663170Y5464860D01*
X12665710Y5461762D01*
X12670332Y5458256D01*
X12676124Y5455666D01*
X12727330Y5439003D01*
X12734696Y5437479D01*
X12738658Y5435701D01*
X12744704Y5431282D01*
X12757048Y5424170D01*
X12777368Y5459425D01*
X12771374Y5462879D01*
X12768732Y5465064D01*
X12767005Y5468010D01*
X12766294Y5471414D01*
X12766802Y5474817D01*
X12768427Y5479745D01*
X12770713Y5483606D01*
X12774422Y5486095D01*
X12778892Y5486755D01*
X12783159Y5485384D01*
X12790068Y5481421D01*
X12798602Y5496153D01*
X12801193Y5499100D01*
X12804648Y5500878D01*
X12806832Y5501487D01*
X12810896Y5501792D01*
X12814706Y5500522D01*
X12817754Y5498795D01*
X12820700Y5496153D01*
X12822478Y5492648D01*
X12822732Y5488686D01*
X12821462Y5484926D01*
X12812115Y5468721D01*
X12828320Y5459323D01*
X12831267Y5456732D01*
X12833045Y5453176D01*
X12833299Y5449214D01*
X12832029Y5445455D01*
X12829489Y5441086D01*
X12826847Y5438089D01*
X12823291Y5436311D01*
X12819380Y5436057D01*
X12815620Y5437327D01*
X12799415Y5446725D01*
X12779044Y5411470D01*
X12791338Y5404307D01*
X12797180Y5401767D01*
X12802870Y5400700D01*
X12806832Y5400852D01*
X12810591Y5400294D01*
X12813842Y5398414D01*
X12816230Y5395468D01*
X12818059Y5391912D01*
X12821869Y5387543D01*
X12827000Y5383784D01*
X12873634Y5356860D01*
X12880492Y5353812D01*
X12884048Y5351272D01*
X12889026Y5345633D01*
X12899593Y5336133D01*
X12926822Y5366359D01*
X12921691Y5371033D01*
X12919557Y5373725D01*
X12918440Y5376976D01*
X12918490Y5380431D01*
X12919659Y5383631D01*
X12922250Y5388152D01*
X12925298Y5391454D01*
X12929463Y5393080D01*
X12933934Y5392826D01*
X12937845Y5390642D01*
X12943840Y5385257D01*
X12956336Y5399176D01*
X12959537Y5401564D01*
X12963347Y5402529D01*
X12967309Y5401970D01*
X12970713Y5399938D01*
X12974472Y5396534D01*
X12976860Y5393334D01*
X12977825Y5389524D01*
X12977266Y5385562D01*
X12975234Y5382158D01*
X12962686Y5368239D01*
X12976606Y5355742D01*
X12978993Y5352542D01*
X12979958Y5348732D01*
X12979400Y5344769D01*
X12977368Y5341366D01*
X12973964Y5337606D01*
X12970764Y5335219D01*
X12966954Y5334254D01*
X12963042Y5334812D01*
X12959638Y5336844D01*
X12945719Y5349392D01*
X12918440Y5319115D01*
X12929057Y5309616D01*
X12934188Y5305907D01*
X12939572Y5303672D01*
X12943484Y5303012D01*
X12947040Y5301691D01*
X12949834Y5299151D01*
X12951510Y5295747D01*
X12952577Y5291937D01*
X12955371Y5286857D01*
X12959588Y5282082D01*
X12999618Y5246065D01*
X13005714Y5241696D01*
X13008660Y5238445D01*
X13012369Y5231892D01*
X13020700Y5220411D01*
X13053669Y5244338D01*
X13049605Y5249926D01*
X13048081Y5253024D01*
X13047675Y5256428D01*
X13048437Y5259781D01*
X13050265Y5262727D01*
X13053720Y5266588D01*
X13057378Y5269128D01*
X13061797Y5269890D01*
X13066115Y5268671D01*
X13069519Y5265724D01*
X13074192Y5259273D01*
X13089331Y5270246D01*
X13092938Y5271922D01*
X13096900Y5272074D01*
X13100659Y5270703D01*
X13103555Y5268010D01*
X13106552Y5263896D01*
X13108178Y5260289D01*
X13108330Y5256326D01*
X13106958Y5252618D01*
X13104266Y5249722D01*
X13089128Y5238699D01*
X13100151Y5223560D01*
X13101777Y5219954D01*
X13101980Y5215991D01*
X13100558Y5212283D01*
X13097916Y5209387D01*
X13093801Y5206390D01*
X13090194Y5204714D01*
X13086232Y5204561D01*
X13082524Y5205933D01*
X13079577Y5208625D01*
X13068604Y5223764D01*
X13035635Y5199837D01*
X13044017Y5188356D01*
X13048284Y5183632D01*
X13053060Y5180330D01*
X13056768Y5178856D01*
X13059968Y5176824D01*
X13062153Y5173776D01*
X13063118Y5170119D01*
X13063372Y5166156D01*
X13065048Y5160619D01*
X13068198Y5155082D01*
X13099846Y5111496D01*
X13104926Y5105958D01*
X13107111Y5102148D01*
X13109346Y5094986D01*
X13115137Y5082032D01*
X13152323Y5098542D01*
X13149529Y5104892D01*
X13148665Y5108295D01*
X13149021Y5111800D01*
X13150545Y5114950D01*
X13153085Y5117439D01*
X13157352Y5120335D01*
X13161416Y5121960D01*
X13165836Y5121706D01*
X13169747Y5119624D01*
X13172338Y5116068D01*
X13175538Y5108905D01*
X13188340Y5114594D01*
X13191642Y5115458D01*
X13195046Y5115153D01*
X13200837Y5113680D01*
X13203631Y5112461D01*
X13205968Y5110530D01*
X13208152Y5106720D01*
X13209016Y5102860D01*
X13208355Y5098948D01*
X13206222Y5095595D01*
X13202970Y5093309D01*
X13185851Y5085689D01*
X13193471Y5068570D01*
X13194385Y5064709D01*
X13193674Y5060797D01*
X13191591Y5057444D01*
X13188340Y5055158D01*
X13183717Y5053126D01*
X13179856Y5052212D01*
X13175945Y5052923D01*
X13172592Y5055006D01*
X13170306Y5058257D01*
X13162686Y5075377D01*
X13125500Y5058816D01*
X13131292Y5045811D01*
X13134492Y5040325D01*
X13138454Y5036108D01*
X13141756Y5033873D01*
X13144449Y5031232D01*
X13145973Y5027777D01*
X13146176Y5024018D01*
X13145617Y5020056D01*
X13146074Y5014315D01*
X13148005Y5008219D01*
X13169900Y4959045D01*
X13173710Y4952542D01*
X13175030Y4948428D01*
X13175792Y4940909D01*
X13178739Y4926990D01*
X13218566Y4935474D01*
X13217093Y4942230D01*
X13216991Y4945684D01*
X13218007Y4948986D01*
X13220039Y4951730D01*
X13222935Y4953660D01*
X13227659Y4955743D01*
X13232079Y4956657D01*
X13236397Y4955540D01*
X13239851Y4952644D01*
X13241731Y4948580D01*
X13243407Y4940757D01*
X13261340Y4944567D01*
X13265302Y4944618D01*
X13269468Y4942840D01*
X13272312Y4940046D01*
X13273836Y4936439D01*
X13274801Y4931867D01*
X13274852Y4927904D01*
X13273430Y4924196D01*
X13270636Y4921351D01*
X13266978Y4919827D01*
X13248690Y4915916D01*
X13252551Y4897577D01*
X13252653Y4893614D01*
X13251180Y4889957D01*
X13248386Y4887112D01*
X13244728Y4885537D01*
X13239800Y4884470D01*
X13235838Y4884420D01*
X13232130Y4885893D01*
X13229285Y4888687D01*
X13227710Y4892344D01*
X13223849Y4910632D01*
X13184022Y4902149D01*
X13186968Y4888230D01*
X13189000Y4882235D01*
X13191998Y4877257D01*
X13194792Y4874412D01*
X13196874Y4871262D01*
X13197636Y4867554D01*
X13197027Y4863846D01*
X13195655Y4860086D01*
X13194893Y4854346D01*
X13195554Y4847996D01*
X13206730Y4795316D01*
X13209117Y4788204D01*
X13209574Y4783886D01*
X13208711Y4776419D01*
X13208711Y4762195D01*
X13249401Y4762195D01*
X13249401Y4769104D01*
X13250011Y4772507D01*
X13251688Y4775504D01*
X13254278Y4777790D01*
X13257479Y4779060D01*
X13262559Y4780127D01*
X13267029Y4780076D01*
X13271042Y4778095D01*
X13273836Y4774590D01*
X13274801Y4770170D01*
X13274801Y4762195D01*
X13292988Y4762195D01*
X13296900Y4761433D01*
X13300710Y4758639D01*
X13302945Y4755388D01*
X13303707Y4751476D01*
X13303707Y4746955D01*
X13302945Y4743043D01*
X13300710Y4739741D01*
X13297458Y4737557D01*
X13293547Y4736795D01*
X13274801Y4736795D01*
X13274801Y4718050D01*
X13274040Y4714189D01*
X13271855Y4710887D01*
X13268553Y4708702D01*
X13264642Y4707890D01*
X13259562Y4707890D01*
X13255701Y4708702D01*
X13252399Y4710887D01*
X13250214Y4714189D01*
X13249401Y4718050D01*
X13249401Y4736795D01*
X13208711Y4736795D01*
X13208711Y4722571D01*
X13209422Y4716221D01*
X13211352Y4710785D01*
X13212673Y4708652D01*
X13214146Y4704638D01*
X13213791Y4700320D01*
X13211708Y4696561D01*
X13208254Y4694021D01*
X13204037Y4693107D01*
X13138708Y4693107D01*
X13134797Y4693869D01*
X13131495Y4696104D01*
X13129920Y4697679D01*
X13121894Y4703318D01*
X13112953Y4707432D01*
X13103504Y4709972D01*
X13093700Y4710836D01*
X13083895Y4709972D01*
X13074446Y4707432D01*
X13065506Y4703318D01*
X13057479Y4697679D01*
X13050519Y4690719D01*
X13044881Y4682693D01*
X13040766Y4673752D01*
X13038226Y4664303D01*
X13037362Y4654499D01*
X13038226Y4644694D01*
X13040766Y4635246D01*
X13044881Y4626305D01*
X13050519Y4618278D01*
X13057479Y4611319D01*
X13065506Y4605680D01*
X13074446Y4601565D01*
X13083895Y4599025D01*
X13093700Y4598162D01*
X13103504Y4599025D01*
X13112953Y4601565D01*
X13121894Y4605680D01*
X13129920Y4611319D01*
X13131495Y4612894D01*
X13134797Y4615129D01*
X13138708Y4615891D01*
X13192302Y4615891D01*
X13196671Y4614926D01*
X13200227Y4612132D01*
X13202208Y4608118D01*
X13202259Y4603597D01*
X13200380Y4594707D01*
X13240156Y4586274D01*
X13241629Y4593031D01*
X13242899Y4596231D01*
X13245185Y4598822D01*
X13248182Y4600498D01*
X13251535Y4601108D01*
X13256768Y4601108D01*
X13261136Y4600092D01*
X13264642Y4597298D01*
X13266623Y4593285D01*
X13266674Y4588814D01*
X13265048Y4580991D01*
X13283336Y4577080D01*
X13286994Y4575505D01*
X13289737Y4572660D01*
X13291210Y4569002D01*
X13291159Y4565040D01*
X13290092Y4560062D01*
X13288568Y4556404D01*
X13285724Y4553661D01*
X13282015Y4552188D01*
X13278053Y4552238D01*
X13259765Y4556150D01*
X13255853Y4537811D01*
X13254278Y4534204D01*
X13251434Y4531410D01*
X13247776Y4529937D01*
X13243813Y4529988D01*
X13238835Y4531055D01*
X13235178Y4532630D01*
X13232434Y4535474D01*
X13230961Y4539132D01*
X13231012Y4543094D01*
X13234924Y4561433D01*
X13195096Y4569866D01*
X13192099Y4555947D01*
X13191490Y4549648D01*
X13192251Y4543907D01*
X13193623Y4540148D01*
X13194233Y4536440D01*
X13193420Y4532731D01*
X13191388Y4529582D01*
X13188594Y4526737D01*
X13185597Y4521758D01*
X13183565Y4515713D01*
X13172389Y4463034D01*
X13171627Y4455566D01*
X13170306Y4451400D01*
X13166496Y4444949D01*
X13160705Y4431944D01*
X13197890Y4415383D01*
X13200735Y4421733D01*
X13202615Y4424578D01*
X13205358Y4426661D01*
X13208660Y4427677D01*
X13212114Y4427524D01*
X13217194Y4426458D01*
X13221258Y4424578D01*
X13224103Y4421124D01*
X13225221Y4416806D01*
X13224357Y4412386D01*
X13221106Y4405071D01*
X13237210Y4397908D01*
X13240410Y4395622D01*
X13243102Y4390898D01*
X13243763Y4386935D01*
X13242899Y4383024D01*
X13241274Y4379417D01*
X13238988Y4376166D01*
X13235635Y4374032D01*
X13231723Y4373372D01*
X13227862Y4374235D01*
X13210743Y4381855D01*
X13203174Y4364736D01*
X13200888Y4361535D01*
X13197535Y4359402D01*
X13193623Y4358741D01*
X13189762Y4359605D01*
X13185089Y4361688D01*
X13181838Y4363974D01*
X13179755Y4367326D01*
X13179094Y4371238D01*
X13179958Y4375099D01*
X13187578Y4392168D01*
X13150392Y4408728D01*
X13144601Y4395724D01*
X13142671Y4389678D01*
X13142213Y4383938D01*
X13142772Y4379976D01*
X13142569Y4376216D01*
X13141045Y4372762D01*
X13138353Y4370070D01*
X13135051Y4367885D01*
X13131088Y4363669D01*
X13127837Y4358182D01*
X13105942Y4308957D01*
X13103707Y4301845D01*
X13101472Y4298035D01*
X13096443Y4292498D01*
X13088061Y4280966D01*
X13120979Y4257040D01*
X13125094Y4262678D01*
X13127532Y4265066D01*
X13130682Y4266488D01*
X13134086Y4266844D01*
X13137438Y4265980D01*
X13142163Y4263847D01*
X13145769Y4261154D01*
X13147852Y4257192D01*
X13148005Y4252722D01*
X13146278Y4248607D01*
X13141553Y4242104D01*
X13156692Y4231132D01*
X13159384Y4228185D01*
X13160756Y4224477D01*
X13160603Y4220514D01*
X13158927Y4216908D01*
X13155980Y4212793D01*
X13153034Y4210100D01*
X13149326Y4208729D01*
X13145363Y4208932D01*
X13141756Y4210558D01*
X13126618Y4221581D01*
X13115594Y4206443D01*
X13112699Y4203750D01*
X13108990Y4202379D01*
X13105028Y4202531D01*
X13101421Y4204208D01*
X13097306Y4207154D01*
X13094614Y4210100D01*
X13093242Y4213809D01*
X13093395Y4217771D01*
X13095071Y4221378D01*
X13106095Y4236516D01*
X13073126Y4260443D01*
X13064794Y4248912D01*
X13061645Y4243374D01*
X13059968Y4237837D01*
X13059714Y4233875D01*
X13058749Y4230217D01*
X13056514Y4227169D01*
X13053364Y4225137D01*
X13049656Y4223613D01*
X13044881Y4220362D01*
X13040613Y4215638D01*
X13008965Y4172051D01*
X13005257Y4165549D01*
X13002310Y4162298D01*
X12996214Y4157929D01*
X12985648Y4148429D01*
X13012877Y4118152D01*
X13018008Y4122775D01*
X13020954Y4124655D01*
X13024307Y4125417D01*
X13027710Y4125010D01*
X13030809Y4123486D01*
X13034975Y4120438D01*
X13037972Y4117035D01*
X13039191Y4112717D01*
X13038429Y4108297D01*
X13035838Y4104640D01*
X13029844Y4099306D01*
X13039496Y4088587D01*
X13041426Y4085437D01*
X13042138Y4081779D01*
X13042138Y4075988D01*
X13041223Y4071823D01*
X13037870Y4067606D01*
X13034467Y4065574D01*
X13030555Y4065015D01*
X13026694Y4065981D01*
X13023545Y4068368D01*
X13010997Y4082287D01*
X12997078Y4069740D01*
X12993674Y4067759D01*
X12989763Y4067149D01*
X12985902Y4068165D01*
X12982752Y4070502D01*
X12979349Y4074312D01*
X12977317Y4077715D01*
X12976758Y4081627D01*
X12977723Y4085437D01*
X12980060Y4088637D01*
X12993979Y4101185D01*
X12966750Y4131411D01*
X12956184Y4121912D01*
X12951968Y4117136D01*
X12949174Y4112056D01*
X12948107Y4108246D01*
X12946380Y4104843D01*
X12943586Y4102303D01*
X12940080Y4100982D01*
X12936118Y4100322D01*
X12930784Y4098086D01*
X12925602Y4094378D01*
X12885572Y4058310D01*
X12880594Y4052722D01*
X12877088Y4050131D01*
X12870180Y4047134D01*
X12857886Y4040022D01*
X12878206Y4004767D01*
X12884251Y4008272D01*
X12887452Y4009440D01*
X12890906Y4009491D01*
X12894157Y4008374D01*
X12896850Y4006240D01*
X12900355Y4002379D01*
X12902539Y3998468D01*
X12902844Y3993997D01*
X12901168Y3989832D01*
X12897866Y3986784D01*
X12890906Y3982770D01*
X12900304Y3966565D01*
X12901574Y3962806D01*
X12901320Y3958844D01*
X12899542Y3955287D01*
X12896596Y3952697D01*
X12892176Y3950157D01*
X12888417Y3948887D01*
X12884454Y3949141D01*
X12880898Y3950868D01*
X12878308Y3953865D01*
X12868910Y3970070D01*
X12852704Y3960723D01*
X12848945Y3959453D01*
X12845034Y3959707D01*
X12841478Y3961485D01*
X12838836Y3964432D01*
X12836296Y3968851D01*
X12835026Y3972610D01*
X12835280Y3976573D01*
X12837058Y3980129D01*
X12840004Y3982720D01*
X12856210Y3992067D01*
X12835890Y4027322D01*
X12823545Y4020210D01*
X12818414Y4016451D01*
X12814655Y4012082D01*
X12812776Y4008526D01*
X12810439Y4005579D01*
X12807188Y4003700D01*
X12803428Y4003141D01*
X12799466Y4003294D01*
X12793776Y4002227D01*
X12787934Y3999636D01*
X12741300Y3972712D01*
X12735255Y3968292D01*
X12731242Y3966514D01*
X12723926Y3964990D01*
X12710363Y3960571D01*
X12722961Y3921861D01*
X12729565Y3924046D01*
X12732969Y3924503D01*
X12736322Y3923842D01*
X12739268Y3922064D01*
X12741503Y3919423D01*
X12744094Y3914952D01*
X12745415Y3910634D01*
X12744754Y3906215D01*
X12742265Y3902506D01*
X12738404Y3900220D01*
X12730784Y3897731D01*
X12736576Y3879900D01*
X12737033Y3875989D01*
X12735966Y3872179D01*
X12733528Y3869029D01*
X12730073Y3867099D01*
X12725247Y3865524D01*
X12721285Y3865067D01*
X12717475Y3866134D01*
X12714376Y3868623D01*
X12712446Y3872077D01*
X12706654Y3889857D01*
X12688824Y3884066D01*
X12684912Y3883609D01*
X12681102Y3884676D01*
X12677952Y3887165D01*
X12676022Y3890619D01*
X12674447Y3895445D01*
X12673990Y3899357D01*
X12675057Y3903218D01*
X12677546Y3906316D01*
X12681000Y3908247D01*
X12698780Y3914038D01*
X12686233Y3952748D01*
X12672669Y3948328D01*
X12666878Y3945737D01*
X12662306Y3942232D01*
X12659715Y3939133D01*
X12656820Y3936746D01*
X12653213Y3935577D01*
X12649454Y3935831D01*
X12645593Y3936796D01*
X12639802Y3936898D01*
X12633553Y3935628D01*
X12582347Y3919016D01*
X12575540Y3915918D01*
X12571222Y3915003D01*
X12563754Y3915054D01*
X12549581Y3913530D01*
X12553848Y3873093D01*
X12560706Y3873804D01*
X12564160Y3873550D01*
X12567310Y3872229D01*
X12569850Y3869893D01*
X12571476Y3866845D01*
X12573050Y3861866D01*
X12573457Y3857447D01*
X12571933Y3853230D01*
X12568682Y3850081D01*
X12564465Y3848658D01*
X12556490Y3847795D01*
X12558471Y3829202D01*
X12558064Y3825240D01*
X12556236Y3821734D01*
X12553188Y3819194D01*
X12549428Y3818026D01*
X12544348Y3817467D01*
X12540386Y3817874D01*
X12536881Y3819702D01*
X12534341Y3822750D01*
X12533172Y3826510D01*
X12531242Y3845153D01*
X12512598Y3843172D01*
X12508687Y3843578D01*
X12505182Y3845407D01*
X12502642Y3848455D01*
X12501422Y3852214D01*
X12500914Y3857294D01*
X12501270Y3861257D01*
X12503099Y3864762D01*
X12506147Y3867302D01*
X12509957Y3868470D01*
X12528550Y3870401D01*
X12524333Y3910888D01*
X12510160Y3909415D01*
X12503962Y3908044D01*
X12498730Y3905554D01*
X12495580Y3903116D01*
X12492228Y3901389D01*
X12488468Y3900982D01*
X12484811Y3901998D01*
X12481255Y3903726D01*
X12475616Y3905046D01*
X12469266Y3905097D01*
X12415723Y3899458D01*
X12408357Y3897884D01*
X12403988Y3897884D01*
X12396673Y3899509D01*
X12382500Y3900982D01*
X12378283Y3860495D01*
X12385141Y3859784D01*
X12388494Y3858818D01*
X12391288Y3856837D01*
X12393269Y3854043D01*
X12394184Y3850741D01*
X12394742Y3845560D01*
X12394234Y3841089D01*
X12391847Y3837330D01*
X12388037Y3834892D01*
X12383566Y3834384D01*
X12375591Y3835247D01*
X12373914Y3818940D01*
X12372797Y3815283D01*
X12370358Y3812235D01*
X12367869Y3810152D01*
X12364313Y3808171D01*
G37*

%LPC*%
G36*
X12393980Y4295241D02*
G01*
X12421819Y4295241D01*
X12449556Y4297222D01*
X12477140Y4301083D01*
X12504318Y4306874D01*
X12531090Y4314545D01*
X12557201Y4324045D01*
X12582652Y4335373D01*
X12607188Y4348429D01*
X12630810Y4363161D01*
X12653314Y4379518D01*
X12674600Y4397400D01*
X12694615Y4416755D01*
X12713258Y4437430D01*
X12730378Y4459325D01*
X12745923Y4482388D01*
X12759842Y4506468D01*
X12772034Y4531512D01*
X12782448Y4557268D01*
X12791084Y4583734D01*
X12797790Y4610760D01*
X12802616Y4638141D01*
X12805562Y4665827D01*
X12806527Y4693615D01*
X12805562Y4721402D01*
X12802616Y4749088D01*
X12797790Y4776520D01*
X12791084Y4803495D01*
X12782448Y4829962D01*
X12772034Y4855768D01*
X12759842Y4880762D01*
X12745923Y4904841D01*
X12730378Y4927904D01*
X12713258Y4949850D01*
X12694615Y4970526D01*
X12674600Y4989830D01*
X12653314Y5007711D01*
X12630810Y5024069D01*
X12607188Y5038801D01*
X12582652Y5051907D01*
X12557201Y5063185D01*
X12531090Y5072735D01*
X12504318Y5080406D01*
X12477140Y5086146D01*
X12449556Y5090058D01*
X12421819Y5091988D01*
X12393980Y5091988D01*
X12366244Y5090058D01*
X12338710Y5086146D01*
X12311481Y5080406D01*
X12284710Y5072735D01*
X12258598Y5063185D01*
X12233148Y5051907D01*
X12208611Y5038801D01*
X12184989Y5024069D01*
X12162485Y5007711D01*
X12141200Y4989830D01*
X12121184Y4970526D01*
X12102541Y4949850D01*
X12085421Y4927904D01*
X12069876Y4904841D01*
X12055957Y4880762D01*
X12043765Y4855768D01*
X12033351Y4829962D01*
X12024766Y4803495D01*
X12018010Y4776520D01*
X12013184Y4749088D01*
X12010288Y4721402D01*
X12009323Y4693716D01*
X12010288Y4665827D01*
X12013184Y4638141D01*
X12018010Y4610760D01*
X12024766Y4583734D01*
X12033351Y4557268D01*
X12043765Y4531512D01*
X12055957Y4506468D01*
X12069876Y4482388D01*
X12085421Y4459325D01*
X12102541Y4437430D01*
X12121184Y4416755D01*
X12141200Y4397400D01*
X12162485Y4379518D01*
X12184989Y4363161D01*
X12208611Y4348429D01*
X12233148Y4335373D01*
X12258598Y4324045D01*
X12284710Y4314545D01*
X12311481Y4306874D01*
X12338710Y4301083D01*
X12366244Y4297222D01*
G37*

%LPD*%
D10*
X13716000Y9217152D02*
G01*
X13457174Y9219692D01*
X13716000Y6933775D02*
G01*
X13456991Y6933775D01*
X12745999Y11112500D02*
G01*
X12763500Y11112500D01*
X13716000Y10160000D01*
X13716000Y4648200D01*
X13450570Y4648200D01*
X12545999Y11112500D02*
G01*
X12745999Y11112500D01*
X12346000Y11112500D02*
G01*
X12545999Y11112500D01*
D11*
X13357118Y4654494D02*
G01*
X13450570Y4654494D01*
X13457105Y4661029D01*
X13346290Y4852527D02*
G01*
X13439754Y4852527D01*
X13446117Y4858890D01*
X13294525Y5043995D02*
G01*
X13400476Y5044503D01*
X13204085Y5220505D02*
G01*
X13207509Y5220505D01*
X13277494Y5290479D01*
X13078922Y5374350D02*
G01*
X13148845Y5445968D01*
X12924500Y5498812D02*
G01*
X12995925Y5571888D01*
X12747579Y5588457D02*
G01*
X12747579Y5692091D01*
X12750134Y5694659D01*
X12555890Y5639351D02*
G01*
X12557091Y5741342D01*
X12357811Y5649285D02*
G01*
X12359982Y5750897D01*
X12161979Y5617814D02*
G01*
X12161408Y5722650D01*
X11976986Y5546321D02*
G01*
X11979267Y5660522D01*
X11810893Y5437919D02*
G01*
X11739331Y5511632D01*
X11670969Y5297363D02*
G01*
X11597797Y5369984D01*
X11563329Y5130779D02*
G01*
X11487365Y5207073D01*
X11492674Y4945458D02*
G01*
X11386906Y4947089D01*
X11458691Y4749495D02*
G01*
X11358938Y4748509D01*
X11469519Y4551461D02*
G01*
X11368514Y4553122D01*
X11521287Y4359998D02*
G01*
X11415146Y4360054D01*
X11611724Y4183489D02*
G01*
X11611724Y4178863D01*
X11541577Y4108716D01*
X11736887Y4029638D02*
G01*
X11736887Y4026407D01*
X11667733Y3957246D01*
X11891309Y3905181D02*
G01*
X11819846Y3832113D01*
X12068230Y3815537D02*
G01*
X12066617Y3709007D01*
X12259919Y3764638D02*
G01*
X12258852Y3662629D01*
X12457998Y3754704D02*
G01*
X12459423Y3650312D01*
X12653830Y3786174D02*
G01*
X12654152Y3681288D01*
X12838823Y3857668D02*
G01*
X12839743Y3744912D01*
X13004916Y3966070D02*
G01*
X13004916Y3962598D01*
X13075747Y3891767D01*
X13144840Y4106626D02*
G01*
X13218325Y4034375D01*
X13252480Y4273214D02*
G01*
X13328916Y4197771D01*
X13323135Y4458530D02*
G01*
X13413364Y4458530D01*
X13418794Y4453110D01*
X13418794Y4418111D01*
X13262091Y4654499D02*
G01*
X13093705Y4654499D01*
D12*
X13357118Y4749520D02*
G01*
X13273862Y4832784D01*
X13253349Y4832784D01*
X13075523Y4029651D02*
G01*
X13075523Y4154926D01*
X13067957Y4162485D01*
X13291126Y4360024D02*
G01*
X13271505Y4409894D01*
X13230191Y4478294D01*
X13200687Y4183509D02*
G01*
X13195305Y4232094D01*
X13165675Y4311865D01*
X12921114Y3905186D02*
G01*
X12941305Y3965394D01*
X12941330Y4036689D01*
X12744193Y3815542D02*
G01*
X12776205Y3863794D01*
X12791310Y3939964D01*
X12552504Y3764638D02*
G01*
X12585705Y3800294D01*
X12624462Y3876550D01*
X12354313Y3754828D02*
G01*
X12407905Y3800294D01*
X12448039Y3849314D01*
X12158593Y3786174D02*
G01*
X12217405Y3812994D01*
X12269843Y3859138D01*
X11973600Y3857668D02*
G01*
X12039605Y3876494D01*
X12097585Y3905907D01*
X11807507Y3966057D02*
G01*
X11874505Y3965394D01*
X11938810Y3987464D01*
X11667571Y4106621D02*
G01*
X11734805Y4092394D01*
X11800464Y4100258D01*
X11559931Y4273196D02*
G01*
X11633205Y4244794D01*
X11688594Y4239343D01*
X11489263Y4458517D02*
G01*
X11544305Y4422594D01*
X11608089Y4398652D01*
X11458679Y4654481D02*
G01*
X11506205Y4613094D01*
X11562461Y4571217D01*
X11472905Y4852515D02*
G01*
X11506205Y4790894D01*
X11553705Y4749502D01*
X11524673Y5043977D02*
G01*
X11557005Y4968694D01*
X11585605Y4925707D01*
X11615110Y5220487D02*
G01*
X11620505Y5171894D01*
X11650121Y5092136D01*
X11740273Y5374345D02*
G01*
X11734805Y5311594D01*
X11747840Y5241516D01*
X12461496Y5649414D02*
G01*
X12407905Y5603694D01*
X12367770Y5554675D01*
X12657203Y5617827D02*
G01*
X12585705Y5578294D01*
X12545956Y5544858D01*
X12842209Y5546333D02*
G01*
X12776205Y5527494D01*
X12718211Y5498094D01*
X13008302Y5437944D02*
G01*
X12941305Y5438594D01*
X12876987Y5416537D01*
X13148226Y5297380D02*
G01*
X13081005Y5311594D01*
X13015335Y5303743D01*
X13255866Y5130800D02*
G01*
X13208005Y5146494D01*
X13127202Y5164658D01*
X13326534Y4945484D02*
G01*
X13271505Y4981394D01*
X13207720Y5005349D01*
X12263292Y5639358D02*
G01*
X12217405Y5578294D01*
X12191347Y5527451D01*
X12071604Y5588457D02*
G01*
X12052305Y5552894D01*
X12024486Y5464032D01*
X11894682Y5498812D02*
G01*
X11874505Y5451294D01*
X11874466Y5367312D01*
D11*
X13357113Y9213799D02*
G01*
X13450564Y9213799D01*
X13457100Y9220334D01*
X13346285Y9411832D02*
G01*
X13439749Y9411832D01*
X13446112Y9418190D01*
X13294520Y9603295D02*
G01*
X13400471Y9603808D01*
X13204080Y9779805D02*
G01*
X13207504Y9779805D01*
X13277489Y9849784D01*
X13078917Y9933655D02*
G01*
X13148840Y10005273D01*
X12924495Y10058118D02*
G01*
X12995920Y10131193D01*
X12747574Y10147762D02*
G01*
X12747574Y10251396D01*
X12750129Y10253959D01*
X12555885Y10198656D02*
G01*
X12557086Y10300647D01*
X12357806Y10208590D02*
G01*
X12359977Y10310202D01*
X12161974Y10177119D02*
G01*
X12161403Y10281955D01*
X11976981Y10105626D02*
G01*
X11979262Y10219822D01*
X11810888Y9997224D02*
G01*
X11739326Y10070937D01*
X11670964Y9856668D02*
G01*
X11597792Y9929289D01*
X11563324Y9690084D02*
G01*
X11487360Y9766378D01*
X11492669Y9504763D02*
G01*
X11386901Y9506389D01*
X11458686Y9308800D02*
G01*
X11358933Y9307809D01*
X11469514Y9110766D02*
G01*
X11368509Y9112422D01*
X11521282Y8919303D02*
G01*
X11415140Y8919359D01*
X11611719Y8742794D02*
G01*
X11611719Y8738163D01*
X11541572Y8668021D01*
X11736882Y8588943D02*
G01*
X11736882Y8585708D01*
X11667728Y8516551D01*
X11891304Y8464481D02*
G01*
X11819841Y8391418D01*
X12068225Y8374837D02*
G01*
X12066612Y8268312D01*
X12259914Y8323943D02*
G01*
X12258847Y8221934D01*
X12457993Y8314009D02*
G01*
X12459418Y8209617D01*
X12653825Y8345479D02*
G01*
X12654147Y8240588D01*
X12838818Y8416973D02*
G01*
X12839738Y8304217D01*
X13004911Y8525375D02*
G01*
X13004911Y8521903D01*
X13075742Y8451067D01*
X13144835Y8665931D02*
G01*
X13218320Y8593675D01*
X13252475Y8832514D02*
G01*
X13328911Y8757076D01*
X13323056Y9017711D02*
G01*
X13413234Y9017711D01*
X13418814Y9012379D01*
X13418814Y8977330D01*
D12*
X13357113Y9308818D02*
G01*
X13273857Y9392076D01*
X13253344Y9392076D01*
X13326529Y9504781D02*
G01*
X13307418Y9504781D01*
X13247550Y9564649D01*
X13207715Y9564649D01*
X13255873Y9690105D02*
G01*
X13177154Y9723955D01*
X13127210Y9723955D01*
X13008297Y9997241D02*
G01*
X12898399Y9997241D01*
X12876982Y9975829D01*
X13148307Y9856673D02*
G01*
X13081000Y9870899D01*
X13015219Y9863023D01*
X12842204Y10105633D02*
G01*
X12776200Y10086799D01*
X12718206Y10057394D01*
X12657211Y10177127D02*
G01*
X12598400Y10150299D01*
X12545951Y10104163D01*
X12461491Y10208465D02*
G01*
X12407900Y10162999D01*
X12367765Y10113980D01*
X12263300Y10198656D02*
G01*
X12217400Y10137599D01*
X12191342Y10086748D01*
X12071611Y10147757D02*
G01*
X12039600Y10086799D01*
X12024494Y10023330D01*
X11894690Y10058112D02*
G01*
X11874500Y9997899D01*
X11874474Y9926612D01*
X11740281Y9933642D02*
G01*
X11740281Y9808372D01*
X11747835Y9800813D01*
X11615165Y9779711D02*
G01*
X11620500Y9718499D01*
X11650215Y9651446D01*
X11524678Y9603275D02*
G01*
X11544300Y9553399D01*
X11585613Y9485007D01*
X11472913Y9411815D02*
G01*
X11506200Y9362899D01*
X11553700Y9308800D01*
X11458686Y9213781D02*
G01*
X11541942Y9130522D01*
X11562455Y9130522D01*
X11489270Y9017817D02*
G01*
X11544300Y8981899D01*
X11608084Y8957950D01*
X11973595Y8416965D02*
G01*
X12039600Y8435799D01*
X12097593Y8465205D01*
X11807502Y8525357D02*
G01*
X11874500Y8524699D01*
X11938817Y8546769D01*
X11667578Y8665918D02*
G01*
X11734800Y8651699D01*
X11800469Y8659555D01*
X11559926Y8832494D02*
G01*
X11607800Y8816799D01*
X11688589Y8798643D01*
X12744188Y8374842D02*
G01*
X12776200Y8435799D01*
X12791305Y8499269D01*
X12158588Y8345472D02*
G01*
X12217400Y8372299D01*
X12269848Y8418436D01*
X12354308Y8314133D02*
G01*
X12407900Y8359599D01*
X12448034Y8408619D01*
X12552499Y8323943D02*
G01*
X12598400Y8384999D01*
X12624457Y8435850D01*
X13291121Y8919324D02*
G01*
X13271500Y8981899D01*
X13230186Y9037591D01*
X13200682Y8742806D02*
G01*
X13195300Y8791399D01*
X13165670Y8871165D01*
X13075518Y8588956D02*
G01*
X13081000Y8651699D01*
X13067964Y8721785D01*
X12921109Y8464486D02*
G01*
X12921109Y8504501D01*
X12941338Y8524737D01*
X12941325Y8595987D01*
D11*
X13262099Y9213799D02*
G01*
X13093700Y9213799D01*
X13357004Y6927796D02*
G01*
X13450455Y6927796D01*
X13456991Y6934332D01*
X13346175Y7125830D02*
G01*
X13439640Y7125830D01*
X13446003Y7132193D01*
X13294410Y7317298D02*
G01*
X13400361Y7317806D01*
X13203971Y7493807D02*
G01*
X13207395Y7493807D01*
X13277380Y7563782D01*
X13078807Y7647652D02*
G01*
X13148731Y7719270D01*
X12924386Y7772115D02*
G01*
X12995810Y7845191D01*
X12747464Y7861759D02*
G01*
X12747464Y7965394D01*
X12750020Y7967962D01*
X12555776Y7912653D02*
G01*
X12556977Y8014644D01*
X12357696Y7922587D02*
G01*
X12359868Y8024200D01*
X12161865Y7891117D02*
G01*
X12161293Y7995953D01*
X11976872Y7819623D02*
G01*
X11979153Y7933824D01*
X11810779Y7711221D02*
G01*
X11739217Y7784934D01*
X11670855Y7570665D02*
G01*
X11597683Y7643286D01*
X11563215Y7404082D02*
G01*
X11487251Y7480376D01*
X11492560Y7218761D02*
G01*
X11386792Y7220391D01*
X11458577Y7022797D02*
G01*
X11358824Y7021812D01*
X11469405Y6824764D02*
G01*
X11368399Y6826425D01*
X11521173Y6633301D02*
G01*
X11415031Y6633357D01*
X11611609Y6456791D02*
G01*
X11611609Y6452166D01*
X11541462Y6382019D01*
X11736773Y6302941D02*
G01*
X11736773Y6299710D01*
X11667619Y6230548D01*
X11891195Y6178483D02*
G01*
X11819732Y6105415D01*
X12068116Y6088839D02*
G01*
X12066503Y5982309D01*
X12259805Y6037940D02*
G01*
X12258738Y5935931D01*
X12457884Y6028006D02*
G01*
X12459309Y5923615D01*
X12653716Y6059477D02*
G01*
X12654038Y5954590D01*
X12838709Y6130970D02*
G01*
X12839628Y6018215D01*
X13004802Y6239372D02*
G01*
X13004802Y6235900D01*
X13075632Y6165070D01*
X13144726Y6379928D02*
G01*
X13218210Y6307678D01*
X13252366Y6546517D02*
G01*
X13328802Y6471074D01*
X13323021Y6731833D02*
G01*
X13413249Y6731833D01*
X13418680Y6726412D01*
X13418680Y6691414D01*
X13261990Y6927796D02*
G01*
X13093590Y6927796D01*
D12*
X13357004Y7022823D02*
G01*
X13273747Y7106079D01*
X13253234Y7106079D01*
X13326419Y7218779D02*
G01*
X13271390Y7254697D01*
X13207606Y7278646D01*
X13255764Y7404102D02*
G01*
X13207890Y7419797D01*
X13127088Y7437953D01*
X13148111Y7570678D02*
G01*
X13093590Y7584897D01*
X13015221Y7577046D01*
X13008188Y7711239D02*
G01*
X12941190Y7711897D01*
X12876872Y7689832D01*
X12842095Y7819636D02*
G01*
X12776090Y7800797D01*
X12718097Y7771391D01*
X12657089Y7891129D02*
G01*
X12610990Y7864297D01*
X12545842Y7818160D01*
X12461382Y7922717D02*
G01*
X12420490Y7889697D01*
X12367656Y7827977D01*
X12263191Y7912661D02*
G01*
X12229990Y7876997D01*
X12191232Y7800754D01*
X11894581Y7772110D02*
G01*
X11874390Y7724597D01*
X11874352Y7640614D01*
X11740159Y7647647D02*
G01*
X11734690Y7584897D01*
X11747726Y7514810D01*
X11614995Y7493789D02*
G01*
X11620390Y7445197D01*
X11650019Y7365438D01*
X11524559Y7317280D02*
G01*
X11544190Y7267397D01*
X11585503Y7199005D01*
X11472804Y7125817D02*
G01*
X11506090Y7076897D01*
X11553591Y7022797D01*
X12071489Y7861754D02*
G01*
X12039490Y7813497D01*
X12024372Y7737335D01*
X11458564Y6927778D02*
G01*
X11541833Y6844520D01*
X11562346Y6844520D01*
X13291012Y6633321D02*
G01*
X13258690Y6708597D01*
X13230077Y6751596D01*
X13200573Y6456812D02*
G01*
X13195190Y6505397D01*
X13165561Y6585163D01*
X13075409Y6302954D02*
G01*
X13075409Y6428224D01*
X13067855Y6435788D01*
X12921000Y6178483D02*
G01*
X12941190Y6238697D01*
X12941216Y6309984D01*
X12744079Y6088839D02*
G01*
X12776090Y6149797D01*
X12791196Y6213266D01*
X12354199Y6028131D02*
G01*
X12420490Y6086297D01*
X12447925Y6122616D01*
X12158479Y6059477D02*
G01*
X12217290Y6086297D01*
X12269739Y6132441D01*
X11973486Y6130963D02*
G01*
X12039490Y6149797D01*
X12097471Y6179202D01*
X11807393Y6239360D02*
G01*
X11861690Y6238697D01*
X11938695Y6260767D01*
X11667456Y6379916D02*
G01*
X11721990Y6365697D01*
X11800359Y6373553D01*
X11559816Y6546499D02*
G01*
X11620390Y6518097D01*
X11688480Y6512646D01*
X11489161Y6731820D02*
G01*
X11544190Y6695897D01*
X11607975Y6671955D01*
X12552390Y6037940D02*
G01*
X12585590Y6073597D01*
X12624348Y6149853D01*
D13*
G01*
X13262102Y9308820D03*
G01*
X13262102Y9213799D03*
G01*
X13357123Y9213799D03*
G01*
X13357123Y9308820D03*
D14*
G01*
X13233587Y9485026D03*
G01*
X13253344Y9392088D03*
G01*
X13346291Y9411839D03*
G01*
X13326534Y9504782D03*
D15*
G01*
X13169066Y9651455D03*
D16*
G01*
X13207714Y9564655D03*
D15*
G01*
X13294525Y9603299D03*
G01*
X13255875Y9690103D03*
D17*
G01*
X13071353Y9800830D03*
G01*
X13127202Y9723962D03*
D18*
G01*
X13204080Y9779811D03*
G01*
X13148227Y9856683D03*
D19*
G01*
X12944717Y9926627D03*
G01*
X13015328Y9863051D03*
D20*
G01*
X13078914Y9933663D03*
D21*
G01*
X13008300Y9997243D03*
D22*
G01*
X12794695Y10023344D03*
G01*
X12876980Y9975837D03*
D23*
G01*
X12924496Y10058128D03*
D24*
G01*
X12842205Y10105636D03*
D25*
G01*
X12627842Y10086756D03*
G01*
X12718206Y10057396D03*
D26*
G01*
X12747575Y10147767D03*
D27*
G01*
X12657204Y10177128D03*
D28*
G01*
X12451452Y10114093D03*
G01*
X12545947Y10104161D03*
D29*
G01*
X12555884Y10198665D03*
D30*
G01*
X12461383Y10208595D03*
D31*
G01*
X12273229Y10104158D03*
G01*
X12367724Y10114092D03*
D32*
G01*
X12357795Y10208595D03*
D33*
G01*
X12263296Y10198660D03*
D34*
G01*
X12100970Y10057387D03*
G01*
X12191335Y10086750D03*
D35*
G01*
X12161975Y10177123D03*
G01*
X12071606Y10147758D03*
D36*
G01*
X11942198Y9975822D03*
D37*
G01*
X12024484Y10023331D03*
D38*
G01*
X11976976Y10105626D03*
G01*
X11894686Y10058114D03*
D39*
G01*
X11803856Y9863030D03*
D40*
G01*
X11874464Y9926608D03*
D41*
G01*
X11810884Y9997227D03*
G01*
X11740272Y9933645D03*
D42*
G01*
X11691985Y9723937D03*
D43*
G01*
X11747832Y9800808D03*
D44*
G01*
X11670959Y9856665D03*
D45*
G01*
X11615111Y9779791D03*
D46*
G01*
X11611477Y9564627D03*
G01*
X11650124Y9651429D03*
D47*
G01*
X11563316Y9690083D03*
D48*
G01*
X11524670Y9603276D03*
D49*
G01*
X11565854Y9392060D03*
G01*
X11585608Y9484998D03*
D50*
G01*
X11492661Y9504760D03*
D51*
G01*
X11472909Y9411816D03*
D52*
G01*
X13249945Y9130539D03*
G01*
X13230191Y9037600D03*
D53*
G01*
X13323138Y9017839D03*
D54*
G01*
X13342890Y9110783D03*
D55*
G01*
X13204322Y8957971D03*
G01*
X13165675Y8871169D03*
D56*
G01*
X13252483Y8832515D03*
D57*
G01*
X13291129Y8919323D03*
D58*
G01*
X13123814Y8798661D03*
D59*
G01*
X13067967Y8721791D03*
D60*
G01*
X13144840Y8665933D03*
D61*
G01*
X13200688Y8742808D03*
D62*
G01*
X13011943Y8659568D03*
D63*
G01*
X12941335Y8595991D03*
D64*
G01*
X13004915Y8525371D03*
G01*
X13075527Y8588954D03*
D65*
G01*
X12873601Y8546777D03*
D66*
G01*
X12791315Y8499267D03*
D67*
G01*
X12838823Y8416973D03*
G01*
X12921113Y8464485D03*
D68*
G01*
X12714829Y8465211D03*
G01*
X12624464Y8435849D03*
D69*
G01*
X12653824Y8345476D03*
G01*
X12744193Y8374841D03*
D70*
G01*
X12542570Y8418441D03*
G01*
X12448075Y8408507D03*
D71*
G01*
X12458004Y8314004D03*
D72*
G01*
X12552503Y8323939D03*
D73*
G01*
X12364347Y8408506D03*
G01*
X12269852Y8418437D03*
D74*
G01*
X12259915Y8323934D03*
D75*
G01*
X12354416Y8314004D03*
D76*
G01*
X12187957Y8435842D03*
G01*
X12097593Y8465202D03*
D77*
G01*
X12068224Y8374832D03*
D78*
G01*
X12158595Y8345470D03*
D79*
G01*
X12021104Y8499255D03*
G01*
X11938819Y8546762D03*
D80*
G01*
X11891303Y8464471D03*
D81*
G01*
X11973594Y8416963D03*
D82*
G01*
X11871082Y8595972D03*
G01*
X11800471Y8659548D03*
D83*
G01*
X11736885Y8588936D03*
D84*
G01*
X11807499Y8525356D03*
D85*
G01*
X11744446Y8721769D03*
G01*
X11688597Y8798637D03*
D86*
G01*
X11611719Y8742787D03*
G01*
X11667572Y8665916D03*
D87*
G01*
X11646733Y8871144D03*
D88*
G01*
X11608085Y8957943D03*
D87*
G01*
X11521274Y8919300D03*
G01*
X11559924Y8832495D03*
D89*
G01*
X11582212Y9037572D03*
G01*
X11562455Y9130511D03*
G01*
X11469508Y9110760D03*
G01*
X11489265Y9017816D03*
D13*
G01*
X11553697Y9213773D03*
G01*
X11553697Y9308795D03*
G01*
X11458676Y9308795D03*
G01*
X11458676Y9213773D03*
G01*
X11553596Y6927773D03*
G01*
X11553596Y7022795D03*
G01*
X11458575Y7022795D03*
G01*
X11458575Y6927773D03*
D89*
G01*
X11582100Y6751572D03*
G01*
X11562344Y6844511D03*
G01*
X11469396Y6824760D03*
G01*
X11489154Y6731816D03*
D87*
G01*
X11646621Y6585144D03*
D88*
G01*
X11607973Y6671943D03*
D87*
G01*
X11521163Y6633300D03*
G01*
X11559813Y6546495D03*
D85*
G01*
X11744335Y6435769D03*
G01*
X11688485Y6512637D03*
D86*
G01*
X11611607Y6456787D03*
G01*
X11667460Y6379916D03*
D82*
G01*
X11870970Y6309972D03*
G01*
X11800359Y6373548D03*
D83*
G01*
X11736773Y6302936D03*
D84*
G01*
X11807388Y6239356D03*
D79*
G01*
X12020993Y6213255D03*
G01*
X11938707Y6260762D03*
D80*
G01*
X11891191Y6178471D03*
D81*
G01*
X11973482Y6130963D03*
D76*
G01*
X12187845Y6149842D03*
G01*
X12097481Y6179202D03*
D77*
G01*
X12068112Y6088832D03*
D78*
G01*
X12158483Y6059470D03*
D73*
G01*
X12364236Y6122506D03*
G01*
X12269740Y6132437D03*
D74*
G01*
X12259804Y6037934D03*
D75*
G01*
X12354304Y6028004D03*
D70*
G01*
X12542459Y6132441D03*
G01*
X12447963Y6122507D03*
D71*
G01*
X12457892Y6028004D03*
D72*
G01*
X12552391Y6037939D03*
D68*
G01*
X12714718Y6179211D03*
G01*
X12624352Y6149849D03*
D69*
G01*
X12653712Y6059476D03*
G01*
X12744081Y6088841D03*
D65*
G01*
X12873489Y6260777D03*
D66*
G01*
X12791203Y6213267D03*
D67*
G01*
X12838711Y6130973D03*
G01*
X12921001Y6178485D03*
D62*
G01*
X13011831Y6373568D03*
D63*
G01*
X12941223Y6309991D03*
D64*
G01*
X13004803Y6239371D03*
G01*
X13075415Y6302954D03*
D58*
G01*
X13123702Y6512661D03*
D59*
G01*
X13067855Y6435791D03*
D60*
G01*
X13144728Y6379933D03*
D61*
G01*
X13200576Y6456808D03*
D55*
G01*
X13204210Y6671971D03*
G01*
X13165564Y6585169D03*
D56*
G01*
X13252371Y6546515D03*
D57*
G01*
X13291017Y6633323D03*
D52*
G01*
X13249833Y6844539D03*
G01*
X13230080Y6751600D03*
D53*
G01*
X13323026Y6731839D03*
D54*
G01*
X13342778Y6824783D03*
D90*
G01*
X11565742Y7106060D03*
G01*
X11585496Y7198998D03*
D50*
G01*
X11492550Y7218760D03*
G01*
X11472796Y7125816D03*
D46*
G01*
X11611366Y7278627D03*
D91*
G01*
X11650009Y7365429D03*
D92*
G01*
X11563205Y7404083D03*
D48*
G01*
X11524557Y7317276D03*
D93*
G01*
X11691874Y7437939D03*
D42*
G01*
X11747720Y7514808D03*
D44*
G01*
X11670847Y7570665D03*
G01*
X11614998Y7493791D03*
D94*
G01*
X11803743Y7577032D03*
G01*
X11874351Y7640610D03*
D41*
G01*
X11810772Y7711229D03*
G01*
X11740159Y7647646D03*
D95*
G01*
X11942086Y7689823D03*
G01*
X12024371Y7737331D03*
G01*
X11976864Y7819626D03*
D38*
G01*
X11894574Y7772114D03*
D96*
G01*
X12100858Y7771387D03*
D97*
G01*
X12191221Y7800750D03*
D34*
G01*
X12161864Y7891123D03*
D35*
G01*
X12071494Y7861759D03*
D31*
G01*
X12273117Y7818158D03*
D98*
G01*
X12367610Y7828092D03*
D99*
G01*
X12357684Y7922595D03*
D33*
G01*
X12263183Y7912660D03*
D28*
G01*
X12451340Y7828093D03*
G01*
X12545833Y7818163D03*
D30*
G01*
X12555772Y7912665D03*
G01*
X12461271Y7922595D03*
D25*
G01*
X12627729Y7800756D03*
G01*
X12718094Y7771396D03*
D27*
G01*
X12747462Y7861767D03*
D26*
G01*
X12657093Y7891128D03*
D100*
G01*
X12794581Y7737344D03*
G01*
X12876867Y7689838D03*
D23*
G01*
X12924383Y7772128D03*
G01*
X12842093Y7819636D03*
D19*
G01*
X12944605Y7640627D03*
G01*
X13015215Y7577051D03*
D21*
G01*
X13078801Y7647663D03*
G01*
X13008187Y7711243D03*
D18*
G01*
X13071240Y7514831D03*
D101*
G01*
X13127089Y7437963D03*
D17*
G01*
X13203967Y7493811D03*
D101*
G01*
X13148114Y7570684D03*
D15*
G01*
X13168955Y7365455D03*
G01*
X13207602Y7278655D03*
G01*
X13294412Y7317299D03*
G01*
X13255762Y7404103D03*
D102*
G01*
X13233476Y7199029D03*
D103*
G01*
X13253231Y7106088D03*
D104*
G01*
X13346177Y7125839D03*
D102*
G01*
X13326419Y7218785D03*
D13*
G01*
X13261975Y7022820D03*
G01*
X13261975Y6927799D03*
G01*
X13357021Y6927799D03*
G01*
X13356996Y7022820D03*
G01*
X13262102Y4749520D03*
G01*
X13262102Y4654499D03*
G01*
X13357123Y4654499D03*
G01*
X13357123Y4749520D03*
D102*
G01*
X13233587Y4925729D03*
D103*
G01*
X13253342Y4832788D03*
D104*
G01*
X13346289Y4852539D03*
D102*
G01*
X13326531Y4945485D03*
D15*
G01*
X13169066Y5092155D03*
G01*
X13207714Y5005355D03*
G01*
X13294523Y5043999D03*
G01*
X13255873Y5130803D03*
D18*
G01*
X13071351Y5241531D03*
D101*
G01*
X13127201Y5164663D03*
D17*
G01*
X13204079Y5220511D03*
D101*
G01*
X13148226Y5297384D03*
D19*
G01*
X12944717Y5367327D03*
G01*
X13015327Y5303751D03*
D21*
G01*
X13078913Y5374363D03*
G01*
X13008298Y5437943D03*
D100*
G01*
X12794693Y5464044D03*
G01*
X12876979Y5416538D03*
D23*
G01*
X12924495Y5498828D03*
G01*
X12842205Y5546336D03*
D25*
G01*
X12627841Y5527456D03*
G01*
X12718206Y5498096D03*
D27*
G01*
X12747574Y5588467D03*
D26*
G01*
X12657204Y5617828D03*
D28*
G01*
X12451452Y5554793D03*
G01*
X12545945Y5544863D03*
D30*
G01*
X12555884Y5639365D03*
G01*
X12461383Y5649295D03*
D31*
G01*
X12273229Y5544858D03*
D98*
G01*
X12367722Y5554792D03*
D99*
G01*
X12357795Y5649295D03*
D33*
G01*
X12263295Y5639360D03*
D96*
G01*
X12100970Y5498087D03*
D97*
G01*
X12191333Y5527450D03*
D34*
G01*
X12161975Y5617823D03*
D35*
G01*
X12071606Y5588459D03*
D95*
G01*
X11942198Y5416523D03*
G01*
X12024483Y5464031D03*
G01*
X11976976Y5546326D03*
D38*
G01*
X11894686Y5498814D03*
D94*
G01*
X11803854Y5303732D03*
G01*
X11874463Y5367310D03*
D41*
G01*
X11810884Y5437929D03*
G01*
X11740271Y5374346D03*
D93*
G01*
X11691985Y5164639D03*
D42*
G01*
X11747832Y5241508D03*
D44*
G01*
X11670959Y5297365D03*
G01*
X11615110Y5220491D03*
D46*
G01*
X11611477Y5005327D03*
D91*
G01*
X11650121Y5092129D03*
D92*
G01*
X11563316Y5130783D03*
D48*
G01*
X11524669Y5043976D03*
D90*
G01*
X11565854Y4832760D03*
G01*
X11585608Y4925698D03*
D50*
G01*
X11492661Y4945460D03*
G01*
X11472908Y4852516D03*
D52*
G01*
X13249945Y4571239D03*
G01*
X13230191Y4478300D03*
D53*
G01*
X13323138Y4458539D03*
D54*
G01*
X13342890Y4551483D03*
D55*
G01*
X13204322Y4398671D03*
G01*
X13165675Y4311869D03*
D56*
G01*
X13252483Y4273215D03*
D57*
G01*
X13291129Y4360023D03*
D58*
G01*
X13123814Y4239361D03*
D59*
G01*
X13067967Y4162491D03*
D60*
G01*
X13144840Y4106633D03*
D61*
G01*
X13200688Y4183508D03*
D62*
G01*
X13011943Y4100268D03*
D63*
G01*
X12941335Y4036691D03*
D64*
G01*
X13004915Y3966071D03*
G01*
X13075527Y4029654D03*
D65*
G01*
X12873601Y3987477D03*
D66*
G01*
X12791315Y3939967D03*
D67*
G01*
X12838823Y3857673D03*
G01*
X12921113Y3905185D03*
D68*
G01*
X12714829Y3905911D03*
G01*
X12624464Y3876549D03*
D69*
G01*
X12653824Y3786176D03*
G01*
X12744193Y3815541D03*
D70*
G01*
X12542570Y3859141D03*
G01*
X12448075Y3849207D03*
D71*
G01*
X12458004Y3754704D03*
D72*
G01*
X12552503Y3764639D03*
D73*
G01*
X12364347Y3849206D03*
G01*
X12269852Y3859137D03*
D74*
G01*
X12259915Y3764634D03*
D75*
G01*
X12354416Y3754704D03*
D76*
G01*
X12187957Y3876542D03*
G01*
X12097593Y3905902D03*
D77*
G01*
X12068224Y3815532D03*
D78*
G01*
X12158595Y3786170D03*
D79*
G01*
X12021104Y3939955D03*
G01*
X11938819Y3987462D03*
D80*
G01*
X11891303Y3905171D03*
D81*
G01*
X11973594Y3857663D03*
D82*
G01*
X11871082Y4036672D03*
G01*
X11800471Y4100248D03*
D83*
G01*
X11736885Y4029636D03*
D84*
G01*
X11807499Y3966056D03*
D85*
G01*
X11744446Y4162469D03*
G01*
X11688597Y4239337D03*
D86*
G01*
X11611719Y4183487D03*
G01*
X11667572Y4106616D03*
D87*
G01*
X11646733Y4311844D03*
D88*
G01*
X11608085Y4398643D03*
D87*
G01*
X11521274Y4360000D03*
G01*
X11559924Y4273195D03*
D89*
G01*
X11582212Y4478272D03*
G01*
X11562455Y4571211D03*
G01*
X11469508Y4551460D03*
G01*
X11489265Y4458516D03*
D13*
G01*
X11553697Y4654473D03*
G01*
X11553697Y4749495D03*
G01*
X11458676Y4749495D03*
G01*
X11458676Y4654473D03*
D105*
G75*
G01
X13457911Y4701997D02*
G03X13457911Y4701997I-1050011J0D01*
G75*
G01
X13457809Y6975297D02*
G03X13457809Y6975297I-1050011J0D01*
G75*
G01
X13457911Y9261297D02*
G03X13457911Y9261297I-1050011J0D01*
D106*
G01*
X12745999Y11112500D03*
G01*
X12545999Y11112500D03*
G01*
X12346000Y11112500D03*
D107*
G01*
X12146000Y11112500D03*
D106*
G01*
X12745999Y2463800D03*
G01*
X12545999Y2463800D03*
G01*
X12346000Y2463800D03*
D107*
G01*
X12146000Y2463800D03*
D108*
G01*
X13093700Y9213799D03*
G01*
X13106400Y6927799D03*
G01*
X13093700Y4654499D03*
G01*
X13093700Y4838700D03*
G01*
X12776200Y4305300D03*
G01*
X12026900Y4305300D03*
G01*
X12026900Y5067300D03*
G01*
X12776200Y5067300D03*
G01*
X13106400Y7112000D03*
G01*
X13093700Y9398000D03*
G01*
X12788900Y7340600D03*
G01*
X12039600Y7340600D03*
G01*
X12776200Y9626600D03*
G01*
X12026900Y9626600D03*
G01*
X12039600Y6578600D03*
G01*
X12788900Y6578600D03*
G01*
X12026900Y8864600D03*
G01*
X12776200Y8864600D03*
M02*
