M48
METRIC,LZ,000.000
;FILE_FORMAT=3:3
;TYPE=PLATED
;Layer: PTH_Through_Via
;EasyEDA v6.5.29, 2023-07-18 10:00:19
;65aec9abdb6f4e73b05af1f89c23e90b,5a6b42c53f6a479593ecc07194224c93,10
;Gerber Generator version 0.2
;Holesize 1 = 0.305 mm
T01C0.305
%
G05
G90
T01
X060071Y036449
X027518Y058674
X019431Y091694
X020066Y089154
X014351Y086614
X033528Y078994
X039243Y081534
X038628Y084074
X053213Y073914
X052578Y071374
X044323Y038608
X071755Y038608
X044323Y063754
X044958Y039243
X076835Y039243
X044958Y066294
X045593Y039878
X075057Y039878
X045593Y068834
X041656Y096774
X042291Y094234
X042303Y014859
X060071Y042926
X084709Y042926
X085344Y044450
X041021Y076454
X041021Y042926
X045593Y111379
X075057Y111379
X044958Y112014
X076835Y112014
X044323Y112649
X071755Y112649
X043688Y107061
X041656Y034036
X043688Y099314
X046568Y056134
X051943Y046000
X051943Y053594
X065618Y044450
X008468Y027051
X008468Y044450
X008468Y025019
X008468Y061214
X011430Y044450
X030480Y044450
X011430Y027051
X011430Y025019
X030480Y025019
X030480Y027051
X049530Y027051
X049530Y025019
X068580Y025019
X068580Y027051
X049530Y044450
X046568Y044450
X027518Y044450
X027518Y025019
X027518Y027051
X046568Y027051
X046568Y025019
X065618Y027051
X065618Y025019
M30
