G04 Layer: TopSilkscreenLayer*
G04 EasyEDA v6.5.29, 2023-07-16 15:11:24*
G04 059a78b381184c078b0ffcdb84c62da3,5a6b42c53f6a479593ecc07194224c93,10*
G04 Gerber Generator version 0.2*
G04 Scale: 100 percent, Rotated: No, Reflected: No *
G04 Dimensions in millimeters *
G04 leading zeros omitted , absolute positions ,4 integer and 5 decimal *
%FSLAX45Y45*%
%MOMM*%

%ADD10C,0.2032*%

%LPD*%
D10*
X4889500Y11576558D02*
G01*
X4889500Y11462004D01*
X4889500Y11576558D02*
G01*
X4933188Y11462004D01*
X4976875Y11576558D02*
G01*
X4933188Y11462004D01*
X4976875Y11576558D02*
G01*
X4976875Y11462004D01*
X5110988Y11598402D02*
G01*
X5012690Y11423650D01*
X5147056Y11576558D02*
G01*
X5147056Y11462004D01*
X5147056Y11576558D02*
G01*
X5217922Y11576558D01*
X5147056Y11521947D02*
G01*
X5190490Y11521947D01*
X5147056Y11462004D02*
G01*
X5217922Y11462004D01*
X5414263Y11560047D02*
G01*
X5403341Y11570970D01*
X5386831Y11576558D01*
X5365241Y11576558D01*
X5348731Y11570970D01*
X5337809Y11560047D01*
X5337809Y11549126D01*
X5343397Y11538204D01*
X5348731Y11532870D01*
X5359654Y11527281D01*
X5392420Y11516613D01*
X5403341Y11511026D01*
X5408675Y11505692D01*
X5414263Y11494770D01*
X5414263Y11478260D01*
X5403341Y11467337D01*
X5386831Y11462004D01*
X5365241Y11462004D01*
X5348731Y11467337D01*
X5337809Y11478260D01*
X5482843Y11576558D02*
G01*
X5471922Y11570970D01*
X5461254Y11560047D01*
X5455665Y11549126D01*
X5450331Y11532870D01*
X5450331Y11505692D01*
X5455665Y11489181D01*
X5461254Y11478260D01*
X5471922Y11467337D01*
X5482843Y11462004D01*
X5504688Y11462004D01*
X5515609Y11467337D01*
X5526531Y11478260D01*
X5532120Y11489181D01*
X5537454Y11505692D01*
X5537454Y11532870D01*
X5532120Y11549126D01*
X5526531Y11560047D01*
X5515609Y11570970D01*
X5504688Y11576558D01*
X5482843Y11576558D01*
X5573522Y11576558D02*
G01*
X5573522Y11494770D01*
X5578856Y11478260D01*
X5589777Y11467337D01*
X5606288Y11462004D01*
X5617209Y11462004D01*
X5633465Y11467337D01*
X5644388Y11478260D01*
X5649975Y11494770D01*
X5649975Y11576558D01*
X5685790Y11576558D02*
G01*
X5685790Y11462004D01*
X5685790Y11576558D02*
G01*
X5735065Y11576558D01*
X5751322Y11570970D01*
X5756656Y11565636D01*
X5762243Y11554713D01*
X5762243Y11543792D01*
X5756656Y11532870D01*
X5751322Y11527281D01*
X5735065Y11521947D01*
X5685790Y11521947D01*
X5724143Y11521947D02*
G01*
X5762243Y11462004D01*
X5880100Y11549126D02*
G01*
X5874511Y11560047D01*
X5863590Y11570970D01*
X5852668Y11576558D01*
X5831077Y11576558D01*
X5820156Y11570970D01*
X5809234Y11560047D01*
X5803645Y11549126D01*
X5798311Y11532870D01*
X5798311Y11505692D01*
X5803645Y11489181D01*
X5809234Y11478260D01*
X5820156Y11467337D01*
X5831077Y11462004D01*
X5852668Y11462004D01*
X5863590Y11467337D01*
X5874511Y11478260D01*
X5880100Y11489181D01*
X5916168Y11576558D02*
G01*
X5916168Y11462004D01*
X5916168Y11576558D02*
G01*
X5987034Y11576558D01*
X5916168Y11521947D02*
G01*
X5959602Y11521947D01*
X5916168Y11462004D02*
G01*
X5987034Y11462004D01*
X6106922Y11576558D02*
G01*
X6106922Y11462004D01*
X6106922Y11576558D02*
G01*
X6150609Y11462004D01*
X6194297Y11576558D02*
G01*
X6150609Y11462004D01*
X6194297Y11576558D02*
G01*
X6194297Y11462004D01*
X6230111Y11576558D02*
G01*
X6230111Y11462004D01*
X6230111Y11576558D02*
G01*
X6301231Y11576558D01*
X6230111Y11521947D02*
G01*
X6273800Y11521947D01*
X6230111Y11462004D02*
G01*
X6301231Y11462004D01*
X6375400Y11576558D02*
G01*
X6375400Y11462004D01*
X6337045Y11576558D02*
G01*
X6413500Y11576558D01*
X6449568Y11576558D02*
G01*
X6449568Y11462004D01*
X6449568Y11576558D02*
G01*
X6520434Y11576558D01*
X6449568Y11521947D02*
G01*
X6493256Y11521947D01*
X6449568Y11462004D02*
G01*
X6520434Y11462004D01*
X6556502Y11576558D02*
G01*
X6556502Y11462004D01*
X6556502Y11576558D02*
G01*
X6605524Y11576558D01*
X6621779Y11570970D01*
X6627368Y11565636D01*
X6632702Y11554713D01*
X6632702Y11543792D01*
X6627368Y11532870D01*
X6621779Y11527281D01*
X6605524Y11521947D01*
X6556502Y11521947D01*
X6594602Y11521947D02*
G01*
X6632702Y11462004D01*
X6745224Y11560047D02*
G01*
X6734302Y11570970D01*
X6717791Y11576558D01*
X6695947Y11576558D01*
X6679691Y11570970D01*
X6668770Y11560047D01*
X6668770Y11549126D01*
X6674104Y11538204D01*
X6679691Y11532870D01*
X6690613Y11527281D01*
X6723379Y11516613D01*
X6734302Y11511026D01*
X6739636Y11505692D01*
X6745224Y11494770D01*
X6745224Y11478260D01*
X6734302Y11467337D01*
X6717791Y11462004D01*
X6695947Y11462004D01*
X6679691Y11467337D01*
X6668770Y11478260D01*
X6865111Y11576558D02*
G01*
X6865111Y11462004D01*
X6865111Y11462004D02*
G01*
X6930643Y11462004D01*
X6966711Y11576558D02*
G01*
X6966711Y11462004D01*
X6966711Y11576558D02*
G01*
X7037577Y11576558D01*
X6966711Y11521947D02*
G01*
X7010145Y11521947D01*
X6966711Y11462004D02*
G01*
X7037577Y11462004D01*
X7073391Y11576558D02*
G01*
X7073391Y11462004D01*
X7073391Y11576558D02*
G01*
X7111745Y11576558D01*
X7128002Y11570970D01*
X7138924Y11560047D01*
X7144511Y11549126D01*
X7149845Y11532870D01*
X7149845Y11505692D01*
X7144511Y11489181D01*
X7138924Y11478260D01*
X7128002Y11467337D01*
X7111745Y11462004D01*
X7073391Y11462004D01*
X7346188Y11560047D02*
G01*
X7335265Y11570970D01*
X7319009Y11576558D01*
X7297165Y11576558D01*
X7280656Y11570970D01*
X7269734Y11560047D01*
X7269734Y11549126D01*
X7275322Y11538204D01*
X7280656Y11532870D01*
X7291577Y11527281D01*
X7324343Y11516613D01*
X7335265Y11511026D01*
X7340854Y11505692D01*
X7346188Y11494770D01*
X7346188Y11478260D01*
X7335265Y11467337D01*
X7319009Y11462004D01*
X7297165Y11462004D01*
X7280656Y11467337D01*
X7269734Y11478260D01*
X7382256Y11576558D02*
G01*
X7382256Y11462004D01*
X7382256Y11576558D02*
G01*
X7431277Y11576558D01*
X7447788Y11570970D01*
X7453122Y11565636D01*
X7458709Y11554713D01*
X7458709Y11538204D01*
X7453122Y11527281D01*
X7447788Y11521947D01*
X7431277Y11516613D01*
X7382256Y11516613D01*
X7538211Y11576558D02*
G01*
X7494524Y11462004D01*
X7538211Y11576558D02*
G01*
X7581900Y11462004D01*
X7511034Y11500104D02*
G01*
X7565390Y11500104D01*
X7699756Y11549126D02*
G01*
X7694168Y11560047D01*
X7683245Y11570970D01*
X7672324Y11576558D01*
X7650479Y11576558D01*
X7639558Y11570970D01*
X7628890Y11560047D01*
X7623302Y11549126D01*
X7617968Y11532870D01*
X7617968Y11505692D01*
X7623302Y11489181D01*
X7628890Y11478260D01*
X7639558Y11467337D01*
X7650479Y11462004D01*
X7672324Y11462004D01*
X7683245Y11467337D01*
X7694168Y11478260D01*
X7699756Y11489181D01*
X7735570Y11576558D02*
G01*
X7735570Y11462004D01*
X7735570Y11576558D02*
G01*
X7806690Y11576558D01*
X7735570Y11521947D02*
G01*
X7779258Y11521947D01*
X7735570Y11462004D02*
G01*
X7806690Y11462004D01*
X7842504Y11576558D02*
G01*
X7842504Y11462004D01*
X7842504Y11576558D02*
G01*
X7891779Y11576558D01*
X7908036Y11570970D01*
X7913370Y11565636D01*
X7918958Y11554713D01*
X7918958Y11543792D01*
X7913370Y11532870D01*
X7908036Y11527281D01*
X7891779Y11521947D01*
X7842504Y11521947D01*
X7880858Y11521947D02*
G01*
X7918958Y11462004D01*
X8038845Y11511026D02*
G01*
X8137143Y11511026D01*
X8257031Y11576558D02*
G01*
X8257031Y11462004D01*
X8257031Y11576558D02*
G01*
X8328152Y11576558D01*
X8257031Y11521947D02*
G01*
X8300720Y11521947D01*
X8363965Y11576558D02*
G01*
X8363965Y11462004D01*
X8363965Y11576558D02*
G01*
X8413241Y11576558D01*
X8429497Y11570970D01*
X8434831Y11565636D01*
X8440420Y11554713D01*
X8440420Y11543792D01*
X8434831Y11532870D01*
X8429497Y11527281D01*
X8413241Y11521947D01*
X8363965Y11521947D01*
X8402320Y11521947D02*
G01*
X8440420Y11462004D01*
X8509254Y11576558D02*
G01*
X8498331Y11570970D01*
X8487409Y11560047D01*
X8481822Y11549126D01*
X8476488Y11532870D01*
X8476488Y11505692D01*
X8481822Y11489181D01*
X8487409Y11478260D01*
X8498331Y11467337D01*
X8509254Y11462004D01*
X8530843Y11462004D01*
X8541765Y11467337D01*
X8552688Y11478260D01*
X8558275Y11489181D01*
X8563609Y11505692D01*
X8563609Y11532870D01*
X8558275Y11549126D01*
X8552688Y11560047D01*
X8541765Y11570970D01*
X8530843Y11576558D01*
X8509254Y11576558D01*
X8599677Y11576558D02*
G01*
X8599677Y11462004D01*
X8599677Y11576558D02*
G01*
X8676131Y11462004D01*
X8676131Y11576558D02*
G01*
X8676131Y11462004D01*
X8750300Y11576558D02*
G01*
X8750300Y11462004D01*
X8711945Y11576558D02*
G01*
X8788400Y11576558D01*
X5651500Y11386058D02*
G01*
X5651500Y11271504D01*
X5651500Y11386058D02*
G01*
X5700522Y11386058D01*
X5717031Y11380470D01*
X5722365Y11375136D01*
X5727954Y11364213D01*
X5727954Y11347704D01*
X5722365Y11336781D01*
X5717031Y11331447D01*
X5700522Y11326113D01*
X5651500Y11326113D01*
X5807456Y11386058D02*
G01*
X5763768Y11271504D01*
X5807456Y11386058D02*
G01*
X5851143Y11271504D01*
X5780277Y11309604D02*
G01*
X5834888Y11309604D01*
X5887211Y11386058D02*
G01*
X5887211Y11271504D01*
X5887211Y11386058D02*
G01*
X5936234Y11386058D01*
X5952490Y11380470D01*
X5958077Y11375136D01*
X5963411Y11364213D01*
X5963411Y11353292D01*
X5958077Y11342370D01*
X5952490Y11336781D01*
X5936234Y11331447D01*
X5887211Y11331447D01*
X5925311Y11331447D02*
G01*
X5963411Y11271504D01*
X6037579Y11386058D02*
G01*
X6037579Y11271504D01*
X5999479Y11386058D02*
G01*
X6075934Y11386058D01*
X6195822Y11386058D02*
G01*
X6195822Y11271504D01*
X6195822Y11386058D02*
G01*
X6272275Y11271504D01*
X6272275Y11386058D02*
G01*
X6272275Y11271504D01*
X6308343Y11386058D02*
G01*
X6308343Y11304270D01*
X6313677Y11287760D01*
X6324600Y11276837D01*
X6340856Y11271504D01*
X6351777Y11271504D01*
X6368288Y11276837D01*
X6379209Y11287760D01*
X6384543Y11304270D01*
X6384543Y11386058D01*
X6420611Y11386058D02*
G01*
X6420611Y11271504D01*
X6420611Y11386058D02*
G01*
X6464300Y11271504D01*
X6507988Y11386058D02*
G01*
X6464300Y11271504D01*
X6507988Y11386058D02*
G01*
X6507988Y11271504D01*
X6543802Y11386058D02*
G01*
X6543802Y11271504D01*
X6543802Y11386058D02*
G01*
X6593077Y11386058D01*
X6609334Y11380470D01*
X6614668Y11375136D01*
X6620256Y11364213D01*
X6620256Y11353292D01*
X6614668Y11342370D01*
X6609334Y11336781D01*
X6593077Y11331447D01*
X6543802Y11331447D02*
G01*
X6593077Y11331447D01*
X6609334Y11326113D01*
X6614668Y11320526D01*
X6620256Y11309604D01*
X6620256Y11293347D01*
X6614668Y11282426D01*
X6609334Y11276837D01*
X6593077Y11271504D01*
X6543802Y11271504D01*
X6656324Y11386058D02*
G01*
X6656324Y11271504D01*
X6656324Y11386058D02*
G01*
X6727190Y11386058D01*
X6656324Y11331447D02*
G01*
X6699758Y11331447D01*
X6656324Y11271504D02*
G01*
X6727190Y11271504D01*
X6763258Y11386058D02*
G01*
X6763258Y11271504D01*
X6763258Y11386058D02*
G01*
X6812279Y11386058D01*
X6828536Y11380470D01*
X6834124Y11375136D01*
X6839458Y11364213D01*
X6839458Y11353292D01*
X6834124Y11342370D01*
X6828536Y11336781D01*
X6812279Y11331447D01*
X6763258Y11331447D01*
X6801358Y11331447D02*
G01*
X6839458Y11271504D01*
X6964934Y11358626D02*
G01*
X6964934Y11364213D01*
X6970522Y11375136D01*
X6975856Y11380470D01*
X6986777Y11386058D01*
X7008622Y11386058D01*
X7019543Y11380470D01*
X7024877Y11375136D01*
X7030465Y11364213D01*
X7030465Y11353292D01*
X7024877Y11342370D01*
X7013956Y11326113D01*
X6959600Y11271504D01*
X7035800Y11271504D01*
X7099045Y11386058D02*
G01*
X7082790Y11380470D01*
X7077202Y11369547D01*
X7077202Y11358626D01*
X7082790Y11347704D01*
X7093711Y11342370D01*
X7115556Y11336781D01*
X7131811Y11331447D01*
X7142734Y11320526D01*
X7148322Y11309604D01*
X7148322Y11293347D01*
X7142734Y11282426D01*
X7137400Y11276837D01*
X7120890Y11271504D01*
X7099045Y11271504D01*
X7082790Y11276837D01*
X7077202Y11282426D01*
X7071868Y11293347D01*
X7071868Y11309604D01*
X7077202Y11320526D01*
X7088124Y11331447D01*
X7104634Y11336781D01*
X7126477Y11342370D01*
X7137400Y11347704D01*
X7142734Y11358626D01*
X7142734Y11369547D01*
X7137400Y11380470D01*
X7120890Y11386058D01*
X7099045Y11386058D01*
X7249668Y11386058D02*
G01*
X7195058Y11386058D01*
X7189724Y11336781D01*
X7195058Y11342370D01*
X7211568Y11347704D01*
X7227824Y11347704D01*
X7244334Y11342370D01*
X7255256Y11331447D01*
X7260590Y11315192D01*
X7260590Y11304270D01*
X7255256Y11287760D01*
X7244334Y11276837D01*
X7227824Y11271504D01*
X7211568Y11271504D01*
X7195058Y11276837D01*
X7189724Y11282426D01*
X7184136Y11293347D01*
X7329424Y11386058D02*
G01*
X7312913Y11380470D01*
X7301991Y11364213D01*
X7296658Y11336781D01*
X7296658Y11320526D01*
X7301991Y11293347D01*
X7312913Y11276837D01*
X7329424Y11271504D01*
X7340345Y11271504D01*
X7356602Y11276837D01*
X7367524Y11293347D01*
X7372858Y11320526D01*
X7372858Y11336781D01*
X7367524Y11364213D01*
X7356602Y11380470D01*
X7340345Y11386058D01*
X7329424Y11386058D01*
X7408925Y11320526D02*
G01*
X7507224Y11320526D01*
X7575804Y11386058D02*
G01*
X7559547Y11380470D01*
X7548625Y11364213D01*
X7543038Y11336781D01*
X7543038Y11320526D01*
X7548625Y11293347D01*
X7559547Y11276837D01*
X7575804Y11271504D01*
X7586725Y11271504D01*
X7603236Y11276837D01*
X7614158Y11293347D01*
X7619491Y11320526D01*
X7619491Y11336781D01*
X7614158Y11364213D01*
X7603236Y11380470D01*
X7586725Y11386058D01*
X7575804Y11386058D01*
X7660893Y11358626D02*
G01*
X7660893Y11364213D01*
X7666481Y11375136D01*
X7671815Y11380470D01*
X7682738Y11386058D01*
X7704581Y11386058D01*
X7715504Y11380470D01*
X7720838Y11375136D01*
X7726425Y11364213D01*
X7726425Y11353292D01*
X7720838Y11342370D01*
X7709915Y11326113D01*
X7655559Y11271504D01*
X7731759Y11271504D01*
X7800593Y11386058D02*
G01*
X7784338Y11380470D01*
X7773415Y11364213D01*
X7767827Y11336781D01*
X7767827Y11320526D01*
X7773415Y11293347D01*
X7784338Y11276837D01*
X7800593Y11271504D01*
X7811515Y11271504D01*
X7827772Y11276837D01*
X7838693Y11293347D01*
X7844281Y11320526D01*
X7844281Y11336781D01*
X7838693Y11364213D01*
X7827772Y11380470D01*
X7811515Y11386058D01*
X7800593Y11386058D01*
X7880095Y11364213D02*
G01*
X7891018Y11369547D01*
X7907527Y11386058D01*
X7907527Y11271504D01*
X8027415Y11386058D02*
G01*
X8071104Y11271504D01*
X8114791Y11386058D02*
G01*
X8071104Y11271504D01*
X8150859Y11364213D02*
G01*
X8161781Y11369547D01*
X8178038Y11386058D01*
X8178038Y11271504D01*
M02*
