G04 Layer: TopSilkscreenLayer*
G04 EasyEDA v6.5.29, 2023-07-16 15:11:24*
G04 4815ca597486458abc7986fe6b47f49f,5a6b42c53f6a479593ecc07194224c93,10*
G04 Gerber Generator version 0.2*
G04 Scale: 100 percent, Rotated: No, Reflected: No *
G04 Dimensions in millimeters *
G04 leading zeros omitted , absolute positions ,4 integer and 5 decimal *
%FSLAX45Y45*%
%MOMM*%

%ADD10C,0.2032*%
%ADD11C,0.1524*%

%LPD*%
D10*
X1524000Y9709658D02*
G01*
X1524000Y9595104D01*
X1524000Y9709658D02*
G01*
X1567687Y9595104D01*
X1611376Y9709658D02*
G01*
X1567687Y9595104D01*
X1611376Y9709658D02*
G01*
X1611376Y9595104D01*
X1745487Y9731502D02*
G01*
X1647189Y9556750D01*
X1781555Y9709658D02*
G01*
X1781555Y9595104D01*
X1781555Y9709658D02*
G01*
X1852421Y9709658D01*
X1781555Y9655047D02*
G01*
X1824989Y9655047D01*
X1781555Y9595104D02*
G01*
X1852421Y9595104D01*
X2048763Y9693147D02*
G01*
X2037841Y9704070D01*
X2021331Y9709658D01*
X1999741Y9709658D01*
X1983231Y9704070D01*
X1972309Y9693147D01*
X1972309Y9682226D01*
X1977897Y9671304D01*
X1983231Y9665970D01*
X1994154Y9660381D01*
X2026920Y9649713D01*
X2037841Y9644126D01*
X2043175Y9638792D01*
X2048763Y9627870D01*
X2048763Y9611360D01*
X2037841Y9600437D01*
X2021331Y9595104D01*
X1999741Y9595104D01*
X1983231Y9600437D01*
X1972309Y9611360D01*
X2117343Y9709658D02*
G01*
X2106422Y9704070D01*
X2095754Y9693147D01*
X2090165Y9682226D01*
X2084831Y9665970D01*
X2084831Y9638792D01*
X2090165Y9622281D01*
X2095754Y9611360D01*
X2106422Y9600437D01*
X2117343Y9595104D01*
X2139188Y9595104D01*
X2150109Y9600437D01*
X2161031Y9611360D01*
X2166620Y9622281D01*
X2171954Y9638792D01*
X2171954Y9665970D01*
X2166620Y9682226D01*
X2161031Y9693147D01*
X2150109Y9704070D01*
X2139188Y9709658D01*
X2117343Y9709658D01*
X2208022Y9709658D02*
G01*
X2208022Y9627870D01*
X2213356Y9611360D01*
X2224277Y9600437D01*
X2240788Y9595104D01*
X2251709Y9595104D01*
X2267965Y9600437D01*
X2278888Y9611360D01*
X2284475Y9627870D01*
X2284475Y9709658D01*
X2320290Y9709658D02*
G01*
X2320290Y9595104D01*
X2320290Y9709658D02*
G01*
X2369565Y9709658D01*
X2385822Y9704070D01*
X2391156Y9698736D01*
X2396743Y9687813D01*
X2396743Y9676892D01*
X2391156Y9665970D01*
X2385822Y9660381D01*
X2369565Y9655047D01*
X2320290Y9655047D01*
X2358643Y9655047D02*
G01*
X2396743Y9595104D01*
X2514600Y9682226D02*
G01*
X2509011Y9693147D01*
X2498090Y9704070D01*
X2487168Y9709658D01*
X2465577Y9709658D01*
X2454656Y9704070D01*
X2443734Y9693147D01*
X2438145Y9682226D01*
X2432811Y9665970D01*
X2432811Y9638792D01*
X2438145Y9622281D01*
X2443734Y9611360D01*
X2454656Y9600437D01*
X2465577Y9595104D01*
X2487168Y9595104D01*
X2498090Y9600437D01*
X2509011Y9611360D01*
X2514600Y9622281D01*
X2550668Y9709658D02*
G01*
X2550668Y9595104D01*
X2550668Y9709658D02*
G01*
X2621534Y9709658D01*
X2550668Y9655047D02*
G01*
X2594102Y9655047D01*
X2550668Y9595104D02*
G01*
X2621534Y9595104D01*
X2817875Y9693147D02*
G01*
X2806954Y9704070D01*
X2790443Y9709658D01*
X2768600Y9709658D01*
X2752343Y9704070D01*
X2741422Y9693147D01*
X2741422Y9682226D01*
X2747009Y9671304D01*
X2752343Y9665970D01*
X2763265Y9660381D01*
X2796031Y9649713D01*
X2806954Y9644126D01*
X2812288Y9638792D01*
X2817875Y9627870D01*
X2817875Y9611360D01*
X2806954Y9600437D01*
X2790443Y9595104D01*
X2768600Y9595104D01*
X2752343Y9600437D01*
X2741422Y9611360D01*
X2853690Y9709658D02*
G01*
X2853690Y9595104D01*
X2853690Y9709658D02*
G01*
X2924809Y9709658D01*
X2853690Y9655047D02*
G01*
X2897377Y9655047D01*
X2853690Y9595104D02*
G01*
X2924809Y9595104D01*
X2960624Y9709658D02*
G01*
X2960624Y9595104D01*
X2960624Y9595104D02*
G01*
X3026156Y9595104D01*
X3062224Y9709658D02*
G01*
X3062224Y9595104D01*
X3062224Y9709658D02*
G01*
X3133090Y9709658D01*
X3062224Y9655047D02*
G01*
X3105911Y9655047D01*
X3062224Y9595104D02*
G01*
X3133090Y9595104D01*
X3250945Y9682226D02*
G01*
X3245358Y9693147D01*
X3234436Y9704070D01*
X3223513Y9709658D01*
X3201924Y9709658D01*
X3191002Y9704070D01*
X3180079Y9693147D01*
X3174491Y9682226D01*
X3169158Y9665970D01*
X3169158Y9638792D01*
X3174491Y9622281D01*
X3180079Y9611360D01*
X3191002Y9600437D01*
X3201924Y9595104D01*
X3223513Y9595104D01*
X3234436Y9600437D01*
X3245358Y9611360D01*
X3250945Y9622281D01*
X3325113Y9709658D02*
G01*
X3325113Y9595104D01*
X3287013Y9709658D02*
G01*
X3363213Y9709658D01*
X3432047Y9709658D02*
G01*
X3421125Y9704070D01*
X3410204Y9693147D01*
X3404615Y9682226D01*
X3399281Y9665970D01*
X3399281Y9638792D01*
X3404615Y9622281D01*
X3410204Y9611360D01*
X3421125Y9600437D01*
X3432047Y9595104D01*
X3453891Y9595104D01*
X3464813Y9600437D01*
X3475736Y9611360D01*
X3481070Y9622281D01*
X3486658Y9638792D01*
X3486658Y9665970D01*
X3481070Y9682226D01*
X3475736Y9693147D01*
X3464813Y9704070D01*
X3453891Y9709658D01*
X3432047Y9709658D01*
X3522472Y9709658D02*
G01*
X3522472Y9595104D01*
X3522472Y9709658D02*
G01*
X3571747Y9709658D01*
X3588004Y9704070D01*
X3593338Y9698736D01*
X3598925Y9687813D01*
X3598925Y9676892D01*
X3593338Y9665970D01*
X3588004Y9660381D01*
X3571747Y9655047D01*
X3522472Y9655047D01*
X3560825Y9655047D02*
G01*
X3598925Y9595104D01*
X2023109Y8693658D02*
G01*
X2023109Y8606281D01*
X2017522Y8590026D01*
X2012188Y8584437D01*
X2001265Y8579104D01*
X1990343Y8579104D01*
X1979422Y8584437D01*
X1973834Y8590026D01*
X1968500Y8606281D01*
X1968500Y8617204D01*
X2058924Y8693658D02*
G01*
X2058924Y8579104D01*
X2058924Y8579104D02*
G01*
X2124456Y8579104D01*
X2242311Y8666226D02*
G01*
X2236977Y8677147D01*
X2226056Y8688070D01*
X2215134Y8693658D01*
X2193290Y8693658D01*
X2182368Y8688070D01*
X2171445Y8677147D01*
X2165858Y8666226D01*
X2160524Y8649970D01*
X2160524Y8622792D01*
X2165858Y8606281D01*
X2171445Y8595360D01*
X2182368Y8584437D01*
X2193290Y8579104D01*
X2215134Y8579104D01*
X2226056Y8584437D01*
X2236977Y8595360D01*
X2242311Y8606281D01*
X2332736Y8693658D02*
G01*
X2332736Y8606281D01*
X2327402Y8590026D01*
X2322068Y8584437D01*
X2311145Y8579104D01*
X2300224Y8579104D01*
X2289302Y8584437D01*
X2283713Y8590026D01*
X2278379Y8606281D01*
X2278379Y8617204D01*
X2368804Y8693658D02*
G01*
X2368804Y8579104D01*
X2368804Y8579104D02*
G01*
X2434336Y8579104D01*
X2552191Y8666226D02*
G01*
X2546604Y8677147D01*
X2535681Y8688070D01*
X2524759Y8693658D01*
X2503170Y8693658D01*
X2492247Y8688070D01*
X2481325Y8677147D01*
X2475738Y8666226D01*
X2470404Y8649970D01*
X2470404Y8622792D01*
X2475738Y8606281D01*
X2481325Y8595360D01*
X2492247Y8584437D01*
X2503170Y8579104D01*
X2524759Y8579104D01*
X2535681Y8584437D01*
X2546604Y8595360D01*
X2552191Y8606281D01*
X2642615Y8693658D02*
G01*
X2642615Y8606281D01*
X2637281Y8590026D01*
X2631693Y8584437D01*
X2620772Y8579104D01*
X2609850Y8579104D01*
X2598927Y8584437D01*
X2593593Y8590026D01*
X2588259Y8606281D01*
X2588259Y8617204D01*
X2678684Y8693658D02*
G01*
X2678684Y8579104D01*
X2678684Y8579104D02*
G01*
X2744215Y8579104D01*
X2862072Y8666226D02*
G01*
X2856484Y8677147D01*
X2845561Y8688070D01*
X2834640Y8693658D01*
X2812795Y8693658D01*
X2801874Y8688070D01*
X2790952Y8677147D01*
X2785618Y8666226D01*
X2780029Y8649970D01*
X2780029Y8622792D01*
X2785618Y8606281D01*
X2790952Y8595360D01*
X2801874Y8584437D01*
X2812795Y8579104D01*
X2834640Y8579104D01*
X2845561Y8584437D01*
X2856484Y8595360D01*
X2862072Y8606281D01*
X2952495Y8693658D02*
G01*
X2952495Y8606281D01*
X2947161Y8590026D01*
X2941574Y8584437D01*
X2930652Y8579104D01*
X2919729Y8579104D01*
X2908808Y8584437D01*
X2903474Y8590026D01*
X2897886Y8606281D01*
X2897886Y8617204D01*
X2988563Y8693658D02*
G01*
X2988563Y8579104D01*
X2988563Y8579104D02*
G01*
X3053841Y8579104D01*
X3171697Y8666226D02*
G01*
X3166363Y8677147D01*
X3155441Y8688070D01*
X3144520Y8693658D01*
X3122675Y8693658D01*
X3111754Y8688070D01*
X3100831Y8677147D01*
X3095497Y8666226D01*
X3089909Y8649970D01*
X3089909Y8622792D01*
X3095497Y8606281D01*
X3100831Y8595360D01*
X3111754Y8584437D01*
X3122675Y8579104D01*
X3144520Y8579104D01*
X3155441Y8584437D01*
X3166363Y8595360D01*
X3171697Y8606281D01*
D11*
X2874766Y2605537D02*
G01*
X2870448Y2614681D01*
X2861304Y2623571D01*
X2852160Y2628143D01*
X2833872Y2628143D01*
X2824982Y2623571D01*
X2815838Y2614681D01*
X2811266Y2605537D01*
X2806694Y2591821D01*
X2806694Y2569215D01*
X2811266Y2555499D01*
X2815838Y2546355D01*
X2824982Y2537211D01*
X2833872Y2532639D01*
X2852160Y2532639D01*
X2861304Y2537211D01*
X2870448Y2546355D01*
X2874766Y2555499D01*
X2932170Y2628143D02*
G01*
X2923026Y2623571D01*
X2913882Y2614681D01*
X2909310Y2605537D01*
X2904992Y2591821D01*
X2904992Y2569215D01*
X2909310Y2555499D01*
X2913882Y2546355D01*
X2923026Y2537211D01*
X2932170Y2532639D01*
X2950204Y2532639D01*
X2959348Y2537211D01*
X2968492Y2546355D01*
X2973064Y2555499D01*
X2977636Y2569215D01*
X2977636Y2591821D01*
X2973064Y2605537D01*
X2968492Y2614681D01*
X2959348Y2623571D01*
X2950204Y2628143D01*
X2932170Y2628143D01*
X3007608Y2628143D02*
G01*
X3007608Y2532639D01*
X3007608Y2628143D02*
G01*
X3048502Y2628143D01*
X3062218Y2623571D01*
X3066790Y2618999D01*
X3071362Y2610109D01*
X3071362Y2596393D01*
X3066790Y2587249D01*
X3062218Y2582677D01*
X3048502Y2578105D01*
X3007608Y2578105D01*
X3101334Y2628143D02*
G01*
X3137656Y2582677D01*
X3137656Y2532639D01*
X3173978Y2628143D02*
G01*
X3137656Y2582677D01*
X3203950Y2628143D02*
G01*
X3203950Y2532639D01*
X3203950Y2628143D02*
G01*
X3244844Y2628143D01*
X3258560Y2623571D01*
X3263132Y2618999D01*
X3267704Y2610109D01*
X3267704Y2600965D01*
X3263132Y2591821D01*
X3258560Y2587249D01*
X3244844Y2582677D01*
X3203950Y2582677D01*
X3235700Y2582677D02*
G01*
X3267704Y2532639D01*
X3297676Y2628143D02*
G01*
X3297676Y2532639D01*
X3395720Y2605537D02*
G01*
X3391148Y2614681D01*
X3382258Y2623571D01*
X3373114Y2628143D01*
X3354826Y2628143D01*
X3345682Y2623571D01*
X3336792Y2614681D01*
X3332220Y2605537D01*
X3327648Y2591821D01*
X3327648Y2569215D01*
X3332220Y2555499D01*
X3336792Y2546355D01*
X3345682Y2537211D01*
X3354826Y2532639D01*
X3373114Y2532639D01*
X3382258Y2537211D01*
X3391148Y2546355D01*
X3395720Y2555499D01*
X3395720Y2569215D01*
X3373114Y2569215D02*
G01*
X3395720Y2569215D01*
X3425692Y2628143D02*
G01*
X3425692Y2532639D01*
X3489446Y2628143D02*
G01*
X3489446Y2532639D01*
X3425692Y2582677D02*
G01*
X3489446Y2582677D01*
X3551168Y2628143D02*
G01*
X3551168Y2532639D01*
X3519418Y2628143D02*
G01*
X3583172Y2628143D01*
X3687566Y2605537D02*
G01*
X3687566Y2610109D01*
X3692138Y2618999D01*
X3696710Y2623571D01*
X3705854Y2628143D01*
X3723888Y2628143D01*
X3733032Y2623571D01*
X3737604Y2618999D01*
X3742176Y2610109D01*
X3742176Y2600965D01*
X3737604Y2591821D01*
X3728460Y2578105D01*
X3682994Y2532639D01*
X3746748Y2532639D01*
X3803898Y2628143D02*
G01*
X3790436Y2623571D01*
X3781292Y2610109D01*
X3776720Y2587249D01*
X3776720Y2573787D01*
X3781292Y2550927D01*
X3790436Y2537211D01*
X3803898Y2532639D01*
X3813042Y2532639D01*
X3826758Y2537211D01*
X3835902Y2550927D01*
X3840220Y2573787D01*
X3840220Y2587249D01*
X3835902Y2610109D01*
X3826758Y2623571D01*
X3813042Y2628143D01*
X3803898Y2628143D01*
X3874764Y2605537D02*
G01*
X3874764Y2610109D01*
X3879336Y2618999D01*
X3883908Y2623571D01*
X3893052Y2628143D01*
X3911340Y2628143D01*
X3920230Y2623571D01*
X3924802Y2618999D01*
X3929374Y2610109D01*
X3929374Y2600965D01*
X3924802Y2591821D01*
X3915658Y2578105D01*
X3870446Y2532639D01*
X3933946Y2532639D01*
X3963918Y2610109D02*
G01*
X3973062Y2614681D01*
X3986778Y2628143D01*
X3986778Y2532639D01*
X4086600Y2628143D02*
G01*
X4123176Y2532639D01*
X4159498Y2628143D02*
G01*
X4123176Y2532639D01*
X4189470Y2628143D02*
G01*
X4189470Y2532639D01*
X4189470Y2628143D02*
G01*
X4248398Y2628143D01*
X4189470Y2582677D02*
G01*
X4225792Y2582677D01*
X4189470Y2532639D02*
G01*
X4248398Y2532639D01*
X4342124Y2628143D02*
G01*
X4296658Y2532639D01*
X4278624Y2628143D02*
G01*
X4342124Y2628143D01*
X4372096Y2628143D02*
G01*
X4372096Y2532639D01*
X4372096Y2628143D02*
G01*
X4431278Y2628143D01*
X4372096Y2582677D02*
G01*
X4408418Y2582677D01*
X4461250Y2628143D02*
G01*
X4461250Y2532639D01*
X4491222Y2628143D02*
G01*
X4491222Y2532639D01*
X4491222Y2628143D02*
G01*
X4527544Y2532639D01*
X4563866Y2628143D02*
G01*
X4527544Y2532639D01*
X4563866Y2628143D02*
G01*
X4563866Y2532639D01*
X4663942Y2573787D02*
G01*
X4745730Y2573787D01*
X4882128Y2628143D02*
G01*
X4845806Y2532639D01*
X4882128Y2628143D02*
G01*
X4918450Y2532639D01*
X4859522Y2564643D02*
G01*
X4904988Y2564643D01*
X4948422Y2628143D02*
G01*
X4948422Y2532639D01*
X4948422Y2532639D02*
G01*
X5003032Y2532639D01*
X5033004Y2628143D02*
G01*
X5033004Y2532639D01*
X5033004Y2532639D02*
G01*
X5087614Y2532639D01*
X5187690Y2628143D02*
G01*
X5187690Y2532639D01*
X5187690Y2628143D02*
G01*
X5228584Y2628143D01*
X5242046Y2623571D01*
X5246618Y2618999D01*
X5251190Y2610109D01*
X5251190Y2600965D01*
X5246618Y2591821D01*
X5242046Y2587249D01*
X5228584Y2582677D01*
X5187690Y2582677D01*
X5219440Y2582677D02*
G01*
X5251190Y2532639D01*
X5281162Y2628143D02*
G01*
X5281162Y2532639D01*
X5379460Y2605537D02*
G01*
X5374888Y2614681D01*
X5365744Y2623571D01*
X5356600Y2628143D01*
X5338566Y2628143D01*
X5329422Y2623571D01*
X5320278Y2614681D01*
X5315706Y2605537D01*
X5311134Y2591821D01*
X5311134Y2569215D01*
X5315706Y2555499D01*
X5320278Y2546355D01*
X5329422Y2537211D01*
X5338566Y2532639D01*
X5356600Y2532639D01*
X5365744Y2537211D01*
X5374888Y2546355D01*
X5379460Y2555499D01*
X5379460Y2569215D01*
X5356600Y2569215D02*
G01*
X5379460Y2569215D01*
X5409432Y2628143D02*
G01*
X5409432Y2532639D01*
X5472932Y2628143D02*
G01*
X5472932Y2532639D01*
X5409432Y2582677D02*
G01*
X5472932Y2582677D01*
X5534908Y2628143D02*
G01*
X5534908Y2532639D01*
X5503158Y2628143D02*
G01*
X5566658Y2628143D01*
X5660384Y2614681D02*
G01*
X5651240Y2623571D01*
X5637524Y2628143D01*
X5619490Y2628143D01*
X5605774Y2623571D01*
X5596630Y2614681D01*
X5596630Y2605537D01*
X5601202Y2596393D01*
X5605774Y2591821D01*
X5614918Y2587249D01*
X5642096Y2578105D01*
X5651240Y2573787D01*
X5655812Y2569215D01*
X5660384Y2560071D01*
X5660384Y2546355D01*
X5651240Y2537211D01*
X5637524Y2532639D01*
X5619490Y2532639D01*
X5605774Y2537211D01*
X5596630Y2546355D01*
X5760206Y2628143D02*
G01*
X5760206Y2532639D01*
X5760206Y2628143D02*
G01*
X5801354Y2628143D01*
X5814816Y2623571D01*
X5819388Y2618999D01*
X5823960Y2610109D01*
X5823960Y2600965D01*
X5819388Y2591821D01*
X5814816Y2587249D01*
X5801354Y2582677D01*
X5760206Y2582677D01*
X5792210Y2582677D02*
G01*
X5823960Y2532639D01*
X5853932Y2628143D02*
G01*
X5853932Y2532639D01*
X5853932Y2628143D02*
G01*
X5913114Y2628143D01*
X5853932Y2582677D02*
G01*
X5890254Y2582677D01*
X5853932Y2532639D02*
G01*
X5913114Y2532639D01*
X6006586Y2614681D02*
G01*
X5997696Y2623571D01*
X5983980Y2628143D01*
X5965692Y2628143D01*
X5952230Y2623571D01*
X5943086Y2614681D01*
X5943086Y2605537D01*
X5947658Y2596393D01*
X5952230Y2591821D01*
X5961120Y2587249D01*
X5988552Y2578105D01*
X5997696Y2573787D01*
X6002268Y2569215D01*
X6006586Y2560071D01*
X6006586Y2546355D01*
X5997696Y2537211D01*
X5983980Y2532639D01*
X5965692Y2532639D01*
X5952230Y2537211D01*
X5943086Y2546355D01*
X6036812Y2628143D02*
G01*
X6036812Y2532639D01*
X6036812Y2628143D02*
G01*
X6095740Y2628143D01*
X6036812Y2582677D02*
G01*
X6073134Y2582677D01*
X6036812Y2532639D02*
G01*
X6095740Y2532639D01*
X6125712Y2628143D02*
G01*
X6125712Y2532639D01*
X6125712Y2628143D02*
G01*
X6166606Y2628143D01*
X6180322Y2623571D01*
X6184894Y2618999D01*
X6189466Y2610109D01*
X6189466Y2600965D01*
X6184894Y2591821D01*
X6180322Y2587249D01*
X6166606Y2582677D01*
X6125712Y2582677D01*
X6157716Y2582677D02*
G01*
X6189466Y2532639D01*
X6219438Y2628143D02*
G01*
X6255760Y2532639D01*
X6292082Y2628143D02*
G01*
X6255760Y2532639D01*
X6322054Y2628143D02*
G01*
X6322054Y2532639D01*
X6322054Y2628143D02*
G01*
X6381236Y2628143D01*
X6322054Y2582677D02*
G01*
X6358630Y2582677D01*
X6322054Y2532639D02*
G01*
X6381236Y2532639D01*
X6411208Y2628143D02*
G01*
X6411208Y2532639D01*
X6411208Y2628143D02*
G01*
X6442958Y2628143D01*
X6456674Y2623571D01*
X6465818Y2614681D01*
X6470390Y2605537D01*
X6474962Y2591821D01*
X6474962Y2569215D01*
X6470390Y2555499D01*
X6465818Y2546355D01*
X6456674Y2537211D01*
X6442958Y2532639D01*
X6411208Y2532639D01*
D10*
X1460500Y9201658D02*
G01*
X1460500Y9087104D01*
X1460500Y9201658D02*
G01*
X1509521Y9201658D01*
X1526031Y9196070D01*
X1531365Y9190736D01*
X1536954Y9179813D01*
X1536954Y9163304D01*
X1531365Y9152381D01*
X1526031Y9147047D01*
X1509521Y9141713D01*
X1460500Y9141713D01*
X1616455Y9201658D02*
G01*
X1572768Y9087104D01*
X1616455Y9201658D02*
G01*
X1660144Y9087104D01*
X1589278Y9125204D02*
G01*
X1643887Y9125204D01*
X1696212Y9201658D02*
G01*
X1696212Y9087104D01*
X1696212Y9201658D02*
G01*
X1745234Y9201658D01*
X1761489Y9196070D01*
X1767078Y9190736D01*
X1772412Y9179813D01*
X1772412Y9168892D01*
X1767078Y9157970D01*
X1761489Y9152381D01*
X1745234Y9147047D01*
X1696212Y9147047D01*
X1734312Y9147047D02*
G01*
X1772412Y9087104D01*
X1846579Y9201658D02*
G01*
X1846579Y9087104D01*
X1808479Y9201658D02*
G01*
X1884934Y9201658D01*
X2004822Y9201658D02*
G01*
X2004822Y9087104D01*
X2004822Y9201658D02*
G01*
X2081275Y9087104D01*
X2081275Y9201658D02*
G01*
X2081275Y9087104D01*
X2117343Y9201658D02*
G01*
X2117343Y9119870D01*
X2122677Y9103360D01*
X2133600Y9092437D01*
X2149856Y9087104D01*
X2160777Y9087104D01*
X2177288Y9092437D01*
X2188209Y9103360D01*
X2193543Y9119870D01*
X2193543Y9201658D01*
X2229611Y9201658D02*
G01*
X2229611Y9087104D01*
X2229611Y9201658D02*
G01*
X2273300Y9087104D01*
X2316988Y9201658D02*
G01*
X2273300Y9087104D01*
X2316988Y9201658D02*
G01*
X2316988Y9087104D01*
X2352802Y9201658D02*
G01*
X2352802Y9087104D01*
X2352802Y9201658D02*
G01*
X2402077Y9201658D01*
X2418334Y9196070D01*
X2423668Y9190736D01*
X2429256Y9179813D01*
X2429256Y9168892D01*
X2423668Y9157970D01*
X2418334Y9152381D01*
X2402077Y9147047D01*
X2352802Y9147047D02*
G01*
X2402077Y9147047D01*
X2418334Y9141713D01*
X2423668Y9136126D01*
X2429256Y9125204D01*
X2429256Y9108947D01*
X2423668Y9098026D01*
X2418334Y9092437D01*
X2402077Y9087104D01*
X2352802Y9087104D01*
X2465324Y9201658D02*
G01*
X2465324Y9087104D01*
X2465324Y9201658D02*
G01*
X2536190Y9201658D01*
X2465324Y9147047D02*
G01*
X2508758Y9147047D01*
X2465324Y9087104D02*
G01*
X2536190Y9087104D01*
X2572258Y9201658D02*
G01*
X2572258Y9087104D01*
X2572258Y9201658D02*
G01*
X2621279Y9201658D01*
X2637536Y9196070D01*
X2643124Y9190736D01*
X2648458Y9179813D01*
X2648458Y9168892D01*
X2643124Y9157970D01*
X2637536Y9152381D01*
X2621279Y9147047D01*
X2572258Y9147047D01*
X2610358Y9147047D02*
G01*
X2648458Y9087104D01*
X2773934Y9174226D02*
G01*
X2773934Y9179813D01*
X2779522Y9190736D01*
X2784856Y9196070D01*
X2795777Y9201658D01*
X2817622Y9201658D01*
X2828543Y9196070D01*
X2833877Y9190736D01*
X2839465Y9179813D01*
X2839465Y9168892D01*
X2833877Y9157970D01*
X2822956Y9141713D01*
X2768600Y9087104D01*
X2844800Y9087104D01*
X2908045Y9201658D02*
G01*
X2891790Y9196070D01*
X2886202Y9185147D01*
X2886202Y9174226D01*
X2891790Y9163304D01*
X2902711Y9157970D01*
X2924556Y9152381D01*
X2940811Y9147047D01*
X2951734Y9136126D01*
X2957322Y9125204D01*
X2957322Y9108947D01*
X2951734Y9098026D01*
X2946400Y9092437D01*
X2929890Y9087104D01*
X2908045Y9087104D01*
X2891790Y9092437D01*
X2886202Y9098026D01*
X2880868Y9108947D01*
X2880868Y9125204D01*
X2886202Y9136126D01*
X2897124Y9147047D01*
X2913634Y9152381D01*
X2935477Y9157970D01*
X2946400Y9163304D01*
X2951734Y9174226D01*
X2951734Y9185147D01*
X2946400Y9196070D01*
X2929890Y9201658D01*
X2908045Y9201658D01*
X2993136Y9179813D02*
G01*
X3004058Y9185147D01*
X3020568Y9201658D01*
X3020568Y9087104D01*
X3089147Y9201658D02*
G01*
X3072891Y9196070D01*
X3061970Y9179813D01*
X3056381Y9152381D01*
X3056381Y9136126D01*
X3061970Y9108947D01*
X3072891Y9092437D01*
X3089147Y9087104D01*
X3100070Y9087104D01*
X3116579Y9092437D01*
X3127502Y9108947D01*
X3132836Y9136126D01*
X3132836Y9152381D01*
X3127502Y9179813D01*
X3116579Y9196070D01*
X3100070Y9201658D01*
X3089147Y9201658D01*
X3168904Y9136126D02*
G01*
X3266947Y9136126D01*
X3335781Y9201658D02*
G01*
X3319525Y9196070D01*
X3308604Y9179813D01*
X3303015Y9152381D01*
X3303015Y9136126D01*
X3308604Y9108947D01*
X3319525Y9092437D01*
X3335781Y9087104D01*
X3346704Y9087104D01*
X3362959Y9092437D01*
X3373881Y9108947D01*
X3379470Y9136126D01*
X3379470Y9152381D01*
X3373881Y9179813D01*
X3362959Y9196070D01*
X3346704Y9201658D01*
X3335781Y9201658D01*
X3420872Y9174226D02*
G01*
X3420872Y9179813D01*
X3426206Y9190736D01*
X3431793Y9196070D01*
X3442715Y9201658D01*
X3464559Y9201658D01*
X3475481Y9196070D01*
X3480815Y9190736D01*
X3486404Y9179813D01*
X3486404Y9168892D01*
X3480815Y9157970D01*
X3469893Y9141713D01*
X3415284Y9087104D01*
X3491738Y9087104D01*
X3560572Y9201658D02*
G01*
X3544061Y9196070D01*
X3533140Y9179813D01*
X3527806Y9152381D01*
X3527806Y9136126D01*
X3533140Y9108947D01*
X3544061Y9092437D01*
X3560572Y9087104D01*
X3571493Y9087104D01*
X3587750Y9092437D01*
X3598672Y9108947D01*
X3604006Y9136126D01*
X3604006Y9152381D01*
X3598672Y9179813D01*
X3587750Y9196070D01*
X3571493Y9201658D01*
X3560572Y9201658D01*
X3640074Y9179813D02*
G01*
X3650995Y9185147D01*
X3667506Y9201658D01*
X3667506Y9087104D01*
X1333751Y9439155D02*
G01*
X1322829Y9450077D01*
X1306319Y9455665D01*
X1284475Y9455665D01*
X1268219Y9450077D01*
X1257297Y9439155D01*
X1257297Y9428233D01*
X1262631Y9417311D01*
X1268219Y9411977D01*
X1279141Y9406389D01*
X1311907Y9395467D01*
X1322829Y9390133D01*
X1328163Y9384545D01*
X1333751Y9373877D01*
X1333751Y9357367D01*
X1322829Y9346445D01*
X1306319Y9341111D01*
X1284475Y9341111D01*
X1268219Y9346445D01*
X1257297Y9357367D01*
X1369565Y9455665D02*
G01*
X1369565Y9341111D01*
X1369565Y9455665D02*
G01*
X1418841Y9455665D01*
X1435097Y9450077D01*
X1440685Y9444743D01*
X1446019Y9433821D01*
X1446019Y9417311D01*
X1440685Y9406389D01*
X1435097Y9401055D01*
X1418841Y9395467D01*
X1369565Y9395467D01*
X1525775Y9455665D02*
G01*
X1482087Y9341111D01*
X1525775Y9455665D02*
G01*
X1569209Y9341111D01*
X1498343Y9379211D02*
G01*
X1552953Y9379211D01*
X1687065Y9428233D02*
G01*
X1681731Y9439155D01*
X1670809Y9450077D01*
X1659887Y9455665D01*
X1638043Y9455665D01*
X1627121Y9450077D01*
X1616199Y9439155D01*
X1610865Y9428233D01*
X1605277Y9411977D01*
X1605277Y9384545D01*
X1610865Y9368289D01*
X1616199Y9357367D01*
X1627121Y9346445D01*
X1638043Y9341111D01*
X1659887Y9341111D01*
X1670809Y9346445D01*
X1681731Y9357367D01*
X1687065Y9368289D01*
X1723133Y9455665D02*
G01*
X1723133Y9341111D01*
X1723133Y9455665D02*
G01*
X1793999Y9455665D01*
X1723133Y9401055D02*
G01*
X1766821Y9401055D01*
X1723133Y9341111D02*
G01*
X1793999Y9341111D01*
X1830067Y9455665D02*
G01*
X1830067Y9341111D01*
X1830067Y9455665D02*
G01*
X1879089Y9455665D01*
X1895599Y9450077D01*
X1900933Y9444743D01*
X1906267Y9433821D01*
X1906267Y9422899D01*
X1900933Y9411977D01*
X1895599Y9406389D01*
X1879089Y9401055D01*
X1830067Y9401055D01*
X1868167Y9401055D02*
G01*
X1906267Y9341111D01*
X2026409Y9455665D02*
G01*
X2026409Y9341111D01*
X2026409Y9455665D02*
G01*
X2075431Y9455665D01*
X2091941Y9450077D01*
X2097275Y9444743D01*
X2102863Y9433821D01*
X2102863Y9422899D01*
X2097275Y9411977D01*
X2091941Y9406389D01*
X2075431Y9401055D01*
X2026409Y9401055D02*
G01*
X2075431Y9401055D01*
X2091941Y9395467D01*
X2097275Y9390133D01*
X2102863Y9379211D01*
X2102863Y9362955D01*
X2097275Y9352033D01*
X2091941Y9346445D01*
X2075431Y9341111D01*
X2026409Y9341111D01*
X2171443Y9455665D02*
G01*
X2160521Y9450077D01*
X2149599Y9439155D01*
X2144265Y9428233D01*
X2138677Y9411977D01*
X2138677Y9384545D01*
X2144265Y9368289D01*
X2149599Y9357367D01*
X2160521Y9346445D01*
X2171443Y9341111D01*
X2193287Y9341111D01*
X2204209Y9346445D01*
X2215131Y9357367D01*
X2220465Y9368289D01*
X2226053Y9384545D01*
X2226053Y9411977D01*
X2220465Y9428233D01*
X2215131Y9439155D01*
X2204209Y9450077D01*
X2193287Y9455665D01*
X2171443Y9455665D01*
X2305555Y9455665D02*
G01*
X2262121Y9341111D01*
X2305555Y9455665D02*
G01*
X2349243Y9341111D01*
X2278377Y9379211D02*
G01*
X2332987Y9379211D01*
X2385311Y9455665D02*
G01*
X2385311Y9341111D01*
X2385311Y9455665D02*
G01*
X2434333Y9455665D01*
X2450843Y9450077D01*
X2456177Y9444743D01*
X2461765Y9433821D01*
X2461765Y9422899D01*
X2456177Y9411977D01*
X2450843Y9406389D01*
X2434333Y9401055D01*
X2385311Y9401055D01*
X2423411Y9401055D02*
G01*
X2461765Y9341111D01*
X2497579Y9455665D02*
G01*
X2497579Y9341111D01*
X2497579Y9455665D02*
G01*
X2535933Y9455665D01*
X2552189Y9450077D01*
X2563111Y9439155D01*
X2568445Y9428233D01*
X2574033Y9411977D01*
X2574033Y9384545D01*
X2568445Y9368289D01*
X2563111Y9357367D01*
X2552189Y9346445D01*
X2535933Y9341111D01*
X2497579Y9341111D01*
X2693921Y9455665D02*
G01*
X2737609Y9341111D01*
X2781297Y9455665D02*
G01*
X2737609Y9341111D01*
X2817365Y9433821D02*
G01*
X2828287Y9439155D01*
X2844543Y9455665D01*
X2844543Y9341111D01*
X2885945Y9368289D02*
G01*
X2880611Y9362955D01*
X2885945Y9357367D01*
X2891533Y9362955D01*
X2885945Y9368289D01*
X2932935Y9428233D02*
G01*
X2932935Y9433821D01*
X2938269Y9444743D01*
X2943857Y9450077D01*
X2954779Y9455665D01*
X2976623Y9455665D01*
X2987545Y9450077D01*
X2992879Y9444743D01*
X2998467Y9433821D01*
X2998467Y9422899D01*
X2992879Y9411977D01*
X2981957Y9395467D01*
X2927601Y9341111D01*
X3003801Y9341111D01*
X3123943Y9390133D02*
G01*
X3221987Y9390133D01*
X3342129Y9455665D02*
G01*
X3342129Y9341111D01*
X3342129Y9455665D02*
G01*
X3412995Y9455665D01*
X3342129Y9401055D02*
G01*
X3385563Y9401055D01*
X3448809Y9455665D02*
G01*
X3448809Y9341111D01*
X3448809Y9455665D02*
G01*
X3498085Y9455665D01*
X3514341Y9450077D01*
X3519929Y9444743D01*
X3525263Y9433821D01*
X3525263Y9422899D01*
X3519929Y9411977D01*
X3514341Y9406389D01*
X3498085Y9401055D01*
X3448809Y9401055D01*
X3487163Y9401055D02*
G01*
X3525263Y9341111D01*
X3594097Y9455665D02*
G01*
X3583175Y9450077D01*
X3572253Y9439155D01*
X3566665Y9428233D01*
X3561331Y9411977D01*
X3561331Y9384545D01*
X3566665Y9368289D01*
X3572253Y9357367D01*
X3583175Y9346445D01*
X3594097Y9341111D01*
X3615941Y9341111D01*
X3626863Y9346445D01*
X3637531Y9357367D01*
X3643119Y9368289D01*
X3648453Y9384545D01*
X3648453Y9411977D01*
X3643119Y9428233D01*
X3637531Y9439155D01*
X3626863Y9450077D01*
X3615941Y9455665D01*
X3594097Y9455665D01*
X3684521Y9455665D02*
G01*
X3684521Y9341111D01*
X3684521Y9455665D02*
G01*
X3760975Y9341111D01*
X3760975Y9455665D02*
G01*
X3760975Y9341111D01*
X3835143Y9455665D02*
G01*
X3835143Y9341111D01*
X3797043Y9455665D02*
G01*
X3873243Y9455665D01*
M02*
