G04 Layer: TopSilkscreenLayer*
G04 EasyEDA v6.5.29, 2023-07-18 11:19:17*
G04 5f2044cace3448bf888c74a195837e88,5a6b42c53f6a479593ecc07194224c93,10*
G04 Gerber Generator version 0.2*
G04 Scale: 100 percent, Rotated: No, Reflected: No *
G04 Dimensions in millimeters *
G04 leading zeros omitted , absolute positions ,4 integer and 5 decimal *
%FSLAX45Y45*%
%MOMM*%

%ADD10C,0.2540*%

%LPD*%
G36*
X6848652Y2107133D02*
G01*
X5681573Y2106930D01*
X5352186Y2106523D01*
X5138318Y2105609D01*
X5068468Y2104898D01*
X5016855Y2104034D01*
X4980432Y2102967D01*
X4967071Y2102358D01*
X4952949Y2101392D01*
X4943805Y2100427D01*
X4935880Y2098954D01*
X4932273Y2097887D01*
X4929886Y2096820D01*
X4923586Y2092807D01*
X4919370Y2089556D01*
X4915103Y2085848D01*
X4910886Y2081834D01*
X4906873Y2077618D01*
X4903165Y2073351D01*
X4899914Y2069185D01*
X4895697Y2062581D01*
X4893919Y2058873D01*
X4892344Y2054352D01*
X4891024Y2048459D01*
X4889855Y2040636D01*
X4888890Y2030323D01*
X4888077Y2016963D01*
X4887417Y1999996D01*
X4886502Y1953056D01*
X4885994Y1884934D01*
X4885690Y1650339D01*
X4914595Y1650339D01*
X4914849Y1874926D01*
X4915306Y1944979D01*
X4916170Y1993036D01*
X4916830Y2010257D01*
X4917592Y2023719D01*
X4918557Y2033930D01*
X4919726Y2041499D01*
X4921097Y2047036D01*
X4922672Y2051100D01*
X4923536Y2052726D01*
X4926584Y2056993D01*
X4929936Y2060752D01*
X4933950Y2064359D01*
X4938471Y2067712D01*
X4943398Y2070862D01*
X4948631Y2073656D01*
X4954016Y2076094D01*
X4959451Y2078126D01*
X4964785Y2079752D01*
X4969967Y2080818D01*
X4974844Y2081326D01*
X4979263Y2081225D01*
X4985258Y2080260D01*
X5003546Y2079701D01*
X5087112Y2078736D01*
X5217007Y2078177D01*
X6937248Y2078024D01*
X7266584Y2077618D01*
X7532471Y2076754D01*
X7708950Y2075434D01*
X7768894Y2074570D01*
X7806334Y2073656D01*
X7825486Y2072639D01*
X7827416Y2072335D01*
X7830464Y2070912D01*
X7834731Y2068423D01*
X7838541Y2065629D01*
X7841843Y2062073D01*
X7843367Y2059838D01*
X7846059Y2054301D01*
X7847279Y2050796D01*
X7849362Y2042261D01*
X7850327Y2037029D01*
X7851952Y2024430D01*
X7853273Y2008632D01*
X7854289Y1989124D01*
X7855153Y1965502D01*
X7855762Y1937308D01*
X7856474Y1865426D01*
X7856728Y1680464D01*
X7856575Y1468831D01*
X7856220Y1391970D01*
X7855559Y1335887D01*
X7855102Y1314551D01*
X7853781Y1283004D01*
X7852968Y1271930D01*
X7852003Y1263396D01*
X7850835Y1256995D01*
X7849565Y1252220D01*
X7848092Y1248714D01*
X7842199Y1238656D01*
X7840573Y1236319D01*
X7838897Y1234490D01*
X7837271Y1233119D01*
X7834223Y1231239D01*
X7831023Y1229715D01*
X7824216Y1227531D01*
X7813548Y1225346D01*
X7806029Y1224280D01*
X7786878Y1222400D01*
X7767167Y1221079D01*
X7742936Y1219962D01*
X7713725Y1218996D01*
X7679029Y1218184D01*
X7591094Y1217015D01*
X7475169Y1216304D01*
X7295489Y1215847D01*
X5644388Y1215796D01*
X5644388Y2078126D01*
X5615381Y2078126D01*
X5615381Y1215796D01*
X5160162Y1215898D01*
X5074310Y1216507D01*
X5041290Y1217117D01*
X5014010Y1218031D01*
X4991912Y1219250D01*
X4974234Y1220825D01*
X4960467Y1222857D01*
X4954828Y1224026D01*
X4949901Y1225346D01*
X4945634Y1226820D01*
X4941925Y1228394D01*
X4938674Y1230122D01*
X4935880Y1232001D01*
X4931156Y1236268D01*
X4927092Y1241196D01*
X4923282Y1246632D01*
X4921859Y1249781D01*
X4920589Y1254201D01*
X4919522Y1260348D01*
X4918557Y1268628D01*
X4917694Y1279398D01*
X4916982Y1293164D01*
X4915916Y1331163D01*
X4915204Y1385925D01*
X4914849Y1460855D01*
X4914595Y1650339D01*
X4885690Y1650339D01*
X4885893Y1435557D01*
X4886299Y1361490D01*
X4887112Y1309674D01*
X4888433Y1275588D01*
X4889347Y1263853D01*
X4890414Y1254861D01*
X4891633Y1248054D01*
X4893106Y1242923D01*
X4894326Y1239824D01*
X4895697Y1237132D01*
X4899914Y1230528D01*
X4903165Y1226312D01*
X4906873Y1222044D01*
X4910886Y1217828D01*
X4915103Y1213815D01*
X4919370Y1210106D01*
X4923586Y1206855D01*
X4929327Y1203147D01*
X4932172Y1201826D01*
X4936134Y1200658D01*
X4941925Y1199540D01*
X4951120Y1198473D01*
X4962804Y1197559D01*
X4992014Y1196289D01*
X5042103Y1195120D01*
X5110581Y1194308D01*
X5191963Y1193749D01*
X5302808Y1193292D01*
X5518302Y1192885D01*
X5832297Y1192682D01*
X7826095Y1192631D01*
X7845145Y1205636D01*
X7849209Y1208684D01*
X7853425Y1212291D01*
X7857642Y1216355D01*
X7861808Y1220774D01*
X7865719Y1225346D01*
X7869326Y1229969D01*
X7872425Y1234541D01*
X7875930Y1240637D01*
X7877606Y1244600D01*
X7879080Y1249324D01*
X7880350Y1255420D01*
X7881467Y1263396D01*
X7882432Y1273657D01*
X7883194Y1286814D01*
X7884414Y1323594D01*
X7885125Y1377797D01*
X7885531Y1453388D01*
X7885734Y2039467D01*
X7870596Y2065324D01*
X7868869Y2069134D01*
X7865059Y2080260D01*
X7862519Y2084425D01*
X7859064Y2087524D01*
X7855102Y2089810D01*
X7848955Y2092147D01*
X7843774Y2093620D01*
X7839709Y2094534D01*
X7831378Y2096007D01*
X7816545Y2097938D01*
X7801864Y2099310D01*
X7777022Y2100935D01*
X7755280Y2102002D01*
X7697419Y2103831D01*
X7626654Y2105101D01*
X7531811Y2106066D01*
X7421880Y2106625D01*
X7214666Y2107031D01*
G37*
G36*
X5938926Y1994763D02*
G01*
X5932678Y1994154D01*
X5926582Y1992884D01*
X5920790Y1990953D01*
X5915253Y1988362D01*
X5910122Y1985264D01*
X5905652Y1982012D01*
X5901740Y1978609D01*
X5898388Y1974850D01*
X5895594Y1970735D01*
X5893257Y1966163D01*
X5891377Y1961083D01*
X5889955Y1955342D01*
X5888888Y1948942D01*
X5888126Y1941779D01*
X5887720Y1933702D01*
X5887624Y1925320D01*
X5916574Y1925320D01*
X5916676Y1933905D01*
X5917082Y1941017D01*
X5917844Y1946910D01*
X5919063Y1951736D01*
X5920740Y1955749D01*
X5922975Y1959152D01*
X5925870Y1962150D01*
X5929426Y1964943D01*
X5938266Y1970938D01*
X5943854Y1973275D01*
X5949137Y1972259D01*
X5957011Y1968195D01*
X5960414Y1965909D01*
X5963412Y1962912D01*
X5966053Y1959305D01*
X5968288Y1955190D01*
X5970117Y1950618D01*
X5971590Y1945639D01*
X5972708Y1940407D01*
X5973419Y1934921D01*
X5973775Y1929282D01*
X5973724Y1923592D01*
X5973368Y1917903D01*
X5972606Y1912315D01*
X5971489Y1906879D01*
X5970066Y1901748D01*
X5968238Y1896872D01*
X5966053Y1892401D01*
X5963564Y1888439D01*
X5960668Y1885035D01*
X5957468Y1882241D01*
X5953912Y1880158D01*
X5948375Y1878126D01*
X5943193Y1877212D01*
X5938418Y1877415D01*
X5934049Y1878736D01*
X5930138Y1881124D01*
X5926632Y1884527D01*
X5923635Y1888896D01*
X5921146Y1894332D01*
X5919165Y1900682D01*
X5917742Y1907997D01*
X5916879Y1916226D01*
X5916574Y1925320D01*
X5887624Y1925320D01*
X5887720Y1915515D01*
X5888177Y1907336D01*
X5888939Y1900021D01*
X5890056Y1893570D01*
X5891580Y1887829D01*
X5893562Y1882698D01*
X5896102Y1878177D01*
X5899099Y1874062D01*
X5902706Y1870354D01*
X5906973Y1866950D01*
X5911850Y1863750D01*
X5917438Y1860651D01*
X5923330Y1858010D01*
X5929325Y1856079D01*
X5935421Y1854809D01*
X5941568Y1854250D01*
X5947714Y1854352D01*
X5953810Y1855114D01*
X5959805Y1856536D01*
X5965647Y1858619D01*
X5971286Y1861362D01*
X5976721Y1864664D01*
X5981801Y1868627D01*
X5986576Y1873199D01*
X5990539Y1877720D01*
X5993739Y1882190D01*
X5996178Y1886915D01*
X5997956Y1892147D01*
X5999226Y1898243D01*
X6000038Y1905558D01*
X6000445Y1914398D01*
X6000445Y1935937D01*
X6000038Y1944878D01*
X5999226Y1952142D01*
X5997956Y1958187D01*
X5996025Y1963318D01*
X5993434Y1967890D01*
X5990082Y1972310D01*
X5985764Y1976882D01*
X5980887Y1981200D01*
X5975604Y1984908D01*
X5969965Y1988108D01*
X5964021Y1990648D01*
X5957874Y1992630D01*
X5951575Y1993950D01*
X5945225Y1994662D01*
G37*
G36*
X6011062Y1991868D02*
G01*
X6029045Y1910029D01*
X6034328Y1887118D01*
X6036513Y1878736D01*
X6038545Y1872183D01*
X6040526Y1867154D01*
X6042456Y1863547D01*
X6044539Y1861057D01*
X6046876Y1859483D01*
X6049467Y1858619D01*
X6052464Y1858264D01*
X6056020Y1858162D01*
X6060948Y1858365D01*
X6064910Y1859280D01*
X6068161Y1861261D01*
X6070955Y1864766D01*
X6073546Y1870252D01*
X6076188Y1878126D01*
X6079134Y1888794D01*
X6093612Y1947214D01*
X6108242Y1888896D01*
X6111189Y1878228D01*
X6113830Y1870405D01*
X6116421Y1864868D01*
X6119215Y1861312D01*
X6122416Y1859330D01*
X6126276Y1858416D01*
X6131102Y1858162D01*
X6134506Y1858264D01*
X6137452Y1858619D01*
X6139942Y1859432D01*
X6142228Y1860905D01*
X6144209Y1863191D01*
X6146139Y1866493D01*
X6147968Y1870964D01*
X6149898Y1876856D01*
X6154216Y1893366D01*
X6169964Y1961540D01*
X6175756Y1984044D01*
X6175908Y1987143D01*
X6173876Y1989378D01*
X6169761Y1990801D01*
X6163716Y1991309D01*
X6158484Y1991055D01*
X6154267Y1990039D01*
X6150864Y1987905D01*
X6148070Y1984298D01*
X6145733Y1978863D01*
X6143599Y1971243D01*
X6141466Y1961032D01*
X6137808Y1940610D01*
X6135319Y1928977D01*
X6134100Y1924659D01*
X6132880Y1921306D01*
X6131661Y1918970D01*
X6130442Y1917598D01*
X6129172Y1917242D01*
X6127851Y1917852D01*
X6126480Y1919478D01*
X6125057Y1922068D01*
X6123533Y1925675D01*
X6120282Y1935886D01*
X6113526Y1962048D01*
X6110833Y1971497D01*
X6108395Y1978710D01*
X6105956Y1983993D01*
X6103467Y1987600D01*
X6100673Y1989836D01*
X6097473Y1991004D01*
X6093714Y1991309D01*
X6089904Y1990953D01*
X6086652Y1989734D01*
X6083808Y1987346D01*
X6081166Y1983435D01*
X6078575Y1977694D01*
X6075832Y1969820D01*
X6072784Y1959508D01*
X6057595Y1901596D01*
X6046622Y1958289D01*
X6044285Y1968601D01*
X6042101Y1976323D01*
X6039866Y1981860D01*
X6037326Y1985619D01*
X6034278Y1988007D01*
X6030569Y1989378D01*
X6025997Y1990140D01*
G37*
G36*
X5766003Y1991309D02*
G01*
X5766003Y1948230D01*
X5794959Y1948230D01*
X5795010Y1954936D01*
X5795314Y1959965D01*
X5796178Y1963572D01*
X5797804Y1965909D01*
X5800394Y1967230D01*
X5804255Y1967687D01*
X5809589Y1967585D01*
X5816650Y1967026D01*
X5827674Y1965604D01*
X5834583Y1962962D01*
X5838494Y1958441D01*
X5840323Y1951431D01*
X5840628Y1945792D01*
X5839815Y1940966D01*
X5837936Y1936902D01*
X5834837Y1933600D01*
X5830620Y1931060D01*
X5825236Y1929231D01*
X5818682Y1928114D01*
X5810859Y1927707D01*
X5802325Y1928266D01*
X5797499Y1930958D01*
X5795416Y1937156D01*
X5794959Y1948230D01*
X5766003Y1948230D01*
X5766003Y1858162D01*
X5780481Y1858162D01*
X5788202Y1858873D01*
X5792571Y1861921D01*
X5794502Y1868932D01*
X5794959Y1881327D01*
X5795010Y1888947D01*
X5795314Y1894636D01*
X5796178Y1898751D01*
X5797804Y1901545D01*
X5800445Y1903222D01*
X5804458Y1904085D01*
X5809996Y1904441D01*
X5817311Y1904492D01*
X5825236Y1904847D01*
X5832602Y1905914D01*
X5839358Y1907692D01*
X5845556Y1910130D01*
X5851093Y1913229D01*
X5856020Y1916938D01*
X5860237Y1921256D01*
X5863793Y1926132D01*
X5866536Y1931568D01*
X5868568Y1937512D01*
X5869838Y1943963D01*
X5870244Y1950872D01*
X5870041Y1956460D01*
X5869482Y1961591D01*
X5868517Y1966214D01*
X5867146Y1970379D01*
X5865266Y1974088D01*
X5862929Y1977389D01*
X5860034Y1980285D01*
X5856579Y1982774D01*
X5852515Y1984959D01*
X5847892Y1986737D01*
X5842558Y1988210D01*
X5836564Y1989378D01*
X5829909Y1990242D01*
X5822442Y1990852D01*
X5814263Y1991207D01*
G37*
G36*
X6188760Y1991309D02*
G01*
X6188760Y1858162D01*
X6253226Y1858264D01*
X6264757Y1858518D01*
X6273393Y1859025D01*
X6279489Y1859889D01*
X6283452Y1861159D01*
X6285636Y1862937D01*
X6286398Y1865274D01*
X6286144Y1868322D01*
X6285280Y1871065D01*
X6283706Y1873351D01*
X6281267Y1875231D01*
X6277813Y1876704D01*
X6273241Y1877923D01*
X6267297Y1878888D01*
X6259931Y1879600D01*
X6240221Y1880768D01*
X6232042Y1881479D01*
X6226149Y1882444D01*
X6222136Y1883968D01*
X6219647Y1886153D01*
X6218326Y1889252D01*
X6217818Y1893468D01*
X6217818Y1904492D01*
X6218275Y1908657D01*
X6219444Y1911705D01*
X6221628Y1913737D01*
X6225133Y1915058D01*
X6230264Y1915718D01*
X6237325Y1916023D01*
X6255156Y1916125D01*
X6261811Y1916430D01*
X6266891Y1917090D01*
X6270599Y1918106D01*
X6273088Y1919579D01*
X6274663Y1921611D01*
X6275425Y1924253D01*
X6275628Y1927656D01*
X6275425Y1931009D01*
X6274663Y1933651D01*
X6273088Y1935683D01*
X6270599Y1937156D01*
X6266891Y1938172D01*
X6261811Y1938832D01*
X6255156Y1939137D01*
X6237732Y1939289D01*
X6230823Y1939594D01*
X6225743Y1940204D01*
X6222136Y1941372D01*
X6219799Y1943100D01*
X6218478Y1945639D01*
X6217869Y1948992D01*
X6217716Y1953412D01*
X6217869Y1957781D01*
X6218580Y1961235D01*
X6220104Y1963775D01*
X6222746Y1965706D01*
X6226860Y1967026D01*
X6232702Y1967992D01*
X6240678Y1968703D01*
X6259931Y1969871D01*
X6267297Y1970633D01*
X6273241Y1971548D01*
X6277813Y1972767D01*
X6281267Y1974240D01*
X6283706Y1976120D01*
X6285280Y1978406D01*
X6286144Y1981149D01*
X6286398Y1984197D01*
X6285636Y1986534D01*
X6283452Y1988312D01*
X6279489Y1989632D01*
X6273393Y1990445D01*
X6264757Y1990953D01*
X6238443Y1991309D01*
G37*
G36*
X6298793Y1991309D02*
G01*
X6298793Y1950770D01*
X6327749Y1950770D01*
X6328308Y1960219D01*
X6330848Y1965401D01*
X6336792Y1967687D01*
X6347409Y1968144D01*
X6356146Y1967534D01*
X6362954Y1965756D01*
X6367881Y1962810D01*
X6370675Y1958746D01*
X6371844Y1953768D01*
X6371488Y1949043D01*
X6369761Y1944776D01*
X6366764Y1940966D01*
X6362598Y1937867D01*
X6357416Y1935480D01*
X6351320Y1933956D01*
X6344412Y1933397D01*
X6335674Y1934006D01*
X6330594Y1936394D01*
X6328308Y1941626D01*
X6327749Y1950770D01*
X6298793Y1950770D01*
X6298793Y1858162D01*
X6317742Y1858314D01*
X6321145Y1858873D01*
X6323736Y1860092D01*
X6325514Y1862226D01*
X6326682Y1865477D01*
X6327394Y1870049D01*
X6327698Y1876247D01*
X6327851Y1892452D01*
X6328156Y1898700D01*
X6328867Y1903323D01*
X6330137Y1906473D01*
X6332118Y1908556D01*
X6334963Y1909673D01*
X6338874Y1910181D01*
X6344005Y1910283D01*
X6351422Y1909825D01*
X6357670Y1908403D01*
X6362903Y1906016D01*
X6367018Y1902510D01*
X6370218Y1897989D01*
X6372402Y1892300D01*
X6373672Y1885391D01*
X6374587Y1867052D01*
X6376822Y1861312D01*
X6381750Y1858772D01*
X6390538Y1858162D01*
X6395923Y1858264D01*
X6399936Y1858619D01*
X6402679Y1859635D01*
X6404356Y1861616D01*
X6405118Y1864766D01*
X6405016Y1869439D01*
X6404305Y1875891D01*
X6403035Y1884527D01*
X6400952Y1895246D01*
X6398260Y1905050D01*
X6395313Y1912772D01*
X6392418Y1917446D01*
X6389776Y1921052D01*
X6389319Y1924761D01*
X6390995Y1929028D01*
X6397548Y1937664D01*
X6399377Y1941779D01*
X6400546Y1946351D01*
X6401104Y1951278D01*
X6401054Y1956358D01*
X6400393Y1961540D01*
X6399174Y1966569D01*
X6397447Y1971395D01*
X6395161Y1975866D01*
X6392418Y1979777D01*
X6389217Y1983079D01*
X6385610Y1985568D01*
X6382664Y1986686D01*
X6378448Y1987804D01*
X6366865Y1989632D01*
X6352438Y1990852D01*
X6336842Y1991309D01*
G37*
G36*
X6426250Y1991309D02*
G01*
X6426250Y1858162D01*
X6486753Y1858264D01*
X6497726Y1858518D01*
X6505905Y1859025D01*
X6511645Y1859991D01*
X6515455Y1861413D01*
X6517640Y1863496D01*
X6518656Y1866188D01*
X6518909Y1869744D01*
X6518656Y1873199D01*
X6517843Y1875840D01*
X6516217Y1877872D01*
X6513474Y1879346D01*
X6509410Y1880362D01*
X6503822Y1880971D01*
X6496456Y1881276D01*
X6476593Y1881378D01*
X6468770Y1881632D01*
X6463080Y1882292D01*
X6459270Y1883562D01*
X6456934Y1885645D01*
X6455714Y1888743D01*
X6455257Y1893011D01*
X6455257Y1904339D01*
X6455714Y1908556D01*
X6456883Y1911654D01*
X6459067Y1913737D01*
X6462522Y1915058D01*
X6467652Y1915718D01*
X6474764Y1916023D01*
X6492595Y1916125D01*
X6499250Y1916430D01*
X6504330Y1917090D01*
X6508038Y1918106D01*
X6510578Y1919579D01*
X6512102Y1921611D01*
X6512864Y1924253D01*
X6513118Y1927656D01*
X6512864Y1931009D01*
X6512102Y1933651D01*
X6510578Y1935683D01*
X6508038Y1937156D01*
X6504330Y1938172D01*
X6499250Y1938832D01*
X6492595Y1939137D01*
X6475120Y1939289D01*
X6468211Y1939543D01*
X6463080Y1940204D01*
X6459524Y1941372D01*
X6457238Y1943150D01*
X6455918Y1945741D01*
X6455308Y1949196D01*
X6455308Y1958238D01*
X6455918Y1961692D01*
X6457340Y1964283D01*
X6459829Y1966061D01*
X6463741Y1967179D01*
X6469380Y1967788D01*
X6477000Y1968093D01*
X6496456Y1968246D01*
X6503822Y1968500D01*
X6509410Y1969109D01*
X6513474Y1970125D01*
X6516217Y1971598D01*
X6517843Y1973630D01*
X6518656Y1976323D01*
X6518909Y1979726D01*
X6518656Y1983282D01*
X6517640Y1986025D01*
X6515455Y1988057D01*
X6511645Y1989480D01*
X6505905Y1990445D01*
X6497726Y1990953D01*
X6472580Y1991309D01*
G37*
G36*
X6536283Y1991309D02*
G01*
X6536283Y1968144D01*
X6582409Y1968144D01*
X6590131Y1967433D01*
X6596684Y1965248D01*
X6601866Y1961743D01*
X6605574Y1956968D01*
X6607911Y1950923D01*
X6609791Y1942846D01*
X6611061Y1933803D01*
X6611569Y1924761D01*
X6611366Y1917496D01*
X6610807Y1910994D01*
X6609842Y1905152D01*
X6608521Y1900021D01*
X6606794Y1895500D01*
X6604609Y1891690D01*
X6602018Y1888439D01*
X6599021Y1885848D01*
X6595567Y1883867D01*
X6591604Y1882444D01*
X6587236Y1881632D01*
X6582409Y1881327D01*
X6565239Y1881327D01*
X6565239Y1968144D01*
X6536283Y1968144D01*
X6536283Y1858162D01*
X6582054Y1858314D01*
X6590639Y1858721D01*
X6597700Y1859584D01*
X6603593Y1861007D01*
X6608724Y1863140D01*
X6613499Y1866138D01*
X6618325Y1870049D01*
X6623608Y1875078D01*
X6628536Y1880311D01*
X6632448Y1885035D01*
X6635394Y1889760D01*
X6637578Y1894789D01*
X6639052Y1900428D01*
X6639966Y1907032D01*
X6640372Y1915058D01*
X6640525Y1924761D01*
X6640372Y1934413D01*
X6639966Y1942439D01*
X6639052Y1949043D01*
X6637578Y1954733D01*
X6635394Y1959711D01*
X6632448Y1964436D01*
X6628536Y1969211D01*
X6623608Y1974392D01*
X6618325Y1979422D01*
X6613499Y1983333D01*
X6608724Y1986330D01*
X6603593Y1988464D01*
X6597700Y1989886D01*
X6590639Y1990750D01*
X6582054Y1991156D01*
G37*
G36*
X6710019Y1991309D02*
G01*
X6710019Y1953666D01*
X6738975Y1953666D01*
X6739636Y1961083D01*
X6742175Y1965502D01*
X6747459Y1967585D01*
X6756349Y1968144D01*
X6765239Y1967585D01*
X6770522Y1965502D01*
X6773062Y1961083D01*
X6773722Y1953666D01*
X6773062Y1946249D01*
X6770522Y1941880D01*
X6765239Y1939747D01*
X6756349Y1939188D01*
X6747459Y1939747D01*
X6742175Y1941880D01*
X6739636Y1946249D01*
X6738975Y1953666D01*
X6710019Y1953666D01*
X6710019Y1899056D01*
X6738975Y1899056D01*
X6739432Y1908759D01*
X6741820Y1913839D01*
X6747459Y1915515D01*
X6757822Y1914956D01*
X6767423Y1913432D01*
X6773418Y1910537D01*
X6776770Y1905406D01*
X6778447Y1897227D01*
X6778904Y1888540D01*
X6776821Y1883765D01*
X6770878Y1881733D01*
X6759651Y1881327D01*
X6748322Y1881784D01*
X6742125Y1884019D01*
X6739483Y1889353D01*
X6738975Y1899056D01*
X6710019Y1899056D01*
X6710019Y1858162D01*
X6760260Y1858314D01*
X6769150Y1858670D01*
X6776618Y1859330D01*
X6782765Y1860296D01*
X6787845Y1861667D01*
X6791909Y1863445D01*
X6795262Y1865630D01*
X6798005Y1868322D01*
X6802932Y1874570D01*
X6806692Y1880565D01*
X6809333Y1886407D01*
X6810857Y1892046D01*
X6811264Y1897583D01*
X6810502Y1903018D01*
X6808673Y1908403D01*
X6801916Y1920748D01*
X6800138Y1927402D01*
X6800392Y1934210D01*
X6804456Y1948637D01*
X6805117Y1955647D01*
X6804609Y1962607D01*
X6803085Y1969312D01*
X6800596Y1975408D01*
X6797192Y1980692D01*
X6793026Y1984857D01*
X6788150Y1987600D01*
X6785559Y1988362D01*
X6776923Y1989683D01*
X6765086Y1990648D01*
X6751370Y1991207D01*
G37*
G36*
X6823049Y1991309D02*
G01*
X6817359Y1991004D01*
X6812737Y1990191D01*
X6809638Y1988972D01*
X6808470Y1987499D01*
X6808876Y1986025D01*
X6811924Y1979168D01*
X6817410Y1968347D01*
X6832295Y1941017D01*
X6838238Y1929180D01*
X6842709Y1918462D01*
X6844487Y1913432D01*
X6847078Y1903780D01*
X6848551Y1894332D01*
X6848906Y1889556D01*
X6849109Y1876552D01*
X6849414Y1870252D01*
X6850075Y1865579D01*
X6851243Y1862277D01*
X6853072Y1860143D01*
X6855612Y1858873D01*
X6859016Y1858314D01*
X6863486Y1858162D01*
X6871157Y1858873D01*
X6875525Y1861718D01*
X6877507Y1868068D01*
X6878116Y1882749D01*
X6878624Y1886661D01*
X6880656Y1895500D01*
X6883908Y1905507D01*
X6888429Y1916684D01*
X6894220Y1928926D01*
X6917486Y1972767D01*
X6923836Y1986076D01*
X6924294Y1987651D01*
X6923176Y1989074D01*
X6920026Y1990242D01*
X6915403Y1991004D01*
X6909765Y1991309D01*
X6905701Y1991004D01*
X6902043Y1990140D01*
X6898741Y1988464D01*
X6895592Y1985975D01*
X6892493Y1982520D01*
X6889394Y1977999D01*
X6886092Y1972310D01*
X6877354Y1955139D01*
X6872579Y1946859D01*
X6868718Y1941271D01*
X6866381Y1939188D01*
X6864045Y1941271D01*
X6860235Y1946859D01*
X6855459Y1955139D01*
X6846671Y1972310D01*
X6843369Y1977999D01*
X6840270Y1982520D01*
X6837172Y1985975D01*
X6834073Y1988464D01*
X6830720Y1990140D01*
X6827113Y1991004D01*
G37*
G36*
X5143754Y1988616D02*
G01*
X5139944Y1988515D01*
X5129072Y1987397D01*
X5115255Y1985264D01*
X5099964Y1982368D01*
X5074767Y1976983D01*
X5055362Y1972462D01*
X5041036Y1968500D01*
X5035550Y1966569D01*
X5030978Y1964639D01*
X5027320Y1962657D01*
X5024475Y1960575D01*
X5022240Y1958339D01*
X5020665Y1955901D01*
X5019548Y1953209D01*
X5018836Y1950262D01*
X5018227Y1943303D01*
X5017871Y1930806D01*
X5018136Y1918665D01*
X5044998Y1918665D01*
X5045049Y1921002D01*
X5047132Y1921865D01*
X5050028Y1922475D01*
X5051094Y1924405D01*
X5050383Y1928012D01*
X5045049Y1939543D01*
X5045252Y1943049D01*
X5048910Y1944624D01*
X5062931Y1945436D01*
X5066842Y1946706D01*
X5068366Y1948789D01*
X5066639Y1954530D01*
X5068620Y1956003D01*
X5073548Y1956003D01*
X5089245Y1953615D01*
X5094986Y1953717D01*
X5098643Y1954885D01*
X5099964Y1957120D01*
X5100828Y1959203D01*
X5103317Y1960321D01*
X5106974Y1960422D01*
X5116220Y1958441D01*
X5119878Y1958593D01*
X5122265Y1959864D01*
X5123129Y1962150D01*
X5123738Y1964740D01*
X5125770Y1965655D01*
X5129377Y1964842D01*
X5140096Y1959813D01*
X5143652Y1959051D01*
X5145684Y1960067D01*
X5146751Y1965604D01*
X5148173Y1966518D01*
X5150764Y1965502D01*
X5154726Y1962556D01*
X5158486Y1960168D01*
X5162550Y1958746D01*
X5166360Y1958492D01*
X5172557Y1960422D01*
X5176367Y1960168D01*
X5180431Y1958746D01*
X5187442Y1954022D01*
X5190134Y1952752D01*
X5191963Y1952650D01*
X5192623Y1953869D01*
X5193588Y1954733D01*
X5196179Y1953818D01*
X5200091Y1951278D01*
X5209794Y1943303D01*
X5214315Y1940407D01*
X5217922Y1938934D01*
X5222443Y1939391D01*
X5225796Y1937054D01*
X5229809Y1932686D01*
X5234127Y1926793D01*
X5238445Y1919884D01*
X5242356Y1912518D01*
X5245557Y1905152D01*
X5247741Y1898345D01*
X5248475Y1891995D01*
X5281726Y1891995D01*
X5282184Y1896160D01*
X5283149Y1900580D01*
X5284724Y1905457D01*
X5286908Y1910943D01*
X5290261Y1918004D01*
X5294426Y1924964D01*
X5298948Y1931416D01*
X5303469Y1937004D01*
X5307634Y1941271D01*
X5311038Y1943760D01*
X5313375Y1944116D01*
X5314238Y1941931D01*
X5315153Y1941017D01*
X5317642Y1941830D01*
X5321350Y1944166D01*
X5330342Y1951583D01*
X5334000Y1953971D01*
X5336489Y1954784D01*
X5337403Y1953869D01*
X5338013Y1952650D01*
X5339740Y1952599D01*
X5342280Y1953768D01*
X5345379Y1955952D01*
X5349138Y1958238D01*
X5353558Y1959610D01*
X5358079Y1959965D01*
X5365953Y1958441D01*
X5369712Y1958949D01*
X5373065Y1960524D01*
X5375554Y1963115D01*
X5377789Y1966264D01*
X5379567Y1967331D01*
X5381040Y1966468D01*
X5382361Y1963572D01*
X5384038Y1960727D01*
X5386679Y1959610D01*
X5390540Y1960270D01*
X5400852Y1964943D01*
X5404307Y1965655D01*
X5406288Y1964740D01*
X5406898Y1962150D01*
X5407761Y1959864D01*
X5410149Y1958593D01*
X5413806Y1958441D01*
X5423052Y1960422D01*
X5426710Y1960321D01*
X5429199Y1959203D01*
X5430062Y1957120D01*
X5431383Y1954885D01*
X5435041Y1953717D01*
X5440781Y1953615D01*
X5456478Y1956003D01*
X5461406Y1956003D01*
X5463387Y1954530D01*
X5461609Y1948789D01*
X5462879Y1946706D01*
X5466334Y1945436D01*
X5478424Y1944370D01*
X5482488Y1942185D01*
X5484520Y1938070D01*
X5484876Y1931670D01*
X5484368Y1925980D01*
X5483301Y1920392D01*
X5481929Y1915515D01*
X5479084Y1908708D01*
X5478576Y1904695D01*
X5478830Y1900428D01*
X5480761Y1892655D01*
X5480456Y1889760D01*
X5478932Y1887829D01*
X5473903Y1886457D01*
X5472379Y1884527D01*
X5471972Y1881733D01*
X5473496Y1874418D01*
X5472785Y1870913D01*
X5470753Y1868017D01*
X5467604Y1866036D01*
X5464302Y1864309D01*
X5461558Y1861972D01*
X5459730Y1859432D01*
X5457952Y1853031D01*
X5455005Y1848104D01*
X5450687Y1842617D01*
X5445506Y1837080D01*
X5439867Y1831898D01*
X5434330Y1827631D01*
X5429351Y1824685D01*
X5425389Y1823567D01*
X5422747Y1823059D01*
X5421071Y1821789D01*
X5420614Y1819910D01*
X5421376Y1817674D01*
X5421680Y1815388D01*
X5419699Y1813560D01*
X5415737Y1812340D01*
X5404408Y1811426D01*
X5399684Y1810207D01*
X5396484Y1808327D01*
X5395315Y1806092D01*
X5394655Y1803400D01*
X5392775Y1801418D01*
X5389829Y1800148D01*
X5385968Y1799488D01*
X5381294Y1799488D01*
X5376062Y1799996D01*
X5370322Y1801012D01*
X5364327Y1802536D01*
X5358130Y1804466D01*
X5351983Y1806803D01*
X5345938Y1809445D01*
X5340248Y1812442D01*
X5334965Y1815642D01*
X5330291Y1819097D01*
X5326380Y1822704D01*
X5323433Y1826412D01*
X5320639Y1830832D01*
X5318861Y1834489D01*
X5318252Y1837740D01*
X5318861Y1840890D01*
X5320944Y1844344D01*
X5324602Y1848357D01*
X5337200Y1859534D01*
X5344566Y1865477D01*
X5353812Y1872386D01*
X5364378Y1879803D01*
X5386984Y1894586D01*
X5424728Y1917446D01*
X5435092Y1924557D01*
X5435854Y1925421D01*
X5435346Y1925828D01*
X5433923Y1925675D01*
X5428538Y1923999D01*
X5420309Y1920748D01*
X5409895Y1916226D01*
X5385003Y1904390D01*
X5358892Y1890928D01*
X5346903Y1884324D01*
X5323382Y1870456D01*
X5311749Y1864055D01*
X5302910Y1859788D01*
X5299964Y1858568D01*
X5298135Y1858162D01*
X5295392Y1859483D01*
X5292140Y1863039D01*
X5288737Y1868322D01*
X5285587Y1874774D01*
X5283809Y1879498D01*
X5282539Y1883867D01*
X5281879Y1887931D01*
X5281726Y1891995D01*
X5248475Y1891995D01*
X5248605Y1890877D01*
X5247589Y1883664D01*
X5244693Y1876552D01*
X5239816Y1869389D01*
X5228386Y1855266D01*
X5208219Y1870049D01*
X5199430Y1875637D01*
X5188712Y1881886D01*
X5176570Y1888642D01*
X5150154Y1902256D01*
X5124754Y1914398D01*
X5113832Y1919224D01*
X5104739Y1922881D01*
X5098186Y1925015D01*
X5096002Y1925472D01*
X5094630Y1925472D01*
X5094173Y1924964D01*
X5094884Y1924100D01*
X5100370Y1920290D01*
X5110175Y1914245D01*
X5135473Y1899615D01*
X5146344Y1892960D01*
X5157571Y1885746D01*
X5168595Y1878228D01*
X5178755Y1870913D01*
X5187492Y1864156D01*
X5198211Y1854860D01*
X5203698Y1849729D01*
X5207660Y1845360D01*
X5210251Y1841652D01*
X5211622Y1838299D01*
X5211876Y1835099D01*
X5211114Y1831848D01*
X5209489Y1828342D01*
X5206898Y1824634D01*
X5203240Y1820976D01*
X5198668Y1817471D01*
X5193334Y1814118D01*
X5187442Y1811020D01*
X5181142Y1808175D01*
X5174640Y1805635D01*
X5168138Y1803501D01*
X5161686Y1801825D01*
X5155590Y1800555D01*
X5149900Y1799843D01*
X5144871Y1799742D01*
X5140706Y1800250D01*
X5137454Y1801469D01*
X5135422Y1803400D01*
X5134711Y1806092D01*
X5133543Y1808327D01*
X5130342Y1810207D01*
X5125618Y1811426D01*
X5114290Y1812340D01*
X5110327Y1813560D01*
X5108346Y1815388D01*
X5108651Y1817674D01*
X5109413Y1819910D01*
X5108956Y1821789D01*
X5107279Y1823059D01*
X5104638Y1823567D01*
X5100929Y1824634D01*
X5096002Y1827530D01*
X5090515Y1831746D01*
X5084826Y1836775D01*
X5079542Y1842109D01*
X5075123Y1847342D01*
X5072126Y1851964D01*
X5070195Y1857756D01*
X5068011Y1860804D01*
X5064810Y1864156D01*
X5056530Y1871116D01*
X5054752Y1873504D01*
X5055565Y1874875D01*
X5062270Y1875993D01*
X5063032Y1877974D01*
X5061153Y1881581D01*
X5052212Y1892350D01*
X5050332Y1895957D01*
X5050790Y1898040D01*
X5056428Y1899361D01*
X5056886Y1901443D01*
X5055006Y1905050D01*
X5046929Y1915007D01*
X5044998Y1918665D01*
X5018136Y1918665D01*
X5018836Y1911248D01*
X5019598Y1906828D01*
X5021884Y1897938D01*
X5025390Y1888185D01*
X5030368Y1876653D01*
X5041036Y1854250D01*
X5043373Y1850085D01*
X5046472Y1845411D01*
X5050282Y1840280D01*
X5054600Y1834946D01*
X5064353Y1824228D01*
X5069484Y1819148D01*
X5074615Y1814474D01*
X5099202Y1793138D01*
X5081981Y1778660D01*
X5076901Y1774139D01*
X5072227Y1769516D01*
X5068011Y1764741D01*
X5064150Y1759813D01*
X5060696Y1754632D01*
X5057546Y1749145D01*
X5054752Y1743354D01*
X5052263Y1737207D01*
X5050078Y1730705D01*
X5048148Y1723745D01*
X5046421Y1716278D01*
X5043678Y1701952D01*
X5041471Y1694586D01*
X5072837Y1694586D01*
X5073040Y1700580D01*
X5074208Y1708505D01*
X5076291Y1717548D01*
X5078272Y1723593D01*
X5080863Y1729689D01*
X5084013Y1735632D01*
X5087670Y1741525D01*
X5091785Y1747164D01*
X5096306Y1752600D01*
X5101132Y1757680D01*
X5106314Y1762455D01*
X5111750Y1766722D01*
X5117338Y1770532D01*
X5123078Y1773834D01*
X5128920Y1776475D01*
X5137048Y1779117D01*
X5145684Y1780997D01*
X5154422Y1782114D01*
X5162651Y1782419D01*
X5169966Y1781962D01*
X5175758Y1780743D01*
X5179618Y1778812D01*
X5181041Y1776069D01*
X5180533Y1773682D01*
X5179110Y1770735D01*
X5176824Y1767230D01*
X5169966Y1759102D01*
X5164560Y1753463D01*
X5202224Y1753463D01*
X5202529Y1756918D01*
X5203342Y1760321D01*
X5204663Y1763674D01*
X5206390Y1766925D01*
X5208625Y1770125D01*
X5211165Y1773174D01*
X5214162Y1776120D01*
X5217464Y1778914D01*
X5221071Y1781505D01*
X5225034Y1783943D01*
X5229199Y1786178D01*
X5238292Y1789938D01*
X5243169Y1791462D01*
X5248148Y1792732D01*
X5253329Y1793697D01*
X5258562Y1794357D01*
X5263896Y1794662D01*
X5269331Y1794662D01*
X5274767Y1794306D01*
X5280202Y1793544D01*
X5285638Y1792427D01*
X5291023Y1790852D01*
X5296306Y1788871D01*
X5301488Y1786432D01*
X5307330Y1783232D01*
X5312613Y1779981D01*
X5317286Y1776730D01*
X5321565Y1773224D01*
X5351780Y1773224D01*
X5352694Y1775409D01*
X5354777Y1777238D01*
X5358130Y1778812D01*
X5362244Y1779828D01*
X5367070Y1780336D01*
X5372404Y1780387D01*
X5378145Y1779930D01*
X5384190Y1779117D01*
X5390286Y1777847D01*
X5396433Y1776171D01*
X5402427Y1774139D01*
X5408117Y1771802D01*
X5413400Y1769110D01*
X5418124Y1766163D01*
X5423204Y1762353D01*
X5427929Y1758289D01*
X5432348Y1753971D01*
X5436412Y1749501D01*
X5440172Y1744725D01*
X5443524Y1739747D01*
X5446623Y1734566D01*
X5449316Y1729130D01*
X5451652Y1723542D01*
X5453684Y1717700D01*
X5455310Y1711655D01*
X5456631Y1705457D01*
X5460644Y1682902D01*
X5432094Y1698904D01*
X5423560Y1704543D01*
X5413806Y1711604D01*
X5403494Y1719630D01*
X5393029Y1728216D01*
X5383123Y1736902D01*
X5369610Y1749653D01*
X5362702Y1756664D01*
X5357571Y1762353D01*
X5354116Y1766874D01*
X5352237Y1770430D01*
X5351780Y1773224D01*
X5321565Y1773224D01*
X5324957Y1770075D01*
X5327954Y1766722D01*
X5330444Y1763420D01*
X5332374Y1760118D01*
X5333746Y1756867D01*
X5334609Y1753666D01*
X5334965Y1750517D01*
X5334812Y1747418D01*
X5334152Y1744421D01*
X5332984Y1741525D01*
X5331307Y1738731D01*
X5329174Y1736089D01*
X5326532Y1733600D01*
X5323433Y1731213D01*
X5319826Y1728978D01*
X5315813Y1726946D01*
X5311292Y1725117D01*
X5306364Y1723491D01*
X5300980Y1722069D01*
X5295138Y1720850D01*
X5288889Y1719884D01*
X5282184Y1719173D01*
X5275122Y1718716D01*
X5267604Y1718513D01*
X5258104Y1718614D01*
X5249773Y1719021D01*
X5242458Y1719732D01*
X5236057Y1720850D01*
X5230368Y1722374D01*
X5225288Y1724304D01*
X5220665Y1726692D01*
X5216347Y1729587D01*
X5212384Y1732838D01*
X5209133Y1736191D01*
X5206492Y1739595D01*
X5204561Y1743049D01*
X5203190Y1746504D01*
X5202428Y1750009D01*
X5202224Y1753463D01*
X5164560Y1753463D01*
X5155285Y1744624D01*
X5143500Y1734312D01*
X5130901Y1723999D01*
X5118049Y1714246D01*
X5105704Y1705559D01*
X5094427Y1698396D01*
X5089448Y1695551D01*
X5084927Y1693316D01*
X5081016Y1691741D01*
X5077815Y1690827D01*
X5075377Y1690725D01*
X5073751Y1691487D01*
X5072837Y1694586D01*
X5041471Y1694586D01*
X5039766Y1690065D01*
X5037175Y1684477D01*
X5034076Y1679092D01*
X5030470Y1673910D01*
X5026406Y1668881D01*
X5017871Y1659737D01*
X5014163Y1655318D01*
X5010810Y1650746D01*
X5007711Y1645920D01*
X5004917Y1640992D01*
X5002428Y1635861D01*
X5000193Y1630629D01*
X4998313Y1625295D01*
X4996688Y1619859D01*
X4995367Y1614322D01*
X4994351Y1608734D01*
X4993640Y1603095D01*
X4993233Y1597406D01*
X4993202Y1593951D01*
X5020360Y1593951D01*
X5020614Y1600403D01*
X5021427Y1606651D01*
X5022951Y1612798D01*
X5025288Y1619097D01*
X5028234Y1625498D01*
X5031740Y1631746D01*
X5035651Y1637741D01*
X5039817Y1643329D01*
X5044186Y1648358D01*
X5048605Y1652727D01*
X5052974Y1656232D01*
X5057140Y1658721D01*
X5061051Y1660093D01*
X5064506Y1660194D01*
X5066944Y1659331D01*
X5069027Y1657756D01*
X5070754Y1655318D01*
X5072227Y1651965D01*
X5073396Y1647647D01*
X5074361Y1642160D01*
X5075072Y1635556D01*
X5075834Y1621637D01*
X5075686Y1616964D01*
X5104130Y1616964D01*
X5104384Y1626616D01*
X5105755Y1636369D01*
X5108244Y1646021D01*
X5109921Y1650796D01*
X5111902Y1655521D01*
X5114188Y1660194D01*
X5116728Y1664716D01*
X5119624Y1669135D01*
X5122773Y1673453D01*
X5126228Y1677568D01*
X5129936Y1681530D01*
X5134000Y1685340D01*
X5138369Y1688947D01*
X5143042Y1692351D01*
X5148021Y1695450D01*
X5153304Y1698345D01*
X5159248Y1700987D01*
X5165648Y1703019D01*
X5172354Y1704441D01*
X5179212Y1705356D01*
X5186172Y1705660D01*
X5193131Y1705406D01*
X5199938Y1704644D01*
X5206441Y1703324D01*
X5212638Y1701444D01*
X5218328Y1699056D01*
X5223459Y1696161D01*
X5227878Y1692808D01*
X5231638Y1689100D01*
X5234990Y1685137D01*
X5237988Y1681022D01*
X5240578Y1676755D01*
X5242763Y1672285D01*
X5244642Y1667662D01*
X5246116Y1662938D01*
X5247182Y1658112D01*
X5247995Y1653235D01*
X5248402Y1648256D01*
X5248487Y1644040D01*
X5284470Y1644040D01*
X5284571Y1648968D01*
X5284927Y1653844D01*
X5285638Y1658670D01*
X5286705Y1663446D01*
X5288076Y1668119D01*
X5289804Y1672742D01*
X5291886Y1677212D01*
X5294325Y1681581D01*
X5297119Y1685848D01*
X5300268Y1689912D01*
X5304790Y1695043D01*
X5309006Y1699107D01*
X5313121Y1702206D01*
X5317439Y1704492D01*
X5322214Y1706067D01*
X5327802Y1707032D01*
X5334355Y1707540D01*
X5342280Y1707692D01*
X5348528Y1707489D01*
X5354777Y1706880D01*
X5360974Y1705914D01*
X5366969Y1704593D01*
X5372760Y1702968D01*
X5378246Y1701038D01*
X5383276Y1698802D01*
X5387848Y1696364D01*
X5391759Y1693722D01*
X5395620Y1690522D01*
X5399430Y1686915D01*
X5403189Y1682902D01*
X5410301Y1673910D01*
X5416702Y1663903D01*
X5419598Y1658721D01*
X5422188Y1653489D01*
X5426405Y1643024D01*
X5427929Y1637893D01*
X5429097Y1632915D01*
X5429663Y1629156D01*
X5453329Y1629156D01*
X5453583Y1640586D01*
X5453938Y1645513D01*
X5455158Y1653286D01*
X5456072Y1655876D01*
X5457088Y1657553D01*
X5460187Y1659940D01*
X5463590Y1661160D01*
X5467248Y1661160D01*
X5471210Y1660042D01*
X5475528Y1657705D01*
X5480151Y1654200D01*
X5485079Y1649475D01*
X5490362Y1643583D01*
X5493867Y1638909D01*
X5496966Y1633728D01*
X5499557Y1628139D01*
X5501792Y1622196D01*
X5503519Y1615948D01*
X5504840Y1609547D01*
X5505704Y1602943D01*
X5506110Y1596288D01*
X5506110Y1589684D01*
X5505602Y1583080D01*
X5504688Y1576679D01*
X5503316Y1570431D01*
X5501487Y1564538D01*
X5499150Y1558950D01*
X5496407Y1553768D01*
X5493207Y1549146D01*
X5489498Y1544828D01*
X5486044Y1541576D01*
X5482793Y1539443D01*
X5479694Y1538376D01*
X5476798Y1538478D01*
X5474055Y1539697D01*
X5471464Y1542034D01*
X5468975Y1545590D01*
X5466537Y1550263D01*
X5464200Y1556156D01*
X5461914Y1563268D01*
X5459679Y1571548D01*
X5457291Y1583080D01*
X5455412Y1595983D01*
X5454142Y1609547D01*
X5453430Y1622806D01*
X5453329Y1629156D01*
X5429663Y1629156D01*
X5430062Y1623720D01*
X5429758Y1617065D01*
X5428742Y1610614D01*
X5427116Y1604314D01*
X5424932Y1598218D01*
X5422239Y1592427D01*
X5418988Y1586941D01*
X5415280Y1581810D01*
X5411114Y1577035D01*
X5406542Y1572717D01*
X5401614Y1568856D01*
X5396382Y1565452D01*
X5390845Y1562608D01*
X5385003Y1560322D01*
X5379008Y1558645D01*
X5372811Y1557578D01*
X5366410Y1557223D01*
X5361127Y1557426D01*
X5355945Y1557985D01*
X5350865Y1558950D01*
X5345887Y1560220D01*
X5341061Y1561795D01*
X5336387Y1563725D01*
X5331866Y1565960D01*
X5327497Y1568450D01*
X5323281Y1571244D01*
X5319268Y1574241D01*
X5315407Y1577492D01*
X5308295Y1584655D01*
X5304993Y1588516D01*
X5299100Y1596796D01*
X5294122Y1605584D01*
X5291988Y1610156D01*
X5290108Y1614830D01*
X5288483Y1619605D01*
X5287111Y1624431D01*
X5285994Y1629308D01*
X5284673Y1639112D01*
X5284470Y1644040D01*
X5248487Y1644040D01*
X5248249Y1638147D01*
X5247741Y1633118D01*
X5246878Y1628038D01*
X5244287Y1617980D01*
X5242560Y1613052D01*
X5240578Y1608175D01*
X5238292Y1603400D01*
X5233009Y1594256D01*
X5229961Y1589887D01*
X5223256Y1581708D01*
X5219547Y1577898D01*
X5215636Y1574292D01*
X5211521Y1570990D01*
X5207203Y1567891D01*
X5202732Y1565097D01*
X5198059Y1562608D01*
X5193233Y1560423D01*
X5188204Y1558594D01*
X5183073Y1557070D01*
X5177739Y1555953D01*
X5172303Y1555242D01*
X5166766Y1554886D01*
X5161178Y1554988D01*
X5155895Y1555445D01*
X5150815Y1556308D01*
X5145989Y1557528D01*
X5141468Y1559052D01*
X5137150Y1560982D01*
X5133086Y1563166D01*
X5129326Y1565656D01*
X5125770Y1568399D01*
X5122519Y1571447D01*
X5119522Y1574698D01*
X5116728Y1578203D01*
X5112054Y1585772D01*
X5110124Y1589836D01*
X5108448Y1594053D01*
X5107025Y1598422D01*
X5105908Y1602943D01*
X5105044Y1607515D01*
X5104434Y1612188D01*
X5104130Y1616964D01*
X5075686Y1616964D01*
X5075174Y1608480D01*
X5073396Y1594358D01*
X5072176Y1587195D01*
X5069128Y1573225D01*
X5065471Y1560322D01*
X5061407Y1549400D01*
X5059273Y1544878D01*
X5057140Y1541170D01*
X5055006Y1538376D01*
X5052923Y1536547D01*
X5049824Y1535328D01*
X5046675Y1535379D01*
X5043525Y1536547D01*
X5040376Y1538782D01*
X5037277Y1541881D01*
X5034280Y1545844D01*
X5031486Y1550517D01*
X5028844Y1555750D01*
X5026507Y1561490D01*
X5024475Y1567637D01*
X5022799Y1574088D01*
X5021529Y1580642D01*
X5020716Y1587347D01*
X5020360Y1593951D01*
X4993202Y1593951D01*
X4993386Y1586026D01*
X4993894Y1580337D01*
X4994706Y1574698D01*
X4995875Y1569059D01*
X4997348Y1563522D01*
X4999126Y1558086D01*
X5001209Y1552702D01*
X5003647Y1547469D01*
X5006340Y1542338D01*
X5011318Y1534007D01*
X5013604Y1529384D01*
X5018786Y1517040D01*
X5024374Y1502105D01*
X5027099Y1494028D01*
X5058460Y1494028D01*
X5058867Y1498854D01*
X5059781Y1503476D01*
X5061153Y1507845D01*
X5063083Y1511960D01*
X5065522Y1515719D01*
X5068519Y1519224D01*
X5073345Y1523339D01*
X5078323Y1526133D01*
X5083657Y1527505D01*
X5089448Y1527556D01*
X5095900Y1526133D01*
X5103164Y1523339D01*
X5111394Y1519072D01*
X5120741Y1513332D01*
X5126075Y1509725D01*
X5135930Y1502003D01*
X5144719Y1493672D01*
X5147725Y1490319D01*
X5189016Y1490319D01*
X5189016Y1494790D01*
X5189372Y1499362D01*
X5190083Y1504035D01*
X5191150Y1508810D01*
X5192572Y1513636D01*
X5194757Y1519580D01*
X5197246Y1525168D01*
X5200091Y1530350D01*
X5203291Y1535125D01*
X5206796Y1539595D01*
X5210606Y1543608D01*
X5214721Y1547317D01*
X5219192Y1550568D01*
X5223967Y1553514D01*
X5229047Y1556004D01*
X5234432Y1558137D01*
X5240172Y1559915D01*
X5246217Y1561287D01*
X5252516Y1562252D01*
X5259171Y1562811D01*
X5266131Y1563014D01*
X5276138Y1562912D01*
X5284216Y1562404D01*
X5290921Y1561388D01*
X5296763Y1559560D01*
X5302148Y1556766D01*
X5307584Y1552803D01*
X5313629Y1547469D01*
X5320690Y1540560D01*
X5325364Y1535684D01*
X5329428Y1530858D01*
X5333034Y1526032D01*
X5336082Y1521256D01*
X5338572Y1516481D01*
X5340553Y1511706D01*
X5342026Y1506880D01*
X5342940Y1502054D01*
X5343398Y1497126D01*
X5343296Y1492199D01*
X5342636Y1487170D01*
X5341518Y1482090D01*
X5339892Y1476857D01*
X5337708Y1471574D01*
X5335016Y1466138D01*
X5331866Y1460601D01*
X5329021Y1456283D01*
X5326024Y1452270D01*
X5322824Y1448562D01*
X5319471Y1445107D01*
X5315966Y1442008D01*
X5312308Y1439164D01*
X5308498Y1436573D01*
X5300624Y1432255D01*
X5296509Y1430477D01*
X5289271Y1428089D01*
X5350611Y1428089D01*
X5350865Y1432864D01*
X5351526Y1437792D01*
X5352643Y1442974D01*
X5354116Y1448257D01*
X5355996Y1453642D01*
X5358231Y1459128D01*
X5360771Y1464665D01*
X5366816Y1475790D01*
X5370220Y1481328D01*
X5377840Y1492148D01*
X5386222Y1502511D01*
X5395315Y1512112D01*
X5400040Y1516532D01*
X5404866Y1520698D01*
X5409793Y1524558D01*
X5414772Y1528114D01*
X5419750Y1531264D01*
X5424779Y1534007D01*
X5429808Y1536344D01*
X5434787Y1538274D01*
X5439714Y1539646D01*
X5443118Y1538782D01*
X5449824Y1536395D01*
X5453024Y1534464D01*
X5455970Y1531416D01*
X5458663Y1527352D01*
X5461000Y1522374D01*
X5463032Y1516684D01*
X5464657Y1510385D01*
X5465927Y1503629D01*
X5466740Y1496568D01*
X5467096Y1489354D01*
X5466943Y1482090D01*
X5466232Y1474927D01*
X5465013Y1468018D01*
X5463641Y1462989D01*
X5461863Y1458061D01*
X5459730Y1453184D01*
X5457240Y1448511D01*
X5454446Y1443939D01*
X5451398Y1439519D01*
X5448046Y1435252D01*
X5444439Y1431137D01*
X5440629Y1427226D01*
X5432501Y1420012D01*
X5423763Y1413611D01*
X5419293Y1410817D01*
X5410098Y1405940D01*
X5400954Y1402232D01*
X5396382Y1400810D01*
X5391912Y1399692D01*
X5387492Y1398930D01*
X5383225Y1398473D01*
X5379110Y1398371D01*
X5375148Y1398676D01*
X5371388Y1399286D01*
X5367883Y1400352D01*
X5364581Y1401775D01*
X5361533Y1403604D01*
X5358841Y1405890D01*
X5356453Y1408633D01*
X5354370Y1411782D01*
X5352694Y1415389D01*
X5351526Y1419352D01*
X5350814Y1423568D01*
X5350611Y1428089D01*
X5289271Y1428089D01*
X5283758Y1426768D01*
X5275021Y1425498D01*
X5270652Y1425194D01*
X5261813Y1425346D01*
X5253075Y1426413D01*
X5248757Y1427226D01*
X5240274Y1429562D01*
X5236159Y1430985D01*
X5228234Y1434490D01*
X5220716Y1438706D01*
X5217160Y1441094D01*
X5210556Y1446377D01*
X5204663Y1452321D01*
X5201970Y1455521D01*
X5199532Y1458823D01*
X5197297Y1462328D01*
X5195316Y1465935D01*
X5192064Y1473606D01*
X5190896Y1477619D01*
X5189982Y1481734D01*
X5189321Y1486001D01*
X5189016Y1490319D01*
X5147725Y1490319D01*
X5152390Y1484731D01*
X5155793Y1480058D01*
X5158943Y1475232D01*
X5161788Y1470304D01*
X5164328Y1465275D01*
X5166563Y1460093D01*
X5168544Y1454810D01*
X5170220Y1449425D01*
X5171592Y1443939D01*
X5172608Y1438300D01*
X5173522Y1431137D01*
X5173726Y1424787D01*
X5173268Y1419250D01*
X5172100Y1414526D01*
X5170220Y1410563D01*
X5167528Y1407363D01*
X5164074Y1404924D01*
X5159806Y1403146D01*
X5154676Y1402080D01*
X5148681Y1401622D01*
X5141823Y1401826D01*
X5134000Y1402638D01*
X5128463Y1403654D01*
X5123027Y1405178D01*
X5117693Y1407210D01*
X5112461Y1409700D01*
X5107330Y1412595D01*
X5102402Y1415846D01*
X5097576Y1419504D01*
X5093004Y1423416D01*
X5088585Y1427683D01*
X5084419Y1432153D01*
X5080508Y1436878D01*
X5076799Y1441805D01*
X5073396Y1446834D01*
X5070348Y1452016D01*
X5067554Y1457299D01*
X5065115Y1462633D01*
X5062982Y1468018D01*
X5061254Y1473352D01*
X5059934Y1478686D01*
X5059019Y1483918D01*
X5058511Y1489049D01*
X5058460Y1494028D01*
X5027099Y1494028D01*
X5032248Y1478026D01*
X5037836Y1461617D01*
X5043576Y1446428D01*
X5048656Y1434236D01*
X5051958Y1427784D01*
X5055565Y1423009D01*
X5060594Y1417675D01*
X5066893Y1411782D01*
X5074462Y1405432D01*
X5083149Y1398676D01*
X5092852Y1391564D01*
X5103571Y1384147D01*
X5115204Y1376527D01*
X5129457Y1367637D01*
X5193944Y1367637D01*
X5193944Y1370380D01*
X5194554Y1373073D01*
X5195824Y1375613D01*
X5197652Y1378102D01*
X5200040Y1380439D01*
X5202936Y1382725D01*
X5206339Y1384858D01*
X5210149Y1386840D01*
X5214366Y1388719D01*
X5223865Y1392072D01*
X5234533Y1394815D01*
X5246014Y1396898D01*
X5258155Y1398219D01*
X5270500Y1398828D01*
X5282844Y1398625D01*
X5288889Y1398219D01*
X5294884Y1397558D01*
X5306263Y1395526D01*
X5311648Y1394155D01*
X5316778Y1392529D01*
X5321604Y1390650D01*
X5326075Y1388516D01*
X5330139Y1386078D01*
X5333796Y1383334D01*
X5336540Y1380439D01*
X5338368Y1377391D01*
X5339181Y1374190D01*
X5339130Y1370888D01*
X5338114Y1367434D01*
X5336133Y1363827D01*
X5333238Y1360068D01*
X5329377Y1356207D01*
X5324602Y1352143D01*
X5318861Y1347978D01*
X5312206Y1343609D01*
X5306872Y1340713D01*
X5301132Y1338224D01*
X5295087Y1336192D01*
X5288788Y1334617D01*
X5282285Y1333449D01*
X5275580Y1332738D01*
X5268772Y1332382D01*
X5261914Y1332484D01*
X5255107Y1332992D01*
X5248351Y1333855D01*
X5241645Y1335125D01*
X5235194Y1336700D01*
X5228945Y1338681D01*
X5222951Y1341018D01*
X5217312Y1343710D01*
X5212080Y1346708D01*
X5207254Y1350060D01*
X5202986Y1353718D01*
X5199278Y1357680D01*
X5196128Y1361948D01*
X5194706Y1364843D01*
X5193944Y1367637D01*
X5129457Y1367637D01*
X5154523Y1352956D01*
X5178044Y1339748D01*
X5213604Y1318920D01*
X5219954Y1315872D01*
X5226304Y1313434D01*
X5232908Y1311503D01*
X5239918Y1310132D01*
X5247640Y1309217D01*
X5256225Y1308658D01*
X5273090Y1308506D01*
X5285384Y1309065D01*
X5290667Y1309674D01*
X5295544Y1310538D01*
X5300167Y1311757D01*
X5304637Y1313230D01*
X5309158Y1315110D01*
X5313781Y1317447D01*
X5323890Y1323441D01*
X5335574Y1331112D01*
X5347970Y1338884D01*
X5359806Y1345844D01*
X5369560Y1351178D01*
X5378450Y1355344D01*
X5389626Y1361236D01*
X5401513Y1368247D01*
X5413806Y1376019D01*
X5426049Y1384350D01*
X5437835Y1392936D01*
X5448757Y1401470D01*
X5458460Y1409598D01*
X5466486Y1417116D01*
X5472430Y1423720D01*
X5474512Y1426565D01*
X5477205Y1431086D01*
X5483148Y1443431D01*
X5489295Y1458569D01*
X5494782Y1474673D01*
X5499455Y1490370D01*
X5502148Y1498498D01*
X5508294Y1514652D01*
X5511546Y1522171D01*
X5514797Y1529029D01*
X5517946Y1534972D01*
X5523534Y1544167D01*
X5525973Y1548790D01*
X5528106Y1553616D01*
X5529935Y1558645D01*
X5531459Y1563878D01*
X5532729Y1569212D01*
X5533694Y1574698D01*
X5534355Y1580286D01*
X5534761Y1585976D01*
X5534863Y1591665D01*
X5534660Y1597456D01*
X5533390Y1608988D01*
X5532374Y1614728D01*
X5531002Y1620418D01*
X5529376Y1626006D01*
X5527446Y1631492D01*
X5525262Y1636877D01*
X5522772Y1642110D01*
X5519978Y1647189D01*
X5513781Y1656943D01*
X5507380Y1665427D01*
X5501589Y1671726D01*
X5497169Y1674875D01*
X5493562Y1677924D01*
X5490108Y1683664D01*
X5487162Y1691386D01*
X5485130Y1700174D01*
X5484012Y1706321D01*
X5482590Y1712569D01*
X5478932Y1724964D01*
X5474462Y1737055D01*
X5469229Y1748485D01*
X5466384Y1753870D01*
X5460390Y1763623D01*
X5457291Y1767941D01*
X5454142Y1771853D01*
X5450941Y1775307D01*
X5447741Y1778203D01*
X5444591Y1780539D01*
X5429758Y1790293D01*
X5460695Y1820824D01*
X5468315Y1829358D01*
X5475782Y1838502D01*
X5482742Y1847900D01*
X5488736Y1856892D01*
X5493410Y1865122D01*
X5495188Y1868728D01*
X5497779Y1875028D01*
X5500116Y1881682D01*
X5502198Y1888591D01*
X5504027Y1895652D01*
X5506923Y1910029D01*
X5508701Y1923999D01*
X5509158Y1930603D01*
X5509310Y1936851D01*
X5509107Y1942642D01*
X5508650Y1947875D01*
X5507837Y1952498D01*
X5506669Y1956409D01*
X5505196Y1959457D01*
X5503367Y1961591D01*
X5500725Y1963166D01*
X5496153Y1964994D01*
X5482437Y1969465D01*
X5464098Y1974342D01*
X5443169Y1979117D01*
X5428488Y1981860D01*
X5414213Y1983841D01*
X5400497Y1985162D01*
X5387238Y1985721D01*
X5374538Y1985568D01*
X5362397Y1984654D01*
X5356555Y1983993D01*
X5345328Y1982063D01*
X5334660Y1979422D01*
X5324703Y1976120D01*
X5315407Y1972106D01*
X5310987Y1969871D01*
X5302758Y1964842D01*
X5295239Y1959203D01*
X5291734Y1956104D01*
X5285384Y1949399D01*
X5282488Y1945843D01*
X5277307Y1938172D01*
X5264099Y1916023D01*
X5250078Y1937359D01*
X5243626Y1946097D01*
X5240121Y1950161D01*
X5236362Y1954022D01*
X5232450Y1957628D01*
X5228336Y1961032D01*
X5224018Y1964232D01*
X5219496Y1967230D01*
X5214823Y1969973D01*
X5209946Y1972513D01*
X5204917Y1974799D01*
X5194300Y1978710D01*
X5182971Y1981657D01*
X5146294Y1988413D01*
G37*
G36*
X6542074Y1788718D02*
G01*
X6542074Y1616710D01*
X6594195Y1616710D01*
X6594297Y1625904D01*
X6595313Y1642313D01*
X6596125Y1649272D01*
X6597142Y1655267D01*
X6598310Y1660143D01*
X6599631Y1663750D01*
X6601155Y1666036D01*
X6605320Y1669034D01*
X6610756Y1671116D01*
X6617055Y1672386D01*
X6623659Y1672742D01*
X6630212Y1672285D01*
X6636258Y1670964D01*
X6641388Y1668780D01*
X6645097Y1665732D01*
X6647281Y1662480D01*
X6649313Y1658213D01*
X6651142Y1653184D01*
X6652768Y1647443D01*
X6654139Y1641195D01*
X6655257Y1634591D01*
X6656070Y1627682D01*
X6656628Y1620723D01*
X6656831Y1613814D01*
X6656679Y1607007D01*
X6656222Y1600555D01*
X6655308Y1594612D01*
X6653834Y1588516D01*
X6651752Y1583029D01*
X6649110Y1578203D01*
X6646011Y1574088D01*
X6642455Y1570583D01*
X6638493Y1567840D01*
X6634175Y1565808D01*
X6629501Y1564589D01*
X6624574Y1564132D01*
X6619443Y1564487D01*
X6614109Y1565706D01*
X6608673Y1567738D01*
X6604152Y1570024D01*
X6600698Y1572463D01*
X6598158Y1575511D01*
X6596329Y1579727D01*
X6595211Y1585468D01*
X6594551Y1593240D01*
X6594246Y1603502D01*
X6594195Y1616710D01*
X6542074Y1616710D01*
X6542074Y1528318D01*
X6565239Y1528318D01*
X6576314Y1528775D01*
X6583425Y1530350D01*
X6587236Y1533296D01*
X6588404Y1537868D01*
X6588658Y1542897D01*
X6589979Y1544574D01*
X6593128Y1542897D01*
X6603187Y1534515D01*
X6607809Y1531569D01*
X6612686Y1529181D01*
X6617817Y1527251D01*
X6623100Y1525879D01*
X6628587Y1524965D01*
X6634175Y1524508D01*
X6639814Y1524558D01*
X6645452Y1525016D01*
X6651040Y1525981D01*
X6656628Y1527352D01*
X6662064Y1529181D01*
X6667347Y1531416D01*
X6672427Y1534058D01*
X6677253Y1537157D01*
X6681825Y1540611D01*
X6686042Y1544472D01*
X6689902Y1548688D01*
X6693306Y1553260D01*
X6696252Y1558239D01*
X6698234Y1562404D01*
X6699961Y1567180D01*
X6701536Y1572412D01*
X6702907Y1578102D01*
X6704990Y1590548D01*
X6706209Y1603908D01*
X6706666Y1617827D01*
X6706616Y1624787D01*
X6705803Y1638503D01*
X6704177Y1651406D01*
X6703059Y1657451D01*
X6701739Y1663141D01*
X6700215Y1668322D01*
X6698488Y1673047D01*
X6696557Y1677212D01*
X6693763Y1681988D01*
X6690563Y1686458D01*
X6687058Y1690624D01*
X6683197Y1694484D01*
X6679082Y1697989D01*
X6674764Y1701190D01*
X6670192Y1703984D01*
X6665417Y1706473D01*
X6660540Y1708607D01*
X6655562Y1710334D01*
X6650481Y1711655D01*
X6645402Y1712569D01*
X6640271Y1713128D01*
X6635191Y1713230D01*
X6630162Y1712925D01*
X6625183Y1712163D01*
X6620408Y1710943D01*
X6615734Y1709267D01*
X6611264Y1707134D01*
X6607048Y1704492D01*
X6594195Y1695500D01*
X6594195Y1788718D01*
G37*
G36*
X7665974Y1788718D02*
G01*
X7659420Y1788414D01*
X7654696Y1787652D01*
X7651546Y1786178D01*
X7649667Y1783689D01*
X7648651Y1780032D01*
X7648295Y1774952D01*
X7648244Y1747570D01*
X7680553Y1749958D01*
X7686497Y1750771D01*
X7690916Y1751939D01*
X7694117Y1753616D01*
X7696301Y1756105D01*
X7697724Y1759508D01*
X7698638Y1764030D01*
X7699857Y1776120D01*
X7699908Y1780793D01*
X7699248Y1784096D01*
X7697520Y1786331D01*
X7694523Y1787702D01*
X7689900Y1788414D01*
X7683398Y1788718D01*
G37*
G36*
X5766003Y1771396D02*
G01*
X5766003Y1730857D01*
X5858560Y1730756D01*
X5865876Y1730349D01*
X5871921Y1729587D01*
X5876848Y1728419D01*
X5880963Y1726742D01*
X5884367Y1724507D01*
X5887364Y1721612D01*
X5890158Y1718005D01*
X5893714Y1712417D01*
X5896406Y1707134D01*
X5898235Y1702054D01*
X5899200Y1697278D01*
X5899353Y1692757D01*
X5898642Y1688592D01*
X5897168Y1684731D01*
X5894882Y1681225D01*
X5891834Y1678076D01*
X5888024Y1675282D01*
X5883402Y1672894D01*
X5878068Y1670862D01*
X5872022Y1669288D01*
X5865215Y1668119D01*
X5857748Y1667459D01*
X5849569Y1667205D01*
X5818124Y1667205D01*
X5818124Y1730857D01*
X5766003Y1730857D01*
X5766003Y1528318D01*
X5818124Y1528318D01*
X5818124Y1628139D01*
X5857849Y1624736D01*
X5864250Y1623822D01*
X5869940Y1622755D01*
X5875020Y1621434D01*
X5879541Y1619808D01*
X5883452Y1617878D01*
X5886856Y1615643D01*
X5889802Y1612950D01*
X5892241Y1609902D01*
X5894273Y1606397D01*
X5895898Y1602384D01*
X5897168Y1597863D01*
X5898134Y1592783D01*
X5898743Y1587144D01*
X5899099Y1580896D01*
X5899251Y1564284D01*
X5899556Y1556004D01*
X5900166Y1549146D01*
X5901182Y1543507D01*
X5902655Y1538935D01*
X5904738Y1535430D01*
X5907481Y1532737D01*
X5911037Y1530807D01*
X5915406Y1529537D01*
X5920790Y1528775D01*
X5927191Y1528419D01*
X5943549Y1528368D01*
X5950204Y1528572D01*
X5954979Y1529130D01*
X5958027Y1529994D01*
X5959602Y1531416D01*
X5959856Y1533398D01*
X5959043Y1536039D01*
X5956096Y1542288D01*
X5954979Y1545945D01*
X5953963Y1550314D01*
X5952337Y1560576D01*
X5951423Y1571802D01*
X5951067Y1585264D01*
X5950305Y1592834D01*
X5949086Y1600098D01*
X5947460Y1606956D01*
X5945378Y1613357D01*
X5942888Y1619300D01*
X5940094Y1624685D01*
X5936894Y1629460D01*
X5933440Y1633626D01*
X5929680Y1637030D01*
X5925616Y1639671D01*
X5921349Y1641449D01*
X5914339Y1643938D01*
X5912307Y1646021D01*
X5915406Y1648866D01*
X5923991Y1653539D01*
X5927547Y1655724D01*
X5930950Y1658467D01*
X5934100Y1661668D01*
X5937046Y1665376D01*
X5939739Y1669491D01*
X5942177Y1673961D01*
X5944260Y1678838D01*
X5946038Y1684070D01*
X5947918Y1690725D01*
X5949188Y1696516D01*
X5949746Y1701698D01*
X5949645Y1706524D01*
X5948832Y1711401D01*
X5947308Y1716532D01*
X5945022Y1722221D01*
X5939383Y1733753D01*
X5936691Y1738325D01*
X5933897Y1742490D01*
X5930849Y1746351D01*
X5927598Y1749856D01*
X5924092Y1753057D01*
X5920333Y1755952D01*
X5916168Y1758543D01*
X5911697Y1760829D01*
X5906770Y1762861D01*
X5901436Y1764690D01*
X5895644Y1766214D01*
X5889345Y1767535D01*
X5875121Y1769516D01*
X5858408Y1770735D01*
X5839053Y1771294D01*
G37*
G36*
X7428179Y1771396D02*
G01*
X7428179Y1731416D01*
X7480300Y1731416D01*
X7527493Y1729079D01*
X7536230Y1728317D01*
X7542987Y1727250D01*
X7548118Y1725726D01*
X7552029Y1723593D01*
X7555077Y1720697D01*
X7557719Y1716836D01*
X7560259Y1711960D01*
X7562799Y1705864D01*
X7564526Y1700022D01*
X7565440Y1694434D01*
X7565593Y1689150D01*
X7564932Y1684223D01*
X7563561Y1679549D01*
X7561427Y1675282D01*
X7558582Y1671370D01*
X7555026Y1667814D01*
X7550759Y1664716D01*
X7545831Y1662023D01*
X7540294Y1659788D01*
X7534046Y1657959D01*
X7527239Y1656689D01*
X7519771Y1655876D01*
X7511745Y1655622D01*
X7480300Y1655622D01*
X7480300Y1731416D01*
X7428179Y1731416D01*
X7428179Y1528318D01*
X7480300Y1528318D01*
X7480300Y1613611D01*
X7531150Y1616964D01*
X7545628Y1618792D01*
X7552334Y1620062D01*
X7564628Y1623161D01*
X7570266Y1625092D01*
X7575550Y1627174D01*
X7580528Y1629511D01*
X7585100Y1632102D01*
X7589367Y1634896D01*
X7593279Y1637893D01*
X7596886Y1641144D01*
X7600188Y1644650D01*
X7603083Y1648409D01*
X7605725Y1652371D01*
X7608011Y1656588D01*
X7609992Y1661058D01*
X7611668Y1665782D01*
X7613040Y1670761D01*
X7614107Y1675993D01*
X7614818Y1681480D01*
X7615275Y1687220D01*
X7615428Y1693265D01*
X7615174Y1700428D01*
X7614412Y1707286D01*
X7613091Y1713839D01*
X7611262Y1720088D01*
X7608874Y1726031D01*
X7605979Y1731721D01*
X7602524Y1737106D01*
X7598511Y1742186D01*
X7593990Y1747062D01*
X7588859Y1751634D01*
X7583220Y1755952D01*
X7576972Y1760067D01*
X7573162Y1762252D01*
X7569200Y1764131D01*
X7565034Y1765807D01*
X7560513Y1767179D01*
X7555484Y1768297D01*
X7549743Y1769211D01*
X7543241Y1769973D01*
X7527188Y1770888D01*
X7506106Y1771294D01*
G37*
G36*
X6443218Y1713534D02*
G01*
X6437884Y1713382D01*
X6432550Y1712671D01*
X6427266Y1711452D01*
X6422136Y1709724D01*
X6417106Y1707438D01*
X6404864Y1700123D01*
X6400342Y1698599D01*
X6397498Y1700123D01*
X6395262Y1704593D01*
X6392418Y1708404D01*
X6387388Y1711198D01*
X6380327Y1712925D01*
X6371386Y1713484D01*
X6350914Y1713484D01*
X6350914Y1617929D01*
X6396685Y1617929D01*
X6396736Y1625193D01*
X6397091Y1632356D01*
X6397802Y1639214D01*
X6398869Y1645666D01*
X6400241Y1651507D01*
X6401917Y1656588D01*
X6404000Y1660753D01*
X6406388Y1663903D01*
X6411671Y1668068D01*
X6417513Y1670913D01*
X6423761Y1672386D01*
X6430111Y1672539D01*
X6436360Y1671370D01*
X6442252Y1668881D01*
X6447536Y1665122D01*
X6451955Y1660143D01*
X6454140Y1656384D01*
X6456019Y1651863D01*
X6457594Y1646732D01*
X6458915Y1641093D01*
X6459880Y1634998D01*
X6460591Y1628648D01*
X6460998Y1622094D01*
X6461099Y1615440D01*
X6460896Y1608886D01*
X6460388Y1602435D01*
X6459626Y1596288D01*
X6458559Y1590548D01*
X6457188Y1585264D01*
X6455562Y1580591D01*
X6453632Y1576679D01*
X6451396Y1573631D01*
X6446672Y1569262D01*
X6441490Y1566113D01*
X6436055Y1564182D01*
X6430365Y1563471D01*
X6424574Y1563928D01*
X6418834Y1565605D01*
X6413246Y1568500D01*
X6407861Y1572615D01*
X6405372Y1575562D01*
X6403187Y1579626D01*
X6401308Y1584604D01*
X6399733Y1590344D01*
X6398514Y1596694D01*
X6397599Y1603502D01*
X6396990Y1610614D01*
X6396685Y1617929D01*
X6350914Y1617929D01*
X6350914Y1458874D01*
X6397244Y1458874D01*
X6397244Y1540154D01*
X6415532Y1530705D01*
X6420510Y1528419D01*
X6425590Y1526540D01*
X6430670Y1525117D01*
X6435750Y1524152D01*
X6440830Y1523593D01*
X6445859Y1523492D01*
X6450888Y1523847D01*
X6455867Y1524609D01*
X6460794Y1525778D01*
X6465570Y1527352D01*
X6470294Y1529334D01*
X6474866Y1531721D01*
X6479336Y1534464D01*
X6483604Y1537614D01*
X6487718Y1541119D01*
X6491630Y1545031D01*
X6495338Y1549298D01*
X6498793Y1553921D01*
X6502044Y1558848D01*
X6504990Y1564182D01*
X6506819Y1568399D01*
X6508394Y1573428D01*
X6509766Y1579219D01*
X6510832Y1585569D01*
X6511696Y1592478D01*
X6512712Y1607261D01*
X6512712Y1622755D01*
X6512356Y1630476D01*
X6510934Y1645259D01*
X6509816Y1652168D01*
X6508496Y1658518D01*
X6506921Y1664258D01*
X6505092Y1669288D01*
X6502450Y1675028D01*
X6499402Y1680362D01*
X6495999Y1685340D01*
X6492240Y1690014D01*
X6488176Y1694230D01*
X6483858Y1698091D01*
X6479286Y1701596D01*
X6474510Y1704644D01*
X6469583Y1707235D01*
X6464452Y1709420D01*
X6459270Y1711147D01*
X6453936Y1712417D01*
X6448602Y1713230D01*
G37*
G36*
X6918502Y1713484D02*
G01*
X6918502Y1528318D01*
X6970623Y1528318D01*
X6970674Y1602841D01*
X6971131Y1623110D01*
X6971588Y1631391D01*
X6972249Y1638655D01*
X6973112Y1644853D01*
X6974230Y1650085D01*
X6975652Y1654505D01*
X6977380Y1658061D01*
X6979462Y1660956D01*
X6981901Y1663192D01*
X6984746Y1664817D01*
X6988048Y1665986D01*
X6991756Y1666697D01*
X6996023Y1667103D01*
X7005777Y1667306D01*
X7009638Y1667814D01*
X7012482Y1668881D01*
X7014514Y1670710D01*
X7015835Y1673555D01*
X7016546Y1677670D01*
X7016902Y1683207D01*
X7016953Y1690370D01*
X7016546Y1702358D01*
X7014718Y1709420D01*
X7010908Y1712671D01*
X7004303Y1713484D01*
X6998360Y1712518D01*
X6991451Y1709826D01*
X6984441Y1705813D01*
X6978243Y1700936D01*
X6964832Y1688338D01*
X6964832Y1700936D01*
X6964019Y1707438D01*
X6960717Y1711248D01*
X6953707Y1713077D01*
X6941667Y1713484D01*
G37*
G36*
X7040118Y1713484D02*
G01*
X7040118Y1528318D01*
X7086447Y1528318D01*
X7086549Y1600606D01*
X7087158Y1620875D01*
X7087717Y1629308D01*
X7088581Y1636674D01*
X7089648Y1643024D01*
X7091070Y1648510D01*
X7092746Y1653133D01*
X7094829Y1656943D01*
X7097268Y1660093D01*
X7100163Y1662531D01*
X7103465Y1664360D01*
X7107224Y1665732D01*
X7111492Y1666595D01*
X7116267Y1667052D01*
X7126935Y1667306D01*
X7130999Y1667764D01*
X7133996Y1668780D01*
X7136079Y1670608D01*
X7137450Y1673453D01*
X7138162Y1677568D01*
X7138517Y1683105D01*
X7138568Y1690370D01*
X7138162Y1702765D01*
X7136231Y1709724D01*
X7131862Y1712823D01*
X7124090Y1713484D01*
X7117638Y1712620D01*
X7110628Y1710232D01*
X7104024Y1706727D01*
X7098588Y1702460D01*
X7092238Y1696364D01*
X7088631Y1694332D01*
X7086498Y1696364D01*
X7084669Y1702460D01*
X7082231Y1707692D01*
X7077862Y1711096D01*
X7070953Y1712925D01*
X7060946Y1713484D01*
G37*
G36*
X7266533Y1713484D02*
G01*
X7247686Y1650949D01*
X7241590Y1632356D01*
X7236409Y1618234D01*
X7234377Y1613458D01*
X7232802Y1610410D01*
X7231786Y1609344D01*
X7230821Y1610360D01*
X7229297Y1613306D01*
X7225030Y1624177D01*
X7219645Y1640281D01*
X7213701Y1659940D01*
X7199020Y1710588D01*
X7171690Y1712366D01*
X7161123Y1712823D01*
X7152436Y1712671D01*
X7146544Y1712061D01*
X7144359Y1710943D01*
X7146899Y1702663D01*
X7163968Y1653590D01*
X7176414Y1618843D01*
X7192467Y1572971D01*
X7197750Y1556512D01*
X7201357Y1543608D01*
X7202627Y1538274D01*
X7204049Y1529435D01*
X7204303Y1525778D01*
X7204252Y1522526D01*
X7203948Y1519631D01*
X7203389Y1516989D01*
X7202576Y1514500D01*
X7198918Y1507490D01*
X7193838Y1502054D01*
X7187336Y1498092D01*
X7179208Y1495602D01*
X7170318Y1493215D01*
X7165035Y1489659D01*
X7162444Y1484020D01*
X7161784Y1475333D01*
X7162444Y1468170D01*
X7164324Y1462125D01*
X7167270Y1457604D01*
X7171080Y1454912D01*
X7175347Y1453794D01*
X7180224Y1453337D01*
X7185609Y1453540D01*
X7191349Y1454353D01*
X7197242Y1455724D01*
X7203236Y1457553D01*
X7209129Y1459890D01*
X7214768Y1462532D01*
X7220051Y1465580D01*
X7224826Y1468932D01*
X7228941Y1472488D01*
X7232243Y1476248D01*
X7234174Y1479600D01*
X7240574Y1493824D01*
X7249668Y1516126D01*
X7260640Y1544320D01*
X7272629Y1575917D01*
X7284770Y1608734D01*
X7296200Y1640382D01*
X7306056Y1668525D01*
X7313472Y1690928D01*
X7317587Y1705152D01*
X7318146Y1708454D01*
X7316114Y1710436D01*
X7310577Y1712010D01*
X7302347Y1713077D01*
X7292340Y1713484D01*
G37*
G36*
X7648244Y1713484D02*
G01*
X7648244Y1528318D01*
X7700365Y1528318D01*
X7700365Y1713484D01*
G37*
G36*
X6240830Y1713230D02*
G01*
X6234328Y1712925D01*
X6227826Y1712214D01*
X6221323Y1711045D01*
X6214872Y1709521D01*
X6208471Y1707489D01*
X6202273Y1705051D01*
X6197041Y1702562D01*
X6192367Y1699818D01*
X6188202Y1696821D01*
X6184544Y1693519D01*
X6181344Y1689912D01*
X6178600Y1686001D01*
X6176365Y1681683D01*
X6174536Y1677009D01*
X6173114Y1671929D01*
X6172149Y1666392D01*
X6171590Y1660448D01*
X6171387Y1653997D01*
X6171692Y1647952D01*
X6172555Y1642414D01*
X6174130Y1637334D01*
X6176365Y1632661D01*
X6179413Y1628343D01*
X6183274Y1624380D01*
X6187998Y1620672D01*
X6193688Y1617167D01*
X6200343Y1613814D01*
X6208064Y1610614D01*
X6216904Y1607464D01*
X6236055Y1601419D01*
X6244183Y1598320D01*
X6251143Y1595221D01*
X6256985Y1591970D01*
X6261709Y1588719D01*
X6265265Y1585417D01*
X6267653Y1582064D01*
X6268872Y1578762D01*
X6268872Y1575409D01*
X6267653Y1572107D01*
X6265214Y1568805D01*
X6261506Y1565605D01*
X6255867Y1561795D01*
X6250686Y1559255D01*
X6245809Y1557985D01*
X6241084Y1558036D01*
X6236309Y1559356D01*
X6231331Y1562100D01*
X6225997Y1566214D01*
X6215024Y1576120D01*
X6209436Y1579778D01*
X6203543Y1582724D01*
X6197498Y1584909D01*
X6191453Y1586280D01*
X6185662Y1586941D01*
X6180277Y1586788D01*
X6175502Y1585874D01*
X6171438Y1584147D01*
X6168339Y1581658D01*
X6166307Y1578305D01*
X6165596Y1574139D01*
X6166205Y1569059D01*
X6167932Y1563878D01*
X6170726Y1558696D01*
X6174384Y1553565D01*
X6178905Y1548587D01*
X6184188Y1543862D01*
X6190030Y1539494D01*
X6196431Y1535480D01*
X6203238Y1531975D01*
X6210401Y1529080D01*
X6217767Y1526794D01*
X6225235Y1525270D01*
X6232753Y1524355D01*
X6240018Y1523847D01*
X6247130Y1523796D01*
X6254038Y1524152D01*
X6260642Y1524914D01*
X6267043Y1526032D01*
X6273139Y1527606D01*
X6278981Y1529537D01*
X6284518Y1531874D01*
X6289700Y1534566D01*
X6294577Y1537614D01*
X6299047Y1541068D01*
X6303162Y1544828D01*
X6306921Y1548993D01*
X6310223Y1553464D01*
X6313119Y1558290D01*
X6316675Y1565046D01*
X6319215Y1570532D01*
X6320790Y1575155D01*
X6321450Y1579321D01*
X6321196Y1583436D01*
X6320028Y1587855D01*
X6317996Y1593037D01*
X6315100Y1599285D01*
X6312611Y1604111D01*
X6309918Y1608429D01*
X6306870Y1612290D01*
X6303365Y1615846D01*
X6299403Y1619046D01*
X6294729Y1622044D01*
X6289395Y1624888D01*
X6283147Y1627581D01*
X6275984Y1630172D01*
X6267805Y1632813D01*
X6247841Y1638300D01*
X6238595Y1641093D01*
X6231077Y1644243D01*
X6225336Y1647799D01*
X6221374Y1651711D01*
X6219190Y1655876D01*
X6218783Y1660398D01*
X6220256Y1665173D01*
X6223558Y1670151D01*
X6227622Y1674063D01*
X6232245Y1676704D01*
X6237224Y1678127D01*
X6242405Y1678330D01*
X6247688Y1677314D01*
X6252870Y1675130D01*
X6257899Y1671726D01*
X6266230Y1663801D01*
X6270853Y1660956D01*
X6276187Y1658620D01*
X6282029Y1656892D01*
X6288024Y1655724D01*
X6294069Y1655165D01*
X6299809Y1655165D01*
X6305042Y1655825D01*
X6309563Y1657096D01*
X6313068Y1658975D01*
X6315354Y1661515D01*
X6316167Y1664665D01*
X6315862Y1669440D01*
X6314897Y1674063D01*
X6313322Y1678482D01*
X6311188Y1682648D01*
X6308496Y1686661D01*
X6305296Y1690420D01*
X6301689Y1693925D01*
X6297574Y1697177D01*
X6293154Y1700174D01*
X6288278Y1702917D01*
X6283147Y1705356D01*
X6277711Y1707489D01*
X6271971Y1709318D01*
X6266078Y1710791D01*
X6259931Y1711960D01*
X6253683Y1712772D01*
X6247333Y1713179D01*
G37*
G36*
X6811162Y1712925D02*
G01*
X6804101Y1712722D01*
X6797141Y1712010D01*
X6790486Y1710893D01*
X6784136Y1709267D01*
X6778193Y1707235D01*
X6772808Y1704695D01*
X6768490Y1702104D01*
X6764375Y1699158D01*
X6760464Y1695907D01*
X6756806Y1692351D01*
X6753402Y1688541D01*
X6750151Y1684426D01*
X6747205Y1680108D01*
X6744411Y1675536D01*
X6739636Y1665833D01*
X6735775Y1655470D01*
X6734104Y1649475D01*
X6784848Y1649475D01*
X6785762Y1652524D01*
X6787642Y1655927D01*
X6790537Y1659686D01*
X6794398Y1663903D01*
X6799376Y1668018D01*
X6804558Y1670812D01*
X6809841Y1672285D01*
X6815175Y1672488D01*
X6820357Y1671320D01*
X6825335Y1668881D01*
X6830009Y1665122D01*
X6834225Y1660143D01*
X6838543Y1653590D01*
X6841286Y1648510D01*
X6842201Y1644650D01*
X6841134Y1641906D01*
X6837984Y1640027D01*
X6832549Y1638960D01*
X6824675Y1638401D01*
X6814261Y1638249D01*
X6806996Y1638452D01*
X6800799Y1638960D01*
X6795566Y1639824D01*
X6791401Y1640992D01*
X6788251Y1642567D01*
X6786118Y1644497D01*
X6785000Y1646783D01*
X6784848Y1649475D01*
X6734104Y1649475D01*
X6731863Y1639011D01*
X6731050Y1633423D01*
X6730187Y1622044D01*
X6730136Y1616303D01*
X6730847Y1604975D01*
X6731609Y1599387D01*
X6732625Y1593850D01*
X6733895Y1588414D01*
X6735470Y1583080D01*
X6737299Y1577898D01*
X6739381Y1572869D01*
X6741769Y1567992D01*
X6744462Y1563319D01*
X6747408Y1558899D01*
X6750659Y1554632D01*
X6754164Y1550670D01*
X6758635Y1546301D01*
X6763258Y1542338D01*
X6767982Y1538732D01*
X6772909Y1535582D01*
X6777939Y1532788D01*
X6783171Y1530400D01*
X6788556Y1528368D01*
X6794144Y1526794D01*
X6799935Y1525574D01*
X6805879Y1524711D01*
X6812025Y1524254D01*
X6818426Y1524203D01*
X6824980Y1524558D01*
X6831787Y1525219D01*
X6838797Y1526336D01*
X6846011Y1527759D01*
X6854342Y1529689D01*
X6861403Y1531569D01*
X6867347Y1533398D01*
X6872224Y1535328D01*
X6876084Y1537360D01*
X6878980Y1539544D01*
X6881063Y1542084D01*
X6882333Y1544929D01*
X6882892Y1548130D01*
X6882841Y1551889D01*
X6882231Y1556156D01*
X6881164Y1561084D01*
X6878777Y1568246D01*
X6875678Y1572158D01*
X6871208Y1573276D01*
X6864654Y1572006D01*
X6855917Y1569516D01*
X6847840Y1567535D01*
X6840474Y1566011D01*
X6833768Y1564944D01*
X6827621Y1564386D01*
X6822033Y1564284D01*
X6816902Y1564690D01*
X6812280Y1565554D01*
X6808114Y1566926D01*
X6804253Y1568754D01*
X6800748Y1571091D01*
X6797548Y1573936D01*
X6793382Y1578254D01*
X6789978Y1582166D01*
X6787337Y1585671D01*
X6785508Y1588820D01*
X6784543Y1591564D01*
X6784441Y1593951D01*
X6785254Y1596034D01*
X6786981Y1597863D01*
X6789674Y1599336D01*
X6793331Y1600555D01*
X6798005Y1601571D01*
X6803745Y1602333D01*
X6810502Y1602892D01*
X6827316Y1603451D01*
X6889546Y1603552D01*
X6889394Y1636725D01*
X6888937Y1643075D01*
X6888124Y1649272D01*
X6887006Y1655165D01*
X6885635Y1660855D01*
X6883908Y1666290D01*
X6881926Y1671472D01*
X6879640Y1676400D01*
X6877100Y1681022D01*
X6874306Y1685340D01*
X6871208Y1689354D01*
X6867855Y1693062D01*
X6864299Y1696415D01*
X6860438Y1699412D01*
X6856374Y1702054D01*
X6852056Y1704390D01*
X6845858Y1706930D01*
X6839356Y1709064D01*
X6832498Y1710740D01*
X6825488Y1711909D01*
X6818325Y1712671D01*
G37*
G36*
X6065316Y1711909D02*
G01*
X6058255Y1711858D01*
X6051346Y1711553D01*
X6044692Y1710893D01*
X6038443Y1709928D01*
X6032703Y1708708D01*
X6027521Y1707235D01*
X6023000Y1705508D01*
X6016091Y1701800D01*
X6009386Y1697126D01*
X6003137Y1691792D01*
X5997549Y1685950D01*
X5992825Y1679956D01*
X5989218Y1673961D01*
X5986881Y1668221D01*
X5986068Y1663039D01*
X5987034Y1660448D01*
X5989777Y1658366D01*
X5993942Y1656842D01*
X5999175Y1655825D01*
X6005169Y1655318D01*
X6011570Y1655267D01*
X6018072Y1655673D01*
X6024372Y1656588D01*
X6030061Y1657959D01*
X6034887Y1659737D01*
X6038443Y1662023D01*
X6043117Y1668627D01*
X6047638Y1671116D01*
X6054140Y1672183D01*
X6062776Y1671929D01*
X6072428Y1670354D01*
X6078423Y1667459D01*
X6081776Y1662328D01*
X6083452Y1654200D01*
X6083909Y1645564D01*
X6081979Y1640789D01*
X6076442Y1638706D01*
X6058509Y1638096D01*
X6051194Y1637588D01*
X6044184Y1636725D01*
X6037427Y1635506D01*
X6031026Y1634032D01*
X6024930Y1632204D01*
X6019139Y1630121D01*
X6013704Y1627733D01*
X6008624Y1625041D01*
X6003950Y1622094D01*
X5999632Y1618894D01*
X5995720Y1615440D01*
X5992215Y1611731D01*
X5989116Y1607769D01*
X5986475Y1603603D01*
X5984290Y1599234D01*
X5982563Y1594662D01*
X5981293Y1589836D01*
X5980531Y1584858D01*
X5980443Y1583080D01*
X6034176Y1583080D01*
X6034786Y1587601D01*
X6036208Y1591919D01*
X6038392Y1595932D01*
X6041390Y1599438D01*
X6045200Y1602232D01*
X6049772Y1604162D01*
X6059678Y1606702D01*
X6067552Y1608277D01*
X6073597Y1608734D01*
X6078118Y1608023D01*
X6081217Y1606092D01*
X6083198Y1602841D01*
X6084214Y1598218D01*
X6084519Y1592173D01*
X6083808Y1585315D01*
X6081776Y1579270D01*
X6078524Y1574088D01*
X6074156Y1569821D01*
X6068822Y1566621D01*
X6062624Y1564538D01*
X6055614Y1563674D01*
X6048044Y1564132D01*
X6043574Y1565351D01*
X6040018Y1567637D01*
X6037326Y1570736D01*
X6035446Y1574495D01*
X6034379Y1578660D01*
X6034176Y1583080D01*
X5980443Y1583080D01*
X5980277Y1579727D01*
X5980480Y1574190D01*
X5981141Y1568907D01*
X5982208Y1563827D01*
X5983732Y1559001D01*
X5985611Y1554429D01*
X5987897Y1550162D01*
X5990590Y1546098D01*
X5993587Y1542389D01*
X5996990Y1538935D01*
X6000750Y1535836D01*
X6004814Y1533042D01*
X6009182Y1530604D01*
X6013907Y1528470D01*
X6018936Y1526743D01*
X6024219Y1525422D01*
X6029807Y1524457D01*
X6036564Y1523695D01*
X6042355Y1523441D01*
X6047486Y1523746D01*
X6052210Y1524711D01*
X6056630Y1526387D01*
X6061151Y1528826D01*
X6065875Y1532128D01*
X6081217Y1544523D01*
X6086906Y1547622D01*
X6089954Y1545996D01*
X6091986Y1539849D01*
X6094577Y1534160D01*
X6099302Y1530604D01*
X6107277Y1528826D01*
X6119469Y1528318D01*
X6127445Y1528318D01*
X6133439Y1528622D01*
X6137656Y1529283D01*
X6140297Y1530604D01*
X6141669Y1532788D01*
X6141923Y1535988D01*
X6141415Y1540459D01*
X6139789Y1549349D01*
X6138875Y1557680D01*
X6138062Y1568754D01*
X6137402Y1581810D01*
X6136690Y1611172D01*
X6136640Y1630527D01*
X6136284Y1649171D01*
X6135217Y1662430D01*
X6134252Y1667611D01*
X6133033Y1672082D01*
X6131407Y1676044D01*
X6129375Y1679702D01*
X6126835Y1683308D01*
X6123838Y1687068D01*
X6115304Y1696415D01*
X6110681Y1700631D01*
X6106007Y1703984D01*
X6101130Y1706524D01*
X6095593Y1708454D01*
X6089192Y1709826D01*
X6081572Y1710842D01*
X6072479Y1711604D01*
G37*
G36*
X7599629Y1441500D02*
G01*
X7581087Y1440992D01*
X7573264Y1440383D01*
X7566507Y1439570D01*
X7560868Y1438554D01*
X7556347Y1437284D01*
X7553045Y1435811D01*
X7550912Y1434185D01*
X7548422Y1429512D01*
X7546086Y1422247D01*
X7544206Y1413357D01*
X7542987Y1403807D01*
X7542326Y1396390D01*
X7541463Y1390700D01*
X7540091Y1386484D01*
X7538008Y1383436D01*
X7534909Y1381302D01*
X7530541Y1379778D01*
X7524546Y1378559D01*
X7512761Y1376781D01*
X7508595Y1375816D01*
X7499603Y1372920D01*
X7489901Y1368958D01*
X7479741Y1363929D01*
X7469428Y1358087D01*
X7446162Y1342796D01*
X7440675Y1339443D01*
X7435545Y1336649D01*
X7430770Y1334363D01*
X7426096Y1332534D01*
X7421422Y1331163D01*
X7416647Y1330096D01*
X7411618Y1329385D01*
X7406131Y1328928D01*
X7393330Y1328623D01*
X7384237Y1328775D01*
X7376312Y1329283D01*
X7369403Y1330198D01*
X7363206Y1331620D01*
X7357516Y1333601D01*
X7352080Y1336243D01*
X7346594Y1339545D01*
X7335164Y1347825D01*
X7323836Y1355445D01*
X7318248Y1358900D01*
X7307021Y1364945D01*
X7295946Y1370025D01*
X7284872Y1374038D01*
X7273848Y1377035D01*
X7262875Y1379016D01*
X7251903Y1379982D01*
X7246416Y1380083D01*
X7235494Y1379524D01*
X7230008Y1378864D01*
X7219086Y1376730D01*
X7208113Y1373632D01*
X7197090Y1369466D01*
X7186066Y1364335D01*
X7174941Y1358138D01*
X7153300Y1344117D01*
X7143394Y1338580D01*
X7138619Y1336243D01*
X7129170Y1332433D01*
X7124496Y1330909D01*
X7115098Y1328674D01*
X7110323Y1327861D01*
X7099655Y1326845D01*
X7094372Y1326591D01*
X7089546Y1326642D01*
X7085075Y1327048D01*
X7080656Y1327861D01*
X7076287Y1329080D01*
X7071715Y1330807D01*
X7066838Y1333093D01*
X7055459Y1339494D01*
X7028586Y1356309D01*
X7016546Y1362862D01*
X7004812Y1368399D01*
X6993331Y1372870D01*
X6982104Y1376273D01*
X6971030Y1378610D01*
X6960057Y1379880D01*
X6954621Y1380134D01*
X6943801Y1379829D01*
X6933031Y1378458D01*
X6927646Y1377391D01*
X6916826Y1374444D01*
X6911390Y1372565D01*
X6900468Y1367993D01*
X6889445Y1362354D01*
X6878269Y1355699D01*
X6866839Y1347927D01*
X6855307Y1339545D01*
X6849821Y1336243D01*
X6844385Y1333601D01*
X6838645Y1331620D01*
X6832498Y1330198D01*
X6825589Y1329283D01*
X6817664Y1328775D01*
X6801815Y1328724D01*
X6795770Y1328928D01*
X6790334Y1329385D01*
X6785254Y1330096D01*
X6780479Y1331163D01*
X6775856Y1332534D01*
X6771233Y1334363D01*
X6766407Y1336598D01*
X6755841Y1342694D01*
X6737096Y1355191D01*
X6725310Y1362151D01*
X6719417Y1365250D01*
X6707682Y1370482D01*
X6701790Y1372666D01*
X6695948Y1374546D01*
X6690055Y1376172D01*
X6684213Y1377492D01*
X6678371Y1378508D01*
X6666687Y1379677D01*
X6660845Y1379829D01*
X6649161Y1379270D01*
X6643319Y1378559D01*
X6637477Y1377543D01*
X6625793Y1374648D01*
X6619951Y1372768D01*
X6614058Y1370584D01*
X6602374Y1365351D01*
X6596481Y1362303D01*
X6584696Y1355344D01*
X6565849Y1342796D01*
X6560312Y1339443D01*
X6555231Y1336649D01*
X6550406Y1334363D01*
X6545783Y1332534D01*
X6541109Y1331163D01*
X6536334Y1330096D01*
X6531305Y1329385D01*
X6525818Y1328928D01*
X6513017Y1328623D01*
X6503873Y1328775D01*
X6495999Y1329283D01*
X6489090Y1330198D01*
X6482892Y1331620D01*
X6477203Y1333601D01*
X6471767Y1336243D01*
X6466281Y1339545D01*
X6454749Y1347927D01*
X6443319Y1355699D01*
X6432143Y1362354D01*
X6421069Y1367993D01*
X6410147Y1372565D01*
X6404762Y1374444D01*
X6393942Y1377391D01*
X6383172Y1379270D01*
X6377787Y1379829D01*
X6366967Y1380134D01*
X6356045Y1379372D01*
X6350558Y1378610D01*
X6339484Y1376273D01*
X6328206Y1372870D01*
X6316726Y1368399D01*
X6305042Y1362862D01*
X6293002Y1356309D01*
X6266180Y1339545D01*
X6254851Y1333144D01*
X6249924Y1330858D01*
X6245402Y1329131D01*
X6240983Y1327912D01*
X6236665Y1327099D01*
X6232194Y1326692D01*
X6227419Y1326591D01*
X6216548Y1327251D01*
X6211773Y1327810D01*
X6202426Y1329639D01*
X6197803Y1330858D01*
X6188456Y1334160D01*
X6178905Y1338580D01*
X6174028Y1341170D01*
X6163919Y1347317D01*
X6152997Y1354582D01*
X6141821Y1361287D01*
X6130696Y1366977D01*
X6119571Y1371650D01*
X6114084Y1373581D01*
X6103010Y1376730D01*
X6097524Y1377899D01*
X6086500Y1379524D01*
X6081014Y1379931D01*
X6069990Y1379982D01*
X6058966Y1379016D01*
X6047943Y1377035D01*
X6036868Y1374038D01*
X6025743Y1370025D01*
X6020206Y1367637D01*
X6008979Y1362049D01*
X5997752Y1355445D01*
X5986424Y1347825D01*
X5976518Y1340713D01*
X5971946Y1338122D01*
X5967120Y1335786D01*
X5962040Y1333754D01*
X5956706Y1331976D01*
X5951220Y1330553D01*
X5945632Y1329385D01*
X5939942Y1328521D01*
X5934151Y1327962D01*
X5922568Y1327708D01*
X5916879Y1328064D01*
X5911291Y1328724D01*
X5905804Y1329639D01*
X5900470Y1330858D01*
X5895390Y1332433D01*
X5890564Y1334262D01*
X5885992Y1336395D01*
X5881776Y1338884D01*
X5872581Y1345742D01*
X5861964Y1353261D01*
X5856630Y1356715D01*
X5846013Y1362862D01*
X5835497Y1368044D01*
X5825185Y1372260D01*
X5820054Y1373987D01*
X5810097Y1376629D01*
X5805220Y1377594D01*
X5795721Y1378661D01*
X5789269Y1378813D01*
X5783478Y1378559D01*
X5778347Y1377797D01*
X5773826Y1376730D01*
X5769965Y1375308D01*
X5766765Y1373581D01*
X5764225Y1371600D01*
X5762294Y1369415D01*
X5761075Y1367078D01*
X5760516Y1364589D01*
X5760669Y1362049D01*
X5761431Y1359408D01*
X5762904Y1356766D01*
X5765038Y1354175D01*
X5767882Y1351686D01*
X5771388Y1349298D01*
X5775604Y1347012D01*
X5780481Y1344980D01*
X5786120Y1343152D01*
X5797499Y1340307D01*
X5803442Y1338275D01*
X5809945Y1335633D01*
X5816854Y1332484D01*
X5823915Y1328978D01*
X5830925Y1325168D01*
X5837682Y1321206D01*
X5849670Y1313332D01*
X5860745Y1306525D01*
X5871464Y1300734D01*
X5881928Y1295908D01*
X5892190Y1292098D01*
X5902350Y1289304D01*
X5912408Y1287475D01*
X5922467Y1286662D01*
X5932576Y1286865D01*
X5937707Y1287322D01*
X5947968Y1289050D01*
X5958484Y1291742D01*
X5969203Y1295450D01*
X5980277Y1300124D01*
X5991758Y1305864D01*
X6003645Y1312570D01*
X6027470Y1327353D01*
X6032855Y1330401D01*
X6043168Y1335430D01*
X6052972Y1339088D01*
X6057747Y1340459D01*
X6062421Y1341475D01*
X6067094Y1342136D01*
X6071768Y1342440D01*
X6076442Y1342440D01*
X6081115Y1342085D01*
X6085890Y1341374D01*
X6090716Y1340358D01*
X6100724Y1337208D01*
X6111290Y1332738D01*
X6122619Y1326845D01*
X6134912Y1319530D01*
X6147460Y1311554D01*
X6159296Y1304798D01*
X6170930Y1299108D01*
X6182309Y1294485D01*
X6193536Y1290980D01*
X6199073Y1289608D01*
X6210046Y1287729D01*
X6220866Y1286865D01*
X6226251Y1286865D01*
X6231585Y1287119D01*
X6242253Y1288440D01*
X6247587Y1289507D01*
X6258153Y1292453D01*
X6263487Y1294333D01*
X6268770Y1296466D01*
X6279337Y1301546D01*
X6289954Y1307744D01*
X6302502Y1316075D01*
X6315811Y1324508D01*
X6327800Y1331315D01*
X6338824Y1336548D01*
X6344005Y1338529D01*
X6349034Y1340104D01*
X6354013Y1341323D01*
X6358839Y1342136D01*
X6363665Y1342542D01*
X6368491Y1342542D01*
X6373317Y1342186D01*
X6378244Y1341424D01*
X6383274Y1340256D01*
X6388404Y1338732D01*
X6393738Y1336802D01*
X6405016Y1331823D01*
X6417411Y1325321D01*
X6443167Y1310335D01*
X6455054Y1303832D01*
X6466433Y1298041D01*
X6476593Y1293266D01*
X6485026Y1289761D01*
X6488379Y1288592D01*
X6496964Y1286764D01*
X6502958Y1286052D01*
X6509004Y1285748D01*
X6515150Y1285798D01*
X6521399Y1286256D01*
X6527749Y1287068D01*
X6534150Y1288288D01*
X6540652Y1289812D01*
X6547256Y1291793D01*
X6553911Y1294130D01*
X6560667Y1296822D01*
X6567474Y1299870D01*
X6574383Y1303324D01*
X6588353Y1311351D01*
X6602730Y1320698D01*
X6615175Y1328369D01*
X6620560Y1331315D01*
X6625640Y1333754D01*
X6630466Y1335735D01*
X6635140Y1337259D01*
X6639814Y1338478D01*
X6644589Y1339291D01*
X6649618Y1339850D01*
X6660794Y1340205D01*
X6671970Y1339850D01*
X6676948Y1339291D01*
X6681774Y1338478D01*
X6686448Y1337259D01*
X6691122Y1335735D01*
X6695948Y1333754D01*
X6700977Y1331315D01*
X6706412Y1328369D01*
X6718858Y1320698D01*
X6733184Y1311402D01*
X6740245Y1307185D01*
X6747205Y1303375D01*
X6754063Y1299921D01*
X6760870Y1296822D01*
X6767626Y1294130D01*
X6774281Y1291793D01*
X6780885Y1289862D01*
X6787388Y1288288D01*
X6793788Y1287068D01*
X6800138Y1286256D01*
X6806336Y1285798D01*
X6812483Y1285748D01*
X6818528Y1286052D01*
X6824472Y1286764D01*
X6830314Y1287830D01*
X6836460Y1289761D01*
X6845046Y1293368D01*
X6855510Y1298244D01*
X6867194Y1304239D01*
X6879539Y1310894D01*
X6909104Y1328013D01*
X6916115Y1331874D01*
X6922363Y1335024D01*
X6927951Y1337513D01*
X6933082Y1339494D01*
X6937806Y1340916D01*
X6942277Y1341831D01*
X6946747Y1342339D01*
X6951268Y1342440D01*
X6961174Y1341780D01*
X6967220Y1340764D01*
X6973671Y1339189D01*
X6980377Y1336954D01*
X6987387Y1334160D01*
X6994550Y1330858D01*
X7001814Y1327048D01*
X7009079Y1322781D01*
X7022084Y1314145D01*
X7033361Y1307134D01*
X7044334Y1301140D01*
X7055002Y1296162D01*
X7065467Y1292148D01*
X7075728Y1289151D01*
X7085888Y1287170D01*
X7090918Y1286510D01*
X7100976Y1286052D01*
X7106005Y1286154D01*
X7116114Y1287170D01*
X7126274Y1289202D01*
X7136536Y1292199D01*
X7147001Y1296212D01*
X7157720Y1301242D01*
X7168692Y1307287D01*
X7179970Y1314297D01*
X7193534Y1323289D01*
X7201001Y1327708D01*
X7208266Y1331518D01*
X7215378Y1334719D01*
X7222286Y1337310D01*
X7229144Y1339342D01*
X7235901Y1340764D01*
X7242657Y1341678D01*
X7253071Y1342288D01*
X7257643Y1342186D01*
X7262012Y1341729D01*
X7266279Y1340916D01*
X7270546Y1339646D01*
X7275068Y1337970D01*
X7279843Y1335735D01*
X7285075Y1332941D01*
X7297420Y1325524D01*
X7311085Y1316786D01*
X7323226Y1309471D01*
X7334910Y1303223D01*
X7346086Y1297889D01*
X7356856Y1293622D01*
X7367371Y1290269D01*
X7377582Y1287983D01*
X7387590Y1286611D01*
X7397445Y1286256D01*
X7402372Y1286408D01*
X7412177Y1287526D01*
X7421981Y1289608D01*
X7426909Y1290980D01*
X7436866Y1294536D01*
X7447025Y1299006D01*
X7457440Y1304493D01*
X7468158Y1310944D01*
X7480858Y1319174D01*
X7495794Y1327861D01*
X7509967Y1335024D01*
X7516215Y1337716D01*
X7521600Y1339748D01*
X7525918Y1340916D01*
X7531862Y1342085D01*
X7536332Y1342593D01*
X7539583Y1342288D01*
X7541717Y1340916D01*
X7543038Y1338122D01*
X7543749Y1333804D01*
X7544358Y1306474D01*
X7544765Y1301242D01*
X7545476Y1296720D01*
X7546492Y1292860D01*
X7547914Y1289608D01*
X7549794Y1286916D01*
X7552283Y1284782D01*
X7555331Y1283106D01*
X7559040Y1281836D01*
X7563561Y1280972D01*
X7568844Y1280414D01*
X7575042Y1280160D01*
X7590281Y1280312D01*
X7613599Y1281226D01*
X7624521Y1281887D01*
X7632700Y1282801D01*
X7638542Y1284020D01*
X7642504Y1285748D01*
X7644942Y1288084D01*
X7646365Y1291132D01*
X7647889Y1298702D01*
X7649108Y1301648D01*
X7650988Y1303934D01*
X7653629Y1305763D01*
X7657287Y1307134D01*
X7662164Y1308150D01*
X7668361Y1308912D01*
X7688580Y1310792D01*
X7697012Y1312875D01*
X7701788Y1315872D01*
X7703261Y1319936D01*
X7701737Y1324051D01*
X7696962Y1327048D01*
X7688427Y1329131D01*
X7675778Y1330401D01*
X7648244Y1332179D01*
X7648244Y1388770D01*
X7675778Y1390548D01*
X7688427Y1391818D01*
X7696962Y1393901D01*
X7701737Y1396898D01*
X7703261Y1400962D01*
X7701788Y1405077D01*
X7697063Y1408074D01*
X7688681Y1410106D01*
X7662214Y1412798D01*
X7657338Y1413865D01*
X7653528Y1415338D01*
X7650734Y1417320D01*
X7648600Y1419910D01*
X7647025Y1423212D01*
X7644485Y1431798D01*
X7642859Y1435201D01*
X7640370Y1437690D01*
X7636611Y1439418D01*
X7631074Y1440535D01*
X7623403Y1441145D01*
X7613091Y1441450D01*
G37*
G36*
X1755952Y12718542D02*
G01*
X1750618Y12718338D01*
X1744725Y12717627D01*
X1738223Y12716459D01*
X1731162Y12714833D01*
X1719122Y12711328D01*
X1710436Y12708178D01*
X1701749Y12704419D01*
X1693062Y12700101D01*
X1684375Y12695072D01*
X1675638Y12689433D01*
X1666748Y12683083D01*
X1657807Y12676022D01*
X1648663Y12668250D01*
X1639417Y12659664D01*
X1629918Y12650317D01*
X1620164Y12640157D01*
X1610156Y12629134D01*
X1599895Y12617297D01*
X1589278Y12604546D01*
X1543761Y12546939D01*
X1525270Y12524130D01*
X1513179Y12509906D01*
X1510182Y12506807D01*
X1509572Y12506401D01*
X1509014Y12506909D01*
X1508912Y12508280D01*
X1509166Y12510516D01*
X1510792Y12517272D01*
X1513687Y12526670D01*
X1522526Y12551359D01*
X1534058Y12580620D01*
X1546707Y12610388D01*
X1558798Y12636703D01*
X1564182Y12647320D01*
X1568805Y12655550D01*
X1570786Y12658648D01*
X1575003Y12664338D01*
X1579829Y12670129D01*
X1585112Y12675717D01*
X1590598Y12681051D01*
X1596186Y12685928D01*
X1601724Y12690195D01*
X1607007Y12693700D01*
X1611833Y12696342D01*
X1616964Y12698831D01*
X1620875Y12701219D01*
X1623669Y12703302D01*
X1625346Y12705232D01*
X1626057Y12706908D01*
X1625752Y12708280D01*
X1624584Y12709398D01*
X1622552Y12710261D01*
X1619707Y12710769D01*
X1616100Y12710972D01*
X1611833Y12710871D01*
X1606956Y12710363D01*
X1601470Y12709499D01*
X1595475Y12708280D01*
X1589024Y12706654D01*
X1578356Y12703302D01*
X1570583Y12700101D01*
X1562760Y12696190D01*
X1554784Y12691465D01*
X1546707Y12686030D01*
X1538427Y12679730D01*
X1529994Y12672618D01*
X1521358Y12664694D01*
X1512468Y12655854D01*
X1503375Y12646152D01*
X1493977Y12635484D01*
X1484274Y12623952D01*
X1474266Y12611404D01*
X1463903Y12597892D01*
X1453184Y12583363D01*
X1418894Y12534950D01*
X1401318Y12511430D01*
X1384960Y12490551D01*
X1371041Y12474041D01*
X1365453Y12467894D01*
X1360932Y12463475D01*
X1353566Y12456972D01*
X1347774Y12452197D01*
X1343152Y12449098D01*
X1339494Y12447676D01*
X1336497Y12447778D01*
X1333906Y12449403D01*
X1331315Y12452502D01*
X1328572Y12457023D01*
X1325473Y12461595D01*
X1322019Y12465354D01*
X1318361Y12468199D01*
X1314551Y12470180D01*
X1310792Y12471247D01*
X1307134Y12471552D01*
X1303731Y12470942D01*
X1300632Y12469520D01*
X1298092Y12467234D01*
X1296111Y12464084D01*
X1294790Y12460173D01*
X1294384Y12455398D01*
X1294638Y12451181D01*
X1295501Y12447422D01*
X1296924Y12444069D01*
X1298803Y12441174D01*
X1301191Y12438634D01*
X1303985Y12436551D01*
X1307134Y12434824D01*
X1310690Y12433503D01*
X1314551Y12432639D01*
X1318717Y12432131D01*
X1323136Y12431979D01*
X1327759Y12432284D01*
X1332585Y12432944D01*
X1337564Y12433960D01*
X1342694Y12435382D01*
X1347876Y12437211D01*
X1353108Y12439345D01*
X1358341Y12441885D01*
X1363573Y12444780D01*
X1368704Y12448082D01*
X1373784Y12451689D01*
X1378762Y12455652D01*
X1383538Y12459970D01*
X1389837Y12466574D01*
X1399336Y12478410D01*
X1412341Y12495784D01*
X1427683Y12517170D01*
X1448409Y12546990D01*
X1472184Y12581890D01*
X1491843Y12609220D01*
X1500682Y12620904D01*
X1508506Y12630759D01*
X1515008Y12638532D01*
X1519986Y12643764D01*
X1521764Y12645339D01*
X1529384Y12650927D01*
X1532534Y12652654D01*
X1531620Y12650368D01*
X1525625Y12642342D01*
X1522679Y12636906D01*
X1519021Y12629032D01*
X1514805Y12619126D01*
X1510131Y12607442D01*
X1500124Y12580315D01*
X1487474Y12542875D01*
X1477060Y12513259D01*
X1467307Y12487198D01*
X1459382Y12467894D01*
X1452372Y12452400D01*
X1450238Y12444018D01*
X1450086Y12437567D01*
X1452118Y12433960D01*
X1453032Y12433655D01*
X1454200Y12433706D01*
X1457350Y12434773D01*
X1461414Y12437110D01*
X1466392Y12440716D01*
X1472184Y12445492D01*
X1478838Y12451384D01*
X1494282Y12466320D01*
X1512316Y12485166D01*
X1532534Y12507468D01*
X1554530Y12532766D01*
X1577898Y12560706D01*
X1624330Y12618110D01*
X1642770Y12640157D01*
X1655724Y12654584D01*
X1659534Y12658242D01*
X1660652Y12659055D01*
X1661160Y12659207D01*
X1661261Y12658496D01*
X1660143Y12654737D01*
X1657604Y12648082D01*
X1648663Y12627457D01*
X1635607Y12599416D01*
X1619453Y12565989D01*
X1610614Y12548768D01*
X1602130Y12532918D01*
X1593850Y12518390D01*
X1585823Y12505232D01*
X1578102Y12493396D01*
X1570634Y12482880D01*
X1563370Y12473736D01*
X1556359Y12465913D01*
X1549603Y12459360D01*
X1543100Y12454178D01*
X1539951Y12452045D01*
X1533753Y12448794D01*
X1530756Y12447676D01*
X1527810Y12446863D01*
X1524965Y12446355D01*
X1515922Y12445542D01*
X1510842Y12443815D01*
X1507388Y12441174D01*
X1506118Y12438024D01*
X1506575Y12436500D01*
X1507896Y12435281D01*
X1510030Y12434265D01*
X1512874Y12433503D01*
X1516430Y12432995D01*
X1525371Y12432639D01*
X1536395Y12433147D01*
X1548993Y12434417D01*
X1562658Y12436348D01*
X1576984Y12438989D01*
X1591513Y12442139D01*
X1605737Y12445847D01*
X1619148Y12449911D01*
X1631340Y12454432D01*
X1636826Y12456769D01*
X1641754Y12459208D01*
X1646732Y12462002D01*
X1651762Y12465202D01*
X1661922Y12472568D01*
X1671980Y12480899D01*
X1681581Y12489942D01*
X1690573Y12499390D01*
X1698548Y12508839D01*
X1705356Y12518034D01*
X1710639Y12526619D01*
X1712671Y12530632D01*
X1714195Y12534341D01*
X1715211Y12537744D01*
X1715668Y12540792D01*
X1715617Y12543434D01*
X1714906Y12545669D01*
X1713534Y12547447D01*
X1710537Y12549022D01*
X1707489Y12548616D01*
X1704695Y12546482D01*
X1702612Y12542672D01*
X1700784Y12538557D01*
X1698294Y12533985D01*
X1695145Y12529108D01*
X1691436Y12523927D01*
X1682597Y12513056D01*
X1672336Y12501981D01*
X1661312Y12491313D01*
X1650034Y12481560D01*
X1644446Y12477242D01*
X1639062Y12473432D01*
X1633880Y12470079D01*
X1629054Y12467386D01*
X1620316Y12463221D01*
X1612696Y12459919D01*
X1606092Y12457480D01*
X1600657Y12455956D01*
X1596339Y12455296D01*
X1593189Y12455448D01*
X1591259Y12456515D01*
X1590598Y12458395D01*
X1591208Y12461087D01*
X1593138Y12464643D01*
X1596390Y12469012D01*
X1603146Y12476530D01*
X1608175Y12483338D01*
X1614271Y12492583D01*
X1621078Y12503861D01*
X1628495Y12516815D01*
X1636217Y12531039D01*
X1644040Y12546126D01*
X1651762Y12561722D01*
X1670304Y12600381D01*
X1679092Y12617958D01*
X1687169Y12633401D01*
X1694586Y12646710D01*
X1701495Y12658090D01*
X1708048Y12667691D01*
X1714246Y12675565D01*
X1720291Y12681966D01*
X1726184Y12686944D01*
X1729130Y12688976D01*
X1735124Y12692075D01*
X1738172Y12693243D01*
X1744472Y12694869D01*
X1751075Y12695580D01*
X1765757Y12696342D01*
X1773377Y12698425D01*
X1777339Y12701778D01*
X1777441Y12706400D01*
X1776018Y12709601D01*
X1774037Y12712293D01*
X1771548Y12714528D01*
X1768449Y12716256D01*
X1764842Y12717475D01*
X1760677Y12718237D01*
G37*
G36*
X4314647Y12714224D02*
G01*
X4312818Y12714020D01*
X4310735Y12713411D01*
X4308398Y12712344D01*
X4305858Y12710820D01*
X4300118Y12706400D01*
X4293463Y12700254D01*
X4285996Y12692329D01*
X4277664Y12682677D01*
X4268520Y12671348D01*
X4258564Y12658293D01*
X4247845Y12643612D01*
X4213758Y12594488D01*
X4203293Y12580010D01*
X4193438Y12566954D01*
X4184345Y12555372D01*
X4176064Y12545364D01*
X4168698Y12537135D01*
X4162399Y12530785D01*
X4157218Y12526416D01*
X4155084Y12524994D01*
X4153255Y12524130D01*
X4151782Y12523825D01*
X4148582Y12524282D01*
X4145279Y12525705D01*
X4141978Y12527991D01*
X4138726Y12531039D01*
X4135628Y12534798D01*
X4132783Y12539167D01*
X4130192Y12544094D01*
X4125112Y12556794D01*
X4122165Y12562636D01*
X4118864Y12567158D01*
X4115003Y12570510D01*
X4110380Y12572796D01*
X4104640Y12574270D01*
X4097680Y12575032D01*
X4089146Y12575235D01*
X4084269Y12575032D01*
X4079240Y12574473D01*
X4074058Y12573508D01*
X4068724Y12572187D01*
X4063237Y12570510D01*
X4052011Y12566040D01*
X4040479Y12560147D01*
X4028643Y12552934D01*
X4015587Y12543891D01*
X4008882Y12539624D01*
X4002633Y12536068D01*
X3996842Y12533122D01*
X3991610Y12530836D01*
X3986885Y12529261D01*
X3982770Y12528296D01*
X3979214Y12527991D01*
X3976319Y12528397D01*
X3974084Y12529413D01*
X3972610Y12531090D01*
X3971798Y12533426D01*
X3971798Y12536424D01*
X3972560Y12540081D01*
X3974185Y12544399D01*
X3980078Y12556032D01*
X3982872Y12562179D01*
X3984802Y12567208D01*
X3985514Y12570358D01*
X3984142Y12573508D01*
X3980484Y12575235D01*
X3975049Y12575540D01*
X3968343Y12574625D01*
X3960926Y12572542D01*
X3953256Y12569494D01*
X3945940Y12565481D01*
X3939489Y12560655D01*
X3930497Y12552984D01*
X3926230Y12550394D01*
X3925925Y12552984D01*
X3928719Y12560655D01*
X3930446Y12567361D01*
X3929329Y12571882D01*
X3925265Y12574422D01*
X3918051Y12575235D01*
X3914038Y12574473D01*
X3909517Y12572390D01*
X3904487Y12568986D01*
X3899103Y12564364D01*
X3893515Y12558623D01*
X3887673Y12551816D01*
X3881831Y12544094D01*
X3872839Y12530988D01*
X3865575Y12521387D01*
X3857091Y12511430D01*
X3847744Y12501372D01*
X3837787Y12491415D01*
X3827526Y12481915D01*
X3817213Y12472974D01*
X3807104Y12464948D01*
X3797554Y12458039D01*
X3788816Y12452502D01*
X3784854Y12450318D01*
X3777894Y12447270D01*
X3774948Y12446457D01*
X3772408Y12446203D01*
X3770020Y12446457D01*
X3768090Y12447168D01*
X3766667Y12448387D01*
X3765753Y12450114D01*
X3765296Y12452350D01*
X3765346Y12455144D01*
X3765905Y12458395D01*
X3766921Y12462205D01*
X3768445Y12466523D01*
X3770477Y12471450D01*
X3776014Y12482830D01*
X3783634Y12496495D01*
X3793236Y12512446D01*
X3804412Y12529769D01*
X3809136Y12536525D01*
X3813505Y12542113D01*
X3817670Y12546685D01*
X3821684Y12550343D01*
X3825748Y12553086D01*
X3829913Y12555169D01*
X3834333Y12556540D01*
X3839210Y12557455D01*
X3844544Y12557912D01*
X3850589Y12558014D01*
X3861866Y12558725D01*
X3871112Y12560554D01*
X3877310Y12563297D01*
X3879596Y12566650D01*
X3877868Y12569952D01*
X3873093Y12572695D01*
X3865981Y12574574D01*
X3857345Y12575235D01*
X3850182Y12575286D01*
X3845001Y12575641D01*
X3841597Y12576505D01*
X3840022Y12578130D01*
X3840073Y12580721D01*
X3841750Y12584531D01*
X3844950Y12589814D01*
X3854043Y12603581D01*
X3857244Y12608763D01*
X3859022Y12612573D01*
X3859326Y12615214D01*
X3858209Y12616891D01*
X3855567Y12617805D01*
X3851351Y12618161D01*
X3845560Y12618262D01*
X3841546Y12617805D01*
X3837228Y12616535D01*
X3832758Y12614554D01*
X3828237Y12611912D01*
X3823868Y12608763D01*
X3819702Y12605105D01*
X3815892Y12601041D01*
X3806037Y12588392D01*
X3798722Y12581534D01*
X3791610Y12576911D01*
X3785565Y12575235D01*
X3780891Y12574270D01*
X3777437Y12571679D01*
X3775557Y12567869D01*
X3775557Y12563195D01*
X3775811Y12560452D01*
X3775405Y12557252D01*
X3774490Y12553696D01*
X3773068Y12549835D01*
X3771137Y12545618D01*
X3768750Y12541148D01*
X3762705Y12531547D01*
X3755288Y12521285D01*
X3746804Y12510668D01*
X3737457Y12500000D01*
X3727551Y12489535D01*
X3717391Y12479578D01*
X3707231Y12470434D01*
X3697376Y12462357D01*
X3688130Y12455702D01*
X3683812Y12452959D01*
X3679748Y12450673D01*
X3675989Y12448844D01*
X3672535Y12447574D01*
X3669436Y12446863D01*
X3666744Y12446711D01*
X3664458Y12447219D01*
X3662629Y12448387D01*
X3662578Y12449962D01*
X3663746Y12453112D01*
X3665982Y12457582D01*
X3673449Y12469977D01*
X3683965Y12485624D01*
X3694328Y12500102D01*
X3701999Y12511989D01*
X3708603Y12523622D01*
X3713784Y12534392D01*
X3715765Y12539268D01*
X3717290Y12543688D01*
X3718306Y12547650D01*
X3718814Y12551003D01*
X3718763Y12553746D01*
X3718153Y12557150D01*
X3717137Y12560096D01*
X3715765Y12562636D01*
X3713784Y12564821D01*
X3711194Y12566599D01*
X3707892Y12568123D01*
X3703777Y12569342D01*
X3698697Y12570307D01*
X3692651Y12571120D01*
X3677005Y12572187D01*
X3647541Y12573050D01*
X3639870Y12572898D01*
X3633368Y12572390D01*
X3627882Y12571526D01*
X3623208Y12570206D01*
X3619195Y12568377D01*
X3615690Y12565938D01*
X3612438Y12562840D01*
X3609340Y12558979D01*
X3606190Y12554407D01*
X3598976Y12543129D01*
X3595065Y12538100D01*
X3591102Y12533833D01*
X3587089Y12530378D01*
X3583025Y12527686D01*
X3579012Y12525756D01*
X3575050Y12524587D01*
X3571189Y12524232D01*
X3567379Y12524689D01*
X3563670Y12525857D01*
X3560165Y12527838D01*
X3556762Y12530632D01*
X3553612Y12534138D01*
X3550716Y12538456D01*
X3548024Y12543536D01*
X3542690Y12556947D01*
X3539693Y12562890D01*
X3536340Y12567412D01*
X3532327Y12570714D01*
X3527399Y12572949D01*
X3521201Y12574371D01*
X3513480Y12575032D01*
X3503929Y12575235D01*
X3499104Y12574981D01*
X3494176Y12574320D01*
X3489096Y12573254D01*
X3483965Y12571730D01*
X3478733Y12569850D01*
X3473450Y12567615D01*
X3462883Y12562179D01*
X3452418Y12555575D01*
X3442258Y12547955D01*
X3432556Y12539573D01*
X3423564Y12530531D01*
X3419348Y12525806D01*
X3411728Y12516154D01*
X3408324Y12511278D01*
X3405225Y12506350D01*
X3402482Y12501372D01*
X3400094Y12496495D01*
X3398062Y12491618D01*
X3396487Y12486792D01*
X3395319Y12482068D01*
X3394557Y12477445D01*
X3394303Y12472974D01*
X3394557Y12467336D01*
X3394984Y12463983D01*
X3429609Y12463983D01*
X3429863Y12469012D01*
X3430574Y12474244D01*
X3431743Y12479528D01*
X3433267Y12484912D01*
X3435197Y12490297D01*
X3437483Y12495733D01*
X3442919Y12506452D01*
X3449370Y12516815D01*
X3456584Y12526568D01*
X3464356Y12535458D01*
X3468319Y12539472D01*
X3472332Y12543180D01*
X3480409Y12549530D01*
X3484321Y12552121D01*
X3488182Y12554204D01*
X3491941Y12555829D01*
X3495548Y12556998D01*
X3498951Y12557556D01*
X3502202Y12557556D01*
X3505149Y12556998D01*
X3507841Y12555728D01*
X3510229Y12553797D01*
X3512312Y12551206D01*
X3513226Y12548412D01*
X3513277Y12544501D01*
X3512464Y12539726D01*
X3510940Y12534087D01*
X3508756Y12527838D01*
X3505962Y12521133D01*
X3499002Y12506858D01*
X3490671Y12492380D01*
X3486200Y12485522D01*
X3481628Y12479020D01*
X3477006Y12473076D01*
X3472484Y12467894D01*
X3468065Y12463576D01*
X3463899Y12460274D01*
X3454654Y12454229D01*
X3447135Y12450013D01*
X3441141Y12447625D01*
X3436620Y12447117D01*
X3433318Y12448489D01*
X3431184Y12451740D01*
X3429965Y12456922D01*
X3429609Y12463983D01*
X3394984Y12463983D01*
X3396284Y12457328D01*
X3397808Y12452959D01*
X3399739Y12448946D01*
X3402025Y12445390D01*
X3404717Y12442240D01*
X3407765Y12439548D01*
X3411169Y12437262D01*
X3414877Y12435382D01*
X3418992Y12433960D01*
X3423361Y12433046D01*
X3428085Y12432538D01*
X3433064Y12432487D01*
X3438347Y12432893D01*
X3443884Y12433757D01*
X3449675Y12435128D01*
X3455720Y12436957D01*
X3461969Y12439294D01*
X3468471Y12442088D01*
X3474059Y12444831D01*
X3479647Y12447930D01*
X3490671Y12455093D01*
X3496056Y12459004D01*
X3506419Y12467437D01*
X3515817Y12476378D01*
X3520135Y12480950D01*
X3527602Y12490094D01*
X3530752Y12494615D01*
X3533444Y12498984D01*
X3535629Y12503251D01*
X3537305Y12507366D01*
X3539642Y12510262D01*
X3543909Y12511786D01*
X3549446Y12511786D01*
X3555644Y12510262D01*
X3560318Y12508331D01*
X3563670Y12506401D01*
X3565601Y12504115D01*
X3566058Y12501168D01*
X3565093Y12497257D01*
X3562654Y12492075D01*
X3558692Y12485217D01*
X3548278Y12468504D01*
X3540963Y12455956D01*
X3538626Y12451181D01*
X3537153Y12447270D01*
X3536594Y12444171D01*
X3536899Y12441783D01*
X3538016Y12440056D01*
X3540048Y12438837D01*
X3542893Y12438126D01*
X3546601Y12437719D01*
X3551174Y12437618D01*
X3553663Y12438024D01*
X3556711Y12439345D01*
X3560216Y12441428D01*
X3564178Y12444272D01*
X3573068Y12451994D01*
X3583076Y12462154D01*
X3588308Y12467945D01*
X3599027Y12480899D01*
X3609594Y12494717D01*
X3620160Y12507671D01*
X3630777Y12519507D01*
X3641242Y12530175D01*
X3651250Y12539370D01*
X3660698Y12547041D01*
X3669284Y12552883D01*
X3673195Y12555067D01*
X3676802Y12556794D01*
X3680104Y12557963D01*
X3683101Y12558572D01*
X3685641Y12558623D01*
X3687826Y12558064D01*
X3689604Y12556896D01*
X3689807Y12555220D01*
X3688791Y12552019D01*
X3686657Y12547447D01*
X3683558Y12541758D01*
X3674719Y12527534D01*
X3651504Y12494514D01*
X3642868Y12481001D01*
X3639667Y12475210D01*
X3637178Y12469977D01*
X3635400Y12465304D01*
X3634282Y12461036D01*
X3633876Y12457226D01*
X3634181Y12453823D01*
X3635146Y12450673D01*
X3636721Y12447828D01*
X3639007Y12445136D01*
X3641902Y12442647D01*
X3645458Y12440259D01*
X3649624Y12437922D01*
X3654602Y12435890D01*
X3660241Y12434620D01*
X3666337Y12434062D01*
X3672738Y12434214D01*
X3679342Y12434976D01*
X3685895Y12436348D01*
X3692296Y12438329D01*
X3698392Y12440767D01*
X3704031Y12443663D01*
X3709009Y12447066D01*
X3713226Y12450826D01*
X3716477Y12454940D01*
X3720287Y12458141D01*
X3725468Y12457734D01*
X3732174Y12453772D01*
X3745077Y12441580D01*
X3749598Y12437973D01*
X3754018Y12435179D01*
X3758437Y12433249D01*
X3762857Y12432182D01*
X3767378Y12431877D01*
X3772103Y12432334D01*
X3781348Y12434773D01*
X3792270Y12436805D01*
X3804920Y12438176D01*
X3817772Y12438735D01*
X3831640Y12438684D01*
X3838448Y12439396D01*
X3844391Y12440920D01*
X3849725Y12443409D01*
X3854704Y12447016D01*
X3859479Y12451791D01*
X3864356Y12457988D01*
X3872128Y12469622D01*
X3878427Y12478410D01*
X3885793Y12487757D01*
X3893769Y12497257D01*
X3901897Y12506299D01*
X3909771Y12514478D01*
X3922115Y12526060D01*
X3928770Y12531852D01*
X3933799Y12535509D01*
X3937711Y12537135D01*
X3940810Y12536728D01*
X3943553Y12534493D01*
X3946398Y12530378D01*
X3949700Y12524486D01*
X3954475Y12517475D01*
X3960012Y12511735D01*
X3965701Y12507823D01*
X3970782Y12506401D01*
X3975506Y12504572D01*
X3978300Y12499035D01*
X3979265Y12489738D01*
X3978351Y12476530D01*
X3977538Y12467945D01*
X3977452Y12463983D01*
X4011980Y12463983D01*
X4012184Y12469012D01*
X4012895Y12474244D01*
X4014063Y12479528D01*
X4015638Y12484912D01*
X4017518Y12490297D01*
X4019804Y12495733D01*
X4022394Y12501118D01*
X4028389Y12511684D01*
X4035247Y12521793D01*
X4042765Y12531140D01*
X4046677Y12535458D01*
X4054703Y12543180D01*
X4058716Y12546533D01*
X4062729Y12549530D01*
X4066692Y12552121D01*
X4070553Y12554204D01*
X4074312Y12555829D01*
X4077868Y12556998D01*
X4081322Y12557556D01*
X4084523Y12557556D01*
X4087469Y12556998D01*
X4090212Y12555728D01*
X4092600Y12553797D01*
X4094683Y12551206D01*
X4095597Y12548412D01*
X4095597Y12544501D01*
X4094784Y12539726D01*
X4093260Y12534087D01*
X4091076Y12527838D01*
X4088282Y12521133D01*
X4085031Y12514072D01*
X4077309Y12499543D01*
X4072991Y12492380D01*
X4068521Y12485522D01*
X4063949Y12479020D01*
X4059377Y12473076D01*
X4054805Y12467894D01*
X4050436Y12463576D01*
X4046270Y12460274D01*
X4036974Y12454229D01*
X4029456Y12450013D01*
X4023512Y12447625D01*
X4018940Y12447117D01*
X4015689Y12448489D01*
X4013504Y12451740D01*
X4012336Y12456922D01*
X4011980Y12463983D01*
X3977452Y12463983D01*
X3977386Y12460884D01*
X3977995Y12455093D01*
X3979468Y12450368D01*
X3982008Y12446457D01*
X3985615Y12443053D01*
X3990492Y12439954D01*
X3996690Y12436957D01*
X4003040Y12434417D01*
X4008932Y12432792D01*
X4014774Y12431979D01*
X4020667Y12432131D01*
X4027017Y12433147D01*
X4033977Y12435179D01*
X4041800Y12438126D01*
X4050842Y12442088D01*
X4056379Y12444831D01*
X4061968Y12447930D01*
X4067556Y12451384D01*
X4078427Y12459004D01*
X4088739Y12467437D01*
X4098188Y12476378D01*
X4102455Y12480950D01*
X4109974Y12490094D01*
X4113123Y12494615D01*
X4115815Y12498984D01*
X4118000Y12503251D01*
X4119626Y12507366D01*
X4121912Y12510262D01*
X4125925Y12511887D01*
X4131106Y12512040D01*
X4136898Y12510668D01*
X4140809Y12508941D01*
X4143705Y12506960D01*
X4145686Y12504623D01*
X4146651Y12501676D01*
X4146702Y12497968D01*
X4145889Y12493396D01*
X4144213Y12487706D01*
X4139336Y12474143D01*
X4137710Y12468352D01*
X4136796Y12463170D01*
X4136694Y12458547D01*
X4137304Y12454280D01*
X4138676Y12450318D01*
X4140809Y12446457D01*
X4143705Y12442596D01*
X4147515Y12438532D01*
X4151274Y12435230D01*
X4155084Y12432690D01*
X4158945Y12430963D01*
X4162958Y12429998D01*
X4167124Y12429845D01*
X4171543Y12430455D01*
X4176268Y12431877D01*
X4181246Y12434112D01*
X4186682Y12437110D01*
X4192473Y12440920D01*
X4205833Y12450876D01*
X4211320Y12454686D01*
X4215536Y12457023D01*
X4218889Y12457785D01*
X4221784Y12457023D01*
X4224477Y12454686D01*
X4227423Y12450876D01*
X4234535Y12440462D01*
X4238244Y12436398D01*
X4242155Y12433350D01*
X4246270Y12431268D01*
X4250690Y12430150D01*
X4255363Y12430048D01*
X4260443Y12430963D01*
X4265930Y12432893D01*
X4271873Y12435840D01*
X4278325Y12439751D01*
X4285335Y12444730D01*
X4301439Y12457582D01*
X4307992Y12462560D01*
X4312869Y12465710D01*
X4316526Y12467082D01*
X4319219Y12466675D01*
X4321302Y12464542D01*
X4323130Y12460833D01*
X4326636Y12451181D01*
X4328718Y12447320D01*
X4331208Y12443917D01*
X4334103Y12440970D01*
X4337354Y12438481D01*
X4340961Y12436398D01*
X4344924Y12434824D01*
X4349242Y12433655D01*
X4353915Y12432995D01*
X4358894Y12432741D01*
X4364177Y12432944D01*
X4369816Y12433655D01*
X4375708Y12434824D01*
X4381906Y12436449D01*
X4388408Y12438532D01*
X4407357Y12445441D01*
X4417415Y12447778D01*
X4424172Y12447930D01*
X4426661Y12445746D01*
X4427372Y12441580D01*
X4429353Y12438684D01*
X4432401Y12437008D01*
X4436414Y12436500D01*
X4441088Y12437110D01*
X4446320Y12438684D01*
X4451908Y12441224D01*
X4457598Y12444679D01*
X4463288Y12448844D01*
X4468774Y12453823D01*
X4473803Y12459411D01*
X4478274Y12465558D01*
X4483912Y12473838D01*
X4490821Y12482982D01*
X4498543Y12492532D01*
X4506620Y12501880D01*
X4514697Y12510566D01*
X4522317Y12518034D01*
X4530953Y12526060D01*
X4537608Y12531852D01*
X4542637Y12535509D01*
X4546498Y12537135D01*
X4549648Y12536728D01*
X4552391Y12534493D01*
X4555236Y12530378D01*
X4558538Y12524486D01*
X4563668Y12517475D01*
X4570323Y12511735D01*
X4577689Y12507823D01*
X4584801Y12506401D01*
X4588967Y12506807D01*
X4593488Y12507874D01*
X4598365Y12509550D01*
X4603343Y12511684D01*
X4608372Y12514275D01*
X4613300Y12517120D01*
X4617974Y12520168D01*
X4622342Y12523317D01*
X4626203Y12526467D01*
X4629454Y12529566D01*
X4631994Y12532461D01*
X4633671Y12535052D01*
X4634331Y12537236D01*
X4633925Y12538964D01*
X4632198Y12540081D01*
X4629150Y12540538D01*
X4623054Y12539878D01*
X4616602Y12537948D01*
X4610557Y12534950D01*
X4601819Y12528092D01*
X4598111Y12526060D01*
X4594555Y12525095D01*
X4591253Y12525044D01*
X4588357Y12525908D01*
X4585868Y12527534D01*
X4583938Y12529870D01*
X4582617Y12532817D01*
X4582007Y12536373D01*
X4582210Y12540335D01*
X4583328Y12544704D01*
X4585462Y12549378D01*
X4588916Y12556032D01*
X4591710Y12562179D01*
X4593590Y12567208D01*
X4594301Y12570358D01*
X4592980Y12573508D01*
X4589322Y12575235D01*
X4583887Y12575540D01*
X4577181Y12574625D01*
X4569714Y12572542D01*
X4562094Y12569494D01*
X4554778Y12565481D01*
X4548276Y12560655D01*
X4539284Y12552984D01*
X4535068Y12550394D01*
X4534763Y12552984D01*
X4538980Y12565329D01*
X4539437Y12569139D01*
X4538929Y12572136D01*
X4537608Y12574270D01*
X4535576Y12575641D01*
X4532884Y12576251D01*
X4529632Y12576149D01*
X4525975Y12575336D01*
X4522012Y12573863D01*
X4517796Y12571730D01*
X4513427Y12569037D01*
X4509008Y12565735D01*
X4504690Y12561925D01*
X4500473Y12557556D01*
X4496562Y12552730D01*
X4489348Y12541656D01*
X4481068Y12530074D01*
X4471670Y12518694D01*
X4461459Y12507569D01*
X4450638Y12496952D01*
X4439462Y12486995D01*
X4428134Y12477851D01*
X4416907Y12469723D01*
X4406036Y12462764D01*
X4395724Y12457125D01*
X4390898Y12454890D01*
X4386275Y12453061D01*
X4381906Y12451638D01*
X4377842Y12450622D01*
X4374134Y12450114D01*
X4370730Y12450114D01*
X4367784Y12450572D01*
X4365193Y12451588D01*
X4363059Y12453162D01*
X4359960Y12457633D01*
X4357827Y12463526D01*
X4356963Y12470130D01*
X4357471Y12476632D01*
X4358233Y12480239D01*
X4359198Y12483439D01*
X4360570Y12486284D01*
X4362450Y12489027D01*
X4365142Y12491720D01*
X4368800Y12494514D01*
X4373626Y12497612D01*
X4387545Y12505080D01*
X4428693Y12524841D01*
X4434535Y12528143D01*
X4439767Y12531496D01*
X4444339Y12534798D01*
X4448251Y12538151D01*
X4451553Y12541504D01*
X4454194Y12544755D01*
X4456226Y12547955D01*
X4457598Y12551105D01*
X4458309Y12554102D01*
X4458360Y12556998D01*
X4457750Y12559741D01*
X4456531Y12562281D01*
X4454601Y12564668D01*
X4452010Y12566802D01*
X4448759Y12568732D01*
X4444847Y12570409D01*
X4440275Y12571780D01*
X4434992Y12572847D01*
X4425391Y12573914D01*
X4418482Y12573914D01*
X4415129Y12573558D01*
X4408525Y12572085D01*
X4405172Y12570866D01*
X4401718Y12569291D01*
X4394200Y12564922D01*
X4385716Y12558776D01*
X4375861Y12550546D01*
X4364228Y12540081D01*
X4350512Y12527076D01*
X4335921Y12512852D01*
X4369308Y12512852D01*
X4390694Y12535458D01*
X4398568Y12543332D01*
X4405630Y12549530D01*
X4411776Y12554051D01*
X4416958Y12556794D01*
X4421124Y12557709D01*
X4424172Y12556896D01*
X4426000Y12554204D01*
X4426661Y12549632D01*
X4426051Y12547701D01*
X4424375Y12545263D01*
X4421733Y12542520D01*
X4418228Y12539573D01*
X4414012Y12536424D01*
X4409135Y12533223D01*
X4403750Y12530074D01*
X4369308Y12512852D01*
X4335921Y12512852D01*
X4312361Y12490196D01*
X4299508Y12478410D01*
X4288129Y12468402D01*
X4278172Y12460224D01*
X4269740Y12453874D01*
X4262882Y12449403D01*
X4257497Y12446812D01*
X4255414Y12446203D01*
X4253738Y12446101D01*
X4252417Y12446457D01*
X4251553Y12447270D01*
X4251045Y12448590D01*
X4250994Y12450419D01*
X4251299Y12452654D01*
X4253230Y12458700D01*
X4254601Y12461443D01*
X4261408Y12472670D01*
X4272788Y12490500D01*
X4288028Y12513665D01*
X4348175Y12602464D01*
X4367885Y12632080D01*
X4384802Y12658394D01*
X4398162Y12680238D01*
X4407306Y12696444D01*
X4410049Y12702082D01*
X4411472Y12705842D01*
X4411624Y12707010D01*
X4411472Y12707620D01*
X4409744Y12709144D01*
X4406188Y12711277D01*
X4404309Y12711836D01*
X4402378Y12712141D01*
X4400296Y12712090D01*
X4398111Y12711684D01*
X4395825Y12710871D01*
X4393387Y12709702D01*
X4390847Y12708178D01*
X4385157Y12703810D01*
X4378756Y12697764D01*
X4371441Y12689840D01*
X4363212Y12679984D01*
X4353864Y12668046D01*
X4343349Y12653975D01*
X4318406Y12618872D01*
X4291939Y12580670D01*
X4280509Y12564567D01*
X4258818Y12535204D01*
X4248556Y12521946D01*
X4238802Y12509754D01*
X4229506Y12498527D01*
X4220667Y12488367D01*
X4212386Y12479274D01*
X4204614Y12471247D01*
X4197400Y12464389D01*
X4190796Y12458649D01*
X4184802Y12454077D01*
X4179366Y12450673D01*
X4176928Y12449403D01*
X4172508Y12447828D01*
X4170578Y12447524D01*
X4168800Y12447524D01*
X4167174Y12447828D01*
X4165752Y12448489D01*
X4164533Y12449454D01*
X4164329Y12450064D01*
X4165092Y12452908D01*
X4167276Y12457684D01*
X4170730Y12464338D01*
X4181246Y12482474D01*
X4195876Y12506147D01*
X4213860Y12534087D01*
X4266488Y12612725D01*
X4285081Y12641275D01*
X4300575Y12665862D01*
X4312208Y12685115D01*
X4316323Y12692430D01*
X4319117Y12697866D01*
X4320590Y12701422D01*
X4320794Y12702387D01*
X4320286Y12708128D01*
X4319625Y12710261D01*
X4318762Y12711938D01*
X4317644Y12713157D01*
X4316272Y12713919D01*
G37*
G36*
X2001113Y12713563D02*
G01*
X1995678Y12713411D01*
X1990191Y12712852D01*
X1984705Y12711988D01*
X1979168Y12710769D01*
X1973681Y12709194D01*
X1968195Y12707264D01*
X1962810Y12704978D01*
X1957527Y12702286D01*
X1952345Y12699238D01*
X1947316Y12695783D01*
X1942439Y12691973D01*
X1937766Y12687706D01*
X1932025Y12681661D01*
X1926894Y12675463D01*
X1922475Y12669164D01*
X1918766Y12662814D01*
X1915820Y12656464D01*
X1913686Y12650216D01*
X1912315Y12644120D01*
X1911857Y12638278D01*
X1911502Y12627457D01*
X1910994Y12622784D01*
X1910181Y12618516D01*
X1909064Y12614554D01*
X1907539Y12610846D01*
X1905558Y12607340D01*
X1903069Y12603988D01*
X1900021Y12600635D01*
X1896364Y12597282D01*
X1891995Y12593828D01*
X1881022Y12586462D01*
X1866646Y12577876D01*
X1852879Y12570002D01*
X1843379Y12563754D01*
X1834946Y12557302D01*
X1827530Y12550648D01*
X1821078Y12543840D01*
X1815642Y12536932D01*
X1811172Y12529921D01*
X1807616Y12522911D01*
X1804974Y12515850D01*
X1803196Y12508788D01*
X1802587Y12505334D01*
X1802079Y12498425D01*
X1802079Y12494971D01*
X1802739Y12488265D01*
X1804162Y12481712D01*
X1806295Y12475362D01*
X1809140Y12469266D01*
X1812696Y12463475D01*
X1816862Y12457988D01*
X1821637Y12452858D01*
X1827022Y12448082D01*
X1832965Y12443764D01*
X1839468Y12439904D01*
X1846478Y12436551D01*
X1853946Y12433757D01*
X1861921Y12431471D01*
X1870303Y12429845D01*
X1879041Y12428829D01*
X1888185Y12428524D01*
X1897684Y12428931D01*
X1907489Y12430099D01*
X1917598Y12432030D01*
X1927961Y12434824D01*
X1938578Y12438430D01*
X1949399Y12442952D01*
X1962404Y12449454D01*
X1969363Y12453264D01*
X1981403Y12460732D01*
X1986584Y12464491D01*
X1991156Y12468199D01*
X1995271Y12472009D01*
X1998827Y12475870D01*
X2001875Y12479782D01*
X2004517Y12483846D01*
X2006650Y12488011D01*
X2008378Y12492329D01*
X2009648Y12496850D01*
X2010562Y12501575D01*
X2011070Y12506553D01*
X2011273Y12511735D01*
X2010968Y12516612D01*
X2010206Y12521234D01*
X2008936Y12525502D01*
X2007158Y12529464D01*
X2004974Y12533071D01*
X2002383Y12536322D01*
X1999437Y12539268D01*
X1996084Y12541859D01*
X1992426Y12544094D01*
X1988464Y12545974D01*
X1984248Y12547498D01*
X1979777Y12548616D01*
X1975104Y12549378D01*
X1970227Y12549733D01*
X1965198Y12549733D01*
X1960016Y12549327D01*
X1954733Y12548565D01*
X1949348Y12547346D01*
X1943963Y12545720D01*
X1938528Y12543688D01*
X1933092Y12541199D01*
X1927707Y12538354D01*
X1922373Y12535001D01*
X1917141Y12531242D01*
X1910334Y12525806D01*
X1904949Y12521082D01*
X1901088Y12517069D01*
X1898650Y12513919D01*
X1897583Y12511532D01*
X1897888Y12510008D01*
X1899564Y12509398D01*
X1902510Y12509652D01*
X1906778Y12510871D01*
X1912264Y12513106D01*
X1919020Y12516307D01*
X1932584Y12523470D01*
X1937969Y12525857D01*
X1943100Y12527788D01*
X1947925Y12529159D01*
X1952548Y12530074D01*
X1956816Y12530582D01*
X1960829Y12530632D01*
X1964486Y12530277D01*
X1967839Y12529515D01*
X1970887Y12528397D01*
X1973580Y12526924D01*
X1975866Y12525095D01*
X1977847Y12523012D01*
X1979422Y12520625D01*
X1980590Y12517932D01*
X1981403Y12515037D01*
X1981758Y12511938D01*
X1981707Y12508585D01*
X1981200Y12505080D01*
X1980285Y12501372D01*
X1978914Y12497562D01*
X1977034Y12493599D01*
X1974697Y12489535D01*
X1971903Y12485420D01*
X1968550Y12481204D01*
X1964689Y12476988D01*
X1960321Y12472720D01*
X1955444Y12468504D01*
X1950618Y12464745D01*
X1945741Y12461443D01*
X1940814Y12458446D01*
X1935835Y12455855D01*
X1930806Y12453569D01*
X1925777Y12451638D01*
X1920748Y12450064D01*
X1915718Y12448844D01*
X1910689Y12447930D01*
X1905762Y12447371D01*
X1900885Y12447117D01*
X1896059Y12447168D01*
X1891334Y12447574D01*
X1886712Y12448235D01*
X1882190Y12449251D01*
X1877822Y12450521D01*
X1873605Y12452096D01*
X1869592Y12453975D01*
X1865731Y12456109D01*
X1862074Y12458496D01*
X1858619Y12461189D01*
X1855419Y12464135D01*
X1852472Y12467386D01*
X1849780Y12470841D01*
X1847342Y12474549D01*
X1845208Y12478512D01*
X1843430Y12482728D01*
X1841906Y12487148D01*
X1840788Y12491821D01*
X1839975Y12496749D01*
X1839518Y12501829D01*
X1839518Y12507163D01*
X1839772Y12511735D01*
X1840280Y12516104D01*
X1841093Y12520371D01*
X1842211Y12524536D01*
X1843633Y12528550D01*
X1845360Y12532461D01*
X1847443Y12536322D01*
X1849831Y12540132D01*
X1852625Y12543840D01*
X1855774Y12547549D01*
X1859280Y12551206D01*
X1863191Y12554864D01*
X1872284Y12562179D01*
X1883156Y12569647D01*
X1895856Y12577368D01*
X1910486Y12585395D01*
X1916684Y12589052D01*
X1922373Y12593167D01*
X1927504Y12597638D01*
X1931974Y12602464D01*
X1935784Y12607544D01*
X1938934Y12612928D01*
X1941322Y12618466D01*
X1942947Y12624104D01*
X1944878Y12632740D01*
X1946960Y12640665D01*
X1949246Y12648031D01*
X1951634Y12654737D01*
X1954225Y12660884D01*
X1957019Y12666421D01*
X1959965Y12671450D01*
X1963166Y12675870D01*
X1966620Y12679832D01*
X1970328Y12683236D01*
X1974240Y12686182D01*
X1978456Y12688620D01*
X1982978Y12690652D01*
X1987804Y12692176D01*
X1992934Y12693345D01*
X1998370Y12694056D01*
X2005126Y12694513D01*
X2011121Y12694462D01*
X2016404Y12693904D01*
X2020976Y12692888D01*
X2024786Y12691414D01*
X2027885Y12689382D01*
X2030222Y12686944D01*
X2031847Y12683998D01*
X2033219Y12679019D01*
X2033524Y12673736D01*
X2032863Y12668351D01*
X2031288Y12662865D01*
X2028901Y12657480D01*
X2025802Y12652197D01*
X2021992Y12647218D01*
X2017623Y12642646D01*
X2012696Y12638532D01*
X2007311Y12635026D01*
X2001621Y12632283D01*
X1988159Y12627914D01*
X1982063Y12624866D01*
X1977440Y12621463D01*
X1974443Y12618008D01*
X1973325Y12614808D01*
X1974240Y12612166D01*
X1977339Y12610338D01*
X1982876Y12609626D01*
X1988210Y12609931D01*
X1993798Y12610846D01*
X1999640Y12612217D01*
X2005533Y12614097D01*
X2011527Y12616434D01*
X2017471Y12619126D01*
X2023313Y12622174D01*
X2028952Y12625476D01*
X2034336Y12629083D01*
X2039416Y12632842D01*
X2044039Y12636703D01*
X2048154Y12640716D01*
X2051761Y12644780D01*
X2054707Y12648844D01*
X2056892Y12652806D01*
X2058314Y12656718D01*
X2059381Y12661900D01*
X2059889Y12666878D01*
X2059838Y12671602D01*
X2059279Y12676124D01*
X2058263Y12680442D01*
X2056739Y12684506D01*
X2054809Y12688366D01*
X2052421Y12691973D01*
X2049678Y12695275D01*
X2046579Y12698374D01*
X2043125Y12701219D01*
X2039366Y12703759D01*
X2035302Y12705994D01*
X2031034Y12707975D01*
X2026462Y12709702D01*
X2021738Y12711074D01*
X2016760Y12712192D01*
X2011680Y12712954D01*
X2006447Y12713411D01*
G37*
G36*
X1821535Y12712852D02*
G01*
X1820672Y12712547D01*
X1819554Y12711633D01*
X1816709Y12708026D01*
X1813102Y12702286D01*
X1808734Y12694513D01*
X1803755Y12684861D01*
X1792224Y12660579D01*
X1779066Y12630810D01*
X1764842Y12596774D01*
X1701698Y12436703D01*
X1701596Y12433706D01*
X1703527Y12431268D01*
X1707134Y12429591D01*
X1712061Y12428982D01*
X1713280Y12429236D01*
X1714601Y12429896D01*
X1717649Y12432639D01*
X1721256Y12437211D01*
X1725371Y12443612D01*
X1730044Y12451842D01*
X1735328Y12462002D01*
X1741119Y12473990D01*
X1754530Y12503708D01*
X1770227Y12541148D01*
X1786229Y12580924D01*
X1811680Y12646101D01*
X1821383Y12671755D01*
X1828342Y12691008D01*
X1832102Y12702387D01*
X1832610Y12704724D01*
X1831695Y12707874D01*
X1829358Y12710464D01*
X1825853Y12712192D01*
G37*
G36*
X3408629Y12711531D02*
G01*
X3397250Y12710972D01*
X3391306Y12710261D01*
X3385159Y12709245D01*
X3378911Y12707924D01*
X3365957Y12704368D01*
X3359353Y12702133D01*
X3352596Y12699542D01*
X3340150Y12694005D01*
X3329025Y12688316D01*
X3318103Y12682016D01*
X3307384Y12675209D01*
X3296920Y12667843D01*
X3286760Y12660071D01*
X3276904Y12651841D01*
X3267456Y12643256D01*
X3258362Y12634315D01*
X3249676Y12625120D01*
X3241497Y12615621D01*
X3233775Y12605969D01*
X3226612Y12596164D01*
X3220008Y12586208D01*
X3213963Y12576200D01*
X3208578Y12566142D01*
X3203905Y12556083D01*
X3199841Y12546076D01*
X3196590Y12536170D01*
X3194100Y12526416D01*
X3192373Y12516866D01*
X3191510Y12507518D01*
X3191560Y12497663D01*
X3191967Y12492583D01*
X3193694Y12482982D01*
X3194964Y12478512D01*
X3196488Y12474194D01*
X3198266Y12470079D01*
X3200247Y12466167D01*
X3204921Y12458903D01*
X3210407Y12452451D01*
X3216605Y12446812D01*
X3219958Y12444272D01*
X3227171Y12439802D01*
X3234893Y12436144D01*
X3243122Y12433300D01*
X3251708Y12431268D01*
X3260648Y12430048D01*
X3265170Y12429693D01*
X3274415Y12429693D01*
X3283762Y12430506D01*
X3288487Y12431217D01*
X3297885Y12433300D01*
X3302558Y12434620D01*
X3311804Y12437922D01*
X3320846Y12442037D01*
X3329635Y12447016D01*
X3338068Y12452858D01*
X3342132Y12456058D01*
X3349904Y12463170D01*
X3357118Y12471095D01*
X3363722Y12479883D01*
X3369614Y12489535D01*
X3372256Y12494717D01*
X3375253Y12501422D01*
X3377641Y12507976D01*
X3379368Y12514376D01*
X3380536Y12520523D01*
X3381146Y12526518D01*
X3381095Y12532207D01*
X3380536Y12537643D01*
X3379368Y12542824D01*
X3377590Y12547650D01*
X3375304Y12552172D01*
X3372459Y12556337D01*
X3369056Y12560096D01*
X3365093Y12563500D01*
X3360623Y12566446D01*
X3355594Y12568936D01*
X3350056Y12570968D01*
X3343605Y12572746D01*
X3338169Y12573762D01*
X3333750Y12574066D01*
X3330346Y12573711D01*
X3328009Y12572695D01*
X3326739Y12571069D01*
X3326536Y12568834D01*
X3327450Y12566142D01*
X3329432Y12562890D01*
X3332530Y12559182D01*
X3336798Y12555067D01*
X3348990Y12545060D01*
X3353866Y12540538D01*
X3357016Y12536373D01*
X3358438Y12532106D01*
X3358184Y12527229D01*
X3356356Y12521133D01*
X3353003Y12513411D01*
X3348228Y12503404D01*
X3344976Y12497257D01*
X3341420Y12491415D01*
X3337661Y12485928D01*
X3333597Y12480747D01*
X3329330Y12475921D01*
X3324910Y12471400D01*
X3320287Y12467234D01*
X3315563Y12463475D01*
X3310737Y12460020D01*
X3305759Y12456972D01*
X3300780Y12454280D01*
X3295751Y12451943D01*
X3290722Y12450064D01*
X3285744Y12448540D01*
X3280765Y12447422D01*
X3275888Y12446711D01*
X3271062Y12446457D01*
X3266389Y12446558D01*
X3261867Y12447168D01*
X3257550Y12448184D01*
X3253384Y12449606D01*
X3249472Y12451537D01*
X3245815Y12453874D01*
X3242411Y12456718D01*
X3239363Y12460020D01*
X3236620Y12463830D01*
X3234232Y12468098D01*
X3232251Y12472873D01*
X3230880Y12476988D01*
X3229813Y12481204D01*
X3228390Y12490043D01*
X3228035Y12494666D01*
X3228035Y12504115D01*
X3228949Y12513868D01*
X3230727Y12523978D01*
X3233318Y12534239D01*
X3236772Y12544755D01*
X3240989Y12555321D01*
X3245967Y12565989D01*
X3251657Y12576606D01*
X3258058Y12587224D01*
X3265119Y12597688D01*
X3272790Y12608001D01*
X3281121Y12618110D01*
X3289960Y12627965D01*
X3299409Y12637414D01*
X3309365Y12646507D01*
X3319779Y12655194D01*
X3330651Y12663322D01*
X3342589Y12671348D01*
X3355238Y12678664D01*
X3367633Y12684760D01*
X3379571Y12689636D01*
X3390900Y12693243D01*
X3396335Y12694564D01*
X3406394Y12696240D01*
X3411067Y12696596D01*
X3415436Y12696596D01*
X3419500Y12696291D01*
X3423259Y12695631D01*
X3426612Y12694615D01*
X3429609Y12693294D01*
X3432200Y12691618D01*
X3434384Y12689636D01*
X3436112Y12687249D01*
X3437382Y12684556D01*
X3438194Y12681508D01*
X3438448Y12678054D01*
X3437991Y12673939D01*
X3436772Y12669469D01*
X3434842Y12664744D01*
X3432251Y12659817D01*
X3429152Y12654838D01*
X3425545Y12649911D01*
X3421532Y12644983D01*
X3417163Y12640259D01*
X3412591Y12635788D01*
X3407867Y12631623D01*
X3403092Y12627864D01*
X3398265Y12624612D01*
X3393541Y12621971D01*
X3388969Y12619939D01*
X3384651Y12618669D01*
X3380689Y12618262D01*
X3374694Y12619583D01*
X3369106Y12623292D01*
X3364534Y12628778D01*
X3361588Y12635433D01*
X3358997Y12642697D01*
X3355949Y12647930D01*
X3352596Y12651079D01*
X3349244Y12652146D01*
X3346196Y12651181D01*
X3343706Y12648133D01*
X3342030Y12642951D01*
X3341370Y12635738D01*
X3341674Y12631521D01*
X3342589Y12627610D01*
X3344011Y12624054D01*
X3345942Y12620802D01*
X3348329Y12617856D01*
X3351174Y12615265D01*
X3354425Y12612979D01*
X3358032Y12611049D01*
X3361944Y12609372D01*
X3366211Y12608052D01*
X3370681Y12607036D01*
X3375406Y12606375D01*
X3380282Y12606020D01*
X3385312Y12605969D01*
X3390493Y12606223D01*
X3395726Y12606782D01*
X3406292Y12608864D01*
X3411524Y12610388D01*
X3416757Y12612217D01*
X3421837Y12614351D01*
X3426764Y12616840D01*
X3431540Y12619583D01*
X3436162Y12622682D01*
X3440480Y12626035D01*
X3444544Y12629743D01*
X3448253Y12633706D01*
X3451656Y12638024D01*
X3454958Y12642900D01*
X3457752Y12647625D01*
X3460038Y12652298D01*
X3461918Y12656820D01*
X3463290Y12661188D01*
X3464255Y12665456D01*
X3464763Y12669520D01*
X3464915Y12673482D01*
X3464610Y12677292D01*
X3463899Y12680950D01*
X3462832Y12684404D01*
X3461359Y12687706D01*
X3459530Y12690805D01*
X3457397Y12693700D01*
X3454908Y12696444D01*
X3452063Y12698933D01*
X3448964Y12701270D01*
X3445510Y12703352D01*
X3441801Y12705232D01*
X3437788Y12706858D01*
X3433521Y12708280D01*
X3429000Y12709448D01*
X3424224Y12710363D01*
X3419246Y12711023D01*
G37*
G36*
X3026867Y12704114D02*
G01*
X3024682Y12703810D01*
X3022244Y12702844D01*
X3019501Y12701270D01*
X3016453Y12699136D01*
X3009544Y12692888D01*
X3001518Y12684201D01*
X2992374Y12673025D01*
X2982061Y12659360D01*
X2970682Y12643205D01*
X2948533Y12610134D01*
X2929585Y12583007D01*
X2911144Y12558064D01*
X2902153Y12546533D01*
X2884576Y12525197D01*
X2876042Y12515443D01*
X2867710Y12506350D01*
X2859582Y12497917D01*
X2851658Y12490094D01*
X2843885Y12482982D01*
X2836418Y12476530D01*
X2829102Y12470739D01*
X2822092Y12465710D01*
X2815285Y12461341D01*
X2808782Y12457684D01*
X2803753Y12455296D01*
X2799029Y12453467D01*
X2794660Y12452096D01*
X2790647Y12451232D01*
X2786938Y12450876D01*
X2783586Y12450927D01*
X2780588Y12451435D01*
X2777896Y12452400D01*
X2775559Y12453721D01*
X2773578Y12455448D01*
X2771952Y12457531D01*
X2770632Y12459970D01*
X2769717Y12462713D01*
X2769108Y12465761D01*
X2768904Y12469164D01*
X2769057Y12472822D01*
X2769514Y12476683D01*
X2770378Y12480848D01*
X2771597Y12485217D01*
X2773222Y12489789D01*
X2775204Y12494564D01*
X2780233Y12504572D01*
X2786786Y12515088D01*
X2790647Y12520523D01*
X2799537Y12531547D01*
X2805582Y12538151D01*
X2811526Y12543840D01*
X2817266Y12548565D01*
X2822702Y12552324D01*
X2827832Y12555118D01*
X2832506Y12556896D01*
X2836722Y12557658D01*
X2840329Y12557353D01*
X2843225Y12555931D01*
X2845409Y12553492D01*
X2846781Y12549886D01*
X2847848Y12539726D01*
X2849422Y12535865D01*
X2851912Y12533528D01*
X2855163Y12532715D01*
X2859074Y12533426D01*
X2863545Y12535662D01*
X2868320Y12539472D01*
X2873451Y12544755D01*
X2876245Y12548412D01*
X2878328Y12551867D01*
X2879648Y12555118D01*
X2880258Y12558115D01*
X2880258Y12560909D01*
X2879598Y12563449D01*
X2878378Y12565786D01*
X2876651Y12567869D01*
X2874416Y12569698D01*
X2871673Y12571272D01*
X2868523Y12572644D01*
X2865018Y12573711D01*
X2861106Y12574524D01*
X2856941Y12575082D01*
X2852470Y12575387D01*
X2847746Y12575438D01*
X2837789Y12574676D01*
X2832608Y12573863D01*
X2822041Y12571374D01*
X2816707Y12569748D01*
X2811373Y12567767D01*
X2801061Y12562941D01*
X2796082Y12560046D01*
X2791256Y12556845D01*
X2786684Y12553391D01*
X2778912Y12546482D01*
X2770632Y12538252D01*
X2762250Y12529108D01*
X2754274Y12519609D01*
X2747010Y12510262D01*
X2737866Y12496901D01*
X2734310Y12492278D01*
X2726232Y12483185D01*
X2717241Y12474600D01*
X2712567Y12470536D01*
X2703169Y12463322D01*
X2694127Y12457379D01*
X2689910Y12454991D01*
X2685948Y12453061D01*
X2682290Y12451588D01*
X2679039Y12450673D01*
X2676245Y12450318D01*
X2673959Y12450572D01*
X2672232Y12451486D01*
X2671165Y12453061D01*
X2670810Y12455398D01*
X2671114Y12457125D01*
X2673604Y12462967D01*
X2678176Y12471501D01*
X2684576Y12482118D01*
X2692400Y12494209D01*
X2701340Y12507315D01*
X2724607Y12540284D01*
X2732786Y12552781D01*
X2737764Y12561925D01*
X2739136Y12565430D01*
X2739745Y12568224D01*
X2739694Y12570460D01*
X2738932Y12572187D01*
X2737510Y12573457D01*
X2735427Y12574320D01*
X2732684Y12574879D01*
X2725470Y12575235D01*
X2722880Y12574828D01*
X2719832Y12573558D01*
X2716326Y12571476D01*
X2712415Y12568631D01*
X2708198Y12565126D01*
X2703626Y12560909D01*
X2693822Y12550648D01*
X2683256Y12538151D01*
X2663596Y12512395D01*
X2654198Y12501321D01*
X2644394Y12490704D01*
X2634386Y12480798D01*
X2624531Y12471806D01*
X2615082Y12463932D01*
X2606294Y12457430D01*
X2598521Y12452502D01*
X2595067Y12450724D01*
X2591968Y12449403D01*
X2589225Y12448590D01*
X2586939Y12448336D01*
X2585059Y12448590D01*
X2583688Y12449454D01*
X2582875Y12450927D01*
X2582570Y12453061D01*
X2582926Y12454534D01*
X2585720Y12460274D01*
X2590850Y12469063D01*
X2598013Y12480391D01*
X2606751Y12493599D01*
X2629357Y12525857D01*
X2640787Y12542723D01*
X2645003Y12549530D01*
X2648305Y12555321D01*
X2650693Y12560198D01*
X2652166Y12564211D01*
X2652826Y12567412D01*
X2652674Y12569901D01*
X2651760Y12571780D01*
X2650083Y12573101D01*
X2647645Y12573914D01*
X2644292Y12573965D01*
X2640025Y12572949D01*
X2634996Y12570968D01*
X2629509Y12568174D01*
X2623616Y12564567D01*
X2617520Y12560350D01*
X2611424Y12555524D01*
X2599029Y12544348D01*
X2592984Y12539268D01*
X2587294Y12534900D01*
X2581910Y12531344D01*
X2576931Y12528600D01*
X2572207Y12526619D01*
X2567838Y12525400D01*
X2563774Y12524943D01*
X2559964Y12525298D01*
X2556408Y12526416D01*
X2553106Y12528296D01*
X2550007Y12530988D01*
X2547162Y12534442D01*
X2544521Y12538659D01*
X2542082Y12543637D01*
X2536850Y12556947D01*
X2533853Y12562890D01*
X2530500Y12567412D01*
X2526487Y12570714D01*
X2521508Y12572949D01*
X2515311Y12574371D01*
X2507589Y12575032D01*
X2498039Y12575235D01*
X2493264Y12574981D01*
X2488285Y12574320D01*
X2483256Y12573254D01*
X2478074Y12571730D01*
X2472842Y12569850D01*
X2467610Y12567615D01*
X2456992Y12562179D01*
X2446528Y12555575D01*
X2436368Y12547955D01*
X2426716Y12539573D01*
X2417673Y12530531D01*
X2409545Y12521031D01*
X2402484Y12511278D01*
X2399385Y12506350D01*
X2394204Y12496495D01*
X2392222Y12491618D01*
X2390597Y12486792D01*
X2389428Y12482068D01*
X2388717Y12477445D01*
X2388463Y12472974D01*
X2388666Y12467336D01*
X2389094Y12463983D01*
X2423769Y12463983D01*
X2423972Y12469012D01*
X2424684Y12474244D01*
X2425852Y12479528D01*
X2427427Y12484912D01*
X2429357Y12490297D01*
X2431592Y12495733D01*
X2434183Y12501118D01*
X2440178Y12511684D01*
X2447036Y12521793D01*
X2454554Y12531140D01*
X2458466Y12535458D01*
X2466492Y12543180D01*
X2470505Y12546533D01*
X2474518Y12549530D01*
X2478481Y12552121D01*
X2482342Y12554204D01*
X2486101Y12555829D01*
X2489657Y12556998D01*
X2493111Y12557556D01*
X2496312Y12557556D01*
X2499258Y12556998D01*
X2502001Y12555728D01*
X2504389Y12553797D01*
X2506472Y12551206D01*
X2507386Y12548412D01*
X2507386Y12544501D01*
X2506624Y12539726D01*
X2505049Y12534087D01*
X2502865Y12527838D01*
X2500071Y12521133D01*
X2496820Y12514072D01*
X2489098Y12499543D01*
X2484780Y12492380D01*
X2480310Y12485522D01*
X2475738Y12479020D01*
X2471166Y12473076D01*
X2466594Y12467894D01*
X2462225Y12463576D01*
X2458059Y12460274D01*
X2448763Y12454229D01*
X2441244Y12450013D01*
X2435301Y12447625D01*
X2430729Y12447117D01*
X2427478Y12448489D01*
X2425293Y12451740D01*
X2424125Y12456922D01*
X2423769Y12463983D01*
X2389094Y12463983D01*
X2389327Y12462154D01*
X2390444Y12457328D01*
X2391968Y12452959D01*
X2393848Y12448946D01*
X2396185Y12445390D01*
X2398826Y12442240D01*
X2401874Y12439548D01*
X2405278Y12437262D01*
X2409037Y12435382D01*
X2413101Y12433960D01*
X2417521Y12433046D01*
X2422194Y12432538D01*
X2427173Y12432487D01*
X2432456Y12432893D01*
X2437993Y12433757D01*
X2443784Y12435128D01*
X2449830Y12436957D01*
X2456129Y12439294D01*
X2462631Y12442088D01*
X2468118Y12444831D01*
X2473604Y12447879D01*
X2479141Y12451283D01*
X2489962Y12458852D01*
X2500274Y12467234D01*
X2509723Y12476124D01*
X2517952Y12485166D01*
X2521559Y12489688D01*
X2524709Y12494107D01*
X2527401Y12498476D01*
X2529586Y12502642D01*
X2531262Y12506655D01*
X2533904Y12509347D01*
X2538984Y12510770D01*
X2545842Y12510871D01*
X2553665Y12509550D01*
X2563063Y12506401D01*
X2567736Y12502438D01*
X2568143Y12496850D01*
X2564739Y12488824D01*
X2561945Y12483388D01*
X2559710Y12478156D01*
X2557983Y12473127D01*
X2556713Y12468352D01*
X2556002Y12463830D01*
X2555697Y12459614D01*
X2555849Y12455601D01*
X2556459Y12451892D01*
X2557424Y12448489D01*
X2558846Y12445390D01*
X2560574Y12442596D01*
X2562656Y12440158D01*
X2565095Y12438024D01*
X2567838Y12436246D01*
X2570886Y12434773D01*
X2574239Y12433706D01*
X2577795Y12433046D01*
X2581605Y12432741D01*
X2585669Y12432842D01*
X2589885Y12433300D01*
X2594305Y12434214D01*
X2598928Y12435586D01*
X2603652Y12437364D01*
X2608529Y12439548D01*
X2613507Y12442240D01*
X2618587Y12445390D01*
X2623718Y12449048D01*
X2637129Y12459614D01*
X2641803Y12461748D01*
X2643886Y12459462D01*
X2644343Y12452756D01*
X2645410Y12447219D01*
X2648254Y12441885D01*
X2652471Y12437465D01*
X2657652Y12434468D01*
X2661869Y12433401D01*
X2666847Y12433046D01*
X2672435Y12433249D01*
X2678379Y12434062D01*
X2684576Y12435382D01*
X2690774Y12437160D01*
X2696870Y12439294D01*
X2702610Y12441783D01*
X2707843Y12444577D01*
X2712415Y12447574D01*
X2716123Y12450724D01*
X2718816Y12453975D01*
X2722321Y12456414D01*
X2727553Y12455804D01*
X2734157Y12452248D01*
X2741726Y12445898D01*
X2746857Y12441123D01*
X2751683Y12437160D01*
X2756357Y12434112D01*
X2760980Y12431877D01*
X2765653Y12430506D01*
X2770632Y12430048D01*
X2776016Y12430404D01*
X2781909Y12431572D01*
X2788462Y12433655D01*
X2795879Y12436551D01*
X2804261Y12440310D01*
X2821635Y12448692D01*
X2828188Y12451537D01*
X2833370Y12453467D01*
X2837281Y12454432D01*
X2839974Y12454483D01*
X2841447Y12453620D01*
X2841853Y12451842D01*
X2840075Y12445492D01*
X2839974Y12442494D01*
X2840837Y12440158D01*
X2842463Y12438481D01*
X2844800Y12437465D01*
X2847746Y12437059D01*
X2851200Y12437211D01*
X2855010Y12437922D01*
X2859074Y12439142D01*
X2863392Y12440869D01*
X2867710Y12443104D01*
X2872079Y12445796D01*
X2876296Y12448895D01*
X2880258Y12452400D01*
X2883916Y12456261D01*
X2898241Y12475768D01*
X2906928Y12486538D01*
X2916326Y12497460D01*
X2926130Y12508280D01*
X2936087Y12518745D01*
X2945892Y12528499D01*
X2955340Y12537338D01*
X2964027Y12544958D01*
X2971800Y12551054D01*
X2978302Y12555423D01*
X2981045Y12556845D01*
X2983331Y12557709D01*
X2985160Y12558014D01*
X2989122Y12557861D01*
X2992221Y12557404D01*
X2994456Y12556439D01*
X2995777Y12555016D01*
X2996184Y12552934D01*
X2995676Y12550241D01*
X2994101Y12546736D01*
X2991612Y12542418D01*
X2988005Y12537135D01*
X2977642Y12523520D01*
X2966262Y12509195D01*
X2962148Y12503404D01*
X2958541Y12497765D01*
X2955340Y12492228D01*
X2952546Y12486843D01*
X2950210Y12481560D01*
X2948330Y12476480D01*
X2946857Y12471603D01*
X2945790Y12466929D01*
X2945130Y12462510D01*
X2944876Y12458293D01*
X2944977Y12454382D01*
X2945536Y12450724D01*
X2946450Y12447320D01*
X2947720Y12444272D01*
X2949397Y12441580D01*
X2951378Y12439192D01*
X2953766Y12437211D01*
X2956509Y12435586D01*
X2959608Y12434366D01*
X2963011Y12433604D01*
X2966821Y12433249D01*
X2970885Y12433350D01*
X2975305Y12433909D01*
X2980029Y12434976D01*
X2985109Y12436551D01*
X2990443Y12438684D01*
X2996082Y12441326D01*
X3000044Y12443510D01*
X3004413Y12446254D01*
X3014065Y12453315D01*
X3024581Y12461900D01*
X3035604Y12471704D01*
X3046679Y12482271D01*
X3057347Y12493040D01*
X3067253Y12503708D01*
X3075889Y12513818D01*
X3082950Y12522809D01*
X3085744Y12526822D01*
X3087928Y12530378D01*
X3089503Y12533477D01*
X3090418Y12536017D01*
X3090570Y12537998D01*
X3090011Y12539319D01*
X3088132Y12539776D01*
X3085134Y12538760D01*
X3081121Y12536424D01*
X3076295Y12532918D01*
X3070758Y12528346D01*
X3064713Y12522809D01*
X3058312Y12516459D01*
X3046476Y12503759D01*
X3035655Y12492888D01*
X3024632Y12482677D01*
X3013760Y12473330D01*
X3003346Y12465151D01*
X2993796Y12458446D01*
X2985414Y12453366D01*
X2981807Y12451486D01*
X2978658Y12450165D01*
X2975914Y12449403D01*
X2973781Y12449200D01*
X2972155Y12449556D01*
X2971139Y12450572D01*
X2970784Y12452299D01*
X2971342Y12454585D01*
X2972866Y12458090D01*
X2978505Y12467894D01*
X2986836Y12480391D01*
X2997047Y12494158D01*
X3004058Y12504013D01*
X3010357Y12514580D01*
X3015691Y12525248D01*
X3017926Y12530429D01*
X3019806Y12535458D01*
X3022498Y12544755D01*
X3023209Y12548870D01*
X3023514Y12552527D01*
X3023412Y12560198D01*
X3022904Y12566040D01*
X3021533Y12570206D01*
X3019145Y12572949D01*
X3015335Y12574473D01*
X3009900Y12574930D01*
X3002534Y12574574D01*
X2980893Y12572492D01*
X2971038Y12572034D01*
X2964434Y12572238D01*
X2961995Y12573152D01*
X2963265Y12575794D01*
X2972409Y12590272D01*
X2988056Y12613538D01*
X3012744Y12649352D01*
X3024327Y12666980D01*
X3028797Y12674193D01*
X3035198Y12685826D01*
X3037179Y12690398D01*
X3038348Y12694158D01*
X3038805Y12697206D01*
X3038500Y12699593D01*
X3037484Y12701422D01*
X3035808Y12702743D01*
X3033471Y12703556D01*
X3030474Y12704013D01*
G37*
G36*
X2520289Y12703454D02*
G01*
X2477516Y12702997D01*
X2446578Y12702032D01*
X2416810Y12700609D01*
X2390394Y12698780D01*
X2379167Y12697815D01*
X2361996Y12695682D01*
X2345588Y12692583D01*
X2329891Y12688925D01*
X2314956Y12684658D01*
X2300833Y12679883D01*
X2294128Y12677343D01*
X2281326Y12671806D01*
X2269439Y12665862D01*
X2258568Y12659461D01*
X2248662Y12652705D01*
X2239873Y12645593D01*
X2232202Y12638125D01*
X2228799Y12634315D01*
X2225649Y12630404D01*
X2222855Y12626441D01*
X2220366Y12622377D01*
X2218182Y12618313D01*
X2216302Y12614198D01*
X2214778Y12609982D01*
X2213559Y12605766D01*
X2212695Y12601498D01*
X2212187Y12597180D01*
X2211984Y12592812D01*
X2212187Y12587274D01*
X2212797Y12581940D01*
X2213762Y12576860D01*
X2215134Y12572034D01*
X2216861Y12567462D01*
X2218944Y12563144D01*
X2221382Y12559080D01*
X2224125Y12555321D01*
X2227173Y12551867D01*
X2230577Y12548666D01*
X2234234Y12545720D01*
X2238197Y12543078D01*
X2242413Y12540742D01*
X2246884Y12538710D01*
X2251608Y12536982D01*
X2256586Y12535560D01*
X2261819Y12534493D01*
X2267204Y12533680D01*
X2272842Y12533223D01*
X2278634Y12533071D01*
X2284628Y12533274D01*
X2290775Y12533833D01*
X2297125Y12534696D01*
X2303576Y12535916D01*
X2310180Y12537490D01*
X2316886Y12539421D01*
X2330704Y12544399D01*
X2337054Y12547193D01*
X2342946Y12550292D01*
X2348433Y12553594D01*
X2353411Y12557150D01*
X2357983Y12560909D01*
X2362098Y12564922D01*
X2365756Y12569190D01*
X2368905Y12573660D01*
X2371648Y12578334D01*
X2373884Y12583210D01*
X2375662Y12588290D01*
X2376932Y12593574D01*
X2377744Y12599060D01*
X2378049Y12604699D01*
X2377897Y12610541D01*
X2377236Y12616535D01*
X2375103Y12629235D01*
X2374188Y12632232D01*
X2373223Y12632893D01*
X2372106Y12631115D01*
X2370734Y12626949D01*
X2365146Y12606020D01*
X2363368Y12601346D01*
X2361234Y12596825D01*
X2358745Y12592456D01*
X2355951Y12588341D01*
X2352903Y12584379D01*
X2349601Y12580620D01*
X2346045Y12577064D01*
X2342235Y12573711D01*
X2338222Y12570561D01*
X2329738Y12564922D01*
X2320696Y12560147D01*
X2316022Y12558064D01*
X2306472Y12554610D01*
X2301646Y12553238D01*
X2291943Y12551206D01*
X2282393Y12550140D01*
X2273096Y12550089D01*
X2268626Y12550444D01*
X2264308Y12551054D01*
X2260092Y12551918D01*
X2256129Y12553035D01*
X2252319Y12554458D01*
X2248712Y12556185D01*
X2245360Y12558115D01*
X2242312Y12560350D01*
X2239518Y12562890D01*
X2237028Y12565735D01*
X2234844Y12568834D01*
X2233015Y12572238D01*
X2231593Y12575946D01*
X2230526Y12579908D01*
X2229866Y12584226D01*
X2229662Y12588849D01*
X2229815Y12592812D01*
X2230323Y12596723D01*
X2231136Y12600533D01*
X2232253Y12604292D01*
X2233726Y12607950D01*
X2235504Y12611557D01*
X2237536Y12615062D01*
X2239924Y12618466D01*
X2242566Y12621768D01*
X2245512Y12625019D01*
X2252268Y12631216D01*
X2260142Y12637008D01*
X2269032Y12642392D01*
X2278989Y12647371D01*
X2289860Y12651892D01*
X2301697Y12655956D01*
X2314448Y12659512D01*
X2328011Y12662611D01*
X2342438Y12665151D01*
X2357628Y12667183D01*
X2373528Y12668656D01*
X2390140Y12669570D01*
X2407412Y12669875D01*
X2462631Y12669875D01*
X2428341Y12634772D01*
X2422296Y12628067D01*
X2408224Y12611252D01*
X2392578Y12591338D01*
X2376525Y12569799D01*
X2361438Y12548260D01*
X2352294Y12534747D01*
X2341422Y12519355D01*
X2330958Y12505537D01*
X2320899Y12493294D01*
X2311146Y12482525D01*
X2301697Y12473228D01*
X2292451Y12465354D01*
X2287930Y12461951D01*
X2283460Y12458903D01*
X2279040Y12456210D01*
X2274620Y12453823D01*
X2270252Y12451791D01*
X2265934Y12450064D01*
X2261616Y12448641D01*
X2257298Y12447574D01*
X2253030Y12446812D01*
X2248712Y12446355D01*
X2244445Y12446203D01*
X2235098Y12446355D01*
X2226970Y12446914D01*
X2219960Y12447879D01*
X2214016Y12449251D01*
X2209190Y12451181D01*
X2205329Y12453569D01*
X2202383Y12456566D01*
X2200351Y12460173D01*
X2199182Y12464389D01*
X2198827Y12469317D01*
X2199182Y12474956D01*
X2201164Y12487960D01*
X2201214Y12493650D01*
X2200351Y12498374D01*
X2198776Y12502134D01*
X2196439Y12504877D01*
X2193544Y12506604D01*
X2190140Y12507264D01*
X2186228Y12506858D01*
X2182012Y12505283D01*
X2177491Y12502591D01*
X2172766Y12498679D01*
X2167890Y12493548D01*
X2165045Y12489840D01*
X2163114Y12486284D01*
X2162048Y12482728D01*
X2161997Y12479020D01*
X2162860Y12475006D01*
X2164689Y12470485D01*
X2167534Y12465304D01*
X2171344Y12459309D01*
X2174036Y12455601D01*
X2176983Y12452146D01*
X2180183Y12448946D01*
X2183638Y12446000D01*
X2187295Y12443256D01*
X2191156Y12440818D01*
X2195220Y12438583D01*
X2199487Y12436602D01*
X2208479Y12433350D01*
X2213203Y12432080D01*
X2218080Y12431064D01*
X2223058Y12430302D01*
X2233422Y12429490D01*
X2244090Y12429642D01*
X2255012Y12430760D01*
X2260600Y12431674D01*
X2271725Y12434265D01*
X2277364Y12435890D01*
X2282952Y12437770D01*
X2294077Y12442240D01*
X2304999Y12447727D01*
X2310384Y12450775D01*
X2320899Y12457684D01*
X2328773Y12463729D01*
X2335174Y12469672D01*
X2342540Y12477242D01*
X2350719Y12486284D01*
X2359507Y12496546D01*
X2368804Y12507874D01*
X2378354Y12519964D01*
X2388006Y12532614D01*
X2406904Y12558826D01*
X2420315Y12578435D01*
X2438044Y12603226D01*
X2454503Y12625070D01*
X2461920Y12634417D01*
X2474366Y12648996D01*
X2479090Y12653822D01*
X2482646Y12656820D01*
X2486914Y12659258D01*
X2492502Y12661646D01*
X2499055Y12663932D01*
X2506421Y12666014D01*
X2514295Y12667894D01*
X2522524Y12669418D01*
X2530856Y12670637D01*
X2548991Y12672314D01*
X2557424Y12673482D01*
X2564333Y12675006D01*
X2569972Y12676936D01*
X2574290Y12679222D01*
X2577541Y12682016D01*
X2579674Y12685318D01*
X2580944Y12689230D01*
X2581300Y12691618D01*
X2581300Y12693751D01*
X2580843Y12695631D01*
X2579878Y12697256D01*
X2578252Y12698679D01*
X2575915Y12699847D01*
X2572766Y12700863D01*
X2568702Y12701676D01*
X2563672Y12702336D01*
X2550210Y12703149D01*
G37*
D10*
X12275058Y384047D02*
G01*
X12275058Y390905D01*
X12281915Y404368D01*
X12288774Y411226D01*
X12302236Y418084D01*
X12329668Y418084D01*
X12343129Y411226D01*
X12349988Y404368D01*
X12356845Y390905D01*
X12356845Y377189D01*
X12349988Y363473D01*
X12336272Y343154D01*
X12268200Y274828D01*
X12363704Y274828D01*
X12442697Y418084D02*
G01*
X12422377Y411226D01*
X12415520Y397510D01*
X12415520Y384047D01*
X12422377Y370331D01*
X12435840Y363473D01*
X12463272Y356615D01*
X12483591Y349757D01*
X12497308Y336295D01*
X12504165Y322579D01*
X12504165Y302260D01*
X12497308Y288544D01*
X12490450Y281686D01*
X12470129Y274828D01*
X12442697Y274828D01*
X12422377Y281686D01*
X12415520Y288544D01*
X12408661Y302260D01*
X12408661Y322579D01*
X12415520Y336295D01*
X12428981Y349757D01*
X12449556Y356615D01*
X12476734Y363473D01*
X12490450Y370331D01*
X12497308Y384047D01*
X12497308Y397510D01*
X12490450Y411226D01*
X12470129Y418084D01*
X12442697Y418084D01*
X12583159Y418084D02*
G01*
X12562840Y411226D01*
X12555981Y397510D01*
X12555981Y384047D01*
X12562840Y370331D01*
X12576302Y363473D01*
X12603734Y356615D01*
X12624054Y349757D01*
X12637770Y336295D01*
X12644627Y322579D01*
X12644627Y302260D01*
X12637770Y288544D01*
X12630911Y281686D01*
X12610591Y274828D01*
X12583159Y274828D01*
X12562840Y281686D01*
X12555981Y288544D01*
X12549124Y302260D01*
X12549124Y322579D01*
X12555981Y336295D01*
X12569443Y349757D01*
X12590018Y356615D01*
X12617195Y363473D01*
X12630911Y370331D01*
X12637770Y384047D01*
X12637770Y397510D01*
X12630911Y411226D01*
X12610591Y418084D01*
X12583159Y418084D01*
X12730479Y418084D02*
G01*
X12709906Y411226D01*
X12696443Y390905D01*
X12689586Y356615D01*
X12689586Y336295D01*
X12696443Y302260D01*
X12709906Y281686D01*
X12730479Y274828D01*
X12744195Y274828D01*
X12764515Y281686D01*
X12778231Y302260D01*
X12785090Y336295D01*
X12785090Y356615D01*
X12778231Y390905D01*
X12764515Y411226D01*
X12744195Y418084D01*
X12730479Y418084D01*
X12884658Y418084D02*
G01*
X12830047Y274828D01*
X12884658Y418084D02*
G01*
X12939013Y274828D01*
X12850368Y322579D02*
G01*
X12918693Y322579D01*
X12700Y11836400D02*
G01*
X14236700Y11836400D01*
X0Y12192000D02*
G01*
X14236700Y12192000D01*
M02*
