G04 Layer: TopSolderMaskLayer*
G04 EasyEDA v6.5.29, 2023-07-18 11:19:17*
G04 5f2044cace3448bf888c74a195837e88,5a6b42c53f6a479593ecc07194224c93,10*
G04 Gerber Generator version 0.2*
G04 Scale: 100 percent, Rotated: No, Reflected: No *
G04 Dimensions in millimeters *
G04 leading zeros omitted , absolute positions ,4 integer and 5 decimal *
%FSLAX45Y45*%
%MOMM*%

%ADD10C,0.3556*%
%ADD11O,6.6032126X3.4031936000000003*%
%ADD12C,2.0000*%

%LPD*%
D10*
X14240929Y11912798D02*
G01*
X14249400Y11880781D01*
X14232470Y11953316D02*
G01*
X14240929Y11912272D01*
X14224000Y11999274D02*
G01*
X14232470Y11952937D01*
X14215529Y12046582D02*
G01*
X14224000Y11999137D01*
X14207070Y12091019D02*
G01*
X14215529Y12046706D01*
X14198600Y12128616D02*
G01*
X14207070Y12091367D01*
X14190129Y12156020D02*
G01*
X14198600Y12129076D01*
X14181670Y12170760D02*
G01*
X14190129Y12156437D01*
X14173200Y12171530D02*
G01*
X14181670Y12170953D01*
X14164729Y12158245D02*
G01*
X14173200Y12171332D01*
X14156270Y12132096D02*
G01*
X14164729Y12157522D01*
X14147800Y12095416D02*
G01*
X14156270Y12130780D01*
X14139329Y12051494D02*
G01*
X14147800Y12093524D01*
X14130870Y12004253D02*
G01*
X14139329Y12049119D01*
X14122400Y11957905D02*
G01*
X14130870Y12001581D01*
X14113929Y11916592D02*
G01*
X14122400Y11955190D01*
X14105470Y11883994D02*
G01*
X14113929Y11914131D01*
X14097000Y11863003D02*
G01*
X14105470Y11882089D01*
X14088529Y11855455D02*
G01*
X14097000Y11861942D01*
X14080070Y11862015D02*
G01*
X14088529Y11855462D01*
X14071600Y11882071D02*
G01*
X14080070Y11863227D01*
X14063129Y11913816D02*
G01*
X14071600Y11884489D01*
X14054670Y11954408D02*
G01*
X14063129Y11917337D01*
X14046200Y12000247D02*
G01*
X14054670Y11958797D01*
X14037729Y12047270D02*
G01*
X14046200Y12005152D01*
X14029270Y12091342D02*
G01*
X14037729Y12052269D01*
X14020800Y12128599D02*
G01*
X14029270Y12095962D01*
X14012329Y12155797D02*
G01*
X14020800Y12132368D01*
X14003870Y12170592D02*
G01*
X14012329Y12158296D01*
X13995400Y12171740D02*
G01*
X14003870Y12171499D01*
X13986929Y12159190D02*
G01*
X13995400Y12170867D01*
X13978470Y12134093D02*
G01*
X13986929Y12156503D01*
X13970000Y12098672D02*
G01*
X13978470Y12129734D01*
X13961529Y12056021D02*
G01*
X13970000Y12092937D01*
X13953070Y12009846D02*
G01*
X13961529Y12049361D01*
X13944600Y11964118D02*
G01*
X13953070Y12002815D01*
X13936129Y11922744D02*
G01*
X13944600Y11957329D01*
X13927670Y11889214D02*
G01*
X13936129Y11916811D01*
X13919200Y11866338D02*
G01*
X13927670Y11884700D01*
X13910729Y11855970D02*
G01*
X13919200Y11863704D01*
X13902270Y11858922D02*
G01*
X13910729Y11855531D01*
X13893800Y11874865D02*
G01*
X13902270Y11860794D01*
X13885329Y11902381D02*
G01*
X13893800Y11878978D01*
X13876870Y11939109D02*
G01*
X13885329Y11908457D01*
X13868400Y11981954D02*
G01*
X13876870Y11946699D01*
X13859929Y12027347D02*
G01*
X13868400Y11990468D01*
X13851470Y12071560D02*
G01*
X13859929Y12036089D01*
X13843000Y12110994D02*
G01*
X13851470Y12079803D01*
X13834529Y12142495D02*
G01*
X13843000Y12118025D01*
X13826070Y12163579D02*
G01*
X13834529Y12147704D01*
X13817600Y12172652D02*
G01*
X13826070Y12166483D01*
X13809129Y12169073D02*
G01*
X13817600Y12172950D01*
X13800670Y12153249D02*
G01*
X13809129Y12166686D01*
X13792200Y12126528D02*
G01*
X13800670Y12148299D01*
X13783729Y12091101D02*
G01*
X13792200Y12119358D01*
X13775270Y12049800D02*
G01*
X13783729Y12082238D01*
X13766800Y12005884D02*
G01*
X13775270Y12039917D01*
X13758329Y11962749D02*
G01*
X13766800Y11995739D01*
X13749870Y11923674D02*
G01*
X13758329Y11953125D01*
X13741400Y11891591D02*
G01*
X13749870Y11915335D01*
X13732929Y11868825D02*
G01*
X13741400Y11885190D01*
X13724470Y11856994D02*
G01*
X13732929Y11864893D01*
X13716000Y11856852D02*
G01*
X13724470Y11855866D01*
X13707529Y11868274D02*
G01*
X13716000Y11858642D01*
X13699070Y11890301D02*
G01*
X13707529Y11872899D01*
X13690600Y11921200D02*
G01*
X13699070Y11897443D01*
X13682129Y11958662D02*
G01*
X13690600Y11930379D01*
X13673670Y11999917D02*
G01*
X13682129Y11969221D01*
X13665200Y12042018D02*
G01*
X13673670Y12011118D01*
X13656729Y12081984D02*
G01*
X13665200Y12053049D01*
X13648270Y12117077D02*
G01*
X13656729Y12092081D01*
X13639800Y12144946D02*
G01*
X13648270Y12125510D01*
X13631329Y12163778D02*
G01*
X13639800Y12151116D01*
X13622870Y12172421D02*
G01*
X13631329Y12167250D01*
X13614400Y12170450D02*
G01*
X13622870Y12172944D01*
X13605929Y12158146D02*
G01*
X13614400Y12167971D01*
X13597470Y12136467D02*
G01*
X13605929Y12152807D01*
X13589000Y12106963D02*
G01*
X13597470Y12128616D01*
X13580529Y12071647D02*
G01*
X13589000Y12097103D01*
X13572070Y12032871D02*
G01*
X13580529Y12060417D01*
X13563600Y11993123D02*
G01*
X13572070Y12020984D01*
X13555129Y11954903D02*
G01*
X13563600Y11981334D01*
X13546670Y11920537D02*
G01*
X13555129Y11943946D01*
X13538200Y11892061D02*
G01*
X13546670Y11911093D01*
X13529729Y11871083D02*
G01*
X13538200Y11884708D01*
X13521270Y11858731D02*
G01*
X13529729Y11866265D01*
X13512800Y11855566D02*
G01*
X13521270Y11856732D01*
X13504329Y11861619D02*
G01*
X13512800Y11856504D01*
X13495870Y11876366D02*
G01*
X13504329Y11865422D01*
X13487400Y11898802D02*
G01*
X13495870Y11882808D01*
X13478929Y11927532D02*
G01*
X13487400Y11907514D01*
X13470470Y11960844D02*
G01*
X13478929Y11938005D01*
X13462000Y11996823D02*
G01*
X13470470Y11972490D01*
X13453529Y12033491D02*
G01*
X13462000Y12009015D01*
X13445070Y12068893D02*
G01*
X13453529Y12045558D01*
X13436600Y12101189D02*
G01*
X13445070Y12080191D01*
X13428129Y12128797D02*
G01*
X13436600Y12111144D01*
X13419670Y12150402D02*
G01*
X13428129Y12136897D01*
X13411200Y12165073D02*
G01*
X13419670Y12156262D01*
X13402729Y12172236D02*
G01*
X13411200Y12168416D01*
X13394270Y12171715D02*
G01*
X13402729Y12172924D01*
X13385800Y12163722D02*
G01*
X13394270Y12169744D01*
X13377329Y12148809D02*
G01*
X13385800Y12159213D01*
X13368870Y12127829D02*
G01*
X13377329Y12142000D01*
X13360400Y12101896D02*
G01*
X13368870Y12119074D01*
X13351929Y12072292D02*
G01*
X13360400Y12091609D01*
X13343470Y12040405D02*
G01*
X13351929Y12060951D01*
X13335000Y12007682D02*
G01*
X13343470Y12028530D01*
X13326529Y11975536D02*
G01*
X13335000Y11995782D01*
X13318070Y11945279D02*
G01*
X13326529Y11964113D01*
X13309600Y11918094D02*
G01*
X13318070Y11934799D01*
X13301129Y11894995D02*
G01*
X13309600Y11908972D01*
X13292670Y11876763D02*
G01*
X13301129Y11887565D01*
X13284200Y11863964D02*
G01*
X13292670Y11871281D01*
X13275729Y11856913D02*
G01*
X13284200Y11860603D01*
X13267270Y11855691D02*
G01*
X13275729Y11855759D01*
X13258800Y11860174D02*
G01*
X13267270Y11856745D01*
X13250329Y11870009D02*
G01*
X13258800Y11863344D01*
X13241870Y11884682D02*
G01*
X13250329Y11875137D01*
X13233400Y11903534D02*
G01*
X13241870Y11891545D01*
X13224929Y11925795D02*
G01*
X13233400Y11911868D01*
X13216470Y11950626D02*
G01*
X13224929Y11935284D01*
X13208000Y11977149D02*
G01*
X13216470Y11960931D01*
X13199529Y12004469D02*
G01*
X13208000Y11987926D01*
X13191070Y12031743D02*
G01*
X13199529Y12015378D01*
X13182600Y12058159D02*
G01*
X13191070Y12042457D01*
X13174129Y12082995D02*
G01*
X13182600Y12068368D01*
X13165670Y12105604D02*
G01*
X13174129Y12092421D01*
X13157200Y12125467D02*
G01*
X13165670Y12114014D01*
X13148729Y12142155D02*
G01*
X13157200Y12132668D01*
X13140270Y12155380D02*
G01*
X13148729Y12148002D01*
X13131800Y12164956D02*
G01*
X13140270Y12159767D01*
X13123329Y12170798D02*
G01*
X13131800Y12167821D01*
X13114870Y12172937D02*
G01*
X13123329Y12172124D01*
X13106400Y12171492D02*
G01*
X13114870Y12172756D01*
X13097929Y12166668D02*
G01*
X13106400Y12169874D01*
X13089470Y12158731D02*
G01*
X13097929Y12163691D01*
X13081000Y12147997D02*
G01*
X13089470Y12154519D01*
X13072529Y12134832D02*
G01*
X13081000Y12142693D01*
X13064070Y12119620D02*
G01*
X13072529Y12128593D01*
X13055600Y12102764D02*
G01*
X13064070Y12112607D01*
X13047129Y12084669D02*
G01*
X13055600Y12095144D01*
X13038670Y12065731D02*
G01*
X13047129Y12076607D01*
X13030200Y12046328D02*
G01*
X13038670Y12057390D01*
X13021729Y12026813D02*
G01*
X13030200Y12037870D01*
X13013270Y12007522D02*
G01*
X13021729Y12018380D01*
X13004800Y11988731D02*
G01*
X13013270Y11999236D01*
X12996329Y11970699D02*
G01*
X13004800Y11980720D01*
X12987870Y11953638D02*
G01*
X12996329Y11963064D01*
X12979400Y11937738D02*
G01*
X12987870Y11946470D01*
X12970929Y11923130D02*
G01*
X12979400Y11931103D01*
X12962470Y11909907D02*
G01*
X12970929Y11917078D01*
X12954000Y11898144D02*
G01*
X12962470Y11904482D01*
X12945529Y11887883D02*
G01*
X12954000Y11893369D01*
X12937070Y11879112D02*
G01*
X12945529Y11883758D01*
X12928600Y11871827D02*
G01*
X12937070Y11875653D01*
X12920129Y11865973D02*
G01*
X12928600Y11869005D01*
X12911670Y11861495D02*
G01*
X12920129Y11863778D01*
X12903200Y11858320D02*
G01*
X12911670Y11859895D01*
X12894729Y11856354D02*
G01*
X12903200Y11857278D01*
X12886270Y11855505D02*
G01*
X12894729Y11855833D01*
X12877800Y11855660D02*
G01*
X12886270Y11855455D01*
X12869329Y11856720D02*
G01*
X12877800Y11856044D01*
X12860870Y11858574D02*
G01*
X12869329Y11857484D01*
X12852400Y11861111D02*
G01*
X12860870Y11859666D01*
X12843929Y11864230D02*
G01*
X12852400Y11862488D01*
X12835470Y11867814D02*
G01*
X12843929Y11865843D01*
X12827000Y11871784D02*
G01*
X12835470Y11869625D01*
X12818529Y11876031D02*
G01*
X12827000Y11873737D01*
X12810070Y11880471D02*
G01*
X12818529Y11878091D01*
X12801600Y11885023D02*
G01*
X12810070Y11882597D01*
X12793129Y11889618D02*
G01*
X12801600Y11887187D01*
X12784670Y11894182D02*
G01*
X12793129Y11891777D01*
X12776200Y11898647D02*
G01*
X12784670Y11896303D01*
X12767729Y11902968D02*
G01*
X12776200Y11900712D01*
X12759270Y11907093D02*
G01*
X12767729Y11904946D01*
X12750800Y11910974D02*
G01*
X12759270Y11908965D01*
X12742329Y11914578D02*
G01*
X12750800Y11912716D01*
X12733870Y11917865D02*
G01*
X12742329Y11916171D01*
X12725400Y11920809D02*
G01*
X12733870Y11919297D01*
X12716929Y11923384D02*
G01*
X12725400Y11922069D01*
X12708470Y11925566D02*
G01*
X12716929Y11924456D01*
X12700000Y11927347D02*
G01*
X12708470Y11926448D01*
X12691529Y11928703D02*
G01*
X12700000Y11928015D01*
X12683070Y11929628D02*
G01*
X12691529Y11929163D01*
X12674600Y11930118D02*
G01*
X12683070Y11929869D01*
X12666129Y11930156D02*
G01*
X12674600Y11930136D01*
X12657670Y11929745D02*
G01*
X12666129Y11929950D01*
X12649200Y11928891D02*
G01*
X12657670Y11929318D01*
X12640729Y11927588D02*
G01*
X12649200Y11928233D01*
X12632270Y11925846D02*
G01*
X12640729Y11926707D01*
X12623800Y11923674D02*
G01*
X12632270Y11924748D01*
X12615329Y11921096D02*
G01*
X12623800Y11922366D01*
X12606870Y11918106D02*
G01*
X12615329Y11919569D01*
X12598400Y11914751D02*
G01*
X12606870Y11916394D01*
X12589929Y11911050D02*
G01*
X12598400Y11912854D01*
X12581470Y11907024D02*
G01*
X12589929Y11908977D01*
X12573000Y11902734D02*
G01*
X12581470Y11904804D01*
X12564529Y11898213D02*
G01*
X12573000Y11900382D01*
X12556070Y11893519D02*
G01*
X12564529Y11895764D01*
X12547600Y11888713D02*
G01*
X12556070Y11891002D01*
X12539129Y11883875D02*
G01*
X12547600Y11886163D01*
X12530670Y11879082D02*
G01*
X12539129Y11881340D01*
X12522200Y11874426D02*
G01*
X12530670Y11876603D01*
X12513729Y11870004D02*
G01*
X12522200Y11872056D01*
X12505270Y11865942D02*
G01*
X12513729Y11867802D01*
X12496800Y11862351D02*
G01*
X12505270Y11863969D01*
X12488329Y11859369D02*
G01*
X12496800Y11860684D01*
X12479870Y11857131D02*
G01*
X12488329Y11858078D01*
X12471400Y11855785D02*
G01*
X12479870Y11856293D01*
X12462929Y11855480D02*
G01*
X12471400Y11855480D01*
X12454470Y11856366D02*
G01*
X12462929Y11855797D01*
X12446000Y11858607D02*
G01*
X12454470Y11857390D01*
X12437529Y11862328D02*
G01*
X12446000Y11860410D01*
X12429070Y11867672D02*
G01*
X12437529Y11864987D01*
X12420600Y11874754D02*
G01*
X12429070Y11871264D01*
X12412129Y11883664D02*
G01*
X12420600Y11879331D01*
X12403670Y11894479D02*
G01*
X12412129Y11889270D01*
X12395200Y11907217D02*
G01*
X12403670Y11901134D01*
X12386729Y11921870D02*
G01*
X12395200Y11914931D01*
X12378270Y11938365D02*
G01*
X12386729Y11930608D01*
X12369800Y11956572D02*
G01*
X12378270Y11948076D01*
X12361329Y11976315D02*
G01*
X12369800Y11967164D01*
X12352870Y11997319D02*
G01*
X12361329Y11987659D01*
X12344400Y12019259D02*
G01*
X12352870Y12009239D01*
X12335929Y12041733D02*
G01*
X12344400Y12031550D01*
X12327470Y12064243D02*
G01*
X12335929Y12054123D01*
X12319000Y12086252D02*
G01*
X12327470Y12076452D01*
X12310529Y12107156D02*
G01*
X12319000Y12097953D01*
X12302070Y12126297D02*
G01*
X12310529Y12117989D01*
X12293600Y12143011D02*
G01*
X12302070Y12135891D01*
X12285129Y12156615D02*
G01*
X12293600Y12150979D01*
X12276670Y12166462D02*
G01*
X12285129Y12162586D01*
X12268200Y12171951D02*
G01*
X12276670Y12170092D01*
X12259729Y12172596D02*
G01*
X12268200Y12172937D01*
X12251270Y12168007D02*
G01*
X12259729Y12170699D01*
X12242800Y12158004D02*
G01*
X12251270Y12163089D01*
X12234329Y12142581D02*
G01*
X12242800Y12150023D01*
X12225870Y12121977D02*
G01*
X12234329Y12131631D01*
X12217400Y12096689D02*
G01*
X12225870Y12108296D01*
X12208929Y12067486D02*
G01*
X12217400Y12080669D01*
X12200470Y12035401D02*
G01*
X12208929Y12049671D01*
X12192000Y12001723D02*
G01*
X12200470Y12016480D01*
X12183529Y11967956D02*
G01*
X12192000Y11982531D01*
X12175070Y11935767D02*
G01*
X12183529Y11949409D01*
X12166600Y11906895D02*
G01*
X12175070Y11918856D01*
X12158129Y11883064D02*
G01*
X12166600Y11892620D01*
X12149670Y11865879D02*
G01*
X12158129Y11872366D01*
X12141200Y11856709D02*
G01*
X12149670Y11859592D01*
X12132729Y11856534D02*
G01*
X12141200Y11855462D01*
X12124270Y11865861D02*
G01*
X12132729Y11860702D01*
X12115800Y11884619D02*
G01*
X12124270Y11875493D01*
X12107329Y11912079D02*
G01*
X12115800Y11899392D01*
X12098870Y11946841D02*
G01*
X12107329Y11931296D01*
X12090400Y11986846D02*
G01*
X12098870Y11969396D01*
X12081929Y12029473D02*
G01*
X12090400Y12011304D01*
X12073470Y12071659D02*
G01*
X12081929Y12054103D01*
X12065000Y12110125D02*
G01*
X12073470Y12094580D01*
X12056529Y12141634D02*
G01*
X12065000Y12129429D01*
X12048070Y12163252D02*
G01*
X12056529Y12155548D01*
X12039600Y12172670D02*
G01*
X12048070Y12170321D01*
X12031129Y12168497D02*
G01*
X12039600Y12171939D01*
X12022670Y12150470D02*
G01*
X12031129Y12159635D01*
X12014200Y12119620D02*
G01*
X12022670Y12133894D01*
X12005729Y12078319D02*
G01*
X12014200Y12096534D01*
X11997270Y12030156D02*
G01*
X12005729Y12050669D01*
X11988800Y11979696D02*
G01*
X11997270Y12000514D01*
X11980329Y11932097D02*
G01*
X11988800Y11951053D01*
X11971870Y11892594D02*
G01*
X11980329Y11907565D01*
X11963400Y11865874D02*
G01*
X11971870Y11875046D01*
X11954929Y11855505D02*
G01*
X11963400Y11857614D01*
X11946470Y11863382D02*
G01*
X11954929Y11857911D01*
X11938000Y11889315D02*
G01*
X11946470Y11876646D01*
X11929529Y11930862D02*
G01*
X11938000Y11912295D01*
X11921070Y11983417D02*
G01*
X11929529Y11961093D01*
X11912600Y12040615D02*
G01*
X11921070Y12017301D01*
X11904129Y12095045D02*
G01*
X11912600Y12073823D01*
X11895670Y12139165D02*
G01*
X11904129Y12123023D01*
X11887200Y12166419D02*
G01*
X11895670Y12157806D01*
X11878729Y12172248D02*
G01*
X11887200Y12172657D01*
X11870270Y12154984D02*
G01*
X11878729Y12164664D01*
X11861800Y12116358D02*
G01*
X11870270Y12134156D01*
X11853329Y12061532D02*
G01*
X11861800Y12084954D01*
X11844870Y11998604D02*
G01*
X11853329Y12024095D01*
X11836400Y11937461D02*
G01*
X11844870Y11960943D01*
X11827929Y11888322D02*
G01*
X11836400Y11905815D01*
X11819470Y11859971D02*
G01*
X11827929Y11868287D01*
X11811000Y11858066D02*
G01*
X11819470Y11855467D01*
X11802529Y11883887D02*
G01*
X11811000Y11870494D01*
X11794070Y11933684D02*
G01*
X11802529Y11911614D01*
X11785600Y11999000D02*
G01*
X11794070Y11972129D01*
X11777129Y12067913D02*
G01*
X11785600Y12041248D01*
X11768670Y12127118D02*
G01*
X11777129Y12105883D01*
X11760200Y12164474D02*
G01*
X11768670Y12153094D01*
X11751729Y12171654D02*
G01*
X11760200Y12172744D01*
X11743270Y12146168D02*
G01*
X11751729Y12159866D01*
X11734800Y12092383D02*
G01*
X11743270Y12116122D01*
X11726329Y12021078D02*
G01*
X11734800Y12049950D01*
X11717870Y11947530D02*
G01*
X11726329Y11975238D01*
X11709400Y11888348D02*
G01*
X11717870Y11908538D01*
X11700929Y11857695D02*
G01*
X11709400Y11865465D01*
X11692470Y11863704D02*
G01*
X11700929Y11856864D01*
X11684000Y11906056D02*
G01*
X11692470Y11885874D01*
X11675529Y11975437D02*
G01*
X11684000Y11946539D01*
X11667070Y12055203D02*
G01*
X11675529Y12024667D01*
X11658600Y12125218D02*
G01*
X11667070Y12100874D01*
X11650129Y12166861D02*
G01*
X11658600Y12155271D01*
X11641670Y12168174D02*
G01*
X11650129Y12172782D01*
X11633200Y12127631D02*
G01*
X11641670Y12147588D01*
X11624729Y12055251D02*
G01*
X11633200Y12085388D01*
X11616270Y11970623D02*
G01*
X11624729Y12002615D01*
X11607800Y11897796D02*
G01*
X11616270Y11922429D01*
X11599329Y11858531D02*
G01*
X11607800Y11868335D01*
X11590870Y11865533D02*
G01*
X11599329Y11857192D01*
X11582400Y11917956D02*
G01*
X11590870Y11893593D01*
X11573929Y12000750D02*
G01*
X11582400Y11967585D01*
X11565470Y12088502D02*
G01*
X11573929Y12056889D01*
X11557000Y12153031D02*
G01*
X11565470Y12133249D01*
X11548529Y12172485D02*
G01*
X11557000Y12171362D01*
X11540070Y12139160D02*
G01*
X11548529Y12157496D01*
X11531600Y12062995D02*
G01*
X11540070Y12094969D01*
X11523129Y11969297D02*
G01*
X11531600Y12004080D01*
X11514670Y11890697D02*
G01*
X11523129Y11916011D01*
X11506200Y11855828D02*
G01*
X11514670Y11862320D01*
X11497729Y11878579D02*
G01*
X11506200Y11863448D01*
X11489270Y11951959D02*
G01*
X11497729Y11920369D01*
X11480800Y12049452D02*
G01*
X11489270Y12013064D01*
X11472329Y12134131D02*
G01*
X11480800Y12106912D01*
X11463870Y12172485D02*
G01*
X11472329Y12165347D01*
X11455400Y12148096D02*
G01*
X11463870Y12164324D01*
X11446929Y12069290D02*
G01*
X11455400Y12102782D01*
X11438470Y11967220D02*
G01*
X11446929Y12004481D01*
X11430000Y11884068D02*
G01*
X11438470Y11909506D01*
X11421529Y11855704D02*
G01*
X11430000Y11858190D01*
X11413070Y11895701D02*
G01*
X11421529Y11873687D01*
X11404600Y11988098D02*
G01*
X11413070Y11950799D01*
X11396129Y12092812D02*
G01*
X11404600Y12056666D01*
X11387670Y12162556D02*
G01*
X11396129Y12144070D01*
X11379200Y12164341D02*
G01*
X11387670Y12172434D01*
X11370729Y12095756D02*
G01*
X11379200Y12127153D01*
X11362270Y11987875D02*
G01*
X11370729Y12028009D01*
X11353800Y11891992D02*
G01*
X11362270Y11921548D01*
X11345329Y11855500D02*
G01*
X11353800Y11859684D01*
X11336870Y11897934D02*
G01*
X11345329Y11874164D01*
X11328400Y11999534D02*
G01*
X11336870Y11959369D01*
X11319929Y12109343D02*
G01*
X11328400Y12073216D01*
X11311470Y12170178D02*
G01*
X11319929Y12157113D01*
X11303000Y12148728D02*
G01*
X11311470Y12166104D01*
X11294529Y12054756D02*
G01*
X11303000Y12093755D01*
X11286070Y11938055D02*
G01*
X11294529Y11977687D01*
X11277600Y11862823D02*
G01*
X11286070Y11881048D01*
X11269129Y11872262D02*
G01*
X11277600Y11858396D01*
X11260670Y11962749D02*
G01*
X11269129Y11924159D01*
X11252200Y12083572D02*
G01*
X11260670Y12042246D01*
X11243729Y12164367D02*
G01*
X11252200Y12144636D01*
X11235270Y12156175D02*
G01*
X11243729Y12170209D01*
X11226800Y12062134D02*
G01*
X11235270Y12102015D01*
X11218329Y11938167D02*
G01*
X11226800Y11979795D01*
X11209870Y11860750D02*
G01*
X11218329Y11878183D01*
X11201400Y11879615D02*
G01*
X11209870Y11861408D01*
X11192929Y11984609D02*
G01*
X11201400Y11941832D01*
X11184470Y12109356D02*
G01*
X11192929Y12069434D01*
X11176000Y12172287D02*
G01*
X11184470Y12161583D01*
X11167529Y12130272D02*
G01*
X11176000Y12156437D01*
X11159070Y12009678D02*
G01*
X11167529Y12055581D01*
X11150600Y11891528D02*
G01*
X11159070Y11925970D01*
X11142129Y11857819D02*
G01*
X11150600Y11856633D01*
X11133670Y11933826D02*
G01*
X11142129Y11897283D01*
X11125200Y12067456D02*
G01*
X11133670Y12021113D01*
X11116729Y12163351D02*
G01*
X11125200Y12140610D01*
X11108270Y12150699D02*
G01*
X11116729Y12168621D01*
X11099800Y12036897D02*
G01*
X11108270Y12082790D01*
X11091329Y11905493D02*
G01*
X11099800Y11945244D01*
X11082870Y11856051D02*
G01*
X11091329Y11859244D01*
X11074400Y11928096D02*
G01*
X11082870Y11891708D01*
X11065929Y12067603D02*
G01*
X11074400Y12019508D01*
X11057470Y12165619D02*
G01*
X11065929Y12143742D01*
X11049000Y12143049D02*
G01*
X11057470Y12165335D01*
X11040529Y12016071D02*
G01*
X11049000Y12065073D01*
X11032070Y11886976D02*
G01*
X11040529Y11922782D01*
X11023600Y11862854D02*
G01*
X11032070Y11855462D01*
X11015129Y11965757D02*
G01*
X11023600Y11920766D01*
X11006670Y12110311D02*
G01*
X11015129Y12065576D01*
X10998200Y12172782D02*
G01*
X11006670Y12166935D01*
X10989729Y12097377D02*
G01*
X10998200Y12136084D01*
X10981270Y11948312D02*
G01*
X10989729Y11997954D01*
X10972800Y11857403D02*
G01*
X10981270Y11873687D01*
X10964329Y11907682D02*
G01*
X10972800Y11875394D01*
X10955870Y12055487D02*
G01*
X10964329Y12003559D01*
X10947400Y12165738D02*
G01*
X10955870Y12142061D01*
X10938929Y12134707D02*
G01*
X10947400Y12161888D01*
X10930470Y11989539D02*
G01*
X10938929Y12042452D01*
X10922000Y11867393D02*
G01*
X10930470Y11895576D01*
X10913529Y11886907D02*
G01*
X10922000Y11862648D01*
X10905070Y12031146D02*
G01*
X10913529Y11977601D01*
X10896600Y12159152D02*
G01*
X10905070Y12129137D01*
X10888129Y12142439D02*
G01*
X10896600Y12166432D01*
X10879670Y11995764D02*
G01*
X10888129Y12050067D01*
X10871200Y11867431D02*
G01*
X10879670Y11896638D01*
X10862729Y11890654D02*
G01*
X10871200Y11864093D01*
X10854270Y12043346D02*
G01*
X10862729Y11988223D01*
X10845800Y12165713D02*
G01*
X10854270Y12140227D01*
X10837329Y12126323D02*
G01*
X10845800Y12158202D01*
X10828870Y11965470D02*
G01*
X10837329Y12020816D01*
X10820400Y11857372D02*
G01*
X10828870Y11875747D01*
X10811929Y11922310D02*
G01*
X10820400Y11882884D01*
X10803470Y12090145D02*
G01*
X10811929Y12036425D01*
X10795000Y12172744D02*
G01*
X10803470Y12165421D01*
X10786529Y12074641D02*
G01*
X10795000Y12122652D01*
X10778070Y11906516D02*
G01*
X10786529Y11954954D01*
X10769600Y11863382D02*
G01*
X10778070Y11855622D01*
X10761129Y11997735D02*
G01*
X10769600Y11942297D01*
X10752670Y12152083D02*
G01*
X10761129Y12114583D01*
X10744200Y12141118D02*
G01*
X10752670Y12166978D01*
X10735729Y11975983D02*
G01*
X10744200Y12034410D01*
X10727270Y11857261D02*
G01*
X10735729Y11876719D01*
X10718800Y11932716D02*
G01*
X10727270Y11888589D01*
X10710329Y12110379D02*
G01*
X10718800Y12057372D01*
X10701870Y12166909D02*
G01*
X10710329Y12172149D01*
X10693400Y12028568D02*
G01*
X10701870Y12085972D01*
X10684929Y11871337D02*
G01*
X10693400Y11907210D01*
X10676470Y11899775D02*
G01*
X10684929Y11867027D01*
X10668000Y12078779D02*
G01*
X10676470Y12019887D01*
X10659529Y12172459D02*
G01*
X10668000Y12165589D01*
X10651070Y12054141D02*
G01*
X10659529Y12109071D01*
X10642600Y11881469D02*
G01*
X10651070Y11924250D01*
X10634129Y11889828D02*
G01*
X10642600Y11861688D01*
X10625670Y12069831D02*
G01*
X10634129Y12008998D01*
X10617200Y12172734D02*
G01*
X10625670Y12163859D01*
X10608729Y12052932D02*
G01*
X10617200Y12109046D01*
X10600270Y11877903D02*
G01*
X10608729Y11919767D01*
X10591800Y11897779D02*
G01*
X10600270Y11865104D01*
X10583329Y12086028D02*
G01*
X10591800Y12025472D01*
X10574870Y12169830D02*
G01*
X10583329Y12169736D01*
X10566400Y12024598D02*
G01*
X10574870Y12085680D01*
X10557929Y11863641D02*
G01*
X10566400Y11895447D01*
X10549470Y11928170D02*
G01*
X10557929Y11882597D01*
X10541000Y12122988D02*
G01*
X10549470Y12068467D01*
X10532529Y12152050D02*
G01*
X10541000Y12171964D01*
X10524070Y11968825D02*
G01*
X10532529Y12033095D01*
X10515600Y11855815D02*
G01*
X10524070Y11864690D01*
X10507129Y11990933D02*
G01*
X10515600Y11929968D01*
X10498670Y12163054D02*
G01*
X10507129Y12128306D01*
X10490200Y12097966D02*
G01*
X10498670Y12145243D01*
X10481729Y11898002D02*
G01*
X10490200Y11951723D01*
X10473270Y11886356D02*
G01*
X10481729Y11859153D01*
X10464800Y12083963D02*
G01*
X10473270Y12019793D01*
X10456329Y12166655D02*
G01*
X10464800Y12171423D01*
X10447870Y11995622D02*
G01*
X10456329Y12061949D01*
X10439400Y11855579D02*
G01*
X10447870Y11872318D01*
X10430929Y11983925D02*
G01*
X10439400Y11922262D01*
X10422470Y12164087D02*
G01*
X10430929Y12128934D01*
X10414000Y12086437D02*
G01*
X10422470Y12138675D01*
X10405529Y11883349D02*
G01*
X10414000Y11932772D01*
X10397070Y11909021D02*
G01*
X10405529Y11868906D01*
X10388600Y12120245D02*
G01*
X10397070Y12060839D01*
X10380129Y12143066D02*
G01*
X10388600Y12170128D01*
X10371670Y11934911D02*
G01*
X10380129Y12000458D01*
X10363200Y11869874D02*
G01*
X10371670Y11855455D01*
X10354729Y12067654D02*
G01*
X10363200Y11999000D01*
X10346270Y12167430D02*
G01*
X10354729Y12170488D01*
X10337800Y11983765D02*
G01*
X10346270Y12053384D01*
X10329329Y11856758D02*
G01*
X10337800Y11863275D01*
X10320870Y12025541D02*
G01*
X10329329Y11956232D01*
X10312400Y12172911D02*
G01*
X10320870Y12158822D01*
X10303929Y12017481D02*
G01*
X10312400Y12085947D01*
X10295470Y11855698D02*
G01*
X10303929Y11875305D01*
X10287000Y12000953D02*
G01*
X10295470Y11933293D01*
X10278529Y12172094D02*
G01*
X10287000Y12148977D01*
X10270070Y12032734D02*
G01*
X10278529Y12100036D01*
X10261600Y11856646D02*
G01*
X10270070Y11881276D01*
X10253129Y11995033D02*
G01*
X10261600Y11927433D01*
X10244670Y12171956D02*
G01*
X10253129Y12147798D01*
X10236200Y12029335D02*
G01*
X10244670Y12097941D01*
X10227729Y11855858D02*
G01*
X10236200Y11877489D01*
X10219270Y12007806D02*
G01*
X10227729Y11937616D01*
X10210800Y12172950D02*
G01*
X10219270Y12156008D01*
X10202329Y12007118D02*
G01*
X10210800Y12079145D01*
X10193870Y11856212D02*
G01*
X10202329Y11866153D01*
X10185400Y12039389D02*
G01*
X10193870Y11965818D01*
X10176929Y12168845D02*
G01*
X10185400Y12168299D01*
X10168470Y11966686D02*
G01*
X10176929Y12040748D01*
X10160000Y11867220D02*
G01*
X10168470Y11856039D01*
X10151529Y12087298D02*
G01*
X10160000Y12014776D01*
X10143070Y12147240D02*
G01*
X10151529Y12172144D01*
X10134600Y11913989D02*
G01*
X10143070Y11981830D01*
X10126129Y11903229D02*
G01*
X10134600Y11863382D01*
X10117670Y12140300D02*
G01*
X10126129Y12081408D01*
X10109200Y12093648D02*
G01*
X10117670Y12148324D01*
X10100729Y11867245D02*
G01*
X10109200Y11912023D01*
X10092270Y11975845D02*
G01*
X10100729Y11908431D01*
X10083800Y12172266D02*
G01*
X10092270Y12147059D01*
X10075329Y12003659D02*
G01*
X10083800Y12079163D01*
X10066870Y11859740D02*
G01*
X10075329Y11860639D01*
X10058400Y12077092D02*
G01*
X10066870Y12000936D01*
X10049929Y12146186D02*
G01*
X10058400Y12172205D01*
X10041470Y11902704D02*
G01*
X10049929Y11969589D01*
X10033000Y11925226D02*
G01*
X10041470Y11873433D01*
X10024529Y12161019D02*
G01*
X10033000Y12114504D01*
X10016070Y12042259D02*
G01*
X10024529Y12113511D01*
X10007600Y11855592D02*
G01*
X10016070Y11871751D01*
X9999129Y12056584D02*
G01*
X10007600Y11977885D01*
X9990670Y12153069D02*
G01*
X9999129Y12172950D01*
X9982200Y11906107D02*
G01*
X9990670Y11975691D01*
X9973729Y11928419D02*
G01*
X9982200Y11874469D01*
X9965270Y12165274D02*
G01*
X9973729Y12122614D01*
X9956800Y12021474D02*
G01*
X9965270Y12097735D01*
X9948329Y11859567D02*
G01*
X9956800Y11861693D01*
X9939870Y12091720D02*
G01*
X9948329Y12014045D01*
X9931400Y12124829D02*
G01*
X9939870Y12166445D01*
X9922929Y11872925D02*
G01*
X9931400Y11926780D01*
X9914470Y11987583D02*
G01*
X9922929Y11913903D01*
X9906000Y12171293D02*
G01*
X9914470Y12162073D01*
X9897529Y11942973D02*
G01*
X9906000Y12022615D01*
X9889070Y11902894D02*
G01*
X9897529Y11861378D01*
X9880600Y12157793D02*
G01*
X9889070Y12105022D01*
X9872129Y12029473D02*
G01*
X9880600Y12106305D01*
X9863670Y11860608D02*
G01*
X9872129Y11861129D01*
X9855200Y12105866D02*
G01*
X9863670Y12028487D01*
X9846729Y12102195D02*
G01*
X9855200Y12156696D01*
X9838270Y11859003D02*
G01*
X9846729Y11896986D01*
X9829800Y12041299D02*
G01*
X9838270Y11958556D01*
X9821329Y12148454D02*
G01*
X9829800Y12172868D01*
X9812870Y11883956D02*
G01*
X9821329Y11948071D01*
X9804400Y11982419D02*
G01*
X9812870Y11907695D01*
X9795929Y12169348D02*
G01*
X9804400Y12164801D01*
X9787470Y11919849D02*
G01*
X9795929Y11998393D01*
X9779000Y11937608D02*
G01*
X9787470Y11877167D01*
X9770529Y12172614D02*
G01*
X9779000Y12144847D01*
X9762070Y11955002D02*
G01*
X9770529Y12039302D01*
X9753600Y11907862D02*
G01*
X9762070Y11862282D01*
X9745129Y12167146D02*
G01*
X9753600Y12123079D01*
X9736670Y11982767D02*
G01*
X9745129Y12068007D01*
X9728200Y11890555D02*
G01*
X9736670Y11856821D01*
X9719729Y12160026D02*
G01*
X9728200Y12106003D01*
X9711270Y12000196D02*
G01*
X9719729Y12084812D01*
X9702800Y11882368D02*
G01*
X9711270Y11855579D01*
X9694329Y12155792D02*
G01*
X9702800Y12097103D01*
X9685870Y12006369D02*
G01*
X9694329Y12090877D01*
X9677400Y11881065D02*
G01*
X9685870Y11855488D01*
X9668929Y12156442D02*
G01*
X9677400Y12097786D01*
X9660470Y12001091D02*
G01*
X9668929Y12086790D01*
X9652000Y11886250D02*
G01*
X9660470Y11855889D01*
X9643529Y12161713D02*
G01*
X9652000Y12107974D01*
X9635070Y11984454D02*
G01*
X9643529Y12072094D01*
X9626600Y11899516D02*
G01*
X9635070Y11858625D01*
X9618129Y12168974D02*
G01*
X9626600Y12126081D01*
X9609670Y11957235D02*
G01*
X9618129Y12045566D01*
X9601200Y11923979D02*
G01*
X9609670Y11867926D01*
X9592729Y12172950D02*
G01*
X9601200Y12148220D01*
X9584270Y11922155D02*
G01*
X9592729Y12006503D01*
X9575800Y11962965D02*
G01*
X9584270Y11889846D01*
X9567329Y12165705D02*
G01*
X9575800Y12167219D01*
X9558870Y11885706D02*
G01*
X9567329Y11956938D01*
X9550400Y12017443D02*
G01*
X9558870Y11930545D01*
X9541929Y12137969D02*
G01*
X9550400Y12172154D01*
X9533470Y11859618D02*
G01*
X9541929Y11904494D01*
X9525000Y12082251D02*
G01*
X9533470Y11992589D01*
X9516529Y12082815D02*
G01*
X9525000Y12150123D01*
X9508070Y11860075D02*
G01*
X9516529Y11864553D01*
X9499600Y12142327D02*
G01*
X9508070Y12069470D01*
X9491129Y12002485D02*
G01*
X9499600Y12091850D01*
X9482670Y11902180D02*
G01*
X9491129Y11858650D01*
X9474200Y12172652D02*
G01*
X9482670Y12140666D01*
X9465729Y11915787D02*
G01*
X9474200Y12001568D01*
X9457270Y11988317D02*
G01*
X9465729Y11905505D01*
X9448800Y12146744D02*
G01*
X9457270Y12172944D01*
X9440329Y11859747D02*
G01*
X9448800Y11906615D01*
X9431870Y12094448D02*
G01*
X9440329Y12003981D01*
X9423400Y12056460D02*
G01*
X9431870Y12135043D01*
X9414929Y11875670D02*
G01*
X9423400Y11856051D01*
X9406470Y12167090D02*
G01*
X9414929Y12116445D01*
X9398000Y11934819D02*
G01*
X9406470Y12026267D01*
X9389529Y11976061D02*
G01*
X9398000Y11895602D01*
X9381070Y12147829D02*
G01*
X9389529Y12172868D01*
X9372600Y11857992D02*
G01*
X9381070Y11901685D01*
X9364129Y12110293D02*
G01*
X9372600Y12021355D01*
X9355670Y12027326D02*
G01*
X9364129Y12115149D01*
X9347200Y11899503D02*
G01*
X9355670Y11857372D01*
X9338729Y12172777D02*
G01*
X9347200Y12148543D01*
X9330270Y11888868D02*
G01*
X9338729Y11967337D01*
X9321800Y12047364D02*
G01*
X9330270Y11952201D01*
X9313329Y12087608D02*
G01*
X9321800Y12155220D01*
X9304870Y11868434D02*
G01*
X9313329Y11858840D01*
X9296400Y12167318D02*
G01*
X9304870Y12115004D01*
X9287929Y11919694D02*
G01*
X9296400Y12010913D01*
X9279470Y12011025D02*
G01*
X9287929Y11919620D01*
X9271000Y12112680D02*
G01*
X9279470Y12166681D01*
X9262529Y11860814D02*
G01*
X9271000Y11865632D01*
X9254070Y12162116D02*
G01*
X9262529Y12100798D01*
X9245600Y11927837D02*
G01*
X9254070Y12021858D01*
X9237129Y12007806D02*
G01*
X9245600Y11916234D01*
X9228670Y12109940D02*
G01*
X9237129Y12165985D01*
X9220200Y11863748D02*
G01*
X9228670Y11862661D01*
X9211729Y12167387D02*
G01*
X9220200Y12113610D01*
X9203270Y11909089D02*
G01*
X9211729Y11999348D01*
X9194800Y12037987D02*
G01*
X9203270Y11940771D01*
X9186329Y12078116D02*
G01*
X9194800Y12151662D01*
X9177870Y11883186D02*
G01*
X9186329Y11855543D01*
X9169400Y12172734D02*
G01*
X9177870Y12146744D01*
X9160929Y11873905D02*
G01*
X9169400Y11945520D01*
X9152470Y12097580D02*
G01*
X9160929Y12000768D01*
X9144000Y12009325D02*
G01*
X9152470Y12104923D01*
X9135529Y11940456D02*
G01*
X9144000Y11871076D01*
X9127070Y12146775D02*
G01*
X9135529Y12172670D01*
X9118600Y11856031D02*
G01*
X9127070Y11879455D01*
X9110129Y12160262D02*
G01*
X9118600Y12093661D01*
X9101670Y11913318D02*
G01*
X9110129Y12007334D01*
X9093200Y12048462D02*
G01*
X9101670Y11948152D01*
X9084729Y12052708D02*
G01*
X9093200Y12137852D01*
X9076270Y11912053D02*
G01*
X9084729Y11859369D01*
X9067800Y12158736D02*
G01*
X9076270Y12168979D01*
X9059329Y11855455D02*
G01*
X9067800Y11889003D01*
X9050870Y12157913D02*
G01*
X9059329Y12087374D01*
X9042400Y11910435D02*
G01*
X9050870Y12004984D01*
X9033929Y12061304D02*
G01*
X9042400Y11959132D01*
X9025470Y12030242D02*
G01*
X9033929Y12123333D01*
X9017000Y11938774D02*
G01*
X9025470Y11869092D01*
X9008529Y12136592D02*
G01*
X9017000Y12172876D01*
X9000070Y11863202D02*
G01*
X9008529Y11864901D01*
X8991600Y12172713D02*
G01*
X9000070Y12133955D01*
X8983129Y11868843D02*
G01*
X8991600Y11938916D01*
X8974670Y12128779D02*
G01*
X8983129Y12036673D01*
X8966200Y11943128D02*
G01*
X8974670Y12045944D01*
X8957729Y12034893D02*
G01*
X8966200Y11933120D01*
X8949270Y12044827D02*
G01*
X8957729Y12134725D01*
X8940800Y11936661D02*
G01*
X8949270Y11867448D01*
X8932329Y12130031D02*
G01*
X8940800Y12172411D01*
X8923870Y11871540D02*
G01*
X8932329Y11859188D01*
X8915400Y12170816D02*
G01*
X8923870Y12152833D01*
X8906929Y11856547D02*
G01*
X8915400Y11902648D01*
X8898470Y12161012D02*
G01*
X8906929Y12091027D01*
X8890000Y11888241D02*
G01*
X8898470Y11976491D01*
X8881529Y12111669D02*
G01*
X8890000Y12011533D01*
X8873070Y11950278D02*
G01*
X8881529Y12055729D01*
X8864600Y12042061D02*
G01*
X8873070Y11937552D01*
X8856129Y12022584D02*
G01*
X8864600Y12120580D01*
X8847670Y11971342D02*
G01*
X8856129Y11884507D01*
X8839200Y12088235D02*
G01*
X8847670Y12160318D01*
X8830729Y11913369D02*
G01*
X8839200Y11858531D01*
X8822270Y12136815D02*
G01*
X8830729Y12172950D01*
X8813800Y11875081D02*
G01*
X8822270Y11858160D01*
X8805329Y12164595D02*
G01*
X8813800Y12162607D01*
X8796870Y11857421D02*
G01*
X8805329Y11877413D01*
X8788400Y12172950D02*
G01*
X8796870Y12136351D01*
X8779929Y11857286D02*
G01*
X8788400Y11908779D01*
X8771470Y12166140D02*
G01*
X8779929Y12101629D01*
X8763000Y11869699D02*
G01*
X8771470Y11945287D01*
X8754529Y12149442D02*
G01*
X8763000Y12064677D01*
X8746070Y11889432D02*
G01*
X8754529Y11981576D01*
X8737600Y12127811D02*
G01*
X8746070Y12029914D01*
X8729129Y11911967D02*
G01*
X8737600Y12014187D01*
X8720670Y12105233D02*
G01*
X8729129Y11999912D01*
X8712200Y11933887D02*
G01*
X8720670Y12041299D01*
X8703729Y12084532D02*
G01*
X8712200Y11975820D01*
X8695270Y11952907D02*
G01*
X8703729Y12062315D01*
X8686800Y12067529D02*
G01*
X8695270Y11957842D01*
X8678329Y11967641D02*
G01*
X8686800Y12077339D01*
X8669870Y12055251D02*
G01*
X8678329Y11945670D01*
X8661400Y11977352D02*
G01*
X8669870Y12086777D01*
X8652929Y12048195D02*
G01*
X8661400Y11938868D01*
X8644470Y11981693D02*
G01*
X8652929Y12091032D01*
X8636000Y12046587D02*
G01*
X8644470Y11937100D01*
X8627529Y11980552D02*
G01*
X8636000Y12090331D01*
X8619070Y12050476D02*
G01*
X8627529Y11940280D01*
X8610600Y11973935D02*
G01*
X8619070Y12084631D01*
X8602129Y12059765D02*
G01*
X8610600Y11948579D01*
X8593670Y11962053D02*
G01*
X8602129Y12073625D01*
X8585200Y12074141D02*
G01*
X8593670Y11962401D01*
X8576729Y11945360D02*
G01*
X8585200Y12056882D01*
X8568270Y12092912D02*
G01*
X8576729Y11982178D01*
X8559800Y11924835D02*
G01*
X8568270Y12034012D01*
X8551329Y12114750D02*
G01*
X8559800Y12008129D01*
X8542870Y11902231D02*
G01*
X8551329Y12005066D01*
X8534400Y12137435D02*
G01*
X8542870Y12039841D01*
X8525929Y11880316D02*
G01*
X8534400Y11970959D01*
X8517470Y12157583D02*
G01*
X8525929Y12075784D01*
X8509000Y11863064D02*
G01*
X8517470Y11933969D01*
X8500529Y12170674D02*
G01*
X8509000Y12112810D01*
X8492070Y11855480D02*
G01*
X8500529Y11898182D01*
X8483600Y12171392D02*
G01*
X8492070Y12145845D01*
X8475129Y11862953D02*
G01*
X8483600Y11869625D01*
X8466670Y12154575D02*
G01*
X8475129Y12168027D01*
X8458200Y11889971D02*
G01*
X8466670Y11855777D01*
X8449729Y12116904D02*
G01*
X8458200Y12171624D01*
X8441270Y11938167D02*
G01*
X8449729Y11864136D01*
X8432800Y12059041D02*
G01*
X8441270Y12150006D01*
X8424329Y12003991D02*
G01*
X8432800Y11899706D01*
X8415870Y11987870D02*
G01*
X8424329Y12100626D01*
X8407400Y12076981D02*
G01*
X8415870Y11961731D01*
X8398929Y11917431D02*
G01*
X8407400Y12028307D01*
X8390470Y12139866D02*
G01*
X8398929Y12040715D01*
X8382000Y11867400D02*
G01*
X8390470Y11947507D01*
X8373529Y12171908D02*
G01*
X8382000Y12117481D01*
X8365070Y11857743D02*
G01*
X8373529Y11881297D01*
X8356600Y12156150D02*
G01*
X8365070Y12166506D01*
X8348129Y11899905D02*
G01*
X8356600Y11855467D01*
X8339670Y12089178D02*
G01*
X8348129Y12164560D01*
X8331200Y11987182D02*
G01*
X8339670Y11887479D01*
X8322729Y11989084D02*
G01*
X8331200Y12103260D01*
X8314270Y12089991D02*
G01*
X8322729Y11973725D01*
X8305800Y11895391D02*
G01*
X8314270Y12000092D01*
X8297329Y12162309D02*
G01*
X8305800Y12082513D01*
X8288870Y11855450D02*
G01*
X8297329Y11899254D01*
X8280400Y12162053D02*
G01*
X8288870Y12161192D01*
X8271929Y11898772D02*
G01*
X8280400Y11855450D01*
X8263470Y12079089D02*
G01*
X8271929Y12161174D01*
X8255000Y12011179D02*
G01*
X8263470Y11902312D01*
X8246529Y11953539D02*
G01*
X8255000Y12071926D01*
X8238070Y12129429D02*
G01*
X8246529Y12021647D01*
X8229600Y11863981D02*
G01*
X8238070Y11941591D01*
X8221129Y12172007D02*
G01*
X8229600Y12139754D01*
X8212670Y11879374D02*
G01*
X8221129Y11859016D01*
X8204200Y12098294D02*
G01*
X8212670Y12168286D01*
X8195729Y11999485D02*
G01*
X8204200Y11893532D01*
X8187270Y11955078D02*
G01*
X8195729Y12074568D01*
X8178800Y12135043D02*
G01*
X8187270Y12028848D01*
X8170329Y11859041D02*
G01*
X8178800Y11926676D01*
X8161870Y12166384D02*
G01*
X8170329Y12154550D01*
X8153400Y11903534D02*
G01*
X8161870Y11855493D01*
X8144929Y12053714D02*
G01*
X8153400Y12150178D01*
X8136470Y12057669D02*
G01*
X8144929Y11938000D01*
X8128000Y11898635D02*
G01*
X8136470Y12008439D01*
X8119529Y12169513D02*
G01*
X8128000Y12101507D01*
X8111070Y11864957D02*
G01*
X8119529Y11870121D01*
X8102600Y12111248D02*
G01*
X8111070Y12171591D01*
X8094129Y12000979D02*
G01*
X8102600Y11893214D01*
X8085670Y11938081D02*
G01*
X8094129Y12058705D01*
X8077200Y12155147D02*
G01*
X8085670Y12062228D01*
X8068729Y11856659D02*
G01*
X8077200Y11889066D01*
X8060270Y12132040D02*
G01*
X8068729Y12172726D01*
X8051800Y11980075D02*
G01*
X8060270Y11880187D01*
X8043329Y11950583D02*
G01*
X8051800Y12072653D01*
X8034870Y12151934D02*
G01*
X8043329Y12055010D01*
X8026400Y11856727D02*
G01*
X8034870Y11889234D01*
X8017929Y12126701D02*
G01*
X8026400Y12172944D01*
X8009470Y11994852D02*
G01*
X8017929Y11888315D01*
X8001000Y11930893D02*
G01*
X8009470Y12052256D01*
X7992529Y12164143D02*
G01*
X8001000Y12081903D01*
X7984070Y11865521D02*
G01*
X7992529Y11870463D01*
X7975600Y12091789D02*
G01*
X7984070Y12167511D01*
X7967129Y12045807D02*
G01*
X7975600Y11924809D01*
X7958670Y11887832D02*
G01*
X7967129Y11995020D01*
X7950200Y12172454D02*
G01*
X7958670Y12133412D01*
X7941729Y11905635D02*
G01*
X7950200Y11855467D01*
X7933270Y12015055D02*
G01*
X7941729Y12128952D01*
X7924800Y12122571D02*
G01*
X7933270Y12005927D01*
X7916329Y11855673D02*
G01*
X7924800Y11910380D01*
X7907870Y12133379D02*
G01*
X7916329Y12172391D01*
X7899400Y12003900D02*
G01*
X7907870Y11892719D01*
X7890929Y11908513D02*
G01*
X7899400Y12026727D01*
X7882470Y12172825D02*
G01*
X7890929Y12119185D01*
X7874000Y11900446D02*
G01*
X7882470Y11855561D01*
X7865529Y12010707D02*
G01*
X7874000Y12126788D01*
X7857070Y12133679D02*
G01*
X7865529Y12020649D01*
X7848600Y11856603D02*
G01*
X7857070Y11891962D01*
X7840129Y12104098D02*
G01*
X7848600Y12171034D01*
X7831670Y12054321D02*
G01*
X7840129Y11930037D01*
X7823200Y11871157D02*
G01*
X7831670Y11966234D01*
X7814729Y12158675D02*
G01*
X7823200Y12161093D01*
X7806270Y11973618D02*
G01*
X7814729Y11874512D01*
X7797800Y11919943D02*
G01*
X7806270Y12042998D01*
X7789329Y12172868D02*
G01*
X7797800Y12118875D01*
X7780870Y11913158D02*
G01*
X7789329Y11855747D01*
X7772400Y11977730D02*
G01*
X7780870Y12102416D01*
X7763929Y12159914D02*
G01*
X7772400Y12067258D01*
X7755470Y11877395D02*
G01*
X7763929Y11862117D01*
X7747000Y12028388D02*
G01*
X7755470Y12139861D01*
X7738529Y12135431D02*
G01*
X7747000Y12021212D01*
X7730070Y11861025D02*
G01*
X7738529Y11879689D01*
X7721600Y12065353D02*
G01*
X7730070Y12159406D01*
X7713129Y12111273D02*
G01*
X7721600Y11987392D01*
X7704670Y11855988D02*
G01*
X7713129Y11897629D01*
X7696200Y12088068D02*
G01*
X7704670Y12167722D01*
X7687729Y12094400D02*
G01*
X7696200Y11967164D01*
X7679270Y11855480D02*
G01*
X7687729Y11909394D01*
X7670800Y12098144D02*
G01*
X7679270Y12170346D01*
X7662329Y12088073D02*
G01*
X7670800Y11959889D01*
X7653870Y11855556D02*
G01*
X7662329Y11911893D01*
X7645400Y12096849D02*
G01*
X7653870Y12170145D01*
X7636929Y12093247D02*
G01*
X7645400Y11965056D01*
X7628470Y11855510D02*
G01*
X7636929Y11904563D01*
X7620000Y12083989D02*
G01*
X7628470Y12166861D01*
X7611529Y12109157D02*
G01*
X7620000Y11983057D01*
X7603070Y11857906D02*
G01*
X7611529Y11889135D01*
X7594600Y12058060D02*
G01*
X7603070Y12157118D01*
X7586129Y12132845D02*
G01*
X7594600Y12014626D01*
X7577670Y11868391D02*
G01*
X7586129Y11870283D01*
X7569200Y12017667D02*
G01*
X7577670Y12135022D01*
X7560729Y12157763D02*
G01*
X7569200Y12058947D01*
X7552270Y11894840D02*
G01*
X7560729Y11856689D01*
X7543800Y11964385D02*
G01*
X7552270Y12093996D01*
X7535329Y12172533D02*
G01*
X7543800Y12110491D01*
X7526870Y11944487D02*
G01*
X7535329Y11861142D01*
X7518400Y11906796D02*
G01*
X7526870Y12030905D01*
X7509929Y12161669D02*
G01*
X7518400Y12155723D01*
X7501470Y12018101D02*
G01*
X7509929Y11897512D01*
X7493000Y11863555D02*
G01*
X7501470Y11952559D01*
X7484529Y12111167D02*
G01*
X7493000Y12172645D01*
X7476070Y12102084D02*
G01*
X7484529Y11972434D01*
X7467600Y11861154D02*
G01*
X7476070Y11881835D01*
X7459129Y12020494D02*
G01*
X7467600Y12137986D01*
X7450670Y12163915D02*
G01*
X7459129Y12072533D01*
X7442200Y11920778D02*
G01*
X7450670Y11856026D01*
X7433729Y11916773D02*
G01*
X7442200Y12045193D01*
X7425270Y12161088D02*
G01*
X7433729Y12155804D01*
X7416800Y12034235D02*
G01*
X7425270Y11908053D01*
X7408329Y11856720D02*
G01*
X7416800Y11926625D01*
X7399870Y12071715D02*
G01*
X7408329Y12163889D01*
X7391400Y12144722D02*
G01*
X7399870Y12030646D01*
X7382929Y11896930D02*
G01*
X7391400Y11856646D01*
X7374470Y11934868D02*
G01*
X7382929Y12067120D01*
X7366000Y12165081D02*
G01*
X7374470Y12149714D01*
X7357529Y12032922D02*
G01*
X7366000Y11906379D01*
X7349070Y11855841D02*
G01*
X7357529Y11920085D01*
X7340600Y12053470D02*
G01*
X7349070Y12156851D01*
X7332129Y12159140D02*
G01*
X7340600Y12058563D01*
X7323670Y11927029D02*
G01*
X7332129Y11856615D01*
X7315200Y11896234D02*
G01*
X7323670Y12019173D01*
X7306729Y12136114D02*
G01*
X7315200Y12170531D01*
X7298270Y12098759D02*
G01*
X7306729Y11965937D01*
X7289800Y11870408D02*
G01*
X7298270Y11870159D01*
X7281329Y11963864D02*
G01*
X7289800Y12097128D01*
X7272870Y12169228D02*
G01*
X7281329Y12139983D01*
X7264400Y12033275D02*
G01*
X7272870Y11905587D01*
X7255929Y11855536D02*
G01*
X7264400Y11908426D01*
X7247470Y12021324D02*
G01*
X7255929Y12140542D01*
X7239000Y12171926D02*
G01*
X7247470Y12101301D01*
X7230529Y11986821D02*
G01*
X7239000Y11876458D01*
X7222070Y11859407D02*
G01*
X7230529Y11942427D01*
X7213600Y12055759D02*
G01*
X7222070Y12158680D01*
X7205129Y12166010D02*
G01*
X7213600Y12075208D01*
X7196670Y11964329D02*
G01*
X7205129Y11866245D01*
X7188200Y11864174D02*
G01*
X7196670Y11958779D01*
X7179729Y12066747D02*
G01*
X7188200Y12163244D01*
X7171270Y12164255D02*
G01*
X7179729Y12069483D01*
X7162800Y11964515D02*
G01*
X7171270Y11866140D01*
X7154329Y11862308D02*
G01*
X7162800Y11953608D01*
X7145870Y12055375D02*
G01*
X7154329Y12158929D01*
X7137400Y12169099D02*
G01*
X7145870Y12085302D01*
X7128929Y11987405D02*
G01*
X7137400Y11876013D01*
X7120470Y11856399D02*
G01*
X7128929Y11927992D01*
X7112000Y12020544D02*
G01*
X7120470Y12141273D01*
X7103529Y12172833D02*
G01*
X7112000Y12118944D01*
X7095070Y12034230D02*
G01*
X7103529Y11904477D01*
X7086600Y11859399D02*
G01*
X7095070Y11889458D01*
X7078129Y11962785D02*
G01*
X7086600Y12098703D01*
X7069670Y12157466D02*
G01*
X7078129Y12157379D01*
X7061200Y12099864D02*
G01*
X7069670Y11963859D01*
X7052729Y11893179D02*
G01*
X7061200Y11858289D01*
X7044270Y11895254D02*
G01*
X7052729Y12021690D01*
X7035800Y12100074D02*
G01*
X7044270Y12172088D01*
X7027329Y12159790D02*
G01*
X7035800Y12055797D01*
X7018870Y11976564D02*
G01*
X7027329Y11870240D01*
X7010400Y11855729D02*
G01*
X7018870Y11922701D01*
X7001929Y11993674D02*
G01*
X7010400Y12124507D01*
X6993470Y12164491D02*
G01*
X7001929Y12147798D01*
X6985000Y12095205D02*
G01*
X6993470Y11957707D01*
X6976529Y11898282D02*
G01*
X6985000Y11857179D01*
X6968070Y11882531D02*
G01*
X6976529Y12001939D01*
X6959600Y12069775D02*
G01*
X6968070Y12165304D01*
X6951129Y12171934D02*
G01*
X6959600Y12097885D01*
X6942670Y12036369D02*
G01*
X6951129Y11904512D01*
X6934200Y11868155D02*
G01*
X6942670Y11874947D01*
X6925729Y11915043D02*
G01*
X6934200Y12050346D01*
X6917270Y12105810D02*
G01*
X6925729Y12172744D01*
X6908800Y12164646D02*
G01*
X6917270Y12067164D01*
X6900329Y12010156D02*
G01*
X6908800Y11886760D01*
X6891870Y11861769D02*
G01*
X6900329Y11885371D01*
X6883400Y11924444D02*
G01*
X6891870Y12062172D01*
X6874929Y12109381D02*
G01*
X6883400Y12172919D01*
X6866470Y12165533D02*
G01*
X6874929Y12069335D01*
X6858000Y12020308D02*
G01*
X6866470Y11892711D01*
X6849529Y11867548D02*
G01*
X6858000Y11876247D01*
X6841070Y11905221D02*
G01*
X6849529Y12038662D01*
X6832600Y12082010D02*
G01*
X6841070Y12169211D01*
X6824129Y12172670D02*
G01*
X6832600Y12103676D01*
X6815670Y12065916D02*
G01*
X6824129Y11926999D01*
X6807200Y11896135D02*
G01*
X6815670Y11858066D01*
X6798729Y11869844D02*
G01*
X6807200Y11978479D01*
X6790270Y12015861D02*
G01*
X6798729Y12141062D01*
X6781800Y12159320D02*
G01*
X6790270Y12153615D01*
X6773329Y12133920D02*
G01*
X6781800Y12004296D01*
X6764870Y11971809D02*
G01*
X6773329Y11866953D01*
X6756400Y11858160D02*
G01*
X6764870Y11896234D01*
X6747929Y11918200D02*
G01*
X6756400Y12056435D01*
X6739470Y12082934D02*
G01*
X6747929Y12169668D01*
X6731000Y12172850D02*
G01*
X6739470Y12114728D01*
X6722529Y12094022D02*
G01*
X6731000Y11953285D01*
X6714070Y11932188D02*
G01*
X6722529Y11856349D01*
X6705600Y11855536D02*
G01*
X6714070Y11922465D01*
X6697129Y11939965D02*
G01*
X6705600Y12081245D01*
X6688670Y12097946D02*
G01*
X6697129Y12172279D01*
X6680200Y12172924D02*
G01*
X6688670Y12107565D01*
X6671729Y12094263D02*
G01*
X6680200Y11952975D01*
X6663270Y11940004D02*
G01*
X6671729Y11857459D01*
X6654800Y11855940D02*
G01*
X6663270Y11909089D01*
X6646329Y11917779D02*
G01*
X6654800Y12057105D01*
X6637870Y12066358D02*
G01*
X6646329Y12165434D01*
X6629400Y12167709D02*
G01*
X6637870Y12138619D01*
X6620929Y12134410D02*
G01*
X6629400Y12003217D01*
X6612470Y11998175D02*
G01*
X6620929Y11878096D01*
X6604000Y11876323D02*
G01*
X6612470Y11868670D01*
X6595529Y11869465D02*
G01*
X6604000Y11979981D01*
X6587070Y11980397D02*
G01*
X6595529Y12118423D01*
X6578600Y12117580D02*
G01*
X6587070Y12172566D01*
X6570129Y12172726D02*
G01*
X6578600Y12101959D01*
X6561670Y12105431D02*
G01*
X6570129Y11964205D01*
X6553200Y11969681D02*
G01*
X6561670Y11865259D01*
X6544729Y11867934D02*
G01*
X6553200Y11877601D01*
X6536270Y11873321D02*
G01*
X6544729Y11989320D01*
X6527800Y11979158D02*
G01*
X6536270Y12117964D01*
X6519329Y12108687D02*
G01*
X6527800Y12172950D01*
X6510870Y12172411D02*
G01*
X6519329Y12118510D01*
X6502400Y12129312D02*
G01*
X6510870Y11994319D01*
X6493929Y12010763D02*
G01*
X6502400Y11884248D01*
X6485470Y11895416D02*
G01*
X6493929Y11859021D01*
X6477000Y11856082D02*
G01*
X6485470Y11932170D01*
X6468529Y11914888D02*
G01*
X6477000Y12055492D01*
X6460070Y12033305D02*
G01*
X6468529Y12152703D01*
X6451600Y12139350D02*
G01*
X6460070Y12166879D01*
X6443129Y12171890D02*
G01*
X6451600Y12092297D01*
X6434670Y12114720D02*
G01*
X6443129Y11974065D01*
X6426200Y12002368D02*
G01*
X6434670Y11879219D01*
X6417729Y11897499D02*
G01*
X6426200Y11858538D01*
X6409270Y11855450D02*
G01*
X6417729Y11920598D01*
X6400800Y11895942D02*
G01*
X6409270Y12030547D01*
X6392329Y11995782D02*
G01*
X6400800Y12131111D01*
X6383870Y12103676D02*
G01*
X6392329Y12172894D01*
X6375400Y12167369D02*
G01*
X6383870Y12137715D01*
X6366929Y12158433D02*
G01*
X6375400Y12044809D01*
X6358470Y12083511D02*
G01*
X6366929Y11938861D01*
X6350000Y11978449D02*
G01*
X6358470Y11867784D01*
X6341529Y11890138D02*
G01*
X6350000Y11861352D01*
X6333070Y11855462D02*
G01*
X6341529Y11919935D01*
X6324600Y11886778D02*
G01*
X6333070Y12016841D01*
X6316129Y11968975D02*
G01*
X6324600Y12111540D01*
X6307670Y12067882D02*
G01*
X6316129Y12166927D01*
X6299200Y12145137D02*
G01*
X6307670Y12163381D01*
X6290729Y12172932D02*
G01*
X6299200Y12104545D01*
X6282270Y12143239D02*
G01*
X6290729Y12013890D01*
X6273800Y12068812D02*
G01*
X6282270Y11924517D01*
X6265329Y11976818D02*
G01*
X6273800Y11866834D01*
X6256870Y11898398D02*
G01*
X6265329Y11858594D01*
X6248400Y11858078D02*
G01*
X6256870Y11900308D01*
X6239929Y11866747D02*
G01*
X6248400Y11976826D01*
X6231470Y11919612D02*
G01*
X6239929Y12063498D01*
X6223000Y11999249D02*
G01*
X6231470Y12134532D01*
X6214529Y12081916D02*
G01*
X6223000Y12170524D01*
X6206070Y12144852D02*
G01*
X6214529Y12163244D01*
X6197600Y12172348D02*
G01*
X6206070Y12116686D01*
X6189129Y12159084D02*
G01*
X6197600Y12044679D01*
X6180670Y12110344D02*
G01*
X6189129Y11966308D01*
X6172200Y12039544D02*
G01*
X6180670Y11900631D01*
X6163729Y11964126D02*
G01*
X6172200Y11862165D01*
X6155270Y11901070D02*
G01*
X6163729Y11858043D01*
X6146800Y11863219D02*
G01*
X6155270Y11887316D01*
X6138329Y11857007D02*
G01*
X6146800Y11942142D01*
X6129870Y11881916D02*
G01*
X6138329Y12010212D01*
X6121400Y11931439D02*
G01*
X6129870Y12077755D01*
X6112929Y11995081D02*
G01*
X6121400Y12132419D01*
X6104470Y12060814D02*
G01*
X6112929Y12165309D01*
X6096000Y12117417D02*
G01*
X6104470Y12172175D01*
X6087529Y12156305D02*
G01*
X6096000Y12153503D01*
X6079070Y12172558D02*
G01*
X6087529Y12113790D01*
X6070600Y12165228D02*
G01*
X6079070Y12060293D01*
X6062129Y12136902D02*
G01*
X6070600Y12001500D01*
X6053670Y12092818D02*
G01*
X6062129Y11945739D01*
X6045200Y12039749D02*
G01*
X6053670Y11900011D01*
X6036729Y11984855D02*
G01*
X6045200Y11869247D01*
X6028270Y11934687D02*
G01*
X6036729Y11855970D01*
X6019800Y11894474D02*
G01*
X6028270Y11860362D01*
X6011329Y11867702D02*
G01*
X6019800Y11880608D01*
X6002870Y11856001D02*
G01*
X6011329Y11913443D01*
X5994400Y11859270D02*
G01*
X6002870Y11954736D01*
X5985929Y11875980D02*
G01*
X5994400Y12000067D01*
X5977470Y11903565D02*
G01*
X5985929Y12045236D01*
X5969000Y11938868D02*
G01*
X5977470Y12086643D01*
X5960529Y11978530D02*
G01*
X5969000Y12121487D01*
X5952070Y12019340D02*
G01*
X5960529Y12147910D01*
X5943600Y12058456D02*
G01*
X5952070Y12164951D01*
X5935129Y12093605D02*
G01*
X5943600Y12172477D01*
X5926670Y12123143D02*
G01*
X5935129Y12171027D01*
X5918200Y12146043D02*
G01*
X5926670Y12161626D01*
X5909729Y12161862D02*
G01*
X5918200Y12145652D01*
X5901270Y12170661D02*
G01*
X5909729Y12124618D01*
X5892800Y12172894D02*
G01*
X5901270Y12100074D01*
X5884329Y12169267D02*
G01*
X5892800Y12073483D01*
X5875870Y12160697D02*
G01*
X5884329Y12046155D01*
X5867400Y12148169D02*
G01*
X5875870Y12019186D01*
X5858929Y12132668D02*
G01*
X5867400Y11993455D01*
X5850470Y12115142D02*
G01*
X5858929Y11969607D01*
X5842000Y12096445D02*
G01*
X5850470Y11948076D01*
X5833529Y12077316D02*
G01*
X5842000Y11929107D01*
X5825070Y12058357D02*
G01*
X5833529Y11912772D01*
X5816600Y12040064D02*
G01*
X5825070Y11899038D01*
X5808129Y12022795D02*
G01*
X5816600Y11887751D01*
X5799670Y12006813D02*
G01*
X5808129Y11878716D01*
X5791200Y11992284D02*
G01*
X5799670Y11871660D01*
X5782729Y11979287D02*
G01*
X5791200Y11866326D01*
X5774270Y11967857D02*
G01*
X5782729Y11862419D01*
X5765800Y11957979D02*
G01*
X5774270Y11859679D01*
X5757329Y11949607D02*
G01*
X5765800Y11857842D01*
X5748870Y11942676D02*
G01*
X5757329Y11856697D01*
X5740400Y11937126D02*
G01*
X5748870Y11856026D01*
X5731929Y11932871D02*
G01*
X5740400Y11855678D01*
X5723470Y11929864D02*
G01*
X5731929Y11855531D01*
X5715000Y11928058D02*
G01*
X5723470Y11855475D01*
X5706529Y11927420D02*
G01*
X5715000Y11855462D01*
X5698070Y11927936D02*
G01*
X5706529Y11855467D01*
X5689600Y11929615D02*
G01*
X5698070Y11855510D01*
X5681129Y11932488D02*
G01*
X5689600Y11855643D01*
X5672670Y11936592D02*
G01*
X5681129Y11855940D01*
X5664200Y11941987D02*
G01*
X5672670Y11856534D01*
X5655729Y11948746D02*
G01*
X5664200Y11857575D01*
X5647270Y11956925D02*
G01*
X5655729Y11859257D01*
X5638800Y11966592D02*
G01*
X5647270Y11861800D01*
X5630329Y11977794D02*
G01*
X5638800Y11865439D01*
X5621870Y11990542D02*
G01*
X5630329Y11870443D01*
X5613400Y12004817D02*
G01*
X5621870Y11877093D01*
X5604929Y12020537D02*
G01*
X5613400Y11885650D01*
X5596470Y12037547D02*
G01*
X5604929Y11896371D01*
X5588000Y12055612D02*
G01*
X5596470Y11909480D01*
X5579529Y12074382D02*
G01*
X5588000Y11925119D01*
X5571070Y12093394D02*
G01*
X5579529Y11943364D01*
X5562600Y12112086D02*
G01*
X5571070Y11964156D01*
X5554129Y12129739D02*
G01*
X5562600Y11987293D01*
X5545670Y12145540D02*
G01*
X5554129Y12012401D01*
X5537200Y12158593D02*
G01*
X5545670Y12038906D01*
X5528729Y12167933D02*
G01*
X5537200Y12066005D01*
X5520270Y12172589D02*
G01*
X5528729Y12092688D01*
X5511800Y12171685D02*
G01*
X5520270Y12117727D01*
X5503329Y12164461D02*
G01*
X5511800Y12139754D01*
X5494870Y12150427D02*
G01*
X5503329Y12157273D01*
X5486400Y12129442D02*
G01*
X5494870Y12168802D01*
X5477929Y12101809D02*
G01*
X5486400Y12172950D01*
X5469470Y12068385D02*
G01*
X5477929Y12168609D01*
X5461000Y12030608D02*
G01*
X5469470Y12155096D01*
X5452529Y11990511D02*
G01*
X5461000Y12132294D01*
X5444070Y11950687D02*
G01*
X5452529Y12100836D01*
X5435600Y11914144D02*
G01*
X5444070Y12062203D01*
X5427129Y11884085D02*
G01*
X5435600Y12018738D01*
X5418670Y11863641D02*
G01*
X5427129Y11973626D01*
X5410200Y11855505D02*
G01*
X5418670Y11930677D01*
X5401729Y11861520D02*
G01*
X5410200Y11894088D01*
X5393270Y11882300D02*
G01*
X5401729Y11867995D01*
X5384800Y11916940D02*
G01*
X5393270Y11855945D01*
X5376329Y11962798D02*
G01*
X5384800Y11860397D01*
X5367870Y12015538D02*
G01*
X5376329Y11882132D01*
X5359400Y12069384D02*
G01*
X5367870Y11919879D01*
X5350929Y12117684D02*
G01*
X5359400Y11970120D01*
X5342470Y12153727D02*
G01*
X5350929Y12027184D01*
X5334000Y12171702D02*
G01*
X5342470Y12083765D01*
X5325529Y12167816D02*
G01*
X5334000Y12131743D01*
X5317070Y12141174D02*
G01*
X5325529Y12163407D01*
X5308600Y12094443D02*
G01*
X5317070Y12172764D01*
X5300129Y12033887D02*
G01*
X5308600Y12156889D01*
X5291670Y11968863D02*
G01*
X5300129Y12116866D01*
X5283200Y11910484D02*
G01*
X5291670Y12058246D01*
X5274729Y11869780D02*
G01*
X5283200Y11990572D01*
X5266270Y11855462D02*
G01*
X5274729Y11926100D01*
X5257800Y11871845D02*
G01*
X5266270Y11877649D01*
X5249329Y11917306D02*
G01*
X5257800Y11855952D01*
X5240870Y11983857D02*
G01*
X5249329Y11867040D01*
X5232400Y12058103D02*
G01*
X5240870Y11910237D01*
X5223929Y12123694D02*
G01*
X5232400Y11977502D01*
X5215470Y12164870D02*
G01*
X5223929Y12054359D01*
X5207000Y12170468D02*
G01*
X5215470Y12122769D01*
X5198529Y12137349D02*
G01*
X5207000Y12165284D01*
X5190070Y12072150D02*
G01*
X5198529Y12169719D01*
X5181600Y11990666D02*
G01*
X5190070Y12133094D01*
X5173129Y11914428D02*
G01*
X5181600Y12063511D01*
X5164670Y11865190D02*
G01*
X5173129Y11979076D01*
X5156200Y11858464D02*
G01*
X5164670Y11903651D01*
X5147729Y11898139D02*
G01*
X5156200Y11860187D01*
X5139270Y11974004D02*
G01*
X5147729Y11863448D01*
X5130800Y12063562D02*
G01*
X5139270Y11914380D01*
X5122329Y12138223D02*
G01*
X5130800Y11998398D01*
X5113870Y12172373D02*
G01*
X5122329Y12088756D01*
X5105400Y12152635D02*
G01*
X5113870Y12154631D01*
X5096929Y12083844D02*
G01*
X5105400Y12171809D01*
X5088470Y11989023D02*
G01*
X5096929Y12132157D01*
X5080000Y11902455D02*
G01*
X5088470Y12048238D01*
X5071529Y11857476D02*
G01*
X5080000Y11950395D01*
X5063070Y11873240D02*
G01*
X5071529Y11876379D01*
X5054600Y11945640D02*
G01*
X5063070Y11856727D01*
X5046129Y12046960D02*
G01*
X5054600Y11901474D01*
X5037670Y12135589D02*
G01*
X5046129Y11994078D01*
X5029200Y12172881D02*
G01*
X5037670Y12096302D01*
X5020729Y12140628D02*
G01*
X5029200Y12163412D01*
X5012270Y12051035D02*
G01*
X5020729Y12163933D01*
X5003800Y11943562D02*
G01*
X5012270Y12095398D01*
X4995329Y11868365D02*
G01*
X5003800Y11987900D01*
X4986870Y11862793D02*
G01*
X4995329Y11892056D01*
X4978400Y11931804D02*
G01*
X4986870Y11855505D01*
X4969929Y12042955D02*
G01*
X4978400Y11898528D01*
X4961470Y12140318D02*
G01*
X4969929Y12001444D01*
X4953000Y12172287D02*
G01*
X4961470Y12111979D01*
X4944529Y12119737D02*
G01*
X4953000Y12171039D01*
X4936070Y12008959D02*
G01*
X4944529Y12144766D01*
X4927600Y11900166D02*
G01*
X4936070Y12045348D01*
X4919129Y11855455D02*
G01*
X4927600Y11927352D01*
X4910670Y11902640D02*
G01*
X4919129Y11858853D01*
X4902200Y12016315D02*
G01*
X4910670Y11881848D01*
X4893729Y12129615D02*
G01*
X4902200Y11984967D01*
X4885270Y12172739D02*
G01*
X4893729Y12106882D01*
X4876800Y12116737D02*
G01*
X4885270Y12171598D01*
X4868329Y11994796D02*
G01*
X4876800Y12136231D01*
X4859870Y11884576D02*
G01*
X4868329Y12021195D01*
X4851400Y11859463D02*
G01*
X4859870Y11900687D01*
X4842929Y11938558D02*
G01*
X4851400Y11855889D01*
X4834470Y12070153D02*
G01*
X4842929Y11919470D01*
X4826000Y12163549D02*
G01*
X4834470Y12049676D01*
X4817529Y12151413D02*
G01*
X4826000Y12155543D01*
X4809070Y12039965D02*
G01*
X4817529Y12159914D01*
X4800600Y11908843D02*
G01*
X4809070Y12057161D01*
X4792129Y11855660D02*
G01*
X4800600Y11921617D01*
X4783670Y11922671D02*
G01*
X4792129Y11855599D01*
X4775200Y12060826D02*
G01*
X4783670Y11911718D01*
X4766729Y12163209D02*
G01*
X4775200Y12048652D01*
X4758270Y12147308D02*
G01*
X4766729Y12158924D01*
X4749800Y12023415D02*
G01*
X4758270Y12152528D01*
X4741329Y11891218D02*
G01*
X4749800Y12032208D01*
X4732870Y11861098D02*
G01*
X4741329Y11896148D01*
X4724400Y11960806D02*
G01*
X4732870Y11859554D01*
X4715929Y12107080D02*
G01*
X4724400Y11956051D01*
X4707470Y12172881D02*
G01*
X4715929Y12103948D01*
X4699000Y12098121D02*
G01*
X4707470Y12172937D01*
X4690529Y11947352D02*
G01*
X4699000Y12099241D01*
X4682070Y11856930D02*
G01*
X4690529Y11947425D01*
X4673600Y11911911D02*
G01*
X4682070Y11856775D01*
X4665129Y12063387D02*
G01*
X4673600Y11913765D01*
X4656670Y12168665D02*
G01*
X4665129Y12066849D01*
X4648200Y12125027D02*
G01*
X4656670Y12169724D01*
X4639729Y11972490D02*
G01*
X4648200Y12120549D01*
X4631270Y11860720D02*
G01*
X4639729Y11965414D01*
X4622800Y11903113D02*
G01*
X4631270Y11858749D01*
X4614329Y12059132D02*
G01*
X4622800Y11910367D01*
X4605870Y12169327D02*
G01*
X4614329Y12069663D01*
X4597400Y12117344D02*
G01*
X4605870Y12171474D01*
X4588929Y11955599D02*
G01*
X4597400Y12106666D01*
X4580470Y11856237D02*
G01*
X4588929Y11942104D01*
X4572000Y11928586D02*
G01*
X4580470Y11855450D01*
X4563529Y12095683D02*
G01*
X4572000Y11943623D01*
X4555070Y12172386D02*
G01*
X4563529Y12110981D01*
X4546600Y12070463D02*
G01*
X4555070Y12169495D01*
X4538129Y11903750D02*
G01*
X4546600Y12050407D01*
X4529670Y11864441D02*
G01*
X4538129Y11888929D01*
X4521200Y12000631D02*
G01*
X4529670Y11873811D01*
X4512729Y12153397D02*
G01*
X4521200Y12025282D01*
X4504270Y12139518D02*
G01*
X4512729Y12163945D01*
X4495800Y11973341D02*
G01*
X4504270Y12121126D01*
X4487329Y11856844D02*
G01*
X4495800Y11946737D01*
X4478870Y11935599D02*
G01*
X4487329Y11855678D01*
X4470400Y12113417D02*
G01*
X4478870Y11963666D01*
X4461929Y12165619D02*
G01*
X4470400Y12136231D01*
X4453470Y12023298D02*
G01*
X4461929Y12152398D01*
X4445000Y11868744D02*
G01*
X4453470Y11988949D01*
X4436529Y11904903D02*
G01*
X4445000Y11858228D01*
X4428070Y12086351D02*
G01*
X4436529Y11934372D01*
X4419600Y12171400D02*
G01*
X4428070Y12117915D01*
X4411129Y12043351D02*
G01*
X4419600Y12161174D01*
X4402670Y11875002D02*
G01*
X4411129Y12002970D01*
X4394200Y11899125D02*
G01*
X4402670Y11859940D01*
X4385729Y12084415D02*
G01*
X4394200Y11932566D01*
X4377270Y12170824D02*
G01*
X4385729Y12120841D01*
X4368800Y12033633D02*
G01*
X4377270Y12157143D01*
X4360329Y11868099D02*
G01*
X4368800Y11987194D01*
X4351870Y11915180D02*
G01*
X4360329Y11856250D01*
X4343400Y12108124D02*
G01*
X4351870Y11957588D01*
X4334929Y12161832D02*
G01*
X4343400Y12143295D01*
X4326470Y11994045D02*
G01*
X4334929Y12135556D01*
X4318000Y11856486D02*
G01*
X4326470Y11943859D01*
X4309529Y11959970D02*
G01*
X4318000Y11859450D01*
X4301070Y12147395D02*
G01*
X4309529Y12013933D01*
X4292600Y12127489D02*
G01*
X4301070Y12169091D01*
X4284129Y11929300D02*
G01*
X4292600Y12080750D01*
X4275670Y11865620D02*
G01*
X4284129Y11886572D01*
X4267200Y12039940D02*
G01*
X4275670Y11896651D01*
X4258729Y12172894D02*
G01*
X4267200Y12096849D01*
X4250270Y12047128D02*
G01*
X4258729Y12162457D01*
X4241800Y11866996D02*
G01*
X4250270Y11984080D01*
X4233329Y11931073D02*
G01*
X4241800Y11855493D01*
X4224870Y12134471D02*
G01*
X4233329Y11992637D01*
X4216400Y12134900D02*
G01*
X4224870Y12166376D01*
X4207929Y11929645D02*
G01*
X4216400Y12080943D01*
X4199470Y11869488D02*
G01*
X4207929Y11880695D01*
X4191000Y12060064D02*
G01*
X4199470Y11911670D01*
X4182529Y12170669D02*
G01*
X4191000Y12121883D01*
X4174070Y12005660D02*
G01*
X4182529Y12142503D01*
X4165600Y11855691D02*
G01*
X4174070Y11935160D01*
X4157129Y11989501D02*
G01*
X4165600Y11869247D01*
X4148670Y12168007D02*
G01*
X4157129Y12065055D01*
X4140200Y12066704D02*
G01*
X4148670Y12168416D01*
X4131729Y11869031D02*
G01*
X4140200Y11988886D01*
X4123270Y11939643D02*
G01*
X4131729Y11856064D01*
X4114800Y12149211D02*
G01*
X4123270Y12017883D01*
X4106329Y12105358D02*
G01*
X4114800Y12172856D01*
X4097870Y11889003D02*
G01*
X4106329Y12027631D01*
X4089400Y11911261D02*
G01*
X4097870Y11856745D01*
X4080929Y12131258D02*
G01*
X4089400Y11988322D01*
X4072470Y12124773D02*
G01*
X4080929Y12170016D01*
X4064000Y11902714D02*
G01*
X4072470Y12047903D01*
X4055529Y11899577D02*
G01*
X4064000Y11859567D01*
X4047070Y12123186D02*
G01*
X4055529Y11977171D01*
X4038600Y12129653D02*
G01*
X4047070Y12168571D01*
X4030129Y11904438D02*
G01*
X4038600Y12050118D01*
X4021670Y11901070D02*
G01*
X4030129Y11859064D01*
X4013200Y12127948D02*
G01*
X4021670Y11983839D01*
X4004729Y12121667D02*
G01*
X4013200Y12170824D01*
X3996270Y11893618D02*
G01*
X4004729Y12034489D01*
X3987800Y11916171D02*
G01*
X3996270Y11856026D01*
X3979329Y12143780D02*
G01*
X3987800Y12008576D01*
X3970870Y12098406D02*
G01*
X3979329Y12172911D01*
X3962400Y11874530D02*
G01*
X3970870Y12000626D01*
X3953929Y11948833D02*
G01*
X3962400Y11857398D01*
X3945470Y12163518D02*
G01*
X3953929Y12051159D01*
X3937000Y12055233D02*
G01*
X3945470Y12164882D01*
X3928529Y11857725D02*
G01*
X3937000Y11950557D01*
X3920070Y12003036D02*
G01*
X3928529Y11875790D01*
X3911600Y12172850D02*
G01*
X3920070Y12106188D01*
X3903129Y11990666D02*
G01*
X3911600Y12132345D01*
X3894670Y11861154D02*
G01*
X3903129Y11894753D01*
X3886200Y12075419D02*
G01*
X3894670Y11925647D01*
X3877729Y12151177D02*
G01*
X3886200Y12156627D01*
X3869270Y11915508D02*
G01*
X3877729Y12063567D01*
X3860800Y11905759D02*
G01*
X3869270Y11857682D01*
X3852329Y12145479D02*
G01*
X3860800Y12012152D01*
X3843870Y12081141D02*
G01*
X3852329Y12171189D01*
X3835400Y11861055D02*
G01*
X3843870Y11964535D01*
X3826929Y11999782D02*
G01*
X3835400Y11874439D01*
X3818470Y12172287D02*
G01*
X3826929Y12113640D01*
X3810000Y11970171D02*
G01*
X3818470Y12116970D01*
X3801529Y11873191D02*
G01*
X3810000Y11875460D01*
X3793070Y12114088D02*
G01*
X3801529Y11966668D01*
X3784600Y12114052D02*
G01*
X3793070Y12172256D01*
X3776129Y11872186D02*
G01*
X3784600Y11994654D01*
X3767670Y11976521D02*
G01*
X3776129Y11864936D01*
X3759200Y12172944D02*
G01*
X3767670Y12100974D01*
X3750729Y11978269D02*
G01*
X3759200Y12122967D01*
X3742270Y11872843D02*
G01*
X3750729Y11875678D01*
X3733800Y12119284D02*
G01*
X3742270Y11973532D01*
X3725329Y12102467D02*
G01*
X3733800Y12172950D01*
X3716870Y11863765D02*
G01*
X3725329Y11972795D01*
X3708400Y12005673D02*
G01*
X3716870Y11877675D01*
X3699929Y12168974D02*
G01*
X3708400Y12129604D01*
X3691470Y11936829D02*
G01*
X3699929Y12086351D01*
X3683000Y11903669D02*
G01*
X3691470Y11858010D01*
X3674529Y12155599D02*
G01*
X3683000Y12032988D01*
X3666070Y12040580D02*
G01*
X3674529Y12158898D01*
X3657600Y11857106D02*
G01*
X3666070Y11907639D01*
X3649129Y12085116D02*
G01*
X3657600Y11935848D01*
X3640670Y12126150D02*
G01*
X3649129Y12170072D01*
X3632200Y11871325D02*
G01*
X3640670Y11991850D01*
X3623729Y11996359D02*
G01*
X3632200Y11873384D01*
X3615270Y12168682D02*
G01*
X3623729Y12130844D01*
X3606800Y11926663D02*
G01*
X3615270Y12075063D01*
X3598329Y11920865D02*
G01*
X3606800Y11855549D01*
X3589870Y12167468D02*
G01*
X3598329Y12065701D01*
X3581400Y11997103D02*
G01*
X3589870Y12135388D01*
X3572929Y11873829D02*
G01*
X3581400Y11874134D01*
X3564470Y12135606D02*
G01*
X3572929Y11997550D01*
X3556000Y12062457D02*
G01*
X3564470Y12166475D01*
X3547529Y11856077D02*
G01*
X3556000Y11913796D01*
X3539070Y12089371D02*
G01*
X3547529Y11940697D01*
X3530600Y12112358D02*
G01*
X3539070Y12172558D01*
X3522129Y11860354D02*
G01*
X3530600Y11960108D01*
X3513670Y12041794D02*
G01*
X3522129Y11900458D01*
X3505200Y12144753D02*
G01*
X3513670Y12162327D01*
X3496729Y11877123D02*
G01*
X3505200Y12003194D01*
X3488270Y12000682D02*
G01*
X3496729Y11875902D01*
X3479800Y12162513D02*
G01*
X3488270Y12144560D01*
X3471329Y11898020D02*
G01*
X3479800Y12038012D01*
X3462870Y11969267D02*
G01*
X3471329Y11863146D01*
X3454400Y12170321D02*
G01*
X3462870Y12126107D01*
X3445929Y11917121D02*
G01*
X3454400Y12062990D01*
X3437470Y11947916D02*
G01*
X3445929Y11857738D01*
X3429000Y12172683D02*
G01*
X3437470Y12111408D01*
X3420529Y11930862D02*
G01*
X3429000Y12078418D01*
X3412070Y11935762D02*
G01*
X3420529Y11856026D01*
X3403600Y12172944D02*
G01*
X3412070Y12102957D01*
X3395129Y11937410D02*
G01*
X3403600Y12085104D01*
X3386670Y11931830D02*
G01*
X3395129Y11855716D01*
X3378200Y12172919D02*
G01*
X3386670Y12101847D01*
X3369729Y11936115D02*
G01*
X3378200Y12083597D01*
X3361270Y11935706D02*
G01*
X3369729Y11856057D01*
X3352800Y12172889D02*
G01*
X3361270Y12108172D01*
X3344329Y11927141D02*
G01*
X3352800Y12073806D01*
X3335870Y11947718D02*
G01*
X3344329Y11857842D01*
X3327400Y12171560D02*
G01*
X3335870Y12121095D01*
X3318929Y11911540D02*
G01*
X3327400Y12055134D01*
X3310470Y11968721D02*
G01*
X3318929Y11863344D01*
X3302000Y12166196D02*
G01*
X3310470Y12138588D01*
X3293529Y11891622D02*
G01*
X3302000Y12026955D01*
X3285070Y11999485D02*
G01*
X3293529Y11876100D01*
X3276600Y12152820D02*
G01*
X3285070Y12156963D01*
X3268129Y11871505D02*
G01*
X3276600Y11989549D01*
X3259670Y12039605D02*
G01*
X3268129Y11900303D01*
X3251200Y12126925D02*
G01*
X3259670Y12170407D01*
X3242729Y11857553D02*
G01*
X3251200Y11945447D01*
X3234270Y12086071D02*
G01*
X3242729Y11939536D01*
X3225800Y12084974D02*
G01*
X3234270Y12171177D01*
X3217329Y11858096D02*
G01*
X3225800Y11900842D01*
X3208870Y12131786D02*
G01*
X3217329Y11994578D01*
X3200400Y12026793D02*
G01*
X3208870Y12150862D01*
X3191929Y11881754D02*
G01*
X3200400Y11866377D01*
X3183470Y12165017D02*
G01*
X3191929Y12060621D01*
X3175000Y11958563D02*
G01*
X3183470Y12103577D01*
X3166529Y11933783D02*
G01*
X3175000Y11856008D01*
X3158070Y12171009D02*
G01*
X3166529Y12124946D01*
X3149600Y11894926D02*
G01*
X3158070Y12030776D01*
X3141129Y12010852D02*
G01*
X3149600Y11882777D01*
X3132670Y12137181D02*
G01*
X3141129Y12167237D01*
X3124200Y11857862D02*
G01*
X3132670Y11946143D01*
X3115729Y12096234D02*
G01*
X3124200Y11950984D01*
X3107270Y12061738D02*
G01*
X3115729Y12165162D01*
X3098800Y11869600D02*
G01*
X3107270Y11876918D01*
X3090329Y12159802D02*
G01*
X3098800Y12047275D01*
X3081870Y11962505D02*
G01*
X3090329Y12106300D01*
X3073400Y11939247D02*
G01*
X3081870Y11856770D01*
X3064929Y12167549D02*
G01*
X3073400Y12136841D01*
X3056470Y11878858D02*
G01*
X3064929Y12002815D01*
X3048000Y12048083D02*
G01*
X3056470Y11907936D01*
X3039529Y12101822D02*
G01*
X3048000Y12172838D01*
X3031070Y11858370D02*
G01*
X3039529Y11898609D01*
X3022600Y12145591D02*
G01*
X3031070Y12018645D01*
X3014129Y11983801D02*
G01*
X3022600Y12122838D01*
X3005670Y11926707D02*
G01*
X3014129Y11855587D01*
X2997200Y12169241D02*
G01*
X3005670Y12132624D01*
X2988729Y11878716D02*
G01*
X2997200Y12001860D01*
X2980270Y12055556D02*
G01*
X2988729Y11914304D01*
X2971800Y12088855D02*
G01*
X2980270Y12171448D01*
X2963329Y11864212D02*
G01*
X2971800Y11884019D01*
X2954870Y12159927D02*
G01*
X2963329Y12048909D01*
X2946400Y11948449D02*
G01*
X2954870Y12092378D01*
X2937929Y11966816D02*
G01*
X2946400Y11863821D01*
X2929470Y12150092D02*
G01*
X2937929Y12160567D01*
X2921000Y11857885D02*
G01*
X2929470Y11944423D01*
X2912529Y12114311D02*
G01*
X2921000Y11973793D01*
X2904070Y12018167D02*
G01*
X2912529Y12144623D01*
X2895600Y11908736D02*
G01*
X2904070Y11856156D01*
X2887129Y12171207D02*
G01*
X2895600Y12125957D01*
X2878670Y11878208D02*
G01*
X2887129Y11999732D01*
X2870200Y12067740D02*
G01*
X2878670Y11925510D01*
X2861729Y12066394D02*
G01*
X2870200Y12165881D01*
X2853270Y11879894D02*
G01*
X2861729Y11866382D01*
X2844800Y12172068D02*
G01*
X2853270Y12094486D01*
X2836329Y11899981D02*
G01*
X2844800Y12034992D01*
X2827870Y12037367D02*
G01*
X2836329Y11901723D01*
X2819400Y12090951D02*
G01*
X2827870Y12171547D01*
X2810929Y11869290D02*
G01*
X2819400Y11875808D01*
X2802470Y12169147D02*
G01*
X2810929Y12078853D01*
X2794000Y11909872D02*
G01*
X2802470Y12047971D01*
X2785529Y12028177D02*
G01*
X2794000Y11895701D01*
X2777070Y12095167D02*
G01*
X2785529Y12172068D01*
X2768600Y11869099D02*
G01*
X2777070Y11875803D01*
X2760129Y12169947D02*
G01*
X2768600Y12082828D01*
X2751670Y11903788D02*
G01*
X2760129Y12039376D01*
X2743200Y12040692D02*
G01*
X2751670Y11904817D01*
X2734729Y12080143D02*
G01*
X2743200Y12169284D01*
X2726270Y11879013D02*
G01*
X2734729Y11866463D01*
X2717800Y12172863D02*
G01*
X2726270Y12105345D01*
X2709329Y11884360D02*
G01*
X2717800Y12009053D01*
X2700870Y12073575D02*
G01*
X2709329Y11932406D01*
X2692400Y12043501D02*
G01*
X2700870Y12156368D01*
X2683929Y11906082D02*
G01*
X2692400Y11856267D01*
X2675470Y12167473D02*
G01*
X2683929Y12139673D01*
X2667000Y11862054D02*
G01*
X2675470Y11958396D01*
X2658529Y12120506D02*
G01*
X2667000Y11984575D01*
X2650070Y11983981D02*
G01*
X2658529Y12119980D01*
X2641600Y11960453D02*
G01*
X2650070Y11862793D01*
X2633129Y12136252D02*
G01*
X2641600Y12168926D01*
X2624670Y11857669D02*
G01*
X2633129Y11898188D01*
X2616200Y12163132D02*
G01*
X2624670Y12060981D01*
X2607729Y11911744D02*
G01*
X2616200Y12048220D01*
X2599270Y12044337D02*
G01*
X2607729Y11908830D01*
X2590800Y12063270D02*
G01*
X2599270Y12163846D01*
X2582329Y11898746D02*
G01*
X2590800Y11857454D01*
X2573870Y12167549D02*
G01*
X2582329Y12140270D01*
X2565400Y11859554D02*
G01*
X2573870Y11948213D01*
X2556929Y12134342D02*
G01*
X2565400Y12005457D01*
X2548470Y11955449D02*
G01*
X2556929Y12094956D01*
X2540000Y11999142D02*
G01*
X2548470Y11880011D01*
X2531529Y12099056D02*
G01*
X2540000Y12172231D01*
X2523070Y11878289D02*
G01*
X2531529Y11866059D01*
X2514600Y12172386D02*
G01*
X2523070Y12121840D01*
X2506129Y11866145D02*
G01*
X2514600Y11968459D01*
X2497670Y12122777D02*
G01*
X2506129Y11989612D01*
X2489200Y11965800D02*
G01*
X2497670Y12103595D01*
X2480729Y11993859D02*
G01*
X2489200Y11877631D01*
X2472270Y12098759D02*
G01*
X2480729Y12172119D01*
X2463800Y11881487D02*
G01*
X2472270Y11863758D01*
X2455329Y12170978D02*
G01*
X2463800Y12130638D01*
X2446870Y11860801D02*
G01*
X2455329Y11951500D01*
X2438400Y12138291D02*
G01*
X2446870Y12013189D01*
X2429929Y11939587D02*
G01*
X2438400Y12078022D01*
X2421470Y12027860D02*
G01*
X2429929Y11898553D01*
X2413000Y12062922D02*
G01*
X2421470Y12162929D01*
X2404529Y11911309D02*
G01*
X2413000Y11855549D01*
X2396070Y12155195D02*
G01*
X2404529Y12158979D01*
X2387600Y11856151D02*
G01*
X2396070Y11904190D01*
X2379129Y12166587D02*
G01*
X2387600Y12074258D01*
X2370670Y11888551D02*
G01*
X2379129Y12011774D01*
X2362200Y12096457D02*
G01*
X2370670Y11959394D01*
X2353729Y11985612D02*
G01*
X2362200Y12118329D01*
X2345270Y11986140D02*
G01*
X2353729Y11874680D01*
X2336800Y12094672D02*
G01*
X2345270Y12171301D01*
X2328329Y11891782D02*
G01*
X2336800Y11858741D01*
X2319870Y12163549D02*
G01*
X2328329Y12149739D01*
X2311400Y11855450D02*
G01*
X2319870Y11913816D01*
X2302929Y12164484D02*
G01*
X2311400Y12068746D01*
X2294470Y11888576D02*
G01*
X2302929Y12010753D01*
X2286000Y12102256D02*
G01*
X2294470Y11966902D01*
X2277529Y11972198D02*
G01*
X2286000Y12106696D01*
X2269070Y12006628D02*
G01*
X2277529Y11886313D01*
X2260600Y12069886D02*
G01*
X2269070Y12164677D01*
X2252129Y11916321D02*
G01*
X2260600Y11855480D01*
X2243670Y12144758D02*
G01*
X2252129Y12166699D01*
X2235200Y11862953D02*
G01*
X2243670Y11881172D01*
X2226729Y12172924D02*
G01*
X2235200Y12116767D01*
X2218270Y11861218D02*
G01*
X2226729Y11950042D01*
X2209800Y12149297D02*
G01*
X2218270Y12035464D01*
X2201329Y11907149D02*
G01*
X2209800Y12036778D01*
X2192870Y12085655D02*
G01*
X2201329Y11950179D01*
X2184400Y11982922D02*
G01*
X2192870Y12114372D01*
X2175929Y12003793D02*
G01*
X2184400Y11885439D01*
X2167470Y12064883D02*
G01*
X2175929Y12162419D01*
X2159000Y11927248D02*
G01*
X2167470Y11856448D01*
X2150529Y12131327D02*
G01*
X2159000Y12171461D01*
X2142070Y11874530D02*
G01*
X2150529Y11866885D01*
X2133600Y12167839D02*
G01*
X2142070Y12143209D01*
X2125129Y11855475D02*
G01*
X2133600Y11910354D01*
X2116670Y12169327D02*
G01*
X2125129Y12087771D01*
X2108200Y11870674D02*
G01*
X2116670Y11974121D01*
X2099729Y12139173D02*
G01*
X2108200Y12019452D01*
X2091270Y11913412D02*
G01*
X2099729Y12043326D01*
X2082800Y12086648D02*
G01*
X2091270Y11952721D01*
X2074329Y11972714D02*
G01*
X2082800Y12104669D01*
X2065870Y12023613D02*
G01*
X2074329Y11899155D01*
X2057400Y12036554D02*
G01*
X2065870Y12148665D01*
X2048929Y11961632D02*
G01*
X2057400Y11865912D01*
X2040470Y12094349D02*
G01*
X2048929Y12170549D01*
X2032000Y11909920D02*
G01*
X2040470Y11855462D01*
X2023529Y12138515D02*
G01*
X2032000Y12169955D01*
X2015070Y11874319D02*
G01*
X2023529Y11866333D01*
X2006600Y12164974D02*
G01*
X2015070Y12149881D01*
X1998129Y11857192D02*
G01*
X2006600Y11894324D01*
X1989670Y12172924D02*
G01*
X1998129Y12115391D01*
X1981200Y11857974D02*
G01*
X1989670Y11933844D01*
X1972729Y12164100D02*
G01*
X1981200Y12072292D01*
X1964270Y11873984D02*
G01*
X1972729Y11979120D01*
X1955800Y12141870D02*
G01*
X1964270Y12026143D01*
X1947329Y11901406D02*
G01*
X1955800Y12024977D01*
X1938870Y12110318D02*
G01*
X1947329Y11981581D01*
X1930400Y11936041D02*
G01*
X1938870Y12067392D01*
X1921929Y12073582D02*
G01*
X1930400Y11941987D01*
X1913470Y11973966D02*
G01*
X1921929Y12103638D01*
X1905000Y12035297D02*
G01*
X1913470Y11909450D01*
X1896529Y12011893D02*
G01*
X1905000Y12132251D01*
X1888070Y11998337D02*
G01*
X1896529Y11884868D01*
X1879600Y12047369D02*
G01*
X1888070Y12152820D01*
X1871129Y11964746D02*
G01*
X1879600Y11868205D01*
X1862670Y12078771D02*
G01*
X1871129Y12165751D01*
X1854200Y11935741D02*
G01*
X1862670Y11858779D01*
X1845729Y12105251D02*
G01*
X1854200Y12171951D01*
X1837270Y11911855D02*
G01*
X1845729Y11855493D01*
X1828800Y12126559D02*
G01*
X1837270Y12172652D01*
X1820329Y11893067D02*
G01*
X1828800Y11857055D01*
X1811870Y12142924D02*
G01*
X1820329Y12169155D01*
X1803400Y11879000D02*
G01*
X1811870Y11862153D01*
X1794929Y12154855D02*
G01*
X1803400Y12162762D01*
X1786470Y11869031D02*
G01*
X1794929Y11869564D01*
X1778000Y12163041D02*
G01*
X1786470Y12154606D01*
X1769529Y11862432D02*
G01*
X1778000Y11878208D01*
X1761070Y12168243D02*
G01*
X1769529Y12145700D01*
X1752600Y11858444D02*
G01*
X1761070Y11887182D01*
X1744129Y12171189D02*
G01*
X1752600Y12136841D01*
X1735670Y11856361D02*
G01*
X1744129Y11895769D01*
X1727200Y12172566D02*
G01*
X1735670Y12128660D01*
X1718729Y11855549D02*
G01*
X1727200Y11903415D01*
X1710270Y12172950D02*
G01*
X1718729Y12121634D01*
X1701800Y11855480D02*
G01*
X1710270Y11909729D01*
X1693329Y12172807D02*
G01*
X1701800Y12116109D01*
X1684870Y11855742D02*
G01*
X1693329Y11914423D01*
X1676400Y12172502D02*
G01*
X1684870Y12112302D01*
X1667929Y11856031D02*
G01*
X1676400Y11917311D01*
X1659470Y12172274D02*
G01*
X1667929Y12110349D01*
X1651000Y11856176D02*
G01*
X1659470Y11918317D01*
X1642529Y12172236D02*
G01*
X1651000Y12110305D01*
X1634070Y11856095D02*
G01*
X1642529Y11917400D01*
X1625600Y12172416D02*
G01*
X1634070Y12112165D01*
X1617129Y11855833D02*
G01*
X1625600Y11914614D01*
X1608670Y12172721D02*
G01*
X1617129Y12115850D01*
X1600200Y11855543D02*
G01*
X1608670Y11910070D01*
X1591729Y12172937D02*
G01*
X1600200Y12121200D01*
X1583270Y11855467D02*
G01*
X1591729Y11903961D01*
X1574800Y12172777D02*
G01*
X1583270Y12127992D01*
X1566329Y11855970D02*
G01*
X1574800Y11896570D01*
X1557870Y12171827D02*
G01*
X1566329Y12135891D01*
X1549400Y11857497D02*
G01*
X1557870Y11888279D01*
X1540929Y12169594D02*
G01*
X1549400Y12144456D01*
X1532470Y11860578D02*
G01*
X1540929Y11879585D01*
X1524000Y12165507D02*
G01*
X1532470Y12153125D01*
X1515529Y11865818D02*
G01*
X1524000Y11871119D01*
X1507070Y12158946D02*
G01*
X1515529Y12161187D01*
X1498600Y11873854D02*
G01*
X1507070Y11863666D01*
X1490129Y12149274D02*
G01*
X1498600Y12167796D01*
X1481670Y11885320D02*
G01*
X1490129Y11858134D01*
X1473200Y12135891D02*
G01*
X1481670Y12172000D01*
X1464729Y11900755D02*
G01*
X1473200Y11855523D01*
X1456270Y12118299D02*
G01*
X1464729Y12172744D01*
X1447800Y11920567D02*
G01*
X1456270Y11856925D01*
X1439329Y12096229D02*
G01*
X1447800Y12168944D01*
X1430870Y11944901D02*
G01*
X1439329Y11863382D01*
X1422400Y12069676D02*
G01*
X1430870Y12159592D01*
X1413929Y11973570D02*
G01*
X1422400Y11875833D01*
X1405470Y12039061D02*
G01*
X1413929Y12143872D01*
X1397000Y12005909D02*
G01*
X1405470Y11894944D01*
X1388529Y12005294D02*
G01*
X1397000Y12121306D01*
X1380070Y12040727D02*
G01*
X1388529Y11920959D01*
X1371600Y11969866D02*
G01*
X1380070Y12091918D01*
X1363129Y12076236D02*
G01*
X1371600Y11953534D01*
X1354670Y11934863D02*
G01*
X1363129Y12056435D01*
X1346200Y12110077D02*
G01*
X1354670Y11991553D01*
X1337729Y11902907D02*
G01*
X1346200Y12016369D01*
X1329270Y12139401D02*
G01*
X1337729Y12033064D01*
X1320800Y11876999D02*
G01*
X1329270Y11974134D01*
X1312329Y12161098D02*
G01*
X1320800Y12075213D01*
X1303870Y11860281D02*
G01*
X1312329Y11932983D01*
X1295400Y12172119D02*
G01*
X1303870Y12114380D01*
X1286929Y11855617D02*
G01*
X1295400Y11896841D01*
X1278470Y12169886D02*
G01*
X1286929Y12146414D01*
X1270000Y11865142D02*
G01*
X1278470Y11869973D01*
X1261529Y12152833D02*
G01*
X1270000Y12167095D01*
X1253070Y11889742D02*
G01*
X1261529Y11856417D01*
X1244600Y12120902D02*
G01*
X1253070Y12172713D01*
X1236129Y11928535D02*
G01*
X1244600Y11859369D01*
X1227670Y12075975D02*
G01*
X1236129Y12160788D01*
X1219200Y11978573D02*
G01*
X1227670Y11880410D01*
X1210729Y12022107D02*
G01*
X1219200Y12130793D01*
X1202270Y12034738D02*
G01*
X1210729Y11918856D01*
X1193800Y11965409D02*
G01*
X1202270Y12084743D01*
X1185329Y12090046D02*
G01*
X1193800Y11971294D01*
X1176870Y11913524D02*
G01*
X1185329Y12027494D01*
X1168400Y12136432D02*
G01*
X1176870Y12031477D01*
X1159929Y11874667D02*
G01*
X1168400Y11966531D01*
X1151470Y12165893D02*
G01*
X1159929Y12090852D01*
X1143000Y11856219D02*
G01*
X1151470Y11911223D01*
X1134529Y12172068D02*
G01*
X1143000Y12139612D01*
X1126070Y11863125D02*
G01*
X1134529Y11871398D01*
X1117600Y12151804D02*
G01*
X1126070Y12168355D01*
X1109129Y11896407D02*
G01*
X1117600Y11855510D01*
X1100670Y12106485D02*
G01*
X1109129Y12170110D01*
X1092200Y11952119D02*
G01*
X1100670Y11868541D01*
X1083729Y12042663D02*
G01*
X1092200Y12142327D01*
X1075270Y12021200D02*
G01*
X1083729Y11910268D01*
X1066800Y11971647D02*
G01*
X1075270Y12088274D01*
X1058329Y12090516D02*
G01*
X1066800Y11974276D01*
X1049870Y11907807D02*
G01*
X1058329Y12017400D01*
X1041400Y12145175D02*
G01*
X1049870Y12048337D01*
X1032929Y11865731D02*
G01*
X1041400Y11944225D01*
X1024470Y12171796D02*
G01*
X1032929Y12116351D01*
X1016000Y11856666D02*
G01*
X1024470Y11885594D01*
X1007529Y12162160D02*
G01*
X1016000Y12161725D01*
X999070Y11885053D02*
G01*
X1007529Y11856732D01*
X990600Y12116178D02*
G01*
X999070Y12171685D01*
X982129Y11946247D02*
G01*
X990600Y11866933D01*
X973670Y12043290D02*
G01*
X982129Y12141360D01*
X965200Y12026323D02*
G01*
X973670Y11915973D01*
X956729Y11961279D02*
G01*
X965200Y12076396D01*
X948270Y12104626D02*
G01*
X956729Y11992780D01*
X939800Y11892371D02*
G01*
X948270Y11992899D01*
X931329Y12158860D02*
G01*
X939800Y12077067D01*
X922870Y11857243D02*
G01*
X931329Y11914080D01*
X914400Y12171685D02*
G01*
X922870Y12144268D01*
X905929Y11868335D02*
G01*
X914400Y11864019D01*
X897470Y12136871D02*
G01*
X905929Y12172777D01*
X889000Y11924753D02*
G01*
X897470Y11859950D01*
X880529Y12062840D02*
G01*
X889000Y12151408D01*
X872070Y12010753D02*
G01*
X880529Y11905648D01*
X863600Y11971771D02*
G01*
X872070Y12084608D01*
X855129Y12099241D02*
G01*
X863600Y11988347D01*
X846670Y11893618D02*
G01*
X855129Y11992848D01*
X838200Y12159896D02*
G01*
X846670Y12081222D01*
X829729Y11856344D02*
G01*
X838200Y11907235D01*
X821270Y12169825D02*
G01*
X829729Y12151530D01*
X812800Y11875355D02*
G01*
X821270Y11859176D01*
X804329Y12122980D02*
G01*
X812800Y12172248D01*
X795870Y11946191D02*
G01*
X804329Y11868429D01*
X787400Y12034484D02*
G01*
X795870Y12133237D01*
X778929Y12044009D02*
G01*
X787400Y11933994D01*
X770470Y11936933D02*
G01*
X778929Y12047146D01*
X762000Y12131365D02*
G01*
X770470Y12032244D01*
X753529Y11869018D02*
G01*
X762000Y11946686D01*
X745070Y12172312D02*
G01*
X753529Y12124369D01*
X736600Y11859963D02*
G01*
X745070Y11872930D01*
X728129Y12147829D02*
G01*
X736600Y12171367D01*
X719670Y11915998D02*
G01*
X728129Y11858414D01*
X711200Y12065805D02*
G01*
X719670Y12151133D01*
X702729Y12015322D02*
G01*
X711200Y11911812D01*
X694270Y11960138D02*
G01*
X702729Y12070029D01*
X685800Y12115279D02*
G01*
X694270Y12011743D01*
X677329Y11877680D02*
G01*
X685800Y11962655D01*
X668870Y12170140D02*
G01*
X677329Y12113902D01*
X660400Y11857502D02*
G01*
X668870Y11878134D01*
X651929Y12152541D02*
G01*
X660400Y12170140D01*
X643470Y11911408D02*
G01*
X651929Y11857652D01*
X635000Y12068380D02*
G01*
X643470Y12151654D01*
X626529Y12015774D02*
G01*
X635000Y11913455D01*
X618070Y11956752D02*
G01*
X626529Y12065030D01*
X609600Y12120394D02*
G01*
X618070Y12020196D01*
X601129Y11872912D02*
G01*
X609600Y11951853D01*
X592670Y12172050D02*
G01*
X601129Y12124885D01*
X584200Y11860875D02*
G01*
X592670Y11869849D01*
X575729Y12142185D02*
G01*
X584200Y12172688D01*
X567270Y11929244D02*
G01*
X575729Y11863369D01*
X558800Y12044121D02*
G01*
X567270Y12136287D01*
X550329Y12043790D02*
G01*
X558800Y11938223D01*
X541870Y11928977D02*
G01*
X550329Y12032995D01*
X533400Y12143127D02*
G01*
X541870Y12055581D01*
X524929Y11859988D02*
G01*
X533400Y11918360D01*
X516470Y12171276D02*
G01*
X524929Y12150664D01*
X508000Y11877433D02*
G01*
X516470Y11857179D01*
X499529Y12110156D02*
G01*
X508000Y12168304D01*
X491070Y11973694D02*
G01*
X499529Y11886369D01*
X482600Y11992830D02*
G01*
X491070Y12096061D01*
X474129Y12094448D02*
G01*
X482600Y11991169D01*
X465670Y11887243D02*
G01*
X474129Y11974542D01*
X457200Y12168200D02*
G01*
X465670Y12110590D01*
X448729Y11857365D02*
G01*
X457200Y11876156D01*
X440270Y12148870D02*
G01*
X448729Y12171944D01*
X431800Y11923458D02*
G01*
X440270Y11862216D01*
X423329Y12046087D02*
G01*
X431800Y12135576D01*
X414870Y12046643D02*
G01*
X423329Y11943567D01*
X406400Y11922516D02*
G01*
X414870Y12022132D01*
X397929Y12150079D02*
G01*
X406400Y12070562D01*
X389470Y11856788D02*
G01*
X397929Y11902820D01*
X381000Y12166531D02*
G01*
X389470Y12161824D01*
X372529Y11893016D02*
G01*
X381000Y11855587D01*
X364070Y12083211D02*
G01*
X372529Y12156330D01*
X355600Y12009561D02*
G01*
X364070Y11913468D01*
X347129Y11953410D02*
G01*
X355600Y12055617D01*
X338670Y12129932D02*
G01*
X347129Y12039686D01*
X330200Y11863925D02*
G01*
X338670Y11926125D01*
X321729Y12172175D02*
G01*
X330200Y12149193D01*
X313270Y11877073D02*
G01*
X321729Y11856666D01*
X304800Y12105419D02*
G01*
X313270Y12165477D01*
X296329Y11985797D02*
G01*
X304800Y11897133D01*
X287870Y11974306D02*
G01*
X296329Y12075152D01*
X279400Y12115192D02*
G01*
X287870Y12020976D01*
X270929Y11870852D02*
G01*
X279400Y11940740D01*
X262470Y12172950D02*
G01*
X270929Y12140605D01*
X254000Y11870220D02*
G01*
X262470Y11858879D01*
X245529Y12115756D02*
G01*
X254000Y12168591D01*
X237070Y11974809D02*
G01*
X245529Y11890722D01*
X228600Y11983565D02*
G01*
X237070Y12082531D01*
X220129Y12109084D02*
G01*
X228600Y12014634D01*
X211670Y11873550D02*
G01*
X220129Y11944870D01*
X203200Y12172863D02*
G01*
X211670Y12138817D01*
X194729Y11869122D02*
G01*
X203200Y11859133D01*
X186270Y12116506D02*
G01*
X194729Y12168484D01*
X177800Y11975467D02*
G01*
X186270Y11892061D01*
X169329Y11981289D02*
G01*
X177800Y12079127D01*
X160870Y12112221D02*
G01*
X169329Y12020016D01*
X152400Y11871058D02*
G01*
X160870Y11938637D01*
X143929Y12172937D02*
G01*
X152400Y12143958D01*
X135470Y11872899D02*
G01*
X143929Y11857273D01*
X127000Y12108400D02*
G01*
X135470Y12165291D01*
X118529Y11987082D02*
G01*
X127000Y11900979D01*
X110070Y11968304D02*
G01*
X118529Y12065304D01*
X101600Y12123521D02*
G01*
X110070Y12036331D01*
X93129Y11864726D02*
G01*
X101600Y11923415D01*
X84670Y12171702D02*
G01*
X93129Y12154141D01*
X76200Y11882777D02*
G01*
X84670Y11855480D01*
X67729Y12090834D02*
G01*
X76200Y12156968D01*
X59270Y12009282D02*
G01*
X67729Y11918863D01*
X50800Y11946148D02*
G01*
X59270Y12040877D01*
X42329Y12140331D02*
G01*
X50800Y12062284D01*
X33870Y11857906D02*
G01*
X42329Y11901934D01*
X25400Y12165787D02*
G01*
X33870Y12165558D01*
X16929Y11901393D02*
G01*
X25400Y11857842D01*
X8470Y12062668D02*
G01*
X16929Y12140072D01*
X0Y12041205D02*
G01*
X8470Y11947593D01*
D11*
G01*
X13487400Y330200D03*
G01*
X736600Y330200D03*
G01*
X736600Y12573000D03*
G01*
X13487400Y12573000D03*
D12*
G75*
G01
X13307873Y9260535D02*
G03X13307873Y9260535I-899998J0D01*
G75*
G01
X13307873Y6972300D02*
G03X13307873Y6972300I-899998J0D01*
G75*
G01
X13307873Y4703039D02*
G03X13307873Y4703039I-899998J0D01*
M02*
