G04 Layer: BottomSilkscreenLayer*
G04 EasyEDA v6.5.29, 2023-07-16 15:11:24*
G04 de9d243bdfbd4483b0fbc0b5f9d5b24a,5a6b42c53f6a479593ecc07194224c93,10*
G04 Gerber Generator version 0.2*
G04 Scale: 100 percent, Rotated: No, Reflected: No *
G04 Dimensions in millimeters *
G04 leading zeros omitted , absolute positions ,4 integer and 5 decimal *
%FSLAX45Y45*%
%MOMM*%

%ADD10C,0.2032*%
%ADD11C,0.2030*%

%LPD*%
D10*
X7810500Y9823889D02*
G01*
X7810500Y9709345D01*
X7810500Y9823889D02*
G01*
X7766862Y9709345D01*
X7723228Y9823889D02*
G01*
X7766862Y9709345D01*
X7723228Y9823889D02*
G01*
X7723228Y9709345D01*
X7589045Y9845708D02*
G01*
X7687228Y9671164D01*
X7553045Y9823889D02*
G01*
X7553045Y9709345D01*
X7553045Y9823889D02*
G01*
X7482136Y9823889D01*
X7553045Y9769345D02*
G01*
X7509410Y9769345D01*
X7553045Y9709345D02*
G01*
X7482136Y9709345D01*
X7285774Y9807526D02*
G01*
X7296683Y9818436D01*
X7313046Y9823889D01*
X7334864Y9823889D01*
X7351227Y9818436D01*
X7362136Y9807526D01*
X7362136Y9796617D01*
X7356683Y9785708D01*
X7351227Y9780254D01*
X7340318Y9774799D01*
X7307592Y9763889D01*
X7296683Y9758436D01*
X7291227Y9752982D01*
X7285774Y9742073D01*
X7285774Y9725708D01*
X7296683Y9714799D01*
X7313046Y9709345D01*
X7334864Y9709345D01*
X7351227Y9714799D01*
X7362136Y9725708D01*
X7217046Y9823889D02*
G01*
X7227956Y9818436D01*
X7238865Y9807526D01*
X7244318Y9796617D01*
X7249774Y9780254D01*
X7249774Y9752982D01*
X7244318Y9736617D01*
X7238865Y9725708D01*
X7227956Y9714799D01*
X7217046Y9709345D01*
X7195228Y9709345D01*
X7184318Y9714799D01*
X7173409Y9725708D01*
X7167956Y9736617D01*
X7162500Y9752982D01*
X7162500Y9780254D01*
X7167956Y9796617D01*
X7173409Y9807526D01*
X7184318Y9818436D01*
X7195228Y9823889D01*
X7217046Y9823889D01*
X7126500Y9823889D02*
G01*
X7126500Y9742073D01*
X7121047Y9725708D01*
X7110138Y9714799D01*
X7093772Y9709345D01*
X7082866Y9709345D01*
X7066500Y9714799D01*
X7055591Y9725708D01*
X7050138Y9742073D01*
X7050138Y9823889D01*
X7014138Y9823889D02*
G01*
X7014138Y9709345D01*
X7014138Y9823889D02*
G01*
X6965048Y9823889D01*
X6948683Y9818436D01*
X6943229Y9812982D01*
X6937773Y9802073D01*
X6937773Y9791164D01*
X6943229Y9780254D01*
X6948683Y9774799D01*
X6965048Y9769345D01*
X7014138Y9769345D01*
X6975955Y9769345D02*
G01*
X6937773Y9709345D01*
X6819955Y9796617D02*
G01*
X6825411Y9807526D01*
X6836321Y9818436D01*
X6847230Y9823889D01*
X6869046Y9823889D01*
X6879955Y9818436D01*
X6890865Y9807526D01*
X6896320Y9796617D01*
X6901774Y9780254D01*
X6901774Y9752982D01*
X6896320Y9736617D01*
X6890865Y9725708D01*
X6879955Y9714799D01*
X6869046Y9709345D01*
X6847230Y9709345D01*
X6836321Y9714799D01*
X6825411Y9725708D01*
X6819955Y9736617D01*
X6783956Y9823889D02*
G01*
X6783956Y9709345D01*
X6783956Y9823889D02*
G01*
X6713047Y9823889D01*
X6783956Y9769345D02*
G01*
X6740319Y9769345D01*
X6783956Y9709345D02*
G01*
X6713047Y9709345D01*
X6516684Y9807526D02*
G01*
X6527594Y9818436D01*
X6543956Y9823889D01*
X6565775Y9823889D01*
X6582138Y9818436D01*
X6593047Y9807526D01*
X6593047Y9796617D01*
X6587594Y9785708D01*
X6582138Y9780254D01*
X6571228Y9774799D01*
X6538503Y9763889D01*
X6527594Y9758436D01*
X6522138Y9752982D01*
X6516684Y9742073D01*
X6516684Y9725708D01*
X6527594Y9714799D01*
X6543956Y9709345D01*
X6565775Y9709345D01*
X6582138Y9714799D01*
X6593047Y9725708D01*
X6480685Y9823889D02*
G01*
X6480685Y9709345D01*
X6480685Y9823889D02*
G01*
X6409776Y9823889D01*
X6480685Y9769345D02*
G01*
X6437048Y9769345D01*
X6480685Y9709345D02*
G01*
X6409776Y9709345D01*
X6373774Y9823889D02*
G01*
X6373774Y9709345D01*
X6373774Y9709345D02*
G01*
X6308321Y9709345D01*
X6272321Y9823889D02*
G01*
X6272321Y9709345D01*
X6272321Y9823889D02*
G01*
X6201412Y9823889D01*
X6272321Y9769345D02*
G01*
X6228684Y9769345D01*
X6272321Y9709345D02*
G01*
X6201412Y9709345D01*
X6083594Y9796617D02*
G01*
X6089048Y9807526D01*
X6099957Y9818436D01*
X6110866Y9823889D01*
X6132685Y9823889D01*
X6143594Y9818436D01*
X6154503Y9807526D01*
X6159957Y9796617D01*
X6165413Y9780254D01*
X6165413Y9752982D01*
X6159957Y9736617D01*
X6154503Y9725708D01*
X6143594Y9714799D01*
X6132685Y9709345D01*
X6110866Y9709345D01*
X6099957Y9714799D01*
X6089048Y9725708D01*
X6083594Y9736617D01*
X6009413Y9823889D02*
G01*
X6009413Y9709345D01*
X6047595Y9823889D02*
G01*
X5971230Y9823889D01*
X5902502Y9823889D02*
G01*
X5913412Y9818436D01*
X5924321Y9807526D01*
X5929777Y9796617D01*
X5935230Y9780254D01*
X5935230Y9752982D01*
X5929777Y9736617D01*
X5924321Y9725708D01*
X5913412Y9714799D01*
X5902502Y9709345D01*
X5880686Y9709345D01*
X5869777Y9714799D01*
X5858868Y9725708D01*
X5853412Y9736617D01*
X5847958Y9752982D01*
X5847958Y9780254D01*
X5853412Y9796617D01*
X5858868Y9807526D01*
X5869777Y9818436D01*
X5880686Y9823889D01*
X5902502Y9823889D01*
X5811959Y9823889D02*
G01*
X5811959Y9709345D01*
X5811959Y9823889D02*
G01*
X5762868Y9823889D01*
X5746503Y9818436D01*
X5741050Y9812982D01*
X5735594Y9802073D01*
X5735594Y9791164D01*
X5741050Y9780254D01*
X5746503Y9774799D01*
X5762868Y9769345D01*
X5811959Y9769345D01*
X5773775Y9769345D02*
G01*
X5735594Y9709345D01*
X5615594Y9823889D02*
G01*
X5615594Y9709345D01*
X5615594Y9823889D02*
G01*
X5566503Y9823889D01*
X5550141Y9818436D01*
X5544685Y9812982D01*
X5539231Y9802073D01*
X5539231Y9791164D01*
X5544685Y9780254D01*
X5550141Y9774799D01*
X5566503Y9769345D01*
X5615594Y9769345D02*
G01*
X5566503Y9769345D01*
X5550141Y9763889D01*
X5544685Y9758436D01*
X5539231Y9747526D01*
X5539231Y9731164D01*
X5544685Y9720254D01*
X5550141Y9714799D01*
X5566503Y9709345D01*
X5615594Y9709345D01*
X5503232Y9823889D02*
G01*
X5503232Y9742073D01*
X5497776Y9725708D01*
X5486867Y9714799D01*
X5470504Y9709345D01*
X5459595Y9709345D01*
X5443232Y9714799D01*
X5432323Y9725708D01*
X5426867Y9742073D01*
X5426867Y9823889D01*
X5352686Y9823889D02*
G01*
X5352686Y9709345D01*
X5390868Y9823889D02*
G01*
X5314505Y9823889D01*
X5240322Y9823889D02*
G01*
X5240322Y9709345D01*
X5278506Y9823889D02*
G01*
X5202140Y9823889D01*
X5133413Y9823889D02*
G01*
X5144322Y9818436D01*
X5155232Y9807526D01*
X5160688Y9796617D01*
X5166141Y9780254D01*
X5166141Y9752982D01*
X5160688Y9736617D01*
X5155232Y9725708D01*
X5144322Y9714799D01*
X5133413Y9709345D01*
X5111595Y9709345D01*
X5100688Y9714799D01*
X5089779Y9725708D01*
X5084323Y9736617D01*
X5078869Y9752982D01*
X5078869Y9780254D01*
X5084323Y9796617D01*
X5089779Y9807526D01*
X5100688Y9818436D01*
X5111595Y9823889D01*
X5133413Y9823889D01*
X5042870Y9823889D02*
G01*
X5042870Y9709345D01*
X5042870Y9823889D02*
G01*
X4966505Y9709345D01*
X4966505Y9823889D02*
G01*
X4966505Y9709345D01*
X4846505Y9823889D02*
G01*
X4846505Y9709345D01*
X4846505Y9823889D02*
G01*
X4797414Y9823889D01*
X4781052Y9818436D01*
X4775596Y9812982D01*
X4770142Y9802073D01*
X4770142Y9791164D01*
X4775596Y9780254D01*
X4781052Y9774799D01*
X4797414Y9769345D01*
X4846505Y9769345D02*
G01*
X4797414Y9769345D01*
X4781052Y9763889D01*
X4775596Y9758436D01*
X4770142Y9747526D01*
X4770142Y9731164D01*
X4775596Y9720254D01*
X4781052Y9714799D01*
X4797414Y9709345D01*
X4846505Y9709345D01*
X4701415Y9823889D02*
G01*
X4712324Y9818436D01*
X4723234Y9807526D01*
X4728687Y9796617D01*
X4734143Y9780254D01*
X4734143Y9752982D01*
X4728687Y9736617D01*
X4723234Y9725708D01*
X4712324Y9714799D01*
X4701415Y9709345D01*
X4679596Y9709345D01*
X4668687Y9714799D01*
X4657778Y9725708D01*
X4652324Y9736617D01*
X4646869Y9752982D01*
X4646869Y9780254D01*
X4652324Y9796617D01*
X4657778Y9807526D01*
X4668687Y9818436D01*
X4679596Y9823889D01*
X4701415Y9823889D01*
X4567234Y9823889D02*
G01*
X4610869Y9709345D01*
X4567234Y9823889D02*
G01*
X4523597Y9709345D01*
X4594506Y9747526D02*
G01*
X4539960Y9747526D01*
X4487598Y9823889D02*
G01*
X4487598Y9709345D01*
X4487598Y9823889D02*
G01*
X4438507Y9823889D01*
X4422142Y9818436D01*
X4416689Y9812982D01*
X4411233Y9802073D01*
X4411233Y9791164D01*
X4416689Y9780254D01*
X4422142Y9774799D01*
X4438507Y9769345D01*
X4487598Y9769345D01*
X4449417Y9769345D02*
G01*
X4411233Y9709345D01*
X4375233Y9823889D02*
G01*
X4375233Y9709345D01*
X4375233Y9823889D02*
G01*
X4337052Y9823889D01*
X4320689Y9818436D01*
X4309780Y9807526D01*
X4304324Y9796617D01*
X4298871Y9780254D01*
X4298871Y9752982D01*
X4304324Y9736617D01*
X4309780Y9725708D01*
X4320689Y9714799D01*
X4337052Y9709345D01*
X4375233Y9709345D01*
X4102506Y9807526D02*
G01*
X4113415Y9818436D01*
X4129780Y9823889D01*
X4151596Y9823889D01*
X4167962Y9818436D01*
X4178871Y9807526D01*
X4178871Y9796617D01*
X4173415Y9785708D01*
X4167962Y9780254D01*
X4157052Y9774799D01*
X4124325Y9763889D01*
X4113415Y9758436D01*
X4107962Y9752982D01*
X4102506Y9742073D01*
X4102506Y9725708D01*
X4113415Y9714799D01*
X4129780Y9709345D01*
X4151596Y9709345D01*
X4167962Y9714799D01*
X4178871Y9725708D01*
X4028325Y9823889D02*
G01*
X4028325Y9709345D01*
X4066506Y9823889D02*
G01*
X3990144Y9823889D01*
X3910507Y9823889D02*
G01*
X3954145Y9709345D01*
X3910507Y9823889D02*
G01*
X3866870Y9709345D01*
X3937779Y9747526D02*
G01*
X3883235Y9747526D01*
X3830871Y9823889D02*
G01*
X3830871Y9709345D01*
X3830871Y9823889D02*
G01*
X3754508Y9709345D01*
X3754508Y9823889D02*
G01*
X3754508Y9709345D01*
X3718509Y9823889D02*
G01*
X3718509Y9709345D01*
X3718509Y9823889D02*
G01*
X3680325Y9823889D01*
X3663962Y9818436D01*
X3653053Y9807526D01*
X3647600Y9796617D01*
X3642144Y9780254D01*
X3642144Y9752982D01*
X3647600Y9736617D01*
X3653053Y9725708D01*
X3663962Y9714799D01*
X3680325Y9709345D01*
X3718509Y9709345D01*
X3573416Y9823889D02*
G01*
X3584326Y9818436D01*
X3595235Y9807526D01*
X3600691Y9796617D01*
X3606144Y9780254D01*
X3606144Y9752982D01*
X3600691Y9736617D01*
X3595235Y9725708D01*
X3584326Y9714799D01*
X3573416Y9709345D01*
X3551598Y9709345D01*
X3540691Y9714799D01*
X3529782Y9725708D01*
X3524326Y9736617D01*
X3518872Y9752982D01*
X3518872Y9780254D01*
X3524326Y9796617D01*
X3529782Y9807526D01*
X3540691Y9818436D01*
X3551598Y9823889D01*
X3573416Y9823889D01*
X3482873Y9823889D02*
G01*
X3482873Y9709345D01*
X3482873Y9823889D02*
G01*
X3411964Y9823889D01*
X3482873Y9769345D02*
G01*
X3439236Y9769345D01*
X3375962Y9823889D02*
G01*
X3375962Y9709345D01*
X3375962Y9823889D02*
G01*
X3305055Y9823889D01*
X3375962Y9769345D02*
G01*
X3332327Y9769345D01*
X3185055Y9823889D02*
G01*
X3185055Y9709345D01*
X3185055Y9823889D02*
G01*
X3114146Y9823889D01*
X3185055Y9769345D02*
G01*
X3141418Y9769345D01*
X3078144Y9823889D02*
G01*
X3078144Y9709345D01*
X3042145Y9823889D02*
G01*
X2965782Y9709345D01*
X2965782Y9823889D02*
G01*
X3042145Y9709345D01*
X2891599Y9823889D02*
G01*
X2891599Y9709345D01*
X2929783Y9823889D02*
G01*
X2853418Y9823889D01*
X2817418Y9823889D02*
G01*
X2817418Y9742073D01*
X2811965Y9725708D01*
X2801056Y9714799D01*
X2784690Y9709345D01*
X2773781Y9709345D01*
X2757418Y9714799D01*
X2746509Y9725708D01*
X2741056Y9742073D01*
X2741056Y9823889D01*
X2705056Y9823889D02*
G01*
X2705056Y9709345D01*
X2705056Y9823889D02*
G01*
X2655963Y9823889D01*
X2639601Y9818436D01*
X2634147Y9812982D01*
X2628691Y9802073D01*
X2628691Y9791164D01*
X2634147Y9780254D01*
X2639601Y9774799D01*
X2655963Y9769345D01*
X2705056Y9769345D01*
X2666872Y9769345D02*
G01*
X2628691Y9709345D01*
X2592692Y9823889D02*
G01*
X2592692Y9709345D01*
X2592692Y9823889D02*
G01*
X2521783Y9823889D01*
X2592692Y9769345D02*
G01*
X2549055Y9769345D01*
X2592692Y9709345D02*
G01*
X2521783Y9709345D01*
X2401783Y9823889D02*
G01*
X2358146Y9709345D01*
X2314511Y9823889D02*
G01*
X2358146Y9709345D01*
X2245784Y9823889D02*
G01*
X2262146Y9818436D01*
X2273056Y9802073D01*
X2278512Y9774799D01*
X2278512Y9758436D01*
X2273056Y9731164D01*
X2262146Y9714799D01*
X2245784Y9709345D01*
X2234874Y9709345D01*
X2218512Y9714799D01*
X2207602Y9731164D01*
X2202146Y9758436D01*
X2202146Y9774799D01*
X2207602Y9802073D01*
X2218512Y9818436D01*
X2234874Y9823889D01*
X2245784Y9823889D01*
X2160694Y9736617D02*
G01*
X2166147Y9731164D01*
X2160694Y9725708D01*
X2155238Y9731164D01*
X2160694Y9736617D01*
X2113782Y9796617D02*
G01*
X2113782Y9802073D01*
X2108329Y9812982D01*
X2102876Y9818436D01*
X2091966Y9823889D01*
X2070148Y9823889D01*
X2059238Y9818436D01*
X2053783Y9812982D01*
X2048329Y9802073D01*
X2048329Y9791164D01*
X2053783Y9780254D01*
X2064692Y9763889D01*
X2119238Y9709345D01*
X2042876Y9709345D01*
X1922876Y9758436D02*
G01*
X1824692Y9758436D01*
X1704693Y9823889D02*
G01*
X1704693Y9709345D01*
X1704693Y9823889D02*
G01*
X1633783Y9823889D01*
X1704693Y9769345D02*
G01*
X1661058Y9769345D01*
X1597784Y9823889D02*
G01*
X1597784Y9709345D01*
X1597784Y9823889D02*
G01*
X1548693Y9823889D01*
X1532331Y9818436D01*
X1526875Y9812982D01*
X1521421Y9802073D01*
X1521421Y9791164D01*
X1526875Y9780254D01*
X1532331Y9774799D01*
X1548693Y9769345D01*
X1597784Y9769345D01*
X1559603Y9769345D02*
G01*
X1521421Y9709345D01*
X1452694Y9823889D02*
G01*
X1463603Y9818436D01*
X1474513Y9807526D01*
X1479966Y9796617D01*
X1485422Y9780254D01*
X1485422Y9752982D01*
X1479966Y9736617D01*
X1474513Y9725708D01*
X1463603Y9714799D01*
X1452694Y9709345D01*
X1430875Y9709345D01*
X1419966Y9714799D01*
X1409057Y9725708D01*
X1403604Y9736617D01*
X1398148Y9752982D01*
X1398148Y9780254D01*
X1403604Y9796617D01*
X1409057Y9807526D01*
X1419966Y9818436D01*
X1430875Y9823889D01*
X1452694Y9823889D01*
X1362148Y9823889D02*
G01*
X1362148Y9709345D01*
X1362148Y9823889D02*
G01*
X1285786Y9709345D01*
X1285786Y9823889D02*
G01*
X1285786Y9709345D01*
X1211602Y9823889D02*
G01*
X1211602Y9709345D01*
X1249786Y9823889D02*
G01*
X1173421Y9823889D01*
X5152390Y9188958D02*
G01*
X5152390Y9101581D01*
X5157977Y9085326D01*
X5163311Y9079737D01*
X5174234Y9074404D01*
X5185156Y9074404D01*
X5196077Y9079737D01*
X5201665Y9085326D01*
X5207000Y9101581D01*
X5207000Y9112504D01*
X5116575Y9188958D02*
G01*
X5116575Y9074404D01*
X5116575Y9074404D02*
G01*
X5051043Y9074404D01*
X4933188Y9161526D02*
G01*
X4938522Y9172447D01*
X4949443Y9183370D01*
X4960365Y9188958D01*
X4982209Y9188958D01*
X4993131Y9183370D01*
X5004054Y9172447D01*
X5009641Y9161526D01*
X5014975Y9145270D01*
X5014975Y9118092D01*
X5009641Y9101581D01*
X5004054Y9090660D01*
X4993131Y9079737D01*
X4982209Y9074404D01*
X4960365Y9074404D01*
X4949443Y9079737D01*
X4938522Y9090660D01*
X4933188Y9101581D01*
X4842763Y9188958D02*
G01*
X4842763Y9101581D01*
X4848097Y9085326D01*
X4853431Y9079737D01*
X4864354Y9074404D01*
X4875275Y9074404D01*
X4886197Y9079737D01*
X4891786Y9085326D01*
X4897120Y9101581D01*
X4897120Y9112504D01*
X4806695Y9188958D02*
G01*
X4806695Y9074404D01*
X4806695Y9074404D02*
G01*
X4741163Y9074404D01*
X4623308Y9161526D02*
G01*
X4628895Y9172447D01*
X4639818Y9183370D01*
X4650740Y9188958D01*
X4672329Y9188958D01*
X4683252Y9183370D01*
X4694174Y9172447D01*
X4699761Y9161526D01*
X4705095Y9145270D01*
X4705095Y9118092D01*
X4699761Y9101581D01*
X4694174Y9090660D01*
X4683252Y9079737D01*
X4672329Y9074404D01*
X4650740Y9074404D01*
X4639818Y9079737D01*
X4628895Y9090660D01*
X4623308Y9101581D01*
X4532884Y9188958D02*
G01*
X4532884Y9101581D01*
X4538218Y9085326D01*
X4543806Y9079737D01*
X4554727Y9074404D01*
X4565650Y9074404D01*
X4576572Y9079737D01*
X4581906Y9085326D01*
X4587240Y9101581D01*
X4587240Y9112504D01*
X4496815Y9188958D02*
G01*
X4496815Y9074404D01*
X4496815Y9074404D02*
G01*
X4431284Y9074404D01*
X4313427Y9161526D02*
G01*
X4319015Y9172447D01*
X4329938Y9183370D01*
X4340859Y9188958D01*
X4362704Y9188958D01*
X4373625Y9183370D01*
X4384547Y9172447D01*
X4389881Y9161526D01*
X4395470Y9145270D01*
X4395470Y9118092D01*
X4389881Y9101581D01*
X4384547Y9090660D01*
X4373625Y9079737D01*
X4362704Y9074404D01*
X4340859Y9074404D01*
X4329938Y9079737D01*
X4319015Y9090660D01*
X4313427Y9101581D01*
X4223004Y9188958D02*
G01*
X4223004Y9101581D01*
X4228338Y9085326D01*
X4233925Y9079737D01*
X4244847Y9074404D01*
X4255770Y9074404D01*
X4266691Y9079737D01*
X4272025Y9085326D01*
X4277613Y9101581D01*
X4277613Y9112504D01*
X4186936Y9188958D02*
G01*
X4186936Y9074404D01*
X4186936Y9074404D02*
G01*
X4121658Y9074404D01*
X4003802Y9161526D02*
G01*
X4009136Y9172447D01*
X4020058Y9183370D01*
X4030979Y9188958D01*
X4052824Y9188958D01*
X4063745Y9183370D01*
X4074668Y9172447D01*
X4080002Y9161526D01*
X4085590Y9145270D01*
X4085590Y9118092D01*
X4080002Y9101581D01*
X4074668Y9090660D01*
X4063745Y9079737D01*
X4052824Y9074404D01*
X4030979Y9074404D01*
X4020058Y9079737D01*
X4009136Y9090660D01*
X4003802Y9101581D01*
D11*
X6712681Y4729317D02*
G01*
X6718137Y4740226D01*
X6729046Y4751136D01*
X6739953Y4756589D01*
X6761772Y4756589D01*
X6772681Y4751136D01*
X6783590Y4740226D01*
X6789046Y4729317D01*
X6794500Y4712954D01*
X6794500Y4685682D01*
X6789046Y4669317D01*
X6783590Y4658408D01*
X6772681Y4647498D01*
X6761772Y4642045D01*
X6739953Y4642045D01*
X6729046Y4647498D01*
X6718137Y4658408D01*
X6712681Y4669317D01*
X6643954Y4756589D02*
G01*
X6654863Y4751136D01*
X6665772Y4740226D01*
X6671228Y4729317D01*
X6676682Y4712954D01*
X6676682Y4685682D01*
X6671228Y4669317D01*
X6665772Y4658408D01*
X6654863Y4647498D01*
X6643954Y4642045D01*
X6622135Y4642045D01*
X6611228Y4647498D01*
X6600319Y4658408D01*
X6594863Y4669317D01*
X6589410Y4685682D01*
X6589410Y4712954D01*
X6594863Y4729317D01*
X6600319Y4740226D01*
X6611228Y4751136D01*
X6622135Y4756589D01*
X6643954Y4756589D01*
X6553410Y4756589D02*
G01*
X6553410Y4642045D01*
X6553410Y4756589D02*
G01*
X6504317Y4756589D01*
X6487955Y4751136D01*
X6482501Y4745682D01*
X6477045Y4734773D01*
X6477045Y4718408D01*
X6482501Y4707498D01*
X6487955Y4702045D01*
X6504317Y4696589D01*
X6553410Y4696589D01*
X6441046Y4756589D02*
G01*
X6397409Y4702045D01*
X6397409Y4642045D01*
X6353774Y4756589D02*
G01*
X6397409Y4702045D01*
X6317772Y4756589D02*
G01*
X6317772Y4642045D01*
X6317772Y4756589D02*
G01*
X6268681Y4756589D01*
X6252319Y4751136D01*
X6246865Y4745682D01*
X6241409Y4734773D01*
X6241409Y4723864D01*
X6246865Y4712954D01*
X6252319Y4707498D01*
X6268681Y4702045D01*
X6317772Y4702045D01*
X6279591Y4702045D02*
G01*
X6241409Y4642045D01*
X6205410Y4756589D02*
G01*
X6205410Y4642045D01*
X6087592Y4729317D02*
G01*
X6093045Y4740226D01*
X6103955Y4751136D01*
X6114864Y4756589D01*
X6136683Y4756589D01*
X6147592Y4751136D01*
X6158501Y4740226D01*
X6163955Y4729317D01*
X6169411Y4712954D01*
X6169411Y4685682D01*
X6163955Y4669317D01*
X6158501Y4658408D01*
X6147592Y4647498D01*
X6136683Y4642045D01*
X6114864Y4642045D01*
X6103955Y4647498D01*
X6093045Y4658408D01*
X6087592Y4669317D01*
X6087592Y4685682D01*
X6114864Y4685682D02*
G01*
X6087592Y4685682D01*
X6051593Y4756589D02*
G01*
X6051593Y4642045D01*
X5975228Y4756589D02*
G01*
X5975228Y4642045D01*
X6051593Y4702045D02*
G01*
X5975228Y4702045D01*
X5901047Y4756589D02*
G01*
X5901047Y4642045D01*
X5939228Y4756589D02*
G01*
X5862866Y4756589D01*
X5737410Y4729317D02*
G01*
X5737410Y4734773D01*
X5731957Y4745682D01*
X5726501Y4751136D01*
X5715591Y4756589D01*
X5693775Y4756589D01*
X5682866Y4751136D01*
X5677410Y4745682D01*
X5671957Y4734773D01*
X5671957Y4723864D01*
X5677410Y4712954D01*
X5688319Y4696589D01*
X5742866Y4642045D01*
X5666501Y4642045D01*
X5597773Y4756589D02*
G01*
X5614139Y4751136D01*
X5625048Y4734773D01*
X5630501Y4707498D01*
X5630501Y4691136D01*
X5625048Y4663864D01*
X5614139Y4647498D01*
X5597773Y4642045D01*
X5586867Y4642045D01*
X5570501Y4647498D01*
X5559592Y4663864D01*
X5554139Y4691136D01*
X5554139Y4707498D01*
X5559592Y4734773D01*
X5570501Y4751136D01*
X5586867Y4756589D01*
X5597773Y4756589D01*
X5512683Y4729317D02*
G01*
X5512683Y4734773D01*
X5507230Y4745682D01*
X5501774Y4751136D01*
X5490865Y4756589D01*
X5469049Y4756589D01*
X5458139Y4751136D01*
X5452684Y4745682D01*
X5447230Y4734773D01*
X5447230Y4723864D01*
X5452684Y4712954D01*
X5463593Y4696589D01*
X5518139Y4642045D01*
X5441774Y4642045D01*
X5400321Y4729317D02*
G01*
X5400321Y4734773D01*
X5394866Y4745682D01*
X5389412Y4751136D01*
X5378503Y4756589D01*
X5356684Y4756589D01*
X5345775Y4751136D01*
X5340322Y4745682D01*
X5334866Y4734773D01*
X5334866Y4723864D01*
X5340322Y4712954D01*
X5351231Y4696589D01*
X5405775Y4642045D01*
X5329412Y4642045D01*
X5209413Y4756589D02*
G01*
X5165775Y4642045D01*
X5122138Y4756589D02*
G01*
X5165775Y4642045D01*
X5086139Y4756589D02*
G01*
X5086139Y4642045D01*
X5086139Y4756589D02*
G01*
X5015229Y4756589D01*
X5086139Y4702045D02*
G01*
X5042504Y4702045D01*
X5086139Y4642045D02*
G01*
X5015229Y4642045D01*
X4902868Y4756589D02*
G01*
X4957411Y4642045D01*
X4979230Y4756589D02*
G01*
X4902868Y4756589D01*
X4866868Y4756589D02*
G01*
X4866868Y4642045D01*
X4866868Y4756589D02*
G01*
X4795959Y4756589D01*
X4866868Y4702045D02*
G01*
X4823231Y4702045D01*
X4759957Y4756589D02*
G01*
X4759957Y4642045D01*
X4723958Y4756589D02*
G01*
X4723958Y4642045D01*
X4723958Y4756589D02*
G01*
X4680323Y4642045D01*
X4636686Y4756589D02*
G01*
X4680323Y4642045D01*
X4636686Y4756589D02*
G01*
X4636686Y4642045D01*
X4516686Y4691136D02*
G01*
X4418505Y4691136D01*
X4254868Y4756589D02*
G01*
X4298505Y4642045D01*
X4254868Y4756589D02*
G01*
X4211233Y4642045D01*
X4282140Y4680226D02*
G01*
X4227596Y4680226D01*
X4175231Y4756589D02*
G01*
X4175231Y4642045D01*
X4175231Y4642045D02*
G01*
X4109778Y4642045D01*
X4073779Y4756589D02*
G01*
X4073779Y4642045D01*
X4073779Y4642045D02*
G01*
X4008323Y4642045D01*
X3888323Y4756589D02*
G01*
X3888323Y4642045D01*
X3888323Y4756589D02*
G01*
X3839232Y4756589D01*
X3822870Y4751136D01*
X3817414Y4745682D01*
X3811960Y4734773D01*
X3811960Y4723864D01*
X3817414Y4712954D01*
X3822870Y4707498D01*
X3839232Y4702045D01*
X3888323Y4702045D01*
X3850142Y4702045D02*
G01*
X3811960Y4642045D01*
X3775961Y4756589D02*
G01*
X3775961Y4642045D01*
X3658143Y4729317D02*
G01*
X3663596Y4740226D01*
X3674506Y4751136D01*
X3685415Y4756589D01*
X3707234Y4756589D01*
X3718143Y4751136D01*
X3729052Y4740226D01*
X3734506Y4729317D01*
X3739959Y4712954D01*
X3739959Y4685682D01*
X3734506Y4669317D01*
X3729052Y4658408D01*
X3718143Y4647498D01*
X3707234Y4642045D01*
X3685415Y4642045D01*
X3674506Y4647498D01*
X3663596Y4658408D01*
X3658143Y4669317D01*
X3658143Y4685682D01*
X3685415Y4685682D02*
G01*
X3658143Y4685682D01*
X3622141Y4756589D02*
G01*
X3622141Y4642045D01*
X3545779Y4756589D02*
G01*
X3545779Y4642045D01*
X3622141Y4702045D02*
G01*
X3545779Y4702045D01*
X3471598Y4756589D02*
G01*
X3471598Y4642045D01*
X3509779Y4756589D02*
G01*
X3433417Y4756589D01*
X3321052Y4740226D02*
G01*
X3331961Y4751136D01*
X3348324Y4756589D01*
X3370143Y4756589D01*
X3386505Y4751136D01*
X3397415Y4740226D01*
X3397415Y4729317D01*
X3391961Y4718408D01*
X3386505Y4712954D01*
X3375596Y4707498D01*
X3342871Y4696589D01*
X3331961Y4691136D01*
X3326505Y4685682D01*
X3321052Y4674773D01*
X3321052Y4658408D01*
X3331961Y4647498D01*
X3348324Y4642045D01*
X3370143Y4642045D01*
X3386505Y4647498D01*
X3397415Y4658408D01*
X3201052Y4756589D02*
G01*
X3201052Y4642045D01*
X3201052Y4756589D02*
G01*
X3151962Y4756589D01*
X3135596Y4751136D01*
X3130143Y4745682D01*
X3124690Y4734773D01*
X3124690Y4723864D01*
X3130143Y4712954D01*
X3135596Y4707498D01*
X3151962Y4702045D01*
X3201052Y4702045D01*
X3162871Y4702045D02*
G01*
X3124690Y4642045D01*
X3088688Y4756589D02*
G01*
X3088688Y4642045D01*
X3088688Y4756589D02*
G01*
X3017779Y4756589D01*
X3088688Y4702045D02*
G01*
X3045053Y4702045D01*
X3088688Y4642045D02*
G01*
X3017779Y4642045D01*
X2905417Y4740226D02*
G01*
X2916326Y4751136D01*
X2932689Y4756589D01*
X2954507Y4756589D01*
X2970870Y4751136D01*
X2981779Y4740226D01*
X2981779Y4729317D01*
X2976326Y4718408D01*
X2970870Y4712954D01*
X2959961Y4707498D01*
X2927235Y4696589D01*
X2916326Y4691136D01*
X2910870Y4685682D01*
X2905417Y4674773D01*
X2905417Y4658408D01*
X2916326Y4647498D01*
X2932689Y4642045D01*
X2954507Y4642045D01*
X2970870Y4647498D01*
X2981779Y4658408D01*
X2869417Y4756589D02*
G01*
X2869417Y4642045D01*
X2869417Y4756589D02*
G01*
X2798508Y4756589D01*
X2869417Y4702045D02*
G01*
X2825780Y4702045D01*
X2869417Y4642045D02*
G01*
X2798508Y4642045D01*
X2762509Y4756589D02*
G01*
X2762509Y4642045D01*
X2762509Y4756589D02*
G01*
X2713418Y4756589D01*
X2697053Y4751136D01*
X2691599Y4745682D01*
X2686143Y4734773D01*
X2686143Y4723864D01*
X2691599Y4712954D01*
X2697053Y4707498D01*
X2713418Y4702045D01*
X2762509Y4702045D01*
X2724325Y4702045D02*
G01*
X2686143Y4642045D01*
X2650144Y4756589D02*
G01*
X2606507Y4642045D01*
X2562872Y4756589D02*
G01*
X2606507Y4642045D01*
X2526873Y4756589D02*
G01*
X2526873Y4642045D01*
X2526873Y4756589D02*
G01*
X2455964Y4756589D01*
X2526873Y4702045D02*
G01*
X2483236Y4702045D01*
X2526873Y4642045D02*
G01*
X2455964Y4642045D01*
X2419962Y4756589D02*
G01*
X2419962Y4642045D01*
X2419962Y4756589D02*
G01*
X2381780Y4756589D01*
X2365418Y4751136D01*
X2354508Y4740226D01*
X2349055Y4729317D01*
X2343599Y4712954D01*
X2343599Y4685682D01*
X2349055Y4669317D01*
X2354508Y4658408D01*
X2365418Y4647498D01*
X2381780Y4642045D01*
X2419962Y4642045D01*
D10*
X5651500Y9633389D02*
G01*
X5651500Y9518845D01*
X5651500Y9633389D02*
G01*
X5602409Y9633389D01*
X5586046Y9627936D01*
X5580590Y9622482D01*
X5575137Y9611573D01*
X5575137Y9595208D01*
X5580590Y9584298D01*
X5586046Y9578845D01*
X5602409Y9573389D01*
X5651500Y9573389D01*
X5495500Y9633389D02*
G01*
X5539135Y9518845D01*
X5495500Y9633389D02*
G01*
X5451863Y9518845D01*
X5522772Y9557026D02*
G01*
X5468228Y9557026D01*
X5415864Y9633389D02*
G01*
X5415864Y9518845D01*
X5415864Y9633389D02*
G01*
X5366773Y9633389D01*
X5350410Y9627936D01*
X5344955Y9622482D01*
X5339501Y9611573D01*
X5339501Y9600664D01*
X5344955Y9589754D01*
X5350410Y9584298D01*
X5366773Y9578845D01*
X5415864Y9578845D01*
X5377682Y9578845D02*
G01*
X5339501Y9518845D01*
X5265318Y9633389D02*
G01*
X5265318Y9518845D01*
X5303499Y9633389D02*
G01*
X5227137Y9633389D01*
X5107137Y9633389D02*
G01*
X5107137Y9518845D01*
X5107137Y9633389D02*
G01*
X5030774Y9518845D01*
X5030774Y9633389D02*
G01*
X5030774Y9518845D01*
X4994772Y9633389D02*
G01*
X4994772Y9551573D01*
X4989319Y9535208D01*
X4978410Y9524298D01*
X4962047Y9518845D01*
X4951138Y9518845D01*
X4934772Y9524298D01*
X4923866Y9535208D01*
X4918410Y9551573D01*
X4918410Y9633389D01*
X4882410Y9633389D02*
G01*
X4882410Y9518845D01*
X4882410Y9633389D02*
G01*
X4838773Y9518845D01*
X4795138Y9633389D02*
G01*
X4838773Y9518845D01*
X4795138Y9633389D02*
G01*
X4795138Y9518845D01*
X4759137Y9633389D02*
G01*
X4759137Y9518845D01*
X4759137Y9633389D02*
G01*
X4710046Y9633389D01*
X4693683Y9627936D01*
X4688230Y9622482D01*
X4682774Y9611573D01*
X4682774Y9600664D01*
X4688230Y9589754D01*
X4693683Y9584298D01*
X4710046Y9578845D01*
X4759137Y9578845D02*
G01*
X4710046Y9578845D01*
X4693683Y9573389D01*
X4688230Y9567936D01*
X4682774Y9557026D01*
X4682774Y9540664D01*
X4688230Y9529754D01*
X4693683Y9524298D01*
X4710046Y9518845D01*
X4759137Y9518845D01*
X4646775Y9633389D02*
G01*
X4646775Y9518845D01*
X4646775Y9633389D02*
G01*
X4575865Y9633389D01*
X4646775Y9578845D02*
G01*
X4603137Y9578845D01*
X4646775Y9518845D02*
G01*
X4575865Y9518845D01*
X4539866Y9633389D02*
G01*
X4539866Y9518845D01*
X4539866Y9633389D02*
G01*
X4490775Y9633389D01*
X4474410Y9627936D01*
X4468957Y9622482D01*
X4463501Y9611573D01*
X4463501Y9600664D01*
X4468957Y9589754D01*
X4474410Y9584298D01*
X4490775Y9578845D01*
X4539866Y9578845D01*
X4501685Y9578845D02*
G01*
X4463501Y9518845D01*
X4338048Y9606117D02*
G01*
X4338048Y9611573D01*
X4332592Y9622482D01*
X4327138Y9627936D01*
X4316229Y9633389D01*
X4294411Y9633389D01*
X4283501Y9627936D01*
X4278048Y9622482D01*
X4272592Y9611573D01*
X4272592Y9600664D01*
X4278048Y9589754D01*
X4288957Y9573389D01*
X4343501Y9518845D01*
X4267139Y9518845D01*
X4203867Y9633389D02*
G01*
X4220230Y9627936D01*
X4225683Y9617026D01*
X4225683Y9606117D01*
X4220230Y9595208D01*
X4209321Y9589754D01*
X4187502Y9584298D01*
X4171139Y9578845D01*
X4160230Y9567936D01*
X4154774Y9557026D01*
X4154774Y9540664D01*
X4160230Y9529754D01*
X4165683Y9524298D01*
X4182049Y9518845D01*
X4203867Y9518845D01*
X4220230Y9524298D01*
X4225683Y9529754D01*
X4231139Y9540664D01*
X4231139Y9557026D01*
X4225683Y9567936D01*
X4214774Y9578845D01*
X4198411Y9584298D01*
X4176593Y9589754D01*
X4165683Y9595208D01*
X4160230Y9606117D01*
X4160230Y9617026D01*
X4165683Y9627936D01*
X4182049Y9633389D01*
X4203867Y9633389D01*
X4118775Y9611573D02*
G01*
X4107865Y9617026D01*
X4091503Y9633389D01*
X4091503Y9518845D01*
X4022775Y9633389D02*
G01*
X4039138Y9627936D01*
X4050047Y9611573D01*
X4055503Y9584298D01*
X4055503Y9567936D01*
X4050047Y9540664D01*
X4039138Y9524298D01*
X4022775Y9518845D01*
X4011866Y9518845D01*
X3995503Y9524298D01*
X3984594Y9540664D01*
X3979138Y9567936D01*
X3979138Y9584298D01*
X3984594Y9611573D01*
X3995503Y9627936D01*
X4011866Y9633389D01*
X4022775Y9633389D01*
X3943139Y9567936D02*
G01*
X3844958Y9567936D01*
X3776230Y9633389D02*
G01*
X3792593Y9627936D01*
X3803502Y9611573D01*
X3808958Y9584298D01*
X3808958Y9567936D01*
X3803502Y9540664D01*
X3792593Y9524298D01*
X3776230Y9518845D01*
X3765321Y9518845D01*
X3748958Y9524298D01*
X3738049Y9540664D01*
X3732593Y9567936D01*
X3732593Y9584298D01*
X3738049Y9611573D01*
X3748958Y9627936D01*
X3765321Y9633389D01*
X3776230Y9633389D01*
X3696594Y9611573D02*
G01*
X3685684Y9617026D01*
X3669322Y9633389D01*
X3669322Y9518845D01*
X3633322Y9611573D02*
G01*
X3622413Y9617026D01*
X3606050Y9633389D01*
X3606050Y9518845D01*
X3570048Y9611573D02*
G01*
X3559139Y9617026D01*
X3542776Y9633389D01*
X3542776Y9518845D01*
M02*
