M48
METRIC,LZ,000.000
;FILE_FORMAT=3:3
;TYPE=PLATED
;Layer: PTH_Through_Via
;EasyEDA v6.5.29, 2023-07-18 10:18:03
;90495d7994f342159c24a82f0dd90fb3,5a6b42c53f6a479593ecc07194224c93,10
;Gerber Generator version 0.2
;Holesize 1 = 0.305 mm
T01C0.305
%
G05
G90
T01
X034544Y105664
X004445Y019050
X004445Y061595
X004445Y091186
X048387Y091186
X003810Y064135
X003810Y021590
X003810Y091821
X047752Y091821
X003175Y092456
X042672Y092456
X003175Y059055
X002540Y024130
X002540Y064770
X016871Y107061
X045192Y107061
X034544Y111760
X011811Y111760
X002540Y099187
X020066Y099187
X001905Y026670
X001905Y065405
X001905Y099822
X019431Y099822
X059309Y105156
X014351Y098552
X057023Y098552
X056388Y064770
X060706Y014351
X003175Y100457
X025908Y103251
X025908Y100457
X003810Y101092
X025273Y105664
X025273Y101092
X003175Y094615
X003810Y093980
X006858Y066548
X007493Y041275
X006858Y038735
X007493Y067183
X057023Y062865
X057023Y060325
X014224Y062865
X014224Y011430
X015748Y011430
X015748Y060325
X056769Y038735
X057404Y036195
X058039Y033655
X057404Y021590
X056769Y024130
X056134Y041275
X056134Y027813
X079883Y025400
X079883Y014351
X078232Y022860
X099187Y020320
X099187Y014351
X094869Y014351
X075565Y014351
X073152Y028448
X049149Y028448
X049149Y051435
X092349Y029210
X048514Y029210
X048514Y043815
X044704Y026670
X044704Y056515
X045339Y024130
X045339Y053975
X045974Y021590
X045974Y048895
X046609Y019050
X046609Y046355
X089789Y025019
X089154Y021590
X089154Y027432
X070612Y021590
X064770Y027432
X064770Y021590
M30
