G04 Layer: TopSilkscreenLayer*
G04 EasyEDA v6.5.29, 2023-07-18 10:40:53*
G04 4c059b13f8394eaabd7c1ccd551ef848,5a6b42c53f6a479593ecc07194224c93,10*
G04 Gerber Generator version 0.2*
G04 Scale: 100 percent, Rotated: No, Reflected: No *
G04 Dimensions in millimeters *
G04 leading zeros omitted , absolute positions ,4 integer and 5 decimal *
%FSLAX45Y45*%
%MOMM*%

%ADD10C,0.2032*%
%ADD11C,0.1524*%
%ADD12C,0.1999*%
%ADD13C,0.2540*%

%LPD*%
D10*
X4635517Y11572349D02*
G01*
X4635517Y11457795D01*
X4635517Y11572349D02*
G01*
X4679205Y11457795D01*
X4722893Y11572349D02*
G01*
X4679205Y11457795D01*
X4722893Y11572349D02*
G01*
X4722893Y11457795D01*
X4857005Y11594193D02*
G01*
X4758707Y11419441D01*
X4893073Y11572349D02*
G01*
X4893073Y11457795D01*
X4893073Y11572349D02*
G01*
X4963939Y11572349D01*
X4893073Y11517739D02*
G01*
X4936507Y11517739D01*
X4893073Y11457795D02*
G01*
X4963939Y11457795D01*
X5160281Y11555839D02*
G01*
X5149359Y11566761D01*
X5132849Y11572349D01*
X5111259Y11572349D01*
X5094749Y11566761D01*
X5083827Y11555839D01*
X5083827Y11544917D01*
X5089415Y11533995D01*
X5094749Y11528661D01*
X5105671Y11523073D01*
X5138437Y11512405D01*
X5149359Y11506817D01*
X5154693Y11501483D01*
X5160281Y11490561D01*
X5160281Y11474051D01*
X5149359Y11463129D01*
X5132849Y11457795D01*
X5111259Y11457795D01*
X5094749Y11463129D01*
X5083827Y11474051D01*
X5228861Y11572349D02*
G01*
X5217939Y11566761D01*
X5207271Y11555839D01*
X5201683Y11544917D01*
X5196349Y11528661D01*
X5196349Y11501483D01*
X5201683Y11484973D01*
X5207271Y11474051D01*
X5217939Y11463129D01*
X5228861Y11457795D01*
X5250705Y11457795D01*
X5261627Y11463129D01*
X5272549Y11474051D01*
X5278137Y11484973D01*
X5283471Y11501483D01*
X5283471Y11528661D01*
X5278137Y11544917D01*
X5272549Y11555839D01*
X5261627Y11566761D01*
X5250705Y11572349D01*
X5228861Y11572349D01*
X5319539Y11572349D02*
G01*
X5319539Y11490561D01*
X5324873Y11474051D01*
X5335795Y11463129D01*
X5352305Y11457795D01*
X5363227Y11457795D01*
X5379483Y11463129D01*
X5390405Y11474051D01*
X5395993Y11490561D01*
X5395993Y11572349D01*
X5431807Y11572349D02*
G01*
X5431807Y11457795D01*
X5431807Y11572349D02*
G01*
X5481083Y11572349D01*
X5497339Y11566761D01*
X5502673Y11561427D01*
X5508261Y11550505D01*
X5508261Y11539583D01*
X5502673Y11528661D01*
X5497339Y11523073D01*
X5481083Y11517739D01*
X5431807Y11517739D01*
X5470161Y11517739D02*
G01*
X5508261Y11457795D01*
X5626117Y11544917D02*
G01*
X5620529Y11555839D01*
X5609607Y11566761D01*
X5598685Y11572349D01*
X5577095Y11572349D01*
X5566173Y11566761D01*
X5555251Y11555839D01*
X5549663Y11544917D01*
X5544329Y11528661D01*
X5544329Y11501483D01*
X5549663Y11484973D01*
X5555251Y11474051D01*
X5566173Y11463129D01*
X5577095Y11457795D01*
X5598685Y11457795D01*
X5609607Y11463129D01*
X5620529Y11474051D01*
X5626117Y11484973D01*
X5662185Y11572349D02*
G01*
X5662185Y11457795D01*
X5662185Y11572349D02*
G01*
X5733051Y11572349D01*
X5662185Y11517739D02*
G01*
X5705619Y11517739D01*
X5662185Y11457795D02*
G01*
X5733051Y11457795D01*
X5852939Y11572349D02*
G01*
X5852939Y11457795D01*
X5852939Y11572349D02*
G01*
X5896627Y11457795D01*
X5940315Y11572349D02*
G01*
X5896627Y11457795D01*
X5940315Y11572349D02*
G01*
X5940315Y11457795D01*
X5976129Y11572349D02*
G01*
X5976129Y11457795D01*
X5976129Y11572349D02*
G01*
X6047249Y11572349D01*
X5976129Y11517739D02*
G01*
X6019817Y11517739D01*
X5976129Y11457795D02*
G01*
X6047249Y11457795D01*
X6121417Y11572349D02*
G01*
X6121417Y11457795D01*
X6083063Y11572349D02*
G01*
X6159517Y11572349D01*
X6195585Y11572349D02*
G01*
X6195585Y11457795D01*
X6195585Y11572349D02*
G01*
X6266451Y11572349D01*
X6195585Y11517739D02*
G01*
X6239273Y11517739D01*
X6195585Y11457795D02*
G01*
X6266451Y11457795D01*
X6302519Y11572349D02*
G01*
X6302519Y11457795D01*
X6302519Y11572349D02*
G01*
X6351541Y11572349D01*
X6367797Y11566761D01*
X6373385Y11561427D01*
X6378719Y11550505D01*
X6378719Y11539583D01*
X6373385Y11528661D01*
X6367797Y11523073D01*
X6351541Y11517739D01*
X6302519Y11517739D01*
X6340619Y11517739D02*
G01*
X6378719Y11457795D01*
X6491241Y11555839D02*
G01*
X6480319Y11566761D01*
X6463809Y11572349D01*
X6441965Y11572349D01*
X6425709Y11566761D01*
X6414787Y11555839D01*
X6414787Y11544917D01*
X6420121Y11533995D01*
X6425709Y11528661D01*
X6436631Y11523073D01*
X6469397Y11512405D01*
X6480319Y11506817D01*
X6485653Y11501483D01*
X6491241Y11490561D01*
X6491241Y11474051D01*
X6480319Y11463129D01*
X6463809Y11457795D01*
X6441965Y11457795D01*
X6425709Y11463129D01*
X6414787Y11474051D01*
X6611129Y11572349D02*
G01*
X6611129Y11457795D01*
X6611129Y11572349D02*
G01*
X6660151Y11572349D01*
X6676661Y11566761D01*
X6681995Y11561427D01*
X6687583Y11550505D01*
X6687583Y11539583D01*
X6681995Y11528661D01*
X6676661Y11523073D01*
X6660151Y11517739D01*
X6611129Y11517739D02*
G01*
X6660151Y11517739D01*
X6676661Y11512405D01*
X6681995Y11506817D01*
X6687583Y11495895D01*
X6687583Y11479639D01*
X6681995Y11468717D01*
X6676661Y11463129D01*
X6660151Y11457795D01*
X6611129Y11457795D01*
X6723397Y11572349D02*
G01*
X6723397Y11490561D01*
X6728985Y11474051D01*
X6739907Y11463129D01*
X6756163Y11457795D01*
X6767085Y11457795D01*
X6783595Y11463129D01*
X6794517Y11474051D01*
X6799851Y11490561D01*
X6799851Y11572349D01*
X6874019Y11572349D02*
G01*
X6874019Y11457795D01*
X6835919Y11572349D02*
G01*
X6912119Y11572349D01*
X6986541Y11572349D02*
G01*
X6986541Y11457795D01*
X6948187Y11572349D02*
G01*
X7024641Y11572349D01*
X7093221Y11572349D02*
G01*
X7082299Y11566761D01*
X7071631Y11555839D01*
X7066043Y11544917D01*
X7060709Y11528661D01*
X7060709Y11501483D01*
X7066043Y11484973D01*
X7071631Y11474051D01*
X7082299Y11463129D01*
X7093221Y11457795D01*
X7115065Y11457795D01*
X7125987Y11463129D01*
X7136909Y11474051D01*
X7142497Y11484973D01*
X7147831Y11501483D01*
X7147831Y11528661D01*
X7142497Y11544917D01*
X7136909Y11555839D01*
X7125987Y11566761D01*
X7115065Y11572349D01*
X7093221Y11572349D01*
X7183899Y11572349D02*
G01*
X7183899Y11457795D01*
X7183899Y11572349D02*
G01*
X7260353Y11457795D01*
X7260353Y11572349D02*
G01*
X7260353Y11457795D01*
X7380241Y11572349D02*
G01*
X7380241Y11457795D01*
X7380241Y11572349D02*
G01*
X7429263Y11572349D01*
X7445773Y11566761D01*
X7451107Y11561427D01*
X7456695Y11550505D01*
X7456695Y11539583D01*
X7451107Y11528661D01*
X7445773Y11523073D01*
X7429263Y11517739D01*
X7380241Y11517739D02*
G01*
X7429263Y11517739D01*
X7445773Y11512405D01*
X7451107Y11506817D01*
X7456695Y11495895D01*
X7456695Y11479639D01*
X7451107Y11468717D01*
X7445773Y11463129D01*
X7429263Y11457795D01*
X7380241Y11457795D01*
X7525275Y11572349D02*
G01*
X7514353Y11566761D01*
X7503431Y11555839D01*
X7498097Y11544917D01*
X7492509Y11528661D01*
X7492509Y11501483D01*
X7498097Y11484973D01*
X7503431Y11474051D01*
X7514353Y11463129D01*
X7525275Y11457795D01*
X7547119Y11457795D01*
X7558041Y11463129D01*
X7568963Y11474051D01*
X7574297Y11484973D01*
X7579885Y11501483D01*
X7579885Y11528661D01*
X7574297Y11544917D01*
X7568963Y11555839D01*
X7558041Y11566761D01*
X7547119Y11572349D01*
X7525275Y11572349D01*
X7659387Y11572349D02*
G01*
X7615953Y11457795D01*
X7659387Y11572349D02*
G01*
X7703075Y11457795D01*
X7632209Y11495895D02*
G01*
X7686819Y11495895D01*
X7739143Y11572349D02*
G01*
X7739143Y11457795D01*
X7739143Y11572349D02*
G01*
X7788165Y11572349D01*
X7804675Y11566761D01*
X7810009Y11561427D01*
X7815597Y11550505D01*
X7815597Y11539583D01*
X7810009Y11528661D01*
X7804675Y11523073D01*
X7788165Y11517739D01*
X7739143Y11517739D01*
X7777243Y11517739D02*
G01*
X7815597Y11457795D01*
X7851411Y11572349D02*
G01*
X7851411Y11457795D01*
X7851411Y11572349D02*
G01*
X7889765Y11572349D01*
X7906021Y11566761D01*
X7916943Y11555839D01*
X7922531Y11544917D01*
X7927865Y11528661D01*
X7927865Y11501483D01*
X7922531Y11484973D01*
X7916943Y11474051D01*
X7906021Y11463129D01*
X7889765Y11457795D01*
X7851411Y11457795D01*
X8047753Y11506817D02*
G01*
X8146051Y11506817D01*
X8265939Y11572349D02*
G01*
X8265939Y11457795D01*
X8265939Y11572349D02*
G01*
X8337059Y11572349D01*
X8265939Y11517739D02*
G01*
X8309627Y11517739D01*
X8372873Y11572349D02*
G01*
X8372873Y11457795D01*
X8372873Y11572349D02*
G01*
X8422149Y11572349D01*
X8438405Y11566761D01*
X8443993Y11561427D01*
X8449327Y11550505D01*
X8449327Y11539583D01*
X8443993Y11528661D01*
X8438405Y11523073D01*
X8422149Y11517739D01*
X8372873Y11517739D01*
X8411227Y11517739D02*
G01*
X8449327Y11457795D01*
X8518161Y11572349D02*
G01*
X8507239Y11566761D01*
X8496317Y11555839D01*
X8490729Y11544917D01*
X8485395Y11528661D01*
X8485395Y11501483D01*
X8490729Y11484973D01*
X8496317Y11474051D01*
X8507239Y11463129D01*
X8518161Y11457795D01*
X8539751Y11457795D01*
X8550673Y11463129D01*
X8561595Y11474051D01*
X8567183Y11484973D01*
X8572517Y11501483D01*
X8572517Y11528661D01*
X8567183Y11544917D01*
X8561595Y11555839D01*
X8550673Y11566761D01*
X8539751Y11572349D01*
X8518161Y11572349D01*
X8608585Y11572349D02*
G01*
X8608585Y11457795D01*
X8608585Y11572349D02*
G01*
X8685039Y11457795D01*
X8685039Y11572349D02*
G01*
X8685039Y11457795D01*
X8759207Y11572349D02*
G01*
X8759207Y11457795D01*
X8720853Y11572349D02*
G01*
X8797307Y11572349D01*
X5638774Y11360632D02*
G01*
X5638774Y11246078D01*
X5638774Y11360632D02*
G01*
X5687796Y11360632D01*
X5704306Y11355044D01*
X5709640Y11349710D01*
X5715228Y11338788D01*
X5715228Y11322532D01*
X5709640Y11311610D01*
X5704306Y11306022D01*
X5687796Y11300688D01*
X5638774Y11300688D01*
X5794730Y11360632D02*
G01*
X5751042Y11246078D01*
X5794730Y11360632D02*
G01*
X5838418Y11246078D01*
X5767552Y11284178D02*
G01*
X5822162Y11284178D01*
X5874486Y11360632D02*
G01*
X5874486Y11246078D01*
X5874486Y11360632D02*
G01*
X5923508Y11360632D01*
X5939764Y11355044D01*
X5945352Y11349710D01*
X5950686Y11338788D01*
X5950686Y11327866D01*
X5945352Y11316944D01*
X5939764Y11311610D01*
X5923508Y11306022D01*
X5874486Y11306022D01*
X5912586Y11306022D02*
G01*
X5950686Y11246078D01*
X6024854Y11360632D02*
G01*
X6024854Y11246078D01*
X5986754Y11360632D02*
G01*
X6063208Y11360632D01*
X6183096Y11360632D02*
G01*
X6183096Y11246078D01*
X6183096Y11360632D02*
G01*
X6259550Y11246078D01*
X6259550Y11360632D02*
G01*
X6259550Y11246078D01*
X6295618Y11360632D02*
G01*
X6295618Y11278844D01*
X6300952Y11262334D01*
X6311874Y11251412D01*
X6328130Y11246078D01*
X6339052Y11246078D01*
X6355562Y11251412D01*
X6366484Y11262334D01*
X6371818Y11278844D01*
X6371818Y11360632D01*
X6407886Y11360632D02*
G01*
X6407886Y11246078D01*
X6407886Y11360632D02*
G01*
X6451574Y11246078D01*
X6495262Y11360632D02*
G01*
X6451574Y11246078D01*
X6495262Y11360632D02*
G01*
X6495262Y11246078D01*
X6531076Y11360632D02*
G01*
X6531076Y11246078D01*
X6531076Y11360632D02*
G01*
X6580352Y11360632D01*
X6596608Y11355044D01*
X6602196Y11349710D01*
X6607530Y11338788D01*
X6607530Y11327866D01*
X6602196Y11316944D01*
X6596608Y11311610D01*
X6580352Y11306022D01*
X6531076Y11306022D02*
G01*
X6580352Y11306022D01*
X6596608Y11300688D01*
X6602196Y11295100D01*
X6607530Y11284178D01*
X6607530Y11267922D01*
X6602196Y11257000D01*
X6596608Y11251412D01*
X6580352Y11246078D01*
X6531076Y11246078D01*
X6643598Y11360632D02*
G01*
X6643598Y11246078D01*
X6643598Y11360632D02*
G01*
X6714464Y11360632D01*
X6643598Y11306022D02*
G01*
X6687286Y11306022D01*
X6643598Y11246078D02*
G01*
X6714464Y11246078D01*
X6750532Y11360632D02*
G01*
X6750532Y11246078D01*
X6750532Y11360632D02*
G01*
X6799554Y11360632D01*
X6815810Y11355044D01*
X6821398Y11349710D01*
X6826732Y11338788D01*
X6826732Y11327866D01*
X6821398Y11316944D01*
X6815810Y11311610D01*
X6799554Y11306022D01*
X6750532Y11306022D01*
X6788632Y11306022D02*
G01*
X6826732Y11246078D01*
X6952208Y11333200D02*
G01*
X6952208Y11338788D01*
X6957796Y11349710D01*
X6963130Y11355044D01*
X6974052Y11360632D01*
X6995896Y11360632D01*
X7006818Y11355044D01*
X7012152Y11349710D01*
X7017740Y11338788D01*
X7017740Y11327866D01*
X7012152Y11316944D01*
X7001230Y11300688D01*
X6946874Y11246078D01*
X7023074Y11246078D01*
X7086320Y11360632D02*
G01*
X7070064Y11355044D01*
X7064730Y11344122D01*
X7064730Y11333200D01*
X7070064Y11322532D01*
X7080986Y11316944D01*
X7102830Y11311610D01*
X7119086Y11306022D01*
X7130008Y11295100D01*
X7135596Y11284178D01*
X7135596Y11267922D01*
X7130008Y11257000D01*
X7124674Y11251412D01*
X7108164Y11246078D01*
X7086320Y11246078D01*
X7070064Y11251412D01*
X7064730Y11257000D01*
X7059142Y11267922D01*
X7059142Y11284178D01*
X7064730Y11295100D01*
X7075398Y11306022D01*
X7091908Y11311610D01*
X7113752Y11316944D01*
X7124674Y11322532D01*
X7130008Y11333200D01*
X7130008Y11344122D01*
X7124674Y11355044D01*
X7108164Y11360632D01*
X7086320Y11360632D01*
X7236942Y11360632D02*
G01*
X7182332Y11360632D01*
X7176998Y11311610D01*
X7182332Y11316944D01*
X7198842Y11322532D01*
X7215098Y11322532D01*
X7231608Y11316944D01*
X7242530Y11306022D01*
X7247864Y11289766D01*
X7247864Y11278844D01*
X7242530Y11262334D01*
X7231608Y11251412D01*
X7215098Y11246078D01*
X7198842Y11246078D01*
X7182332Y11251412D01*
X7176998Y11257000D01*
X7171410Y11267922D01*
X7316698Y11360632D02*
G01*
X7300188Y11355044D01*
X7289266Y11338788D01*
X7283932Y11311610D01*
X7283932Y11295100D01*
X7289266Y11267922D01*
X7300188Y11251412D01*
X7316698Y11246078D01*
X7327620Y11246078D01*
X7343876Y11251412D01*
X7354798Y11267922D01*
X7360132Y11295100D01*
X7360132Y11311610D01*
X7354798Y11338788D01*
X7343876Y11355044D01*
X7327620Y11360632D01*
X7316698Y11360632D01*
X7396200Y11295100D02*
G01*
X7494498Y11295100D01*
X7563078Y11360632D02*
G01*
X7546822Y11355044D01*
X7535900Y11338788D01*
X7530312Y11311610D01*
X7530312Y11295100D01*
X7535900Y11267922D01*
X7546822Y11251412D01*
X7563078Y11246078D01*
X7574000Y11246078D01*
X7590510Y11251412D01*
X7601432Y11267922D01*
X7606766Y11295100D01*
X7606766Y11311610D01*
X7601432Y11338788D01*
X7590510Y11355044D01*
X7574000Y11360632D01*
X7563078Y11360632D01*
X7697444Y11360632D02*
G01*
X7642834Y11284178D01*
X7724622Y11284178D01*
X7697444Y11360632D02*
G01*
X7697444Y11246078D01*
X7793456Y11360632D02*
G01*
X7776946Y11355044D01*
X7766024Y11338788D01*
X7760690Y11311610D01*
X7760690Y11295100D01*
X7766024Y11267922D01*
X7776946Y11251412D01*
X7793456Y11246078D01*
X7804124Y11246078D01*
X7820634Y11251412D01*
X7831556Y11267922D01*
X7836890Y11295100D01*
X7836890Y11311610D01*
X7831556Y11338788D01*
X7820634Y11355044D01*
X7804124Y11360632D01*
X7793456Y11360632D01*
X7872958Y11338788D02*
G01*
X7883880Y11344122D01*
X7900136Y11360632D01*
X7900136Y11246078D01*
X8020278Y11360632D02*
G01*
X8063966Y11246078D01*
X8107400Y11360632D02*
G01*
X8063966Y11246078D01*
X8143468Y11338788D02*
G01*
X8154390Y11344122D01*
X8170900Y11360632D01*
X8170900Y11246078D01*
D11*
X1079754Y2944876D02*
G01*
X1070610Y2953765D01*
X1056894Y2958337D01*
X1038605Y2958337D01*
X1025144Y2953765D01*
X1016000Y2944876D01*
X1016000Y2935731D01*
X1020571Y2926587D01*
X1025144Y2922015D01*
X1034287Y2917444D01*
X1061465Y2908300D01*
X1070610Y2903981D01*
X1075181Y2899410D01*
X1079754Y2890265D01*
X1079754Y2876550D01*
X1070610Y2867405D01*
X1056894Y2862834D01*
X1038605Y2862834D01*
X1025144Y2867405D01*
X1016000Y2876550D01*
X1109726Y2940304D02*
G01*
X1118615Y2944876D01*
X1132331Y2958337D01*
X1132331Y2862834D01*
X2959354Y2944876D02*
G01*
X2950209Y2953765D01*
X2936493Y2958337D01*
X2918206Y2958337D01*
X2904743Y2953765D01*
X2895600Y2944876D01*
X2895600Y2935731D01*
X2900172Y2926587D01*
X2904743Y2922015D01*
X2913888Y2917444D01*
X2941065Y2908300D01*
X2950209Y2903981D01*
X2954781Y2899410D01*
X2959354Y2890265D01*
X2959354Y2876550D01*
X2950209Y2867405D01*
X2936493Y2862834D01*
X2918206Y2862834D01*
X2904743Y2867405D01*
X2895600Y2876550D01*
X2993897Y2935731D02*
G01*
X2993897Y2940304D01*
X2998215Y2949194D01*
X3002788Y2953765D01*
X3011931Y2958337D01*
X3030220Y2958337D01*
X3039109Y2953765D01*
X3043681Y2949194D01*
X3048254Y2940304D01*
X3048254Y2931160D01*
X3043681Y2922015D01*
X3034791Y2908300D01*
X2989325Y2862834D01*
X3052825Y2862834D01*
X4864354Y2944876D02*
G01*
X4855209Y2953765D01*
X4841493Y2958337D01*
X4823206Y2958337D01*
X4809743Y2953765D01*
X4800600Y2944876D01*
X4800600Y2935731D01*
X4805172Y2926587D01*
X4809743Y2922015D01*
X4818888Y2917444D01*
X4846065Y2908300D01*
X4855209Y2903981D01*
X4859781Y2899410D01*
X4864354Y2890265D01*
X4864354Y2876550D01*
X4855209Y2867405D01*
X4841493Y2862834D01*
X4823206Y2862834D01*
X4809743Y2867405D01*
X4800600Y2876550D01*
X4903215Y2958337D02*
G01*
X4953254Y2958337D01*
X4926075Y2922015D01*
X4939791Y2922015D01*
X4948681Y2917444D01*
X4953254Y2912871D01*
X4957825Y2899410D01*
X4957825Y2890265D01*
X4953254Y2876550D01*
X4944109Y2867405D01*
X4930647Y2862834D01*
X4916931Y2862834D01*
X4903215Y2867405D01*
X4898897Y2871978D01*
X4894325Y2881121D01*
X6782054Y2944876D02*
G01*
X6772909Y2953765D01*
X6759193Y2958337D01*
X6740906Y2958337D01*
X6727443Y2953765D01*
X6718300Y2944876D01*
X6718300Y2935731D01*
X6722872Y2926587D01*
X6727443Y2922015D01*
X6736588Y2917444D01*
X6763765Y2908300D01*
X6772909Y2903981D01*
X6777481Y2899410D01*
X6782054Y2890265D01*
X6782054Y2876550D01*
X6772909Y2867405D01*
X6759193Y2862834D01*
X6740906Y2862834D01*
X6727443Y2867405D01*
X6718300Y2876550D01*
X6857491Y2958337D02*
G01*
X6812025Y2894837D01*
X6880097Y2894837D01*
X6857491Y2958337D02*
G01*
X6857491Y2862834D01*
X1041654Y1814576D02*
G01*
X1032510Y1823465D01*
X1018794Y1828037D01*
X1000505Y1828037D01*
X987044Y1823465D01*
X977900Y1814576D01*
X977900Y1805431D01*
X982471Y1796287D01*
X987044Y1791715D01*
X996187Y1787144D01*
X1023365Y1778000D01*
X1032510Y1773681D01*
X1037081Y1769110D01*
X1041654Y1759965D01*
X1041654Y1746250D01*
X1032510Y1737105D01*
X1018794Y1732534D01*
X1000505Y1732534D01*
X987044Y1737105D01*
X977900Y1746250D01*
X1125981Y1828037D02*
G01*
X1080515Y1828037D01*
X1076197Y1787144D01*
X1080515Y1791715D01*
X1094231Y1796287D01*
X1107947Y1796287D01*
X1121410Y1791715D01*
X1130554Y1782571D01*
X1135126Y1769110D01*
X1135126Y1759965D01*
X1130554Y1746250D01*
X1121410Y1737105D01*
X1107947Y1732534D01*
X1094231Y1732534D01*
X1080515Y1737105D01*
X1076197Y1741678D01*
X1071626Y1750821D01*
X2959354Y1814576D02*
G01*
X2950209Y1823465D01*
X2936493Y1828037D01*
X2918206Y1828037D01*
X2904743Y1823465D01*
X2895600Y1814576D01*
X2895600Y1805431D01*
X2900172Y1796287D01*
X2904743Y1791715D01*
X2913888Y1787144D01*
X2941065Y1778000D01*
X2950209Y1773681D01*
X2954781Y1769110D01*
X2959354Y1759965D01*
X2959354Y1746250D01*
X2950209Y1737105D01*
X2936493Y1732534D01*
X2918206Y1732534D01*
X2904743Y1737105D01*
X2895600Y1746250D01*
X3043681Y1814576D02*
G01*
X3039109Y1823465D01*
X3025647Y1828037D01*
X3016504Y1828037D01*
X3002788Y1823465D01*
X2993897Y1810004D01*
X2989325Y1787144D01*
X2989325Y1764537D01*
X2993897Y1746250D01*
X3002788Y1737105D01*
X3016504Y1732534D01*
X3021075Y1732534D01*
X3034791Y1737105D01*
X3043681Y1746250D01*
X3048254Y1759965D01*
X3048254Y1764537D01*
X3043681Y1778000D01*
X3034791Y1787144D01*
X3021075Y1791715D01*
X3016504Y1791715D01*
X3002788Y1787144D01*
X2993897Y1778000D01*
X2989325Y1764537D01*
X4864354Y1814576D02*
G01*
X4855209Y1823465D01*
X4841493Y1828037D01*
X4823206Y1828037D01*
X4809743Y1823465D01*
X4800600Y1814576D01*
X4800600Y1805431D01*
X4805172Y1796287D01*
X4809743Y1791715D01*
X4818888Y1787144D01*
X4846065Y1778000D01*
X4855209Y1773681D01*
X4859781Y1769110D01*
X4864354Y1759965D01*
X4864354Y1746250D01*
X4855209Y1737105D01*
X4841493Y1732534D01*
X4823206Y1732534D01*
X4809743Y1737105D01*
X4800600Y1746250D01*
X4957825Y1828037D02*
G01*
X4912359Y1732534D01*
X4894325Y1828037D02*
G01*
X4957825Y1828037D01*
X6782054Y1814576D02*
G01*
X6772909Y1823465D01*
X6759193Y1828037D01*
X6740906Y1828037D01*
X6727443Y1823465D01*
X6718300Y1814576D01*
X6718300Y1805431D01*
X6722872Y1796287D01*
X6727443Y1791715D01*
X6736588Y1787144D01*
X6763765Y1778000D01*
X6772909Y1773681D01*
X6777481Y1769110D01*
X6782054Y1759965D01*
X6782054Y1746250D01*
X6772909Y1737105D01*
X6759193Y1732534D01*
X6740906Y1732534D01*
X6727443Y1737105D01*
X6718300Y1746250D01*
X6834631Y1828037D02*
G01*
X6820915Y1823465D01*
X6816597Y1814576D01*
X6816597Y1805431D01*
X6820915Y1796287D01*
X6830059Y1791715D01*
X6848347Y1787144D01*
X6861809Y1782571D01*
X6870954Y1773681D01*
X6875525Y1764537D01*
X6875525Y1750821D01*
X6870954Y1741678D01*
X6866381Y1737105D01*
X6852920Y1732534D01*
X6834631Y1732534D01*
X6820915Y1737105D01*
X6816597Y1741678D01*
X6812025Y1750821D01*
X6812025Y1764537D01*
X6816597Y1773681D01*
X6825488Y1782571D01*
X6839204Y1787144D01*
X6857491Y1791715D01*
X6866381Y1796287D01*
X6870954Y1805431D01*
X6870954Y1814576D01*
X6866381Y1823465D01*
X6852920Y1828037D01*
X6834631Y1828037D01*
X1799336Y4458715D02*
G01*
X1799336Y4349750D01*
X1799336Y4458715D02*
G01*
X1835657Y4458715D01*
X1851152Y4453636D01*
X1861565Y4443221D01*
X1866900Y4432807D01*
X1871979Y4417060D01*
X1871979Y4391152D01*
X1866900Y4375657D01*
X1861565Y4365244D01*
X1851152Y4354829D01*
X1835657Y4349750D01*
X1799336Y4349750D01*
X1911604Y4432807D02*
G01*
X1911604Y4437887D01*
X1916684Y4448302D01*
X1921763Y4453636D01*
X1932177Y4458715D01*
X1953006Y4458715D01*
X1963420Y4453636D01*
X1968754Y4448302D01*
X1973834Y4437887D01*
X1973834Y4427473D01*
X1968754Y4417060D01*
X1958340Y4401565D01*
X1906270Y4349750D01*
X1978913Y4349750D01*
X3348664Y4454598D02*
G01*
X3348664Y4345495D01*
X3348664Y4454598D02*
G01*
X3385032Y4454598D01*
X3400620Y4449404D01*
X3411009Y4439013D01*
X3416206Y4428622D01*
X3421400Y4413034D01*
X3421400Y4387057D01*
X3416206Y4371472D01*
X3411009Y4361080D01*
X3400620Y4350689D01*
X3385032Y4345495D01*
X3348664Y4345495D01*
X3466081Y4454598D02*
G01*
X3523231Y4454598D01*
X3492060Y4413034D01*
X3507646Y4413034D01*
X3518037Y4407839D01*
X3523231Y4402645D01*
X3528428Y4387057D01*
X3528428Y4376666D01*
X3523231Y4361080D01*
X3512840Y4350689D01*
X3497254Y4345495D01*
X3481669Y4345495D01*
X3466081Y4350689D01*
X3460887Y4355884D01*
X3455690Y4366275D01*
X1456436Y4458715D02*
G01*
X1456436Y4349750D01*
X1456436Y4458715D02*
G01*
X1492757Y4458715D01*
X1508252Y4453636D01*
X1518665Y4443221D01*
X1524000Y4432807D01*
X1529079Y4417060D01*
X1529079Y4391152D01*
X1524000Y4375657D01*
X1518665Y4365244D01*
X1508252Y4354829D01*
X1492757Y4349750D01*
X1456436Y4349750D01*
X1563370Y4437887D02*
G01*
X1573784Y4443221D01*
X1589278Y4458715D01*
X1589278Y4349750D01*
X3717038Y4458792D02*
G01*
X3717038Y4349572D01*
X3717038Y4458792D02*
G01*
X3753360Y4458792D01*
X3768854Y4453458D01*
X3779268Y4443044D01*
X3784602Y4432884D01*
X3789682Y4417136D01*
X3789682Y4391228D01*
X3784602Y4375734D01*
X3779268Y4365320D01*
X3768854Y4354906D01*
X3753360Y4349572D01*
X3717038Y4349572D01*
X3876042Y4458792D02*
G01*
X3823972Y4385894D01*
X3901950Y4385894D01*
X3876042Y4458792D02*
G01*
X3876042Y4349572D01*
X5634736Y4458715D02*
G01*
X5634736Y4349750D01*
X5634736Y4458715D02*
G01*
X5671058Y4458715D01*
X5686552Y4453636D01*
X5696965Y4443221D01*
X5702300Y4432807D01*
X5707379Y4417060D01*
X5707379Y4391152D01*
X5702300Y4375657D01*
X5696965Y4365244D01*
X5686552Y4354829D01*
X5671058Y4349750D01*
X5634736Y4349750D01*
X5804154Y4443221D02*
G01*
X5798820Y4453636D01*
X5783325Y4458715D01*
X5772911Y4458715D01*
X5757163Y4453636D01*
X5747004Y4437887D01*
X5741670Y4411979D01*
X5741670Y4386071D01*
X5747004Y4365244D01*
X5757163Y4354829D01*
X5772911Y4349750D01*
X5777991Y4349750D01*
X5793740Y4354829D01*
X5804154Y4365244D01*
X5809234Y4380737D01*
X5809234Y4386071D01*
X5804154Y4401565D01*
X5793740Y4411979D01*
X5777991Y4417060D01*
X5772911Y4417060D01*
X5757163Y4411979D01*
X5747004Y4401565D01*
X5741670Y4386071D01*
X5266436Y4454652D02*
G01*
X5266436Y4345431D01*
X5266436Y4454652D02*
G01*
X5302758Y4454652D01*
X5318252Y4449318D01*
X5328665Y4438904D01*
X5334000Y4428744D01*
X5339079Y4412995D01*
X5339079Y4387087D01*
X5334000Y4371594D01*
X5328665Y4361179D01*
X5318252Y4350765D01*
X5302758Y4345431D01*
X5266436Y4345431D01*
X5435854Y4454652D02*
G01*
X5383784Y4454652D01*
X5378704Y4407915D01*
X5383784Y4412995D01*
X5399277Y4418329D01*
X5415025Y4418329D01*
X5430520Y4412995D01*
X5440934Y4402581D01*
X5446013Y4387087D01*
X5446013Y4376673D01*
X5440934Y4361179D01*
X5430520Y4350765D01*
X5415025Y4345431D01*
X5399277Y4345431D01*
X5383784Y4350765D01*
X5378704Y4355845D01*
X5373370Y4366260D01*
X7552436Y4458715D02*
G01*
X7552436Y4349750D01*
X7552436Y4458715D02*
G01*
X7588758Y4458715D01*
X7604252Y4453636D01*
X7614665Y4443221D01*
X7620000Y4432807D01*
X7625079Y4417060D01*
X7625079Y4391152D01*
X7620000Y4375657D01*
X7614665Y4365244D01*
X7604252Y4354829D01*
X7588758Y4349750D01*
X7552436Y4349750D01*
X7685277Y4458715D02*
G01*
X7669784Y4453636D01*
X7664704Y4443221D01*
X7664704Y4432807D01*
X7669784Y4422394D01*
X7680197Y4417060D01*
X7701025Y4411979D01*
X7716520Y4406900D01*
X7726934Y4396486D01*
X7732013Y4386071D01*
X7732013Y4370323D01*
X7726934Y4359910D01*
X7721854Y4354829D01*
X7706106Y4349750D01*
X7685277Y4349750D01*
X7669784Y4354829D01*
X7664704Y4359910D01*
X7659370Y4370323D01*
X7659370Y4386071D01*
X7664704Y4396486D01*
X7674863Y4406900D01*
X7690611Y4411979D01*
X7711440Y4417060D01*
X7721854Y4422394D01*
X7726934Y4432807D01*
X7726934Y4443221D01*
X7721854Y4453636D01*
X7706106Y4458715D01*
X7685277Y4458715D01*
X7184136Y4454652D02*
G01*
X7184136Y4345431D01*
X7184136Y4454652D02*
G01*
X7220458Y4454652D01*
X7235952Y4449318D01*
X7246365Y4438904D01*
X7251700Y4428744D01*
X7256779Y4412995D01*
X7256779Y4387087D01*
X7251700Y4371594D01*
X7246365Y4361179D01*
X7235952Y4350765D01*
X7220458Y4345431D01*
X7184136Y4345431D01*
X7363713Y4454652D02*
G01*
X7311897Y4345431D01*
X7291070Y4454652D02*
G01*
X7363713Y4454652D01*
X4141355Y10935738D02*
G01*
X4141355Y10852612D01*
X4136158Y10837024D01*
X4130964Y10831829D01*
X4120573Y10826635D01*
X4110182Y10826635D01*
X4099791Y10831829D01*
X4094594Y10837024D01*
X4089400Y10852612D01*
X4089400Y10863003D01*
X4180840Y10909762D02*
G01*
X4180840Y10914956D01*
X4186034Y10925347D01*
X4191231Y10930544D01*
X4201622Y10935738D01*
X4222404Y10935738D01*
X4232795Y10930544D01*
X4237990Y10925347D01*
X4243184Y10914956D01*
X4243184Y10904565D01*
X4237990Y10894174D01*
X4227598Y10878588D01*
X4175645Y10826635D01*
X4248381Y10826635D01*
X6046381Y10935733D02*
G01*
X6046381Y10852607D01*
X6041184Y10837019D01*
X6035989Y10831824D01*
X6025598Y10826630D01*
X6015207Y10826630D01*
X6004816Y10831824D01*
X5999619Y10837019D01*
X5994425Y10852607D01*
X5994425Y10862998D01*
X6091059Y10935733D02*
G01*
X6148209Y10935733D01*
X6117038Y10894169D01*
X6132624Y10894169D01*
X6143015Y10888974D01*
X6148209Y10883780D01*
X6153406Y10868192D01*
X6153406Y10857801D01*
X6148209Y10842216D01*
X6137821Y10831824D01*
X6122233Y10826630D01*
X6106647Y10826630D01*
X6091059Y10831824D01*
X6085865Y10837019D01*
X6080671Y10847410D01*
X7964081Y10935733D02*
G01*
X7964081Y10852607D01*
X7958884Y10837019D01*
X7953689Y10831824D01*
X7943298Y10826630D01*
X7932907Y10826630D01*
X7922516Y10831824D01*
X7917319Y10837019D01*
X7912125Y10852607D01*
X7912125Y10862998D01*
X8050324Y10935733D02*
G01*
X7998371Y10862998D01*
X8076300Y10862998D01*
X8050324Y10935733D02*
G01*
X8050324Y10826630D01*
X2236391Y10935743D02*
G01*
X2236391Y10852617D01*
X2231194Y10837029D01*
X2226000Y10831835D01*
X2215608Y10826640D01*
X2205217Y10826640D01*
X2194826Y10831835D01*
X2189629Y10837029D01*
X2184435Y10852617D01*
X2184435Y10863008D01*
X2270681Y10914961D02*
G01*
X2281069Y10920158D01*
X2296657Y10935743D01*
X2296657Y10826640D01*
G36*
X1931619Y4227474D02*
G01*
X1931619Y4196994D01*
X1961134Y4196994D01*
X1961134Y4227474D01*
G37*
G36*
X1772666Y4227474D02*
G01*
X1772666Y4196994D01*
X1802180Y4196994D01*
X1802180Y4227474D01*
G37*
G36*
X3506419Y4227474D02*
G01*
X3506419Y4196994D01*
X3535934Y4196994D01*
X3535934Y4227474D01*
G37*
G36*
X3347465Y4227474D02*
G01*
X3347465Y4196994D01*
X3376980Y4196994D01*
X3376980Y4227474D01*
G37*
G36*
X1588719Y4227474D02*
G01*
X1588719Y4196994D01*
X1618234Y4196994D01*
X1618234Y4227474D01*
G37*
G36*
X1429766Y4227474D02*
G01*
X1429766Y4196994D01*
X1459280Y4196994D01*
X1459280Y4227474D01*
G37*
G36*
X3849319Y4227474D02*
G01*
X3849319Y4196994D01*
X3878834Y4196994D01*
X3878834Y4227474D01*
G37*
G36*
X3690365Y4227474D02*
G01*
X3690365Y4196994D01*
X3719880Y4196994D01*
X3719880Y4227474D01*
G37*
G36*
X5767019Y4227474D02*
G01*
X5767019Y4196994D01*
X5796534Y4196994D01*
X5796534Y4227474D01*
G37*
G36*
X5608066Y4227474D02*
G01*
X5608066Y4196994D01*
X5637580Y4196994D01*
X5637580Y4227474D01*
G37*
G36*
X5424119Y4227474D02*
G01*
X5424119Y4196994D01*
X5453634Y4196994D01*
X5453634Y4227474D01*
G37*
G36*
X5265166Y4227474D02*
G01*
X5265166Y4196994D01*
X5294680Y4196994D01*
X5294680Y4227474D01*
G37*
G36*
X7684770Y4227474D02*
G01*
X7684770Y4196994D01*
X7714234Y4196994D01*
X7714234Y4227474D01*
G37*
G36*
X7525766Y4227474D02*
G01*
X7525766Y4196994D01*
X7555280Y4196994D01*
X7555280Y4227474D01*
G37*
G36*
X7341870Y4227474D02*
G01*
X7341870Y4196994D01*
X7371334Y4196994D01*
X7371334Y4227474D01*
G37*
G36*
X7182866Y4227474D02*
G01*
X7182866Y4196994D01*
X7212380Y4196994D01*
X7212380Y4227474D01*
G37*
D12*
X1194307Y2960115D02*
G01*
X1194307Y1960118D01*
X2194306Y1960118D01*
X2194306Y2960115D01*
X1194307Y2960115D01*
X3112008Y2960115D02*
G01*
X3112008Y1960118D01*
X4112006Y1960118D01*
X4112006Y2960115D01*
X3112008Y2960115D01*
X5017008Y2960115D02*
G01*
X5017008Y1960118D01*
X6017006Y1960118D01*
X6017006Y2960115D01*
X5017008Y2960115D01*
X6934708Y2960115D02*
G01*
X6934708Y1960118D01*
X7934706Y1960118D01*
X7934706Y2960115D01*
X6934708Y2960115D01*
X1194307Y1829815D02*
G01*
X1194307Y829818D01*
X2194306Y829818D01*
X2194306Y1829815D01*
X1194307Y1829815D01*
X3112008Y1829815D02*
G01*
X3112008Y829818D01*
X4112006Y829818D01*
X4112006Y1829815D01*
X3112008Y1829815D01*
X5017008Y1829815D02*
G01*
X5017008Y829818D01*
X6017006Y829818D01*
X6017006Y1829815D01*
X5017008Y1829815D01*
X6934708Y1829815D02*
G01*
X6934708Y829818D01*
X7934706Y829818D01*
X7934706Y1829815D01*
X6934708Y1829815D01*
D11*
X1953519Y4204619D02*
G01*
X1953519Y3923380D01*
X1953519Y3923380D02*
G01*
X1936719Y3923380D01*
X1780280Y4204619D02*
G01*
X1780280Y3923380D01*
X1780280Y3923380D02*
G01*
X1797080Y3923380D01*
X1953519Y4168929D02*
G01*
X1780280Y4168929D01*
X3528319Y4204619D02*
G01*
X3528319Y3923380D01*
X3528319Y3923380D02*
G01*
X3511519Y3923380D01*
X3355080Y4204619D02*
G01*
X3355080Y3923380D01*
X3355080Y3923380D02*
G01*
X3371880Y3923380D01*
X3528319Y4168929D02*
G01*
X3355080Y4168929D01*
X1610619Y4204619D02*
G01*
X1610619Y3923380D01*
X1610619Y3923380D02*
G01*
X1593819Y3923380D01*
X1437380Y4204619D02*
G01*
X1437380Y3923380D01*
X1437380Y3923380D02*
G01*
X1454180Y3923380D01*
X1610619Y4168929D02*
G01*
X1437380Y4168929D01*
X3871221Y4204619D02*
G01*
X3871221Y3923380D01*
X3871221Y3923380D02*
G01*
X3854422Y3923380D01*
X3697983Y4204619D02*
G01*
X3697983Y3923380D01*
X3697983Y3923380D02*
G01*
X3714783Y3923380D01*
X3871221Y4168929D02*
G01*
X3697983Y4168929D01*
X5788924Y4204619D02*
G01*
X5788924Y3923380D01*
X5788924Y3923380D02*
G01*
X5772124Y3923380D01*
X5615686Y4204619D02*
G01*
X5615686Y3923380D01*
X5615686Y3923380D02*
G01*
X5632485Y3923380D01*
X5788924Y4168929D02*
G01*
X5615686Y4168929D01*
X5446021Y4204619D02*
G01*
X5446021Y3923380D01*
X5446021Y3923380D02*
G01*
X5429222Y3923380D01*
X5272783Y4204619D02*
G01*
X5272783Y3923380D01*
X5272783Y3923380D02*
G01*
X5289583Y3923380D01*
X5446021Y4168929D02*
G01*
X5272783Y4168929D01*
X7706626Y4204619D02*
G01*
X7706626Y3923380D01*
X7706626Y3923380D02*
G01*
X7689827Y3923380D01*
X7533388Y4204619D02*
G01*
X7533388Y3923380D01*
X7533388Y3923380D02*
G01*
X7550188Y3923380D01*
X7706626Y4168929D02*
G01*
X7533388Y4168929D01*
X7363724Y4204619D02*
G01*
X7363724Y3923380D01*
X7363724Y3923380D02*
G01*
X7346924Y3923380D01*
X7190486Y4204619D02*
G01*
X7190486Y3923380D01*
X7190486Y3923380D02*
G01*
X7207285Y3923380D01*
X7363724Y4168929D02*
G01*
X7190486Y4168929D01*
D13*
X3422599Y10985500D02*
G01*
X3422599Y10795000D01*
X3219500Y10983899D02*
G01*
X4019499Y10983899D01*
X4019499Y10783900D01*
X3219500Y10783900D01*
X3219500Y10983899D01*
X5327599Y10985500D02*
G01*
X5327599Y10795000D01*
X5124500Y10983899D02*
G01*
X5924499Y10983899D01*
X5924499Y10783900D01*
X5124500Y10783900D01*
X5124500Y10983899D01*
X7245299Y10985500D02*
G01*
X7245299Y10795000D01*
X7042200Y10983899D02*
G01*
X7842199Y10983899D01*
X7842199Y10783900D01*
X7042200Y10783900D01*
X7042200Y10983899D01*
X1504899Y10985500D02*
G01*
X1504899Y10795000D01*
X1301800Y10983899D02*
G01*
X2101799Y10983899D01*
X2101799Y10783900D01*
X1301800Y10783900D01*
X1301800Y10983899D01*
M02*
