M48
METRIC,LZ,000.000
;FILE_FORMAT=3:3
;TYPE=PLATED
;Layer: PTH_Through
;EasyEDA v6.5.29, 2023-07-18 11:29:47
;d241b5e9eba042f2855d0ef1ce65199e,5a6b42c53f6a479593ecc07194224c93,10
;Gerber Generator version 0.2
;Holesize 1 = 0.305 mm
T01C0.305
;Holesize 2 = 0.901 mm
T02C0.901
;Holesize 3 = 1.000 mm
T03C1.000
;Holesize 4 = 1.100 mm
T04C1.100
%
G05
G90
T01
X-011566Y020767
X-017916Y015687
X-017916Y012446
X-032521Y020955
X-032521Y052324
X-031886Y008763
X-031886Y053594
X-033156Y029972
X-033156Y051054
X-033791Y042164
X-033791Y049784
X-026171Y072390
X-026171Y048514
X-026806Y084455
X-026806Y047244
X-028076Y051689
X-028076Y044704
X-027441Y063246
X-027441Y045974
X-036449Y026670
X-017272Y026670
X-017281Y049784
X-017916Y038989
X-017916Y051054
X-017916Y059491
X-017916Y052324
X-017281Y080700
X-017281Y053594
X-006486Y038354
X-005724Y039624
X-001406Y021717
X-018796Y040894
X-018796Y021717
X031614Y026670
X072517Y081026
X058284Y026670
X058293Y081026
X-025536Y017587
X-025536Y014605
X-024774Y015687
X-024774Y012065
X-005715Y028702
X-041529Y028702
X-006477Y028067
X-044831Y028067
X-021980Y016637
X-021980Y021717
X-021980Y029972
X-011123Y042127
X-011123Y029972
X-021971Y019558
X023994Y019558
X-030480Y017272
X-006477Y029972
X-005715Y031623
X034154Y012700
X031614Y013335
X026534Y013970
X023994Y018415
X021454Y020447
X018914Y021082
X013834Y014605
X011294Y015240
X008754Y015875
X006214Y016510
X001134Y017145
X-001406Y017780
X076524Y013970
X074525Y013335
X072524Y012700
X060451Y018415
X060451Y068199
X059816Y020447
X059816Y045339
X059181Y021082
X059181Y022606
X081152Y014605
X081152Y073279
X080517Y015240
X080517Y068199
X079882Y015875
X079882Y050419
X079247Y016510
X079247Y045339
X078612Y017145
X078612Y027686
X077977Y017780
X077977Y022606
X-019685Y021717
T02
X076525Y088011
X074525Y088011
X072525Y088011
X070525Y088011
X076525Y001524
X074525Y001524
X072525Y001524
X070525Y001524
T03
X-028076Y017272
X-028076Y024892
X-028076Y022352
X-028076Y019812
X082668Y065659
X082668Y068199
X082668Y070739
X082668Y073279
X062348Y073279
X062348Y065659
X062348Y068199
X062348Y070739
X062348Y050419
X062348Y042799
X062348Y045339
X062348Y047879
X082668Y042799
X082668Y045339
X082668Y047879
X082668Y050419
X062348Y027686
X062348Y020066
X062348Y022606
X062348Y025146
X082668Y020066
X082668Y022606
X082668Y025146
X082668Y027686
X034154Y023749
X034154Y005969
X031614Y023749
X029074Y023749
X026534Y023749
X023994Y023749
X021454Y023749
X018914Y023749
X016374Y023749
X013834Y023749
X011294Y023749
X008754Y023749
X006214Y023749
X003674Y023749
X001134Y023749
X-001406Y023749
X-003946Y023749
X-006486Y023749
X-009026Y023749
X-011566Y023749
X-014106Y023749
X031614Y005969
X029074Y005969
X026534Y005969
X023994Y005969
X021454Y005969
X018914Y005969
X016374Y005969
X013834Y005969
X011294Y005969
X008754Y005969
X006214Y005969
X003674Y005969
X001134Y005969
X-001406Y005969
X-003946Y005969
X-006486Y005969
X-009026Y005969
X-011566Y005969
X-014106Y005969
X-014106Y014859
X-014106Y017399
X-014106Y012319
X-028076Y012065
X-028076Y014605
T04
X-036460Y076200G85X-036455Y076200
X-042960Y076200G85X-042955Y076200
X-036460Y080701G85X-036455Y080701
X-042957Y080701G85X-042957Y080701
X-039709Y082050G85X-039706Y082050
X-036110Y078450G85X-036105Y078450
X-039507Y074930G85X-039504Y074930
X-043317Y078486G85X-043314Y078486
X-036460Y054991G85X-036455Y054991
X-042960Y054991G85X-042955Y054991
X-036460Y059492G85X-036455Y059492
X-042957Y059492G85X-042957Y059492
X-039709Y060841G85X-039706Y060841
X-036110Y057241G85X-036105Y057241
X-039507Y053721G85X-039504Y053721
X-043317Y057277G85X-043314Y057277
X-036460Y033782G85X-036455Y033782
X-042960Y033782G85X-042955Y033782
X-036460Y038283G85X-036455Y038283
X-042957Y038283G85X-042957Y038283
X-039709Y039632G85X-039706Y039632
X-036110Y036032G85X-036105Y036032
X-039507Y032512G85X-039504Y032512
X-043317Y036068G85X-043314Y036068
X-036460Y012573G85X-036455Y012573
X-042960Y012573G85X-042955Y012573
X-036460Y017074G85X-036455Y017074
X-042957Y017074G85X-042957Y017074
X-039709Y018423G85X-039706Y018423
X-036110Y014823G85X-036105Y014823
X-039507Y011303G85X-039504Y011303
X-043317Y014859G85X-043314Y014859
M30
