G04 Layer: BottomPasteMaskLayer*
G04 EasyEDA v6.5.29, 2023-07-18 11:29:47*
G04 d241b5e9eba042f2855d0ef1ce65199e,5a6b42c53f6a479593ecc07194224c93,10*
G04 Gerber Generator version 0.2*
G04 Scale: 100 percent, Rotated: No, Reflected: No *
G04 Dimensions in millimeters *
G04 leading zeros omitted , absolute positions ,4 integer and 5 decimal *
%FSLAX45Y45*%
%MOMM*%

%AMMACRO1*21,1,$1,$2,0,0,$3*%
%ADD10MACRO1,2.592X2.2075X90.0000*%
%ADD11MACRO1,0.8X0.8X0.0000*%
%ADD12O,2.3880064X0.5739892*%
%ADD13MACRO1,0.8X0.9X0.0000*%
%ADD14MACRO1,0.532X1.072X-90.0000*%

%LPD*%
G36*
X-3202279Y1927910D02*
G01*
X-3207308Y1922881D01*
X-3207308Y1842922D01*
X-3202279Y1837893D01*
X-3178098Y1837893D01*
X-3178098Y1874926D01*
X-3145078Y1874926D01*
X-3145078Y1837893D01*
X-3122320Y1837893D01*
X-3117291Y1842922D01*
X-3117291Y1922881D01*
X-3122320Y1927910D01*
G37*
G36*
X-3202279Y1767890D02*
G01*
X-3207308Y1762912D01*
X-3207308Y1683918D01*
X-3202279Y1678889D01*
X-3122320Y1678889D01*
X-3117291Y1683918D01*
X-3117291Y1762912D01*
X-3122320Y1767890D01*
X-3145078Y1767890D01*
X-3145078Y1729892D01*
X-3178098Y1729892D01*
X-3178098Y1767890D01*
G37*
G36*
X-1033881Y3207308D02*
G01*
X-1038910Y3202279D01*
X-1038910Y3122320D01*
X-1033881Y3117291D01*
X-953922Y3117291D01*
X-948893Y3122320D01*
X-948893Y3146501D01*
X-985875Y3146501D01*
X-985875Y3179521D01*
X-948893Y3179521D01*
X-948893Y3202279D01*
X-953922Y3207308D01*
G37*
G36*
X-873912Y3207308D02*
G01*
X-878890Y3202279D01*
X-878890Y3179521D01*
X-840892Y3179521D01*
X-840892Y3146501D01*
X-878890Y3146501D01*
X-878890Y3122320D01*
X-873912Y3117291D01*
X-794918Y3117291D01*
X-789889Y3122320D01*
X-789889Y3202279D01*
X-794918Y3207308D01*
G37*
G36*
X-1033881Y3042208D02*
G01*
X-1038910Y3037179D01*
X-1038910Y2957220D01*
X-1033881Y2952191D01*
X-953922Y2952191D01*
X-948893Y2957220D01*
X-948893Y2981401D01*
X-985875Y2981401D01*
X-985875Y3014421D01*
X-948893Y3014421D01*
X-948893Y3037179D01*
X-953922Y3042208D01*
G37*
G36*
X-873912Y3042208D02*
G01*
X-878890Y3037179D01*
X-878890Y3014421D01*
X-840892Y3014421D01*
X-840892Y2981401D01*
X-878890Y2981401D01*
X-878890Y2957220D01*
X-873912Y2952191D01*
X-794918Y2952191D01*
X-789889Y2957220D01*
X-789889Y3037179D01*
X-794918Y3042208D01*
G37*
G36*
X-3993845Y7284008D02*
G01*
X-3998874Y7278979D01*
X-3998874Y7199020D01*
X-3993845Y7193991D01*
X-3913886Y7193991D01*
X-3908856Y7199020D01*
X-3908856Y7223201D01*
X-3945839Y7223201D01*
X-3945839Y7256221D01*
X-3908856Y7256221D01*
X-3908856Y7278979D01*
X-3913886Y7284008D01*
G37*
G36*
X-3833876Y7284008D02*
G01*
X-3838854Y7278979D01*
X-3838854Y7256221D01*
X-3800856Y7256221D01*
X-3800856Y7223201D01*
X-3838854Y7223201D01*
X-3838854Y7199020D01*
X-3833876Y7193991D01*
X-3754882Y7193991D01*
X-3749852Y7199020D01*
X-3749852Y7278979D01*
X-3754882Y7284008D01*
G37*
G36*
X-3834841Y8490508D02*
G01*
X-3839870Y8485479D01*
X-3839870Y8461298D01*
X-3802887Y8461298D01*
X-3802887Y8428278D01*
X-3839870Y8428278D01*
X-3839870Y8405520D01*
X-3834841Y8400491D01*
X-3754882Y8400491D01*
X-3749852Y8405520D01*
X-3749852Y8485479D01*
X-3754882Y8490508D01*
G37*
G36*
X-3993845Y8490508D02*
G01*
X-3998874Y8485479D01*
X-3998874Y8405520D01*
X-3993845Y8400491D01*
X-3914851Y8400491D01*
X-3909872Y8405520D01*
X-3909872Y8428278D01*
X-3947871Y8428278D01*
X-3947871Y8461298D01*
X-3909872Y8461298D01*
X-3909872Y8485479D01*
X-3914851Y8490508D01*
G37*
G36*
X-3993845Y6369608D02*
G01*
X-3998874Y6364579D01*
X-3998874Y6284620D01*
X-3993845Y6279591D01*
X-3913886Y6279591D01*
X-3908856Y6284620D01*
X-3908856Y6308801D01*
X-3945839Y6308801D01*
X-3945839Y6341821D01*
X-3908856Y6341821D01*
X-3908856Y6364579D01*
X-3913886Y6369608D01*
G37*
G36*
X-3833876Y6369608D02*
G01*
X-3838854Y6364579D01*
X-3838854Y6341821D01*
X-3800856Y6341821D01*
X-3800856Y6308801D01*
X-3838854Y6308801D01*
X-3838854Y6284620D01*
X-3833876Y6279591D01*
X-3754882Y6279591D01*
X-3749852Y6284620D01*
X-3749852Y6364579D01*
X-3754882Y6369608D01*
G37*
G36*
X-3993845Y5163108D02*
G01*
X-3998874Y5158079D01*
X-3998874Y5078120D01*
X-3993845Y5073091D01*
X-3913886Y5073091D01*
X-3908856Y5078120D01*
X-3908856Y5102301D01*
X-3945839Y5102301D01*
X-3945839Y5135321D01*
X-3908856Y5135321D01*
X-3908856Y5158079D01*
X-3913886Y5163108D01*
G37*
G36*
X-3833876Y5163108D02*
G01*
X-3838854Y5158079D01*
X-3838854Y5135321D01*
X-3800856Y5135321D01*
X-3800856Y5102301D01*
X-3838854Y5102301D01*
X-3838854Y5078120D01*
X-3833876Y5073091D01*
X-3754882Y5073091D01*
X-3749852Y5078120D01*
X-3749852Y5158079D01*
X-3754882Y5163108D01*
G37*
G36*
X-3993845Y3042208D02*
G01*
X-3998874Y3037179D01*
X-3998874Y2957220D01*
X-3993845Y2952191D01*
X-3913886Y2952191D01*
X-3908856Y2957220D01*
X-3908856Y2981401D01*
X-3945839Y2981401D01*
X-3945839Y3014421D01*
X-3908856Y3014421D01*
X-3908856Y3037179D01*
X-3913886Y3042208D01*
G37*
G36*
X-3833876Y3042208D02*
G01*
X-3838854Y3037179D01*
X-3838854Y3014421D01*
X-3800856Y3014421D01*
X-3800856Y2981401D01*
X-3838854Y2981401D01*
X-3838854Y2957220D01*
X-3833876Y2952191D01*
X-3754882Y2952191D01*
X-3749852Y2957220D01*
X-3749852Y3037179D01*
X-3754882Y3042208D01*
G37*
G36*
X-3993845Y4261408D02*
G01*
X-3998874Y4256379D01*
X-3998874Y4176420D01*
X-3993845Y4171391D01*
X-3913886Y4171391D01*
X-3908856Y4176420D01*
X-3908856Y4200601D01*
X-3945839Y4200601D01*
X-3945839Y4233621D01*
X-3908856Y4233621D01*
X-3908856Y4256379D01*
X-3913886Y4261408D01*
G37*
G36*
X-3833876Y4261408D02*
G01*
X-3838854Y4256379D01*
X-3838854Y4233621D01*
X-3800856Y4233621D01*
X-3800856Y4200601D01*
X-3838854Y4200601D01*
X-3838854Y4176420D01*
X-3833876Y4171391D01*
X-3754882Y4171391D01*
X-3749852Y4176420D01*
X-3749852Y4256379D01*
X-3754882Y4261408D01*
G37*
G36*
X-3993845Y921308D02*
G01*
X-3998874Y916279D01*
X-3998874Y836320D01*
X-3993845Y831291D01*
X-3913886Y831291D01*
X-3908856Y836320D01*
X-3908856Y860501D01*
X-3945839Y860501D01*
X-3945839Y893521D01*
X-3908856Y893521D01*
X-3908856Y916279D01*
X-3913886Y921308D01*
G37*
G36*
X-3833876Y921308D02*
G01*
X-3838854Y916279D01*
X-3838854Y893521D01*
X-3800856Y893521D01*
X-3800856Y860501D01*
X-3838854Y860501D01*
X-3838854Y836320D01*
X-3833876Y831291D01*
X-3754882Y831291D01*
X-3749852Y836320D01*
X-3749852Y916279D01*
X-3754882Y921308D01*
G37*
G36*
X-3993845Y2140508D02*
G01*
X-3998874Y2135479D01*
X-3998874Y2055520D01*
X-3993845Y2050491D01*
X-3913886Y2050491D01*
X-3908856Y2055520D01*
X-3908856Y2079701D01*
X-3945839Y2079701D01*
X-3945839Y2112721D01*
X-3908856Y2112721D01*
X-3908856Y2135479D01*
X-3913886Y2140508D01*
G37*
G36*
X-3833876Y2140508D02*
G01*
X-3838854Y2135479D01*
X-3838854Y2112721D01*
X-3800856Y2112721D01*
X-3800856Y2079701D01*
X-3838854Y2079701D01*
X-3838854Y2055520D01*
X-3833876Y2050491D01*
X-3754882Y2050491D01*
X-3749852Y2055520D01*
X-3749852Y2135479D01*
X-3754882Y2140508D01*
G37*
D10*
G01*
X7522875Y8102600D03*
G01*
X8225124Y8102600D03*
D11*
G01*
X-3340099Y1888489D03*
G01*
X-3340099Y1718310D03*
D12*
G01*
X-1456867Y5359400D03*
G01*
X-1456867Y5232400D03*
G01*
X-1456867Y5105400D03*
G01*
X-1456867Y4978400D03*
G01*
X-1456867Y4851400D03*
G01*
X-1456867Y4724400D03*
G01*
X-1456867Y4597400D03*
G01*
X-1456867Y4470400D03*
G01*
X-1456867Y4343400D03*
G01*
X-1456867Y4216400D03*
G01*
X-1456867Y4089400D03*
G01*
X-1456867Y3962400D03*
G01*
X-1456867Y3835400D03*
G01*
X-1456867Y3708400D03*
G01*
X-2405659Y5359400D03*
G01*
X-2405659Y5232400D03*
G01*
X-2405659Y5105400D03*
G01*
X-2405659Y4978400D03*
G01*
X-2405659Y4851400D03*
G01*
X-2405659Y4724400D03*
G01*
X-2405659Y4597400D03*
G01*
X-2405659Y4470400D03*
G01*
X-2405659Y4343400D03*
G01*
X-2405659Y4216400D03*
G01*
X-2405659Y4089400D03*
G01*
X-2405659Y3962400D03*
G01*
X-2405659Y3835400D03*
G01*
X-2405659Y3708400D03*
D13*
G01*
X-972263Y4343400D03*
G01*
X-1112263Y4343400D03*
D14*
G01*
X-2083053Y2266696D03*
G01*
X-2083053Y2171700D03*
G01*
X-2083053Y2076703D03*
G01*
X-2312873Y2076703D03*
G01*
X-2312873Y2171700D03*
G01*
X-2312873Y2266696D03*
G01*
X-2083053Y1758696D03*
G01*
X-2083053Y1663700D03*
G01*
X-2083053Y1568703D03*
G01*
X-2312873Y1568703D03*
G01*
X-2312873Y1663700D03*
G01*
X-2312873Y1758696D03*
M02*
