M48
METRIC,LZ,000.000
;FILE_FORMAT=3:3
;TYPE=PLATED
;Layer: PTH_Through_Via
;EasyEDA v6.5.29, 2023-07-18 10:02:35
;8a87558a6270435d8ad66e31a1dfd8bf,5a6b42c53f6a479593ecc07194224c93,10
;Gerber Generator version 0.2
;Holesize 1 = 0.305 mm
T01C0.305
%
G05
G90
T01
X037084Y083820
X037084Y076200
X037084Y073660
X037084Y068580
X037084Y066040
X043180Y093345
X043180Y096012
X043180Y098425
X060960Y078740
X064516Y078740
X067310Y078613
X070866Y078613
X036830Y100330
X036830Y089154
X038354Y100330
X038354Y091694
X006477Y091440
X006477Y088900
X031877Y076962
X031877Y069342
X031877Y066802
X031877Y064008
X031877Y072390
X031877Y059690
X055753Y076454
X056261Y065024
X002286Y090170
X054737Y087884
X019050Y049784
X012954Y049784
X025146Y049784
X007747Y047117
X030607Y047117
X012954Y047117
X019050Y047117
X025146Y047117
X024196Y049657
X026096Y049657
X031877Y091440
X031877Y093980
X040513Y096139
X040513Y098933
M30
