G04 Layer: BottomSolderMaskLayer*
G04 EasyEDA v6.5.29, 2023-07-18 10:02:35*
G04 8a87558a6270435d8ad66e31a1dfd8bf,5a6b42c53f6a479593ecc07194224c93,10*
G04 Gerber Generator version 0.2*
G04 Scale: 100 percent, Rotated: No, Reflected: No *
G04 Dimensions in millimeters *
G04 leading zeros omitted , absolute positions ,4 integer and 5 decimal *
%FSLAX45Y45*%
%MOMM*%

%AMMACRO1*1,1,$1,$2,$3*1,1,$1,$4,$5*1,1,$1,0-$2,0-$3*1,1,$1,0-$4,0-$5*20,1,$1,$2,$3,$4,$5,0*20,1,$1,$4,$5,0-$2,0-$3,0*20,1,$1,0-$2,0-$3,0-$4,0-$5,0*20,1,$1,0-$4,0-$5,$2,$3,0*4,1,4,$2,$3,$4,$5,0-$2,0-$3,0-$4,0-$5,$2,$3,0*%
%ADD10C,0.2032*%
%ADD11MACRO1,0.1016X0.432X0.4032X-0.432X0.4032*%
%ADD12MACRO1,0.1016X0.432X-0.4032X-0.432X-0.4032*%
%ADD13MACRO1,0.1016X0.3X0.775X-0.3X0.775*%
%ADD14MACRO1,0.1016X0.75X1X-0.75X1*%
%ADD15MACRO1,0.1016X-0.4X-0.4X0.4X-0.4*%
%ADD16MACRO1,0.1016X1.7496X0.7033X-1.7496X0.7033*%
%ADD17MACRO1,0.1016X1.7496X-0.7033X-1.7496X-0.7033*%
%ADD18MACRO1,0.1016X-0.266X-0.536X0.266X-0.536*%
%ADD19MACRO1,0.1016X0.4032X-0.432X0.4032X0.432*%
%ADD20MACRO1,0.1016X-0.4032X-0.432X-0.4032X0.432*%
%ADD21MACRO1,0.1016X0.5188X0.266X0.5188X-0.266*%
%ADD22MACRO1,0.1016X1.296X1.1038X-1.296X1.1038*%
%ADD23MACRO1,0.1016X1.296X-1.1038X-1.296X-1.1038*%
%ADD24MACRO1,0.1016X-0.535X-0.3X0.535X-0.3*%
%ADD25MACRO1,0.1016X-0.575X0.475X-0.575X-0.475*%
%ADD26MACRO1,0.1016X0.6885X-0.5663X-0.6885X-0.5663*%
%ADD27MACRO1,0.1016X0.6885X0.5663X-0.6885X0.5663*%
%ADD28MACRO1,0.1016X0.9X-0.9X0.9X0.9*%
%ADD29C,1.9016*%
%ADD30MACRO1,0.1016X-0.9X-0.9X-0.9X0.9*%
%ADD31C,5.2032*%
%ADD32C,1.8016*%
%ADD33C,3.0000*%
%ADD34C,0.0118*%

%LPD*%
D10*
X6962673Y9295363D02*
G01*
X6962673Y9152181D01*
X7010400Y9295363D02*
G01*
X6914944Y9295363D01*
X6869945Y9295363D02*
G01*
X6869945Y9152181D01*
X6869945Y9295363D02*
G01*
X6808581Y9295363D01*
X6788127Y9288546D01*
X6781309Y9281726D01*
X6774489Y9268091D01*
X6774489Y9254454D01*
X6781309Y9240817D01*
X6788127Y9233999D01*
X6808581Y9227182D01*
X6869945Y9227182D01*
X6822219Y9227182D02*
G01*
X6774489Y9152181D01*
X6674944Y9295363D02*
G01*
X6729491Y9152181D01*
X6674944Y9295363D02*
G01*
X6620400Y9152181D01*
X6709036Y9199907D02*
G01*
X6640855Y9199907D01*
X6575399Y9295363D02*
G01*
X6575399Y9152181D01*
X6575399Y9295363D02*
G01*
X6479946Y9152181D01*
X6479946Y9295363D02*
G01*
X6479946Y9152181D01*
X6339492Y9274909D02*
G01*
X6353126Y9288546D01*
X6373581Y9295363D01*
X6400853Y9295363D01*
X6421307Y9288546D01*
X6434945Y9274909D01*
X6434945Y9261271D01*
X6428127Y9247637D01*
X6421307Y9240817D01*
X6407673Y9233999D01*
X6366763Y9220362D01*
X6353126Y9213545D01*
X6346309Y9206727D01*
X6339492Y9193090D01*
X6339492Y9172635D01*
X6353126Y9159001D01*
X6373581Y9152181D01*
X6400853Y9152181D01*
X6421307Y9159001D01*
X6434945Y9172635D01*
X7023100Y9066763D02*
G01*
X7023100Y8923581D01*
X7023100Y9066763D02*
G01*
X6961736Y9066763D01*
X6941281Y9059946D01*
X6934464Y9053126D01*
X6927644Y9039491D01*
X6927644Y9025854D01*
X6934464Y9012217D01*
X6941281Y9005399D01*
X6961736Y8998582D01*
X7023100Y8998582D01*
X6975373Y8998582D02*
G01*
X6927644Y8923581D01*
X6882645Y9066763D02*
G01*
X6882645Y8923581D01*
X6735373Y9032671D02*
G01*
X6742191Y9046309D01*
X6755828Y9059946D01*
X6769463Y9066763D01*
X6796735Y9066763D01*
X6810372Y9059946D01*
X6824009Y9046309D01*
X6830827Y9032671D01*
X6837644Y9012217D01*
X6837644Y8978127D01*
X6830827Y8957673D01*
X6824009Y8944035D01*
X6810372Y8930401D01*
X6796735Y8923581D01*
X6769463Y8923581D01*
X6755828Y8930401D01*
X6742191Y8944035D01*
X6735373Y8957673D01*
X6735373Y8978127D01*
X6769463Y8978127D02*
G01*
X6735373Y8978127D01*
X6690372Y9066763D02*
G01*
X6690372Y8923581D01*
X6594916Y9066763D02*
G01*
X6594916Y8923581D01*
X6690372Y8998582D02*
G01*
X6594916Y8998582D01*
X6502191Y9066763D02*
G01*
X6502191Y8923581D01*
X6549918Y9066763D02*
G01*
X6454462Y9066763D01*
X6314008Y9046309D02*
G01*
X6327645Y9059946D01*
X6348100Y9066763D01*
X6375372Y9066763D01*
X6395826Y9059946D01*
X6409463Y9046309D01*
X6409463Y9032671D01*
X6402646Y9019037D01*
X6395826Y9012217D01*
X6382191Y9005399D01*
X6341282Y8991762D01*
X6327645Y8984945D01*
X6320828Y8978127D01*
X6314008Y8964490D01*
X6314008Y8944035D01*
X6327645Y8930401D01*
X6348100Y8923581D01*
X6375372Y8923581D01*
X6395826Y8930401D01*
X6409463Y8944035D01*
D11*
G01*
X6400800Y8078075D03*
D12*
G01*
X6400800Y8228724D03*
D11*
G01*
X7035800Y8078075D03*
D12*
G01*
X7035800Y8228724D03*
D13*
G01*
X2004999Y4549851D03*
G01*
X1905000Y4549851D03*
G01*
X1805000Y4549851D03*
D14*
G01*
X1674999Y4162351D03*
G01*
X2134998Y4162351D03*
D13*
G01*
X1344599Y4549851D03*
G01*
X1244600Y4549851D03*
G01*
X1144600Y4549851D03*
D14*
G01*
X1014599Y4162351D03*
G01*
X1474598Y4162351D03*
D15*
G01*
X6146800Y8238489D03*
G01*
X6146800Y8068310D03*
G01*
X6781800Y8238489D03*
G01*
X6781800Y8068310D03*
D16*
G01*
X6273800Y5999566D03*
D17*
G01*
X6273800Y6370233D03*
D18*
G01*
X1810003Y5080609D03*
G01*
X1905000Y5080609D03*
G01*
X1999995Y5080609D03*
G01*
X1999995Y4850790D03*
G01*
X1905000Y4850790D03*
G01*
X1810003Y4850790D03*
G01*
X2419604Y5080609D03*
G01*
X2514600Y5080609D03*
G01*
X2609595Y5080609D03*
G01*
X2609595Y4850790D03*
G01*
X2514600Y4850790D03*
G01*
X2419604Y4850790D03*
D19*
G01*
X4001375Y9169400D03*
D20*
G01*
X4152024Y9169400D03*
D19*
G01*
X4001375Y8915400D03*
D20*
G01*
X4152024Y8915400D03*
D19*
G01*
X4001375Y8636000D03*
D20*
G01*
X4152024Y8636000D03*
D19*
G01*
X4001375Y8382000D03*
D20*
G01*
X4152024Y8382000D03*
D19*
G01*
X4001375Y8153400D03*
D20*
G01*
X4152024Y8153400D03*
D19*
G01*
X4001375Y7899400D03*
D20*
G01*
X4152024Y7899400D03*
D19*
G01*
X4001375Y7620000D03*
D20*
G01*
X4152024Y7620000D03*
D19*
G01*
X4001375Y7366000D03*
D20*
G01*
X4152024Y7366000D03*
D19*
G01*
X4001375Y7112000D03*
D20*
G01*
X4152024Y7112000D03*
D19*
G01*
X4001375Y6858000D03*
D20*
G01*
X4152024Y6858000D03*
D19*
G01*
X4001375Y6604000D03*
D20*
G01*
X4152024Y6604000D03*
D19*
G01*
X4001375Y6362700D03*
D20*
G01*
X4152024Y6362700D03*
D21*
G01*
X4555125Y10039099D03*
G01*
X4555125Y9849100D03*
G01*
X4334874Y9944100D03*
G01*
X4174125Y9797799D03*
G01*
X4174125Y9607800D03*
G01*
X3953874Y9702800D03*
G01*
X4555125Y9531099D03*
G01*
X4555125Y9341100D03*
G01*
X4334874Y9436100D03*
D18*
G01*
X1200403Y5080609D03*
G01*
X1295400Y5080609D03*
G01*
X1390396Y5080609D03*
G01*
X1390396Y4850790D03*
G01*
X1295400Y4850790D03*
G01*
X1200403Y4850790D03*
D22*
G01*
X6273800Y7167275D03*
D23*
G01*
X6273800Y7869524D03*
D19*
G01*
X3252075Y9525000D03*
D20*
G01*
X3402724Y9525000D03*
D19*
G01*
X3252075Y9271000D03*
D20*
G01*
X3402724Y9271000D03*
D19*
G01*
X3252075Y9017000D03*
D20*
G01*
X3402724Y9017000D03*
D22*
G01*
X6908800Y7167275D03*
D23*
G01*
X6908800Y7869524D03*
D24*
G01*
X542599Y8807196D03*
G01*
X542599Y8617204D03*
G01*
X295600Y8712200D03*
D19*
G01*
X394575Y9017000D03*
D20*
G01*
X545224Y9017000D03*
D19*
G01*
X5322175Y6121400D03*
D20*
G01*
X5472824Y6121400D03*
D19*
G01*
X5322175Y6375400D03*
D20*
G01*
X5472824Y6375400D03*
D19*
G01*
X5322175Y6629400D03*
D20*
G01*
X5472824Y6629400D03*
D19*
G01*
X5322175Y6883400D03*
D20*
G01*
X5472824Y6883400D03*
D19*
G01*
X5322175Y5092700D03*
D20*
G01*
X5472824Y5092700D03*
D19*
G01*
X5322175Y5359400D03*
D20*
G01*
X5472824Y5359400D03*
D19*
G01*
X5322175Y5613400D03*
D20*
G01*
X5472824Y5613400D03*
D19*
G01*
X5322175Y5867400D03*
D20*
G01*
X5472824Y5867400D03*
D25*
G01*
X6400800Y6925640D03*
G01*
X6400800Y6587159D03*
D26*
G01*
X6146803Y6789526D03*
D27*
G01*
X6146803Y6596273D03*
D28*
G01*
X3809992Y3797289D03*
D29*
G01*
X4064000Y3797300D03*
G01*
X3810000Y4051300D03*
G01*
X4064000Y4051300D03*
G01*
X3810000Y4305300D03*
G01*
X4064000Y4305300D03*
G01*
X3810000Y4559300D03*
G01*
X4064000Y4559300D03*
G01*
X3810000Y4813300D03*
G01*
X4064000Y4813300D03*
G01*
X3810000Y5067300D03*
G01*
X4064000Y5067300D03*
G01*
X3810000Y5321300D03*
G01*
X4064000Y5321300D03*
G01*
X3810000Y5575300D03*
G01*
X4064000Y5575300D03*
G01*
X4876800Y9931400D03*
D30*
G01*
X4876800Y5105400D03*
D29*
G01*
X4876800Y5359400D03*
G01*
X4876800Y5613400D03*
G01*
X4876800Y5867400D03*
G01*
X4876800Y6121400D03*
G01*
X4876800Y6375400D03*
G01*
X4876800Y6629400D03*
G01*
X4876800Y6883400D03*
G01*
X4876800Y7137400D03*
G01*
X4876800Y7391400D03*
G01*
X4876800Y7645400D03*
G01*
X4876800Y7899400D03*
G01*
X4876800Y8153400D03*
G01*
X4876800Y8407400D03*
G01*
X4876800Y8661400D03*
G01*
X4876800Y8915400D03*
G01*
X4876800Y9169400D03*
G01*
X4876800Y9423400D03*
G01*
X4876800Y9677400D03*
G01*
X7543800Y9931400D03*
D30*
G01*
X7543800Y5105400D03*
D29*
G01*
X7543800Y5359400D03*
G01*
X7543800Y5613400D03*
G01*
X7543800Y5867400D03*
G01*
X7543800Y6121400D03*
G01*
X7543800Y6375400D03*
G01*
X7543800Y6629400D03*
G01*
X7543800Y6883400D03*
G01*
X7543800Y7137400D03*
G01*
X7543800Y7391400D03*
G01*
X7543800Y7645400D03*
G01*
X7543800Y7899400D03*
G01*
X7543800Y8153400D03*
G01*
X7543800Y8407400D03*
G01*
X7543800Y8661400D03*
G01*
X7543800Y8915400D03*
G01*
X7543800Y9169400D03*
G01*
X7543800Y9423400D03*
G01*
X7543800Y9677400D03*
G01*
X5765800Y9931400D03*
D30*
G01*
X5765800Y5105400D03*
D29*
G01*
X5765800Y5359400D03*
G01*
X5765800Y5613400D03*
G01*
X5765800Y5867400D03*
G01*
X5765800Y6121400D03*
G01*
X5765800Y6375400D03*
G01*
X5765800Y6629400D03*
G01*
X5765800Y6883400D03*
G01*
X5765800Y7137400D03*
G01*
X5765800Y7391400D03*
G01*
X5765800Y7645400D03*
G01*
X5765800Y7899400D03*
G01*
X5765800Y8153400D03*
G01*
X5765800Y8407400D03*
G01*
X5765800Y8661400D03*
G01*
X5765800Y8915400D03*
G01*
X5765800Y9169400D03*
G01*
X5765800Y9423400D03*
G01*
X5765800Y9677400D03*
D31*
G01*
X386105Y4782007D03*
G01*
X8166100Y4782007D03*
G01*
X386105Y9652000D03*
G01*
X8166100Y9652000D03*
D32*
G01*
X1016000Y10287000D03*
G01*
X2794000Y10287000D03*
G01*
X1016000Y10033000D03*
G01*
X1016000Y9779000D03*
G01*
X1016000Y9525000D03*
G01*
X1016000Y9271000D03*
G01*
X1016000Y9017000D03*
G01*
X1016000Y8763000D03*
G01*
X1016000Y8509000D03*
G01*
X1016000Y8255000D03*
G01*
X1016000Y8001000D03*
G01*
X1016000Y7747000D03*
G01*
X1016000Y7493000D03*
G01*
X1016000Y7239000D03*
G01*
X1016000Y6985000D03*
G01*
X1016000Y6731000D03*
G01*
X1016000Y6477000D03*
G01*
X1016000Y6223000D03*
G01*
X1016000Y5969000D03*
G01*
X1016000Y5715000D03*
G01*
X1016000Y5461000D03*
G01*
X2794000Y10033000D03*
G01*
X2794000Y9779000D03*
G01*
X2794000Y9525000D03*
G01*
X2794000Y9271000D03*
G01*
X2794000Y9017000D03*
G01*
X2794000Y8763000D03*
G01*
X2794000Y8509000D03*
G01*
X2794000Y8255000D03*
G01*
X2794000Y8001000D03*
G01*
X2794000Y7747000D03*
G01*
X2794000Y7493000D03*
G01*
X2794000Y7239000D03*
G01*
X2794000Y6985000D03*
G01*
X2794000Y6731000D03*
G01*
X2794000Y6477000D03*
G01*
X2794000Y6223000D03*
G01*
X2794000Y5969000D03*
G01*
X2794000Y5715000D03*
G01*
X2794000Y5461000D03*
G01*
X1905000Y5461000D03*
G01*
X1651000Y5461000D03*
G01*
X2159000Y5461000D03*
D33*
G01*
X999997Y10773999D03*
G01*
X16432001Y10773999D03*
G01*
X1499996Y-5117398D03*
G01*
X15932002Y-5117398D03*
G36*
X2801620Y10387329D02*
G01*
X3065779Y10387329D01*
X3065779Y10186669D01*
X2801620Y10186669D01*
G37*
G36*
X2801620Y10133329D02*
G01*
X3065779Y10133329D01*
X3065779Y9932669D01*
X2801620Y9932669D01*
G37*
G36*
X2801620Y9879329D02*
G01*
X3065779Y9879329D01*
X3065779Y9678669D01*
X2801620Y9678669D01*
G37*
G36*
X2801620Y9625329D02*
G01*
X3065779Y9625329D01*
X3065779Y9424669D01*
X2801620Y9424669D01*
G37*
G36*
X2801620Y9371329D02*
G01*
X3065779Y9371329D01*
X3065779Y9170669D01*
X2801620Y9170669D01*
G37*
G36*
X2801620Y9117329D02*
G01*
X3065779Y9117329D01*
X3065779Y8916669D01*
X2801620Y8916669D01*
G37*
G36*
X2801620Y8863329D02*
G01*
X3065779Y8863329D01*
X3065779Y8662669D01*
X2801620Y8662669D01*
G37*
G36*
X2801620Y8609329D02*
G01*
X3065779Y8609329D01*
X3065779Y8408669D01*
X2801620Y8408669D01*
G37*
G36*
X2801620Y8355329D02*
G01*
X3065779Y8355329D01*
X3065779Y8154669D01*
X2801620Y8154669D01*
G37*
G36*
X2801620Y8101329D02*
G01*
X3065779Y8101329D01*
X3065779Y7900669D01*
X2801620Y7900669D01*
G37*
G36*
X2801620Y7847329D02*
G01*
X3065779Y7847329D01*
X3065779Y7646669D01*
X2801620Y7646669D01*
G37*
G36*
X2801620Y7593329D02*
G01*
X3065779Y7593329D01*
X3065779Y7392669D01*
X2801620Y7392669D01*
G37*
G36*
X2801620Y7339329D02*
G01*
X3065779Y7339329D01*
X3065779Y7138669D01*
X2801620Y7138669D01*
G37*
G36*
X2801620Y7085329D02*
G01*
X3065779Y7085329D01*
X3065779Y6884669D01*
X2801620Y6884669D01*
G37*
G36*
X2801620Y6831329D02*
G01*
X3065779Y6831329D01*
X3065779Y6630669D01*
X2801620Y6630669D01*
G37*
G36*
X2801620Y6577329D02*
G01*
X3065779Y6577329D01*
X3065779Y6376669D01*
X2801620Y6376669D01*
G37*
G36*
X2801620Y6323329D02*
G01*
X3065779Y6323329D01*
X3065779Y6122669D01*
X2801620Y6122669D01*
G37*
G36*
X2801620Y6069329D02*
G01*
X3065779Y6069329D01*
X3065779Y5868669D01*
X2801620Y5868669D01*
G37*
G36*
X2801620Y5815329D02*
G01*
X3065779Y5815329D01*
X3065779Y5614669D01*
X2801620Y5614669D01*
G37*
G36*
X2801620Y5561329D02*
G01*
X3065779Y5561329D01*
X3065779Y5360669D01*
X2801620Y5360669D01*
G37*
G36*
X769620Y5561329D02*
G01*
X1033780Y5561329D01*
X1033780Y5360669D01*
X769620Y5360669D01*
G37*
G36*
X769620Y5815329D02*
G01*
X1033780Y5815329D01*
X1033780Y5614669D01*
X769620Y5614669D01*
G37*
G36*
X769620Y6069329D02*
G01*
X1033780Y6069329D01*
X1033780Y5868669D01*
X769620Y5868669D01*
G37*
G36*
X769620Y6323329D02*
G01*
X1033780Y6323329D01*
X1033780Y6122669D01*
X769620Y6122669D01*
G37*
G36*
X769620Y6577329D02*
G01*
X1033780Y6577329D01*
X1033780Y6376669D01*
X769620Y6376669D01*
G37*
G36*
X769620Y6831329D02*
G01*
X1033780Y6831329D01*
X1033780Y6630669D01*
X769620Y6630669D01*
G37*
G36*
X769620Y7085329D02*
G01*
X1033780Y7085329D01*
X1033780Y6884669D01*
X769620Y6884669D01*
G37*
G36*
X769620Y7339329D02*
G01*
X1033780Y7339329D01*
X1033780Y7138669D01*
X769620Y7138669D01*
G37*
G36*
X769620Y7593329D02*
G01*
X1033780Y7593329D01*
X1033780Y7392669D01*
X769620Y7392669D01*
G37*
G36*
X769620Y7847329D02*
G01*
X1033780Y7847329D01*
X1033780Y7646669D01*
X769620Y7646669D01*
G37*
G36*
X769620Y8101329D02*
G01*
X1033780Y8101329D01*
X1033780Y7900669D01*
X769620Y7900669D01*
G37*
G36*
X769620Y8355329D02*
G01*
X1033780Y8355329D01*
X1033780Y8154669D01*
X769620Y8154669D01*
G37*
G36*
X769620Y8609329D02*
G01*
X1033780Y8609329D01*
X1033780Y8408669D01*
X769620Y8408669D01*
G37*
G36*
X769620Y8863329D02*
G01*
X1033780Y8863329D01*
X1033780Y8662669D01*
X769620Y8662669D01*
G37*
G36*
X769620Y9117329D02*
G01*
X1033780Y9117329D01*
X1033780Y8916669D01*
X769620Y8916669D01*
G37*
G36*
X769620Y9371329D02*
G01*
X1033780Y9371329D01*
X1033780Y9170669D01*
X769620Y9170669D01*
G37*
G36*
X769620Y9625329D02*
G01*
X1033780Y9625329D01*
X1033780Y9424669D01*
X769620Y9424669D01*
G37*
G36*
X769620Y9879329D02*
G01*
X1033780Y9879329D01*
X1033780Y9678669D01*
X769620Y9678669D01*
G37*
G36*
X769620Y10133329D02*
G01*
X1033780Y10133329D01*
X1033780Y9932669D01*
X769620Y9932669D01*
G37*
G36*
X769620Y10387329D02*
G01*
X1033780Y10387329D01*
X1033780Y10186669D01*
X769620Y10186669D01*
G37*
G36*
X2059406Y5478779D02*
G01*
X2260066Y5478779D01*
X2260066Y5214619D01*
X2059406Y5214619D01*
G37*
G36*
X1805406Y5478779D02*
G01*
X2006066Y5478779D01*
X2006066Y5214619D01*
X1805406Y5214619D01*
G37*
G36*
X1551406Y5478779D02*
G01*
X1752066Y5478779D01*
X1752066Y5214619D01*
X1551406Y5214619D01*
G37*
M02*
