G04 Layer: BottomSilkscreenLayer*
G04 EasyEDA v6.5.29, 2023-07-18 10:02:35*
G04 8a87558a6270435d8ad66e31a1dfd8bf,5a6b42c53f6a479593ecc07194224c93,10*
G04 Gerber Generator version 0.2*
G04 Scale: 100 percent, Rotated: No, Reflected: No *
G04 Dimensions in millimeters *
G04 leading zeros omitted , absolute positions ,4 integer and 5 decimal *
%FSLAX45Y45*%
%MOMM*%

%ADD10C,0.2032*%
%ADD11C,0.2030*%
%ADD12C,0.1524*%
%ADD13C,0.2540*%
%ADD14C,0.1520*%
%ADD15C,0.3000*%
%ADD16C,0.0110*%

%LPD*%
G36*
X5744514Y4355033D02*
G01*
X5478983Y4354626D01*
X5364988Y4354068D01*
X5266334Y4353204D01*
X5192369Y4351985D01*
X5161635Y4351274D01*
X5131511Y4350258D01*
X5108549Y4349242D01*
X5086502Y4347972D01*
X5066436Y4346346D01*
X5053330Y4344924D01*
X5045100Y4343704D01*
X5037023Y4342180D01*
X5028031Y4339793D01*
X5022138Y4337456D01*
X5017922Y4334814D01*
X5016500Y4333595D01*
X5014061Y4330649D01*
X5012588Y4327753D01*
X5008727Y4316526D01*
X5006949Y4312716D01*
X4992065Y4287367D01*
X4992065Y3911904D01*
X5021021Y3911904D01*
X5021275Y4102760D01*
X5021935Y4177385D01*
X5022494Y4206798D01*
X5023256Y4231538D01*
X5024272Y4252010D01*
X5025491Y4268724D01*
X5027066Y4282084D01*
X5028895Y4292498D01*
X5029962Y4296816D01*
X5031130Y4300524D01*
X5033721Y4306519D01*
X5036718Y4310938D01*
X5040172Y4314291D01*
X5044084Y4316933D01*
X5049672Y4320032D01*
X5052974Y4320590D01*
X5073243Y4321606D01*
X5111851Y4322521D01*
X5173014Y4323384D01*
X5255260Y4324096D01*
X5467502Y4325162D01*
X5620308Y4325569D01*
X5952083Y4325975D01*
X7233412Y4326026D01*
X7233412Y3463696D01*
X7262418Y3463696D01*
X7262418Y4326026D01*
X7705191Y4326229D01*
X7822692Y4326890D01*
X7887766Y4327906D01*
X7893558Y4328210D01*
X7898536Y4329125D01*
X7902956Y4329226D01*
X7907832Y4328718D01*
X7913014Y4327652D01*
X7918348Y4326026D01*
X7923784Y4323994D01*
X7929168Y4321556D01*
X7934401Y4318762D01*
X7939328Y4315612D01*
X7943850Y4312259D01*
X7947863Y4308652D01*
X7951774Y4304182D01*
X7954721Y4299813D01*
X7956346Y4296054D01*
X7957769Y4290974D01*
X7958937Y4283964D01*
X7959953Y4274413D01*
X7960817Y4261866D01*
X7962036Y4225239D01*
X7962747Y4169460D01*
X7963052Y4089908D01*
X7963103Y3780129D01*
X7962849Y3678072D01*
X7962341Y3611118D01*
X7961528Y3563010D01*
X7960969Y3545027D01*
X7959496Y3518966D01*
X7958531Y3510127D01*
X7957464Y3503472D01*
X7956245Y3498646D01*
X7954873Y3495192D01*
X7952740Y3491839D01*
X7947710Y3485337D01*
X7945577Y3483051D01*
X7943189Y3480917D01*
X7940548Y3478936D01*
X7937550Y3477158D01*
X7934096Y3475482D01*
X7930083Y3473958D01*
X7925511Y3472586D01*
X7920228Y3471316D01*
X7907324Y3469182D01*
X7890713Y3467506D01*
X7869783Y3466185D01*
X7843875Y3465220D01*
X7812328Y3464509D01*
X7729931Y3463848D01*
X7677759Y3463696D01*
X5626557Y3463747D01*
X5410911Y3464153D01*
X5293055Y3464864D01*
X5203494Y3465982D01*
X5138216Y3467709D01*
X5113426Y3468827D01*
X5093157Y3470097D01*
X5073446Y3471976D01*
X5065674Y3473043D01*
X5054600Y3475177D01*
X5047538Y3477361D01*
X5044135Y3478784D01*
X5040985Y3480714D01*
X5039309Y3482035D01*
X5036362Y3485337D01*
X5030114Y3495852D01*
X5028590Y3499154D01*
X5027269Y3503574D01*
X5026101Y3509518D01*
X5025085Y3517493D01*
X5024221Y3527856D01*
X5023459Y3541115D01*
X5022342Y3578047D01*
X5021630Y3631793D01*
X5021224Y3705860D01*
X5021021Y3911904D01*
X4992065Y3911904D01*
X4992268Y3701287D01*
X4992674Y3625697D01*
X4993386Y3571494D01*
X4994605Y3534714D01*
X4995367Y3521557D01*
X4996332Y3511296D01*
X4997450Y3503320D01*
X4998720Y3497224D01*
X5000193Y3492500D01*
X5001869Y3488537D01*
X5005374Y3482441D01*
X5008473Y3477869D01*
X5012080Y3473246D01*
X5015992Y3468674D01*
X5020157Y3464255D01*
X5024374Y3460191D01*
X5028590Y3456584D01*
X5032654Y3453536D01*
X5051704Y3440531D01*
X7264857Y3440734D01*
X7544917Y3441141D01*
X7668158Y3441547D01*
X7753502Y3442106D01*
X7822387Y3442817D01*
X7876895Y3443935D01*
X7910728Y3445205D01*
X7922463Y3445967D01*
X7933740Y3447135D01*
X7939582Y3448100D01*
X7944205Y3449269D01*
X7947406Y3450539D01*
X7949488Y3451656D01*
X7954213Y3454755D01*
X7958429Y3458006D01*
X7962696Y3461715D01*
X7966913Y3465728D01*
X7970926Y3469944D01*
X7974634Y3474212D01*
X7977886Y3478428D01*
X7982102Y3485032D01*
X7983474Y3487724D01*
X7985455Y3493211D01*
X7986775Y3499104D01*
X7987944Y3506927D01*
X7988909Y3517239D01*
X7989722Y3530600D01*
X7990382Y3547567D01*
X7991297Y3594557D01*
X7991805Y3662629D01*
X7992059Y3814064D01*
X7991957Y4100982D01*
X7991551Y4178096D01*
X7990789Y4232503D01*
X7989570Y4268520D01*
X7988706Y4281068D01*
X7987690Y4290720D01*
X7986471Y4297984D01*
X7985048Y4303471D01*
X7983474Y4307738D01*
X7981594Y4311345D01*
X7977886Y4317085D01*
X7974634Y4321251D01*
X7970926Y4325518D01*
X7966913Y4329734D01*
X7962696Y4333748D01*
X7958429Y4337456D01*
X7954213Y4340707D01*
X7947659Y4344822D01*
X7945170Y4345889D01*
X7941411Y4347006D01*
X7933181Y4348429D01*
X7922615Y4349496D01*
X7909255Y4350359D01*
X7878572Y4351528D01*
X7833969Y4352442D01*
X7772450Y4353204D01*
X7691170Y4353814D01*
X7587081Y4354220D01*
X7381951Y4354626D01*
X7096099Y4354830D01*
G37*
G36*
X6938873Y4242663D02*
G01*
X6932574Y4242562D01*
X6926224Y4241850D01*
X6919925Y4240530D01*
X6913778Y4238548D01*
X6907834Y4236008D01*
X6902196Y4232808D01*
X6896912Y4229100D01*
X6892036Y4224782D01*
X6887718Y4220210D01*
X6884365Y4215790D01*
X6881774Y4211218D01*
X6879844Y4206087D01*
X6878574Y4200042D01*
X6877761Y4192778D01*
X6877354Y4183837D01*
X6877292Y4177182D01*
X6904024Y4177182D01*
X6904380Y4182821D01*
X6905091Y4188307D01*
X6906209Y4193540D01*
X6907682Y4198518D01*
X6909511Y4203090D01*
X6911746Y4207205D01*
X6914388Y4210812D01*
X6917385Y4213809D01*
X6920788Y4216095D01*
X6928662Y4220159D01*
X6933946Y4221175D01*
X6939534Y4218838D01*
X6948373Y4212844D01*
X6951929Y4210050D01*
X6954824Y4207052D01*
X6957059Y4203649D01*
X6958736Y4199636D01*
X6959955Y4194810D01*
X6960717Y4188917D01*
X6961124Y4181805D01*
X6961225Y4173220D01*
X6960920Y4164126D01*
X6960057Y4155897D01*
X6958634Y4148582D01*
X6956653Y4142232D01*
X6954164Y4136796D01*
X6951167Y4132427D01*
X6947662Y4129024D01*
X6943750Y4126636D01*
X6939381Y4125315D01*
X6934606Y4125112D01*
X6929424Y4126026D01*
X6923887Y4128058D01*
X6920331Y4130141D01*
X6917131Y4132935D01*
X6914235Y4136339D01*
X6911746Y4140301D01*
X6909562Y4144772D01*
X6907733Y4149648D01*
X6906310Y4154779D01*
X6905193Y4160215D01*
X6904431Y4165803D01*
X6904075Y4171492D01*
X6904024Y4177182D01*
X6877292Y4177182D01*
X6877354Y4162298D01*
X6877761Y4153458D01*
X6878574Y4146143D01*
X6879844Y4140047D01*
X6881622Y4134815D01*
X6884060Y4130090D01*
X6887260Y4125620D01*
X6891223Y4121099D01*
X6895998Y4116527D01*
X6901078Y4112564D01*
X6906514Y4109262D01*
X6912152Y4106519D01*
X6917994Y4104436D01*
X6923989Y4103014D01*
X6930085Y4102252D01*
X6936231Y4102150D01*
X6942378Y4102709D01*
X6948474Y4103979D01*
X6954469Y4105910D01*
X6960362Y4108551D01*
X6965950Y4111650D01*
X6970826Y4114850D01*
X6975094Y4118254D01*
X6978700Y4121962D01*
X6981698Y4126077D01*
X6984238Y4130598D01*
X6986219Y4135729D01*
X6987743Y4141470D01*
X6988860Y4147921D01*
X6989622Y4155236D01*
X6990080Y4163415D01*
X6990080Y4181601D01*
X6989673Y4189679D01*
X6988911Y4196842D01*
X6987844Y4203242D01*
X6986422Y4208983D01*
X6984542Y4214063D01*
X6982206Y4218635D01*
X6979412Y4222750D01*
X6976059Y4226509D01*
X6972147Y4229912D01*
X6967677Y4233164D01*
X6962546Y4236262D01*
X6957009Y4238853D01*
X6951218Y4240784D01*
X6945122Y4242054D01*
G37*
G36*
X6866737Y4239768D02*
G01*
X6851802Y4238040D01*
X6847230Y4237278D01*
X6843522Y4235907D01*
X6840474Y4233519D01*
X6837934Y4229760D01*
X6835698Y4224223D01*
X6833514Y4216501D01*
X6831177Y4206189D01*
X6820204Y4149496D01*
X6805015Y4207408D01*
X6801967Y4217720D01*
X6799224Y4225594D01*
X6796633Y4231335D01*
X6793992Y4235246D01*
X6791147Y4237634D01*
X6787896Y4238853D01*
X6784086Y4239209D01*
X6780326Y4238904D01*
X6777126Y4237736D01*
X6774332Y4235500D01*
X6771843Y4231894D01*
X6769404Y4226610D01*
X6766966Y4219397D01*
X6764274Y4209948D01*
X6759346Y4190339D01*
X6755841Y4178198D01*
X6754266Y4173575D01*
X6752742Y4169968D01*
X6751320Y4167378D01*
X6749948Y4165752D01*
X6748627Y4165142D01*
X6747357Y4165498D01*
X6746138Y4166870D01*
X6744919Y4169206D01*
X6743700Y4172559D01*
X6741261Y4182211D01*
X6736334Y4208932D01*
X6734200Y4219143D01*
X6732066Y4226763D01*
X6729730Y4232198D01*
X6726936Y4235805D01*
X6723532Y4237939D01*
X6719316Y4238955D01*
X6714083Y4239209D01*
X6708038Y4238701D01*
X6703923Y4237278D01*
X6701891Y4235043D01*
X6702044Y4231944D01*
X6706463Y4215130D01*
X6712661Y4189018D01*
X6721043Y4152290D01*
X6725869Y4132122D01*
X6727901Y4124756D01*
X6729831Y4118864D01*
X6731660Y4114393D01*
X6733590Y4111091D01*
X6735572Y4108805D01*
X6737858Y4107332D01*
X6740347Y4106519D01*
X6743293Y4106164D01*
X6746697Y4106062D01*
X6751523Y4106316D01*
X6755384Y4107230D01*
X6758584Y4109212D01*
X6761378Y4112768D01*
X6763969Y4118305D01*
X6766610Y4126128D01*
X6773113Y4150614D01*
X6784187Y4195114D01*
X6798665Y4136694D01*
X6801612Y4126026D01*
X6804253Y4118152D01*
X6806844Y4112666D01*
X6809638Y4109161D01*
X6812889Y4107179D01*
X6816852Y4106265D01*
X6821779Y4106062D01*
X6825335Y4106164D01*
X6828332Y4106519D01*
X6830923Y4107383D01*
X6833260Y4108958D01*
X6835343Y4111447D01*
X6837273Y4115054D01*
X6839254Y4120083D01*
X6841286Y4126636D01*
X6845960Y4145381D01*
G37*
G36*
X7072579Y4239209D02*
G01*
X7063536Y4239107D01*
X7055358Y4238752D01*
X7047890Y4238142D01*
X7041235Y4237278D01*
X7035241Y4236110D01*
X7029907Y4234637D01*
X7025284Y4232859D01*
X7021220Y4230674D01*
X7017766Y4228185D01*
X7014870Y4225290D01*
X7012533Y4221988D01*
X7010653Y4218279D01*
X7009282Y4214114D01*
X7008317Y4209491D01*
X7007758Y4204360D01*
X7007555Y4198772D01*
X7007854Y4193692D01*
X7037171Y4193692D01*
X7037476Y4199331D01*
X7039305Y4206341D01*
X7043216Y4210862D01*
X7050125Y4213504D01*
X7061149Y4214926D01*
X7068210Y4215485D01*
X7073544Y4215587D01*
X7077405Y4215130D01*
X7079996Y4213809D01*
X7081621Y4211472D01*
X7082485Y4207865D01*
X7082790Y4202836D01*
X7082840Y4196130D01*
X7082383Y4185056D01*
X7080300Y4178858D01*
X7075474Y4176166D01*
X7066940Y4175607D01*
X7059117Y4176014D01*
X7052564Y4177131D01*
X7047179Y4178960D01*
X7042962Y4181500D01*
X7039864Y4184802D01*
X7037984Y4188866D01*
X7037171Y4193692D01*
X7007854Y4193692D01*
X7007961Y4191863D01*
X7009231Y4185412D01*
X7011263Y4179468D01*
X7014006Y4174032D01*
X7017562Y4169156D01*
X7021779Y4164837D01*
X7026706Y4161129D01*
X7032244Y4158030D01*
X7038441Y4155592D01*
X7045198Y4153814D01*
X7052564Y4152747D01*
X7060488Y4152392D01*
X7067803Y4152341D01*
X7073341Y4151985D01*
X7077354Y4151122D01*
X7079996Y4149445D01*
X7081621Y4146651D01*
X7082485Y4142536D01*
X7082790Y4136847D01*
X7082840Y4129227D01*
X7083298Y4116832D01*
X7085228Y4109821D01*
X7089597Y4106773D01*
X7097318Y4106062D01*
X7111796Y4106062D01*
X7111796Y4239209D01*
G37*
G36*
X6639356Y4239209D02*
G01*
X6613042Y4238853D01*
X6604406Y4238345D01*
X6598310Y4237532D01*
X6594348Y4236212D01*
X6592163Y4234434D01*
X6591401Y4232097D01*
X6591655Y4229049D01*
X6592519Y4226306D01*
X6594094Y4224020D01*
X6596532Y4222140D01*
X6599986Y4220667D01*
X6604558Y4219448D01*
X6610502Y4218533D01*
X6617868Y4217771D01*
X6637121Y4216603D01*
X6645097Y4215892D01*
X6650939Y4214926D01*
X6655053Y4213606D01*
X6657695Y4211675D01*
X6659219Y4209135D01*
X6659930Y4205681D01*
X6660083Y4201312D01*
X6659930Y4196892D01*
X6659321Y4193540D01*
X6658000Y4191000D01*
X6655663Y4189272D01*
X6652056Y4188104D01*
X6646976Y4187494D01*
X6640068Y4187190D01*
X6622643Y4187037D01*
X6615988Y4186732D01*
X6610908Y4186072D01*
X6607200Y4185056D01*
X6604711Y4183583D01*
X6603136Y4181551D01*
X6602374Y4178909D01*
X6602171Y4175556D01*
X6602374Y4172153D01*
X6603136Y4169511D01*
X6604711Y4167479D01*
X6607200Y4166006D01*
X6610908Y4164990D01*
X6615988Y4164329D01*
X6622643Y4164025D01*
X6640474Y4163923D01*
X6647535Y4163618D01*
X6652666Y4162958D01*
X6656171Y4161637D01*
X6658356Y4159605D01*
X6659524Y4156557D01*
X6659981Y4152392D01*
X6659981Y4141368D01*
X6659473Y4137151D01*
X6658152Y4134053D01*
X6655663Y4131868D01*
X6651650Y4130344D01*
X6645757Y4129379D01*
X6637578Y4128668D01*
X6617868Y4127500D01*
X6610502Y4126788D01*
X6604558Y4125823D01*
X6599986Y4124604D01*
X6596532Y4123131D01*
X6594094Y4121251D01*
X6592519Y4118965D01*
X6591655Y4116222D01*
X6591401Y4113174D01*
X6592163Y4110837D01*
X6594348Y4109059D01*
X6598310Y4107789D01*
X6604406Y4106926D01*
X6613042Y4106418D01*
X6639356Y4106062D01*
X6689039Y4106062D01*
X6689039Y4239209D01*
G37*
G36*
X6540957Y4239209D02*
G01*
X6525361Y4238752D01*
X6510934Y4237532D01*
X6499352Y4235704D01*
X6495135Y4234586D01*
X6492189Y4233468D01*
X6488582Y4230979D01*
X6485382Y4227677D01*
X6482638Y4223766D01*
X6480352Y4219295D01*
X6478625Y4214469D01*
X6477406Y4209440D01*
X6476746Y4204258D01*
X6476720Y4201668D01*
X6505956Y4201668D01*
X6507124Y4206646D01*
X6509918Y4210710D01*
X6514846Y4213656D01*
X6521653Y4215434D01*
X6530390Y4216044D01*
X6541007Y4215587D01*
X6546951Y4213301D01*
X6549491Y4208119D01*
X6550050Y4198670D01*
X6549491Y4189526D01*
X6547205Y4184294D01*
X6542125Y4181906D01*
X6533388Y4181297D01*
X6526479Y4181856D01*
X6520383Y4183379D01*
X6515201Y4185767D01*
X6511035Y4188866D01*
X6508038Y4192676D01*
X6506311Y4196943D01*
X6505956Y4201668D01*
X6476720Y4201668D01*
X6476695Y4199178D01*
X6477254Y4194251D01*
X6478422Y4189679D01*
X6480251Y4185564D01*
X6486804Y4176928D01*
X6488480Y4172661D01*
X6488023Y4168952D01*
X6485382Y4165346D01*
X6482486Y4160672D01*
X6479540Y4152950D01*
X6476847Y4143146D01*
X6474764Y4132427D01*
X6473494Y4123791D01*
X6472783Y4117340D01*
X6472682Y4112666D01*
X6473444Y4109516D01*
X6475120Y4107535D01*
X6477863Y4106519D01*
X6481876Y4106164D01*
X6487261Y4106062D01*
X6496050Y4106672D01*
X6500977Y4109212D01*
X6503212Y4114952D01*
X6504127Y4133291D01*
X6505397Y4140200D01*
X6507581Y4145889D01*
X6510781Y4150410D01*
X6514896Y4153915D01*
X6520129Y4156303D01*
X6526377Y4157726D01*
X6533794Y4158183D01*
X6538925Y4158081D01*
X6542836Y4157573D01*
X6545681Y4156456D01*
X6547662Y4154373D01*
X6548932Y4151223D01*
X6549644Y4146600D01*
X6549948Y4140352D01*
X6550101Y4124147D01*
X6550406Y4117949D01*
X6551117Y4113377D01*
X6552285Y4110126D01*
X6554063Y4107992D01*
X6556654Y4106773D01*
X6560058Y4106214D01*
X6579006Y4106062D01*
X6579006Y4239209D01*
G37*
G36*
X6405219Y4239209D02*
G01*
X6380073Y4238853D01*
X6371894Y4238345D01*
X6366154Y4237380D01*
X6362344Y4235958D01*
X6360160Y4233926D01*
X6359144Y4231182D01*
X6358890Y4227626D01*
X6359144Y4224223D01*
X6359956Y4221530D01*
X6361582Y4219498D01*
X6364325Y4218025D01*
X6368389Y4217009D01*
X6373977Y4216400D01*
X6400800Y4215993D01*
X6408420Y4215688D01*
X6414058Y4215079D01*
X6417970Y4213961D01*
X6420459Y4212183D01*
X6421882Y4209592D01*
X6422491Y4206138D01*
X6422491Y4197096D01*
X6421882Y4193641D01*
X6420561Y4191050D01*
X6418275Y4189272D01*
X6414719Y4188104D01*
X6409588Y4187444D01*
X6385204Y4187037D01*
X6378549Y4186732D01*
X6373469Y4186072D01*
X6369761Y4185056D01*
X6367221Y4183583D01*
X6365697Y4181551D01*
X6364935Y4178909D01*
X6364681Y4175556D01*
X6364935Y4172153D01*
X6365697Y4169511D01*
X6367221Y4167479D01*
X6369761Y4166006D01*
X6373469Y4164990D01*
X6378549Y4164329D01*
X6385204Y4164025D01*
X6403035Y4163923D01*
X6410147Y4163618D01*
X6415278Y4162958D01*
X6418732Y4161637D01*
X6420916Y4159554D01*
X6422085Y4156456D01*
X6422542Y4152239D01*
X6422542Y4140911D01*
X6422085Y4136644D01*
X6420866Y4133545D01*
X6418529Y4131462D01*
X6414719Y4130192D01*
X6409029Y4129532D01*
X6381343Y4129176D01*
X6373977Y4128871D01*
X6368389Y4128262D01*
X6364325Y4127246D01*
X6361582Y4125772D01*
X6359956Y4123740D01*
X6359144Y4121099D01*
X6358890Y4117644D01*
X6359144Y4114088D01*
X6360160Y4111396D01*
X6362344Y4109313D01*
X6366154Y4107891D01*
X6371894Y4106926D01*
X6380073Y4106418D01*
X6405219Y4106062D01*
X6451549Y4106062D01*
X6451549Y4239209D01*
G37*
G36*
X6306312Y4239209D02*
G01*
X6295745Y4239056D01*
X6287160Y4238650D01*
X6280099Y4237786D01*
X6274206Y4236364D01*
X6269075Y4234230D01*
X6264300Y4231233D01*
X6259474Y4227322D01*
X6254191Y4222292D01*
X6249263Y4217111D01*
X6245352Y4212336D01*
X6242405Y4207611D01*
X6240221Y4202633D01*
X6238748Y4196943D01*
X6237833Y4190339D01*
X6237427Y4182313D01*
X6237274Y4172661D01*
X6266230Y4172661D01*
X6266738Y4181703D01*
X6268008Y4190796D01*
X6269888Y4198823D01*
X6272225Y4204868D01*
X6275933Y4209643D01*
X6281115Y4213148D01*
X6287668Y4215333D01*
X6295390Y4216044D01*
X6312560Y4216044D01*
X6312560Y4129227D01*
X6295390Y4129227D01*
X6290564Y4129532D01*
X6286195Y4130344D01*
X6282232Y4131767D01*
X6278778Y4133748D01*
X6275781Y4136339D01*
X6273190Y4139590D01*
X6271006Y4143400D01*
X6269278Y4147921D01*
X6267958Y4153052D01*
X6266992Y4158894D01*
X6266434Y4165396D01*
X6266230Y4172661D01*
X6237274Y4172661D01*
X6237427Y4162958D01*
X6237833Y4154932D01*
X6238748Y4148328D01*
X6240221Y4142689D01*
X6242405Y4137660D01*
X6245352Y4132935D01*
X6249263Y4128211D01*
X6254191Y4122978D01*
X6259474Y4117949D01*
X6264300Y4114037D01*
X6269075Y4111040D01*
X6274206Y4108907D01*
X6280099Y4107484D01*
X6287160Y4106621D01*
X6295745Y4106214D01*
X6341516Y4106062D01*
X6341516Y4239209D01*
G37*
G36*
X6133490Y4239209D02*
G01*
X6119418Y4238904D01*
X6106464Y4238091D01*
X6096050Y4236923D01*
X6092240Y4236262D01*
X6089650Y4235500D01*
X6084773Y4232757D01*
X6080607Y4228592D01*
X6077204Y4223308D01*
X6074714Y4217212D01*
X6073190Y4210507D01*
X6072682Y4203547D01*
X6072869Y4201566D01*
X6104077Y4201566D01*
X6104737Y4208983D01*
X6107277Y4213402D01*
X6112560Y4215485D01*
X6121450Y4216044D01*
X6130340Y4215485D01*
X6135624Y4213402D01*
X6138164Y4208983D01*
X6138824Y4201566D01*
X6138164Y4194149D01*
X6135624Y4189780D01*
X6130340Y4187647D01*
X6121450Y4187088D01*
X6112560Y4187647D01*
X6107277Y4189780D01*
X6104737Y4194149D01*
X6104077Y4201566D01*
X6072869Y4201566D01*
X6073343Y4196537D01*
X6077407Y4182110D01*
X6077661Y4175302D01*
X6075883Y4168648D01*
X6069126Y4156303D01*
X6067298Y4150918D01*
X6066536Y4145483D01*
X6066942Y4139996D01*
X6067894Y4136440D01*
X6098895Y4136440D01*
X6099352Y4145127D01*
X6101029Y4153306D01*
X6104382Y4158437D01*
X6110376Y4161332D01*
X6119977Y4162856D01*
X6130340Y4163415D01*
X6135979Y4161739D01*
X6138367Y4156659D01*
X6138824Y4146956D01*
X6138316Y4137253D01*
X6135674Y4131919D01*
X6129477Y4129684D01*
X6118148Y4129227D01*
X6106922Y4129633D01*
X6100978Y4131665D01*
X6098895Y4136440D01*
X6067894Y4136440D01*
X6068466Y4134307D01*
X6071108Y4128465D01*
X6074867Y4122470D01*
X6079794Y4116222D01*
X6082538Y4113529D01*
X6085890Y4111345D01*
X6089954Y4109567D01*
X6095034Y4108196D01*
X6101181Y4107230D01*
X6108649Y4106570D01*
X6128156Y4106062D01*
X6167780Y4106062D01*
X6167780Y4239209D01*
G37*
G36*
X5968034Y4239209D02*
G01*
X5962396Y4238904D01*
X5957773Y4238142D01*
X5954623Y4236974D01*
X5953506Y4235551D01*
X5953963Y4233976D01*
X5957468Y4226356D01*
X5963716Y4214012D01*
X5980277Y4183278D01*
X5986627Y4170578D01*
X5991758Y4158894D01*
X5995670Y4148277D01*
X5998311Y4138828D01*
X5999175Y4134561D01*
X5999683Y4130649D01*
X6000292Y4115968D01*
X6002274Y4109618D01*
X6006642Y4106773D01*
X6014313Y4106062D01*
X6018784Y4106214D01*
X6022187Y4106773D01*
X6024727Y4108043D01*
X6026556Y4110177D01*
X6027724Y4113479D01*
X6028385Y4118152D01*
X6028690Y4124451D01*
X6028893Y4137456D01*
X6029248Y4142232D01*
X6030722Y4151680D01*
X6033312Y4161332D01*
X6037173Y4171594D01*
X6039561Y4177080D01*
X6045504Y4188917D01*
X6060389Y4216247D01*
X6065875Y4227068D01*
X6068923Y4233926D01*
X6069330Y4235399D01*
X6068161Y4236872D01*
X6065062Y4238091D01*
X6060440Y4238904D01*
X6054750Y4239209D01*
X6050686Y4238904D01*
X6047079Y4238040D01*
X6043726Y4236364D01*
X6040628Y4233875D01*
X6037529Y4230420D01*
X6034430Y4225899D01*
X6031128Y4220210D01*
X6022340Y4203039D01*
X6017564Y4194759D01*
X6013754Y4189171D01*
X6011418Y4187088D01*
X6009081Y4189171D01*
X6005220Y4194759D01*
X6000445Y4203039D01*
X5991707Y4220210D01*
X5988405Y4225899D01*
X5985306Y4230420D01*
X5982208Y4233875D01*
X5979058Y4236364D01*
X5975756Y4238040D01*
X5972098Y4238904D01*
G37*
G36*
X7734046Y4236516D02*
G01*
X7731506Y4236313D01*
X7694828Y4229557D01*
X7683500Y4226610D01*
X7672882Y4222699D01*
X7667853Y4220413D01*
X7662976Y4217873D01*
X7658303Y4215130D01*
X7653781Y4212132D01*
X7649464Y4208932D01*
X7645349Y4205528D01*
X7641437Y4201922D01*
X7637678Y4198061D01*
X7634173Y4193997D01*
X7627721Y4185259D01*
X7613700Y4163923D01*
X7598003Y4189984D01*
X7595311Y4193743D01*
X7589316Y4200753D01*
X7586065Y4204004D01*
X7578902Y4209999D01*
X7571028Y4215333D01*
X7566812Y4217771D01*
X7557820Y4222089D01*
X7553096Y4224020D01*
X7543139Y4227322D01*
X7532471Y4229963D01*
X7521244Y4231894D01*
X7509408Y4233113D01*
X7496962Y4233621D01*
X7484008Y4233418D01*
X7470495Y4232503D01*
X7456525Y4230827D01*
X7442047Y4228490D01*
X7423962Y4224680D01*
X7404100Y4219752D01*
X7395362Y4217365D01*
X7381646Y4212894D01*
X7377074Y4211066D01*
X7374432Y4209491D01*
X7372603Y4207357D01*
X7371130Y4204309D01*
X7369962Y4200398D01*
X7369149Y4195775D01*
X7368692Y4190542D01*
X7368489Y4184751D01*
X7368615Y4179570D01*
X7392924Y4179570D01*
X7393279Y4185970D01*
X7395311Y4190085D01*
X7399375Y4192270D01*
X7411466Y4193336D01*
X7414920Y4194606D01*
X7416190Y4196689D01*
X7414412Y4202430D01*
X7416393Y4203903D01*
X7421321Y4203903D01*
X7437018Y4201515D01*
X7442758Y4201617D01*
X7446416Y4202785D01*
X7447737Y4205020D01*
X7448600Y4207103D01*
X7451090Y4208221D01*
X7454747Y4208322D01*
X7463993Y4206341D01*
X7467650Y4206494D01*
X7470038Y4207764D01*
X7470902Y4210050D01*
X7471511Y4212640D01*
X7473492Y4213555D01*
X7476947Y4212844D01*
X7487259Y4208170D01*
X7491120Y4207510D01*
X7493762Y4208627D01*
X7495438Y4211472D01*
X7496759Y4214368D01*
X7498232Y4215231D01*
X7500010Y4214164D01*
X7502245Y4211015D01*
X7504734Y4208424D01*
X7508087Y4206849D01*
X7511846Y4206341D01*
X7519720Y4207865D01*
X7524242Y4207510D01*
X7528661Y4206138D01*
X7532420Y4203852D01*
X7535519Y4201668D01*
X7538059Y4200499D01*
X7539786Y4200550D01*
X7540396Y4201769D01*
X7541310Y4202684D01*
X7543800Y4201871D01*
X7547457Y4199483D01*
X7556449Y4192066D01*
X7560157Y4189729D01*
X7562646Y4188917D01*
X7563561Y4189831D01*
X7564424Y4192015D01*
X7566761Y4191660D01*
X7570165Y4189171D01*
X7574330Y4184904D01*
X7578852Y4179315D01*
X7583373Y4172864D01*
X7587538Y4165904D01*
X7590891Y4158843D01*
X7593075Y4153357D01*
X7594650Y4148480D01*
X7595616Y4144060D01*
X7596073Y4139895D01*
X7596031Y4138777D01*
X7629194Y4138777D01*
X7630058Y4146245D01*
X7632242Y4153052D01*
X7635443Y4160418D01*
X7639354Y4167784D01*
X7643672Y4174693D01*
X7647990Y4180586D01*
X7652003Y4184954D01*
X7655356Y4187291D01*
X7659878Y4186834D01*
X7663484Y4188307D01*
X7668006Y4191203D01*
X7677708Y4199178D01*
X7681620Y4201718D01*
X7684211Y4202633D01*
X7685176Y4201769D01*
X7685836Y4200550D01*
X7687665Y4200652D01*
X7690358Y4201922D01*
X7697368Y4206646D01*
X7701432Y4208068D01*
X7705242Y4208322D01*
X7711440Y4206392D01*
X7715250Y4206646D01*
X7719314Y4208068D01*
X7723073Y4210456D01*
X7727035Y4213402D01*
X7729626Y4214418D01*
X7731048Y4213504D01*
X7732115Y4207967D01*
X7734147Y4206951D01*
X7737703Y4207713D01*
X7748422Y4212742D01*
X7752029Y4213555D01*
X7754061Y4212640D01*
X7754670Y4210050D01*
X7755534Y4207764D01*
X7757922Y4206494D01*
X7761579Y4206341D01*
X7770825Y4208322D01*
X7774482Y4208221D01*
X7776972Y4207103D01*
X7777835Y4205020D01*
X7779156Y4202785D01*
X7782814Y4201617D01*
X7788554Y4201515D01*
X7804251Y4203903D01*
X7809179Y4203903D01*
X7811160Y4202430D01*
X7809433Y4196689D01*
X7810957Y4194606D01*
X7814868Y4193336D01*
X7828889Y4192524D01*
X7832547Y4190949D01*
X7832750Y4187444D01*
X7827416Y4175912D01*
X7826705Y4172305D01*
X7827772Y4170375D01*
X7830667Y4169765D01*
X7832750Y4168901D01*
X7832801Y4166565D01*
X7830870Y4162907D01*
X7822793Y4152950D01*
X7820914Y4149344D01*
X7821371Y4147261D01*
X7827009Y4145940D01*
X7827467Y4143857D01*
X7825587Y4140250D01*
X7816646Y4129481D01*
X7814767Y4125874D01*
X7815529Y4123893D01*
X7822234Y4122775D01*
X7823047Y4121404D01*
X7821269Y4119016D01*
X7812989Y4112056D01*
X7809788Y4108704D01*
X7807604Y4105656D01*
X7805674Y4099864D01*
X7802676Y4095242D01*
X7798257Y4090009D01*
X7792974Y4084675D01*
X7787284Y4079646D01*
X7781798Y4075429D01*
X7776870Y4072534D01*
X7773162Y4071467D01*
X7770520Y4070959D01*
X7768844Y4069689D01*
X7768386Y4067810D01*
X7769148Y4065574D01*
X7769453Y4063288D01*
X7767472Y4061460D01*
X7763509Y4060240D01*
X7752181Y4059326D01*
X7747457Y4058107D01*
X7744256Y4056227D01*
X7743088Y4053992D01*
X7742377Y4051300D01*
X7740345Y4049369D01*
X7737094Y4048150D01*
X7732928Y4047642D01*
X7727899Y4047744D01*
X7722209Y4048455D01*
X7716113Y4049725D01*
X7709662Y4051401D01*
X7703159Y4053535D01*
X7696657Y4056075D01*
X7690358Y4058920D01*
X7684465Y4062018D01*
X7679131Y4065371D01*
X7674559Y4068876D01*
X7670901Y4072534D01*
X7668310Y4076242D01*
X7666685Y4079748D01*
X7665923Y4082999D01*
X7666177Y4086199D01*
X7667548Y4089552D01*
X7670139Y4093260D01*
X7674102Y4097629D01*
X7686649Y4109008D01*
X7694472Y4115308D01*
X7704023Y4122420D01*
X7714640Y4129887D01*
X7725816Y4137304D01*
X7736941Y4144314D01*
X7761478Y4158487D01*
X7773009Y4165396D01*
X7782915Y4172000D01*
X7783626Y4172864D01*
X7783169Y4173372D01*
X7781798Y4173372D01*
X7776667Y4172051D01*
X7768793Y4169105D01*
X7758734Y4164837D01*
X7747000Y4159554D01*
X7720939Y4146804D01*
X7695031Y4133138D01*
X7683500Y4126585D01*
X7673695Y4120642D01*
X7666126Y4115511D01*
X7649413Y4103166D01*
X7637983Y4117289D01*
X7633106Y4124451D01*
X7630210Y4131564D01*
X7629194Y4138777D01*
X7596031Y4138777D01*
X7595920Y4135831D01*
X7595260Y4131767D01*
X7593990Y4127398D01*
X7592212Y4122674D01*
X7589062Y4116222D01*
X7585659Y4110939D01*
X7582408Y4107383D01*
X7579664Y4106062D01*
X7577836Y4106468D01*
X7570876Y4109516D01*
X7560513Y4114952D01*
X7547965Y4122115D01*
X7536281Y4129125D01*
X7525054Y4135475D01*
X7512558Y4142232D01*
X7486243Y4155490D01*
X7462418Y4166514D01*
X7453071Y4170476D01*
X7446162Y4172965D01*
X7443876Y4173575D01*
X7442453Y4173728D01*
X7441946Y4173321D01*
X7442708Y4172458D01*
X7448448Y4168394D01*
X7458709Y4161840D01*
X7496454Y4138929D01*
X7507833Y4131462D01*
X7518806Y4123944D01*
X7528814Y4116730D01*
X7537196Y4110278D01*
X7547813Y4101185D01*
X7553198Y4096258D01*
X7556855Y4092244D01*
X7558938Y4088790D01*
X7559548Y4085640D01*
X7558938Y4082389D01*
X7557160Y4078732D01*
X7554366Y4074312D01*
X7551420Y4070604D01*
X7547508Y4066997D01*
X7542834Y4063542D01*
X7537551Y4060342D01*
X7531862Y4057345D01*
X7525816Y4054703D01*
X7519670Y4052366D01*
X7513472Y4050436D01*
X7507478Y4048912D01*
X7501737Y4047896D01*
X7496505Y4047388D01*
X7491831Y4047388D01*
X7487970Y4048048D01*
X7485024Y4049318D01*
X7483144Y4051300D01*
X7482484Y4053992D01*
X7481316Y4056227D01*
X7478115Y4058107D01*
X7473391Y4059326D01*
X7462062Y4060240D01*
X7458100Y4061460D01*
X7456119Y4063288D01*
X7456424Y4065574D01*
X7457186Y4067810D01*
X7456728Y4069689D01*
X7455052Y4070959D01*
X7452410Y4071467D01*
X7448448Y4072585D01*
X7443470Y4075531D01*
X7437932Y4079798D01*
X7432294Y4084980D01*
X7427112Y4090517D01*
X7422794Y4096004D01*
X7419848Y4100931D01*
X7418070Y4107332D01*
X7416241Y4109872D01*
X7413498Y4112209D01*
X7410196Y4113936D01*
X7407046Y4115917D01*
X7405014Y4118813D01*
X7404303Y4122318D01*
X7405827Y4129633D01*
X7405420Y4132427D01*
X7403896Y4134358D01*
X7398867Y4135729D01*
X7397343Y4137660D01*
X7397038Y4140555D01*
X7398969Y4148328D01*
X7399223Y4152595D01*
X7398715Y4156608D01*
X7395870Y4163415D01*
X7394498Y4168292D01*
X7393431Y4173880D01*
X7392924Y4179570D01*
X7368615Y4179570D01*
X7369098Y4171899D01*
X7370876Y4157929D01*
X7373772Y4143552D01*
X7375601Y4136491D01*
X7377684Y4129582D01*
X7380020Y4122928D01*
X7382611Y4116628D01*
X7386523Y4109059D01*
X7391958Y4100372D01*
X7398461Y4091127D01*
X7405674Y4081779D01*
X7413294Y4072890D01*
X7420914Y4064914D01*
X7448042Y4038193D01*
X7433208Y4028440D01*
X7430058Y4026103D01*
X7426858Y4023207D01*
X7423658Y4019753D01*
X7420508Y4015841D01*
X7417409Y4011523D01*
X7411415Y4001770D01*
X7405878Y3990797D01*
X7401001Y3978960D01*
X7396937Y3966667D01*
X7395209Y3960469D01*
X7393787Y3954221D01*
X7392670Y3948074D01*
X7390638Y3939286D01*
X7387691Y3931564D01*
X7387233Y3930802D01*
X7417155Y3930802D01*
X7421168Y3953357D01*
X7422489Y3959555D01*
X7424115Y3965600D01*
X7426147Y3971442D01*
X7428484Y3977030D01*
X7431176Y3982465D01*
X7434275Y3987647D01*
X7437628Y3992626D01*
X7441387Y3997401D01*
X7445451Y4001871D01*
X7449870Y4006189D01*
X7454595Y4010253D01*
X7459675Y4014063D01*
X7464399Y4017010D01*
X7469682Y4019702D01*
X7475372Y4022039D01*
X7481366Y4024071D01*
X7487513Y4025747D01*
X7493609Y4027017D01*
X7499654Y4027830D01*
X7505395Y4028287D01*
X7510729Y4028236D01*
X7515555Y4027728D01*
X7519670Y4026712D01*
X7523022Y4025137D01*
X7525105Y4023309D01*
X7526020Y4021124D01*
X7525562Y4018330D01*
X7523683Y4014774D01*
X7520228Y4010253D01*
X7515098Y4004564D01*
X7509040Y3998417D01*
X7542834Y3998417D01*
X7543190Y4001566D01*
X7544053Y4004767D01*
X7545425Y4008018D01*
X7547356Y4011320D01*
X7549845Y4014622D01*
X7552842Y4017975D01*
X7556398Y4021277D01*
X7560513Y4024629D01*
X7565186Y4027881D01*
X7570470Y4031132D01*
X7576312Y4034332D01*
X7581493Y4036771D01*
X7586776Y4038752D01*
X7592161Y4040327D01*
X7597597Y4041444D01*
X7603032Y4042206D01*
X7608468Y4042562D01*
X7613903Y4042562D01*
X7619238Y4042257D01*
X7624470Y4041597D01*
X7629652Y4040632D01*
X7634630Y4039362D01*
X7639507Y4037837D01*
X7648600Y4034078D01*
X7652766Y4031843D01*
X7656728Y4029405D01*
X7660335Y4026814D01*
X7663688Y4023969D01*
X7696758Y4023969D01*
X7698181Y4026712D01*
X7702042Y4028643D01*
X7707833Y4029862D01*
X7715148Y4030319D01*
X7723378Y4030014D01*
X7732115Y4028897D01*
X7740751Y4027017D01*
X7748879Y4024376D01*
X7754721Y4021734D01*
X7760462Y4018432D01*
X7766050Y4014622D01*
X7771485Y4010355D01*
X7776667Y4005579D01*
X7781493Y4000500D01*
X7786014Y3995064D01*
X7790129Y3989425D01*
X7793786Y3983532D01*
X7796936Y3977589D01*
X7799527Y3971493D01*
X7801508Y3965448D01*
X7803591Y3956405D01*
X7804759Y3948480D01*
X7804962Y3942486D01*
X7804048Y3939387D01*
X7802422Y3938625D01*
X7799984Y3938727D01*
X7796784Y3939641D01*
X7792872Y3941216D01*
X7788351Y3943451D01*
X7777886Y3949649D01*
X7765999Y3957624D01*
X7753350Y3966921D01*
X7740548Y3977030D01*
X7728254Y3987393D01*
X7717129Y3997553D01*
X7712202Y4002379D01*
X7704074Y4011269D01*
X7700975Y4015130D01*
X7698689Y4018635D01*
X7697266Y4021582D01*
X7696758Y4023969D01*
X7663688Y4023969D01*
X7666634Y4021074D01*
X7669174Y4018026D01*
X7671409Y4014825D01*
X7673136Y4011574D01*
X7674457Y4008221D01*
X7675270Y4004818D01*
X7675575Y4001363D01*
X7675372Y3997909D01*
X7674609Y3994404D01*
X7673238Y3990949D01*
X7671308Y3987495D01*
X7668666Y3984091D01*
X7665415Y3980738D01*
X7661452Y3977487D01*
X7657134Y3974592D01*
X7652512Y3972204D01*
X7647431Y3970274D01*
X7641742Y3968750D01*
X7635341Y3967632D01*
X7628026Y3966921D01*
X7619695Y3966514D01*
X7610195Y3966413D01*
X7602677Y3966616D01*
X7595616Y3967073D01*
X7588910Y3967784D01*
X7582662Y3968750D01*
X7576820Y3969969D01*
X7571435Y3971391D01*
X7566507Y3973017D01*
X7561986Y3974846D01*
X7557973Y3976878D01*
X7554366Y3979113D01*
X7551267Y3981500D01*
X7548625Y3983990D01*
X7546492Y3986631D01*
X7544816Y3989425D01*
X7543647Y3992321D01*
X7542987Y3995318D01*
X7542834Y3998417D01*
X7509040Y3998417D01*
X7499299Y3989070D01*
X7489799Y3980484D01*
X7479588Y3971798D01*
X7469124Y3963415D01*
X7459014Y3955846D01*
X7449769Y3949446D01*
X7442047Y3944670D01*
X7417155Y3930802D01*
X7387233Y3930802D01*
X7384237Y3925824D01*
X7380630Y3922776D01*
X7376210Y3919626D01*
X7370419Y3913327D01*
X7364018Y3904843D01*
X7357821Y3895090D01*
X7355027Y3890010D01*
X7352538Y3884777D01*
X7350353Y3879392D01*
X7348423Y3873906D01*
X7346797Y3868318D01*
X7345425Y3862628D01*
X7344409Y3856888D01*
X7343140Y3845356D01*
X7342972Y3837584D01*
X7371689Y3837584D01*
X7371689Y3844188D01*
X7372096Y3850843D01*
X7372959Y3857447D01*
X7374280Y3863848D01*
X7376007Y3870096D01*
X7378242Y3876040D01*
X7380833Y3881628D01*
X7383932Y3886809D01*
X7387437Y3891483D01*
X7392720Y3897376D01*
X7397648Y3902100D01*
X7402271Y3905605D01*
X7406589Y3907942D01*
X7410551Y3909060D01*
X7414209Y3909060D01*
X7417612Y3907840D01*
X7420711Y3905453D01*
X7421727Y3903776D01*
X7422642Y3901186D01*
X7423861Y3893413D01*
X7424420Y3882999D01*
X7424383Y3871620D01*
X7447737Y3871620D01*
X7447991Y3876090D01*
X7448702Y3880815D01*
X7449870Y3885793D01*
X7451394Y3890924D01*
X7455611Y3901389D01*
X7458202Y3906621D01*
X7464196Y3916883D01*
X7467498Y3921810D01*
X7474610Y3930802D01*
X7478369Y3934815D01*
X7482179Y3938422D01*
X7486040Y3941622D01*
X7489952Y3944264D01*
X7494524Y3946702D01*
X7499553Y3948937D01*
X7505039Y3950868D01*
X7510830Y3952494D01*
X7516825Y3953814D01*
X7523022Y3954779D01*
X7529271Y3955389D01*
X7535519Y3955592D01*
X7543444Y3955440D01*
X7549997Y3954932D01*
X7555585Y3953967D01*
X7560360Y3952392D01*
X7564678Y3950106D01*
X7568793Y3947007D01*
X7573009Y3942943D01*
X7577531Y3937812D01*
X7580680Y3933748D01*
X7583474Y3929481D01*
X7585913Y3925112D01*
X7587996Y3920642D01*
X7589723Y3916019D01*
X7591094Y3911346D01*
X7592161Y3906570D01*
X7592872Y3901744D01*
X7593228Y3896868D01*
X7593296Y3891127D01*
X7629296Y3891127D01*
X7629398Y3896156D01*
X7629804Y3901135D01*
X7630617Y3906012D01*
X7631684Y3910837D01*
X7633157Y3915562D01*
X7635036Y3920185D01*
X7637221Y3924655D01*
X7639812Y3928922D01*
X7642809Y3933037D01*
X7646162Y3937000D01*
X7649921Y3940708D01*
X7654340Y3944061D01*
X7659471Y3946956D01*
X7665161Y3949344D01*
X7671358Y3951224D01*
X7677861Y3952544D01*
X7684668Y3953306D01*
X7691628Y3953560D01*
X7698587Y3953256D01*
X7705445Y3952341D01*
X7712151Y3950919D01*
X7718552Y3948887D01*
X7724495Y3946245D01*
X7729778Y3943350D01*
X7734757Y3940251D01*
X7739430Y3936847D01*
X7743799Y3933240D01*
X7747863Y3929430D01*
X7751572Y3925468D01*
X7755026Y3921353D01*
X7758175Y3917035D01*
X7761071Y3912615D01*
X7763611Y3908094D01*
X7765897Y3903421D01*
X7767878Y3898696D01*
X7769555Y3893921D01*
X7772044Y3884269D01*
X7773416Y3874515D01*
X7773670Y3869537D01*
X7801965Y3869537D01*
X7802727Y3883456D01*
X7803438Y3890060D01*
X7804403Y3895547D01*
X7805572Y3899865D01*
X7807045Y3903218D01*
X7808772Y3905656D01*
X7810855Y3907231D01*
X7813294Y3908094D01*
X7816748Y3907993D01*
X7820659Y3906621D01*
X7824825Y3904132D01*
X7829194Y3900627D01*
X7833614Y3896258D01*
X7837982Y3891229D01*
X7842148Y3885641D01*
X7846059Y3879646D01*
X7849565Y3873398D01*
X7852511Y3866997D01*
X7854848Y3860698D01*
X7856372Y3854551D01*
X7857185Y3848303D01*
X7857439Y3841851D01*
X7857083Y3835247D01*
X7856270Y3828542D01*
X7855000Y3821988D01*
X7853324Y3815537D01*
X7851292Y3809390D01*
X7848955Y3803650D01*
X7846314Y3798417D01*
X7843520Y3793744D01*
X7840522Y3789781D01*
X7837424Y3786682D01*
X7834274Y3784447D01*
X7831124Y3783279D01*
X7827975Y3783228D01*
X7824876Y3784447D01*
X7822793Y3786276D01*
X7820659Y3789070D01*
X7818526Y3792778D01*
X7816392Y3797300D01*
X7812328Y3808222D01*
X7808671Y3821125D01*
X7805623Y3835095D01*
X7803388Y3849370D01*
X7802625Y3856380D01*
X7801965Y3869537D01*
X7773670Y3869537D01*
X7773670Y3864864D01*
X7773365Y3860088D01*
X7772755Y3855415D01*
X7771892Y3850843D01*
X7770774Y3846322D01*
X7769352Y3841953D01*
X7767675Y3837736D01*
X7765745Y3833672D01*
X7761071Y3826103D01*
X7758277Y3822598D01*
X7755280Y3819347D01*
X7752029Y3816299D01*
X7748473Y3813556D01*
X7744714Y3811066D01*
X7740650Y3808882D01*
X7736331Y3806951D01*
X7731810Y3805428D01*
X7726984Y3804208D01*
X7721904Y3803345D01*
X7716621Y3802887D01*
X7711033Y3802786D01*
X7705496Y3803142D01*
X7700060Y3803853D01*
X7694726Y3804970D01*
X7689596Y3806494D01*
X7684566Y3808323D01*
X7679740Y3810508D01*
X7675067Y3812997D01*
X7670596Y3815791D01*
X7666278Y3818890D01*
X7662164Y3822192D01*
X7658252Y3825798D01*
X7654544Y3829608D01*
X7647838Y3837787D01*
X7644790Y3842156D01*
X7639507Y3851300D01*
X7637221Y3856075D01*
X7635240Y3860952D01*
X7633512Y3865879D01*
X7630922Y3875938D01*
X7630058Y3881018D01*
X7629550Y3886047D01*
X7629296Y3891127D01*
X7593296Y3891127D01*
X7593126Y3887012D01*
X7591806Y3877208D01*
X7590688Y3872331D01*
X7589316Y3867505D01*
X7587691Y3862730D01*
X7585811Y3858056D01*
X7583678Y3853484D01*
X7578699Y3844696D01*
X7572806Y3836415D01*
X7566050Y3828897D01*
X7562392Y3825392D01*
X7558531Y3822141D01*
X7554518Y3819144D01*
X7550302Y3816350D01*
X7545933Y3813860D01*
X7541412Y3811625D01*
X7536738Y3809695D01*
X7531912Y3808120D01*
X7526934Y3806850D01*
X7521854Y3805885D01*
X7516672Y3805326D01*
X7511389Y3805123D01*
X7504988Y3805478D01*
X7498791Y3806545D01*
X7492796Y3808222D01*
X7486954Y3810508D01*
X7481417Y3813352D01*
X7476185Y3816756D01*
X7471257Y3820617D01*
X7466685Y3824935D01*
X7462520Y3829710D01*
X7458811Y3834841D01*
X7455560Y3840327D01*
X7452868Y3846118D01*
X7450683Y3852214D01*
X7449058Y3858514D01*
X7448042Y3864965D01*
X7447737Y3871620D01*
X7424383Y3871620D01*
X7424064Y3864152D01*
X7423099Y3850640D01*
X7421524Y3837330D01*
X7419390Y3824986D01*
X7418120Y3819448D01*
X7415885Y3811168D01*
X7413599Y3804056D01*
X7411262Y3798163D01*
X7408824Y3793490D01*
X7406335Y3789934D01*
X7403744Y3787597D01*
X7401001Y3786378D01*
X7398105Y3786276D01*
X7395006Y3787343D01*
X7391755Y3789476D01*
X7388301Y3792728D01*
X7384592Y3797046D01*
X7381392Y3801668D01*
X7378649Y3806850D01*
X7376312Y3812438D01*
X7374483Y3818331D01*
X7373112Y3824579D01*
X7372197Y3830980D01*
X7371689Y3837584D01*
X7342972Y3837584D01*
X7343444Y3828186D01*
X7344105Y3822598D01*
X7345070Y3817112D01*
X7346340Y3811778D01*
X7347864Y3806545D01*
X7349693Y3801516D01*
X7351826Y3796690D01*
X7354265Y3792067D01*
X7359853Y3782872D01*
X7363002Y3776929D01*
X7366253Y3770071D01*
X7369505Y3762552D01*
X7375652Y3746398D01*
X7378645Y3737254D01*
X7410703Y3737254D01*
X7411059Y3744468D01*
X7411872Y3751529D01*
X7413142Y3758285D01*
X7414768Y3764584D01*
X7416800Y3770274D01*
X7419136Y3775252D01*
X7421829Y3779316D01*
X7424775Y3782364D01*
X7427975Y3784295D01*
X7434681Y3786682D01*
X7438085Y3787546D01*
X7443012Y3786174D01*
X7447991Y3784244D01*
X7453020Y3781907D01*
X7458049Y3779164D01*
X7463028Y3776014D01*
X7468006Y3772458D01*
X7472934Y3768598D01*
X7477759Y3764432D01*
X7482484Y3760012D01*
X7491577Y3750411D01*
X7496082Y3745026D01*
X7534402Y3745026D01*
X7534859Y3749954D01*
X7535773Y3754780D01*
X7537246Y3759606D01*
X7539228Y3764381D01*
X7541717Y3769156D01*
X7544765Y3773932D01*
X7548372Y3778758D01*
X7552436Y3783584D01*
X7557109Y3788460D01*
X7564170Y3795369D01*
X7570216Y3800703D01*
X7575651Y3804665D01*
X7581036Y3807460D01*
X7586878Y3809288D01*
X7593584Y3810304D01*
X7601661Y3810812D01*
X7611668Y3810914D01*
X7618628Y3810711D01*
X7625283Y3810152D01*
X7631582Y3809187D01*
X7637627Y3807815D01*
X7643368Y3806037D01*
X7648752Y3803904D01*
X7653832Y3801414D01*
X7658608Y3798468D01*
X7663078Y3795217D01*
X7667193Y3791508D01*
X7671003Y3787495D01*
X7674508Y3783025D01*
X7677708Y3778250D01*
X7680553Y3773068D01*
X7683042Y3767480D01*
X7685227Y3761536D01*
X7686649Y3756710D01*
X7687716Y3751935D01*
X7688427Y3747262D01*
X7688783Y3742690D01*
X7688783Y3738219D01*
X7688478Y3733901D01*
X7687818Y3729634D01*
X7686903Y3725519D01*
X7685735Y3721506D01*
X7682484Y3713835D01*
X7680502Y3710228D01*
X7678267Y3706723D01*
X7675829Y3703421D01*
X7670292Y3697173D01*
X7667244Y3694277D01*
X7660640Y3688994D01*
X7653375Y3684422D01*
X7645653Y3680561D01*
X7641640Y3678885D01*
X7633309Y3676192D01*
X7629042Y3675126D01*
X7620355Y3673652D01*
X7615986Y3673246D01*
X7607147Y3673094D01*
X7598409Y3673906D01*
X7589723Y3675634D01*
X7581290Y3678377D01*
X7577175Y3680155D01*
X7569301Y3684473D01*
X7565491Y3687064D01*
X7561834Y3689908D01*
X7558328Y3693007D01*
X7554975Y3696462D01*
X7551775Y3700170D01*
X7548778Y3704183D01*
X7545933Y3708501D01*
X7542784Y3714038D01*
X7540091Y3719474D01*
X7537907Y3724757D01*
X7536281Y3729990D01*
X7535164Y3735070D01*
X7534503Y3740099D01*
X7534402Y3745026D01*
X7496082Y3745026D01*
X7503871Y3734714D01*
X7507579Y3729228D01*
X7514132Y3718153D01*
X7517028Y3712565D01*
X7519568Y3707028D01*
X7521803Y3701542D01*
X7523683Y3696157D01*
X7525156Y3690874D01*
X7526274Y3685692D01*
X7526934Y3680764D01*
X7527188Y3675989D01*
X7527039Y3672687D01*
X7704074Y3672687D01*
X7704277Y3679037D01*
X7705191Y3686200D01*
X7706207Y3691839D01*
X7707579Y3697325D01*
X7709255Y3702710D01*
X7711236Y3707993D01*
X7713472Y3713175D01*
X7716012Y3718204D01*
X7718856Y3723132D01*
X7722006Y3727958D01*
X7725409Y3732631D01*
X7729118Y3737152D01*
X7733080Y3741572D01*
X7741869Y3749903D01*
X7751724Y3757625D01*
X7757058Y3761232D01*
X7766405Y3766972D01*
X7774635Y3771239D01*
X7781899Y3774033D01*
X7788351Y3775456D01*
X7794142Y3775405D01*
X7799476Y3774033D01*
X7804454Y3771239D01*
X7809280Y3767124D01*
X7812278Y3763619D01*
X7814716Y3759860D01*
X7816646Y3755745D01*
X7818018Y3751376D01*
X7818932Y3746754D01*
X7819339Y3741928D01*
X7819288Y3736949D01*
X7818780Y3731818D01*
X7817866Y3726586D01*
X7816545Y3721252D01*
X7814818Y3715918D01*
X7812684Y3710533D01*
X7810246Y3705199D01*
X7807452Y3699916D01*
X7804403Y3694734D01*
X7801000Y3689705D01*
X7797292Y3684778D01*
X7793380Y3680053D01*
X7789214Y3675583D01*
X7784795Y3671315D01*
X7780223Y3667404D01*
X7775397Y3663746D01*
X7770469Y3660495D01*
X7765338Y3657600D01*
X7760106Y3655110D01*
X7754772Y3653078D01*
X7749336Y3651554D01*
X7743799Y3650538D01*
X7735976Y3649726D01*
X7729118Y3649522D01*
X7723124Y3649979D01*
X7717993Y3651046D01*
X7713725Y3652824D01*
X7710271Y3655263D01*
X7707579Y3658463D01*
X7705699Y3662426D01*
X7704531Y3667150D01*
X7704074Y3672687D01*
X7527039Y3672687D01*
X7526274Y3667251D01*
X7525105Y3663289D01*
X7523429Y3659682D01*
X7521346Y3656533D01*
X7518958Y3653790D01*
X7516266Y3651504D01*
X7513218Y3649675D01*
X7509916Y3648252D01*
X7506411Y3647186D01*
X7502652Y3646576D01*
X7498689Y3646271D01*
X7494574Y3646373D01*
X7490307Y3646830D01*
X7485888Y3647592D01*
X7481417Y3648710D01*
X7476845Y3650132D01*
X7467701Y3653840D01*
X7458506Y3658717D01*
X7454036Y3661511D01*
X7445298Y3667912D01*
X7437170Y3675126D01*
X7433360Y3679037D01*
X7429753Y3683152D01*
X7426401Y3687419D01*
X7423353Y3691839D01*
X7420559Y3696411D01*
X7418070Y3701084D01*
X7415936Y3705961D01*
X7414158Y3710889D01*
X7412786Y3715918D01*
X7411567Y3722827D01*
X7410856Y3729990D01*
X7410703Y3737254D01*
X7378645Y3737254D01*
X7383018Y3722573D01*
X7388504Y3706469D01*
X7394651Y3691331D01*
X7400594Y3678986D01*
X7403287Y3674465D01*
X7405370Y3671620D01*
X7411313Y3665016D01*
X7419340Y3657498D01*
X7429042Y3649370D01*
X7439964Y3640836D01*
X7451750Y3632250D01*
X7466830Y3622090D01*
X7538618Y3622090D01*
X7539431Y3625291D01*
X7541259Y3628339D01*
X7544003Y3631234D01*
X7547660Y3633978D01*
X7551724Y3636416D01*
X7556195Y3638550D01*
X7561021Y3640429D01*
X7566152Y3642055D01*
X7571536Y3643426D01*
X7582916Y3645458D01*
X7588910Y3646119D01*
X7601102Y3646728D01*
X7613497Y3646525D01*
X7625791Y3645560D01*
X7637627Y3643833D01*
X7648752Y3641394D01*
X7653934Y3639972D01*
X7663434Y3636619D01*
X7667650Y3634740D01*
X7671460Y3632758D01*
X7674864Y3630625D01*
X7677759Y3628339D01*
X7680147Y3626002D01*
X7681975Y3623513D01*
X7683246Y3620973D01*
X7683855Y3618280D01*
X7683855Y3615537D01*
X7683093Y3612743D01*
X7681671Y3609848D01*
X7678521Y3605580D01*
X7674813Y3601618D01*
X7670546Y3597960D01*
X7665720Y3594608D01*
X7660487Y3591610D01*
X7654848Y3588918D01*
X7648854Y3586581D01*
X7642606Y3584600D01*
X7636154Y3583025D01*
X7629448Y3581755D01*
X7622692Y3580892D01*
X7615885Y3580384D01*
X7609027Y3580282D01*
X7602220Y3580637D01*
X7595514Y3581349D01*
X7589012Y3582517D01*
X7582712Y3584092D01*
X7576667Y3586124D01*
X7570927Y3588613D01*
X7565593Y3591509D01*
X7558938Y3595878D01*
X7553198Y3600043D01*
X7548422Y3604107D01*
X7544562Y3607968D01*
X7541666Y3611727D01*
X7539685Y3615334D01*
X7538669Y3618788D01*
X7538618Y3622090D01*
X7466830Y3622090D01*
X7476286Y3616147D01*
X7488174Y3609136D01*
X7499350Y3603244D01*
X7508240Y3599078D01*
X7517993Y3593744D01*
X7529830Y3586784D01*
X7542225Y3579012D01*
X7553909Y3571341D01*
X7564018Y3565347D01*
X7568641Y3563010D01*
X7573162Y3561130D01*
X7577632Y3559657D01*
X7582255Y3558438D01*
X7587132Y3557574D01*
X7592415Y3556965D01*
X7604709Y3556406D01*
X7621574Y3556558D01*
X7630159Y3557117D01*
X7637881Y3558032D01*
X7644892Y3559403D01*
X7651496Y3561334D01*
X7657846Y3563772D01*
X7664196Y3566820D01*
X7687462Y3580485D01*
X7737043Y3608781D01*
X7750200Y3616655D01*
X7762595Y3624427D01*
X7774228Y3632047D01*
X7784947Y3639464D01*
X7794650Y3646576D01*
X7803337Y3653332D01*
X7810906Y3659682D01*
X7817205Y3665575D01*
X7822234Y3670909D01*
X7825841Y3675684D01*
X7829143Y3682136D01*
X7834223Y3694328D01*
X7839964Y3709517D01*
X7845552Y3725926D01*
X7850733Y3742029D01*
X7856220Y3757676D01*
X7861706Y3771544D01*
X7864195Y3777284D01*
X7866481Y3781907D01*
X7871459Y3790238D01*
X7874152Y3795369D01*
X7876590Y3800601D01*
X7878673Y3805986D01*
X7880451Y3811422D01*
X7881924Y3816959D01*
X7883093Y3822598D01*
X7883906Y3828237D01*
X7884414Y3833926D01*
X7884566Y3845306D01*
X7884159Y3850995D01*
X7883448Y3856634D01*
X7882432Y3862222D01*
X7881112Y3867759D01*
X7879486Y3873195D01*
X7877606Y3878529D01*
X7875371Y3883761D01*
X7872882Y3888892D01*
X7870088Y3893820D01*
X7866989Y3898646D01*
X7863636Y3903218D01*
X7859928Y3907637D01*
X7851394Y3916781D01*
X7847330Y3921810D01*
X7843723Y3926992D01*
X7840624Y3932377D01*
X7838033Y3937965D01*
X7835849Y3943756D01*
X7834122Y3949852D01*
X7831378Y3964178D01*
X7829651Y3971645D01*
X7827721Y3978605D01*
X7825536Y3985107D01*
X7823047Y3991254D01*
X7820253Y3997045D01*
X7817103Y4002532D01*
X7813649Y4007713D01*
X7809788Y4012641D01*
X7805572Y4017416D01*
X7800898Y4022039D01*
X7795818Y4026560D01*
X7778597Y4041038D01*
X7803184Y4062374D01*
X7808315Y4067048D01*
X7813446Y4072128D01*
X7823200Y4082846D01*
X7827518Y4088180D01*
X7831328Y4093311D01*
X7834426Y4097985D01*
X7836763Y4102150D01*
X7844332Y4117848D01*
X7850124Y4130548D01*
X7854340Y4141114D01*
X7857185Y4150360D01*
X7858201Y4154728D01*
X7858963Y4159148D01*
X7859775Y4168292D01*
X7859928Y4178706D01*
X7859623Y4191203D01*
X7858963Y4198162D01*
X7858252Y4201109D01*
X7857134Y4203801D01*
X7855559Y4206240D01*
X7853324Y4208475D01*
X7850479Y4210558D01*
X7846822Y4212539D01*
X7842250Y4214469D01*
X7836763Y4216400D01*
X7822438Y4220362D01*
X7803032Y4224883D01*
X7777835Y4230268D01*
X7762544Y4233164D01*
X7748727Y4235297D01*
X7737856Y4236415D01*
G37*
G36*
X6283604Y4036618D02*
G01*
X6283604Y3943400D01*
X6270752Y3952392D01*
X6266535Y3955034D01*
X6262065Y3957167D01*
X6257391Y3958844D01*
X6252616Y3960063D01*
X6247638Y3960825D01*
X6242608Y3961129D01*
X6237528Y3961028D01*
X6232398Y3960469D01*
X6227318Y3959555D01*
X6222238Y3958234D01*
X6217259Y3956507D01*
X6212382Y3954373D01*
X6207607Y3951884D01*
X6203035Y3949090D01*
X6198717Y3945890D01*
X6194602Y3942384D01*
X6190742Y3938524D01*
X6187236Y3934358D01*
X6184036Y3929887D01*
X6181242Y3925112D01*
X6179312Y3920947D01*
X6177584Y3916222D01*
X6176060Y3911041D01*
X6174740Y3905351D01*
X6172708Y3893007D01*
X6171488Y3879596D01*
X6171184Y3872687D01*
X6171191Y3861714D01*
X6220968Y3861714D01*
X6221171Y3868623D01*
X6221730Y3875582D01*
X6222542Y3882491D01*
X6223660Y3889095D01*
X6225032Y3895344D01*
X6226657Y3901084D01*
X6228486Y3906113D01*
X6230518Y3910380D01*
X6232702Y3913632D01*
X6236411Y3916679D01*
X6241542Y3918864D01*
X6247587Y3920185D01*
X6254140Y3920642D01*
X6260744Y3920286D01*
X6267043Y3919016D01*
X6272479Y3916934D01*
X6276644Y3913936D01*
X6278168Y3911650D01*
X6279489Y3908044D01*
X6280658Y3903167D01*
X6281674Y3897172D01*
X6282486Y3890213D01*
X6283502Y3873804D01*
X6283553Y3851401D01*
X6283248Y3841140D01*
X6282588Y3833368D01*
X6281470Y3827627D01*
X6279642Y3823411D01*
X6277102Y3820363D01*
X6273647Y3817924D01*
X6269126Y3815638D01*
X6263690Y3813606D01*
X6258356Y3812387D01*
X6253226Y3812032D01*
X6248298Y3812489D01*
X6243624Y3813708D01*
X6239306Y3815740D01*
X6235344Y3818483D01*
X6231788Y3821988D01*
X6228689Y3826103D01*
X6226048Y3830929D01*
X6223965Y3836415D01*
X6222492Y3842512D01*
X6221577Y3848455D01*
X6221120Y3854907D01*
X6220968Y3861714D01*
X6171191Y3861714D01*
X6171590Y3851808D01*
X6172809Y3838448D01*
X6174892Y3826001D01*
X6176264Y3820312D01*
X6177838Y3815079D01*
X6179566Y3810304D01*
X6181547Y3806139D01*
X6184493Y3801160D01*
X6187897Y3796588D01*
X6191758Y3792372D01*
X6195974Y3788511D01*
X6200546Y3785057D01*
X6205372Y3781958D01*
X6210452Y3779316D01*
X6215735Y3777081D01*
X6221171Y3775252D01*
X6226759Y3773881D01*
X6232347Y3772915D01*
X6237986Y3772458D01*
X6243624Y3772408D01*
X6249212Y3772865D01*
X6254699Y3773779D01*
X6259982Y3775151D01*
X6265113Y3777081D01*
X6269990Y3779469D01*
X6274612Y3782415D01*
X6284671Y3790797D01*
X6287820Y3792474D01*
X6289141Y3790797D01*
X6289395Y3785768D01*
X6290564Y3781196D01*
X6294374Y3778250D01*
X6301486Y3776675D01*
X6312560Y3776218D01*
X6335725Y3776218D01*
X6335725Y4036618D01*
G37*
G36*
X5194401Y4036618D02*
G01*
X5187899Y4036314D01*
X5183276Y4035602D01*
X5180279Y4034231D01*
X5178552Y4031996D01*
X5177891Y4028694D01*
X5177942Y4024020D01*
X5179161Y4011929D01*
X5180076Y4007408D01*
X5181498Y4004005D01*
X5183682Y4001515D01*
X5186883Y3999839D01*
X5191302Y3998671D01*
X5197246Y3997858D01*
X5229555Y3995470D01*
X5229504Y4022851D01*
X5229148Y4027932D01*
X5228132Y4031589D01*
X5226253Y4034078D01*
X5223103Y4035551D01*
X5218379Y4036314D01*
X5211826Y4036618D01*
G37*
G36*
X7111796Y4019296D02*
G01*
X7038746Y4019194D01*
X7019391Y4018635D01*
X7002678Y4017416D01*
X6988454Y4015435D01*
X6982155Y4014114D01*
X6976364Y4012590D01*
X6971030Y4010761D01*
X6966102Y4008729D01*
X6961631Y4006443D01*
X6957466Y4003852D01*
X6953707Y4000957D01*
X6950202Y3997756D01*
X6946950Y3994251D01*
X6943902Y3990390D01*
X6941108Y3986225D01*
X6938416Y3981653D01*
X6932777Y3970121D01*
X6930491Y3964432D01*
X6928967Y3959301D01*
X6928154Y3954424D01*
X6928053Y3949598D01*
X6928612Y3944416D01*
X6929436Y3940657D01*
X6978446Y3940657D01*
X6978599Y3945178D01*
X6979564Y3949954D01*
X6981393Y3955034D01*
X6984085Y3960317D01*
X6987641Y3965905D01*
X6990435Y3969512D01*
X6993432Y3972407D01*
X6996836Y3974642D01*
X7000951Y3976319D01*
X7005878Y3977487D01*
X7011924Y3978249D01*
X7019239Y3978656D01*
X7059675Y3978757D01*
X7059675Y3915105D01*
X7028230Y3915105D01*
X7020052Y3915359D01*
X7012584Y3916019D01*
X7005777Y3917187D01*
X6999731Y3918762D01*
X6994398Y3920794D01*
X6989775Y3923182D01*
X6985965Y3925976D01*
X6982917Y3929126D01*
X6980631Y3932631D01*
X6979158Y3936492D01*
X6978446Y3940657D01*
X6929436Y3940657D01*
X6931761Y3931970D01*
X6933539Y3926738D01*
X6935622Y3921861D01*
X6938060Y3917391D01*
X6940753Y3913276D01*
X6943699Y3909568D01*
X6946849Y3906367D01*
X6950252Y3903624D01*
X6953808Y3901440D01*
X6962394Y3896766D01*
X6965492Y3893921D01*
X6963460Y3891838D01*
X6956450Y3889349D01*
X6952183Y3887571D01*
X6948119Y3884929D01*
X6944359Y3881526D01*
X6940905Y3877360D01*
X6937705Y3872585D01*
X6934911Y3867200D01*
X6932422Y3861257D01*
X6930339Y3854856D01*
X6928713Y3847998D01*
X6927494Y3840734D01*
X6926732Y3833164D01*
X6926376Y3819702D01*
X6925462Y3808476D01*
X6923836Y3798214D01*
X6922820Y3793845D01*
X6921703Y3790187D01*
X6918756Y3783939D01*
X6917944Y3781298D01*
X6918198Y3779316D01*
X6919772Y3777894D01*
X6922820Y3777030D01*
X6927596Y3776472D01*
X6943039Y3776218D01*
X6950608Y3776319D01*
X6957009Y3776675D01*
X6962394Y3777437D01*
X6966762Y3778707D01*
X6970318Y3780637D01*
X6973062Y3783329D01*
X6975144Y3786835D01*
X6976618Y3791407D01*
X6977634Y3797046D01*
X6978243Y3803904D01*
X6978548Y3812184D01*
X6978700Y3828796D01*
X6979056Y3835044D01*
X6979666Y3840683D01*
X6980631Y3845763D01*
X6981901Y3850284D01*
X6983526Y3854297D01*
X6985558Y3857802D01*
X6987997Y3860850D01*
X6990943Y3863543D01*
X6994347Y3865778D01*
X6998258Y3867708D01*
X7002780Y3869334D01*
X7007859Y3870655D01*
X7013549Y3871722D01*
X7019950Y3872636D01*
X7059675Y3876040D01*
X7059675Y3776218D01*
X7111796Y3776218D01*
G37*
G36*
X5449620Y4019296D02*
G01*
X5371693Y4019194D01*
X5350611Y4018787D01*
X5334558Y4017873D01*
X5328056Y4017111D01*
X5322316Y4016197D01*
X5317286Y4015079D01*
X5312765Y4013708D01*
X5308600Y4012031D01*
X5304637Y4010151D01*
X5300827Y4007967D01*
X5294579Y4003852D01*
X5288940Y3999534D01*
X5283809Y3994962D01*
X5279288Y3990086D01*
X5275275Y3985006D01*
X5271820Y3979621D01*
X5268925Y3973931D01*
X5266537Y3967987D01*
X5264708Y3961739D01*
X5263388Y3955186D01*
X5262626Y3948328D01*
X5262372Y3941165D01*
X5262475Y3937050D01*
X5312206Y3937050D01*
X5312359Y3942334D01*
X5313273Y3947922D01*
X5315000Y3953764D01*
X5317540Y3959860D01*
X5320080Y3964736D01*
X5322722Y3968597D01*
X5325770Y3971493D01*
X5329682Y3973626D01*
X5334812Y3975150D01*
X5341569Y3976217D01*
X5350306Y3976979D01*
X5397500Y3979316D01*
X5397500Y3903522D01*
X5366054Y3903522D01*
X5358028Y3903776D01*
X5350560Y3904589D01*
X5343753Y3905859D01*
X5337505Y3907688D01*
X5331968Y3909923D01*
X5327040Y3912615D01*
X5322773Y3915714D01*
X5319217Y3919270D01*
X5316372Y3923182D01*
X5314238Y3927449D01*
X5312867Y3932123D01*
X5312206Y3937050D01*
X5262475Y3937050D01*
X5262981Y3929379D01*
X5263692Y3923893D01*
X5264759Y3918661D01*
X5266131Y3913682D01*
X5267807Y3908958D01*
X5269788Y3904487D01*
X5272074Y3900271D01*
X5274716Y3896309D01*
X5277612Y3892550D01*
X5280914Y3889044D01*
X5284520Y3885793D01*
X5288432Y3882796D01*
X5292699Y3880002D01*
X5297271Y3877411D01*
X5302250Y3875074D01*
X5307533Y3872992D01*
X5313172Y3871061D01*
X5325465Y3867962D01*
X5332171Y3866692D01*
X5346649Y3864864D01*
X5397500Y3861511D01*
X5397500Y3776218D01*
X5449620Y3776218D01*
G37*
G36*
X6434582Y3961434D02*
G01*
X6429197Y3961129D01*
X6423863Y3960317D01*
X6418529Y3959047D01*
X6413347Y3957320D01*
X6408216Y3955135D01*
X6403289Y3952544D01*
X6398514Y3949496D01*
X6393942Y3945991D01*
X6389624Y3942130D01*
X6385560Y3937914D01*
X6381800Y3933240D01*
X6378397Y3928262D01*
X6375349Y3922928D01*
X6372707Y3917187D01*
X6370878Y3912158D01*
X6369304Y3906418D01*
X6367983Y3900068D01*
X6366865Y3893159D01*
X6365443Y3878376D01*
X6364991Y3863340D01*
X6416700Y3863340D01*
X6416802Y3869994D01*
X6417208Y3876548D01*
X6417919Y3882898D01*
X6418884Y3888994D01*
X6420205Y3894632D01*
X6421780Y3899763D01*
X6423660Y3904284D01*
X6425844Y3908044D01*
X6430264Y3913022D01*
X6435547Y3916781D01*
X6441440Y3919270D01*
X6447688Y3920439D01*
X6454038Y3920286D01*
X6460286Y3918813D01*
X6466128Y3915968D01*
X6471412Y3911803D01*
X6473799Y3908653D01*
X6475882Y3904487D01*
X6477558Y3899408D01*
X6478930Y3893565D01*
X6479997Y3887114D01*
X6480708Y3880256D01*
X6481064Y3873093D01*
X6481114Y3865829D01*
X6480810Y3858514D01*
X6480200Y3851401D01*
X6479286Y3844594D01*
X6478066Y3838244D01*
X6476492Y3832504D01*
X6474612Y3827526D01*
X6472428Y3823462D01*
X6469938Y3820515D01*
X6464554Y3816400D01*
X6458966Y3813505D01*
X6453225Y3811828D01*
X6447434Y3811371D01*
X6441744Y3812082D01*
X6436309Y3814013D01*
X6431127Y3817162D01*
X6426403Y3821531D01*
X6424168Y3824579D01*
X6422237Y3828491D01*
X6420612Y3833164D01*
X6419240Y3838448D01*
X6418173Y3844188D01*
X6417411Y3850335D01*
X6416903Y3856786D01*
X6416700Y3863340D01*
X6364991Y3863340D01*
X6365087Y3855161D01*
X6366103Y3840378D01*
X6366967Y3833469D01*
X6368034Y3827119D01*
X6369405Y3821328D01*
X6370980Y3816299D01*
X6372809Y3812082D01*
X6375755Y3806748D01*
X6379006Y3801821D01*
X6382461Y3797198D01*
X6386169Y3792931D01*
X6390081Y3789019D01*
X6394196Y3785514D01*
X6398463Y3782364D01*
X6402933Y3779621D01*
X6407505Y3777234D01*
X6412230Y3775252D01*
X6417005Y3773678D01*
X6421932Y3772509D01*
X6426911Y3771747D01*
X6431940Y3771392D01*
X6436969Y3771493D01*
X6442049Y3772052D01*
X6447129Y3773017D01*
X6452209Y3774440D01*
X6457289Y3776319D01*
X6462268Y3778605D01*
X6480556Y3788054D01*
X6480556Y3706774D01*
X6526885Y3706774D01*
X6526885Y3961384D01*
X6506413Y3961384D01*
X6497472Y3960825D01*
X6490411Y3959098D01*
X6485382Y3956304D01*
X6482537Y3952494D01*
X6480302Y3948023D01*
X6477457Y3946499D01*
X6472936Y3948023D01*
X6460693Y3955338D01*
X6455664Y3957624D01*
X6450533Y3959351D01*
X6445250Y3960571D01*
X6439916Y3961282D01*
G37*
G36*
X5873496Y3961384D02*
G01*
X5866892Y3960571D01*
X5863082Y3957320D01*
X5861253Y3950258D01*
X5860846Y3938270D01*
X5860897Y3931107D01*
X5861253Y3925570D01*
X5861964Y3921455D01*
X5863285Y3918610D01*
X5865317Y3916781D01*
X5868162Y3915714D01*
X5872022Y3915206D01*
X5881776Y3915003D01*
X5886043Y3914597D01*
X5889752Y3913886D01*
X5893054Y3912717D01*
X5895898Y3911092D01*
X5898337Y3908856D01*
X5900420Y3905961D01*
X5902147Y3902405D01*
X5903569Y3897985D01*
X5904687Y3892753D01*
X5905550Y3886555D01*
X5906211Y3879291D01*
X5906973Y3861511D01*
X5907176Y3838701D01*
X5907176Y3776218D01*
X5959297Y3776218D01*
X5959297Y3961384D01*
X5936132Y3961384D01*
X5924092Y3960977D01*
X5917082Y3959148D01*
X5913780Y3955338D01*
X5912967Y3948836D01*
X5912967Y3936237D01*
X5899556Y3948836D01*
X5893358Y3953713D01*
X5886348Y3957726D01*
X5879439Y3960418D01*
G37*
G36*
X5753709Y3961384D02*
G01*
X5745937Y3960723D01*
X5741568Y3957624D01*
X5739638Y3950665D01*
X5739231Y3938270D01*
X5739282Y3931005D01*
X5739638Y3925468D01*
X5740349Y3921353D01*
X5741720Y3918508D01*
X5743803Y3916679D01*
X5746800Y3915664D01*
X5750864Y3915206D01*
X5761532Y3914952D01*
X5766308Y3914495D01*
X5770575Y3913632D01*
X5774334Y3912260D01*
X5777636Y3910431D01*
X5780532Y3907993D01*
X5782970Y3904843D01*
X5785053Y3901033D01*
X5786729Y3896410D01*
X5788152Y3890924D01*
X5789218Y3884574D01*
X5790082Y3877208D01*
X5791047Y3859225D01*
X5791352Y3836568D01*
X5791352Y3776218D01*
X5837682Y3776218D01*
X5837682Y3961384D01*
X5816854Y3961384D01*
X5806846Y3960825D01*
X5799937Y3958996D01*
X5795568Y3955592D01*
X5793130Y3950360D01*
X5791301Y3944264D01*
X5789168Y3942232D01*
X5785561Y3944264D01*
X5779211Y3950360D01*
X5773775Y3954627D01*
X5767171Y3958132D01*
X5760161Y3960520D01*
G37*
G36*
X5585460Y3961384D02*
G01*
X5575452Y3960977D01*
X5567222Y3959910D01*
X5561685Y3958336D01*
X5559653Y3956354D01*
X5560212Y3953052D01*
X5564327Y3938828D01*
X5571744Y3916426D01*
X5581599Y3888282D01*
X5593029Y3856634D01*
X5605170Y3823817D01*
X5617159Y3792220D01*
X5628132Y3764026D01*
X5637225Y3741724D01*
X5643626Y3727500D01*
X5645556Y3724148D01*
X5648858Y3720388D01*
X5652973Y3716832D01*
X5657748Y3713479D01*
X5663031Y3710432D01*
X5668670Y3707790D01*
X5674563Y3705453D01*
X5680557Y3703624D01*
X5686450Y3702253D01*
X5692190Y3701440D01*
X5697575Y3701237D01*
X5702452Y3701694D01*
X5706719Y3702812D01*
X5710529Y3705504D01*
X5713476Y3710025D01*
X5715355Y3716070D01*
X5716016Y3723233D01*
X5715355Y3731920D01*
X5712764Y3737559D01*
X5707481Y3741115D01*
X5698591Y3743502D01*
X5690463Y3745992D01*
X5683961Y3749954D01*
X5678881Y3755390D01*
X5675223Y3762400D01*
X5674410Y3764889D01*
X5673852Y3767531D01*
X5673547Y3770426D01*
X5673496Y3773678D01*
X5673750Y3777335D01*
X5675172Y3786174D01*
X5678068Y3797554D01*
X5682488Y3812184D01*
X5688634Y3830574D01*
X5716625Y3909415D01*
X5731967Y3953865D01*
X5733440Y3958844D01*
X5731256Y3959961D01*
X5725363Y3960571D01*
X5716676Y3960723D01*
X5706110Y3960266D01*
X5678779Y3958488D01*
X5661101Y3897680D01*
X5655360Y3879596D01*
X5650433Y3865879D01*
X5648502Y3861206D01*
X5646978Y3858260D01*
X5646013Y3857244D01*
X5644997Y3858310D01*
X5643422Y3861358D01*
X5638952Y3872534D01*
X5633262Y3889095D01*
X5626912Y3909314D01*
X5611266Y3961384D01*
G37*
G36*
X5177434Y3961384D02*
G01*
X5177434Y3776218D01*
X5229555Y3776218D01*
X5229555Y3961384D01*
G37*
G36*
X6636969Y3961129D02*
G01*
X6630466Y3961079D01*
X6624116Y3960672D01*
X6617868Y3959860D01*
X6611721Y3958691D01*
X6605828Y3957218D01*
X6600088Y3955389D01*
X6594652Y3953256D01*
X6589522Y3950817D01*
X6584645Y3948074D01*
X6580225Y3945077D01*
X6576110Y3941826D01*
X6572503Y3938320D01*
X6569303Y3934561D01*
X6566611Y3930548D01*
X6564477Y3926382D01*
X6562902Y3921963D01*
X6561937Y3917340D01*
X6561632Y3912565D01*
X6562445Y3909415D01*
X6564731Y3906875D01*
X6568236Y3904996D01*
X6572758Y3903726D01*
X6577990Y3903065D01*
X6583730Y3903065D01*
X6589775Y3903624D01*
X6595770Y3904792D01*
X6601612Y3906520D01*
X6606946Y3908856D01*
X6611569Y3911701D01*
X6619900Y3919626D01*
X6624929Y3923029D01*
X6630111Y3925214D01*
X6635394Y3926230D01*
X6640575Y3926027D01*
X6645554Y3924604D01*
X6650177Y3921963D01*
X6654241Y3918051D01*
X6657543Y3913073D01*
X6659016Y3908298D01*
X6658609Y3903776D01*
X6656425Y3899611D01*
X6652463Y3895699D01*
X6646722Y3892143D01*
X6639204Y3888994D01*
X6629958Y3886200D01*
X6609994Y3880713D01*
X6601815Y3878072D01*
X6594652Y3875481D01*
X6588404Y3872788D01*
X6583070Y3869944D01*
X6578396Y3866946D01*
X6574434Y3863746D01*
X6570929Y3860190D01*
X6567881Y3856329D01*
X6565188Y3852011D01*
X6562699Y3847185D01*
X6559803Y3840937D01*
X6557772Y3835755D01*
X6556603Y3831336D01*
X6556349Y3827221D01*
X6557009Y3823055D01*
X6558584Y3818432D01*
X6561124Y3812946D01*
X6564680Y3806190D01*
X6567576Y3801364D01*
X6570878Y3796893D01*
X6574637Y3792728D01*
X6578752Y3788968D01*
X6583222Y3785514D01*
X6588099Y3782466D01*
X6593281Y3779774D01*
X6598818Y3777437D01*
X6604660Y3775506D01*
X6610756Y3773932D01*
X6617157Y3772814D01*
X6623761Y3772052D01*
X6630670Y3771696D01*
X6637781Y3771747D01*
X6645046Y3772255D01*
X6652564Y3773170D01*
X6660032Y3774694D01*
X6667398Y3776979D01*
X6674561Y3779875D01*
X6681368Y3783380D01*
X6687769Y3787394D01*
X6693611Y3791762D01*
X6698894Y3796487D01*
X6703415Y3801465D01*
X6707073Y3806596D01*
X6709867Y3811778D01*
X6711594Y3816959D01*
X6712203Y3822039D01*
X6711492Y3826205D01*
X6709460Y3829558D01*
X6706362Y3832047D01*
X6702298Y3833774D01*
X6697522Y3834688D01*
X6692138Y3834841D01*
X6686346Y3834180D01*
X6680301Y3832809D01*
X6674256Y3830624D01*
X6668363Y3827678D01*
X6662775Y3824020D01*
X6651802Y3814114D01*
X6646468Y3810000D01*
X6641490Y3807256D01*
X6636715Y3805936D01*
X6631990Y3805885D01*
X6627114Y3807155D01*
X6621932Y3809695D01*
X6616293Y3813505D01*
X6612585Y3816705D01*
X6610146Y3820007D01*
X6608927Y3823309D01*
X6608927Y3826662D01*
X6610146Y3829964D01*
X6612534Y3833317D01*
X6616090Y3836619D01*
X6620814Y3839870D01*
X6626656Y3843121D01*
X6633616Y3846220D01*
X6641744Y3849319D01*
X6660896Y3855364D01*
X6669735Y3858514D01*
X6677456Y3861714D01*
X6684111Y3865067D01*
X6689801Y3868572D01*
X6694525Y3872280D01*
X6698386Y3876243D01*
X6701434Y3880561D01*
X6703669Y3885234D01*
X6705244Y3890314D01*
X6706108Y3895851D01*
X6706412Y3901897D01*
X6706209Y3908348D01*
X6705650Y3914292D01*
X6704685Y3919829D01*
X6703263Y3924909D01*
X6701434Y3929583D01*
X6699199Y3933901D01*
X6696456Y3937812D01*
X6693255Y3941419D01*
X6689598Y3944721D01*
X6685432Y3947718D01*
X6680758Y3950462D01*
X6675526Y3952951D01*
X6669328Y3955389D01*
X6662928Y3957421D01*
X6656476Y3958945D01*
X6649974Y3960114D01*
X6643471Y3960825D01*
G37*
G36*
X6066637Y3960825D02*
G01*
X6059474Y3960571D01*
X6052312Y3959809D01*
X6045301Y3958640D01*
X6038443Y3956964D01*
X6031941Y3954830D01*
X6025743Y3952290D01*
X6021425Y3949954D01*
X6017361Y3947312D01*
X6013500Y3944315D01*
X6009944Y3940962D01*
X6006592Y3937254D01*
X6003493Y3933240D01*
X6000699Y3928922D01*
X5998159Y3924300D01*
X5995873Y3919372D01*
X5993892Y3914190D01*
X5992164Y3908755D01*
X5990793Y3903065D01*
X5989675Y3897172D01*
X5989069Y3892550D01*
X6035598Y3892550D01*
X6036513Y3896410D01*
X6039256Y3901490D01*
X6043574Y3908044D01*
X6047790Y3913022D01*
X6052464Y3916781D01*
X6057442Y3919220D01*
X6062624Y3920388D01*
X6067958Y3920185D01*
X6073241Y3918712D01*
X6078423Y3915918D01*
X6083401Y3911803D01*
X6087262Y3907586D01*
X6090158Y3903827D01*
X6092037Y3900424D01*
X6092952Y3897376D01*
X6092799Y3894683D01*
X6091682Y3892397D01*
X6089548Y3890467D01*
X6086398Y3888892D01*
X6082233Y3887724D01*
X6077000Y3886860D01*
X6070803Y3886352D01*
X6063538Y3886149D01*
X6053124Y3886301D01*
X6045250Y3886860D01*
X6039815Y3887927D01*
X6036665Y3889806D01*
X6035598Y3892550D01*
X5989069Y3892550D01*
X5988405Y3884625D01*
X5988253Y3851452D01*
X6050483Y3851351D01*
X6067298Y3850792D01*
X6074054Y3850233D01*
X6079794Y3849471D01*
X6084468Y3848455D01*
X6088126Y3847236D01*
X6090818Y3845763D01*
X6092545Y3843934D01*
X6093358Y3841851D01*
X6093256Y3839464D01*
X6092291Y3836720D01*
X6090462Y3833571D01*
X6087821Y3830065D01*
X6084417Y3826154D01*
X6080252Y3821836D01*
X6077051Y3818991D01*
X6073546Y3816654D01*
X6069685Y3814826D01*
X6065520Y3813454D01*
X6060897Y3812590D01*
X6055766Y3812184D01*
X6050178Y3812286D01*
X6044031Y3812844D01*
X6037326Y3813911D01*
X6029960Y3815435D01*
X6021882Y3817416D01*
X6013145Y3819906D01*
X6006592Y3821176D01*
X6002121Y3820058D01*
X5999022Y3816146D01*
X5996635Y3808984D01*
X5995568Y3804056D01*
X5994958Y3799789D01*
X5994908Y3796029D01*
X5995466Y3792829D01*
X5996736Y3789984D01*
X5998819Y3787444D01*
X6001715Y3785260D01*
X6005576Y3783228D01*
X6010452Y3781298D01*
X6016396Y3779469D01*
X6023457Y3777589D01*
X6031788Y3775659D01*
X6039002Y3774236D01*
X6046012Y3773119D01*
X6052820Y3772458D01*
X6059373Y3772103D01*
X6065774Y3772154D01*
X6071920Y3772611D01*
X6077864Y3773474D01*
X6083655Y3774694D01*
X6089243Y3776268D01*
X6094628Y3778300D01*
X6099860Y3780688D01*
X6104890Y3783482D01*
X6109817Y3786632D01*
X6114542Y3790238D01*
X6119164Y3794201D01*
X6123635Y3798570D01*
X6127140Y3802532D01*
X6130391Y3806799D01*
X6133338Y3811219D01*
X6136030Y3815892D01*
X6138418Y3820769D01*
X6140500Y3825798D01*
X6142329Y3830980D01*
X6143904Y3836314D01*
X6145174Y3841750D01*
X6146190Y3847287D01*
X6146952Y3852875D01*
X6147663Y3864203D01*
X6147612Y3869944D01*
X6146749Y3881323D01*
X6144869Y3892499D01*
X6142024Y3903370D01*
X6138164Y3913733D01*
X6133388Y3923436D01*
X6130594Y3928008D01*
X6127648Y3932326D01*
X6124397Y3936441D01*
X6120993Y3940251D01*
X6117336Y3943807D01*
X6113424Y3947058D01*
X6109309Y3950004D01*
X6104991Y3952595D01*
X6099606Y3955135D01*
X6093663Y3957167D01*
X6087313Y3958793D01*
X6080658Y3959910D01*
X6073698Y3960622D01*
G37*
G36*
X6812483Y3959809D02*
G01*
X6805320Y3959504D01*
X6796227Y3958742D01*
X6788607Y3957726D01*
X6782206Y3956354D01*
X6776669Y3954424D01*
X6771792Y3951884D01*
X6767118Y3948531D01*
X6762496Y3944315D01*
X6753961Y3934968D01*
X6750964Y3931208D01*
X6748424Y3927601D01*
X6746392Y3923944D01*
X6744766Y3919982D01*
X6743547Y3915511D01*
X6742582Y3910329D01*
X6741515Y3897071D01*
X6740743Y3840073D01*
X6793280Y3840073D01*
X6793585Y3846118D01*
X6794601Y3850741D01*
X6796582Y3853992D01*
X6799681Y3855923D01*
X6804202Y3856634D01*
X6810248Y3856177D01*
X6818122Y3854602D01*
X6828028Y3852062D01*
X6832600Y3850132D01*
X6836409Y3847337D01*
X6839407Y3843832D01*
X6841591Y3839819D01*
X6843014Y3835501D01*
X6843623Y3830980D01*
X6843420Y3826560D01*
X6842353Y3822395D01*
X6840474Y3818636D01*
X6837781Y3815537D01*
X6834225Y3813251D01*
X6829755Y3812032D01*
X6822186Y3811574D01*
X6815175Y3812438D01*
X6808978Y3814521D01*
X6803644Y3817721D01*
X6799275Y3821988D01*
X6796024Y3827170D01*
X6793992Y3833215D01*
X6793280Y3840073D01*
X6740743Y3840073D01*
X6739737Y3816654D01*
X6738924Y3805580D01*
X6738010Y3797249D01*
X6736384Y3788359D01*
X6735876Y3783888D01*
X6736130Y3780688D01*
X6737502Y3778504D01*
X6740144Y3777183D01*
X6744360Y3776522D01*
X6750354Y3776218D01*
X6758330Y3776218D01*
X6770522Y3776726D01*
X6778498Y3778504D01*
X6783222Y3782060D01*
X6785813Y3787749D01*
X6787845Y3793896D01*
X6790893Y3795522D01*
X6796582Y3792423D01*
X6811924Y3780028D01*
X6816648Y3776726D01*
X6821170Y3774287D01*
X6825589Y3772611D01*
X6830314Y3771646D01*
X6835444Y3771341D01*
X6841236Y3771595D01*
X6847992Y3772357D01*
X6853580Y3773322D01*
X6858863Y3774643D01*
X6863892Y3776370D01*
X6868617Y3778504D01*
X6872986Y3780942D01*
X6877050Y3783736D01*
X6880809Y3786835D01*
X6884212Y3790289D01*
X6887209Y3793998D01*
X6889902Y3798062D01*
X6892188Y3802329D01*
X6894068Y3806901D01*
X6895592Y3811727D01*
X6896658Y3816807D01*
X6897319Y3822090D01*
X6897522Y3827627D01*
X6897268Y3832758D01*
X6896506Y3837736D01*
X6895236Y3842562D01*
X6893509Y3847134D01*
X6891324Y3851503D01*
X6888683Y3855669D01*
X6885584Y3859631D01*
X6882079Y3863340D01*
X6878167Y3866794D01*
X6873849Y3869994D01*
X6869175Y3872941D01*
X6864096Y3875633D01*
X6858660Y3878021D01*
X6852869Y3880104D01*
X6846773Y3881932D01*
X6840372Y3883406D01*
X6833616Y3884625D01*
X6826605Y3885488D01*
X6819290Y3885996D01*
X6801358Y3886606D01*
X6795820Y3888689D01*
X6793890Y3893464D01*
X6794347Y3902100D01*
X6796024Y3910228D01*
X6799376Y3915359D01*
X6805371Y3918254D01*
X6815023Y3919829D01*
X6823659Y3920083D01*
X6830161Y3919016D01*
X6834682Y3916527D01*
X6839356Y3909923D01*
X6842912Y3907637D01*
X6847738Y3905859D01*
X6853428Y3904487D01*
X6859727Y3903573D01*
X6866229Y3903167D01*
X6872630Y3903218D01*
X6878624Y3903726D01*
X6883857Y3904742D01*
X6888022Y3906265D01*
X6890766Y3908348D01*
X6891731Y3910939D01*
X6890918Y3916121D01*
X6888581Y3921861D01*
X6884974Y3927856D01*
X6880250Y3933850D01*
X6874662Y3939692D01*
X6868414Y3945026D01*
X6861708Y3949700D01*
X6854799Y3953408D01*
X6850278Y3955135D01*
X6845096Y3956608D01*
X6839356Y3957828D01*
X6833108Y3958793D01*
X6826453Y3959453D01*
X6819544Y3959758D01*
G37*
G36*
X5278170Y3689400D02*
G01*
X5264708Y3689350D01*
X5254396Y3689045D01*
X5246725Y3688435D01*
X5241188Y3687318D01*
X5237429Y3685590D01*
X5234940Y3683101D01*
X5233314Y3679698D01*
X5230774Y3671112D01*
X5229199Y3667810D01*
X5227066Y3665220D01*
X5224272Y3663238D01*
X5220462Y3661765D01*
X5215585Y3660698D01*
X5189118Y3658006D01*
X5180736Y3655974D01*
X5176012Y3652977D01*
X5174538Y3648862D01*
X5176062Y3644798D01*
X5180838Y3641801D01*
X5189372Y3639718D01*
X5202021Y3638448D01*
X5229555Y3636670D01*
X5229555Y3580079D01*
X5202021Y3578301D01*
X5189372Y3577031D01*
X5180838Y3574948D01*
X5176062Y3571951D01*
X5174538Y3567836D01*
X5176012Y3563772D01*
X5180787Y3560775D01*
X5189220Y3558692D01*
X5209438Y3556812D01*
X5215636Y3556050D01*
X5220512Y3555034D01*
X5224170Y3553663D01*
X5226812Y3551834D01*
X5228691Y3549548D01*
X5229910Y3546601D01*
X5231434Y3539032D01*
X5232857Y3535984D01*
X5235295Y3533648D01*
X5239258Y3531920D01*
X5245100Y3530701D01*
X5253278Y3529787D01*
X5278272Y3528517D01*
X5295646Y3528060D01*
X5302758Y3528060D01*
X5308955Y3528314D01*
X5314238Y3528872D01*
X5318760Y3529736D01*
X5322468Y3531006D01*
X5325516Y3532682D01*
X5328005Y3534816D01*
X5329885Y3537508D01*
X5331307Y3540760D01*
X5332323Y3544620D01*
X5333034Y3549142D01*
X5333644Y3560318D01*
X5333796Y3575456D01*
X5334050Y3581704D01*
X5334762Y3586022D01*
X5336082Y3588816D01*
X5338216Y3590188D01*
X5341467Y3590493D01*
X5345938Y3589985D01*
X5351881Y3588816D01*
X5356199Y3587648D01*
X5361584Y3585616D01*
X5367832Y3582924D01*
X5382006Y3575761D01*
X5396941Y3567074D01*
X5409641Y3558844D01*
X5420360Y3552393D01*
X5430774Y3546906D01*
X5440934Y3542436D01*
X5450890Y3538880D01*
X5460746Y3536340D01*
X5465622Y3535426D01*
X5475427Y3534308D01*
X5485282Y3534206D01*
X5495188Y3535070D01*
X5505297Y3536899D01*
X5510428Y3538169D01*
X5520944Y3541522D01*
X5531713Y3545789D01*
X5542889Y3551123D01*
X5554573Y3557371D01*
X5566714Y3564686D01*
X5580380Y3573424D01*
X5592724Y3580841D01*
X5597956Y3583635D01*
X5602732Y3585870D01*
X5607253Y3587546D01*
X5611520Y3588816D01*
X5615787Y3589629D01*
X5620156Y3590086D01*
X5624728Y3590188D01*
X5635142Y3589578D01*
X5641898Y3588664D01*
X5648655Y3587242D01*
X5655513Y3585210D01*
X5662422Y3582619D01*
X5669534Y3579418D01*
X5676798Y3575608D01*
X5684266Y3571189D01*
X5697829Y3562197D01*
X5709107Y3555187D01*
X5720080Y3549142D01*
X5730798Y3544112D01*
X5741263Y3540099D01*
X5751525Y3537102D01*
X5761685Y3535070D01*
X5771794Y3534054D01*
X5781852Y3534054D01*
X5786882Y3534410D01*
X5796991Y3535934D01*
X5807202Y3538423D01*
X5817565Y3541928D01*
X5828080Y3546449D01*
X5838901Y3551936D01*
X5850026Y3558438D01*
X5868720Y3570681D01*
X5875985Y3574948D01*
X5883249Y3578758D01*
X5890412Y3582060D01*
X5897422Y3584854D01*
X5904128Y3587089D01*
X5910580Y3588664D01*
X5916625Y3589680D01*
X5926531Y3590340D01*
X5931052Y3590239D01*
X5935522Y3589731D01*
X5939993Y3588816D01*
X5944717Y3587394D01*
X5949848Y3585413D01*
X5955436Y3582924D01*
X5961684Y3579774D01*
X5976721Y3571341D01*
X5992012Y3562350D01*
X6004458Y3555390D01*
X6016548Y3549040D01*
X6027724Y3543554D01*
X6037326Y3539286D01*
X6044742Y3536492D01*
X6047486Y3535730D01*
X6053328Y3534664D01*
X6059271Y3533952D01*
X6065316Y3533648D01*
X6071463Y3533698D01*
X6077661Y3534156D01*
X6084011Y3534968D01*
X6090412Y3536187D01*
X6096914Y3537762D01*
X6103518Y3539693D01*
X6110173Y3542029D01*
X6116929Y3544722D01*
X6123736Y3547821D01*
X6130594Y3551275D01*
X6137554Y3555085D01*
X6144615Y3559301D01*
X6158941Y3568598D01*
X6171387Y3576269D01*
X6176822Y3579215D01*
X6181852Y3581654D01*
X6186678Y3583635D01*
X6191351Y3585159D01*
X6196025Y3586378D01*
X6200851Y3587191D01*
X6205829Y3587750D01*
X6217005Y3588105D01*
X6228181Y3587750D01*
X6233210Y3587191D01*
X6237986Y3586378D01*
X6242659Y3585159D01*
X6247333Y3583635D01*
X6252159Y3581654D01*
X6257239Y3579215D01*
X6268567Y3572713D01*
X6289446Y3559251D01*
X6303416Y3551224D01*
X6310325Y3547770D01*
X6317132Y3544722D01*
X6323888Y3542029D01*
X6330543Y3539693D01*
X6337147Y3537712D01*
X6343650Y3536187D01*
X6350050Y3534968D01*
X6356400Y3534156D01*
X6362649Y3533698D01*
X6368796Y3533648D01*
X6374841Y3533952D01*
X6380835Y3534664D01*
X6389420Y3536492D01*
X6396736Y3539236D01*
X6406134Y3543452D01*
X6416954Y3548735D01*
X6428638Y3554933D01*
X6440627Y3561689D01*
X6453682Y3569360D01*
X6466738Y3576675D01*
X6478574Y3582415D01*
X6484061Y3584701D01*
X6489395Y3586632D01*
X6494526Y3588156D01*
X6499555Y3589324D01*
X6504482Y3590086D01*
X6509308Y3590442D01*
X6514134Y3590442D01*
X6518960Y3590036D01*
X6523786Y3589223D01*
X6528765Y3588004D01*
X6533794Y3586429D01*
X6538976Y3584448D01*
X6549999Y3579215D01*
X6561988Y3572408D01*
X6575298Y3563975D01*
X6587845Y3555644D01*
X6598462Y3549446D01*
X6609029Y3544366D01*
X6614312Y3542233D01*
X6619646Y3540353D01*
X6630212Y3537407D01*
X6635546Y3536340D01*
X6646214Y3535019D01*
X6651548Y3534765D01*
X6656933Y3534765D01*
X6667753Y3535629D01*
X6678726Y3537508D01*
X6689852Y3540506D01*
X6695490Y3542385D01*
X6706870Y3547008D01*
X6718503Y3552698D01*
X6730339Y3559454D01*
X6742887Y3567429D01*
X6755180Y3574745D01*
X6766509Y3580637D01*
X6777075Y3585108D01*
X6787083Y3588258D01*
X6791909Y3589274D01*
X6796684Y3589985D01*
X6801358Y3590340D01*
X6806031Y3590340D01*
X6810705Y3590036D01*
X6815378Y3589375D01*
X6820052Y3588359D01*
X6824827Y3586987D01*
X6834631Y3583330D01*
X6844944Y3578301D01*
X6855917Y3571900D01*
X6868007Y3564229D01*
X6880148Y3557015D01*
X6891832Y3550767D01*
X6903059Y3545586D01*
X6913981Y3541369D01*
X6924598Y3538169D01*
X6935012Y3535984D01*
X6940092Y3535222D01*
X6950252Y3534562D01*
X6955332Y3534562D01*
X6965391Y3535375D01*
X6975449Y3537204D01*
X6985609Y3539998D01*
X6995871Y3543808D01*
X7006336Y3548634D01*
X7017054Y3554425D01*
X7028129Y3561232D01*
X7040118Y3569106D01*
X7046874Y3573068D01*
X7053884Y3576878D01*
X7060946Y3580384D01*
X7067854Y3583533D01*
X7074357Y3586175D01*
X7080300Y3588207D01*
X7091680Y3591051D01*
X7097318Y3592880D01*
X7102195Y3594912D01*
X7106412Y3597198D01*
X7109917Y3599586D01*
X7112762Y3602075D01*
X7114895Y3604666D01*
X7116368Y3607308D01*
X7117130Y3609949D01*
X7117283Y3612489D01*
X7116724Y3614978D01*
X7115505Y3617315D01*
X7113574Y3619500D01*
X7111034Y3621481D01*
X7107834Y3623208D01*
X7103973Y3624630D01*
X7099452Y3625697D01*
X7094321Y3626459D01*
X7088530Y3626713D01*
X7082078Y3626561D01*
X7072579Y3625494D01*
X7062774Y3623310D01*
X7057745Y3621887D01*
X7047484Y3618179D01*
X7037070Y3613454D01*
X7031786Y3610762D01*
X7021169Y3604615D01*
X7010552Y3597503D01*
X6996023Y3586784D01*
X6991807Y3584295D01*
X6987235Y3582162D01*
X6982409Y3580333D01*
X6977329Y3578758D01*
X6971995Y3577539D01*
X6966508Y3576624D01*
X6960920Y3575964D01*
X6955231Y3575608D01*
X6943648Y3575862D01*
X6937857Y3576421D01*
X6932168Y3577285D01*
X6926580Y3578453D01*
X6921093Y3579876D01*
X6915759Y3581654D01*
X6910679Y3583686D01*
X6905853Y3586022D01*
X6901281Y3588613D01*
X6891375Y3595725D01*
X6880047Y3603345D01*
X6868820Y3609949D01*
X6857593Y3615537D01*
X6852056Y3617925D01*
X6840931Y3621938D01*
X6829856Y3624935D01*
X6818833Y3626916D01*
X6807809Y3627882D01*
X6796786Y3627831D01*
X6791299Y3627424D01*
X6780275Y3625799D01*
X6774789Y3624630D01*
X6763715Y3621481D01*
X6752640Y3617315D01*
X6747103Y3614877D01*
X6735978Y3609187D01*
X6724802Y3602482D01*
X6713880Y3595217D01*
X6703771Y3589070D01*
X6694068Y3584143D01*
X6689344Y3582060D01*
X6679996Y3578758D01*
X6670700Y3576523D01*
X6666026Y3575710D01*
X6655511Y3574694D01*
X6650380Y3574491D01*
X6645605Y3574592D01*
X6641134Y3574999D01*
X6636816Y3575812D01*
X6632397Y3577031D01*
X6627875Y3578758D01*
X6622948Y3581044D01*
X6611620Y3587445D01*
X6584797Y3604209D01*
X6572758Y3610762D01*
X6561074Y3616299D01*
X6549593Y3620770D01*
X6538315Y3624173D01*
X6527241Y3626510D01*
X6516268Y3627780D01*
X6510832Y3628034D01*
X6500012Y3627729D01*
X6489242Y3626358D01*
X6483858Y3625291D01*
X6473037Y3622344D01*
X6462166Y3618280D01*
X6451193Y3613200D01*
X6440119Y3607054D01*
X6428790Y3599840D01*
X6411518Y3587445D01*
X6406032Y3584143D01*
X6400596Y3581501D01*
X6394907Y3579520D01*
X6388709Y3578098D01*
X6381800Y3577183D01*
X6373926Y3576675D01*
X6358026Y3576624D01*
X6351981Y3576828D01*
X6346494Y3577285D01*
X6341465Y3577996D01*
X6336690Y3579063D01*
X6332016Y3580434D01*
X6327394Y3582263D01*
X6322568Y3584549D01*
X6317488Y3587343D01*
X6311950Y3590696D01*
X6293104Y3603244D01*
X6281318Y3610203D01*
X6269583Y3615994D01*
X6263741Y3618484D01*
X6257848Y3620668D01*
X6252006Y3622548D01*
X6240322Y3625443D01*
X6234480Y3626459D01*
X6228638Y3627170D01*
X6216954Y3627729D01*
X6211112Y3627577D01*
X6199428Y3626408D01*
X6193586Y3625392D01*
X6187744Y3624072D01*
X6181852Y3622446D01*
X6176010Y3620566D01*
X6170117Y3618382D01*
X6158382Y3613150D01*
X6146596Y3606698D01*
X6140704Y3603091D01*
X6121958Y3590594D01*
X6111392Y3584498D01*
X6106566Y3582263D01*
X6101943Y3580434D01*
X6097320Y3579063D01*
X6092545Y3577996D01*
X6087465Y3577285D01*
X6082030Y3576828D01*
X6069228Y3576523D01*
X6060135Y3576675D01*
X6052210Y3577183D01*
X6045301Y3578098D01*
X6039154Y3579520D01*
X6033414Y3581501D01*
X6027978Y3584143D01*
X6022492Y3587445D01*
X6010960Y3595827D01*
X5999530Y3603599D01*
X5988354Y3610254D01*
X5977331Y3615893D01*
X5966409Y3620465D01*
X5960973Y3622344D01*
X5950153Y3625291D01*
X5939383Y3627170D01*
X5933998Y3627729D01*
X5923178Y3628034D01*
X5912256Y3627272D01*
X5906770Y3626510D01*
X5895695Y3624173D01*
X5884468Y3620770D01*
X5872988Y3616299D01*
X5861253Y3610762D01*
X5849213Y3604209D01*
X5822340Y3587394D01*
X5810961Y3580993D01*
X5806084Y3578707D01*
X5801512Y3576980D01*
X5797143Y3575761D01*
X5792724Y3574948D01*
X5788253Y3574542D01*
X5783427Y3574491D01*
X5772302Y3575202D01*
X5767476Y3575761D01*
X5757976Y3577590D01*
X5753303Y3578809D01*
X5743956Y3582111D01*
X5739180Y3584143D01*
X5729478Y3589121D01*
X5719318Y3595268D01*
X5702858Y3606037D01*
X5691733Y3612235D01*
X5680710Y3617366D01*
X5669686Y3621532D01*
X5658713Y3624630D01*
X5647791Y3626764D01*
X5636818Y3627831D01*
X5631383Y3627983D01*
X5620410Y3627526D01*
X5609437Y3626053D01*
X5598464Y3623564D01*
X5587390Y3620058D01*
X5581853Y3617925D01*
X5570778Y3612845D01*
X5559552Y3606800D01*
X5548325Y3599687D01*
X5531205Y3587445D01*
X5525719Y3584143D01*
X5520283Y3581501D01*
X5514594Y3579520D01*
X5508396Y3578098D01*
X5501487Y3577183D01*
X5493562Y3576675D01*
X5477713Y3576624D01*
X5471668Y3576828D01*
X5466181Y3577285D01*
X5461152Y3577996D01*
X5456377Y3579063D01*
X5451703Y3580434D01*
X5447030Y3582263D01*
X5442254Y3584549D01*
X5437124Y3587343D01*
X5425490Y3594709D01*
X5413552Y3602736D01*
X5403189Y3609035D01*
X5392928Y3614470D01*
X5382971Y3618992D01*
X5373624Y3622395D01*
X5369204Y3623716D01*
X5361127Y3625342D01*
X5353253Y3626459D01*
X5347258Y3627678D01*
X5342890Y3629202D01*
X5339791Y3631336D01*
X5337708Y3634384D01*
X5336336Y3638600D01*
X5335473Y3644290D01*
X5334812Y3651707D01*
X5333593Y3661257D01*
X5331714Y3670147D01*
X5329377Y3677412D01*
X5326888Y3682085D01*
X5324754Y3683711D01*
X5321452Y3685184D01*
X5316931Y3686454D01*
X5311292Y3687470D01*
X5304536Y3688283D01*
X5296712Y3688892D01*
G37*
D10*
X8509000Y10281089D02*
G01*
X8509000Y10166545D01*
X8509000Y10281089D02*
G01*
X8465362Y10166545D01*
X8421728Y10281089D02*
G01*
X8465362Y10166545D01*
X8421728Y10281089D02*
G01*
X8421728Y10166545D01*
X8287545Y10302908D02*
G01*
X8385728Y10128364D01*
X8251545Y10281089D02*
G01*
X8251545Y10166545D01*
X8251545Y10281089D02*
G01*
X8180636Y10281089D01*
X8251545Y10226545D02*
G01*
X8207910Y10226545D01*
X8251545Y10166545D02*
G01*
X8180636Y10166545D01*
X7984274Y10264726D02*
G01*
X7995183Y10275636D01*
X8011546Y10281089D01*
X8033364Y10281089D01*
X8049727Y10275636D01*
X8060636Y10264726D01*
X8060636Y10253817D01*
X8055183Y10242908D01*
X8049727Y10237454D01*
X8038818Y10231999D01*
X8006092Y10221089D01*
X7995183Y10215636D01*
X7989727Y10210182D01*
X7984274Y10199273D01*
X7984274Y10182908D01*
X7995183Y10171999D01*
X8011546Y10166545D01*
X8033364Y10166545D01*
X8049727Y10171999D01*
X8060636Y10182908D01*
X7915546Y10281089D02*
G01*
X7926456Y10275636D01*
X7937365Y10264726D01*
X7942818Y10253817D01*
X7948274Y10237454D01*
X7948274Y10210182D01*
X7942818Y10193817D01*
X7937365Y10182908D01*
X7926456Y10171999D01*
X7915546Y10166545D01*
X7893728Y10166545D01*
X7882818Y10171999D01*
X7871909Y10182908D01*
X7866456Y10193817D01*
X7861000Y10210182D01*
X7861000Y10237454D01*
X7866456Y10253817D01*
X7871909Y10264726D01*
X7882818Y10275636D01*
X7893728Y10281089D01*
X7915546Y10281089D01*
X7825000Y10281089D02*
G01*
X7825000Y10199273D01*
X7819547Y10182908D01*
X7808638Y10171999D01*
X7792272Y10166545D01*
X7781366Y10166545D01*
X7765000Y10171999D01*
X7754091Y10182908D01*
X7748638Y10199273D01*
X7748638Y10281089D01*
X7712638Y10281089D02*
G01*
X7712638Y10166545D01*
X7712638Y10281089D02*
G01*
X7663548Y10281089D01*
X7647183Y10275636D01*
X7641729Y10270182D01*
X7636273Y10259273D01*
X7636273Y10248364D01*
X7641729Y10237454D01*
X7647183Y10231999D01*
X7663548Y10226545D01*
X7712638Y10226545D01*
X7674455Y10226545D02*
G01*
X7636273Y10166545D01*
X7518455Y10253817D02*
G01*
X7523911Y10264726D01*
X7534821Y10275636D01*
X7545730Y10281089D01*
X7567546Y10281089D01*
X7578455Y10275636D01*
X7589365Y10264726D01*
X7594820Y10253817D01*
X7600274Y10237454D01*
X7600274Y10210182D01*
X7594820Y10193817D01*
X7589365Y10182908D01*
X7578455Y10171999D01*
X7567546Y10166545D01*
X7545730Y10166545D01*
X7534821Y10171999D01*
X7523911Y10182908D01*
X7518455Y10193817D01*
X7482456Y10281089D02*
G01*
X7482456Y10166545D01*
X7482456Y10281089D02*
G01*
X7411547Y10281089D01*
X7482456Y10226545D02*
G01*
X7438819Y10226545D01*
X7482456Y10166545D02*
G01*
X7411547Y10166545D01*
X7215184Y10264726D02*
G01*
X7226094Y10275636D01*
X7242456Y10281089D01*
X7264275Y10281089D01*
X7280638Y10275636D01*
X7291547Y10264726D01*
X7291547Y10253817D01*
X7286094Y10242908D01*
X7280638Y10237454D01*
X7269728Y10231999D01*
X7237003Y10221089D01*
X7226094Y10215636D01*
X7220638Y10210182D01*
X7215184Y10199273D01*
X7215184Y10182908D01*
X7226094Y10171999D01*
X7242456Y10166545D01*
X7264275Y10166545D01*
X7280638Y10171999D01*
X7291547Y10182908D01*
X7179185Y10281089D02*
G01*
X7179185Y10166545D01*
X7179185Y10281089D02*
G01*
X7108276Y10281089D01*
X7179185Y10226545D02*
G01*
X7135548Y10226545D01*
X7179185Y10166545D02*
G01*
X7108276Y10166545D01*
X7072274Y10281089D02*
G01*
X7072274Y10166545D01*
X7072274Y10166545D02*
G01*
X7006821Y10166545D01*
X6970821Y10281089D02*
G01*
X6970821Y10166545D01*
X6970821Y10281089D02*
G01*
X6899912Y10281089D01*
X6970821Y10226545D02*
G01*
X6927184Y10226545D01*
X6970821Y10166545D02*
G01*
X6899912Y10166545D01*
X6782094Y10253817D02*
G01*
X6787548Y10264726D01*
X6798457Y10275636D01*
X6809366Y10281089D01*
X6831185Y10281089D01*
X6842094Y10275636D01*
X6853003Y10264726D01*
X6858457Y10253817D01*
X6863913Y10237454D01*
X6863913Y10210182D01*
X6858457Y10193817D01*
X6853003Y10182908D01*
X6842094Y10171999D01*
X6831185Y10166545D01*
X6809366Y10166545D01*
X6798457Y10171999D01*
X6787548Y10182908D01*
X6782094Y10193817D01*
X6707913Y10281089D02*
G01*
X6707913Y10166545D01*
X6746095Y10281089D02*
G01*
X6669730Y10281089D01*
X6601002Y10281089D02*
G01*
X6611912Y10275636D01*
X6622821Y10264726D01*
X6628277Y10253817D01*
X6633730Y10237454D01*
X6633730Y10210182D01*
X6628277Y10193817D01*
X6622821Y10182908D01*
X6611912Y10171999D01*
X6601002Y10166545D01*
X6579186Y10166545D01*
X6568277Y10171999D01*
X6557368Y10182908D01*
X6551912Y10193817D01*
X6546458Y10210182D01*
X6546458Y10237454D01*
X6551912Y10253817D01*
X6557368Y10264726D01*
X6568277Y10275636D01*
X6579186Y10281089D01*
X6601002Y10281089D01*
X6510459Y10281089D02*
G01*
X6510459Y10166545D01*
X6510459Y10281089D02*
G01*
X6461368Y10281089D01*
X6445003Y10275636D01*
X6439550Y10270182D01*
X6434094Y10259273D01*
X6434094Y10248364D01*
X6439550Y10237454D01*
X6445003Y10231999D01*
X6461368Y10226545D01*
X6510459Y10226545D01*
X6472275Y10226545D02*
G01*
X6434094Y10166545D01*
X6314094Y10281089D02*
G01*
X6314094Y10166545D01*
X6314094Y10281089D02*
G01*
X6265003Y10281089D01*
X6248641Y10275636D01*
X6243185Y10270182D01*
X6237731Y10259273D01*
X6237731Y10242908D01*
X6243185Y10231999D01*
X6248641Y10226545D01*
X6265003Y10221089D01*
X6314094Y10221089D01*
X6201732Y10281089D02*
G01*
X6201732Y10166545D01*
X6201732Y10281089D02*
G01*
X6152641Y10281089D01*
X6136276Y10275636D01*
X6130823Y10270182D01*
X6125367Y10259273D01*
X6125367Y10248364D01*
X6130823Y10237454D01*
X6136276Y10231999D01*
X6152641Y10226545D01*
X6201732Y10226545D01*
X6163551Y10226545D02*
G01*
X6125367Y10166545D01*
X6056640Y10281089D02*
G01*
X6067549Y10275636D01*
X6078458Y10264726D01*
X6083914Y10253817D01*
X6089368Y10237454D01*
X6089368Y10210182D01*
X6083914Y10193817D01*
X6078458Y10182908D01*
X6067549Y10171999D01*
X6056640Y10166545D01*
X6034824Y10166545D01*
X6023914Y10171999D01*
X6013005Y10182908D01*
X6007549Y10193817D01*
X6002096Y10210182D01*
X6002096Y10237454D01*
X6007549Y10253817D01*
X6013005Y10264726D01*
X6023914Y10275636D01*
X6034824Y10281089D01*
X6056640Y10281089D01*
X5884278Y10253817D02*
G01*
X5889731Y10264726D01*
X5900640Y10275636D01*
X5911550Y10281089D01*
X5933368Y10281089D01*
X5944278Y10275636D01*
X5955187Y10264726D01*
X5960640Y10253817D01*
X5966096Y10237454D01*
X5966096Y10210182D01*
X5960640Y10193817D01*
X5955187Y10182908D01*
X5944278Y10171999D01*
X5933368Y10166545D01*
X5911550Y10166545D01*
X5900640Y10171999D01*
X5889731Y10182908D01*
X5884278Y10193817D01*
X5848278Y10281089D02*
G01*
X5848278Y10166545D01*
X5848278Y10281089D02*
G01*
X5777369Y10281089D01*
X5848278Y10226545D02*
G01*
X5804641Y10226545D01*
X5848278Y10166545D02*
G01*
X5777369Y10166545D01*
X5665005Y10264726D02*
G01*
X5675914Y10275636D01*
X5692277Y10281089D01*
X5714095Y10281089D01*
X5730460Y10275636D01*
X5741370Y10264726D01*
X5741370Y10253817D01*
X5735914Y10242908D01*
X5730460Y10237454D01*
X5719551Y10231999D01*
X5686823Y10221089D01*
X5675914Y10215636D01*
X5670461Y10210182D01*
X5665005Y10199273D01*
X5665005Y10182908D01*
X5675914Y10171999D01*
X5692277Y10166545D01*
X5714095Y10166545D01*
X5730460Y10171999D01*
X5741370Y10182908D01*
X5552643Y10264726D02*
G01*
X5563552Y10275636D01*
X5579915Y10281089D01*
X5601733Y10281089D01*
X5618096Y10275636D01*
X5629005Y10264726D01*
X5629005Y10253817D01*
X5623552Y10242908D01*
X5618096Y10237454D01*
X5607187Y10231999D01*
X5574459Y10221089D01*
X5563552Y10215636D01*
X5558096Y10210182D01*
X5552643Y10199273D01*
X5552643Y10182908D01*
X5563552Y10171999D01*
X5579915Y10166545D01*
X5601733Y10166545D01*
X5618096Y10171999D01*
X5629005Y10182908D01*
X5483915Y10281089D02*
G01*
X5494825Y10275636D01*
X5505734Y10264726D01*
X5511187Y10253817D01*
X5516641Y10237454D01*
X5516641Y10210182D01*
X5511187Y10193817D01*
X5505734Y10182908D01*
X5494825Y10171999D01*
X5483915Y10166545D01*
X5462097Y10166545D01*
X5451187Y10171999D01*
X5440278Y10182908D01*
X5434825Y10193817D01*
X5429369Y10210182D01*
X5429369Y10237454D01*
X5434825Y10253817D01*
X5440278Y10264726D01*
X5451187Y10275636D01*
X5462097Y10281089D01*
X5483915Y10281089D01*
X5393369Y10281089D02*
G01*
X5393369Y10166545D01*
X5393369Y10281089D02*
G01*
X5344279Y10281089D01*
X5327916Y10275636D01*
X5322460Y10270182D01*
X5317007Y10259273D01*
X5317007Y10248364D01*
X5322460Y10237454D01*
X5327916Y10231999D01*
X5344279Y10226545D01*
X5393369Y10226545D01*
X5355188Y10226545D02*
G01*
X5317007Y10166545D01*
X5197007Y10281089D02*
G01*
X5197007Y10166545D01*
X5197007Y10281089D02*
G01*
X5147917Y10281089D01*
X5131551Y10275636D01*
X5126098Y10270182D01*
X5120642Y10259273D01*
X5120642Y10248364D01*
X5126098Y10237454D01*
X5131551Y10231999D01*
X5147917Y10226545D01*
X5197007Y10226545D02*
G01*
X5147917Y10226545D01*
X5131551Y10221089D01*
X5126098Y10215636D01*
X5120642Y10204726D01*
X5120642Y10188364D01*
X5126098Y10177454D01*
X5131551Y10171999D01*
X5147917Y10166545D01*
X5197007Y10166545D01*
X5051915Y10281089D02*
G01*
X5062824Y10275636D01*
X5073733Y10264726D01*
X5079189Y10253817D01*
X5084643Y10237454D01*
X5084643Y10210182D01*
X5079189Y10193817D01*
X5073733Y10182908D01*
X5062824Y10171999D01*
X5051915Y10166545D01*
X5030096Y10166545D01*
X5019189Y10171999D01*
X5008280Y10182908D01*
X5002824Y10193817D01*
X4997371Y10210182D01*
X4997371Y10237454D01*
X5002824Y10253817D01*
X5008280Y10264726D01*
X5019189Y10275636D01*
X5030096Y10281089D01*
X5051915Y10281089D01*
X4917734Y10281089D02*
G01*
X4961371Y10166545D01*
X4917734Y10281089D02*
G01*
X4874097Y10166545D01*
X4945006Y10204726D02*
G01*
X4890462Y10204726D01*
X4838098Y10281089D02*
G01*
X4838098Y10166545D01*
X4838098Y10281089D02*
G01*
X4789007Y10281089D01*
X4772644Y10275636D01*
X4767188Y10270182D01*
X4761735Y10259273D01*
X4761735Y10248364D01*
X4767188Y10237454D01*
X4772644Y10231999D01*
X4789007Y10226545D01*
X4838098Y10226545D01*
X4799916Y10226545D02*
G01*
X4761735Y10166545D01*
X4725736Y10281089D02*
G01*
X4725736Y10166545D01*
X4725736Y10281089D02*
G01*
X4687552Y10281089D01*
X4671189Y10275636D01*
X4660280Y10264726D01*
X4654826Y10253817D01*
X4649370Y10237454D01*
X4649370Y10210182D01*
X4654826Y10193817D01*
X4660280Y10182908D01*
X4671189Y10171999D01*
X4687552Y10166545D01*
X4725736Y10166545D01*
X4529371Y10215636D02*
G01*
X4431190Y10215636D01*
X4311190Y10281089D02*
G01*
X4311190Y10166545D01*
X4311190Y10281089D02*
G01*
X4262099Y10281089D01*
X4245736Y10275636D01*
X4240281Y10270182D01*
X4234827Y10259273D01*
X4234827Y10248364D01*
X4240281Y10237454D01*
X4245736Y10231999D01*
X4262099Y10226545D01*
X4311190Y10226545D01*
X4273008Y10226545D02*
G01*
X4234827Y10166545D01*
X4198825Y10281089D02*
G01*
X4198825Y10166545D01*
X4198825Y10281089D02*
G01*
X4127919Y10281089D01*
X4198825Y10226545D02*
G01*
X4155191Y10226545D01*
X4198825Y10166545D02*
G01*
X4127919Y10166545D01*
X4048282Y10281089D02*
G01*
X4091917Y10166545D01*
X4048282Y10281089D02*
G01*
X4004645Y10166545D01*
X4075554Y10204726D02*
G01*
X4021007Y10204726D01*
X3968645Y10281089D02*
G01*
X3968645Y10166545D01*
X3968645Y10281089D02*
G01*
X3919555Y10281089D01*
X3903190Y10275636D01*
X3897736Y10270182D01*
X3892280Y10259273D01*
X3892280Y10248364D01*
X3897736Y10237454D01*
X3903190Y10231999D01*
X3919555Y10226545D01*
X3968645Y10226545D01*
X3930464Y10226545D02*
G01*
X3892280Y10166545D01*
D11*
X8046181Y3116417D02*
G01*
X8051637Y3127326D01*
X8062546Y3138236D01*
X8073453Y3143689D01*
X8095272Y3143689D01*
X8106181Y3138236D01*
X8117090Y3127326D01*
X8122546Y3116417D01*
X8128000Y3100054D01*
X8128000Y3072782D01*
X8122546Y3056417D01*
X8117090Y3045508D01*
X8106181Y3034599D01*
X8095272Y3029145D01*
X8073453Y3029145D01*
X8062546Y3034599D01*
X8051637Y3045508D01*
X8046181Y3056417D01*
X7977454Y3143689D02*
G01*
X7988363Y3138236D01*
X7999272Y3127326D01*
X8004728Y3116417D01*
X8010182Y3100054D01*
X8010182Y3072782D01*
X8004728Y3056417D01*
X7999272Y3045508D01*
X7988363Y3034599D01*
X7977454Y3029145D01*
X7955635Y3029145D01*
X7944728Y3034599D01*
X7933819Y3045508D01*
X7928363Y3056417D01*
X7922910Y3072782D01*
X7922910Y3100054D01*
X7928363Y3116417D01*
X7933819Y3127326D01*
X7944728Y3138236D01*
X7955635Y3143689D01*
X7977454Y3143689D01*
X7886910Y3143689D02*
G01*
X7886910Y3029145D01*
X7886910Y3143689D02*
G01*
X7837817Y3143689D01*
X7821455Y3138236D01*
X7816000Y3132782D01*
X7810545Y3121873D01*
X7810545Y3105508D01*
X7816000Y3094599D01*
X7821455Y3089145D01*
X7837817Y3083689D01*
X7886910Y3083689D01*
X7774546Y3143689D02*
G01*
X7730909Y3089145D01*
X7730909Y3029145D01*
X7687274Y3143689D02*
G01*
X7730909Y3089145D01*
X7651272Y3143689D02*
G01*
X7651272Y3029145D01*
X7651272Y3143689D02*
G01*
X7602181Y3143689D01*
X7585819Y3138236D01*
X7580365Y3132782D01*
X7574909Y3121873D01*
X7574909Y3110964D01*
X7580365Y3100054D01*
X7585819Y3094599D01*
X7602181Y3089145D01*
X7651272Y3089145D01*
X7613091Y3089145D02*
G01*
X7574909Y3029145D01*
X7538910Y3143689D02*
G01*
X7538910Y3029145D01*
X7421092Y3116417D02*
G01*
X7426545Y3127326D01*
X7437455Y3138236D01*
X7448364Y3143689D01*
X7470183Y3143689D01*
X7481092Y3138236D01*
X7492001Y3127326D01*
X7497455Y3116417D01*
X7502911Y3100054D01*
X7502911Y3072782D01*
X7497455Y3056417D01*
X7492001Y3045508D01*
X7481092Y3034599D01*
X7470183Y3029145D01*
X7448364Y3029145D01*
X7437455Y3034599D01*
X7426545Y3045508D01*
X7421092Y3056417D01*
X7421092Y3072782D01*
X7448364Y3072782D02*
G01*
X7421092Y3072782D01*
X7385093Y3143689D02*
G01*
X7385093Y3029145D01*
X7308728Y3143689D02*
G01*
X7308728Y3029145D01*
X7385093Y3089145D02*
G01*
X7308728Y3089145D01*
X7234547Y3143689D02*
G01*
X7234547Y3029145D01*
X7272728Y3143689D02*
G01*
X7196366Y3143689D01*
X7070910Y3116417D02*
G01*
X7070910Y3121873D01*
X7065457Y3132782D01*
X7060001Y3138236D01*
X7049091Y3143689D01*
X7027275Y3143689D01*
X7016366Y3138236D01*
X7010910Y3132782D01*
X7005457Y3121873D01*
X7005457Y3110964D01*
X7010910Y3100054D01*
X7021819Y3083689D01*
X7076366Y3029145D01*
X7000001Y3029145D01*
X6931273Y3143689D02*
G01*
X6947639Y3138236D01*
X6958548Y3121873D01*
X6964001Y3094599D01*
X6964001Y3078236D01*
X6958548Y3050964D01*
X6947639Y3034599D01*
X6931273Y3029145D01*
X6920367Y3029145D01*
X6904001Y3034599D01*
X6893092Y3050964D01*
X6887639Y3078236D01*
X6887639Y3094599D01*
X6893092Y3121873D01*
X6904001Y3138236D01*
X6920367Y3143689D01*
X6931273Y3143689D01*
X6846183Y3116417D02*
G01*
X6846183Y3121873D01*
X6840730Y3132782D01*
X6835274Y3138236D01*
X6824365Y3143689D01*
X6802549Y3143689D01*
X6791639Y3138236D01*
X6786184Y3132782D01*
X6780730Y3121873D01*
X6780730Y3110964D01*
X6786184Y3100054D01*
X6797093Y3083689D01*
X6851639Y3029145D01*
X6775274Y3029145D01*
X6728366Y3143689D02*
G01*
X6668366Y3143689D01*
X6701094Y3100054D01*
X6684731Y3100054D01*
X6673822Y3094599D01*
X6668366Y3089145D01*
X6662912Y3072782D01*
X6662912Y3061873D01*
X6668366Y3045508D01*
X6679275Y3034599D01*
X6695638Y3029145D01*
X6712003Y3029145D01*
X6728366Y3034599D01*
X6733821Y3040054D01*
X6739275Y3050964D01*
X6542913Y3143689D02*
G01*
X6499275Y3029145D01*
X6455638Y3143689D02*
G01*
X6499275Y3029145D01*
X6419639Y3143689D02*
G01*
X6419639Y3029145D01*
X6419639Y3143689D02*
G01*
X6348729Y3143689D01*
X6419639Y3089145D02*
G01*
X6376004Y3089145D01*
X6419639Y3029145D02*
G01*
X6348729Y3029145D01*
X6236368Y3143689D02*
G01*
X6290911Y3029145D01*
X6312730Y3143689D02*
G01*
X6236368Y3143689D01*
X6200368Y3143689D02*
G01*
X6200368Y3029145D01*
X6200368Y3143689D02*
G01*
X6129459Y3143689D01*
X6200368Y3089145D02*
G01*
X6156731Y3089145D01*
X6093457Y3143689D02*
G01*
X6093457Y3029145D01*
X6057458Y3143689D02*
G01*
X6057458Y3029145D01*
X6057458Y3143689D02*
G01*
X6013823Y3029145D01*
X5970186Y3143689D02*
G01*
X6013823Y3029145D01*
X5970186Y3143689D02*
G01*
X5970186Y3029145D01*
X5850186Y3078236D02*
G01*
X5752005Y3078236D01*
X5588368Y3143689D02*
G01*
X5632005Y3029145D01*
X5588368Y3143689D02*
G01*
X5544733Y3029145D01*
X5615640Y3067326D02*
G01*
X5561096Y3067326D01*
X5508731Y3143689D02*
G01*
X5508731Y3029145D01*
X5508731Y3029145D02*
G01*
X5443278Y3029145D01*
X5407279Y3143689D02*
G01*
X5407279Y3029145D01*
X5407279Y3029145D02*
G01*
X5341823Y3029145D01*
X5221823Y3143689D02*
G01*
X5221823Y3029145D01*
X5221823Y3143689D02*
G01*
X5172732Y3143689D01*
X5156370Y3138236D01*
X5150914Y3132782D01*
X5145460Y3121873D01*
X5145460Y3110964D01*
X5150914Y3100054D01*
X5156370Y3094599D01*
X5172732Y3089145D01*
X5221823Y3089145D01*
X5183642Y3089145D02*
G01*
X5145460Y3029145D01*
X5109461Y3143689D02*
G01*
X5109461Y3029145D01*
X4991643Y3116417D02*
G01*
X4997096Y3127326D01*
X5008006Y3138236D01*
X5018915Y3143689D01*
X5040734Y3143689D01*
X5051643Y3138236D01*
X5062552Y3127326D01*
X5068006Y3116417D01*
X5073459Y3100054D01*
X5073459Y3072782D01*
X5068006Y3056417D01*
X5062552Y3045508D01*
X5051643Y3034599D01*
X5040734Y3029145D01*
X5018915Y3029145D01*
X5008006Y3034599D01*
X4997096Y3045508D01*
X4991643Y3056417D01*
X4991643Y3072782D01*
X5018915Y3072782D02*
G01*
X4991643Y3072782D01*
X4955641Y3143689D02*
G01*
X4955641Y3029145D01*
X4879279Y3143689D02*
G01*
X4879279Y3029145D01*
X4955641Y3089145D02*
G01*
X4879279Y3089145D01*
X4805098Y3143689D02*
G01*
X4805098Y3029145D01*
X4843279Y3143689D02*
G01*
X4766917Y3143689D01*
X4654552Y3127326D02*
G01*
X4665461Y3138236D01*
X4681824Y3143689D01*
X4703643Y3143689D01*
X4720005Y3138236D01*
X4730915Y3127326D01*
X4730915Y3116417D01*
X4725461Y3105508D01*
X4720005Y3100054D01*
X4709096Y3094599D01*
X4676371Y3083689D01*
X4665461Y3078236D01*
X4660005Y3072782D01*
X4654552Y3061873D01*
X4654552Y3045508D01*
X4665461Y3034599D01*
X4681824Y3029145D01*
X4703643Y3029145D01*
X4720005Y3034599D01*
X4730915Y3045508D01*
X4534552Y3143689D02*
G01*
X4534552Y3029145D01*
X4534552Y3143689D02*
G01*
X4485462Y3143689D01*
X4469096Y3138236D01*
X4463643Y3132782D01*
X4458190Y3121873D01*
X4458190Y3110964D01*
X4463643Y3100054D01*
X4469096Y3094599D01*
X4485462Y3089145D01*
X4534552Y3089145D01*
X4496371Y3089145D02*
G01*
X4458190Y3029145D01*
X4422188Y3143689D02*
G01*
X4422188Y3029145D01*
X4422188Y3143689D02*
G01*
X4351279Y3143689D01*
X4422188Y3089145D02*
G01*
X4378553Y3089145D01*
X4422188Y3029145D02*
G01*
X4351279Y3029145D01*
X4238917Y3127326D02*
G01*
X4249826Y3138236D01*
X4266189Y3143689D01*
X4288007Y3143689D01*
X4304370Y3138236D01*
X4315279Y3127326D01*
X4315279Y3116417D01*
X4309826Y3105508D01*
X4304370Y3100054D01*
X4293461Y3094599D01*
X4260735Y3083689D01*
X4249826Y3078236D01*
X4244370Y3072782D01*
X4238917Y3061873D01*
X4238917Y3045508D01*
X4249826Y3034599D01*
X4266189Y3029145D01*
X4288007Y3029145D01*
X4304370Y3034599D01*
X4315279Y3045508D01*
X4202917Y3143689D02*
G01*
X4202917Y3029145D01*
X4202917Y3143689D02*
G01*
X4132008Y3143689D01*
X4202917Y3089145D02*
G01*
X4159280Y3089145D01*
X4202917Y3029145D02*
G01*
X4132008Y3029145D01*
X4096009Y3143689D02*
G01*
X4096009Y3029145D01*
X4096009Y3143689D02*
G01*
X4046918Y3143689D01*
X4030553Y3138236D01*
X4025099Y3132782D01*
X4019643Y3121873D01*
X4019643Y3110964D01*
X4025099Y3100054D01*
X4030553Y3094599D01*
X4046918Y3089145D01*
X4096009Y3089145D01*
X4057825Y3089145D02*
G01*
X4019643Y3029145D01*
X3983644Y3143689D02*
G01*
X3940007Y3029145D01*
X3896372Y3143689D02*
G01*
X3940007Y3029145D01*
X3860373Y3143689D02*
G01*
X3860373Y3029145D01*
X3860373Y3143689D02*
G01*
X3789464Y3143689D01*
X3860373Y3089145D02*
G01*
X3816736Y3089145D01*
X3860373Y3029145D02*
G01*
X3789464Y3029145D01*
X3753462Y3143689D02*
G01*
X3753462Y3029145D01*
X3753462Y3143689D02*
G01*
X3715280Y3143689D01*
X3698918Y3138236D01*
X3688008Y3127326D01*
X3682555Y3116417D01*
X3677099Y3100054D01*
X3677099Y3072782D01*
X3682555Y3056417D01*
X3688008Y3045508D01*
X3698918Y3034599D01*
X3715280Y3029145D01*
X3753462Y3029145D01*
D12*
X3239538Y7048500D02*
G01*
X3130435Y7048500D01*
X3239538Y7048500D02*
G01*
X3239538Y7095258D01*
X3234344Y7110844D01*
X3229147Y7116041D01*
X3218756Y7121235D01*
X3208365Y7121235D01*
X3197974Y7116041D01*
X3192779Y7110844D01*
X3187585Y7095258D01*
X3187585Y7048500D01*
X3187585Y7084867D02*
G01*
X3130435Y7121235D01*
X3239538Y7197089D02*
G01*
X3130435Y7155525D01*
X3239538Y7197089D02*
G01*
X3130435Y7238654D01*
X3166803Y7171113D02*
G01*
X3166803Y7223066D01*
X3223953Y7345679D02*
G01*
X3234344Y7335288D01*
X3239538Y7319703D01*
X3239538Y7298921D01*
X3234344Y7283335D01*
X3223953Y7272944D01*
X3213562Y7272944D01*
X3203171Y7278138D01*
X3197974Y7283335D01*
X3192779Y7293724D01*
X3182388Y7324897D01*
X3177194Y7335288D01*
X3171997Y7340485D01*
X3161606Y7345679D01*
X3146021Y7345679D01*
X3135629Y7335288D01*
X3130435Y7319703D01*
X3130435Y7298921D01*
X3135629Y7283335D01*
X3146021Y7272944D01*
X3239538Y7379970D02*
G01*
X3130435Y7379970D01*
X3239538Y7379970D02*
G01*
X3239538Y7426728D01*
X3234344Y7442314D01*
X3229147Y7447511D01*
X3218756Y7452705D01*
X3203171Y7452705D01*
X3192779Y7447511D01*
X3187585Y7442314D01*
X3182388Y7426728D01*
X3182388Y7379970D01*
X3239538Y7486995D02*
G01*
X3130435Y7486995D01*
X3239538Y7486995D02*
G01*
X3239538Y7533754D01*
X3234344Y7549342D01*
X3229147Y7554536D01*
X3218756Y7559733D01*
X3208365Y7559733D01*
X3197974Y7554536D01*
X3192779Y7549342D01*
X3187585Y7533754D01*
X3187585Y7486995D02*
G01*
X3187585Y7533754D01*
X3182388Y7549342D01*
X3177194Y7554536D01*
X3166803Y7559733D01*
X3151215Y7559733D01*
X3140824Y7554536D01*
X3135629Y7549342D01*
X3130435Y7533754D01*
X3130435Y7486995D01*
X3239538Y7594023D02*
G01*
X3130435Y7594023D01*
X3239538Y7594023D02*
G01*
X3239538Y7661564D01*
X3187585Y7594023D02*
G01*
X3187585Y7635585D01*
X3130435Y7594023D02*
G01*
X3130435Y7661564D01*
X3239538Y7695854D02*
G01*
X3130435Y7695854D01*
X3239538Y7695854D02*
G01*
X3239538Y7742613D01*
X3234344Y7758198D01*
X3229147Y7763395D01*
X3218756Y7768589D01*
X3208365Y7768589D01*
X3197974Y7763395D01*
X3192779Y7758198D01*
X3187585Y7742613D01*
X3187585Y7695854D01*
X3187585Y7732222D02*
G01*
X3130435Y7768589D01*
X3239538Y7802879D02*
G01*
X3130435Y7802879D01*
X3239538Y7802879D02*
G01*
X3239538Y7849638D01*
X3234344Y7865224D01*
X3229147Y7870421D01*
X3218756Y7875615D01*
X3208365Y7875615D01*
X3197974Y7870421D01*
X3192779Y7865224D01*
X3187585Y7849638D01*
X3187585Y7802879D01*
X3187585Y7839247D02*
G01*
X3130435Y7875615D01*
X3239538Y7909905D02*
G01*
X3187585Y7951470D01*
X3130435Y7951470D01*
X3239538Y7993034D02*
G01*
X3187585Y7951470D01*
X3239538Y8107334D02*
G01*
X3130435Y8107334D01*
X3239538Y8107334D02*
G01*
X3239538Y8154093D01*
X3234344Y8169678D01*
X3229147Y8174875D01*
X3218756Y8180070D01*
X3203171Y8180070D01*
X3192779Y8174875D01*
X3187585Y8169678D01*
X3182388Y8154093D01*
X3182388Y8107334D01*
X3239538Y8214360D02*
G01*
X3130435Y8214360D01*
X3239538Y8328660D02*
G01*
X3130435Y8328660D01*
X3239538Y8328660D02*
G01*
X3239538Y8375418D01*
X3234344Y8391004D01*
X3229147Y8396201D01*
X3218756Y8401395D01*
X3203171Y8401395D01*
X3192779Y8396201D01*
X3187585Y8391004D01*
X3182388Y8375418D01*
X3182388Y8328660D01*
X3239538Y8435685D02*
G01*
X3130435Y8435685D01*
X3213562Y8547907D02*
G01*
X3223953Y8542713D01*
X3234344Y8532322D01*
X3239538Y8521931D01*
X3239538Y8501148D01*
X3234344Y8490757D01*
X3223953Y8480366D01*
X3213562Y8475172D01*
X3197974Y8469975D01*
X3171997Y8469975D01*
X3156412Y8475172D01*
X3146021Y8480366D01*
X3135629Y8490757D01*
X3130435Y8501148D01*
X3130435Y8521931D01*
X3135629Y8532322D01*
X3146021Y8542713D01*
X3156412Y8547907D01*
X3239538Y8613371D02*
G01*
X3234344Y8602979D01*
X3223953Y8592588D01*
X3213562Y8587394D01*
X3197974Y8582197D01*
X3171997Y8582197D01*
X3156412Y8587394D01*
X3146021Y8592588D01*
X3135629Y8602979D01*
X3130435Y8613371D01*
X3130435Y8634153D01*
X3135629Y8644544D01*
X3146021Y8654935D01*
X3156412Y8660129D01*
X3171997Y8665324D01*
X3197974Y8665324D01*
X3213562Y8660129D01*
X3223953Y8654935D01*
X3234344Y8644544D01*
X3239538Y8634153D01*
X3239538Y8613371D01*
X685800Y10338838D02*
G01*
X685800Y10260906D01*
X680605Y10245321D01*
X670214Y10234929D01*
X654626Y10229735D01*
X644235Y10229735D01*
X628650Y10234929D01*
X618258Y10245321D01*
X613064Y10260906D01*
X613064Y10338838D01*
X578774Y10318056D02*
G01*
X568383Y10323253D01*
X552795Y10338838D01*
X552795Y10229735D01*
X3404638Y3873500D02*
G01*
X3295535Y3873500D01*
X3404638Y3873500D02*
G01*
X3404638Y3941041D01*
X3352685Y3873500D02*
G01*
X3352685Y3915064D01*
X3295535Y3873500D02*
G01*
X3295535Y3941041D01*
X3404638Y3975331D02*
G01*
X3326706Y3975331D01*
X3311121Y3980525D01*
X3300729Y3990916D01*
X3295535Y4006504D01*
X3295535Y4016895D01*
X3300729Y4032481D01*
X3311121Y4042872D01*
X3326706Y4048066D01*
X3404638Y4048066D01*
X3404638Y4082356D02*
G01*
X3295535Y4082356D01*
X3404638Y4082356D02*
G01*
X3404638Y4129115D01*
X3399444Y4144703D01*
X3394247Y4149897D01*
X3383856Y4155094D01*
X3373465Y4155094D01*
X3363074Y4149897D01*
X3357879Y4144703D01*
X3352685Y4129115D01*
X3352685Y4082356D01*
X3352685Y4118724D02*
G01*
X3295535Y4155094D01*
X3404638Y4220555D02*
G01*
X3399444Y4210164D01*
X3389053Y4199775D01*
X3378662Y4194578D01*
X3363074Y4189384D01*
X3337097Y4189384D01*
X3321512Y4194578D01*
X3311121Y4199775D01*
X3300729Y4210164D01*
X3295535Y4220555D01*
X3295535Y4241337D01*
X3300729Y4251728D01*
X3311121Y4262120D01*
X3321512Y4267314D01*
X3337097Y4272511D01*
X3363074Y4272511D01*
X3378662Y4267314D01*
X3389053Y4262120D01*
X3399444Y4251728D01*
X3404638Y4241337D01*
X3404638Y4220555D01*
X3404638Y4306801D02*
G01*
X3295535Y4306801D01*
X3404638Y4306801D02*
G01*
X3404638Y4353560D01*
X3399444Y4369145D01*
X3394247Y4374342D01*
X3383856Y4379536D01*
X3373465Y4379536D01*
X3363074Y4374342D01*
X3357879Y4369145D01*
X3352685Y4353560D01*
X3352685Y4306801D01*
X3352685Y4343168D02*
G01*
X3295535Y4379536D01*
X3404638Y4455391D02*
G01*
X3295535Y4413826D01*
X3404638Y4455391D02*
G01*
X3295535Y4496955D01*
X3331903Y4429414D02*
G01*
X3331903Y4481367D01*
X3378662Y4609175D02*
G01*
X3389053Y4603981D01*
X3399444Y4593589D01*
X3404638Y4583198D01*
X3404638Y4562416D01*
X3399444Y4552025D01*
X3389053Y4541634D01*
X3378662Y4536439D01*
X3363074Y4531245D01*
X3337097Y4531245D01*
X3321512Y4536439D01*
X3311121Y4541634D01*
X3300729Y4552025D01*
X3295535Y4562416D01*
X3295535Y4583198D01*
X3300729Y4593589D01*
X3311121Y4603981D01*
X3321512Y4609175D01*
X3404638Y4643465D02*
G01*
X3295535Y4643465D01*
X3404638Y4716203D02*
G01*
X3331903Y4643465D01*
X3357879Y4669444D02*
G01*
X3295535Y4716203D01*
X3404638Y4830503D02*
G01*
X3295535Y4830503D01*
X3404638Y4830503D02*
G01*
X3404638Y4877262D01*
X3399444Y4892847D01*
X3394247Y4898044D01*
X3383856Y4903238D01*
X3368271Y4903238D01*
X3357879Y4898044D01*
X3352685Y4892847D01*
X3347488Y4877262D01*
X3347488Y4830503D01*
X3404638Y4968702D02*
G01*
X3399444Y4958311D01*
X3389053Y4947920D01*
X3378662Y4942725D01*
X3363074Y4937528D01*
X3337097Y4937528D01*
X3321512Y4942725D01*
X3311121Y4947920D01*
X3300729Y4958311D01*
X3295535Y4968702D01*
X3295535Y4989484D01*
X3300729Y4999875D01*
X3311121Y5010264D01*
X3321512Y5015461D01*
X3337097Y5020655D01*
X3363074Y5020655D01*
X3378662Y5015461D01*
X3389053Y5010264D01*
X3399444Y4999875D01*
X3404638Y4989484D01*
X3404638Y4968702D01*
X3404638Y5054945D02*
G01*
X3295535Y5080924D01*
X3404638Y5106901D02*
G01*
X3295535Y5080924D01*
X3404638Y5106901D02*
G01*
X3295535Y5132877D01*
X3404638Y5158854D02*
G01*
X3295535Y5132877D01*
X3404638Y5193144D02*
G01*
X3295535Y5193144D01*
X3404638Y5193144D02*
G01*
X3404638Y5260685D01*
X3352685Y5193144D02*
G01*
X3352685Y5234708D01*
X3295535Y5193144D02*
G01*
X3295535Y5260685D01*
X3404638Y5294975D02*
G01*
X3295535Y5294975D01*
X3404638Y5294975D02*
G01*
X3404638Y5341734D01*
X3399444Y5357322D01*
X3394247Y5362516D01*
X3383856Y5367713D01*
X3373465Y5367713D01*
X3363074Y5362516D01*
X3357879Y5357322D01*
X3352685Y5341734D01*
X3352685Y5294975D01*
X3352685Y5331345D02*
G01*
X3295535Y5367713D01*
X3364344Y3404638D02*
G01*
X3364344Y3321512D01*
X3369541Y3305924D01*
X3374735Y3300729D01*
X3385126Y3295535D01*
X3395517Y3295535D01*
X3405908Y3300729D01*
X3411105Y3305924D01*
X3416300Y3321512D01*
X3416300Y3331903D01*
X3330054Y3383856D02*
G01*
X3319665Y3389053D01*
X3304077Y3404638D01*
X3304077Y3295535D01*
X4913744Y4915938D02*
G01*
X4913744Y4832812D01*
X4918941Y4817224D01*
X4924135Y4812029D01*
X4934526Y4806835D01*
X4944917Y4806835D01*
X4955308Y4812029D01*
X4960505Y4817224D01*
X4965700Y4832812D01*
X4965700Y4843203D01*
X4869065Y4915938D02*
G01*
X4811915Y4915938D01*
X4843086Y4874374D01*
X4827501Y4874374D01*
X4817109Y4869179D01*
X4811915Y4863985D01*
X4806718Y4848397D01*
X4806718Y4838006D01*
X4811915Y4822421D01*
X4822304Y4812029D01*
X4837892Y4806835D01*
X4853477Y4806835D01*
X4869065Y4812029D01*
X4874259Y4817224D01*
X4879454Y4827615D01*
X5790044Y4915938D02*
G01*
X5790044Y4832812D01*
X5795241Y4817224D01*
X5800435Y4812029D01*
X5810826Y4806835D01*
X5821217Y4806835D01*
X5831608Y4812029D01*
X5836805Y4817224D01*
X5842000Y4832812D01*
X5842000Y4843203D01*
X5703801Y4915938D02*
G01*
X5755754Y4843203D01*
X5677824Y4843203D01*
X5703801Y4915938D02*
G01*
X5703801Y4806835D01*
X7568044Y4915938D02*
G01*
X7568044Y4832812D01*
X7573241Y4817224D01*
X7578435Y4812029D01*
X7588826Y4806835D01*
X7599217Y4806835D01*
X7609608Y4812029D01*
X7614805Y4817224D01*
X7620000Y4832812D01*
X7620000Y4843203D01*
X7471409Y4915938D02*
G01*
X7523365Y4915938D01*
X7528559Y4869179D01*
X7523365Y4874374D01*
X7507777Y4879571D01*
X7492192Y4879571D01*
X7476604Y4874374D01*
X7466215Y4863985D01*
X7461018Y4848397D01*
X7461018Y4838006D01*
X7466215Y4822421D01*
X7476604Y4812029D01*
X7492192Y4806835D01*
X7507777Y4806835D01*
X7523365Y4812029D01*
X7528559Y4817224D01*
X7533754Y4827615D01*
X6491894Y6959600D02*
G01*
X6491894Y7053117D01*
D10*
X7239000Y10027089D02*
G01*
X7239000Y9912545D01*
X7239000Y10027089D02*
G01*
X7189909Y10027089D01*
X7173546Y10021636D01*
X7168090Y10016182D01*
X7162637Y10005273D01*
X7162637Y9988908D01*
X7168090Y9977998D01*
X7173546Y9972545D01*
X7189909Y9967089D01*
X7239000Y9967089D01*
X7083000Y10027089D02*
G01*
X7126635Y9912545D01*
X7083000Y10027089D02*
G01*
X7039363Y9912545D01*
X7110272Y9950726D02*
G01*
X7055728Y9950726D01*
X7003364Y10027089D02*
G01*
X7003364Y9912545D01*
X7003364Y10027089D02*
G01*
X6954273Y10027089D01*
X6937910Y10021636D01*
X6932455Y10016182D01*
X6927001Y10005273D01*
X6927001Y9994364D01*
X6932455Y9983454D01*
X6937910Y9977998D01*
X6954273Y9972545D01*
X7003364Y9972545D01*
X6965182Y9972545D02*
G01*
X6927001Y9912545D01*
X6852818Y10027089D02*
G01*
X6852818Y9912545D01*
X6890999Y10027089D02*
G01*
X6814637Y10027089D01*
X6694637Y10027089D02*
G01*
X6694637Y9912545D01*
X6694637Y10027089D02*
G01*
X6618274Y9912545D01*
X6618274Y10027089D02*
G01*
X6618274Y9912545D01*
X6582272Y10027089D02*
G01*
X6582272Y9945273D01*
X6576819Y9928908D01*
X6565910Y9917998D01*
X6549547Y9912545D01*
X6538638Y9912545D01*
X6522272Y9917998D01*
X6511366Y9928908D01*
X6505910Y9945273D01*
X6505910Y10027089D01*
X6469910Y10027089D02*
G01*
X6469910Y9912545D01*
X6469910Y10027089D02*
G01*
X6426273Y9912545D01*
X6382638Y10027089D02*
G01*
X6426273Y9912545D01*
X6382638Y10027089D02*
G01*
X6382638Y9912545D01*
X6346637Y10027089D02*
G01*
X6346637Y9912545D01*
X6346637Y10027089D02*
G01*
X6297546Y10027089D01*
X6281183Y10021636D01*
X6275730Y10016182D01*
X6270274Y10005273D01*
X6270274Y9994364D01*
X6275730Y9983454D01*
X6281183Y9977998D01*
X6297546Y9972545D01*
X6346637Y9972545D02*
G01*
X6297546Y9972545D01*
X6281183Y9967089D01*
X6275730Y9961636D01*
X6270274Y9950726D01*
X6270274Y9934364D01*
X6275730Y9923454D01*
X6281183Y9917998D01*
X6297546Y9912545D01*
X6346637Y9912545D01*
X6234275Y10027089D02*
G01*
X6234275Y9912545D01*
X6234275Y10027089D02*
G01*
X6163365Y10027089D01*
X6234275Y9972545D02*
G01*
X6190637Y9972545D01*
X6234275Y9912545D02*
G01*
X6163365Y9912545D01*
X6127366Y10027089D02*
G01*
X6127366Y9912545D01*
X6127366Y10027089D02*
G01*
X6078275Y10027089D01*
X6061910Y10021636D01*
X6056457Y10016182D01*
X6051001Y10005273D01*
X6051001Y9994364D01*
X6056457Y9983454D01*
X6061910Y9977998D01*
X6078275Y9972545D01*
X6127366Y9972545D01*
X6089185Y9972545D02*
G01*
X6051001Y9912545D01*
X7309746Y9809317D02*
G01*
X7309746Y9814773D01*
X7304290Y9825682D01*
X7298837Y9831136D01*
X7287928Y9836589D01*
X7266109Y9836589D01*
X7255200Y9831136D01*
X7249746Y9825682D01*
X7244290Y9814773D01*
X7244290Y9803864D01*
X7249746Y9792954D01*
X7260653Y9776589D01*
X7315200Y9722045D01*
X7238837Y9722045D01*
X7175563Y9836589D02*
G01*
X7191928Y9831136D01*
X7197382Y9820226D01*
X7197382Y9809317D01*
X7191928Y9798408D01*
X7181019Y9792954D01*
X7159200Y9787499D01*
X7142835Y9782045D01*
X7131928Y9771136D01*
X7126472Y9760226D01*
X7126472Y9743864D01*
X7131928Y9732954D01*
X7137382Y9727499D01*
X7153744Y9722045D01*
X7175563Y9722045D01*
X7191928Y9727499D01*
X7197382Y9732954D01*
X7202835Y9743864D01*
X7202835Y9760226D01*
X7197382Y9771136D01*
X7186472Y9782045D01*
X7170110Y9787499D01*
X7148291Y9792954D01*
X7137382Y9798408D01*
X7131928Y9809317D01*
X7131928Y9820226D01*
X7137382Y9831136D01*
X7153744Y9836589D01*
X7175563Y9836589D01*
X7090473Y9814773D02*
G01*
X7079564Y9820226D01*
X7063200Y9836589D01*
X7063200Y9722045D01*
X6994474Y9836589D02*
G01*
X7010836Y9831136D01*
X7021746Y9814773D01*
X7027199Y9787499D01*
X7027199Y9771136D01*
X7021746Y9743864D01*
X7010836Y9727499D01*
X6994474Y9722045D01*
X6983564Y9722045D01*
X6967199Y9727499D01*
X6956290Y9743864D01*
X6950836Y9771136D01*
X6950836Y9787499D01*
X6956290Y9814773D01*
X6967199Y9831136D01*
X6983564Y9836589D01*
X6994474Y9836589D01*
X6914837Y9771136D02*
G01*
X6816656Y9771136D01*
X6747929Y9836589D02*
G01*
X6764291Y9831136D01*
X6775201Y9814773D01*
X6780654Y9787499D01*
X6780654Y9771136D01*
X6775201Y9743864D01*
X6764291Y9727499D01*
X6747929Y9722045D01*
X6737019Y9722045D01*
X6720654Y9727499D01*
X6709747Y9743864D01*
X6704291Y9771136D01*
X6704291Y9787499D01*
X6709747Y9814773D01*
X6720654Y9831136D01*
X6737019Y9836589D01*
X6747929Y9836589D01*
X6613745Y9836589D02*
G01*
X6668292Y9760226D01*
X6586474Y9760226D01*
X6613745Y9836589D02*
G01*
X6613745Y9722045D01*
X6517746Y9836589D02*
G01*
X6534111Y9831136D01*
X6545018Y9814773D01*
X6550474Y9787499D01*
X6550474Y9771136D01*
X6545018Y9743864D01*
X6534111Y9727499D01*
X6517746Y9722045D01*
X6506837Y9722045D01*
X6490474Y9727499D01*
X6479565Y9743864D01*
X6474112Y9771136D01*
X6474112Y9787499D01*
X6479565Y9814773D01*
X6490474Y9831136D01*
X6506837Y9836589D01*
X6517746Y9836589D01*
X6438110Y9814773D02*
G01*
X6427200Y9820226D01*
X6410838Y9836589D01*
X6410838Y9722045D01*
X6290838Y9836589D02*
G01*
X6247201Y9722045D01*
X6203566Y9836589D02*
G01*
X6247201Y9722045D01*
X6167567Y9814773D02*
G01*
X6156657Y9820226D01*
X6140292Y9836589D01*
X6140292Y9722045D01*
X6098839Y9749317D02*
G01*
X6104293Y9743864D01*
X6098839Y9738408D01*
X6093383Y9743864D01*
X6098839Y9749317D01*
X6002837Y9836589D02*
G01*
X6057384Y9760226D01*
X5975565Y9760226D01*
X6002837Y9836589D02*
G01*
X6002837Y9722045D01*
D12*
X6601190Y7338971D02*
G01*
X6601190Y7257153D01*
X6642100Y7298062D02*
G01*
X6560281Y7298062D01*
X7210790Y7338971D02*
G01*
X7210790Y7257153D01*
X7251700Y7298062D02*
G01*
X7169881Y7298062D01*
X2463662Y4430671D02*
G01*
X2472753Y4439762D01*
X2486390Y4444309D01*
X2504572Y4444309D01*
X2518209Y4439762D01*
X2527300Y4430671D01*
X2527300Y4421581D01*
X2522753Y4412490D01*
X2518209Y4407946D01*
X2509118Y4403399D01*
X2481846Y4394309D01*
X2472753Y4389762D01*
X2468209Y4385218D01*
X2463662Y4376127D01*
X2463662Y4362490D01*
X2472753Y4353399D01*
X2486390Y4348853D01*
X2504572Y4348853D01*
X2518209Y4353399D01*
X2527300Y4362490D01*
X2433662Y4444309D02*
G01*
X2410937Y4348853D01*
X2388209Y4444309D02*
G01*
X2410937Y4348853D01*
X2388209Y4444309D02*
G01*
X2365481Y4348853D01*
X2342753Y4444309D02*
G01*
X2365481Y4348853D01*
X2312753Y4444309D02*
G01*
X2312753Y4348853D01*
X2312753Y4444309D02*
G01*
X2280935Y4444309D01*
X2267300Y4439762D01*
X2258209Y4430671D01*
X2253663Y4421581D01*
X2249119Y4407946D01*
X2249119Y4385218D01*
X2253663Y4371581D01*
X2258209Y4362490D01*
X2267300Y4353399D01*
X2280935Y4348853D01*
X2312753Y4348853D01*
X774700Y4431609D02*
G01*
X774700Y4363427D01*
X770153Y4349790D01*
X761062Y4340699D01*
X747428Y4336153D01*
X738337Y4336153D01*
X724700Y4340699D01*
X715609Y4349790D01*
X711062Y4363427D01*
X711062Y4431609D01*
X644700Y4431609D02*
G01*
X681062Y4336153D01*
X644700Y4431609D02*
G01*
X608337Y4336153D01*
X667428Y4367971D02*
G01*
X621972Y4367971D01*
X578337Y4431609D02*
G01*
X578337Y4336153D01*
X578337Y4431609D02*
G01*
X537428Y4431609D01*
X523791Y4427062D01*
X519247Y4422518D01*
X514700Y4413427D01*
X514700Y4404337D01*
X519247Y4395246D01*
X523791Y4390699D01*
X537428Y4386153D01*
X578337Y4386153D01*
X546519Y4386153D02*
G01*
X514700Y4336153D01*
X452881Y4431609D02*
G01*
X452881Y4336153D01*
X484700Y4431609D02*
G01*
X421063Y4431609D01*
X6323909Y8039100D02*
G01*
X6228453Y8039100D01*
X6323909Y8039100D02*
G01*
X6323909Y8080009D01*
X6319362Y8093646D01*
X6314818Y8098190D01*
X6305727Y8102737D01*
X6296637Y8102737D01*
X6287546Y8098190D01*
X6282999Y8093646D01*
X6278453Y8080009D01*
X6278453Y8039100D01*
X6278453Y8070918D02*
G01*
X6228453Y8102737D01*
X6305727Y8132737D02*
G01*
X6310271Y8141827D01*
X6323909Y8155462D01*
X6228453Y8155462D01*
X6323909Y8212736D02*
G01*
X6319362Y8199099D01*
X6305727Y8190009D01*
X6282999Y8185462D01*
X6269362Y8185462D01*
X6246637Y8190009D01*
X6232999Y8199099D01*
X6228453Y8212736D01*
X6228453Y8221827D01*
X6232999Y8235462D01*
X6246637Y8244552D01*
X6269362Y8249099D01*
X6282999Y8249099D01*
X6305727Y8244552D01*
X6319362Y8235462D01*
X6323909Y8221827D01*
X6323909Y8212736D01*
X6958909Y8077200D02*
G01*
X6863453Y8077200D01*
X6958909Y8077200D02*
G01*
X6958909Y8118109D01*
X6954362Y8131746D01*
X6949818Y8136290D01*
X6940727Y8140837D01*
X6931637Y8140837D01*
X6922546Y8136290D01*
X6917999Y8131746D01*
X6913453Y8118109D01*
X6913453Y8077200D01*
X6913453Y8109018D02*
G01*
X6863453Y8140837D01*
X6927090Y8229927D02*
G01*
X6913453Y8225381D01*
X6904362Y8216290D01*
X6899818Y8202653D01*
X6899818Y8198109D01*
X6904362Y8184471D01*
X6913453Y8175381D01*
X6927090Y8170837D01*
X6931637Y8170837D01*
X6945271Y8175381D01*
X6954362Y8184471D01*
X6958909Y8198109D01*
X6958909Y8202653D01*
X6954362Y8216290D01*
X6945271Y8225381D01*
X6927090Y8229927D01*
X6904362Y8229927D01*
X6881637Y8225381D01*
X6867999Y8216290D01*
X6863453Y8202653D01*
X6863453Y8193562D01*
X6867999Y8179927D01*
X6877090Y8175381D01*
X2265946Y4660209D02*
G01*
X2265946Y4587481D01*
X2270490Y4573846D01*
X2275037Y4569299D01*
X2284128Y4564753D01*
X2293218Y4564753D01*
X2302309Y4569299D01*
X2306853Y4573846D01*
X2311400Y4587481D01*
X2311400Y4596571D01*
X2231400Y4637481D02*
G01*
X2231400Y4642027D01*
X2226853Y4651118D01*
X2222309Y4655662D01*
X2213218Y4660209D01*
X2195037Y4660209D01*
X2185946Y4655662D01*
X2181400Y4651118D01*
X2176853Y4642027D01*
X2176853Y4632937D01*
X2181400Y4623846D01*
X2190490Y4610209D01*
X2235946Y4564753D01*
X2172309Y4564753D01*
X1605546Y4660209D02*
G01*
X1605546Y4587481D01*
X1610090Y4573846D01*
X1614637Y4569299D01*
X1623728Y4564753D01*
X1632818Y4564753D01*
X1641909Y4569299D01*
X1646453Y4573846D01*
X1651000Y4587481D01*
X1651000Y4596571D01*
X1521000Y4646571D02*
G01*
X1525546Y4655662D01*
X1539181Y4660209D01*
X1548272Y4660209D01*
X1561909Y4655662D01*
X1571000Y4642027D01*
X1575546Y4619299D01*
X1575546Y4596571D01*
X1571000Y4578390D01*
X1561909Y4569299D01*
X1548272Y4564753D01*
X1543728Y4564753D01*
X1530090Y4569299D01*
X1521000Y4578390D01*
X1516453Y4592027D01*
X1516453Y4596571D01*
X1521000Y4610209D01*
X1530090Y4619299D01*
X1543728Y4623846D01*
X1548272Y4623846D01*
X1561909Y4619299D01*
X1571000Y4610209D01*
X1575546Y4596571D01*
X6008695Y8082787D02*
G01*
X5913239Y8082787D01*
X6008695Y8082787D02*
G01*
X6008695Y8114606D01*
X6004148Y8128241D01*
X5995057Y8137334D01*
X5985967Y8141878D01*
X5972332Y8146425D01*
X5949604Y8146425D01*
X5935967Y8141878D01*
X5926876Y8137334D01*
X5917785Y8128241D01*
X5913239Y8114606D01*
X5913239Y8082787D01*
X5985967Y8180969D02*
G01*
X5990513Y8180969D01*
X5999604Y8185515D01*
X6004148Y8190059D01*
X6008695Y8199150D01*
X6008695Y8217334D01*
X6004148Y8226425D01*
X5999604Y8230969D01*
X5990513Y8235515D01*
X5981423Y8235515D01*
X5972332Y8230969D01*
X5958695Y8221878D01*
X5913239Y8176425D01*
X5913239Y8240059D01*
X6666809Y8089900D02*
G01*
X6571353Y8089900D01*
X6666809Y8089900D02*
G01*
X6666809Y8121718D01*
X6662262Y8135353D01*
X6653171Y8144446D01*
X6644081Y8148990D01*
X6630446Y8153537D01*
X6607718Y8153537D01*
X6594081Y8148990D01*
X6584990Y8144446D01*
X6575899Y8135353D01*
X6571353Y8121718D01*
X6571353Y8089900D01*
X6648627Y8183537D02*
G01*
X6653171Y8192627D01*
X6666809Y8206262D01*
X6571353Y8206262D01*
X6654109Y6134100D02*
G01*
X6558653Y6134100D01*
X6654109Y6134100D02*
G01*
X6654109Y6193190D01*
X6608653Y6134100D02*
G01*
X6608653Y6170462D01*
X6635927Y6223190D02*
G01*
X6640471Y6232281D01*
X6654109Y6245918D01*
X6558653Y6245918D01*
X1719376Y5023733D02*
G01*
X1719376Y4955552D01*
X1714830Y4941915D01*
X1705739Y4932824D01*
X1692104Y4928278D01*
X1683014Y4928278D01*
X1669376Y4932824D01*
X1660286Y4941915D01*
X1655739Y4955552D01*
X1655739Y5023733D01*
X1580286Y5023733D02*
G01*
X1625739Y4960096D01*
X1557558Y4960096D01*
X1580286Y5023733D02*
G01*
X1580286Y4928278D01*
X2328976Y5023733D02*
G01*
X2328976Y4955552D01*
X2324430Y4941915D01*
X2315339Y4932824D01*
X2301704Y4928278D01*
X2292614Y4928278D01*
X2278976Y4932824D01*
X2269886Y4941915D01*
X2265339Y4955552D01*
X2265339Y5023733D01*
X2180795Y5023733D02*
G01*
X2226249Y5023733D01*
X2230795Y4982824D01*
X2226249Y4987371D01*
X2212614Y4991915D01*
X2198977Y4991915D01*
X2185339Y4987371D01*
X2176249Y4978278D01*
X2171705Y4964643D01*
X2171705Y4955552D01*
X2176249Y4941915D01*
X2185339Y4932824D01*
X2198977Y4928278D01*
X2212614Y4928278D01*
X2226249Y4932824D01*
X2230795Y4937371D01*
X2235339Y4946462D01*
X4521200Y9219509D02*
G01*
X4521200Y9124053D01*
X4521200Y9219509D02*
G01*
X4480290Y9219509D01*
X4466653Y9214962D01*
X4462109Y9210418D01*
X4457562Y9201327D01*
X4457562Y9192237D01*
X4462109Y9183146D01*
X4466653Y9178599D01*
X4480290Y9174053D01*
X4521200Y9174053D01*
X4489381Y9174053D02*
G01*
X4457562Y9124053D01*
X4427562Y9201327D02*
G01*
X4418472Y9205871D01*
X4404837Y9219509D01*
X4404837Y9124053D01*
X4329381Y9219509D02*
G01*
X4374837Y9155871D01*
X4306653Y9155871D01*
X4329381Y9219509D02*
G01*
X4329381Y9124053D01*
X4521200Y8965509D02*
G01*
X4521200Y8870053D01*
X4521200Y8965509D02*
G01*
X4480290Y8965509D01*
X4466653Y8960962D01*
X4462109Y8956418D01*
X4457562Y8947327D01*
X4457562Y8938237D01*
X4462109Y8929146D01*
X4466653Y8924599D01*
X4480290Y8920053D01*
X4521200Y8920053D01*
X4489381Y8920053D02*
G01*
X4457562Y8870053D01*
X4427562Y8947327D02*
G01*
X4418472Y8951871D01*
X4404837Y8965509D01*
X4404837Y8870053D01*
X4320291Y8965509D02*
G01*
X4365746Y8965509D01*
X4370290Y8924599D01*
X4365746Y8929146D01*
X4352109Y8933690D01*
X4338472Y8933690D01*
X4324837Y8929146D01*
X4315747Y8920053D01*
X4311200Y8906418D01*
X4311200Y8897327D01*
X4315747Y8883690D01*
X4324837Y8874599D01*
X4338472Y8870053D01*
X4352109Y8870053D01*
X4365746Y8874599D01*
X4370290Y8879146D01*
X4374837Y8888237D01*
X4521200Y8686109D02*
G01*
X4521200Y8590653D01*
X4521200Y8686109D02*
G01*
X4480290Y8686109D01*
X4466653Y8681562D01*
X4462109Y8677018D01*
X4457562Y8667927D01*
X4457562Y8658837D01*
X4462109Y8649746D01*
X4466653Y8645199D01*
X4480290Y8640653D01*
X4521200Y8640653D01*
X4489381Y8640653D02*
G01*
X4457562Y8590653D01*
X4427562Y8667927D02*
G01*
X4418472Y8672471D01*
X4404837Y8686109D01*
X4404837Y8590653D01*
X4320291Y8672471D02*
G01*
X4324837Y8681562D01*
X4338472Y8686109D01*
X4347563Y8686109D01*
X4361200Y8681562D01*
X4370290Y8667927D01*
X4374837Y8645199D01*
X4374837Y8622471D01*
X4370290Y8604290D01*
X4361200Y8595199D01*
X4347563Y8590653D01*
X4343018Y8590653D01*
X4329381Y8595199D01*
X4320291Y8604290D01*
X4315747Y8617927D01*
X4315747Y8622471D01*
X4320291Y8636109D01*
X4329381Y8645199D01*
X4343018Y8649746D01*
X4347563Y8649746D01*
X4361200Y8645199D01*
X4370290Y8636109D01*
X4374837Y8622471D01*
X4521200Y8432109D02*
G01*
X4521200Y8336653D01*
X4521200Y8432109D02*
G01*
X4480290Y8432109D01*
X4466653Y8427562D01*
X4462109Y8423018D01*
X4457562Y8413927D01*
X4457562Y8404837D01*
X4462109Y8395746D01*
X4466653Y8391199D01*
X4480290Y8386653D01*
X4521200Y8386653D01*
X4489381Y8386653D02*
G01*
X4457562Y8336653D01*
X4427562Y8413927D02*
G01*
X4418472Y8418471D01*
X4404837Y8432109D01*
X4404837Y8336653D01*
X4311200Y8432109D02*
G01*
X4356653Y8336653D01*
X4374837Y8432109D02*
G01*
X4311200Y8432109D01*
X4521200Y8203509D02*
G01*
X4521200Y8108053D01*
X4521200Y8203509D02*
G01*
X4480290Y8203509D01*
X4466653Y8198962D01*
X4462109Y8194418D01*
X4457562Y8185327D01*
X4457562Y8176237D01*
X4462109Y8167146D01*
X4466653Y8162599D01*
X4480290Y8158053D01*
X4521200Y8158053D01*
X4489381Y8158053D02*
G01*
X4457562Y8108053D01*
X4427562Y8185327D02*
G01*
X4418472Y8189871D01*
X4404837Y8203509D01*
X4404837Y8108053D01*
X4352109Y8203509D02*
G01*
X4365746Y8198962D01*
X4370290Y8189871D01*
X4370290Y8180781D01*
X4365746Y8171690D01*
X4356653Y8167146D01*
X4338472Y8162599D01*
X4324837Y8158053D01*
X4315747Y8148962D01*
X4311200Y8139871D01*
X4311200Y8126237D01*
X4315747Y8117146D01*
X4320291Y8112599D01*
X4333928Y8108053D01*
X4352109Y8108053D01*
X4365746Y8112599D01*
X4370290Y8117146D01*
X4374837Y8126237D01*
X4374837Y8139871D01*
X4370290Y8148962D01*
X4361200Y8158053D01*
X4347563Y8162599D01*
X4329381Y8167146D01*
X4320291Y8171690D01*
X4315747Y8180781D01*
X4315747Y8189871D01*
X4320291Y8198962D01*
X4333928Y8203509D01*
X4352109Y8203509D01*
X4521200Y7949509D02*
G01*
X4521200Y7854053D01*
X4521200Y7949509D02*
G01*
X4480290Y7949509D01*
X4466653Y7944962D01*
X4462109Y7940418D01*
X4457562Y7931327D01*
X4457562Y7922237D01*
X4462109Y7913146D01*
X4466653Y7908599D01*
X4480290Y7904053D01*
X4521200Y7904053D01*
X4489381Y7904053D02*
G01*
X4457562Y7854053D01*
X4427562Y7931327D02*
G01*
X4418472Y7935871D01*
X4404837Y7949509D01*
X4404837Y7854053D01*
X4315747Y7917690D02*
G01*
X4320291Y7904053D01*
X4329381Y7894962D01*
X4343018Y7890418D01*
X4347563Y7890418D01*
X4361200Y7894962D01*
X4370290Y7904053D01*
X4374837Y7917690D01*
X4374837Y7922237D01*
X4370290Y7935871D01*
X4361200Y7944962D01*
X4347563Y7949509D01*
X4343018Y7949509D01*
X4329381Y7944962D01*
X4320291Y7935871D01*
X4315747Y7917690D01*
X4315747Y7894962D01*
X4320291Y7872237D01*
X4329381Y7858599D01*
X4343018Y7854053D01*
X4352109Y7854053D01*
X4365746Y7858599D01*
X4370290Y7867690D01*
X4521200Y7670109D02*
G01*
X4521200Y7574653D01*
X4521200Y7670109D02*
G01*
X4480290Y7670109D01*
X4466653Y7665562D01*
X4462109Y7661018D01*
X4457562Y7651927D01*
X4457562Y7642837D01*
X4462109Y7633746D01*
X4466653Y7629199D01*
X4480290Y7624653D01*
X4521200Y7624653D01*
X4489381Y7624653D02*
G01*
X4457562Y7574653D01*
X4423018Y7647381D02*
G01*
X4423018Y7651927D01*
X4418472Y7661018D01*
X4413928Y7665562D01*
X4404837Y7670109D01*
X4386653Y7670109D01*
X4377563Y7665562D01*
X4373018Y7661018D01*
X4368472Y7651927D01*
X4368472Y7642837D01*
X4373018Y7633746D01*
X4382109Y7620109D01*
X4427562Y7574653D01*
X4363928Y7574653D01*
X4306653Y7670109D02*
G01*
X4320291Y7665562D01*
X4329381Y7651927D01*
X4333928Y7629199D01*
X4333928Y7615562D01*
X4329381Y7592837D01*
X4320291Y7579199D01*
X4306653Y7574653D01*
X4297563Y7574653D01*
X4283928Y7579199D01*
X4274837Y7592837D01*
X4270291Y7615562D01*
X4270291Y7629199D01*
X4274837Y7651927D01*
X4283928Y7665562D01*
X4297563Y7670109D01*
X4306653Y7670109D01*
X4521200Y7416109D02*
G01*
X4521200Y7320653D01*
X4521200Y7416109D02*
G01*
X4480290Y7416109D01*
X4466653Y7411562D01*
X4462109Y7407018D01*
X4457562Y7397927D01*
X4457562Y7388837D01*
X4462109Y7379746D01*
X4466653Y7375199D01*
X4480290Y7370653D01*
X4521200Y7370653D01*
X4489381Y7370653D02*
G01*
X4457562Y7320653D01*
X4423018Y7393381D02*
G01*
X4423018Y7397927D01*
X4418472Y7407018D01*
X4413928Y7411562D01*
X4404837Y7416109D01*
X4386653Y7416109D01*
X4377563Y7411562D01*
X4373018Y7407018D01*
X4368472Y7397927D01*
X4368472Y7388837D01*
X4373018Y7379746D01*
X4382109Y7366109D01*
X4427562Y7320653D01*
X4363928Y7320653D01*
X4333928Y7397927D02*
G01*
X4324837Y7402471D01*
X4311200Y7416109D01*
X4311200Y7320653D01*
X4521200Y7162109D02*
G01*
X4521200Y7066653D01*
X4521200Y7162109D02*
G01*
X4480290Y7162109D01*
X4466653Y7157562D01*
X4462109Y7153018D01*
X4457562Y7143927D01*
X4457562Y7134837D01*
X4462109Y7125746D01*
X4466653Y7121199D01*
X4480290Y7116653D01*
X4521200Y7116653D01*
X4489381Y7116653D02*
G01*
X4457562Y7066653D01*
X4423018Y7139381D02*
G01*
X4423018Y7143927D01*
X4418472Y7153018D01*
X4413928Y7157562D01*
X4404837Y7162109D01*
X4386653Y7162109D01*
X4377563Y7157562D01*
X4373018Y7153018D01*
X4368472Y7143927D01*
X4368472Y7134837D01*
X4373018Y7125746D01*
X4382109Y7112109D01*
X4427562Y7066653D01*
X4363928Y7066653D01*
X4329381Y7139381D02*
G01*
X4329381Y7143927D01*
X4324837Y7153018D01*
X4320291Y7157562D01*
X4311200Y7162109D01*
X4293019Y7162109D01*
X4283928Y7157562D01*
X4279381Y7153018D01*
X4274837Y7143927D01*
X4274837Y7134837D01*
X4279381Y7125746D01*
X4288472Y7112109D01*
X4333928Y7066653D01*
X4270291Y7066653D01*
X4521200Y6908109D02*
G01*
X4521200Y6812653D01*
X4521200Y6908109D02*
G01*
X4480290Y6908109D01*
X4466653Y6903562D01*
X4462109Y6899018D01*
X4457562Y6889927D01*
X4457562Y6880837D01*
X4462109Y6871746D01*
X4466653Y6867199D01*
X4480290Y6862653D01*
X4521200Y6862653D01*
X4489381Y6862653D02*
G01*
X4457562Y6812653D01*
X4423018Y6885381D02*
G01*
X4423018Y6889927D01*
X4418472Y6899018D01*
X4413928Y6903562D01*
X4404837Y6908109D01*
X4386653Y6908109D01*
X4377563Y6903562D01*
X4373018Y6899018D01*
X4368472Y6889927D01*
X4368472Y6880837D01*
X4373018Y6871746D01*
X4382109Y6858109D01*
X4427562Y6812653D01*
X4363928Y6812653D01*
X4324837Y6908109D02*
G01*
X4274837Y6908109D01*
X4302109Y6871746D01*
X4288472Y6871746D01*
X4279381Y6867199D01*
X4274837Y6862653D01*
X4270291Y6849018D01*
X4270291Y6839927D01*
X4274837Y6826290D01*
X4283928Y6817199D01*
X4297563Y6812653D01*
X4311200Y6812653D01*
X4324837Y6817199D01*
X4329381Y6821746D01*
X4333928Y6830837D01*
X4521200Y6654109D02*
G01*
X4521200Y6558653D01*
X4521200Y6654109D02*
G01*
X4480290Y6654109D01*
X4466653Y6649562D01*
X4462109Y6645018D01*
X4457562Y6635927D01*
X4457562Y6626837D01*
X4462109Y6617746D01*
X4466653Y6613199D01*
X4480290Y6608653D01*
X4521200Y6608653D01*
X4489381Y6608653D02*
G01*
X4457562Y6558653D01*
X4423018Y6631381D02*
G01*
X4423018Y6635927D01*
X4418472Y6645018D01*
X4413928Y6649562D01*
X4404837Y6654109D01*
X4386653Y6654109D01*
X4377563Y6649562D01*
X4373018Y6645018D01*
X4368472Y6635927D01*
X4368472Y6626837D01*
X4373018Y6617746D01*
X4382109Y6604109D01*
X4427562Y6558653D01*
X4363928Y6558653D01*
X4288472Y6654109D02*
G01*
X4333928Y6590471D01*
X4265747Y6590471D01*
X4288472Y6654109D02*
G01*
X4288472Y6558653D01*
X4521200Y6412809D02*
G01*
X4521200Y6317353D01*
X4521200Y6412809D02*
G01*
X4480290Y6412809D01*
X4466653Y6408262D01*
X4462109Y6403718D01*
X4457562Y6394627D01*
X4457562Y6385537D01*
X4462109Y6376446D01*
X4466653Y6371899D01*
X4480290Y6367353D01*
X4521200Y6367353D01*
X4489381Y6367353D02*
G01*
X4457562Y6317353D01*
X4423018Y6390081D02*
G01*
X4423018Y6394627D01*
X4418472Y6403718D01*
X4413928Y6408262D01*
X4404837Y6412809D01*
X4386653Y6412809D01*
X4377563Y6408262D01*
X4373018Y6403718D01*
X4368472Y6394627D01*
X4368472Y6385537D01*
X4373018Y6376446D01*
X4382109Y6362809D01*
X4427562Y6317353D01*
X4363928Y6317353D01*
X4279381Y6412809D02*
G01*
X4324837Y6412809D01*
X4329381Y6371899D01*
X4324837Y6376446D01*
X4311200Y6380990D01*
X4297563Y6380990D01*
X4283928Y6376446D01*
X4274837Y6367353D01*
X4270291Y6353718D01*
X4270291Y6344627D01*
X4274837Y6330990D01*
X4283928Y6321899D01*
X4297563Y6317353D01*
X4311200Y6317353D01*
X4324837Y6321899D01*
X4329381Y6326446D01*
X4333928Y6335537D01*
X4213004Y9998527D02*
G01*
X4222094Y9993980D01*
X4231185Y9984889D01*
X4235729Y9975799D01*
X4240275Y9962164D01*
X4240275Y9939436D01*
X4235729Y9925799D01*
X4231185Y9916708D01*
X4222094Y9907617D01*
X4213004Y9903071D01*
X4194822Y9903071D01*
X4185729Y9907617D01*
X4176638Y9916708D01*
X4172094Y9925799D01*
X4167548Y9939436D01*
X4167548Y9962164D01*
X4172094Y9975799D01*
X4176638Y9984889D01*
X4185729Y9993980D01*
X4194822Y9998527D01*
X4213004Y9998527D01*
X4199366Y9921255D02*
G01*
X4172094Y9893980D01*
X4137548Y9980345D02*
G01*
X4128457Y9984889D01*
X4114822Y9998527D01*
X4114822Y9903071D01*
X3832004Y9757227D02*
G01*
X3841094Y9752680D01*
X3850185Y9743589D01*
X3854729Y9734499D01*
X3859275Y9720864D01*
X3859275Y9698136D01*
X3854729Y9684499D01*
X3850185Y9675408D01*
X3841094Y9666317D01*
X3832004Y9661771D01*
X3813822Y9661771D01*
X3804729Y9666317D01*
X3795638Y9675408D01*
X3791094Y9684499D01*
X3786548Y9698136D01*
X3786548Y9720864D01*
X3791094Y9734499D01*
X3795638Y9743589D01*
X3804729Y9752680D01*
X3813822Y9757227D01*
X3832004Y9757227D01*
X3818366Y9679955D02*
G01*
X3791094Y9652680D01*
X3752004Y9734499D02*
G01*
X3752004Y9739045D01*
X3747457Y9748136D01*
X3742913Y9752680D01*
X3733822Y9757227D01*
X3715638Y9757227D01*
X3706548Y9752680D01*
X3702004Y9748136D01*
X3697457Y9739045D01*
X3697457Y9729955D01*
X3702004Y9720864D01*
X3711094Y9707227D01*
X3756548Y9661771D01*
X3692913Y9661771D01*
X4213004Y9490527D02*
G01*
X4222094Y9485980D01*
X4231185Y9476889D01*
X4235729Y9467799D01*
X4240275Y9454164D01*
X4240275Y9431436D01*
X4235729Y9417799D01*
X4231185Y9408708D01*
X4222094Y9399617D01*
X4213004Y9395071D01*
X4194822Y9395071D01*
X4185729Y9399617D01*
X4176638Y9408708D01*
X4172094Y9417799D01*
X4167548Y9431436D01*
X4167548Y9454164D01*
X4172094Y9467799D01*
X4176638Y9476889D01*
X4185729Y9485980D01*
X4194822Y9490527D01*
X4213004Y9490527D01*
X4199366Y9413255D02*
G01*
X4172094Y9385980D01*
X4128457Y9490527D02*
G01*
X4078457Y9490527D01*
X4105729Y9454164D01*
X4092094Y9454164D01*
X4083004Y9449617D01*
X4078457Y9445071D01*
X4073913Y9431436D01*
X4073913Y9422345D01*
X4078457Y9408708D01*
X4087548Y9399617D01*
X4101185Y9395071D01*
X4114822Y9395071D01*
X4128457Y9399617D01*
X4133004Y9404164D01*
X4137548Y9413255D01*
X1109776Y5023733D02*
G01*
X1109776Y4955552D01*
X1105230Y4941915D01*
X1096139Y4932824D01*
X1082504Y4928278D01*
X1073414Y4928278D01*
X1059776Y4932824D01*
X1050686Y4941915D01*
X1046139Y4955552D01*
X1046139Y5023733D01*
X1007049Y5023733D02*
G01*
X957049Y5023733D01*
X984323Y4987371D01*
X970686Y4987371D01*
X961595Y4982824D01*
X957049Y4978278D01*
X952505Y4964643D01*
X952505Y4955552D01*
X957049Y4941915D01*
X966139Y4932824D01*
X979777Y4928278D01*
X993414Y4928278D01*
X1007049Y4932824D01*
X1011595Y4937371D01*
X1016139Y4946462D01*
X6110681Y6989681D02*
G01*
X6119771Y6985137D01*
X6128862Y6976046D01*
X6133409Y6966953D01*
X6133409Y6948771D01*
X6128862Y6939681D01*
X6119771Y6930590D01*
X6110681Y6926046D01*
X6097046Y6921500D01*
X6074318Y6921500D01*
X6060681Y6926046D01*
X6051590Y6930590D01*
X6042499Y6939681D01*
X6037953Y6948771D01*
X6037953Y6966953D01*
X6042499Y6976046D01*
X6051590Y6985137D01*
X6060681Y6989681D01*
X6110681Y7024227D02*
G01*
X6115227Y7024227D01*
X6124318Y7028771D01*
X6128862Y7033318D01*
X6133409Y7042409D01*
X6133409Y7060590D01*
X6128862Y7069681D01*
X6124318Y7074227D01*
X6115227Y7078771D01*
X6106137Y7078771D01*
X6097046Y7074227D01*
X6083409Y7065137D01*
X6037953Y7019681D01*
X6037953Y7083318D01*
X3721100Y9575109D02*
G01*
X3721100Y9479653D01*
X3721100Y9575109D02*
G01*
X3680190Y9575109D01*
X3666553Y9570562D01*
X3662009Y9566018D01*
X3657462Y9556927D01*
X3657462Y9547837D01*
X3662009Y9538746D01*
X3666553Y9534199D01*
X3680190Y9529653D01*
X3721100Y9529653D01*
X3689281Y9529653D02*
G01*
X3657462Y9479653D01*
X3627462Y9556927D02*
G01*
X3618372Y9561471D01*
X3604737Y9575109D01*
X3604737Y9479653D01*
X3574737Y9556927D02*
G01*
X3565646Y9561471D01*
X3552009Y9575109D01*
X3552009Y9479653D01*
X3721100Y9321109D02*
G01*
X3721100Y9225653D01*
X3721100Y9321109D02*
G01*
X3680190Y9321109D01*
X3666553Y9316562D01*
X3662009Y9312018D01*
X3657462Y9302927D01*
X3657462Y9293837D01*
X3662009Y9284746D01*
X3666553Y9280199D01*
X3680190Y9275653D01*
X3721100Y9275653D01*
X3689281Y9275653D02*
G01*
X3657462Y9225653D01*
X3627462Y9302927D02*
G01*
X3618372Y9307471D01*
X3604737Y9321109D01*
X3604737Y9225653D01*
X3570190Y9298381D02*
G01*
X3570190Y9302927D01*
X3565646Y9312018D01*
X3561100Y9316562D01*
X3552009Y9321109D01*
X3533828Y9321109D01*
X3524737Y9316562D01*
X3520191Y9312018D01*
X3515647Y9302927D01*
X3515647Y9293837D01*
X3520191Y9284746D01*
X3529281Y9271109D01*
X3574737Y9225653D01*
X3511100Y9225653D01*
X3721100Y9067109D02*
G01*
X3721100Y8971653D01*
X3721100Y9067109D02*
G01*
X3680190Y9067109D01*
X3666553Y9062562D01*
X3662009Y9058018D01*
X3657462Y9048927D01*
X3657462Y9039837D01*
X3662009Y9030746D01*
X3666553Y9026199D01*
X3680190Y9021653D01*
X3721100Y9021653D01*
X3689281Y9021653D02*
G01*
X3657462Y8971653D01*
X3627462Y9048927D02*
G01*
X3618372Y9053471D01*
X3604737Y9067109D01*
X3604737Y8971653D01*
X3565646Y9067109D02*
G01*
X3515647Y9067109D01*
X3542918Y9030746D01*
X3529281Y9030746D01*
X3520191Y9026199D01*
X3515647Y9021653D01*
X3511100Y9008018D01*
X3511100Y8998927D01*
X3515647Y8985290D01*
X3524737Y8976199D01*
X3538372Y8971653D01*
X3552009Y8971653D01*
X3565646Y8976199D01*
X3570190Y8980746D01*
X3574737Y8989837D01*
X6732981Y7015081D02*
G01*
X6742071Y7010537D01*
X6751162Y7001446D01*
X6755709Y6992353D01*
X6755709Y6974171D01*
X6751162Y6965081D01*
X6742071Y6955990D01*
X6732981Y6951446D01*
X6719346Y6946900D01*
X6696618Y6946900D01*
X6682981Y6951446D01*
X6673890Y6955990D01*
X6664799Y6965081D01*
X6660253Y6974171D01*
X6660253Y6992353D01*
X6664799Y7001446D01*
X6673890Y7010537D01*
X6682981Y7015081D01*
X6737527Y7045081D02*
G01*
X6742071Y7054171D01*
X6755709Y7067809D01*
X6660253Y7067809D01*
X495300Y8521009D02*
G01*
X495300Y8452827D01*
X490753Y8439190D01*
X481662Y8430099D01*
X468028Y8425553D01*
X458937Y8425553D01*
X445300Y8430099D01*
X436209Y8439190D01*
X431662Y8452827D01*
X431662Y8521009D01*
X397118Y8498281D02*
G01*
X397118Y8502827D01*
X392572Y8511918D01*
X388028Y8516462D01*
X378937Y8521009D01*
X360753Y8521009D01*
X351662Y8516462D01*
X347118Y8511918D01*
X342572Y8502827D01*
X342572Y8493737D01*
X347118Y8484646D01*
X356209Y8471009D01*
X401662Y8425553D01*
X338028Y8425553D01*
X596900Y9219509D02*
G01*
X596900Y9124053D01*
X596900Y9219509D02*
G01*
X555990Y9219509D01*
X542353Y9214962D01*
X537809Y9210418D01*
X533262Y9201327D01*
X533262Y9192237D01*
X537809Y9183146D01*
X542353Y9178599D01*
X555990Y9174053D01*
X596900Y9174053D01*
X565081Y9174053D02*
G01*
X533262Y9124053D01*
X498718Y9196781D02*
G01*
X498718Y9201327D01*
X494172Y9210418D01*
X489628Y9214962D01*
X480537Y9219509D01*
X462353Y9219509D01*
X453262Y9214962D01*
X448718Y9210418D01*
X444172Y9201327D01*
X444172Y9192237D01*
X448718Y9183146D01*
X457809Y9169509D01*
X503262Y9124053D01*
X439628Y9124053D01*
X355081Y9205871D02*
G01*
X359628Y9214962D01*
X373263Y9219509D01*
X382353Y9219509D01*
X395991Y9214962D01*
X405081Y9201327D01*
X409628Y9178599D01*
X409628Y9155871D01*
X405081Y9137690D01*
X395991Y9128599D01*
X382353Y9124053D01*
X377809Y9124053D01*
X364172Y9128599D01*
X355081Y9137690D01*
X350537Y9151327D01*
X350537Y9155871D01*
X355081Y9169509D01*
X364172Y9178599D01*
X377809Y9183146D01*
X382353Y9183146D01*
X395991Y9178599D01*
X405081Y9169509D01*
X409628Y9155871D01*
X5219700Y6171509D02*
G01*
X5219700Y6076053D01*
X5219700Y6171509D02*
G01*
X5178790Y6171509D01*
X5165153Y6166962D01*
X5160609Y6162418D01*
X5156062Y6153327D01*
X5156062Y6144237D01*
X5160609Y6135146D01*
X5165153Y6130599D01*
X5178790Y6126053D01*
X5219700Y6126053D01*
X5187881Y6126053D02*
G01*
X5156062Y6076053D01*
X5062428Y6171509D02*
G01*
X5107881Y6076053D01*
X5126062Y6171509D02*
G01*
X5062428Y6171509D01*
X5219700Y6425509D02*
G01*
X5219700Y6330053D01*
X5219700Y6425509D02*
G01*
X5178790Y6425509D01*
X5165153Y6420962D01*
X5160609Y6416418D01*
X5156062Y6407327D01*
X5156062Y6398237D01*
X5160609Y6389146D01*
X5165153Y6384599D01*
X5178790Y6380053D01*
X5219700Y6380053D01*
X5187881Y6380053D02*
G01*
X5156062Y6330053D01*
X5121518Y6402781D02*
G01*
X5121518Y6407327D01*
X5116972Y6416418D01*
X5112428Y6420962D01*
X5103337Y6425509D01*
X5085153Y6425509D01*
X5076063Y6420962D01*
X5071518Y6416418D01*
X5066972Y6407327D01*
X5066972Y6398237D01*
X5071518Y6389146D01*
X5080609Y6375509D01*
X5126062Y6330053D01*
X5062428Y6330053D01*
X5219700Y6679509D02*
G01*
X5219700Y6584053D01*
X5219700Y6679509D02*
G01*
X5178790Y6679509D01*
X5165153Y6674962D01*
X5160609Y6670418D01*
X5156062Y6661327D01*
X5156062Y6652237D01*
X5160609Y6643146D01*
X5165153Y6638599D01*
X5178790Y6634053D01*
X5219700Y6634053D01*
X5187881Y6634053D02*
G01*
X5156062Y6584053D01*
X5071518Y6665871D02*
G01*
X5076063Y6674962D01*
X5089700Y6679509D01*
X5098790Y6679509D01*
X5112428Y6674962D01*
X5121518Y6661327D01*
X5126062Y6638599D01*
X5126062Y6615871D01*
X5121518Y6597690D01*
X5112428Y6588599D01*
X5098790Y6584053D01*
X5094246Y6584053D01*
X5080609Y6588599D01*
X5071518Y6597690D01*
X5066972Y6611327D01*
X5066972Y6615871D01*
X5071518Y6629509D01*
X5080609Y6638599D01*
X5094246Y6643146D01*
X5098790Y6643146D01*
X5112428Y6638599D01*
X5121518Y6629509D01*
X5126062Y6615871D01*
X5219700Y6933509D02*
G01*
X5219700Y6838053D01*
X5219700Y6933509D02*
G01*
X5178790Y6933509D01*
X5165153Y6928962D01*
X5160609Y6924418D01*
X5156062Y6915327D01*
X5156062Y6906237D01*
X5160609Y6897146D01*
X5165153Y6892599D01*
X5178790Y6888053D01*
X5219700Y6888053D01*
X5187881Y6888053D02*
G01*
X5156062Y6838053D01*
X5126062Y6915327D02*
G01*
X5116972Y6919871D01*
X5103337Y6933509D01*
X5103337Y6838053D01*
X5219700Y5142809D02*
G01*
X5219700Y5047353D01*
X5219700Y5142809D02*
G01*
X5178790Y5142809D01*
X5165153Y5138262D01*
X5160609Y5133718D01*
X5156062Y5124627D01*
X5156062Y5115537D01*
X5160609Y5106446D01*
X5165153Y5101899D01*
X5178790Y5097353D01*
X5219700Y5097353D01*
X5187881Y5097353D02*
G01*
X5156062Y5047353D01*
X5071518Y5142809D02*
G01*
X5116972Y5142809D01*
X5121518Y5101899D01*
X5116972Y5106446D01*
X5103337Y5110990D01*
X5089700Y5110990D01*
X5076063Y5106446D01*
X5066972Y5097353D01*
X5062428Y5083718D01*
X5062428Y5074627D01*
X5066972Y5060990D01*
X5076063Y5051899D01*
X5089700Y5047353D01*
X5103337Y5047353D01*
X5116972Y5051899D01*
X5121518Y5056446D01*
X5126062Y5065537D01*
X5219700Y5409509D02*
G01*
X5219700Y5314053D01*
X5219700Y5409509D02*
G01*
X5178790Y5409509D01*
X5165153Y5404962D01*
X5160609Y5400418D01*
X5156062Y5391327D01*
X5156062Y5382237D01*
X5160609Y5373146D01*
X5165153Y5368599D01*
X5178790Y5364053D01*
X5219700Y5364053D01*
X5187881Y5364053D02*
G01*
X5156062Y5314053D01*
X5080609Y5409509D02*
G01*
X5126062Y5345871D01*
X5057881Y5345871D01*
X5080609Y5409509D02*
G01*
X5080609Y5314053D01*
X5219700Y5663509D02*
G01*
X5219700Y5568053D01*
X5219700Y5663509D02*
G01*
X5178790Y5663509D01*
X5165153Y5658962D01*
X5160609Y5654418D01*
X5156062Y5645327D01*
X5156062Y5636237D01*
X5160609Y5627146D01*
X5165153Y5622599D01*
X5178790Y5618053D01*
X5219700Y5618053D01*
X5187881Y5618053D02*
G01*
X5156062Y5568053D01*
X5103337Y5663509D02*
G01*
X5116972Y5658962D01*
X5121518Y5649871D01*
X5121518Y5640781D01*
X5116972Y5631690D01*
X5107881Y5627146D01*
X5089700Y5622599D01*
X5076063Y5618053D01*
X5066972Y5608962D01*
X5062428Y5599871D01*
X5062428Y5586237D01*
X5066972Y5577146D01*
X5071518Y5572599D01*
X5085153Y5568053D01*
X5103337Y5568053D01*
X5116972Y5572599D01*
X5121518Y5577146D01*
X5126062Y5586237D01*
X5126062Y5599871D01*
X5121518Y5608962D01*
X5112428Y5618053D01*
X5098790Y5622599D01*
X5080609Y5627146D01*
X5071518Y5631690D01*
X5066972Y5640781D01*
X5066972Y5649871D01*
X5071518Y5658962D01*
X5085153Y5663509D01*
X5103337Y5663509D01*
X5219700Y5917509D02*
G01*
X5219700Y5822053D01*
X5219700Y5917509D02*
G01*
X5178790Y5917509D01*
X5165153Y5912962D01*
X5160609Y5908418D01*
X5156062Y5899327D01*
X5156062Y5890237D01*
X5160609Y5881146D01*
X5165153Y5876599D01*
X5178790Y5872053D01*
X5219700Y5872053D01*
X5187881Y5872053D02*
G01*
X5156062Y5822053D01*
X5116972Y5917509D02*
G01*
X5066972Y5917509D01*
X5094246Y5881146D01*
X5080609Y5881146D01*
X5071518Y5876599D01*
X5066972Y5872053D01*
X5062428Y5858418D01*
X5062428Y5849327D01*
X5066972Y5835690D01*
X5076063Y5826599D01*
X5089700Y5822053D01*
X5103337Y5822053D01*
X5116972Y5826599D01*
X5121518Y5831146D01*
X5126062Y5840237D01*
X6654109Y6667500D02*
G01*
X6558653Y6667500D01*
X6654109Y6667500D02*
G01*
X6654109Y6699318D01*
X6649562Y6712953D01*
X6640471Y6722046D01*
X6631381Y6726590D01*
X6617746Y6731137D01*
X6595018Y6731137D01*
X6581381Y6726590D01*
X6572290Y6722046D01*
X6563199Y6712953D01*
X6558653Y6699318D01*
X6558653Y6667500D01*
X6654109Y6770227D02*
G01*
X6654109Y6820227D01*
X6617746Y6792953D01*
X6617746Y6806590D01*
X6613199Y6815681D01*
X6608653Y6820227D01*
X6595018Y6824771D01*
X6585927Y6824771D01*
X6572290Y6820227D01*
X6563199Y6811137D01*
X6558653Y6797499D01*
X6558653Y6783862D01*
X6563199Y6770227D01*
X6567746Y6765681D01*
X6576837Y6761137D01*
X6006409Y6604000D02*
G01*
X5910953Y6604000D01*
X6006409Y6604000D02*
G01*
X6006409Y6663090D01*
X5960953Y6604000D02*
G01*
X5960953Y6640362D01*
X6006409Y6693090D02*
G01*
X5910953Y6693090D01*
X6006409Y6693090D02*
G01*
X6006409Y6733999D01*
X6001862Y6747637D01*
X5997318Y6752181D01*
X5988227Y6756727D01*
X5979137Y6756727D01*
X5970046Y6752181D01*
X5965499Y6747637D01*
X5960953Y6733999D01*
X5960953Y6693090D02*
G01*
X5960953Y6733999D01*
X5956409Y6747637D01*
X5951862Y6752181D01*
X5942771Y6756727D01*
X5929137Y6756727D01*
X5920046Y6752181D01*
X5915499Y6747637D01*
X5910953Y6733999D01*
X5910953Y6693090D01*
X5988227Y6786727D02*
G01*
X5992771Y6795818D01*
X6006409Y6809452D01*
X5910953Y6809452D01*
G36*
X6043574Y7153402D02*
G01*
X6043574Y7107681D01*
X6128969Y7107681D01*
X6128969Y7153402D01*
G37*
G36*
X6418630Y7153402D02*
G01*
X6418630Y7107681D01*
X6504025Y7107681D01*
X6504025Y7153402D01*
G37*
G36*
X6678574Y7153402D02*
G01*
X6678574Y7107681D01*
X6763969Y7107681D01*
X6763969Y7153402D01*
G37*
G36*
X7053630Y7153402D02*
G01*
X7053630Y7107681D01*
X7139025Y7107681D01*
X7139025Y7153402D01*
G37*
G36*
X6306566Y6919874D02*
G01*
X6306566Y6889394D01*
X6336080Y6889394D01*
X6336080Y6919874D01*
G37*
G36*
X6465519Y6919874D02*
G01*
X6465519Y6889394D01*
X6495034Y6889394D01*
X6495034Y6919874D01*
G37*
D13*
X5892800Y4978400D02*
G01*
X5626100Y4978400D01*
X6527800Y8343900D02*
G01*
X6527800Y5803900D01*
X6019800Y5803900D01*
X6019800Y8343900D01*
X6527800Y8343900D01*
X7289800Y5803900D02*
G01*
X6527800Y5803900D01*
X6527800Y8343900D01*
X7289800Y8343900D01*
X6019800Y8343900D02*
G01*
X6019800Y5803900D01*
X6019800Y8343900D02*
G01*
X6019800Y5803900D01*
X7289800Y5803900D02*
G01*
X7289800Y8343900D01*
X5626100Y10058400D02*
G01*
X5892800Y10058400D01*
X5892800Y4978400D01*
X5626100Y4978400D02*
G01*
X5626100Y10058400D01*
X7404100Y10058400D02*
G01*
X7670800Y10058400D01*
X7670800Y4978400D01*
X7404100Y4978400D01*
X7404100Y10058400D01*
X4737100Y10058400D02*
G01*
X5003800Y10058400D01*
X5003800Y4978400D01*
X4737100Y4978400D01*
X4737100Y10058400D01*
X2971800Y5334000D02*
G01*
X2971800Y2908300D01*
X863600Y5334000D02*
G01*
X863600Y4064899D01*
X863600Y10414000D02*
G01*
X2959100Y10414000D01*
X867704Y10414000D02*
G01*
X867704Y5334000D01*
X869950Y5334000D02*
G01*
X2965450Y5334000D01*
X2965500Y10414000D02*
G01*
X2965500Y5334000D01*
D12*
X6466860Y8110778D02*
G01*
X6466860Y8014891D01*
X6334739Y8014891D01*
X6334739Y8110778D01*
X6466860Y8196021D02*
G01*
X6466860Y8291908D01*
X6334739Y8291908D01*
X6334739Y8196021D01*
X7101860Y8110778D02*
G01*
X7101860Y8014891D01*
X6969739Y8014891D01*
X6969739Y8110778D01*
X7101860Y8196021D02*
G01*
X7101860Y8291908D01*
X6969739Y8291908D01*
X6969739Y8196021D01*
D13*
X2155002Y4517351D02*
G01*
X2058113Y4517351D01*
X1751886Y4517351D02*
G01*
X1655008Y4517351D01*
X1655008Y4517351D02*
G01*
X1655008Y4285465D01*
X2141976Y4517351D02*
G01*
X2155002Y4517351D01*
X2155002Y4517351D02*
G01*
X2155002Y4285465D01*
X2036884Y4092354D02*
G01*
X1773113Y4092354D01*
X1494602Y4517351D02*
G01*
X1397713Y4517351D01*
X1091486Y4517351D02*
G01*
X994608Y4517351D01*
X994608Y4517351D02*
G01*
X994608Y4285465D01*
X1481576Y4517351D02*
G01*
X1494602Y4517351D01*
X1494602Y4517351D02*
G01*
X1494602Y4285465D01*
X1376484Y4092354D02*
G01*
X1112713Y4092354D01*
X6060440Y8329929D02*
G01*
X6233159Y8329929D01*
X6233159Y8329929D02*
G01*
X6233159Y8182610D01*
X6060440Y8329929D02*
G01*
X6060440Y8182610D01*
X6233159Y8124189D02*
G01*
X6233159Y8007350D01*
X6060440Y8121650D02*
G01*
X6060440Y8007350D01*
X6060440Y8007350D02*
G01*
X6096000Y7971789D01*
X6197600Y7971789D01*
X6233159Y8007350D01*
D11*
X6106159Y8161020D02*
G01*
X6184900Y8161020D01*
X6146004Y8161020D02*
G01*
X6146004Y8143483D01*
D13*
X6695440Y8329929D02*
G01*
X6868159Y8329929D01*
X6868159Y8329929D02*
G01*
X6868159Y8182610D01*
X6695440Y8329929D02*
G01*
X6695440Y8182610D01*
X6868159Y8124189D02*
G01*
X6868159Y8007350D01*
X6695440Y8121650D02*
G01*
X6695440Y8007350D01*
X6695440Y8007350D02*
G01*
X6731000Y7971789D01*
X6832600Y7971789D01*
X6868159Y8007350D01*
D11*
X6741159Y8161020D02*
G01*
X6819900Y8161020D01*
X6781004Y8161020D02*
G01*
X6781004Y8143483D01*
D14*
X6094023Y6464300D02*
G01*
X6449623Y6464300D01*
X6096000Y5905500D02*
G01*
X6451600Y5905500D01*
D12*
X6477000Y6311900D02*
G01*
X6477000Y6438900D01*
X6477000Y6057900D02*
G01*
X6477000Y5930900D01*
X6070600Y6438900D02*
G01*
X6070600Y6308394D01*
X6070600Y5930900D02*
G01*
X6070600Y6057900D01*
X2058918Y5054620D02*
G01*
X2058918Y4876779D01*
X1751081Y5054620D02*
G01*
X1751081Y4876779D01*
X2668518Y5054620D02*
G01*
X2668518Y4876779D01*
X2360681Y5054620D02*
G01*
X2360681Y4876779D01*
X4034078Y9103339D02*
G01*
X3938191Y9103339D01*
X3938191Y9235460D01*
X4034078Y9235460D01*
X4119321Y9103339D02*
G01*
X4215208Y9103339D01*
X4215208Y9235460D01*
X4119321Y9235460D01*
X4034078Y8849339D02*
G01*
X3938191Y8849339D01*
X3938191Y8981460D01*
X4034078Y8981460D01*
X4119321Y8849339D02*
G01*
X4215208Y8849339D01*
X4215208Y8981460D01*
X4119321Y8981460D01*
X4034078Y8569939D02*
G01*
X3938191Y8569939D01*
X3938191Y8702060D01*
X4034078Y8702060D01*
X4119321Y8569939D02*
G01*
X4215208Y8569939D01*
X4215208Y8702060D01*
X4119321Y8702060D01*
X4034078Y8315939D02*
G01*
X3938191Y8315939D01*
X3938191Y8448060D01*
X4034078Y8448060D01*
X4119321Y8315939D02*
G01*
X4215208Y8315939D01*
X4215208Y8448060D01*
X4119321Y8448060D01*
X4034078Y8087339D02*
G01*
X3938191Y8087339D01*
X3938191Y8219460D01*
X4034078Y8219460D01*
X4119321Y8087339D02*
G01*
X4215208Y8087339D01*
X4215208Y8219460D01*
X4119321Y8219460D01*
X4034078Y7833339D02*
G01*
X3938191Y7833339D01*
X3938191Y7965460D01*
X4034078Y7965460D01*
X4119321Y7833339D02*
G01*
X4215208Y7833339D01*
X4215208Y7965460D01*
X4119321Y7965460D01*
X4034078Y7553939D02*
G01*
X3938191Y7553939D01*
X3938191Y7686060D01*
X4034078Y7686060D01*
X4119321Y7553939D02*
G01*
X4215208Y7553939D01*
X4215208Y7686060D01*
X4119321Y7686060D01*
X4034078Y7299939D02*
G01*
X3938191Y7299939D01*
X3938191Y7432060D01*
X4034078Y7432060D01*
X4119321Y7299939D02*
G01*
X4215208Y7299939D01*
X4215208Y7432060D01*
X4119321Y7432060D01*
X4034078Y7045939D02*
G01*
X3938191Y7045939D01*
X3938191Y7178060D01*
X4034078Y7178060D01*
X4119321Y7045939D02*
G01*
X4215208Y7045939D01*
X4215208Y7178060D01*
X4119321Y7178060D01*
X4034078Y6791939D02*
G01*
X3938191Y6791939D01*
X3938191Y6924060D01*
X4034078Y6924060D01*
X4119321Y6791939D02*
G01*
X4215208Y6791939D01*
X4215208Y6924060D01*
X4119321Y6924060D01*
X4034078Y6537939D02*
G01*
X3938191Y6537939D01*
X3938191Y6670060D01*
X4034078Y6670060D01*
X4119321Y6537939D02*
G01*
X4215208Y6537939D01*
X4215208Y6670060D01*
X4119321Y6670060D01*
X4034078Y6296639D02*
G01*
X3938191Y6296639D01*
X3938191Y6428760D01*
X4034078Y6428760D01*
X4119321Y6296639D02*
G01*
X4215208Y6296639D01*
X4215208Y6428760D01*
X4119321Y6428760D01*
X4530869Y9791479D02*
G01*
X4359130Y9791479D01*
X4359130Y9894641D01*
X4530869Y10096720D02*
G01*
X4359130Y10096720D01*
X4359130Y9993558D01*
X4530869Y9898560D02*
G01*
X4530869Y9989639D01*
X4149869Y9550179D02*
G01*
X3978130Y9550179D01*
X3978130Y9653341D01*
X4149869Y9855420D02*
G01*
X3978130Y9855420D01*
X3978130Y9752258D01*
X4149869Y9657260D02*
G01*
X4149869Y9748339D01*
X4530869Y9283479D02*
G01*
X4359130Y9283479D01*
X4359130Y9386641D01*
X4530869Y9588720D02*
G01*
X4359130Y9588720D01*
X4359130Y9485558D01*
X4530869Y9390560D02*
G01*
X4530869Y9481639D01*
X1449318Y5054620D02*
G01*
X1449318Y4876779D01*
X1141481Y5054620D02*
G01*
X1141481Y4876779D01*
X6051179Y7891023D02*
G01*
X6051179Y7145776D01*
X6496420Y7891023D02*
G01*
X6496420Y7145776D01*
X6051179Y7297973D02*
G01*
X6496420Y7297973D01*
X6051179Y7891023D02*
G01*
X6123881Y7891023D01*
X6496420Y7891023D02*
G01*
X6423718Y7891023D01*
X3284778Y9458939D02*
G01*
X3188891Y9458939D01*
X3188891Y9591060D01*
X3284778Y9591060D01*
X3370021Y9458939D02*
G01*
X3465908Y9458939D01*
X3465908Y9591060D01*
X3370021Y9591060D01*
X3284778Y9204939D02*
G01*
X3188891Y9204939D01*
X3188891Y9337060D01*
X3284778Y9337060D01*
X3370021Y9204939D02*
G01*
X3465908Y9204939D01*
X3465908Y9337060D01*
X3370021Y9337060D01*
X3284778Y8950939D02*
G01*
X3188891Y8950939D01*
X3188891Y9083060D01*
X3284778Y9083060D01*
X3370021Y8950939D02*
G01*
X3465908Y8950939D01*
X3465908Y9083060D01*
X3370021Y9083060D01*
X6686179Y7891023D02*
G01*
X6686179Y7145776D01*
X7131420Y7891023D02*
G01*
X7131420Y7145776D01*
X6686179Y7297973D02*
G01*
X7131420Y7297973D01*
X6686179Y7891023D02*
G01*
X6758881Y7891023D01*
X7131420Y7891023D02*
G01*
X7058718Y7891023D01*
X506707Y8558580D02*
G01*
X331467Y8558580D01*
X331467Y8662741D01*
X506707Y8865819D02*
G01*
X331467Y8865819D01*
X331467Y8761658D01*
X506707Y8666660D02*
G01*
X506707Y8757739D01*
X427278Y8950939D02*
G01*
X331391Y8950939D01*
X331391Y9083060D01*
X427278Y9083060D01*
X512521Y8950939D02*
G01*
X608408Y8950939D01*
X608408Y9083060D01*
X512521Y9083060D01*
X5354878Y6055339D02*
G01*
X5258991Y6055339D01*
X5258991Y6187460D01*
X5354878Y6187460D01*
X5440121Y6055339D02*
G01*
X5536008Y6055339D01*
X5536008Y6187460D01*
X5440121Y6187460D01*
X5354878Y6309339D02*
G01*
X5258991Y6309339D01*
X5258991Y6441460D01*
X5354878Y6441460D01*
X5440121Y6309339D02*
G01*
X5536008Y6309339D01*
X5536008Y6441460D01*
X5440121Y6441460D01*
X5354878Y6563339D02*
G01*
X5258991Y6563339D01*
X5258991Y6695460D01*
X5354878Y6695460D01*
X5440121Y6563339D02*
G01*
X5536008Y6563339D01*
X5536008Y6695460D01*
X5440121Y6695460D01*
X5354878Y6817339D02*
G01*
X5258991Y6817339D01*
X5258991Y6949460D01*
X5354878Y6949460D01*
X5440121Y6817339D02*
G01*
X5536008Y6817339D01*
X5536008Y6949460D01*
X5440121Y6949460D01*
X5354878Y5026639D02*
G01*
X5258991Y5026639D01*
X5258991Y5158760D01*
X5354878Y5158760D01*
X5440121Y5026639D02*
G01*
X5536008Y5026639D01*
X5536008Y5158760D01*
X5440121Y5158760D01*
X5354878Y5293339D02*
G01*
X5258991Y5293339D01*
X5258991Y5425460D01*
X5354878Y5425460D01*
X5440121Y5293339D02*
G01*
X5536008Y5293339D01*
X5536008Y5425460D01*
X5440121Y5425460D01*
X5354878Y5547339D02*
G01*
X5258991Y5547339D01*
X5258991Y5679460D01*
X5354878Y5679460D01*
X5440121Y5547339D02*
G01*
X5536008Y5547339D01*
X5536008Y5679460D01*
X5440121Y5679460D01*
X5354878Y5801339D02*
G01*
X5258991Y5801339D01*
X5258991Y5933460D01*
X5354878Y5933460D01*
X5440121Y5801339D02*
G01*
X5536008Y5801339D01*
X5536008Y5933460D01*
X5440121Y5933460D01*
X6314180Y6897019D02*
G01*
X6314180Y6615780D01*
X6314180Y6615780D02*
G01*
X6330980Y6615780D01*
X6487419Y6897019D02*
G01*
X6487419Y6615780D01*
X6487419Y6615780D02*
G01*
X6470619Y6615780D01*
X6314180Y6861329D02*
G01*
X6487419Y6861329D01*
D13*
X6045212Y6735025D02*
G01*
X6045212Y6849325D01*
X6045212Y6862025D01*
X6070612Y6887425D01*
X6210312Y6887425D01*
X6223012Y6887425D01*
X6248412Y6862025D01*
X6248412Y6735025D01*
X6248412Y6658825D02*
G01*
X6248412Y6544525D01*
X6248412Y6531825D01*
X6223012Y6506425D01*
X6083312Y6506425D01*
X6070612Y6506425D01*
X6045212Y6531825D01*
X6045212Y6658825D01*
X3554864Y3433312D02*
G01*
X3708392Y3517889D01*
X3554864Y3611112D01*
X4376991Y3290295D02*
G01*
X4376991Y6082286D01*
X4376991Y6082284D02*
G01*
X3496993Y6082286D01*
X3496993Y6082286D02*
G01*
X3496993Y3290295D01*
X3496993Y3290295D02*
G01*
X4376991Y3290295D01*
X3505192Y4432289D02*
G01*
X3632192Y4432289D01*
X3632192Y4940289D01*
X3505192Y4940289D01*
X3555992Y3340089D02*
G01*
X4317992Y3340089D01*
X4317992Y6032489D01*
X3555992Y6032489D01*
X3555992Y4940289D01*
X3555992Y4432289D02*
G01*
X3555992Y3340089D01*
D14*
G75*
G01*
X6273800Y6184900D02*
G03*
X6337300Y6184900I31750J0D01*
G75*
G01*
X6273800Y6184900D02*
G03*
X6210300Y6184900I-31750J0D01*
D13*
G75*
G01
X7167499Y5092700D02*
G03X7167499Y5092700I-499999J0D01*
G75*
G01
X2136597Y4556100D02*
G03X2136597Y4556100I-31623J0D01*
G75*
G01
X1476197Y4556100D02*
G03X1476197Y4556100I-31623J0D01*
D15*
G75*
G01
X1753184Y5095850D02*
G03X1753184Y5095850I-15011J0D01*
G75*
G01
X2362784Y5095850D02*
G03X2362784Y5095850I-15011J0D01*
G75*
G01
X1143584Y5095850D02*
G03X1143584Y5095850I-15011J0D01*
M02*
