G04 Layer: TopSilkscreenLayer*
G04 EasyEDA v6.5.29, 2023-07-18 10:02:35*
G04 8a87558a6270435d8ad66e31a1dfd8bf,5a6b42c53f6a479593ecc07194224c93,10*
G04 Gerber Generator version 0.2*
G04 Scale: 100 percent, Rotated: No, Reflected: No *
G04 Dimensions in millimeters *
G04 leading zeros omitted , absolute positions ,4 integer and 5 decimal *
%FSLAX45Y45*%
%MOMM*%

%ADD10C,0.2032*%
%ADD11C,0.1524*%

%LPD*%
D10*
X3784600Y10281158D02*
G01*
X3784600Y10166604D01*
X3784600Y10281158D02*
G01*
X3828288Y10166604D01*
X3871975Y10281158D02*
G01*
X3828288Y10166604D01*
X3871975Y10281158D02*
G01*
X3871975Y10166604D01*
X4006088Y10303002D02*
G01*
X3907790Y10128250D01*
X4042156Y10281158D02*
G01*
X4042156Y10166604D01*
X4042156Y10281158D02*
G01*
X4113022Y10281158D01*
X4042156Y10226547D02*
G01*
X4085590Y10226547D01*
X4042156Y10166604D02*
G01*
X4113022Y10166604D01*
X4309363Y10264647D02*
G01*
X4298441Y10275570D01*
X4281931Y10281158D01*
X4260341Y10281158D01*
X4243831Y10275570D01*
X4232909Y10264647D01*
X4232909Y10253726D01*
X4238497Y10242804D01*
X4243831Y10237470D01*
X4254754Y10231881D01*
X4287520Y10221213D01*
X4298441Y10215626D01*
X4303775Y10210292D01*
X4309363Y10199370D01*
X4309363Y10182860D01*
X4298441Y10171937D01*
X4281931Y10166604D01*
X4260341Y10166604D01*
X4243831Y10171937D01*
X4232909Y10182860D01*
X4377943Y10281158D02*
G01*
X4367022Y10275570D01*
X4356354Y10264647D01*
X4350765Y10253726D01*
X4345431Y10237470D01*
X4345431Y10210292D01*
X4350765Y10193781D01*
X4356354Y10182860D01*
X4367022Y10171937D01*
X4377943Y10166604D01*
X4399788Y10166604D01*
X4410709Y10171937D01*
X4421631Y10182860D01*
X4427220Y10193781D01*
X4432554Y10210292D01*
X4432554Y10237470D01*
X4427220Y10253726D01*
X4421631Y10264647D01*
X4410709Y10275570D01*
X4399788Y10281158D01*
X4377943Y10281158D01*
X4468622Y10281158D02*
G01*
X4468622Y10199370D01*
X4473956Y10182860D01*
X4484877Y10171937D01*
X4501388Y10166604D01*
X4512309Y10166604D01*
X4528565Y10171937D01*
X4539488Y10182860D01*
X4545075Y10199370D01*
X4545075Y10281158D01*
X4580890Y10281158D02*
G01*
X4580890Y10166604D01*
X4580890Y10281158D02*
G01*
X4630165Y10281158D01*
X4646422Y10275570D01*
X4651756Y10270236D01*
X4657343Y10259313D01*
X4657343Y10248392D01*
X4651756Y10237470D01*
X4646422Y10231881D01*
X4630165Y10226547D01*
X4580890Y10226547D01*
X4619243Y10226547D02*
G01*
X4657343Y10166604D01*
X4775200Y10253726D02*
G01*
X4769611Y10264647D01*
X4758690Y10275570D01*
X4747768Y10281158D01*
X4726177Y10281158D01*
X4715256Y10275570D01*
X4704334Y10264647D01*
X4698745Y10253726D01*
X4693411Y10237470D01*
X4693411Y10210292D01*
X4698745Y10193781D01*
X4704334Y10182860D01*
X4715256Y10171937D01*
X4726177Y10166604D01*
X4747768Y10166604D01*
X4758690Y10171937D01*
X4769611Y10182860D01*
X4775200Y10193781D01*
X4811268Y10281158D02*
G01*
X4811268Y10166604D01*
X4811268Y10281158D02*
G01*
X4882134Y10281158D01*
X4811268Y10226547D02*
G01*
X4854702Y10226547D01*
X4811268Y10166604D02*
G01*
X4882134Y10166604D01*
X5078475Y10264647D02*
G01*
X5067554Y10275570D01*
X5051043Y10281158D01*
X5029200Y10281158D01*
X5012943Y10275570D01*
X5002022Y10264647D01*
X5002022Y10253726D01*
X5007609Y10242804D01*
X5012943Y10237470D01*
X5023865Y10231881D01*
X5056631Y10221213D01*
X5067554Y10215626D01*
X5072888Y10210292D01*
X5078475Y10199370D01*
X5078475Y10182860D01*
X5067554Y10171937D01*
X5051043Y10166604D01*
X5029200Y10166604D01*
X5012943Y10171937D01*
X5002022Y10182860D01*
X5114290Y10281158D02*
G01*
X5114290Y10166604D01*
X5114290Y10281158D02*
G01*
X5185409Y10281158D01*
X5114290Y10226547D02*
G01*
X5157977Y10226547D01*
X5114290Y10166604D02*
G01*
X5185409Y10166604D01*
X5221224Y10281158D02*
G01*
X5221224Y10166604D01*
X5221224Y10166604D02*
G01*
X5286756Y10166604D01*
X5322824Y10281158D02*
G01*
X5322824Y10166604D01*
X5322824Y10281158D02*
G01*
X5393690Y10281158D01*
X5322824Y10226547D02*
G01*
X5366511Y10226547D01*
X5322824Y10166604D02*
G01*
X5393690Y10166604D01*
X5511545Y10253726D02*
G01*
X5505958Y10264647D01*
X5495036Y10275570D01*
X5484113Y10281158D01*
X5462524Y10281158D01*
X5451602Y10275570D01*
X5440679Y10264647D01*
X5435091Y10253726D01*
X5429758Y10237470D01*
X5429758Y10210292D01*
X5435091Y10193781D01*
X5440679Y10182860D01*
X5451602Y10171937D01*
X5462524Y10166604D01*
X5484113Y10166604D01*
X5495036Y10171937D01*
X5505958Y10182860D01*
X5511545Y10193781D01*
X5585713Y10281158D02*
G01*
X5585713Y10166604D01*
X5547613Y10281158D02*
G01*
X5623813Y10281158D01*
X5692647Y10281158D02*
G01*
X5681725Y10275570D01*
X5670804Y10264647D01*
X5665215Y10253726D01*
X5659881Y10237470D01*
X5659881Y10210292D01*
X5665215Y10193781D01*
X5670804Y10182860D01*
X5681725Y10171937D01*
X5692647Y10166604D01*
X5714491Y10166604D01*
X5725413Y10171937D01*
X5736336Y10182860D01*
X5741670Y10193781D01*
X5747258Y10210292D01*
X5747258Y10237470D01*
X5741670Y10253726D01*
X5736336Y10264647D01*
X5725413Y10275570D01*
X5714491Y10281158D01*
X5692647Y10281158D01*
X5783072Y10281158D02*
G01*
X5783072Y10166604D01*
X5783072Y10281158D02*
G01*
X5832347Y10281158D01*
X5848604Y10275570D01*
X5853938Y10270236D01*
X5859525Y10259313D01*
X5859525Y10248392D01*
X5853938Y10237470D01*
X5848604Y10231881D01*
X5832347Y10226547D01*
X5783072Y10226547D01*
X5821425Y10226547D02*
G01*
X5859525Y10166604D01*
X5979413Y10281158D02*
G01*
X5979413Y10166604D01*
X5979413Y10281158D02*
G01*
X6028690Y10281158D01*
X6044945Y10275570D01*
X6050534Y10270236D01*
X6055868Y10259313D01*
X6055868Y10242804D01*
X6050534Y10231881D01*
X6044945Y10226547D01*
X6028690Y10221213D01*
X5979413Y10221213D01*
X6091936Y10281158D02*
G01*
X6091936Y10166604D01*
X6091936Y10281158D02*
G01*
X6140958Y10281158D01*
X6157213Y10275570D01*
X6162802Y10270236D01*
X6168136Y10259313D01*
X6168136Y10248392D01*
X6162802Y10237470D01*
X6157213Y10231881D01*
X6140958Y10226547D01*
X6091936Y10226547D01*
X6130036Y10226547D02*
G01*
X6168136Y10166604D01*
X6236970Y10281158D02*
G01*
X6226047Y10275570D01*
X6215125Y10264647D01*
X6209791Y10253726D01*
X6204204Y10237470D01*
X6204204Y10210292D01*
X6209791Y10193781D01*
X6215125Y10182860D01*
X6226047Y10171937D01*
X6236970Y10166604D01*
X6258813Y10166604D01*
X6269736Y10171937D01*
X6280658Y10182860D01*
X6285991Y10193781D01*
X6291579Y10210292D01*
X6291579Y10237470D01*
X6285991Y10253726D01*
X6280658Y10264647D01*
X6269736Y10275570D01*
X6258813Y10281158D01*
X6236970Y10281158D01*
X6409436Y10253726D02*
G01*
X6403847Y10264647D01*
X6392925Y10275570D01*
X6382004Y10281158D01*
X6360159Y10281158D01*
X6349238Y10275570D01*
X6338315Y10264647D01*
X6332981Y10253726D01*
X6327393Y10237470D01*
X6327393Y10210292D01*
X6332981Y10193781D01*
X6338315Y10182860D01*
X6349238Y10171937D01*
X6360159Y10166604D01*
X6382004Y10166604D01*
X6392925Y10171937D01*
X6403847Y10182860D01*
X6409436Y10193781D01*
X6445250Y10281158D02*
G01*
X6445250Y10166604D01*
X6445250Y10281158D02*
G01*
X6516115Y10281158D01*
X6445250Y10226547D02*
G01*
X6488938Y10226547D01*
X6445250Y10166604D02*
G01*
X6516115Y10166604D01*
X6628638Y10264647D02*
G01*
X6617715Y10275570D01*
X6601206Y10281158D01*
X6579615Y10281158D01*
X6563106Y10275570D01*
X6552184Y10264647D01*
X6552184Y10253726D01*
X6557772Y10242804D01*
X6563106Y10237470D01*
X6574027Y10231881D01*
X6606793Y10221213D01*
X6617715Y10215626D01*
X6623050Y10210292D01*
X6628638Y10199370D01*
X6628638Y10182860D01*
X6617715Y10171937D01*
X6601206Y10166604D01*
X6579615Y10166604D01*
X6563106Y10171937D01*
X6552184Y10182860D01*
X6740906Y10264647D02*
G01*
X6729984Y10275570D01*
X6713727Y10281158D01*
X6691884Y10281158D01*
X6675627Y10275570D01*
X6664706Y10264647D01*
X6664706Y10253726D01*
X6670040Y10242804D01*
X6675627Y10237470D01*
X6686295Y10231881D01*
X6719061Y10221213D01*
X6729984Y10215626D01*
X6735572Y10210292D01*
X6740906Y10199370D01*
X6740906Y10182860D01*
X6729984Y10171937D01*
X6713727Y10166604D01*
X6691884Y10166604D01*
X6675627Y10171937D01*
X6664706Y10182860D01*
X6809740Y10281158D02*
G01*
X6798818Y10275570D01*
X6787895Y10264647D01*
X6782308Y10253726D01*
X6776974Y10237470D01*
X6776974Y10210292D01*
X6782308Y10193781D01*
X6787895Y10182860D01*
X6798818Y10171937D01*
X6809740Y10166604D01*
X6831584Y10166604D01*
X6842506Y10171937D01*
X6853427Y10182860D01*
X6858761Y10193781D01*
X6864350Y10210292D01*
X6864350Y10237470D01*
X6858761Y10253726D01*
X6853427Y10264647D01*
X6842506Y10275570D01*
X6831584Y10281158D01*
X6809740Y10281158D01*
X6900163Y10281158D02*
G01*
X6900163Y10166604D01*
X6900163Y10281158D02*
G01*
X6949440Y10281158D01*
X6965695Y10275570D01*
X6971029Y10270236D01*
X6976618Y10259313D01*
X6976618Y10248392D01*
X6971029Y10237470D01*
X6965695Y10231881D01*
X6949440Y10226547D01*
X6900163Y10226547D01*
X6938518Y10226547D02*
G01*
X6976618Y10166604D01*
X7096506Y10281158D02*
G01*
X7096506Y10166604D01*
X7096506Y10281158D02*
G01*
X7145781Y10281158D01*
X7162038Y10275570D01*
X7167625Y10270236D01*
X7172959Y10259313D01*
X7172959Y10248392D01*
X7167625Y10237470D01*
X7162038Y10231881D01*
X7145781Y10226547D01*
X7096506Y10226547D02*
G01*
X7145781Y10226547D01*
X7162038Y10221213D01*
X7167625Y10215626D01*
X7172959Y10204704D01*
X7172959Y10188447D01*
X7167625Y10177526D01*
X7162038Y10171937D01*
X7145781Y10166604D01*
X7096506Y10166604D01*
X7241793Y10281158D02*
G01*
X7230872Y10275570D01*
X7219950Y10264647D01*
X7214361Y10253726D01*
X7209027Y10237470D01*
X7209027Y10210292D01*
X7214361Y10193781D01*
X7219950Y10182860D01*
X7230872Y10171937D01*
X7241793Y10166604D01*
X7263384Y10166604D01*
X7274306Y10171937D01*
X7285227Y10182860D01*
X7290815Y10193781D01*
X7296150Y10210292D01*
X7296150Y10237470D01*
X7290815Y10253726D01*
X7285227Y10264647D01*
X7274306Y10275570D01*
X7263384Y10281158D01*
X7241793Y10281158D01*
X7375906Y10281158D02*
G01*
X7332218Y10166604D01*
X7375906Y10281158D02*
G01*
X7419593Y10166604D01*
X7348474Y10204704D02*
G01*
X7403084Y10204704D01*
X7455408Y10281158D02*
G01*
X7455408Y10166604D01*
X7455408Y10281158D02*
G01*
X7504684Y10281158D01*
X7520940Y10275570D01*
X7526527Y10270236D01*
X7531861Y10259313D01*
X7531861Y10248392D01*
X7526527Y10237470D01*
X7520940Y10231881D01*
X7504684Y10226547D01*
X7455408Y10226547D01*
X7493761Y10226547D02*
G01*
X7531861Y10166604D01*
X7567929Y10281158D02*
G01*
X7567929Y10166604D01*
X7567929Y10281158D02*
G01*
X7606029Y10281158D01*
X7622286Y10275570D01*
X7633208Y10264647D01*
X7638795Y10253726D01*
X7644129Y10237470D01*
X7644129Y10210292D01*
X7638795Y10193781D01*
X7633208Y10182860D01*
X7622286Y10171937D01*
X7606029Y10166604D01*
X7567929Y10166604D01*
X7764272Y10215626D02*
G01*
X7862315Y10215626D01*
X7982458Y10281158D02*
G01*
X7982458Y10166604D01*
X7982458Y10281158D02*
G01*
X8053324Y10281158D01*
X7982458Y10226547D02*
G01*
X8026145Y10226547D01*
X8089391Y10281158D02*
G01*
X8089391Y10166604D01*
X8089391Y10281158D02*
G01*
X8138413Y10281158D01*
X8154670Y10275570D01*
X8160258Y10270236D01*
X8165591Y10259313D01*
X8165591Y10248392D01*
X8160258Y10237470D01*
X8154670Y10231881D01*
X8138413Y10226547D01*
X8089391Y10226547D01*
X8127491Y10226547D02*
G01*
X8165591Y10166604D01*
X8234425Y10281158D02*
G01*
X8223504Y10275570D01*
X8212581Y10264647D01*
X8207247Y10253726D01*
X8201659Y10237470D01*
X8201659Y10210292D01*
X8207247Y10193781D01*
X8212581Y10182860D01*
X8223504Y10171937D01*
X8234425Y10166604D01*
X8256270Y10166604D01*
X8267191Y10171937D01*
X8278113Y10182860D01*
X8283447Y10193781D01*
X8289036Y10210292D01*
X8289036Y10237470D01*
X8283447Y10253726D01*
X8278113Y10264647D01*
X8267191Y10275570D01*
X8256270Y10281158D01*
X8234425Y10281158D01*
X8324850Y10281158D02*
G01*
X8324850Y10166604D01*
X8324850Y10281158D02*
G01*
X8401304Y10166604D01*
X8401304Y10281158D02*
G01*
X8401304Y10166604D01*
X8475472Y10281158D02*
G01*
X8475472Y10166604D01*
X8437372Y10281158D02*
G01*
X8513572Y10281158D01*
D11*
X7721600Y7187437D02*
G01*
X7721600Y7091934D01*
X7721600Y7091934D02*
G01*
X7776209Y7091934D01*
X7874254Y7164831D02*
G01*
X7869681Y7173976D01*
X7860791Y7182865D01*
X7851647Y7187437D01*
X7833359Y7187437D01*
X7824215Y7182865D01*
X7815325Y7173976D01*
X7810754Y7164831D01*
X7806181Y7151115D01*
X7806181Y7128510D01*
X7810754Y7114794D01*
X7815325Y7105650D01*
X7824215Y7096505D01*
X7833359Y7091934D01*
X7851647Y7091934D01*
X7860791Y7096505D01*
X7869681Y7105650D01*
X7874254Y7114794D01*
X7904225Y7187437D02*
G01*
X7904225Y7091934D01*
X7904225Y7187437D02*
G01*
X7936229Y7187437D01*
X7949691Y7182865D01*
X7958836Y7173976D01*
X7963408Y7164831D01*
X7967979Y7151115D01*
X7967979Y7128510D01*
X7963408Y7114794D01*
X7958836Y7105650D01*
X7949691Y7096505D01*
X7936229Y7091934D01*
X7904225Y7091934D01*
X7997952Y7060184D02*
G01*
X8079740Y7060184D01*
X8178038Y7164831D02*
G01*
X8173465Y7173976D01*
X8164322Y7182865D01*
X8155177Y7187437D01*
X8137143Y7187437D01*
X8128000Y7182865D01*
X8118856Y7173976D01*
X8114284Y7164831D01*
X8109711Y7151115D01*
X8109711Y7128510D01*
X8114284Y7114794D01*
X8118856Y7105650D01*
X8128000Y7096505D01*
X8137143Y7091934D01*
X8155177Y7091934D01*
X8164322Y7096505D01*
X8173465Y7105650D01*
X8178038Y7114794D01*
X8271509Y7173976D02*
G01*
X8262620Y7182865D01*
X8248904Y7187437D01*
X8230615Y7187437D01*
X8217154Y7182865D01*
X8208009Y7173976D01*
X8208009Y7164831D01*
X8212581Y7155687D01*
X8217154Y7151115D01*
X8226043Y7146544D01*
X8253475Y7137400D01*
X8262620Y7133081D01*
X8266938Y7128510D01*
X8271509Y7119365D01*
X8271509Y7105650D01*
X8262620Y7096505D01*
X8248904Y7091934D01*
X8230615Y7091934D01*
X8217154Y7096505D01*
X8208009Y7105650D01*
X7721600Y7441437D02*
G01*
X7721600Y7345934D01*
X7721600Y7345934D02*
G01*
X7776209Y7345934D01*
X7874254Y7418831D02*
G01*
X7869681Y7427976D01*
X7860791Y7436865D01*
X7851647Y7441437D01*
X7833359Y7441437D01*
X7824215Y7436865D01*
X7815325Y7427976D01*
X7810754Y7418831D01*
X7806181Y7405115D01*
X7806181Y7382510D01*
X7810754Y7368794D01*
X7815325Y7359650D01*
X7824215Y7350505D01*
X7833359Y7345934D01*
X7851647Y7345934D01*
X7860791Y7350505D01*
X7869681Y7359650D01*
X7874254Y7368794D01*
X7904225Y7441437D02*
G01*
X7904225Y7345934D01*
X7904225Y7441437D02*
G01*
X7936229Y7441437D01*
X7949691Y7436865D01*
X7958836Y7427976D01*
X7963408Y7418831D01*
X7967979Y7405115D01*
X7967979Y7382510D01*
X7963408Y7368794D01*
X7958836Y7359650D01*
X7949691Y7350505D01*
X7936229Y7345934D01*
X7904225Y7345934D01*
X7997952Y7314184D02*
G01*
X8079740Y7314184D01*
X8109711Y7441437D02*
G01*
X8109711Y7345934D01*
X8109711Y7441437D02*
G01*
X8141715Y7441437D01*
X8155177Y7436865D01*
X8164322Y7427976D01*
X8168893Y7418831D01*
X8173465Y7405115D01*
X8173465Y7382510D01*
X8168893Y7368794D01*
X8164322Y7359650D01*
X8155177Y7350505D01*
X8141715Y7345934D01*
X8109711Y7345934D01*
X8271509Y7418831D02*
G01*
X8266938Y7427976D01*
X8258047Y7436865D01*
X8248904Y7441437D01*
X8230615Y7441437D01*
X8221725Y7436865D01*
X8212581Y7427976D01*
X8208009Y7418831D01*
X8203438Y7405115D01*
X8203438Y7382510D01*
X8208009Y7368794D01*
X8212581Y7359650D01*
X8221725Y7350505D01*
X8230615Y7345934D01*
X8248904Y7345934D01*
X8258047Y7350505D01*
X8266938Y7359650D01*
X8271509Y7368794D01*
X7798054Y8443976D02*
G01*
X7788909Y8452865D01*
X7775193Y8457437D01*
X7756906Y8457437D01*
X7743443Y8452865D01*
X7734300Y8443976D01*
X7734300Y8434831D01*
X7738872Y8425687D01*
X7743443Y8421115D01*
X7752588Y8416544D01*
X7779765Y8407400D01*
X7788909Y8403081D01*
X7793481Y8398510D01*
X7798054Y8389365D01*
X7798054Y8375650D01*
X7788909Y8366505D01*
X7775193Y8361934D01*
X7756906Y8361934D01*
X7743443Y8366505D01*
X7734300Y8375650D01*
X7828025Y8457437D02*
G01*
X7828025Y8361934D01*
X7828025Y8457437D02*
G01*
X7859775Y8457437D01*
X7873491Y8452865D01*
X7882381Y8443976D01*
X7886954Y8434831D01*
X7891525Y8421115D01*
X7891525Y8398510D01*
X7886954Y8384794D01*
X7882381Y8375650D01*
X7873491Y8366505D01*
X7859775Y8361934D01*
X7828025Y8361934D01*
X7921497Y8457437D02*
G01*
X7921497Y8361934D01*
X7978902Y8457437D02*
G01*
X7969758Y8452865D01*
X7960613Y8443976D01*
X7956041Y8434831D01*
X7951470Y8421115D01*
X7951470Y8398510D01*
X7956041Y8384794D01*
X7960613Y8375650D01*
X7969758Y8366505D01*
X7978902Y8361934D01*
X7996936Y8361934D01*
X8006079Y8366505D01*
X8015224Y8375650D01*
X8019795Y8384794D01*
X8024368Y8398510D01*
X8024368Y8421115D01*
X8019795Y8434831D01*
X8015224Y8443976D01*
X8006079Y8452865D01*
X7996936Y8457437D01*
X7978902Y8457437D01*
X8054340Y8330184D02*
G01*
X8136127Y8330184D01*
X8234425Y8434831D02*
G01*
X8229854Y8443976D01*
X8220709Y8452865D01*
X8211565Y8457437D01*
X8193277Y8457437D01*
X8184388Y8452865D01*
X8175243Y8443976D01*
X8170672Y8434831D01*
X8166100Y8421115D01*
X8166100Y8398510D01*
X8170672Y8384794D01*
X8175243Y8375650D01*
X8184388Y8366505D01*
X8193277Y8361934D01*
X8211565Y8361934D01*
X8220709Y8366505D01*
X8229854Y8375650D01*
X8234425Y8384794D01*
X8264397Y8457437D02*
G01*
X8264397Y8361934D01*
X8264397Y8361934D02*
G01*
X8318754Y8361934D01*
X8348725Y8457437D02*
G01*
X8348725Y8361934D01*
X8412479Y8457437D02*
G01*
X8348725Y8393937D01*
X8371586Y8416544D02*
G01*
X8412479Y8361934D01*
X7785354Y6665976D02*
G01*
X7776209Y6674865D01*
X7762493Y6679437D01*
X7744206Y6679437D01*
X7730743Y6674865D01*
X7721600Y6665976D01*
X7721600Y6656831D01*
X7726172Y6647687D01*
X7730743Y6643115D01*
X7739888Y6638544D01*
X7767065Y6629400D01*
X7776209Y6625081D01*
X7780781Y6620510D01*
X7785354Y6611365D01*
X7785354Y6597650D01*
X7776209Y6588505D01*
X7762493Y6583934D01*
X7744206Y6583934D01*
X7730743Y6588505D01*
X7721600Y6597650D01*
X7815325Y6679437D02*
G01*
X7815325Y6583934D01*
X7815325Y6679437D02*
G01*
X7856220Y6679437D01*
X7869681Y6674865D01*
X7874254Y6670294D01*
X7878825Y6661404D01*
X7878825Y6647687D01*
X7874254Y6638544D01*
X7869681Y6633971D01*
X7856220Y6629400D01*
X7815325Y6629400D01*
X7908797Y6679437D02*
G01*
X7908797Y6583934D01*
X7938770Y6552184D02*
G01*
X8020811Y6552184D01*
X8118856Y6656831D02*
G01*
X8114284Y6665976D01*
X8105140Y6674865D01*
X8096250Y6679437D01*
X8077961Y6679437D01*
X8068818Y6674865D01*
X8059674Y6665976D01*
X8055356Y6656831D01*
X8050784Y6643115D01*
X8050784Y6620510D01*
X8055356Y6606794D01*
X8059674Y6597650D01*
X8068818Y6588505D01*
X8077961Y6583934D01*
X8096250Y6583934D01*
X8105140Y6588505D01*
X8114284Y6597650D01*
X8118856Y6606794D01*
X8148827Y6679437D02*
G01*
X8148827Y6583934D01*
X8148827Y6583934D02*
G01*
X8203438Y6583934D01*
X8233409Y6679437D02*
G01*
X8233409Y6583934D01*
X8297163Y6679437D02*
G01*
X8233409Y6615937D01*
X8256270Y6638544D02*
G01*
X8297163Y6583934D01*
X7785354Y6411976D02*
G01*
X7776209Y6420865D01*
X7762493Y6425437D01*
X7744206Y6425437D01*
X7730743Y6420865D01*
X7721600Y6411976D01*
X7721600Y6402831D01*
X7726172Y6393687D01*
X7730743Y6389115D01*
X7739888Y6384544D01*
X7767065Y6375400D01*
X7776209Y6371081D01*
X7780781Y6366510D01*
X7785354Y6357365D01*
X7785354Y6343650D01*
X7776209Y6334505D01*
X7762493Y6329934D01*
X7744206Y6329934D01*
X7730743Y6334505D01*
X7721600Y6343650D01*
X7815325Y6425437D02*
G01*
X7815325Y6329934D01*
X7815325Y6425437D02*
G01*
X7856220Y6425437D01*
X7869681Y6420865D01*
X7874254Y6416294D01*
X7878825Y6407404D01*
X7878825Y6393687D01*
X7874254Y6384544D01*
X7869681Y6379971D01*
X7856220Y6375400D01*
X7815325Y6375400D01*
X7908797Y6425437D02*
G01*
X7908797Y6329934D01*
X7938770Y6298184D02*
G01*
X8020811Y6298184D01*
X8050784Y6425437D02*
G01*
X8050784Y6329934D01*
X8050784Y6425437D02*
G01*
X8087106Y6329934D01*
X8123427Y6425437D02*
G01*
X8087106Y6329934D01*
X8123427Y6425437D02*
G01*
X8123427Y6329934D01*
X8180577Y6425437D02*
G01*
X8171688Y6420865D01*
X8162543Y6411976D01*
X8157972Y6402831D01*
X8153400Y6389115D01*
X8153400Y6366510D01*
X8157972Y6352794D01*
X8162543Y6343650D01*
X8171688Y6334505D01*
X8180577Y6329934D01*
X8198865Y6329934D01*
X8208009Y6334505D01*
X8217154Y6343650D01*
X8221725Y6352794D01*
X8226043Y6366510D01*
X8226043Y6389115D01*
X8221725Y6402831D01*
X8217154Y6411976D01*
X8208009Y6420865D01*
X8198865Y6425437D01*
X8180577Y6425437D01*
X8319770Y6411976D02*
G01*
X8310625Y6420865D01*
X8297163Y6425437D01*
X8278875Y6425437D01*
X8265159Y6420865D01*
X8256270Y6411976D01*
X8256270Y6402831D01*
X8260588Y6393687D01*
X8265159Y6389115D01*
X8274304Y6384544D01*
X8301481Y6375400D01*
X8310625Y6371081D01*
X8315197Y6366510D01*
X8319770Y6357365D01*
X8319770Y6343650D01*
X8310625Y6334505D01*
X8297163Y6329934D01*
X8278875Y6329934D01*
X8265159Y6334505D01*
X8256270Y6343650D01*
X8349741Y6425437D02*
G01*
X8349741Y6329934D01*
X7785354Y6157976D02*
G01*
X7776209Y6166865D01*
X7762493Y6171437D01*
X7744206Y6171437D01*
X7730743Y6166865D01*
X7721600Y6157976D01*
X7721600Y6148831D01*
X7726172Y6139687D01*
X7730743Y6135115D01*
X7739888Y6130544D01*
X7767065Y6121400D01*
X7776209Y6117081D01*
X7780781Y6112510D01*
X7785354Y6103365D01*
X7785354Y6089650D01*
X7776209Y6080505D01*
X7762493Y6075934D01*
X7744206Y6075934D01*
X7730743Y6080505D01*
X7721600Y6089650D01*
X7815325Y6171437D02*
G01*
X7815325Y6075934D01*
X7815325Y6171437D02*
G01*
X7856220Y6171437D01*
X7869681Y6166865D01*
X7874254Y6162294D01*
X7878825Y6153404D01*
X7878825Y6139687D01*
X7874254Y6130544D01*
X7869681Y6125971D01*
X7856220Y6121400D01*
X7815325Y6121400D01*
X7908797Y6171437D02*
G01*
X7908797Y6075934D01*
X7938770Y6044184D02*
G01*
X8020811Y6044184D01*
X8050784Y6171437D02*
G01*
X8050784Y6075934D01*
X8050784Y6171437D02*
G01*
X8087106Y6075934D01*
X8123427Y6171437D02*
G01*
X8087106Y6075934D01*
X8123427Y6171437D02*
G01*
X8123427Y6075934D01*
X8153400Y6171437D02*
G01*
X8153400Y6075934D01*
X8247125Y6157976D02*
G01*
X8237981Y6166865D01*
X8224265Y6171437D01*
X8206231Y6171437D01*
X8192515Y6166865D01*
X8183372Y6157976D01*
X8183372Y6148831D01*
X8187943Y6139687D01*
X8192515Y6135115D01*
X8201659Y6130544D01*
X8228838Y6121400D01*
X8237981Y6117081D01*
X8242554Y6112510D01*
X8247125Y6103365D01*
X8247125Y6089650D01*
X8237981Y6080505D01*
X8224265Y6075934D01*
X8206231Y6075934D01*
X8192515Y6080505D01*
X8183372Y6089650D01*
X8304275Y6171437D02*
G01*
X8295131Y6166865D01*
X8286241Y6157976D01*
X8281670Y6148831D01*
X8277097Y6135115D01*
X8277097Y6112510D01*
X8281670Y6098794D01*
X8286241Y6089650D01*
X8295131Y6080505D01*
X8304275Y6075934D01*
X8322563Y6075934D01*
X8331708Y6080505D01*
X8340597Y6089650D01*
X8345170Y6098794D01*
X8349741Y6112510D01*
X8349741Y6135115D01*
X8345170Y6148831D01*
X8340597Y6157976D01*
X8331708Y6166865D01*
X8322563Y6171437D01*
X8304275Y6171437D01*
X7721600Y5917437D02*
G01*
X7721600Y5821934D01*
X7721600Y5821934D02*
G01*
X7776209Y5821934D01*
X7874254Y5894831D02*
G01*
X7869681Y5903976D01*
X7860791Y5912865D01*
X7851647Y5917437D01*
X7833359Y5917437D01*
X7824215Y5912865D01*
X7815325Y5903976D01*
X7810754Y5894831D01*
X7806181Y5881115D01*
X7806181Y5858510D01*
X7810754Y5844794D01*
X7815325Y5835650D01*
X7824215Y5826505D01*
X7833359Y5821934D01*
X7851647Y5821934D01*
X7860791Y5826505D01*
X7869681Y5835650D01*
X7874254Y5844794D01*
X7904225Y5917437D02*
G01*
X7904225Y5821934D01*
X7904225Y5917437D02*
G01*
X7936229Y5917437D01*
X7949691Y5912865D01*
X7958836Y5903976D01*
X7963408Y5894831D01*
X7967979Y5881115D01*
X7967979Y5858510D01*
X7963408Y5844794D01*
X7958836Y5835650D01*
X7949691Y5826505D01*
X7936229Y5821934D01*
X7904225Y5821934D01*
X7997952Y5790184D02*
G01*
X8079740Y5790184D01*
X8109711Y5917437D02*
G01*
X8109711Y5821934D01*
X8109711Y5917437D02*
G01*
X8150606Y5917437D01*
X8164322Y5912865D01*
X8168893Y5908294D01*
X8173465Y5899404D01*
X8173465Y5890260D01*
X8168893Y5881115D01*
X8164322Y5876544D01*
X8150606Y5871971D01*
X8109711Y5871971D02*
G01*
X8150606Y5871971D01*
X8164322Y5867400D01*
X8168893Y5863081D01*
X8173465Y5853937D01*
X8173465Y5840221D01*
X8168893Y5831078D01*
X8164322Y5826505D01*
X8150606Y5821934D01*
X8109711Y5821934D01*
X8203438Y5917437D02*
G01*
X8203438Y5821934D01*
X8203438Y5821934D02*
G01*
X8258047Y5821934D01*
X7721600Y5206237D02*
G01*
X7721600Y5110734D01*
X7721600Y5110734D02*
G01*
X7776209Y5110734D01*
X7874254Y5183631D02*
G01*
X7869681Y5192776D01*
X7860791Y5201665D01*
X7851647Y5206237D01*
X7833359Y5206237D01*
X7824215Y5201665D01*
X7815325Y5192776D01*
X7810754Y5183631D01*
X7806181Y5169915D01*
X7806181Y5147310D01*
X7810754Y5133594D01*
X7815325Y5124450D01*
X7824215Y5115305D01*
X7833359Y5110734D01*
X7851647Y5110734D01*
X7860791Y5115305D01*
X7869681Y5124450D01*
X7874254Y5133594D01*
X7904225Y5206237D02*
G01*
X7904225Y5110734D01*
X7904225Y5206237D02*
G01*
X7936229Y5206237D01*
X7949691Y5201665D01*
X7958836Y5192776D01*
X7963408Y5183631D01*
X7967979Y5169915D01*
X7967979Y5147310D01*
X7963408Y5133594D01*
X7958836Y5124450D01*
X7949691Y5115305D01*
X7936229Y5110734D01*
X7904225Y5110734D01*
X7997952Y5078984D02*
G01*
X8079740Y5078984D01*
X8109711Y5206237D02*
G01*
X8109711Y5110734D01*
X8109711Y5206237D02*
G01*
X8150606Y5206237D01*
X8164322Y5201665D01*
X8168893Y5197094D01*
X8173465Y5188204D01*
X8173465Y5179060D01*
X8168893Y5169915D01*
X8164322Y5165344D01*
X8150606Y5160771D01*
X8109711Y5160771D01*
X8141715Y5160771D02*
G01*
X8173465Y5110734D01*
X8266938Y5192776D02*
G01*
X8258047Y5201665D01*
X8244331Y5206237D01*
X8226043Y5206237D01*
X8212581Y5201665D01*
X8203438Y5192776D01*
X8203438Y5183631D01*
X8208009Y5174487D01*
X8212581Y5169915D01*
X8221725Y5165344D01*
X8248904Y5156200D01*
X8258047Y5151881D01*
X8262620Y5147310D01*
X8266938Y5138165D01*
X8266938Y5124450D01*
X8258047Y5115305D01*
X8244331Y5110734D01*
X8226043Y5110734D01*
X8212581Y5115305D01*
X8203438Y5124450D01*
X8328913Y5206237D02*
G01*
X8328913Y5110734D01*
X8297163Y5206237D02*
G01*
X8360663Y5206237D01*
X5975350Y5980937D02*
G01*
X5975350Y5885434D01*
X5943600Y5980937D02*
G01*
X6007354Y5980937D01*
X6037325Y5980937D02*
G01*
X6037325Y5885434D01*
X6037325Y5980937D02*
G01*
X6078220Y5980937D01*
X6091681Y5976365D01*
X6096254Y5971794D01*
X6100825Y5962904D01*
X6100825Y5949187D01*
X6096254Y5940044D01*
X6091681Y5935471D01*
X6078220Y5930900D01*
X6037325Y5930900D01*
X6130797Y5853684D02*
G01*
X6212586Y5853684D01*
X6310884Y5958331D02*
G01*
X6306311Y5967476D01*
X6297168Y5976365D01*
X6288024Y5980937D01*
X6269990Y5980937D01*
X6260845Y5976365D01*
X6251702Y5967476D01*
X6247129Y5958331D01*
X6242811Y5944615D01*
X6242811Y5922010D01*
X6247129Y5908294D01*
X6251702Y5899150D01*
X6260845Y5890005D01*
X6269990Y5885434D01*
X6288024Y5885434D01*
X6297168Y5890005D01*
X6306311Y5899150D01*
X6310884Y5908294D01*
X6404609Y5967476D02*
G01*
X6395465Y5976365D01*
X6381750Y5980937D01*
X6363715Y5980937D01*
X6350000Y5976365D01*
X6340856Y5967476D01*
X6340856Y5958331D01*
X6345427Y5949187D01*
X6350000Y5944615D01*
X6359143Y5940044D01*
X6386322Y5930900D01*
X6395465Y5926581D01*
X6400038Y5922010D01*
X6404609Y5912865D01*
X6404609Y5899150D01*
X6395465Y5890005D01*
X6381750Y5885434D01*
X6363715Y5885434D01*
X6350000Y5890005D01*
X6340856Y5899150D01*
X5975350Y6234937D02*
G01*
X5975350Y6139434D01*
X5943600Y6234937D02*
G01*
X6007354Y6234937D01*
X6037325Y6234937D02*
G01*
X6037325Y6139434D01*
X6037325Y6234937D02*
G01*
X6078220Y6234937D01*
X6091681Y6230365D01*
X6096254Y6225794D01*
X6100825Y6216904D01*
X6100825Y6203187D01*
X6096254Y6194044D01*
X6091681Y6189471D01*
X6078220Y6184900D01*
X6037325Y6184900D01*
X6130797Y6107684D02*
G01*
X6212586Y6107684D01*
X6242811Y6234937D02*
G01*
X6242811Y6139434D01*
X6272784Y6234937D02*
G01*
X6272784Y6139434D01*
X6272784Y6234937D02*
G01*
X6313677Y6234937D01*
X6327140Y6230365D01*
X6331711Y6225794D01*
X6336284Y6216904D01*
X6336284Y6207760D01*
X6331711Y6198615D01*
X6327140Y6194044D01*
X6313677Y6189471D01*
X6272784Y6189471D01*
X6304534Y6189471D02*
G01*
X6336284Y6139434D01*
X6393688Y6234937D02*
G01*
X6384543Y6230365D01*
X6375400Y6221476D01*
X6370827Y6212331D01*
X6366256Y6198615D01*
X6366256Y6176010D01*
X6370827Y6162294D01*
X6375400Y6153150D01*
X6384543Y6144005D01*
X6393688Y6139434D01*
X6411722Y6139434D01*
X6420865Y6144005D01*
X6430009Y6153150D01*
X6434581Y6162294D01*
X6439154Y6176010D01*
X6439154Y6198615D01*
X6434581Y6212331D01*
X6430009Y6221476D01*
X6420865Y6230365D01*
X6411722Y6234937D01*
X6393688Y6234937D01*
X6407150Y6157721D02*
G01*
X6434581Y6130544D01*
X6007354Y6729476D02*
G01*
X5998209Y6738365D01*
X5984493Y6742937D01*
X5966206Y6742937D01*
X5952743Y6738365D01*
X5943600Y6729476D01*
X5943600Y6720331D01*
X5948172Y6711187D01*
X5952743Y6706615D01*
X5961888Y6702044D01*
X5989065Y6692900D01*
X5998209Y6688581D01*
X6002781Y6684010D01*
X6007354Y6674865D01*
X6007354Y6661150D01*
X5998209Y6652005D01*
X5984493Y6647434D01*
X5966206Y6647434D01*
X5952743Y6652005D01*
X5943600Y6661150D01*
X6037325Y6742937D02*
G01*
X6037325Y6647434D01*
X6037325Y6742937D02*
G01*
X6069075Y6742937D01*
X6082791Y6738365D01*
X6091681Y6729476D01*
X6096254Y6720331D01*
X6100825Y6706615D01*
X6100825Y6684010D01*
X6096254Y6670294D01*
X6091681Y6661150D01*
X6082791Y6652005D01*
X6069075Y6647434D01*
X6037325Y6647434D01*
X6130797Y6742937D02*
G01*
X6130797Y6647434D01*
X6188202Y6742937D02*
G01*
X6179058Y6738365D01*
X6169913Y6729476D01*
X6165341Y6720331D01*
X6160770Y6706615D01*
X6160770Y6684010D01*
X6165341Y6670294D01*
X6169913Y6661150D01*
X6179058Y6652005D01*
X6188202Y6647434D01*
X6206236Y6647434D01*
X6215379Y6652005D01*
X6224524Y6661150D01*
X6229095Y6670294D01*
X6233668Y6684010D01*
X6233668Y6706615D01*
X6229095Y6720331D01*
X6224524Y6729476D01*
X6215379Y6738365D01*
X6206236Y6742937D01*
X6188202Y6742937D01*
X6263640Y6615684D02*
G01*
X6345427Y6615684D01*
X6443725Y6720331D02*
G01*
X6439154Y6729476D01*
X6430009Y6738365D01*
X6420865Y6742937D01*
X6402577Y6742937D01*
X6393688Y6738365D01*
X6384543Y6729476D01*
X6379972Y6720331D01*
X6375400Y6706615D01*
X6375400Y6684010D01*
X6379972Y6670294D01*
X6384543Y6661150D01*
X6393688Y6652005D01*
X6402577Y6647434D01*
X6420865Y6647434D01*
X6430009Y6652005D01*
X6439154Y6661150D01*
X6443725Y6670294D01*
X6473697Y6742937D02*
G01*
X6473697Y6647434D01*
X6473697Y6742937D02*
G01*
X6510020Y6647434D01*
X6546341Y6742937D02*
G01*
X6510020Y6647434D01*
X6546341Y6742937D02*
G01*
X6546341Y6647434D01*
X6576313Y6742937D02*
G01*
X6576313Y6647434D01*
X6576313Y6742937D02*
G01*
X6608063Y6742937D01*
X6621779Y6738365D01*
X6630924Y6729476D01*
X6635495Y6720331D01*
X6640068Y6706615D01*
X6640068Y6684010D01*
X6635495Y6670294D01*
X6630924Y6661150D01*
X6621779Y6652005D01*
X6608063Y6647434D01*
X6576313Y6647434D01*
X6007354Y6983476D02*
G01*
X5998209Y6992365D01*
X5984493Y6996937D01*
X5966206Y6996937D01*
X5952743Y6992365D01*
X5943600Y6983476D01*
X5943600Y6974331D01*
X5948172Y6965187D01*
X5952743Y6960615D01*
X5961888Y6956044D01*
X5989065Y6946900D01*
X5998209Y6942581D01*
X6002781Y6938010D01*
X6007354Y6928865D01*
X6007354Y6915150D01*
X5998209Y6906005D01*
X5984493Y6901434D01*
X5966206Y6901434D01*
X5952743Y6906005D01*
X5943600Y6915150D01*
X6037325Y6996937D02*
G01*
X6037325Y6901434D01*
X6037325Y6996937D02*
G01*
X6069075Y6996937D01*
X6082791Y6992365D01*
X6091681Y6983476D01*
X6096254Y6974331D01*
X6100825Y6960615D01*
X6100825Y6938010D01*
X6096254Y6924294D01*
X6091681Y6915150D01*
X6082791Y6906005D01*
X6069075Y6901434D01*
X6037325Y6901434D01*
X6130797Y6996937D02*
G01*
X6130797Y6901434D01*
X6188202Y6996937D02*
G01*
X6179058Y6992365D01*
X6169913Y6983476D01*
X6165341Y6974331D01*
X6160770Y6960615D01*
X6160770Y6938010D01*
X6165341Y6924294D01*
X6169913Y6915150D01*
X6179058Y6906005D01*
X6188202Y6901434D01*
X6206236Y6901434D01*
X6215379Y6906005D01*
X6224524Y6915150D01*
X6229095Y6924294D01*
X6233668Y6938010D01*
X6233668Y6960615D01*
X6229095Y6974331D01*
X6224524Y6983476D01*
X6215379Y6992365D01*
X6206236Y6996937D01*
X6188202Y6996937D01*
X6263640Y6869684D02*
G01*
X6345427Y6869684D01*
X6375400Y6996937D02*
G01*
X6375400Y6901434D01*
X6375400Y6996937D02*
G01*
X6407150Y6996937D01*
X6420865Y6992365D01*
X6430009Y6983476D01*
X6434581Y6974331D01*
X6439154Y6960615D01*
X6439154Y6938010D01*
X6434581Y6924294D01*
X6430009Y6915150D01*
X6420865Y6906005D01*
X6407150Y6901434D01*
X6375400Y6901434D01*
X6496304Y6996937D02*
G01*
X6482588Y6992365D01*
X6473697Y6978904D01*
X6469125Y6956044D01*
X6469125Y6942581D01*
X6473697Y6919721D01*
X6482588Y6906005D01*
X6496304Y6901434D01*
X6505447Y6901434D01*
X6519163Y6906005D01*
X6528054Y6919721D01*
X6532625Y6942581D01*
X6532625Y6956044D01*
X6528054Y6978904D01*
X6519163Y6992365D01*
X6505447Y6996937D01*
X6496304Y6996937D01*
X6007354Y7237476D02*
G01*
X5998209Y7246365D01*
X5984493Y7250937D01*
X5966206Y7250937D01*
X5952743Y7246365D01*
X5943600Y7237476D01*
X5943600Y7228331D01*
X5948172Y7219187D01*
X5952743Y7214615D01*
X5961888Y7210044D01*
X5989065Y7200900D01*
X5998209Y7196581D01*
X6002781Y7192010D01*
X6007354Y7182865D01*
X6007354Y7169150D01*
X5998209Y7160005D01*
X5984493Y7155434D01*
X5966206Y7155434D01*
X5952743Y7160005D01*
X5943600Y7169150D01*
X6037325Y7250937D02*
G01*
X6037325Y7155434D01*
X6037325Y7250937D02*
G01*
X6069075Y7250937D01*
X6082791Y7246365D01*
X6091681Y7237476D01*
X6096254Y7228331D01*
X6100825Y7214615D01*
X6100825Y7192010D01*
X6096254Y7178294D01*
X6091681Y7169150D01*
X6082791Y7160005D01*
X6069075Y7155434D01*
X6037325Y7155434D01*
X6130797Y7250937D02*
G01*
X6130797Y7155434D01*
X6188202Y7250937D02*
G01*
X6179058Y7246365D01*
X6169913Y7237476D01*
X6165341Y7228331D01*
X6160770Y7214615D01*
X6160770Y7192010D01*
X6165341Y7178294D01*
X6169913Y7169150D01*
X6179058Y7160005D01*
X6188202Y7155434D01*
X6206236Y7155434D01*
X6215379Y7160005D01*
X6224524Y7169150D01*
X6229095Y7178294D01*
X6233668Y7192010D01*
X6233668Y7214615D01*
X6229095Y7228331D01*
X6224524Y7237476D01*
X6215379Y7246365D01*
X6206236Y7250937D01*
X6188202Y7250937D01*
X6263640Y7123684D02*
G01*
X6345427Y7123684D01*
X6375400Y7250937D02*
G01*
X6375400Y7155434D01*
X6375400Y7250937D02*
G01*
X6407150Y7250937D01*
X6420865Y7246365D01*
X6430009Y7237476D01*
X6434581Y7228331D01*
X6439154Y7214615D01*
X6439154Y7192010D01*
X6434581Y7178294D01*
X6430009Y7169150D01*
X6420865Y7160005D01*
X6407150Y7155434D01*
X6375400Y7155434D01*
X6469125Y7232904D02*
G01*
X6478270Y7237476D01*
X6491731Y7250937D01*
X6491731Y7155434D01*
X6007354Y7491476D02*
G01*
X5998209Y7500365D01*
X5984493Y7504937D01*
X5966206Y7504937D01*
X5952743Y7500365D01*
X5943600Y7491476D01*
X5943600Y7482331D01*
X5948172Y7473187D01*
X5952743Y7468615D01*
X5961888Y7464044D01*
X5989065Y7454900D01*
X5998209Y7450581D01*
X6002781Y7446010D01*
X6007354Y7436865D01*
X6007354Y7423150D01*
X5998209Y7414005D01*
X5984493Y7409434D01*
X5966206Y7409434D01*
X5952743Y7414005D01*
X5943600Y7423150D01*
X6037325Y7504937D02*
G01*
X6037325Y7409434D01*
X6037325Y7504937D02*
G01*
X6069075Y7504937D01*
X6082791Y7500365D01*
X6091681Y7491476D01*
X6096254Y7482331D01*
X6100825Y7468615D01*
X6100825Y7446010D01*
X6096254Y7432294D01*
X6091681Y7423150D01*
X6082791Y7414005D01*
X6069075Y7409434D01*
X6037325Y7409434D01*
X6130797Y7504937D02*
G01*
X6130797Y7409434D01*
X6188202Y7504937D02*
G01*
X6179058Y7500365D01*
X6169913Y7491476D01*
X6165341Y7482331D01*
X6160770Y7468615D01*
X6160770Y7446010D01*
X6165341Y7432294D01*
X6169913Y7423150D01*
X6179058Y7414005D01*
X6188202Y7409434D01*
X6206236Y7409434D01*
X6215379Y7414005D01*
X6224524Y7423150D01*
X6229095Y7432294D01*
X6233668Y7446010D01*
X6233668Y7468615D01*
X6229095Y7482331D01*
X6224524Y7491476D01*
X6215379Y7500365D01*
X6206236Y7504937D01*
X6188202Y7504937D01*
X6263640Y7377684D02*
G01*
X6345427Y7377684D01*
X6375400Y7504937D02*
G01*
X6375400Y7409434D01*
X6375400Y7504937D02*
G01*
X6407150Y7504937D01*
X6420865Y7500365D01*
X6430009Y7491476D01*
X6434581Y7482331D01*
X6439154Y7468615D01*
X6439154Y7446010D01*
X6434581Y7432294D01*
X6430009Y7423150D01*
X6420865Y7414005D01*
X6407150Y7409434D01*
X6375400Y7409434D01*
X6473697Y7482331D02*
G01*
X6473697Y7486904D01*
X6478270Y7495794D01*
X6482588Y7500365D01*
X6491731Y7504937D01*
X6510020Y7504937D01*
X6519163Y7500365D01*
X6523481Y7495794D01*
X6528054Y7486904D01*
X6528054Y7477760D01*
X6523481Y7468615D01*
X6514591Y7454900D01*
X6469125Y7409434D01*
X6532625Y7409434D01*
X6007354Y7986776D02*
G01*
X5998209Y7995665D01*
X5984493Y8000237D01*
X5966206Y8000237D01*
X5952743Y7995665D01*
X5943600Y7986776D01*
X5943600Y7977631D01*
X5948172Y7968487D01*
X5952743Y7963915D01*
X5961888Y7959344D01*
X5989065Y7950200D01*
X5998209Y7945881D01*
X6002781Y7941310D01*
X6007354Y7932165D01*
X6007354Y7918450D01*
X5998209Y7909305D01*
X5984493Y7904734D01*
X5966206Y7904734D01*
X5952743Y7909305D01*
X5943600Y7918450D01*
X6037325Y8000237D02*
G01*
X6037325Y7904734D01*
X6037325Y8000237D02*
G01*
X6069075Y8000237D01*
X6082791Y7995665D01*
X6091681Y7986776D01*
X6096254Y7977631D01*
X6100825Y7963915D01*
X6100825Y7941310D01*
X6096254Y7927594D01*
X6091681Y7918450D01*
X6082791Y7909305D01*
X6069075Y7904734D01*
X6037325Y7904734D01*
X6130797Y7872984D02*
G01*
X6212586Y7872984D01*
X6310884Y7977631D02*
G01*
X6306311Y7986776D01*
X6297168Y7995665D01*
X6288024Y8000237D01*
X6269990Y8000237D01*
X6260845Y7995665D01*
X6251702Y7986776D01*
X6247129Y7977631D01*
X6242811Y7963915D01*
X6242811Y7941310D01*
X6247129Y7927594D01*
X6251702Y7918450D01*
X6260845Y7909305D01*
X6269990Y7904734D01*
X6288024Y7904734D01*
X6297168Y7909305D01*
X6306311Y7918450D01*
X6310884Y7927594D01*
X6404609Y7986776D02*
G01*
X6395465Y7995665D01*
X6381750Y8000237D01*
X6363715Y8000237D01*
X6350000Y7995665D01*
X6340856Y7986776D01*
X6340856Y7977631D01*
X6345427Y7968487D01*
X6350000Y7963915D01*
X6359143Y7959344D01*
X6386322Y7950200D01*
X6395465Y7945881D01*
X6400038Y7941310D01*
X6404609Y7932165D01*
X6404609Y7918450D01*
X6395465Y7909305D01*
X6381750Y7904734D01*
X6363715Y7904734D01*
X6350000Y7909305D01*
X6340856Y7918450D01*
X6516370Y8018526D02*
G01*
X6434581Y7872984D01*
X6546341Y8000237D02*
G01*
X6546341Y7904734D01*
X6546341Y8000237D02*
G01*
X6578091Y8000237D01*
X6591808Y7995665D01*
X6600952Y7986776D01*
X6605524Y7977631D01*
X6609841Y7963915D01*
X6609841Y7941310D01*
X6605524Y7927594D01*
X6600952Y7918450D01*
X6591808Y7909305D01*
X6578091Y7904734D01*
X6546341Y7904734D01*
X6648958Y8000237D02*
G01*
X6698995Y8000237D01*
X6671818Y7963915D01*
X6685534Y7963915D01*
X6694424Y7959344D01*
X6698995Y7954771D01*
X6703568Y7941310D01*
X6703568Y7932165D01*
X6698995Y7918450D01*
X6689852Y7909305D01*
X6676390Y7904734D01*
X6662674Y7904734D01*
X6648958Y7909305D01*
X6644386Y7913878D01*
X6640068Y7923021D01*
X7302500Y8438387D02*
G01*
X7352538Y8374634D01*
X7352538Y8438387D02*
G01*
X7302500Y8374634D01*
X7180072Y7164831D02*
G01*
X7175754Y7173976D01*
X7166609Y7182865D01*
X7157465Y7187437D01*
X7139177Y7187437D01*
X7130288Y7182865D01*
X7121143Y7173976D01*
X7116572Y7164831D01*
X7112000Y7151115D01*
X7112000Y7128510D01*
X7116572Y7114794D01*
X7121143Y7105650D01*
X7130288Y7096505D01*
X7139177Y7091934D01*
X7157465Y7091934D01*
X7166609Y7096505D01*
X7175754Y7105650D01*
X7180072Y7114794D01*
X7180072Y7128510D01*
X7157465Y7128510D02*
G01*
X7180072Y7128510D01*
X7210297Y7187437D02*
G01*
X7210297Y7091934D01*
X7210297Y7187437D02*
G01*
X7251191Y7187437D01*
X7264654Y7182865D01*
X7269225Y7178294D01*
X7273797Y7169404D01*
X7273797Y7155687D01*
X7269225Y7146544D01*
X7264654Y7141971D01*
X7251191Y7137400D01*
X7210297Y7137400D01*
X7362952Y7155687D02*
G01*
X7358379Y7141971D01*
X7349236Y7133081D01*
X7335520Y7128510D01*
X7331202Y7128510D01*
X7317486Y7133081D01*
X7308341Y7141971D01*
X7303770Y7155687D01*
X7303770Y7160260D01*
X7308341Y7173976D01*
X7317486Y7182865D01*
X7331202Y7187437D01*
X7335520Y7187437D01*
X7349236Y7182865D01*
X7358379Y7173976D01*
X7362952Y7155687D01*
X7362952Y7133081D01*
X7358379Y7110221D01*
X7349236Y7096505D01*
X7335520Y7091934D01*
X7326629Y7091934D01*
X7312913Y7096505D01*
X7308341Y7105650D01*
X7129272Y6656831D02*
G01*
X7124954Y6665976D01*
X7115809Y6674865D01*
X7106665Y6679437D01*
X7088377Y6679437D01*
X7079488Y6674865D01*
X7070343Y6665976D01*
X7065772Y6656831D01*
X7061200Y6643115D01*
X7061200Y6620510D01*
X7065772Y6606794D01*
X7070343Y6597650D01*
X7079488Y6588505D01*
X7088377Y6583934D01*
X7106665Y6583934D01*
X7115809Y6588505D01*
X7124954Y6597650D01*
X7129272Y6606794D01*
X7129272Y6620510D01*
X7106665Y6620510D02*
G01*
X7129272Y6620510D01*
X7159497Y6679437D02*
G01*
X7159497Y6583934D01*
X7159497Y6679437D02*
G01*
X7200391Y6679437D01*
X7213854Y6674865D01*
X7218425Y6670294D01*
X7222997Y6661404D01*
X7222997Y6647687D01*
X7218425Y6638544D01*
X7213854Y6633971D01*
X7200391Y6629400D01*
X7159497Y6629400D01*
X7252970Y6661404D02*
G01*
X7262113Y6665976D01*
X7275829Y6679437D01*
X7275829Y6583934D01*
X7332979Y6679437D02*
G01*
X7319263Y6674865D01*
X7310374Y6661404D01*
X7305802Y6638544D01*
X7305802Y6625081D01*
X7310374Y6602221D01*
X7319263Y6588505D01*
X7332979Y6583934D01*
X7342124Y6583934D01*
X7355840Y6588505D01*
X7364729Y6602221D01*
X7369302Y6625081D01*
X7369302Y6638544D01*
X7364729Y6661404D01*
X7355840Y6674865D01*
X7342124Y6679437D01*
X7332979Y6679437D01*
X7154672Y6402831D02*
G01*
X7150354Y6411976D01*
X7141209Y6420865D01*
X7132065Y6425437D01*
X7113777Y6425437D01*
X7104888Y6420865D01*
X7095743Y6411976D01*
X7091172Y6402831D01*
X7086600Y6389115D01*
X7086600Y6366510D01*
X7091172Y6352794D01*
X7095743Y6343650D01*
X7104888Y6334505D01*
X7113777Y6329934D01*
X7132065Y6329934D01*
X7141209Y6334505D01*
X7150354Y6343650D01*
X7154672Y6352794D01*
X7154672Y6366510D01*
X7132065Y6366510D02*
G01*
X7154672Y6366510D01*
X7184897Y6425437D02*
G01*
X7184897Y6329934D01*
X7184897Y6425437D02*
G01*
X7225791Y6425437D01*
X7239254Y6420865D01*
X7243825Y6416294D01*
X7248397Y6407404D01*
X7248397Y6393687D01*
X7243825Y6384544D01*
X7239254Y6379971D01*
X7225791Y6375400D01*
X7184897Y6375400D01*
X7278370Y6407404D02*
G01*
X7287513Y6411976D01*
X7301229Y6425437D01*
X7301229Y6329934D01*
X7331202Y6407404D02*
G01*
X7340345Y6411976D01*
X7353808Y6425437D01*
X7353808Y6329934D01*
X7180072Y7418831D02*
G01*
X7175754Y7427976D01*
X7166609Y7436865D01*
X7157465Y7441437D01*
X7139177Y7441437D01*
X7130288Y7436865D01*
X7121143Y7427976D01*
X7116572Y7418831D01*
X7112000Y7405115D01*
X7112000Y7382510D01*
X7116572Y7368794D01*
X7121143Y7359650D01*
X7130288Y7350505D01*
X7139177Y7345934D01*
X7157465Y7345934D01*
X7166609Y7350505D01*
X7175754Y7359650D01*
X7180072Y7368794D01*
X7180072Y7382510D01*
X7157465Y7382510D02*
G01*
X7180072Y7382510D01*
X7210297Y7441437D02*
G01*
X7210297Y7345934D01*
X7210297Y7441437D02*
G01*
X7251191Y7441437D01*
X7264654Y7436865D01*
X7269225Y7432294D01*
X7273797Y7423404D01*
X7273797Y7409687D01*
X7269225Y7400544D01*
X7264654Y7395971D01*
X7251191Y7391400D01*
X7210297Y7391400D01*
X7326629Y7441437D02*
G01*
X7312913Y7436865D01*
X7308341Y7427976D01*
X7308341Y7418831D01*
X7312913Y7409687D01*
X7322058Y7405115D01*
X7340091Y7400544D01*
X7353808Y7395971D01*
X7362952Y7387081D01*
X7367524Y7377937D01*
X7367524Y7364221D01*
X7362952Y7355078D01*
X7358379Y7350505D01*
X7344663Y7345934D01*
X7326629Y7345934D01*
X7312913Y7350505D01*
X7308341Y7355078D01*
X7303770Y7364221D01*
X7303770Y7377937D01*
X7308341Y7387081D01*
X7317486Y7395971D01*
X7331202Y7400544D01*
X7349236Y7405115D01*
X7358379Y7409687D01*
X7362952Y7418831D01*
X7362952Y7427976D01*
X7358379Y7436865D01*
X7344663Y7441437D01*
X7326629Y7441437D01*
X7302500Y6152387D02*
G01*
X7352538Y6088634D01*
X7352538Y6152387D02*
G01*
X7302500Y6088634D01*
X7302500Y5911087D02*
G01*
X7352538Y5847334D01*
X7352538Y5911087D02*
G01*
X7302500Y5847334D01*
X7129272Y5132831D02*
G01*
X7124954Y5141976D01*
X7115809Y5150865D01*
X7106665Y5155437D01*
X7088377Y5155437D01*
X7079488Y5150865D01*
X7070343Y5141976D01*
X7065772Y5132831D01*
X7061200Y5119115D01*
X7061200Y5096510D01*
X7065772Y5082794D01*
X7070343Y5073650D01*
X7079488Y5064505D01*
X7088377Y5059934D01*
X7106665Y5059934D01*
X7115809Y5064505D01*
X7124954Y5073650D01*
X7129272Y5082794D01*
X7129272Y5096510D01*
X7106665Y5096510D02*
G01*
X7129272Y5096510D01*
X7159497Y5155437D02*
G01*
X7159497Y5059934D01*
X7159497Y5155437D02*
G01*
X7200391Y5155437D01*
X7213854Y5150865D01*
X7218425Y5146294D01*
X7222997Y5137404D01*
X7222997Y5123687D01*
X7218425Y5114544D01*
X7213854Y5109971D01*
X7200391Y5105400D01*
X7159497Y5105400D01*
X7252970Y5137404D02*
G01*
X7262113Y5141976D01*
X7275829Y5155437D01*
X7275829Y5059934D01*
X7310374Y5132831D02*
G01*
X7310374Y5137404D01*
X7314945Y5146294D01*
X7319263Y5150865D01*
X7328408Y5155437D01*
X7346695Y5155437D01*
X7355840Y5150865D01*
X7360411Y5146294D01*
X7364729Y5137404D01*
X7364729Y5128260D01*
X7360411Y5119115D01*
X7351268Y5105400D01*
X7305802Y5059934D01*
X7369302Y5059934D01*
X5511800Y5136387D02*
G01*
X5561838Y5072634D01*
X5561838Y5136387D02*
G01*
X5511800Y5072634D01*
X5511800Y5390387D02*
G01*
X5561838Y5326634D01*
X5561838Y5390387D02*
G01*
X5511800Y5326634D01*
X5511800Y5898387D02*
G01*
X5561838Y5834634D01*
X5561838Y5898387D02*
G01*
X5511800Y5834634D01*
X5511800Y6152387D02*
G01*
X5561838Y6088634D01*
X5561838Y6152387D02*
G01*
X5511800Y6088634D01*
X5511800Y6406387D02*
G01*
X5561838Y6342634D01*
X5561838Y6406387D02*
G01*
X5511800Y6342634D01*
X5511800Y6660387D02*
G01*
X5561838Y6596634D01*
X5561838Y6660387D02*
G01*
X5511800Y6596634D01*
X5511800Y7168387D02*
G01*
X5561838Y7104634D01*
X5561838Y7168387D02*
G01*
X5511800Y7104634D01*
X5943600Y9740137D02*
G01*
X5979922Y9644634D01*
X6016243Y9740137D02*
G01*
X5979922Y9644634D01*
X6109970Y9726676D02*
G01*
X6100825Y9735565D01*
X6087109Y9740137D01*
X6069075Y9740137D01*
X6055359Y9735565D01*
X6046215Y9726676D01*
X6046215Y9717531D01*
X6050788Y9708387D01*
X6055359Y9703815D01*
X6064504Y9699244D01*
X6091681Y9690100D01*
X6100825Y9685781D01*
X6105397Y9681210D01*
X6109970Y9672065D01*
X6109970Y9658350D01*
X6100825Y9649205D01*
X6087109Y9644634D01*
X6069075Y9644634D01*
X6055359Y9649205D01*
X6046215Y9658350D01*
X6139941Y9740137D02*
G01*
X6176263Y9694671D01*
X6176263Y9644634D01*
X6212586Y9740137D02*
G01*
X6176263Y9694671D01*
X6306311Y9726676D02*
G01*
X6297168Y9735565D01*
X6283706Y9740137D01*
X6265418Y9740137D01*
X6251702Y9735565D01*
X6242811Y9726676D01*
X6242811Y9717531D01*
X6247129Y9708387D01*
X6251702Y9703815D01*
X6260845Y9699244D01*
X6288024Y9690100D01*
X6297168Y9685781D01*
X6301740Y9681210D01*
X6306311Y9672065D01*
X6306311Y9658350D01*
X6297168Y9649205D01*
X6283706Y9644634D01*
X6265418Y9644634D01*
X6251702Y9649205D01*
X6242811Y9658350D01*
X5122672Y6656831D02*
G01*
X5118354Y6665976D01*
X5109209Y6674865D01*
X5100065Y6679437D01*
X5081777Y6679437D01*
X5072888Y6674865D01*
X5063743Y6665976D01*
X5059172Y6656831D01*
X5054600Y6643115D01*
X5054600Y6620510D01*
X5059172Y6606794D01*
X5063743Y6597650D01*
X5072888Y6588505D01*
X5081777Y6583934D01*
X5100065Y6583934D01*
X5109209Y6588505D01*
X5118354Y6597650D01*
X5122672Y6606794D01*
X5122672Y6620510D01*
X5100065Y6620510D02*
G01*
X5122672Y6620510D01*
X5152897Y6679437D02*
G01*
X5152897Y6583934D01*
X5152897Y6679437D02*
G01*
X5193791Y6679437D01*
X5207254Y6674865D01*
X5211825Y6670294D01*
X5216397Y6661404D01*
X5216397Y6647687D01*
X5211825Y6638544D01*
X5207254Y6633971D01*
X5193791Y6629400D01*
X5152897Y6629400D01*
X5246370Y6661404D02*
G01*
X5255513Y6665976D01*
X5269229Y6679437D01*
X5269229Y6583934D01*
X5321808Y6679437D02*
G01*
X5308345Y6674865D01*
X5303774Y6665976D01*
X5303774Y6656831D01*
X5308345Y6647687D01*
X5317236Y6643115D01*
X5335524Y6638544D01*
X5349240Y6633971D01*
X5358129Y6625081D01*
X5362702Y6615937D01*
X5362702Y6602221D01*
X5358129Y6593078D01*
X5353811Y6588505D01*
X5340095Y6583934D01*
X5321808Y6583934D01*
X5308345Y6588505D01*
X5303774Y6593078D01*
X5299202Y6602221D01*
X5299202Y6615937D01*
X5303774Y6625081D01*
X5312663Y6633971D01*
X5326379Y6638544D01*
X5344668Y6643115D01*
X5353811Y6647687D01*
X5358129Y6656831D01*
X5358129Y6665976D01*
X5353811Y6674865D01*
X5340095Y6679437D01*
X5321808Y6679437D01*
X5122672Y6910831D02*
G01*
X5118354Y6919976D01*
X5109209Y6928865D01*
X5100065Y6933437D01*
X5081777Y6933437D01*
X5072888Y6928865D01*
X5063743Y6919976D01*
X5059172Y6910831D01*
X5054600Y6897115D01*
X5054600Y6874510D01*
X5059172Y6860794D01*
X5063743Y6851650D01*
X5072888Y6842505D01*
X5081777Y6837934D01*
X5100065Y6837934D01*
X5109209Y6842505D01*
X5118354Y6851650D01*
X5122672Y6860794D01*
X5122672Y6874510D01*
X5100065Y6874510D02*
G01*
X5122672Y6874510D01*
X5152897Y6933437D02*
G01*
X5152897Y6837934D01*
X5152897Y6933437D02*
G01*
X5193791Y6933437D01*
X5207254Y6928865D01*
X5211825Y6924294D01*
X5216397Y6915404D01*
X5216397Y6901687D01*
X5211825Y6892544D01*
X5207254Y6887971D01*
X5193791Y6883400D01*
X5152897Y6883400D01*
X5246370Y6915404D02*
G01*
X5255513Y6919976D01*
X5269229Y6933437D01*
X5269229Y6837934D01*
X5358129Y6901687D02*
G01*
X5353811Y6887971D01*
X5344668Y6879081D01*
X5330952Y6874510D01*
X5326379Y6874510D01*
X5312663Y6879081D01*
X5303774Y6887971D01*
X5299202Y6901687D01*
X5299202Y6906260D01*
X5303774Y6919976D01*
X5312663Y6928865D01*
X5326379Y6933437D01*
X5330952Y6933437D01*
X5344668Y6928865D01*
X5353811Y6919976D01*
X5358129Y6901687D01*
X5358129Y6879081D01*
X5353811Y6856221D01*
X5344668Y6842505D01*
X5330952Y6837934D01*
X5321808Y6837934D01*
X5308345Y6842505D01*
X5303774Y6851650D01*
X5122672Y7164831D02*
G01*
X5118354Y7173976D01*
X5109209Y7182865D01*
X5100065Y7187437D01*
X5081777Y7187437D01*
X5072888Y7182865D01*
X5063743Y7173976D01*
X5059172Y7164831D01*
X5054600Y7151115D01*
X5054600Y7128510D01*
X5059172Y7114794D01*
X5063743Y7105650D01*
X5072888Y7096505D01*
X5081777Y7091934D01*
X5100065Y7091934D01*
X5109209Y7096505D01*
X5118354Y7105650D01*
X5122672Y7114794D01*
X5122672Y7128510D01*
X5100065Y7128510D02*
G01*
X5122672Y7128510D01*
X5152897Y7187437D02*
G01*
X5152897Y7091934D01*
X5152897Y7187437D02*
G01*
X5193791Y7187437D01*
X5207254Y7182865D01*
X5211825Y7178294D01*
X5216397Y7169404D01*
X5216397Y7155687D01*
X5211825Y7146544D01*
X5207254Y7141971D01*
X5193791Y7137400D01*
X5152897Y7137400D01*
X5250941Y7164831D02*
G01*
X5250941Y7169404D01*
X5255513Y7178294D01*
X5260086Y7182865D01*
X5269229Y7187437D01*
X5287263Y7187437D01*
X5296408Y7182865D01*
X5300979Y7178294D01*
X5305552Y7169404D01*
X5305552Y7160260D01*
X5300979Y7151115D01*
X5291836Y7137400D01*
X5246370Y7091934D01*
X5310124Y7091934D01*
X5367274Y7187437D02*
G01*
X5353811Y7182865D01*
X5344668Y7169404D01*
X5340095Y7146544D01*
X5340095Y7133081D01*
X5344668Y7110221D01*
X5353811Y7096505D01*
X5367274Y7091934D01*
X5376418Y7091934D01*
X5390134Y7096505D01*
X5399024Y7110221D01*
X5403595Y7133081D01*
X5403595Y7146544D01*
X5399024Y7169404D01*
X5390134Y7182865D01*
X5376418Y7187437D01*
X5367274Y7187437D01*
X5122672Y7418831D02*
G01*
X5118354Y7427976D01*
X5109209Y7436865D01*
X5100065Y7441437D01*
X5081777Y7441437D01*
X5072888Y7436865D01*
X5063743Y7427976D01*
X5059172Y7418831D01*
X5054600Y7405115D01*
X5054600Y7382510D01*
X5059172Y7368794D01*
X5063743Y7359650D01*
X5072888Y7350505D01*
X5081777Y7345934D01*
X5100065Y7345934D01*
X5109209Y7350505D01*
X5118354Y7359650D01*
X5122672Y7368794D01*
X5122672Y7382510D01*
X5100065Y7382510D02*
G01*
X5122672Y7382510D01*
X5152897Y7441437D02*
G01*
X5152897Y7345934D01*
X5152897Y7441437D02*
G01*
X5193791Y7441437D01*
X5207254Y7436865D01*
X5211825Y7432294D01*
X5216397Y7423404D01*
X5216397Y7409687D01*
X5211825Y7400544D01*
X5207254Y7395971D01*
X5193791Y7391400D01*
X5152897Y7391400D01*
X5250941Y7418831D02*
G01*
X5250941Y7423404D01*
X5255513Y7432294D01*
X5260086Y7436865D01*
X5269229Y7441437D01*
X5287263Y7441437D01*
X5296408Y7436865D01*
X5300979Y7432294D01*
X5305552Y7423404D01*
X5305552Y7414260D01*
X5300979Y7405115D01*
X5291836Y7391400D01*
X5246370Y7345934D01*
X5310124Y7345934D01*
X5340095Y7423404D02*
G01*
X5349240Y7427976D01*
X5362702Y7441437D01*
X5362702Y7345934D01*
X5122672Y7672831D02*
G01*
X5118354Y7681976D01*
X5109209Y7690865D01*
X5100065Y7695437D01*
X5081777Y7695437D01*
X5072888Y7690865D01*
X5063743Y7681976D01*
X5059172Y7672831D01*
X5054600Y7659115D01*
X5054600Y7636510D01*
X5059172Y7622794D01*
X5063743Y7613650D01*
X5072888Y7604505D01*
X5081777Y7599934D01*
X5100065Y7599934D01*
X5109209Y7604505D01*
X5118354Y7613650D01*
X5122672Y7622794D01*
X5122672Y7636510D01*
X5100065Y7636510D02*
G01*
X5122672Y7636510D01*
X5152897Y7695437D02*
G01*
X5152897Y7599934D01*
X5152897Y7695437D02*
G01*
X5193791Y7695437D01*
X5207254Y7690865D01*
X5211825Y7686294D01*
X5216397Y7677404D01*
X5216397Y7663687D01*
X5211825Y7654544D01*
X5207254Y7649971D01*
X5193791Y7645400D01*
X5152897Y7645400D01*
X5250941Y7672831D02*
G01*
X5250941Y7677404D01*
X5255513Y7686294D01*
X5260086Y7690865D01*
X5269229Y7695437D01*
X5287263Y7695437D01*
X5296408Y7690865D01*
X5300979Y7686294D01*
X5305552Y7677404D01*
X5305552Y7668260D01*
X5300979Y7659115D01*
X5291836Y7645400D01*
X5246370Y7599934D01*
X5310124Y7599934D01*
X5344668Y7672831D02*
G01*
X5344668Y7677404D01*
X5349240Y7686294D01*
X5353811Y7690865D01*
X5362702Y7695437D01*
X5380990Y7695437D01*
X5390134Y7690865D01*
X5394706Y7686294D01*
X5399024Y7677404D01*
X5399024Y7668260D01*
X5394706Y7659115D01*
X5385561Y7645400D01*
X5340095Y7599934D01*
X5403595Y7599934D01*
X5122672Y7926831D02*
G01*
X5118354Y7935976D01*
X5109209Y7944865D01*
X5100065Y7949437D01*
X5081777Y7949437D01*
X5072888Y7944865D01*
X5063743Y7935976D01*
X5059172Y7926831D01*
X5054600Y7913115D01*
X5054600Y7890510D01*
X5059172Y7876794D01*
X5063743Y7867650D01*
X5072888Y7858505D01*
X5081777Y7853934D01*
X5100065Y7853934D01*
X5109209Y7858505D01*
X5118354Y7867650D01*
X5122672Y7876794D01*
X5122672Y7890510D01*
X5100065Y7890510D02*
G01*
X5122672Y7890510D01*
X5152897Y7949437D02*
G01*
X5152897Y7853934D01*
X5152897Y7949437D02*
G01*
X5193791Y7949437D01*
X5207254Y7944865D01*
X5211825Y7940294D01*
X5216397Y7931404D01*
X5216397Y7917687D01*
X5211825Y7908544D01*
X5207254Y7903971D01*
X5193791Y7899400D01*
X5152897Y7899400D01*
X5310124Y7949437D02*
G01*
X5264658Y7853934D01*
X5246370Y7949437D02*
G01*
X5310124Y7949437D01*
X5122672Y6402831D02*
G01*
X5118354Y6411976D01*
X5109209Y6420865D01*
X5100065Y6425437D01*
X5081777Y6425437D01*
X5072888Y6420865D01*
X5063743Y6411976D01*
X5059172Y6402831D01*
X5054600Y6389115D01*
X5054600Y6366510D01*
X5059172Y6352794D01*
X5063743Y6343650D01*
X5072888Y6334505D01*
X5081777Y6329934D01*
X5100065Y6329934D01*
X5109209Y6334505D01*
X5118354Y6343650D01*
X5122672Y6352794D01*
X5122672Y6366510D01*
X5100065Y6366510D02*
G01*
X5122672Y6366510D01*
X5152897Y6425437D02*
G01*
X5152897Y6329934D01*
X5152897Y6425437D02*
G01*
X5193791Y6425437D01*
X5207254Y6420865D01*
X5211825Y6416294D01*
X5216397Y6407404D01*
X5216397Y6393687D01*
X5211825Y6384544D01*
X5207254Y6379971D01*
X5193791Y6375400D01*
X5152897Y6375400D01*
X5246370Y6407404D02*
G01*
X5255513Y6411976D01*
X5269229Y6425437D01*
X5269229Y6329934D01*
X5308345Y6425437D02*
G01*
X5358129Y6425437D01*
X5330952Y6389115D01*
X5344668Y6389115D01*
X5353811Y6384544D01*
X5358129Y6379971D01*
X5362702Y6366510D01*
X5362702Y6357365D01*
X5358129Y6343650D01*
X5349240Y6334505D01*
X5335524Y6329934D01*
X5321808Y6329934D01*
X5308345Y6334505D01*
X5303774Y6339078D01*
X5299202Y6348221D01*
X5122672Y8180831D02*
G01*
X5118354Y8189976D01*
X5109209Y8198865D01*
X5100065Y8203437D01*
X5081777Y8203437D01*
X5072888Y8198865D01*
X5063743Y8189976D01*
X5059172Y8180831D01*
X5054600Y8167115D01*
X5054600Y8144510D01*
X5059172Y8130794D01*
X5063743Y8121650D01*
X5072888Y8112505D01*
X5081777Y8107934D01*
X5100065Y8107934D01*
X5109209Y8112505D01*
X5118354Y8121650D01*
X5122672Y8130794D01*
X5122672Y8144510D01*
X5100065Y8144510D02*
G01*
X5122672Y8144510D01*
X5152897Y8203437D02*
G01*
X5152897Y8107934D01*
X5152897Y8203437D02*
G01*
X5193791Y8203437D01*
X5207254Y8198865D01*
X5211825Y8194294D01*
X5216397Y8185404D01*
X5216397Y8171687D01*
X5211825Y8162544D01*
X5207254Y8157971D01*
X5193791Y8153400D01*
X5152897Y8153400D01*
X5300979Y8203437D02*
G01*
X5255513Y8203437D01*
X5250941Y8162544D01*
X5255513Y8167115D01*
X5269229Y8171687D01*
X5282691Y8171687D01*
X5296408Y8167115D01*
X5305552Y8157971D01*
X5310124Y8144510D01*
X5310124Y8135365D01*
X5305552Y8121650D01*
X5296408Y8112505D01*
X5282691Y8107934D01*
X5269229Y8107934D01*
X5255513Y8112505D01*
X5250941Y8117078D01*
X5246370Y8126221D01*
X5122672Y8434831D02*
G01*
X5118354Y8443976D01*
X5109209Y8452865D01*
X5100065Y8457437D01*
X5081777Y8457437D01*
X5072888Y8452865D01*
X5063743Y8443976D01*
X5059172Y8434831D01*
X5054600Y8421115D01*
X5054600Y8398510D01*
X5059172Y8384794D01*
X5063743Y8375650D01*
X5072888Y8366505D01*
X5081777Y8361934D01*
X5100065Y8361934D01*
X5109209Y8366505D01*
X5118354Y8375650D01*
X5122672Y8384794D01*
X5122672Y8398510D01*
X5100065Y8398510D02*
G01*
X5122672Y8398510D01*
X5152897Y8457437D02*
G01*
X5152897Y8361934D01*
X5152897Y8457437D02*
G01*
X5193791Y8457437D01*
X5207254Y8452865D01*
X5211825Y8448294D01*
X5216397Y8439404D01*
X5216397Y8425687D01*
X5211825Y8416544D01*
X5207254Y8411971D01*
X5193791Y8407400D01*
X5152897Y8407400D01*
X5250941Y8434831D02*
G01*
X5250941Y8439404D01*
X5255513Y8448294D01*
X5260086Y8452865D01*
X5269229Y8457437D01*
X5287263Y8457437D01*
X5296408Y8452865D01*
X5300979Y8448294D01*
X5305552Y8439404D01*
X5305552Y8430260D01*
X5300979Y8421115D01*
X5291836Y8407400D01*
X5246370Y8361934D01*
X5310124Y8361934D01*
X5403595Y8457437D02*
G01*
X5358129Y8361934D01*
X5340095Y8457437D02*
G01*
X5403595Y8457437D01*
X5122672Y8688831D02*
G01*
X5118354Y8697976D01*
X5109209Y8706865D01*
X5100065Y8711437D01*
X5081777Y8711437D01*
X5072888Y8706865D01*
X5063743Y8697976D01*
X5059172Y8688831D01*
X5054600Y8675115D01*
X5054600Y8652510D01*
X5059172Y8638794D01*
X5063743Y8629650D01*
X5072888Y8620505D01*
X5081777Y8615934D01*
X5100065Y8615934D01*
X5109209Y8620505D01*
X5118354Y8629650D01*
X5122672Y8638794D01*
X5122672Y8652510D01*
X5100065Y8652510D02*
G01*
X5122672Y8652510D01*
X5152897Y8711437D02*
G01*
X5152897Y8615934D01*
X5152897Y8711437D02*
G01*
X5193791Y8711437D01*
X5207254Y8706865D01*
X5211825Y8702294D01*
X5216397Y8693404D01*
X5216397Y8679687D01*
X5211825Y8670544D01*
X5207254Y8665971D01*
X5193791Y8661400D01*
X5152897Y8661400D01*
X5250941Y8688831D02*
G01*
X5250941Y8693404D01*
X5255513Y8702294D01*
X5260086Y8706865D01*
X5269229Y8711437D01*
X5287263Y8711437D01*
X5296408Y8706865D01*
X5300979Y8702294D01*
X5305552Y8693404D01*
X5305552Y8684260D01*
X5300979Y8675115D01*
X5291836Y8661400D01*
X5246370Y8615934D01*
X5310124Y8615934D01*
X5362702Y8711437D02*
G01*
X5349240Y8706865D01*
X5344668Y8697976D01*
X5344668Y8688831D01*
X5349240Y8679687D01*
X5358129Y8675115D01*
X5376418Y8670544D01*
X5390134Y8665971D01*
X5399024Y8657081D01*
X5403595Y8647937D01*
X5403595Y8634221D01*
X5399024Y8625078D01*
X5394706Y8620505D01*
X5380990Y8615934D01*
X5362702Y8615934D01*
X5349240Y8620505D01*
X5344668Y8625078D01*
X5340095Y8634221D01*
X5340095Y8647937D01*
X5344668Y8657081D01*
X5353811Y8665971D01*
X5367274Y8670544D01*
X5385561Y8675115D01*
X5394706Y8679687D01*
X5399024Y8688831D01*
X5399024Y8697976D01*
X5394706Y8706865D01*
X5380990Y8711437D01*
X5362702Y8711437D01*
X5122672Y8942831D02*
G01*
X5118354Y8951976D01*
X5109209Y8960865D01*
X5100065Y8965437D01*
X5081777Y8965437D01*
X5072888Y8960865D01*
X5063743Y8951976D01*
X5059172Y8942831D01*
X5054600Y8929115D01*
X5054600Y8906510D01*
X5059172Y8892794D01*
X5063743Y8883650D01*
X5072888Y8874505D01*
X5081777Y8869934D01*
X5100065Y8869934D01*
X5109209Y8874505D01*
X5118354Y8883650D01*
X5122672Y8892794D01*
X5122672Y8906510D01*
X5100065Y8906510D02*
G01*
X5122672Y8906510D01*
X5152897Y8965437D02*
G01*
X5152897Y8869934D01*
X5152897Y8965437D02*
G01*
X5193791Y8965437D01*
X5207254Y8960865D01*
X5211825Y8956294D01*
X5216397Y8947404D01*
X5216397Y8933687D01*
X5211825Y8924544D01*
X5207254Y8919971D01*
X5193791Y8915400D01*
X5152897Y8915400D01*
X5246370Y8947404D02*
G01*
X5255513Y8951976D01*
X5269229Y8965437D01*
X5269229Y8869934D01*
X5122672Y9196831D02*
G01*
X5118354Y9205976D01*
X5109209Y9214865D01*
X5100065Y9219437D01*
X5081777Y9219437D01*
X5072888Y9214865D01*
X5063743Y9205976D01*
X5059172Y9196831D01*
X5054600Y9183115D01*
X5054600Y9160510D01*
X5059172Y9146794D01*
X5063743Y9137650D01*
X5072888Y9128505D01*
X5081777Y9123934D01*
X5100065Y9123934D01*
X5109209Y9128505D01*
X5118354Y9137650D01*
X5122672Y9146794D01*
X5122672Y9160510D01*
X5100065Y9160510D02*
G01*
X5122672Y9160510D01*
X5152897Y9219437D02*
G01*
X5152897Y9123934D01*
X5152897Y9219437D02*
G01*
X5193791Y9219437D01*
X5207254Y9214865D01*
X5211825Y9210294D01*
X5216397Y9201404D01*
X5216397Y9187687D01*
X5211825Y9178544D01*
X5207254Y9173971D01*
X5193791Y9169400D01*
X5152897Y9169400D01*
X5273802Y9219437D02*
G01*
X5260086Y9214865D01*
X5250941Y9201404D01*
X5246370Y9178544D01*
X5246370Y9165081D01*
X5250941Y9142221D01*
X5260086Y9128505D01*
X5273802Y9123934D01*
X5282691Y9123934D01*
X5296408Y9128505D01*
X5305552Y9142221D01*
X5310124Y9165081D01*
X5310124Y9178544D01*
X5305552Y9201404D01*
X5296408Y9214865D01*
X5282691Y9219437D01*
X5273802Y9219437D01*
X5122672Y9450831D02*
G01*
X5118354Y9459976D01*
X5109209Y9468865D01*
X5100065Y9473437D01*
X5081777Y9473437D01*
X5072888Y9468865D01*
X5063743Y9459976D01*
X5059172Y9450831D01*
X5054600Y9437115D01*
X5054600Y9414510D01*
X5059172Y9400794D01*
X5063743Y9391650D01*
X5072888Y9382505D01*
X5081777Y9377934D01*
X5100065Y9377934D01*
X5109209Y9382505D01*
X5118354Y9391650D01*
X5122672Y9400794D01*
X5122672Y9414510D01*
X5100065Y9414510D02*
G01*
X5122672Y9414510D01*
X5152897Y9473437D02*
G01*
X5152897Y9377934D01*
X5152897Y9473437D02*
G01*
X5193791Y9473437D01*
X5207254Y9468865D01*
X5211825Y9464294D01*
X5216397Y9455404D01*
X5216397Y9441687D01*
X5211825Y9432544D01*
X5207254Y9427971D01*
X5193791Y9423400D01*
X5152897Y9423400D01*
X5291836Y9473437D02*
G01*
X5246370Y9409937D01*
X5314695Y9409937D01*
X5291836Y9473437D02*
G01*
X5291836Y9377934D01*
X5122672Y9704831D02*
G01*
X5118354Y9713976D01*
X5109209Y9722865D01*
X5100065Y9727437D01*
X5081777Y9727437D01*
X5072888Y9722865D01*
X5063743Y9713976D01*
X5059172Y9704831D01*
X5054600Y9691115D01*
X5054600Y9668510D01*
X5059172Y9654794D01*
X5063743Y9645650D01*
X5072888Y9636505D01*
X5081777Y9631934D01*
X5100065Y9631934D01*
X5109209Y9636505D01*
X5118354Y9645650D01*
X5122672Y9654794D01*
X5122672Y9668510D01*
X5100065Y9668510D02*
G01*
X5122672Y9668510D01*
X5152897Y9727437D02*
G01*
X5152897Y9631934D01*
X5152897Y9727437D02*
G01*
X5193791Y9727437D01*
X5207254Y9722865D01*
X5211825Y9718294D01*
X5216397Y9709404D01*
X5216397Y9695687D01*
X5211825Y9686544D01*
X5207254Y9681971D01*
X5193791Y9677400D01*
X5152897Y9677400D01*
X5255513Y9727437D02*
G01*
X5305552Y9727437D01*
X5278120Y9691115D01*
X5291836Y9691115D01*
X5300979Y9686544D01*
X5305552Y9681971D01*
X5310124Y9668510D01*
X5310124Y9659365D01*
X5305552Y9645650D01*
X5296408Y9636505D01*
X5282691Y9631934D01*
X5269229Y9631934D01*
X5255513Y9636505D01*
X5250941Y9641078D01*
X5246370Y9650221D01*
X5122672Y9958831D02*
G01*
X5118354Y9967976D01*
X5109209Y9976865D01*
X5100065Y9981437D01*
X5081777Y9981437D01*
X5072888Y9976865D01*
X5063743Y9967976D01*
X5059172Y9958831D01*
X5054600Y9945115D01*
X5054600Y9922510D01*
X5059172Y9908794D01*
X5063743Y9899650D01*
X5072888Y9890505D01*
X5081777Y9885934D01*
X5100065Y9885934D01*
X5109209Y9890505D01*
X5118354Y9899650D01*
X5122672Y9908794D01*
X5122672Y9922510D01*
X5100065Y9922510D02*
G01*
X5122672Y9922510D01*
X5152897Y9981437D02*
G01*
X5152897Y9885934D01*
X5152897Y9981437D02*
G01*
X5193791Y9981437D01*
X5207254Y9976865D01*
X5211825Y9972294D01*
X5216397Y9963404D01*
X5216397Y9949687D01*
X5211825Y9940544D01*
X5207254Y9935971D01*
X5193791Y9931400D01*
X5152897Y9931400D01*
X5250941Y9958831D02*
G01*
X5250941Y9963404D01*
X5255513Y9972294D01*
X5260086Y9976865D01*
X5269229Y9981437D01*
X5287263Y9981437D01*
X5296408Y9976865D01*
X5300979Y9972294D01*
X5305552Y9963404D01*
X5305552Y9954260D01*
X5300979Y9945115D01*
X5291836Y9931400D01*
X5246370Y9885934D01*
X5310124Y9885934D01*
D10*
X1350010Y4807457D02*
G01*
X1350010Y4720081D01*
X1344421Y4703826D01*
X1339087Y4698237D01*
X1328165Y4692904D01*
X1317244Y4692904D01*
X1306321Y4698237D01*
X1300734Y4703826D01*
X1295400Y4720081D01*
X1295400Y4731004D01*
X1385823Y4807457D02*
G01*
X1385823Y4692904D01*
X1385823Y4692904D02*
G01*
X1451355Y4692904D01*
X1569212Y4780026D02*
G01*
X1563878Y4790947D01*
X1552955Y4801870D01*
X1542034Y4807457D01*
X1520189Y4807457D01*
X1509268Y4801870D01*
X1498345Y4790947D01*
X1492757Y4780026D01*
X1487423Y4763770D01*
X1487423Y4736592D01*
X1492757Y4720081D01*
X1498345Y4709160D01*
X1509268Y4698237D01*
X1520189Y4692904D01*
X1542034Y4692904D01*
X1552955Y4698237D01*
X1563878Y4709160D01*
X1569212Y4720081D01*
X1659636Y4807457D02*
G01*
X1659636Y4720081D01*
X1654302Y4703826D01*
X1648968Y4698237D01*
X1638045Y4692904D01*
X1627123Y4692904D01*
X1616202Y4698237D01*
X1610613Y4703826D01*
X1605279Y4720081D01*
X1605279Y4731004D01*
X1695704Y4807457D02*
G01*
X1695704Y4692904D01*
X1695704Y4692904D02*
G01*
X1761236Y4692904D01*
X1879092Y4780026D02*
G01*
X1873504Y4790947D01*
X1862581Y4801870D01*
X1851660Y4807457D01*
X1830070Y4807457D01*
X1819147Y4801870D01*
X1808226Y4790947D01*
X1802637Y4780026D01*
X1797304Y4763770D01*
X1797304Y4736592D01*
X1802637Y4720081D01*
X1808226Y4709160D01*
X1819147Y4698237D01*
X1830070Y4692904D01*
X1851660Y4692904D01*
X1862581Y4698237D01*
X1873504Y4709160D01*
X1879092Y4720081D01*
X1969515Y4807457D02*
G01*
X1969515Y4720081D01*
X1964181Y4703826D01*
X1958593Y4698237D01*
X1947672Y4692904D01*
X1936750Y4692904D01*
X1925828Y4698237D01*
X1920494Y4703826D01*
X1915160Y4720081D01*
X1915160Y4731004D01*
X2005584Y4807457D02*
G01*
X2005584Y4692904D01*
X2005584Y4692904D02*
G01*
X2071115Y4692904D01*
X2188972Y4780026D02*
G01*
X2183384Y4790947D01*
X2172461Y4801870D01*
X2161540Y4807457D01*
X2139695Y4807457D01*
X2128774Y4801870D01*
X2117852Y4790947D01*
X2112518Y4780026D01*
X2106929Y4763770D01*
X2106929Y4736592D01*
X2112518Y4720081D01*
X2117852Y4709160D01*
X2128774Y4698237D01*
X2139695Y4692904D01*
X2161540Y4692904D01*
X2172461Y4698237D01*
X2183384Y4709160D01*
X2188972Y4720081D01*
X2279395Y4807457D02*
G01*
X2279395Y4720081D01*
X2274061Y4703826D01*
X2268474Y4698237D01*
X2257552Y4692904D01*
X2246629Y4692904D01*
X2235708Y4698237D01*
X2230374Y4703826D01*
X2224786Y4720081D01*
X2224786Y4731004D01*
X2315463Y4807457D02*
G01*
X2315463Y4692904D01*
X2315463Y4692904D02*
G01*
X2380741Y4692904D01*
X2498597Y4780026D02*
G01*
X2493263Y4790947D01*
X2482341Y4801870D01*
X2471420Y4807457D01*
X2449575Y4807457D01*
X2438654Y4801870D01*
X2427731Y4790947D01*
X2422397Y4780026D01*
X2416809Y4763770D01*
X2416809Y4736592D01*
X2422397Y4720081D01*
X2427731Y4709160D01*
X2438654Y4698237D01*
X2449575Y4692904D01*
X2471420Y4692904D01*
X2482341Y4698237D01*
X2493263Y4709160D01*
X2498597Y4720081D01*
D11*
X3925562Y3595105D02*
G01*
X3925562Y3512047D01*
X3920228Y3496299D01*
X3915148Y3491219D01*
X3904734Y3486139D01*
X3894320Y3486139D01*
X3883906Y3491219D01*
X3878572Y3496299D01*
X3873492Y3512047D01*
X3873492Y3522461D01*
X3959852Y3574277D02*
G01*
X3970012Y3579611D01*
X3985760Y3595105D01*
X3985760Y3486139D01*
X4852670Y4915915D02*
G01*
X4852670Y4832857D01*
X4847336Y4817110D01*
X4842256Y4812029D01*
X4831841Y4806950D01*
X4821427Y4806950D01*
X4811013Y4812029D01*
X4805679Y4817110D01*
X4800600Y4832857D01*
X4800600Y4843271D01*
X4897120Y4915915D02*
G01*
X4954270Y4915915D01*
X4923281Y4874260D01*
X4938775Y4874260D01*
X4949190Y4869179D01*
X4954270Y4864100D01*
X4959604Y4848352D01*
X4959604Y4837937D01*
X4954270Y4822444D01*
X4944109Y4812029D01*
X4928361Y4806950D01*
X4912868Y4806950D01*
X4897120Y4812029D01*
X4892040Y4817110D01*
X4886959Y4827523D01*
X7506970Y4915915D02*
G01*
X7506970Y4832857D01*
X7501636Y4817110D01*
X7496556Y4812029D01*
X7486141Y4806950D01*
X7475727Y4806950D01*
X7465313Y4812029D01*
X7459979Y4817110D01*
X7454900Y4832857D01*
X7454900Y4843271D01*
X7603490Y4915915D02*
G01*
X7551420Y4915915D01*
X7546340Y4869179D01*
X7551420Y4874260D01*
X7567168Y4879594D01*
X7582661Y4879594D01*
X7598409Y4874260D01*
X7608570Y4864100D01*
X7613904Y4848352D01*
X7613904Y4837937D01*
X7608570Y4822444D01*
X7598409Y4812029D01*
X7582661Y4806950D01*
X7567168Y4806950D01*
X7551420Y4812029D01*
X7546340Y4817110D01*
X7541259Y4827523D01*
X5728970Y4915915D02*
G01*
X5728970Y4832857D01*
X5723636Y4817110D01*
X5718556Y4812029D01*
X5708141Y4806950D01*
X5697727Y4806950D01*
X5687313Y4812029D01*
X5681979Y4817110D01*
X5676900Y4832857D01*
X5676900Y4843271D01*
X5815075Y4915915D02*
G01*
X5763259Y4843271D01*
X5840984Y4843271D01*
X5815075Y4915915D02*
G01*
X5815075Y4806950D01*
D10*
X4749800Y10058400D02*
G01*
X4737100Y10058400D01*
X4737100Y4978400D01*
X5003800Y4978400D01*
X5003800Y10058400D01*
X4749800Y10058400D01*
X7416800Y10058400D02*
G01*
X7404100Y10058400D01*
X7404100Y4978400D01*
X7670800Y4978400D01*
X7670800Y10058400D01*
X7416800Y10058400D01*
X5638800Y10058400D02*
G01*
X5626100Y10058400D01*
X5626100Y4978400D01*
X5892800Y4978400D01*
X5892800Y10058400D01*
X5638800Y10058400D01*
M02*
