G04 Layer: TopSolderMaskLayer*
G04 EasyEDA v6.5.29, 2023-07-18 10:02:35*
G04 8a87558a6270435d8ad66e31a1dfd8bf,5a6b42c53f6a479593ecc07194224c93,10*
G04 Gerber Generator version 0.2*
G04 Scale: 100 percent, Rotated: No, Reflected: No *
G04 Dimensions in millimeters *
G04 leading zeros omitted , absolute positions ,4 integer and 5 decimal *
%FSLAX45Y45*%
%MOMM*%

%AMMACRO1*1,1,$1,$2,$3*1,1,$1,$4,$5*1,1,$1,0-$2,0-$3*1,1,$1,0-$4,0-$5*20,1,$1,$2,$3,$4,$5,0*20,1,$1,$4,$5,0-$2,0-$3,0*20,1,$1,0-$2,0-$3,0-$4,0-$5,0*20,1,$1,0-$4,0-$5,$2,$3,0*4,1,4,$2,$3,$4,$5,0-$2,0-$3,0-$4,0-$5,$2,$3,0*%
%ADD10MACRO1,0.1016X0.9X-0.9X0.9X0.9*%
%ADD11C,1.9016*%
%ADD12MACRO1,0.1016X-0.9X-0.9X-0.9X0.9*%
%ADD13C,5.2032*%
%ADD14C,1.8016*%
%ADD15C,3.0000*%

%LPD*%
D10*
G01*
X3809992Y3797289D03*
D11*
G01*
X4064000Y3797300D03*
G01*
X3810000Y4051300D03*
G01*
X4064000Y4051300D03*
G01*
X3810000Y4305300D03*
G01*
X4064000Y4305300D03*
G01*
X3810000Y4559300D03*
G01*
X4064000Y4559300D03*
G01*
X3810000Y4813300D03*
G01*
X4064000Y4813300D03*
G01*
X3810000Y5067300D03*
G01*
X4064000Y5067300D03*
G01*
X3810000Y5321300D03*
G01*
X4064000Y5321300D03*
G01*
X3810000Y5575300D03*
G01*
X4064000Y5575300D03*
G01*
X4876800Y9931400D03*
D12*
G01*
X4876800Y5105400D03*
D11*
G01*
X4876800Y5359400D03*
G01*
X4876800Y5613400D03*
G01*
X4876800Y5867400D03*
G01*
X4876800Y6121400D03*
G01*
X4876800Y6375400D03*
G01*
X4876800Y6629400D03*
G01*
X4876800Y6883400D03*
G01*
X4876800Y7137400D03*
G01*
X4876800Y7391400D03*
G01*
X4876800Y7645400D03*
G01*
X4876800Y7899400D03*
G01*
X4876800Y8153400D03*
G01*
X4876800Y8407400D03*
G01*
X4876800Y8661400D03*
G01*
X4876800Y8915400D03*
G01*
X4876800Y9169400D03*
G01*
X4876800Y9423400D03*
G01*
X4876800Y9677400D03*
G01*
X7543800Y9931400D03*
D12*
G01*
X7543800Y5105400D03*
D11*
G01*
X7543800Y5359400D03*
G01*
X7543800Y5613400D03*
G01*
X7543800Y5867400D03*
G01*
X7543800Y6121400D03*
G01*
X7543800Y6375400D03*
G01*
X7543800Y6629400D03*
G01*
X7543800Y6883400D03*
G01*
X7543800Y7137400D03*
G01*
X7543800Y7391400D03*
G01*
X7543800Y7645400D03*
G01*
X7543800Y7899400D03*
G01*
X7543800Y8153400D03*
G01*
X7543800Y8407400D03*
G01*
X7543800Y8661400D03*
G01*
X7543800Y8915400D03*
G01*
X7543800Y9169400D03*
G01*
X7543800Y9423400D03*
G01*
X7543800Y9677400D03*
G01*
X5765800Y9931400D03*
D12*
G01*
X5765800Y5105400D03*
D11*
G01*
X5765800Y5359400D03*
G01*
X5765800Y5613400D03*
G01*
X5765800Y5867400D03*
G01*
X5765800Y6121400D03*
G01*
X5765800Y6375400D03*
G01*
X5765800Y6629400D03*
G01*
X5765800Y6883400D03*
G01*
X5765800Y7137400D03*
G01*
X5765800Y7391400D03*
G01*
X5765800Y7645400D03*
G01*
X5765800Y7899400D03*
G01*
X5765800Y8153400D03*
G01*
X5765800Y8407400D03*
G01*
X5765800Y8661400D03*
G01*
X5765800Y8915400D03*
G01*
X5765800Y9169400D03*
G01*
X5765800Y9423400D03*
G01*
X5765800Y9677400D03*
D13*
G01*
X386105Y4782007D03*
G01*
X8166100Y4782007D03*
G01*
X386105Y9652000D03*
G01*
X8166100Y9652000D03*
D14*
G01*
X1016000Y10287000D03*
G01*
X2794000Y10287000D03*
G01*
X1016000Y10033000D03*
G01*
X1016000Y9779000D03*
G01*
X1016000Y9525000D03*
G01*
X1016000Y9271000D03*
G01*
X1016000Y9017000D03*
G01*
X1016000Y8763000D03*
G01*
X1016000Y8509000D03*
G01*
X1016000Y8255000D03*
G01*
X1016000Y8001000D03*
G01*
X1016000Y7747000D03*
G01*
X1016000Y7493000D03*
G01*
X1016000Y7239000D03*
G01*
X1016000Y6985000D03*
G01*
X1016000Y6731000D03*
G01*
X1016000Y6477000D03*
G01*
X1016000Y6223000D03*
G01*
X1016000Y5969000D03*
G01*
X1016000Y5715000D03*
G01*
X1016000Y5461000D03*
G01*
X2794000Y10033000D03*
G01*
X2794000Y9779000D03*
G01*
X2794000Y9525000D03*
G01*
X2794000Y9271000D03*
G01*
X2794000Y9017000D03*
G01*
X2794000Y8763000D03*
G01*
X2794000Y8509000D03*
G01*
X2794000Y8255000D03*
G01*
X2794000Y8001000D03*
G01*
X2794000Y7747000D03*
G01*
X2794000Y7493000D03*
G01*
X2794000Y7239000D03*
G01*
X2794000Y6985000D03*
G01*
X2794000Y6731000D03*
G01*
X2794000Y6477000D03*
G01*
X2794000Y6223000D03*
G01*
X2794000Y5969000D03*
G01*
X2794000Y5715000D03*
G01*
X2794000Y5461000D03*
G01*
X1905000Y5461000D03*
G01*
X1651000Y5461000D03*
G01*
X2159000Y5461000D03*
D15*
G01*
X999997Y10773999D03*
G01*
X16432001Y10773999D03*
G01*
X1499996Y-5117398D03*
G01*
X15932002Y-5117398D03*
M02*
