G04 Layer: BoardOutlineLayer*
G04 EasyEDA v6.5.29, 2023-07-18 11:26:45*
G04 a3e85ac62c814be2af95df0adf1d0fd4,5a6b42c53f6a479593ecc07194224c93,10*
G04 Gerber Generator version 0.2*
G04 Scale: 100 percent, Rotated: No, Reflected: No *
G04 Dimensions in millimeters *
G04 leading zeros omitted , absolute positions ,4 integer and 5 decimal *
%FSLAX45Y45*%
%MOMM*%

%ADD10C,0.2540*%
D10*
X-2966999Y7400721D02*
G01*
X1097000Y7400721D01*
X1097000Y-3648278D01*
X-2966999Y-3648278D01*
X-2966999Y7400721D01*
G75*
G01*
X-680999Y-3394278D02*
G02*
X-680999Y-2987878I0J203200D01*
G75*
G01*
X-680999Y-2987878D02*
G02*
X-680999Y-3394278I0J-203200D01*
X-680999Y-3394278D02*
G01*
X-680999Y-3394278D01*
X-1188999Y-3394278D02*
G01*
X-680999Y-3394278D01*
X-680999Y-3394278D02*
G01*
X-680999Y-2987878D01*
X-680999Y-2987878D02*
G01*
X-1188999Y-2987878D01*
X-1188999Y-2987878D02*
G01*
X-1188999Y-3394278D01*
G75*
G01*
X-1188999Y-3394278D02*
G02*
X-1188999Y-2987878I0J203200D01*
G75*
G01*
X-1188999Y-2987878D02*
G02*
X-1188999Y-3394278I0J-203200D01*
X-1188999Y-3394278D02*
G01*
X-1188999Y-3394278D01*
X-2517597Y5724321D02*
G01*
X-2517597Y2181021D01*
X-2517597Y2181021D02*
G01*
X-2123897Y2181021D01*
X-2123897Y2181021D02*
G01*
X-2123897Y1787321D01*
X-2123897Y1787321D02*
G01*
X263702Y1787321D01*
X263702Y1787321D02*
G01*
X263702Y2181021D01*
X263702Y2181021D02*
G01*
X657402Y2181021D01*
X657402Y2181021D02*
G01*
X657402Y5724321D01*
X657402Y5724321D02*
G01*
X-2517597Y5724321D01*
X-1328699Y6867321D02*
G01*
X-1328699Y6664121D01*
X-1328699Y6664121D02*
G01*
X-541299Y6664121D01*
X-541299Y6664121D02*
G01*
X-541299Y6867321D01*
X-541299Y6867321D02*
G01*
X-1328699Y6867321D01*
G75*
G01*
X-1968500Y165100D02*
G02*
X96896Y165100I1032698J0D01*
G75*
G01*
X96896Y165100D02*
G02*
X-1968500Y165100I-1032698J0D01*
X-1968500Y165100D02*
G01*
X-1968500Y165100D01*
X-317500Y-2908300D02*
G01*
X-317500Y-3302000D01*
X-317500Y-3302000D02*
G01*
X25400Y-3302000D01*
X25400Y-3302000D02*
G01*
X25400Y-2908300D01*
X25400Y-2908300D02*
G01*
X-317500Y-2908300D01*

%LPD*%
M02*
