G04 Layer: BottomSilkscreenLayer*
G04 EasyEDA v6.5.29, 2023-07-18 11:26:45*
G04 a3e85ac62c814be2af95df0adf1d0fd4,5a6b42c53f6a479593ecc07194224c93,10*
G04 Gerber Generator version 0.2*
G04 Scale: 100 percent, Rotated: No, Reflected: No *
G04 Dimensions in millimeters *
G04 leading zeros omitted , absolute positions ,4 integer and 5 decimal *
%FSLAX45Y45*%
%MOMM*%

%ADD10C,0.2032*%

%LPD*%
D10*
X62682Y-3478260D02*
G01*
X68138Y-3467351D01*
X79047Y-3456442D01*
X89954Y-3450988D01*
X111772Y-3450988D01*
X122681Y-3456442D01*
X133591Y-3467351D01*
X139047Y-3478260D01*
X144500Y-3494623D01*
X144500Y-3521895D01*
X139047Y-3538260D01*
X133591Y-3549169D01*
X122681Y-3560079D01*
X111772Y-3565532D01*
X89954Y-3565532D01*
X79047Y-3560079D01*
X68138Y-3549169D01*
X62682Y-3538260D01*
X-6045Y-3450988D02*
G01*
X4864Y-3456442D01*
X15773Y-3467351D01*
X21229Y-3478260D01*
X26682Y-3494623D01*
X26682Y-3521895D01*
X21229Y-3538260D01*
X15773Y-3549169D01*
X4864Y-3560079D01*
X-6045Y-3565532D01*
X-27863Y-3565532D01*
X-38770Y-3560079D01*
X-49679Y-3549169D01*
X-55135Y-3538260D01*
X-60589Y-3521895D01*
X-60589Y-3494623D01*
X-55135Y-3478260D01*
X-49679Y-3467351D01*
X-38770Y-3456442D01*
X-27863Y-3450988D01*
X-6045Y-3450988D01*
X-96588Y-3450988D02*
G01*
X-96588Y-3565532D01*
X-96588Y-3450988D02*
G01*
X-145681Y-3450988D01*
X-162044Y-3456442D01*
X-167497Y-3461895D01*
X-172953Y-3472804D01*
X-172953Y-3489170D01*
X-167497Y-3500079D01*
X-162044Y-3505532D01*
X-145681Y-3510988D01*
X-96588Y-3510988D01*
X-208953Y-3450988D02*
G01*
X-252590Y-3505532D01*
X-252590Y-3565532D01*
X-296224Y-3450988D02*
G01*
X-252590Y-3505532D01*
X-332226Y-3450988D02*
G01*
X-332226Y-3565532D01*
X-332226Y-3450988D02*
G01*
X-381317Y-3450988D01*
X-397680Y-3456442D01*
X-403133Y-3461895D01*
X-408589Y-3472804D01*
X-408589Y-3483714D01*
X-403133Y-3494623D01*
X-397680Y-3500079D01*
X-381317Y-3505532D01*
X-332226Y-3505532D01*
X-370408Y-3505532D02*
G01*
X-408589Y-3565532D01*
X-444588Y-3450988D02*
G01*
X-444588Y-3565532D01*
X-562406Y-3478260D02*
G01*
X-556953Y-3467351D01*
X-546044Y-3456442D01*
X-535134Y-3450988D01*
X-513316Y-3450988D01*
X-502406Y-3456442D01*
X-491497Y-3467351D01*
X-486044Y-3478260D01*
X-480588Y-3494623D01*
X-480588Y-3521895D01*
X-486044Y-3538260D01*
X-491497Y-3549169D01*
X-502406Y-3560079D01*
X-513316Y-3565532D01*
X-535134Y-3565532D01*
X-546044Y-3560079D01*
X-556953Y-3549169D01*
X-562406Y-3538260D01*
X-562406Y-3521895D01*
X-535134Y-3521895D02*
G01*
X-562406Y-3521895D01*
X-598406Y-3450988D02*
G01*
X-598406Y-3565532D01*
X-674771Y-3450988D02*
G01*
X-674771Y-3565532D01*
X-598406Y-3505532D02*
G01*
X-674771Y-3505532D01*
X-748952Y-3450988D02*
G01*
X-748952Y-3565532D01*
X-710770Y-3450988D02*
G01*
X-787133Y-3450988D01*
X-912588Y-3478260D02*
G01*
X-912588Y-3472804D01*
X-918042Y-3461895D01*
X-923498Y-3456442D01*
X-934407Y-3450988D01*
X-956223Y-3450988D01*
X-967132Y-3456442D01*
X-972588Y-3461895D01*
X-978042Y-3472804D01*
X-978042Y-3483714D01*
X-972588Y-3494623D01*
X-961679Y-3510988D01*
X-907133Y-3565532D01*
X-983498Y-3565532D01*
X-1052225Y-3450988D02*
G01*
X-1035860Y-3456442D01*
X-1024950Y-3472804D01*
X-1019497Y-3500079D01*
X-1019497Y-3516442D01*
X-1024950Y-3543714D01*
X-1035860Y-3560079D01*
X-1052225Y-3565532D01*
X-1063132Y-3565532D01*
X-1079497Y-3560079D01*
X-1090406Y-3543714D01*
X-1095860Y-3516442D01*
X-1095860Y-3500079D01*
X-1090406Y-3472804D01*
X-1079497Y-3456442D01*
X-1063132Y-3450988D01*
X-1052225Y-3450988D01*
X-1137315Y-3478260D02*
G01*
X-1137315Y-3472804D01*
X-1142768Y-3461895D01*
X-1148224Y-3456442D01*
X-1159134Y-3450988D01*
X-1180950Y-3450988D01*
X-1191859Y-3456442D01*
X-1197315Y-3461895D01*
X-1202768Y-3472804D01*
X-1202768Y-3483714D01*
X-1197315Y-3494623D01*
X-1186406Y-3510988D01*
X-1131859Y-3565532D01*
X-1208224Y-3565532D01*
X-1255133Y-3450988D02*
G01*
X-1315133Y-3450988D01*
X-1282405Y-3494623D01*
X-1298768Y-3494623D01*
X-1309677Y-3500079D01*
X-1315133Y-3505532D01*
X-1320586Y-3521895D01*
X-1320586Y-3532804D01*
X-1315133Y-3549169D01*
X-1304223Y-3560079D01*
X-1287861Y-3565532D01*
X-1271496Y-3565532D01*
X-1255133Y-3560079D01*
X-1249677Y-3554623D01*
X-1244224Y-3543714D01*
X-1440586Y-3450988D02*
G01*
X-1484223Y-3565532D01*
X-1527860Y-3450988D02*
G01*
X-1484223Y-3565532D01*
X-1563860Y-3450988D02*
G01*
X-1563860Y-3565532D01*
X-1563860Y-3450988D02*
G01*
X-1634769Y-3450988D01*
X-1563860Y-3505532D02*
G01*
X-1607494Y-3505532D01*
X-1563860Y-3565532D02*
G01*
X-1634769Y-3565532D01*
X-1747131Y-3450988D02*
G01*
X-1692587Y-3565532D01*
X-1670768Y-3450988D02*
G01*
X-1747131Y-3450988D01*
X-1783130Y-3450988D02*
G01*
X-1783130Y-3565532D01*
X-1783130Y-3450988D02*
G01*
X-1854039Y-3450988D01*
X-1783130Y-3505532D02*
G01*
X-1826768Y-3505532D01*
X-1890041Y-3450988D02*
G01*
X-1890041Y-3565532D01*
X-1926041Y-3450988D02*
G01*
X-1926041Y-3565532D01*
X-1926041Y-3450988D02*
G01*
X-1969676Y-3565532D01*
X-2013313Y-3450988D02*
G01*
X-1969676Y-3565532D01*
X-2013313Y-3450988D02*
G01*
X-2013313Y-3565532D01*
X-384809Y-2583942D02*
G01*
X-384809Y-2671317D01*
X-379221Y-2687573D01*
X-373887Y-2693161D01*
X-362965Y-2698495D01*
X-352043Y-2698495D01*
X-341121Y-2693161D01*
X-335534Y-2687573D01*
X-330200Y-2671317D01*
X-330200Y-2660395D01*
X-420623Y-2583942D02*
G01*
X-420623Y-2698495D01*
X-420623Y-2698495D02*
G01*
X-486155Y-2698495D01*
X-604011Y-2611373D02*
G01*
X-598677Y-2600451D01*
X-587755Y-2589529D01*
X-576834Y-2583942D01*
X-554989Y-2583942D01*
X-544068Y-2589529D01*
X-533145Y-2600451D01*
X-527557Y-2611373D01*
X-522223Y-2627629D01*
X-522223Y-2654807D01*
X-527557Y-2671317D01*
X-533145Y-2682239D01*
X-544068Y-2693161D01*
X-554989Y-2698495D01*
X-576834Y-2698495D01*
X-587755Y-2693161D01*
X-598677Y-2682239D01*
X-604011Y-2671317D01*
X-694436Y-2583942D02*
G01*
X-694436Y-2671317D01*
X-689102Y-2687573D01*
X-683768Y-2693161D01*
X-672845Y-2698495D01*
X-661923Y-2698495D01*
X-651002Y-2693161D01*
X-645413Y-2687573D01*
X-640079Y-2671317D01*
X-640079Y-2660395D01*
X-730503Y-2583942D02*
G01*
X-730503Y-2698495D01*
X-730503Y-2698495D02*
G01*
X-796036Y-2698495D01*
X-913891Y-2611373D02*
G01*
X-908303Y-2600451D01*
X-897381Y-2589529D01*
X-886459Y-2583942D01*
X-864869Y-2583942D01*
X-853947Y-2589529D01*
X-843025Y-2600451D01*
X-837437Y-2611373D01*
X-832103Y-2627629D01*
X-832103Y-2654807D01*
X-837437Y-2671317D01*
X-843025Y-2682239D01*
X-853947Y-2693161D01*
X-864869Y-2698495D01*
X-886459Y-2698495D01*
X-897381Y-2693161D01*
X-908303Y-2682239D01*
X-913891Y-2671317D01*
X-1004315Y-2583942D02*
G01*
X-1004315Y-2671317D01*
X-998981Y-2687573D01*
X-993393Y-2693161D01*
X-982471Y-2698495D01*
X-971550Y-2698495D01*
X-960627Y-2693161D01*
X-955293Y-2687573D01*
X-949959Y-2671317D01*
X-949959Y-2660395D01*
X-1040384Y-2583942D02*
G01*
X-1040384Y-2698495D01*
X-1040384Y-2698495D02*
G01*
X-1105915Y-2698495D01*
X-1223771Y-2611373D02*
G01*
X-1218184Y-2600451D01*
X-1207261Y-2589529D01*
X-1196339Y-2583942D01*
X-1174495Y-2583942D01*
X-1163573Y-2589529D01*
X-1152652Y-2600451D01*
X-1147318Y-2611373D01*
X-1141729Y-2627629D01*
X-1141729Y-2654807D01*
X-1147318Y-2671317D01*
X-1152652Y-2682239D01*
X-1163573Y-2693161D01*
X-1174495Y-2698495D01*
X-1196339Y-2698495D01*
X-1207261Y-2693161D01*
X-1218184Y-2682239D01*
X-1223771Y-2671317D01*
X-1314195Y-2583942D02*
G01*
X-1314195Y-2671317D01*
X-1308861Y-2687573D01*
X-1303273Y-2693161D01*
X-1292352Y-2698495D01*
X-1281429Y-2698495D01*
X-1270507Y-2693161D01*
X-1265173Y-2687573D01*
X-1259586Y-2671317D01*
X-1259586Y-2660395D01*
X-1350263Y-2583942D02*
G01*
X-1350263Y-2698495D01*
X-1350263Y-2698495D02*
G01*
X-1415541Y-2698495D01*
X-1533397Y-2611373D02*
G01*
X-1528063Y-2600451D01*
X-1517141Y-2589529D01*
X-1506219Y-2583942D01*
X-1484375Y-2583942D01*
X-1473453Y-2589529D01*
X-1462531Y-2600451D01*
X-1457197Y-2611373D01*
X-1451609Y-2627629D01*
X-1451609Y-2654807D01*
X-1457197Y-2671317D01*
X-1462531Y-2682239D01*
X-1473453Y-2693161D01*
X-1484375Y-2698495D01*
X-1506219Y-2698495D01*
X-1517141Y-2693161D01*
X-1528063Y-2682239D01*
X-1533397Y-2671317D01*
X685800Y7309289D02*
G01*
X685800Y7194745D01*
X685800Y7309289D02*
G01*
X642162Y7194745D01*
X598528Y7309289D02*
G01*
X642162Y7194745D01*
X598528Y7309289D02*
G01*
X598528Y7194745D01*
X464345Y7331108D02*
G01*
X562528Y7156564D01*
X428345Y7309289D02*
G01*
X428345Y7194745D01*
X428345Y7309289D02*
G01*
X357436Y7309289D01*
X428345Y7254745D02*
G01*
X384710Y7254745D01*
X428345Y7194745D02*
G01*
X357436Y7194745D01*
X237436Y7309289D02*
G01*
X237436Y7194745D01*
X237436Y7309289D02*
G01*
X188346Y7309289D01*
X171983Y7303836D01*
X166527Y7298382D01*
X161074Y7287473D01*
X161074Y7271108D01*
X166527Y7260198D01*
X171983Y7254745D01*
X188346Y7249289D01*
X237436Y7249289D01*
X92346Y7309289D02*
G01*
X103256Y7303836D01*
X114165Y7292926D01*
X119618Y7282017D01*
X125074Y7265654D01*
X125074Y7238382D01*
X119618Y7222017D01*
X114165Y7211108D01*
X103256Y7200198D01*
X92346Y7194745D01*
X70528Y7194745D01*
X59618Y7200198D01*
X48709Y7211108D01*
X43256Y7222017D01*
X37800Y7238382D01*
X37800Y7265654D01*
X43256Y7282017D01*
X48709Y7292926D01*
X59618Y7303836D01*
X70528Y7309289D01*
X92346Y7309289D01*
X1800Y7309289D02*
G01*
X-25471Y7194745D01*
X-52743Y7309289D02*
G01*
X-25471Y7194745D01*
X-52743Y7309289D02*
G01*
X-80017Y7194745D01*
X-107289Y7309289D02*
G01*
X-80017Y7194745D01*
X-143289Y7309289D02*
G01*
X-143289Y7194745D01*
X-143289Y7309289D02*
G01*
X-214198Y7309289D01*
X-143289Y7254745D02*
G01*
X-186926Y7254745D01*
X-143289Y7194745D02*
G01*
X-214198Y7194745D01*
X-250197Y7309289D02*
G01*
X-250197Y7194745D01*
X-250197Y7309289D02*
G01*
X-299288Y7309289D01*
X-315653Y7303836D01*
X-321106Y7298382D01*
X-326562Y7287473D01*
X-326562Y7276564D01*
X-321106Y7265654D01*
X-315653Y7260198D01*
X-299288Y7254745D01*
X-250197Y7254745D01*
X-288378Y7254745D02*
G01*
X-326562Y7194745D01*
X-446562Y7309289D02*
G01*
X-446562Y7194745D01*
X-446562Y7194745D02*
G01*
X-512015Y7194745D01*
X-548015Y7309289D02*
G01*
X-548015Y7194745D01*
X-548015Y7309289D02*
G01*
X-618924Y7309289D01*
X-548015Y7254745D02*
G01*
X-591652Y7254745D01*
X-548015Y7194745D02*
G01*
X-618924Y7194745D01*
X-654923Y7309289D02*
G01*
X-654923Y7194745D01*
X-654923Y7309289D02*
G01*
X-693107Y7309289D01*
X-709470Y7303836D01*
X-720379Y7292926D01*
X-725832Y7282017D01*
X-731288Y7265654D01*
X-731288Y7238382D01*
X-725832Y7222017D01*
X-720379Y7211108D01*
X-709470Y7200198D01*
X-693107Y7194745D01*
X-654923Y7194745D01*
X-927651Y7292926D02*
G01*
X-916741Y7303836D01*
X-900379Y7309289D01*
X-878560Y7309289D01*
X-862197Y7303836D01*
X-851288Y7292926D01*
X-851288Y7282017D01*
X-856741Y7271108D01*
X-862197Y7265654D01*
X-873107Y7260198D01*
X-905832Y7249289D01*
X-916741Y7243836D01*
X-922197Y7238382D01*
X-927651Y7227473D01*
X-927651Y7211108D01*
X-916741Y7200198D01*
X-900379Y7194745D01*
X-878560Y7194745D01*
X-862197Y7200198D01*
X-851288Y7211108D01*
X-963650Y7309289D02*
G01*
X-963650Y7194745D01*
X-963650Y7309289D02*
G01*
X-1012741Y7309289D01*
X-1029106Y7303836D01*
X-1034559Y7298382D01*
X-1040015Y7287473D01*
X-1040015Y7271108D01*
X-1034559Y7260198D01*
X-1029106Y7254745D01*
X-1012741Y7249289D01*
X-963650Y7249289D01*
X-1119649Y7309289D02*
G01*
X-1076015Y7194745D01*
X-1119649Y7309289D02*
G01*
X-1163286Y7194745D01*
X-1092377Y7232926D02*
G01*
X-1146924Y7232926D01*
X-1281104Y7282017D02*
G01*
X-1275651Y7292926D01*
X-1264742Y7303836D01*
X-1253832Y7309289D01*
X-1232014Y7309289D01*
X-1221104Y7303836D01*
X-1210195Y7292926D01*
X-1204742Y7282017D01*
X-1199286Y7265654D01*
X-1199286Y7238382D01*
X-1204742Y7222017D01*
X-1210195Y7211108D01*
X-1221104Y7200198D01*
X-1232014Y7194745D01*
X-1253832Y7194745D01*
X-1264742Y7200198D01*
X-1275651Y7211108D01*
X-1281104Y7222017D01*
X-1317104Y7309289D02*
G01*
X-1317104Y7194745D01*
X-1317104Y7309289D02*
G01*
X-1388013Y7309289D01*
X-1317104Y7254745D02*
G01*
X-1360741Y7254745D01*
X-1317104Y7194745D02*
G01*
X-1388013Y7194745D01*
X-1424012Y7309289D02*
G01*
X-1424012Y7194745D01*
X-1424012Y7309289D02*
G01*
X-1473106Y7309289D01*
X-1489468Y7303836D01*
X-1494922Y7298382D01*
X-1500377Y7287473D01*
X-1500377Y7276564D01*
X-1494922Y7265654D01*
X-1489468Y7260198D01*
X-1473106Y7254745D01*
X-1424012Y7254745D01*
X-1462196Y7254745D02*
G01*
X-1500377Y7194745D01*
X-1620377Y7243836D02*
G01*
X-1718558Y7243836D01*
X-1838558Y7309289D02*
G01*
X-1838558Y7194745D01*
X-1838558Y7309289D02*
G01*
X-1887649Y7309289D01*
X-1904011Y7303836D01*
X-1909467Y7298382D01*
X-1914921Y7287473D01*
X-1914921Y7276564D01*
X-1909467Y7265654D01*
X-1904011Y7260198D01*
X-1887649Y7254745D01*
X-1838558Y7254745D02*
G01*
X-1887649Y7254745D01*
X-1904011Y7249289D01*
X-1909467Y7243836D01*
X-1914921Y7232926D01*
X-1914921Y7216564D01*
X-1909467Y7205654D01*
X-1904011Y7200198D01*
X-1887649Y7194745D01*
X-1838558Y7194745D01*
X-1983648Y7309289D02*
G01*
X-1972739Y7303836D01*
X-1961829Y7292926D01*
X-1956376Y7282017D01*
X-1950923Y7265654D01*
X-1950923Y7238382D01*
X-1956376Y7222017D01*
X-1961829Y7211108D01*
X-1972739Y7200198D01*
X-1983648Y7194745D01*
X-2005467Y7194745D01*
X-2016376Y7200198D01*
X-2027285Y7211108D01*
X-2032739Y7222017D01*
X-2038195Y7238382D01*
X-2038195Y7265654D01*
X-2032739Y7282017D01*
X-2027285Y7292926D01*
X-2016376Y7303836D01*
X-2005467Y7309289D01*
X-1983648Y7309289D01*
X-2112375Y7309289D02*
G01*
X-2112375Y7194745D01*
X-2074194Y7309289D02*
G01*
X-2150557Y7309289D01*
X-2224740Y7309289D02*
G01*
X-2224740Y7194745D01*
X-2186559Y7309289D02*
G01*
X-2262921Y7309289D01*
X-2331648Y7309289D02*
G01*
X-2320739Y7303836D01*
X-2309830Y7292926D01*
X-2304376Y7282017D01*
X-2298920Y7265654D01*
X-2298920Y7238382D01*
X-2304376Y7222017D01*
X-2309830Y7211108D01*
X-2320739Y7200198D01*
X-2331648Y7194745D01*
X-2353467Y7194745D01*
X-2364376Y7200198D01*
X-2375283Y7211108D01*
X-2380739Y7222017D01*
X-2386192Y7238382D01*
X-2386192Y7265654D01*
X-2380739Y7282017D01*
X-2375283Y7292926D01*
X-2364376Y7303836D01*
X-2353467Y7309289D01*
X-2331648Y7309289D01*
X-2422194Y7309289D02*
G01*
X-2422194Y7194745D01*
X-2422194Y7309289D02*
G01*
X-2465829Y7194745D01*
X-2509466Y7309289D02*
G01*
X-2465829Y7194745D01*
X-2509466Y7309289D02*
G01*
X-2509466Y7194745D01*
X436600Y7115411D02*
G01*
X436600Y7000867D01*
X436600Y7115411D02*
G01*
X387510Y7115411D01*
X371147Y7109957D01*
X365691Y7104504D01*
X360238Y7093595D01*
X360238Y7077229D01*
X365691Y7066321D01*
X371147Y7060867D01*
X387510Y7055411D01*
X436600Y7055411D01*
X280600Y7115411D02*
G01*
X324236Y7000867D01*
X280600Y7115411D02*
G01*
X236964Y7000867D01*
X307873Y7039048D02*
G01*
X253329Y7039048D01*
X200964Y7115411D02*
G01*
X200964Y7000867D01*
X200964Y7115411D02*
G01*
X151874Y7115411D01*
X135511Y7109957D01*
X130055Y7104504D01*
X124601Y7093595D01*
X124601Y7082685D01*
X130055Y7071776D01*
X135511Y7066321D01*
X151874Y7060867D01*
X200964Y7060867D01*
X162783Y7060867D02*
G01*
X124601Y7000867D01*
X50419Y7115411D02*
G01*
X50419Y7000867D01*
X88601Y7115411D02*
G01*
X12237Y7115411D01*
X-107762Y7115411D02*
G01*
X-107762Y7000867D01*
X-107762Y7115411D02*
G01*
X-184124Y7000867D01*
X-184124Y7115411D02*
G01*
X-184124Y7000867D01*
X-220126Y7115411D02*
G01*
X-220126Y7033595D01*
X-225579Y7017230D01*
X-236489Y7006321D01*
X-252851Y7000867D01*
X-263761Y7000867D01*
X-280126Y7006321D01*
X-291033Y7017230D01*
X-296489Y7033595D01*
X-296489Y7115411D01*
X-332488Y7115411D02*
G01*
X-332488Y7000867D01*
X-332488Y7115411D02*
G01*
X-376125Y7000867D01*
X-419760Y7115411D02*
G01*
X-376125Y7000867D01*
X-419760Y7115411D02*
G01*
X-419760Y7000867D01*
X-455762Y7115411D02*
G01*
X-455762Y7000867D01*
X-455762Y7115411D02*
G01*
X-504852Y7115411D01*
X-521215Y7109957D01*
X-526668Y7104504D01*
X-532124Y7093595D01*
X-532124Y7082685D01*
X-526668Y7071776D01*
X-521215Y7066321D01*
X-504852Y7060867D01*
X-455762Y7060867D02*
G01*
X-504852Y7060867D01*
X-521215Y7055411D01*
X-526668Y7049957D01*
X-532124Y7039048D01*
X-532124Y7022685D01*
X-526668Y7011776D01*
X-521215Y7006321D01*
X-504852Y7000867D01*
X-455762Y7000867D01*
X-568124Y7115411D02*
G01*
X-568124Y7000867D01*
X-568124Y7115411D02*
G01*
X-639033Y7115411D01*
X-568124Y7060867D02*
G01*
X-611761Y7060867D01*
X-568124Y7000867D02*
G01*
X-639033Y7000867D01*
X-675032Y7115411D02*
G01*
X-675032Y7000867D01*
X-675032Y7115411D02*
G01*
X-724123Y7115411D01*
X-740488Y7109957D01*
X-745942Y7104504D01*
X-751398Y7093595D01*
X-751398Y7082685D01*
X-745942Y7071776D01*
X-740488Y7066321D01*
X-724123Y7060867D01*
X-675032Y7060867D01*
X-713214Y7060867D02*
G01*
X-751398Y7000867D01*
X-898669Y7115411D02*
G01*
X-882307Y7109957D01*
X-876851Y7099048D01*
X-876851Y7088139D01*
X-882307Y7077229D01*
X-893213Y7071776D01*
X-915032Y7066321D01*
X-931397Y7060867D01*
X-942306Y7049957D01*
X-947760Y7039048D01*
X-947760Y7022685D01*
X-942306Y7011776D01*
X-936851Y7006321D01*
X-920488Y7000867D01*
X-898669Y7000867D01*
X-882307Y7006321D01*
X-876851Y7011776D01*
X-871397Y7022685D01*
X-871397Y7039048D01*
X-876851Y7049957D01*
X-887760Y7060867D01*
X-904123Y7066321D01*
X-925941Y7071776D01*
X-936851Y7077229D01*
X-942306Y7088139D01*
X-942306Y7099048D01*
X-936851Y7109957D01*
X-920488Y7115411D01*
X-898669Y7115411D01*
X-1049215Y7099048D02*
G01*
X-1043759Y7109957D01*
X-1027396Y7115411D01*
X-1016487Y7115411D01*
X-1000125Y7109957D01*
X-989215Y7093595D01*
X-983759Y7066321D01*
X-983759Y7039048D01*
X-989215Y7017230D01*
X-1000125Y7006321D01*
X-1016487Y7000867D01*
X-1021941Y7000867D01*
X-1038306Y7006321D01*
X-1049215Y7017230D01*
X-1054668Y7033595D01*
X-1054668Y7039048D01*
X-1049215Y7055411D01*
X-1038306Y7066321D01*
X-1021941Y7071776D01*
X-1016487Y7071776D01*
X-1000125Y7066321D01*
X-989215Y7055411D01*
X-983759Y7039048D01*
X-1161577Y7077229D02*
G01*
X-1156124Y7060867D01*
X-1145214Y7049957D01*
X-1128849Y7044504D01*
X-1123396Y7044504D01*
X-1107033Y7049957D01*
X-1096124Y7060867D01*
X-1090668Y7077229D01*
X-1090668Y7082685D01*
X-1096124Y7099048D01*
X-1107033Y7109957D01*
X-1123396Y7115411D01*
X-1128849Y7115411D01*
X-1145214Y7109957D01*
X-1156124Y7099048D01*
X-1161577Y7077229D01*
X-1161577Y7049957D01*
X-1156124Y7022685D01*
X-1145214Y7006321D01*
X-1128849Y7000867D01*
X-1117942Y7000867D01*
X-1101577Y7006321D01*
X-1096124Y7017230D01*
X-1230304Y7115411D02*
G01*
X-1213942Y7109957D01*
X-1203032Y7093595D01*
X-1197576Y7066321D01*
X-1197576Y7049957D01*
X-1203032Y7022685D01*
X-1213942Y7006321D01*
X-1230304Y7000867D01*
X-1241214Y7000867D01*
X-1257576Y7006321D01*
X-1268486Y7022685D01*
X-1273942Y7049957D01*
X-1273942Y7066321D01*
X-1268486Y7093595D01*
X-1257576Y7109957D01*
X-1241214Y7115411D01*
X-1230304Y7115411D01*
X-1309941Y7049957D02*
G01*
X-1408122Y7049957D01*
X-1476849Y7115411D02*
G01*
X-1460487Y7109957D01*
X-1449577Y7093595D01*
X-1444122Y7066321D01*
X-1444122Y7049957D01*
X-1449577Y7022685D01*
X-1460487Y7006321D01*
X-1476849Y7000867D01*
X-1487759Y7000867D01*
X-1504121Y7006321D01*
X-1515031Y7022685D01*
X-1520487Y7049957D01*
X-1520487Y7066321D01*
X-1515031Y7093595D01*
X-1504121Y7109957D01*
X-1487759Y7115411D01*
X-1476849Y7115411D01*
X-1561939Y7088139D02*
G01*
X-1561939Y7093595D01*
X-1567395Y7104504D01*
X-1572849Y7109957D01*
X-1583758Y7115411D01*
X-1605577Y7115411D01*
X-1616486Y7109957D01*
X-1621939Y7104504D01*
X-1627395Y7093595D01*
X-1627395Y7082685D01*
X-1621939Y7071776D01*
X-1611030Y7055411D01*
X-1556486Y7000867D01*
X-1632849Y7000867D01*
X-1701576Y7115411D02*
G01*
X-1685213Y7109957D01*
X-1674304Y7093595D01*
X-1668848Y7066321D01*
X-1668848Y7049957D01*
X-1674304Y7022685D01*
X-1685213Y7006321D01*
X-1701576Y7000867D01*
X-1712485Y7000867D01*
X-1728848Y7006321D01*
X-1739757Y7022685D01*
X-1745213Y7049957D01*
X-1745213Y7066321D01*
X-1739757Y7093595D01*
X-1728848Y7109957D01*
X-1712485Y7115411D01*
X-1701576Y7115411D01*
X-1781213Y7093595D02*
G01*
X-1792122Y7099048D01*
X-1808485Y7115411D01*
X-1808485Y7000867D01*
X-1928484Y7115411D02*
G01*
X-1972122Y7000867D01*
X-2015759Y7115411D02*
G01*
X-1972122Y7000867D01*
X-2084484Y7115411D02*
G01*
X-2068121Y7109957D01*
X-2057212Y7093595D01*
X-2051758Y7066321D01*
X-2051758Y7049957D01*
X-2057212Y7022685D01*
X-2068121Y7006321D01*
X-2084484Y7000867D01*
X-2095393Y7000867D01*
X-2111758Y7006321D01*
X-2122667Y7022685D01*
X-2128121Y7049957D01*
X-2128121Y7066321D01*
X-2122667Y7093595D01*
X-2111758Y7109957D01*
X-2095393Y7115411D01*
X-2084484Y7115411D01*
X-2169576Y7028139D02*
G01*
X-2164120Y7022685D01*
X-2169576Y7017230D01*
X-2175029Y7022685D01*
X-2169576Y7028139D01*
X-2211029Y7093595D02*
G01*
X-2221938Y7099048D01*
X-2238303Y7115411D01*
X-2238303Y7000867D01*
M02*
