M48
METRIC,LZ,000.000
;FILE_FORMAT=3:3
;TYPE=PLATED
;Layer: PTH_Through
;EasyEDA v6.5.29, 2023-07-18 10:20:05
;5756727701dd48799c60270c1c1368c4,5a6b42c53f6a479593ecc07194224c93,10
;Gerber Generator version 0.2
;Holesize 1 = 0.305 mm
T01C0.305
;Holesize 2 = 1.000 mm
T02C1.000
;Holesize 3 = 1.100 mm
T03C1.100
%
G05
G90
T01
X030312Y-003429
X-003343Y006858
X-003343Y002413
X004023Y-003429
X004023Y002413
X014818Y-002794
X014818Y002413
X-007534Y-000508
X-007534Y-002794
X-006899Y-011938
X-006899Y-001143
X026629Y006604
X026629Y002413
X039202Y006477
X015707Y-002794
X015707Y002413
X037551Y002032
X037551Y-002794
X-003343Y-008890
X014818Y-008890
X004023Y-008890
X015707Y-008890
X026629Y-008890
X030312Y-008890
X000000Y-011303
X000000Y000000
X041361Y-003683
X-000001Y-004064
X041361Y004572
X033909Y000000
X033909Y-011303
X033909Y-013208
X044663Y-013208
X022606Y000000
X022606Y-011303
X011303Y-011303
X011303Y000000
X041996Y002032
X041996Y006985
X011303Y006985
X041996Y-000508
X041996Y-001778
X022606Y-001777
T02
X-011979Y-011938
X-009439Y-011938
X039201Y-011938
X041741Y-011938
X-009439Y-003048
X-009439Y-000508
X-009439Y002032
X-009439Y004572
X039201Y-003048
X039201Y-000508
X039201Y002032
X039201Y004572
X043519Y-003048
X043519Y-000508
X043519Y002032
X043519Y004572
T03
X035464Y-011107G85X035469Y-011107
X028964Y-011107G85X028969Y-011107
X035464Y-006606G85X035469Y-006606
X028967Y-006606G85X028967Y-006606
X032216Y-005258G85X032218Y-005258
X035815Y-008857G85X035820Y-008857
X032417Y-012377G85X032420Y-012377
X028607Y-008821G85X028610Y-008821
X024161Y-011107G85X024166Y-011107
X017661Y-011107G85X017666Y-011107
X024161Y-006606G85X024166Y-006606
X017664Y-006606G85X017664Y-006606
X020913Y-005258G85X020915Y-005258
X024512Y-008857G85X024517Y-008857
X021114Y-012377G85X021117Y-012377
X017304Y-008821G85X017307Y-008821
X012858Y-011107G85X012863Y-011107
X006358Y-011107G85X006363Y-011107
X012858Y-006606G85X012863Y-006606
X006361Y-006606G85X006361Y-006606
X009610Y-005258G85X009612Y-005258
X013209Y-008857G85X013214Y-008857
X009811Y-012377G85X009814Y-012377
X006001Y-008821G85X006004Y-008821
X001555Y-011107G85X001560Y-011107
X-004945Y-011107G85X-004940Y-011107
X001555Y-006606G85X001560Y-006606
X-004942Y-006606G85X-004942Y-006606
X-001693Y-005258G85X-001691Y-005258
X001906Y-008857G85X001911Y-008857
X-001492Y-012377G85X-001489Y-012377
X-005302Y-008821G85X-005299Y-008821
X001555Y000196G85X001560Y000196
X-004945Y000196G85X-004940Y000196
X001555Y004697G85X001560Y004697
X-004942Y004697G85X-004942Y004697
X-001693Y006045G85X-001691Y006045
X001906Y002446G85X001911Y002446
X-001492Y-001074G85X-001489Y-001074
X-005302Y002482G85X-005299Y002482
X012858Y000196G85X012863Y000196
X006358Y000196G85X006363Y000196
X012858Y004697G85X012863Y004697
X006361Y004697G85X006361Y004697
X009610Y006045G85X009612Y006045
X013209Y002446G85X013214Y002446
X009811Y-001074G85X009814Y-001074
X006001Y002482G85X006004Y002482
X024161Y000196G85X024166Y000196
X017661Y000196G85X017666Y000196
X024161Y004697G85X024166Y004697
X017664Y004697G85X017664Y004697
X020913Y006045G85X020915Y006045
X024512Y002446G85X024517Y002446
X021114Y-001074G85X021117Y-001074
X017304Y002482G85X017307Y002482
X035464Y000196G85X035469Y000196
X028964Y000196G85X028969Y000196
X035464Y004697G85X035469Y004697
X028967Y004697G85X028967Y004697
X032215Y006045G85X032218Y006045
X035815Y002446G85X035820Y002446
X032417Y-001074G85X032420Y-001074
X028607Y002482G85X028610Y002482
M30
