M48
METRIC,LZ,000.000
;FILE_FORMAT=3:3
;TYPE=PLATED
;Layer: PTH_Through
;EasyEDA v6.5.29, 2023-07-18 10:32:44
;f0145a9d3cf84adf84608df9e98d150b,5a6b42c53f6a479593ecc07194224c93,10
;Gerber Generator version 0.2
;Holesize 1 = 0.305 mm
T01C0.305
;Holesize 2 = 1.000 mm
T02C1.000
;Holesize 3 = 1.101 mm
T03C1.101
;Holesize 4 = 1.200 mm
T04C1.200
;Holesize 5 = 2.701 mm
T05C2.701
%
G05
G90
T01
X034544Y105664
X004445Y019050
X004445Y061595
X004445Y091186
X048387Y091186
X003810Y064135
X003810Y021590
X003810Y091821
X047752Y091821
X003175Y092456
X042672Y092456
X003175Y059055
X002540Y024130
X002540Y064770
X016871Y107061
X045192Y107061
X034544Y111760
X011811Y111760
X002540Y099187
X020066Y099187
X001905Y026670
X001905Y065405
X001905Y099822
X019431Y099822
X059309Y105156
X014351Y098552
X057023Y098552
X056388Y064770
X003175Y100457
X025908Y103251
X025908Y100457
X003810Y101092
X025273Y105664
X025273Y101092
X003175Y094615
X003810Y093980
X006858Y066548
X007493Y041275
X006858Y038735
X007493Y067183
X057023Y062865
X057023Y060325
X014224Y062865
X014224Y011430
X015748Y011430
X015748Y060325
X056769Y038735
X057404Y036195
X058039Y033655
X057404Y021590
X056769Y024130
X056134Y041275
X056134Y027813
X044704Y026670
X044704Y056515
X045339Y024130
X045339Y053975
X045974Y021590
X045974Y048895
X046609Y019050
X046609Y046355
T02
X059309Y079375
X059309Y031115
X059309Y033655
X059309Y036195
X059309Y038735
X059309Y041275
X059309Y043815
X059309Y046355
X059309Y048895
X059309Y051435
X059309Y053975
X059309Y056515
X059309Y059055
X059309Y061595
X059309Y064135
X059309Y066675
X059309Y069215
X059309Y071755
X059309Y074295
X059309Y076835
X003810Y010160
X006350Y010160
X057531Y010160
X054991Y010160
X006350Y019050
X006350Y021590
X006350Y024130
X006350Y026670
X054991Y019050
X054991Y021590
X054991Y024130
X054991Y026670
X059309Y019050
X059309Y021590
X059309Y024130
X059309Y026670
T03
X014351Y109601
X014351Y107061
X019431Y109601
X019431Y107061
X042672Y109601
X042672Y107061
X047752Y109601
X047752Y107061
T04
X016871Y103251
X021971Y103251
X011791Y103251
X045192Y103251
X050292Y103251
X040112Y103251
T05
X004699Y108585
X057372Y108585
X004713Y014605
X057372Y014605
X052852Y095433
X009906Y095433
X052852Y033528
X009906Y033528
M30
