G04 Layer: BoardOutlineLayer*
G04 EasyEDA v6.5.29, 2023-07-18 10:35:04*
G04 3d4cdd4c9cf84954a9378beb5d92b1fd,5a6b42c53f6a479593ecc07194224c93,10*
G04 Gerber Generator version 0.2*
G04 Scale: 100 percent, Rotated: No, Reflected: No *
G04 Dimensions in millimeters *
G04 leading zeros omitted , absolute positions ,4 integer and 5 decimal *
%FSLAX45Y45*%
%MOMM*%

%ADD10C,0.2540*%
D10*
X0Y12852400D02*
G01*
X9131300Y12852400D01*
X9131300Y0D01*
X0Y0D01*
X0Y12852400D01*
X2203500Y812800D02*
G01*
X2203500Y1832800D01*
X2203500Y1832800D02*
G01*
X1183500Y1832800D01*
X1183500Y1832800D02*
G01*
X1183500Y812800D01*
X1183500Y812800D02*
G01*
X2203500Y812800D01*
X2203500Y1943100D02*
G01*
X2203500Y2963100D01*
X2203500Y2963100D02*
G01*
X1183500Y2963100D01*
X1183500Y2963100D02*
G01*
X1183500Y1943100D01*
X1183500Y1943100D02*
G01*
X2203500Y1943100D01*
X4121200Y1943100D02*
G01*
X4121200Y2963100D01*
X4121200Y2963100D02*
G01*
X3101200Y2963100D01*
X3101200Y2963100D02*
G01*
X3101200Y1943100D01*
X3101200Y1943100D02*
G01*
X4121200Y1943100D01*
X4121200Y812800D02*
G01*
X4121200Y1832800D01*
X4121200Y1832800D02*
G01*
X3101200Y1832800D01*
X3101200Y1832800D02*
G01*
X3101200Y812800D01*
X3101200Y812800D02*
G01*
X4121200Y812800D01*
X6026200Y1943100D02*
G01*
X6026200Y2963100D01*
X6026200Y2963100D02*
G01*
X5006200Y2963100D01*
X5006200Y2963100D02*
G01*
X5006200Y1943100D01*
X5006200Y1943100D02*
G01*
X6026200Y1943100D01*
X6026200Y812800D02*
G01*
X6026200Y1832800D01*
X6026200Y1832800D02*
G01*
X5006200Y1832800D01*
X5006200Y1832800D02*
G01*
X5006200Y812800D01*
X5006200Y812800D02*
G01*
X6026200Y812800D01*
X7943900Y1943100D02*
G01*
X7943900Y2963100D01*
X7943900Y2963100D02*
G01*
X6923900Y2963100D01*
X6923900Y2963100D02*
G01*
X6923900Y1943100D01*
X6923900Y1943100D02*
G01*
X7943900Y1943100D01*
X7943900Y812800D02*
G01*
X7943900Y1832800D01*
X7943900Y1832800D02*
G01*
X6923900Y1832800D01*
X6923900Y1832800D02*
G01*
X6923900Y812800D01*
X6923900Y812800D02*
G01*
X7943900Y812800D01*

%LPD*%
M02*
