G04 Layer: BottomSilkscreenLayer*
G04 EasyEDA v6.5.29, 2023-07-18 11:26:45*
G04 dee4f192ebb34c66a732ff03969ef4b9,5a6b42c53f6a479593ecc07194224c93,10*
G04 Gerber Generator version 0.2*
G04 Scale: 100 percent, Rotated: No, Reflected: No *
G04 Dimensions in millimeters *
G04 leading zeros omitted , absolute positions ,4 integer and 5 decimal *
%FSLAX45Y45*%
%MOMM*%

%ADD10C,0.2032*%
%ADD11C,0.2540*%

%LPD*%
D10*
X3055081Y1059017D02*
G01*
X3060537Y1069926D01*
X3071446Y1080836D01*
X3082353Y1086289D01*
X3104172Y1086289D01*
X3115081Y1080836D01*
X3125990Y1069926D01*
X3131446Y1059017D01*
X3136900Y1042654D01*
X3136900Y1015382D01*
X3131446Y999017D01*
X3125990Y988108D01*
X3115081Y977198D01*
X3104172Y971745D01*
X3082353Y971745D01*
X3071446Y977198D01*
X3060537Y988108D01*
X3055081Y999017D01*
X2986354Y1086289D02*
G01*
X2997263Y1080836D01*
X3008172Y1069926D01*
X3013628Y1059017D01*
X3019082Y1042654D01*
X3019082Y1015382D01*
X3013628Y999017D01*
X3008172Y988108D01*
X2997263Y977198D01*
X2986354Y971745D01*
X2964535Y971745D01*
X2953628Y977198D01*
X2942719Y988108D01*
X2937263Y999017D01*
X2931810Y1015382D01*
X2931810Y1042654D01*
X2937263Y1059017D01*
X2942719Y1069926D01*
X2953628Y1080836D01*
X2964535Y1086289D01*
X2986354Y1086289D01*
X2895810Y1086289D02*
G01*
X2895810Y971745D01*
X2895810Y1086289D02*
G01*
X2846717Y1086289D01*
X2830355Y1080836D01*
X2824901Y1075382D01*
X2819445Y1064473D01*
X2819445Y1048108D01*
X2824901Y1037198D01*
X2830355Y1031745D01*
X2846717Y1026289D01*
X2895810Y1026289D01*
X2783446Y1086289D02*
G01*
X2739809Y1031745D01*
X2739809Y971745D01*
X2696174Y1086289D02*
G01*
X2739809Y1031745D01*
X2660172Y1086289D02*
G01*
X2660172Y971745D01*
X2660172Y1086289D02*
G01*
X2611081Y1086289D01*
X2594719Y1080836D01*
X2589265Y1075382D01*
X2583809Y1064473D01*
X2583809Y1053564D01*
X2589265Y1042654D01*
X2594719Y1037198D01*
X2611081Y1031745D01*
X2660172Y1031745D01*
X2621991Y1031745D02*
G01*
X2583809Y971745D01*
X2547810Y1086289D02*
G01*
X2547810Y971745D01*
X2429992Y1059017D02*
G01*
X2435445Y1069926D01*
X2446355Y1080836D01*
X2457264Y1086289D01*
X2479083Y1086289D01*
X2489992Y1080836D01*
X2500901Y1069926D01*
X2506355Y1059017D01*
X2511811Y1042654D01*
X2511811Y1015382D01*
X2506355Y999017D01*
X2500901Y988108D01*
X2489992Y977198D01*
X2479083Y971745D01*
X2457264Y971745D01*
X2446355Y977198D01*
X2435445Y988108D01*
X2429992Y999017D01*
X2429992Y1015382D01*
X2457264Y1015382D02*
G01*
X2429992Y1015382D01*
X2393993Y1086289D02*
G01*
X2393993Y971745D01*
X2317628Y1086289D02*
G01*
X2317628Y971745D01*
X2393993Y1031745D02*
G01*
X2317628Y1031745D01*
X2243447Y1086289D02*
G01*
X2243447Y971745D01*
X2281628Y1086289D02*
G01*
X2205266Y1086289D01*
X2079810Y1059017D02*
G01*
X2079810Y1064473D01*
X2074357Y1075382D01*
X2068901Y1080836D01*
X2057991Y1086289D01*
X2036175Y1086289D01*
X2025266Y1080836D01*
X2019810Y1075382D01*
X2014357Y1064473D01*
X2014357Y1053564D01*
X2019810Y1042654D01*
X2030719Y1026289D01*
X2085266Y971745D01*
X2008901Y971745D01*
X1940173Y1086289D02*
G01*
X1956539Y1080836D01*
X1967448Y1064473D01*
X1972901Y1037198D01*
X1972901Y1020836D01*
X1967448Y993564D01*
X1956539Y977198D01*
X1940173Y971745D01*
X1929267Y971745D01*
X1912901Y977198D01*
X1901992Y993564D01*
X1896539Y1020836D01*
X1896539Y1037198D01*
X1901992Y1064473D01*
X1912901Y1080836D01*
X1929267Y1086289D01*
X1940173Y1086289D01*
X1855083Y1059017D02*
G01*
X1855083Y1064473D01*
X1849630Y1075382D01*
X1844174Y1080836D01*
X1833265Y1086289D01*
X1811449Y1086289D01*
X1800539Y1080836D01*
X1795084Y1075382D01*
X1789630Y1064473D01*
X1789630Y1053564D01*
X1795084Y1042654D01*
X1805993Y1026289D01*
X1860539Y971745D01*
X1784174Y971745D01*
X1737266Y1086289D02*
G01*
X1677266Y1086289D01*
X1709994Y1042654D01*
X1693631Y1042654D01*
X1682722Y1037198D01*
X1677266Y1031745D01*
X1671812Y1015382D01*
X1671812Y1004473D01*
X1677266Y988108D01*
X1688175Y977198D01*
X1704538Y971745D01*
X1720903Y971745D01*
X1737266Y977198D01*
X1742721Y982654D01*
X1748175Y993564D01*
X1551813Y1086289D02*
G01*
X1508175Y971745D01*
X1464538Y1086289D02*
G01*
X1508175Y971745D01*
X1428539Y1086289D02*
G01*
X1428539Y971745D01*
X1428539Y1086289D02*
G01*
X1357629Y1086289D01*
X1428539Y1031745D02*
G01*
X1384904Y1031745D01*
X1428539Y971745D02*
G01*
X1357629Y971745D01*
X1245268Y1086289D02*
G01*
X1299811Y971745D01*
X1321630Y1086289D02*
G01*
X1245268Y1086289D01*
X1209268Y1086289D02*
G01*
X1209268Y971745D01*
X1209268Y1086289D02*
G01*
X1138359Y1086289D01*
X1209268Y1031745D02*
G01*
X1165631Y1031745D01*
X1102357Y1086289D02*
G01*
X1102357Y971745D01*
X1066358Y1086289D02*
G01*
X1066358Y971745D01*
X1066358Y1086289D02*
G01*
X1022723Y971745D01*
X979086Y1086289D02*
G01*
X1022723Y971745D01*
X979086Y1086289D02*
G01*
X979086Y971745D01*
X2574290Y1734057D02*
G01*
X2574290Y1646681D01*
X2579877Y1630426D01*
X2585211Y1624837D01*
X2596134Y1619504D01*
X2607056Y1619504D01*
X2617977Y1624837D01*
X2623565Y1630426D01*
X2628900Y1646681D01*
X2628900Y1657604D01*
X2538475Y1734057D02*
G01*
X2538475Y1619504D01*
X2538475Y1619504D02*
G01*
X2472943Y1619504D01*
X2355088Y1706626D02*
G01*
X2360422Y1717547D01*
X2371343Y1728470D01*
X2382265Y1734057D01*
X2404109Y1734057D01*
X2415031Y1728470D01*
X2425954Y1717547D01*
X2431541Y1706626D01*
X2436875Y1690370D01*
X2436875Y1663192D01*
X2431541Y1646681D01*
X2425954Y1635760D01*
X2415031Y1624837D01*
X2404109Y1619504D01*
X2382265Y1619504D01*
X2371343Y1624837D01*
X2360422Y1635760D01*
X2355088Y1646681D01*
X2264663Y1734057D02*
G01*
X2264663Y1646681D01*
X2269997Y1630426D01*
X2275331Y1624837D01*
X2286254Y1619504D01*
X2297175Y1619504D01*
X2308097Y1624837D01*
X2313686Y1630426D01*
X2319020Y1646681D01*
X2319020Y1657604D01*
X2228595Y1734057D02*
G01*
X2228595Y1619504D01*
X2228595Y1619504D02*
G01*
X2163063Y1619504D01*
X2045208Y1706626D02*
G01*
X2050795Y1717547D01*
X2061718Y1728470D01*
X2072640Y1734057D01*
X2094229Y1734057D01*
X2105152Y1728470D01*
X2116074Y1717547D01*
X2121661Y1706626D01*
X2126995Y1690370D01*
X2126995Y1663192D01*
X2121661Y1646681D01*
X2116074Y1635760D01*
X2105152Y1624837D01*
X2094229Y1619504D01*
X2072640Y1619504D01*
X2061718Y1624837D01*
X2050795Y1635760D01*
X2045208Y1646681D01*
X1954784Y1734057D02*
G01*
X1954784Y1646681D01*
X1960118Y1630426D01*
X1965706Y1624837D01*
X1976627Y1619504D01*
X1987550Y1619504D01*
X1998472Y1624837D01*
X2003806Y1630426D01*
X2009140Y1646681D01*
X2009140Y1657604D01*
X1918715Y1734057D02*
G01*
X1918715Y1619504D01*
X1918715Y1619504D02*
G01*
X1853184Y1619504D01*
X1735327Y1706626D02*
G01*
X1740915Y1717547D01*
X1751838Y1728470D01*
X1762759Y1734057D01*
X1784604Y1734057D01*
X1795525Y1728470D01*
X1806447Y1717547D01*
X1811781Y1706626D01*
X1817370Y1690370D01*
X1817370Y1663192D01*
X1811781Y1646681D01*
X1806447Y1635760D01*
X1795525Y1624837D01*
X1784604Y1619504D01*
X1762759Y1619504D01*
X1751838Y1624837D01*
X1740915Y1635760D01*
X1735327Y1646681D01*
X1644904Y1734057D02*
G01*
X1644904Y1646681D01*
X1650238Y1630426D01*
X1655825Y1624837D01*
X1666747Y1619504D01*
X1677670Y1619504D01*
X1688591Y1624837D01*
X1693925Y1630426D01*
X1699513Y1646681D01*
X1699513Y1657604D01*
X1608836Y1734057D02*
G01*
X1608836Y1619504D01*
X1608836Y1619504D02*
G01*
X1543558Y1619504D01*
X1425702Y1706626D02*
G01*
X1431036Y1717547D01*
X1441958Y1728470D01*
X1452879Y1734057D01*
X1474724Y1734057D01*
X1485645Y1728470D01*
X1496568Y1717547D01*
X1501902Y1706626D01*
X1507490Y1690370D01*
X1507490Y1663192D01*
X1501902Y1646681D01*
X1496568Y1635760D01*
X1485645Y1624837D01*
X1474724Y1619504D01*
X1452879Y1619504D01*
X1441958Y1624837D01*
X1431036Y1635760D01*
X1425702Y1646681D01*
X3937000Y12084489D02*
G01*
X3937000Y11969945D01*
X3937000Y12084489D02*
G01*
X3893362Y11969945D01*
X3849728Y12084489D02*
G01*
X3893362Y11969945D01*
X3849728Y12084489D02*
G01*
X3849728Y11969945D01*
X3715545Y12106308D02*
G01*
X3813728Y11931764D01*
X3679545Y12084489D02*
G01*
X3679545Y11969945D01*
X3679545Y12084489D02*
G01*
X3608636Y12084489D01*
X3679545Y12029945D02*
G01*
X3635910Y12029945D01*
X3679545Y11969945D02*
G01*
X3608636Y11969945D01*
X3488636Y12084489D02*
G01*
X3488636Y11969945D01*
X3488636Y12084489D02*
G01*
X3439546Y12084489D01*
X3423183Y12079036D01*
X3417727Y12073582D01*
X3412274Y12062673D01*
X3412274Y12046308D01*
X3417727Y12035399D01*
X3423183Y12029945D01*
X3439546Y12024489D01*
X3488636Y12024489D01*
X3343546Y12084489D02*
G01*
X3354456Y12079036D01*
X3365365Y12068126D01*
X3370818Y12057217D01*
X3376274Y12040854D01*
X3376274Y12013582D01*
X3370818Y11997217D01*
X3365365Y11986308D01*
X3354456Y11975399D01*
X3343546Y11969945D01*
X3321728Y11969945D01*
X3310818Y11975399D01*
X3299909Y11986308D01*
X3294456Y11997217D01*
X3289000Y12013582D01*
X3289000Y12040854D01*
X3294456Y12057217D01*
X3299909Y12068126D01*
X3310818Y12079036D01*
X3321728Y12084489D01*
X3343546Y12084489D01*
X3253000Y12084489D02*
G01*
X3225728Y11969945D01*
X3198456Y12084489D02*
G01*
X3225728Y11969945D01*
X3198456Y12084489D02*
G01*
X3171182Y11969945D01*
X3143910Y12084489D02*
G01*
X3171182Y11969945D01*
X3107910Y12084489D02*
G01*
X3107910Y11969945D01*
X3107910Y12084489D02*
G01*
X3037001Y12084489D01*
X3107910Y12029945D02*
G01*
X3064273Y12029945D01*
X3107910Y11969945D02*
G01*
X3037001Y11969945D01*
X3001002Y12084489D02*
G01*
X3001002Y11969945D01*
X3001002Y12084489D02*
G01*
X2951911Y12084489D01*
X2935546Y12079036D01*
X2930093Y12073582D01*
X2924637Y12062673D01*
X2924637Y12051764D01*
X2930093Y12040854D01*
X2935546Y12035399D01*
X2951911Y12029945D01*
X3001002Y12029945D01*
X2962821Y12029945D02*
G01*
X2924637Y11969945D01*
X2804637Y12084489D02*
G01*
X2804637Y11969945D01*
X2804637Y12084489D02*
G01*
X2733730Y12084489D01*
X2804637Y12029945D02*
G01*
X2761002Y12029945D01*
X2697728Y12084489D02*
G01*
X2697728Y11969945D01*
X2697728Y12084489D02*
G01*
X2648638Y12084489D01*
X2632275Y12079036D01*
X2626819Y12073582D01*
X2621366Y12062673D01*
X2621366Y12051764D01*
X2626819Y12040854D01*
X2632275Y12035399D01*
X2648638Y12029945D01*
X2697728Y12029945D01*
X2659547Y12029945D02*
G01*
X2621366Y11969945D01*
X2552639Y12084489D02*
G01*
X2563548Y12079036D01*
X2574457Y12068126D01*
X2579911Y12057217D01*
X2585366Y12040854D01*
X2585366Y12013582D01*
X2579911Y11997217D01*
X2574457Y11986308D01*
X2563548Y11975399D01*
X2552639Y11969945D01*
X2530820Y11969945D01*
X2519911Y11975399D01*
X2509001Y11986308D01*
X2503548Y11997217D01*
X2498092Y12013582D01*
X2498092Y12040854D01*
X2503548Y12057217D01*
X2509001Y12068126D01*
X2519911Y12079036D01*
X2530820Y12084489D01*
X2552639Y12084489D01*
X2462093Y12084489D02*
G01*
X2462093Y11969945D01*
X2462093Y12084489D02*
G01*
X2385730Y11969945D01*
X2385730Y12084489D02*
G01*
X2385730Y11969945D01*
X2311549Y12084489D02*
G01*
X2311549Y11969945D01*
X2349731Y12084489D02*
G01*
X2273366Y12084489D01*
X2153366Y12084489D02*
G01*
X2153366Y11969945D01*
X2153366Y12084489D02*
G01*
X2104275Y12084489D01*
X2087913Y12079036D01*
X2082457Y12073582D01*
X2077003Y12062673D01*
X2077003Y12046308D01*
X2082457Y12035399D01*
X2087913Y12029945D01*
X2104275Y12024489D01*
X2153366Y12024489D01*
X1997367Y12084489D02*
G01*
X2041004Y11969945D01*
X1997367Y12084489D02*
G01*
X1953732Y11969945D01*
X2024639Y12008126D02*
G01*
X1970095Y12008126D01*
X1917730Y12084489D02*
G01*
X1917730Y11969945D01*
X1917730Y12084489D02*
G01*
X1841367Y11969945D01*
X1841367Y12084489D02*
G01*
X1841367Y11969945D01*
X1805368Y12084489D02*
G01*
X1805368Y11969945D01*
X1805368Y12084489D02*
G01*
X1734459Y12084489D01*
X1805368Y12029945D02*
G01*
X1761731Y12029945D01*
X1805368Y11969945D02*
G01*
X1734459Y11969945D01*
X1698459Y12084489D02*
G01*
X1698459Y11969945D01*
X1698459Y11969945D02*
G01*
X1633004Y11969945D01*
X3937000Y11881289D02*
G01*
X3937000Y11766745D01*
X3937000Y11881289D02*
G01*
X3887909Y11881289D01*
X3871546Y11875836D01*
X3866090Y11870382D01*
X3860637Y11859473D01*
X3860637Y11843108D01*
X3866090Y11832199D01*
X3871546Y11826745D01*
X3887909Y11821289D01*
X3937000Y11821289D01*
X3781000Y11881289D02*
G01*
X3824635Y11766745D01*
X3781000Y11881289D02*
G01*
X3737363Y11766745D01*
X3808272Y11804926D02*
G01*
X3753728Y11804926D01*
X3701364Y11881289D02*
G01*
X3701364Y11766745D01*
X3701364Y11881289D02*
G01*
X3652273Y11881289D01*
X3635910Y11875836D01*
X3630455Y11870382D01*
X3625000Y11859473D01*
X3625000Y11848564D01*
X3630455Y11837654D01*
X3635910Y11832199D01*
X3652273Y11826745D01*
X3701364Y11826745D01*
X3663182Y11826745D02*
G01*
X3625000Y11766745D01*
X3550818Y11881289D02*
G01*
X3550818Y11766745D01*
X3589000Y11881289D02*
G01*
X3512637Y11881289D01*
X3392637Y11881289D02*
G01*
X3392637Y11766745D01*
X3392637Y11881289D02*
G01*
X3316274Y11766745D01*
X3316274Y11881289D02*
G01*
X3316274Y11766745D01*
X3280272Y11881289D02*
G01*
X3280272Y11799473D01*
X3274819Y11783108D01*
X3263910Y11772199D01*
X3247547Y11766745D01*
X3236638Y11766745D01*
X3220272Y11772199D01*
X3209366Y11783108D01*
X3203910Y11799473D01*
X3203910Y11881289D01*
X3167910Y11881289D02*
G01*
X3167910Y11766745D01*
X3167910Y11881289D02*
G01*
X3124273Y11766745D01*
X3080638Y11881289D02*
G01*
X3124273Y11766745D01*
X3080638Y11881289D02*
G01*
X3080638Y11766745D01*
X3044637Y11881289D02*
G01*
X3044637Y11766745D01*
X3044637Y11881289D02*
G01*
X2995546Y11881289D01*
X2979183Y11875836D01*
X2973730Y11870382D01*
X2968274Y11859473D01*
X2968274Y11848564D01*
X2973730Y11837654D01*
X2979183Y11832199D01*
X2995546Y11826745D01*
X3044637Y11826745D02*
G01*
X2995546Y11826745D01*
X2979183Y11821289D01*
X2973730Y11815836D01*
X2968274Y11804926D01*
X2968274Y11788564D01*
X2973730Y11777654D01*
X2979183Y11772199D01*
X2995546Y11766745D01*
X3044637Y11766745D01*
X2932275Y11881289D02*
G01*
X2932275Y11766745D01*
X2932275Y11881289D02*
G01*
X2861365Y11881289D01*
X2932275Y11826745D02*
G01*
X2888637Y11826745D01*
X2932275Y11766745D02*
G01*
X2861365Y11766745D01*
X2825366Y11881289D02*
G01*
X2825366Y11766745D01*
X2825366Y11881289D02*
G01*
X2776275Y11881289D01*
X2759910Y11875836D01*
X2754457Y11870382D01*
X2749001Y11859473D01*
X2749001Y11848564D01*
X2754457Y11837654D01*
X2759910Y11832199D01*
X2776275Y11826745D01*
X2825366Y11826745D01*
X2787185Y11826745D02*
G01*
X2749001Y11766745D01*
X2623548Y11854017D02*
G01*
X2623548Y11859473D01*
X2618092Y11870382D01*
X2612638Y11875836D01*
X2601729Y11881289D01*
X2579911Y11881289D01*
X2569001Y11875836D01*
X2563548Y11870382D01*
X2558092Y11859473D01*
X2558092Y11848564D01*
X2563548Y11837654D01*
X2574457Y11821289D01*
X2629001Y11766745D01*
X2552639Y11766745D01*
X2489367Y11881289D02*
G01*
X2505730Y11875836D01*
X2511183Y11864926D01*
X2511183Y11854017D01*
X2505730Y11843108D01*
X2494821Y11837654D01*
X2473002Y11832199D01*
X2456639Y11826745D01*
X2445730Y11815836D01*
X2440274Y11804926D01*
X2440274Y11788564D01*
X2445730Y11777654D01*
X2451183Y11772199D01*
X2467549Y11766745D01*
X2489367Y11766745D01*
X2505730Y11772199D01*
X2511183Y11777654D01*
X2516639Y11788564D01*
X2516639Y11804926D01*
X2511183Y11815836D01*
X2500274Y11826745D01*
X2483911Y11832199D01*
X2462093Y11837654D01*
X2451183Y11843108D01*
X2445730Y11854017D01*
X2445730Y11864926D01*
X2451183Y11875836D01*
X2467549Y11881289D01*
X2489367Y11881289D01*
X2333365Y11843108D02*
G01*
X2338821Y11826745D01*
X2349731Y11815836D01*
X2366093Y11810382D01*
X2371549Y11810382D01*
X2387912Y11815836D01*
X2398821Y11826745D01*
X2404275Y11843108D01*
X2404275Y11848564D01*
X2398821Y11864926D01*
X2387912Y11875836D01*
X2371549Y11881289D01*
X2366093Y11881289D01*
X2349731Y11875836D01*
X2338821Y11864926D01*
X2333365Y11843108D01*
X2333365Y11815836D01*
X2338821Y11788564D01*
X2349731Y11772199D01*
X2366093Y11766745D01*
X2377003Y11766745D01*
X2393365Y11772199D01*
X2398821Y11783108D01*
X2264638Y11881289D02*
G01*
X2281003Y11875836D01*
X2291913Y11859473D01*
X2297366Y11832199D01*
X2297366Y11815836D01*
X2291913Y11788564D01*
X2281003Y11772199D01*
X2264638Y11766745D01*
X2253731Y11766745D01*
X2237366Y11772199D01*
X2226457Y11788564D01*
X2221003Y11815836D01*
X2221003Y11832199D01*
X2226457Y11859473D01*
X2237366Y11875836D01*
X2253731Y11881289D01*
X2264638Y11881289D01*
X2185004Y11815836D02*
G01*
X2086820Y11815836D01*
X2018093Y11881289D02*
G01*
X2034458Y11875836D01*
X2045368Y11859473D01*
X2050821Y11832199D01*
X2050821Y11815836D01*
X2045368Y11788564D01*
X2034458Y11772199D01*
X2018093Y11766745D01*
X2007186Y11766745D01*
X1990821Y11772199D01*
X1979912Y11788564D01*
X1974458Y11815836D01*
X1974458Y11832199D01*
X1979912Y11859473D01*
X1990821Y11875836D01*
X2007186Y11881289D01*
X2018093Y11881289D01*
X1938459Y11859473D02*
G01*
X1927550Y11864926D01*
X1911184Y11881289D01*
X1911184Y11766745D01*
X1842457Y11881289D02*
G01*
X1858822Y11875836D01*
X1869732Y11859473D01*
X1875185Y11832199D01*
X1875185Y11815836D01*
X1869732Y11788564D01*
X1858822Y11772199D01*
X1842457Y11766745D01*
X1831550Y11766745D01*
X1815185Y11772199D01*
X1804276Y11788564D01*
X1798822Y11815836D01*
X1798822Y11832199D01*
X1804276Y11859473D01*
X1815185Y11875836D01*
X1831550Y11881289D01*
X1842457Y11881289D01*
X1762823Y11859473D02*
G01*
X1751914Y11864926D01*
X1735548Y11881289D01*
X1735548Y11766745D01*
X1615549Y11881289D02*
G01*
X1571914Y11766745D01*
X1528277Y11881289D02*
G01*
X1571914Y11766745D01*
X1492277Y11859473D02*
G01*
X1481368Y11864926D01*
X1465005Y11881289D01*
X1465005Y11766745D01*
D11*
X436118Y10705693D02*
G01*
X3636111Y10705693D01*
X3636111Y6305702D01*
X436118Y6305702D01*
X436118Y10705693D01*
M02*
