M48
METRIC,LZ,000.000
;FILE_FORMAT=3:3
;TYPE=PLATED
;Layer: PTH_Through_Via
;EasyEDA v6.5.29, 2023-07-18 11:14:52
;afe15dd53e0047d18e41e40897773fa5,5a6b42c53f6a479593ecc07194224c93,10
;Gerber Generator version 0.2
;Holesize 1 = 0.305 mm
T01C0.305
%
G05
G90
T01
X016383Y044196
X016383Y049022
X016383Y053848
X016383Y058674
X016383Y063500
X016383Y068326
X016383Y073152
X016383Y077978
X016383Y082804
X016383Y087630
X016383Y092456
X016383Y097282
X016383Y102108
X013335Y041910
X011684Y041910
X011684Y046736
X013335Y046736
X013335Y051562
X011684Y051562
X011684Y056388
X013335Y056388
X011684Y061214
X013335Y061214
X011684Y066040
X013335Y066040
X011684Y070866
X013335Y070866
X011684Y075692
X013335Y075692
X011684Y080518
X013335Y080518
X011684Y085344
X013335Y085344
X011684Y090170
X013335Y090170
X011684Y094996
X013335Y094996
X011684Y099822
X013335Y099822
X011684Y104648
X013335Y104648
X020320Y113538
X020320Y040132
X013843Y113538
X015875Y109347
X019050Y104864
X019050Y109347
X019050Y100038
X019050Y095213
X019050Y090387
X019050Y085562
X019050Y080736
X019050Y075911
X019050Y071085
X019050Y066260
X019050Y061434
X019050Y056609
X019050Y051783
X019050Y046958
X019050Y042132
X011684Y109347
X010160Y107950
X010160Y038100
X021590Y111887
M30
