G04 Layer: TopSolderMaskLayer*
G04 EasyEDA v6.5.29, 2023-07-18 11:14:52*
G04 afe15dd53e0047d18e41e40897773fa5,5a6b42c53f6a479593ecc07194224c93,10*
G04 Gerber Generator version 0.2*
G04 Scale: 100 percent, Rotated: No, Reflected: No *
G04 Dimensions in millimeters *
G04 leading zeros omitted , absolute positions ,4 integer and 5 decimal *
%FSLAX45Y45*%
%MOMM*%

%AMMACRO1*1,1,$1,$2,$3*1,1,$1,$4,$5*1,1,$1,0-$2,0-$3*1,1,$1,0-$4,0-$5*20,1,$1,$2,$3,$4,$5,0*20,1,$1,$4,$5,0-$2,0-$3,0*20,1,$1,0-$2,0-$3,0-$4,0-$5,0*20,1,$1,0-$4,0-$5,$2,$3,0*4,1,4,$2,$3,$4,$5,0-$2,0-$3,0-$4,0-$5,$2,$3,0*%
%ADD10C,1.5016*%
%ADD11MACRO1,0.1016X-0.762X-0.7X0.762X-0.7*%
%ADD12MACRO1,0.1016X-0.27X0.395X0.27X0.395*%
%ADD13MACRO1,0.1016X-0.27X-0.395X0.27X-0.395*%
%ADD14MACRO1,0.1016X-0.275X-0.275X-0.275X0.275*%

%LPD*%
D10*
G01*
X1785899Y11188700D03*
G01*
X1585899Y11188700D03*
G01*
X1385900Y11188700D03*
D11*
G01*
X1185900Y11188700D03*
D12*
G01*
X1739900Y4695294D03*
D13*
G01*
X1739900Y4804305D03*
D14*
G01*
X1641576Y5076719D03*
G01*
X1641576Y4981698D03*
G01*
X1736592Y4981698D03*
G01*
X1736597Y5076720D03*
D12*
G01*
X1739900Y5177894D03*
D13*
G01*
X1739900Y5286905D03*
D12*
G01*
X1739900Y5660494D03*
D13*
G01*
X1739900Y5769505D03*
D14*
G01*
X1641576Y5559319D03*
G01*
X1641576Y5464298D03*
G01*
X1736592Y5464298D03*
G01*
X1736597Y5559320D03*
D12*
G01*
X1739900Y6143094D03*
D13*
G01*
X1739900Y6252105D03*
D14*
G01*
X1641576Y6041919D03*
G01*
X1641576Y5946898D03*
G01*
X1736592Y5946898D03*
G01*
X1736597Y6041920D03*
D12*
G01*
X1739900Y6625694D03*
D13*
G01*
X1739900Y6734705D03*
D14*
G01*
X1641576Y6524519D03*
G01*
X1641576Y6429498D03*
G01*
X1736592Y6429498D03*
G01*
X1736597Y6524520D03*
D12*
G01*
X1739900Y7108294D03*
D13*
G01*
X1739900Y7217305D03*
D14*
G01*
X1641576Y7007119D03*
G01*
X1641576Y6912098D03*
G01*
X1736592Y6912098D03*
G01*
X1736597Y7007120D03*
D12*
G01*
X1739900Y7590894D03*
D13*
G01*
X1739900Y7699905D03*
D14*
G01*
X1641576Y7489719D03*
G01*
X1641576Y7394698D03*
G01*
X1736592Y7394698D03*
G01*
X1736597Y7489720D03*
D12*
G01*
X1739900Y8073494D03*
D13*
G01*
X1739900Y8182505D03*
D14*
G01*
X1641576Y7972319D03*
G01*
X1641576Y7877298D03*
G01*
X1736592Y7877298D03*
G01*
X1736597Y7972320D03*
D12*
G01*
X1739900Y8556094D03*
D13*
G01*
X1739900Y8665105D03*
D14*
G01*
X1641576Y8454919D03*
G01*
X1641576Y8359898D03*
G01*
X1736592Y8359898D03*
G01*
X1736597Y8454920D03*
D12*
G01*
X1739900Y9038694D03*
D13*
G01*
X1739900Y9147705D03*
D14*
G01*
X1641576Y8937519D03*
G01*
X1641576Y8842498D03*
G01*
X1736592Y8842498D03*
G01*
X1736597Y8937520D03*
D12*
G01*
X1739900Y9521294D03*
D13*
G01*
X1739900Y9630305D03*
D14*
G01*
X1641576Y9420119D03*
G01*
X1641576Y9325098D03*
G01*
X1736592Y9325098D03*
G01*
X1736597Y9420120D03*
D12*
G01*
X1739900Y10003894D03*
D13*
G01*
X1739900Y10112905D03*
D14*
G01*
X1641576Y9902719D03*
G01*
X1641576Y9807698D03*
G01*
X1736592Y9807698D03*
G01*
X1736597Y9902720D03*
D12*
G01*
X1739900Y10486494D03*
D13*
G01*
X1739900Y10595505D03*
D14*
G01*
X1641576Y10385319D03*
G01*
X1641576Y10290298D03*
G01*
X1736592Y10290298D03*
G01*
X1736597Y10385320D03*
D12*
G01*
X1231900Y4288894D03*
D13*
G01*
X1231900Y4397905D03*
D14*
G01*
X1235176Y4107811D03*
G01*
X1235176Y4012789D03*
G01*
X1330192Y4012789D03*
G01*
X1330197Y4107812D03*
G01*
X1235176Y4590411D03*
G01*
X1235176Y4495389D03*
G01*
X1330192Y4495389D03*
G01*
X1330197Y4590412D03*
D12*
G01*
X1231900Y4771494D03*
D13*
G01*
X1231900Y4880505D03*
D12*
G01*
X1231900Y5254094D03*
D13*
G01*
X1231900Y5363105D03*
D14*
G01*
X1235176Y5073011D03*
G01*
X1235176Y4977989D03*
G01*
X1330192Y4977989D03*
G01*
X1330197Y5073012D03*
G01*
X1235176Y5555611D03*
G01*
X1235176Y5460589D03*
G01*
X1330192Y5460589D03*
G01*
X1330197Y5555612D03*
D12*
G01*
X1231900Y5736694D03*
D13*
G01*
X1231900Y5845705D03*
D14*
G01*
X1235176Y6038211D03*
G01*
X1235176Y5943189D03*
G01*
X1330192Y5943189D03*
G01*
X1330197Y6038212D03*
D12*
G01*
X1231900Y6219294D03*
D13*
G01*
X1231900Y6328305D03*
D14*
G01*
X1235176Y6520811D03*
G01*
X1235176Y6425789D03*
G01*
X1330192Y6425789D03*
G01*
X1330197Y6520812D03*
D12*
G01*
X1231900Y6701894D03*
D13*
G01*
X1231900Y6810905D03*
D14*
G01*
X1235176Y7003411D03*
G01*
X1235176Y6908389D03*
G01*
X1330192Y6908389D03*
G01*
X1330197Y7003412D03*
D12*
G01*
X1231900Y7184494D03*
D13*
G01*
X1231900Y7293505D03*
D14*
G01*
X1235176Y7486011D03*
G01*
X1235176Y7390989D03*
G01*
X1330192Y7390989D03*
G01*
X1330197Y7486012D03*
D12*
G01*
X1231900Y7667094D03*
D13*
G01*
X1231900Y7776105D03*
D14*
G01*
X1235176Y7968611D03*
G01*
X1235176Y7873589D03*
G01*
X1330192Y7873589D03*
G01*
X1330197Y7968612D03*
D12*
G01*
X1231900Y8149694D03*
D13*
G01*
X1231900Y8258705D03*
D14*
G01*
X1235176Y8451211D03*
G01*
X1235176Y8356189D03*
G01*
X1330192Y8356189D03*
G01*
X1330197Y8451212D03*
D12*
G01*
X1231900Y8632294D03*
D13*
G01*
X1231900Y8741305D03*
D14*
G01*
X1235176Y8933811D03*
G01*
X1235176Y8838789D03*
G01*
X1330192Y8838789D03*
G01*
X1330197Y8933812D03*
D12*
G01*
X1231900Y9114894D03*
D13*
G01*
X1231900Y9223905D03*
D14*
G01*
X1235176Y9416411D03*
G01*
X1235176Y9321389D03*
G01*
X1330192Y9321389D03*
G01*
X1330197Y9416412D03*
D12*
G01*
X1231900Y9597494D03*
D13*
G01*
X1231900Y9706505D03*
D14*
G01*
X1235176Y9899011D03*
G01*
X1235176Y9803989D03*
G01*
X1330192Y9803989D03*
G01*
X1330197Y9899012D03*
D12*
G01*
X1231900Y10080094D03*
D13*
G01*
X1231900Y10189105D03*
D14*
G01*
X1235176Y10381611D03*
G01*
X1235176Y10286589D03*
G01*
X1330192Y10286589D03*
G01*
X1330197Y10381612D03*
G01*
X1641576Y4111519D03*
G01*
X1641576Y4016498D03*
G01*
X1736592Y4016498D03*
G01*
X1736597Y4111520D03*
D12*
G01*
X1739900Y4212694D03*
D13*
G01*
X1739900Y4321705D03*
D14*
G01*
X1641576Y4594119D03*
G01*
X1641576Y4499098D03*
G01*
X1736592Y4499098D03*
G01*
X1736597Y4594120D03*
M02*
