G04 Layer: BottomLayer*
G04 EasyEDA v6.5.29, 2023-07-16 15:11:24*
G04 e993e5008f34484d8f658c3e023484e8,5a6b42c53f6a479593ecc07194224c93,10*
G04 Gerber Generator version 0.2*
G04 Scale: 100 percent, Rotated: No, Reflected: No *
G04 Dimensions in millimeters *
G04 leading zeros omitted , absolute positions ,4 integer and 5 decimal *
%FSLAX45Y45*%
%MOMM*%

%ADD10C,0.2540*%
%ADD11O,6.4000126X3.1999936*%

%LPD*%
G36*
X36068Y698500D02*
G01*
X32156Y699262D01*
X28905Y701497D01*
X26670Y704748D01*
X25908Y708660D01*
X25908Y12150090D01*
X26670Y12154001D01*
X28905Y12157303D01*
X32156Y12159488D01*
X36068Y12160250D01*
X9095232Y12166600D01*
X9099092Y12165787D01*
X9102394Y12163602D01*
X9104630Y12160300D01*
X9105392Y12156440D01*
X9105392Y708660D01*
X9104630Y704748D01*
X9102394Y701497D01*
X9099143Y699262D01*
X9095232Y698500D01*
G37*

%LPC*%
G36*
X8686800Y10519918D02*
G01*
X8712098Y10520832D01*
X8737244Y10523677D01*
X8762136Y10528401D01*
X8786622Y10534954D01*
X8810498Y10543286D01*
X8833713Y10553446D01*
X8856116Y10565282D01*
X8877554Y10578744D01*
X8897924Y10593781D01*
X8917127Y10610291D01*
X8935008Y10628172D01*
X8951518Y10647375D01*
X8966555Y10667746D01*
X8980017Y10689183D01*
X8991854Y10711586D01*
X9002014Y10734802D01*
X9010345Y10758678D01*
X9016898Y10783163D01*
X9021622Y10808055D01*
X9024467Y10833201D01*
X9025382Y10858500D01*
X9024467Y10883798D01*
X9021622Y10908944D01*
X9016898Y10933836D01*
X9010345Y10958322D01*
X9002014Y10982198D01*
X8991854Y11005413D01*
X8980017Y11027816D01*
X8966555Y11049254D01*
X8951518Y11069624D01*
X8935008Y11088827D01*
X8917127Y11106708D01*
X8897924Y11123218D01*
X8877554Y11138255D01*
X8856116Y11151717D01*
X8833713Y11163554D01*
X8810498Y11173714D01*
X8786622Y11182045D01*
X8762136Y11188598D01*
X8737244Y11193322D01*
X8712098Y11196167D01*
X8686800Y11197082D01*
X8661501Y11196167D01*
X8636355Y11193322D01*
X8611463Y11188598D01*
X8586978Y11182045D01*
X8563102Y11173714D01*
X8539886Y11163554D01*
X8517483Y11151717D01*
X8496046Y11138255D01*
X8475675Y11123218D01*
X8456472Y11106708D01*
X8438591Y11088827D01*
X8422081Y11069624D01*
X8407044Y11049254D01*
X8393582Y11027816D01*
X8381746Y11005413D01*
X8371586Y10982198D01*
X8363254Y10958322D01*
X8356701Y10933836D01*
X8351977Y10908944D01*
X8349132Y10883798D01*
X8348218Y10858500D01*
X8349132Y10833201D01*
X8351977Y10808055D01*
X8356701Y10783163D01*
X8363254Y10758678D01*
X8371586Y10734802D01*
X8381746Y10711586D01*
X8393582Y10689183D01*
X8407044Y10667746D01*
X8422081Y10647375D01*
X8438591Y10628172D01*
X8456472Y10610291D01*
X8475675Y10593781D01*
X8496046Y10578744D01*
X8517483Y10565282D01*
X8539886Y10553446D01*
X8563102Y10543286D01*
X8586978Y10534954D01*
X8611463Y10528401D01*
X8636355Y10523677D01*
X8661501Y10520832D01*
G37*
G36*
X2832658Y837692D02*
G01*
X4393641Y837692D01*
X4399940Y838403D01*
X4405426Y840333D01*
X4410303Y843381D01*
X4414418Y847496D01*
X4417466Y852373D01*
X4419396Y857859D01*
X4420108Y864158D01*
X4420108Y2425141D01*
X4419396Y2431440D01*
X4417466Y2436926D01*
X4414418Y2441803D01*
X4410303Y2445918D01*
X4405426Y2448966D01*
X4399940Y2450896D01*
X4393641Y2451608D01*
X2832658Y2451608D01*
X2826359Y2450896D01*
X2820873Y2448966D01*
X2815996Y2445918D01*
X2811881Y2441803D01*
X2808833Y2436926D01*
X2806903Y2431440D01*
X2806192Y2425141D01*
X2806192Y864158D01*
X2806903Y857859D01*
X2808833Y852373D01*
X2811881Y847496D01*
X2815996Y843381D01*
X2820873Y840333D01*
X2826359Y838403D01*
G37*
G36*
X4737658Y837692D02*
G01*
X6298641Y837692D01*
X6304940Y838403D01*
X6310426Y840333D01*
X6315303Y843381D01*
X6319418Y847496D01*
X6322466Y852373D01*
X6324396Y857859D01*
X6325108Y864158D01*
X6325108Y2425141D01*
X6324396Y2431440D01*
X6322466Y2436926D01*
X6319418Y2441803D01*
X6315303Y2445918D01*
X6310426Y2448966D01*
X6304940Y2450896D01*
X6298641Y2451608D01*
X4737658Y2451608D01*
X4731359Y2450896D01*
X4725873Y2448966D01*
X4720996Y2445918D01*
X4716881Y2441803D01*
X4713833Y2436926D01*
X4711903Y2431440D01*
X4711192Y2425141D01*
X4711192Y864158D01*
X4711903Y857859D01*
X4713833Y852373D01*
X4716881Y847496D01*
X4720996Y843381D01*
X4725873Y840333D01*
X4731359Y838403D01*
G37*
G36*
X6655358Y837692D02*
G01*
X8216341Y837692D01*
X8222640Y838403D01*
X8228126Y840333D01*
X8233003Y843381D01*
X8237118Y847496D01*
X8240166Y852373D01*
X8242096Y857859D01*
X8242808Y864158D01*
X8242808Y2425141D01*
X8242096Y2431440D01*
X8240166Y2436926D01*
X8237118Y2441803D01*
X8233003Y2445918D01*
X8228126Y2448966D01*
X8222640Y2450896D01*
X8216341Y2451608D01*
X6655358Y2451608D01*
X6649059Y2450896D01*
X6643573Y2448966D01*
X6638696Y2445918D01*
X6634581Y2441803D01*
X6631533Y2436926D01*
X6629603Y2431440D01*
X6628892Y2425141D01*
X6628892Y864158D01*
X6629603Y857859D01*
X6631533Y852373D01*
X6634581Y847496D01*
X6638696Y843381D01*
X6643573Y840333D01*
X6649059Y838403D01*
G37*
G36*
X469900Y2201418D02*
G01*
X495198Y2202332D01*
X520344Y2205177D01*
X545236Y2209901D01*
X569722Y2216454D01*
X593598Y2224786D01*
X616813Y2234946D01*
X639216Y2246782D01*
X660654Y2260244D01*
X681024Y2275281D01*
X700227Y2291791D01*
X718108Y2309672D01*
X734618Y2328875D01*
X749655Y2349246D01*
X763117Y2370683D01*
X774954Y2393086D01*
X785114Y2416302D01*
X793445Y2440178D01*
X799998Y2464663D01*
X804722Y2489555D01*
X807567Y2514701D01*
X808482Y2540000D01*
X807567Y2565298D01*
X804722Y2590444D01*
X799998Y2615336D01*
X793445Y2639822D01*
X785114Y2663698D01*
X774954Y2686913D01*
X763117Y2709316D01*
X749655Y2730754D01*
X734618Y2751124D01*
X718108Y2770327D01*
X700227Y2788208D01*
X681024Y2804718D01*
X660654Y2819755D01*
X639216Y2833217D01*
X616813Y2845054D01*
X593598Y2855214D01*
X569722Y2863545D01*
X545236Y2870098D01*
X520344Y2874822D01*
X495198Y2877667D01*
X469900Y2878582D01*
X444601Y2877667D01*
X419455Y2874822D01*
X394563Y2870098D01*
X370078Y2863545D01*
X346202Y2855214D01*
X322986Y2845054D01*
X300583Y2833217D01*
X279146Y2819755D01*
X258775Y2804718D01*
X239572Y2788208D01*
X221691Y2770327D01*
X205181Y2751124D01*
X190144Y2730754D01*
X176682Y2709316D01*
X164846Y2686913D01*
X154686Y2663698D01*
X146354Y2639822D01*
X139801Y2615336D01*
X135077Y2590444D01*
X132232Y2565298D01*
X131318Y2540000D01*
X132232Y2514701D01*
X135077Y2489555D01*
X139801Y2464663D01*
X146354Y2440178D01*
X154686Y2416302D01*
X164846Y2393086D01*
X176682Y2370683D01*
X190144Y2349246D01*
X205181Y2328875D01*
X221691Y2309672D01*
X239572Y2291791D01*
X258775Y2275281D01*
X279146Y2260244D01*
X300583Y2246782D01*
X322986Y2234946D01*
X346202Y2224786D01*
X370078Y2216454D01*
X394563Y2209901D01*
X419455Y2205177D01*
X444601Y2202332D01*
G37*
G36*
X8686800Y2201418D02*
G01*
X8712098Y2202332D01*
X8737244Y2205177D01*
X8762136Y2209901D01*
X8786622Y2216454D01*
X8810498Y2224786D01*
X8833713Y2234946D01*
X8856116Y2246782D01*
X8877554Y2260244D01*
X8897924Y2275281D01*
X8917127Y2291791D01*
X8935008Y2309672D01*
X8951518Y2328875D01*
X8966555Y2349246D01*
X8980017Y2370683D01*
X8991854Y2393086D01*
X9002014Y2416302D01*
X9010345Y2440178D01*
X9016898Y2464663D01*
X9021622Y2489555D01*
X9024467Y2514701D01*
X9025382Y2540000D01*
X9024467Y2565298D01*
X9021622Y2590444D01*
X9016898Y2615336D01*
X9010345Y2639822D01*
X9002014Y2663698D01*
X8991854Y2686913D01*
X8980017Y2709316D01*
X8966555Y2730754D01*
X8951518Y2751124D01*
X8935008Y2770327D01*
X8917127Y2788208D01*
X8897924Y2804718D01*
X8877554Y2819755D01*
X8856116Y2833217D01*
X8833713Y2845054D01*
X8810498Y2855214D01*
X8786622Y2863545D01*
X8762136Y2870098D01*
X8737244Y2874822D01*
X8712098Y2877667D01*
X8686800Y2878582D01*
X8661501Y2877667D01*
X8636355Y2874822D01*
X8611463Y2870098D01*
X8586978Y2863545D01*
X8563102Y2855214D01*
X8539886Y2845054D01*
X8517483Y2833217D01*
X8496046Y2819755D01*
X8475675Y2804718D01*
X8456472Y2788208D01*
X8438591Y2770327D01*
X8422081Y2751124D01*
X8407044Y2730754D01*
X8393582Y2709316D01*
X8381746Y2686913D01*
X8371586Y2663698D01*
X8363254Y2639822D01*
X8356701Y2615336D01*
X8351977Y2590444D01*
X8349132Y2565298D01*
X8348218Y2540000D01*
X8349132Y2514701D01*
X8351977Y2489555D01*
X8356701Y2464663D01*
X8363254Y2440178D01*
X8371586Y2416302D01*
X8381746Y2393086D01*
X8393582Y2370683D01*
X8407044Y2349246D01*
X8422081Y2328875D01*
X8438591Y2309672D01*
X8456472Y2291791D01*
X8475675Y2275281D01*
X8496046Y2260244D01*
X8517483Y2246782D01*
X8539886Y2234946D01*
X8563102Y2224786D01*
X8586978Y2216454D01*
X8611463Y2209901D01*
X8636355Y2205177D01*
X8661501Y2202332D01*
G37*
G36*
X914958Y2755392D02*
G01*
X2475941Y2755392D01*
X2482240Y2756103D01*
X2487726Y2758033D01*
X2492603Y2761081D01*
X2496718Y2765196D01*
X2499766Y2770073D01*
X2501696Y2775559D01*
X2502408Y2781858D01*
X2502408Y4342841D01*
X2501696Y4349140D01*
X2499766Y4354626D01*
X2496718Y4359503D01*
X2492603Y4363618D01*
X2487726Y4366666D01*
X2482240Y4368596D01*
X2475941Y4369308D01*
X914958Y4369308D01*
X908659Y4368596D01*
X903173Y4366666D01*
X898296Y4363618D01*
X894181Y4359503D01*
X891133Y4354626D01*
X889203Y4349140D01*
X888492Y4342841D01*
X888492Y2781858D01*
X889203Y2775559D01*
X891133Y2770073D01*
X894181Y2765196D01*
X898296Y2761081D01*
X903173Y2758033D01*
X908659Y2756103D01*
G37*
G36*
X4737658Y2755392D02*
G01*
X6298641Y2755392D01*
X6304940Y2756103D01*
X6310426Y2758033D01*
X6315303Y2761081D01*
X6319418Y2765196D01*
X6322466Y2770073D01*
X6324396Y2775559D01*
X6325108Y2781858D01*
X6325108Y4342841D01*
X6324396Y4349140D01*
X6322466Y4354626D01*
X6319418Y4359503D01*
X6315303Y4363618D01*
X6310426Y4366666D01*
X6304940Y4368596D01*
X6298641Y4369308D01*
X4737658Y4369308D01*
X4731359Y4368596D01*
X4725873Y4366666D01*
X4720996Y4363618D01*
X4716881Y4359503D01*
X4713833Y4354626D01*
X4711903Y4349140D01*
X4711192Y4342841D01*
X4711192Y2781858D01*
X4711903Y2775559D01*
X4713833Y2770073D01*
X4716881Y2765196D01*
X4720996Y2761081D01*
X4725873Y2758033D01*
X4731359Y2756103D01*
G37*
G36*
X914958Y837692D02*
G01*
X2475941Y837692D01*
X2482240Y838403D01*
X2487726Y840333D01*
X2492603Y843381D01*
X2496718Y847496D01*
X2499766Y852373D01*
X2501696Y857859D01*
X2502408Y864158D01*
X2502408Y2425141D01*
X2501696Y2431440D01*
X2499766Y2436926D01*
X2496718Y2441803D01*
X2492603Y2445918D01*
X2487726Y2448966D01*
X2482240Y2450896D01*
X2475941Y2451608D01*
X914958Y2451608D01*
X908659Y2450896D01*
X903173Y2448966D01*
X898296Y2445918D01*
X894181Y2441803D01*
X891133Y2436926D01*
X889203Y2431440D01*
X888492Y2425141D01*
X888492Y864158D01*
X889203Y857859D01*
X891133Y852373D01*
X894181Y847496D01*
X898296Y843381D01*
X903173Y840333D01*
X908659Y838403D01*
G37*
G36*
X2832658Y2755392D02*
G01*
X4393641Y2755392D01*
X4399940Y2756103D01*
X4405426Y2758033D01*
X4410303Y2761081D01*
X4414418Y2765196D01*
X4417466Y2770073D01*
X4419396Y2775559D01*
X4420108Y2781858D01*
X4420108Y4342841D01*
X4419396Y4349140D01*
X4417466Y4354626D01*
X4414418Y4359503D01*
X4410303Y4363618D01*
X4405426Y4366666D01*
X4399940Y4368596D01*
X4393641Y4369308D01*
X2832658Y4369308D01*
X2826359Y4368596D01*
X2820873Y4366666D01*
X2815996Y4363618D01*
X2811881Y4359503D01*
X2808833Y4354626D01*
X2806903Y4349140D01*
X2806192Y4342841D01*
X2806192Y2781858D01*
X2806903Y2775559D01*
X2808833Y2770073D01*
X2811881Y2765196D01*
X2815996Y2761081D01*
X2820873Y2758033D01*
X2826359Y2756103D01*
G37*
G36*
X940358Y4673092D02*
G01*
X8190941Y4673092D01*
X8197240Y4673803D01*
X8202726Y4675733D01*
X8207603Y4678781D01*
X8211718Y4682896D01*
X8214766Y4687773D01*
X8216696Y4693259D01*
X8217408Y4699558D01*
X8217408Y9727641D01*
X8216696Y9733940D01*
X8214766Y9739426D01*
X8211718Y9744303D01*
X8207603Y9748418D01*
X8202726Y9751466D01*
X8197240Y9753396D01*
X8190941Y9754108D01*
X940358Y9754108D01*
X934059Y9753396D01*
X928573Y9751466D01*
X923696Y9748418D01*
X919581Y9744303D01*
X916533Y9739426D01*
X914603Y9733940D01*
X913892Y9727641D01*
X913892Y4699558D01*
X914603Y4693259D01*
X916533Y4687773D01*
X919581Y4682896D01*
X923696Y4678781D01*
X928573Y4675733D01*
X934059Y4673803D01*
G37*
G36*
X914958Y10057892D02*
G01*
X2475941Y10057892D01*
X2482240Y10058603D01*
X2487726Y10060533D01*
X2492603Y10063581D01*
X2496718Y10067696D01*
X2499766Y10072573D01*
X2501696Y10078059D01*
X2502408Y10084358D01*
X2502408Y11645341D01*
X2501696Y11651640D01*
X2499766Y11657126D01*
X2496718Y11662003D01*
X2492603Y11666118D01*
X2487726Y11669166D01*
X2482240Y11671096D01*
X2475941Y11671808D01*
X914958Y11671808D01*
X908659Y11671096D01*
X903173Y11669166D01*
X898296Y11666118D01*
X894181Y11662003D01*
X891133Y11657126D01*
X889203Y11651640D01*
X888492Y11645341D01*
X888492Y10084358D01*
X889203Y10078059D01*
X891133Y10072573D01*
X894181Y10067696D01*
X898296Y10063581D01*
X903173Y10060533D01*
X908659Y10058603D01*
G37*
G36*
X6655358Y10057892D02*
G01*
X8216341Y10057892D01*
X8222640Y10058603D01*
X8228126Y10060533D01*
X8233003Y10063581D01*
X8237118Y10067696D01*
X8240166Y10072573D01*
X8242096Y10078059D01*
X8242808Y10084358D01*
X8242808Y11645341D01*
X8242096Y11651640D01*
X8240166Y11657126D01*
X8237118Y11662003D01*
X8233003Y11666118D01*
X8228126Y11669166D01*
X8222640Y11671096D01*
X8216341Y11671808D01*
X6655358Y11671808D01*
X6649059Y11671096D01*
X6643573Y11669166D01*
X6638696Y11666118D01*
X6634581Y11662003D01*
X6631533Y11657126D01*
X6629603Y11651640D01*
X6628892Y11645341D01*
X6628892Y10084358D01*
X6629603Y10078059D01*
X6631533Y10072573D01*
X6634581Y10067696D01*
X6638696Y10063581D01*
X6643573Y10060533D01*
X6649059Y10058603D01*
G37*
G36*
X4737658Y10057892D02*
G01*
X6298641Y10057892D01*
X6304940Y10058603D01*
X6310426Y10060533D01*
X6315303Y10063581D01*
X6319418Y10067696D01*
X6322466Y10072573D01*
X6324396Y10078059D01*
X6325108Y10084358D01*
X6325108Y11645341D01*
X6324396Y11651640D01*
X6322466Y11657126D01*
X6319418Y11662003D01*
X6315303Y11666118D01*
X6310426Y11669166D01*
X6304940Y11671096D01*
X6298641Y11671808D01*
X4737658Y11671808D01*
X4731359Y11671096D01*
X4725873Y11669166D01*
X4720996Y11666118D01*
X4716881Y11662003D01*
X4713833Y11657126D01*
X4711903Y11651640D01*
X4711192Y11645341D01*
X4711192Y10084358D01*
X4711903Y10078059D01*
X4713833Y10072573D01*
X4716881Y10067696D01*
X4720996Y10063581D01*
X4725873Y10060533D01*
X4731359Y10058603D01*
G37*
G36*
X2832658Y10057892D02*
G01*
X4393641Y10057892D01*
X4399940Y10058603D01*
X4405426Y10060533D01*
X4410303Y10063581D01*
X4414418Y10067696D01*
X4417466Y10072573D01*
X4419396Y10078059D01*
X4420108Y10084358D01*
X4420108Y11645341D01*
X4419396Y11651640D01*
X4417466Y11657126D01*
X4414418Y11662003D01*
X4410303Y11666118D01*
X4405426Y11669166D01*
X4399940Y11671096D01*
X4393641Y11671808D01*
X2832658Y11671808D01*
X2826359Y11671096D01*
X2820873Y11669166D01*
X2815996Y11666118D01*
X2811881Y11662003D01*
X2808833Y11657126D01*
X2806903Y11651640D01*
X2806192Y11645341D01*
X2806192Y10084358D01*
X2806903Y10078059D01*
X2808833Y10072573D01*
X2811881Y10067696D01*
X2815996Y10063581D01*
X2820873Y10060533D01*
X2826359Y10058603D01*
G37*
G36*
X469900Y10519918D02*
G01*
X495198Y10520832D01*
X520344Y10523677D01*
X545236Y10528401D01*
X569722Y10534954D01*
X593598Y10543286D01*
X616813Y10553446D01*
X639216Y10565282D01*
X660654Y10578744D01*
X681024Y10593781D01*
X700227Y10610291D01*
X718108Y10628172D01*
X734618Y10647375D01*
X749655Y10667746D01*
X763117Y10689183D01*
X774954Y10711586D01*
X785114Y10734802D01*
X793445Y10758678D01*
X799998Y10783163D01*
X804722Y10808055D01*
X807567Y10833201D01*
X808482Y10858500D01*
X807567Y10883798D01*
X804722Y10908944D01*
X799998Y10933836D01*
X793445Y10958322D01*
X785114Y10982198D01*
X774954Y11005413D01*
X763117Y11027816D01*
X749655Y11049254D01*
X734618Y11069624D01*
X718108Y11088827D01*
X700227Y11106708D01*
X681024Y11123218D01*
X660654Y11138255D01*
X639216Y11151717D01*
X616813Y11163554D01*
X593598Y11173714D01*
X569722Y11182045D01*
X545236Y11188598D01*
X520344Y11193322D01*
X495198Y11196167D01*
X469900Y11197082D01*
X444601Y11196167D01*
X419455Y11193322D01*
X394563Y11188598D01*
X370078Y11182045D01*
X346202Y11173714D01*
X322986Y11163554D01*
X300583Y11151717D01*
X279146Y11138255D01*
X258775Y11123218D01*
X239572Y11106708D01*
X221691Y11088827D01*
X205181Y11069624D01*
X190144Y11049254D01*
X176682Y11027816D01*
X164846Y11005413D01*
X154686Y10982198D01*
X146354Y10958322D01*
X139801Y10933836D01*
X135077Y10908944D01*
X132232Y10883798D01*
X131318Y10858500D01*
X132232Y10833201D01*
X135077Y10808055D01*
X139801Y10783163D01*
X146354Y10758678D01*
X154686Y10734802D01*
X164846Y10711586D01*
X176682Y10689183D01*
X190144Y10667746D01*
X205181Y10647375D01*
X221691Y10628172D01*
X239572Y10610291D01*
X258775Y10593781D01*
X279146Y10578744D01*
X300583Y10565282D01*
X322986Y10553446D01*
X346202Y10543286D01*
X370078Y10534954D01*
X394563Y10528401D01*
X419455Y10523677D01*
X444601Y10520832D01*
G37*
G36*
X6655358Y2755392D02*
G01*
X8216341Y2755392D01*
X8222640Y2756103D01*
X8228126Y2758033D01*
X8233003Y2761081D01*
X8237118Y2765196D01*
X8240166Y2770073D01*
X8242096Y2775559D01*
X8242808Y2781858D01*
X8242808Y4342841D01*
X8242096Y4349140D01*
X8240166Y4354626D01*
X8237118Y4359503D01*
X8233003Y4363618D01*
X8228126Y4366666D01*
X8222640Y4368596D01*
X8216341Y4369308D01*
X6655358Y4369308D01*
X6649059Y4368596D01*
X6643573Y4366666D01*
X6638696Y4363618D01*
X6634581Y4359503D01*
X6631533Y4354626D01*
X6629603Y4349140D01*
X6628892Y4342841D01*
X6628892Y2781858D01*
X6629603Y2775559D01*
X6631533Y2770073D01*
X6634581Y2765196D01*
X6638696Y2761081D01*
X6643573Y2758033D01*
X6649059Y2756103D01*
G37*

%LPD*%
G36*
X465886Y2852674D02*
G01*
X449935Y2852064D01*
X434035Y2850642D01*
X418236Y2848406D01*
X402539Y2845358D01*
X387045Y2841498D01*
X379374Y2839313D01*
X364185Y2834284D01*
X349300Y2828493D01*
X334721Y2821990D01*
X320497Y2814726D01*
X306679Y2806700D01*
X293268Y2798064D01*
X280314Y2788666D01*
X267868Y2778709D01*
X255981Y2768041D01*
X244602Y2756814D01*
X239115Y2751023D01*
X228650Y2738932D01*
X218795Y2726385D01*
X209600Y2713329D01*
X201117Y2699816D01*
X193294Y2685846D01*
X186232Y2671572D01*
X179882Y2656890D01*
X174294Y2641955D01*
X169468Y2626715D01*
X165404Y2611272D01*
X162204Y2595626D01*
X159766Y2579827D01*
X158140Y2563926D01*
X157327Y2547975D01*
X157175Y2540000D01*
X157632Y2524048D01*
X158851Y2508097D01*
X160883Y2492248D01*
X163728Y2476550D01*
X165404Y2468727D01*
X169468Y2453284D01*
X174294Y2438044D01*
X179882Y2423109D01*
X186232Y2408428D01*
X193294Y2394153D01*
X201117Y2380183D01*
X209600Y2366670D01*
X218795Y2353614D01*
X228650Y2341067D01*
X239115Y2328976D01*
X250190Y2317496D01*
X261874Y2306574D01*
X267868Y2301290D01*
X280314Y2291334D01*
X293268Y2281936D01*
X306679Y2273300D01*
X320497Y2265273D01*
X334721Y2258009D01*
X349300Y2251506D01*
X364185Y2245715D01*
X379374Y2240686D01*
X394766Y2236470D01*
X410362Y2233015D01*
X426110Y2230374D01*
X441959Y2228545D01*
X457911Y2227529D01*
X473913Y2227326D01*
X489864Y2227935D01*
X505764Y2229358D01*
X521563Y2231593D01*
X537260Y2234641D01*
X552754Y2238502D01*
X560425Y2240686D01*
X575614Y2245715D01*
X590499Y2251506D01*
X605078Y2258009D01*
X619302Y2265273D01*
X633120Y2273300D01*
X646531Y2281936D01*
X659485Y2291334D01*
X671931Y2301290D01*
X683818Y2311958D01*
X695198Y2323185D01*
X700684Y2328976D01*
X711149Y2341067D01*
X721004Y2353614D01*
X730199Y2366670D01*
X738682Y2380183D01*
X746506Y2394153D01*
X753567Y2408428D01*
X759917Y2423109D01*
X765505Y2438044D01*
X770331Y2453284D01*
X774395Y2468727D01*
X777595Y2484374D01*
X780034Y2500172D01*
X781659Y2516073D01*
X782472Y2532024D01*
X782624Y2540000D01*
X782167Y2555951D01*
X780948Y2571902D01*
X778916Y2587752D01*
X776071Y2603449D01*
X774395Y2611272D01*
X770331Y2626715D01*
X765505Y2641955D01*
X759917Y2656890D01*
X753567Y2671572D01*
X746506Y2685846D01*
X738682Y2699816D01*
X730199Y2713329D01*
X721004Y2726385D01*
X711149Y2738932D01*
X700684Y2751023D01*
X689610Y2762504D01*
X677926Y2773426D01*
X671931Y2778709D01*
X659485Y2788666D01*
X646531Y2798064D01*
X633120Y2806700D01*
X619302Y2814726D01*
X605078Y2821990D01*
X590499Y2828493D01*
X575614Y2834284D01*
X560425Y2839313D01*
X545033Y2843530D01*
X529437Y2846984D01*
X513689Y2849626D01*
X497840Y2851454D01*
X481888Y2852470D01*
G37*
G36*
X8682786Y2852674D02*
G01*
X8666835Y2852064D01*
X8650935Y2850642D01*
X8635136Y2848406D01*
X8619439Y2845358D01*
X8603945Y2841498D01*
X8596274Y2839313D01*
X8581085Y2834284D01*
X8566200Y2828493D01*
X8551621Y2821990D01*
X8537397Y2814726D01*
X8523579Y2806700D01*
X8510168Y2798064D01*
X8497214Y2788666D01*
X8484768Y2778709D01*
X8472881Y2768041D01*
X8461502Y2756814D01*
X8456015Y2751023D01*
X8445550Y2738932D01*
X8435695Y2726385D01*
X8426500Y2713329D01*
X8418017Y2699816D01*
X8410194Y2685846D01*
X8403132Y2671572D01*
X8396782Y2656890D01*
X8391194Y2641955D01*
X8386368Y2626715D01*
X8382304Y2611272D01*
X8379104Y2595626D01*
X8376666Y2579827D01*
X8375040Y2563926D01*
X8374227Y2547975D01*
X8374227Y2532024D01*
X8375040Y2516073D01*
X8376666Y2500172D01*
X8379104Y2484374D01*
X8382304Y2468727D01*
X8386368Y2453284D01*
X8391194Y2438044D01*
X8396782Y2423109D01*
X8403132Y2408428D01*
X8410194Y2394153D01*
X8418017Y2380183D01*
X8426500Y2366670D01*
X8435695Y2353614D01*
X8445550Y2341067D01*
X8456015Y2328976D01*
X8467090Y2317496D01*
X8478774Y2306574D01*
X8484768Y2301290D01*
X8497214Y2291334D01*
X8510168Y2281936D01*
X8523579Y2273300D01*
X8537397Y2265273D01*
X8551621Y2258009D01*
X8566200Y2251506D01*
X8581085Y2245715D01*
X8596274Y2240686D01*
X8611666Y2236470D01*
X8627262Y2233015D01*
X8643010Y2230374D01*
X8658860Y2228545D01*
X8674811Y2227529D01*
X8690813Y2227326D01*
X8706764Y2227935D01*
X8722664Y2229358D01*
X8738463Y2231593D01*
X8754160Y2234641D01*
X8769654Y2238502D01*
X8777325Y2240686D01*
X8792514Y2245715D01*
X8807399Y2251506D01*
X8821978Y2258009D01*
X8836202Y2265273D01*
X8850020Y2273300D01*
X8863431Y2281936D01*
X8876385Y2291334D01*
X8888831Y2301290D01*
X8900718Y2311958D01*
X8912098Y2323185D01*
X8917584Y2328976D01*
X8928049Y2341067D01*
X8937904Y2353614D01*
X8947099Y2366670D01*
X8955582Y2380183D01*
X8963406Y2394153D01*
X8970467Y2408428D01*
X8976817Y2423109D01*
X8982405Y2438044D01*
X8987231Y2453284D01*
X8991295Y2468727D01*
X8994495Y2484374D01*
X8996934Y2500172D01*
X8998559Y2516073D01*
X8999372Y2532024D01*
X8999372Y2547975D01*
X8998559Y2563926D01*
X8996934Y2579827D01*
X8994495Y2595626D01*
X8991295Y2611272D01*
X8987231Y2626715D01*
X8982405Y2641955D01*
X8976817Y2656890D01*
X8970467Y2671572D01*
X8963406Y2685846D01*
X8955582Y2699816D01*
X8947099Y2713329D01*
X8937904Y2726385D01*
X8928049Y2738932D01*
X8917584Y2751023D01*
X8906510Y2762504D01*
X8894826Y2773426D01*
X8888831Y2778709D01*
X8876385Y2788666D01*
X8863431Y2798064D01*
X8850020Y2806700D01*
X8836202Y2814726D01*
X8821978Y2821990D01*
X8807399Y2828493D01*
X8792514Y2834284D01*
X8777325Y2839313D01*
X8761933Y2843530D01*
X8746337Y2846984D01*
X8730589Y2849626D01*
X8714740Y2851454D01*
X8698788Y2852470D01*
G37*
G36*
X8682786Y11171174D02*
G01*
X8666835Y11170564D01*
X8650935Y11169142D01*
X8635136Y11166906D01*
X8619439Y11163858D01*
X8603945Y11159998D01*
X8596274Y11157813D01*
X8581085Y11152784D01*
X8566200Y11146993D01*
X8551621Y11140490D01*
X8537397Y11133226D01*
X8523579Y11125200D01*
X8510168Y11116564D01*
X8497214Y11107166D01*
X8484768Y11097209D01*
X8472881Y11086541D01*
X8461502Y11075314D01*
X8456015Y11069523D01*
X8445550Y11057432D01*
X8435695Y11044885D01*
X8426500Y11031829D01*
X8418017Y11018316D01*
X8410194Y11004346D01*
X8403132Y10990072D01*
X8396782Y10975390D01*
X8391194Y10960455D01*
X8386368Y10945215D01*
X8382304Y10929772D01*
X8379104Y10914126D01*
X8376666Y10898327D01*
X8375040Y10882426D01*
X8374227Y10866475D01*
X8374227Y10850524D01*
X8375040Y10834573D01*
X8376666Y10818672D01*
X8379104Y10802874D01*
X8382304Y10787227D01*
X8386368Y10771784D01*
X8391194Y10756544D01*
X8396782Y10741609D01*
X8403132Y10726928D01*
X8410194Y10712653D01*
X8418017Y10698683D01*
X8426500Y10685170D01*
X8435695Y10672114D01*
X8445550Y10659567D01*
X8456015Y10647476D01*
X8467090Y10635996D01*
X8478774Y10625074D01*
X8484768Y10619790D01*
X8497214Y10609834D01*
X8510168Y10600436D01*
X8523579Y10591800D01*
X8537397Y10583773D01*
X8551621Y10576509D01*
X8566200Y10570006D01*
X8581085Y10564215D01*
X8596274Y10559186D01*
X8611666Y10554970D01*
X8627262Y10551515D01*
X8643010Y10548874D01*
X8658860Y10547045D01*
X8674811Y10546029D01*
X8690813Y10545826D01*
X8706764Y10546435D01*
X8722664Y10547858D01*
X8738463Y10550093D01*
X8754160Y10553141D01*
X8769654Y10557002D01*
X8777325Y10559186D01*
X8792514Y10564215D01*
X8807399Y10570006D01*
X8821978Y10576509D01*
X8836202Y10583773D01*
X8850020Y10591800D01*
X8863431Y10600436D01*
X8876385Y10609834D01*
X8888831Y10619790D01*
X8900718Y10630458D01*
X8912098Y10641685D01*
X8917584Y10647476D01*
X8928049Y10659567D01*
X8937904Y10672114D01*
X8947099Y10685170D01*
X8955582Y10698683D01*
X8963406Y10712653D01*
X8970467Y10726928D01*
X8976817Y10741609D01*
X8982405Y10756544D01*
X8987231Y10771784D01*
X8991295Y10787227D01*
X8994495Y10802874D01*
X8996934Y10818672D01*
X8998559Y10834573D01*
X8999372Y10850524D01*
X8999372Y10866475D01*
X8998559Y10882426D01*
X8996934Y10898327D01*
X8994495Y10914126D01*
X8991295Y10929772D01*
X8987231Y10945215D01*
X8982405Y10960455D01*
X8976817Y10975390D01*
X8970467Y10990072D01*
X8963406Y11004346D01*
X8955582Y11018316D01*
X8947099Y11031829D01*
X8937904Y11044885D01*
X8928049Y11057432D01*
X8917584Y11069523D01*
X8906510Y11081004D01*
X8894826Y11091926D01*
X8888831Y11097209D01*
X8876385Y11107166D01*
X8863431Y11116564D01*
X8850020Y11125200D01*
X8836202Y11133226D01*
X8821978Y11140490D01*
X8807399Y11146993D01*
X8792514Y11152784D01*
X8777325Y11157813D01*
X8761933Y11162030D01*
X8746337Y11165484D01*
X8730589Y11168126D01*
X8714740Y11169954D01*
X8698788Y11170970D01*
G37*
G36*
X465886Y11171174D02*
G01*
X449935Y11170564D01*
X434035Y11169142D01*
X418236Y11166906D01*
X402539Y11163858D01*
X387045Y11159998D01*
X379374Y11157813D01*
X364185Y11152784D01*
X349300Y11146993D01*
X334721Y11140490D01*
X320497Y11133226D01*
X306679Y11125200D01*
X293268Y11116564D01*
X280314Y11107166D01*
X267868Y11097209D01*
X255981Y11086541D01*
X244602Y11075314D01*
X239115Y11069523D01*
X228650Y11057432D01*
X218795Y11044885D01*
X209600Y11031829D01*
X201117Y11018316D01*
X193294Y11004346D01*
X186232Y10990072D01*
X179882Y10975390D01*
X174294Y10960455D01*
X169468Y10945215D01*
X165404Y10929772D01*
X162204Y10914126D01*
X159766Y10898327D01*
X158140Y10882426D01*
X157327Y10866475D01*
X157175Y10858500D01*
X157632Y10842548D01*
X158851Y10826597D01*
X160883Y10810748D01*
X163728Y10795050D01*
X165404Y10787227D01*
X169468Y10771784D01*
X174294Y10756544D01*
X179882Y10741609D01*
X186232Y10726928D01*
X193294Y10712653D01*
X201117Y10698683D01*
X209600Y10685170D01*
X218795Y10672114D01*
X228650Y10659567D01*
X239115Y10647476D01*
X250190Y10635996D01*
X261874Y10625074D01*
X267868Y10619790D01*
X280314Y10609834D01*
X293268Y10600436D01*
X306679Y10591800D01*
X320497Y10583773D01*
X334721Y10576509D01*
X349300Y10570006D01*
X364185Y10564215D01*
X379374Y10559186D01*
X394766Y10554970D01*
X410362Y10551515D01*
X426110Y10548874D01*
X441959Y10547045D01*
X457911Y10546029D01*
X473913Y10545826D01*
X489864Y10546435D01*
X505764Y10547858D01*
X521563Y10550093D01*
X537260Y10553141D01*
X552754Y10557002D01*
X560425Y10559186D01*
X575614Y10564215D01*
X590499Y10570006D01*
X605078Y10576509D01*
X619302Y10583773D01*
X633120Y10591800D01*
X646531Y10600436D01*
X659485Y10609834D01*
X671931Y10619790D01*
X683818Y10630458D01*
X695198Y10641685D01*
X700684Y10647476D01*
X711149Y10659567D01*
X721004Y10672114D01*
X730199Y10685170D01*
X738682Y10698683D01*
X746506Y10712653D01*
X753567Y10726928D01*
X759917Y10741609D01*
X765505Y10756544D01*
X770331Y10771784D01*
X774395Y10787227D01*
X777595Y10802874D01*
X780034Y10818672D01*
X781659Y10834573D01*
X782472Y10850524D01*
X782624Y10858500D01*
X782167Y10874451D01*
X780948Y10890402D01*
X778916Y10906252D01*
X776071Y10921949D01*
X774395Y10929772D01*
X770331Y10945215D01*
X765505Y10960455D01*
X759917Y10975390D01*
X753567Y10990072D01*
X746506Y11004346D01*
X738682Y11018316D01*
X730199Y11031829D01*
X721004Y11044885D01*
X711149Y11057432D01*
X700684Y11069523D01*
X689610Y11081004D01*
X677926Y11091926D01*
X671931Y11097209D01*
X659485Y11107166D01*
X646531Y11116564D01*
X633120Y11125200D01*
X619302Y11133226D01*
X605078Y11140490D01*
X590499Y11146993D01*
X575614Y11152784D01*
X560425Y11157813D01*
X545033Y11162030D01*
X529437Y11165484D01*
X513689Y11168126D01*
X497840Y11169954D01*
X481888Y11170970D01*
G37*
D10*
X8978900Y12128500D02*
G01*
X8978900Y12192000D01*
X8978900Y685800D02*
G01*
X8978900Y749300D01*
X38862Y12173230D02*
G01*
X38862Y12813537D01*
X38862Y12813537D02*
G01*
X9092438Y12813537D01*
X9092438Y12813537D02*
G01*
X9092438Y12179527D01*
X9092438Y12179527D02*
G01*
X38862Y12173230D01*
X8068276Y12446843D02*
G01*
X8081382Y12432383D01*
X8081382Y12432383D02*
G01*
X8095842Y12419277D01*
X8095842Y12419277D02*
G01*
X8111517Y12407652D01*
X8111517Y12407652D02*
G01*
X8128256Y12397619D01*
X8128256Y12397619D02*
G01*
X8145897Y12389275D01*
X8145897Y12389275D02*
G01*
X8164272Y12382701D01*
X8164272Y12382701D02*
G01*
X8183203Y12377959D01*
X8183203Y12377959D02*
G01*
X8202507Y12375095D01*
X8202507Y12375095D02*
G01*
X8221999Y12374138D01*
X8221999Y12374138D02*
G01*
X8542000Y12374138D01*
X8542000Y12374138D02*
G01*
X8561492Y12375095D01*
X8561492Y12375095D02*
G01*
X8580796Y12377959D01*
X8580796Y12377959D02*
G01*
X8599727Y12382701D01*
X8599727Y12382701D02*
G01*
X8618102Y12389275D01*
X8618102Y12389275D02*
G01*
X8635743Y12397619D01*
X8635743Y12397619D02*
G01*
X8652482Y12407652D01*
X8652482Y12407652D02*
G01*
X8668157Y12419277D01*
X8668157Y12419277D02*
G01*
X8682617Y12432383D01*
X8682617Y12432383D02*
G01*
X8695723Y12446843D01*
X8695723Y12446843D02*
G01*
X8707348Y12462518D01*
X8707348Y12462518D02*
G01*
X8717381Y12479257D01*
X8717381Y12479257D02*
G01*
X8725725Y12496898D01*
X8725725Y12496898D02*
G01*
X8732299Y12515273D01*
X8732299Y12515273D02*
G01*
X8737041Y12534204D01*
X8737041Y12534204D02*
G01*
X8739905Y12553508D01*
X8739905Y12553508D02*
G01*
X8740862Y12573000D01*
X8740862Y12573000D02*
G01*
X8739905Y12592491D01*
X8739905Y12592491D02*
G01*
X8737041Y12611795D01*
X8737041Y12611795D02*
G01*
X8732299Y12630726D01*
X8732299Y12630726D02*
G01*
X8725725Y12649101D01*
X8725725Y12649101D02*
G01*
X8717381Y12666742D01*
X8717381Y12666742D02*
G01*
X8707348Y12683481D01*
X8707348Y12683481D02*
G01*
X8695723Y12699156D01*
X8695723Y12699156D02*
G01*
X8682617Y12713616D01*
X8682617Y12713616D02*
G01*
X8668157Y12726722D01*
X8668157Y12726722D02*
G01*
X8652482Y12738347D01*
X8652482Y12738347D02*
G01*
X8635743Y12748380D01*
X8635743Y12748380D02*
G01*
X8618102Y12756724D01*
X8618102Y12756724D02*
G01*
X8599727Y12763298D01*
X8599727Y12763298D02*
G01*
X8580796Y12768040D01*
X8580796Y12768040D02*
G01*
X8561492Y12770904D01*
X8561492Y12770904D02*
G01*
X8542000Y12771861D01*
X8542000Y12771861D02*
G01*
X8221999Y12771861D01*
X8221999Y12771861D02*
G01*
X8202507Y12770904D01*
X8202507Y12770904D02*
G01*
X8183203Y12768040D01*
X8183203Y12768040D02*
G01*
X8164272Y12763298D01*
X8164272Y12763298D02*
G01*
X8145897Y12756724D01*
X8145897Y12756724D02*
G01*
X8128256Y12748380D01*
X8128256Y12748380D02*
G01*
X8111517Y12738347D01*
X8111517Y12738347D02*
G01*
X8095842Y12726722D01*
X8095842Y12726722D02*
G01*
X8081382Y12713616D01*
X8081382Y12713616D02*
G01*
X8068276Y12699156D01*
X8068276Y12699156D02*
G01*
X8056651Y12683481D01*
X8056651Y12683481D02*
G01*
X8046618Y12666742D01*
X8046618Y12666742D02*
G01*
X8038274Y12649101D01*
X8038274Y12649101D02*
G01*
X8031700Y12630726D01*
X8031700Y12630726D02*
G01*
X8026958Y12611795D01*
X8026958Y12611795D02*
G01*
X8024094Y12592491D01*
X8024094Y12592491D02*
G01*
X8023137Y12573000D01*
X8023137Y12573000D02*
G01*
X8024094Y12553508D01*
X8024094Y12553508D02*
G01*
X8026958Y12534204D01*
X8026958Y12534204D02*
G01*
X8031700Y12515273D01*
X8031700Y12515273D02*
G01*
X8038274Y12496898D01*
X8038274Y12496898D02*
G01*
X8046618Y12479257D01*
X8046618Y12479257D02*
G01*
X8056651Y12462518D01*
X8056651Y12462518D02*
G01*
X8068276Y12446843D01*
X435982Y12432383D02*
G01*
X450442Y12419277D01*
X450442Y12419277D02*
G01*
X466117Y12407652D01*
X466117Y12407652D02*
G01*
X482856Y12397619D01*
X482856Y12397619D02*
G01*
X500497Y12389275D01*
X500497Y12389275D02*
G01*
X518872Y12382701D01*
X518872Y12382701D02*
G01*
X537803Y12377959D01*
X537803Y12377959D02*
G01*
X557107Y12375095D01*
X557107Y12375095D02*
G01*
X576599Y12374138D01*
X576599Y12374138D02*
G01*
X896600Y12374138D01*
X896600Y12374138D02*
G01*
X916092Y12375095D01*
X916092Y12375095D02*
G01*
X935396Y12377959D01*
X935396Y12377959D02*
G01*
X954327Y12382701D01*
X954327Y12382701D02*
G01*
X972702Y12389275D01*
X972702Y12389275D02*
G01*
X990343Y12397619D01*
X990343Y12397619D02*
G01*
X1007082Y12407652D01*
X1007082Y12407652D02*
G01*
X1022757Y12419277D01*
X1022757Y12419277D02*
G01*
X1037217Y12432383D01*
X1037217Y12432383D02*
G01*
X1050323Y12446843D01*
X1050323Y12446843D02*
G01*
X1061948Y12462518D01*
X1061948Y12462518D02*
G01*
X1071981Y12479257D01*
X1071981Y12479257D02*
G01*
X1080325Y12496898D01*
X1080325Y12496898D02*
G01*
X1086899Y12515273D01*
X1086899Y12515273D02*
G01*
X1091641Y12534204D01*
X1091641Y12534204D02*
G01*
X1094505Y12553508D01*
X1094505Y12553508D02*
G01*
X1095462Y12573000D01*
X1095462Y12573000D02*
G01*
X1094505Y12592491D01*
X1094505Y12592491D02*
G01*
X1091641Y12611795D01*
X1091641Y12611795D02*
G01*
X1086899Y12630726D01*
X1086899Y12630726D02*
G01*
X1080325Y12649101D01*
X1080325Y12649101D02*
G01*
X1071981Y12666742D01*
X1071981Y12666742D02*
G01*
X1061948Y12683481D01*
X1061948Y12683481D02*
G01*
X1050323Y12699156D01*
X1050323Y12699156D02*
G01*
X1037217Y12713616D01*
X1037217Y12713616D02*
G01*
X1022757Y12726722D01*
X1022757Y12726722D02*
G01*
X1007082Y12738347D01*
X1007082Y12738347D02*
G01*
X990343Y12748380D01*
X990343Y12748380D02*
G01*
X972702Y12756724D01*
X972702Y12756724D02*
G01*
X954327Y12763298D01*
X954327Y12763298D02*
G01*
X935396Y12768040D01*
X935396Y12768040D02*
G01*
X916092Y12770904D01*
X916092Y12770904D02*
G01*
X896600Y12771861D01*
X896600Y12771861D02*
G01*
X576599Y12771861D01*
X576599Y12771861D02*
G01*
X557107Y12770904D01*
X557107Y12770904D02*
G01*
X537803Y12768040D01*
X537803Y12768040D02*
G01*
X518872Y12763298D01*
X518872Y12763298D02*
G01*
X500497Y12756724D01*
X500497Y12756724D02*
G01*
X482856Y12748380D01*
X482856Y12748380D02*
G01*
X466117Y12738347D01*
X466117Y12738347D02*
G01*
X450442Y12726722D01*
X450442Y12726722D02*
G01*
X435982Y12713616D01*
X435982Y12713616D02*
G01*
X422876Y12699156D01*
X422876Y12699156D02*
G01*
X411251Y12683481D01*
X411251Y12683481D02*
G01*
X401218Y12666742D01*
X401218Y12666742D02*
G01*
X392874Y12649101D01*
X392874Y12649101D02*
G01*
X386300Y12630726D01*
X386300Y12630726D02*
G01*
X381558Y12611795D01*
X381558Y12611795D02*
G01*
X378694Y12592491D01*
X378694Y12592491D02*
G01*
X377737Y12573000D01*
X377737Y12573000D02*
G01*
X378694Y12553508D01*
X378694Y12553508D02*
G01*
X381558Y12534204D01*
X381558Y12534204D02*
G01*
X386300Y12515273D01*
X386300Y12515273D02*
G01*
X392874Y12496898D01*
X392874Y12496898D02*
G01*
X401218Y12479257D01*
X401218Y12479257D02*
G01*
X411251Y12462518D01*
X411251Y12462518D02*
G01*
X422876Y12446843D01*
X422876Y12446843D02*
G01*
X435982Y12432383D01*
X38862Y12228167D02*
G01*
X93760Y12173269D01*
X38862Y12335930D02*
G01*
X201448Y12173344D01*
X38862Y12443693D02*
G01*
X309137Y12173418D01*
X38862Y12551456D02*
G01*
X416825Y12173493D01*
X38862Y12659220D02*
G01*
X524513Y12173568D01*
X38862Y12766983D02*
G01*
X632201Y12173643D01*
X100070Y12813537D02*
G01*
X382278Y12531330D01*
X534929Y12378679D02*
G01*
X739889Y12173718D01*
X207833Y12813537D02*
G01*
X387445Y12633926D01*
X647233Y12374138D02*
G01*
X847577Y12173793D01*
X315596Y12813537D02*
G01*
X426252Y12702881D01*
X754996Y12374138D02*
G01*
X955266Y12173868D01*
X423359Y12813537D02*
G01*
X486699Y12750198D01*
X862759Y12374138D02*
G01*
X1062954Y12173943D01*
X531122Y12813537D02*
G01*
X572976Y12771683D01*
X959948Y12384712D02*
G01*
X1170642Y12174018D01*
X638885Y12813537D02*
G01*
X680562Y12771861D01*
X1028206Y12424216D02*
G01*
X1278330Y12174093D01*
X746648Y12813537D02*
G01*
X788325Y12771861D01*
X1074854Y12485332D02*
G01*
X1386018Y12174167D01*
X854411Y12813537D02*
G01*
X896088Y12771861D01*
X1095438Y12572511D02*
G01*
X1493707Y12174242D01*
X962174Y12813537D02*
G01*
X1601395Y12174317D01*
X1069937Y12813537D02*
G01*
X1709083Y12174392D01*
X1177700Y12813537D02*
G01*
X1816771Y12174467D01*
X1285464Y12813537D02*
G01*
X1924459Y12174542D01*
X1393227Y12813537D02*
G01*
X2032148Y12174617D01*
X1500990Y12813537D02*
G01*
X2139836Y12174692D01*
X1608753Y12813537D02*
G01*
X2247524Y12174766D01*
X1716516Y12813537D02*
G01*
X2355212Y12174841D01*
X1824279Y12813537D02*
G01*
X2462900Y12174916D01*
X1932042Y12813537D02*
G01*
X2570588Y12174991D01*
X2039805Y12813537D02*
G01*
X2678277Y12175066D01*
X2147568Y12813537D02*
G01*
X2785965Y12175141D01*
X2255331Y12813537D02*
G01*
X2893653Y12175216D01*
X2363094Y12813537D02*
G01*
X3001341Y12175291D01*
X2470857Y12813537D02*
G01*
X3109029Y12175366D01*
X2578620Y12813537D02*
G01*
X3216717Y12175440D01*
X2686384Y12813537D02*
G01*
X3324406Y12175515D01*
X2794147Y12813537D02*
G01*
X3432094Y12175590D01*
X2901910Y12813537D02*
G01*
X3539782Y12175665D01*
X3009673Y12813537D02*
G01*
X3647470Y12175740D01*
X3117436Y12813537D02*
G01*
X3755158Y12175815D01*
X3225199Y12813537D02*
G01*
X3862847Y12175890D01*
X3332962Y12813537D02*
G01*
X3970535Y12175965D01*
X3440725Y12813537D02*
G01*
X4078223Y12176040D01*
X3548488Y12813537D02*
G01*
X4185911Y12176114D01*
X3656251Y12813537D02*
G01*
X4293599Y12176189D01*
X3764014Y12813537D02*
G01*
X4401288Y12176264D01*
X3871777Y12813537D02*
G01*
X4508976Y12176339D01*
X3979540Y12813537D02*
G01*
X4616664Y12176414D01*
X4087303Y12813537D02*
G01*
X4724352Y12176489D01*
X4195067Y12813537D02*
G01*
X4832040Y12176564D01*
X4302830Y12813537D02*
G01*
X4939729Y12176639D01*
X4410593Y12813537D02*
G01*
X5047417Y12176714D01*
X4518356Y12813537D02*
G01*
X5155105Y12176788D01*
X4626119Y12813537D02*
G01*
X5262793Y12176863D01*
X4733882Y12813537D02*
G01*
X5370481Y12176938D01*
X4841645Y12813537D02*
G01*
X5478169Y12177013D01*
X4949408Y12813537D02*
G01*
X5585858Y12177088D01*
X5057171Y12813537D02*
G01*
X5693546Y12177163D01*
X5164934Y12813537D02*
G01*
X5801234Y12177238D01*
X5272697Y12813537D02*
G01*
X5908922Y12177313D01*
X5380460Y12813537D02*
G01*
X6016610Y12177388D01*
X5488223Y12813537D02*
G01*
X6124299Y12177462D01*
X5595987Y12813537D02*
G01*
X6231987Y12177537D01*
X5703750Y12813537D02*
G01*
X6339675Y12177612D01*
X5811513Y12813537D02*
G01*
X6447363Y12177687D01*
X5919276Y12813537D02*
G01*
X6555051Y12177762D01*
X6027039Y12813537D02*
G01*
X6662740Y12177837D01*
X6134802Y12813537D02*
G01*
X6770428Y12177912D01*
X6242565Y12813537D02*
G01*
X6878116Y12177987D01*
X6350328Y12813537D02*
G01*
X6985804Y12178062D01*
X6458091Y12813537D02*
G01*
X7093492Y12178136D01*
X6565854Y12813537D02*
G01*
X7201180Y12178211D01*
X6673617Y12813537D02*
G01*
X7308869Y12178286D01*
X6781380Y12813537D02*
G01*
X7416557Y12178361D01*
X6889143Y12813537D02*
G01*
X7524245Y12178436D01*
X6996907Y12813537D02*
G01*
X7631933Y12178511D01*
X7104670Y12813537D02*
G01*
X7739621Y12178586D01*
X7212433Y12813537D02*
G01*
X7847309Y12178661D01*
X7320196Y12813537D02*
G01*
X7954998Y12178735D01*
X7427959Y12813537D02*
G01*
X8062686Y12178810D01*
X7535722Y12813537D02*
G01*
X8170374Y12178885D01*
X7643485Y12813537D02*
G01*
X8278062Y12178960D01*
X7751248Y12813537D02*
G01*
X8026327Y12538459D01*
X8187458Y12377328D02*
G01*
X8385751Y12179035D01*
X7859011Y12813537D02*
G01*
X8034367Y12638181D01*
X8298411Y12374138D02*
G01*
X8493439Y12179110D01*
X7966774Y12813537D02*
G01*
X8074400Y12705912D01*
X8406174Y12374138D02*
G01*
X8601127Y12179185D01*
X8074537Y12813537D02*
G01*
X8136022Y12752053D01*
X8513937Y12374138D02*
G01*
X8708815Y12179260D01*
X8182300Y12813537D02*
G01*
X8223977Y12771861D01*
X8609603Y12386235D02*
G01*
X8816503Y12179335D01*
X8290063Y12813537D02*
G01*
X8331740Y12771861D01*
X8676637Y12426963D02*
G01*
X8924191Y12179409D01*
X8397826Y12813537D02*
G01*
X8439503Y12771861D01*
X8722109Y12489254D02*
G01*
X9031880Y12179484D01*
X8505590Y12813537D02*
G01*
X8547538Y12771589D01*
X8740590Y12578537D02*
G01*
X9092438Y12226690D01*
X8613353Y12813537D02*
G01*
X9092438Y12334453D01*
X8721116Y12813537D02*
G01*
X9092438Y12442216D01*
X8828879Y12813537D02*
G01*
X9092438Y12549979D01*
X8936642Y12813537D02*
G01*
X9092438Y12657742D01*
X9044405Y12813537D02*
G01*
X9092438Y12765505D01*
X9043763Y12179493D02*
G01*
X9092438Y12228167D01*
X8935925Y12179418D02*
G01*
X9092438Y12335930D01*
X8828087Y12179343D02*
G01*
X9092438Y12443693D01*
X8720249Y12179268D02*
G01*
X9092438Y12551456D01*
X8612411Y12179193D02*
G01*
X9092438Y12659220D01*
X8504573Y12179118D02*
G01*
X9092438Y12766983D01*
X8396734Y12179043D02*
G01*
X8600763Y12383072D01*
X8731928Y12514237D02*
G01*
X9031229Y12813537D01*
X8288896Y12178968D02*
G01*
X8484066Y12374138D01*
X8733973Y12624044D02*
G01*
X8923466Y12813537D01*
X8181058Y12178893D02*
G01*
X8376303Y12374138D01*
X8698107Y12695941D02*
G01*
X8815703Y12813537D01*
X8073220Y12178818D02*
G01*
X8268540Y12374138D01*
X8640144Y12745742D02*
G01*
X8707940Y12813537D01*
X7965382Y12178743D02*
G01*
X8168325Y12381685D01*
X8557728Y12771089D02*
G01*
X8600177Y12813537D01*
X7857544Y12178668D02*
G01*
X8097169Y12418293D01*
X8450737Y12771861D02*
G01*
X8492414Y12813537D01*
X7749706Y12178593D02*
G01*
X8048024Y12476911D01*
X8342974Y12771861D02*
G01*
X8384651Y12813537D01*
X7641868Y12178518D02*
G01*
X8023756Y12560405D01*
X8235211Y12771861D02*
G01*
X8276888Y12813537D01*
X7534030Y12178443D02*
G01*
X8169125Y12813537D01*
X7426192Y12178368D02*
G01*
X8061362Y12813537D01*
X7318354Y12178293D02*
G01*
X7953599Y12813537D01*
X7210516Y12178218D02*
G01*
X7845835Y12813537D01*
X7102678Y12178143D02*
G01*
X7738072Y12813537D01*
X6994839Y12178068D02*
G01*
X7630309Y12813537D01*
X6887001Y12177993D02*
G01*
X7522546Y12813537D01*
X6779163Y12177918D02*
G01*
X7414783Y12813537D01*
X6671325Y12177843D02*
G01*
X7307020Y12813537D01*
X6563487Y12177768D02*
G01*
X7199257Y12813537D01*
X6455649Y12177693D02*
G01*
X7091494Y12813537D01*
X6347811Y12177618D02*
G01*
X6983731Y12813537D01*
X6239973Y12177543D02*
G01*
X6875968Y12813537D01*
X6132135Y12177468D02*
G01*
X6768205Y12813537D01*
X6024297Y12177393D02*
G01*
X6660442Y12813537D01*
X5916459Y12177318D02*
G01*
X6552679Y12813537D01*
X5808621Y12177243D02*
G01*
X6444915Y12813537D01*
X5700783Y12177168D02*
G01*
X6337152Y12813537D01*
X5592945Y12177093D02*
G01*
X6229389Y12813537D01*
X5485107Y12177018D02*
G01*
X6121626Y12813537D01*
X5377269Y12176943D02*
G01*
X6013863Y12813537D01*
X5269430Y12176868D02*
G01*
X5906100Y12813537D01*
X5161592Y12176793D02*
G01*
X5798337Y12813537D01*
X5053754Y12176718D02*
G01*
X5690574Y12813537D01*
X4945916Y12176643D02*
G01*
X5582811Y12813537D01*
X4838078Y12176568D02*
G01*
X5475048Y12813537D01*
X4730240Y12176493D02*
G01*
X5367285Y12813537D01*
X4622402Y12176418D02*
G01*
X5259522Y12813537D01*
X4514564Y12176343D02*
G01*
X5151759Y12813537D01*
X4406726Y12176268D02*
G01*
X5043996Y12813537D01*
X4298888Y12176193D02*
G01*
X4936232Y12813537D01*
X4191050Y12176118D02*
G01*
X4828469Y12813537D01*
X4083212Y12176043D02*
G01*
X4720706Y12813537D01*
X3975374Y12175968D02*
G01*
X4612943Y12813537D01*
X3867536Y12175893D02*
G01*
X4505180Y12813537D01*
X3759698Y12175818D02*
G01*
X4397417Y12813537D01*
X3651860Y12175743D02*
G01*
X4289654Y12813537D01*
X3544021Y12175668D02*
G01*
X4181891Y12813537D01*
X3436183Y12175593D02*
G01*
X4074128Y12813537D01*
X3328345Y12175518D02*
G01*
X3966365Y12813537D01*
X3220507Y12175443D02*
G01*
X3858602Y12813537D01*
X3112669Y12175368D02*
G01*
X3750839Y12813537D01*
X3004831Y12175293D02*
G01*
X3643076Y12813537D01*
X2896993Y12175218D02*
G01*
X3535312Y12813537D01*
X2789155Y12175143D02*
G01*
X3427549Y12813537D01*
X2681317Y12175068D02*
G01*
X3319786Y12813537D01*
X2573479Y12174993D02*
G01*
X3212023Y12813537D01*
X2465641Y12174918D02*
G01*
X3104260Y12813537D01*
X2357803Y12174843D02*
G01*
X2996497Y12813537D01*
X2249965Y12174768D02*
G01*
X2888734Y12813537D01*
X2142127Y12174693D02*
G01*
X2780971Y12813537D01*
X2034289Y12174618D02*
G01*
X2673208Y12813537D01*
X1926451Y12174543D02*
G01*
X2565445Y12813537D01*
X1818612Y12174468D02*
G01*
X2457682Y12813537D01*
X1710774Y12174393D02*
G01*
X2349919Y12813537D01*
X1602936Y12174318D02*
G01*
X2242156Y12813537D01*
X1495098Y12174243D02*
G01*
X2134392Y12813537D01*
X1387260Y12174168D02*
G01*
X2026629Y12813537D01*
X1279422Y12174093D02*
G01*
X1918866Y12813537D01*
X1171584Y12174018D02*
G01*
X1811103Y12813537D01*
X1063746Y12173943D02*
G01*
X1703340Y12813537D01*
X955908Y12173868D02*
G01*
X1595577Y12813537D01*
X848070Y12173793D02*
G01*
X1487814Y12813537D01*
X740232Y12173718D02*
G01*
X947506Y12380992D01*
X1088608Y12522094D02*
G01*
X1380051Y12813537D01*
X632394Y12173643D02*
G01*
X832888Y12374138D01*
X1087415Y12628665D02*
G01*
X1272288Y12813537D01*
X524556Y12173568D02*
G01*
X725125Y12374138D01*
X1050237Y12699250D02*
G01*
X1164525Y12813537D01*
X416717Y12173493D02*
G01*
X617362Y12374138D01*
X991132Y12747907D02*
G01*
X1056762Y12813537D01*
X308880Y12173418D02*
G01*
X518349Y12382888D01*
X906820Y12771359D02*
G01*
X948999Y12813537D01*
X201042Y12173343D02*
G01*
X448624Y12420925D01*
X799559Y12771861D02*
G01*
X841236Y12813537D01*
X93203Y12173268D02*
G01*
X400567Y12480632D01*
X691796Y12771861D02*
G01*
X733473Y12813537D01*
X38862Y12226690D02*
G01*
X378085Y12565913D01*
X584033Y12771861D02*
G01*
X625709Y12813537D01*
X38862Y12334453D02*
G01*
X517946Y12813537D01*
X38862Y12442216D02*
G01*
X410183Y12813537D01*
X38862Y12549979D02*
G01*
X302420Y12813537D01*
X38862Y12657742D02*
G01*
X194657Y12813537D01*
X38862Y12765505D02*
G01*
X86894Y12813537D01*
X9092438Y38862D02*
G01*
X38862Y38862D01*
X38862Y38862D02*
G01*
X38862Y685545D01*
X38862Y685545D02*
G01*
X9092438Y685545D01*
X9092438Y685545D02*
G01*
X9092438Y38862D01*
X435982Y189583D02*
G01*
X450442Y176477D01*
X450442Y176477D02*
G01*
X466117Y164852D01*
X466117Y164852D02*
G01*
X482856Y154819D01*
X482856Y154819D02*
G01*
X500497Y146475D01*
X500497Y146475D02*
G01*
X518872Y139901D01*
X518872Y139901D02*
G01*
X537803Y135159D01*
X537803Y135159D02*
G01*
X557107Y132295D01*
X557107Y132295D02*
G01*
X576599Y131338D01*
X576599Y131338D02*
G01*
X896600Y131338D01*
X896600Y131338D02*
G01*
X916092Y132295D01*
X916092Y132295D02*
G01*
X935396Y135159D01*
X935396Y135159D02*
G01*
X954327Y139901D01*
X954327Y139901D02*
G01*
X972702Y146475D01*
X972702Y146475D02*
G01*
X990343Y154819D01*
X990343Y154819D02*
G01*
X1007082Y164852D01*
X1007082Y164852D02*
G01*
X1022757Y176477D01*
X1022757Y176477D02*
G01*
X1037217Y189583D01*
X1037217Y189583D02*
G01*
X1050323Y204043D01*
X1050323Y204043D02*
G01*
X1061948Y219718D01*
X1061948Y219718D02*
G01*
X1071981Y236457D01*
X1071981Y236457D02*
G01*
X1080325Y254098D01*
X1080325Y254098D02*
G01*
X1086899Y272473D01*
X1086899Y272473D02*
G01*
X1091641Y291404D01*
X1091641Y291404D02*
G01*
X1094505Y310708D01*
X1094505Y310708D02*
G01*
X1095462Y330200D01*
X1095462Y330200D02*
G01*
X1094505Y349691D01*
X1094505Y349691D02*
G01*
X1091641Y368995D01*
X1091641Y368995D02*
G01*
X1086899Y387926D01*
X1086899Y387926D02*
G01*
X1080325Y406301D01*
X1080325Y406301D02*
G01*
X1071981Y423942D01*
X1071981Y423942D02*
G01*
X1061948Y440681D01*
X1061948Y440681D02*
G01*
X1050323Y456356D01*
X1050323Y456356D02*
G01*
X1037217Y470816D01*
X1037217Y470816D02*
G01*
X1022757Y483922D01*
X1022757Y483922D02*
G01*
X1007082Y495547D01*
X1007082Y495547D02*
G01*
X990343Y505580D01*
X990343Y505580D02*
G01*
X972702Y513924D01*
X972702Y513924D02*
G01*
X954327Y520498D01*
X954327Y520498D02*
G01*
X935396Y525240D01*
X935396Y525240D02*
G01*
X916092Y528104D01*
X916092Y528104D02*
G01*
X896600Y529061D01*
X896600Y529061D02*
G01*
X576599Y529061D01*
X576599Y529061D02*
G01*
X557107Y528104D01*
X557107Y528104D02*
G01*
X537803Y525240D01*
X537803Y525240D02*
G01*
X518872Y520498D01*
X518872Y520498D02*
G01*
X500497Y513924D01*
X500497Y513924D02*
G01*
X482856Y505580D01*
X482856Y505580D02*
G01*
X466117Y495547D01*
X466117Y495547D02*
G01*
X450442Y483922D01*
X450442Y483922D02*
G01*
X435982Y470816D01*
X435982Y470816D02*
G01*
X422876Y456356D01*
X422876Y456356D02*
G01*
X411251Y440681D01*
X411251Y440681D02*
G01*
X401218Y423942D01*
X401218Y423942D02*
G01*
X392874Y406301D01*
X392874Y406301D02*
G01*
X386300Y387926D01*
X386300Y387926D02*
G01*
X381558Y368995D01*
X381558Y368995D02*
G01*
X378694Y349691D01*
X378694Y349691D02*
G01*
X377737Y330200D01*
X377737Y330200D02*
G01*
X378694Y310708D01*
X378694Y310708D02*
G01*
X381558Y291404D01*
X381558Y291404D02*
G01*
X386300Y272473D01*
X386300Y272473D02*
G01*
X392874Y254098D01*
X392874Y254098D02*
G01*
X401218Y236457D01*
X401218Y236457D02*
G01*
X411251Y219718D01*
X411251Y219718D02*
G01*
X422876Y204043D01*
X422876Y204043D02*
G01*
X435982Y189583D01*
X8068276Y204043D02*
G01*
X8081382Y189583D01*
X8081382Y189583D02*
G01*
X8095842Y176477D01*
X8095842Y176477D02*
G01*
X8111517Y164852D01*
X8111517Y164852D02*
G01*
X8128256Y154819D01*
X8128256Y154819D02*
G01*
X8145897Y146475D01*
X8145897Y146475D02*
G01*
X8164272Y139901D01*
X8164272Y139901D02*
G01*
X8183203Y135159D01*
X8183203Y135159D02*
G01*
X8202507Y132295D01*
X8202507Y132295D02*
G01*
X8221999Y131338D01*
X8221999Y131338D02*
G01*
X8542000Y131338D01*
X8542000Y131338D02*
G01*
X8561492Y132295D01*
X8561492Y132295D02*
G01*
X8580796Y135159D01*
X8580796Y135159D02*
G01*
X8599727Y139901D01*
X8599727Y139901D02*
G01*
X8618102Y146475D01*
X8618102Y146475D02*
G01*
X8635743Y154819D01*
X8635743Y154819D02*
G01*
X8652482Y164852D01*
X8652482Y164852D02*
G01*
X8668157Y176477D01*
X8668157Y176477D02*
G01*
X8682617Y189583D01*
X8682617Y189583D02*
G01*
X8695723Y204043D01*
X8695723Y204043D02*
G01*
X8707348Y219718D01*
X8707348Y219718D02*
G01*
X8717381Y236457D01*
X8717381Y236457D02*
G01*
X8725725Y254098D01*
X8725725Y254098D02*
G01*
X8732299Y272473D01*
X8732299Y272473D02*
G01*
X8737041Y291404D01*
X8737041Y291404D02*
G01*
X8739905Y310708D01*
X8739905Y310708D02*
G01*
X8740862Y330200D01*
X8740862Y330200D02*
G01*
X8739905Y349691D01*
X8739905Y349691D02*
G01*
X8737041Y368995D01*
X8737041Y368995D02*
G01*
X8732299Y387926D01*
X8732299Y387926D02*
G01*
X8725725Y406301D01*
X8725725Y406301D02*
G01*
X8717381Y423942D01*
X8717381Y423942D02*
G01*
X8707348Y440681D01*
X8707348Y440681D02*
G01*
X8695723Y456356D01*
X8695723Y456356D02*
G01*
X8682617Y470816D01*
X8682617Y470816D02*
G01*
X8668157Y483922D01*
X8668157Y483922D02*
G01*
X8652482Y495547D01*
X8652482Y495547D02*
G01*
X8635743Y505580D01*
X8635743Y505580D02*
G01*
X8618102Y513924D01*
X8618102Y513924D02*
G01*
X8599727Y520498D01*
X8599727Y520498D02*
G01*
X8580796Y525240D01*
X8580796Y525240D02*
G01*
X8561492Y528104D01*
X8561492Y528104D02*
G01*
X8542000Y529061D01*
X8542000Y529061D02*
G01*
X8221999Y529061D01*
X8221999Y529061D02*
G01*
X8202507Y528104D01*
X8202507Y528104D02*
G01*
X8183203Y525240D01*
X8183203Y525240D02*
G01*
X8164272Y520498D01*
X8164272Y520498D02*
G01*
X8145897Y513924D01*
X8145897Y513924D02*
G01*
X8128256Y505580D01*
X8128256Y505580D02*
G01*
X8111517Y495547D01*
X8111517Y495547D02*
G01*
X8095842Y483922D01*
X8095842Y483922D02*
G01*
X8081382Y470816D01*
X8081382Y470816D02*
G01*
X8068276Y456356D01*
X8068276Y456356D02*
G01*
X8056651Y440681D01*
X8056651Y440681D02*
G01*
X8046618Y423942D01*
X8046618Y423942D02*
G01*
X8038274Y406301D01*
X8038274Y406301D02*
G01*
X8031700Y387926D01*
X8031700Y387926D02*
G01*
X8026958Y368995D01*
X8026958Y368995D02*
G01*
X8024094Y349691D01*
X8024094Y349691D02*
G01*
X8023137Y330200D01*
X8023137Y330200D02*
G01*
X8024094Y310708D01*
X8024094Y310708D02*
G01*
X8026958Y291404D01*
X8026958Y291404D02*
G01*
X8031700Y272473D01*
X8031700Y272473D02*
G01*
X8038274Y254098D01*
X8038274Y254098D02*
G01*
X8046618Y236457D01*
X8046618Y236457D02*
G01*
X8056651Y219718D01*
X8056651Y219718D02*
G01*
X8068276Y204043D01*
X38862Y50940D02*
G01*
X50940Y38862D01*
X38862Y158703D02*
G01*
X158703Y38862D01*
X38862Y266466D02*
G01*
X266466Y38862D01*
X38862Y374229D02*
G01*
X374229Y38862D01*
X38862Y481992D02*
G01*
X481992Y38862D01*
X38862Y589755D02*
G01*
X418003Y210614D01*
X457013Y171604D02*
G01*
X589755Y38862D01*
X50835Y685545D02*
G01*
X379727Y356653D01*
X605042Y131338D02*
G01*
X697519Y38862D01*
X158598Y685545D02*
G01*
X408332Y435811D01*
X712805Y131338D02*
G01*
X805282Y38862D01*
X266361Y685545D02*
G01*
X460514Y491392D01*
X820568Y131338D02*
G01*
X913045Y38862D01*
X374124Y685545D02*
G01*
X535105Y524564D01*
X925917Y133753D02*
G01*
X1020808Y38862D01*
X481887Y685545D02*
G01*
X638371Y529061D01*
X1004267Y163165D02*
G01*
X1128571Y38862D01*
X589650Y685545D02*
G01*
X746134Y529061D01*
X1059193Y216003D02*
G01*
X1236334Y38862D01*
X697413Y685545D02*
G01*
X853897Y529061D01*
X1091624Y291335D02*
G01*
X1344097Y38862D01*
X805176Y685545D02*
G01*
X980474Y510248D01*
X1076649Y414073D02*
G01*
X1451860Y38862D01*
X912939Y685545D02*
G01*
X1559623Y38862D01*
X1020702Y685545D02*
G01*
X1667386Y38862D01*
X1128465Y685545D02*
G01*
X1775149Y38862D01*
X1236228Y685545D02*
G01*
X1882912Y38862D01*
X1343991Y685545D02*
G01*
X1990675Y38862D01*
X1451755Y685545D02*
G01*
X2098439Y38862D01*
X1559518Y685545D02*
G01*
X2206202Y38862D01*
X1667281Y685545D02*
G01*
X2313965Y38862D01*
X1775044Y685545D02*
G01*
X2421728Y38862D01*
X1882807Y685545D02*
G01*
X2529491Y38862D01*
X1990570Y685545D02*
G01*
X2637254Y38862D01*
X2098333Y685545D02*
G01*
X2745017Y38862D01*
X2206096Y685545D02*
G01*
X2852780Y38862D01*
X2313859Y685545D02*
G01*
X2960543Y38862D01*
X2421622Y685545D02*
G01*
X3068306Y38862D01*
X2529385Y685545D02*
G01*
X3176069Y38862D01*
X2637148Y685545D02*
G01*
X3283832Y38862D01*
X2744911Y685545D02*
G01*
X3391595Y38862D01*
X2852675Y685545D02*
G01*
X3499359Y38862D01*
X2960438Y685545D02*
G01*
X3607122Y38862D01*
X3068201Y685545D02*
G01*
X3714885Y38862D01*
X3175964Y685545D02*
G01*
X3822648Y38862D01*
X3283727Y685545D02*
G01*
X3930411Y38862D01*
X3391490Y685545D02*
G01*
X4038174Y38862D01*
X3499253Y685545D02*
G01*
X4145937Y38862D01*
X3607016Y685545D02*
G01*
X4253700Y38862D01*
X3714779Y685545D02*
G01*
X4361463Y38862D01*
X3822542Y685545D02*
G01*
X4469226Y38862D01*
X3930305Y685545D02*
G01*
X4576989Y38862D01*
X4038068Y685545D02*
G01*
X4684752Y38862D01*
X4145831Y685545D02*
G01*
X4792515Y38862D01*
X4253594Y685545D02*
G01*
X4900278Y38862D01*
X4361358Y685545D02*
G01*
X5008042Y38862D01*
X4469121Y685545D02*
G01*
X5115805Y38862D01*
X4576884Y685545D02*
G01*
X5223568Y38862D01*
X4684647Y685545D02*
G01*
X5331331Y38862D01*
X4792410Y685545D02*
G01*
X5439094Y38862D01*
X4900173Y685545D02*
G01*
X5546857Y38862D01*
X5007936Y685545D02*
G01*
X5654620Y38862D01*
X5115699Y685545D02*
G01*
X5762383Y38862D01*
X5223462Y685545D02*
G01*
X5870146Y38862D01*
X5331225Y685545D02*
G01*
X5977909Y38862D01*
X5438988Y685545D02*
G01*
X6085672Y38862D01*
X5546751Y685545D02*
G01*
X6193435Y38862D01*
X5654514Y685545D02*
G01*
X6301198Y38862D01*
X5762277Y685545D02*
G01*
X6408961Y38862D01*
X5870041Y685545D02*
G01*
X6516725Y38862D01*
X5977804Y685545D02*
G01*
X6624488Y38862D01*
X6085567Y685545D02*
G01*
X6732251Y38862D01*
X6193330Y685545D02*
G01*
X6840014Y38862D01*
X6301093Y685545D02*
G01*
X6947777Y38862D01*
X6408856Y685545D02*
G01*
X7055540Y38862D01*
X6516619Y685545D02*
G01*
X7163303Y38862D01*
X6624382Y685545D02*
G01*
X7271066Y38862D01*
X6732145Y685545D02*
G01*
X7378829Y38862D01*
X6839908Y685545D02*
G01*
X7486592Y38862D01*
X6947671Y685545D02*
G01*
X7594355Y38862D01*
X7055434Y685545D02*
G01*
X7702118Y38862D01*
X7163197Y685545D02*
G01*
X7809881Y38862D01*
X7270960Y685545D02*
G01*
X7917644Y38862D01*
X7378723Y685545D02*
G01*
X8025407Y38862D01*
X7486487Y685545D02*
G01*
X8133171Y38862D01*
X7594250Y685545D02*
G01*
X8051525Y228270D01*
X8120069Y159726D02*
G01*
X8240934Y38862D01*
X7702013Y685545D02*
G01*
X8025873Y361685D01*
X8256220Y131338D02*
G01*
X8348697Y38862D01*
X7809776Y685545D02*
G01*
X8055898Y439424D01*
X8363984Y131338D02*
G01*
X8456460Y38862D01*
X7917539Y685545D02*
G01*
X8109232Y493852D01*
X8471747Y131338D02*
G01*
X8564223Y38862D01*
X8025302Y685545D02*
G01*
X8185297Y525551D01*
X8576348Y134499D02*
G01*
X8671986Y38862D01*
X8133065Y685545D02*
G01*
X8289549Y529061D01*
X8653215Y165396D02*
G01*
X8779749Y38862D01*
X8240828Y685545D02*
G01*
X8397312Y529061D01*
X8707053Y219320D02*
G01*
X8887512Y38862D01*
X8348591Y685545D02*
G01*
X8505075Y529061D01*
X8737776Y296360D02*
G01*
X8995275Y38862D01*
X8456354Y685545D02*
G01*
X8637183Y504717D01*
X8716518Y425382D02*
G01*
X9092438Y49462D01*
X8564117Y685545D02*
G01*
X9092438Y157225D01*
X8671880Y685545D02*
G01*
X9092438Y264988D01*
X8779643Y685545D02*
G01*
X9092438Y372751D01*
X8887406Y685545D02*
G01*
X9092438Y480514D01*
X8995170Y685545D02*
G01*
X9092438Y588278D01*
X9080359Y38862D02*
G01*
X9092438Y50940D01*
X8972596Y38862D02*
G01*
X9092438Y158703D01*
X8864833Y38862D02*
G01*
X9092438Y266466D01*
X8757070Y38862D02*
G01*
X9092438Y374229D01*
X8649307Y38862D02*
G01*
X9092438Y481992D01*
X8541544Y38862D02*
G01*
X9092438Y589755D01*
X8433780Y38862D02*
G01*
X8526257Y131338D01*
X8740125Y345206D02*
G01*
X9080464Y685545D01*
X8326017Y38862D02*
G01*
X8418494Y131338D01*
X8715026Y427870D02*
G01*
X8972701Y685545D01*
X8218254Y38862D02*
G01*
X8310731Y131338D01*
X8665377Y485984D02*
G01*
X8864938Y685545D01*
X8110491Y38862D02*
G01*
X8203859Y132229D01*
X8593650Y522020D02*
G01*
X8757175Y685545D01*
X8002728Y38862D02*
G01*
X8122272Y158406D01*
X8492928Y529061D02*
G01*
X8649412Y685545D01*
X7894965Y38862D02*
G01*
X8064814Y208711D01*
X8385165Y529061D02*
G01*
X8541649Y685545D01*
X7787202Y38862D02*
G01*
X8029519Y281179D01*
X8277402Y529061D02*
G01*
X8433886Y685545D01*
X7679439Y38862D02*
G01*
X8033481Y392903D01*
X8159295Y518717D02*
G01*
X8326123Y685545D01*
X7571676Y38862D02*
G01*
X8218360Y685545D01*
X7463913Y38862D02*
G01*
X8110597Y685545D01*
X7356150Y38862D02*
G01*
X8002834Y685545D01*
X7248387Y38862D02*
G01*
X7895071Y685545D01*
X7140624Y38862D02*
G01*
X7787308Y685545D01*
X7032860Y38862D02*
G01*
X7679544Y685545D01*
X6925097Y38862D02*
G01*
X7571781Y685545D01*
X6817334Y38862D02*
G01*
X7464018Y685545D01*
X6709571Y38862D02*
G01*
X7356255Y685545D01*
X6601808Y38862D02*
G01*
X7248492Y685545D01*
X6494045Y38862D02*
G01*
X7140729Y685545D01*
X6386282Y38862D02*
G01*
X7032966Y685545D01*
X6278519Y38862D02*
G01*
X6925203Y685545D01*
X6170756Y38862D02*
G01*
X6817440Y685545D01*
X6062993Y38862D02*
G01*
X6709677Y685545D01*
X5955230Y38862D02*
G01*
X6601914Y685545D01*
X5847467Y38862D02*
G01*
X6494151Y685545D01*
X5739704Y38862D02*
G01*
X6386388Y685545D01*
X5631940Y38862D02*
G01*
X6278624Y685545D01*
X5524177Y38862D02*
G01*
X6170861Y685545D01*
X5416414Y38862D02*
G01*
X6063098Y685545D01*
X5308651Y38862D02*
G01*
X5955335Y685545D01*
X5200888Y38862D02*
G01*
X5847572Y685545D01*
X5093125Y38862D02*
G01*
X5739809Y685545D01*
X4985362Y38862D02*
G01*
X5632046Y685545D01*
X4877599Y38862D02*
G01*
X5524283Y685545D01*
X4769836Y38862D02*
G01*
X5416520Y685545D01*
X4662073Y38862D02*
G01*
X5308757Y685545D01*
X4554310Y38862D02*
G01*
X5200994Y685545D01*
X4446547Y38862D02*
G01*
X5093231Y685545D01*
X4338784Y38862D02*
G01*
X4985468Y685545D01*
X4231021Y38862D02*
G01*
X4877705Y685545D01*
X4123257Y38862D02*
G01*
X4769941Y685545D01*
X4015494Y38862D02*
G01*
X4662178Y685545D01*
X3907731Y38862D02*
G01*
X4554415Y685545D01*
X3799968Y38862D02*
G01*
X4446652Y685545D01*
X3692205Y38862D02*
G01*
X4338889Y685545D01*
X3584442Y38862D02*
G01*
X4231126Y685545D01*
X3476679Y38862D02*
G01*
X4123363Y685545D01*
X3368916Y38862D02*
G01*
X4015600Y685545D01*
X3261153Y38862D02*
G01*
X3907837Y685545D01*
X3153390Y38862D02*
G01*
X3800074Y685545D01*
X3045627Y38862D02*
G01*
X3692311Y685545D01*
X2937864Y38862D02*
G01*
X3584548Y685545D01*
X2830101Y38862D02*
G01*
X3476785Y685545D01*
X2722338Y38862D02*
G01*
X3369022Y685545D01*
X2614574Y38862D02*
G01*
X3261258Y685545D01*
X2506811Y38862D02*
G01*
X3153495Y685545D01*
X2399048Y38862D02*
G01*
X3045732Y685545D01*
X2291285Y38862D02*
G01*
X2937969Y685545D01*
X2183522Y38862D02*
G01*
X2830206Y685545D01*
X2075759Y38862D02*
G01*
X2722443Y685545D01*
X1967996Y38862D02*
G01*
X2614680Y685545D01*
X1860233Y38862D02*
G01*
X2506917Y685545D01*
X1752470Y38862D02*
G01*
X2399154Y685545D01*
X1644707Y38862D02*
G01*
X2291391Y685545D01*
X1536944Y38862D02*
G01*
X2183628Y685545D01*
X1429181Y38862D02*
G01*
X2075865Y685545D01*
X1321418Y38862D02*
G01*
X1968102Y685545D01*
X1213655Y38862D02*
G01*
X1860339Y685545D01*
X1105892Y38862D02*
G01*
X1752576Y685545D01*
X998128Y38862D02*
G01*
X1644812Y685545D01*
X890365Y38862D02*
G01*
X1537049Y685545D01*
X782602Y38862D02*
G01*
X875079Y131338D01*
X1094366Y350625D02*
G01*
X1429286Y685545D01*
X674839Y38862D02*
G01*
X767315Y131338D01*
X1067461Y431483D02*
G01*
X1321523Y685545D01*
X567076Y38862D02*
G01*
X659552Y131338D01*
X1016659Y488444D02*
G01*
X1213760Y685545D01*
X459313Y38862D02*
G01*
X553310Y132859D01*
X943629Y523178D02*
G01*
X1105997Y685545D01*
X351550Y38862D02*
G01*
X473259Y160571D01*
X841750Y529061D02*
G01*
X998234Y685545D01*
X243787Y38862D02*
G01*
X416954Y212029D01*
X733987Y529061D02*
G01*
X890471Y685545D01*
X136024Y38862D02*
G01*
X382962Y285799D01*
X626224Y529061D02*
G01*
X782708Y685545D01*
X38862Y49462D02*
G01*
X391300Y401901D01*
X504897Y515498D02*
G01*
X674945Y685545D01*
X38862Y157225D02*
G01*
X567182Y685545D01*
X38862Y264988D02*
G01*
X459419Y685545D01*
X38862Y372751D02*
G01*
X351656Y685545D01*
X38862Y480514D02*
G01*
X243893Y685545D01*
X38862Y588278D02*
G01*
X136129Y685545D01*
D11*
G01*
X736600Y12573000D03*
G01*
X8382000Y12573000D03*
G01*
X736600Y330200D03*
G01*
X8382000Y330200D03*
M02*
