G04 Layer: BottomSolderMaskLayer*
G04 EasyEDA v6.5.29, 2023-07-16 15:11:24*
G04 67781e16ba424d80afd487f8c688e69f,5a6b42c53f6a479593ecc07194224c93,10*
G04 Gerber Generator version 0.2*
G04 Scale: 100 percent, Rotated: No, Reflected: No *
G04 Dimensions in millimeters *
G04 leading zeros omitted , absolute positions ,4 integer and 5 decimal *
%FSLAX45Y45*%
%MOMM*%

%ADD10O,6.6032126X3.4031936000000003*%

%LPD*%
G36*
X5708192Y11172088D02*
G01*
X5692190Y11171428D01*
X5676290Y11170005D01*
X5660440Y11167770D01*
X5644743Y11164722D01*
X5629198Y11160861D01*
X5613908Y11156238D01*
X5598820Y11150803D01*
X5584088Y11144656D01*
X5569661Y11137696D01*
X5562549Y11133988D01*
X5548731Y11125962D01*
X5535320Y11117224D01*
X5522366Y11107877D01*
X5509869Y11097818D01*
X5497931Y11087150D01*
X5486603Y11075873D01*
X5475782Y11064087D01*
X5465622Y11051692D01*
X5456123Y11038840D01*
X5447284Y11025530D01*
X5439105Y11011763D01*
X5431688Y10997590D01*
X5424982Y10983061D01*
X5419039Y10968177D01*
X5413857Y10953038D01*
X5409438Y10937646D01*
X5405831Y10922101D01*
X5403037Y10906353D01*
X5401056Y10890453D01*
X5399887Y10874502D01*
X5399481Y10858500D01*
X5399887Y10842498D01*
X5401056Y10826546D01*
X5403037Y10810646D01*
X5405831Y10794898D01*
X5409438Y10779353D01*
X5413857Y10763961D01*
X5419039Y10748822D01*
X5424982Y10733938D01*
X5431688Y10719409D01*
X5439105Y10705236D01*
X5447284Y10691469D01*
X5456123Y10678160D01*
X5465622Y10665307D01*
X5475782Y10652912D01*
X5486603Y10641126D01*
X5497931Y10629849D01*
X5509869Y10619181D01*
X5522366Y10609122D01*
X5535320Y10599775D01*
X5548731Y10591038D01*
X5562549Y10583011D01*
X5576824Y10575747D01*
X5591403Y10569194D01*
X5606338Y10563402D01*
X5613908Y10560761D01*
X5629198Y10556138D01*
X5644743Y10552277D01*
X5660440Y10549229D01*
X5676290Y10546994D01*
X5692190Y10545572D01*
X5708192Y10544911D01*
X5724194Y10545114D01*
X5740146Y10546181D01*
X5756046Y10548010D01*
X5771845Y10550652D01*
X5787491Y10554106D01*
X5802884Y10558373D01*
X5810504Y10560761D01*
X5825591Y10566196D01*
X5840323Y10572343D01*
X5854750Y10579303D01*
X5868822Y10586974D01*
X5882436Y10595305D01*
X5895644Y10604347D01*
X5908344Y10614101D01*
X5920536Y10624413D01*
X5932220Y10635386D01*
X5943295Y10646968D01*
X5948629Y10652912D01*
X5958789Y10665307D01*
X5968288Y10678160D01*
X5977128Y10691469D01*
X5985256Y10705236D01*
X5992723Y10719409D01*
X5999429Y10733938D01*
X6005372Y10748822D01*
X6010554Y10763961D01*
X6014923Y10779353D01*
X6016853Y10787075D01*
X6020054Y10802772D01*
X6021374Y10810646D01*
X6023356Y10826546D01*
X6024524Y10842498D01*
X6024880Y10858500D01*
X6024524Y10874502D01*
X6023356Y10890453D01*
X6021374Y10906353D01*
X6018530Y10922101D01*
X6016853Y10929924D01*
X6012840Y10945368D01*
X6008065Y10960658D01*
X6002477Y10975644D01*
X5996178Y10990376D01*
X5989066Y11004702D01*
X5981293Y11018672D01*
X5972810Y11032236D01*
X5963615Y11045342D01*
X5953760Y11057940D01*
X5948629Y11064087D01*
X5937808Y11075873D01*
X5932220Y11081613D01*
X5920536Y11092586D01*
X5908344Y11102898D01*
X5895644Y11112652D01*
X5882436Y11121694D01*
X5868822Y11130026D01*
X5854750Y11137696D01*
X5840323Y11144656D01*
X5825591Y11150803D01*
X5810504Y11156238D01*
X5795213Y11160861D01*
X5779668Y11164722D01*
X5763971Y11167770D01*
X5748121Y11170005D01*
X5732170Y11171428D01*
X5716219Y11172088D01*
G37*
G36*
X440893Y11171174D02*
G01*
X424942Y11170564D01*
X409041Y11169142D01*
X393242Y11166906D01*
X377545Y11163858D01*
X362051Y11159998D01*
X354380Y11157813D01*
X339191Y11152784D01*
X324307Y11146993D01*
X309727Y11140490D01*
X295503Y11133226D01*
X281686Y11125200D01*
X268274Y11116564D01*
X255320Y11107166D01*
X242874Y11097209D01*
X230987Y11086541D01*
X219608Y11075314D01*
X214121Y11069523D01*
X203657Y11057432D01*
X193802Y11044885D01*
X184607Y11031829D01*
X176123Y11018316D01*
X168300Y11004346D01*
X161239Y10990072D01*
X154889Y10975390D01*
X149301Y10960455D01*
X144475Y10945215D01*
X140411Y10929772D01*
X137210Y10914126D01*
X134772Y10898327D01*
X133146Y10882426D01*
X132283Y10866475D01*
X132283Y10850524D01*
X133146Y10834573D01*
X134772Y10818672D01*
X137210Y10802874D01*
X140411Y10787227D01*
X144475Y10771784D01*
X149301Y10756544D01*
X154889Y10741609D01*
X161239Y10726928D01*
X168300Y10712653D01*
X176123Y10698683D01*
X184607Y10685170D01*
X193802Y10672114D01*
X203657Y10659567D01*
X214121Y10647476D01*
X225196Y10635996D01*
X236880Y10625074D01*
X242874Y10619790D01*
X255320Y10609834D01*
X268274Y10600436D01*
X281686Y10591800D01*
X295503Y10583773D01*
X309727Y10576509D01*
X324307Y10570006D01*
X339191Y10564215D01*
X354380Y10559186D01*
X369773Y10554970D01*
X385368Y10551515D01*
X401116Y10548874D01*
X416966Y10547045D01*
X432917Y10546029D01*
X448919Y10545826D01*
X464870Y10546435D01*
X480771Y10547858D01*
X496570Y10550093D01*
X512267Y10553141D01*
X527761Y10557002D01*
X535432Y10559186D01*
X550621Y10564215D01*
X565505Y10570006D01*
X580085Y10576509D01*
X594309Y10583773D01*
X608126Y10591800D01*
X621538Y10600436D01*
X634492Y10609834D01*
X646938Y10619790D01*
X658825Y10630458D01*
X670204Y10641685D01*
X675690Y10647476D01*
X686155Y10659567D01*
X696010Y10672114D01*
X705205Y10685170D01*
X713689Y10698683D01*
X721512Y10712653D01*
X728573Y10726928D01*
X734923Y10741609D01*
X740511Y10756544D01*
X745337Y10771784D01*
X749401Y10787227D01*
X752602Y10802874D01*
X755040Y10818672D01*
X756666Y10834573D01*
X757478Y10850524D01*
X757478Y10866475D01*
X756666Y10882426D01*
X755040Y10898327D01*
X752602Y10914126D01*
X749401Y10929772D01*
X745337Y10945215D01*
X740511Y10960455D01*
X734923Y10975390D01*
X728573Y10990072D01*
X721512Y11004346D01*
X713689Y11018316D01*
X705205Y11031829D01*
X696010Y11044885D01*
X686155Y11057432D01*
X675690Y11069523D01*
X664616Y11081004D01*
X652932Y11091926D01*
X646938Y11097209D01*
X634492Y11107166D01*
X621538Y11116564D01*
X608126Y11125200D01*
X594309Y11133226D01*
X580085Y11140490D01*
X565505Y11146993D01*
X550621Y11152784D01*
X535432Y11157813D01*
X520039Y11162030D01*
X504443Y11165484D01*
X488696Y11168126D01*
X472795Y11169954D01*
X456895Y11170970D01*
G37*
G36*
X5708091Y1772462D02*
G01*
X5692140Y1771853D01*
X5676239Y1770430D01*
X5660440Y1768195D01*
X5644743Y1765147D01*
X5629249Y1761337D01*
X5613958Y1756714D01*
X5598922Y1751279D01*
X5591505Y1748332D01*
X5576925Y1741779D01*
X5562701Y1734515D01*
X5548884Y1726539D01*
X5535472Y1717852D01*
X5522518Y1708505D01*
X5510072Y1698498D01*
X5498185Y1687830D01*
X5486806Y1676654D01*
X5476036Y1664868D01*
X5465876Y1652524D01*
X5456326Y1639722D01*
X5447487Y1626412D01*
X5439308Y1612696D01*
X5431891Y1598523D01*
X5425135Y1584045D01*
X5419191Y1569262D01*
X5413959Y1554124D01*
X5409539Y1538782D01*
X5407609Y1531061D01*
X5404408Y1515414D01*
X5401970Y1499616D01*
X5400344Y1483715D01*
X5399532Y1467764D01*
X5399379Y1459788D01*
X5399836Y1443837D01*
X5401056Y1427886D01*
X5403088Y1412087D01*
X5405932Y1396339D01*
X5409539Y1380794D01*
X5413959Y1365453D01*
X5419191Y1350365D01*
X5425135Y1335532D01*
X5431891Y1321054D01*
X5439308Y1306931D01*
X5447487Y1293164D01*
X5456326Y1279906D01*
X5465876Y1267053D01*
X5476036Y1254760D01*
X5481320Y1248765D01*
X5492394Y1237284D01*
X5504078Y1226362D01*
X5516270Y1216050D01*
X5528970Y1206347D01*
X5542127Y1197305D01*
X5555742Y1188974D01*
X5569762Y1181354D01*
X5584190Y1174445D01*
X5598922Y1168298D01*
X5613958Y1162913D01*
X5621578Y1160475D01*
X5636971Y1156258D01*
X5652566Y1152804D01*
X5668314Y1150162D01*
X5684164Y1148334D01*
X5700115Y1147318D01*
X5716117Y1147114D01*
X5732068Y1147724D01*
X5747969Y1149146D01*
X5763768Y1151382D01*
X5779465Y1154430D01*
X5794959Y1158290D01*
X5802630Y1160475D01*
X5817819Y1165504D01*
X5832703Y1171295D01*
X5847283Y1177798D01*
X5861507Y1185062D01*
X5875324Y1193088D01*
X5882081Y1197305D01*
X5895238Y1206347D01*
X5907938Y1216050D01*
X5920130Y1226362D01*
X5931814Y1237284D01*
X5942888Y1248765D01*
X5953353Y1260856D01*
X5963208Y1273403D01*
X5972403Y1286459D01*
X5980887Y1300022D01*
X5988710Y1313942D01*
X5995771Y1328267D01*
X5999073Y1335532D01*
X6005017Y1350365D01*
X6010249Y1365453D01*
X6014669Y1380794D01*
X6018276Y1396339D01*
X6021120Y1412087D01*
X6023152Y1427886D01*
X6024422Y1443837D01*
X6024829Y1459788D01*
X6024422Y1475740D01*
X6023152Y1491691D01*
X6021120Y1507540D01*
X6018276Y1523238D01*
X6016599Y1531061D01*
X6012535Y1546504D01*
X6007709Y1561744D01*
X6002121Y1576679D01*
X5995771Y1591360D01*
X5988710Y1605635D01*
X5980887Y1619605D01*
X5972403Y1633118D01*
X5963208Y1646174D01*
X5953353Y1658772D01*
X5942888Y1670812D01*
X5931814Y1682292D01*
X5920130Y1693265D01*
X5907938Y1703578D01*
X5901690Y1708505D01*
X5888736Y1717852D01*
X5875324Y1726539D01*
X5861507Y1734515D01*
X5847283Y1741779D01*
X5832703Y1748332D01*
X5817819Y1754073D01*
X5810250Y1756714D01*
X5794959Y1761337D01*
X5779465Y1765147D01*
X5763768Y1768195D01*
X5747969Y1770430D01*
X5732068Y1771853D01*
X5716117Y1772462D01*
G37*
G36*
X442163Y1773377D02*
G01*
X426161Y1772767D01*
X418185Y1772157D01*
X402285Y1770278D01*
X386537Y1767636D01*
X370890Y1764182D01*
X355447Y1759966D01*
X340258Y1754936D01*
X325374Y1749094D01*
X318008Y1745945D01*
X303580Y1738985D01*
X289560Y1731365D01*
X275894Y1722983D01*
X262737Y1713941D01*
X249986Y1704187D01*
X237794Y1693875D01*
X226161Y1682902D01*
X215087Y1671370D01*
X204622Y1659229D01*
X199593Y1653032D01*
X190093Y1640128D01*
X181254Y1626819D01*
X173075Y1613052D01*
X165658Y1598879D01*
X158953Y1584350D01*
X153009Y1569466D01*
X147828Y1554327D01*
X143408Y1538986D01*
X139801Y1523390D01*
X137007Y1507642D01*
X135890Y1499717D01*
X134315Y1483766D01*
X133553Y1467815D01*
X133553Y1451813D01*
X133807Y1443786D01*
X135026Y1427835D01*
X137007Y1411986D01*
X139801Y1396238D01*
X143408Y1380642D01*
X147828Y1365250D01*
X153009Y1350111D01*
X158953Y1335227D01*
X165658Y1320698D01*
X173075Y1306576D01*
X181254Y1292758D01*
X190093Y1279448D01*
X199593Y1266596D01*
X209753Y1254201D01*
X220522Y1242415D01*
X231902Y1231138D01*
X243840Y1220470D01*
X256286Y1210462D01*
X269240Y1201064D01*
X282702Y1192326D01*
X296519Y1184351D01*
X310794Y1177036D01*
X325374Y1170482D01*
X340258Y1164691D01*
X347827Y1162050D01*
X363169Y1157427D01*
X378663Y1153566D01*
X394411Y1150518D01*
X410260Y1148283D01*
X426161Y1146860D01*
X442163Y1146251D01*
X458165Y1146454D01*
X474116Y1147470D01*
X490016Y1149299D01*
X505815Y1151940D01*
X521411Y1155395D01*
X536854Y1159662D01*
X544474Y1162050D01*
X559562Y1167485D01*
X574294Y1173683D01*
X588721Y1180592D01*
X602792Y1188262D01*
X616407Y1196594D01*
X629615Y1205687D01*
X642315Y1215390D01*
X654507Y1225753D01*
X666191Y1236675D01*
X677265Y1248257D01*
X687730Y1260348D01*
X697585Y1272946D01*
X706729Y1286052D01*
X715264Y1299616D01*
X723036Y1313586D01*
X726694Y1320698D01*
X733348Y1335227D01*
X739343Y1350111D01*
X744524Y1365250D01*
X748893Y1380642D01*
X750824Y1388414D01*
X754024Y1404061D01*
X756412Y1419910D01*
X757326Y1427835D01*
X758494Y1443786D01*
X758850Y1459788D01*
X758799Y1467815D01*
X757986Y1483766D01*
X756412Y1499717D01*
X754024Y1515516D01*
X750824Y1531213D01*
X746810Y1546707D01*
X742035Y1561947D01*
X736447Y1576933D01*
X730097Y1591665D01*
X726694Y1598879D01*
X719226Y1613052D01*
X711098Y1626819D01*
X702259Y1640128D01*
X692708Y1653032D01*
X682548Y1665376D01*
X671779Y1677212D01*
X660400Y1688439D01*
X648462Y1699107D01*
X636016Y1709166D01*
X623062Y1718513D01*
X609650Y1727250D01*
X595782Y1735277D01*
X581558Y1742541D01*
X566978Y1749094D01*
X552043Y1754936D01*
X536854Y1759966D01*
X521411Y1764182D01*
X505815Y1767636D01*
X490016Y1770278D01*
X474116Y1772157D01*
X458165Y1773174D01*
G37*
G36*
X10685830Y1773174D02*
G01*
X10669828Y1772564D01*
X10653928Y1771142D01*
X10638129Y1768906D01*
X10622432Y1765858D01*
X10606938Y1761998D01*
X10599267Y1759813D01*
X10584078Y1754784D01*
X10569194Y1748993D01*
X10554614Y1742490D01*
X10540441Y1735226D01*
X10526572Y1727250D01*
X10513161Y1718564D01*
X10500207Y1709166D01*
X10487761Y1699209D01*
X10475874Y1688541D01*
X10464495Y1677314D01*
X10459008Y1671523D01*
X10448544Y1659432D01*
X10438688Y1646885D01*
X10429544Y1633829D01*
X10421010Y1620316D01*
X10413187Y1606346D01*
X10406126Y1592072D01*
X10399776Y1577390D01*
X10394188Y1562455D01*
X10389362Y1547215D01*
X10385348Y1531772D01*
X10382097Y1516126D01*
X10379659Y1500327D01*
X10378033Y1484426D01*
X10377220Y1468475D01*
X10377220Y1452524D01*
X10378033Y1436573D01*
X10379659Y1420672D01*
X10382097Y1404874D01*
X10385348Y1389227D01*
X10389362Y1373784D01*
X10394188Y1358544D01*
X10399776Y1343609D01*
X10406126Y1328928D01*
X10413187Y1314653D01*
X10421010Y1300683D01*
X10429544Y1287170D01*
X10438688Y1274114D01*
X10448544Y1261567D01*
X10459008Y1249476D01*
X10470083Y1237996D01*
X10481767Y1227074D01*
X10487761Y1221790D01*
X10500207Y1211834D01*
X10513161Y1202436D01*
X10526572Y1193749D01*
X10540441Y1185773D01*
X10554614Y1178509D01*
X10569194Y1172006D01*
X10584078Y1166215D01*
X10599267Y1161186D01*
X10614660Y1156970D01*
X10630255Y1153515D01*
X10646003Y1150874D01*
X10661904Y1149045D01*
X10677804Y1148029D01*
X10693806Y1147826D01*
X10709757Y1148435D01*
X10725658Y1149858D01*
X10741456Y1152093D01*
X10757154Y1155141D01*
X10772648Y1159002D01*
X10780318Y1161186D01*
X10795508Y1166215D01*
X10810392Y1172006D01*
X10824972Y1178509D01*
X10839196Y1185773D01*
X10853013Y1193749D01*
X10866424Y1202436D01*
X10879378Y1211834D01*
X10891824Y1221790D01*
X10903762Y1232458D01*
X10915091Y1243685D01*
X10920577Y1249476D01*
X10931042Y1261567D01*
X10940897Y1274114D01*
X10950092Y1287170D01*
X10958576Y1300683D01*
X10966399Y1314653D01*
X10973460Y1328928D01*
X10979810Y1343609D01*
X10985398Y1358544D01*
X10990224Y1373784D01*
X10994288Y1389227D01*
X10997539Y1404874D01*
X10999978Y1420672D01*
X11001603Y1436573D01*
X11002416Y1452524D01*
X11002416Y1468475D01*
X11001603Y1484426D01*
X10999978Y1500327D01*
X10997539Y1516126D01*
X10994288Y1531772D01*
X10990224Y1547215D01*
X10985398Y1562455D01*
X10979810Y1577390D01*
X10973460Y1592072D01*
X10966399Y1606346D01*
X10958576Y1620316D01*
X10950092Y1633829D01*
X10940897Y1646885D01*
X10931042Y1659432D01*
X10920577Y1671523D01*
X10909503Y1683004D01*
X10897870Y1693925D01*
X10885678Y1704289D01*
X10872978Y1713941D01*
X10859770Y1722983D01*
X10846155Y1731314D01*
X10832134Y1738934D01*
X10817707Y1745843D01*
X10802975Y1751990D01*
X10787938Y1757375D01*
X10780318Y1759813D01*
X10764926Y1764030D01*
X10749330Y1767484D01*
X10733582Y1770125D01*
X10717733Y1771954D01*
X10701782Y1772970D01*
G37*
D10*
G01*
X736600Y12573000D03*
G01*
X736600Y330200D03*
G01*
X10388600Y12573000D03*
G01*
X10388600Y330200D03*
G36*
X0Y699998D02*
G01*
X11140008Y699998D01*
X11140008Y0D01*
X0Y0D01*
G37*
G36*
X0Y12852400D02*
G01*
X11140008Y12852400D01*
X11140008Y12152401D01*
X0Y12152401D01*
G37*
M02*
