G04 Layer: BottomSilkscreenLayer*
G04 EasyEDA v6.5.29, 2023-07-16 15:11:24*
G04 67781e16ba424d80afd487f8c688e69f,5a6b42c53f6a479593ecc07194224c93,10*
G04 Gerber Generator version 0.2*
G04 Scale: 100 percent, Rotated: No, Reflected: No *
G04 Dimensions in millimeters *
G04 leading zeros omitted , absolute positions ,4 integer and 5 decimal *
%FSLAX45Y45*%
%MOMM*%

%ADD10C,0.2032*%
%ADD11C,0.1524*%
%ADD12C,0.2540*%

%LPD*%
D10*
X2845998Y9925489D02*
G01*
X2845998Y9810945D01*
X2845998Y9925489D02*
G01*
X2796908Y9925489D01*
X2780545Y9920036D01*
X2775092Y9914582D01*
X2769636Y9903673D01*
X2769636Y9887308D01*
X2775092Y9876398D01*
X2780545Y9870945D01*
X2796908Y9865489D01*
X2845998Y9865489D01*
X2733636Y9925489D02*
G01*
X2733636Y9810945D01*
X2615818Y9898217D02*
G01*
X2621274Y9909126D01*
X2632184Y9920036D01*
X2643090Y9925489D01*
X2664909Y9925489D01*
X2675816Y9920036D01*
X2686728Y9909126D01*
X2692181Y9898217D01*
X2697637Y9881854D01*
X2697637Y9854582D01*
X2692181Y9838217D01*
X2686728Y9827308D01*
X2675816Y9816398D01*
X2664909Y9810945D01*
X2643090Y9810945D01*
X2632184Y9816398D01*
X2621274Y9827308D01*
X2615818Y9838217D01*
X2547089Y9925489D02*
G01*
X2557998Y9920036D01*
X2568910Y9909126D01*
X2574363Y9898217D01*
X2579819Y9881854D01*
X2579819Y9854582D01*
X2574363Y9838217D01*
X2568910Y9827308D01*
X2557998Y9816398D01*
X2547089Y9810945D01*
X2525273Y9810945D01*
X2514366Y9816398D01*
X2503457Y9827308D01*
X2498001Y9838217D01*
X2492545Y9854582D01*
X2492545Y9881854D01*
X2498001Y9898217D01*
X2503457Y9909126D01*
X2514366Y9920036D01*
X2525273Y9925489D01*
X2547089Y9925489D01*
X2456545Y9860036D02*
G01*
X2358367Y9860036D01*
X2322362Y9925489D02*
G01*
X2322362Y9810945D01*
X2322362Y9925489D02*
G01*
X2273272Y9925489D01*
X2256909Y9920036D01*
X2251456Y9914582D01*
X2246000Y9903673D01*
X2246000Y9892764D01*
X2251456Y9881854D01*
X2256909Y9876398D01*
X2273272Y9870945D01*
X2322362Y9870945D01*
X2284181Y9870945D02*
G01*
X2246000Y9810945D01*
X2210000Y9925489D02*
G01*
X2210000Y9810945D01*
X2210000Y9925489D02*
G01*
X2139091Y9925489D01*
X2210000Y9870945D02*
G01*
X2166363Y9870945D01*
X2210000Y9810945D02*
G01*
X2139091Y9810945D01*
X2026729Y9909126D02*
G01*
X2037636Y9920036D01*
X2054004Y9925489D01*
X2075817Y9925489D01*
X2092182Y9920036D01*
X2103092Y9909126D01*
X2103092Y9898217D01*
X2097638Y9887308D01*
X2092182Y9881854D01*
X2081275Y9876398D01*
X2048545Y9865489D01*
X2037636Y9860036D01*
X2032185Y9854582D01*
X2026729Y9843673D01*
X2026729Y9827308D01*
X2037636Y9816398D01*
X2054004Y9810945D01*
X2075817Y9810945D01*
X2092182Y9816398D01*
X2103092Y9827308D01*
X1952548Y9925489D02*
G01*
X1952548Y9810945D01*
X1990730Y9925489D02*
G01*
X1914367Y9925489D01*
X1845640Y9925489D02*
G01*
X1856549Y9920036D01*
X1867458Y9909126D01*
X1872912Y9898217D01*
X1878368Y9881854D01*
X1878368Y9854582D01*
X1872912Y9838217D01*
X1867458Y9827308D01*
X1856549Y9816398D01*
X1845640Y9810945D01*
X1823821Y9810945D01*
X1812912Y9816398D01*
X1802003Y9827308D01*
X1796549Y9838217D01*
X1791093Y9854582D01*
X1791093Y9881854D01*
X1796549Y9898217D01*
X1802003Y9909126D01*
X1812912Y9920036D01*
X1823821Y9925489D01*
X1845640Y9925489D01*
X1755094Y9925489D02*
G01*
X1755094Y9843673D01*
X1749640Y9827308D01*
X1738731Y9816398D01*
X1722366Y9810945D01*
X1711457Y9810945D01*
X1695094Y9816398D01*
X1684185Y9827308D01*
X1678731Y9843673D01*
X1678731Y9925489D01*
X1560913Y9898217D02*
G01*
X1566367Y9909126D01*
X1577276Y9920036D01*
X1588185Y9925489D01*
X1610004Y9925489D01*
X1620913Y9920036D01*
X1631822Y9909126D01*
X1637276Y9898217D01*
X1642732Y9881854D01*
X1642732Y9854582D01*
X1637276Y9838217D01*
X1631822Y9827308D01*
X1620913Y9816398D01*
X1610004Y9810945D01*
X1588185Y9810945D01*
X1577276Y9816398D01*
X1566367Y9827308D01*
X1560913Y9838217D01*
X1524914Y9925489D02*
G01*
X1524914Y9810945D01*
X1448549Y9925489D02*
G01*
X1448549Y9810945D01*
X1524914Y9870945D02*
G01*
X1448549Y9870945D01*
X1412549Y9860036D02*
G01*
X1314368Y9860036D01*
X1278369Y9925489D02*
G01*
X1278369Y9810945D01*
X1278369Y9810945D02*
G01*
X1212913Y9810945D01*
X1095095Y9898217D02*
G01*
X1100551Y9909126D01*
X1111458Y9920036D01*
X1122367Y9925489D01*
X1144186Y9925489D01*
X1155095Y9920036D01*
X1166004Y9909126D01*
X1171458Y9898217D01*
X1176914Y9881854D01*
X1176914Y9854582D01*
X1171458Y9838217D01*
X1166004Y9827308D01*
X1155095Y9816398D01*
X1144186Y9810945D01*
X1122367Y9810945D01*
X1111458Y9816398D01*
X1100551Y9827308D01*
X1095095Y9838217D01*
X1059096Y9925489D02*
G01*
X1059096Y9810945D01*
X1059096Y9925489D02*
G01*
X1020914Y9925489D01*
X1004549Y9920036D01*
X993640Y9909126D01*
X988187Y9898217D01*
X982733Y9881854D01*
X982733Y9854582D01*
X988187Y9838217D01*
X993640Y9827308D01*
X1004549Y9816398D01*
X1020914Y9810945D01*
X1059096Y9810945D01*
X946731Y9860036D02*
G01*
X848550Y9860036D01*
X801641Y9925489D02*
G01*
X741641Y9925489D01*
X774369Y9881854D01*
X758004Y9881854D01*
X747095Y9876398D01*
X741641Y9870945D01*
X736188Y9854582D01*
X736188Y9843673D01*
X741641Y9827308D01*
X752551Y9816398D01*
X768913Y9810945D01*
X785279Y9810945D01*
X801641Y9816398D01*
X807095Y9821854D01*
X812551Y9832764D01*
X694733Y9838217D02*
G01*
X700186Y9832764D01*
X694733Y9827308D01*
X689277Y9832764D01*
X694733Y9838217D01*
X587824Y9925489D02*
G01*
X642368Y9925489D01*
X647824Y9876398D01*
X642368Y9881854D01*
X626005Y9887308D01*
X609643Y9887308D01*
X593277Y9881854D01*
X582368Y9870945D01*
X576915Y9854582D01*
X576915Y9843673D01*
X582368Y9827308D01*
X593277Y9816398D01*
X609643Y9810945D01*
X626005Y9810945D01*
X642368Y9816398D01*
X647824Y9821854D01*
X653277Y9832764D01*
X3616891Y3766057D02*
G01*
X3616891Y3678681D01*
X3622476Y3662426D01*
X3627810Y3656837D01*
X3638735Y3651504D01*
X3649657Y3651504D01*
X3660576Y3656837D01*
X3666164Y3662426D01*
X3671498Y3678681D01*
X3671498Y3689604D01*
X3581074Y3766057D02*
G01*
X3581074Y3651504D01*
X3581074Y3651504D02*
G01*
X3515542Y3651504D01*
X3397689Y3738626D02*
G01*
X3403023Y3749547D01*
X3413942Y3760470D01*
X3424864Y3766057D01*
X3446708Y3766057D01*
X3457630Y3760470D01*
X3468555Y3749547D01*
X3474140Y3738626D01*
X3479474Y3722370D01*
X3479474Y3695192D01*
X3474140Y3678681D01*
X3468555Y3667760D01*
X3457630Y3656837D01*
X3446708Y3651504D01*
X3424864Y3651504D01*
X3413942Y3656837D01*
X3403023Y3667760D01*
X3397689Y3678681D01*
X3307262Y3766057D02*
G01*
X3307262Y3678681D01*
X3312596Y3662426D01*
X3317930Y3656837D01*
X3328855Y3651504D01*
X3339774Y3651504D01*
X3350696Y3656837D01*
X3356287Y3662426D01*
X3361621Y3678681D01*
X3361621Y3689604D01*
X3271194Y3766057D02*
G01*
X3271194Y3651504D01*
X3271194Y3651504D02*
G01*
X3205662Y3651504D01*
X3087809Y3738626D02*
G01*
X3093394Y3749547D01*
X3104319Y3760470D01*
X3115241Y3766057D01*
X3136828Y3766057D01*
X3147753Y3760470D01*
X3158675Y3749547D01*
X3164260Y3738626D01*
X3169594Y3722370D01*
X3169594Y3695192D01*
X3164260Y3678681D01*
X3158675Y3667760D01*
X3147753Y3656837D01*
X3136828Y3651504D01*
X3115241Y3651504D01*
X3104319Y3656837D01*
X3093394Y3667760D01*
X3087809Y3678681D01*
X2997385Y3766057D02*
G01*
X2997385Y3678681D01*
X3002719Y3662426D01*
X3008307Y3656837D01*
X3019226Y3651504D01*
X3030148Y3651504D01*
X3041073Y3656837D01*
X3046407Y3662426D01*
X3051741Y3678681D01*
X3051741Y3689604D01*
X2961314Y3766057D02*
G01*
X2961314Y3651504D01*
X2961314Y3651504D02*
G01*
X2895785Y3651504D01*
X2777926Y3738626D02*
G01*
X2783514Y3749547D01*
X2794439Y3760470D01*
X2805358Y3766057D01*
X2827205Y3766057D01*
X2838124Y3760470D01*
X2849046Y3749547D01*
X2854380Y3738626D01*
X2859971Y3722370D01*
X2859971Y3695192D01*
X2854380Y3678681D01*
X2849046Y3667760D01*
X2838124Y3656837D01*
X2827205Y3651504D01*
X2805358Y3651504D01*
X2794439Y3656837D01*
X2783514Y3667760D01*
X2777926Y3678681D01*
X2687505Y3766057D02*
G01*
X2687505Y3678681D01*
X2692839Y3662426D01*
X2698424Y3656837D01*
X2709346Y3651504D01*
X2720271Y3651504D01*
X2731190Y3656837D01*
X2736524Y3662426D01*
X2742112Y3678681D01*
X2742112Y3689604D01*
X2651437Y3766057D02*
G01*
X2651437Y3651504D01*
X2651437Y3651504D02*
G01*
X2586159Y3651504D01*
X2468303Y3738626D02*
G01*
X2473637Y3749547D01*
X2484559Y3760470D01*
X2495478Y3766057D01*
X2517325Y3766057D01*
X2528244Y3760470D01*
X2539169Y3749547D01*
X2544503Y3738626D01*
X2550091Y3722370D01*
X2550091Y3695192D01*
X2544503Y3678681D01*
X2539169Y3667760D01*
X2528244Y3656837D01*
X2517325Y3651504D01*
X2495478Y3651504D01*
X2484559Y3656837D01*
X2473637Y3667760D01*
X2468303Y3678681D01*
X10274223Y10039789D02*
G01*
X10274223Y9925245D01*
X10312405Y10039789D02*
G01*
X10236042Y10039789D01*
X10200043Y9974336D02*
G01*
X10101859Y9974336D01*
X10065859Y10039789D02*
G01*
X10065859Y9925245D01*
X10065859Y10039789D02*
G01*
X10016771Y10039789D01*
X10000406Y10034336D01*
X9994950Y10028882D01*
X9989497Y10017973D01*
X9989497Y10007064D01*
X9994950Y9996154D01*
X10000406Y9990698D01*
X10016771Y9985245D01*
X10065859Y9985245D02*
G01*
X10016771Y9985245D01*
X10000406Y9979789D01*
X9994950Y9974336D01*
X9989497Y9963426D01*
X9989497Y9947064D01*
X9994950Y9936154D01*
X10000406Y9930698D01*
X10016771Y9925245D01*
X10065859Y9925245D01*
X9909860Y10039789D02*
G01*
X9953497Y9925245D01*
X9909860Y10039789D02*
G01*
X9866223Y9925245D01*
X9937132Y9963426D02*
G01*
X9882588Y9963426D01*
X9830224Y10039789D02*
G01*
X9830224Y9925245D01*
X9830224Y10039789D02*
G01*
X9781136Y10039789D01*
X9764770Y10034336D01*
X9759315Y10028882D01*
X9753864Y10017973D01*
X9753864Y10007064D01*
X9759315Y9996154D01*
X9764770Y9990698D01*
X9781136Y9985245D01*
X9830224Y9985245D01*
X9792042Y9985245D02*
G01*
X9753864Y9925245D01*
X9633864Y10039789D02*
G01*
X9633864Y9925245D01*
X9633864Y10039789D02*
G01*
X9584773Y10039789D01*
X9568408Y10034336D01*
X9562952Y10028882D01*
X9557496Y10017973D01*
X9557496Y10007064D01*
X9562952Y9996154D01*
X9568408Y9990698D01*
X9584773Y9985245D01*
X9633864Y9985245D02*
G01*
X9584773Y9985245D01*
X9568408Y9979789D01*
X9562952Y9974336D01*
X9557496Y9963426D01*
X9557496Y9947064D01*
X9562952Y9936154D01*
X9568408Y9930698D01*
X9584773Y9925245D01*
X9633864Y9925245D01*
X9521497Y10039789D02*
G01*
X9521497Y9925245D01*
X9521497Y10039789D02*
G01*
X9472406Y10039789D01*
X9456044Y10034336D01*
X9450590Y10028882D01*
X9445134Y10017973D01*
X9445134Y10007064D01*
X9450590Y9996154D01*
X9456044Y9990698D01*
X9472406Y9985245D01*
X9521497Y9985245D01*
X9483316Y9985245D02*
G01*
X9445134Y9925245D01*
X9365498Y10039789D02*
G01*
X9409135Y9925245D01*
X9365498Y10039789D02*
G01*
X9321860Y9925245D01*
X9392770Y9963426D02*
G01*
X9338226Y9963426D01*
X9204043Y10012517D02*
G01*
X9209498Y10023426D01*
X9220408Y10034336D01*
X9231317Y10039789D01*
X9253136Y10039789D01*
X9264045Y10034336D01*
X9274952Y10023426D01*
X9280410Y10012517D01*
X9285861Y9996154D01*
X9285861Y9968882D01*
X9280410Y9952517D01*
X9274952Y9941608D01*
X9264045Y9930698D01*
X9253136Y9925245D01*
X9231317Y9925245D01*
X9220408Y9930698D01*
X9209498Y9941608D01*
X9204043Y9952517D01*
X9168043Y10039789D02*
G01*
X9168043Y9925245D01*
X9091681Y10039789D02*
G01*
X9168043Y9963426D01*
X9140771Y9990698D02*
G01*
X9091681Y9925245D01*
X9055681Y10039789D02*
G01*
X9055681Y9925245D01*
X9055681Y10039789D02*
G01*
X8984772Y10039789D01*
X9055681Y9985245D02*
G01*
X9012044Y9985245D01*
X9055681Y9925245D02*
G01*
X8984772Y9925245D01*
X8910591Y10039789D02*
G01*
X8910591Y9925245D01*
X8948773Y10039789D02*
G01*
X8872410Y10039789D01*
D11*
X6228372Y12084491D02*
G01*
X6239281Y12079036D01*
X6250190Y12068126D01*
X6255646Y12057217D01*
X6261100Y12040854D01*
X6261100Y12013582D01*
X6255646Y11997217D01*
X6250190Y11986308D01*
X6239281Y11975398D01*
X6228372Y11969945D01*
X6206553Y11969945D01*
X6195644Y11975398D01*
X6184737Y11986308D01*
X6179281Y11997217D01*
X6173828Y12013582D01*
X6173828Y12040854D01*
X6179281Y12057217D01*
X6184737Y12068126D01*
X6195644Y12079036D01*
X6206553Y12084491D01*
X6228372Y12084491D01*
X6212009Y11991764D02*
G01*
X6179281Y11959036D01*
X6056010Y12057217D02*
G01*
X6061463Y12068126D01*
X6072372Y12079036D01*
X6083282Y12084491D01*
X6105100Y12084491D01*
X6116010Y12079036D01*
X6126919Y12068126D01*
X6132372Y12057217D01*
X6137826Y12040854D01*
X6137826Y12013582D01*
X6132372Y11997217D01*
X6126919Y11986308D01*
X6116010Y11975398D01*
X6105100Y11969945D01*
X6083282Y11969945D01*
X6072372Y11975398D01*
X6061463Y11986308D01*
X6056010Y11997217D01*
X6248400Y11881291D02*
G01*
X6248400Y11766745D01*
X6248400Y11881291D02*
G01*
X6210218Y11881291D01*
X6193853Y11875836D01*
X6182944Y11864926D01*
X6177490Y11854017D01*
X6172037Y11837654D01*
X6172037Y11810382D01*
X6177490Y11794017D01*
X6182944Y11783108D01*
X6193853Y11772198D01*
X6210218Y11766745D01*
X6248400Y11766745D01*
X6092400Y11881291D02*
G01*
X6136035Y11766745D01*
X6092400Y11881291D02*
G01*
X6048763Y11766745D01*
X6119672Y11804926D02*
G01*
X6065126Y11804926D01*
X5974582Y11881291D02*
G01*
X5974582Y11766745D01*
X6012764Y11881291D02*
G01*
X5936399Y11881291D01*
X5900399Y11881291D02*
G01*
X5900399Y11766745D01*
X5900399Y11881291D02*
G01*
X5829490Y11881291D01*
X5900399Y11826745D02*
G01*
X5856762Y11826745D01*
X5900399Y11766745D02*
G01*
X5829490Y11766745D01*
X3302000Y11881291D02*
G01*
X3302000Y11766745D01*
X3302000Y11881291D02*
G01*
X3225637Y11766745D01*
X3225637Y11881291D02*
G01*
X3225637Y11766745D01*
X3189635Y11881291D02*
G01*
X3189635Y11799473D01*
X3184182Y11783108D01*
X3173272Y11772198D01*
X3156910Y11766745D01*
X3146000Y11766745D01*
X3129635Y11772198D01*
X3118726Y11783108D01*
X3113272Y11799473D01*
X3113272Y11881291D01*
X3077273Y11881291D02*
G01*
X3077273Y11766745D01*
X3077273Y11881291D02*
G01*
X3033636Y11766745D01*
X2989999Y11881291D02*
G01*
X3033636Y11766745D01*
X2989999Y11881291D02*
G01*
X2989999Y11766745D01*
X2953999Y11881291D02*
G01*
X2953999Y11766745D01*
X2953999Y11881291D02*
G01*
X2904909Y11881291D01*
X2888546Y11875836D01*
X2883090Y11870382D01*
X2877637Y11859473D01*
X2877637Y11848564D01*
X2883090Y11837654D01*
X2888546Y11832198D01*
X2904909Y11826745D01*
X2953999Y11826745D02*
G01*
X2904909Y11826745D01*
X2888546Y11821292D01*
X2883090Y11815836D01*
X2877637Y11804926D01*
X2877637Y11788564D01*
X2883090Y11777654D01*
X2888546Y11772198D01*
X2904909Y11766745D01*
X2953999Y11766745D01*
X2841635Y11881291D02*
G01*
X2841635Y11766745D01*
X2841635Y11881291D02*
G01*
X2770728Y11881291D01*
X2841635Y11826745D02*
G01*
X2798000Y11826745D01*
X2841635Y11766745D02*
G01*
X2770728Y11766745D01*
X2734726Y11881291D02*
G01*
X2734726Y11766745D01*
X2734726Y11881291D02*
G01*
X2685635Y11881291D01*
X2669273Y11875836D01*
X2663817Y11870382D01*
X2658363Y11859473D01*
X2658363Y11848564D01*
X2663817Y11837654D01*
X2669273Y11832198D01*
X2685635Y11826745D01*
X2734726Y11826745D01*
X2696545Y11826745D02*
G01*
X2658363Y11766745D01*
X3238337Y12068126D02*
G01*
X3249244Y12079036D01*
X3265609Y12084491D01*
X3287428Y12084491D01*
X3303790Y12079036D01*
X3314700Y12068126D01*
X3314700Y12057217D01*
X3309246Y12046308D01*
X3303790Y12040854D01*
X3292881Y12035398D01*
X3260153Y12024492D01*
X3249244Y12019036D01*
X3243790Y12013582D01*
X3238337Y12002673D01*
X3238337Y11986308D01*
X3249244Y11975398D01*
X3265609Y11969945D01*
X3287428Y11969945D01*
X3303790Y11975398D01*
X3314700Y11986308D01*
X3202335Y12084491D02*
G01*
X3202335Y11969945D01*
X3202335Y12084491D02*
G01*
X3131426Y12084491D01*
X3202335Y12029945D02*
G01*
X3158700Y12029945D01*
X3202335Y11969945D02*
G01*
X3131426Y11969945D01*
X3095426Y12084491D02*
G01*
X3095426Y11969945D01*
X3095426Y12084491D02*
G01*
X3046336Y12084491D01*
X3029973Y12079036D01*
X3024517Y12073582D01*
X3019064Y12062673D01*
X3019064Y12051764D01*
X3024517Y12040854D01*
X3029973Y12035398D01*
X3046336Y12029945D01*
X3095426Y12029945D01*
X3057245Y12029945D02*
G01*
X3019064Y11969945D01*
X2983064Y12084491D02*
G01*
X2983064Y11969945D01*
X2903428Y12084491D02*
G01*
X2947062Y11969945D01*
X2903428Y12084491D02*
G01*
X2859791Y11969945D01*
X2930700Y12008126D02*
G01*
X2876153Y12008126D01*
X2823791Y12084491D02*
G01*
X2823791Y11969945D01*
X2823791Y11969945D02*
G01*
X2758335Y11969945D01*
D10*
X10883900Y12084489D02*
G01*
X10883900Y11969945D01*
X10883900Y12084489D02*
G01*
X10840262Y11969945D01*
X10796628Y12084489D02*
G01*
X10840262Y11969945D01*
X10796628Y12084489D02*
G01*
X10796628Y11969945D01*
X10662445Y12106308D02*
G01*
X10760628Y11931764D01*
X10626445Y12084489D02*
G01*
X10626445Y11969945D01*
X10626445Y12084489D02*
G01*
X10555536Y12084489D01*
X10626445Y12029945D02*
G01*
X10582810Y12029945D01*
X10626445Y11969945D02*
G01*
X10555536Y11969945D01*
X10397355Y12084489D02*
G01*
X10397355Y11969945D01*
X10435536Y12084489D02*
G01*
X10359174Y12084489D01*
X10323174Y12084489D02*
G01*
X10323174Y11969945D01*
X10323174Y12084489D02*
G01*
X10274084Y12084489D01*
X10257718Y12079036D01*
X10252265Y12073582D01*
X10246809Y12062673D01*
X10246809Y12051764D01*
X10252265Y12040854D01*
X10257718Y12035399D01*
X10274084Y12029945D01*
X10323174Y12029945D01*
X10284990Y12029945D02*
G01*
X10246809Y11969945D01*
X10167172Y12084489D02*
G01*
X10210810Y11969945D01*
X10167172Y12084489D02*
G01*
X10123538Y11969945D01*
X10194447Y12008126D02*
G01*
X10139900Y12008126D01*
X10087538Y12084489D02*
G01*
X10087538Y11969945D01*
X10087538Y12084489D02*
G01*
X10011173Y11969945D01*
X10011173Y12084489D02*
G01*
X10011173Y11969945D01*
X9898811Y12068126D02*
G01*
X9909721Y12079036D01*
X9926083Y12084489D01*
X9947902Y12084489D01*
X9964265Y12079036D01*
X9975174Y12068126D01*
X9975174Y12057217D01*
X9969720Y12046308D01*
X9964265Y12040854D01*
X9953355Y12035399D01*
X9920630Y12024489D01*
X9909721Y12019036D01*
X9904265Y12013582D01*
X9898811Y12002673D01*
X9898811Y11986308D01*
X9909721Y11975399D01*
X9926083Y11969945D01*
X9947902Y11969945D01*
X9964265Y11975399D01*
X9975174Y11986308D01*
X9862812Y12084489D02*
G01*
X9862812Y11969945D01*
X9788629Y12084489D02*
G01*
X9788629Y11969945D01*
X9826810Y12084489D02*
G01*
X9750447Y12084489D01*
X9714448Y12084489D02*
G01*
X9714448Y11969945D01*
X9645721Y12084489D02*
G01*
X9656630Y12079036D01*
X9667539Y12068126D01*
X9672993Y12057217D01*
X9678449Y12040854D01*
X9678449Y12013582D01*
X9672993Y11997217D01*
X9667539Y11986308D01*
X9656630Y11975399D01*
X9645721Y11969945D01*
X9623902Y11969945D01*
X9612993Y11975399D01*
X9602083Y11986308D01*
X9596630Y11997217D01*
X9591174Y12013582D01*
X9591174Y12040854D01*
X9596630Y12057217D01*
X9602083Y12068126D01*
X9612993Y12079036D01*
X9623902Y12084489D01*
X9645721Y12084489D01*
X9555175Y12084489D02*
G01*
X9555175Y11969945D01*
X9555175Y12084489D02*
G01*
X9478812Y11969945D01*
X9478812Y12084489D02*
G01*
X9478812Y11969945D01*
X9276994Y12057217D02*
G01*
X9282447Y12068126D01*
X9293357Y12079036D01*
X9304266Y12084489D01*
X9326084Y12084489D01*
X9336994Y12079036D01*
X9347903Y12068126D01*
X9353356Y12057217D01*
X9358812Y12040854D01*
X9358812Y12013582D01*
X9353356Y11997217D01*
X9347903Y11986308D01*
X9336994Y11975399D01*
X9326084Y11969945D01*
X9304266Y11969945D01*
X9293357Y11975399D01*
X9282447Y11986308D01*
X9276994Y11997217D01*
X9208267Y12084489D02*
G01*
X9219176Y12079036D01*
X9230085Y12068126D01*
X9235539Y12057217D01*
X9240994Y12040854D01*
X9240994Y12013582D01*
X9235539Y11997217D01*
X9230085Y11986308D01*
X9219176Y11975399D01*
X9208267Y11969945D01*
X9186448Y11969945D01*
X9175539Y11975399D01*
X9164629Y11986308D01*
X9159176Y11997217D01*
X9153720Y12013582D01*
X9153720Y12040854D01*
X9159176Y12057217D01*
X9164629Y12068126D01*
X9175539Y12079036D01*
X9186448Y12084489D01*
X9208267Y12084489D01*
X9117721Y12084489D02*
G01*
X9117721Y11969945D01*
X9117721Y12084489D02*
G01*
X9041358Y11969945D01*
X9041358Y12084489D02*
G01*
X9041358Y11969945D01*
X8967175Y12084489D02*
G01*
X8967175Y11969945D01*
X9005359Y12084489D02*
G01*
X8928994Y12084489D01*
X8892994Y12084489D02*
G01*
X8892994Y11969945D01*
X8892994Y12084489D02*
G01*
X8843904Y12084489D01*
X8827541Y12079036D01*
X8822085Y12073582D01*
X8816632Y12062673D01*
X8816632Y12051764D01*
X8822085Y12040854D01*
X8827541Y12035399D01*
X8843904Y12029945D01*
X8892994Y12029945D01*
X8854813Y12029945D02*
G01*
X8816632Y11969945D01*
X8747904Y12084489D02*
G01*
X8758814Y12079036D01*
X8769723Y12068126D01*
X8775176Y12057217D01*
X8780632Y12040854D01*
X8780632Y12013582D01*
X8775176Y11997217D01*
X8769723Y11986308D01*
X8758814Y11975399D01*
X8747904Y11969945D01*
X8726086Y11969945D01*
X8715176Y11975399D01*
X8704267Y11986308D01*
X8698814Y11997217D01*
X8693358Y12013582D01*
X8693358Y12040854D01*
X8698814Y12057217D01*
X8704267Y12068126D01*
X8715176Y12079036D01*
X8726086Y12084489D01*
X8747904Y12084489D01*
X8657358Y12084489D02*
G01*
X8657358Y11969945D01*
X8657358Y11969945D02*
G01*
X8591905Y11969945D01*
X8555903Y12084489D02*
G01*
X8555903Y11969945D01*
X8555903Y11969945D02*
G01*
X8490450Y11969945D01*
X8454450Y12084489D02*
G01*
X8454450Y11969945D01*
X8454450Y12084489D02*
G01*
X8383541Y12084489D01*
X8454450Y12029945D02*
G01*
X8410813Y12029945D01*
X8454450Y11969945D02*
G01*
X8383541Y11969945D01*
X8347542Y12084489D02*
G01*
X8347542Y11969945D01*
X8347542Y12084489D02*
G01*
X8298451Y12084489D01*
X8282086Y12079036D01*
X8276633Y12073582D01*
X8271177Y12062673D01*
X8271177Y12051764D01*
X8276633Y12040854D01*
X8282086Y12035399D01*
X8298451Y12029945D01*
X8347542Y12029945D01*
X8309358Y12029945D02*
G01*
X8271177Y11969945D01*
X8151177Y12084489D02*
G01*
X8107542Y11969945D01*
X8063905Y12084489D02*
G01*
X8107542Y11969945D01*
X8027906Y12062673D02*
G01*
X8016996Y12068126D01*
X8000634Y12084489D01*
X8000634Y11969945D01*
X7959178Y11997217D02*
G01*
X7964632Y11991764D01*
X7959178Y11986308D01*
X7953722Y11991764D01*
X7959178Y11997217D01*
X7906814Y12084489D02*
G01*
X7846814Y12084489D01*
X7879542Y12040854D01*
X7863179Y12040854D01*
X7852270Y12035399D01*
X7846814Y12029945D01*
X7841361Y12013582D01*
X7841361Y12002673D01*
X7846814Y11986308D01*
X7857723Y11975399D01*
X7874088Y11969945D01*
X7890451Y11969945D01*
X7906814Y11975399D01*
X7912270Y11980854D01*
X7917723Y11991764D01*
X10883900Y11881289D02*
G01*
X10883900Y11766745D01*
X10883900Y11881289D02*
G01*
X10834809Y11881289D01*
X10818446Y11875836D01*
X10812990Y11870382D01*
X10807537Y11859473D01*
X10807537Y11843108D01*
X10812990Y11832199D01*
X10818446Y11826745D01*
X10834809Y11821289D01*
X10883900Y11821289D01*
X10727900Y11881289D02*
G01*
X10771535Y11766745D01*
X10727900Y11881289D02*
G01*
X10684263Y11766745D01*
X10755172Y11804926D02*
G01*
X10700628Y11804926D01*
X10648264Y11881289D02*
G01*
X10648264Y11766745D01*
X10648264Y11881289D02*
G01*
X10599173Y11881289D01*
X10582810Y11875836D01*
X10577355Y11870382D01*
X10571900Y11859473D01*
X10571900Y11848564D01*
X10577355Y11837654D01*
X10582810Y11832199D01*
X10599173Y11826745D01*
X10648264Y11826745D01*
X10610082Y11826745D02*
G01*
X10571900Y11766745D01*
X10497718Y11881289D02*
G01*
X10497718Y11766745D01*
X10535900Y11881289D02*
G01*
X10459537Y11881289D01*
X10339537Y11881289D02*
G01*
X10339537Y11766745D01*
X10339537Y11881289D02*
G01*
X10263174Y11766745D01*
X10263174Y11881289D02*
G01*
X10263174Y11766745D01*
X10227172Y11881289D02*
G01*
X10227172Y11799473D01*
X10221719Y11783108D01*
X10210810Y11772199D01*
X10194447Y11766745D01*
X10183538Y11766745D01*
X10167172Y11772199D01*
X10156266Y11783108D01*
X10150810Y11799473D01*
X10150810Y11881289D01*
X10114810Y11881289D02*
G01*
X10114810Y11766745D01*
X10114810Y11881289D02*
G01*
X10071173Y11766745D01*
X10027538Y11881289D02*
G01*
X10071173Y11766745D01*
X10027538Y11881289D02*
G01*
X10027538Y11766745D01*
X9991537Y11881289D02*
G01*
X9991537Y11766745D01*
X9991537Y11881289D02*
G01*
X9942446Y11881289D01*
X9926083Y11875836D01*
X9920630Y11870382D01*
X9915174Y11859473D01*
X9915174Y11848564D01*
X9920630Y11837654D01*
X9926083Y11832199D01*
X9942446Y11826745D01*
X9991537Y11826745D02*
G01*
X9942446Y11826745D01*
X9926083Y11821289D01*
X9920630Y11815836D01*
X9915174Y11804926D01*
X9915174Y11788564D01*
X9920630Y11777654D01*
X9926083Y11772199D01*
X9942446Y11766745D01*
X9991537Y11766745D01*
X9879175Y11881289D02*
G01*
X9879175Y11766745D01*
X9879175Y11881289D02*
G01*
X9808265Y11881289D01*
X9879175Y11826745D02*
G01*
X9835537Y11826745D01*
X9879175Y11766745D02*
G01*
X9808265Y11766745D01*
X9772266Y11881289D02*
G01*
X9772266Y11766745D01*
X9772266Y11881289D02*
G01*
X9723175Y11881289D01*
X9706810Y11875836D01*
X9701357Y11870382D01*
X9695901Y11859473D01*
X9695901Y11848564D01*
X9701357Y11837654D01*
X9706810Y11832199D01*
X9723175Y11826745D01*
X9772266Y11826745D01*
X9734085Y11826745D02*
G01*
X9695901Y11766745D01*
X9570448Y11854017D02*
G01*
X9570448Y11859473D01*
X9564992Y11870382D01*
X9559538Y11875836D01*
X9548629Y11881289D01*
X9526811Y11881289D01*
X9515901Y11875836D01*
X9510448Y11870382D01*
X9504992Y11859473D01*
X9504992Y11848564D01*
X9510448Y11837654D01*
X9521357Y11821289D01*
X9575901Y11766745D01*
X9499539Y11766745D01*
X9436267Y11881289D02*
G01*
X9452630Y11875836D01*
X9458083Y11864926D01*
X9458083Y11854017D01*
X9452630Y11843108D01*
X9441721Y11837654D01*
X9419902Y11832199D01*
X9403539Y11826745D01*
X9392630Y11815836D01*
X9387174Y11804926D01*
X9387174Y11788564D01*
X9392630Y11777654D01*
X9398083Y11772199D01*
X9414449Y11766745D01*
X9436267Y11766745D01*
X9452630Y11772199D01*
X9458083Y11777654D01*
X9463539Y11788564D01*
X9463539Y11804926D01*
X9458083Y11815836D01*
X9447174Y11826745D01*
X9430811Y11832199D01*
X9408993Y11837654D01*
X9398083Y11843108D01*
X9392630Y11854017D01*
X9392630Y11864926D01*
X9398083Y11875836D01*
X9414449Y11881289D01*
X9436267Y11881289D01*
X9345721Y11854017D02*
G01*
X9345721Y11859473D01*
X9340265Y11870382D01*
X9334812Y11875836D01*
X9323903Y11881289D01*
X9302084Y11881289D01*
X9291175Y11875836D01*
X9285721Y11870382D01*
X9280265Y11859473D01*
X9280265Y11848564D01*
X9285721Y11837654D01*
X9296631Y11821289D01*
X9351175Y11766745D01*
X9274812Y11766745D01*
X9206085Y11881289D02*
G01*
X9222447Y11875836D01*
X9233357Y11859473D01*
X9238813Y11832199D01*
X9238813Y11815836D01*
X9233357Y11788564D01*
X9222447Y11772199D01*
X9206085Y11766745D01*
X9195175Y11766745D01*
X9178813Y11772199D01*
X9167903Y11788564D01*
X9162448Y11815836D01*
X9162448Y11832199D01*
X9167903Y11859473D01*
X9178813Y11875836D01*
X9195175Y11881289D01*
X9206085Y11881289D01*
X9126448Y11815836D02*
G01*
X9028267Y11815836D01*
X8959540Y11881289D02*
G01*
X8975902Y11875836D01*
X8986812Y11859473D01*
X8992268Y11832199D01*
X8992268Y11815836D01*
X8986812Y11788564D01*
X8975902Y11772199D01*
X8959540Y11766745D01*
X8948630Y11766745D01*
X8932268Y11772199D01*
X8921358Y11788564D01*
X8915902Y11815836D01*
X8915902Y11832199D01*
X8921358Y11859473D01*
X8932268Y11875836D01*
X8948630Y11881289D01*
X8959540Y11881289D01*
X8879903Y11859473D02*
G01*
X8868994Y11864926D01*
X8852631Y11881289D01*
X8852631Y11766745D01*
X8783904Y11881289D02*
G01*
X8800266Y11875836D01*
X8811176Y11859473D01*
X8816632Y11832199D01*
X8816632Y11815836D01*
X8811176Y11788564D01*
X8800266Y11772199D01*
X8783904Y11766745D01*
X8772994Y11766745D01*
X8756632Y11772199D01*
X8745722Y11788564D01*
X8740266Y11815836D01*
X8740266Y11832199D01*
X8745722Y11859473D01*
X8756632Y11875836D01*
X8772994Y11881289D01*
X8783904Y11881289D01*
X8704267Y11859473D02*
G01*
X8693358Y11864926D01*
X8676995Y11881289D01*
X8676995Y11766745D01*
D12*
X509201Y3009900D02*
G01*
X509201Y10009901D01*
X511898Y10007600D02*
G01*
X5611898Y10007600D01*
X511898Y2997200D02*
G01*
X5611898Y2997200D01*
X5614598Y2997200D02*
G01*
X5614598Y9997201D01*
X8597900Y10109200D02*
G01*
X10597895Y10109200D01*
X10597895Y4309186D01*
X8597900Y4309186D01*
X8597900Y10109200D01*
G36*
X3708400Y12153900D02*
G01*
X5645150Y12153900D01*
X5645150Y11692001D01*
X3708400Y11692001D01*
G37*
G36*
X508000Y12153900D02*
G01*
X2444750Y12153900D01*
X2444750Y11692001D01*
X508000Y11692001D01*
G37*
M02*
