M48
METRIC,LZ,000.000
;FILE_FORMAT=3:3
;TYPE=PLATED
;Layer: PTH_Through
;EasyEDA v6.5.29, 2023-07-18 10:40:53
;4c059b13f8394eaabd7c1ccd551ef848,5a6b42c53f6a479593ecc07194224c93,10
;Gerber Generator version 0.2
;Holesize 1 = 0.305 mm
T01C0.305
;Holesize 2 = 0.901 mm
T02C0.901
;Holesize 3 = 1.000 mm
T03C1.000
;Holesize 4 = 1.100 mm
T04C1.100
;Holesize 5 = 2.701 mm
T05C2.701
%
G05
G90
T01
X037846Y060892
X056245Y098992
X075422Y111760
X056245Y111760
X037195Y111760
X018018Y111760
X018669Y063432
X057023Y058352
X076200Y055812
X012192Y091372
X021717Y093912
X040894Y086292
X031369Y083752
X048260Y076132
X059944Y078672
X079121Y071052
X069596Y068512
X043187Y021082
X045717Y016899
X043187Y028194
X045717Y009779
X043187Y098992
X045717Y096452
X016018Y088832
X073422Y065972
X054245Y073592
X035195Y081212
X044323Y024638
X025146Y024638
X025146Y013335
X044323Y013335
X037115Y013371
X056165Y013371
X056165Y024674
X037115Y024674
X063373Y024638
X063373Y013335
X075342Y013371
X075342Y024674
X017938Y024674
X017938Y013371
X020224Y018959
X039401Y018959
X058451Y018959
X077628Y018959
X025146Y009017
X044323Y009017
X063373Y009017
T02
X039195Y108839
X037195Y108839
X035195Y108839
X033195Y108839
X058245Y108839
X056245Y108839
X054245Y108839
X052245Y108839
X077422Y108839
X075422Y108839
X073422Y108839
X071422Y108839
X020018Y108839
X018018Y108839
X016018Y108839
X014018Y108839
T03
X060211Y101532
X060211Y093912
X060211Y096452
X060211Y098992
X051321Y101532
X051321Y053272
X051321Y055812
X051321Y058352
X051321Y060892
X051321Y063432
X051321Y065972
X051321Y068512
X051321Y071052
X051321Y073592
X051321Y076132
X051321Y078672
X051321Y081212
X051321Y083752
X051321Y086292
X051321Y088832
X051321Y091372
X051321Y093912
X051321Y096452
X051321Y098992
T04
X020190Y022352G85X020196Y022352
X013691Y022352G85X013696Y022352
X020193Y026853G85X020193Y026853
X013691Y026853G85X013696Y026853
X016942Y028202G85X016944Y028202
X020541Y024602G85X020546Y024602
X017144Y021082G85X017146Y021082
X013334Y024638G85X013336Y024638
X039367Y022352G85X039373Y022352
X032868Y022352G85X032873Y022352
X039370Y026853G85X039370Y026853
X032868Y026853G85X032873Y026853
X036119Y028202G85X036121Y028202
X039718Y024602G85X039723Y024602
X036321Y021082G85X036323Y021082
X032511Y024638G85X032513Y024638
X058417Y022352G85X058423Y022352
X051918Y022352G85X051923Y022352
X058420Y026853G85X058420Y026853
X051918Y026853G85X051923Y026853
X055169Y028202G85X055171Y028202
X058768Y024602G85X058773Y024602
X055371Y021082G85X055373Y021082
X051561Y024638G85X051563Y024638
X077594Y022352G85X077600Y022352
X071095Y022352G85X071100Y022352
X077597Y026853G85X077597Y026853
X071095Y026853G85X071100Y026853
X074346Y028202G85X074348Y028202
X077945Y024602G85X077950Y024602
X074548Y021082G85X074550Y021082
X070738Y024638G85X070740Y024638
X020190Y011049G85X020196Y011049
X013691Y011049G85X013696Y011049
X020193Y015550G85X020193Y015550
X013691Y015550G85X013696Y015550
X016942Y016899G85X016944Y016899
X020541Y013299G85X020546Y013299
X017144Y009779G85X017146Y009779
X013334Y013335G85X013336Y013335
X039367Y011049G85X039373Y011049
X032868Y011049G85X032873Y011049
X039370Y015550G85X039370Y015550
X032868Y015550G85X032873Y015550
X036119Y016899G85X036121Y016899
X039718Y013299G85X039723Y013299
X036321Y009779G85X036323Y009779
X032511Y013335G85X032513Y013335
X058417Y011049G85X058423Y011049
X051918Y011049G85X051923Y011049
X058420Y015550G85X058420Y015550
X051918Y015550G85X051923Y015550
X055169Y016899G85X055171Y016899
X058768Y013299G85X058773Y013299
X055371Y009779G85X055373Y009779
X051561Y013335G85X051563Y013335
X077594Y011049G85X077600Y011049
X071095Y011049G85X071100Y011049
X077597Y015550G85X077597Y015550
X071095Y015550G85X071100Y015550
X074346Y016899G85X074348Y016899
X077945Y013299G85X077950Y013299
X074548Y009779G85X074550Y009779
X070738Y013335G85X070740Y013335
T05
X084214Y098738
X006414Y098738
X084214Y050038
X006414Y050038
M30
