G04 Layer: TopSolderMaskLayer*
G04 EasyEDA v6.5.29, 2023-07-18 10:40:53*
G04 4c059b13f8394eaabd7c1ccd551ef848,5a6b42c53f6a479593ecc07194224c93,10*
G04 Gerber Generator version 0.2*
G04 Scale: 100 percent, Rotated: No, Reflected: No *
G04 Dimensions in millimeters *
G04 leading zeros omitted , absolute positions ,4 integer and 5 decimal *
%FSLAX45Y45*%
%MOMM*%

%AMMACRO1*1,1,$1,$2,$3*1,1,$1,$4,$5*1,1,$1,0-$2,0-$3*1,1,$1,0-$4,0-$5*20,1,$1,$2,$3,$4,$5,0*20,1,$1,$4,$5,0-$2,0-$3,0*20,1,$1,0-$2,0-$3,0-$4,0-$5,0*20,1,$1,0-$4,0-$5,$2,$3,0*4,1,4,$2,$3,$4,$5,0-$2,0-$3,0-$4,0-$5,$2,$3,0*%
%ADD10C,1.9016*%
%ADD11MACRO1,0.1016X0.85X0.9X0.85X-0.9*%
%ADD12MACRO1,0.1016X0.9X-0.9X0.9X0.9*%
%ADD13C,1.8532*%
%ADD14MACRO1,0.1016X0.575X0.475X0.575X-0.475*%
%ADD15C,1.5016*%
%ADD16MACRO1,0.1016X-0.762X0.7X0.762X0.7*%
%ADD17C,5.2032*%

%LPD*%
D10*
G01*
X6021095Y10153192D03*
D11*
G01*
X6021094Y9391192D03*
D10*
G01*
X6021095Y9645192D03*
G01*
X6021095Y9899192D03*
G01*
X5132095Y10153192D03*
D12*
G01*
X5132095Y5327192D03*
D10*
G01*
X5132095Y5581192D03*
G01*
X5132095Y5835192D03*
G01*
X5132095Y6089192D03*
G01*
X5132095Y6343192D03*
G01*
X5132095Y6597192D03*
G01*
X5132095Y6851192D03*
G01*
X5132095Y7105192D03*
G01*
X5132095Y7359192D03*
G01*
X5132095Y7613192D03*
G01*
X5132095Y7867192D03*
G01*
X5132095Y8121192D03*
G01*
X5132095Y8375192D03*
G01*
X5132095Y8629192D03*
G01*
X5132095Y8883192D03*
G01*
X5132095Y9137192D03*
G01*
X5132095Y9391192D03*
G01*
X5132095Y9645192D03*
G01*
X5132095Y9899192D03*
D13*
G01*
X2019300Y2235200D03*
G01*
X1369288Y2235200D03*
G01*
X2019300Y2685211D03*
G01*
X1369288Y2685211D03*
G01*
X1694306Y2820187D03*
G01*
X2054301Y2460193D03*
G01*
X1714500Y2108200D03*
G01*
X1333500Y2463800D03*
G01*
X3937000Y2235200D03*
G01*
X3286988Y2235200D03*
G01*
X3937000Y2685211D03*
G01*
X3286988Y2685211D03*
G01*
X3612006Y2820187D03*
G01*
X3972001Y2460193D03*
G01*
X3632200Y2108200D03*
G01*
X3251200Y2463800D03*
G01*
X5842000Y2235200D03*
G01*
X5191988Y2235200D03*
G01*
X5842000Y2685211D03*
G01*
X5191988Y2685211D03*
G01*
X5517006Y2820187D03*
G01*
X5877001Y2460193D03*
G01*
X5537200Y2108200D03*
G01*
X5156200Y2463800D03*
G01*
X7759700Y2235200D03*
G01*
X7109688Y2235200D03*
G01*
X7759700Y2685211D03*
G01*
X7109688Y2685211D03*
G01*
X7434706Y2820187D03*
G01*
X7794701Y2460193D03*
G01*
X7454900Y2108200D03*
G01*
X7073900Y2463800D03*
G01*
X2019300Y1104900D03*
G01*
X1369288Y1104900D03*
G01*
X2019300Y1554911D03*
G01*
X1369288Y1554911D03*
G01*
X1694306Y1689887D03*
G01*
X2054301Y1329893D03*
G01*
X1714500Y977900D03*
G01*
X1333500Y1333500D03*
G01*
X3937000Y1104900D03*
G01*
X3286988Y1104900D03*
G01*
X3937000Y1554911D03*
G01*
X3286988Y1554911D03*
G01*
X3612006Y1689887D03*
G01*
X3972001Y1329893D03*
G01*
X3632200Y977900D03*
G01*
X3251200Y1333500D03*
G01*
X5842000Y1104900D03*
G01*
X5191988Y1104900D03*
G01*
X5842000Y1554911D03*
G01*
X5191988Y1554911D03*
G01*
X5517006Y1689887D03*
G01*
X5877001Y1329893D03*
G01*
X5537200Y977900D03*
G01*
X5156200Y1333500D03*
G01*
X7759700Y1104900D03*
G01*
X7109688Y1104900D03*
G01*
X7759700Y1554911D03*
G01*
X7109688Y1554911D03*
G01*
X7434706Y1689887D03*
G01*
X7794701Y1329893D03*
G01*
X7454900Y977900D03*
G01*
X7073900Y1333500D03*
D14*
G01*
X1866900Y4233240D03*
G01*
X1866900Y3894759D03*
G01*
X3441700Y4233240D03*
G01*
X3441700Y3894759D03*
G01*
X1524000Y4233240D03*
G01*
X1524000Y3894759D03*
G01*
X3784602Y4233240D03*
G01*
X3784602Y3894759D03*
G01*
X5702305Y4233240D03*
G01*
X5702305Y3894759D03*
G01*
X5359402Y4233240D03*
G01*
X5359402Y3894759D03*
G01*
X7620007Y4233240D03*
G01*
X7620007Y3894759D03*
G01*
X7277105Y4233240D03*
G01*
X7277105Y3894759D03*
D15*
G01*
X3919499Y10883900D03*
G01*
X3719499Y10883900D03*
G01*
X3519500Y10883900D03*
D16*
G01*
X3319500Y10883900D03*
D15*
G01*
X5824499Y10883900D03*
G01*
X5624499Y10883900D03*
G01*
X5424500Y10883900D03*
D16*
G01*
X5224500Y10883900D03*
D15*
G01*
X7742199Y10883900D03*
G01*
X7542199Y10883900D03*
G01*
X7342200Y10883900D03*
D16*
G01*
X7142200Y10883900D03*
D15*
G01*
X2001799Y10883900D03*
G01*
X1801799Y10883900D03*
G01*
X1601800Y10883900D03*
D16*
G01*
X1401800Y10883900D03*
D17*
G01*
X8421395Y9873792D03*
G01*
X641400Y9873792D03*
G01*
X8421395Y5003800D03*
G01*
X641400Y5003800D03*
M02*
